<?xml version="1.0" encoding="UTF-8" standalone="no"?>
<!DOCTYPE svg PUBLIC "-//W3C//DTD SVG 1.1//EN"
 "http://www.w3.org/Graphics/SVG/1.1/DTD/svg11.dtd">
<!-- Generated by graphviz version 2.26.3 (20100126.1600)
 -->
<!-- Title: /home/travis/build/LibrePCB/LibrePCB/libs/librepcbproject/boards/cmd/cmdcomponentinstanceremove.cpp Pages: 1 -->
<svg width="996pt" height="446pt"
 viewBox="0.00 0.00 996.00 446.00" xmlns="http://www.w3.org/2000/svg" xmlns:xlink="http://www.w3.org/1999/xlink">
<g id="graph1" class="graph" transform="scale(1 1) rotate(0) translate(4 442)">
<title>/home/travis/build/LibrePCB/LibrePCB/libs/librepcbproject/boards/cmd/cmdcomponentinstanceremove.cpp</title>
<polygon fill="white" stroke="white" points="-4,5 -4,-442 993,-442 993,5 -4,5"/>
<!-- Node1 -->
<g id="node1" class="node"><title>Node1</title>
<polygon fill="#bfbfbf" stroke="black" points="60,-377 60,-437 256,-437 256,-377 60,-377"/>
<text text-anchor="start" x="68" y="-424" font-family="Helvetica,sans-Serif" font-size="10.00">/home/travis/build</text>
<text text-anchor="start" x="68" y="-411" font-family="Helvetica,sans-Serif" font-size="10.00">/LibrePCB/LibrePCB/libs</text>
<text text-anchor="start" x="68" y="-398" font-family="Helvetica,sans-Serif" font-size="10.00">/librepcbproject/boards</text>
<text text-anchor="middle" x="158" y="-385" font-family="Helvetica,sans-Serif" font-size="10.00">/cmd/cmdcomponentinstanceremove.cpp</text>
</g>
<!-- Node2 -->
<g id="node3" class="node"><title>Node2</title>
<polygon fill="white" stroke="#bfbfbf" points="556,-0.5 556,-21.5 604,-21.5 604,-0.5 556,-0.5"/>
<text text-anchor="middle" x="580" y="-8.5" font-family="Helvetica,sans-Serif" font-size="10.00">QtCore</text>
</g>
<!-- Node1&#45;&gt;Node2 -->
<g id="edge2" class="edge"><title>Node1&#45;&gt;Node2</title>
<path fill="none" stroke="midnightblue" d="M89.1585,-376.919C46.5808,-353.165 0,-315.426 0,-264 0,-264 0,-264 0,-141 3.9483e-15,-76.5173 58.5451,-80.4327 119,-58 197.436,-28.8953 452.709,-16.0595 545.709,-12.2684"/>
<polygon fill="midnightblue" stroke="midnightblue" points="545.866,-15.765 555.719,-11.87 545.587,-8.77054 545.866,-15.765"/>
</g>
<!-- Node3 -->
<g id="node5" class="node"><title>Node3</title>
<a xlink:href="../../d2/ddb/cmdcomponentinstanceremove_8h.html" target="_top" xlink:title="cmdcomponentinstanceremove.h">
<polygon fill="white" stroke="black" points="27.5,-188.5 27.5,-209.5 188.5,-209.5 188.5,-188.5 27.5,-188.5"/>
<text text-anchor="middle" x="108" y="-196.5" font-family="Helvetica,sans-Serif" font-size="10.00">cmdcomponentinstanceremove.h</text>
</a>
</g>
<!-- Node1&#45;&gt;Node3 -->
<g id="edge4" class="edge"><title>Node1&#45;&gt;Node3</title>
<path fill="none" stroke="midnightblue" d="M125.278,-376.6C102.668,-353.226 74.4974,-318.791 62,-282 56.8538,-266.85 55.9566,-260.815 62,-246 66.6885,-234.507 75.6911,-224.299 84.498,-216.357"/>
<polygon fill="midnightblue" stroke="midnightblue" points="86.9881,-218.837 92.4015,-209.729 82.4901,-213.473 86.9881,-218.837"/>
</g>
<!-- Node6 -->
<g id="node14" class="node"><title>Node6</title>
<a xlink:href="../../df/d9b/componentinstance_8h.html" target="_top" xlink:title="../componentinstance.h">
<polygon fill="white" stroke="black" points="218.5,-318.5 218.5,-339.5 337.5,-339.5 337.5,-318.5 218.5,-318.5"/>
<text text-anchor="middle" x="278" y="-326.5" font-family="Helvetica,sans-Serif" font-size="10.00">../componentinstance.h</text>
</a>
</g>
<!-- Node1&#45;&gt;Node6 -->
<g id="edge16" class="edge"><title>Node1&#45;&gt;Node6</title>
<path fill="none" stroke="midnightblue" d="M204.395,-376.843C220.95,-366.082 238.964,-354.373 253.028,-345.232"/>
<polygon fill="midnightblue" stroke="midnightblue" points="255.166,-348.016 261.643,-339.632 251.352,-342.147 255.166,-348.016"/>
</g>
<!-- Node15 -->
<g id="node43" class="node"><title>Node15</title>
<a xlink:href="../../d3/d02/board_8h.html" target="_top" xlink:title="../board.h">
<polygon fill="white" stroke="black" points="573,-318.5 573,-339.5 631,-339.5 631,-318.5 573,-318.5"/>
<text text-anchor="middle" x="602" y="-326.5" font-family="Helvetica,sans-Serif" font-size="10.00">../board.h</text>
</a>
</g>
<!-- Node1&#45;&gt;Node15 -->
<g id="edge56" class="edge"><title>Node1&#45;&gt;Node15</title>
<path fill="none" stroke="midnightblue" d="M256.263,-389.738C352.717,-372.793 494.959,-347.804 562.983,-335.854"/>
<polygon fill="midnightblue" stroke="midnightblue" points="563.613,-339.297 572.856,-334.12 562.401,-332.403 563.613,-339.297"/>
</g>
<!-- Node3&#45;&gt;Node2 -->
<g id="edge6" class="edge"><title>Node3&#45;&gt;Node2</title>
<path fill="none" stroke="midnightblue" d="M101.07,-188.459C92.6951,-174.267 81.0122,-148.646 92,-130 125.532,-73.0975 159.267,-78.6612 222,-58 281.709,-38.3347 467.604,-20.6342 545.31,-13.8907"/>
<polygon fill="midnightblue" stroke="midnightblue" points="545.869,-17.3557 555.533,-13.0128 545.27,-10.3813 545.869,-17.3557"/>
</g>
<!-- Node4 -->
<g id="node8" class="node"><title>Node4</title>
<a xlink:href="../../dc/da0/undocommand_8h.html" target="_top" xlink:title="librepcbcommon/undocommand.h">
<polygon fill="white" stroke="black" points="100.5,-130.5 100.5,-151.5 263.5,-151.5 263.5,-130.5 100.5,-130.5"/>
<text text-anchor="middle" x="182" y="-138.5" font-family="Helvetica,sans-Serif" font-size="10.00">librepcbcommon/undocommand.h</text>
</a>
</g>
<!-- Node3&#45;&gt;Node4 -->
<g id="edge8" class="edge"><title>Node3&#45;&gt;Node4</title>
<path fill="none" stroke="midnightblue" d="M121.573,-188.362C132.421,-179.859 147.834,-167.779 160.379,-157.947"/>
<polygon fill="midnightblue" stroke="midnightblue" points="162.802,-160.494 168.513,-151.571 158.484,-154.985 162.802,-160.494"/>
</g>
<!-- Node4&#45;&gt;Node2 -->
<g id="edge10" class="edge"><title>Node4&#45;&gt;Node2</title>
<path fill="none" stroke="midnightblue" d="M190.648,-130.223C205.938,-112 239.678,-75.3881 277,-58 324.292,-35.9674 476.801,-20.1202 545.676,-13.9032"/>
<polygon fill="midnightblue" stroke="midnightblue" points="546.332,-17.3589 555.984,-12.9887 545.713,-10.3863 546.332,-17.3589"/>
</g>
<!-- Node5 -->
<g id="node11" class="node"><title>Node5</title>
<a xlink:href="../../d4/d03/exceptions_8h.html" target="_top" xlink:title="exceptions.h">
<polygon fill="white" stroke="black" points="512,-65.5 512,-86.5 584,-86.5 584,-65.5 512,-65.5"/>
<text text-anchor="middle" x="548" y="-73.5" font-family="Helvetica,sans-Serif" font-size="10.00">exceptions.h</text>
</a>
</g>
<!-- Node4&#45;&gt;Node5 -->
<g id="edge12" class="edge"><title>Node4&#45;&gt;Node5</title>
<path fill="none" stroke="midnightblue" d="M241.211,-130.484C313.899,-117.575 435.639,-95.9548 501.798,-84.2053"/>
<polygon fill="midnightblue" stroke="midnightblue" points="502.689,-87.6019 511.923,-82.4071 501.465,-80.7097 502.689,-87.6019"/>
</g>
<!-- Node5&#45;&gt;Node2 -->
<g id="edge14" class="edge"><title>Node5&#45;&gt;Node2</title>
<path fill="none" stroke="midnightblue" d="M553.284,-65.2666C557.897,-55.8959 564.71,-42.0573 570.301,-30.7004"/>
<polygon fill="midnightblue" stroke="midnightblue" points="573.537,-32.0513 574.814,-21.5337 567.257,-28.9595 573.537,-32.0513"/>
</g>
<!-- Node6&#45;&gt;Node2 -->
<g id="edge18" class="edge"><title>Node6&#45;&gt;Node2</title>
<path fill="none" stroke="midnightblue" d="M218.322,-323.584C152.685,-315.129 60.7465,-294.414 95,-246 122.766,-206.755 153.562,-230.598 197,-210 314.496,-154.285 329.515,-113.738 447,-58 479.568,-42.5487 518.654,-29.3274 545.996,-20.88"/>
<polygon fill="midnightblue" stroke="midnightblue" points="547.312,-24.1383 555.862,-17.8815 545.276,-17.4408 547.312,-24.1383"/>
</g>
<!-- Node7 -->
<g id="node17" class="node"><title>Node7</title>
<a xlink:href="../../d1/da8/all__length__units_8h.html" target="_top" xlink:title="librepcbcommon/units\l/all_length_units.h">
<polygon fill="white" stroke="black" points="630,-247 630,-281 742,-281 742,-247 630,-247"/>
<text text-anchor="start" x="638" y="-268" font-family="Helvetica,sans-Serif" font-size="10.00">librepcbcommon/units</text>
<text text-anchor="middle" x="686" y="-255" font-family="Helvetica,sans-Serif" font-size="10.00">/all_length_units.h</text>
</a>
</g>
<!-- Node6&#45;&gt;Node7 -->
<g id="edge20" class="edge"><title>Node6&#45;&gt;Node7</title>
<path fill="none" stroke="midnightblue" d="M337.668,-320.168C399.194,-310.976 497.885,-295.994 583,-282 594.895,-280.044 607.55,-277.892 619.769,-275.777"/>
<polygon fill="midnightblue" stroke="midnightblue" points="620.653,-279.176 629.905,-274.014 619.453,-272.279 620.653,-279.176"/>
</g>
<!-- Node12 -->
<g id="node35" class="node"><title>Node12</title>
<a xlink:href="../../da/d81/if__attributeprovider_8h.html" target="_top" xlink:title="librepcbcommon/if_attributeprovider.h">
<polygon fill="white" stroke="black" points="103.5,-253.5 103.5,-274.5 282.5,-274.5 282.5,-253.5 103.5,-253.5"/>
<text text-anchor="middle" x="193" y="-261.5" font-family="Helvetica,sans-Serif" font-size="10.00">librepcbcommon/if_attributeprovider.h</text>
</a>
</g>
<!-- Node6&#45;&gt;Node12 -->
<g id="edge46" class="edge"><title>Node6&#45;&gt;Node12</title>
<path fill="none" stroke="midnightblue" d="M263.964,-318.267C250.596,-308.044 230.275,-292.504 214.799,-280.67"/>
<polygon fill="midnightblue" stroke="midnightblue" points="216.845,-277.828 206.775,-274.534 212.592,-283.389 216.845,-277.828"/>
</g>
<!-- Node13 -->
<g id="node38" class="node"><title>Node13</title>
<a xlink:href="../../da/dfb/if__ercmsgprovider_8h.html" target="_top" xlink:title="../erc/if_ercmsgprovider.h">
<polygon fill="white" stroke="black" points="300,-253.5 300,-274.5 428,-274.5 428,-253.5 300,-253.5"/>
<text text-anchor="middle" x="364" y="-261.5" font-family="Helvetica,sans-Serif" font-size="10.00">../erc/if_ercmsgprovider.h</text>
</a>
</g>
<!-- Node6&#45;&gt;Node13 -->
<g id="edge50" class="edge"><title>Node6&#45;&gt;Node13</title>
<path fill="none" stroke="midnightblue" d="M292.201,-318.267C305.726,-308.044 326.287,-292.504 341.944,-280.67"/>
<polygon fill="midnightblue" stroke="midnightblue" points="344.196,-283.356 350.063,-274.534 339.975,-277.771 344.196,-283.356"/>
</g>
<!-- Node14 -->
<g id="node40" class="node"><title>Node14</title>
<a xlink:href="../../d0/d1d/if__xmlserializableobject_8h.html" target="_top" xlink:title="librepcbcommon/fileio\l/if_xmlserializableobject.h">
<polygon fill="white" stroke="black" points="445.5,-247 445.5,-281 574.5,-281 574.5,-247 445.5,-247"/>
<text text-anchor="start" x="453.5" y="-268" font-family="Helvetica,sans-Serif" font-size="10.00">librepcbcommon/fileio</text>
<text text-anchor="middle" x="510" y="-255" font-family="Helvetica,sans-Serif" font-size="10.00">/if_xmlserializableobject.h</text>
</a>
</g>
<!-- Node6&#45;&gt;Node14 -->
<g id="edge52" class="edge"><title>Node6&#45;&gt;Node14</title>
<path fill="none" stroke="midnightblue" d="M315.533,-318.484C348.824,-309.157 398.349,-295.282 439.087,-283.868"/>
<polygon fill="midnightblue" stroke="midnightblue" points="440.286,-287.167 448.971,-281.099 438.397,-280.426 440.286,-287.167"/>
</g>
<!-- Node8 -->
<g id="node19" class="node"><title>Node8</title>
<a xlink:href="../../d0/d09/lengthunit_8h.html" target="_top" xlink:title="lengthunit.h">
<polygon fill="white" stroke="black" points="575.5,-130.5 575.5,-151.5 642.5,-151.5 642.5,-130.5 575.5,-130.5"/>
<text text-anchor="middle" x="609" y="-138.5" font-family="Helvetica,sans-Serif" font-size="10.00">lengthunit.h</text>
</a>
</g>
<!-- Node7&#45;&gt;Node8 -->
<g id="edge22" class="edge"><title>Node7&#45;&gt;Node8</title>
<path fill="none" stroke="midnightblue" d="M675.293,-246.897C661.066,-224.17 635.996,-184.123 621.099,-160.326"/>
<polygon fill="midnightblue" stroke="midnightblue" points="624.026,-158.406 615.753,-151.787 618.093,-162.121 624.026,-158.406"/>
</g>
<!-- Node9 -->
<g id="node23" class="node"><title>Node9</title>
<a xlink:href="../../dd/db9/length_8h.html" target="_top" xlink:title="length.h">
<polygon fill="white" stroke="black" points="659.5,-130.5 659.5,-151.5 710.5,-151.5 710.5,-130.5 659.5,-130.5"/>
<text text-anchor="middle" x="685" y="-138.5" font-family="Helvetica,sans-Serif" font-size="10.00">length.h</text>
</a>
</g>
<!-- Node7&#45;&gt;Node9 -->
<g id="edge28" class="edge"><title>Node7&#45;&gt;Node9</title>
<path fill="none" stroke="midnightblue" d="M678.318,-246.903C672.354,-231.569 665.621,-208.409 669,-188 670.505,-178.912 673.542,-169.22 676.569,-161.013"/>
<polygon fill="midnightblue" stroke="midnightblue" points="679.881,-162.155 680.283,-151.568 673.366,-159.594 679.881,-162.155"/>
</g>
<!-- Node10 -->
<g id="node27" class="node"><title>Node10</title>
<a xlink:href="../../d2/d91/point_8h.html" target="_top" xlink:title="point.h">
<polygon fill="white" stroke="black" points="678,-188.5 678,-209.5 724,-209.5 724,-188.5 678,-188.5"/>
<text text-anchor="middle" x="701" y="-196.5" font-family="Helvetica,sans-Serif" font-size="10.00">point.h</text>
</a>
</g>
<!-- Node7&#45;&gt;Node10 -->
<g id="edge34" class="edge"><title>Node7&#45;&gt;Node10</title>
<path fill="none" stroke="midnightblue" d="M689.941,-246.922C691.866,-238.579 694.199,-228.47 696.225,-219.692"/>
<polygon fill="midnightblue" stroke="midnightblue" points="699.657,-220.383 698.496,-209.852 692.837,-218.809 699.657,-220.383"/>
</g>
<!-- Node11 -->
<g id="node31" class="node"><title>Node11</title>
<a xlink:href="../../da/dac/angle_8h.html" target="_top" xlink:title="angle.h">
<polygon fill="white" stroke="black" points="728,-130.5 728,-151.5 776,-151.5 776,-130.5 728,-130.5"/>
<text text-anchor="middle" x="752" y="-138.5" font-family="Helvetica,sans-Serif" font-size="10.00">angle.h</text>
</a>
</g>
<!-- Node7&#45;&gt;Node11 -->
<g id="edge40" class="edge"><title>Node7&#45;&gt;Node11</title>
<path fill="none" stroke="midnightblue" d="M704.79,-246.567C714.459,-236.674 725.714,-223.58 733,-210 741.065,-194.968 745.945,-176.213 748.735,-162.052"/>
<polygon fill="midnightblue" stroke="midnightblue" points="752.247,-162.297 750.547,-151.839 745.354,-161.074 752.247,-162.297"/>
</g>
<!-- Node8&#45;&gt;Node2 -->
<g id="edge24" class="edge"><title>Node8&#45;&gt;Node2</title>
<path fill="none" stroke="midnightblue" d="M607.245,-130.461C604.549,-114.644 599.059,-83.8615 593,-58 590.959,-49.2883 588.387,-39.7591 586.071,-31.5722"/>
<polygon fill="midnightblue" stroke="midnightblue" points="589.376,-30.4015 583.24,-21.7647 582.651,-32.3431 589.376,-30.4015"/>
</g>
<!-- Node8&#45;&gt;Node5 -->
<g id="edge26" class="edge"><title>Node8&#45;&gt;Node5</title>
<path fill="none" stroke="midnightblue" d="M598.927,-130.267C589.689,-120.423 575.824,-105.648 564.892,-93.9996"/>
<polygon fill="midnightblue" stroke="midnightblue" points="567.281,-91.4305 557.885,-86.5337 562.176,-96.2207 567.281,-91.4305"/>
</g>
<!-- Node9&#45;&gt;Node2 -->
<g id="edge30" class="edge"><title>Node9&#45;&gt;Node2</title>
<path fill="none" stroke="midnightblue" d="M676.407,-130.362C658.641,-108.365 617.658,-57.6236 595.273,-29.909"/>
<polygon fill="midnightblue" stroke="midnightblue" points="597.718,-27.3657 588.711,-21.7854 592.272,-31.7641 597.718,-27.3657"/>
</g>
<!-- Node9&#45;&gt;Node5 -->
<g id="edge32" class="edge"><title>Node9&#45;&gt;Node5</title>
<path fill="none" stroke="midnightblue" d="M662.684,-130.412C640.094,-119.694 604.96,-103.025 579.531,-90.9601"/>
<polygon fill="midnightblue" stroke="midnightblue" points="580.842,-87.7079 570.307,-86.5835 577.841,-94.0322 580.842,-87.7079"/>
</g>
<!-- Node10&#45;&gt;Node2 -->
<g id="edge36" class="edge"><title>Node10&#45;&gt;Node2</title>
<path fill="none" stroke="midnightblue" d="M724.199,-191.905C754.069,-181.412 800.412,-159.743 785,-130 750.798,-63.9933 662.784,-31.8862 613.936,-18.7041"/>
<polygon fill="midnightblue" stroke="midnightblue" points="614.697,-15.2861 604.14,-16.1731 612.946,-22.0635 614.697,-15.2861"/>
</g>
<!-- Node10&#45;&gt;Node9 -->
<g id="edge38" class="edge"><title>Node10&#45;&gt;Node9</title>
<path fill="none" stroke="midnightblue" d="M698.065,-188.362C695.99,-180.84 693.143,-170.519 690.636,-161.431"/>
<polygon fill="midnightblue" stroke="midnightblue" points="693.949,-160.28 687.916,-151.571 687.201,-162.141 693.949,-160.28"/>
</g>
<!-- Node11&#45;&gt;Node2 -->
<g id="edge42" class="edge"><title>Node11&#45;&gt;Node2</title>
<path fill="none" stroke="midnightblue" d="M738.764,-130.321C718.848,-114.326 679.894,-83.3174 646,-58 632.082,-47.6035 616.232,-36.2997 603.554,-27.3835"/>
<polygon fill="midnightblue" stroke="midnightblue" points="605.544,-24.5045 595.346,-21.6327 601.528,-30.2374 605.544,-24.5045"/>
</g>
<!-- Node11&#45;&gt;Node5 -->
<g id="edge44" class="edge"><title>Node11&#45;&gt;Node5</title>
<path fill="none" stroke="midnightblue" d="M727.864,-132.906C724.881,-131.92 721.872,-130.932 719,-130 675.877,-116.005 626.482,-100.458 591.904,-89.6539"/>
<polygon fill="midnightblue" stroke="midnightblue" points="592.706,-86.2378 582.117,-86.599 590.62,-92.9198 592.706,-86.2378"/>
</g>
<!-- Node12&#45;&gt;Node2 -->
<g id="edge48" class="edge"><title>Node12&#45;&gt;Node2</title>
<path fill="none" stroke="midnightblue" d="M211.937,-253.459C230.721,-242.87 260.205,-225.886 285,-210 384.452,-146.279 404.101,-122.577 503,-58 519.507,-47.2218 538.397,-35.6798 553.336,-26.7309"/>
<polygon fill="midnightblue" stroke="midnightblue" points="555.273,-29.6509 562.07,-21.524 551.689,-23.6382 555.273,-29.6509"/>
</g>
<!-- Node14&#45;&gt;Node5 -->
<g id="edge54" class="edge"><title>Node14&#45;&gt;Node5</title>
<path fill="none" stroke="midnightblue" d="M512.618,-246.995C516.644,-221.471 524.855,-171.789 534,-130 536.433,-118.883 539.582,-106.595 542.277,-96.5533"/>
<polygon fill="midnightblue" stroke="midnightblue" points="545.71,-97.2686 544.968,-86.6997 538.957,-95.4243 545.71,-97.2686"/>
</g>
<!-- Node15&#45;&gt;Node2 -->
<g id="edge58" class="edge"><title>Node15&#45;&gt;Node2</title>
<path fill="none" stroke="midnightblue" d="M631.263,-326.872C686.457,-322.256 802.922,-309.45 831,-282 858.06,-255.545 850,-236.843 850,-199 850,-199 850,-199 850,-141 850,-82.5543 799.897,-84.8812 748,-58 704.74,-35.5926 649.514,-22.7877 614.44,-16.365"/>
<polygon fill="midnightblue" stroke="midnightblue" points="614.692,-12.8558 604.237,-14.573 613.481,-19.7502 614.692,-12.8558"/>
</g>
<!-- Node15&#45;&gt;Node5 -->
<g id="edge72" class="edge"><title>Node15&#45;&gt;Node5</title>
<path fill="none" stroke="midnightblue" d="M599.748,-318.451C591.566,-280.115 563.315,-147.752 552.375,-96.4973"/>
<polygon fill="midnightblue" stroke="midnightblue" points="555.772,-95.6431 550.261,-86.594 548.926,-97.1043 555.772,-95.6431"/>
</g>
<!-- Node15&#45;&gt;Node7 -->
<g id="edge66" class="edge"><title>Node15&#45;&gt;Node7</title>
<path fill="none" stroke="midnightblue" d="M615.871,-318.267C626.676,-309.906 642.078,-297.988 655.697,-287.449"/>
<polygon fill="midnightblue" stroke="midnightblue" points="658.122,-289.998 663.889,-281.11 653.838,-284.462 658.122,-289.998"/>
</g>
<!-- Node15&#45;&gt;Node12 -->
<g id="edge62" class="edge"><title>Node15&#45;&gt;Node12</title>
<path fill="none" stroke="midnightblue" d="M572.795,-324.901C517.64,-317.09 394.406,-299.306 291,-282 280.485,-280.24 269.352,-278.284 258.509,-276.329"/>
<polygon fill="midnightblue" stroke="midnightblue" points="259.124,-272.883 248.659,-274.539 257.872,-279.771 259.124,-272.883"/>
</g>
<!-- Node15&#45;&gt;Node13 -->
<g id="edge74" class="edge"><title>Node15&#45;&gt;Node13</title>
<path fill="none" stroke="midnightblue" d="M572.817,-321.03C532.837,-310.111 460.52,-290.361 412.374,-277.211"/>
<polygon fill="midnightblue" stroke="midnightblue" points="413.056,-273.769 402.487,-274.511 411.211,-280.522 413.056,-273.769"/>
</g>
<!-- Node15&#45;&gt;Node14 -->
<g id="edge64" class="edge"><title>Node15&#45;&gt;Node14</title>
<path fill="none" stroke="midnightblue" d="M586.808,-318.267C574.862,-309.827 557.787,-297.762 542.768,-287.151"/>
<polygon fill="midnightblue" stroke="midnightblue" points="544.404,-284.022 534.217,-281.11 540.365,-289.739 544.404,-284.022"/>
</g>
<!-- Node16 -->
<g id="node46" class="node"><title>Node16</title>
<polygon fill="white" stroke="#bfbfbf" points="759.5,-253.5 759.5,-274.5 822.5,-274.5 822.5,-253.5 759.5,-253.5"/>
<text text-anchor="middle" x="791" y="-261.5" font-family="Helvetica,sans-Serif" font-size="10.00">QtWidgets</text>
</g>
<!-- Node15&#45;&gt;Node16 -->
<g id="edge60" class="edge"><title>Node15&#45;&gt;Node16</title>
<path fill="none" stroke="midnightblue" d="M631.188,-320.894C661.481,-312.225 710.067,-297.604 751,-282 753.735,-280.957 756.551,-279.822 759.361,-278.645"/>
<polygon fill="midnightblue" stroke="midnightblue" points="760.991,-281.753 768.77,-274.56 758.203,-275.332 760.991,-281.753"/>
</g>
<!-- Node17 -->
<g id="node51" class="node"><title>Node17</title>
<a xlink:href="../../dd/dec/filepath_8h.html" target="_top" xlink:title="librepcbcommon/fileio\l/filepath.h">
<polygon fill="white" stroke="black" points="877.5,-59 877.5,-93 988.5,-93 988.5,-59 877.5,-59"/>
<text text-anchor="start" x="885.5" y="-80" font-family="Helvetica,sans-Serif" font-size="10.00">librepcbcommon/fileio</text>
<text text-anchor="middle" x="933" y="-67" font-family="Helvetica,sans-Serif" font-size="10.00">/filepath.h</text>
</a>
</g>
<!-- Node15&#45;&gt;Node17 -->
<g id="edge68" class="edge"><title>Node15&#45;&gt;Node17</title>
<path fill="none" stroke="midnightblue" d="M631.382,-327.433C692.279,-323.609 829.468,-311.834 864,-282 917.128,-236.099 929.476,-148.029 932.258,-103.387"/>
<polygon fill="midnightblue" stroke="midnightblue" points="935.76,-103.442 932.769,-93.2784 928.769,-103.089 935.76,-103.442"/>
</g>
<!-- Node17&#45;&gt;Node2 -->
<g id="edge70" class="edge"><title>Node17&#45;&gt;Node2</title>
<path fill="none" stroke="midnightblue" d="M877.368,-61.0223C872.857,-59.9498 868.359,-58.9273 864,-58 774.408,-38.942 667.53,-23.0819 614.041,-15.6093"/>
<polygon fill="midnightblue" stroke="midnightblue" points="614.462,-12.1343 604.076,-14.2282 613.5,-19.068 614.462,-12.1343"/>
</g>
</g>
</svg>
