<?xml version="1.0" encoding="UTF-8" standalone="no"?>
<!DOCTYPE svg PUBLIC "-//W3C//DTD SVG 1.1//EN"
 "http://www.w3.org/Graphics/SVG/1.1/DTD/svg11.dtd">
<!-- Generated by graphviz version 2.26.3 (20100126.1600)
 -->
<!-- Title: updateErcMessages Pages: 1 -->
<svg width="562pt" height="142pt"
 viewBox="0.00 0.00 562.00 142.00" xmlns="http://www.w3.org/2000/svg" xmlns:xlink="http://www.w3.org/1999/xlink">
<g id="graph1" class="graph" transform="scale(1 1) rotate(0) translate(4 138)">
<title>updateErcMessages</title>
<polygon fill="white" stroke="white" points="-4,5 -4,-138 559,-138 559,5 -4,5"/>
<!-- Node1 -->
<g id="node1" class="node"><title>Node1</title>
<polygon fill="#bfbfbf" stroke="black" points="0,-72.5 0,-93.5 106,-93.5 106,-72.5 0,-72.5"/>
<text text-anchor="middle" x="53" y="-80.5" font-family="Helvetica,sans-Serif" font-size="10.00">updateErcMessages</text>
</g>
<!-- Node2 -->
<g id="node3" class="node"><title>Node2</title>
<a xlink:href="../../d6/d12/classproject_1_1_s_i___symbol_pin.html#a2e791a2f0f926f88b6d3a8b6d73a03f0" target="_top" xlink:title="SI_SymbolPin">
<polygon fill="white" stroke="black" points="151.5,-112.5 151.5,-133.5 230.5,-133.5 230.5,-112.5 151.5,-112.5"/>
<text text-anchor="middle" x="191" y="-120.5" font-family="Helvetica,sans-Serif" font-size="10.00">SI_SymbolPin</text>
</a>
</g>
<!-- Node1&#45;&gt;Node2 -->
<g id="edge2" class="edge"><title>Node1&#45;&gt;Node2</title>
<path fill="none" stroke="midnightblue" d="M99.0086,-96.3358C117.065,-101.57 137.494,-107.491 154.505,-112.422"/>
<polygon fill="midnightblue" stroke="midnightblue" points="99.837,-92.9319 89.2579,-93.5095 97.8881,-99.6552 99.837,-92.9319"/>
</g>
<!-- Node3 -->
<g id="node5" class="node"><title>Node3</title>
<a xlink:href="../../d6/d12/classproject_1_1_s_i___symbol_pin.html#a9b52757f6665371a26408933ad6b514c" target="_top" xlink:title="registerNetPoint">
<polygon fill="white" stroke="black" points="147.5,-72.5 147.5,-93.5 234.5,-93.5 234.5,-72.5 147.5,-72.5"/>
<text text-anchor="middle" x="191" y="-80.5" font-family="Helvetica,sans-Serif" font-size="10.00">registerNetPoint</text>
</a>
</g>
<!-- Node1&#45;&gt;Node3 -->
<g id="edge4" class="edge"><title>Node1&#45;&gt;Node3</title>
<path fill="none" stroke="midnightblue" d="M116.603,-83C126.941,-83 137.441,-83 147.169,-83"/>
<polygon fill="midnightblue" stroke="midnightblue" points="116.354,-79.5001 106.354,-83 116.354,-86.5001 116.354,-79.5001"/>
</g>
<!-- Node4 -->
<g id="node7" class="node"><title>Node4</title>
<a xlink:href="../../d6/d12/classproject_1_1_s_i___symbol_pin.html#ad82f0f4bea8f69d1b8eef2df60ce508b" target="_top" xlink:title="unregisterNetPoint">
<polygon fill="white" stroke="black" points="142,-32.5 142,-53.5 240,-53.5 240,-32.5 142,-32.5"/>
<text text-anchor="middle" x="191" y="-40.5" font-family="Helvetica,sans-Serif" font-size="10.00">unregisterNetPoint</text>
</a>
</g>
<!-- Node1&#45;&gt;Node4 -->
<g id="edge6" class="edge"><title>Node1&#45;&gt;Node4</title>
<path fill="none" stroke="midnightblue" d="M99.0086,-69.6642C117.065,-64.4304 137.494,-58.5091 154.505,-53.5782"/>
<polygon fill="midnightblue" stroke="midnightblue" points="97.8881,-66.3448 89.2579,-72.4905 99.837,-73.0681 97.8881,-66.3448"/>
</g>
<!-- Node5 -->
<g id="node9" class="node"><title>Node5</title>
<a xlink:href="../../d3/d43/classproject_1_1_s_i___net_point.html#a1894cd9c0e70404c048068221df5135d" target="_top" xlink:title="project::SI_NetPoint\l::detachFromPin">
<polygon fill="white" stroke="black" points="276.5,-26 276.5,-60 381.5,-60 381.5,-26 276.5,-26"/>
<text text-anchor="start" x="284.5" y="-47" font-family="Helvetica,sans-Serif" font-size="10.00">project::SI_NetPoint</text>
<text text-anchor="middle" x="329" y="-34" font-family="Helvetica,sans-Serif" font-size="10.00">::detachFromPin</text>
</a>
</g>
<!-- Node4&#45;&gt;Node5 -->
<g id="edge8" class="edge"><title>Node4&#45;&gt;Node5</title>
<path fill="none" stroke="midnightblue" d="M250.145,-43C258.864,-43 267.797,-43 276.373,-43"/>
<polygon fill="midnightblue" stroke="midnightblue" points="250.042,-39.5001 240.042,-43 250.042,-46.5001 250.042,-39.5001"/>
</g>
<!-- Node6 -->
<g id="node11" class="node"><title>Node6</title>
<a xlink:href="../../d1/d92/classproject_1_1_cmd_schematic_net_point_detach.html#a91ca7652063093da57fc1bd0141dcc95" target="_top" xlink:title="Redo/execute the command (and all child commands in normal order) ">
<polygon fill="white" stroke="black" points="418.5,-52 418.5,-86 553.5,-86 553.5,-52 418.5,-52"/>
<text text-anchor="start" x="426.5" y="-73" font-family="Helvetica,sans-Serif" font-size="10.00">project::CmdSchematicNet</text>
<text text-anchor="middle" x="486" y="-60" font-family="Helvetica,sans-Serif" font-size="10.00">PointDetach::redo</text>
</a>
</g>
<!-- Node5&#45;&gt;Node6 -->
<g id="edge10" class="edge"><title>Node5&#45;&gt;Node6</title>
<path fill="none" stroke="midnightblue" d="M391.816,-53.4026C400.549,-54.8488 409.551,-56.3397 418.368,-57.7998"/>
<polygon fill="midnightblue" stroke="midnightblue" points="392.153,-49.9109 381.715,-51.73 391.009,-56.8168 392.153,-49.9109"/>
</g>
<!-- Node7 -->
<g id="node13" class="node"><title>Node7</title>
<a xlink:href="../../d1/d92/classproject_1_1_cmd_schematic_net_point_detach.html#a19e8778088bfe76b16745470981bb913" target="_top" xlink:title="Undo the command (and all child commands in reverse order) ">
<polygon fill="white" stroke="black" points="418.5,-0 418.5,-34 553.5,-34 553.5,-0 418.5,-0"/>
<text text-anchor="start" x="426.5" y="-21" font-family="Helvetica,sans-Serif" font-size="10.00">project::CmdSchematicNet</text>
<text text-anchor="middle" x="486" y="-8" font-family="Helvetica,sans-Serif" font-size="10.00">PointDetach::undo</text>
</a>
</g>
<!-- Node5&#45;&gt;Node7 -->
<g id="edge12" class="edge"><title>Node5&#45;&gt;Node7</title>
<path fill="none" stroke="midnightblue" d="M391.816,-32.5974C400.549,-31.1512 409.551,-29.6603 418.368,-28.2002"/>
<polygon fill="midnightblue" stroke="midnightblue" points="391.009,-29.1832 381.715,-34.27 392.153,-36.0891 391.009,-29.1832"/>
</g>
</g>
</svg>
