<?xml version="1.0" encoding="UTF-8" standalone="no"?>
<!DOCTYPE svg PUBLIC "-//W3C//DTD SVG 1.1//EN"
 "http://www.w3.org/Graphics/SVG/1.1/DTD/svg11.dtd">
<!-- Generated by graphviz version 2.26.3 (20100126.1600)
 -->
<!-- Title: /home/travis/build/LibrePCB/LibrePCB/libs/librepcblibrary/librarybaseelement.h Pages: 1 -->
<svg width="466pt" height="258pt"
 viewBox="0.00 0.00 466.00 258.00" xmlns="http://www.w3.org/2000/svg" xmlns:xlink="http://www.w3.org/1999/xlink">
<g id="graph1" class="graph" transform="scale(1 1) rotate(0) translate(4 254)">
<title>/home/travis/build/LibrePCB/LibrePCB/libs/librepcblibrary/librarybaseelement.h</title>
<polygon fill="white" stroke="white" points="-4,5 -4,-254 463,-254 463,5 -4,5"/>
<!-- Node1 -->
<g id="node1" class="node"><title>Node1</title>
<polygon fill="#bfbfbf" stroke="black" points="139.5,-202.5 139.5,-249.5 312.5,-249.5 312.5,-202.5 139.5,-202.5"/>
<text text-anchor="start" x="147.5" y="-236.5" font-family="Helvetica,sans-Serif" font-size="10.00">/home/travis/build</text>
<text text-anchor="start" x="147.5" y="-223.5" font-family="Helvetica,sans-Serif" font-size="10.00">/LibrePCB/LibrePCB/libs</text>
<text text-anchor="middle" x="226" y="-210.5" font-family="Helvetica,sans-Serif" font-size="10.00">/librepcblibrary/librarybaseelement.h</text>
</g>
<!-- Node2 -->
<g id="node3" class="node"><title>Node2</title>
<polygon fill="white" stroke="#bfbfbf" points="-0.5,-137.5 -0.5,-158.5 52.5,-158.5 52.5,-137.5 -0.5,-137.5"/>
<text text-anchor="middle" x="26" y="-145.5" font-family="Helvetica,sans-Serif" font-size="10.00">QObject</text>
</g>
<!-- Node1&#45;&gt;Node2 -->
<g id="edge2" class="edge"><title>Node1&#45;&gt;Node2</title>
<path fill="none" stroke="midnightblue" d="M154.976,-202.384C125.562,-192.035 91.3059,-179.24 61,-166 58.9142,-165.089 56.7785,-164.11 54.6414,-163.096"/>
<polygon fill="midnightblue" stroke="midnightblue" points="55.9272,-159.828 45.4116,-158.534 52.8252,-166.103 55.9272,-159.828"/>
</g>
<!-- Node3 -->
<g id="node5" class="node"><title>Node3</title>
<a xlink:href="../../d0/d1d/if__xmlserializableobject_8h.html" target="_top" xlink:title="librepcbcommon/fileio\l/if_xmlserializableobject.h">
<polygon fill="white" stroke="black" points="69.5,-131 69.5,-165 198.5,-165 198.5,-131 69.5,-131"/>
<text text-anchor="start" x="77.5" y="-152" font-family="Helvetica,sans-Serif" font-size="10.00">librepcbcommon/fileio</text>
<text text-anchor="middle" x="134" y="-139" font-family="Helvetica,sans-Serif" font-size="10.00">/if_xmlserializableobject.h</text>
</a>
</g>
<!-- Node1&#45;&gt;Node3 -->
<g id="edge4" class="edge"><title>Node1&#45;&gt;Node3</title>
<path fill="none" stroke="midnightblue" d="M197.897,-202.174C186.501,-192.512 173.369,-181.378 161.985,-171.727"/>
<polygon fill="midnightblue" stroke="midnightblue" points="163.946,-168.8 154.055,-165.003 159.419,-174.14 163.946,-168.8"/>
</g>
<!-- Node4 -->
<g id="node7" class="node"><title>Node4</title>
<a xlink:href="../../d4/d03/exceptions_8h.html" target="_top" xlink:title="../exceptions.h">
<polygon fill="white" stroke="black" points="101.5,-65.5 101.5,-86.5 182.5,-86.5 182.5,-65.5 101.5,-65.5"/>
<text text-anchor="middle" x="142" y="-73.5" font-family="Helvetica,sans-Serif" font-size="10.00">../exceptions.h</text>
</a>
</g>
<!-- Node1&#45;&gt;Node4 -->
<g id="edge10" class="edge"><title>Node1&#45;&gt;Node4</title>
<path fill="none" stroke="midnightblue" d="M225.676,-202.332C224.423,-181.879 220.199,-152.197 207,-130 197.835,-114.587 182.604,-101.583 169.189,-92.1998"/>
<polygon fill="midnightblue" stroke="midnightblue" points="170.983,-89.1897 160.718,-86.5681 167.108,-95.0191 170.983,-89.1897"/>
</g>
<!-- Node6 -->
<g id="node12" class="node"><title>Node6</title>
<a xlink:href="../../dd/dec/filepath_8h.html" target="_top" xlink:title="librepcbcommon/fileio\l/filepath.h">
<polygon fill="white" stroke="black" points="199.5,-59 199.5,-93 310.5,-93 310.5,-59 199.5,-59"/>
<text text-anchor="start" x="207.5" y="-80" font-family="Helvetica,sans-Serif" font-size="10.00">librepcbcommon/fileio</text>
<text text-anchor="middle" x="255" y="-67" font-family="Helvetica,sans-Serif" font-size="10.00">/filepath.h</text>
</a>
</g>
<!-- Node1&#45;&gt;Node6 -->
<g id="edge12" class="edge"><title>Node1&#45;&gt;Node6</title>
<path fill="none" stroke="midnightblue" d="M231.87,-202.423C234.52,-191.396 237.59,-178.063 240,-166 244.183,-145.062 248.12,-121.223 250.909,-103.342"/>
<polygon fill="midnightblue" stroke="midnightblue" points="254.391,-103.729 252.452,-93.3135 247.472,-102.665 254.391,-103.729"/>
</g>
<!-- Node7 -->
<g id="node15" class="node"><title>Node7</title>
<a xlink:href="../../df/dfc/version_8h.html" target="_top" xlink:title="librepcbcommon/version.h">
<polygon fill="white" stroke="black" points="327.5,-65.5 327.5,-86.5 458.5,-86.5 458.5,-65.5 327.5,-65.5"/>
<text text-anchor="middle" x="393" y="-73.5" font-family="Helvetica,sans-Serif" font-size="10.00">librepcbcommon/version.h</text>
</a>
</g>
<!-- Node1&#45;&gt;Node7 -->
<g id="edge16" class="edge"><title>Node1&#45;&gt;Node7</title>
<path fill="none" stroke="midnightblue" d="M252.462,-202.232C286.089,-172.028 343.357,-120.589 373.353,-93.6466"/>
<polygon fill="midnightblue" stroke="midnightblue" points="375.948,-96.0211 381.048,-86.7349 371.27,-90.8134 375.948,-96.0211"/>
</g>
<!-- Node3&#45;&gt;Node4 -->
<g id="edge6" class="edge"><title>Node3&#45;&gt;Node4</title>
<path fill="none" stroke="midnightblue" d="M135.896,-130.937C137.021,-120.814 138.456,-107.898 139.652,-97.1329"/>
<polygon fill="midnightblue" stroke="midnightblue" points="143.163,-97.2264 140.789,-86.901 136.206,-96.4533 143.163,-97.2264"/>
</g>
<!-- Node5 -->
<g id="node9" class="node"><title>Node5</title>
<polygon fill="white" stroke="#bfbfbf" points="231,-0.5 231,-21.5 279,-21.5 279,-0.5 231,-0.5"/>
<text text-anchor="middle" x="255" y="-8.5" font-family="Helvetica,sans-Serif" font-size="10.00">QtCore</text>
</g>
<!-- Node4&#45;&gt;Node5 -->
<g id="edge8" class="edge"><title>Node4&#45;&gt;Node5</title>
<path fill="none" stroke="midnightblue" d="M160.407,-65.412C178.711,-54.8829 207,-38.6106 227.876,-26.6021"/>
<polygon fill="midnightblue" stroke="midnightblue" points="229.678,-29.6036 236.601,-21.5835 226.188,-23.5358 229.678,-29.6036"/>
</g>
<!-- Node6&#45;&gt;Node5 -->
<g id="edge14" class="edge"><title>Node6&#45;&gt;Node5</title>
<path fill="none" stroke="midnightblue" d="M255,-58.922C255,-50.6704 255,-40.6922 255,-31.9818"/>
<polygon fill="midnightblue" stroke="midnightblue" points="258.5,-31.8521 255,-21.8521 251.5,-31.8521 258.5,-31.8521"/>
</g>
<!-- Node7&#45;&gt;Node5 -->
<g id="edge18" class="edge"><title>Node7&#45;&gt;Node5</title>
<path fill="none" stroke="midnightblue" d="M370.521,-65.412C347.766,-54.6941 312.376,-38.025 286.761,-25.9601"/>
<polygon fill="midnightblue" stroke="midnightblue" points="288.008,-22.6783 277.47,-21.5835 285.025,-29.011 288.008,-22.6783"/>
</g>
</g>
</svg>
