<?xml version="1.0" encoding="UTF-8" standalone="no"?>
<!DOCTYPE svg PUBLIC "-//W3C//DTD SVG 1.1//EN"
 "http://www.w3.org/Graphics/SVG/1.1/DTD/svg11.dtd">
<!-- Generated by graphviz version 2.26.3 (20100126.1600)
 -->
<!-- Title: WorkspaceSettings Pages: 1 -->
<svg width="1250pt" height="1534pt"
 viewBox="0.00 0.00 1250.00 1534.00" xmlns="http://www.w3.org/2000/svg" xmlns:xlink="http://www.w3.org/1999/xlink">
<g id="graph1" class="graph" transform="scale(1 1) rotate(0) translate(4 1530)">
<title>WorkspaceSettings</title>
<polygon fill="white" stroke="white" points="-4,5 -4,-1530 1247,-1530 1247,5 -4,5"/>
<!-- Node1 -->
<g id="node1" class="node"><title>Node1</title>
<polygon fill="#bfbfbf" stroke="black" points="411.5,-815 411.5,-1073 560.5,-1073 560.5,-815 411.5,-815"/>
<text text-anchor="middle" x="486" y="-1060" font-family="Helvetica,sans-Serif" font-size="10.00">WorkspaceSettings</text>
<polyline fill="none" stroke="black" points="411.5,-1052 560.5,-1052 "/>
<text text-anchor="start" x="419.5" y="-1039" font-family="Helvetica,sans-Serif" font-size="10.00">&#45; mItems</text>
<polyline fill="none" stroke="black" points="411.5,-1031 560.5,-1031 "/>
<text text-anchor="start" x="419.5" y="-1018" font-family="Helvetica,sans-Serif" font-size="10.00">+ WorkspaceSettings()</text>
<text text-anchor="start" x="419.5" y="-1005" font-family="Helvetica,sans-Serif" font-size="10.00">+ ~WorkspaceSettings()</text>
<text text-anchor="start" x="419.5" y="-992" font-family="Helvetica,sans-Serif" font-size="10.00">+ getMetadataPath()</text>
<text text-anchor="start" x="419.5" y="-979" font-family="Helvetica,sans-Serif" font-size="10.00">+ getAppLocale()</text>
<text text-anchor="start" x="419.5" y="-966" font-family="Helvetica,sans-Serif" font-size="10.00">+ getAppDefMeasUnits()</text>
<text text-anchor="start" x="419.5" y="-953" font-family="Helvetica,sans-Serif" font-size="10.00">+ getProjectAutosaveInterval()</text>
<text text-anchor="start" x="419.5" y="-940" font-family="Helvetica,sans-Serif" font-size="10.00">+ getLibLocaleOrder()</text>
<text text-anchor="start" x="419.5" y="-927" font-family="Helvetica,sans-Serif" font-size="10.00">+ getLibNormOrder()</text>
<text text-anchor="start" x="419.5" y="-914" font-family="Helvetica,sans-Serif" font-size="10.00">+ getDebugTools()</text>
<text text-anchor="start" x="419.5" y="-901" font-family="Helvetica,sans-Serif" font-size="10.00">+ getAppearance()</text>
<text text-anchor="start" x="419.5" y="-888" font-family="Helvetica,sans-Serif" font-size="10.00">+ restoreDefaults()</text>
<text text-anchor="start" x="419.5" y="-875" font-family="Helvetica,sans-Serif" font-size="10.00">+ applyAll()</text>
<text text-anchor="start" x="419.5" y="-862" font-family="Helvetica,sans-Serif" font-size="10.00">+ revertAll()</text>
<text text-anchor="start" x="419.5" y="-849" font-family="Helvetica,sans-Serif" font-size="10.00">+ showSettingsDialog()</text>
<text text-anchor="start" x="419.5" y="-836" font-family="Helvetica,sans-Serif" font-size="10.00">&#45; WorkspaceSettings()</text>
<text text-anchor="start" x="419.5" y="-823" font-family="Helvetica,sans-Serif" font-size="10.00">&#45; operator=()</text>
</g>
<!-- Node2 -->
<g id="node2" class="node"><title>Node2</title>
<a xlink:href="../../d1/d5c/class_workspace_settings_dialog.html" target="_top" xlink:title="The WorkspaceSettingsDialog class. ">
<polygon fill="white" stroke="black" points="-0.5,-518 -0.5,-672 150.5,-672 150.5,-518 -0.5,-518"/>
<text text-anchor="middle" x="75" y="-659" font-family="Helvetica,sans-Serif" font-size="10.00">WorkspaceSettingsDialog</text>
<polyline fill="none" stroke="black" points="-0.5,-651 150.5,-651 "/>
<text text-anchor="start" x="7.5" y="-638" font-family="Helvetica,sans-Serif" font-size="10.00">&#45; mUi</text>
<polyline fill="none" stroke="black" points="-0.5,-630 150.5,-630 "/>
<text text-anchor="start" x="7.5" y="-617" font-family="Helvetica,sans-Serif" font-size="10.00">+ WorkspaceSettingsDialog()</text>
<text text-anchor="start" x="7.5" y="-604" font-family="Helvetica,sans-Serif" font-size="10.00">+ ~WorkspaceSettingsDialog()</text>
<text text-anchor="start" x="7.5" y="-591" font-family="Helvetica,sans-Serif" font-size="10.00"># accept()</text>
<text text-anchor="start" x="7.5" y="-578" font-family="Helvetica,sans-Serif" font-size="10.00"># reject()</text>
<text text-anchor="start" x="7.5" y="-565" font-family="Helvetica,sans-Serif" font-size="10.00">&#45; WorkspaceSettingsDialog()</text>
<text text-anchor="start" x="7.5" y="-552" font-family="Helvetica,sans-Serif" font-size="10.00">&#45; WorkspaceSettingsDialog()</text>
<text text-anchor="start" x="7.5" y="-539" font-family="Helvetica,sans-Serif" font-size="10.00">&#45; operator=()</text>
<text text-anchor="start" x="7.5" y="-526" font-family="Helvetica,sans-Serif" font-size="10.00">&#45; on_buttonBox_clicked()</text>
</a>
</g>
<!-- Node1&#45;&gt;Node2 -->
<g id="edge4" class="edge"><title>Node1&#45;&gt;Node2</title>
<path fill="none" stroke="#404040" d="M411.268,-927.924C303.666,-903.089 113.625,-852.338 74,-796 51.6278,-764.192 48.9228,-721.988 53.0018,-684.466"/>
<polygon fill="none" stroke="#404040" points="53.0142,-684.369 49.814,-677.907 54.5481,-672.468 57.7484,-678.93 53.0142,-684.369"/>
<text text-anchor="middle" x="99.5" y="-786.5" font-family="Helvetica,sans-Serif" font-size="10.00"> &#45;mSettings</text>
</g>
<!-- Node4 -->
<g id="node7" class="node"><title>Node4</title>
<a xlink:href="../../d4/dda/class_w_s_i___base.html" target="_top" xlink:title="The WSI_Base class is the base class of all workspace settings items. ">
<polygon fill="white" stroke="black" points="568.5,-505 568.5,-685 661.5,-685 661.5,-505 568.5,-505"/>
<text text-anchor="middle" x="615" y="-672" font-family="Helvetica,sans-Serif" font-size="10.00">WSI_Base</text>
<polyline fill="none" stroke="black" points="568.5,-664 661.5,-664 "/>
<text text-anchor="middle" x="615" y="-651" font-family="Helvetica,sans-Serif" font-size="10.00"> </text>
<polyline fill="none" stroke="black" points="568.5,-643 661.5,-643 "/>
<text text-anchor="start" x="576.5" y="-630" font-family="Helvetica,sans-Serif" font-size="10.00">+ WSI_Base()</text>
<text text-anchor="start" x="576.5" y="-617" font-family="Helvetica,sans-Serif" font-size="10.00">+ ~WSI_Base()</text>
<text text-anchor="start" x="576.5" y="-604" font-family="Helvetica,sans-Serif" font-size="10.00">+ restoreDefault()</text>
<text text-anchor="start" x="576.5" y="-591" font-family="Helvetica,sans-Serif" font-size="10.00">+ apply()</text>
<text text-anchor="start" x="576.5" y="-578" font-family="Helvetica,sans-Serif" font-size="10.00">+ revert()</text>
<text text-anchor="start" x="576.5" y="-565" font-family="Helvetica,sans-Serif" font-size="10.00"># saveValue()</text>
<text text-anchor="start" x="576.5" y="-552" font-family="Helvetica,sans-Serif" font-size="10.00"># loadValue()</text>
<text text-anchor="start" x="576.5" y="-539" font-family="Helvetica,sans-Serif" font-size="10.00">&#45; WSI_Base()</text>
<text text-anchor="start" x="576.5" y="-526" font-family="Helvetica,sans-Serif" font-size="10.00">&#45; WSI_Base()</text>
<text text-anchor="start" x="576.5" y="-513" font-family="Helvetica,sans-Serif" font-size="10.00">&#45; operator=()</text>
</a>
</g>
<!-- Node1&#45;&gt;Node4 -->
<g id="edge10" class="edge"><title>Node1&#45;&gt;Node4</title>
<path fill="none" stroke="#404040" d="M535.951,-814.853C542.425,-797.776 548.916,-780.483 555,-764 563.033,-742.236 571.473,-718.825 579.403,-696.568"/>
<polygon fill="none" stroke="#404040" points="579.478,-696.356 577.719,-689.363 583.498,-685.05 585.257,-692.043 579.478,-696.356"/>
<text text-anchor="middle" x="574.5" y="-786.5" font-family="Helvetica,sans-Serif" font-size="10.00"> #mSettings</text>
</g>
<!-- Node2&#45;&gt;Node1 -->
<g id="edge2" class="edge"><title>Node2&#45;&gt;Node1</title>
<path fill="none" stroke="#404040" d="M83.9309,-672.427C92.2214,-713.416 108.202,-762.132 139,-796 207.629,-871.471 321.197,-909.892 399.616,-928.409"/>
<polygon fill="none" stroke="#404040" points="399.707,-928.43 406.448,-925.868 411.405,-931.106 404.664,-933.667 399.707,-928.43"/>
<text text-anchor="middle" x="160.5" y="-786.5" font-family="Helvetica,sans-Serif" font-size="10.00"> &#45;mDialog</text>
</g>
<!-- Node3 -->
<g id="node5" class="node"><title>Node3</title>
<a xlink:href="../../db/d82/class_w_s_i___app_locale.html" target="_top" xlink:title="The WSI_AppLocale class represents the application&#39;s locale settings (for translation and localizatio...">
<polygon fill="white" stroke="black" points="565.5,-46.5 565.5,-317.5 706.5,-317.5 706.5,-46.5 565.5,-46.5"/>
<text text-anchor="middle" x="636" y="-304.5" font-family="Helvetica,sans-Serif" font-size="10.00">WSI_AppLocale</text>
<polyline fill="none" stroke="black" points="565.5,-296.5 706.5,-296.5 "/>
<text text-anchor="start" x="573.5" y="-283.5" font-family="Helvetica,sans-Serif" font-size="10.00">&#45; mAppLocale</text>
<text text-anchor="start" x="573.5" y="-270.5" font-family="Helvetica,sans-Serif" font-size="10.00">&#45; mAppLocaleTmp</text>
<text text-anchor="start" x="573.5" y="-257.5" font-family="Helvetica,sans-Serif" font-size="10.00">&#45; mInstalledTranslators</text>
<text text-anchor="start" x="573.5" y="-244.5" font-family="Helvetica,sans-Serif" font-size="10.00">&#45; mWidget</text>
<text text-anchor="start" x="573.5" y="-231.5" font-family="Helvetica,sans-Serif" font-size="10.00">&#45; mComboBox</text>
<polyline fill="none" stroke="black" points="565.5,-223.5 706.5,-223.5 "/>
<text text-anchor="start" x="573.5" y="-210.5" font-family="Helvetica,sans-Serif" font-size="10.00">+ WSI_AppLocale()</text>
<text text-anchor="start" x="573.5" y="-197.5" font-family="Helvetica,sans-Serif" font-size="10.00">+ ~WSI_AppLocale()</text>
<text text-anchor="start" x="573.5" y="-184.5" font-family="Helvetica,sans-Serif" font-size="10.00">+ getAppLocaleName()</text>
<text text-anchor="start" x="573.5" y="-171.5" font-family="Helvetica,sans-Serif" font-size="10.00">+ getLabelText()</text>
<text text-anchor="start" x="573.5" y="-158.5" font-family="Helvetica,sans-Serif" font-size="10.00">+ getWidget()</text>
<text text-anchor="start" x="573.5" y="-145.5" font-family="Helvetica,sans-Serif" font-size="10.00">+ restoreDefault()</text>
<text text-anchor="start" x="573.5" y="-132.5" font-family="Helvetica,sans-Serif" font-size="10.00">+ apply()</text>
<text text-anchor="start" x="573.5" y="-119.5" font-family="Helvetica,sans-Serif" font-size="10.00">+ revert()</text>
<text text-anchor="start" x="573.5" y="-106.5" font-family="Helvetica,sans-Serif" font-size="10.00">+ comboBoxIndexChanged()</text>
<text text-anchor="start" x="573.5" y="-93.5" font-family="Helvetica,sans-Serif" font-size="10.00">&#45; WSI_AppLocale()</text>
<text text-anchor="start" x="573.5" y="-80.5" font-family="Helvetica,sans-Serif" font-size="10.00">&#45; WSI_AppLocale()</text>
<text text-anchor="start" x="573.5" y="-67.5" font-family="Helvetica,sans-Serif" font-size="10.00">&#45; operator=()</text>
<text text-anchor="start" x="573.5" y="-54.5" font-family="Helvetica,sans-Serif" font-size="10.00">&#45; updateComboBoxIndex()</text>
</a>
</g>
<!-- Node3&#45;&gt;Node1 -->
<g id="edge6" class="edge"><title>Node3&#45;&gt;Node1</title>
<path fill="none" stroke="#404040" d="M676.818,-317.723C705.938,-439.486 730.341,-620.559 670,-764 649.473,-812.796 608.544,-854.975 570.49,-886.213"/>
<polygon fill="none" stroke="#404040" points="570.25,-886.405 568.074,-893.28 560.891,-893.916 563.067,-887.041 570.25,-886.405"/>
<text text-anchor="middle" x="737.5" y="-592.5" font-family="Helvetica,sans-Serif" font-size="10.00"> &#45;mAppLocale</text>
</g>
<!-- Node4&#45;&gt;Node3 -->
<g id="edge8" class="edge"><title>Node4&#45;&gt;Node3</title>
<path fill="none" stroke="midnightblue" d="M620.097,-494.766C622.799,-441.618 626.158,-375.561 629.092,-317.867"/>
<polygon fill="none" stroke="midnightblue" points="616.595,-494.711 619.583,-504.876 623.586,-495.066 616.595,-494.711"/>
</g>
<!-- Node5 -->
<g id="node10" class="node"><title>Node5</title>
<a xlink:href="../../d8/dcb/class_w_s_i___appearance.html" target="_top" xlink:title="The WSI_Appearance class. ">
<polygon fill="white" stroke="black" points="225.5,-79 225.5,-285 364.5,-285 364.5,-79 225.5,-79"/>
<text text-anchor="middle" x="295" y="-272" font-family="Helvetica,sans-Serif" font-size="10.00">WSI_Appearance</text>
<polyline fill="none" stroke="black" points="225.5,-264 364.5,-264 "/>
<text text-anchor="start" x="233.5" y="-251" font-family="Helvetica,sans-Serif" font-size="10.00">&#45; mUseOpenGlWidget</text>
<text text-anchor="start" x="233.5" y="-238" font-family="Helvetica,sans-Serif" font-size="10.00">&#45; mUseOpenGlCheckBox</text>
<polyline fill="none" stroke="black" points="225.5,-230 364.5,-230 "/>
<text text-anchor="start" x="233.5" y="-217" font-family="Helvetica,sans-Serif" font-size="10.00">+ WSI_Appearance()</text>
<text text-anchor="start" x="233.5" y="-204" font-family="Helvetica,sans-Serif" font-size="10.00">+ ~WSI_Appearance()</text>
<text text-anchor="start" x="233.5" y="-191" font-family="Helvetica,sans-Serif" font-size="10.00">+ getUseOpenGl()</text>
<text text-anchor="start" x="233.5" y="-178" font-family="Helvetica,sans-Serif" font-size="10.00">+ getUseOpenGlLabelText()</text>
<text text-anchor="start" x="233.5" y="-165" font-family="Helvetica,sans-Serif" font-size="10.00">+ getUseOpenGlWidget()</text>
<text text-anchor="start" x="233.5" y="-152" font-family="Helvetica,sans-Serif" font-size="10.00">+ restoreDefault()</text>
<text text-anchor="start" x="233.5" y="-139" font-family="Helvetica,sans-Serif" font-size="10.00">+ apply()</text>
<text text-anchor="start" x="233.5" y="-126" font-family="Helvetica,sans-Serif" font-size="10.00">+ revert()</text>
<text text-anchor="start" x="233.5" y="-113" font-family="Helvetica,sans-Serif" font-size="10.00">&#45; WSI_Appearance()</text>
<text text-anchor="start" x="233.5" y="-100" font-family="Helvetica,sans-Serif" font-size="10.00">&#45; WSI_Appearance()</text>
<text text-anchor="start" x="233.5" y="-87" font-family="Helvetica,sans-Serif" font-size="10.00">&#45; operator=()</text>
</a>
</g>
<!-- Node4&#45;&gt;Node5 -->
<g id="edge14" class="edge"><title>Node4&#45;&gt;Node5</title>
<path fill="none" stroke="midnightblue" d="M595.975,-495.3C587.081,-470.063 574.057,-444.814 555,-426 494.189,-365.964 435.693,-422.068 373,-364 350.175,-342.859 333.741,-313.921 322.03,-285.339"/>
<polygon fill="none" stroke="midnightblue" points="592.71,-496.572 599.186,-504.958 599.353,-494.364 592.71,-496.572"/>
</g>
<!-- Node6 -->
<g id="node13" class="node"><title>Node6</title>
<a xlink:href="../../d5/da3/class_w_s_i___library_norm_order.html" target="_top" xlink:title="The WSI_LibraryNormOrder class contains a list of norms which should be used for all library elements...">
<polygon fill="white" stroke="black" points="724,-1 724,-363 864,-363 864,-1 724,-1"/>
<text text-anchor="middle" x="794" y="-350" font-family="Helvetica,sans-Serif" font-size="10.00">WSI_LibraryNormOrder</text>
<polyline fill="none" stroke="black" points="724,-342 864,-342 "/>
<text text-anchor="start" x="732" y="-329" font-family="Helvetica,sans-Serif" font-size="10.00">&#45; mList</text>
<text text-anchor="start" x="732" y="-316" font-family="Helvetica,sans-Serif" font-size="10.00">&#45; mListTmp</text>
<text text-anchor="start" x="732" y="-303" font-family="Helvetica,sans-Serif" font-size="10.00">&#45; mWidget</text>
<text text-anchor="start" x="732" y="-290" font-family="Helvetica,sans-Serif" font-size="10.00">&#45; mListWidget</text>
<text text-anchor="start" x="732" y="-277" font-family="Helvetica,sans-Serif" font-size="10.00">&#45; mComboBox</text>
<text text-anchor="start" x="732" y="-264" font-family="Helvetica,sans-Serif" font-size="10.00">&#45; mBtnUp</text>
<text text-anchor="start" x="732" y="-251" font-family="Helvetica,sans-Serif" font-size="10.00">&#45; mBtnDown</text>
<text text-anchor="start" x="732" y="-238" font-family="Helvetica,sans-Serif" font-size="10.00">&#45; mBtnAdd</text>
<text text-anchor="start" x="732" y="-225" font-family="Helvetica,sans-Serif" font-size="10.00">&#45; mBtnRemove</text>
<polyline fill="none" stroke="black" points="724,-217 864,-217 "/>
<text text-anchor="start" x="732" y="-204" font-family="Helvetica,sans-Serif" font-size="10.00">+ WSI_LibraryNormOrder()</text>
<text text-anchor="start" x="732" y="-191" font-family="Helvetica,sans-Serif" font-size="10.00">+ ~WSI_LibraryNormOrder()</text>
<text text-anchor="start" x="732" y="-178" font-family="Helvetica,sans-Serif" font-size="10.00">+ getNormOrder()</text>
<text text-anchor="start" x="732" y="-165" font-family="Helvetica,sans-Serif" font-size="10.00">+ getLabelText()</text>
<text text-anchor="start" x="732" y="-152" font-family="Helvetica,sans-Serif" font-size="10.00">+ getWidget()</text>
<text text-anchor="start" x="732" y="-139" font-family="Helvetica,sans-Serif" font-size="10.00">+ restoreDefault()</text>
<text text-anchor="start" x="732" y="-126" font-family="Helvetica,sans-Serif" font-size="10.00">+ apply()</text>
<text text-anchor="start" x="732" y="-113" font-family="Helvetica,sans-Serif" font-size="10.00">+ revert()</text>
<text text-anchor="start" x="732" y="-100" font-family="Helvetica,sans-Serif" font-size="10.00">+ btnUpClicked()</text>
<text text-anchor="start" x="732" y="-87" font-family="Helvetica,sans-Serif" font-size="10.00">+ btnDownClicked()</text>
<text text-anchor="start" x="732" y="-74" font-family="Helvetica,sans-Serif" font-size="10.00">+ btnAddClicked()</text>
<text text-anchor="start" x="732" y="-61" font-family="Helvetica,sans-Serif" font-size="10.00">+ btnRemoveClicked()</text>
<text text-anchor="start" x="732" y="-48" font-family="Helvetica,sans-Serif" font-size="10.00">&#45; WSI_LibraryNormOrder()</text>
<text text-anchor="start" x="732" y="-35" font-family="Helvetica,sans-Serif" font-size="10.00">&#45; WSI_LibraryNormOrder()</text>
<text text-anchor="start" x="732" y="-22" font-family="Helvetica,sans-Serif" font-size="10.00">&#45; operator=()</text>
<text text-anchor="start" x="732" y="-9" font-family="Helvetica,sans-Serif" font-size="10.00">&#45; updateListWidgetItems()</text>
</a>
</g>
<!-- Node4&#45;&gt;Node6 -->
<g id="edge18" class="edge"><title>Node4&#45;&gt;Node6</title>
<path fill="none" stroke="midnightblue" d="M646.068,-495.311C654.471,-472.132 664.252,-447.854 675,-426 689.472,-396.573 699.531,-392.915 715,-364 718.006,-358.381 720.99,-352.624 723.94,-346.778"/>
<polygon fill="none" stroke="midnightblue" points="642.74,-494.226 642.675,-504.821 649.332,-496.579 642.74,-494.226"/>
</g>
<!-- Node7 -->
<g id="node16" class="node"><title>Node7</title>
<a xlink:href="../../de/ded/class_w_s_i___library_locale_order.html" target="_top" xlink:title="The WSI_LibraryLocaleOrder class contains a list of locales which should be used for all (translatabl...">
<polygon fill="white" stroke="black" points="64,-1 64,-363 208,-363 208,-1 64,-1"/>
<text text-anchor="middle" x="136" y="-350" font-family="Helvetica,sans-Serif" font-size="10.00">WSI_LibraryLocaleOrder</text>
<polyline fill="none" stroke="black" points="64,-342 208,-342 "/>
<text text-anchor="start" x="72" y="-329" font-family="Helvetica,sans-Serif" font-size="10.00">&#45; mList</text>
<text text-anchor="start" x="72" y="-316" font-family="Helvetica,sans-Serif" font-size="10.00">&#45; mListTmp</text>
<text text-anchor="start" x="72" y="-303" font-family="Helvetica,sans-Serif" font-size="10.00">&#45; mWidget</text>
<text text-anchor="start" x="72" y="-290" font-family="Helvetica,sans-Serif" font-size="10.00">&#45; mListWidget</text>
<text text-anchor="start" x="72" y="-277" font-family="Helvetica,sans-Serif" font-size="10.00">&#45; mComboBox</text>
<text text-anchor="start" x="72" y="-264" font-family="Helvetica,sans-Serif" font-size="10.00">&#45; mBtnUp</text>
<text text-anchor="start" x="72" y="-251" font-family="Helvetica,sans-Serif" font-size="10.00">&#45; mBtnDown</text>
<text text-anchor="start" x="72" y="-238" font-family="Helvetica,sans-Serif" font-size="10.00">&#45; mBtnAdd</text>
<text text-anchor="start" x="72" y="-225" font-family="Helvetica,sans-Serif" font-size="10.00">&#45; mBtnRemove</text>
<polyline fill="none" stroke="black" points="64,-217 208,-217 "/>
<text text-anchor="start" x="72" y="-204" font-family="Helvetica,sans-Serif" font-size="10.00">+ WSI_LibraryLocaleOrder()</text>
<text text-anchor="start" x="72" y="-191" font-family="Helvetica,sans-Serif" font-size="10.00">+ ~WSI_LibraryLocaleOrder()</text>
<text text-anchor="start" x="72" y="-178" font-family="Helvetica,sans-Serif" font-size="10.00">+ getLocaleOrder()</text>
<text text-anchor="start" x="72" y="-165" font-family="Helvetica,sans-Serif" font-size="10.00">+ getLabelText()</text>
<text text-anchor="start" x="72" y="-152" font-family="Helvetica,sans-Serif" font-size="10.00">+ getWidget()</text>
<text text-anchor="start" x="72" y="-139" font-family="Helvetica,sans-Serif" font-size="10.00">+ restoreDefault()</text>
<text text-anchor="start" x="72" y="-126" font-family="Helvetica,sans-Serif" font-size="10.00">+ apply()</text>
<text text-anchor="start" x="72" y="-113" font-family="Helvetica,sans-Serif" font-size="10.00">+ revert()</text>
<text text-anchor="start" x="72" y="-100" font-family="Helvetica,sans-Serif" font-size="10.00">+ btnUpClicked()</text>
<text text-anchor="start" x="72" y="-87" font-family="Helvetica,sans-Serif" font-size="10.00">+ btnDownClicked()</text>
<text text-anchor="start" x="72" y="-74" font-family="Helvetica,sans-Serif" font-size="10.00">+ btnAddClicked()</text>
<text text-anchor="start" x="72" y="-61" font-family="Helvetica,sans-Serif" font-size="10.00">+ btnRemoveClicked()</text>
<text text-anchor="start" x="72" y="-48" font-family="Helvetica,sans-Serif" font-size="10.00">&#45; WSI_LibraryLocaleOrder()</text>
<text text-anchor="start" x="72" y="-35" font-family="Helvetica,sans-Serif" font-size="10.00">&#45; WSI_LibraryLocaleOrder()</text>
<text text-anchor="start" x="72" y="-22" font-family="Helvetica,sans-Serif" font-size="10.00">&#45; operator=()</text>
<text text-anchor="start" x="72" y="-9" font-family="Helvetica,sans-Serif" font-size="10.00">&#45; updateListWidgetItems()</text>
</a>
</g>
<!-- Node4&#45;&gt;Node7 -->
<g id="edge22" class="edge"><title>Node4&#45;&gt;Node7</title>
<path fill="none" stroke="midnightblue" d="M599.434,-495.132C590.582,-468.946 576.714,-443.245 555,-426 527.154,-403.885 431.004,-414.257 396,-408 315.354,-393.585 279.841,-416.56 217,-364 213.949,-361.448 211.009,-358.759 208.176,-355.948"/>
<polygon fill="none" stroke="midnightblue" points="596.132,-496.299 602.474,-504.786 602.809,-494.197 596.132,-496.299"/>
</g>
<!-- Node8 -->
<g id="node19" class="node"><title>Node8</title>
<a xlink:href="../../df/def/class_w_s_i___debug_tools.html" target="_top" xlink:title="The WSI_DebugTools class contains some tools/settings which are useful for debugging. ">
<polygon fill="white" stroke="black" points="881.5,-98.5 881.5,-265.5 996.5,-265.5 996.5,-98.5 881.5,-98.5"/>
<text text-anchor="middle" x="939" y="-252.5" font-family="Helvetica,sans-Serif" font-size="10.00">WSI_DebugTools</text>
<polyline fill="none" stroke="black" points="881.5,-244.5 996.5,-244.5 "/>
<text text-anchor="start" x="889.5" y="-231.5" font-family="Helvetica,sans-Serif" font-size="10.00">&#45; mWidget</text>
<polyline fill="none" stroke="black" points="881.5,-223.5 996.5,-223.5 "/>
<text text-anchor="start" x="889.5" y="-210.5" font-family="Helvetica,sans-Serif" font-size="10.00">+ WSI_DebugTools()</text>
<text text-anchor="start" x="889.5" y="-197.5" font-family="Helvetica,sans-Serif" font-size="10.00">+ ~WSI_DebugTools()</text>
<text text-anchor="start" x="889.5" y="-184.5" font-family="Helvetica,sans-Serif" font-size="10.00">+ getWidget()</text>
<text text-anchor="start" x="889.5" y="-171.5" font-family="Helvetica,sans-Serif" font-size="10.00">+ restoreDefault()</text>
<text text-anchor="start" x="889.5" y="-158.5" font-family="Helvetica,sans-Serif" font-size="10.00">+ apply()</text>
<text text-anchor="start" x="889.5" y="-145.5" font-family="Helvetica,sans-Serif" font-size="10.00">+ revert()</text>
<text text-anchor="start" x="889.5" y="-132.5" font-family="Helvetica,sans-Serif" font-size="10.00">&#45; WSI_DebugTools()</text>
<text text-anchor="start" x="889.5" y="-119.5" font-family="Helvetica,sans-Serif" font-size="10.00">&#45; WSI_DebugTools()</text>
<text text-anchor="start" x="889.5" y="-106.5" font-family="Helvetica,sans-Serif" font-size="10.00">&#45; operator=()</text>
</a>
</g>
<!-- Node4&#45;&gt;Node8 -->
<g id="edge26" class="edge"><title>Node4&#45;&gt;Node8</title>
<path fill="none" stroke="midnightblue" d="M633.717,-494.984C642.61,-469.747 655.711,-444.576 675,-426 708.211,-394.018 839.682,-395.87 873,-364 900.082,-338.096 916.093,-300.231 925.54,-265.738"/>
<polygon fill="none" stroke="midnightblue" points="630.338,-494.053 630.511,-504.646 636.982,-496.258 630.338,-494.053"/>
</g>
<!-- Node9 -->
<g id="node22" class="node"><title>Node9</title>
<a xlink:href="../../d6/d31/class_w_s_i___project_autosave_interval.html" target="_top" xlink:title="The WSI_ProjectAutosaveInterval class represents the project autosave interval setting. ">
<polygon fill="white" stroke="black" points="381.5,-59.5 381.5,-304.5 548.5,-304.5 548.5,-59.5 381.5,-59.5"/>
<text text-anchor="middle" x="465" y="-291.5" font-family="Helvetica,sans-Serif" font-size="10.00">WSI_ProjectAutosaveInterval</text>
<polyline fill="none" stroke="black" points="381.5,-283.5 548.5,-283.5 "/>
<text text-anchor="start" x="389.5" y="-270.5" font-family="Helvetica,sans-Serif" font-size="10.00">&#45; mInterval</text>
<text text-anchor="start" x="389.5" y="-257.5" font-family="Helvetica,sans-Serif" font-size="10.00">&#45; mIntervalTmp</text>
<text text-anchor="start" x="389.5" y="-244.5" font-family="Helvetica,sans-Serif" font-size="10.00">&#45; mWidget</text>
<text text-anchor="start" x="389.5" y="-231.5" font-family="Helvetica,sans-Serif" font-size="10.00">&#45; mSpinBox</text>
<polyline fill="none" stroke="black" points="381.5,-223.5 548.5,-223.5 "/>
<text text-anchor="start" x="389.5" y="-210.5" font-family="Helvetica,sans-Serif" font-size="10.00">+ WSI_ProjectAutosaveInterval()</text>
<text text-anchor="start" x="389.5" y="-197.5" font-family="Helvetica,sans-Serif" font-size="10.00">+ ~WSI_ProjectAutosaveInterval()</text>
<text text-anchor="start" x="389.5" y="-184.5" font-family="Helvetica,sans-Serif" font-size="10.00">+ getInterval()</text>
<text text-anchor="start" x="389.5" y="-171.5" font-family="Helvetica,sans-Serif" font-size="10.00">+ getLabelText()</text>
<text text-anchor="start" x="389.5" y="-158.5" font-family="Helvetica,sans-Serif" font-size="10.00">+ getWidget()</text>
<text text-anchor="start" x="389.5" y="-145.5" font-family="Helvetica,sans-Serif" font-size="10.00">+ restoreDefault()</text>
<text text-anchor="start" x="389.5" y="-132.5" font-family="Helvetica,sans-Serif" font-size="10.00">+ apply()</text>
<text text-anchor="start" x="389.5" y="-119.5" font-family="Helvetica,sans-Serif" font-size="10.00">+ revert()</text>
<text text-anchor="start" x="389.5" y="-106.5" font-family="Helvetica,sans-Serif" font-size="10.00">+ spinBoxValueChanged()</text>
<text text-anchor="start" x="389.5" y="-93.5" font-family="Helvetica,sans-Serif" font-size="10.00">&#45; WSI_ProjectAutosaveInterval()</text>
<text text-anchor="start" x="389.5" y="-80.5" font-family="Helvetica,sans-Serif" font-size="10.00">&#45; WSI_ProjectAutosaveInterval()</text>
<text text-anchor="start" x="389.5" y="-67.5" font-family="Helvetica,sans-Serif" font-size="10.00">&#45; operator=()</text>
</a>
</g>
<!-- Node4&#45;&gt;Node9 -->
<g id="edge30" class="edge"><title>Node4&#45;&gt;Node9</title>
<path fill="none" stroke="midnightblue" d="M579.708,-494.952C571.64,-472.262 563.066,-448.286 555,-426 540.71,-386.516 524.925,-343.518 510.617,-304.77"/>
<polygon fill="none" stroke="midnightblue" points="576.486,-496.338 583.131,-504.589 583.082,-493.994 576.486,-496.338"/>
</g>
<!-- Node11 -->
<g id="node27" class="node"><title>Node11</title>
<a xlink:href="../../d3/d01/class_w_s_i___app_default_measurement_units.html" target="_top" xlink:title="The WSI_AppDefaultMeasurementUnits class represents the application&#39;s default measurement units (for ...">
<polygon fill="white" stroke="black" points="1014,-33.5 1014,-330.5 1202,-330.5 1202,-33.5 1014,-33.5"/>
<text text-anchor="start" x="1022" y="-317.5" font-family="Helvetica,sans-Serif" font-size="10.00">WSI_AppDefaultMeasurement</text>
<text text-anchor="middle" x="1108" y="-304.5" font-family="Helvetica,sans-Serif" font-size="10.00">Units</text>
<polyline fill="none" stroke="black" points="1014,-296.5 1202,-296.5 "/>
<text text-anchor="start" x="1022" y="-283.5" font-family="Helvetica,sans-Serif" font-size="10.00">&#45; mLengthUnitComboBox</text>
<polyline fill="none" stroke="black" points="1014,-275.5 1202,-275.5 "/>
<text text-anchor="start" x="1022" y="-262.5" font-family="Helvetica,sans-Serif" font-size="10.00">+ WSI_AppDefaultMeasurement</text>
<text text-anchor="start" x="1022" y="-249.5" font-family="Helvetica,sans-Serif" font-size="10.00">Units()</text>
<text text-anchor="start" x="1022" y="-236.5" font-family="Helvetica,sans-Serif" font-size="10.00">+ ~WSI_AppDefaultMeasurement</text>
<text text-anchor="start" x="1022" y="-223.5" font-family="Helvetica,sans-Serif" font-size="10.00">Units()</text>
<text text-anchor="start" x="1022" y="-210.5" font-family="Helvetica,sans-Serif" font-size="10.00">+ getLengthUnit()</text>
<text text-anchor="start" x="1022" y="-197.5" font-family="Helvetica,sans-Serif" font-size="10.00">+ getLengthUnitLabelText()</text>
<text text-anchor="start" x="1022" y="-184.5" font-family="Helvetica,sans-Serif" font-size="10.00">+ getLengthUnitComboBox()</text>
<text text-anchor="start" x="1022" y="-171.5" font-family="Helvetica,sans-Serif" font-size="10.00">+ restoreDefault()</text>
<text text-anchor="start" x="1022" y="-158.5" font-family="Helvetica,sans-Serif" font-size="10.00">+ apply()</text>
<text text-anchor="start" x="1022" y="-145.5" font-family="Helvetica,sans-Serif" font-size="10.00">+ revert()</text>
<text text-anchor="start" x="1022" y="-132.5" font-family="Helvetica,sans-Serif" font-size="10.00">+ lengthUnitComboBoxIndexChanged()</text>
<text text-anchor="start" x="1022" y="-119.5" font-family="Helvetica,sans-Serif" font-size="10.00">&#45; WSI_AppDefaultMeasurement</text>
<text text-anchor="start" x="1022" y="-106.5" font-family="Helvetica,sans-Serif" font-size="10.00">Units()</text>
<text text-anchor="start" x="1022" y="-93.5" font-family="Helvetica,sans-Serif" font-size="10.00">&#45; WSI_AppDefaultMeasurement</text>
<text text-anchor="start" x="1022" y="-80.5" font-family="Helvetica,sans-Serif" font-size="10.00">Units()</text>
<text text-anchor="start" x="1022" y="-67.5" font-family="Helvetica,sans-Serif" font-size="10.00">&#45; operator=()</text>
<text text-anchor="start" x="1022" y="-54.5" font-family="Helvetica,sans-Serif" font-size="10.00">&#45; updateLengthUnitComboBox</text>
<text text-anchor="start" x="1022" y="-41.5" font-family="Helvetica,sans-Serif" font-size="10.00">Index()</text>
</a>
</g>
<!-- Node4&#45;&gt;Node11 -->
<g id="edge36" class="edge"><title>Node4&#45;&gt;Node11</title>
<path fill="none" stroke="midnightblue" d="M631.219,-495.379C640.088,-469.342 653.8,-443.658 675,-426 713.739,-393.733 737.391,-416.989 787,-408 884.259,-390.377 924.986,-422.031 1005,-364 1017.78,-354.728 1029.2,-343.352 1039.34,-330.854"/>
<polygon fill="none" stroke="midnightblue" points="627.864,-494.383 628.166,-504.973 634.534,-496.506 627.864,-494.383"/>
</g>
<!-- Node5&#45;&gt;Node1 -->
<g id="edge12" class="edge"><title>Node5&#45;&gt;Node1</title>
<path fill="none" stroke="#404040" d="M300.62,-285.167C309.448,-428.216 328.943,-678.821 361,-764 371.542,-792.01 387.407,-819.802 404.329,-844.864"/>
<polygon fill="none" stroke="#404040" points="404.553,-845.188 411.254,-847.852 411.373,-855.062 404.672,-852.398 404.553,-845.188"/>
<text text-anchor="middle" x="394.5" y="-592.5" font-family="Helvetica,sans-Serif" font-size="10.00"> &#45;mAppearance</text>
</g>
<!-- Node6&#45;&gt;Node1 -->
<g id="edge16" class="edge"><title>Node6&#45;&gt;Node1</title>
<path fill="none" stroke="#404040" d="M805.234,-363.124C810.952,-508.22 810.064,-698.044 772,-764 728.477,-839.414 639.294,-887.885 572.02,-915.306"/>
<polygon fill="none" stroke="#404040" points="571.729,-915.422 567.631,-921.355 560.578,-919.855 564.676,-913.921 571.729,-915.422"/>
<text text-anchor="middle" x="853" y="-592.5" font-family="Helvetica,sans-Serif" font-size="10.00"> &#45;mLibraryNormOrder</text>
</g>
<!-- Node7&#45;&gt;Node1 -->
<g id="edge20" class="edge"><title>Node7&#45;&gt;Node1</title>
<path fill="none" stroke="#404040" d="M155.321,-363.128C173.431,-527.527 199.278,-746.885 210,-764 254.052,-834.313 336.783,-882.732 400.224,-911.495"/>
<polygon fill="none" stroke="#404040" points="400.46,-911.6 407.566,-910.375 411.43,-916.464 404.323,-917.688 400.46,-911.6"/>
<text text-anchor="middle" x="258.5" y="-592.5" font-family="Helvetica,sans-Serif" font-size="10.00"> &#45;mLibraryLocaleOrder</text>
</g>
<!-- Node8&#45;&gt;Node1 -->
<g id="edge24" class="edge"><title>Node8&#45;&gt;Node1</title>
<path fill="none" stroke="#404040" d="M938.151,-265.783C935.926,-417.157 927.979,-724.29 900,-764 824.274,-871.478 670.021,-915.39 572.673,-932.893"/>
<polygon fill="none" stroke="#404040" points="572.623,-932.902 567.393,-937.866 560.799,-934.948 566.029,-929.984 572.623,-932.902"/>
<text text-anchor="middle" x="967.5" y="-592.5" font-family="Helvetica,sans-Serif" font-size="10.00"> &#45;mDebugTools</text>
</g>
<!-- Node9&#45;&gt;Node1 -->
<g id="edge28" class="edge"><title>Node9&#45;&gt;Node1</title>
<path fill="none" stroke="#404040" d="M448.368,-304.535C435.066,-422.639 421.57,-606.168 441,-764 442.567,-776.728 444.735,-789.851 447.279,-802.938"/>
<polygon fill="none" stroke="#404040" points="447.327,-803.174 452.441,-808.258 449.715,-814.934 444.601,-809.849 447.327,-803.174"/>
<text text-anchor="middle" x="500.5" y="-592.5" font-family="Helvetica,sans-Serif" font-size="10.00"> &#45;mProjectAutosaveInterval</text>
</g>
<!-- Node10 -->
<g id="node25" class="node"><title>Node10</title>
<a xlink:href="../../d4/d1c/class_file_path.html" target="_top" xlink:title="This class represents absolute, well&#45;formatted paths to files or directories. ">
<polygon fill="white" stroke="black" points="419,-1124.5 419,-1525.5 553,-1525.5 553,-1124.5 419,-1124.5"/>
<text text-anchor="middle" x="486" y="-1512.5" font-family="Helvetica,sans-Serif" font-size="10.00">FilePath</text>
<polyline fill="none" stroke="black" points="419,-1504.5 553,-1504.5 "/>
<text text-anchor="start" x="427" y="-1491.5" font-family="Helvetica,sans-Serif" font-size="10.00">&#45; mIsValid</text>
<text text-anchor="start" x="427" y="-1478.5" font-family="Helvetica,sans-Serif" font-size="10.00">&#45; mFileInfo</text>
<polyline fill="none" stroke="black" points="419,-1470.5 553,-1470.5 "/>
<text text-anchor="start" x="427" y="-1457.5" font-family="Helvetica,sans-Serif" font-size="10.00">+ FilePath()</text>
<text text-anchor="start" x="427" y="-1444.5" font-family="Helvetica,sans-Serif" font-size="10.00">+ FilePath()</text>
<text text-anchor="start" x="427" y="-1431.5" font-family="Helvetica,sans-Serif" font-size="10.00">+ FilePath()</text>
<text text-anchor="start" x="427" y="-1418.5" font-family="Helvetica,sans-Serif" font-size="10.00">+ setPath()</text>
<text text-anchor="start" x="427" y="-1405.5" font-family="Helvetica,sans-Serif" font-size="10.00">+ isValid()</text>
<text text-anchor="start" x="427" y="-1392.5" font-family="Helvetica,sans-Serif" font-size="10.00">+ isExistingFile()</text>
<text text-anchor="start" x="427" y="-1379.5" font-family="Helvetica,sans-Serif" font-size="10.00">+ isExistingDir()</text>
<text text-anchor="start" x="427" y="-1366.5" font-family="Helvetica,sans-Serif" font-size="10.00">+ isEmptyDir()</text>
<text text-anchor="start" x="427" y="-1353.5" font-family="Helvetica,sans-Serif" font-size="10.00">+ isRoot()</text>
<text text-anchor="start" x="427" y="-1340.5" font-family="Helvetica,sans-Serif" font-size="10.00">+ toStr()</text>
<text text-anchor="start" x="427" y="-1327.5" font-family="Helvetica,sans-Serif" font-size="10.00">+ toNative()</text>
<text text-anchor="start" x="427" y="-1314.5" font-family="Helvetica,sans-Serif" font-size="10.00">+ toUnique()</text>
<text text-anchor="start" x="427" y="-1301.5" font-family="Helvetica,sans-Serif" font-size="10.00">+ toRelative()</text>
<text text-anchor="start" x="427" y="-1288.5" font-family="Helvetica,sans-Serif" font-size="10.00">+ toQUrl()</text>
<text text-anchor="start" x="427" y="-1275.5" font-family="Helvetica,sans-Serif" font-size="10.00">+ getBasename()</text>
<text text-anchor="start" x="427" y="-1262.5" font-family="Helvetica,sans-Serif" font-size="10.00">+ getCompleteBasename()</text>
<text text-anchor="start" x="427" y="-1249.5" font-family="Helvetica,sans-Serif" font-size="10.00">+ getSuffix()</text>
<text text-anchor="start" x="427" y="-1236.5" font-family="Helvetica,sans-Serif" font-size="10.00">+ getCompleteSuffix()</text>
<text text-anchor="start" x="427" y="-1223.5" font-family="Helvetica,sans-Serif" font-size="10.00">+ getFilename()</text>
<text text-anchor="start" x="427" y="-1210.5" font-family="Helvetica,sans-Serif" font-size="10.00">+ getParentDir()</text>
<text text-anchor="start" x="427" y="-1197.5" font-family="Helvetica,sans-Serif" font-size="10.00">+ getPathTo()</text>
<text text-anchor="start" x="427" y="-1184.5" font-family="Helvetica,sans-Serif" font-size="10.00">+ mkPath()</text>
<text text-anchor="start" x="427" y="-1171.5" font-family="Helvetica,sans-Serif" font-size="10.00">+ operator=()</text>
<text text-anchor="start" x="427" y="-1158.5" font-family="Helvetica,sans-Serif" font-size="10.00">+ operator==()</text>
<text text-anchor="start" x="427" y="-1145.5" font-family="Helvetica,sans-Serif" font-size="10.00">+ fromRelative()</text>
<text text-anchor="start" x="427" y="-1132.5" font-family="Helvetica,sans-Serif" font-size="10.00">&#45; makeWellFormatted()</text>
</a>
</g>
<!-- Node10&#45;&gt;Node1 -->
<g id="edge32" class="edge"><title>Node10&#45;&gt;Node1</title>
<path fill="none" stroke="#404040" d="M486,-1124.46C486,-1111.28 486,-1098.17 486,-1085.37"/>
<polygon fill="none" stroke="#404040" points="486,-1085.21 482,-1079.21 486,-1073.21 490,-1079.21 486,-1085.21"/>
<text text-anchor="middle" x="524" y="-1096.5" font-family="Helvetica,sans-Serif" font-size="10.00"> &#45;mMetadataPath</text>
</g>
<!-- Node11&#45;&gt;Node1 -->
<g id="edge34" class="edge"><title>Node11&#45;&gt;Node1</title>
<path fill="none" stroke="#404040" d="M1057.65,-330.802C1048.58,-361.963 1040.09,-394.828 1034,-426 1019.54,-500.027 1049.46,-704.581 1003,-764 949.104,-832.929 705.286,-895.821 572.628,-925.702"/>
<polygon fill="none" stroke="#404040" points="572.249,-925.786 567.265,-930.999 560.538,-928.403 565.521,-923.191 572.249,-925.786"/>
<text text-anchor="middle" x="1081.5" y="-592.5" font-family="Helvetica,sans-Serif" font-size="10.00"> &#45;mAppDefMeasUnits</text>
</g>
<!-- Node12 -->
<g id="node30" class="node"><title>Node12</title>
<a xlink:href="../../dd/d55/class_length_unit.html" target="_top" xlink:title="The LengthUnit class represents a length unit (millimeters, inches,...) and provides some useful meth...">
<polygon fill="white" stroke="black" points="1138,-427 1138,-763 1242,-763 1242,-427 1138,-427"/>
<text text-anchor="middle" x="1190" y="-750" font-family="Helvetica,sans-Serif" font-size="10.00">LengthUnit</text>
<polyline fill="none" stroke="black" points="1138,-742 1242,-742 "/>
<text text-anchor="start" x="1146" y="-729" font-family="Helvetica,sans-Serif" font-size="10.00">&#45; mUnit</text>
<polyline fill="none" stroke="black" points="1138,-721 1242,-721 "/>
<text text-anchor="start" x="1146" y="-708" font-family="Helvetica,sans-Serif" font-size="10.00">+ LengthUnit()</text>
<text text-anchor="start" x="1146" y="-695" font-family="Helvetica,sans-Serif" font-size="10.00">+ LengthUnit()</text>
<text text-anchor="start" x="1146" y="-682" font-family="Helvetica,sans-Serif" font-size="10.00">+ ~LengthUnit()</text>
<text text-anchor="start" x="1146" y="-669" font-family="Helvetica,sans-Serif" font-size="10.00">+ getIndex()</text>
<text text-anchor="start" x="1146" y="-656" font-family="Helvetica,sans-Serif" font-size="10.00">+ toString()</text>
<text text-anchor="start" x="1146" y="-643" font-family="Helvetica,sans-Serif" font-size="10.00">+ toStringTr()</text>
<text text-anchor="start" x="1146" y="-630" font-family="Helvetica,sans-Serif" font-size="10.00">+ toShortStringTr()</text>
<text text-anchor="start" x="1146" y="-617" font-family="Helvetica,sans-Serif" font-size="10.00">+ convertToUnit()</text>
<text text-anchor="start" x="1146" y="-604" font-family="Helvetica,sans-Serif" font-size="10.00">+ convertToUnit()</text>
<text text-anchor="start" x="1146" y="-591" font-family="Helvetica,sans-Serif" font-size="10.00">+ convertFromUnit()</text>
<text text-anchor="start" x="1146" y="-578" font-family="Helvetica,sans-Serif" font-size="10.00">+ convertFromUnit()</text>
<text text-anchor="start" x="1146" y="-565" font-family="Helvetica,sans-Serif" font-size="10.00">+ operator=()</text>
<text text-anchor="start" x="1146" y="-552" font-family="Helvetica,sans-Serif" font-size="10.00">+ operator==()</text>
<text text-anchor="start" x="1146" y="-539" font-family="Helvetica,sans-Serif" font-size="10.00">+ fromIndex()</text>
<text text-anchor="start" x="1146" y="-526" font-family="Helvetica,sans-Serif" font-size="10.00">+ fromString()</text>
<text text-anchor="start" x="1146" y="-513" font-family="Helvetica,sans-Serif" font-size="10.00">+ getAllUnits()</text>
<text text-anchor="start" x="1146" y="-500" font-family="Helvetica,sans-Serif" font-size="10.00">+ millimeters()</text>
<text text-anchor="start" x="1146" y="-487" font-family="Helvetica,sans-Serif" font-size="10.00">+ micrometers()</text>
<text text-anchor="start" x="1146" y="-474" font-family="Helvetica,sans-Serif" font-size="10.00">+ nanometers()</text>
<text text-anchor="start" x="1146" y="-461" font-family="Helvetica,sans-Serif" font-size="10.00">+ inches()</text>
<text text-anchor="start" x="1146" y="-448" font-family="Helvetica,sans-Serif" font-size="10.00">+ mils()</text>
<text text-anchor="start" x="1146" y="-435" font-family="Helvetica,sans-Serif" font-size="10.00">&#45; LengthUnit()</text>
</a>
</g>
<!-- Node12&#45;&gt;Node11 -->
<g id="edge38" class="edge"><title>Node12&#45;&gt;Node11</title>
<path fill="none" stroke="#404040" d="M1156.59,-426.719C1151.09,-399.015 1145.4,-370.36 1139.94,-342.844"/>
<polygon fill="none" stroke="#404040" points="1139.86,-342.48 1134.77,-337.374 1137.53,-330.71 1142.62,-335.816 1139.86,-342.48"/>
<text text-anchor="middle" x="1192" y="-399" font-family="Helvetica,sans-Serif" font-size="10.00"> &#45;mLengthUnitTmp</text>
<text text-anchor="middle" x="1192" y="-386" font-family="Helvetica,sans-Serif" font-size="10.00">&#45;mLengthUnit</text>
</g>
</g>
</svg>
