<?xml version="1.0" encoding="UTF-8" standalone="no"?>
<!DOCTYPE svg PUBLIC "-//W3C//DTD SVG 1.1//EN"
 "http://www.w3.org/Graphics/SVG/1.1/DTD/svg11.dtd">
<!-- Generated by graphviz version 2.26.3 (20100126.1600)
 -->
<!-- Title: SpiceModel Pages: 1 -->
<svg width="548pt" height="346pt"
 viewBox="0.00 0.00 548.00 346.00" xmlns="http://www.w3.org/2000/svg" xmlns:xlink="http://www.w3.org/1999/xlink">
<g id="graph1" class="graph" transform="scale(1 1) rotate(0) translate(4 342)">
<title>SpiceModel</title>
<polygon fill="white" stroke="white" points="-4,5 -4,-342 545,-342 545,5 -4,5"/>
<!-- Node1 -->
<g id="node1" class="node"><title>Node1</title>
<polygon fill="#bfbfbf" stroke="black" points="0,-176.5 0,-197.5 68,-197.5 68,-176.5 0,-176.5"/>
<text text-anchor="middle" x="34" y="-184.5" font-family="Helvetica,sans-Serif" font-size="10.00">SpiceModel</text>
</g>
<!-- Node2 -->
<g id="node3" class="node"><title>Node2</title>
<a xlink:href="../../dd/d8a/classlibrary_1_1_library_base_element.html#ab6b2b9128217f98c13508797ed0a6080" target="_top" xlink:title="library::LibraryBaseElement\l::readFromFile">
<polygon fill="white" stroke="black" points="104.5,-170 104.5,-204 241.5,-204 241.5,-170 104.5,-170"/>
<text text-anchor="start" x="112.5" y="-191" font-family="Helvetica,sans-Serif" font-size="10.00">library::LibraryBaseElement</text>
<text text-anchor="middle" x="173" y="-178" font-family="Helvetica,sans-Serif" font-size="10.00">::readFromFile</text>
</a>
</g>
<!-- Node1&#45;&gt;Node2 -->
<g id="edge2" class="edge"><title>Node1&#45;&gt;Node2</title>
<path fill="none" stroke="midnightblue" d="M68.0032,-187C76.0895,-187 85.052,-187 94.2343,-187"/>
<polygon fill="midnightblue" stroke="midnightblue" points="94.2532,-190.5 104.253,-187 94.2532,-183.5 94.2532,-190.5"/>
</g>
<!-- Node3 -->
<g id="node5" class="node"><title>Node3</title>
<a xlink:href="../../d4/d1c/class_file_path.html#a2cc965936000d08100b8b2e503d975a4" target="_top" xlink:title="Get the whole filename (without the path) of the file or directory. ">
<polygon fill="white" stroke="black" points="292,-316.5 292,-337.5 404,-337.5 404,-316.5 292,-316.5"/>
<text text-anchor="middle" x="348" y="-324.5" font-family="Helvetica,sans-Serif" font-size="10.00">FilePath::getFilename</text>
</a>
</g>
<!-- Node2&#45;&gt;Node3 -->
<g id="edge4" class="edge"><title>Node2&#45;&gt;Node3</title>
<path fill="none" stroke="midnightblue" d="M183.308,-204.09C199.945,-230.208 235.217,-279.871 278,-307 281.175,-309.014 284.558,-310.829 288.057,-312.466"/>
<polygon fill="midnightblue" stroke="midnightblue" points="286.95,-315.796 297.528,-316.393 289.631,-309.33 286.95,-315.796"/>
</g>
<!-- Node4 -->
<g id="node7" class="node"><title>Node4</title>
<a xlink:href="../../d4/d1c/class_file_path.html#aed11b2f2b9590d9ac21e452b8ad11c46" target="_top" xlink:title="Check if the specified filepath is an existing directory. ">
<polygon fill="white" stroke="black" points="291,-276.5 291,-297.5 405,-297.5 405,-276.5 291,-276.5"/>
<text text-anchor="middle" x="348" y="-284.5" font-family="Helvetica,sans-Serif" font-size="10.00">FilePath::isExistingDir</text>
</a>
</g>
<!-- Node2&#45;&gt;Node4 -->
<g id="edge6" class="edge"><title>Node2&#45;&gt;Node4</title>
<path fill="none" stroke="midnightblue" d="M190.918,-204.044C210.759,-222.062 244.401,-250.157 278,-267 282.544,-269.278 287.388,-271.334 292.326,-273.181"/>
<polygon fill="midnightblue" stroke="midnightblue" points="291.288,-276.525 301.882,-276.48 293.572,-269.909 291.288,-276.525"/>
</g>
<!-- Node5 -->
<g id="node9" class="node"><title>Node5</title>
<a xlink:href="../../d4/d1c/class_file_path.html#af27e4f117ace775ab38ae937c12cd37a" target="_top" xlink:title="Get the absolute filepath with native directory separators (&quot;/&quot; resp. &quot;\&quot;) ">
<polygon fill="white" stroke="black" points="300.5,-236.5 300.5,-257.5 395.5,-257.5 395.5,-236.5 300.5,-236.5"/>
<text text-anchor="middle" x="348" y="-244.5" font-family="Helvetica,sans-Serif" font-size="10.00">FilePath::toNative</text>
</a>
</g>
<!-- Node2&#45;&gt;Node5 -->
<g id="edge8" class="edge"><title>Node2&#45;&gt;Node5</title>
<path fill="none" stroke="midnightblue" d="M215.36,-204.085C234.377,-211.509 257.176,-220.073 278,-227 284.843,-229.277 292.114,-231.532 299.281,-233.662"/>
<polygon fill="midnightblue" stroke="midnightblue" points="298.361,-237.04 308.941,-236.48 300.321,-230.32 298.361,-237.04"/>
</g>
<!-- Node6 -->
<g id="node11" class="node"><title>Node6</title>
<a xlink:href="../../d4/d1c/class_file_path.html#a2c6594f7da9797cf10468c08338cbefd" target="_top" xlink:title="Get the filepath to a file or directory which is relative to this filepath. ">
<polygon fill="white" stroke="black" points="296,-196.5 296,-217.5 400,-217.5 400,-196.5 296,-196.5"/>
<text text-anchor="middle" x="348" y="-204.5" font-family="Helvetica,sans-Serif" font-size="10.00">FilePath::getPathTo</text>
</a>
</g>
<!-- Node2&#45;&gt;Node6 -->
<g id="edge10" class="edge"><title>Node2&#45;&gt;Node6</title>
<path fill="none" stroke="midnightblue" d="M241.662,-194.847C256.149,-196.503 271.358,-198.241 285.598,-199.868"/>
<polygon fill="midnightblue" stroke="midnightblue" points="285.439,-203.373 295.772,-201.031 286.234,-196.418 285.439,-203.373"/>
</g>
<!-- Node7 -->
<g id="node13" class="node"><title>Node7</title>
<a xlink:href="../../d4/d1c/class_file_path.html#af7ebe5b84330753a4d61b36199f3da48" target="_top" xlink:title="Check if the specified filepath is an existing file. ">
<polygon fill="white" stroke="black" points="289.5,-156.5 289.5,-177.5 406.5,-177.5 406.5,-156.5 289.5,-156.5"/>
<text text-anchor="middle" x="348" y="-164.5" font-family="Helvetica,sans-Serif" font-size="10.00">FilePath::isExistingFile</text>
</a>
</g>
<!-- Node2&#45;&gt;Node7 -->
<g id="edge12" class="edge"><title>Node2&#45;&gt;Node7</title>
<path fill="none" stroke="midnightblue" d="M241.662,-179.153C254.006,-177.742 266.875,-176.271 279.221,-174.86"/>
<polygon fill="midnightblue" stroke="midnightblue" points="279.909,-178.305 289.447,-173.692 279.114,-171.35 279.909,-178.305"/>
</g>
<!-- Node8 -->
<g id="node15" class="node"><title>Node8</title>
<a xlink:href="../../da/db0/class_smart_xml_file.html#a6685c26dd2c2668f47d5fae96c4c319f" target="_top" xlink:title="Open and parse the XML file and build the whole DOM tree. ">
<polygon fill="white" stroke="black" points="278.5,-104 278.5,-138 417.5,-138 417.5,-104 278.5,-104"/>
<text text-anchor="start" x="286.5" y="-125" font-family="Helvetica,sans-Serif" font-size="10.00">SmartXmlFile::parseFileAnd</text>
<text text-anchor="middle" x="348" y="-112" font-family="Helvetica,sans-Serif" font-size="10.00">BuildDomTree</text>
</a>
</g>
<!-- Node2&#45;&gt;Node8 -->
<g id="edge14" class="edge"><title>Node2&#45;&gt;Node8</title>
<path fill="none" stroke="midnightblue" d="M217.418,-169.985C236.109,-162.849 258.099,-154.486 278,-147 282.732,-145.22 287.647,-143.379 292.579,-141.536"/>
<polygon fill="midnightblue" stroke="midnightblue" points="293.895,-144.781 302.042,-138.008 291.449,-138.222 293.895,-144.781"/>
</g>
<!-- Node9 -->
<g id="node17" class="node"><title>Node9</title>
<a xlink:href="../../dd/d8a/classlibrary_1_1_library_base_element.html#ad6c2bb438fe200b1224b2d8e05d3eca0" target="_top" xlink:title="library::LibraryBaseElement\l::parseDomTree">
<polygon fill="white" stroke="black" points="279.5,-52 279.5,-86 416.5,-86 416.5,-52 279.5,-52"/>
<text text-anchor="start" x="287.5" y="-73" font-family="Helvetica,sans-Serif" font-size="10.00">library::LibraryBaseElement</text>
<text text-anchor="middle" x="348" y="-60" font-family="Helvetica,sans-Serif" font-size="10.00">::parseDomTree</text>
</a>
</g>
<!-- Node2&#45;&gt;Node9 -->
<g id="edge16" class="edge"><title>Node2&#45;&gt;Node9</title>
<path fill="none" stroke="midnightblue" d="M188.605,-169.971C207.919,-149.745 242.609,-116.098 278,-95 280.643,-93.4245 283.398,-91.9176 286.22,-90.4802"/>
<polygon fill="midnightblue" stroke="midnightblue" points="287.874,-93.5697 295.414,-86.1269 284.879,-87.243 287.874,-93.5697"/>
</g>
<!-- Node10 -->
<g id="node19" class="node"><title>Node10</title>
<a xlink:href="../../dd/d8a/classlibrary_1_1_library_base_element.html#a524ed0dd8a5522b754411728dfe5c752" target="_top" xlink:title="Check the validity of all attributes of the object. ">
<polygon fill="white" stroke="black" points="279.5,-0 279.5,-34 416.5,-34 416.5,-0 279.5,-0"/>
<text text-anchor="start" x="287.5" y="-21" font-family="Helvetica,sans-Serif" font-size="10.00">library::LibraryBaseElement</text>
<text text-anchor="middle" x="348" y="-8" font-family="Helvetica,sans-Serif" font-size="10.00">::checkAttributesValidity</text>
</a>
</g>
<!-- Node2&#45;&gt;Node10 -->
<g id="edge18" class="edge"><title>Node2&#45;&gt;Node10</title>
<path fill="none" stroke="midnightblue" d="M181.233,-169.827C196.368,-139.969 231.384,-78.3057 278,-43 279.805,-41.6327 281.69,-40.331 283.635,-39.0922"/>
<polygon fill="midnightblue" stroke="midnightblue" points="285.528,-42.0421 292.49,-34.0559 282.068,-35.9574 285.528,-42.0421"/>
</g>
<!-- Node11 -->
<g id="node21" class="node"><title>Node11</title>
<a xlink:href="../../de/d34/class_version.html#a0a886a9edf5bf682f5245159661bfc94" target="_top" xlink:title="Check if the object represents a valid version number. ">
<polygon fill="white" stroke="black" points="454.5,-6.5 454.5,-27.5 539.5,-27.5 539.5,-6.5 454.5,-6.5"/>
<text text-anchor="middle" x="497" y="-14.5" font-family="Helvetica,sans-Serif" font-size="10.00">Version::isValid</text>
</a>
</g>
<!-- Node10&#45;&gt;Node11 -->
<g id="edge20" class="edge"><title>Node10&#45;&gt;Node11</title>
<path fill="none" stroke="midnightblue" d="M416.83,-17C426.037,-17 435.361,-17 444.234,-17"/>
<polygon fill="midnightblue" stroke="midnightblue" points="444.409,-20.5001 454.409,-17 444.409,-13.5001 444.409,-20.5001"/>
</g>
</g>
</svg>
