<?xml version="1.0" encoding="UTF-8" standalone="no"?>
<!DOCTYPE svg PUBLIC "-//W3C//DTD SVG 1.1//EN"
 "http://www.w3.org/Graphics/SVG/1.1/DTD/svg11.dtd">
<!-- Generated by graphviz version 2.26.3 (20100126.1600)
 -->
<!-- Title: /home/travis/build/LibrePCB/LibrePCB/libs/librepcbcommon/gridproperties.h Pages: 1 -->
<svg width="2096pt" height="264pt"
 viewBox="0.00 0.00 2096.00 264.00" xmlns="http://www.w3.org/2000/svg" xmlns:xlink="http://www.w3.org/1999/xlink">
<g id="graph1" class="graph" transform="scale(1 1) rotate(0) translate(4 260)">
<title>/home/travis/build/LibrePCB/LibrePCB/libs/librepcbcommon/gridproperties.h</title>
<polygon fill="white" stroke="white" points="-4,5 -4,-260 2093,-260 2093,5 -4,5"/>
<!-- Node1 -->
<g id="node1" class="node"><title>Node1</title>
<polygon fill="#bfbfbf" stroke="black" points="881.5,-208.5 881.5,-255.5 1042.5,-255.5 1042.5,-208.5 881.5,-208.5"/>
<text text-anchor="start" x="889.5" y="-242.5" font-family="Helvetica,sans-Serif" font-size="10.00">/home/travis/build</text>
<text text-anchor="start" x="889.5" y="-229.5" font-family="Helvetica,sans-Serif" font-size="10.00">/LibrePCB/LibrePCB/libs</text>
<text text-anchor="middle" x="962" y="-216.5" font-family="Helvetica,sans-Serif" font-size="10.00">/librepcbcommon/gridproperties.h</text>
</g>
<!-- Node2 -->
<g id="node3" class="node"><title>Node2</title>
<a xlink:href="../../d4/d37/gridsettingsdialog_8h.html" target="_top" xlink:title="/home/travis/build\l/LibrePCB/LibrePCB/libs\l/librepcbcommon/dialogs\l/gridsettingsdialog.h">
<polygon fill="white" stroke="black" points="153.5,-105 153.5,-165 278.5,-165 278.5,-105 153.5,-105"/>
<text text-anchor="start" x="161.5" y="-152" font-family="Helvetica,sans-Serif" font-size="10.00">/home/travis/build</text>
<text text-anchor="start" x="161.5" y="-139" font-family="Helvetica,sans-Serif" font-size="10.00">/LibrePCB/LibrePCB/libs</text>
<text text-anchor="start" x="161.5" y="-126" font-family="Helvetica,sans-Serif" font-size="10.00">/librepcbcommon/dialogs</text>
<text text-anchor="middle" x="216" y="-113" font-family="Helvetica,sans-Serif" font-size="10.00">/gridsettingsdialog.h</text>
</a>
</g>
<!-- Node1&#45;&gt;Node2 -->
<g id="edge2" class="edge"><title>Node1&#45;&gt;Node2</title>
<path fill="none" stroke="midnightblue" d="M871.352,-227.954C714.395,-220.27 398.59,-201.636 292,-172 285.355,-170.152 278.588,-167.736 271.968,-165.022"/>
<polygon fill="midnightblue" stroke="midnightblue" points="871.299,-231.455 881.457,-228.444 871.638,-224.463 871.299,-231.455"/>
</g>
<!-- Node4 -->
<g id="node7" class="node"><title>Node4</title>
<a xlink:href="../../de/de5/boardeditor_8cpp.html" target="_top" xlink:title="/home/travis/build\l/LibrePCB/LibrePCB/libs\l/librepcbprojecteditor\l/boardeditor/boardeditor.cpp">
<polygon fill="white" stroke="black" points="-0.5,-1 -0.5,-61 136.5,-61 136.5,-1 -0.5,-1"/>
<text text-anchor="start" x="7.5" y="-48" font-family="Helvetica,sans-Serif" font-size="10.00">/home/travis/build</text>
<text text-anchor="start" x="7.5" y="-35" font-family="Helvetica,sans-Serif" font-size="10.00">/LibrePCB/LibrePCB/libs</text>
<text text-anchor="start" x="7.5" y="-22" font-family="Helvetica,sans-Serif" font-size="10.00">/librepcbprojecteditor</text>
<text text-anchor="middle" x="68" y="-9" font-family="Helvetica,sans-Serif" font-size="10.00">/boardeditor/boardeditor.cpp</text>
</a>
</g>
<!-- Node1&#45;&gt;Node4 -->
<g id="edge18" class="edge"><title>Node1&#45;&gt;Node4</title>
<path fill="none" stroke="midnightblue" d="M871.207,-230.189C671.061,-225.505 204.867,-210.553 145,-172 105.839,-146.781 85.0033,-94.4621 75.2492,-61.1321"/>
<polygon fill="midnightblue" stroke="midnightblue" points="871.324,-233.692 881.402,-230.424 871.486,-226.694 871.324,-233.692"/>
</g>
<!-- Node5 -->
<g id="node9" class="node"><title>Node5</title>
<a xlink:href="../../d1/d1e/schematiceditor_8cpp.html" target="_top" xlink:title="/home/travis/build\l/LibrePCB/LibrePCB/libs\l/librepcbprojecteditor\l/schematiceditor/schematiceditor.cpp">
<polygon fill="white" stroke="black" points="295.5,-1 295.5,-61 474.5,-61 474.5,-1 295.5,-1"/>
<text text-anchor="start" x="303.5" y="-48" font-family="Helvetica,sans-Serif" font-size="10.00">/home/travis/build</text>
<text text-anchor="start" x="303.5" y="-35" font-family="Helvetica,sans-Serif" font-size="10.00">/LibrePCB/LibrePCB/libs</text>
<text text-anchor="start" x="303.5" y="-22" font-family="Helvetica,sans-Serif" font-size="10.00">/librepcbprojecteditor</text>
<text text-anchor="middle" x="385" y="-9" font-family="Helvetica,sans-Serif" font-size="10.00">/schematiceditor/schematiceditor.cpp</text>
</a>
</g>
<!-- Node1&#45;&gt;Node5 -->
<g id="edge34" class="edge"><title>Node1&#45;&gt;Node5</title>
<path fill="none" stroke="midnightblue" d="M871.317,-230.075C704.139,-225.583 361.042,-211.596 325,-172 302.861,-147.678 313.255,-128.72 325,-98 330.241,-84.2903 339.723,-71.6152 349.625,-61.0635"/>
<polygon fill="midnightblue" stroke="midnightblue" points="871.25,-233.575 881.339,-230.339 871.434,-226.577 871.25,-233.575"/>
</g>
<!-- Node6 -->
<g id="node11" class="node"><title>Node6</title>
<a xlink:href="../../d9/dc2/graphicsview_8cpp.html" target="_top" xlink:title="/home/travis/build\l/LibrePCB/LibrePCB/libs\l/librepcbcommon/graphics\l/graphicsview.cpp">
<polygon fill="white" stroke="black" points="333.5,-105 333.5,-165 464.5,-165 464.5,-105 333.5,-105"/>
<text text-anchor="start" x="341.5" y="-152" font-family="Helvetica,sans-Serif" font-size="10.00">/home/travis/build</text>
<text text-anchor="start" x="341.5" y="-139" font-family="Helvetica,sans-Serif" font-size="10.00">/LibrePCB/LibrePCB/libs</text>
<text text-anchor="start" x="341.5" y="-126" font-family="Helvetica,sans-Serif" font-size="10.00">/librepcbcommon/graphics</text>
<text text-anchor="middle" x="399" y="-113" font-family="Helvetica,sans-Serif" font-size="10.00">/graphicsview.cpp</text>
</a>
</g>
<!-- Node1&#45;&gt;Node6 -->
<g id="edge10" class="edge"><title>Node1&#45;&gt;Node6</title>
<path fill="none" stroke="midnightblue" d="M870.932,-224.558C750.568,-214.079 545.31,-193.804 473,-172 466.812,-170.134 460.512,-167.781 454.332,-165.169"/>
<polygon fill="midnightblue" stroke="midnightblue" points="870.97,-228.074 881.235,-225.449 871.574,-221.1 870.97,-228.074"/>
</g>
<!-- Node7 -->
<g id="node13" class="node"><title>Node7</title>
<a xlink:href="../../de/daf/gridproperties_8cpp.html" target="_top" xlink:title="/home/travis/build\l/LibrePCB/LibrePCB/libs\l/librepcbcommon/gridproperties.cpp">
<polygon fill="white" stroke="black" points="481.5,-111.5 481.5,-158.5 652.5,-158.5 652.5,-111.5 481.5,-111.5"/>
<text text-anchor="start" x="489.5" y="-145.5" font-family="Helvetica,sans-Serif" font-size="10.00">/home/travis/build</text>
<text text-anchor="start" x="489.5" y="-132.5" font-family="Helvetica,sans-Serif" font-size="10.00">/LibrePCB/LibrePCB/libs</text>
<text text-anchor="middle" x="567" y="-119.5" font-family="Helvetica,sans-Serif" font-size="10.00">/librepcbcommon/gridproperties.cpp</text>
</a>
</g>
<!-- Node1&#45;&gt;Node7 -->
<g id="edge12" class="edge"><title>Node1&#45;&gt;Node7</title>
<path fill="none" stroke="midnightblue" d="M871.332,-218.264C811.052,-208.076 730.492,-192.425 661,-172 648.212,-168.241 634.732,-163.453 622.098,-158.578"/>
<polygon fill="midnightblue" stroke="midnightblue" points="870.765,-221.718 881.205,-219.915 871.919,-214.814 870.765,-221.718"/>
</g>
<!-- Node8 -->
<g id="node15" class="node"><title>Node8</title>
<a xlink:href="../../df/d6e/board_8cpp.html" target="_top" xlink:title="/home/travis/build\l/LibrePCB/LibrePCB/libs\l/librepcbproject/boards\l/board.cpp">
<polygon fill="white" stroke="black" points="669.5,-105 669.5,-165 794.5,-165 794.5,-105 669.5,-105"/>
<text text-anchor="start" x="677.5" y="-152" font-family="Helvetica,sans-Serif" font-size="10.00">/home/travis/build</text>
<text text-anchor="start" x="677.5" y="-139" font-family="Helvetica,sans-Serif" font-size="10.00">/LibrePCB/LibrePCB/libs</text>
<text text-anchor="start" x="677.5" y="-126" font-family="Helvetica,sans-Serif" font-size="10.00">/librepcbproject/boards</text>
<text text-anchor="middle" x="732" y="-113" font-family="Helvetica,sans-Serif" font-size="10.00">/board.cpp</text>
</a>
</g>
<!-- Node1&#45;&gt;Node8 -->
<g id="edge14" class="edge"><title>Node1&#45;&gt;Node8</title>
<path fill="none" stroke="midnightblue" d="M884.48,-204.862C858.326,-195.149 829.146,-183.695 803,-172 798.178,-169.843 793.224,-167.512 788.282,-165.104"/>
<polygon fill="midnightblue" stroke="midnightblue" points="883.374,-208.184 893.968,-208.359 885.795,-201.616 883.374,-208.184"/>
</g>
<!-- Node9 -->
<g id="node17" class="node"><title>Node9</title>
<a xlink:href="../../dc/db2/schematic_8cpp.html" target="_top" xlink:title="/home/travis/build\l/LibrePCB/LibrePCB/libs\l/librepcbproject/schematics\l/schematic.cpp">
<polygon fill="white" stroke="black" points="812,-105 812,-165 948,-165 948,-105 812,-105"/>
<text text-anchor="start" x="820" y="-152" font-family="Helvetica,sans-Serif" font-size="10.00">/home/travis/build</text>
<text text-anchor="start" x="820" y="-139" font-family="Helvetica,sans-Serif" font-size="10.00">/LibrePCB/LibrePCB/libs</text>
<text text-anchor="start" x="820" y="-126" font-family="Helvetica,sans-Serif" font-size="10.00">/librepcbproject/schematics</text>
<text text-anchor="middle" x="880" y="-113" font-family="Helvetica,sans-Serif" font-size="10.00">/schematic.cpp</text>
</a>
</g>
<!-- Node1&#45;&gt;Node9 -->
<g id="edge16" class="edge"><title>Node1&#45;&gt;Node9</title>
<path fill="none" stroke="midnightblue" d="M935.069,-200.143C925.597,-188.938 914.985,-176.385 905.624,-165.311"/>
<polygon fill="midnightblue" stroke="midnightblue" points="932.602,-202.645 941.73,-208.022 937.947,-198.126 932.602,-202.645"/>
</g>
<!-- Node10 -->
<g id="node20" class="node"><title>Node10</title>
<a xlink:href="../../d7/d20/bes__select_8cpp.html" target="_top" xlink:title="/home/travis/build\l/LibrePCB/LibrePCB/libs\l/librepcbprojecteditor\l/boardeditor/fsm/bes_select.cpp">
<polygon fill="white" stroke="black" points="966,-105 966,-165 1122,-165 1122,-105 966,-105"/>
<text text-anchor="start" x="974" y="-152" font-family="Helvetica,sans-Serif" font-size="10.00">/home/travis/build</text>
<text text-anchor="start" x="974" y="-139" font-family="Helvetica,sans-Serif" font-size="10.00">/LibrePCB/LibrePCB/libs</text>
<text text-anchor="start" x="974" y="-126" font-family="Helvetica,sans-Serif" font-size="10.00">/librepcbprojecteditor</text>
<text text-anchor="middle" x="1044" y="-113" font-family="Helvetica,sans-Serif" font-size="10.00">/boardeditor/fsm/bes_select.cpp</text>
</a>
</g>
<!-- Node1&#45;&gt;Node10 -->
<g id="edge20" class="edge"><title>Node1&#45;&gt;Node10</title>
<path fill="none" stroke="midnightblue" d="M988.931,-200.143C998.403,-188.938 1009.01,-176.385 1018.38,-165.311"/>
<polygon fill="midnightblue" stroke="midnightblue" points="986.053,-198.126 982.27,-208.022 991.398,-202.645 986.053,-198.126"/>
</g>
<!-- Node11 -->
<g id="node22" class="node"><title>Node11</title>
<a xlink:href="../../de/dd2/unplacedcomponentsdock_8cpp.html" target="_top" xlink:title="/home/travis/build\l/LibrePCB/LibrePCB/libs\l/librepcbprojecteditor\l/boardeditor/unplacedcomponentsdock.cpp">
<polygon fill="white" stroke="black" points="1139.5,-105 1139.5,-165 1342.5,-165 1342.5,-105 1139.5,-105"/>
<text text-anchor="start" x="1147.5" y="-152" font-family="Helvetica,sans-Serif" font-size="10.00">/home/travis/build</text>
<text text-anchor="start" x="1147.5" y="-139" font-family="Helvetica,sans-Serif" font-size="10.00">/LibrePCB/LibrePCB/libs</text>
<text text-anchor="start" x="1147.5" y="-126" font-family="Helvetica,sans-Serif" font-size="10.00">/librepcbprojecteditor</text>
<text text-anchor="middle" x="1241" y="-113" font-family="Helvetica,sans-Serif" font-size="10.00">/boardeditor/unplacedcomponentsdock.cpp</text>
</a>
</g>
<!-- Node1&#45;&gt;Node11 -->
<g id="edge22" class="edge"><title>Node1&#45;&gt;Node11</title>
<path fill="none" stroke="midnightblue" d="M1039.76,-204.964C1075.42,-192.568 1117.82,-177.827 1154.48,-165.08"/>
<polygon fill="midnightblue" stroke="midnightblue" points="1038.19,-201.805 1029.89,-208.395 1040.49,-208.417 1038.19,-201.805"/>
</g>
<!-- Node12 -->
<g id="node24" class="node"><title>Node12</title>
<a xlink:href="../../da/d64/addgencompdialog_8cpp.html" target="_top" xlink:title="/home/travis/build\l/LibrePCB/LibrePCB/libs\l/librepcbprojecteditor\l/dialogs/addgencompdialog.cpp">
<polygon fill="white" stroke="black" points="1359.5,-105 1359.5,-165 1512.5,-165 1512.5,-105 1359.5,-105"/>
<text text-anchor="start" x="1367.5" y="-152" font-family="Helvetica,sans-Serif" font-size="10.00">/home/travis/build</text>
<text text-anchor="start" x="1367.5" y="-139" font-family="Helvetica,sans-Serif" font-size="10.00">/LibrePCB/LibrePCB/libs</text>
<text text-anchor="start" x="1367.5" y="-126" font-family="Helvetica,sans-Serif" font-size="10.00">/librepcbprojecteditor</text>
<text text-anchor="middle" x="1436" y="-113" font-family="Helvetica,sans-Serif" font-size="10.00">/dialogs/addgencompdialog.cpp</text>
</a>
</g>
<!-- Node1&#45;&gt;Node12 -->
<g id="edge24" class="edge"><title>Node1&#45;&gt;Node12</title>
<path fill="none" stroke="midnightblue" d="M1052.66,-224.677C1132.43,-216.67 1251.07,-200.929 1351,-172 1357.8,-170.031 1364.78,-167.645 1371.66,-165.045"/>
<polygon fill="midnightblue" stroke="midnightblue" points="1052.26,-221.2 1042.65,-225.662 1052.94,-228.166 1052.26,-221.2"/>
</g>
<!-- Node13 -->
<g id="node26" class="node"><title>Node13</title>
<a xlink:href="../../d8/df2/ses__addcomponents_8cpp.html" target="_top" xlink:title="/home/travis/build\l/LibrePCB/LibrePCB/libs\l/librepcbprojecteditor\l/schematiceditor/fsm/ses\l_addcomponents.cpp">
<polygon fill="white" stroke="black" points="1529.5,-98.5 1529.5,-171.5 1656.5,-171.5 1656.5,-98.5 1529.5,-98.5"/>
<text text-anchor="start" x="1537.5" y="-158.5" font-family="Helvetica,sans-Serif" font-size="10.00">/home/travis/build</text>
<text text-anchor="start" x="1537.5" y="-145.5" font-family="Helvetica,sans-Serif" font-size="10.00">/LibrePCB/LibrePCB/libs</text>
<text text-anchor="start" x="1537.5" y="-132.5" font-family="Helvetica,sans-Serif" font-size="10.00">/librepcbprojecteditor</text>
<text text-anchor="start" x="1537.5" y="-119.5" font-family="Helvetica,sans-Serif" font-size="10.00">/schematiceditor/fsm/ses</text>
<text text-anchor="middle" x="1593" y="-106.5" font-family="Helvetica,sans-Serif" font-size="10.00">_addcomponents.cpp</text>
</a>
</g>
<!-- Node1&#45;&gt;Node13 -->
<g id="edge26" class="edge"><title>Node1&#45;&gt;Node13</title>
<path fill="none" stroke="midnightblue" d="M1052.96,-226.299C1188.26,-217.13 1435.73,-197.52 1521,-172 1523.69,-171.194 1526.4,-170.288 1529.12,-169.303"/>
<polygon fill="midnightblue" stroke="midnightblue" points="1052.36,-222.831 1042.62,-226.994 1052.83,-229.815 1052.36,-222.831"/>
</g>
<!-- Node14 -->
<g id="node28" class="node"><title>Node14</title>
<a xlink:href="../../d3/dbd/ses__addnetlabel_8cpp.html" target="_top" xlink:title="/home/travis/build\l/LibrePCB/LibrePCB/libs\l/librepcbprojecteditor\l/schematiceditor/fsm/ses\l_addnetlabel.cpp">
<polygon fill="white" stroke="black" points="1673.5,-98.5 1673.5,-171.5 1800.5,-171.5 1800.5,-98.5 1673.5,-98.5"/>
<text text-anchor="start" x="1681.5" y="-158.5" font-family="Helvetica,sans-Serif" font-size="10.00">/home/travis/build</text>
<text text-anchor="start" x="1681.5" y="-145.5" font-family="Helvetica,sans-Serif" font-size="10.00">/LibrePCB/LibrePCB/libs</text>
<text text-anchor="start" x="1681.5" y="-132.5" font-family="Helvetica,sans-Serif" font-size="10.00">/librepcbprojecteditor</text>
<text text-anchor="start" x="1681.5" y="-119.5" font-family="Helvetica,sans-Serif" font-size="10.00">/schematiceditor/fsm/ses</text>
<text text-anchor="middle" x="1737" y="-106.5" font-family="Helvetica,sans-Serif" font-size="10.00">_addnetlabel.cpp</text>
</a>
</g>
<!-- Node1&#45;&gt;Node14 -->
<g id="edge28" class="edge"><title>Node1&#45;&gt;Node14</title>
<path fill="none" stroke="midnightblue" d="M1052.58,-228.637C1215.71,-221.856 1552.43,-204.361 1665,-172 1667.7,-171.223 1670.42,-170.342 1673.14,-169.378"/>
<polygon fill="midnightblue" stroke="midnightblue" points="1052.41,-225.141 1042.56,-229.049 1052.7,-232.135 1052.41,-225.141"/>
</g>
<!-- Node15 -->
<g id="node30" class="node"><title>Node15</title>
<a xlink:href="../../df/d6c/ses__drawwire_8cpp.html" target="_top" xlink:title="/home/travis/build\l/LibrePCB/LibrePCB/libs\l/librepcbprojecteditor\l/schematiceditor/fsm/ses\l_drawwire.cpp">
<polygon fill="white" stroke="black" points="1817.5,-98.5 1817.5,-171.5 1944.5,-171.5 1944.5,-98.5 1817.5,-98.5"/>
<text text-anchor="start" x="1825.5" y="-158.5" font-family="Helvetica,sans-Serif" font-size="10.00">/home/travis/build</text>
<text text-anchor="start" x="1825.5" y="-145.5" font-family="Helvetica,sans-Serif" font-size="10.00">/LibrePCB/LibrePCB/libs</text>
<text text-anchor="start" x="1825.5" y="-132.5" font-family="Helvetica,sans-Serif" font-size="10.00">/librepcbprojecteditor</text>
<text text-anchor="start" x="1825.5" y="-119.5" font-family="Helvetica,sans-Serif" font-size="10.00">/schematiceditor/fsm/ses</text>
<text text-anchor="middle" x="1881" y="-106.5" font-family="Helvetica,sans-Serif" font-size="10.00">_drawwire.cpp</text>
</a>
</g>
<!-- Node1&#45;&gt;Node15 -->
<g id="edge30" class="edge"><title>Node1&#45;&gt;Node15</title>
<path fill="none" stroke="midnightblue" d="M1052.89,-230.166C1241.37,-225.612 1668.9,-211.183 1809,-172 1811.71,-171.243 1814.43,-170.378 1817.15,-169.428"/>
<polygon fill="midnightblue" stroke="midnightblue" points="1052.64,-226.671 1042.73,-230.407 1052.81,-233.669 1052.64,-226.671"/>
</g>
<!-- Node16 -->
<g id="node32" class="node"><title>Node16</title>
<a xlink:href="../../d5/d03/ses__select_8cpp.html" target="_top" xlink:title="/home/travis/build\l/LibrePCB/LibrePCB/libs\l/librepcbprojecteditor\l/schematiceditor/fsm/ses\l_select.cpp">
<polygon fill="white" stroke="black" points="1961.5,-98.5 1961.5,-171.5 2088.5,-171.5 2088.5,-98.5 1961.5,-98.5"/>
<text text-anchor="start" x="1969.5" y="-158.5" font-family="Helvetica,sans-Serif" font-size="10.00">/home/travis/build</text>
<text text-anchor="start" x="1969.5" y="-145.5" font-family="Helvetica,sans-Serif" font-size="10.00">/LibrePCB/LibrePCB/libs</text>
<text text-anchor="start" x="1969.5" y="-132.5" font-family="Helvetica,sans-Serif" font-size="10.00">/librepcbprojecteditor</text>
<text text-anchor="start" x="1969.5" y="-119.5" font-family="Helvetica,sans-Serif" font-size="10.00">/schematiceditor/fsm/ses</text>
<text text-anchor="middle" x="2025" y="-106.5" font-family="Helvetica,sans-Serif" font-size="10.00">_select.cpp</text>
</a>
</g>
<!-- Node1&#45;&gt;Node16 -->
<g id="edge32" class="edge"><title>Node1&#45;&gt;Node16</title>
<path fill="none" stroke="midnightblue" d="M1052.68,-231.268C1264.18,-228.796 1784.95,-218.072 1953,-172 1955.71,-171.257 1958.44,-170.404 1961.16,-169.463"/>
<polygon fill="midnightblue" stroke="midnightblue" points="1052.5,-227.77 1042.54,-231.383 1052.58,-234.77 1052.5,-227.77"/>
</g>
<!-- Node3 -->
<g id="node5" class="node"><title>Node3</title>
<a xlink:href="../../dc/d62/gridsettingsdialog_8cpp.html" target="_top" xlink:title="/home/travis/build\l/LibrePCB/LibrePCB/libs\l/librepcbcommon/dialogs\l/gridsettingsdialog.cpp">
<polygon fill="white" stroke="black" points="153.5,-1 153.5,-61 278.5,-61 278.5,-1 153.5,-1"/>
<text text-anchor="start" x="161.5" y="-48" font-family="Helvetica,sans-Serif" font-size="10.00">/home/travis/build</text>
<text text-anchor="start" x="161.5" y="-35" font-family="Helvetica,sans-Serif" font-size="10.00">/LibrePCB/LibrePCB/libs</text>
<text text-anchor="start" x="161.5" y="-22" font-family="Helvetica,sans-Serif" font-size="10.00">/librepcbcommon/dialogs</text>
<text text-anchor="middle" x="216" y="-9" font-family="Helvetica,sans-Serif" font-size="10.00">/gridsettingsdialog.cpp</text>
</a>
</g>
<!-- Node2&#45;&gt;Node3 -->
<g id="edge4" class="edge"><title>Node2&#45;&gt;Node3</title>
<path fill="none" stroke="midnightblue" d="M216,-94.867C216,-83.6109 216,-71.5711 216,-61.0135"/>
<polygon fill="midnightblue" stroke="midnightblue" points="212.5,-94.9189 216,-104.919 219.5,-94.9189 212.5,-94.9189"/>
</g>
<!-- Node2&#45;&gt;Node4 -->
<g id="edge6" class="edge"><title>Node2&#45;&gt;Node4</title>
<path fill="none" stroke="midnightblue" d="M164.716,-98.9625C147.097,-86.5816 127.576,-72.8639 110.712,-61.0135"/>
<polygon fill="midnightblue" stroke="midnightblue" points="162.998,-102.033 173.192,-104.919 167.023,-96.3057 162.998,-102.033"/>
</g>
<!-- Node2&#45;&gt;Node5 -->
<g id="edge8" class="edge"><title>Node2&#45;&gt;Node5</title>
<path fill="none" stroke="midnightblue" d="M273.466,-99.6364C293.868,-87.0811 316.621,-73.0794 336.228,-61.0135"/>
<polygon fill="midnightblue" stroke="midnightblue" points="271.564,-96.6971 264.882,-104.919 275.233,-102.659 271.564,-96.6971"/>
</g>
</g>
</svg>
