<?xml version="1.0" encoding="UTF-8" standalone="no"?>
<!DOCTYPE svg PUBLIC "-//W3C//DTD SVG 1.1//EN"
 "http://www.w3.org/Graphics/SVG/1.1/DTD/svg11.dtd">
<!-- Generated by graphviz version 2.26.3 (20100126.1600)
 -->
<!-- Title: /home/travis/build/LibrePCB/LibrePCB/libs/librepcbcommon/gridproperties.h Pages: 1 -->
<svg width="2235pt" height="264pt"
 viewBox="0.00 0.00 2235.00 264.00" xmlns="http://www.w3.org/2000/svg" xmlns:xlink="http://www.w3.org/1999/xlink">
<g id="graph1" class="graph" transform="scale(1 1) rotate(0) translate(4 260)">
<title>/home/travis/build/LibrePCB/LibrePCB/libs/librepcbcommon/gridproperties.h</title>
<polygon fill="white" stroke="white" points="-4,5 -4,-260 2232,-260 2232,5 -4,5"/>
<!-- Node1 -->
<g id="node1" class="node"><title>Node1</title>
<polygon fill="#bfbfbf" stroke="black" points="1020.5,-208.5 1020.5,-255.5 1181.5,-255.5 1181.5,-208.5 1020.5,-208.5"/>
<text text-anchor="start" x="1028.5" y="-242.5" font-family="Helvetica,sans-Serif" font-size="10.00">/home/travis/build</text>
<text text-anchor="start" x="1028.5" y="-229.5" font-family="Helvetica,sans-Serif" font-size="10.00">/LibrePCB/LibrePCB/libs</text>
<text text-anchor="middle" x="1101" y="-216.5" font-family="Helvetica,sans-Serif" font-size="10.00">/librepcbcommon/gridproperties.h</text>
</g>
<!-- Node2 -->
<g id="node3" class="node"><title>Node2</title>
<a xlink:href="../../d4/d37/gridsettingsdialog_8h.html" target="_top" xlink:title="/home/travis/build\l/LibrePCB/LibrePCB/libs\l/librepcbcommon/dialogs\l/gridsettingsdialog.h">
<polygon fill="white" stroke="black" points="254.5,-105 254.5,-165 379.5,-165 379.5,-105 254.5,-105"/>
<text text-anchor="start" x="262.5" y="-152" font-family="Helvetica,sans-Serif" font-size="10.00">/home/travis/build</text>
<text text-anchor="start" x="262.5" y="-139" font-family="Helvetica,sans-Serif" font-size="10.00">/LibrePCB/LibrePCB/libs</text>
<text text-anchor="start" x="262.5" y="-126" font-family="Helvetica,sans-Serif" font-size="10.00">/librepcbcommon/dialogs</text>
<text text-anchor="middle" x="317" y="-113" font-family="Helvetica,sans-Serif" font-size="10.00">/gridsettingsdialog.h</text>
</a>
</g>
<!-- Node1&#45;&gt;Node2 -->
<g id="edge2" class="edge"><title>Node1&#45;&gt;Node2</title>
<path fill="none" stroke="midnightblue" d="M1010.16,-228.452C846.093,-221.357 506.795,-203.347 393,-172 386.35,-170.168 379.581,-167.762 372.959,-165.054"/>
<polygon fill="midnightblue" stroke="midnightblue" points="1010.09,-231.952 1020.23,-228.883 1010.39,-224.959 1010.09,-231.952"/>
</g>
<!-- Node5 -->
<g id="node9" class="node"><title>Node5</title>
<a xlink:href="../../de/de5/boardeditor_8cpp.html" target="_top" xlink:title="/home/travis/build\l/LibrePCB/LibrePCB/libs\l/librepcbprojecteditor\l/boardeditor/boardeditor.cpp">
<polygon fill="white" stroke="black" points="293.5,-1 293.5,-61 430.5,-61 430.5,-1 293.5,-1"/>
<text text-anchor="start" x="301.5" y="-48" font-family="Helvetica,sans-Serif" font-size="10.00">/home/travis/build</text>
<text text-anchor="start" x="301.5" y="-35" font-family="Helvetica,sans-Serif" font-size="10.00">/LibrePCB/LibrePCB/libs</text>
<text text-anchor="start" x="301.5" y="-22" font-family="Helvetica,sans-Serif" font-size="10.00">/librepcbprojecteditor</text>
<text text-anchor="middle" x="362" y="-9" font-family="Helvetica,sans-Serif" font-size="10.00">/boardeditor/boardeditor.cpp</text>
</a>
</g>
<!-- Node1&#45;&gt;Node5 -->
<g id="edge20" class="edge"><title>Node1&#45;&gt;Node5</title>
<path fill="none" stroke="midnightblue" d="M1010.14,-228.232C841.429,-220.574 492.624,-201.389 446,-172 425.029,-158.781 393.759,-98.3931 375.879,-61.0634"/>
<polygon fill="midnightblue" stroke="midnightblue" points="1010.1,-231.734 1020.24,-228.687 1010.41,-224.741 1010.1,-231.734"/>
</g>
<!-- Node6 -->
<g id="node11" class="node"><title>Node6</title>
<a xlink:href="../../d1/d1e/schematiceditor_8cpp.html" target="_top" xlink:title="/home/travis/build\l/LibrePCB/LibrePCB/libs\l/librepcbprojecteditor\l/schematiceditor/schematiceditor.cpp">
<polygon fill="white" stroke="black" points="447.5,-1 447.5,-61 626.5,-61 626.5,-1 447.5,-1"/>
<text text-anchor="start" x="455.5" y="-48" font-family="Helvetica,sans-Serif" font-size="10.00">/home/travis/build</text>
<text text-anchor="start" x="455.5" y="-35" font-family="Helvetica,sans-Serif" font-size="10.00">/LibrePCB/LibrePCB/libs</text>
<text text-anchor="start" x="455.5" y="-22" font-family="Helvetica,sans-Serif" font-size="10.00">/librepcbprojecteditor</text>
<text text-anchor="middle" x="537" y="-9" font-family="Helvetica,sans-Serif" font-size="10.00">/schematiceditor/schematiceditor.cpp</text>
</a>
</g>
<!-- Node1&#45;&gt;Node6 -->
<g id="edge36" class="edge"><title>Node1&#45;&gt;Node6</title>
<path fill="none" stroke="midnightblue" d="M1010.32,-230.075C843.139,-225.583 500.042,-211.596 464,-172 441.861,-147.678 450.766,-128.109 464,-98 470.23,-83.8265 481.102,-71.3378 492.582,-61.1011"/>
<polygon fill="midnightblue" stroke="midnightblue" points="1010.25,-233.575 1020.34,-230.339 1010.43,-226.577 1010.25,-233.575"/>
</g>
<!-- Node7 -->
<g id="node13" class="node"><title>Node7</title>
<a xlink:href="../../d9/dc2/graphicsview_8cpp.html" target="_top" xlink:title="/home/travis/build\l/LibrePCB/LibrePCB/libs\l/librepcbcommon/graphics\l/graphicsview.cpp">
<polygon fill="white" stroke="black" points="472.5,-105 472.5,-165 603.5,-165 603.5,-105 472.5,-105"/>
<text text-anchor="start" x="480.5" y="-152" font-family="Helvetica,sans-Serif" font-size="10.00">/home/travis/build</text>
<text text-anchor="start" x="480.5" y="-139" font-family="Helvetica,sans-Serif" font-size="10.00">/LibrePCB/LibrePCB/libs</text>
<text text-anchor="start" x="480.5" y="-126" font-family="Helvetica,sans-Serif" font-size="10.00">/librepcbcommon/graphics</text>
<text text-anchor="middle" x="538" y="-113" font-family="Helvetica,sans-Serif" font-size="10.00">/graphicsview.cpp</text>
</a>
</g>
<!-- Node1&#45;&gt;Node7 -->
<g id="edge12" class="edge"><title>Node1&#45;&gt;Node7</title>
<path fill="none" stroke="midnightblue" d="M1009.93,-224.558C889.568,-214.079 684.31,-193.804 612,-172 605.812,-170.134 599.512,-167.781 593.332,-165.169"/>
<polygon fill="midnightblue" stroke="midnightblue" points="1009.97,-228.074 1020.23,-225.449 1010.57,-221.1 1009.97,-228.074"/>
</g>
<!-- Node8 -->
<g id="node15" class="node"><title>Node8</title>
<a xlink:href="../../de/daf/gridproperties_8cpp.html" target="_top" xlink:title="/home/travis/build\l/LibrePCB/LibrePCB/libs\l/librepcbcommon/gridproperties.cpp">
<polygon fill="white" stroke="black" points="620.5,-111.5 620.5,-158.5 791.5,-158.5 791.5,-111.5 620.5,-111.5"/>
<text text-anchor="start" x="628.5" y="-145.5" font-family="Helvetica,sans-Serif" font-size="10.00">/home/travis/build</text>
<text text-anchor="start" x="628.5" y="-132.5" font-family="Helvetica,sans-Serif" font-size="10.00">/LibrePCB/LibrePCB/libs</text>
<text text-anchor="middle" x="706" y="-119.5" font-family="Helvetica,sans-Serif" font-size="10.00">/librepcbcommon/gridproperties.cpp</text>
</a>
</g>
<!-- Node1&#45;&gt;Node8 -->
<g id="edge14" class="edge"><title>Node1&#45;&gt;Node8</title>
<path fill="none" stroke="midnightblue" d="M1010.33,-218.264C950.052,-208.076 869.492,-192.425 800,-172 787.212,-168.241 773.732,-163.453 761.098,-158.578"/>
<polygon fill="midnightblue" stroke="midnightblue" points="1009.77,-221.718 1020.21,-219.915 1010.92,-214.814 1009.77,-221.718"/>
</g>
<!-- Node9 -->
<g id="node17" class="node"><title>Node9</title>
<a xlink:href="../../df/d6e/board_8cpp.html" target="_top" xlink:title="/home/travis/build\l/LibrePCB/LibrePCB/libs\l/librepcbproject/boards\l/board.cpp">
<polygon fill="white" stroke="black" points="808.5,-105 808.5,-165 933.5,-165 933.5,-105 808.5,-105"/>
<text text-anchor="start" x="816.5" y="-152" font-family="Helvetica,sans-Serif" font-size="10.00">/home/travis/build</text>
<text text-anchor="start" x="816.5" y="-139" font-family="Helvetica,sans-Serif" font-size="10.00">/LibrePCB/LibrePCB/libs</text>
<text text-anchor="start" x="816.5" y="-126" font-family="Helvetica,sans-Serif" font-size="10.00">/librepcbproject/boards</text>
<text text-anchor="middle" x="871" y="-113" font-family="Helvetica,sans-Serif" font-size="10.00">/board.cpp</text>
</a>
</g>
<!-- Node1&#45;&gt;Node9 -->
<g id="edge16" class="edge"><title>Node1&#45;&gt;Node9</title>
<path fill="none" stroke="midnightblue" d="M1023.48,-204.862C997.326,-195.149 968.146,-183.695 942,-172 937.178,-169.843 932.224,-167.512 927.282,-165.104"/>
<polygon fill="midnightblue" stroke="midnightblue" points="1022.37,-208.184 1032.97,-208.359 1024.8,-201.616 1022.37,-208.184"/>
</g>
<!-- Node10 -->
<g id="node19" class="node"><title>Node10</title>
<a xlink:href="../../dc/db2/schematic_8cpp.html" target="_top" xlink:title="/home/travis/build\l/LibrePCB/LibrePCB/libs\l/librepcbproject/schematics\l/schematic.cpp">
<polygon fill="white" stroke="black" points="951,-105 951,-165 1087,-165 1087,-105 951,-105"/>
<text text-anchor="start" x="959" y="-152" font-family="Helvetica,sans-Serif" font-size="10.00">/home/travis/build</text>
<text text-anchor="start" x="959" y="-139" font-family="Helvetica,sans-Serif" font-size="10.00">/LibrePCB/LibrePCB/libs</text>
<text text-anchor="start" x="959" y="-126" font-family="Helvetica,sans-Serif" font-size="10.00">/librepcbproject/schematics</text>
<text text-anchor="middle" x="1019" y="-113" font-family="Helvetica,sans-Serif" font-size="10.00">/schematic.cpp</text>
</a>
</g>
<!-- Node1&#45;&gt;Node10 -->
<g id="edge18" class="edge"><title>Node1&#45;&gt;Node10</title>
<path fill="none" stroke="midnightblue" d="M1074.07,-200.143C1064.6,-188.938 1053.99,-176.385 1044.62,-165.311"/>
<polygon fill="midnightblue" stroke="midnightblue" points="1071.6,-202.645 1080.73,-208.022 1076.95,-198.126 1071.6,-202.645"/>
</g>
<!-- Node11 -->
<g id="node22" class="node"><title>Node11</title>
<a xlink:href="../../d7/d20/bes__select_8cpp.html" target="_top" xlink:title="/home/travis/build\l/LibrePCB/LibrePCB/libs\l/librepcbprojecteditor\l/boardeditor/fsm/bes_select.cpp">
<polygon fill="white" stroke="black" points="1105,-105 1105,-165 1261,-165 1261,-105 1105,-105"/>
<text text-anchor="start" x="1113" y="-152" font-family="Helvetica,sans-Serif" font-size="10.00">/home/travis/build</text>
<text text-anchor="start" x="1113" y="-139" font-family="Helvetica,sans-Serif" font-size="10.00">/LibrePCB/LibrePCB/libs</text>
<text text-anchor="start" x="1113" y="-126" font-family="Helvetica,sans-Serif" font-size="10.00">/librepcbprojecteditor</text>
<text text-anchor="middle" x="1183" y="-113" font-family="Helvetica,sans-Serif" font-size="10.00">/boardeditor/fsm/bes_select.cpp</text>
</a>
</g>
<!-- Node1&#45;&gt;Node11 -->
<g id="edge22" class="edge"><title>Node1&#45;&gt;Node11</title>
<path fill="none" stroke="midnightblue" d="M1127.93,-200.143C1137.4,-188.938 1148.01,-176.385 1157.38,-165.311"/>
<polygon fill="midnightblue" stroke="midnightblue" points="1125.05,-198.126 1121.27,-208.022 1130.4,-202.645 1125.05,-198.126"/>
</g>
<!-- Node12 -->
<g id="node24" class="node"><title>Node12</title>
<a xlink:href="../../de/dd2/unplacedcomponentsdock_8cpp.html" target="_top" xlink:title="/home/travis/build\l/LibrePCB/LibrePCB/libs\l/librepcbprojecteditor\l/boardeditor/unplacedcomponentsdock.cpp">
<polygon fill="white" stroke="black" points="1278.5,-105 1278.5,-165 1481.5,-165 1481.5,-105 1278.5,-105"/>
<text text-anchor="start" x="1286.5" y="-152" font-family="Helvetica,sans-Serif" font-size="10.00">/home/travis/build</text>
<text text-anchor="start" x="1286.5" y="-139" font-family="Helvetica,sans-Serif" font-size="10.00">/LibrePCB/LibrePCB/libs</text>
<text text-anchor="start" x="1286.5" y="-126" font-family="Helvetica,sans-Serif" font-size="10.00">/librepcbprojecteditor</text>
<text text-anchor="middle" x="1380" y="-113" font-family="Helvetica,sans-Serif" font-size="10.00">/boardeditor/unplacedcomponentsdock.cpp</text>
</a>
</g>
<!-- Node1&#45;&gt;Node12 -->
<g id="edge24" class="edge"><title>Node1&#45;&gt;Node12</title>
<path fill="none" stroke="midnightblue" d="M1178.76,-204.964C1214.42,-192.568 1256.82,-177.827 1293.48,-165.08"/>
<polygon fill="midnightblue" stroke="midnightblue" points="1177.19,-201.805 1168.89,-208.395 1179.49,-208.417 1177.19,-201.805"/>
</g>
<!-- Node13 -->
<g id="node26" class="node"><title>Node13</title>
<a xlink:href="../../da/d64/addgencompdialog_8cpp.html" target="_top" xlink:title="/home/travis/build\l/LibrePCB/LibrePCB/libs\l/librepcbprojecteditor\l/dialogs/addgencompdialog.cpp">
<polygon fill="white" stroke="black" points="1498.5,-105 1498.5,-165 1651.5,-165 1651.5,-105 1498.5,-105"/>
<text text-anchor="start" x="1506.5" y="-152" font-family="Helvetica,sans-Serif" font-size="10.00">/home/travis/build</text>
<text text-anchor="start" x="1506.5" y="-139" font-family="Helvetica,sans-Serif" font-size="10.00">/LibrePCB/LibrePCB/libs</text>
<text text-anchor="start" x="1506.5" y="-126" font-family="Helvetica,sans-Serif" font-size="10.00">/librepcbprojecteditor</text>
<text text-anchor="middle" x="1575" y="-113" font-family="Helvetica,sans-Serif" font-size="10.00">/dialogs/addgencompdialog.cpp</text>
</a>
</g>
<!-- Node1&#45;&gt;Node13 -->
<g id="edge26" class="edge"><title>Node1&#45;&gt;Node13</title>
<path fill="none" stroke="midnightblue" d="M1191.66,-224.677C1271.43,-216.67 1390.07,-200.929 1490,-172 1496.8,-170.031 1503.78,-167.645 1510.66,-165.045"/>
<polygon fill="midnightblue" stroke="midnightblue" points="1191.26,-221.2 1181.65,-225.662 1191.94,-228.166 1191.26,-221.2"/>
</g>
<!-- Node14 -->
<g id="node28" class="node"><title>Node14</title>
<a xlink:href="../../d8/df2/ses__addcomponents_8cpp.html" target="_top" xlink:title="/home/travis/build\l/LibrePCB/LibrePCB/libs\l/librepcbprojecteditor\l/schematiceditor/fsm/ses\l_addcomponents.cpp">
<polygon fill="white" stroke="black" points="1668.5,-98.5 1668.5,-171.5 1795.5,-171.5 1795.5,-98.5 1668.5,-98.5"/>
<text text-anchor="start" x="1676.5" y="-158.5" font-family="Helvetica,sans-Serif" font-size="10.00">/home/travis/build</text>
<text text-anchor="start" x="1676.5" y="-145.5" font-family="Helvetica,sans-Serif" font-size="10.00">/LibrePCB/LibrePCB/libs</text>
<text text-anchor="start" x="1676.5" y="-132.5" font-family="Helvetica,sans-Serif" font-size="10.00">/librepcbprojecteditor</text>
<text text-anchor="start" x="1676.5" y="-119.5" font-family="Helvetica,sans-Serif" font-size="10.00">/schematiceditor/fsm/ses</text>
<text text-anchor="middle" x="1732" y="-106.5" font-family="Helvetica,sans-Serif" font-size="10.00">_addcomponents.cpp</text>
</a>
</g>
<!-- Node1&#45;&gt;Node14 -->
<g id="edge28" class="edge"><title>Node1&#45;&gt;Node14</title>
<path fill="none" stroke="midnightblue" d="M1191.96,-226.299C1327.26,-217.13 1574.73,-197.52 1660,-172 1662.69,-171.194 1665.4,-170.288 1668.12,-169.303"/>
<polygon fill="midnightblue" stroke="midnightblue" points="1191.36,-222.831 1181.62,-226.994 1191.83,-229.815 1191.36,-222.831"/>
</g>
<!-- Node15 -->
<g id="node30" class="node"><title>Node15</title>
<a xlink:href="../../d3/dbd/ses__addnetlabel_8cpp.html" target="_top" xlink:title="/home/travis/build\l/LibrePCB/LibrePCB/libs\l/librepcbprojecteditor\l/schematiceditor/fsm/ses\l_addnetlabel.cpp">
<polygon fill="white" stroke="black" points="1812.5,-98.5 1812.5,-171.5 1939.5,-171.5 1939.5,-98.5 1812.5,-98.5"/>
<text text-anchor="start" x="1820.5" y="-158.5" font-family="Helvetica,sans-Serif" font-size="10.00">/home/travis/build</text>
<text text-anchor="start" x="1820.5" y="-145.5" font-family="Helvetica,sans-Serif" font-size="10.00">/LibrePCB/LibrePCB/libs</text>
<text text-anchor="start" x="1820.5" y="-132.5" font-family="Helvetica,sans-Serif" font-size="10.00">/librepcbprojecteditor</text>
<text text-anchor="start" x="1820.5" y="-119.5" font-family="Helvetica,sans-Serif" font-size="10.00">/schematiceditor/fsm/ses</text>
<text text-anchor="middle" x="1876" y="-106.5" font-family="Helvetica,sans-Serif" font-size="10.00">_addnetlabel.cpp</text>
</a>
</g>
<!-- Node1&#45;&gt;Node15 -->
<g id="edge30" class="edge"><title>Node1&#45;&gt;Node15</title>
<path fill="none" stroke="midnightblue" d="M1191.58,-228.637C1354.71,-221.856 1691.43,-204.361 1804,-172 1806.7,-171.223 1809.42,-170.342 1812.14,-169.378"/>
<polygon fill="midnightblue" stroke="midnightblue" points="1191.41,-225.141 1181.56,-229.049 1191.7,-232.135 1191.41,-225.141"/>
</g>
<!-- Node16 -->
<g id="node32" class="node"><title>Node16</title>
<a xlink:href="../../df/d6c/ses__drawwire_8cpp.html" target="_top" xlink:title="/home/travis/build\l/LibrePCB/LibrePCB/libs\l/librepcbprojecteditor\l/schematiceditor/fsm/ses\l_drawwire.cpp">
<polygon fill="white" stroke="black" points="1956.5,-98.5 1956.5,-171.5 2083.5,-171.5 2083.5,-98.5 1956.5,-98.5"/>
<text text-anchor="start" x="1964.5" y="-158.5" font-family="Helvetica,sans-Serif" font-size="10.00">/home/travis/build</text>
<text text-anchor="start" x="1964.5" y="-145.5" font-family="Helvetica,sans-Serif" font-size="10.00">/LibrePCB/LibrePCB/libs</text>
<text text-anchor="start" x="1964.5" y="-132.5" font-family="Helvetica,sans-Serif" font-size="10.00">/librepcbprojecteditor</text>
<text text-anchor="start" x="1964.5" y="-119.5" font-family="Helvetica,sans-Serif" font-size="10.00">/schematiceditor/fsm/ses</text>
<text text-anchor="middle" x="2020" y="-106.5" font-family="Helvetica,sans-Serif" font-size="10.00">_drawwire.cpp</text>
</a>
</g>
<!-- Node1&#45;&gt;Node16 -->
<g id="edge32" class="edge"><title>Node1&#45;&gt;Node16</title>
<path fill="none" stroke="midnightblue" d="M1191.89,-230.166C1380.37,-225.612 1807.9,-211.183 1948,-172 1950.71,-171.243 1953.43,-170.378 1956.15,-169.428"/>
<polygon fill="midnightblue" stroke="midnightblue" points="1191.64,-226.671 1181.73,-230.407 1191.81,-233.669 1191.64,-226.671"/>
</g>
<!-- Node17 -->
<g id="node34" class="node"><title>Node17</title>
<a xlink:href="../../d5/d03/ses__select_8cpp.html" target="_top" xlink:title="/home/travis/build\l/LibrePCB/LibrePCB/libs\l/librepcbprojecteditor\l/schematiceditor/fsm/ses\l_select.cpp">
<polygon fill="white" stroke="black" points="2100.5,-98.5 2100.5,-171.5 2227.5,-171.5 2227.5,-98.5 2100.5,-98.5"/>
<text text-anchor="start" x="2108.5" y="-158.5" font-family="Helvetica,sans-Serif" font-size="10.00">/home/travis/build</text>
<text text-anchor="start" x="2108.5" y="-145.5" font-family="Helvetica,sans-Serif" font-size="10.00">/LibrePCB/LibrePCB/libs</text>
<text text-anchor="start" x="2108.5" y="-132.5" font-family="Helvetica,sans-Serif" font-size="10.00">/librepcbprojecteditor</text>
<text text-anchor="start" x="2108.5" y="-119.5" font-family="Helvetica,sans-Serif" font-size="10.00">/schematiceditor/fsm/ses</text>
<text text-anchor="middle" x="2164" y="-106.5" font-family="Helvetica,sans-Serif" font-size="10.00">_select.cpp</text>
</a>
</g>
<!-- Node1&#45;&gt;Node17 -->
<g id="edge34" class="edge"><title>Node1&#45;&gt;Node17</title>
<path fill="none" stroke="midnightblue" d="M1191.68,-231.268C1403.18,-228.796 1923.95,-218.072 2092,-172 2094.71,-171.257 2097.44,-170.404 2100.16,-169.463"/>
<polygon fill="midnightblue" stroke="midnightblue" points="1191.5,-227.77 1181.54,-231.383 1191.58,-234.77 1191.5,-227.77"/>
</g>
<!-- Node3 -->
<g id="node5" class="node"><title>Node3</title>
<a xlink:href="../../dc/d62/gridsettingsdialog_8cpp.html" target="_top" xlink:title="/home/travis/build\l/LibrePCB/LibrePCB/libs\l/librepcbcommon/dialogs\l/gridsettingsdialog.cpp">
<polygon fill="white" stroke="black" points="-0.5,-1 -0.5,-61 124.5,-61 124.5,-1 -0.5,-1"/>
<text text-anchor="start" x="7.5" y="-48" font-family="Helvetica,sans-Serif" font-size="10.00">/home/travis/build</text>
<text text-anchor="start" x="7.5" y="-35" font-family="Helvetica,sans-Serif" font-size="10.00">/LibrePCB/LibrePCB/libs</text>
<text text-anchor="start" x="7.5" y="-22" font-family="Helvetica,sans-Serif" font-size="10.00">/librepcbcommon/dialogs</text>
<text text-anchor="middle" x="62" y="-9" font-family="Helvetica,sans-Serif" font-size="10.00">/gridsettingsdialog.cpp</text>
</a>
</g>
<!-- Node2&#45;&gt;Node3 -->
<g id="edge4" class="edge"><title>Node2&#45;&gt;Node3</title>
<path fill="none" stroke="midnightblue" d="M244.791,-107.007C210.766,-93.6493 169.683,-77.2798 133,-62 130.268,-60.8622 127.482,-59.691 124.67,-58.5006"/>
<polygon fill="midnightblue" stroke="midnightblue" points="243.603,-110.301 254.191,-110.691 246.158,-103.783 243.603,-110.301"/>
</g>
<!-- Node4 -->
<g id="node7" class="node"><title>Node4</title>
<a xlink:href="../../d3/d25/moc__gridsettingsdialog_8cpp.html" target="_top" xlink:title="/home/travis/build\l/LibrePCB/LibrePCB/libs\l/librepcbcommon/moc/moc\l_gridsettingsdialog.cpp">
<polygon fill="white" stroke="black" points="142,-1 142,-61 276,-61 276,-1 142,-1"/>
<text text-anchor="start" x="150" y="-48" font-family="Helvetica,sans-Serif" font-size="10.00">/home/travis/build</text>
<text text-anchor="start" x="150" y="-35" font-family="Helvetica,sans-Serif" font-size="10.00">/LibrePCB/LibrePCB/libs</text>
<text text-anchor="start" x="150" y="-22" font-family="Helvetica,sans-Serif" font-size="10.00">/librepcbcommon/moc/moc</text>
<text text-anchor="middle" x="209" y="-9" font-family="Helvetica,sans-Serif" font-size="10.00">_gridsettingsdialog.cpp</text>
</a>
</g>
<!-- Node2&#45;&gt;Node4 -->
<g id="edge6" class="edge"><title>Node2&#45;&gt;Node4</title>
<path fill="none" stroke="midnightblue" d="M278.521,-97.9466C265.944,-85.8348 252.138,-72.5407 240.168,-61.0135"/>
<polygon fill="midnightblue" stroke="midnightblue" points="276.131,-100.504 285.762,-104.919 280.986,-95.4613 276.131,-100.504"/>
</g>
<!-- Node2&#45;&gt;Node5 -->
<g id="edge8" class="edge"><title>Node2&#45;&gt;Node5</title>
<path fill="none" stroke="midnightblue" d="M334.067,-95.5551C339.023,-84.1029 344.352,-71.7866 349.013,-61.0135"/>
<polygon fill="midnightblue" stroke="midnightblue" points="330.775,-94.3513 330.016,-104.919 337.199,-97.1311 330.775,-94.3513"/>
</g>
<!-- Node2&#45;&gt;Node6 -->
<g id="edge10" class="edge"><title>Node2&#45;&gt;Node6</title>
<path fill="none" stroke="midnightblue" d="M388.847,-101.036C416.115,-88.1459 446.951,-73.5684 473.404,-61.0634"/>
<polygon fill="midnightblue" stroke="midnightblue" points="387.294,-97.8988 379.749,-105.337 390.285,-104.227 387.294,-97.8988"/>
</g>
</g>
</svg>
