<?xml version="1.0" encoding="UTF-8" standalone="no"?>
<!DOCTYPE svg PUBLIC "-//W3C//DTD SVG 1.1//EN"
 "http://www.w3.org/Graphics/SVG/1.1/DTD/svg11.dtd">
<!-- Generated by graphviz version 2.26.3 (20100126.1600)
 -->
<!-- Title: /home/travis/build/LibrePCB/LibrePCB/libs/librepcbproject/schematics/items/si_netlabel.h Pages: 1 -->
<svg width="1488pt" height="180pt"
 viewBox="0.00 0.00 1488.00 180.00" xmlns="http://www.w3.org/2000/svg" xmlns:xlink="http://www.w3.org/1999/xlink">
<g id="graph1" class="graph" transform="scale(1 1) rotate(0) translate(4 176)">
<title>/home/travis/build/LibrePCB/LibrePCB/libs/librepcbproject/schematics/items/si_netlabel.h</title>
<polygon fill="white" stroke="white" points="-4,5 -4,-176 1485,-176 1485,5 -4,5"/>
<!-- Node1 -->
<g id="node1" class="node"><title>Node1</title>
<polygon fill="#bfbfbf" stroke="black" points="739,-111 739,-171 875,-171 875,-111 739,-111"/>
<text text-anchor="start" x="747" y="-158" font-family="Helvetica,sans-Serif" font-size="10.00">/home/travis/build</text>
<text text-anchor="start" x="747" y="-145" font-family="Helvetica,sans-Serif" font-size="10.00">/LibrePCB/LibrePCB/libs</text>
<text text-anchor="start" x="747" y="-132" font-family="Helvetica,sans-Serif" font-size="10.00">/librepcbproject/schematics</text>
<text text-anchor="middle" x="807" y="-119" font-family="Helvetica,sans-Serif" font-size="10.00">/items/si_netlabel.h</text>
</g>
<!-- Node2 -->
<g id="node3" class="node"><title>Node2</title>
<a xlink:href="../../df/d3c/netsignal_8cpp.html" target="_top" xlink:title="/home/travis/build\l/LibrePCB/LibrePCB/libs\l/librepcbproject/circuit\l/netsignal.cpp">
<polygon fill="white" stroke="black" points="-0.5,-7 -0.5,-67 124.5,-67 124.5,-7 -0.5,-7"/>
<text text-anchor="start" x="7.5" y="-54" font-family="Helvetica,sans-Serif" font-size="10.00">/home/travis/build</text>
<text text-anchor="start" x="7.5" y="-41" font-family="Helvetica,sans-Serif" font-size="10.00">/LibrePCB/LibrePCB/libs</text>
<text text-anchor="start" x="7.5" y="-28" font-family="Helvetica,sans-Serif" font-size="10.00">/librepcbproject/circuit</text>
<text text-anchor="middle" x="62" y="-15" font-family="Helvetica,sans-Serif" font-size="10.00">/netsignal.cpp</text>
</a>
</g>
<!-- Node1&#45;&gt;Node2 -->
<g id="edge2" class="edge"><title>Node1&#45;&gt;Node2</title>
<path fill="none" stroke="midnightblue" d="M728.617,-136.951C575.655,-128.435 242.745,-106.719 133,-74 126.873,-72.1732 120.655,-69.8083 114.577,-67.1576"/>
<polygon fill="midnightblue" stroke="midnightblue" points="728.693,-140.46 738.871,-137.517 729.079,-133.471 728.693,-140.46"/>
</g>
<!-- Node3 -->
<g id="node5" class="node"><title>Node3</title>
<a xlink:href="../../d0/d3d/cmdschematicnetlabeladd_8cpp.html" target="_top" xlink:title="/home/travis/build\l/LibrePCB/LibrePCB/libs\l/librepcbproject/schematics\l/cmd/cmdschematicnetlabeladd.cpp">
<polygon fill="white" stroke="black" points="141.5,-7 141.5,-67 314.5,-67 314.5,-7 141.5,-7"/>
<text text-anchor="start" x="149.5" y="-54" font-family="Helvetica,sans-Serif" font-size="10.00">/home/travis/build</text>
<text text-anchor="start" x="149.5" y="-41" font-family="Helvetica,sans-Serif" font-size="10.00">/LibrePCB/LibrePCB/libs</text>
<text text-anchor="start" x="149.5" y="-28" font-family="Helvetica,sans-Serif" font-size="10.00">/librepcbproject/schematics</text>
<text text-anchor="middle" x="228" y="-15" font-family="Helvetica,sans-Serif" font-size="10.00">/cmd/cmdschematicnetlabeladd.cpp</text>
</a>
</g>
<!-- Node1&#45;&gt;Node3 -->
<g id="edge4" class="edge"><title>Node1&#45;&gt;Node3</title>
<path fill="none" stroke="midnightblue" d="M728.704,-135.816C632.079,-128.133 463.345,-110.506 323,-74 315.463,-72.0395 307.71,-69.6599 300.039,-67.0631"/>
<polygon fill="midnightblue" stroke="midnightblue" points="728.445,-139.307 738.687,-136.595 728.99,-132.328 728.445,-139.307"/>
</g>
<!-- Node4 -->
<g id="node7" class="node"><title>Node4</title>
<a xlink:href="../../d7/dfb/cmdschematicnetlabeledit_8cpp.html" target="_top" xlink:title="/home/travis/build\l/LibrePCB/LibrePCB/libs\l/librepcbproject/schematics\l/cmd/cmdschematicnetlabeledit.cpp">
<polygon fill="white" stroke="black" points="331.5,-7 331.5,-67 504.5,-67 504.5,-7 331.5,-7"/>
<text text-anchor="start" x="339.5" y="-54" font-family="Helvetica,sans-Serif" font-size="10.00">/home/travis/build</text>
<text text-anchor="start" x="339.5" y="-41" font-family="Helvetica,sans-Serif" font-size="10.00">/LibrePCB/LibrePCB/libs</text>
<text text-anchor="start" x="339.5" y="-28" font-family="Helvetica,sans-Serif" font-size="10.00">/librepcbproject/schematics</text>
<text text-anchor="middle" x="418" y="-15" font-family="Helvetica,sans-Serif" font-size="10.00">/cmd/cmdschematicnetlabeledit.cpp</text>
</a>
</g>
<!-- Node1&#45;&gt;Node4 -->
<g id="edge6" class="edge"><title>Node1&#45;&gt;Node4</title>
<path fill="none" stroke="midnightblue" d="M728.707,-126.428C668.994,-114.53 585.03,-96.1025 513,-74 506.147,-71.8971 499.085,-69.5336 492.051,-67.0444"/>
<polygon fill="midnightblue" stroke="midnightblue" points="728.331,-129.921 738.82,-128.427 729.688,-123.054 728.331,-129.921"/>
</g>
<!-- Node5 -->
<g id="node9" class="node"><title>Node5</title>
<a xlink:href="../../df/de9/cmdschematicnetlabelremove_8cpp.html" target="_top" xlink:title="/home/travis/build\l/LibrePCB/LibrePCB/libs\l/librepcbproject/schematics\l/cmd/cmdschematicnetlabelremove.cpp">
<polygon fill="white" stroke="black" points="522,-7 522,-67 712,-67 712,-7 522,-7"/>
<text text-anchor="start" x="530" y="-54" font-family="Helvetica,sans-Serif" font-size="10.00">/home/travis/build</text>
<text text-anchor="start" x="530" y="-41" font-family="Helvetica,sans-Serif" font-size="10.00">/LibrePCB/LibrePCB/libs</text>
<text text-anchor="start" x="530" y="-28" font-family="Helvetica,sans-Serif" font-size="10.00">/librepcbproject/schematics</text>
<text text-anchor="middle" x="617" y="-15" font-family="Helvetica,sans-Serif" font-size="10.00">/cmd/cmdschematicnetlabelremove.cpp</text>
</a>
</g>
<!-- Node1&#45;&gt;Node5 -->
<g id="edge8" class="edge"><title>Node1&#45;&gt;Node5</title>
<path fill="none" stroke="midnightblue" d="M743.007,-105.972C719.913,-93.3313 694.073,-79.1871 671.832,-67.0135"/>
<polygon fill="midnightblue" stroke="midnightblue" points="741.592,-109.188 752.044,-110.919 744.953,-103.047 741.592,-109.188"/>
</g>
<!-- Node6 -->
<g id="node11" class="node"><title>Node6</title>
<a xlink:href="../../d4/d9c/sgi__netlabel_8cpp.html" target="_top" xlink:title="/home/travis/build\l/LibrePCB/LibrePCB/libs\l/librepcbproject/schematics\l/graphicsitems/sgi_netlabel.cpp">
<polygon fill="white" stroke="black" points="730,-7 730,-67 884,-67 884,-7 730,-7"/>
<text text-anchor="start" x="738" y="-54" font-family="Helvetica,sans-Serif" font-size="10.00">/home/travis/build</text>
<text text-anchor="start" x="738" y="-41" font-family="Helvetica,sans-Serif" font-size="10.00">/LibrePCB/LibrePCB/libs</text>
<text text-anchor="start" x="738" y="-28" font-family="Helvetica,sans-Serif" font-size="10.00">/librepcbproject/schematics</text>
<text text-anchor="middle" x="807" y="-15" font-family="Helvetica,sans-Serif" font-size="10.00">/graphicsitems/sgi_netlabel.cpp</text>
</a>
</g>
<!-- Node1&#45;&gt;Node6 -->
<g id="edge10" class="edge"><title>Node1&#45;&gt;Node6</title>
<path fill="none" stroke="midnightblue" d="M807,-100.867C807,-89.6109 807,-77.5711 807,-67.0135"/>
<polygon fill="midnightblue" stroke="midnightblue" points="803.5,-100.919 807,-110.919 810.5,-100.919 803.5,-100.919"/>
</g>
<!-- Node7 -->
<g id="node13" class="node"><title>Node7</title>
<a xlink:href="../../d6/dad/si__netlabel_8cpp.html" target="_top" xlink:title="/home/travis/build\l/LibrePCB/LibrePCB/libs\l/librepcbproject/schematics\l/items/si_netlabel.cpp">
<polygon fill="white" stroke="black" points="902,-7 902,-67 1038,-67 1038,-7 902,-7"/>
<text text-anchor="start" x="910" y="-54" font-family="Helvetica,sans-Serif" font-size="10.00">/home/travis/build</text>
<text text-anchor="start" x="910" y="-41" font-family="Helvetica,sans-Serif" font-size="10.00">/LibrePCB/LibrePCB/libs</text>
<text text-anchor="start" x="910" y="-28" font-family="Helvetica,sans-Serif" font-size="10.00">/librepcbproject/schematics</text>
<text text-anchor="middle" x="970" y="-15" font-family="Helvetica,sans-Serif" font-size="10.00">/items/si_netlabel.cpp</text>
</a>
</g>
<!-- Node1&#45;&gt;Node7 -->
<g id="edge12" class="edge"><title>Node1&#45;&gt;Node7</title>
<path fill="none" stroke="midnightblue" d="M862.689,-105.468C882.3,-92.9561 904.133,-79.0255 922.96,-67.0135"/>
<polygon fill="midnightblue" stroke="midnightblue" points="860.694,-102.589 854.146,-110.919 864.459,-108.491 860.694,-102.589"/>
</g>
<!-- Node8 -->
<g id="node15" class="node"><title>Node8</title>
<a xlink:href="../../dc/db2/schematic_8cpp.html" target="_top" xlink:title="/home/travis/build\l/LibrePCB/LibrePCB/libs\l/librepcbproject/schematics\l/schematic.cpp">
<polygon fill="white" stroke="black" points="1056,-7 1056,-67 1192,-67 1192,-7 1056,-7"/>
<text text-anchor="start" x="1064" y="-54" font-family="Helvetica,sans-Serif" font-size="10.00">/home/travis/build</text>
<text text-anchor="start" x="1064" y="-41" font-family="Helvetica,sans-Serif" font-size="10.00">/LibrePCB/LibrePCB/libs</text>
<text text-anchor="start" x="1064" y="-28" font-family="Helvetica,sans-Serif" font-size="10.00">/librepcbproject/schematics</text>
<text text-anchor="middle" x="1124" y="-15" font-family="Helvetica,sans-Serif" font-size="10.00">/schematic.cpp</text>
</a>
</g>
<!-- Node1&#45;&gt;Node8 -->
<g id="edge14" class="edge"><title>Node1&#45;&gt;Node8</title>
<path fill="none" stroke="midnightblue" d="M884.917,-122.943C932.421,-111.028 993.99,-93.9586 1047,-74 1052.55,-71.9096 1058.25,-69.5692 1063.91,-67.1078"/>
<polygon fill="midnightblue" stroke="midnightblue" points="883.863,-119.598 875.002,-125.406 885.55,-126.392 883.863,-119.598"/>
</g>
<!-- Node9 -->
<g id="node17" class="node"><title>Node9</title>
<a xlink:href="../../d3/dbd/ses__addnetlabel_8cpp.html" target="_top" xlink:title="/home/travis/build\l/LibrePCB/LibrePCB/libs\l/librepcbprojecteditor\l/schematiceditor/fsm/ses\l_addnetlabel.cpp">
<polygon fill="white" stroke="black" points="1209.5,-0.5 1209.5,-73.5 1336.5,-73.5 1336.5,-0.5 1209.5,-0.5"/>
<text text-anchor="start" x="1217.5" y="-60.5" font-family="Helvetica,sans-Serif" font-size="10.00">/home/travis/build</text>
<text text-anchor="start" x="1217.5" y="-47.5" font-family="Helvetica,sans-Serif" font-size="10.00">/LibrePCB/LibrePCB/libs</text>
<text text-anchor="start" x="1217.5" y="-34.5" font-family="Helvetica,sans-Serif" font-size="10.00">/librepcbprojecteditor</text>
<text text-anchor="start" x="1217.5" y="-21.5" font-family="Helvetica,sans-Serif" font-size="10.00">/schematiceditor/fsm/ses</text>
<text text-anchor="middle" x="1273" y="-8.5" font-family="Helvetica,sans-Serif" font-size="10.00">_addnetlabel.cpp</text>
</a>
</g>
<!-- Node1&#45;&gt;Node9 -->
<g id="edge16" class="edge"><title>Node1&#45;&gt;Node9</title>
<path fill="none" stroke="midnightblue" d="M885.194,-134.806C965.947,-126.779 1094.79,-109.383 1201,-74 1203.8,-73.0672 1206.63,-72.0385 1209.45,-70.9358"/>
<polygon fill="midnightblue" stroke="midnightblue" points="884.718,-131.336 875.102,-135.786 885.394,-138.303 884.718,-131.336"/>
</g>
<!-- Node10 -->
<g id="node19" class="node"><title>Node10</title>
<a xlink:href="../../d5/d03/ses__select_8cpp.html" target="_top" xlink:title="/home/travis/build\l/LibrePCB/LibrePCB/libs\l/librepcbprojecteditor\l/schematiceditor/fsm/ses\l_select.cpp">
<polygon fill="white" stroke="black" points="1353.5,-0.5 1353.5,-73.5 1480.5,-73.5 1480.5,-0.5 1353.5,-0.5"/>
<text text-anchor="start" x="1361.5" y="-60.5" font-family="Helvetica,sans-Serif" font-size="10.00">/home/travis/build</text>
<text text-anchor="start" x="1361.5" y="-47.5" font-family="Helvetica,sans-Serif" font-size="10.00">/LibrePCB/LibrePCB/libs</text>
<text text-anchor="start" x="1361.5" y="-34.5" font-family="Helvetica,sans-Serif" font-size="10.00">/librepcbprojecteditor</text>
<text text-anchor="start" x="1361.5" y="-21.5" font-family="Helvetica,sans-Serif" font-size="10.00">/schematiceditor/fsm/ses</text>
<text text-anchor="middle" x="1417" y="-8.5" font-family="Helvetica,sans-Serif" font-size="10.00">_select.cpp</text>
</a>
</g>
<!-- Node1&#45;&gt;Node10 -->
<g id="edge18" class="edge"><title>Node1&#45;&gt;Node10</title>
<path fill="none" stroke="midnightblue" d="M885.484,-134.623C1013.41,-123.66 1261.04,-99.9061 1345,-74 1347.69,-73.1712 1350.39,-72.2462 1353.1,-71.2448"/>
<polygon fill="midnightblue" stroke="midnightblue" points="885.027,-131.149 875.36,-135.486 885.621,-138.124 885.027,-131.149"/>
</g>
</g>
</svg>
