<?xml version="1.0" encoding="UTF-8" standalone="no"?>
<!DOCTYPE svg PUBLIC "-//W3C//DTD SVG 1.1//EN"
 "http://www.w3.org/Graphics/SVG/1.1/DTD/svg11.dtd">
<!-- Generated by graphviz version 2.26.3 (20100126.1600)
 -->
<!-- Title: /home/travis/build/LibrePCB/LibrePCB/libs/librepcbproject/schematics/cmd/cmdsymbolinstanceadd.cpp Pages: 1 -->
<svg width="1472pt" height="634pt"
 viewBox="0.00 0.00 1472.07 634.00" xmlns="http://www.w3.org/2000/svg" xmlns:xlink="http://www.w3.org/1999/xlink">
<g id="graph1" class="graph" transform="scale(1 1) rotate(0) translate(4 630)">
<title>/home/travis/build/LibrePCB/LibrePCB/libs/librepcbproject/schematics/cmd/cmdsymbolinstanceadd.cpp</title>
<polygon fill="white" stroke="white" points="-4,5 -4,-630 1469.07,-630 1469.07,5 -4,5"/>
<!-- Node1 -->
<g id="node1" class="node"><title>Node1</title>
<polygon fill="#bfbfbf" stroke="black" points="337.5,-565 337.5,-625 500.5,-625 500.5,-565 337.5,-565"/>
<text text-anchor="start" x="345.5" y="-612" font-family="Helvetica,sans-Serif" font-size="10.00">/home/travis/build</text>
<text text-anchor="start" x="345.5" y="-599" font-family="Helvetica,sans-Serif" font-size="10.00">/LibrePCB/LibrePCB/libs</text>
<text text-anchor="start" x="345.5" y="-586" font-family="Helvetica,sans-Serif" font-size="10.00">/librepcbproject/schematics</text>
<text text-anchor="middle" x="419" y="-573" font-family="Helvetica,sans-Serif" font-size="10.00">/cmd/cmdsymbolinstanceadd.cpp</text>
</g>
<!-- Node2 -->
<g id="node3" class="node"><title>Node2</title>
<polygon fill="white" stroke="#bfbfbf" points="806,-0.5 806,-21.5 854,-21.5 854,-0.5 806,-0.5"/>
<text text-anchor="middle" x="830" y="-8.5" font-family="Helvetica,sans-Serif" font-size="10.00">QtCore</text>
</g>
<!-- Node1&#45;&gt;Node2 -->
<g id="edge2" class="edge"><title>Node1&#45;&gt;Node2</title>
<path fill="none" stroke="midnightblue" d="M337.218,-584.057C215.281,-565.417 0,-522.522 0,-452 0,-452 0,-452 0,-127 0,-68.9119 55.6936,-75.7601 111,-58 176.591,-36.9372 661.675,-17.3224 795.751,-12.2593"/>
<polygon fill="midnightblue" stroke="midnightblue" points="795.994,-15.7527 805.856,-11.8802 795.732,-8.75762 795.994,-15.7527"/>
</g>
<!-- Node3 -->
<g id="node5" class="node"><title>Node3</title>
<a xlink:href="../../da/d78/cmdsymbolinstanceadd_8h.html" target="_top" xlink:title="cmdsymbolinstanceadd.h">
<polygon fill="white" stroke="black" points="50,-311.5 50,-332.5 178,-332.5 178,-311.5 50,-311.5"/>
<text text-anchor="middle" x="114" y="-319.5" font-family="Helvetica,sans-Serif" font-size="10.00">cmdsymbolinstanceadd.h</text>
</a>
</g>
<!-- Node1&#45;&gt;Node3 -->
<g id="edge4" class="edge"><title>Node1&#45;&gt;Node3</title>
<path fill="none" stroke="midnightblue" d="M385.194,-564.741C321.284,-507.536 184.589,-385.183 133.659,-339.597"/>
<polygon fill="midnightblue" stroke="midnightblue" points="135.764,-336.783 125.978,-332.722 131.095,-341.999 135.764,-336.783"/>
</g>
<!-- Node11 -->
<g id="node33" class="node"><title>Node11</title>
<a xlink:href="../../df/dc0/si__symbol_8h.html" target="_top" xlink:title="../items/si_symbol.h">
<polygon fill="white" stroke="black" points="973.5,-506.5 973.5,-527.5 1078.5,-527.5 1078.5,-506.5 973.5,-506.5"/>
<text text-anchor="middle" x="1026" y="-514.5" font-family="Helvetica,sans-Serif" font-size="10.00">../items/si_symbol.h</text>
</a>
</g>
<!-- Node1&#45;&gt;Node11 -->
<g id="edge44" class="edge"><title>Node1&#45;&gt;Node11</title>
<path fill="none" stroke="midnightblue" d="M500.548,-584.521C623.298,-568.747 852.915,-539.242 963.425,-525.041"/>
<polygon fill="midnightblue" stroke="midnightblue" points="963.947,-528.503 973.419,-523.757 963.055,-521.56 963.947,-528.503"/>
</g>
<!-- Node19 -->
<g id="node60" class="node"><title>Node19</title>
<a xlink:href="../../d1/d8d/schematic_8h.html" target="_top" xlink:title="../schematic.h">
<polygon fill="white" stroke="black" points="768.5,-311.5 768.5,-332.5 847.5,-332.5 847.5,-311.5 768.5,-311.5"/>
<text text-anchor="middle" x="808" y="-319.5" font-family="Helvetica,sans-Serif" font-size="10.00">../schematic.h</text>
</a>
</g>
<!-- Node1&#45;&gt;Node19 -->
<g id="edge100" class="edge"><title>Node1&#45;&gt;Node19</title>
<path fill="none" stroke="midnightblue" d="M462.116,-564.741C544.3,-507.065 720.853,-383.16 784.511,-338.485"/>
<polygon fill="midnightblue" stroke="midnightblue" points="786.548,-341.331 792.723,-332.722 782.527,-335.601 786.548,-341.331"/>
</g>
<!-- Node21 -->
<g id="node72" class="node"><title>Node21</title>
<a xlink:href="../../d3/ddf/circuit_8h.html" target="_top" xlink:title="../../circuit/circuit.h">
<polygon fill="white" stroke="black" points="428,-311.5 428,-332.5 526,-332.5 526,-311.5 428,-311.5"/>
<text text-anchor="middle" x="477" y="-319.5" font-family="Helvetica,sans-Serif" font-size="10.00">../../circuit/circuit.h</text>
</a>
</g>
<!-- Node1&#45;&gt;Node21 -->
<g id="edge102" class="edge"><title>Node1&#45;&gt;Node21</title>
<path fill="none" stroke="midnightblue" d="M425.429,-564.741C437.331,-508.716 462.511,-390.2 472.642,-342.513"/>
<polygon fill="midnightblue" stroke="midnightblue" points="476.068,-343.231 474.722,-332.722 469.22,-341.776 476.068,-343.231"/>
</g>
<!-- Node22 -->
<g id="node78" class="node"><title>Node22</title>
<a xlink:href="../../da/def/gencompinstance_8h.html" target="_top" xlink:title="../../circuit/gencompinstance.h">
<polygon fill="white" stroke="black" points="261.5,-311.5 261.5,-332.5 410.5,-332.5 410.5,-311.5 261.5,-311.5"/>
<text text-anchor="middle" x="336" y="-319.5" font-family="Helvetica,sans-Serif" font-size="10.00">../../circuit/gencompinstance.h</text>
</a>
</g>
<!-- Node1&#45;&gt;Node22 -->
<g id="edge112" class="edge"><title>Node1&#45;&gt;Node22</title>
<path fill="none" stroke="midnightblue" d="M409.8,-564.741C392.767,-508.716 356.735,-390.2 342.237,-342.513"/>
<polygon fill="midnightblue" stroke="midnightblue" points="345.517,-341.271 339.26,-332.722 338.82,-343.307 345.517,-341.271"/>
</g>
<!-- Node3&#45;&gt;Node2 -->
<g id="edge6" class="edge"><title>Node3&#45;&gt;Node2</title>
<path fill="none" stroke="midnightblue" d="M103.111,-311.406C82.0964,-289.766 38,-238.039 38,-185 38,-185 38,-185 38,-127 38,-114.967 3.58514,-103.973 199,-58 313.986,-30.9483 681.102,-16.1781 795.574,-12.146"/>
<polygon fill="midnightblue" stroke="midnightblue" points="795.974,-15.6343 805.847,-11.7892 795.731,-8.63849 795.974,-15.6343"/>
</g>
<!-- Node4 -->
<g id="node8" class="node"><title>Node4</title>
<a xlink:href="../../d1/da8/all__length__units_8h.html" target="_top" xlink:title="librepcbcommon/units\l/all_length_units.h">
<polygon fill="white" stroke="black" points="752,-233 752,-267 864,-267 864,-233 752,-233"/>
<text text-anchor="start" x="760" y="-254" font-family="Helvetica,sans-Serif" font-size="10.00">librepcbcommon/units</text>
<text text-anchor="middle" x="808" y="-241" font-family="Helvetica,sans-Serif" font-size="10.00">/all_length_units.h</text>
</a>
</g>
<!-- Node3&#45;&gt;Node4 -->
<g id="edge8" class="edge"><title>Node3&#45;&gt;Node4</title>
<path fill="none" stroke="midnightblue" d="M178.282,-313.004C201.764,-309.895 228.556,-306.555 253,-304 453.433,-283.053 505.079,-293.374 705,-268 716.888,-266.491 729.495,-264.563 741.658,-262.533"/>
<polygon fill="midnightblue" stroke="midnightblue" points="742.478,-265.944 751.746,-260.811 741.299,-259.044 742.478,-265.944"/>
</g>
<!-- Node6 -->
<g id="node13" class="node"><title>Node6</title>
<a xlink:href="../../d4/d03/exceptions_8h.html" target="_top" xlink:title="../exceptions.h">
<polygon fill="white" stroke="black" points="514.5,-58.5 514.5,-79.5 595.5,-79.5 595.5,-58.5 514.5,-58.5"/>
<text text-anchor="middle" x="555" y="-66.5" font-family="Helvetica,sans-Serif" font-size="10.00">../exceptions.h</text>
</a>
</g>
<!-- Node3&#45;&gt;Node6 -->
<g id="edge42" class="edge"><title>Node3&#45;&gt;Node6</title>
<path fill="none" stroke="midnightblue" d="M118.193,-311.381C125.982,-292.896 144.351,-254.621 171,-232 272.192,-146.103 425.303,-99.6536 504.133,-80.1941"/>
<polygon fill="midnightblue" stroke="midnightblue" points="505.395,-83.4898 514.29,-77.7351 503.748,-76.6864 505.395,-83.4898"/>
</g>
<!-- Node10 -->
<g id="node28" class="node"><title>Node10</title>
<a xlink:href="../../dc/da0/undocommand_8h.html" target="_top" xlink:title="librepcbcommon/undocommand.h">
<polygon fill="white" stroke="black" points="65.5,-116.5 65.5,-137.5 228.5,-137.5 228.5,-116.5 65.5,-116.5"/>
<text text-anchor="middle" x="147" y="-124.5" font-family="Helvetica,sans-Serif" font-size="10.00">librepcbcommon/undocommand.h</text>
</a>
</g>
<!-- Node3&#45;&gt;Node10 -->
<g id="edge36" class="edge"><title>Node3&#45;&gt;Node10</title>
<path fill="none" stroke="midnightblue" d="M109.858,-311.399C103.814,-294.499 93.9223,-260.454 100,-232 106.771,-200.301 123.847,-166.593 135.44,-146.164"/>
<polygon fill="midnightblue" stroke="midnightblue" points="138.467,-147.92 140.473,-137.517 132.418,-144.399 138.467,-147.92"/>
</g>
<!-- Node5 -->
<g id="node10" class="node"><title>Node5</title>
<a xlink:href="../../d0/d09/lengthunit_8h.html" target="_top" xlink:title="lengthunit.h">
<polygon fill="white" stroke="black" points="839.5,-116.5 839.5,-137.5 906.5,-137.5 906.5,-116.5 839.5,-116.5"/>
<text text-anchor="middle" x="873" y="-124.5" font-family="Helvetica,sans-Serif" font-size="10.00">lengthunit.h</text>
</a>
</g>
<!-- Node4&#45;&gt;Node5 -->
<g id="edge10" class="edge"><title>Node4&#45;&gt;Node5</title>
<path fill="none" stroke="midnightblue" d="M825.92,-232.975C835.479,-223.008 846.736,-209.712 854,-196 861.985,-180.925 866.87,-162.173 869.684,-148.025"/>
<polygon fill="midnightblue" stroke="midnightblue" points="873.193,-148.284 871.516,-137.823 866.303,-147.047 873.193,-148.284"/>
</g>
<!-- Node7 -->
<g id="node16" class="node"><title>Node7</title>
<a xlink:href="../../dd/db9/length_8h.html" target="_top" xlink:title="length.h">
<polygon fill="white" stroke="black" points="771.5,-116.5 771.5,-137.5 822.5,-137.5 822.5,-116.5 771.5,-116.5"/>
<text text-anchor="middle" x="797" y="-124.5" font-family="Helvetica,sans-Serif" font-size="10.00">length.h</text>
</a>
</g>
<!-- Node4&#45;&gt;Node7 -->
<g id="edge18" class="edge"><title>Node4&#45;&gt;Node7</title>
<path fill="none" stroke="midnightblue" d="M800.706,-232.849C796.667,-222.408 792.058,-208.681 790,-196 787.382,-179.87 789.508,-161.449 792.083,-147.7"/>
<polygon fill="midnightblue" stroke="midnightblue" points="795.53,-148.315 794.162,-137.809 788.68,-146.875 795.53,-148.315"/>
</g>
<!-- Node8 -->
<g id="node20" class="node"><title>Node8</title>
<a xlink:href="../../d2/d91/point_8h.html" target="_top" xlink:title="point.h">
<polygon fill="white" stroke="black" points="799,-174.5 799,-195.5 845,-195.5 845,-174.5 799,-174.5"/>
<text text-anchor="middle" x="822" y="-182.5" font-family="Helvetica,sans-Serif" font-size="10.00">point.h</text>
</a>
</g>
<!-- Node4&#45;&gt;Node8 -->
<g id="edge24" class="edge"><title>Node4&#45;&gt;Node8</title>
<path fill="none" stroke="midnightblue" d="M811.678,-232.922C813.475,-224.579 815.653,-214.47 817.543,-205.692"/>
<polygon fill="midnightblue" stroke="midnightblue" points="820.979,-206.365 819.663,-195.852 814.135,-204.891 820.979,-206.365"/>
</g>
<!-- Node9 -->
<g id="node24" class="node"><title>Node9</title>
<a xlink:href="../../da/dac/angle_8h.html" target="_top" xlink:title="angle.h">
<polygon fill="white" stroke="black" points="706,-116.5 706,-137.5 754,-137.5 754,-116.5 706,-116.5"/>
<text text-anchor="middle" x="730" y="-124.5" font-family="Helvetica,sans-Serif" font-size="10.00">angle.h</text>
</a>
</g>
<!-- Node4&#45;&gt;Node9 -->
<g id="edge30" class="edge"><title>Node4&#45;&gt;Node9</title>
<path fill="none" stroke="midnightblue" d="M797.154,-232.897C782.742,-210.17 757.346,-170.123 742.256,-146.326"/>
<polygon fill="midnightblue" stroke="midnightblue" points="745.152,-144.358 736.841,-137.787 739.241,-148.107 745.152,-144.358"/>
</g>
<!-- Node5&#45;&gt;Node2 -->
<g id="edge12" class="edge"><title>Node5&#45;&gt;Node2</title>
<path fill="none" stroke="midnightblue" d="M869.032,-116.295C861.864,-96.9588 846.652,-55.9229 837.479,-31.1767"/>
<polygon fill="midnightblue" stroke="midnightblue" points="840.716,-29.8392 833.959,-21.6792 834.153,-32.2723 840.716,-29.8392"/>
</g>
<!-- Node5&#45;&gt;Node6 -->
<g id="edge14" class="edge"><title>Node5&#45;&gt;Node6</title>
<path fill="none" stroke="midnightblue" d="M839.135,-117.859C836.39,-117.201 833.653,-116.572 831,-116 752.946,-99.1665 661.415,-84.5835 605.845,-76.2944"/>
<polygon fill="midnightblue" stroke="midnightblue" points="606.304,-72.8242 595.899,-74.8207 605.278,-79.7486 606.304,-72.8242"/>
</g>
<!-- Node6&#45;&gt;Node2 -->
<g id="edge16" class="edge"><title>Node6&#45;&gt;Node2</title>
<path fill="none" stroke="midnightblue" d="M595.577,-60.4419C649.95,-48.9741 745.465,-28.8293 796.163,-18.1365"/>
<polygon fill="midnightblue" stroke="midnightblue" points="796.913,-21.5554 805.975,-16.067 795.468,-14.7061 796.913,-21.5554"/>
</g>
<!-- Node7&#45;&gt;Node2 -->
<g id="edge20" class="edge"><title>Node7&#45;&gt;Node2</title>
<path fill="none" stroke="midnightblue" d="M800.045,-116.295C805.522,-97.0451 817.116,-56.2889 824.166,-31.5091"/>
<polygon fill="midnightblue" stroke="midnightblue" points="827.592,-32.2553 826.962,-21.6792 820.859,-30.3399 827.592,-32.2553"/>
</g>
<!-- Node7&#45;&gt;Node6 -->
<g id="edge22" class="edge"><title>Node7&#45;&gt;Node6</title>
<path fill="none" stroke="midnightblue" d="M771.455,-118.461C768.613,-117.593 765.752,-116.755 763,-116 709.73,-101.397 647.902,-87.851 605.586,-79.0904"/>
<polygon fill="midnightblue" stroke="midnightblue" points="606.032,-75.609 595.532,-77.023 604.622,-82.4655 606.032,-75.609"/>
</g>
<!-- Node8&#45;&gt;Node2 -->
<g id="edge26" class="edge"><title>Node8&#45;&gt;Node2</title>
<path fill="none" stroke="midnightblue" d="M845.028,-180.53C867.299,-174.85 899.836,-162.655 915,-138 939.881,-97.5474 888.408,-51.5726 855.194,-27.5766"/>
<polygon fill="midnightblue" stroke="midnightblue" points="856.993,-24.5632 846.795,-21.6898 852.975,-30.2955 856.993,-24.5632"/>
</g>
<!-- Node8&#45;&gt;Node7 -->
<g id="edge28" class="edge"><title>Node8&#45;&gt;Node7</title>
<path fill="none" stroke="midnightblue" d="M817.415,-174.362C814.102,-166.677 809.53,-156.069 805.552,-146.84"/>
<polygon fill="midnightblue" stroke="midnightblue" points="808.729,-145.368 801.556,-137.571 802.301,-148.139 808.729,-145.368"/>
</g>
<!-- Node9&#45;&gt;Node2 -->
<g id="edge32" class="edge"><title>Node9&#45;&gt;Node2</title>
<path fill="none" stroke="midnightblue" d="M739.229,-116.295C756.27,-96.5271 792.862,-54.0801 814.014,-29.5443"/>
<polygon fill="midnightblue" stroke="midnightblue" points="816.915,-31.5386 820.794,-21.6792 811.613,-26.968 816.915,-31.5386"/>
</g>
<!-- Node9&#45;&gt;Node6 -->
<g id="edge34" class="edge"><title>Node9&#45;&gt;Node6</title>
<path fill="none" stroke="midnightblue" d="M705.667,-118.935C677.459,-109.586 630.497,-94.022 596.492,-82.7516"/>
<polygon fill="midnightblue" stroke="midnightblue" points="597.424,-79.3734 586.831,-79.5496 595.222,-86.018 597.424,-79.3734"/>
</g>
<!-- Node10&#45;&gt;Node2 -->
<g id="edge38" class="edge"><title>Node10&#45;&gt;Node2</title>
<path fill="none" stroke="midnightblue" d="M157.501,-116.26C173.865,-100.309 207.2,-70.8595 242,-58 344.726,-20.0398 686.226,-12.7024 795.825,-11.3155"/>
<polygon fill="midnightblue" stroke="midnightblue" points="796.027,-14.8134 805.985,-11.1958 795.944,-7.81392 796.027,-14.8134"/>
</g>
<!-- Node10&#45;&gt;Node6 -->
<g id="edge40" class="edge"><title>Node10&#45;&gt;Node6</title>
<path fill="none" stroke="midnightblue" d="M220.886,-116.497C302.854,-104.844 432.922,-86.3542 504.185,-76.2238"/>
<polygon fill="midnightblue" stroke="midnightblue" points="504.851,-79.6642 514.259,-74.7916 503.866,-72.7339 504.851,-79.6642"/>
</g>
<!-- Node11&#45;&gt;Node2 -->
<g id="edge46" class="edge"><title>Node11&#45;&gt;Node2</title>
<path fill="none" stroke="midnightblue" d="M1052.28,-506.454C1092.32,-488.446 1164,-447.728 1164,-387 1164,-387 1164,-387 1164,-127 1164,-76.9492 1120.61,-78.6146 1075,-58 1004.4,-26.0916 912.849,-15.8274 864.09,-12.5389"/>
<polygon fill="midnightblue" stroke="midnightblue" points="864.27,-9.04345 854.073,-11.9219 863.839,-16.0302 864.27,-9.04345"/>
</g>
<!-- Node12 -->
<g id="node36" class="node"><title>Node12</title>
<a xlink:href="../../d6/d1f/si__base_8h.html" target="_top" xlink:title="si_base.h">
<polygon fill="white" stroke="black" points="1053.5,-311.5 1053.5,-332.5 1112.5,-332.5 1112.5,-311.5 1053.5,-311.5"/>
<text text-anchor="middle" x="1083" y="-319.5" font-family="Helvetica,sans-Serif" font-size="10.00">si_base.h</text>
</a>
</g>
<!-- Node11&#45;&gt;Node12 -->
<g id="edge48" class="edge"><title>Node11&#45;&gt;Node12</title>
<path fill="none" stroke="midnightblue" d="M1029.15,-506.238C1038.27,-475.015 1064.87,-384.01 1076.93,-342.758"/>
<polygon fill="midnightblue" stroke="midnightblue" points="1080.35,-343.549 1079.79,-332.969 1073.63,-341.585 1080.35,-343.549"/>
</g>
<!-- Node14 -->
<g id="node42" class="node"><title>Node14</title>
<a xlink:href="../../d0/d1d/if__xmlserializableobject_8h.html" target="_top" xlink:title="librepcbcommon/fileio\l/if_xmlserializableobject.h">
<polygon fill="white" stroke="black" points="439.5,-233 439.5,-267 568.5,-267 568.5,-233 439.5,-233"/>
<text text-anchor="start" x="447.5" y="-254" font-family="Helvetica,sans-Serif" font-size="10.00">librepcbcommon/fileio</text>
<text text-anchor="middle" x="504" y="-241" font-family="Helvetica,sans-Serif" font-size="10.00">/if_xmlserializableobject.h</text>
</a>
</g>
<!-- Node11&#45;&gt;Node14 -->
<g id="edge56" class="edge"><title>Node11&#45;&gt;Node14</title>
<path fill="none" stroke="midnightblue" d="M1005.21,-506.369C927.447,-466.591 652.671,-326.044 546.399,-271.687"/>
<polygon fill="midnightblue" stroke="midnightblue" points="547.745,-268.444 537.248,-267.006 544.557,-274.676 547.745,-268.444"/>
</g>
<!-- Node15 -->
<g id="node45" class="node"><title>Node15</title>
<a xlink:href="../../da/d81/if__attributeprovider_8h.html" target="_top" xlink:title="librepcbcommon/if_attributeprovider.h">
<polygon fill="white" stroke="black" points="881.5,-239.5 881.5,-260.5 1060.5,-260.5 1060.5,-239.5 881.5,-239.5"/>
<text text-anchor="middle" x="971" y="-247.5" font-family="Helvetica,sans-Serif" font-size="10.00">librepcbcommon/if_attributeprovider.h</text>
</a>
</g>
<!-- Node11&#45;&gt;Node15 -->
<g id="edge60" class="edge"><title>Node11&#45;&gt;Node15</title>
<path fill="none" stroke="midnightblue" d="M1023.78,-506.203C1015.48,-465.944 986.276,-324.159 975.254,-270.649"/>
<polygon fill="midnightblue" stroke="midnightblue" points="978.637,-269.727 973.192,-260.639 971.781,-271.14 978.637,-269.727"/>
</g>
<!-- Node16 -->
<g id="node48" class="node"><title>Node16</title>
<a xlink:href="../../da/d9e/sgi__symbol_8h.html" target="_top" xlink:title="../graphicsitems/sgi\l_symbol.h">
<polygon fill="white" stroke="black" points="1192,-435 1192,-469 1294,-469 1294,-435 1192,-435"/>
<text text-anchor="start" x="1200" y="-456" font-family="Helvetica,sans-Serif" font-size="10.00">../graphicsitems/sgi</text>
<text text-anchor="middle" x="1243" y="-443" font-family="Helvetica,sans-Serif" font-size="10.00">_symbol.h</text>
</a>
</g>
<!-- Node11&#45;&gt;Node16 -->
<g id="edge64" class="edge"><title>Node11&#45;&gt;Node16</title>
<path fill="none" stroke="midnightblue" d="M1061.35,-506.412C1094.01,-496.629 1143.22,-481.887 1182.19,-470.215"/>
<polygon fill="midnightblue" stroke="midnightblue" points="1183.29,-473.541 1191.86,-467.318 1181.28,-466.835 1183.29,-473.541"/>
</g>
<!-- Node12&#45;&gt;Node2 -->
<g id="edge50" class="edge"><title>Node12&#45;&gt;Node2</title>
<path fill="none" stroke="midnightblue" d="M1088.8,-311.349C1100.54,-288.765 1126,-234.11 1126,-185 1126,-185 1126,-185 1126,-127 1126,-74.8161 1078.46,-79.7035 1031,-58 975.685,-32.7027 905.366,-20.29 864.252,-14.7967"/>
<polygon fill="midnightblue" stroke="midnightblue" points="864.571,-11.3091 854.208,-13.5156 863.685,-18.2529 864.571,-11.3091"/>
</g>
<!-- Node12&#45;&gt;Node4 -->
<g id="edge54" class="edge"><title>Node12&#45;&gt;Node4</title>
<path fill="none" stroke="midnightblue" d="M1053.39,-314.57C1014.52,-304.775 943.906,-286.845 873.876,-268.212"/>
<polygon fill="midnightblue" stroke="midnightblue" points="874.566,-264.774 864.002,-265.579 872.763,-271.537 874.566,-264.774"/>
</g>
<!-- Node13 -->
<g id="node39" class="node"><title>Node13</title>
<polygon fill="white" stroke="#bfbfbf" points="1229.5,-239.5 1229.5,-260.5 1292.5,-260.5 1292.5,-239.5 1229.5,-239.5"/>
<text text-anchor="middle" x="1261" y="-247.5" font-family="Helvetica,sans-Serif" font-size="10.00">QtWidgets</text>
</g>
<!-- Node12&#45;&gt;Node13 -->
<g id="edge52" class="edge"><title>Node12&#45;&gt;Node13</title>
<path fill="none" stroke="midnightblue" d="M1109.26,-311.376C1139.98,-298.951 1190.99,-278.319 1225.29,-264.446"/>
<polygon fill="midnightblue" stroke="midnightblue" points="1226.96,-267.545 1234.92,-260.55 1224.33,-261.055 1226.96,-267.545"/>
</g>
<!-- Node14&#45;&gt;Node6 -->
<g id="edge58" class="edge"><title>Node14&#45;&gt;Node6</title>
<path fill="none" stroke="midnightblue" d="M508.798,-232.972C518.191,-199.635 538.976,-125.869 549.154,-89.747"/>
<polygon fill="midnightblue" stroke="midnightblue" points="552.605,-90.4062 551.948,-79.8317 545.867,-88.5077 552.605,-90.4062"/>
</g>
<!-- Node15&#45;&gt;Node2 -->
<g id="edge62" class="edge"><title>Node15&#45;&gt;Node2</title>
<path fill="none" stroke="midnightblue" d="M970.592,-239.126C968.873,-207.591 959.959,-114.742 914,-58 900.954,-41.8938 880.832,-30.3618 863.552,-22.7523"/>
<polygon fill="midnightblue" stroke="midnightblue" points="864.886,-19.5165 854.308,-18.9242 862.208,-25.9839 864.886,-19.5165"/>
</g>
<!-- Node16&#45;&gt;Node2 -->
<g id="edge66" class="edge"><title>Node16&#45;&gt;Node2</title>
<path fill="none" stroke="midnightblue" d="M1233.9,-434.881C1221.82,-410.519 1202,-364.124 1202,-322 1202,-322 1202,-322 1202,-127 1202,-94.5312 1203.14,-78.546 1178,-58 1153.92,-38.3197 947.123,-20.1517 864.194,-13.5891"/>
<polygon fill="midnightblue" stroke="midnightblue" points="864.271,-10.0845 854.029,-12.7939 863.725,-17.0632 864.271,-10.0845"/>
</g>
<!-- Node16&#45;&gt;Node13 -->
<g id="edge68" class="edge"><title>Node16&#45;&gt;Node13</title>
<path fill="none" stroke="midnightblue" d="M1244.53,-434.778C1247.83,-397.801 1255.57,-310.929 1259.14,-270.886"/>
<polygon fill="midnightblue" stroke="midnightblue" points="1262.63,-271.185 1260.03,-260.914 1255.65,-270.564 1262.63,-271.185"/>
</g>
<!-- Node17 -->
<g id="node52" class="node"><title>Node17</title>
<a xlink:href="../../d4/d91/sgi__base_8h.html" target="_top" xlink:title="sgi_base.h">
<polygon fill="white" stroke="black" points="1268,-376.5 1268,-397.5 1332,-397.5 1332,-376.5 1268,-376.5"/>
<text text-anchor="middle" x="1300" y="-384.5" font-family="Helvetica,sans-Serif" font-size="10.00">sgi_base.h</text>
</a>
</g>
<!-- Node16&#45;&gt;Node17 -->
<g id="edge70" class="edge"><title>Node16&#45;&gt;Node17</title>
<path fill="none" stroke="midnightblue" d="M1257.98,-434.922C1265.94,-425.845 1275.73,-414.679 1283.86,-405.41"/>
<polygon fill="midnightblue" stroke="midnightblue" points="1286.52,-407.678 1290.48,-397.852 1281.26,-403.063 1286.52,-407.678"/>
</g>
<!-- Node17&#45;&gt;Node2 -->
<g id="edge72" class="edge"><title>Node17&#45;&gt;Node2</title>
<path fill="none" stroke="midnightblue" d="M1332.22,-380.326C1369.64,-371.931 1428.13,-356.592 1443,-340 1470.28,-309.554 1462,-290.882 1462,-250 1462,-250 1462,-250 1462,-127 1462,-40.0773 1363.59,-78.0222 1279,-58 1127.43,-22.1224 940.612,-13.6242 864.606,-11.6175"/>
<polygon fill="midnightblue" stroke="midnightblue" points="864.295,-8.10905 854.213,-11.366 864.126,-15.107 864.295,-8.10905"/>
</g>
<!-- Node17&#45;&gt;Node13 -->
<g id="edge74" class="edge"><title>Node17&#45;&gt;Node13</title>
<path fill="none" stroke="midnightblue" d="M1296.94,-376.25C1290.45,-353.441 1275.2,-299.879 1266.8,-270.379"/>
<polygon fill="midnightblue" stroke="midnightblue" points="1270.15,-269.36 1264.05,-260.7 1263.42,-271.276 1270.15,-269.36"/>
</g>
<!-- Node18 -->
<g id="node56" class="node"><title>Node18</title>
<a xlink:href="../../de/dd6/graphicsitem_8h.html" target="_top" xlink:title="librepcbcommon/graphics\l/graphicsitem.h">
<polygon fill="white" stroke="black" points="1306,-305 1306,-339 1434,-339 1434,-305 1306,-305"/>
<text text-anchor="start" x="1314" y="-326" font-family="Helvetica,sans-Serif" font-size="10.00">librepcbcommon/graphics</text>
<text text-anchor="middle" x="1370" y="-313" font-family="Helvetica,sans-Serif" font-size="10.00">/graphicsitem.h</text>
</a>
</g>
<!-- Node17&#45;&gt;Node18 -->
<g id="edge76" class="edge"><title>Node17&#45;&gt;Node18</title>
<path fill="none" stroke="midnightblue" d="M1311.56,-376.267C1320.39,-368.063 1332.92,-356.436 1344.1,-346.047"/>
<polygon fill="midnightblue" stroke="midnightblue" points="1346.63,-348.479 1351.57,-339.11 1341.86,-343.35 1346.63,-348.479"/>
</g>
<!-- Node17&#45;&gt;Node19 -->
<g id="edge82" class="edge"><title>Node17&#45;&gt;Node19</title>
<path fill="none" stroke="midnightblue" d="M1267.72,-382.735C1183.8,-371.649 958.361,-341.865 857.711,-328.568"/>
<polygon fill="midnightblue" stroke="midnightblue" points="858.166,-325.097 847.794,-327.257 857.249,-332.037 858.166,-325.097"/>
</g>
<!-- Node18&#45;&gt;Node2 -->
<g id="edge78" class="edge"><title>Node18&#45;&gt;Node2</title>
<path fill="none" stroke="midnightblue" d="M1364.82,-304.882C1357.5,-279.127 1345,-228.761 1345,-185 1345,-185 1345,-185 1345,-127 1345,-61.9803 1278,-77.5972 1216,-58 1150.63,-37.3374 946.034,-19.8782 864.264,-13.5446"/>
<polygon fill="midnightblue" stroke="midnightblue" points="864.48,-10.051 854.242,-12.7766 863.945,-17.0305 864.48,-10.051"/>
</g>
<!-- Node18&#45;&gt;Node13 -->
<g id="edge80" class="edge"><title>Node18&#45;&gt;Node13</title>
<path fill="none" stroke="midnightblue" d="M1344.17,-304.937C1326.48,-293.251 1303.15,-277.843 1285.71,-266.32"/>
<polygon fill="midnightblue" stroke="midnightblue" points="1287.45,-263.279 1277.18,-260.688 1283.6,-269.12 1287.45,-263.279"/>
</g>
<!-- Node19&#45;&gt;Node2 -->
<g id="edge84" class="edge"><title>Node19&#45;&gt;Node2</title>
<path fill="none" stroke="midnightblue" d="M847.664,-318.966C912.736,-313.17 1038.05,-298.31 1069,-268 1096.04,-241.524 1088,-222.843 1088,-185 1088,-185 1088,-185 1088,-127 1088,-78.5355 934.646,-35.8506 864.401,-18.8405"/>
<polygon fill="midnightblue" stroke="midnightblue" points="864.811,-15.3403 854.272,-16.4266 863.188,-22.1496 864.811,-15.3403"/>
</g>
<!-- Node19&#45;&gt;Node4 -->
<g id="edge92" class="edge"><title>Node19&#45;&gt;Node4</title>
<path fill="none" stroke="midnightblue" d="M808,-311.376C808,-302.451 808,-289.293 808,-277.446"/>
<polygon fill="midnightblue" stroke="midnightblue" points="811.5,-277.094 808,-267.094 804.5,-277.094 811.5,-277.094"/>
</g>
<!-- Node19&#45;&gt;Node6 -->
<g id="edge98" class="edge"><title>Node19&#45;&gt;Node6</title>
<path fill="none" stroke="midnightblue" d="M794.403,-311.491C780.966,-300.926 760.012,-283.96 743,-268 675.934,-205.079 602.851,-123.592 571.158,-87.5471"/>
<polygon fill="midnightblue" stroke="midnightblue" points="573.581,-85.0016 564.358,-79.7873 568.317,-89.615 573.581,-85.0016"/>
</g>
<!-- Node19&#45;&gt;Node13 -->
<g id="edge86" class="edge"><title>Node19&#45;&gt;Node13</title>
<path fill="none" stroke="midnightblue" d="M847.804,-315.674C933.072,-302.121 1132.65,-270.399 1219.45,-256.603"/>
<polygon fill="midnightblue" stroke="midnightblue" points="1220.14,-260.038 1229.47,-255.012 1219.04,-253.125 1220.14,-260.038"/>
</g>
<!-- Node19&#45;&gt;Node14 -->
<g id="edge90" class="edge"><title>Node19&#45;&gt;Node14</title>
<path fill="none" stroke="midnightblue" d="M768.316,-312.877C724.339,-302.733 651.038,-285.725 579.019,-268.473"/>
<polygon fill="midnightblue" stroke="midnightblue" points="579.409,-264.968 568.869,-266.038 577.776,-271.775 579.409,-264.968"/>
</g>
<!-- Node19&#45;&gt;Node15 -->
<g id="edge88" class="edge"><title>Node19&#45;&gt;Node15</title>
<path fill="none" stroke="midnightblue" d="M832.051,-311.376C860.06,-299.004 906.487,-278.496 937.89,-264.625"/>
<polygon fill="midnightblue" stroke="midnightblue" points="939.382,-267.792 947.116,-260.55 936.554,-261.389 939.382,-267.792"/>
</g>
<!-- Node20 -->
<g id="node67" class="node"><title>Node20</title>
<a xlink:href="../../dd/dec/filepath_8h.html" target="_top" xlink:title="librepcbcommon/fileio\l/filepath.h">
<polygon fill="white" stroke="black" points="585.5,-233 585.5,-267 696.5,-267 696.5,-233 585.5,-233"/>
<text text-anchor="start" x="593.5" y="-254" font-family="Helvetica,sans-Serif" font-size="10.00">librepcbcommon/fileio</text>
<text text-anchor="middle" x="641" y="-241" font-family="Helvetica,sans-Serif" font-size="10.00">/filepath.h</text>
</a>
</g>
<!-- Node19&#45;&gt;Node20 -->
<g id="edge94" class="edge"><title>Node19&#45;&gt;Node20</title>
<path fill="none" stroke="midnightblue" d="M783.359,-311.376C758.856,-300.812 720.595,-284.316 689.907,-271.085"/>
<polygon fill="midnightblue" stroke="midnightblue" points="691.218,-267.84 680.649,-267.094 688.447,-274.268 691.218,-267.84"/>
</g>
<!-- Node20&#45;&gt;Node2 -->
<g id="edge96" class="edge"><title>Node20&#45;&gt;Node2</title>
<path fill="none" stroke="midnightblue" d="M645.366,-232.572C652.725,-205.623 669.542,-153.082 697,-116 725.716,-77.2182 772.237,-45.0266 801.956,-26.902"/>
<polygon fill="midnightblue" stroke="midnightblue" points="803.812,-29.8704 810.601,-21.737 800.222,-23.8611 803.812,-29.8704"/>
</g>
<!-- Node21&#45;&gt;Node2 -->
<g id="edge104" class="edge"><title>Node21&#45;&gt;Node2</title>
<path fill="none" stroke="midnightblue" d="M460.807,-311.343C447.842,-301.755 430.611,-286.374 423,-268 416.877,-253.218 420.356,-247.78 423,-232 437.16,-147.497 435.706,-106.99 506,-58 552.334,-25.7083 721.976,-15.2287 795.563,-12.156"/>
<polygon fill="midnightblue" stroke="midnightblue" points="795.843,-15.6477 805.697,-11.7546 795.566,-8.65318 795.843,-15.6477"/>
</g>
<!-- Node21&#45;&gt;Node6 -->
<g id="edge108" class="edge"><title>Node21&#45;&gt;Node6</title>
<path fill="none" stroke="midnightblue" d="M463.595,-311.202C452.472,-301.31 437.468,-285.567 431,-268 425.472,-252.985 425.889,-247.162 431,-232 451.662,-170.713 505.565,-114.226 535.04,-86.6601"/>
<polygon fill="midnightblue" stroke="midnightblue" points="537.654,-89.0112 542.657,-79.672 532.922,-83.8529 537.654,-89.0112"/>
</g>
<!-- Node21&#45;&gt;Node14 -->
<g id="edge106" class="edge"><title>Node21&#45;&gt;Node14</title>
<path fill="none" stroke="midnightblue" d="M480.984,-311.376C484.399,-302.269 489.467,-288.754 493.979,-276.723"/>
<polygon fill="midnightblue" stroke="midnightblue" points="497.355,-277.687 497.59,-267.094 490.801,-275.229 497.355,-277.687"/>
</g>
<!-- Node21&#45;&gt;Node20 -->
<g id="edge110" class="edge"><title>Node21&#45;&gt;Node20</title>
<path fill="none" stroke="midnightblue" d="M501.199,-311.376C525.158,-300.858 562.511,-284.458 592.582,-271.257"/>
<polygon fill="midnightblue" stroke="midnightblue" points="594.313,-274.319 602.063,-267.094 591.499,-267.91 594.313,-274.319"/>
</g>
<!-- Node22&#45;&gt;Node2 -->
<g id="edge114" class="edge"><title>Node22&#45;&gt;Node2</title>
<path fill="none" stroke="midnightblue" d="M282.238,-311.498C239.362,-301.901 184.356,-286.425 171,-268 161.609,-255.046 162.974,-245.841 171,-232 249.091,-97.3254 327.509,-107.819 475,-58 534.067,-38.0486 718.484,-20.5103 795.581,-13.8504"/>
<polygon fill="midnightblue" stroke="midnightblue" points="796.058,-17.3225 805.723,-12.9838 795.462,-10.348 796.058,-17.3225"/>
</g>
<!-- Node22&#45;&gt;Node6 -->
<g id="edge122" class="edge"><title>Node22&#45;&gt;Node6</title>
<path fill="none" stroke="midnightblue" d="M341.828,-311.091C359.619,-278.506 416.103,-180.179 483,-116 495.724,-103.793 512.036,-92.8439 525.915,-84.5914"/>
<polygon fill="midnightblue" stroke="midnightblue" points="527.707,-87.5984 534.622,-79.5716 524.21,-81.5341 527.707,-87.5984"/>
</g>
<!-- Node22&#45;&gt;Node14 -->
<g id="edge120" class="edge"><title>Node22&#45;&gt;Node14</title>
<path fill="none" stroke="midnightblue" d="M360.789,-311.376C385.439,-300.812 423.929,-284.316 454.801,-271.085"/>
<polygon fill="midnightblue" stroke="midnightblue" points="456.3,-274.251 464.113,-267.094 453.543,-267.817 456.3,-274.251"/>
</g>
<!-- Node22&#45;&gt;Node15 -->
<g id="edge116" class="edge"><title>Node22&#45;&gt;Node15</title>
<path fill="none" stroke="midnightblue" d="M379.306,-311.457C392.03,-308.672 406.018,-305.914 419,-304 619.248,-274.484 672.307,-294.318 873,-268 884.792,-266.454 897.318,-264.44 909.334,-262.321"/>
<polygon fill="midnightblue" stroke="midnightblue" points="910.061,-265.746 919.28,-260.524 908.817,-258.858 910.061,-265.746"/>
</g>
<!-- Node23 -->
<g id="node82" class="node"><title>Node23</title>
<a xlink:href="../../da/dfb/if__ercmsgprovider_8h.html" target="_top" xlink:title="../erc/if_ercmsgprovider.h">
<polygon fill="white" stroke="black" points="180,-239.5 180,-260.5 308,-260.5 308,-239.5 180,-239.5"/>
<text text-anchor="middle" x="244" y="-247.5" font-family="Helvetica,sans-Serif" font-size="10.00">../erc/if_ercmsgprovider.h</text>
</a>
</g>
<!-- Node22&#45;&gt;Node23 -->
<g id="edge118" class="edge"><title>Node22&#45;&gt;Node23</title>
<path fill="none" stroke="midnightblue" d="M322.425,-311.376C307.477,-299.678 283.234,-280.705 265.655,-266.948"/>
<polygon fill="midnightblue" stroke="midnightblue" points="267.663,-264.074 257.631,-260.667 263.349,-269.587 267.663,-264.074"/>
</g>
</g>
</svg>
