<?xml version="1.0" encoding="UTF-8" standalone="no"?>
<!DOCTYPE svg PUBLIC "-//W3C//DTD SVG 1.1//EN"
 "http://www.w3.org/Graphics/SVG/1.1/DTD/svg11.dtd">
<!-- Generated by graphviz version 2.26.3 (20100126.1600)
 -->
<!-- Title: SchematicPagesDock Pages: 1 -->
<svg width="498pt" height="220pt"
 viewBox="0.00 0.00 498.00 220.00" xmlns="http://www.w3.org/2000/svg" xmlns:xlink="http://www.w3.org/1999/xlink">
<g id="graph1" class="graph" transform="scale(1 1) rotate(0) translate(4 216)">
<title>SchematicPagesDock</title>
<polygon fill="white" stroke="white" points="-4,5 -4,-216 495,-216 495,5 -4,5"/>
<!-- Node1 -->
<g id="node1" class="node"><title>Node1</title>
<polygon fill="#bfbfbf" stroke="black" points="0,-92.5 0,-113.5 114,-113.5 114,-92.5 0,-92.5"/>
<text text-anchor="middle" x="57" y="-100.5" font-family="Helvetica,sans-Serif" font-size="10.00">SchematicPagesDock</text>
</g>
<!-- Node2 -->
<g id="node3" class="node"><title>Node2</title>
<a xlink:href="../../d2/d05/classproject_1_1_project.html#a1054eea6077b28d10d37c5e4c1b602fe" target="_top" xlink:title="Get all schematics. ">
<polygon fill="white" stroke="black" points="150,-172.5 150,-193.5 304,-193.5 304,-172.5 150,-172.5"/>
<text text-anchor="middle" x="227" y="-180.5" font-family="Helvetica,sans-Serif" font-size="10.00">project::Project::getSchematics</text>
</a>
</g>
<!-- Node1&#45;&gt;Node2 -->
<g id="edge2" class="edge"><title>Node1&#45;&gt;Node2</title>
<path fill="none" stroke="midnightblue" d="M70.3898,-113.619C87.7911,-126.937 119.561,-149.642 150,-163 155.428,-165.382 161.201,-167.528 167.05,-169.449"/>
<polygon fill="midnightblue" stroke="midnightblue" points="166.331,-172.89 176.918,-172.473 168.382,-166.197 166.331,-172.89"/>
</g>
<!-- Node3 -->
<g id="node5" class="node"><title>Node3</title>
<a xlink:href="../../da/dda/classproject_1_1_schematic_pages_dock.html#a5a304382795bedf7f5c502eb213f6709" target="_top" xlink:title="schematicAdded">
<polygon fill="white" stroke="black" points="182.5,-132.5 182.5,-153.5 271.5,-153.5 271.5,-132.5 182.5,-132.5"/>
<text text-anchor="middle" x="227" y="-140.5" font-family="Helvetica,sans-Serif" font-size="10.00">schematicAdded</text>
</a>
</g>
<!-- Node1&#45;&gt;Node3 -->
<g id="edge4" class="edge"><title>Node1&#45;&gt;Node3</title>
<path fill="none" stroke="midnightblue" d="M101.665,-113.51C123.346,-118.611 149.584,-124.785 172.439,-130.162"/>
<polygon fill="midnightblue" stroke="midnightblue" points="171.802,-133.608 182.338,-132.491 173.405,-126.794 171.802,-133.608"/>
</g>
<!-- Node7 -->
<g id="node13" class="node"><title>Node7</title>
<a xlink:href="../../da/dda/classproject_1_1_schematic_pages_dock.html#a1579bb15820b2a1852224834196addf0" target="_top" xlink:title="activeSchematicChanged">
<polygon fill="white" stroke="black" points="163,-92.5 163,-113.5 291,-113.5 291,-92.5 163,-92.5"/>
<text text-anchor="middle" x="227" y="-100.5" font-family="Helvetica,sans-Serif" font-size="10.00">activeSchematicChanged</text>
</a>
</g>
<!-- Node1&#45;&gt;Node7 -->
<g id="edge12" class="edge"><title>Node1&#45;&gt;Node7</title>
<path fill="none" stroke="midnightblue" d="M114.08,-103C126.411,-103 139.622,-103 152.507,-103"/>
<polygon fill="midnightblue" stroke="midnightblue" points="152.747,-106.5 162.747,-103 152.747,-99.5001 152.747,-106.5"/>
</g>
<!-- Node8 -->
<g id="node15" class="node"><title>Node8</title>
<a xlink:href="../../da/dda/classproject_1_1_schematic_pages_dock.html#ad2c7a92a633583aceb505e380da3e136" target="_top" xlink:title="schematicRemoved">
<polygon fill="white" stroke="black" points="175,-52.5 175,-73.5 279,-73.5 279,-52.5 175,-52.5"/>
<text text-anchor="middle" x="227" y="-60.5" font-family="Helvetica,sans-Serif" font-size="10.00">schematicRemoved</text>
</a>
</g>
<!-- Node1&#45;&gt;Node8 -->
<g id="edge14" class="edge"><title>Node1&#45;&gt;Node8</title>
<path fill="none" stroke="midnightblue" d="M101.665,-92.4905C123.346,-87.3892 149.584,-81.2155 172.439,-75.8378"/>
<polygon fill="midnightblue" stroke="midnightblue" points="173.405,-79.2061 182.338,-73.5087 171.802,-72.3922 173.405,-79.2061"/>
</g>
<!-- Node9 -->
<g id="node17" class="node"><title>Node9</title>
<a xlink:href="../../dd/d24/classproject_1_1_schematic_editor.html#a3103bc1a5be28ead60bdc1e039298828" target="_top" xlink:title="project::SchematicEditor\l::getActiveSchematicIndex">
<polygon fill="white" stroke="black" points="160,-0 160,-34 294,-34 294,-0 160,-0"/>
<text text-anchor="start" x="168" y="-21" font-family="Helvetica,sans-Serif" font-size="10.00">project::SchematicEditor</text>
<text text-anchor="middle" x="227" y="-8" font-family="Helvetica,sans-Serif" font-size="10.00">::getActiveSchematicIndex</text>
</a>
</g>
<!-- Node1&#45;&gt;Node9 -->
<g id="edge16" class="edge"><title>Node1&#45;&gt;Node9</title>
<path fill="none" stroke="midnightblue" d="M70.8526,-92.4959C88.4826,-79.505 120.231,-57.3544 150,-43 153.717,-41.2075 157.591,-39.4851 161.535,-37.8403"/>
<polygon fill="midnightblue" stroke="midnightblue" points="162.83,-41.0923 170.83,-34.1467 160.245,-34.5871 162.83,-41.0923"/>
</g>
<!-- Node4 -->
<g id="node7" class="node"><title>Node4</title>
<a xlink:href="../../d2/d05/classproject_1_1_project.html#a6ce0e02fe65c34d73209b9a9660f8219" target="_top" xlink:title="Get the schematic page at a specific index. ">
<polygon fill="white" stroke="black" points="340.5,-178 340.5,-212 489.5,-212 489.5,-178 340.5,-178"/>
<text text-anchor="start" x="348.5" y="-199" font-family="Helvetica,sans-Serif" font-size="10.00">project::Project::getSchematic</text>
<text text-anchor="middle" x="415" y="-186" font-family="Helvetica,sans-Serif" font-size="10.00">ByIndex</text>
</a>
</g>
<!-- Node3&#45;&gt;Node4 -->
<g id="edge6" class="edge"><title>Node3&#45;&gt;Node4</title>
<path fill="none" stroke="midnightblue" d="M268.614,-153.593C280.095,-156.575 292.544,-159.862 304,-163 317.987,-166.832 332.929,-171.052 347.171,-175.136"/>
<polygon fill="midnightblue" stroke="midnightblue" points="346.32,-178.533 356.898,-177.935 348.255,-171.806 346.32,-178.533"/>
</g>
<!-- Node5 -->
<g id="node9" class="node"><title>Node5</title>
<a xlink:href="../../dd/d2d/classproject_1_1_schematic.html#ab0c96f485564e41206ce9a4ce42ba389" target="_top" xlink:title="project::Schematic\l::getName">
<polygon fill="white" stroke="black" points="366,-126 366,-160 464,-160 464,-126 366,-126"/>
<text text-anchor="start" x="374" y="-147" font-family="Helvetica,sans-Serif" font-size="10.00">project::Schematic</text>
<text text-anchor="middle" x="415" y="-134" font-family="Helvetica,sans-Serif" font-size="10.00">::getName</text>
</a>
</g>
<!-- Node3&#45;&gt;Node5 -->
<g id="edge8" class="edge"><title>Node3&#45;&gt;Node5</title>
<path fill="none" stroke="midnightblue" d="M271.553,-143C296.683,-143 328.404,-143 355.622,-143"/>
<polygon fill="midnightblue" stroke="midnightblue" points="355.811,-146.5 365.811,-143 355.81,-139.5 355.811,-146.5"/>
</g>
<!-- Node6 -->
<g id="node11" class="node"><title>Node6</title>
<a xlink:href="../../dd/d2d/classproject_1_1_schematic.html#a6a3b28c8f443798e4eb7d95327d49f3f" target="_top" xlink:title="project::Schematic\l::getIcon">
<polygon fill="white" stroke="black" points="366,-74 366,-108 464,-108 464,-74 366,-74"/>
<text text-anchor="start" x="374" y="-95" font-family="Helvetica,sans-Serif" font-size="10.00">project::Schematic</text>
<text text-anchor="middle" x="415" y="-82" font-family="Helvetica,sans-Serif" font-size="10.00">::getIcon</text>
</a>
</g>
<!-- Node3&#45;&gt;Node6 -->
<g id="edge10" class="edge"><title>Node3&#45;&gt;Node6</title>
<path fill="none" stroke="midnightblue" d="M268.614,-132.407C280.095,-129.425 292.544,-126.138 304,-123 320.978,-118.349 339.362,-113.125 356.193,-108.268"/>
<polygon fill="midnightblue" stroke="midnightblue" points="357.268,-111.601 365.901,-105.458 355.322,-104.877 357.268,-111.601"/>
</g>
</g>
</svg>
