<?xml version="1.0" encoding="UTF-8" standalone="no"?>
<!DOCTYPE svg PUBLIC "-//W3C//DTD SVG 1.1//EN"
 "http://www.w3.org/Graphics/SVG/1.1/DTD/svg11.dtd">
<!-- Generated by graphviz version 2.26.3 (20100126.1600)
 -->
<!-- Title: detachFromPin Pages: 1 -->
<svg width="264pt" height="94pt"
 viewBox="0.00 0.00 264.00 94.00" xmlns="http://www.w3.org/2000/svg" xmlns:xlink="http://www.w3.org/1999/xlink">
<g id="graph1" class="graph" transform="scale(1 1) rotate(0) translate(4 90)">
<title>detachFromPin</title>
<polygon fill="white" stroke="white" points="-4,5 -4,-90 261,-90 261,5 -4,5"/>
<!-- Node1 -->
<g id="node1" class="node"><title>Node1</title>
<polygon fill="#bfbfbf" stroke="black" points="0.5,-32.5 0.5,-53.5 83.5,-53.5 83.5,-32.5 0.5,-32.5"/>
<text text-anchor="middle" x="42" y="-40.5" font-family="Helvetica,sans-Serif" font-size="10.00">detachFromPin</text>
</g>
<!-- Node2 -->
<g id="node3" class="node"><title>Node2</title>
<a xlink:href="../../d1/d92/classproject_1_1_cmd_schematic_net_point_detach.html#a91ca7652063093da57fc1bd0141dcc95" target="_top" xlink:title="Redo/execute the command (and all child commands in normal order) ">
<polygon fill="white" stroke="black" points="120.5,-52 120.5,-86 255.5,-86 255.5,-52 120.5,-52"/>
<text text-anchor="start" x="128.5" y="-73" font-family="Helvetica,sans-Serif" font-size="10.00">project::CmdSchematicNet</text>
<text text-anchor="middle" x="188" y="-60" font-family="Helvetica,sans-Serif" font-size="10.00">PointDetach::redo</text>
</a>
</g>
<!-- Node1&#45;&gt;Node2 -->
<g id="edge2" class="edge"><title>Node1&#45;&gt;Node2</title>
<path fill="none" stroke="midnightblue" d="M93.6986,-52.2066C102.295,-53.7375 111.323,-55.3453 120.247,-56.9343"/>
<polygon fill="midnightblue" stroke="midnightblue" points="94.2965,-48.7581 83.8377,-50.4506 93.0692,-55.6497 94.2965,-48.7581"/>
</g>
<!-- Node3 -->
<g id="node5" class="node"><title>Node3</title>
<a xlink:href="../../d1/d92/classproject_1_1_cmd_schematic_net_point_detach.html#a19e8778088bfe76b16745470981bb913" target="_top" xlink:title="Undo the command (and all child commands in reverse order) ">
<polygon fill="white" stroke="black" points="120.5,-0 120.5,-34 255.5,-34 255.5,-0 120.5,-0"/>
<text text-anchor="start" x="128.5" y="-21" font-family="Helvetica,sans-Serif" font-size="10.00">project::CmdSchematicNet</text>
<text text-anchor="middle" x="188" y="-8" font-family="Helvetica,sans-Serif" font-size="10.00">PointDetach::undo</text>
</a>
</g>
<!-- Node1&#45;&gt;Node3 -->
<g id="edge4" class="edge"><title>Node1&#45;&gt;Node3</title>
<path fill="none" stroke="midnightblue" d="M93.6986,-33.7934C102.295,-32.2625 111.323,-30.6547 120.247,-29.0657"/>
<polygon fill="midnightblue" stroke="midnightblue" points="93.0692,-30.3503 83.8377,-35.5494 94.2965,-37.2419 93.0692,-30.3503"/>
</g>
</g>
</svg>
