<?xml version="1.0" encoding="UTF-8" standalone="no"?>
<!DOCTYPE svg PUBLIC "-//W3C//DTD SVG 1.1//EN"
 "http://www.w3.org/Graphics/SVG/1.1/DTD/svg11.dtd">
<!-- Generated by graphviz version 2.26.3 (20100126.1600)
 -->
<!-- Title: /home/travis/build/LibrePCB/LibrePCB/libs/librepcblibrary/cat/categorytreemodel.cpp Pages: 1 -->
<svg width="539pt" height="244pt"
 viewBox="0.00 0.00 539.07 244.00" xmlns="http://www.w3.org/2000/svg" xmlns:xlink="http://www.w3.org/1999/xlink">
<g id="graph1" class="graph" transform="scale(1 1) rotate(0) translate(4 240)">
<title>/home/travis/build/LibrePCB/LibrePCB/libs/librepcblibrary/cat/categorytreemodel.cpp</title>
<polygon fill="white" stroke="white" points="-4,5 -4,-240 536.074,-240 536.074,5 -4,5"/>
<!-- Node1 -->
<g id="node1" class="node"><title>Node1</title>
<polygon fill="#bfbfbf" stroke="black" points="30.0184,-188.5 30.0184,-235.5 228.018,-235.5 228.018,-188.5 30.0184,-188.5"/>
<text text-anchor="start" x="38.0184" y="-222.5" font-family="Helvetica,sans-Serif" font-size="10.00">/home/travis/build</text>
<text text-anchor="start" x="38.0184" y="-209.5" font-family="Helvetica,sans-Serif" font-size="10.00">/LibrePCB/LibrePCB/libs</text>
<text text-anchor="middle" x="129.018" y="-196.5" font-family="Helvetica,sans-Serif" font-size="10.00">/librepcblibrary/cat/categorytreemodel.cpp</text>
</g>
<!-- Node2 -->
<g id="node3" class="node"><title>Node2</title>
<polygon fill="white" stroke="#bfbfbf" points="201.018,-0.5 201.018,-21.5 249.018,-21.5 249.018,-0.5 201.018,-0.5"/>
<text text-anchor="middle" x="225.018" y="-8.5" font-family="Helvetica,sans-Serif" font-size="10.00">QtCore</text>
</g>
<!-- Node1&#45;&gt;Node2 -->
<g id="edge2" class="edge"><title>Node1&#45;&gt;Node2</title>
<path fill="none" stroke="midnightblue" d="M73.9504,-188.429C57.7895,-179.159 41.4146,-167.067 30.0184,-152 4.45411,-118.2 -12.4908,-91.0638 14.0184,-58 35.8071,-30.8239 136.935,-18.3474 190.888,-13.5415"/>
<polygon fill="midnightblue" stroke="midnightblue" points="191.345,-17.0154 201.013,-12.6805 190.752,-10.0406 191.345,-17.0154"/>
</g>
<!-- Node3 -->
<g id="node5" class="node"><title>Node3</title>
<polygon fill="white" stroke="#bfbfbf" points="38.5184,-130.5 38.5184,-151.5 101.518,-151.5 101.518,-130.5 38.5184,-130.5"/>
<text text-anchor="middle" x="70.0184" y="-138.5" font-family="Helvetica,sans-Serif" font-size="10.00">QtWidgets</text>
</g>
<!-- Node1&#45;&gt;Node3 -->
<g id="edge4" class="edge"><title>Node1&#45;&gt;Node3</title>
<path fill="none" stroke="midnightblue" d="M109.372,-188.358C101.548,-178.942 92.679,-168.27 85.3438,-159.442"/>
<polygon fill="midnightblue" stroke="midnightblue" points="87.9483,-157.1 78.8652,-151.646 82.5646,-161.574 87.9483,-157.1"/>
</g>
<!-- Node4 -->
<g id="node7" class="node"><title>Node4</title>
<a xlink:href="../../d1/ddf/categorytreemodel_8h.html" target="_top" xlink:title="categorytreemodel.h">
<polygon fill="white" stroke="black" points="22.5184,-65.5 22.5184,-86.5 127.518,-86.5 127.518,-65.5 22.5184,-65.5"/>
<text text-anchor="middle" x="75.0184" y="-73.5" font-family="Helvetica,sans-Serif" font-size="10.00">categorytreemodel.h</text>
</a>
</g>
<!-- Node1&#45;&gt;Node4 -->
<g id="edge6" class="edge"><title>Node1&#45;&gt;Node4</title>
<path fill="none" stroke="midnightblue" d="M125.774,-188.349C122.944,-171.591 118.011,-148.833 110.018,-130 104.738,-117.56 96.6332,-104.819 89.5518,-94.8389"/>
<polygon fill="midnightblue" stroke="midnightblue" points="92.1912,-92.5202 83.4468,-86.5381 86.5521,-96.6676 92.1912,-92.5202"/>
</g>
<!-- Node5 -->
<g id="node10" class="node"><title>Node5</title>
<a xlink:href="../../dd/d08/library_8h.html" target="_top" xlink:title="../library.h">
<polygon fill="white" stroke="black" points="173.018,-130.5 173.018,-151.5 233.018,-151.5 233.018,-130.5 173.018,-130.5"/>
<text text-anchor="middle" x="203.018" y="-138.5" font-family="Helvetica,sans-Serif" font-size="10.00">../library.h</text>
</a>
</g>
<!-- Node1&#45;&gt;Node5 -->
<g id="edge10" class="edge"><title>Node1&#45;&gt;Node5</title>
<path fill="none" stroke="midnightblue" d="M153.659,-188.358C163.776,-178.651 175.286,-167.608 184.645,-158.629"/>
<polygon fill="midnightblue" stroke="midnightblue" points="187.13,-161.095 191.922,-151.646 182.283,-156.044 187.13,-161.095"/>
</g>
<!-- Node9 -->
<g id="node21" class="node"><title>Node9</title>
<a xlink:href="../../d6/d3f/categorytreeitem_8h.html" target="_top" xlink:title="categorytreeitem.h">
<polygon fill="white" stroke="black" points="393.018,-130.5 393.018,-151.5 491.018,-151.5 491.018,-130.5 393.018,-130.5"/>
<text text-anchor="middle" x="442.018" y="-138.5" font-family="Helvetica,sans-Serif" font-size="10.00">categorytreeitem.h</text>
</a>
</g>
<!-- Node1&#45;&gt;Node9 -->
<g id="edge24" class="edge"><title>Node1&#45;&gt;Node9</title>
<path fill="none" stroke="midnightblue" d="M228.054,-189.535C280.061,-177.738 341.9,-163.711 385.69,-153.777"/>
<polygon fill="midnightblue" stroke="midnightblue" points="386.603,-157.159 395.581,-151.534 385.055,-150.333 386.603,-157.159"/>
</g>
<!-- Node4&#45;&gt;Node2 -->
<g id="edge8" class="edge"><title>Node4&#45;&gt;Node2</title>
<path fill="none" stroke="midnightblue" d="M99.4523,-65.412C124.404,-54.5996 163.332,-37.7308 191.229,-25.6422"/>
<polygon fill="midnightblue" stroke="midnightblue" points="192.811,-28.7711 200.595,-21.5835 190.028,-22.3482 192.811,-28.7711"/>
</g>
<!-- Node5&#45;&gt;Node2 -->
<g id="edge12" class="edge"><title>Node5&#45;&gt;Node2</title>
<path fill="none" stroke="midnightblue" d="M193.957,-130.252C186.979,-121.227 177.891,-107.652 174.018,-94 169.652,-78.6074 167.595,-72.6541 174.018,-58 179.343,-45.8522 189.528,-35.4564 199.405,-27.554"/>
<polygon fill="midnightblue" stroke="midnightblue" points="201.583,-30.2965 207.516,-21.5188 197.404,-24.6807 201.583,-30.2965"/>
</g>
<!-- Node6 -->
<g id="node13" class="node"><title>Node6</title>
<polygon fill="white" stroke="#bfbfbf" points="182.518,-65.5 182.518,-86.5 223.518,-86.5 223.518,-65.5 182.518,-65.5"/>
<text text-anchor="middle" x="203.018" y="-73.5" font-family="Helvetica,sans-Serif" font-size="10.00">QtSql</text>
</g>
<!-- Node5&#45;&gt;Node6 -->
<g id="edge14" class="edge"><title>Node5&#45;&gt;Node6</title>
<path fill="none" stroke="midnightblue" d="M203.018,-130.267C203.018,-121.18 203.018,-107.892 203.018,-96.7395"/>
<polygon fill="midnightblue" stroke="midnightblue" points="206.518,-96.5337 203.018,-86.5337 199.518,-96.5337 206.518,-96.5337"/>
</g>
<!-- Node7 -->
<g id="node15" class="node"><title>Node7</title>
<a xlink:href="../../d4/d03/exceptions_8h.html" target="_top" xlink:title="librepcbcommon/exceptions.h">
<polygon fill="white" stroke="black" points="369.018,-65.5 369.018,-86.5 515.018,-86.5 515.018,-65.5 369.018,-65.5"/>
<text text-anchor="middle" x="442.018" y="-73.5" font-family="Helvetica,sans-Serif" font-size="10.00">librepcbcommon/exceptions.h</text>
</a>
</g>
<!-- Node5&#45;&gt;Node7 -->
<g id="edge16" class="edge"><title>Node5&#45;&gt;Node7</title>
<path fill="none" stroke="midnightblue" d="M233.288,-132.768C273.628,-121.797 345.486,-102.253 393.451,-89.2087"/>
<polygon fill="midnightblue" stroke="midnightblue" points="394.572,-92.5309 403.303,-86.5292 392.735,-85.7763 394.572,-92.5309"/>
</g>
<!-- Node8 -->
<g id="node18" class="node"><title>Node8</title>
<a xlink:href="../../dd/dec/filepath_8h.html" target="_top" xlink:title="librepcbcommon/fileio\l/filepath.h">
<polygon fill="white" stroke="black" points="240.518,-59 240.518,-93 351.518,-93 351.518,-59 240.518,-59"/>
<text text-anchor="start" x="248.518" y="-80" font-family="Helvetica,sans-Serif" font-size="10.00">librepcbcommon/fileio</text>
<text text-anchor="middle" x="296.018" y="-67" font-family="Helvetica,sans-Serif" font-size="10.00">/filepath.h</text>
</a>
</g>
<!-- Node5&#45;&gt;Node8 -->
<g id="edge20" class="edge"><title>Node5&#45;&gt;Node8</title>
<path fill="none" stroke="midnightblue" d="M218.375,-130.267C230.564,-121.748 248.035,-109.537 263.319,-98.8541"/>
<polygon fill="midnightblue" stroke="midnightblue" points="265.347,-101.707 271.538,-93.1099 261.337,-95.9698 265.347,-101.707"/>
</g>
<!-- Node7&#45;&gt;Node2 -->
<g id="edge18" class="edge"><title>Node7&#45;&gt;Node2</title>
<path fill="none" stroke="midnightblue" d="M406.671,-65.412C365.817,-53.1747 299.064,-33.1795 258.86,-21.1369"/>
<polygon fill="midnightblue" stroke="midnightblue" points="259.826,-17.7728 249.243,-18.2561 257.818,-24.4784 259.826,-17.7728"/>
</g>
<!-- Node8&#45;&gt;Node2 -->
<g id="edge22" class="edge"><title>Node8&#45;&gt;Node2</title>
<path fill="none" stroke="midnightblue" d="M277.364,-58.922C267.249,-49.6619 254.759,-38.2273 244.516,-28.8503"/>
<polygon fill="midnightblue" stroke="midnightblue" points="246.611,-26.0231 236.872,-21.8521 241.885,-31.1862 246.611,-26.0231"/>
</g>
<!-- Node9&#45;&gt;Node2 -->
<g id="edge26" class="edge"><title>Node9&#45;&gt;Node2</title>
<path fill="none" stroke="midnightblue" d="M476.803,-130.441C494.26,-123.182 513.817,-111.605 524.018,-94 532.04,-80.1562 534.417,-70.1604 524.018,-58 506.971,-38.0633 334.606,-20.6331 259.591,-13.9287"/>
<polygon fill="midnightblue" stroke="midnightblue" points="259.528,-10.4097 249.259,-13.0183 258.913,-17.3827 259.528,-10.4097"/>
</g>
<!-- Node9&#45;&gt;Node7 -->
<g id="edge28" class="edge"><title>Node9&#45;&gt;Node7</title>
<path fill="none" stroke="midnightblue" d="M442.018,-130.267C442.018,-121.18 442.018,-107.892 442.018,-96.7395"/>
<polygon fill="midnightblue" stroke="midnightblue" points="445.518,-96.5337 442.018,-86.5337 438.518,-96.5337 445.518,-96.5337"/>
</g>
</g>
</svg>
