<?xml version="1.0" encoding="UTF-8" standalone="no"?>
<!DOCTYPE svg PUBLIC "-//W3C//DTD SVG 1.1//EN"
 "http://www.w3.org/Graphics/SVG/1.1/DTD/svg11.dtd">
<!-- Generated by graphviz version 2.26.3 (20100126.1600)
 -->
<!-- Title: /home/travis/build/LibrePCB/LibrePCB/libs/librepcbprojecteditor/dialogs/editnetclassesdialog.h Pages: 1 -->
<svg width="310pt" height="168pt"
 viewBox="0.00 0.00 310.00 168.00" xmlns="http://www.w3.org/2000/svg" xmlns:xlink="http://www.w3.org/1999/xlink">
<g id="graph1" class="graph" transform="scale(1 1) rotate(0) translate(4 164)">
<title>/home/travis/build/LibrePCB/LibrePCB/libs/librepcbprojecteditor/dialogs/editnetclassesdialog.h</title>
<polygon fill="white" stroke="white" points="-4,5 -4,-164 307,-164 307,5 -4,5"/>
<!-- Node1 -->
<g id="node1" class="node"><title>Node1</title>
<polygon fill="#bfbfbf" stroke="black" points="85,-99 85,-159 235,-159 235,-99 85,-99"/>
<text text-anchor="start" x="93" y="-146" font-family="Helvetica,sans-Serif" font-size="10.00">/home/travis/build</text>
<text text-anchor="start" x="93" y="-133" font-family="Helvetica,sans-Serif" font-size="10.00">/LibrePCB/LibrePCB/libs</text>
<text text-anchor="start" x="93" y="-120" font-family="Helvetica,sans-Serif" font-size="10.00">/librepcbprojecteditor</text>
<text text-anchor="middle" x="160" y="-107" font-family="Helvetica,sans-Serif" font-size="10.00">/dialogs/editnetclassesdialog.h</text>
</g>
<!-- Node2 -->
<g id="node3" class="node"><title>Node2</title>
<a xlink:href="../../d7/d60/editnetclassesdialog_8cpp.html" target="_top" xlink:title="/home/travis/build\l/LibrePCB/LibrePCB/libs\l/librepcbprojecteditor\l/dialogs/editnetclassesdialog.cpp">
<polygon fill="white" stroke="black" points="-0.5,-1 -0.5,-61 160.5,-61 160.5,-1 -0.5,-1"/>
<text text-anchor="start" x="7.5" y="-48" font-family="Helvetica,sans-Serif" font-size="10.00">/home/travis/build</text>
<text text-anchor="start" x="7.5" y="-35" font-family="Helvetica,sans-Serif" font-size="10.00">/LibrePCB/LibrePCB/libs</text>
<text text-anchor="start" x="7.5" y="-22" font-family="Helvetica,sans-Serif" font-size="10.00">/librepcbprojecteditor</text>
<text text-anchor="middle" x="80" y="-9" font-family="Helvetica,sans-Serif" font-size="10.00">/dialogs/editnetclassesdialog.cpp</text>
</a>
</g>
<!-- Node1&#45;&gt;Node2 -->
<g id="edge2" class="edge"><title>Node1&#45;&gt;Node2</title>
<path fill="none" stroke="midnightblue" d="M128.782,-90.7581C120.797,-80.9758 112.32,-70.5918 104.712,-61.2718"/>
<polygon fill="midnightblue" stroke="midnightblue" points="126.309,-93.2638 135.345,-98.7971 131.732,-88.8372 126.309,-93.2638"/>
</g>
<!-- Node3 -->
<g id="node5" class="node"><title>Node3</title>
<a xlink:href="../../da/d1e/projecteditor_8cpp.html" target="_top" xlink:title="/home/travis/build\l/LibrePCB/LibrePCB/libs\l/librepcbprojecteditor\l/projecteditor.cpp">
<polygon fill="white" stroke="black" points="177.5,-1 177.5,-61 302.5,-61 302.5,-1 177.5,-1"/>
<text text-anchor="start" x="185.5" y="-48" font-family="Helvetica,sans-Serif" font-size="10.00">/home/travis/build</text>
<text text-anchor="start" x="185.5" y="-35" font-family="Helvetica,sans-Serif" font-size="10.00">/LibrePCB/LibrePCB/libs</text>
<text text-anchor="start" x="185.5" y="-22" font-family="Helvetica,sans-Serif" font-size="10.00">/librepcbprojecteditor</text>
<text text-anchor="middle" x="240" y="-9" font-family="Helvetica,sans-Serif" font-size="10.00">/projecteditor.cpp</text>
</a>
</g>
<!-- Node1&#45;&gt;Node3 -->
<g id="edge4" class="edge"><title>Node1&#45;&gt;Node3</title>
<path fill="none" stroke="midnightblue" d="M191.218,-90.7581C199.203,-80.9758 207.68,-70.5918 215.288,-61.2718"/>
<polygon fill="midnightblue" stroke="midnightblue" points="188.268,-88.8372 184.655,-98.7971 193.691,-93.2638 188.268,-88.8372"/>
</g>
</g>
</svg>
