<?xml version="1.0" encoding="UTF-8" standalone="no"?>
<!DOCTYPE svg PUBLIC "-//W3C//DTD SVG 1.1//EN"
 "http://www.w3.org/Graphics/SVG/1.1/DTD/svg11.dtd">
<!-- Generated by graphviz version 2.26.3 (20100126.1600)
 -->
<!-- Title: removeFavoriteProject Pages: 1 -->
<svg width="362pt" height="160pt"
 viewBox="0.00 0.00 362.00 160.00" xmlns="http://www.w3.org/2000/svg" xmlns:xlink="http://www.w3.org/1999/xlink">
<g id="graph1" class="graph" transform="scale(1 1) rotate(0) translate(4 156)">
<title>removeFavoriteProject</title>
<polygon fill="white" stroke="white" points="-4,5 -4,-156 359,-156 359,5 -4,5"/>
<!-- Node1 -->
<g id="node1" class="node"><title>Node1</title>
<polygon fill="#bfbfbf" stroke="black" points="0.5,-72.5 0.5,-93.5 115.5,-93.5 115.5,-72.5 0.5,-72.5"/>
<text text-anchor="middle" x="58" y="-80.5" font-family="Helvetica,sans-Serif" font-size="10.00">removeFavoriteProject</text>
</g>
<!-- Node2 -->
<g id="node3" class="node"><title>Node2</title>
<a xlink:href="../../d1/def/class_control_panel.html#af48b18b1f3edf33ae8c178b192a0641c" target="_top" xlink:title="ControlPanel::on_project\lTreeView_customContextMenuRequested">
<polygon fill="white" stroke="black" points="152.5,-118 152.5,-152 353.5,-152 353.5,-118 152.5,-118"/>
<text text-anchor="start" x="160.5" y="-139" font-family="Helvetica,sans-Serif" font-size="10.00">ControlPanel::on_project</text>
<text text-anchor="middle" x="253" y="-126" font-family="Helvetica,sans-Serif" font-size="10.00">TreeView_customContextMenuRequested</text>
</a>
</g>
<!-- Node1&#45;&gt;Node2 -->
<g id="edge2" class="edge"><title>Node1&#45;&gt;Node2</title>
<path fill="none" stroke="midnightblue" d="M105.474,-96.3089C120.354,-100.433 136.847,-104.954 152,-109 163.021,-111.942 174.734,-115.011 186.132,-117.966"/>
<polygon fill="midnightblue" stroke="midnightblue" points="106.038,-92.8332 95.4661,-93.5284 104.164,-99.5777 106.038,-92.8332"/>
</g>
<!-- Node3 -->
<g id="node5" class="node"><title>Node3</title>
<a xlink:href="../../d1/def/class_control_panel.html#ac2ec613a69ae9cdaed6e1725e7fcf8c1" target="_top" xlink:title="ControlPanel::on_recentProjects\lListView_customContextMenuRequested">
<polygon fill="white" stroke="black" points="154.5,-66 154.5,-100 351.5,-100 351.5,-66 154.5,-66"/>
<text text-anchor="start" x="162.5" y="-87" font-family="Helvetica,sans-Serif" font-size="10.00">ControlPanel::on_recentProjects</text>
<text text-anchor="middle" x="253" y="-74" font-family="Helvetica,sans-Serif" font-size="10.00">ListView_customContextMenuRequested</text>
</a>
</g>
<!-- Node1&#45;&gt;Node3 -->
<g id="edge4" class="edge"><title>Node1&#45;&gt;Node3</title>
<path fill="none" stroke="midnightblue" d="M125.963,-83C135.205,-83 144.838,-83 154.484,-83"/>
<polygon fill="midnightblue" stroke="midnightblue" points="125.715,-79.5001 115.715,-83 125.715,-86.5001 125.715,-79.5001"/>
</g>
<!-- Node4 -->
<g id="node7" class="node"><title>Node4</title>
<a xlink:href="../../d1/def/class_control_panel.html#a804e8a8e78189f592203026d10154203" target="_top" xlink:title="ControlPanel::on_favorite\lProjectsListView_customContext\lMenuRequested">
<polygon fill="white" stroke="black" points="172,-0.5 172,-47.5 334,-47.5 334,-0.5 172,-0.5"/>
<text text-anchor="start" x="180" y="-34.5" font-family="Helvetica,sans-Serif" font-size="10.00">ControlPanel::on_favorite</text>
<text text-anchor="start" x="180" y="-21.5" font-family="Helvetica,sans-Serif" font-size="10.00">ProjectsListView_customContext</text>
<text text-anchor="middle" x="253" y="-8.5" font-family="Helvetica,sans-Serif" font-size="10.00">MenuRequested</text>
</a>
</g>
<!-- Node1&#45;&gt;Node4 -->
<g id="edge6" class="edge"><title>Node1&#45;&gt;Node4</title>
<path fill="none" stroke="midnightblue" d="M102.675,-69.4831C124.16,-62.9825 150.547,-54.9986 175.184,-47.5442"/>
<polygon fill="midnightblue" stroke="midnightblue" points="101.42,-66.2059 92.8621,-72.452 103.447,-72.9059 101.42,-66.2059"/>
</g>
</g>
</svg>
