<?xml version="1.0" encoding="UTF-8" standalone="no"?>
<!DOCTYPE svg PUBLIC "-//W3C//DTD SVG 1.1//EN"
 "http://www.w3.org/Graphics/SVG/1.1/DTD/svg11.dtd">
<!-- Generated by graphviz version 2.26.3 (20100126.1600)
 -->
<!-- Title: setupUi Pages: 1 -->
<svg width="246pt" height="56pt"
 viewBox="0.00 0.00 246.00 56.00" xmlns="http://www.w3.org/2000/svg" xmlns:xlink="http://www.w3.org/1999/xlink">
<g id="graph1" class="graph" transform="scale(1 1) rotate(0) translate(4 52)">
<title>setupUi</title>
<polygon fill="white" stroke="white" points="-4,5 -4,-52 243,-52 243,5 -4,5"/>
<!-- Node1 -->
<g id="node1" class="node"><title>Node1</title>
<polygon fill="#bfbfbf" stroke="black" points="0,-13.5 0,-34.5 50,-34.5 50,-13.5 0,-13.5"/>
<text text-anchor="middle" x="25" y="-21.5" font-family="Helvetica,sans-Serif" font-size="10.00">setupUi</text>
</g>
<!-- Node2 -->
<g id="node3" class="node"><title>Node2</title>
<a xlink:href="../../dd/db6/classproject_1_1_project_properties_editor_dialog.html#af5cc26273e06be73338cd888e6ec3e96" target="_top" xlink:title="project::ProjectProperties\lEditorDialog::ProjectProperties\lEditorDialog">
<polygon fill="white" stroke="black" points="86.5,-0.5 86.5,-47.5 237.5,-47.5 237.5,-0.5 86.5,-0.5"/>
<text text-anchor="start" x="94.5" y="-34.5" font-family="Helvetica,sans-Serif" font-size="10.00">project::ProjectProperties</text>
<text text-anchor="start" x="94.5" y="-21.5" font-family="Helvetica,sans-Serif" font-size="10.00">EditorDialog::ProjectProperties</text>
<text text-anchor="middle" x="162" y="-8.5" font-family="Helvetica,sans-Serif" font-size="10.00">EditorDialog</text>
</a>
</g>
<!-- Node1&#45;&gt;Node2 -->
<g id="edge2" class="edge"><title>Node1&#45;&gt;Node2</title>
<path fill="none" stroke="midnightblue" d="M60.2402,-24C68.3322,-24 77.2418,-24 86.3216,-24"/>
<polygon fill="midnightblue" stroke="midnightblue" points="60.1279,-20.5001 50.1279,-24 60.1279,-27.5001 60.1279,-20.5001"/>
</g>
</g>
</svg>
