<?xml version="1.0" encoding="UTF-8" standalone="no"?>
<!DOCTYPE svg PUBLIC "-//W3C//DTD SVG 1.1//EN"
 "http://www.w3.org/Graphics/SVG/1.1/DTD/svg11.dtd">
<!-- Generated by graphviz version 2.26.3 (20100126.1600)
 -->
<!-- Title: showControlPanel Pages: 1 -->
<svg width="410pt" height="302pt"
 viewBox="0.00 0.00 410.00 302.00" xmlns="http://www.w3.org/2000/svg" xmlns:xlink="http://www.w3.org/1999/xlink">
<g id="graph1" class="graph" transform="scale(1 1) rotate(0) translate(4 298)">
<title>showControlPanel</title>
<polygon fill="white" stroke="white" points="-4,5 -4,-298 407,-298 407,5 -4,5"/>
<!-- Node1 -->
<g id="node1" class="node"><title>Node1</title>
<polygon fill="#bfbfbf" stroke="black" points="0,-185.5 0,-206.5 96,-206.5 96,-185.5 0,-185.5"/>
<text text-anchor="middle" x="48" y="-193.5" font-family="Helvetica,sans-Serif" font-size="10.00">showControlPanel</text>
</g>
<!-- Node2 -->
<g id="node3" class="node"><title>Node2</title>
<a xlink:href="../../d1/def/class_control_panel.html#aed7117cdf440630b400bb7226a9801e9" target="_top" xlink:title="Create a new project and open it with the editor. ">
<polygon fill="white" stroke="black" points="132,-234.5 132,-255.5 206,-255.5 206,-234.5 132,-234.5"/>
<text text-anchor="middle" x="169" y="-242.5" font-family="Helvetica,sans-Serif" font-size="10.00">createProject</text>
</a>
</g>
<!-- Node1&#45;&gt;Node2 -->
<g id="edge2" class="edge"><title>Node1&#45;&gt;Node2</title>
<path fill="none" stroke="midnightblue" d="M83.451,-210.356C102.396,-218.028 125.32,-227.311 142.668,-234.337"/>
<polygon fill="midnightblue" stroke="midnightblue" points="84.5401,-207.021 73.9575,-206.512 81.9126,-213.509 84.5401,-207.021"/>
</g>
<!-- Node4 -->
<g id="node7" class="node"><title>Node4</title>
<a xlink:href="../../d1/def/class_control_panel.html#a00fbb51d24ad11e028629d3dcb376e94" target="_top" xlink:title="Open a project with the editor (or bring an already opened editor to front) ">
<polygon fill="white" stroke="black" points="135,-136.5 135,-157.5 203,-157.5 203,-136.5 135,-136.5"/>
<text text-anchor="middle" x="169" y="-144.5" font-family="Helvetica,sans-Serif" font-size="10.00">openProject</text>
</a>
</g>
<!-- Node1&#45;&gt;Node4 -->
<g id="edge6" class="edge"><title>Node1&#45;&gt;Node4</title>
<path fill="none" stroke="midnightblue" d="M83.451,-181.644C102.396,-173.972 125.32,-164.689 142.668,-157.663"/>
<polygon fill="midnightblue" stroke="midnightblue" points="81.9126,-178.491 73.9575,-185.488 84.5401,-184.979 81.9126,-178.491"/>
</g>
<!-- Node3 -->
<g id="node5" class="node"><title>Node3</title>
<a xlink:href="../../d1/def/class_control_panel.html#a7a18efb5b56dcbff9f550db0c651e210" target="_top" xlink:title="on_actionNew_Project\l_triggered">
<polygon fill="white" stroke="black" points="264.5,-260 264.5,-294 379.5,-294 379.5,-260 264.5,-260"/>
<text text-anchor="start" x="272.5" y="-281" font-family="Helvetica,sans-Serif" font-size="10.00">on_actionNew_Project</text>
<text text-anchor="middle" x="322" y="-268" font-family="Helvetica,sans-Serif" font-size="10.00">_triggered</text>
</a>
</g>
<!-- Node2&#45;&gt;Node3 -->
<g id="edge4" class="edge"><title>Node2&#45;&gt;Node3</title>
<path fill="none" stroke="midnightblue" d="M216.251,-254.883C231.477,-258.067 248.524,-261.632 264.409,-264.955"/>
<polygon fill="midnightblue" stroke="midnightblue" points="216.542,-251.368 206.037,-252.746 215.109,-258.219 216.542,-251.368"/>
</g>
<!-- Node5 -->
<g id="node9" class="node"><title>Node5</title>
<a xlink:href="../../d1/def/class_control_panel.html#a27d94f62f2537a17c6e2852e00560a19" target="_top" xlink:title="on_actionOpen_Project\l_triggered">
<polygon fill="white" stroke="black" points="263,-208 263,-242 381,-242 381,-208 263,-208"/>
<text text-anchor="start" x="271" y="-229" font-family="Helvetica,sans-Serif" font-size="10.00">on_actionOpen_Project</text>
<text text-anchor="middle" x="322" y="-216" font-family="Helvetica,sans-Serif" font-size="10.00">_triggered</text>
</a>
</g>
<!-- Node4&#45;&gt;Node5 -->
<g id="edge8" class="edge"><title>Node4&#45;&gt;Node5</title>
<path fill="none" stroke="midnightblue" d="M189.426,-164.134C203.496,-175.267 223.011,-189.436 242,-199 248.521,-202.285 255.547,-205.278 262.632,-207.969"/>
<polygon fill="midnightblue" stroke="midnightblue" points="191.399,-161.228 181.422,-157.662 186.998,-166.672 191.399,-161.228"/>
</g>
<!-- Node6 -->
<g id="node11" class="node"><title>Node6</title>
<a xlink:href="../../d1/def/class_control_panel.html#aa9b5edbaaad9ac1ff6416a5656c36d5e" target="_top" xlink:title="on_projectTreeView\l_doubleClicked">
<polygon fill="white" stroke="black" points="270.5,-156 270.5,-190 373.5,-190 373.5,-156 270.5,-156"/>
<text text-anchor="start" x="278.5" y="-177" font-family="Helvetica,sans-Serif" font-size="10.00">on_projectTreeView</text>
<text text-anchor="middle" x="322" y="-164" font-family="Helvetica,sans-Serif" font-size="10.00">_doubleClicked</text>
</a>
</g>
<!-- Node4&#45;&gt;Node6 -->
<g id="edge10" class="edge"><title>Node4&#45;&gt;Node6</title>
<path fill="none" stroke="midnightblue" d="M213.452,-154.554C231.25,-157.578 251.875,-161.083 270.335,-164.22"/>
<polygon fill="midnightblue" stroke="midnightblue" points="213.781,-151.06 203.336,-152.835 212.608,-157.961 213.781,-151.06"/>
</g>
<!-- Node7 -->
<g id="node13" class="node"><title>Node7</title>
<a xlink:href="../../d1/def/class_control_panel.html#af48b18b1f3edf33ae8c178b192a0641c" target="_top" xlink:title="on_projectTreeView\l_customContextMenuRequested">
<polygon fill="white" stroke="black" points="242,-104 242,-138 402,-138 402,-104 242,-104"/>
<text text-anchor="start" x="250" y="-125" font-family="Helvetica,sans-Serif" font-size="10.00">on_projectTreeView</text>
<text text-anchor="middle" x="322" y="-112" font-family="Helvetica,sans-Serif" font-size="10.00">_customContextMenuRequested</text>
</a>
</g>
<!-- Node4&#45;&gt;Node7 -->
<g id="edge12" class="edge"><title>Node4&#45;&gt;Node7</title>
<path fill="none" stroke="midnightblue" d="M213.478,-139.442C222.43,-137.92 232.095,-136.278 241.839,-134.622"/>
<polygon fill="midnightblue" stroke="midnightblue" points="212.608,-136.039 203.336,-141.165 213.781,-142.94 212.608,-136.039"/>
</g>
<!-- Node8 -->
<g id="node15" class="node"><title>Node8</title>
<a xlink:href="../../d1/def/class_control_panel.html#a57d50dbdf1e82756a9e680c3f908c2a7" target="_top" xlink:title="on_recentProjectsListView\l_clicked">
<polygon fill="white" stroke="black" points="255.5,-52 255.5,-86 388.5,-86 388.5,-52 255.5,-52"/>
<text text-anchor="start" x="263.5" y="-73" font-family="Helvetica,sans-Serif" font-size="10.00">on_recentProjectsListView</text>
<text text-anchor="middle" x="322" y="-60" font-family="Helvetica,sans-Serif" font-size="10.00">_clicked</text>
</a>
</g>
<!-- Node4&#45;&gt;Node8 -->
<g id="edge14" class="edge"><title>Node4&#45;&gt;Node8</title>
<path fill="none" stroke="midnightblue" d="M189.426,-129.866C203.496,-118.733 223.011,-104.564 242,-95 248.521,-91.7152 255.547,-88.7218 262.632,-86.0311"/>
<polygon fill="midnightblue" stroke="midnightblue" points="186.998,-127.328 181.422,-136.338 191.399,-132.772 186.998,-127.328"/>
</g>
<!-- Node9 -->
<g id="node17" class="node"><title>Node9</title>
<a xlink:href="../../d1/def/class_control_panel.html#a65af77641a3437339023cdcef2d2465e" target="_top" xlink:title="on_favoriteProjectsListView\l_clicked">
<polygon fill="white" stroke="black" points="253,-0 253,-34 391,-34 391,-0 253,-0"/>
<text text-anchor="start" x="261" y="-21" font-family="Helvetica,sans-Serif" font-size="10.00">on_favoriteProjectsListView</text>
<text text-anchor="middle" x="322" y="-8" font-family="Helvetica,sans-Serif" font-size="10.00">_clicked</text>
</a>
</g>
<!-- Node4&#45;&gt;Node9 -->
<g id="edge16" class="edge"><title>Node4&#45;&gt;Node9</title>
<path fill="none" stroke="midnightblue" d="M177.998,-127.165C189.582,-103.776 211.867,-65.2724 242,-43 246.58,-39.6146 251.622,-36.6573 256.877,-34.0762"/>
<polygon fill="midnightblue" stroke="midnightblue" points="174.713,-125.922 173.567,-136.454 181.031,-128.936 174.713,-125.922"/>
</g>
</g>
</svg>
