<?xml version="1.0" encoding="UTF-8" standalone="no"?>
<!DOCTYPE svg PUBLIC "-//W3C//DTD SVG 1.1//EN"
 "http://www.w3.org/Graphics/SVG/1.1/DTD/svg11.dtd">
<!-- Generated by graphviz version 2.26.3 (20100126.1600)
 -->
<!-- Title: getPosition Pages: 1 -->
<svg width="570pt" height="160pt"
 viewBox="0.00 0.00 570.00 160.00" xmlns="http://www.w3.org/2000/svg" xmlns:xlink="http://www.w3.org/1999/xlink">
<g id="graph1" class="graph" transform="scale(1 1) rotate(0) translate(4 156)">
<title>getPosition</title>
<polygon fill="white" stroke="white" points="-4,5 -4,-156 567,-156 567,5 -4,5"/>
<!-- Node1 -->
<g id="node1" class="node"><title>Node1</title>
<polygon fill="#bfbfbf" stroke="black" points="0.5,-32.5 0.5,-53.5 65.5,-53.5 65.5,-32.5 0.5,-32.5"/>
<text text-anchor="middle" x="33" y="-40.5" font-family="Helvetica,sans-Serif" font-size="10.00">getPosition</text>
</g>
<!-- Node2 -->
<g id="node3" class="node"><title>Node2</title>
<a xlink:href="../../dc/d87/classproject_1_1_b_g_i___footprint.html#abbb5db1b700a86caa85ff4c0c13142f2" target="_top" xlink:title="project::BGI_Footprint\l::updateCacheAndRepaint">
<polygon fill="white" stroke="black" points="102.5,-52 102.5,-86 233.5,-86 233.5,-52 102.5,-52"/>
<text text-anchor="start" x="110.5" y="-73" font-family="Helvetica,sans-Serif" font-size="10.00">project::BGI_Footprint</text>
<text text-anchor="middle" x="168" y="-60" font-family="Helvetica,sans-Serif" font-size="10.00">::updateCacheAndRepaint</text>
</a>
</g>
<!-- Node1&#45;&gt;Node2 -->
<g id="edge2" class="edge"><title>Node1&#45;&gt;Node2</title>
<path fill="none" stroke="midnightblue" d="M75.6774,-51.2194C84.1564,-52.8523 93.2425,-54.6023 102.286,-56.3439"/>
<polygon fill="midnightblue" stroke="midnightblue" points="76.1612,-47.7483 65.6797,-49.2939 74.8373,-54.622 76.1612,-47.7483"/>
</g>
<!-- Node7 -->
<g id="node15" class="node"><title>Node7</title>
<a xlink:href="../../dc/d87/classproject_1_1_b_g_i___footprint.html#aa77fc5d2da89e1f09b09f7c6724ed721" target="_top" xlink:title="project::BGI_Footprint\l::paint">
<polygon fill="white" stroke="black" points="111.5,-0 111.5,-34 224.5,-34 224.5,-0 111.5,-0"/>
<text text-anchor="start" x="119.5" y="-21" font-family="Helvetica,sans-Serif" font-size="10.00">project::BGI_Footprint</text>
<text text-anchor="middle" x="168" y="-8" font-family="Helvetica,sans-Serif" font-size="10.00">::paint</text>
</a>
</g>
<!-- Node1&#45;&gt;Node7 -->
<g id="edge16" class="edge"><title>Node1&#45;&gt;Node7</title>
<path fill="none" stroke="midnightblue" d="M75.7286,-34.7708C87.0494,-32.5905 99.4495,-30.2023 111.383,-27.9039"/>
<polygon fill="midnightblue" stroke="midnightblue" points="74.8373,-31.378 65.6797,-36.7061 76.1612,-38.2517 74.8373,-31.378"/>
</g>
<!-- Node3 -->
<g id="node5" class="node"><title>Node3</title>
<a xlink:href="../../da/d96/classproject_1_1_b_i___footprint.html#a80db668afe30ac6b6c9e5eb061b61cfc" target="_top" xlink:title="project::BI_Footprint\l::componentInstanceAttributes\lChanged">
<polygon fill="white" stroke="black" points="270,-104.5 270,-151.5 420,-151.5 420,-104.5 270,-104.5"/>
<text text-anchor="start" x="278" y="-138.5" font-family="Helvetica,sans-Serif" font-size="10.00">project::BI_Footprint</text>
<text text-anchor="start" x="278" y="-125.5" font-family="Helvetica,sans-Serif" font-size="10.00">::componentInstanceAttributes</text>
<text text-anchor="middle" x="345" y="-112.5" font-family="Helvetica,sans-Serif" font-size="10.00">Changed</text>
</a>
</g>
<!-- Node2&#45;&gt;Node3 -->
<g id="edge4" class="edge"><title>Node2&#45;&gt;Node3</title>
<path fill="none" stroke="midnightblue" d="M228.702,-89.2339C243.448,-94.1495 259.341,-99.4471 274.499,-104.5"/>
<polygon fill="midnightblue" stroke="midnightblue" points="229.789,-85.9072 219.196,-86.0652 227.576,-92.548 229.789,-85.9072"/>
</g>
<!-- Node5 -->
<g id="node9" class="node"><title>Node5</title>
<a xlink:href="../../da/d96/classproject_1_1_b_i___footprint.html#a271c63e12acd19bccc27bf6861938df2" target="_top" xlink:title="project::BI_Footprint\l::componentInstanceMoved">
<polygon fill="white" stroke="black" points="276.5,-52 276.5,-86 413.5,-86 413.5,-52 276.5,-52"/>
<text text-anchor="start" x="284.5" y="-73" font-family="Helvetica,sans-Serif" font-size="10.00">project::BI_Footprint</text>
<text text-anchor="middle" x="345" y="-60" font-family="Helvetica,sans-Serif" font-size="10.00">::componentInstanceMoved</text>
</a>
</g>
<!-- Node2&#45;&gt;Node5 -->
<g id="edge8" class="edge"><title>Node2&#45;&gt;Node5</title>
<path fill="none" stroke="midnightblue" d="M243.929,-69C254.747,-69 265.821,-69 276.487,-69"/>
<polygon fill="midnightblue" stroke="midnightblue" points="243.657,-65.5001 233.657,-69 243.657,-72.5001 243.657,-65.5001"/>
</g>
<!-- Node6 -->
<g id="node12" class="node"><title>Node6</title>
<a xlink:href="../../da/d96/classproject_1_1_b_i___footprint.html#ab6c0fcabcb9d5a38a27ed7aeb34f0958" target="_top" xlink:title="project::BI_Footprint\l::componentInstanceRotated">
<polygon fill="white" stroke="black" points="273.5,-0 273.5,-34 416.5,-34 416.5,-0 273.5,-0"/>
<text text-anchor="start" x="281.5" y="-21" font-family="Helvetica,sans-Serif" font-size="10.00">project::BI_Footprint</text>
<text text-anchor="middle" x="345" y="-8" font-family="Helvetica,sans-Serif" font-size="10.00">::componentInstanceRotated</text>
</a>
</g>
<!-- Node2&#45;&gt;Node6 -->
<g id="edge12" class="edge"><title>Node2&#45;&gt;Node6</title>
<path fill="none" stroke="midnightblue" d="M235.747,-49.0971C252.617,-44.1407 270.555,-38.871 286.913,-34.065"/>
<polygon fill="midnightblue" stroke="midnightblue" points="234.564,-45.7964 225.956,-51.9733 236.538,-52.5125 234.564,-45.7964"/>
</g>
<!-- Node4 -->
<g id="node7" class="node"><title>Node4</title>
<a xlink:href="../../da/d96/classproject_1_1_b_i___footprint.html#a02fd73d861ef2e4aabb38c0c9ff82947" target="_top" xlink:title="project::BI_Footprint\l::init">
<polygon fill="white" stroke="black" points="456.5,-52 456.5,-86 561.5,-86 561.5,-52 456.5,-52"/>
<text text-anchor="start" x="464.5" y="-73" font-family="Helvetica,sans-Serif" font-size="10.00">project::BI_Footprint</text>
<text text-anchor="middle" x="509" y="-60" font-family="Helvetica,sans-Serif" font-size="10.00">::init</text>
</a>
</g>
<!-- Node3&#45;&gt;Node4 -->
<g id="edge6" class="edge"><title>Node3&#45;&gt;Node4</title>
<path fill="none" stroke="midnightblue" d="M420.366,-100.887C434.329,-95.8635 448.55,-90.7473 461.396,-86.1259"/>
<polygon fill="midnightblue" stroke="midnightblue" points="418.985,-97.6638 410.76,-104.342 421.355,-104.251 418.985,-97.6638"/>
</g>
<!-- Node5&#45;&gt;Node4 -->
<g id="edge10" class="edge"><title>Node5&#45;&gt;Node4</title>
<path fill="none" stroke="midnightblue" d="M423.729,-69C434.808,-69 445.966,-69 456.394,-69"/>
<polygon fill="midnightblue" stroke="midnightblue" points="423.601,-65.5001 413.601,-69 423.6,-72.5001 423.601,-65.5001"/>
</g>
<!-- Node6&#45;&gt;Node4 -->
<g id="edge14" class="edge"><title>Node6&#45;&gt;Node4</title>
<path fill="none" stroke="midnightblue" d="M408.408,-37.1051C424.24,-42.1249 441.048,-47.4541 456.298,-52.2898"/>
<polygon fill="midnightblue" stroke="midnightblue" points="409.29,-33.7129 398.7,-34.0267 407.174,-40.3856 409.29,-33.7129"/>
</g>
</g>
</svg>
