<?xml version="1.0" encoding="UTF-8" standalone="no"?>
<!DOCTYPE svg PUBLIC "-//W3C//DTD SVG 1.1//EN"
 "http://www.w3.org/Graphics/SVG/1.1/DTD/svg11.dtd">
<!-- Generated by graphviz version 2.26.3 (20100126.1600)
 -->
<!-- Title: getHeight Pages: 1 -->
<svg width="564pt" height="212pt"
 viewBox="0.00 0.00 564.00 212.00" xmlns="http://www.w3.org/2000/svg" xmlns:xlink="http://www.w3.org/1999/xlink">
<g id="graph1" class="graph" transform="scale(1 1) rotate(0) translate(4 208)">
<title>getHeight</title>
<polygon fill="white" stroke="white" points="-4,5 -4,-208 561,-208 561,5 -4,5"/>
<!-- Node1 -->
<g id="node1" class="node"><title>Node1</title>
<polygon fill="#bfbfbf" stroke="black" points="0.5,-58.5 0.5,-79.5 59.5,-79.5 59.5,-58.5 0.5,-58.5"/>
<text text-anchor="middle" x="30" y="-66.5" font-family="Helvetica,sans-Serif" font-size="10.00">getHeight</text>
</g>
<!-- Node2 -->
<g id="node3" class="node"><title>Node2</title>
<a xlink:href="../../dc/d87/classproject_1_1_b_g_i___footprint.html#abbb5db1b700a86caa85ff4c0c13142f2" target="_top" xlink:title="project::BGI_Footprint\l::updateCacheAndRepaint">
<polygon fill="white" stroke="black" points="96.5,-78 96.5,-112 227.5,-112 227.5,-78 96.5,-78"/>
<text text-anchor="start" x="104.5" y="-99" font-family="Helvetica,sans-Serif" font-size="10.00">project::BGI_Footprint</text>
<text text-anchor="middle" x="162" y="-86" font-family="Helvetica,sans-Serif" font-size="10.00">::updateCacheAndRepaint</text>
</a>
</g>
<!-- Node1&#45;&gt;Node2 -->
<g id="edge2" class="edge"><title>Node1&#45;&gt;Node2</title>
<path fill="none" stroke="midnightblue" d="M69.5547,-76.7911C78.0179,-78.4581 87.1763,-80.262 96.3263,-82.0643"/>
<polygon fill="midnightblue" stroke="midnightblue" points="70.1113,-73.3335 59.6234,-74.8349 68.7584,-80.2016 70.1113,-73.3335"/>
</g>
<!-- Node8 -->
<g id="node18" class="node"><title>Node8</title>
<a xlink:href="../../dc/d87/classproject_1_1_b_g_i___footprint.html#aa77fc5d2da89e1f09b09f7c6724ed721" target="_top" xlink:title="project::BGI_Footprint\l::paint">
<polygon fill="white" stroke="black" points="105.5,-26 105.5,-60 218.5,-60 218.5,-26 105.5,-26"/>
<text text-anchor="start" x="113.5" y="-47" font-family="Helvetica,sans-Serif" font-size="10.00">project::BGI_Footprint</text>
<text text-anchor="middle" x="162" y="-34" font-family="Helvetica,sans-Serif" font-size="10.00">::paint</text>
</a>
</g>
<!-- Node1&#45;&gt;Node8 -->
<g id="edge20" class="edge"><title>Node1&#45;&gt;Node8</title>
<path fill="none" stroke="midnightblue" d="M69.5779,-61.2044C80.8459,-58.9849 93.3445,-56.5231 105.414,-54.1457"/>
<polygon fill="midnightblue" stroke="midnightblue" points="68.7584,-57.7984 59.6234,-63.1651 70.1113,-64.6665 68.7584,-57.7984"/>
</g>
<!-- Node3 -->
<g id="node5" class="node"><title>Node3</title>
<a xlink:href="../../da/d96/classproject_1_1_b_i___footprint.html#a80db668afe30ac6b6c9e5eb061b61cfc" target="_top" xlink:title="project::BI_Footprint\l::componentInstanceAttributes\lChanged">
<polygon fill="white" stroke="black" points="264,-156.5 264,-203.5 414,-203.5 414,-156.5 264,-156.5"/>
<text text-anchor="start" x="272" y="-190.5" font-family="Helvetica,sans-Serif" font-size="10.00">project::BI_Footprint</text>
<text text-anchor="start" x="272" y="-177.5" font-family="Helvetica,sans-Serif" font-size="10.00">::componentInstanceAttributes</text>
<text text-anchor="middle" x="339" y="-164.5" font-family="Helvetica,sans-Serif" font-size="10.00">Changed</text>
</a>
</g>
<!-- Node2&#45;&gt;Node3 -->
<g id="edge4" class="edge"><title>Node2&#45;&gt;Node3</title>
<path fill="none" stroke="midnightblue" d="M203.388,-116.775C221.823,-126.299 243.875,-137.452 264,-147 270.555,-150.11 277.474,-153.29 284.354,-156.39"/>
<polygon fill="midnightblue" stroke="midnightblue" points="204.869,-113.6 194.381,-112.103 201.646,-119.814 204.869,-113.6"/>
</g>
<!-- Node5 -->
<g id="node9" class="node"><title>Node5</title>
<a xlink:href="../../da/d96/classproject_1_1_b_i___footprint.html#a271c63e12acd19bccc27bf6861938df2" target="_top" xlink:title="project::BI_Footprint\l::componentInstanceMoved">
<polygon fill="white" stroke="black" points="270.5,-104 270.5,-138 407.5,-138 407.5,-104 270.5,-104"/>
<text text-anchor="start" x="278.5" y="-125" font-family="Helvetica,sans-Serif" font-size="10.00">project::BI_Footprint</text>
<text text-anchor="middle" x="339" y="-112" font-family="Helvetica,sans-Serif" font-size="10.00">::componentInstanceMoved</text>
</a>
</g>
<!-- Node2&#45;&gt;Node5 -->
<g id="edge8" class="edge"><title>Node2&#45;&gt;Node5</title>
<path fill="none" stroke="midnightblue" d="M237.594,-106.104C248.519,-107.709 259.712,-109.353 270.487,-110.936"/>
<polygon fill="midnightblue" stroke="midnightblue" points="238.059,-102.635 227.657,-104.644 237.042,-109.561 238.059,-102.635"/>
</g>
<!-- Node6 -->
<g id="node12" class="node"><title>Node6</title>
<a xlink:href="../../da/d96/classproject_1_1_b_i___footprint.html#ab6c0fcabcb9d5a38a27ed7aeb34f0958" target="_top" xlink:title="project::BI_Footprint\l::componentInstanceRotated">
<polygon fill="white" stroke="black" points="267.5,-52 267.5,-86 410.5,-86 410.5,-52 267.5,-52"/>
<text text-anchor="start" x="275.5" y="-73" font-family="Helvetica,sans-Serif" font-size="10.00">project::BI_Footprint</text>
<text text-anchor="middle" x="339" y="-60" font-family="Helvetica,sans-Serif" font-size="10.00">::componentInstanceRotated</text>
</a>
</g>
<!-- Node2&#45;&gt;Node6 -->
<g id="edge12" class="edge"><title>Node2&#45;&gt;Node6</title>
<path fill="none" stroke="midnightblue" d="M237.743,-83.8739C247.515,-82.4385 257.499,-80.972 267.204,-79.5463"/>
<polygon fill="midnightblue" stroke="midnightblue" points="237.042,-80.4393 227.657,-85.3555 238.059,-87.3649 237.042,-80.4393"/>
</g>
<!-- Node7 -->
<g id="node15" class="node"><title>Node7</title>
<a xlink:href="../../da/d96/classproject_1_1_b_i___footprint.html#ae00c60cb068f7bb3703a6c84450afeaf" target="_top" xlink:title="project::BI_Footprint\l::componentInstanceMirrored">
<polygon fill="white" stroke="black" points="267.5,-0 267.5,-34 410.5,-34 410.5,-0 267.5,-0"/>
<text text-anchor="start" x="275.5" y="-21" font-family="Helvetica,sans-Serif" font-size="10.00">project::BI_Footprint</text>
<text text-anchor="middle" x="339" y="-8" font-family="Helvetica,sans-Serif" font-size="10.00">::componentInstanceMirrored</text>
</a>
</g>
<!-- Node2&#45;&gt;Node7 -->
<g id="edge16" class="edge"><title>Node2&#45;&gt;Node7</title>
<path fill="none" stroke="midnightblue" d="M218.658,-73.776C221.856,-72.2399 224.991,-70.6451 228,-69 245.317,-59.5313 246.49,-52.1068 264,-43 270.235,-39.757 276.963,-36.7742 283.739,-34.0767"/>
<polygon fill="midnightblue" stroke="midnightblue" points="217.174,-70.6059 209.53,-77.942 220.081,-76.9741 217.174,-70.6059"/>
</g>
<!-- Node4 -->
<g id="node7" class="node"><title>Node4</title>
<a xlink:href="../../da/d96/classproject_1_1_b_i___footprint.html#a02fd73d861ef2e4aabb38c0c9ff82947" target="_top" xlink:title="project::BI_Footprint\l::init">
<polygon fill="white" stroke="black" points="450.5,-78 450.5,-112 555.5,-112 555.5,-78 450.5,-78"/>
<text text-anchor="start" x="458.5" y="-99" font-family="Helvetica,sans-Serif" font-size="10.00">project::BI_Footprint</text>
<text text-anchor="middle" x="503" y="-86" font-family="Helvetica,sans-Serif" font-size="10.00">::init</text>
</a>
</g>
<!-- Node3&#45;&gt;Node4 -->
<g id="edge6" class="edge"><title>Node3&#45;&gt;Node4</title>
<path fill="none" stroke="midnightblue" d="M403.845,-152.027C407.298,-150.364 410.701,-148.682 414,-147 435.043,-136.267 458.048,-122.778 475.397,-112.227"/>
<polygon fill="midnightblue" stroke="midnightblue" points="402.179,-148.943 394.629,-156.376 405.166,-155.274 402.179,-148.943"/>
</g>
<!-- Node5&#45;&gt;Node4 -->
<g id="edge10" class="edge"><title>Node5&#45;&gt;Node4</title>
<path fill="none" stroke="midnightblue" d="M417.729,-108.519C428.808,-106.762 439.966,-104.993 450.394,-103.34"/>
<polygon fill="midnightblue" stroke="midnightblue" points="416.929,-105.102 407.601,-110.124 418.025,-112.015 416.929,-105.102"/>
</g>
<!-- Node6&#45;&gt;Node4 -->
<g id="edge14" class="edge"><title>Node6&#45;&gt;Node4</title>
<path fill="none" stroke="midnightblue" d="M420.918,-81.987C430.926,-83.5736 440.935,-85.1604 450.35,-86.653"/>
<polygon fill="midnightblue" stroke="midnightblue" points="421.358,-78.513 410.933,-80.404 420.261,-85.4267 421.358,-78.513"/>
</g>
<!-- Node7&#45;&gt;Node4 -->
<g id="edge18" class="edge"><title>Node7&#45;&gt;Node4</title>
<path fill="none" stroke="midnightblue" d="M401.998,-37.8204C406.094,-39.4868 410.127,-41.2179 414,-43 435.947,-53.0983 459.497,-67.0068 476.856,-77.8987"/>
<polygon fill="midnightblue" stroke="midnightblue" points="402.956,-34.4369 392.368,-34.056 400.407,-40.9565 402.956,-34.4369"/>
</g>
</g>
</svg>
