<?xml version="1.0" encoding="UTF-8" standalone="no"?>
<!DOCTYPE svg PUBLIC "-//W3C//DTD SVG 1.1//EN"
 "http://www.w3.org/Graphics/SVG/1.1/DTD/svg11.dtd">
<!-- Generated by graphviz version 2.26.3 (20100126.1600)
 -->
<!-- Title: getAlign Pages: 1 -->
<svg width="556pt" height="160pt"
 viewBox="0.00 0.00 556.00 160.00" xmlns="http://www.w3.org/2000/svg" xmlns:xlink="http://www.w3.org/1999/xlink">
<g id="graph1" class="graph" transform="scale(1 1) rotate(0) translate(4 156)">
<title>getAlign</title>
<polygon fill="white" stroke="white" points="-4,5 -4,-156 553,-156 553,5 -4,5"/>
<!-- Node1 -->
<g id="node1" class="node"><title>Node1</title>
<polygon fill="#bfbfbf" stroke="black" points="0,-58.5 0,-79.5 52,-79.5 52,-58.5 0,-58.5"/>
<text text-anchor="middle" x="26" y="-66.5" font-family="Helvetica,sans-Serif" font-size="10.00">getAlign</text>
</g>
<!-- Node2 -->
<g id="node3" class="node"><title>Node2</title>
<a xlink:href="../../dc/d87/classproject_1_1_b_g_i___footprint.html#abbb5db1b700a86caa85ff4c0c13142f2" target="_top" xlink:title="project::BGI_Footprint\l::updateCacheAndRepaint">
<polygon fill="white" stroke="black" points="88.5,-52 88.5,-86 219.5,-86 219.5,-52 88.5,-52"/>
<text text-anchor="start" x="96.5" y="-73" font-family="Helvetica,sans-Serif" font-size="10.00">project::BGI_Footprint</text>
<text text-anchor="middle" x="154" y="-60" font-family="Helvetica,sans-Serif" font-size="10.00">::updateCacheAndRepaint</text>
</a>
</g>
<!-- Node1&#45;&gt;Node2 -->
<g id="edge2" class="edge"><title>Node1&#45;&gt;Node2</title>
<path fill="none" stroke="midnightblue" d="M62.4477,-69C70.6019,-69 79.4936,-69 88.4262,-69"/>
<polygon fill="midnightblue" stroke="midnightblue" points="62.2116,-65.5001 52.2116,-69 62.2115,-72.5001 62.2116,-65.5001"/>
</g>
<!-- Node3 -->
<g id="node5" class="node"><title>Node3</title>
<a xlink:href="../../da/d96/classproject_1_1_b_i___footprint.html#a80db668afe30ac6b6c9e5eb061b61cfc" target="_top" xlink:title="project::BI_Footprint\l::componentInstanceAttributes\lChanged">
<polygon fill="white" stroke="black" points="256,-104.5 256,-151.5 406,-151.5 406,-104.5 256,-104.5"/>
<text text-anchor="start" x="264" y="-138.5" font-family="Helvetica,sans-Serif" font-size="10.00">project::BI_Footprint</text>
<text text-anchor="start" x="264" y="-125.5" font-family="Helvetica,sans-Serif" font-size="10.00">::componentInstanceAttributes</text>
<text text-anchor="middle" x="331" y="-112.5" font-family="Helvetica,sans-Serif" font-size="10.00">Changed</text>
</a>
</g>
<!-- Node2&#45;&gt;Node3 -->
<g id="edge4" class="edge"><title>Node2&#45;&gt;Node3</title>
<path fill="none" stroke="midnightblue" d="M214.702,-89.2339C229.448,-94.1495 245.341,-99.4471 260.499,-104.5"/>
<polygon fill="midnightblue" stroke="midnightblue" points="215.789,-85.9072 205.196,-86.0652 213.576,-92.548 215.789,-85.9072"/>
</g>
<!-- Node5 -->
<g id="node9" class="node"><title>Node5</title>
<a xlink:href="../../da/d96/classproject_1_1_b_i___footprint.html#a271c63e12acd19bccc27bf6861938df2" target="_top" xlink:title="project::BI_Footprint\l::componentInstanceMoved">
<polygon fill="white" stroke="black" points="262.5,-52 262.5,-86 399.5,-86 399.5,-52 262.5,-52"/>
<text text-anchor="start" x="270.5" y="-73" font-family="Helvetica,sans-Serif" font-size="10.00">project::BI_Footprint</text>
<text text-anchor="middle" x="331" y="-60" font-family="Helvetica,sans-Serif" font-size="10.00">::componentInstanceMoved</text>
</a>
</g>
<!-- Node2&#45;&gt;Node5 -->
<g id="edge8" class="edge"><title>Node2&#45;&gt;Node5</title>
<path fill="none" stroke="midnightblue" d="M229.929,-69C240.747,-69 251.821,-69 262.487,-69"/>
<polygon fill="midnightblue" stroke="midnightblue" points="229.657,-65.5001 219.657,-69 229.657,-72.5001 229.657,-65.5001"/>
</g>
<!-- Node6 -->
<g id="node12" class="node"><title>Node6</title>
<a xlink:href="../../da/d96/classproject_1_1_b_i___footprint.html#ab6c0fcabcb9d5a38a27ed7aeb34f0958" target="_top" xlink:title="project::BI_Footprint\l::componentInstanceRotated">
<polygon fill="white" stroke="black" points="259.5,-0 259.5,-34 402.5,-34 402.5,-0 259.5,-0"/>
<text text-anchor="start" x="267.5" y="-21" font-family="Helvetica,sans-Serif" font-size="10.00">project::BI_Footprint</text>
<text text-anchor="middle" x="331" y="-8" font-family="Helvetica,sans-Serif" font-size="10.00">::componentInstanceRotated</text>
</a>
</g>
<!-- Node2&#45;&gt;Node6 -->
<g id="edge12" class="edge"><title>Node2&#45;&gt;Node6</title>
<path fill="none" stroke="midnightblue" d="M221.747,-49.0971C238.617,-44.1407 256.555,-38.871 272.913,-34.065"/>
<polygon fill="midnightblue" stroke="midnightblue" points="220.564,-45.7964 211.956,-51.9733 222.538,-52.5125 220.564,-45.7964"/>
</g>
<!-- Node4 -->
<g id="node7" class="node"><title>Node4</title>
<a xlink:href="../../da/d96/classproject_1_1_b_i___footprint.html#a02fd73d861ef2e4aabb38c0c9ff82947" target="_top" xlink:title="project::BI_Footprint\l::init">
<polygon fill="white" stroke="black" points="442.5,-52 442.5,-86 547.5,-86 547.5,-52 442.5,-52"/>
<text text-anchor="start" x="450.5" y="-73" font-family="Helvetica,sans-Serif" font-size="10.00">project::BI_Footprint</text>
<text text-anchor="middle" x="495" y="-60" font-family="Helvetica,sans-Serif" font-size="10.00">::init</text>
</a>
</g>
<!-- Node3&#45;&gt;Node4 -->
<g id="edge6" class="edge"><title>Node3&#45;&gt;Node4</title>
<path fill="none" stroke="midnightblue" d="M406.366,-100.887C420.329,-95.8635 434.55,-90.7473 447.396,-86.1259"/>
<polygon fill="midnightblue" stroke="midnightblue" points="404.985,-97.6638 396.76,-104.342 407.355,-104.251 404.985,-97.6638"/>
</g>
<!-- Node5&#45;&gt;Node4 -->
<g id="edge10" class="edge"><title>Node5&#45;&gt;Node4</title>
<path fill="none" stroke="midnightblue" d="M409.729,-69C420.808,-69 431.966,-69 442.394,-69"/>
<polygon fill="midnightblue" stroke="midnightblue" points="409.601,-65.5001 399.601,-69 409.6,-72.5001 409.601,-65.5001"/>
</g>
<!-- Node6&#45;&gt;Node4 -->
<g id="edge14" class="edge"><title>Node6&#45;&gt;Node4</title>
<path fill="none" stroke="midnightblue" d="M394.408,-37.1051C410.24,-42.1249 427.048,-47.4541 442.298,-52.2898"/>
<polygon fill="midnightblue" stroke="midnightblue" points="395.29,-33.7129 384.7,-34.0267 393.174,-40.3856 395.29,-33.7129"/>
</g>
</g>
</svg>
