<?xml version="1.0" encoding="UTF-8" standalone="no"?>
<!DOCTYPE svg PUBLIC "-//W3C//DTD SVG 1.1//EN"
 "http://www.w3.org/Graphics/SVG/1.1/DTD/svg11.dtd">
<!-- Generated by graphviz version 2.26.3 (20100126.1600)
 -->
<!-- Title: getRotation Pages: 1 -->
<svg width="572pt" height="212pt"
 viewBox="0.00 0.00 572.00 212.00" xmlns="http://www.w3.org/2000/svg" xmlns:xlink="http://www.w3.org/1999/xlink">
<g id="graph1" class="graph" transform="scale(1 1) rotate(0) translate(4 208)">
<title>getRotation</title>
<polygon fill="white" stroke="white" points="-4,5 -4,-208 569,-208 569,5 -4,5"/>
<!-- Node1 -->
<g id="node1" class="node"><title>Node1</title>
<polygon fill="#bfbfbf" stroke="black" points="0.5,-58.5 0.5,-79.5 67.5,-79.5 67.5,-58.5 0.5,-58.5"/>
<text text-anchor="middle" x="34" y="-66.5" font-family="Helvetica,sans-Serif" font-size="10.00">getRotation</text>
</g>
<!-- Node2 -->
<g id="node3" class="node"><title>Node2</title>
<a xlink:href="../../dc/d87/classproject_1_1_b_g_i___footprint.html#abbb5db1b700a86caa85ff4c0c13142f2" target="_top" xlink:title="project::BGI_Footprint\l::updateCacheAndRepaint">
<polygon fill="white" stroke="black" points="104.5,-78 104.5,-112 235.5,-112 235.5,-78 104.5,-78"/>
<text text-anchor="start" x="112.5" y="-99" font-family="Helvetica,sans-Serif" font-size="10.00">project::BGI_Footprint</text>
<text text-anchor="middle" x="170" y="-86" font-family="Helvetica,sans-Serif" font-size="10.00">::updateCacheAndRepaint</text>
</a>
</g>
<!-- Node1&#45;&gt;Node2 -->
<g id="edge2" class="edge"><title>Node1&#45;&gt;Node2</title>
<path fill="none" stroke="midnightblue" d="M77.6819,-77.3509C86.2067,-78.9807 95.3188,-80.7227 104.375,-82.454"/>
<polygon fill="midnightblue" stroke="midnightblue" points="78.0973,-73.8671 67.618,-75.427 76.7829,-80.7425 78.0973,-73.8671"/>
</g>
<!-- Node8 -->
<g id="node18" class="node"><title>Node8</title>
<a xlink:href="../../dc/d87/classproject_1_1_b_g_i___footprint.html#aa77fc5d2da89e1f09b09f7c6724ed721" target="_top" xlink:title="project::BGI_Footprint\l::paint">
<polygon fill="white" stroke="black" points="113.5,-26 113.5,-60 226.5,-60 226.5,-26 113.5,-26"/>
<text text-anchor="start" x="121.5" y="-47" font-family="Helvetica,sans-Serif" font-size="10.00">project::BGI_Footprint</text>
<text text-anchor="middle" x="170" y="-34" font-family="Helvetica,sans-Serif" font-size="10.00">::paint</text>
</a>
</g>
<!-- Node1&#45;&gt;Node8 -->
<g id="edge20" class="edge"><title>Node1&#45;&gt;Node8</title>
<path fill="none" stroke="midnightblue" d="M77.7333,-60.6392C89.1152,-58.4633 101.541,-56.0877 113.481,-53.8052"/>
<polygon fill="midnightblue" stroke="midnightblue" points="76.7829,-57.2575 67.618,-62.573 78.0973,-64.1329 76.7829,-57.2575"/>
</g>
<!-- Node3 -->
<g id="node5" class="node"><title>Node3</title>
<a xlink:href="../../da/d96/classproject_1_1_b_i___footprint.html#a80db668afe30ac6b6c9e5eb061b61cfc" target="_top" xlink:title="project::BI_Footprint\l::componentInstanceAttributes\lChanged">
<polygon fill="white" stroke="black" points="272,-156.5 272,-203.5 422,-203.5 422,-156.5 272,-156.5"/>
<text text-anchor="start" x="280" y="-190.5" font-family="Helvetica,sans-Serif" font-size="10.00">project::BI_Footprint</text>
<text text-anchor="start" x="280" y="-177.5" font-family="Helvetica,sans-Serif" font-size="10.00">::componentInstanceAttributes</text>
<text text-anchor="middle" x="347" y="-164.5" font-family="Helvetica,sans-Serif" font-size="10.00">Changed</text>
</a>
</g>
<!-- Node2&#45;&gt;Node3 -->
<g id="edge4" class="edge"><title>Node2&#45;&gt;Node3</title>
<path fill="none" stroke="midnightblue" d="M211.388,-116.775C229.823,-126.299 251.875,-137.452 272,-147 278.555,-150.11 285.474,-153.29 292.354,-156.39"/>
<polygon fill="midnightblue" stroke="midnightblue" points="212.869,-113.6 202.381,-112.103 209.646,-119.814 212.869,-113.6"/>
</g>
<!-- Node5 -->
<g id="node9" class="node"><title>Node5</title>
<a xlink:href="../../da/d96/classproject_1_1_b_i___footprint.html#a271c63e12acd19bccc27bf6861938df2" target="_top" xlink:title="project::BI_Footprint\l::componentInstanceMoved">
<polygon fill="white" stroke="black" points="278.5,-104 278.5,-138 415.5,-138 415.5,-104 278.5,-104"/>
<text text-anchor="start" x="286.5" y="-125" font-family="Helvetica,sans-Serif" font-size="10.00">project::BI_Footprint</text>
<text text-anchor="middle" x="347" y="-112" font-family="Helvetica,sans-Serif" font-size="10.00">::componentInstanceMoved</text>
</a>
</g>
<!-- Node2&#45;&gt;Node5 -->
<g id="edge8" class="edge"><title>Node2&#45;&gt;Node5</title>
<path fill="none" stroke="midnightblue" d="M245.594,-106.104C256.519,-107.709 267.712,-109.353 278.487,-110.936"/>
<polygon fill="midnightblue" stroke="midnightblue" points="246.059,-102.635 235.657,-104.644 245.042,-109.561 246.059,-102.635"/>
</g>
<!-- Node6 -->
<g id="node12" class="node"><title>Node6</title>
<a xlink:href="../../da/d96/classproject_1_1_b_i___footprint.html#ab6c0fcabcb9d5a38a27ed7aeb34f0958" target="_top" xlink:title="project::BI_Footprint\l::componentInstanceRotated">
<polygon fill="white" stroke="black" points="275.5,-52 275.5,-86 418.5,-86 418.5,-52 275.5,-52"/>
<text text-anchor="start" x="283.5" y="-73" font-family="Helvetica,sans-Serif" font-size="10.00">project::BI_Footprint</text>
<text text-anchor="middle" x="347" y="-60" font-family="Helvetica,sans-Serif" font-size="10.00">::componentInstanceRotated</text>
</a>
</g>
<!-- Node2&#45;&gt;Node6 -->
<g id="edge12" class="edge"><title>Node2&#45;&gt;Node6</title>
<path fill="none" stroke="midnightblue" d="M245.743,-83.8739C255.515,-82.4385 265.499,-80.972 275.204,-79.5463"/>
<polygon fill="midnightblue" stroke="midnightblue" points="245.042,-80.4393 235.657,-85.3555 246.059,-87.3649 245.042,-80.4393"/>
</g>
<!-- Node7 -->
<g id="node15" class="node"><title>Node7</title>
<a xlink:href="../../da/d96/classproject_1_1_b_i___footprint.html#ae00c60cb068f7bb3703a6c84450afeaf" target="_top" xlink:title="project::BI_Footprint\l::componentInstanceMirrored">
<polygon fill="white" stroke="black" points="275.5,-0 275.5,-34 418.5,-34 418.5,-0 275.5,-0"/>
<text text-anchor="start" x="283.5" y="-21" font-family="Helvetica,sans-Serif" font-size="10.00">project::BI_Footprint</text>
<text text-anchor="middle" x="347" y="-8" font-family="Helvetica,sans-Serif" font-size="10.00">::componentInstanceMirrored</text>
</a>
</g>
<!-- Node2&#45;&gt;Node7 -->
<g id="edge16" class="edge"><title>Node2&#45;&gt;Node7</title>
<path fill="none" stroke="midnightblue" d="M226.658,-73.776C229.856,-72.2399 232.991,-70.6451 236,-69 253.317,-59.5313 254.49,-52.1068 272,-43 278.235,-39.757 284.963,-36.7742 291.739,-34.0767"/>
<polygon fill="midnightblue" stroke="midnightblue" points="225.174,-70.6059 217.53,-77.942 228.081,-76.9741 225.174,-70.6059"/>
</g>
<!-- Node4 -->
<g id="node7" class="node"><title>Node4</title>
<a xlink:href="../../da/d96/classproject_1_1_b_i___footprint.html#a02fd73d861ef2e4aabb38c0c9ff82947" target="_top" xlink:title="project::BI_Footprint\l::init">
<polygon fill="white" stroke="black" points="458.5,-78 458.5,-112 563.5,-112 563.5,-78 458.5,-78"/>
<text text-anchor="start" x="466.5" y="-99" font-family="Helvetica,sans-Serif" font-size="10.00">project::BI_Footprint</text>
<text text-anchor="middle" x="511" y="-86" font-family="Helvetica,sans-Serif" font-size="10.00">::init</text>
</a>
</g>
<!-- Node3&#45;&gt;Node4 -->
<g id="edge6" class="edge"><title>Node3&#45;&gt;Node4</title>
<path fill="none" stroke="midnightblue" d="M411.845,-152.027C415.298,-150.364 418.701,-148.682 422,-147 443.043,-136.267 466.048,-122.778 483.397,-112.227"/>
<polygon fill="midnightblue" stroke="midnightblue" points="410.179,-148.943 402.629,-156.376 413.166,-155.274 410.179,-148.943"/>
</g>
<!-- Node5&#45;&gt;Node4 -->
<g id="edge10" class="edge"><title>Node5&#45;&gt;Node4</title>
<path fill="none" stroke="midnightblue" d="M425.729,-108.519C436.808,-106.762 447.966,-104.993 458.394,-103.34"/>
<polygon fill="midnightblue" stroke="midnightblue" points="424.929,-105.102 415.601,-110.124 426.025,-112.015 424.929,-105.102"/>
</g>
<!-- Node6&#45;&gt;Node4 -->
<g id="edge14" class="edge"><title>Node6&#45;&gt;Node4</title>
<path fill="none" stroke="midnightblue" d="M428.918,-81.987C438.926,-83.5736 448.935,-85.1604 458.35,-86.653"/>
<polygon fill="midnightblue" stroke="midnightblue" points="429.358,-78.513 418.933,-80.404 428.261,-85.4267 429.358,-78.513"/>
</g>
<!-- Node7&#45;&gt;Node4 -->
<g id="edge18" class="edge"><title>Node7&#45;&gt;Node4</title>
<path fill="none" stroke="midnightblue" d="M409.998,-37.8204C414.094,-39.4868 418.127,-41.2179 422,-43 443.947,-53.0983 467.497,-67.0068 484.856,-77.8987"/>
<polygon fill="midnightblue" stroke="midnightblue" points="410.956,-34.4369 400.368,-34.056 408.407,-40.9565 410.956,-34.4369"/>
</g>
</g>
</svg>
