<?xml version="1.0" encoding="UTF-8" standalone="no"?>
<!DOCTYPE svg PUBLIC "-//W3C//DTD SVG 1.1//EN"
 "http://www.w3.org/Graphics/SVG/1.1/DTD/svg11.dtd">
<!-- Generated by graphviz version 2.26.3 (20100126.1600)
 -->
<!-- Title: getRotation Pages: 1 -->
<svg width="572pt" height="101pt"
 viewBox="0.00 0.00 572.00 101.00" xmlns="http://www.w3.org/2000/svg" xmlns:xlink="http://www.w3.org/1999/xlink">
<g id="graph1" class="graph" transform="scale(1 1) rotate(0) translate(4 97)">
<title>getRotation</title>
<polygon fill="white" stroke="white" points="-4,5 -4,-97 569,-97 569,5 -4,5"/>
<!-- Node1 -->
<g id="node1" class="node"><title>Node1</title>
<polygon fill="#bfbfbf" stroke="black" points="0.5,-32.5 0.5,-53.5 67.5,-53.5 67.5,-32.5 0.5,-32.5"/>
<text text-anchor="middle" x="34" y="-40.5" font-family="Helvetica,sans-Serif" font-size="10.00">getRotation</text>
</g>
<!-- Node2 -->
<g id="node3" class="node"><title>Node2</title>
<a xlink:href="../../dc/d87/classproject_1_1_b_g_i___footprint.html#abbb5db1b700a86caa85ff4c0c13142f2" target="_top" xlink:title="project::BGI_Footprint\l::updateCacheAndRepaint">
<polygon fill="white" stroke="black" points="104.5,-52 104.5,-86 235.5,-86 235.5,-52 104.5,-52"/>
<text text-anchor="start" x="112.5" y="-73" font-family="Helvetica,sans-Serif" font-size="10.00">project::BGI_Footprint</text>
<text text-anchor="middle" x="170" y="-60" font-family="Helvetica,sans-Serif" font-size="10.00">::updateCacheAndRepaint</text>
</a>
</g>
<!-- Node1&#45;&gt;Node2 -->
<g id="edge2" class="edge"><title>Node1&#45;&gt;Node2</title>
<path fill="none" stroke="midnightblue" d="M77.6819,-51.3509C86.2067,-52.9807 95.3188,-54.7227 104.375,-56.454"/>
<polygon fill="midnightblue" stroke="midnightblue" points="78.0973,-47.8671 67.618,-49.427 76.7829,-54.7425 78.0973,-47.8671"/>
</g>
<!-- Node5 -->
<g id="node9" class="node"><title>Node5</title>
<a xlink:href="../../dc/d87/classproject_1_1_b_g_i___footprint.html#aa77fc5d2da89e1f09b09f7c6724ed721" target="_top" xlink:title="project::BGI_Footprint\l::paint">
<polygon fill="white" stroke="black" points="113.5,-0 113.5,-34 226.5,-34 226.5,-0 113.5,-0"/>
<text text-anchor="start" x="121.5" y="-21" font-family="Helvetica,sans-Serif" font-size="10.00">project::BGI_Footprint</text>
<text text-anchor="middle" x="170" y="-8" font-family="Helvetica,sans-Serif" font-size="10.00">::paint</text>
</a>
</g>
<!-- Node1&#45;&gt;Node5 -->
<g id="edge8" class="edge"><title>Node1&#45;&gt;Node5</title>
<path fill="none" stroke="midnightblue" d="M77.7333,-34.6392C89.1152,-32.4633 101.541,-30.0877 113.481,-27.8052"/>
<polygon fill="midnightblue" stroke="midnightblue" points="76.7829,-31.2575 67.618,-36.573 78.0973,-38.1329 76.7829,-31.2575"/>
</g>
<!-- Node3 -->
<g id="node5" class="node"><title>Node3</title>
<a xlink:href="../../da/d96/classproject_1_1_b_i___footprint.html#a80db668afe30ac6b6c9e5eb061b61cfc" target="_top" xlink:title="project::BI_Footprint\l::componentInstanceAttributes\lChanged">
<polygon fill="white" stroke="black" points="272,-45.5 272,-92.5 422,-92.5 422,-45.5 272,-45.5"/>
<text text-anchor="start" x="280" y="-79.5" font-family="Helvetica,sans-Serif" font-size="10.00">project::BI_Footprint</text>
<text text-anchor="start" x="280" y="-66.5" font-family="Helvetica,sans-Serif" font-size="10.00">::componentInstanceAttributes</text>
<text text-anchor="middle" x="347" y="-53.5" font-family="Helvetica,sans-Serif" font-size="10.00">Changed</text>
</a>
</g>
<!-- Node2&#45;&gt;Node3 -->
<g id="edge4" class="edge"><title>Node2&#45;&gt;Node3</title>
<path fill="none" stroke="midnightblue" d="M245.736,-69C254.404,-69 263.24,-69 271.9,-69"/>
<polygon fill="midnightblue" stroke="midnightblue" points="245.657,-65.5001 235.657,-69 245.657,-72.5001 245.657,-65.5001"/>
</g>
<!-- Node4 -->
<g id="node7" class="node"><title>Node4</title>
<a xlink:href="../../da/d96/classproject_1_1_b_i___footprint.html#a02fd73d861ef2e4aabb38c0c9ff82947" target="_top" xlink:title="project::BI_Footprint\l::init">
<polygon fill="white" stroke="black" points="458.5,-52 458.5,-86 563.5,-86 563.5,-52 458.5,-52"/>
<text text-anchor="start" x="466.5" y="-73" font-family="Helvetica,sans-Serif" font-size="10.00">project::BI_Footprint</text>
<text text-anchor="middle" x="511" y="-60" font-family="Helvetica,sans-Serif" font-size="10.00">::init</text>
</a>
</g>
<!-- Node3&#45;&gt;Node4 -->
<g id="edge6" class="edge"><title>Node3&#45;&gt;Node4</title>
<path fill="none" stroke="midnightblue" d="M432.534,-69C441.268,-69 449.949,-69 458.178,-69"/>
<polygon fill="midnightblue" stroke="midnightblue" points="432.28,-65.5001 422.28,-69 432.28,-72.5001 432.28,-65.5001"/>
</g>
</g>
</svg>
