<?xml version="1.0" encoding="UTF-8" standalone="no"?>
<!DOCTYPE svg PUBLIC "-//W3C//DTD SVG 1.1//EN"
 "http://www.w3.org/Graphics/SVG/1.1/DTD/svg11.dtd">
<!-- Generated by graphviz version 2.26.3 (20100126.1600)
 -->
<!-- Title: /home/travis/build/LibrePCB/LibrePCB/libs/librepcblibrary/cat/packagecategory.h Pages: 1 -->
<svg width="558pt" height="374pt"
 viewBox="0.00 0.00 558.00 374.00" xmlns="http://www.w3.org/2000/svg" xmlns:xlink="http://www.w3.org/1999/xlink">
<g id="graph1" class="graph" transform="scale(1 1) rotate(0) translate(4 370)">
<title>/home/travis/build/LibrePCB/LibrePCB/libs/librepcblibrary/cat/packagecategory.h</title>
<polygon fill="white" stroke="white" points="-4,5 -4,-370 555,-370 555,5 -4,5"/>
<!-- Node1 -->
<g id="node1" class="node"><title>Node1</title>
<polygon fill="#bfbfbf" stroke="black" points="0,-318.5 0,-365.5 182,-365.5 182,-318.5 0,-318.5"/>
<text text-anchor="start" x="8" y="-352.5" font-family="Helvetica,sans-Serif" font-size="10.00">/home/travis/build</text>
<text text-anchor="start" x="8" y="-339.5" font-family="Helvetica,sans-Serif" font-size="10.00">/LibrePCB/LibrePCB/libs</text>
<text text-anchor="middle" x="91" y="-326.5" font-family="Helvetica,sans-Serif" font-size="10.00">/librepcblibrary/cat/packagecategory.h</text>
</g>
<!-- Node2 -->
<g id="node3" class="node"><title>Node2</title>
<polygon fill="white" stroke="#bfbfbf" points="210,-0.5 210,-21.5 258,-21.5 258,-0.5 210,-0.5"/>
<text text-anchor="middle" x="234" y="-8.5" font-family="Helvetica,sans-Serif" font-size="10.00">QtCore</text>
</g>
<!-- Node1&#45;&gt;Node2 -->
<g id="edge2" class="edge"><title>Node1&#45;&gt;Node2</title>
<path fill="none" stroke="midnightblue" d="M80.1988,-318.301C69.5948,-292.835 55,-250.9 55,-213 55,-213 55,-213 55,-148 55,-75.7247 148.164,-36.4291 200.068,-20.1448"/>
<polygon fill="midnightblue" stroke="midnightblue" points="201.296,-23.4303 209.859,-17.1918 199.275,-16.7285 201.296,-23.4303"/>
</g>
<!-- Node3 -->
<g id="node5" class="node"><title>Node3</title>
<a xlink:href="../../d1/db7/librarycategory_8h.html" target="_top" xlink:title="librarycategory.h">
<polygon fill="white" stroke="black" points="82.5,-260.5 82.5,-281.5 171.5,-281.5 171.5,-260.5 82.5,-260.5"/>
<text text-anchor="middle" x="127" y="-268.5" font-family="Helvetica,sans-Serif" font-size="10.00">librarycategory.h</text>
</a>
</g>
<!-- Node1&#45;&gt;Node3 -->
<g id="edge4" class="edge"><title>Node1&#45;&gt;Node3</title>
<path fill="none" stroke="midnightblue" d="M102.987,-318.358C107.515,-309.428 112.617,-299.367 116.95,-290.822"/>
<polygon fill="midnightblue" stroke="midnightblue" points="120.201,-292.148 121.602,-281.646 113.958,-288.982 120.201,-292.148"/>
</g>
<!-- Node3&#45;&gt;Node2 -->
<g id="edge6" class="edge"><title>Node3&#45;&gt;Node2</title>
<path fill="none" stroke="midnightblue" d="M122.433,-260.231C112.844,-235.932 93.002,-175.422 112,-130 131.141,-84.2359 177.537,-47.3748 207.28,-27.3837"/>
<polygon fill="midnightblue" stroke="midnightblue" points="209.472,-30.1319 215.927,-21.7301 205.642,-24.273 209.472,-30.1319"/>
</g>
<!-- Node4 -->
<g id="node8" class="node"><title>Node4</title>
<a xlink:href="../../de/dd7/librarybaseelement_8h.html" target="_top" xlink:title="../librarybaseelement.h">
<polygon fill="white" stroke="black" points="243,-202.5 243,-223.5 359,-223.5 359,-202.5 243,-202.5"/>
<text text-anchor="middle" x="301" y="-210.5" font-family="Helvetica,sans-Serif" font-size="10.00">../librarybaseelement.h</text>
</a>
</g>
<!-- Node3&#45;&gt;Node4 -->
<g id="edge8" class="edge"><title>Node3&#45;&gt;Node4</title>
<path fill="none" stroke="midnightblue" d="M158.51,-260.497C186.877,-251.041 228.751,-237.083 259.772,-226.743"/>
<polygon fill="midnightblue" stroke="midnightblue" points="261.051,-230.006 269.431,-223.523 258.837,-223.365 261.051,-230.006"/>
</g>
<!-- Node5 -->
<g id="node10" class="node"><title>Node5</title>
<polygon fill="white" stroke="#bfbfbf" points="120.5,-137.5 120.5,-158.5 173.5,-158.5 173.5,-137.5 120.5,-137.5"/>
<text text-anchor="middle" x="147" y="-145.5" font-family="Helvetica,sans-Serif" font-size="10.00">QObject</text>
</g>
<!-- Node4&#45;&gt;Node5 -->
<g id="edge10" class="edge"><title>Node4&#45;&gt;Node5</title>
<path fill="none" stroke="midnightblue" d="M271.81,-202.393C247.512,-193.344 212.145,-179.664 182,-166 179.977,-165.083 177.904,-164.109 175.826,-163.107"/>
<polygon fill="midnightblue" stroke="midnightblue" points="177.335,-159.948 166.823,-158.625 174.215,-166.215 177.335,-159.948"/>
</g>
<!-- Node6 -->
<g id="node12" class="node"><title>Node6</title>
<a xlink:href="../../d0/d1d/if__xmlserializableobject_8h.html" target="_top" xlink:title="librepcbcommon/fileio\l/if_xmlserializableobject.h">
<polygon fill="white" stroke="black" points="190.5,-131 190.5,-165 319.5,-165 319.5,-131 190.5,-131"/>
<text text-anchor="start" x="198.5" y="-152" font-family="Helvetica,sans-Serif" font-size="10.00">librepcbcommon/fileio</text>
<text text-anchor="middle" x="255" y="-139" font-family="Helvetica,sans-Serif" font-size="10.00">/if_xmlserializableobject.h</text>
</a>
</g>
<!-- Node4&#45;&gt;Node6 -->
<g id="edge12" class="edge"><title>Node4&#45;&gt;Node6</title>
<path fill="none" stroke="midnightblue" d="M293.404,-202.267C287.878,-194.458 280.156,-183.546 273.084,-173.554"/>
<polygon fill="midnightblue" stroke="midnightblue" points="275.742,-171.251 267.109,-165.11 270.028,-175.294 275.742,-171.251"/>
</g>
<!-- Node7 -->
<g id="node14" class="node"><title>Node7</title>
<a xlink:href="../../d4/d03/exceptions_8h.html" target="_top" xlink:title="../exceptions.h">
<polygon fill="white" stroke="black" points="193.5,-65.5 193.5,-86.5 274.5,-86.5 274.5,-65.5 193.5,-65.5"/>
<text text-anchor="middle" x="234" y="-73.5" font-family="Helvetica,sans-Serif" font-size="10.00">../exceptions.h</text>
</a>
</g>
<!-- Node4&#45;&gt;Node7 -->
<g id="edge18" class="edge"><title>Node4&#45;&gt;Node7</title>
<path fill="none" stroke="midnightblue" d="M309.723,-202.456C322.125,-186.101 341.891,-154 328,-130 321.133,-118.136 291.647,-102.291 267.506,-90.8351"/>
<polygon fill="midnightblue" stroke="midnightblue" points="268.783,-87.5692 258.24,-86.5249 265.831,-93.9161 268.783,-87.5692"/>
</g>
<!-- Node8 -->
<g id="node18" class="node"><title>Node8</title>
<a xlink:href="../../dd/dec/filepath_8h.html" target="_top" xlink:title="librepcbcommon/fileio\l/filepath.h">
<polygon fill="white" stroke="black" points="291.5,-59 291.5,-93 402.5,-93 402.5,-59 291.5,-59"/>
<text text-anchor="start" x="299.5" y="-80" font-family="Helvetica,sans-Serif" font-size="10.00">librepcbcommon/fileio</text>
<text text-anchor="middle" x="347" y="-67" font-family="Helvetica,sans-Serif" font-size="10.00">/filepath.h</text>
</a>
</g>
<!-- Node4&#45;&gt;Node8 -->
<g id="edge20" class="edge"><title>Node4&#45;&gt;Node8</title>
<path fill="none" stroke="midnightblue" d="M322.998,-202.365C336.68,-194.433 353.122,-182.179 361,-166 370.683,-146.116 365.606,-121.095 359.008,-102.485"/>
<polygon fill="midnightblue" stroke="midnightblue" points="362.262,-101.195 355.379,-93.1394 355.736,-103.728 362.262,-101.195"/>
</g>
<!-- Node9 -->
<g id="node21" class="node"><title>Node9</title>
<a xlink:href="../../df/dfc/version_8h.html" target="_top" xlink:title="librepcbcommon/version.h">
<polygon fill="white" stroke="black" points="419.5,-65.5 419.5,-86.5 550.5,-86.5 550.5,-65.5 419.5,-65.5"/>
<text text-anchor="middle" x="485" y="-73.5" font-family="Helvetica,sans-Serif" font-size="10.00">librepcbcommon/version.h</text>
</a>
</g>
<!-- Node4&#45;&gt;Node9 -->
<g id="edge24" class="edge"><title>Node4&#45;&gt;Node9</title>
<path fill="none" stroke="midnightblue" d="M319.588,-202.495C335.272,-193.401 358.119,-179.602 377,-166 409.518,-142.574 444.753,-112.172 465.842,-93.3811"/>
<polygon fill="midnightblue" stroke="midnightblue" points="468.345,-95.8376 473.453,-86.5553 463.672,-90.6264 468.345,-95.8376"/>
</g>
<!-- Node6&#45;&gt;Node7 -->
<g id="edge14" class="edge"><title>Node6&#45;&gt;Node7</title>
<path fill="none" stroke="midnightblue" d="M250.023,-130.937C247.04,-120.707 243.224,-107.625 240.065,-96.7937"/>
<polygon fill="midnightblue" stroke="midnightblue" points="243.34,-95.521 237.179,-86.901 236.62,-97.4811 243.34,-95.521"/>
</g>
<!-- Node7&#45;&gt;Node2 -->
<g id="edge16" class="edge"><title>Node7&#45;&gt;Node2</title>
<path fill="none" stroke="midnightblue" d="M234,-65.2666C234,-56.1799 234,-42.8919 234,-31.7395"/>
<polygon fill="midnightblue" stroke="midnightblue" points="237.5,-31.5337 234,-21.5337 230.5,-31.5337 237.5,-31.5337"/>
</g>
<!-- Node8&#45;&gt;Node2 -->
<g id="edge22" class="edge"><title>Node8&#45;&gt;Node2</title>
<path fill="none" stroke="midnightblue" d="M317.311,-58.922C299.986,-48.9566 278.284,-36.4729 261.373,-26.7455"/>
<polygon fill="midnightblue" stroke="midnightblue" points="262.943,-23.6107 252.529,-21.6584 259.452,-29.6785 262.943,-23.6107"/>
</g>
<!-- Node9&#45;&gt;Node2 -->
<g id="edge26" class="edge"><title>Node9&#45;&gt;Node2</title>
<path fill="none" stroke="midnightblue" d="M444.394,-65.4844C395.377,-52.7908 313.834,-31.6742 267.989,-19.8019"/>
<polygon fill="midnightblue" stroke="midnightblue" points="268.787,-16.3932 258.229,-17.2744 267.032,-23.1697 268.787,-16.3932"/>
</g>
</g>
</svg>
