<?xml version="1.0" encoding="UTF-8" standalone="no"?>
<!DOCTYPE svg PUBLIC "-//W3C//DTD SVG 1.1//EN"
 "http://www.w3.org/Graphics/SVG/1.1/DTD/svg11.dtd">
<!-- Generated by graphviz version 2.26.3 (20100126.1600)
 -->
<!-- Title: /home/travis/build/LibrePCB/LibrePCB/libs/librepcbproject/schematics/cmd/cmdschematicnetlineadd.h Pages: 1 -->
<svg width="320pt" height="180pt"
 viewBox="0.00 0.00 320.00 180.00" xmlns="http://www.w3.org/2000/svg" xmlns:xlink="http://www.w3.org/1999/xlink">
<g id="graph1" class="graph" transform="scale(1 1) rotate(0) translate(4 176)">
<title>/home/travis/build/LibrePCB/LibrePCB/libs/librepcbproject/schematics/cmd/cmdschematicnetlineadd.h</title>
<polygon fill="white" stroke="white" points="-4,5 -4,-176 317,-176 317,5 -4,5"/>
<!-- Node1 -->
<g id="node1" class="node"><title>Node1</title>
<polygon fill="#bfbfbf" stroke="black" points="87,-111 87,-171 245,-171 245,-111 87,-111"/>
<text text-anchor="start" x="95" y="-158" font-family="Helvetica,sans-Serif" font-size="10.00">/home/travis/build</text>
<text text-anchor="start" x="95" y="-145" font-family="Helvetica,sans-Serif" font-size="10.00">/LibrePCB/LibrePCB/libs</text>
<text text-anchor="start" x="95" y="-132" font-family="Helvetica,sans-Serif" font-size="10.00">/librepcbproject/schematics</text>
<text text-anchor="middle" x="166" y="-119" font-family="Helvetica,sans-Serif" font-size="10.00">/cmd/cmdschematicnetlineadd.h</text>
</g>
<!-- Node2 -->
<g id="node3" class="node"><title>Node2</title>
<a xlink:href="../../d3/db9/cmdschematicnetlineadd_8cpp.html" target="_top" xlink:title="/home/travis/build\l/LibrePCB/LibrePCB/libs\l/librepcbproject/schematics\l/cmd/cmdschematicnetlineadd.cpp">
<polygon fill="white" stroke="black" points="0,-7 0,-67 168,-67 168,-7 0,-7"/>
<text text-anchor="start" x="8" y="-54" font-family="Helvetica,sans-Serif" font-size="10.00">/home/travis/build</text>
<text text-anchor="start" x="8" y="-41" font-family="Helvetica,sans-Serif" font-size="10.00">/LibrePCB/LibrePCB/libs</text>
<text text-anchor="start" x="8" y="-28" font-family="Helvetica,sans-Serif" font-size="10.00">/librepcbproject/schematics</text>
<text text-anchor="middle" x="84" y="-15" font-family="Helvetica,sans-Serif" font-size="10.00">/cmd/cmdschematicnetlineadd.cpp</text>
</a>
</g>
<!-- Node1&#45;&gt;Node2 -->
<g id="edge2" class="edge"><title>Node1&#45;&gt;Node2</title>
<path fill="none" stroke="midnightblue" d="M135.979,-102.925C126.648,-91.0907 116.498,-78.2175 107.664,-67.0135"/>
<polygon fill="midnightblue" stroke="midnightblue" points="133.342,-105.233 142.282,-110.919 138.839,-100.899 133.342,-105.233"/>
</g>
<!-- Node3 -->
<g id="node5" class="node"><title>Node3</title>
<a xlink:href="../../df/d6c/ses__drawwire_8cpp.html" target="_top" xlink:title="/home/travis/build\l/LibrePCB/LibrePCB/libs\l/librepcbprojecteditor\l/schematiceditor/fsm/ses\l_drawwire.cpp">
<polygon fill="white" stroke="black" points="185.5,-0.5 185.5,-73.5 312.5,-73.5 312.5,-0.5 185.5,-0.5"/>
<text text-anchor="start" x="193.5" y="-60.5" font-family="Helvetica,sans-Serif" font-size="10.00">/home/travis/build</text>
<text text-anchor="start" x="193.5" y="-47.5" font-family="Helvetica,sans-Serif" font-size="10.00">/LibrePCB/LibrePCB/libs</text>
<text text-anchor="start" x="193.5" y="-34.5" font-family="Helvetica,sans-Serif" font-size="10.00">/librepcbprojecteditor</text>
<text text-anchor="start" x="193.5" y="-21.5" font-family="Helvetica,sans-Serif" font-size="10.00">/schematiceditor/fsm/ses</text>
<text text-anchor="middle" x="249" y="-8.5" font-family="Helvetica,sans-Serif" font-size="10.00">_drawwire.cpp</text>
</a>
</g>
<!-- Node1&#45;&gt;Node3 -->
<g id="edge4" class="edge"><title>Node1&#45;&gt;Node3</title>
<path fill="none" stroke="midnightblue" d="M196.282,-103.056C203.938,-93.4638 212.143,-83.182 219.746,-73.6551"/>
<polygon fill="midnightblue" stroke="midnightblue" points="193.509,-100.92 190.007,-110.919 198.98,-105.286 193.509,-100.92"/>
</g>
</g>
</svg>
