<?xml version="1.0" encoding="UTF-8" standalone="no"?>
<!DOCTYPE svg PUBLIC "-//W3C//DTD SVG 1.1//EN"
 "http://www.w3.org/Graphics/SVG/1.1/DTD/svg11.dtd">
<!-- Generated by graphviz version 2.26.3 (20100126.1600)
 -->
<!-- Title: /home/travis/build/LibrePCB/LibrePCB/libs/librepcbproject/settings/projectsettings.cpp Pages: 1 -->
<svg width="1150pt" height="344pt"
 viewBox="0.00 0.00 1150.24 344.00" xmlns="http://www.w3.org/2000/svg" xmlns:xlink="http://www.w3.org/1999/xlink">
<g id="graph1" class="graph" transform="scale(1 1) rotate(0) translate(4 340)">
<title>/home/travis/build/LibrePCB/LibrePCB/libs/librepcbproject/settings/projectsettings.cpp</title>
<polygon fill="white" stroke="white" points="-4,5 -4,-340 1147.24,-340 1147.24,5 -4,5"/>
<!-- Node1 -->
<g id="node1" class="node"><title>Node1</title>
<polygon fill="#bfbfbf" stroke="black" points="322.291,-275 322.291,-335 447.291,-335 447.291,-275 322.291,-275"/>
<text text-anchor="start" x="330.291" y="-322" font-family="Helvetica,sans-Serif" font-size="10.00">/home/travis/build</text>
<text text-anchor="start" x="330.291" y="-309" font-family="Helvetica,sans-Serif" font-size="10.00">/LibrePCB/LibrePCB/libs</text>
<text text-anchor="start" x="330.291" y="-296" font-family="Helvetica,sans-Serif" font-size="10.00">/librepcbproject/settings</text>
<text text-anchor="middle" x="384.791" y="-283" font-family="Helvetica,sans-Serif" font-size="10.00">/projectsettings.cpp</text>
</g>
<!-- Node2 -->
<g id="node3" class="node"><title>Node2</title>
<polygon fill="white" stroke="#bfbfbf" points="460.791,-0.5 460.791,-21.5 508.791,-21.5 508.791,-0.5 460.791,-0.5"/>
<text text-anchor="middle" x="484.791" y="-8.5" font-family="Helvetica,sans-Serif" font-size="10.00">QtCore</text>
</g>
<!-- Node1&#45;&gt;Node2 -->
<g id="edge2" class="edge"><title>Node1&#45;&gt;Node2</title>
<path fill="none" stroke="midnightblue" d="M447.346,-302.88C608.613,-295.977 1031.88,-268.279 1117.79,-166 1148.66,-129.244 1151.45,-93.1749 1118.79,-58 1098.22,-35.8505 648.497,-17.1887 519.244,-12.268"/>
<polygon fill="midnightblue" stroke="midnightblue" points="519.245,-8.7656 509.12,-11.8858 518.981,-15.7606 519.245,-8.7656"/>
</g>
<!-- Node3 -->
<g id="node5" class="node"><title>Node3</title>
<a xlink:href="../../d5/d31/projectsettings_8h.html" target="_top" xlink:title="projectsettings.h">
<polygon fill="white" stroke="black" points="275.291,-209.5 275.291,-230.5 364.291,-230.5 364.291,-209.5 275.291,-209.5"/>
<text text-anchor="middle" x="319.791" y="-217.5" font-family="Helvetica,sans-Serif" font-size="10.00">projectsettings.h</text>
</a>
</g>
<!-- Node1&#45;&gt;Node3 -->
<g id="edge4" class="edge"><title>Node1&#45;&gt;Node3</title>
<path fill="none" stroke="midnightblue" d="M361.691,-274.793C352.569,-262.863 342.365,-249.52 334.311,-238.988"/>
<polygon fill="midnightblue" stroke="midnightblue" points="336.977,-236.712 328.122,-230.895 331.416,-240.965 336.977,-236.712"/>
</g>
<!-- Node7 -->
<g id="node16" class="node"><title>Node7</title>
<a xlink:href="../../d9/d10/smartxmlfile_8h.html" target="_top" xlink:title="librepcbcommon/fileio\l/smartxmlfile.h">
<polygon fill="white" stroke="black" points="118.291,-203 118.291,-237 229.291,-237 229.291,-203 118.291,-203"/>
<text text-anchor="start" x="126.291" y="-224" font-family="Helvetica,sans-Serif" font-size="10.00">librepcbcommon/fileio</text>
<text text-anchor="middle" x="173.791" y="-211" font-family="Helvetica,sans-Serif" font-size="10.00">/smartxmlfile.h</text>
</a>
</g>
<!-- Node1&#45;&gt;Node7 -->
<g id="edge18" class="edge"><title>Node1&#45;&gt;Node7</title>
<path fill="none" stroke="midnightblue" d="M322.055,-279.727C291.386,-267.373 254.914,-252.68 225.818,-240.959"/>
<polygon fill="midnightblue" stroke="midnightblue" points="226.836,-237.596 216.253,-237.106 224.22,-244.089 226.836,-237.596"/>
</g>
<!-- Node9 -->
<g id="node24" class="node"><title>Node9</title>
<a xlink:href="../../d8/d67/xmldomdocument_8h.html" target="_top" xlink:title="librepcbcommon/fileio\l/xmldomdocument.h">
<polygon fill="white" stroke="black" points="14.2907,-131 14.2907,-165 125.291,-165 125.291,-131 14.2907,-131"/>
<text text-anchor="start" x="22.2907" y="-152" font-family="Helvetica,sans-Serif" font-size="10.00">librepcbcommon/fileio</text>
<text text-anchor="middle" x="69.7907" y="-139" font-family="Helvetica,sans-Serif" font-size="10.00">/xmldomdocument.h</text>
</a>
</g>
<!-- Node1&#45;&gt;Node9 -->
<g id="edge30" class="edge"><title>Node1&#45;&gt;Node9</title>
<path fill="none" stroke="midnightblue" d="M322.138,-296.267C251.3,-285.289 141.662,-264.615 109.791,-238 90.7913,-222.134 80.4887,-195.432 75.1226,-175.223"/>
<polygon fill="midnightblue" stroke="midnightblue" points="78.4869,-174.243 72.7465,-165.338 71.6808,-175.879 78.4869,-174.243"/>
</g>
<!-- Node11 -->
<g id="node31" class="node"><title>Node11</title>
<a xlink:href="../../d1/d68/xmldomelement_8h.html" target="_top" xlink:title="librepcbcommon/fileio\l/xmldomelement.h">
<polygon fill="white" stroke="black" points="610.291,-131 610.291,-165 721.291,-165 721.291,-131 610.291,-131"/>
<text text-anchor="start" x="618.291" y="-152" font-family="Helvetica,sans-Serif" font-size="10.00">librepcbcommon/fileio</text>
<text text-anchor="middle" x="665.791" y="-139" font-family="Helvetica,sans-Serif" font-size="10.00">/xmldomelement.h</text>
</a>
</g>
<!-- Node1&#45;&gt;Node11 -->
<g id="edge40" class="edge"><title>Node1&#45;&gt;Node11</title>
<path fill="none" stroke="midnightblue" d="M438.638,-274.915C493.433,-244.3 577.076,-197.566 626.109,-170.171"/>
<polygon fill="midnightblue" stroke="midnightblue" points="628.118,-173.058 635.141,-165.125 624.704,-166.947 628.118,-173.058"/>
</g>
<!-- Node13 -->
<g id="node38" class="node"><title>Node13</title>
<a xlink:href="../../dc/d8d/project_8h.html" target="_top" xlink:title="../project.h">
<polygon fill="white" stroke="black" points="611.291,-209.5 611.291,-230.5 674.291,-230.5 674.291,-209.5 611.291,-209.5"/>
<text text-anchor="middle" x="642.791" y="-217.5" font-family="Helvetica,sans-Serif" font-size="10.00">../project.h</text>
</a>
</g>
<!-- Node1&#45;&gt;Node13 -->
<g id="edge50" class="edge"><title>Node1&#45;&gt;Node13</title>
<path fill="none" stroke="midnightblue" d="M447.575,-284.315C495.491,-268.529 560.13,-247.233 601.644,-233.556"/>
<polygon fill="midnightblue" stroke="midnightblue" points="602.759,-236.874 611.161,-230.421 600.568,-230.225 602.759,-236.874"/>
</g>
<!-- Node3&#45;&gt;Node2 -->
<g id="edge6" class="edge"><title>Node3&#45;&gt;Node2</title>
<path fill="none" stroke="midnightblue" d="M311.122,-209.235C298.452,-192.11 277.636,-157.761 289.791,-130 299.252,-108.391 347.851,-70.604 367.791,-58 393.857,-41.5229 426.666,-28.9476 450.902,-20.9695"/>
<polygon fill="midnightblue" stroke="midnightblue" points="452.259,-24.2104 460.72,-17.8338 450.129,-17.5423 452.259,-24.2104"/>
</g>
<!-- Node4 -->
<g id="node8" class="node"><title>Node4</title>
<a xlink:href="../../d0/d1d/if__xmlserializableobject_8h.html" target="_top" xlink:title="librepcbcommon/fileio\l/if_xmlserializableobject.h">
<polygon fill="white" stroke="black" points="298.291,-131 298.291,-165 427.291,-165 427.291,-131 298.291,-131"/>
<text text-anchor="start" x="306.291" y="-152" font-family="Helvetica,sans-Serif" font-size="10.00">librepcbcommon/fileio</text>
<text text-anchor="middle" x="362.791" y="-139" font-family="Helvetica,sans-Serif" font-size="10.00">/if_xmlserializableobject.h</text>
</a>
</g>
<!-- Node3&#45;&gt;Node4 -->
<g id="edge8" class="edge"><title>Node3&#45;&gt;Node4</title>
<path fill="none" stroke="midnightblue" d="M326.135,-209.376C331.683,-200.087 339.97,-186.212 347.261,-174.002"/>
<polygon fill="midnightblue" stroke="midnightblue" points="350.459,-175.474 352.582,-165.094 344.449,-171.885 350.459,-175.474"/>
</g>
<!-- Node6 -->
<g id="node13" class="node"><title>Node6</title>
<a xlink:href="../../dd/dec/filepath_8h.html" target="_top" xlink:title="librepcbcommon/fileio\l/filepath.h">
<polygon fill="white" stroke="black" points="199.291,-59 199.291,-93 310.291,-93 310.291,-59 199.291,-59"/>
<text text-anchor="start" x="207.291" y="-80" font-family="Helvetica,sans-Serif" font-size="10.00">librepcbcommon/fileio</text>
<text text-anchor="middle" x="254.791" y="-67" font-family="Helvetica,sans-Serif" font-size="10.00">/filepath.h</text>
</a>
</g>
<!-- Node3&#45;&gt;Node6 -->
<g id="edge14" class="edge"><title>Node3&#45;&gt;Node6</title>
<path fill="none" stroke="midnightblue" d="M300.181,-209.377C285.28,-200.104 265.852,-185.139 256.791,-166 247.566,-146.517 247.701,-121.902 249.788,-103.341"/>
<polygon fill="midnightblue" stroke="midnightblue" points="253.288,-103.581 251.186,-93.1966 246.353,-102.625 253.288,-103.581"/>
</g>
<!-- Node5 -->
<g id="node10" class="node"><title>Node5</title>
<a xlink:href="../../d4/d03/exceptions_8h.html" target="_top" xlink:title="../exceptions.h">
<polygon fill="white" stroke="black" points="376.291,-65.5 376.291,-86.5 457.291,-86.5 457.291,-65.5 376.291,-65.5"/>
<text text-anchor="middle" x="416.791" y="-73.5" font-family="Helvetica,sans-Serif" font-size="10.00">../exceptions.h</text>
</a>
</g>
<!-- Node4&#45;&gt;Node5 -->
<g id="edge10" class="edge"><title>Node4&#45;&gt;Node5</title>
<path fill="none" stroke="midnightblue" d="M375.588,-130.937C383.66,-120.174 394.099,-106.255 402.45,-95.1203"/>
<polygon fill="midnightblue" stroke="midnightblue" points="405.415,-97.0011 408.615,-86.901 399.815,-92.801 405.415,-97.0011"/>
</g>
<!-- Node5&#45;&gt;Node2 -->
<g id="edge12" class="edge"><title>Node5&#45;&gt;Node2</title>
<path fill="none" stroke="midnightblue" d="M428.019,-65.2666C438.417,-55.328 454.072,-40.3635 466.311,-28.6645"/>
<polygon fill="midnightblue" stroke="midnightblue" points="468.96,-30.9736 473.771,-21.5337 464.124,-25.9135 468.96,-30.9736"/>
</g>
<!-- Node6&#45;&gt;Node2 -->
<g id="edge16" class="edge"><title>Node6&#45;&gt;Node2</title>
<path fill="none" stroke="midnightblue" d="M310.467,-60.2653C354.337,-47.8674 414.067,-30.9871 450.992,-20.5517"/>
<polygon fill="midnightblue" stroke="midnightblue" points="452.099,-23.8761 460.77,-17.7884 450.195,-17.14 452.099,-23.8761"/>
</g>
<!-- Node7&#45;&gt;Node2 -->
<g id="edge20" class="edge"><title>Node7&#45;&gt;Node2</title>
<path fill="none" stroke="midnightblue" d="M118.195,-209.443C74.6776,-199.916 19.3257,-184.568 5.79067,-166 -14.8916,-137.628 27.9128,-61.0334 31.7907,-58 64.6137,-32.3243 350.586,-17.0631 450.507,-12.4759"/>
<polygon fill="midnightblue" stroke="midnightblue" points="450.835,-15.9648 460.667,-12.017 450.52,-8.97189 450.835,-15.9648"/>
</g>
<!-- Node8 -->
<g id="node19" class="node"><title>Node8</title>
<a xlink:href="../../d3/d9d/smartfile_8h.html" target="_top" xlink:title="smartfile.h">
<polygon fill="white" stroke="black" points="142.791,-137.5 142.791,-158.5 204.791,-158.5 204.791,-137.5 142.791,-137.5"/>
<text text-anchor="middle" x="173.791" y="-145.5" font-family="Helvetica,sans-Serif" font-size="10.00">smartfile.h</text>
</a>
</g>
<!-- Node7&#45;&gt;Node8 -->
<g id="edge22" class="edge"><title>Node7&#45;&gt;Node8</title>
<path fill="none" stroke="midnightblue" d="M173.791,-202.937C173.791,-192.814 173.791,-179.898 173.791,-169.133"/>
<polygon fill="midnightblue" stroke="midnightblue" points="177.291,-168.901 173.791,-158.901 170.291,-168.901 177.291,-168.901"/>
</g>
<!-- Node8&#45;&gt;Node2 -->
<g id="edge24" class="edge"><title>Node8&#45;&gt;Node2</title>
<path fill="none" stroke="midnightblue" d="M172.278,-137.338C170.257,-118.435 169.128,-79.0605 190.791,-58 227.188,-22.6137 380.805,-13.8601 450.341,-11.7022"/>
<polygon fill="midnightblue" stroke="midnightblue" points="450.46,-15.2003 460.357,-11.4193 450.263,-8.20311 450.46,-15.2003"/>
</g>
<!-- Node8&#45;&gt;Node5 -->
<g id="edge26" class="edge"><title>Node8&#45;&gt;Node5</title>
<path fill="none" stroke="midnightblue" d="M205.061,-138.735C247.394,-126.192 323.205,-103.729 371.694,-89.3619"/>
<polygon fill="midnightblue" stroke="midnightblue" points="372.713,-92.7104 381.307,-86.5137 370.725,-85.9988 372.713,-92.7104"/>
</g>
<!-- Node8&#45;&gt;Node6 -->
<g id="edge28" class="edge"><title>Node8&#45;&gt;Node6</title>
<path fill="none" stroke="midnightblue" d="M185.742,-137.376C196.807,-127.541 213.657,-112.563 227.941,-99.8665"/>
<polygon fill="midnightblue" stroke="midnightblue" points="230.411,-102.354 235.56,-93.0944 225.76,-97.1221 230.411,-102.354"/>
</g>
<!-- Node9&#45;&gt;Node2 -->
<g id="edge32" class="edge"><title>Node9&#45;&gt;Node2</title>
<path fill="none" stroke="midnightblue" d="M56.7432,-130.944C43.2333,-111.076 26.4697,-78.3822 44.7907,-58 71.8269,-27.922 352.096,-15.5253 450.703,-12.0731"/>
<polygon fill="midnightblue" stroke="midnightblue" points="450.862,-15.5698 460.737,-11.731 450.624,-8.57391 450.862,-15.5698"/>
</g>
<!-- Node9&#45;&gt;Node5 -->
<g id="edge36" class="edge"><title>Node9&#45;&gt;Node5</title>
<path fill="none" stroke="midnightblue" d="M125.565,-132.01C128.341,-131.309 131.094,-130.635 133.791,-130 156.023,-124.763 290.604,-99.5079 365.891,-85.4673"/>
<polygon fill="midnightblue" stroke="midnightblue" points="366.914,-88.837 376.103,-83.5637 365.631,-81.9555 366.914,-88.837"/>
</g>
<!-- Node9&#45;&gt;Node6 -->
<g id="edge38" class="edge"><title>Node9&#45;&gt;Node6</title>
<path fill="none" stroke="midnightblue" d="M113.633,-130.937C139.918,-120.707 173.53,-107.626 201.361,-96.7942"/>
<polygon fill="midnightblue" stroke="midnightblue" points="202.893,-99.9538 210.943,-93.0651 200.354,-93.4304 202.893,-99.9538"/>
</g>
<!-- Node10 -->
<g id="node27" class="node"><title>Node10</title>
<polygon fill="white" stroke="#bfbfbf" points="53.7907,-65.5 53.7907,-86.5 143.791,-86.5 143.791,-65.5 53.7907,-65.5"/>
<text text-anchor="middle" x="98.7907" y="-73.5" font-family="Helvetica,sans-Serif" font-size="10.00">QDomDocument</text>
</g>
<!-- Node9&#45;&gt;Node10 -->
<g id="edge34" class="edge"><title>Node9&#45;&gt;Node10</title>
<path fill="none" stroke="midnightblue" d="M76.6633,-130.937C80.8265,-120.601 86.1626,-107.352 90.5515,-96.4559"/>
<polygon fill="midnightblue" stroke="midnightblue" points="93.9104,-97.4845 94.4,-86.901 87.4173,-94.8692 93.9104,-97.4845"/>
</g>
<!-- Node11&#45;&gt;Node2 -->
<g id="edge42" class="edge"><title>Node11&#45;&gt;Node2</title>
<path fill="none" stroke="midnightblue" d="M610.238,-131.382C587.409,-122.72 561.713,-110.438 541.791,-94 520.532,-76.4595 503.839,-49.0425 494.151,-30.5674"/>
<polygon fill="midnightblue" stroke="midnightblue" points="497.248,-28.9354 489.62,-21.582 490.997,-32.087 497.248,-28.9354"/>
</g>
<!-- Node11&#45;&gt;Node5 -->
<g id="edge46" class="edge"><title>Node11&#45;&gt;Node5</title>
<path fill="none" stroke="midnightblue" d="M610.22,-131.931C565.9,-119.116 504.563,-101.38 462.928,-89.3409"/>
<polygon fill="midnightblue" stroke="midnightblue" points="463.892,-85.9763 453.313,-86.5607 461.947,-92.7008 463.892,-85.9763"/>
</g>
<!-- Node11&#45;&gt;Node6 -->
<g id="edge48" class="edge"><title>Node11&#45;&gt;Node6</title>
<path fill="none" stroke="midnightblue" d="M610.043,-131.89C607.26,-131.222 604.498,-130.587 601.791,-130 498.954,-107.714 471.748,-110.276 367.791,-94 352.496,-91.6053 336.042,-89.0006 320.551,-86.5356"/>
<polygon fill="midnightblue" stroke="midnightblue" points="320.959,-83.0565 310.533,-84.9395 319.857,-89.9693 320.959,-83.0565"/>
</g>
<!-- Node12 -->
<g id="node34" class="node"><title>Node12</title>
<polygon fill="white" stroke="#bfbfbf" points="550.291,-65.5 550.291,-86.5 631.291,-86.5 631.291,-65.5 550.291,-65.5"/>
<text text-anchor="middle" x="590.791" y="-73.5" font-family="Helvetica,sans-Serif" font-size="10.00">QDomElement</text>
</g>
<!-- Node11&#45;&gt;Node12 -->
<g id="edge44" class="edge"><title>Node11&#45;&gt;Node12</title>
<path fill="none" stroke="midnightblue" d="M648.017,-130.937C636.473,-119.855 621.442,-105.425 609.682,-94.1356"/>
<polygon fill="midnightblue" stroke="midnightblue" points="611.784,-91.3015 602.146,-86.901 606.936,-96.3512 611.784,-91.3015"/>
</g>
<!-- Node13&#45;&gt;Node2 -->
<g id="edge52" class="edge"><title>Node13&#45;&gt;Node2</title>
<path fill="none" stroke="midnightblue" d="M674.471,-209.455C694.218,-201.048 718.038,-187.128 729.791,-166 737.569,-152.018 737.216,-144.172 729.791,-130 716.745,-105.102 699.613,-111.718 677.791,-94 659.73,-79.336 659.906,-69.6885 639.791,-58 601.508,-35.7544 551.68,-23.0933 518.991,-16.6423"/>
<polygon fill="midnightblue" stroke="midnightblue" points="519.492,-13.1751 509.017,-14.7617 518.195,-20.0539 519.492,-13.1751"/>
</g>
<!-- Node13&#45;&gt;Node4 -->
<g id="edge54" class="edge"><title>Node13&#45;&gt;Node4</title>
<path fill="none" stroke="midnightblue" d="M611.215,-211.881C569.322,-201.108 494.055,-181.754 437.312,-167.163"/>
<polygon fill="midnightblue" stroke="midnightblue" points="437.859,-163.689 427.302,-164.589 436.116,-170.469 437.859,-163.689"/>
</g>
<!-- Node13&#45;&gt;Node5 -->
<g id="edge68" class="edge"><title>Node13&#45;&gt;Node5</title>
<path fill="none" stroke="midnightblue" d="M611.127,-216.459C574.727,-211.005 514.742,-197.635 473.791,-166 450.001,-147.622 433.442,-116.3 424.523,-95.8796"/>
<polygon fill="midnightblue" stroke="midnightblue" points="427.727,-94.4696 420.658,-86.578 421.263,-97.1555 427.727,-94.4696"/>
</g>
<!-- Node14 -->
<g id="node42" class="node"><title>Node14</title>
<a xlink:href="../../da/d81/if__attributeprovider_8h.html" target="_top" xlink:title="librepcbcommon/if_attributeprovider.h">
<polygon fill="white" stroke="black" points="686.291,-65.5 686.291,-86.5 865.291,-86.5 865.291,-65.5 686.291,-65.5"/>
<text text-anchor="middle" x="775.791" y="-73.5" font-family="Helvetica,sans-Serif" font-size="10.00">librepcbcommon/if_attributeprovider.h</text>
</a>
</g>
<!-- Node13&#45;&gt;Node14 -->
<g id="edge56" class="edge"><title>Node13&#45;&gt;Node14</title>
<path fill="none" stroke="midnightblue" d="M674.407,-214.56C702.24,-208.023 741.551,-194.191 762.791,-166 777.79,-146.092 779.233,-116.505 778.135,-96.7519"/>
<polygon fill="midnightblue" stroke="midnightblue" points="781.613,-96.3393 777.307,-86.6592 774.637,-96.9121 781.613,-96.3393"/>
</g>
<!-- Node15 -->
<g id="node45" class="node"><title>Node15</title>
<a xlink:href="../../d4/d45/if__schematiclayerprovider_8h.html" target="_top" xlink:title="librepcbcommon/if_schematiclayerprovider.h">
<polygon fill="white" stroke="black" points="882.791,-65.5 882.791,-86.5 1092.79,-86.5 1092.79,-65.5 882.791,-65.5"/>
<text text-anchor="middle" x="987.791" y="-73.5" font-family="Helvetica,sans-Serif" font-size="10.00">librepcbcommon/if_schematiclayerprovider.h</text>
</a>
</g>
<!-- Node13&#45;&gt;Node15 -->
<g id="edge60" class="edge"><title>Node13&#45;&gt;Node15</title>
<path fill="none" stroke="midnightblue" d="M671.364,-209.415C699.763,-198.791 744.494,-181.783 782.791,-166 844.21,-140.688 914.99,-109.06 955.258,-90.8306"/>
<polygon fill="midnightblue" stroke="midnightblue" points="956.912,-93.9235 964.573,-86.6057 954.021,-87.5485 956.912,-93.9235"/>
</g>
<!-- Node16 -->
<g id="node48" class="node"><title>Node16</title>
<a xlink:href="../../d4/dba/if__boardlayerprovider_8h.html" target="_top" xlink:title="librepcbcommon/if_boardlayerprovider.h">
<polygon fill="white" stroke="black" points="920.291,-137.5 920.291,-158.5 1109.29,-158.5 1109.29,-137.5 920.291,-137.5"/>
<text text-anchor="middle" x="1014.79" y="-145.5" font-family="Helvetica,sans-Serif" font-size="10.00">librepcbcommon/if_boardlayerprovider.h</text>
</a>
</g>
<!-- Node13&#45;&gt;Node16 -->
<g id="edge64" class="edge"><title>Node13&#45;&gt;Node16</title>
<path fill="none" stroke="midnightblue" d="M674.507,-213.861C735.419,-202.072 869.85,-176.053 950.316,-160.479"/>
<polygon fill="midnightblue" stroke="midnightblue" points="951.182,-163.876 960.335,-158.54 949.852,-157.004 951.182,-163.876"/>
</g>
<!-- Node17 -->
<g id="node52" class="node"><title>Node17</title>
<a xlink:href="../../d5/db9/filelock_8h.html" target="_top" xlink:title="librepcbcommon/fileio\l/filelock.h">
<polygon fill="white" stroke="black" points="482.291,-131 482.291,-165 593.291,-165 593.291,-131 482.291,-131"/>
<text text-anchor="start" x="490.291" y="-152" font-family="Helvetica,sans-Serif" font-size="10.00">librepcbcommon/fileio</text>
<text text-anchor="middle" x="537.791" y="-139" font-family="Helvetica,sans-Serif" font-size="10.00">/filelock.h</text>
</a>
</g>
<!-- Node13&#45;&gt;Node17 -->
<g id="edge70" class="edge"><title>Node13&#45;&gt;Node17</title>
<path fill="none" stroke="midnightblue" d="M627.298,-209.376C612.556,-199.267 589.893,-183.727 571.061,-170.814"/>
<polygon fill="midnightblue" stroke="midnightblue" points="572.947,-167.863 562.72,-165.094 568.988,-173.636 572.947,-167.863"/>
</g>
<!-- Node14&#45;&gt;Node2 -->
<g id="edge58" class="edge"><title>Node14&#45;&gt;Node2</title>
<path fill="none" stroke="midnightblue" d="M728.713,-65.4844C670.022,-52.3747 571.108,-30.2806 519.105,-18.6646"/>
<polygon fill="midnightblue" stroke="midnightblue" points="519.575,-15.1836 509.053,-16.4194 518.049,-22.0153 519.575,-15.1836"/>
</g>
<!-- Node15&#45;&gt;Node2 -->
<g id="edge62" class="edge"><title>Node15&#45;&gt;Node2</title>
<path fill="none" stroke="midnightblue" d="M923.94,-65.4992C907.608,-62.9285 890.064,-60.267 873.791,-58 743.005,-39.78 586.899,-22.1679 519.068,-14.7176"/>
<polygon fill="midnightblue" stroke="midnightblue" points="519.279,-11.2198 508.957,-13.6106 518.517,-18.1782 519.279,-11.2198"/>
</g>
<!-- Node16&#45;&gt;Node2 -->
<g id="edge66" class="edge"><title>Node16&#45;&gt;Node2</title>
<path fill="none" stroke="midnightblue" d="M1046.47,-137.455C1066.22,-129.048 1090.04,-115.128 1101.79,-94 1109.57,-80.0178 1112.67,-69.7355 1101.79,-58 1081.84,-36.4664 645.96,-17.4338 519.123,-12.3357"/>
<polygon fill="midnightblue" stroke="midnightblue" points="518.97,-8.82694 508.839,-11.9258 518.691,-15.8214 518.97,-8.82694"/>
</g>
<!-- Node17&#45;&gt;Node2 -->
<g id="edge72" class="edge"><title>Node17&#45;&gt;Node2</title>
<path fill="none" stroke="midnightblue" d="M527.426,-130.942C521.41,-120.535 514.014,-106.81 508.791,-94 500.382,-73.3769 493.654,-48.7561 489.485,-31.7122"/>
<polygon fill="midnightblue" stroke="midnightblue" points="492.831,-30.6505 487.124,-21.7242 486.019,-32.2612 492.831,-30.6505"/>
</g>
<!-- Node17&#45;&gt;Node5 -->
<g id="edge76" class="edge"><title>Node17&#45;&gt;Node5</title>
<path fill="none" stroke="midnightblue" d="M509.115,-130.937C489.206,-119.09 462.869,-103.419 443.421,-91.8463"/>
<polygon fill="midnightblue" stroke="midnightblue" points="445.136,-88.7939 434.753,-86.688 441.556,-94.8095 445.136,-88.7939"/>
</g>
<!-- Node17&#45;&gt;Node6 -->
<g id="edge74" class="edge"><title>Node17&#45;&gt;Node6</title>
<path fill="none" stroke="midnightblue" d="M482.217,-133.861C435.833,-122.06 369.625,-105.216 320.597,-92.7423"/>
<polygon fill="midnightblue" stroke="midnightblue" points="321.275,-89.3033 310.721,-90.2296 319.549,-96.0872 321.275,-89.3033"/>
</g>
</g>
</svg>
