<?xml version="1.0" encoding="UTF-8" standalone="no"?>
<!DOCTYPE svg PUBLIC "-//W3C//DTD SVG 1.1//EN"
 "http://www.w3.org/Graphics/SVG/1.1/DTD/svg11.dtd">
<!-- Generated by graphviz version 2.26.3 (20100126.1600)
 -->
<!-- Title: removeNetLabel Pages: 1 -->
<svg width="268pt" height="238pt"
 viewBox="0.00 0.00 268.00 238.00" xmlns="http://www.w3.org/2000/svg" xmlns:xlink="http://www.w3.org/1999/xlink">
<g id="graph1" class="graph" transform="scale(1 1) rotate(0) translate(4 234)">
<title>removeNetLabel</title>
<polygon fill="white" stroke="white" points="-4,5 -4,-234 265,-234 265,5 -4,5"/>
<!-- Node1 -->
<g id="node1" class="node"><title>Node1</title>
<polygon fill="#bfbfbf" stroke="black" points="0,-98.5 0,-119.5 88,-119.5 88,-98.5 0,-98.5"/>
<text text-anchor="middle" x="44" y="-106.5" font-family="Helvetica,sans-Serif" font-size="10.00">removeNetLabel</text>
</g>
<!-- Node2 -->
<g id="node3" class="node"><title>Node2</title>
<a xlink:href="../../d0/d8c/classproject_1_1_cmd_schematic_net_label_add.html#a91ca7652063093da57fc1bd0141dcc95" target="_top" xlink:title="Redo/execute the command (and all child commands in normal order) ">
<polygon fill="white" stroke="black" points="124.5,-196 124.5,-230 259.5,-230 259.5,-196 124.5,-196"/>
<text text-anchor="start" x="132.5" y="-217" font-family="Helvetica,sans-Serif" font-size="10.00">project::CmdSchematicNet</text>
<text text-anchor="middle" x="192" y="-204" font-family="Helvetica,sans-Serif" font-size="10.00">LabelAdd::redo</text>
</a>
</g>
<!-- Node1&#45;&gt;Node2 -->
<g id="edge2" class="edge"><title>Node1&#45;&gt;Node2</title>
<path fill="none" stroke="midnightblue" d="M59.0521,-127.523C73.9849,-144.886 98.2999,-170.564 124,-187 129.111,-190.269 134.696,-193.225 140.398,-195.873"/>
<polygon fill="midnightblue" stroke="midnightblue" points="61.6254,-125.145 52.5102,-119.745 56.2681,-129.651 61.6254,-125.145"/>
</g>
<!-- Node3 -->
<g id="node5" class="node"><title>Node3</title>
<a xlink:href="../../d0/d8c/classproject_1_1_cmd_schematic_net_label_add.html#a19e8778088bfe76b16745470981bb913" target="_top" xlink:title="Undo the command (and all child commands in reverse order) ">
<polygon fill="white" stroke="black" points="124.5,-144 124.5,-178 259.5,-178 259.5,-144 124.5,-144"/>
<text text-anchor="start" x="132.5" y="-165" font-family="Helvetica,sans-Serif" font-size="10.00">project::CmdSchematicNet</text>
<text text-anchor="middle" x="192" y="-152" font-family="Helvetica,sans-Serif" font-size="10.00">LabelAdd::undo</text>
</a>
</g>
<!-- Node1&#45;&gt;Node3 -->
<g id="edge4" class="edge"><title>Node1&#45;&gt;Node3</title>
<path fill="none" stroke="midnightblue" d="M83.4903,-122.875C101.914,-129.348 124.015,-137.113 143.45,-143.942"/>
<polygon fill="midnightblue" stroke="midnightblue" points="84.5448,-119.536 73.95,-119.523 82.2244,-126.14 84.5448,-119.536"/>
</g>
<!-- Node4 -->
<g id="node7" class="node"><title>Node4</title>
<a xlink:href="../../d1/daa/classproject_1_1_cmd_schematic_net_label_remove.html#a91ca7652063093da57fc1bd0141dcc95" target="_top" xlink:title="Redo/execute the command (and all child commands in normal order) ">
<polygon fill="white" stroke="black" points="124.5,-92 124.5,-126 259.5,-126 259.5,-92 124.5,-92"/>
<text text-anchor="start" x="132.5" y="-113" font-family="Helvetica,sans-Serif" font-size="10.00">project::CmdSchematicNet</text>
<text text-anchor="middle" x="192" y="-100" font-family="Helvetica,sans-Serif" font-size="10.00">LabelRemove::redo</text>
</a>
</g>
<!-- Node1&#45;&gt;Node4 -->
<g id="edge6" class="edge"><title>Node1&#45;&gt;Node4</title>
<path fill="none" stroke="midnightblue" d="M98.1597,-109C106.666,-109 115.551,-109 124.316,-109"/>
<polygon fill="midnightblue" stroke="midnightblue" points="98.0042,-105.5 88.0042,-109 98.0041,-112.5 98.0042,-105.5"/>
</g>
<!-- Node5 -->
<g id="node9" class="node"><title>Node5</title>
<a xlink:href="../../d1/daa/classproject_1_1_cmd_schematic_net_label_remove.html#a19e8778088bfe76b16745470981bb913" target="_top" xlink:title="Undo the command (and all child commands in reverse order) ">
<polygon fill="white" stroke="black" points="124.5,-40 124.5,-74 259.5,-74 259.5,-40 124.5,-40"/>
<text text-anchor="start" x="132.5" y="-61" font-family="Helvetica,sans-Serif" font-size="10.00">project::CmdSchematicNet</text>
<text text-anchor="middle" x="192" y="-48" font-family="Helvetica,sans-Serif" font-size="10.00">LabelRemove::undo</text>
</a>
</g>
<!-- Node1&#45;&gt;Node5 -->
<g id="edge8" class="edge"><title>Node1&#45;&gt;Node5</title>
<path fill="none" stroke="midnightblue" d="M83.4903,-95.125C101.914,-88.6518 124.015,-80.8866 143.45,-74.0582"/>
<polygon fill="midnightblue" stroke="midnightblue" points="82.2244,-91.86 73.95,-98.477 84.5448,-98.4642 82.2244,-91.86"/>
</g>
<!-- Node6 -->
<g id="node11" class="node"><title>Node6</title>
<a xlink:href="../../dd/d2d/classproject_1_1_schematic.html#a9d2b171705c992ace4155d02176f0022" target="_top" xlink:title="~Schematic">
<polygon fill="white" stroke="black" points="157.5,-0.5 157.5,-21.5 226.5,-21.5 226.5,-0.5 157.5,-0.5"/>
<text text-anchor="middle" x="192" y="-8.5" font-family="Helvetica,sans-Serif" font-size="10.00">~Schematic</text>
</a>
</g>
<!-- Node1&#45;&gt;Node6 -->
<g id="edge10" class="edge"><title>Node1&#45;&gt;Node6</title>
<path fill="none" stroke="midnightblue" d="M58.5303,-90.3065C73.2347,-72.6034 97.5258,-46.4902 124,-31 134.196,-25.0341 146.308,-20.7301 157.464,-17.6806"/>
<polygon fill="midnightblue" stroke="midnightblue" points="55.6823,-88.2622 52.1143,-98.2382 61.1246,-92.6646 55.6823,-88.2622"/>
</g>
</g>
</svg>
