<?xml version="1.0" encoding="UTF-8" standalone="no"?>
<!DOCTYPE svg PUBLIC "-//W3C//DTD SVG 1.1//EN"
 "http://www.w3.org/Graphics/SVG/1.1/DTD/svg11.dtd">
<!-- Generated by graphviz version 2.26.3 (20100126.1600)
 -->
<!-- Title: /home/travis/build/LibrePCB/LibrePCB/libs/librepcbworkspace/favoriteprojectsmodel.h Pages: 1 -->
<svg width="582pt" height="154pt"
 viewBox="0.00 0.00 582.00 154.00" xmlns="http://www.w3.org/2000/svg" xmlns:xlink="http://www.w3.org/1999/xlink">
<g id="graph1" class="graph" transform="scale(1 1) rotate(0) translate(4 150)">
<title>/home/travis/build/LibrePCB/LibrePCB/libs/librepcbworkspace/favoriteprojectsmodel.h</title>
<polygon fill="white" stroke="white" points="-4,5 -4,-150 579,-150 579,5 -4,5"/>
<!-- Node1 -->
<g id="node1" class="node"><title>Node1</title>
<polygon fill="#bfbfbf" stroke="black" points="206.5,-98.5 206.5,-145.5 411.5,-145.5 411.5,-98.5 206.5,-98.5"/>
<text text-anchor="start" x="214.5" y="-132.5" font-family="Helvetica,sans-Serif" font-size="10.00">/home/travis/build</text>
<text text-anchor="start" x="214.5" y="-119.5" font-family="Helvetica,sans-Serif" font-size="10.00">/LibrePCB/LibrePCB/libs</text>
<text text-anchor="middle" x="309" y="-106.5" font-family="Helvetica,sans-Serif" font-size="10.00">/librepcbworkspace/favoriteprojectsmodel.h</text>
</g>
<!-- Node2 -->
<g id="node3" class="node"><title>Node2</title>
<a xlink:href="../../d5/d41/favoriteprojectsmodel_8cpp.html" target="_top" xlink:title="/home/travis/build\l/LibrePCB/LibrePCB/libs\l/librepcbworkspace/favoriteprojectsmodel.cpp">
<polygon fill="white" stroke="black" points="-0.5,-7.5 -0.5,-54.5 214.5,-54.5 214.5,-7.5 -0.5,-7.5"/>
<text text-anchor="start" x="7.5" y="-41.5" font-family="Helvetica,sans-Serif" font-size="10.00">/home/travis/build</text>
<text text-anchor="start" x="7.5" y="-28.5" font-family="Helvetica,sans-Serif" font-size="10.00">/LibrePCB/LibrePCB/libs</text>
<text text-anchor="middle" x="107" y="-15.5" font-family="Helvetica,sans-Serif" font-size="10.00">/librepcbworkspace/favoriteprojectsmodel.cpp</text>
</a>
</g>
<!-- Node1&#45;&gt;Node2 -->
<g id="edge2" class="edge"><title>Node1&#45;&gt;Node2</title>
<path fill="none" stroke="midnightblue" d="M247.383,-94.2417C219.266,-81.5751 186.32,-66.7335 159.414,-54.6123"/>
<polygon fill="midnightblue" stroke="midnightblue" points="246.162,-97.5306 256.717,-98.4469 249.037,-91.1483 246.162,-97.5306"/>
</g>
<!-- Node3 -->
<g id="node5" class="node"><title>Node3</title>
<a xlink:href="../../df/d59/moc__favoriteprojectsmodel_8cpp.html" target="_top" xlink:title="/home/travis/build\l/LibrePCB/LibrePCB/libs\l/librepcbworkspace/moc\l/moc_favoriteprojectsmodel.cpp">
<polygon fill="white" stroke="black" points="231.5,-1 231.5,-61 386.5,-61 386.5,-1 231.5,-1"/>
<text text-anchor="start" x="239.5" y="-48" font-family="Helvetica,sans-Serif" font-size="10.00">/home/travis/build</text>
<text text-anchor="start" x="239.5" y="-35" font-family="Helvetica,sans-Serif" font-size="10.00">/LibrePCB/LibrePCB/libs</text>
<text text-anchor="start" x="239.5" y="-22" font-family="Helvetica,sans-Serif" font-size="10.00">/librepcbworkspace/moc</text>
<text text-anchor="middle" x="309" y="-9" font-family="Helvetica,sans-Serif" font-size="10.00">/moc_favoriteprojectsmodel.cpp</text>
</a>
</g>
<!-- Node1&#45;&gt;Node3 -->
<g id="edge4" class="edge"><title>Node1&#45;&gt;Node3</title>
<path fill="none" stroke="midnightblue" d="M309,-87.8357C309,-79.1098 309,-69.7898 309,-61.274"/>
<polygon fill="midnightblue" stroke="midnightblue" points="305.5,-88.0908 309,-98.0908 312.5,-88.0909 305.5,-88.0908"/>
</g>
<!-- Node4 -->
<g id="node7" class="node"><title>Node4</title>
<a xlink:href="../../d8/dad/workspace_8cpp.html" target="_top" xlink:title="/home/travis/build\l/LibrePCB/LibrePCB/libs\l/librepcbworkspace/workspace.cpp">
<polygon fill="white" stroke="black" points="404,-7.5 404,-54.5 574,-54.5 574,-7.5 404,-7.5"/>
<text text-anchor="start" x="412" y="-41.5" font-family="Helvetica,sans-Serif" font-size="10.00">/home/travis/build</text>
<text text-anchor="start" x="412" y="-28.5" font-family="Helvetica,sans-Serif" font-size="10.00">/LibrePCB/LibrePCB/libs</text>
<text text-anchor="middle" x="489" y="-15.5" font-family="Helvetica,sans-Serif" font-size="10.00">/librepcbworkspace/workspace.cpp</text>
</a>
</g>
<!-- Node1&#45;&gt;Node4 -->
<g id="edge6" class="edge"><title>Node1&#45;&gt;Node4</title>
<path fill="none" stroke="midnightblue" d="M364.793,-93.7933C389.693,-81.2052 418.696,-66.5425 442.411,-54.5531"/>
<polygon fill="midnightblue" stroke="midnightblue" points="363.168,-90.693 355.823,-98.3284 366.326,-96.9401 363.168,-90.693"/>
</g>
</g>
</svg>
