<?xml version="1.0" encoding="UTF-8" standalone="no"?>
<!DOCTYPE svg PUBLIC "-//W3C//DTD SVG 1.1//EN"
 "http://www.w3.org/Graphics/SVG/1.1/DTD/svg11.dtd">
<!-- Generated by graphviz version 2.26.3 (20100126.1600)
 -->
<!-- Title: /home/travis/build/LibrePCB/LibrePCB/libs/librepcbworkspace/favoriteprojectsmodel.h Pages: 1 -->
<svg width="410pt" height="140pt"
 viewBox="0.00 0.00 410.00 140.00" xmlns="http://www.w3.org/2000/svg" xmlns:xlink="http://www.w3.org/1999/xlink">
<g id="graph1" class="graph" transform="scale(1 1) rotate(0) translate(4 136)">
<title>/home/travis/build/LibrePCB/LibrePCB/libs/librepcbworkspace/favoriteprojectsmodel.h</title>
<polygon fill="white" stroke="white" points="-4,5 -4,-136 407,-136 407,5 -4,5"/>
<!-- Node1 -->
<g id="node1" class="node"><title>Node1</title>
<polygon fill="#bfbfbf" stroke="black" points="109.5,-84.5 109.5,-131.5 314.5,-131.5 314.5,-84.5 109.5,-84.5"/>
<text text-anchor="start" x="117.5" y="-118.5" font-family="Helvetica,sans-Serif" font-size="10.00">/home/travis/build</text>
<text text-anchor="start" x="117.5" y="-105.5" font-family="Helvetica,sans-Serif" font-size="10.00">/LibrePCB/LibrePCB/libs</text>
<text text-anchor="middle" x="212" y="-92.5" font-family="Helvetica,sans-Serif" font-size="10.00">/librepcbworkspace/favoriteprojectsmodel.h</text>
</g>
<!-- Node2 -->
<g id="node3" class="node"><title>Node2</title>
<a xlink:href="../../d5/d41/favoriteprojectsmodel_8cpp.html" target="_top" xlink:title="/home/travis/build\l/LibrePCB/LibrePCB/libs\l/librepcbworkspace/favoriteprojectsmodel.cpp">
<polygon fill="white" stroke="black" points="-0.5,-0.5 -0.5,-47.5 214.5,-47.5 214.5,-0.5 -0.5,-0.5"/>
<text text-anchor="start" x="7.5" y="-34.5" font-family="Helvetica,sans-Serif" font-size="10.00">/home/travis/build</text>
<text text-anchor="start" x="7.5" y="-21.5" font-family="Helvetica,sans-Serif" font-size="10.00">/LibrePCB/LibrePCB/libs</text>
<text text-anchor="middle" x="107" y="-8.5" font-family="Helvetica,sans-Serif" font-size="10.00">/librepcbworkspace/favoriteprojectsmodel.cpp</text>
</a>
</g>
<!-- Node1&#45;&gt;Node2 -->
<g id="edge2" class="edge"><title>Node1&#45;&gt;Node2</title>
<path fill="none" stroke="midnightblue" d="M174.513,-78.0107C162.084,-68.067 148.428,-57.1425 136.67,-47.736"/>
<polygon fill="midnightblue" stroke="midnightblue" points="172.477,-80.8638 182.472,-84.3778 176.85,-75.3977 172.477,-80.8638"/>
</g>
<!-- Node3 -->
<g id="node5" class="node"><title>Node3</title>
<a xlink:href="../../d8/dad/workspace_8cpp.html" target="_top" xlink:title="/home/travis/build\l/LibrePCB/LibrePCB/libs\l/librepcbworkspace/workspace.cpp">
<polygon fill="white" stroke="black" points="232,-0.5 232,-47.5 402,-47.5 402,-0.5 232,-0.5"/>
<text text-anchor="start" x="240" y="-34.5" font-family="Helvetica,sans-Serif" font-size="10.00">/home/travis/build</text>
<text text-anchor="start" x="240" y="-21.5" font-family="Helvetica,sans-Serif" font-size="10.00">/LibrePCB/LibrePCB/libs</text>
<text text-anchor="middle" x="317" y="-8.5" font-family="Helvetica,sans-Serif" font-size="10.00">/librepcbworkspace/workspace.cpp</text>
</a>
</g>
<!-- Node1&#45;&gt;Node3 -->
<g id="edge4" class="edge"><title>Node1&#45;&gt;Node3</title>
<path fill="none" stroke="midnightblue" d="M249.487,-78.0107C261.916,-68.067 275.572,-57.1425 287.33,-47.736"/>
<polygon fill="midnightblue" stroke="midnightblue" points="247.15,-75.3977 241.528,-84.3778 251.523,-80.8638 247.15,-75.3977"/>
</g>
</g>
</svg>
