<?xml version="1.0" encoding="UTF-8" standalone="no"?>
<!DOCTYPE svg PUBLIC "-//W3C//DTD SVG 1.1//EN"
 "http://www.w3.org/Graphics/SVG/1.1/DTD/svg11.dtd">
<!-- Generated by graphviz version 2.26.3 (20100126.1600)
 -->
<!-- Title: /home/travis/build/LibrePCB/LibrePCB/libs/librepcbproject/schematics/cmd/cmdschematicnetlabeladd.cpp Pages: 1 -->
<svg width="1137pt" height="662pt"
 viewBox="0.00 0.00 1137.00 662.00" xmlns="http://www.w3.org/2000/svg" xmlns:xlink="http://www.w3.org/1999/xlink">
<g id="graph1" class="graph" transform="scale(1 1) rotate(0) translate(4 658)">
<title>/home/travis/build/LibrePCB/LibrePCB/libs/librepcbproject/schematics/cmd/cmdschematicnetlabeladd.cpp</title>
<polygon fill="white" stroke="white" points="-4,5 -4,-658 1134,-658 1134,5 -4,5"/>
<!-- Node1 -->
<g id="node1" class="node"><title>Node1</title>
<polygon fill="#bfbfbf" stroke="black" points="130.5,-593 130.5,-653 303.5,-653 303.5,-593 130.5,-593"/>
<text text-anchor="start" x="138.5" y="-640" font-family="Helvetica,sans-Serif" font-size="10.00">/home/travis/build</text>
<text text-anchor="start" x="138.5" y="-627" font-family="Helvetica,sans-Serif" font-size="10.00">/LibrePCB/LibrePCB/libs</text>
<text text-anchor="start" x="138.5" y="-614" font-family="Helvetica,sans-Serif" font-size="10.00">/librepcbproject/schematics</text>
<text text-anchor="middle" x="217" y="-601" font-family="Helvetica,sans-Serif" font-size="10.00">/cmd/cmdschematicnetlabeladd.cpp</text>
</g>
<!-- Node2 -->
<g id="node3" class="node"><title>Node2</title>
<polygon fill="white" stroke="#bfbfbf" points="571,-0.5 571,-21.5 619,-21.5 619,-0.5 571,-0.5"/>
<text text-anchor="middle" x="595" y="-8.5" font-family="Helvetica,sans-Serif" font-size="10.00">QtCore</text>
</g>
<!-- Node1&#45;&gt;Node2 -->
<g id="edge2" class="edge"><title>Node1&#45;&gt;Node2</title>
<path fill="none" stroke="midnightblue" d="M130.3,-602.662C69.8573,-582.737 0,-545.534 0,-480 0,-480 0,-480 0,-141 0,-83.241 46.6602,-80.1577 100,-58 183.658,-23.2478 462.86,-13.8875 560.74,-11.6429"/>
<polygon fill="midnightblue" stroke="midnightblue" points="561.042,-15.1372 570.963,-11.4195 560.889,-8.13888 561.042,-15.1372"/>
</g>
<!-- Node3 -->
<g id="node5" class="node"><title>Node3</title>
<a xlink:href="../../dd/d43/cmdschematicnetlabeladd_8h.html" target="_top" xlink:title="cmdschematicnetlabeladd.h">
<polygon fill="white" stroke="black" points="83,-267.5 83,-288.5 221,-288.5 221,-267.5 83,-267.5"/>
<text text-anchor="middle" x="152" y="-275.5" font-family="Helvetica,sans-Serif" font-size="10.00">cmdschematicnetlabeladd.h</text>
</a>
</g>
<!-- Node1&#45;&gt;Node3 -->
<g id="edge4" class="edge"><title>Node1&#45;&gt;Node3</title>
<path fill="none" stroke="midnightblue" d="M207.599,-592.928C199.464,-564.218 189,-519.591 189,-480 189,-480 189,-480 189,-415 189,-372.153 171.924,-324.294 160.973,-298.008"/>
<polygon fill="midnightblue" stroke="midnightblue" points="164.155,-296.547 156.99,-288.743 157.724,-299.312 164.155,-296.547"/>
</g>
<!-- Node8 -->
<g id="node22" class="node"><title>Node8</title>
<a xlink:href="../../d1/d8d/schematic_8h.html" target="_top" xlink:title="../schematic.h">
<polygon fill="white" stroke="black" points="586.5,-339.5 586.5,-360.5 665.5,-360.5 665.5,-339.5 586.5,-339.5"/>
<text text-anchor="middle" x="626" y="-347.5" font-family="Helvetica,sans-Serif" font-size="10.00">../schematic.h</text>
</a>
</g>
<!-- Node1&#45;&gt;Node8 -->
<g id="edge28" class="edge"><title>Node1&#45;&gt;Node8</title>
<path fill="none" stroke="midnightblue" d="M262.333,-592.741C348.742,-535.065 534.372,-411.16 601.303,-366.485"/>
<polygon fill="midnightblue" stroke="midnightblue" points="603.563,-369.184 609.937,-360.722 599.677,-363.362 603.563,-369.184"/>
</g>
<!-- Node16 -->
<g id="node49" class="node"><title>Node16</title>
<a xlink:href="../../d5/dff/si__netlabel_8h.html" target="_top" xlink:title="../items/si_netlabel.h">
<polygon fill="white" stroke="black" points="720.5,-534.5 720.5,-555.5 827.5,-555.5 827.5,-534.5 720.5,-534.5"/>
<text text-anchor="middle" x="774" y="-542.5" font-family="Helvetica,sans-Serif" font-size="10.00">../items/si_netlabel.h</text>
</a>
</g>
<!-- Node1&#45;&gt;Node16 -->
<g id="edge66" class="edge"><title>Node1&#45;&gt;Node16</title>
<path fill="none" stroke="midnightblue" d="M303.725,-610.855C416.356,-595.083 610.332,-567.919 710.314,-553.918"/>
<polygon fill="midnightblue" stroke="midnightblue" points="710.857,-557.377 720.275,-552.523 709.886,-550.444 710.857,-557.377"/>
</g>
<!-- Node3&#45;&gt;Node2 -->
<g id="edge6" class="edge"><title>Node3&#45;&gt;Node2</title>
<path fill="none" stroke="midnightblue" d="M135.774,-267.344C100.614,-242.913 23.1914,-181.035 57,-130 113.496,-44.7176 451.113,-18.874 560.686,-12.6783"/>
<polygon fill="midnightblue" stroke="midnightblue" points="561.06,-16.1632 570.854,-12.1233 560.679,-9.1736 561.06,-16.1632"/>
</g>
<!-- Node4 -->
<g id="node8" class="node"><title>Node4</title>
<a xlink:href="../../dc/da0/undocommand_8h.html" target="_top" xlink:title="librepcbcommon/undocommand.h">
<polygon fill="white" stroke="black" points="65.5,-130.5 65.5,-151.5 228.5,-151.5 228.5,-130.5 65.5,-130.5"/>
<text text-anchor="middle" x="147" y="-138.5" font-family="Helvetica,sans-Serif" font-size="10.00">librepcbcommon/undocommand.h</text>
</a>
</g>
<!-- Node3&#45;&gt;Node4 -->
<g id="edge8" class="edge"><title>Node3&#45;&gt;Node4</title>
<path fill="none" stroke="midnightblue" d="M151.608,-267.25C150.779,-244.541 148.838,-191.348 147.758,-161.768"/>
<polygon fill="midnightblue" stroke="midnightblue" points="151.253,-161.566 147.391,-151.7 144.258,-161.821 151.253,-161.566"/>
</g>
<!-- Node5 -->
<g id="node11" class="node"><title>Node5</title>
<a xlink:href="../../d4/d03/exceptions_8h.html" target="_top" xlink:title="exceptions.h">
<polygon fill="white" stroke="black" points="374,-65.5 374,-86.5 446,-86.5 446,-65.5 374,-65.5"/>
<text text-anchor="middle" x="410" y="-73.5" font-family="Helvetica,sans-Serif" font-size="10.00">exceptions.h</text>
</a>
</g>
<!-- Node3&#45;&gt;Node5 -->
<g id="edge26" class="edge"><title>Node3&#45;&gt;Node5</title>
<path fill="none" stroke="midnightblue" d="M157.716,-267.463C172.69,-240.782 215.682,-169.847 270,-130 298.09,-109.393 335.038,-95.5796 363.922,-87.0855"/>
<polygon fill="midnightblue" stroke="midnightblue" points="365.104,-90.3886 373.775,-84.3005 363.2,-83.6525 365.104,-90.3886"/>
</g>
<!-- Node6 -->
<g id="node14" class="node"><title>Node6</title>
<a xlink:href="../../d2/d91/point_8h.html" target="_top" xlink:title="librepcbcommon/units\l/point.h">
<polygon fill="white" stroke="black" points="255,-189 255,-223 367,-223 367,-189 255,-189"/>
<text text-anchor="start" x="263" y="-210" font-family="Helvetica,sans-Serif" font-size="10.00">librepcbcommon/units</text>
<text text-anchor="middle" x="311" y="-197" font-family="Helvetica,sans-Serif" font-size="10.00">/point.h</text>
</a>
</g>
<!-- Node3&#45;&gt;Node6 -->
<g id="edge16" class="edge"><title>Node3&#45;&gt;Node6</title>
<path fill="none" stroke="midnightblue" d="M175.461,-267.376C198.689,-256.858 234.904,-240.458 264.058,-227.257"/>
<polygon fill="midnightblue" stroke="midnightblue" points="265.584,-230.408 273.25,-223.094 262.697,-224.031 265.584,-230.408"/>
</g>
<!-- Node4&#45;&gt;Node2 -->
<g id="edge10" class="edge"><title>Node4&#45;&gt;Node2</title>
<path fill="none" stroke="midnightblue" d="M164.763,-130.264C195.077,-112.435 259.231,-76.8238 318,-58 402.745,-30.8559 507.377,-18.5307 560.516,-13.6885"/>
<polygon fill="midnightblue" stroke="midnightblue" points="561.086,-17.152 570.742,-12.7919 560.475,-10.1788 561.086,-17.152"/>
</g>
<!-- Node4&#45;&gt;Node5 -->
<g id="edge12" class="edge"><title>Node4&#45;&gt;Node5</title>
<path fill="none" stroke="midnightblue" d="M189.548,-130.484C237.423,-118.652 314.912,-99.5008 364.115,-87.3405"/>
<polygon fill="midnightblue" stroke="midnightblue" points="364.994,-90.7286 373.862,-84.9314 363.314,-83.933 364.994,-90.7286"/>
</g>
<!-- Node5&#45;&gt;Node2 -->
<g id="edge14" class="edge"><title>Node5&#45;&gt;Node2</title>
<path fill="none" stroke="midnightblue" d="M440.135,-65.412C473.31,-53.7559 526.518,-35.0613 561.117,-22.9049"/>
<polygon fill="midnightblue" stroke="midnightblue" points="562.507,-26.1261 570.782,-19.5091 560.187,-19.5219 562.507,-26.1261"/>
</g>
<!-- Node6&#45;&gt;Node2 -->
<g id="edge18" class="edge"><title>Node6&#45;&gt;Node2</title>
<path fill="none" stroke="midnightblue" d="M312.022,-188.817C314.844,-157.703 325.425,-92.1022 365,-58 393.932,-33.0685 503.779,-19.4509 560.555,-13.944"/>
<polygon fill="midnightblue" stroke="midnightblue" points="561.206,-17.3984 570.836,-12.9795 560.552,-10.429 561.206,-17.3984"/>
</g>
<!-- Node7 -->
<g id="node17" class="node"><title>Node7</title>
<a xlink:href="../../dd/db9/length_8h.html" target="_top" xlink:title="length.h">
<polygon fill="white" stroke="black" points="397.5,-130.5 397.5,-151.5 448.5,-151.5 448.5,-130.5 397.5,-130.5"/>
<text text-anchor="middle" x="423" y="-138.5" font-family="Helvetica,sans-Serif" font-size="10.00">length.h</text>
</a>
</g>
<!-- Node6&#45;&gt;Node7 -->
<g id="edge20" class="edge"><title>Node6&#45;&gt;Node7</title>
<path fill="none" stroke="midnightblue" d="M340.427,-188.922C357.598,-178.957 379.108,-166.473 395.869,-156.745"/>
<polygon fill="midnightblue" stroke="midnightblue" points="397.743,-159.705 404.635,-151.658 394.229,-153.651 397.743,-159.705"/>
</g>
<!-- Node7&#45;&gt;Node2 -->
<g id="edge22" class="edge"><title>Node7&#45;&gt;Node2</title>
<path fill="none" stroke="midnightblue" d="M436.566,-130.422C456.961,-114.555 496.78,-83.7098 531,-58 544.569,-47.8053 559.889,-36.5458 572.138,-27.6035"/>
<polygon fill="midnightblue" stroke="midnightblue" points="574.424,-30.2681 580.445,-21.5501 570.302,-24.6108 574.424,-30.2681"/>
</g>
<!-- Node7&#45;&gt;Node5 -->
<g id="edge24" class="edge"><title>Node7&#45;&gt;Node5</title>
<path fill="none" stroke="midnightblue" d="M420.853,-130.267C419.017,-121.085 416.323,-107.615 414.078,-96.3917"/>
<polygon fill="midnightblue" stroke="midnightblue" points="417.5,-95.6531 412.107,-86.5337 410.636,-97.0259 417.5,-95.6531"/>
</g>
<!-- Node8&#45;&gt;Node2 -->
<g id="edge30" class="edge"><title>Node8&#45;&gt;Node2</title>
<path fill="none" stroke="midnightblue" d="M640.46,-339.479C672.379,-314.862 744.463,-250.821 724,-188 702.162,-120.959 644.279,-58.1731 614.025,-28.6521"/>
<polygon fill="midnightblue" stroke="midnightblue" points="616.263,-25.9489 606.622,-21.5555 611.419,-31.0022 616.263,-25.9489"/>
</g>
<!-- Node8&#45;&gt;Node5 -->
<g id="edge64" class="edge"><title>Node8&#45;&gt;Node5</title>
<path fill="none" stroke="midnightblue" d="M586.351,-343.856C535.447,-335.194 451.042,-317.967 429,-296 375.247,-242.43 375.007,-204.588 389,-130 391.175,-118.407 395.764,-106.104 400.099,-96.1738"/>
<polygon fill="midnightblue" stroke="midnightblue" points="403.405,-97.3611 404.412,-86.8142 397.048,-94.4311 403.405,-97.3611"/>
</g>
<!-- Node9 -->
<g id="node25" class="node"><title>Node9</title>
<polygon fill="white" stroke="#bfbfbf" points="884.5,-267.5 884.5,-288.5 947.5,-288.5 947.5,-267.5 884.5,-267.5"/>
<text text-anchor="middle" x="916" y="-275.5" font-family="Helvetica,sans-Serif" font-size="10.00">QtWidgets</text>
</g>
<!-- Node8&#45;&gt;Node9 -->
<g id="edge32" class="edge"><title>Node8&#45;&gt;Node9</title>
<path fill="none" stroke="midnightblue" d="M665.715,-340.14C720.478,-326.543 818.713,-302.154 874.435,-288.32"/>
<polygon fill="midnightblue" stroke="midnightblue" points="875.463,-291.671 884.325,-285.864 873.776,-284.877 875.463,-291.671"/>
</g>
<!-- Node10 -->
<g id="node27" class="node"><title>Node10</title>
<a xlink:href="../../da/d81/if__attributeprovider_8h.html" target="_top" xlink:title="librepcbcommon/if_attributeprovider.h">
<polygon fill="white" stroke="black" points="536.5,-195.5 536.5,-216.5 715.5,-216.5 715.5,-195.5 536.5,-195.5"/>
<text text-anchor="middle" x="626" y="-203.5" font-family="Helvetica,sans-Serif" font-size="10.00">librepcbcommon/if_attributeprovider.h</text>
</a>
</g>
<!-- Node8&#45;&gt;Node10 -->
<g id="edge34" class="edge"><title>Node8&#45;&gt;Node10</title>
<path fill="none" stroke="midnightblue" d="M626,-339.177C626,-315.292 626,-257.736 626,-226.686"/>
<polygon fill="midnightblue" stroke="midnightblue" points="629.5,-226.558 626,-216.558 622.5,-226.558 629.5,-226.558"/>
</g>
<!-- Node11 -->
<g id="node30" class="node"><title>Node11</title>
<a xlink:href="../../d0/d1d/if__xmlserializableobject_8h.html" target="_top" xlink:title="librepcbcommon/fileio\l/if_xmlserializableobject.h">
<polygon fill="white" stroke="black" points="238.5,-261 238.5,-295 367.5,-295 367.5,-261 238.5,-261"/>
<text text-anchor="start" x="246.5" y="-282" font-family="Helvetica,sans-Serif" font-size="10.00">librepcbcommon/fileio</text>
<text text-anchor="middle" x="303" y="-269" font-family="Helvetica,sans-Serif" font-size="10.00">/if_xmlserializableobject.h</text>
</a>
</g>
<!-- Node8&#45;&gt;Node11 -->
<g id="edge38" class="edge"><title>Node8&#45;&gt;Node11</title>
<path fill="none" stroke="midnightblue" d="M586.083,-341.329C537.569,-330.76 453.23,-312.294 381,-296 379.915,-295.755 378.823,-295.508 377.723,-295.26"/>
<polygon fill="midnightblue" stroke="midnightblue" points="378.211,-291.781 367.684,-292.979 376.66,-298.607 378.211,-291.781"/>
</g>
<!-- Node12 -->
<g id="node33" class="node"><title>Node12</title>
<a xlink:href="../../d1/da8/all__length__units_8h.html" target="_top" xlink:title="librepcbcommon/units\l/all_length_units.h">
<polygon fill="white" stroke="black" points="438,-261 438,-295 550,-295 550,-261 438,-261"/>
<text text-anchor="start" x="446" y="-282" font-family="Helvetica,sans-Serif" font-size="10.00">librepcbcommon/units</text>
<text text-anchor="middle" x="494" y="-269" font-family="Helvetica,sans-Serif" font-size="10.00">/all_length_units.h</text>
</a>
</g>
<!-- Node8&#45;&gt;Node12 -->
<g id="edge42" class="edge"><title>Node8&#45;&gt;Node12</title>
<path fill="none" stroke="midnightblue" d="M606.523,-339.376C587.573,-329.04 558.212,-313.025 534.233,-299.945"/>
<polygon fill="midnightblue" stroke="midnightblue" points="535.795,-296.81 525.34,-295.094 532.443,-302.956 535.795,-296.81"/>
</g>
<!-- Node15 -->
<g id="node45" class="node"><title>Node15</title>
<a xlink:href="../../dd/dec/filepath_8h.html" target="_top" xlink:title="librepcbcommon/fileio\l/filepath.h">
<polygon fill="white" stroke="black" points="680.5,-59 680.5,-93 791.5,-93 791.5,-59 680.5,-59"/>
<text text-anchor="start" x="688.5" y="-80" font-family="Helvetica,sans-Serif" font-size="10.00">librepcbcommon/fileio</text>
<text text-anchor="middle" x="736" y="-67" font-family="Helvetica,sans-Serif" font-size="10.00">/filepath.h</text>
</a>
</g>
<!-- Node8&#45;&gt;Node15 -->
<g id="edge60" class="edge"><title>Node8&#45;&gt;Node15</title>
<path fill="none" stroke="midnightblue" d="M665.771,-345.371C696.402,-339.485 736.816,-326.152 757,-296 796.884,-236.42 767.352,-146.599 748.493,-102.432"/>
<polygon fill="midnightblue" stroke="midnightblue" points="751.671,-100.963 744.432,-93.2266 745.266,-103.789 751.671,-100.963"/>
</g>
<!-- Node10&#45;&gt;Node2 -->
<g id="edge36" class="edge"><title>Node10&#45;&gt;Node2</title>
<path fill="none" stroke="midnightblue" d="M624.289,-195.238C619.336,-164.082 604.92,-73.3973 598.342,-32.022"/>
<polygon fill="midnightblue" stroke="midnightblue" points="601.77,-31.2954 596.744,-21.9689 594.857,-32.3944 601.77,-31.2954"/>
</g>
<!-- Node11&#45;&gt;Node5 -->
<g id="edge40" class="edge"><title>Node11&#45;&gt;Node5</title>
<path fill="none" stroke="midnightblue" d="M277.006,-260.96C265.177,-251.618 252.41,-238.901 246,-224 239.678,-209.302 238.529,-202.149 246,-188 272.027,-138.708 330.587,-107.006 370.21,-90.336"/>
<polygon fill="midnightblue" stroke="midnightblue" points="371.652,-93.528 379.596,-86.5176 369.014,-87.044 371.652,-93.528"/>
</g>
<!-- Node12&#45;&gt;Node6 -->
<g id="edge52" class="edge"><title>Node12&#45;&gt;Node6</title>
<path fill="none" stroke="midnightblue" d="M450.632,-260.937C424.631,-250.707 391.382,-237.626 363.852,-226.794"/>
<polygon fill="midnightblue" stroke="midnightblue" points="364.961,-223.469 354.374,-223.065 362.398,-229.983 364.961,-223.469"/>
</g>
<!-- Node12&#45;&gt;Node7 -->
<g id="edge50" class="edge"><title>Node12&#45;&gt;Node7</title>
<path fill="none" stroke="midnightblue" d="M485.151,-260.926C471.966,-235.484 447.223,-187.74 433.262,-160.802"/>
<polygon fill="midnightblue" stroke="midnightblue" points="436.195,-158.855 428.486,-151.586 429.98,-162.075 436.195,-158.855"/>
</g>
<!-- Node13 -->
<g id="node35" class="node"><title>Node13</title>
<a xlink:href="../../d0/d09/lengthunit_8h.html" target="_top" xlink:title="lengthunit.h">
<polygon fill="white" stroke="black" points="465.5,-130.5 465.5,-151.5 532.5,-151.5 532.5,-130.5 465.5,-130.5"/>
<text text-anchor="middle" x="499" y="-138.5" font-family="Helvetica,sans-Serif" font-size="10.00">lengthunit.h</text>
</a>
</g>
<!-- Node12&#45;&gt;Node13 -->
<g id="edge44" class="edge"><title>Node12&#45;&gt;Node13</title>
<path fill="none" stroke="midnightblue" d="M493.814,-260.735C493.707,-242.609 493.785,-213.285 495,-188 495.411,-179.452 496.153,-170.051 496.887,-161.918"/>
<polygon fill="midnightblue" stroke="midnightblue" points="500.385,-162.1 497.852,-151.812 493.417,-161.434 500.385,-162.1"/>
</g>
<!-- Node14 -->
<g id="node41" class="node"><title>Node14</title>
<a xlink:href="../../da/dac/angle_8h.html" target="_top" xlink:title="angle.h">
<polygon fill="white" stroke="black" points="550,-130.5 550,-151.5 598,-151.5 598,-130.5 550,-130.5"/>
<text text-anchor="middle" x="574" y="-138.5" font-family="Helvetica,sans-Serif" font-size="10.00">angle.h</text>
</a>
</g>
<!-- Node12&#45;&gt;Node14 -->
<g id="edge54" class="edge"><title>Node12&#45;&gt;Node14</title>
<path fill="none" stroke="midnightblue" d="M498.215,-260.775C503.337,-241.905 513.176,-211.233 528,-188 534.865,-177.241 544.505,-166.917 553.188,-158.699"/>
<polygon fill="midnightblue" stroke="midnightblue" points="555.741,-161.108 560.786,-151.792 551.032,-155.929 555.741,-161.108"/>
</g>
<!-- Node13&#45;&gt;Node2 -->
<g id="edge46" class="edge"><title>Node13&#45;&gt;Node2</title>
<path fill="none" stroke="midnightblue" d="M506.856,-130.362C523.1,-108.365 560.57,-57.6236 581.036,-29.909"/>
<polygon fill="midnightblue" stroke="midnightblue" points="583.91,-31.909 587.035,-21.7854 578.279,-27.7506 583.91,-31.909"/>
</g>
<!-- Node13&#45;&gt;Node5 -->
<g id="edge48" class="edge"><title>Node13&#45;&gt;Node5</title>
<path fill="none" stroke="midnightblue" d="M484.303,-130.267C470.306,-120.044 449.029,-104.504 432.825,-92.6699"/>
<polygon fill="midnightblue" stroke="midnightblue" points="434.563,-89.6052 424.423,-86.5337 430.434,-95.2581 434.563,-89.6052"/>
</g>
<!-- Node14&#45;&gt;Node2 -->
<g id="edge56" class="edge"><title>Node14&#45;&gt;Node2</title>
<path fill="none" stroke="midnightblue" d="M575.719,-130.362C579.195,-108.841 587.116,-59.8068 591.65,-31.7405"/>
<polygon fill="midnightblue" stroke="midnightblue" points="595.118,-32.2156 593.258,-21.7854 588.208,-31.0993 595.118,-32.2156"/>
</g>
<!-- Node14&#45;&gt;Node5 -->
<g id="edge58" class="edge"><title>Node14&#45;&gt;Node5</title>
<path fill="none" stroke="midnightblue" d="M549.801,-131.409C522.428,-120.56 477.57,-102.781 446.066,-90.2944"/>
<polygon fill="midnightblue" stroke="midnightblue" points="447.338,-87.0336 436.752,-86.6028 444.758,-93.5412 447.338,-87.0336"/>
</g>
<!-- Node15&#45;&gt;Node2 -->
<g id="edge62" class="edge"><title>Node15&#45;&gt;Node2</title>
<path fill="none" stroke="midnightblue" d="M698.954,-58.922C676.736,-48.6798 648.748,-35.7774 627.411,-25.9413"/>
<polygon fill="midnightblue" stroke="midnightblue" points="628.667,-22.6664 618.12,-21.6584 625.737,-29.0234 628.667,-22.6664"/>
</g>
<!-- Node16&#45;&gt;Node2 -->
<g id="edge68" class="edge"><title>Node16&#45;&gt;Node2</title>
<path fill="none" stroke="midnightblue" d="M827.531,-536.828C926.704,-520.171 1129,-478.419 1129,-415 1129,-415 1129,-415 1129,-141 1129,-82.8983 1081.56,-80.5189 1028,-58 956.078,-27.7611 718.747,-15.7329 629.414,-12.2053"/>
<polygon fill="midnightblue" stroke="midnightblue" points="629.401,-8.70229 619.274,-11.8165 629.133,-15.6971 629.401,-8.70229"/>
</g>
<!-- Node16&#45;&gt;Node11 -->
<g id="edge78" class="edge"><title>Node16&#45;&gt;Node11</title>
<path fill="none" stroke="midnightblue" d="M755.246,-534.369C685.217,-494.671 438.142,-354.609 341.838,-300.016"/>
<polygon fill="midnightblue" stroke="midnightblue" points="343.425,-296.893 332.999,-295.006 339.973,-302.982 343.425,-296.893"/>
</g>
<!-- Node17 -->
<g id="node52" class="node"><title>Node17</title>
<a xlink:href="../../d6/d1f/si__base_8h.html" target="_top" xlink:title="si_base.h">
<polygon fill="white" stroke="black" points="744.5,-339.5 744.5,-360.5 803.5,-360.5 803.5,-339.5 744.5,-339.5"/>
<text text-anchor="middle" x="774" y="-347.5" font-family="Helvetica,sans-Serif" font-size="10.00">si_base.h</text>
</a>
</g>
<!-- Node16&#45;&gt;Node17 -->
<g id="edge70" class="edge"><title>Node16&#45;&gt;Node17</title>
<path fill="none" stroke="midnightblue" d="M774,-534.238C774,-503.082 774,-412.397 774,-371.022"/>
<polygon fill="midnightblue" stroke="midnightblue" points="777.5,-370.969 774,-360.969 770.5,-370.969 777.5,-370.969"/>
</g>
<!-- Node18 -->
<g id="node58" class="node"><title>Node18</title>
<a xlink:href="../../da/dc2/sgi__netlabel_8h.html" target="_top" xlink:title="../graphicsitems/sgi\l_netlabel.h">
<polygon fill="white" stroke="black" points="810,-463 810,-497 912,-497 912,-463 810,-463"/>
<text text-anchor="start" x="818" y="-484" font-family="Helvetica,sans-Serif" font-size="10.00">../graphicsitems/sgi</text>
<text text-anchor="middle" x="861" y="-471" font-family="Helvetica,sans-Serif" font-size="10.00">_netlabel.h</text>
</a>
</g>
<!-- Node16&#45;&gt;Node18 -->
<g id="edge80" class="edge"><title>Node16&#45;&gt;Node18</title>
<path fill="none" stroke="midnightblue" d="M788.366,-534.267C799.663,-525.827 815.81,-513.762 830.013,-503.151"/>
<polygon fill="midnightblue" stroke="midnightblue" points="832.183,-505.899 838.099,-497.11 827.993,-500.291 832.183,-505.899"/>
</g>
<!-- Node17&#45;&gt;Node2 -->
<g id="edge72" class="edge"><title>Node17&#45;&gt;Node2</title>
<path fill="none" stroke="midnightblue" d="M779.883,-339.161C792.081,-315.641 819,-257.861 819,-206 819,-206 819,-206 819,-141 819,-103.157 826.755,-84.7636 800,-58 776.332,-34.3242 681.394,-20.4518 629.427,-14.4858"/>
<polygon fill="midnightblue" stroke="midnightblue" points="629.661,-10.9903 619.335,-13.3647 628.888,-17.9475 629.661,-10.9903"/>
</g>
<!-- Node17&#45;&gt;Node9 -->
<g id="edge74" class="edge"><title>Node17&#45;&gt;Node9</title>
<path fill="none" stroke="midnightblue" d="M794.953,-339.376C818.968,-327.199 858.528,-307.141 885.852,-293.286"/>
<polygon fill="midnightblue" stroke="midnightblue" points="887.625,-296.311 894.961,-288.667 884.46,-290.068 887.625,-296.311"/>
</g>
<!-- Node17&#45;&gt;Node12 -->
<g id="edge76" class="edge"><title>Node17&#45;&gt;Node12</title>
<path fill="none" stroke="midnightblue" d="M744.3,-342.363C700.727,-331.158 618.333,-309.971 559.997,-294.971"/>
<polygon fill="midnightblue" stroke="midnightblue" points="560.683,-291.533 550.126,-292.432 558.939,-298.313 560.683,-291.533"/>
</g>
<!-- Node18&#45;&gt;Node2 -->
<g id="edge82" class="edge"><title>Node18&#45;&gt;Node2</title>
<path fill="none" stroke="midnightblue" d="M860.572,-462.69C859.54,-419.42 857,-303.052 857,-206 857,-206 857,-206 857,-141 857,-101.136 853.678,-83.4563 823,-58 793.927,-33.8753 685.723,-19.9207 629.468,-14.148"/>
<polygon fill="midnightblue" stroke="midnightblue" points="629.571,-10.6411 619.274,-13.1333 628.878,-17.6067 629.571,-10.6411"/>
</g>
<!-- Node18&#45;&gt;Node9 -->
<g id="edge84" class="edge"><title>Node18&#45;&gt;Node9</title>
<path fill="none" stroke="midnightblue" d="M865.689,-462.778C875.779,-425.722 899.512,-338.557 910.383,-298.63"/>
<polygon fill="midnightblue" stroke="midnightblue" points="913.778,-299.482 913.028,-288.914 907.024,-297.643 913.778,-299.482"/>
</g>
<!-- Node19 -->
<g id="node62" class="node"><title>Node19</title>
<a xlink:href="../../d4/d91/sgi__base_8h.html" target="_top" xlink:title="sgi_base.h">
<polygon fill="white" stroke="black" points="897,-404.5 897,-425.5 961,-425.5 961,-404.5 897,-404.5"/>
<text text-anchor="middle" x="929" y="-412.5" font-family="Helvetica,sans-Serif" font-size="10.00">sgi_base.h</text>
</a>
</g>
<!-- Node18&#45;&gt;Node19 -->
<g id="edge86" class="edge"><title>Node18&#45;&gt;Node19</title>
<path fill="none" stroke="midnightblue" d="M878.866,-462.922C888.554,-453.662 900.516,-442.227 910.326,-432.85"/>
<polygon fill="midnightblue" stroke="midnightblue" points="912.837,-435.292 917.647,-425.852 908,-430.232 912.837,-435.292"/>
</g>
<!-- Node19&#45;&gt;Node2 -->
<g id="edge88" class="edge"><title>Node19&#45;&gt;Node2</title>
<path fill="none" stroke="midnightblue" d="M961.223,-408.326C998.637,-399.931 1057.13,-384.592 1072,-368 1099.28,-337.554 1091,-318.882 1091,-278 1091,-278 1091,-278 1091,-141 1091,-45.3838 741.737,-18.698 629.374,-12.5869"/>
<polygon fill="midnightblue" stroke="midnightblue" points="629.428,-9.08505 619.259,-12.0581 629.062,-16.0755 629.428,-9.08505"/>
</g>
<!-- Node19&#45;&gt;Node8 -->
<g id="edge98" class="edge"><title>Node19&#45;&gt;Node8</title>
<path fill="none" stroke="midnightblue" d="M896.861,-408.105C844.056,-396.778 738.567,-374.148 675.957,-360.717"/>
<polygon fill="midnightblue" stroke="midnightblue" points="676.427,-357.238 665.915,-358.563 674.958,-364.082 676.427,-357.238"/>
</g>
<!-- Node19&#45;&gt;Node9 -->
<g id="edge90" class="edge"><title>Node19&#45;&gt;Node9</title>
<path fill="none" stroke="midnightblue" d="M927.98,-404.25C925.825,-381.541 920.778,-328.348 917.971,-298.768"/>
<polygon fill="midnightblue" stroke="midnightblue" points="921.444,-298.325 917.015,-288.7 914.476,-298.986 921.444,-298.325"/>
</g>
<!-- Node20 -->
<g id="node66" class="node"><title>Node20</title>
<a xlink:href="../../de/dd6/graphicsitem_8h.html" target="_top" xlink:title="librepcbcommon/graphics\l/graphicsitem.h">
<polygon fill="white" stroke="black" points="935,-333 935,-367 1063,-367 1063,-333 935,-333"/>
<text text-anchor="start" x="943" y="-354" font-family="Helvetica,sans-Serif" font-size="10.00">librepcbcommon/graphics</text>
<text text-anchor="middle" x="999" y="-341" font-family="Helvetica,sans-Serif" font-size="10.00">/graphicsitem.h</text>
</a>
</g>
<!-- Node19&#45;&gt;Node20 -->
<g id="edge92" class="edge"><title>Node19&#45;&gt;Node20</title>
<path fill="none" stroke="midnightblue" d="M940.559,-404.267C949.393,-396.063 961.915,-384.436 973.103,-374.047"/>
<polygon fill="midnightblue" stroke="midnightblue" points="975.628,-376.479 980.574,-367.11 970.864,-371.35 975.628,-376.479"/>
</g>
<!-- Node20&#45;&gt;Node2 -->
<g id="edge94" class="edge"><title>Node20&#45;&gt;Node2</title>
<path fill="none" stroke="midnightblue" d="M995.839,-332.779C991.176,-305.837 983,-252.032 983,-206 983,-206 983,-206 983,-141 983,-79.0434 927.988,-82.3105 871,-58 827.908,-39.6174 693.217,-22.2695 629.31,-14.8212"/>
<polygon fill="midnightblue" stroke="midnightblue" points="629.657,-11.3382 619.323,-13.6708 628.856,-18.2922 629.657,-11.3382"/>
</g>
<!-- Node20&#45;&gt;Node9 -->
<g id="edge96" class="edge"><title>Node20&#45;&gt;Node9</title>
<path fill="none" stroke="midnightblue" d="M979.33,-332.937C966.309,-321.642 949.28,-306.869 936.16,-295.488"/>
<polygon fill="midnightblue" stroke="midnightblue" points="938.414,-292.81 928.566,-288.901 933.827,-298.098 938.414,-292.81"/>
</g>
</g>
</svg>
