<?xml version="1.0" encoding="UTF-8" standalone="no"?>
<!DOCTYPE svg PUBLIC "-//W3C//DTD SVG 1.1//EN"
 "http://www.w3.org/Graphics/SVG/1.1/DTD/svg11.dtd">
<!-- Generated by graphviz version 2.26.3 (20100126.1600)
 -->
<!-- Title: /home/travis/build/LibrePCB/LibrePCB/libs/librepcbprojecteditor/schematiceditor/symbolinstancepropertiesdialog.h Pages: 1 -->
<svg width="636pt" height="180pt"
 viewBox="0.00 0.00 636.00 180.00" xmlns="http://www.w3.org/2000/svg" xmlns:xlink="http://www.w3.org/1999/xlink">
<g id="graph1" class="graph" transform="scale(1 1) rotate(0) translate(4 176)">
<title>/home/travis/build/LibrePCB/LibrePCB/libs/librepcbprojecteditor/schematiceditor/symbolinstancepropertiesdialog.h</title>
<polygon fill="white" stroke="white" points="-4,5 -4,-176 633,-176 633,5 -4,5"/>
<!-- Node1 -->
<g id="node1" class="node"><title>Node1</title>
<polygon fill="#bfbfbf" stroke="black" points="183,-111 183,-171 419,-171 419,-111 183,-111"/>
<text text-anchor="start" x="191" y="-158" font-family="Helvetica,sans-Serif" font-size="10.00">/home/travis/build</text>
<text text-anchor="start" x="191" y="-145" font-family="Helvetica,sans-Serif" font-size="10.00">/LibrePCB/LibrePCB/libs</text>
<text text-anchor="start" x="191" y="-132" font-family="Helvetica,sans-Serif" font-size="10.00">/librepcbprojecteditor</text>
<text text-anchor="middle" x="301" y="-119" font-family="Helvetica,sans-Serif" font-size="10.00">/schematiceditor/symbolinstancepropertiesdialog.h</text>
</g>
<!-- Node2 -->
<g id="node3" class="node"><title>Node2</title>
<a xlink:href="../../d1/d2e/moc__symbolinstancepropertiesdialog_8cpp.html" target="_top" xlink:title="/home/travis/build\l/LibrePCB/LibrePCB/libs\l/librepcbprojecteditor\l/moc/moc_symbolinstancepropertiesdialog.cpp">
<polygon fill="white" stroke="black" points="-0.5,-7 -0.5,-67 220.5,-67 220.5,-7 -0.5,-7"/>
<text text-anchor="start" x="7.5" y="-54" font-family="Helvetica,sans-Serif" font-size="10.00">/home/travis/build</text>
<text text-anchor="start" x="7.5" y="-41" font-family="Helvetica,sans-Serif" font-size="10.00">/LibrePCB/LibrePCB/libs</text>
<text text-anchor="start" x="7.5" y="-28" font-family="Helvetica,sans-Serif" font-size="10.00">/librepcbprojecteditor</text>
<text text-anchor="middle" x="110" y="-15" font-family="Helvetica,sans-Serif" font-size="10.00">/moc/moc_symbolinstancepropertiesdialog.cpp</text>
</a>
</g>
<!-- Node1&#45;&gt;Node2 -->
<g id="edge2" class="edge"><title>Node1&#45;&gt;Node2</title>
<path fill="none" stroke="midnightblue" d="M236.67,-105.972C213.455,-93.3313 187.478,-79.1871 165.121,-67.0135"/>
<polygon fill="midnightblue" stroke="midnightblue" points="235.299,-109.211 245.755,-110.919 238.646,-103.063 235.299,-109.211"/>
</g>
<!-- Node3 -->
<g id="node5" class="node"><title>Node3</title>
<a xlink:href="../../d5/d03/ses__select_8cpp.html" target="_top" xlink:title="/home/travis/build\l/LibrePCB/LibrePCB/libs\l/librepcbprojecteditor\l/schematiceditor/fsm/ses\l_select.cpp">
<polygon fill="white" stroke="black" points="237.5,-0.5 237.5,-73.5 364.5,-73.5 364.5,-0.5 237.5,-0.5"/>
<text text-anchor="start" x="245.5" y="-60.5" font-family="Helvetica,sans-Serif" font-size="10.00">/home/travis/build</text>
<text text-anchor="start" x="245.5" y="-47.5" font-family="Helvetica,sans-Serif" font-size="10.00">/LibrePCB/LibrePCB/libs</text>
<text text-anchor="start" x="245.5" y="-34.5" font-family="Helvetica,sans-Serif" font-size="10.00">/librepcbprojecteditor</text>
<text text-anchor="start" x="245.5" y="-21.5" font-family="Helvetica,sans-Serif" font-size="10.00">/schematiceditor/fsm/ses</text>
<text text-anchor="middle" x="301" y="-8.5" font-family="Helvetica,sans-Serif" font-size="10.00">_select.cpp</text>
</a>
</g>
<!-- Node1&#45;&gt;Node3 -->
<g id="edge4" class="edge"><title>Node1&#45;&gt;Node3</title>
<path fill="none" stroke="midnightblue" d="M301,-100.741C301,-91.8235 301,-82.4199 301,-73.6551"/>
<polygon fill="midnightblue" stroke="midnightblue" points="297.5,-100.919 301,-110.919 304.5,-100.919 297.5,-100.919"/>
</g>
<!-- Node4 -->
<g id="node7" class="node"><title>Node4</title>
<a xlink:href="../../da/d89/symbolinstancepropertiesdialog_8cpp.html" target="_top" xlink:title="/home/travis/build\l/LibrePCB/LibrePCB/libs\l/librepcbprojecteditor\l/schematiceditor/symbolinstancepropertiesdialog.cpp">
<polygon fill="white" stroke="black" points="381.5,-7 381.5,-67 628.5,-67 628.5,-7 381.5,-7"/>
<text text-anchor="start" x="389.5" y="-54" font-family="Helvetica,sans-Serif" font-size="10.00">/home/travis/build</text>
<text text-anchor="start" x="389.5" y="-41" font-family="Helvetica,sans-Serif" font-size="10.00">/LibrePCB/LibrePCB/libs</text>
<text text-anchor="start" x="389.5" y="-28" font-family="Helvetica,sans-Serif" font-size="10.00">/librepcbprojecteditor</text>
<text text-anchor="middle" x="505" y="-15" font-family="Helvetica,sans-Serif" font-size="10.00">/schematiceditor/symbolinstancepropertiesdialog.cpp</text>
</a>
</g>
<!-- Node1&#45;&gt;Node4 -->
<g id="edge6" class="edge"><title>Node1&#45;&gt;Node4</title>
<path fill="none" stroke="midnightblue" d="M369.05,-106.308C394.013,-93.5818 422.037,-79.2948 446.127,-67.0135"/>
<polygon fill="midnightblue" stroke="midnightblue" points="367.325,-103.259 360.005,-110.919 370.504,-109.495 367.325,-103.259"/>
</g>
</g>
</svg>
