<?xml version="1.0" encoding="UTF-8" standalone="no"?>
<!DOCTYPE svg PUBLIC "-//W3C//DTD SVG 1.1//EN"
 "http://www.w3.org/Graphics/SVG/1.1/DTD/svg11.dtd">
<!-- Generated by graphviz version 2.26.3 (20100126.1600)
 -->
<!-- Title: isFilled Pages: 1 -->
<svg width="248pt" height="134pt"
 viewBox="0.00 0.00 248.00 134.00" xmlns="http://www.w3.org/2000/svg" xmlns:xlink="http://www.w3.org/1999/xlink">
<g id="graph1" class="graph" transform="scale(1 1) rotate(0) translate(4 130)">
<title>isFilled</title>
<polygon fill="white" stroke="white" points="-4,5 -4,-130 245,-130 245,5 -4,5"/>
<!-- Node1 -->
<g id="node1" class="node"><title>Node1</title>
<polygon fill="#bfbfbf" stroke="black" points="0.5,-58.5 0.5,-79.5 47.5,-79.5 47.5,-58.5 0.5,-58.5"/>
<text text-anchor="middle" x="24" y="-66.5" font-family="Helvetica,sans-Serif" font-size="10.00">isFilled</text>
</g>
<!-- Node2 -->
<g id="node3" class="node"><title>Node2</title>
<a xlink:href="../../d3/d06/classlibrary_1_1_symbol_ellipse.html#ae7600c8e601a1d99785528ea7d51ee14" target="_top" xlink:title="setIsFilled">
<polygon fill="white" stroke="black" points="131,-104.5 131,-125.5 193,-125.5 193,-104.5 131,-104.5"/>
<text text-anchor="middle" x="162" y="-112.5" font-family="Helvetica,sans-Serif" font-size="10.00">setIsFilled</text>
</a>
</g>
<!-- Node1&#45;&gt;Node2 -->
<g id="edge2" class="edge"><title>Node1&#45;&gt;Node2</title>
<path fill="none" stroke="midnightblue" d="M55.583,-83.7958C64.6443,-87.7359 74.614,-91.7855 84,-95 99.2095,-100.209 116.494,-104.774 130.921,-108.222"/>
<polygon fill="midnightblue" stroke="midnightblue" points="56.7369,-80.4783 46.1778,-79.6081 53.8895,-86.8731 56.7369,-80.4783"/>
</g>
<!-- Node3 -->
<g id="node5" class="node"><title>Node3</title>
<a xlink:href="../../d9/da8/classlibrary_1_1_symbol_preview_graphics_item.html#aa77fc5d2da89e1f09b09f7c6724ed721" target="_top" xlink:title="library::SymbolPreviewGraphics\lItem::paint">
<polygon fill="white" stroke="black" points="84,-52 84,-86 240,-86 240,-52 84,-52"/>
<text text-anchor="start" x="92" y="-73" font-family="Helvetica,sans-Serif" font-size="10.00">library::SymbolPreviewGraphics</text>
<text text-anchor="middle" x="162" y="-60" font-family="Helvetica,sans-Serif" font-size="10.00">Item::paint</text>
</a>
</g>
<!-- Node1&#45;&gt;Node3 -->
<g id="edge4" class="edge"><title>Node1&#45;&gt;Node3</title>
<path fill="none" stroke="midnightblue" d="M57.7808,-69C65.8598,-69 74.8189,-69 83.9941,-69"/>
<polygon fill="midnightblue" stroke="midnightblue" points="57.7231,-65.5001 47.723,-69 57.723,-72.5001 57.7231,-65.5001"/>
</g>
<!-- Node4 -->
<g id="node7" class="node"><title>Node4</title>
<a xlink:href="../../dd/d00/classproject_1_1_s_g_i___symbol.html#aa77fc5d2da89e1f09b09f7c6724ed721" target="_top" xlink:title="project::SGI_Symbol\l::paint">
<polygon fill="white" stroke="black" points="108.5,-0 108.5,-34 215.5,-34 215.5,-0 108.5,-0"/>
<text text-anchor="start" x="116.5" y="-21" font-family="Helvetica,sans-Serif" font-size="10.00">project::SGI_Symbol</text>
<text text-anchor="middle" x="162" y="-8" font-family="Helvetica,sans-Serif" font-size="10.00">::paint</text>
</a>
</g>
<!-- Node1&#45;&gt;Node4 -->
<g id="edge6" class="edge"><title>Node1&#45;&gt;Node4</title>
<path fill="none" stroke="midnightblue" d="M56.4257,-54.3356C65.3021,-50.4897 74.9672,-46.455 84,-43 91.9993,-39.9403 100.534,-36.8866 108.913,-34.0041"/>
<polygon fill="midnightblue" stroke="midnightblue" points="54.9204,-51.1739 47.1706,-58.3984 57.7341,-57.5836 54.9204,-51.1739"/>
</g>
</g>
</svg>
