<?xml version="1.0" encoding="UTF-8" standalone="no"?>
<!DOCTYPE svg PUBLIC "-//W3C//DTD SVG 1.1//EN"
 "http://www.w3.org/Graphics/SVG/1.1/DTD/svg11.dtd">
<!-- Generated by graphviz version 2.26.3 (20100126.1600)
 -->
<!-- Title: getCenter Pages: 1 -->
<svg width="260pt" height="94pt"
 viewBox="0.00 0.00 260.00 94.00" xmlns="http://www.w3.org/2000/svg" xmlns:xlink="http://www.w3.org/1999/xlink">
<g id="graph1" class="graph" transform="scale(1 1) rotate(0) translate(4 90)">
<title>getCenter</title>
<polygon fill="white" stroke="white" points="-4,5 -4,-90 257,-90 257,5 -4,5"/>
<!-- Node1 -->
<g id="node1" class="node"><title>Node1</title>
<polygon fill="#bfbfbf" stroke="black" points="0.5,-32.5 0.5,-53.5 59.5,-53.5 59.5,-32.5 0.5,-32.5"/>
<text text-anchor="middle" x="30" y="-40.5" font-family="Helvetica,sans-Serif" font-size="10.00">getCenter</text>
</g>
<!-- Node2 -->
<g id="node3" class="node"><title>Node2</title>
<a xlink:href="../../d9/da8/classlibrary_1_1_symbol_preview_graphics_item.html#aa77fc5d2da89e1f09b09f7c6724ed721" target="_top" xlink:title="library::SymbolPreviewGraphics\lItem::paint">
<polygon fill="white" stroke="black" points="96,-52 96,-86 252,-86 252,-52 96,-52"/>
<text text-anchor="start" x="104" y="-73" font-family="Helvetica,sans-Serif" font-size="10.00">library::SymbolPreviewGraphics</text>
<text text-anchor="middle" x="174" y="-60" font-family="Helvetica,sans-Serif" font-size="10.00">Item::paint</text>
</a>
</g>
<!-- Node1&#45;&gt;Node2 -->
<g id="edge2" class="edge"><title>Node1&#45;&gt;Node2</title>
<path fill="none" stroke="midnightblue" d="M69.7592,-50.1788C77.9204,-51.6523 86.778,-53.2516 95.7662,-54.8744"/>
<polygon fill="midnightblue" stroke="midnightblue" points="70.2997,-46.7198 59.8369,-48.3872 69.0559,-53.6084 70.2997,-46.7198"/>
</g>
<!-- Node3 -->
<g id="node5" class="node"><title>Node3</title>
<a xlink:href="../../dd/d00/classproject_1_1_s_g_i___symbol.html#aa77fc5d2da89e1f09b09f7c6724ed721" target="_top" xlink:title="project::SGI_Symbol\l::paint">
<polygon fill="white" stroke="black" points="120.5,-0 120.5,-34 227.5,-34 227.5,-0 120.5,-0"/>
<text text-anchor="start" x="128.5" y="-21" font-family="Helvetica,sans-Serif" font-size="10.00">project::SGI_Symbol</text>
<text text-anchor="middle" x="174" y="-8" font-family="Helvetica,sans-Serif" font-size="10.00">::paint</text>
</a>
</g>
<!-- Node1&#45;&gt;Node3 -->
<g id="edge4" class="edge"><title>Node1&#45;&gt;Node3</title>
<path fill="none" stroke="midnightblue" d="M69.7044,-35.8311C85.3459,-33.007 103.552,-29.7197 120.335,-26.6895"/>
<polygon fill="midnightblue" stroke="midnightblue" points="69.0559,-32.3916 59.8369,-37.6128 70.2997,-39.2802 69.0559,-32.3916"/>
</g>
</g>
</svg>
