<?xml version="1.0" encoding="UTF-8" standalone="no"?>
<!DOCTYPE svg PUBLIC "-//W3C//DTD SVG 1.1//EN"
 "http://www.w3.org/Graphics/SVG/1.1/DTD/svg11.dtd">
<!-- Generated by graphviz version 2.26.3 (20100126.1600)
 -->
<!-- Title: /home/travis/build/LibrePCB/LibrePCB/libs/librepcbproject/moc/moc_bi_footprintpad.cpp Pages: 1 -->
<svg width="830pt" height="662pt"
 viewBox="0.00 0.00 830.37 662.00" xmlns="http://www.w3.org/2000/svg" xmlns:xlink="http://www.w3.org/1999/xlink">
<g id="graph1" class="graph" transform="scale(1 1) rotate(0) translate(4 658)">
<title>/home/travis/build/LibrePCB/LibrePCB/libs/librepcbproject/moc/moc_bi_footprintpad.cpp</title>
<polygon fill="white" stroke="white" points="-4,5 -4,-658 827.37,-658 827.37,5 -4,5"/>
<!-- Node1 -->
<g id="node1" class="node"><title>Node1</title>
<polygon fill="#bfbfbf" stroke="black" points="189,-593 189,-653 315,-653 315,-593 189,-593"/>
<text text-anchor="start" x="197" y="-640" font-family="Helvetica,sans-Serif" font-size="10.00">/home/travis/build</text>
<text text-anchor="start" x="197" y="-627" font-family="Helvetica,sans-Serif" font-size="10.00">/LibrePCB/LibrePCB/libs</text>
<text text-anchor="start" x="197" y="-614" font-family="Helvetica,sans-Serif" font-size="10.00">/librepcbproject/moc/moc</text>
<text text-anchor="middle" x="252" y="-601" font-family="Helvetica,sans-Serif" font-size="10.00">_bi_footprintpad.cpp</text>
</g>
<!-- Node2 -->
<g id="node3" class="node"><title>Node2</title>
<a xlink:href="../../d7/d4c/bi__footprintpad_8h.html" target="_top" xlink:title="../boards/items/bi\l_footprintpad.h">
<polygon fill="white" stroke="black" points="90,-521 90,-555 182,-555 182,-521 90,-521"/>
<text text-anchor="start" x="98" y="-542" font-family="Helvetica,sans-Serif" font-size="10.00">../boards/items/bi</text>
<text text-anchor="middle" x="136" y="-529" font-family="Helvetica,sans-Serif" font-size="10.00">_footprintpad.h</text>
</a>
</g>
<!-- Node1&#45;&gt;Node2 -->
<g id="edge2" class="edge"><title>Node1&#45;&gt;Node2</title>
<path fill="none" stroke="midnightblue" d="M210.776,-592.793C196.567,-582.381 180.887,-570.892 167.572,-561.134"/>
<polygon fill="midnightblue" stroke="midnightblue" points="169.337,-558.089 159.202,-555.002 165.2,-563.735 169.337,-558.089"/>
</g>
<!-- Node20 -->
<g id="node61" class="node"><title>Node20</title>
<polygon fill="white" stroke="#bfbfbf" points="199.5,-527.5 199.5,-548.5 304.5,-548.5 304.5,-527.5 199.5,-527.5"/>
<text text-anchor="middle" x="252" y="-535.5" font-family="Helvetica,sans-Serif" font-size="10.00">QtCore/qbytearray.h</text>
</g>
<!-- Node1&#45;&gt;Node20 -->
<g id="edge82" class="edge"><title>Node1&#45;&gt;Node20</title>
<path fill="none" stroke="midnightblue" d="M252,-592.793C252,-581.579 252,-569.116 252,-558.913"/>
<polygon fill="midnightblue" stroke="midnightblue" points="255.5,-558.895 252,-548.895 248.5,-558.895 255.5,-558.895"/>
</g>
<!-- Node21 -->
<g id="node63" class="node"><title>Node21</title>
<polygon fill="white" stroke="#bfbfbf" points="321.5,-527.5 321.5,-548.5 426.5,-548.5 426.5,-527.5 321.5,-527.5"/>
<text text-anchor="middle" x="374" y="-535.5" font-family="Helvetica,sans-Serif" font-size="10.00">QtCore/qmetatype.h</text>
</g>
<!-- Node1&#45;&gt;Node21 -->
<g id="edge84" class="edge"><title>Node1&#45;&gt;Node21</title>
<path fill="none" stroke="midnightblue" d="M295.356,-592.793C313.791,-579.949 334.579,-565.465 350.15,-554.616"/>
<polygon fill="midnightblue" stroke="midnightblue" points="352.455,-557.277 358.659,-548.689 348.453,-551.534 352.455,-557.277"/>
</g>
<!-- Node3 -->
<g id="node5" class="node"><title>Node3</title>
<polygon fill="white" stroke="#bfbfbf" points="214,-0.5 214,-21.5 262,-21.5 262,-0.5 214,-0.5"/>
<text text-anchor="middle" x="238" y="-8.5" font-family="Helvetica,sans-Serif" font-size="10.00">QtCore</text>
</g>
<!-- Node2&#45;&gt;Node3 -->
<g id="edge4" class="edge"><title>Node2&#45;&gt;Node3</title>
<path fill="none" stroke="midnightblue" d="M99.5545,-520.911C59.2697,-499.202 0,-457.639 0,-401 0,-401 0,-401 0,-127 0,-88.5999 20.0118,-79.2443 52,-58 76.7626,-41.5544 157.422,-25.1923 203.99,-16.7927"/>
<polygon fill="midnightblue" stroke="midnightblue" points="204.698,-20.2219 213.932,-15.027 203.474,-13.3297 204.698,-20.2219"/>
</g>
<!-- Node4 -->
<g id="node7" class="node"><title>Node4</title>
<a xlink:href="../../de/df6/bi__base_8h.html" target="_top" xlink:title="bi_base.h">
<polygon fill="white" stroke="black" points="117.5,-325.5 117.5,-346.5 176.5,-346.5 176.5,-325.5 117.5,-325.5"/>
<text text-anchor="middle" x="147" y="-333.5" font-family="Helvetica,sans-Serif" font-size="10.00">bi_base.h</text>
</a>
</g>
<!-- Node2&#45;&gt;Node4 -->
<g id="edge6" class="edge"><title>Node2&#45;&gt;Node4</title>
<path fill="none" stroke="midnightblue" d="M136.938,-520.778C138.947,-483.88 143.662,-397.3 145.849,-357.143"/>
<polygon fill="midnightblue" stroke="midnightblue" points="149.357,-357.09 146.406,-346.914 142.367,-356.709 149.357,-357.09"/>
</g>
<!-- Node12 -->
<g id="node32" class="node"><title>Node12</title>
<a xlink:href="../../d2/d00/bgi__footprintpad_8h.html" target="_top" xlink:title="../graphicsitems/bgi\l_footprintpad.h">
<polygon fill="white" stroke="black" points="164,-449 164,-483 266,-483 266,-449 164,-449"/>
<text text-anchor="start" x="172" y="-470" font-family="Helvetica,sans-Serif" font-size="10.00">../graphicsitems/bgi</text>
<text text-anchor="middle" x="215" y="-457" font-family="Helvetica,sans-Serif" font-size="10.00">_footprintpad.h</text>
</a>
</g>
<!-- Node2&#45;&gt;Node12 -->
<g id="edge40" class="edge"><title>Node2&#45;&gt;Node12</title>
<path fill="none" stroke="midnightblue" d="M154.722,-520.937C164.88,-511.679 177.6,-500.086 188.735,-489.938"/>
<polygon fill="midnightblue" stroke="midnightblue" points="191.105,-492.513 196.139,-483.19 186.39,-487.339 191.105,-492.513"/>
</g>
<!-- Node4&#45;&gt;Node3 -->
<g id="edge8" class="edge"><title>Node4&#45;&gt;Node3</title>
<path fill="none" stroke="midnightblue" d="M132.813,-325.16C120.858,-315.24 104.263,-299.48 95,-282 75.8577,-245.877 76,-232.882 76,-192 76,-192 76,-192 76,-127 76,-64.6406 156.333,-32.5844 203.86,-19.0761"/>
<polygon fill="midnightblue" stroke="midnightblue" points="205.01,-22.3906 213.747,-16.3974 203.18,-15.6342 205.01,-22.3906"/>
</g>
<!-- Node5 -->
<g id="node10" class="node"><title>Node5</title>
<polygon fill="white" stroke="#bfbfbf" points="233.5,-253.5 233.5,-274.5 296.5,-274.5 296.5,-253.5 233.5,-253.5"/>
<text text-anchor="middle" x="265" y="-261.5" font-family="Helvetica,sans-Serif" font-size="10.00">QtWidgets</text>
</g>
<!-- Node4&#45;&gt;Node5 -->
<g id="edge10" class="edge"><title>Node4&#45;&gt;Node5</title>
<path fill="none" stroke="midnightblue" d="M164.411,-325.376C184.02,-313.412 216.097,-293.839 238.749,-280.018"/>
<polygon fill="midnightblue" stroke="midnightblue" points="240.804,-282.864 247.517,-274.667 237.158,-276.888 240.804,-282.864"/>
</g>
<!-- Node6 -->
<g id="node12" class="node"><title>Node6</title>
<a xlink:href="../../d1/da8/all__length__units_8h.html" target="_top" xlink:title="librepcbcommon/units\l/all_length_units.h">
<polygon fill="white" stroke="black" points="104,-247 104,-281 216,-281 216,-247 104,-247"/>
<text text-anchor="start" x="112" y="-268" font-family="Helvetica,sans-Serif" font-size="10.00">librepcbcommon/units</text>
<text text-anchor="middle" x="160" y="-255" font-family="Helvetica,sans-Serif" font-size="10.00">/all_length_units.h</text>
</a>
</g>
<!-- Node4&#45;&gt;Node6 -->
<g id="edge12" class="edge"><title>Node4&#45;&gt;Node6</title>
<path fill="none" stroke="midnightblue" d="M148.918,-325.376C150.546,-316.36 152.954,-303.024 155.11,-291.084"/>
<polygon fill="midnightblue" stroke="midnightblue" points="158.581,-291.557 156.914,-281.094 151.692,-290.313 158.581,-291.557"/>
</g>
<!-- Node7 -->
<g id="node14" class="node"><title>Node7</title>
<a xlink:href="../../d0/d09/lengthunit_8h.html" target="_top" xlink:title="lengthunit.h">
<polygon fill="white" stroke="black" points="209.5,-116.5 209.5,-137.5 276.5,-137.5 276.5,-116.5 209.5,-116.5"/>
<text text-anchor="middle" x="243" y="-124.5" font-family="Helvetica,sans-Serif" font-size="10.00">lengthunit.h</text>
</a>
</g>
<!-- Node6&#45;&gt;Node7 -->
<g id="edge14" class="edge"><title>Node6&#45;&gt;Node7</title>
<path fill="none" stroke="midnightblue" d="M170.344,-246.926C185.825,-221.372 214.938,-173.318 231.218,-146.447"/>
<polygon fill="midnightblue" stroke="midnightblue" points="234.398,-147.953 236.586,-137.586 228.411,-144.326 234.398,-147.953"/>
</g>
<!-- Node9 -->
<g id="node20" class="node"><title>Node9</title>
<a xlink:href="../../dd/db9/length_8h.html" target="_top" xlink:title="length.h">
<polygon fill="white" stroke="black" points="141.5,-116.5 141.5,-137.5 192.5,-137.5 192.5,-116.5 141.5,-116.5"/>
<text text-anchor="middle" x="167" y="-124.5" font-family="Helvetica,sans-Serif" font-size="10.00">length.h</text>
</a>
</g>
<!-- Node6&#45;&gt;Node9 -->
<g id="edge22" class="edge"><title>Node6&#45;&gt;Node9</title>
<path fill="none" stroke="midnightblue" d="M160.872,-246.926C162.155,-221.821 164.548,-174.998 165.933,-147.881"/>
<polygon fill="midnightblue" stroke="midnightblue" points="169.444,-147.752 166.459,-137.586 162.453,-147.395 169.444,-147.752"/>
</g>
<!-- Node10 -->
<g id="node24" class="node"><title>Node10</title>
<a xlink:href="../../d2/d91/point_8h.html" target="_top" xlink:title="point.h">
<polygon fill="white" stroke="black" points="104,-181.5 104,-202.5 150,-202.5 150,-181.5 104,-181.5"/>
<text text-anchor="middle" x="127" y="-189.5" font-family="Helvetica,sans-Serif" font-size="10.00">point.h</text>
</a>
</g>
<!-- Node6&#45;&gt;Node10 -->
<g id="edge28" class="edge"><title>Node6&#45;&gt;Node10</title>
<path fill="none" stroke="midnightblue" d="M152.179,-246.937C147.393,-236.494 141.245,-223.079 136.222,-212.12"/>
<polygon fill="midnightblue" stroke="midnightblue" points="139.345,-210.533 131.996,-202.901 132.981,-213.45 139.345,-210.533"/>
</g>
<!-- Node11 -->
<g id="node28" class="node"><title>Node11</title>
<a xlink:href="../../da/dac/angle_8h.html" target="_top" xlink:title="angle.h">
<polygon fill="white" stroke="black" points="294,-116.5 294,-137.5 342,-137.5 342,-116.5 294,-116.5"/>
<text text-anchor="middle" x="318" y="-124.5" font-family="Helvetica,sans-Serif" font-size="10.00">angle.h</text>
</a>
</g>
<!-- Node6&#45;&gt;Node11 -->
<g id="edge34" class="edge"><title>Node6&#45;&gt;Node11</title>
<path fill="none" stroke="midnightblue" d="M179.691,-246.926C209.937,-220.7 267.516,-170.774 297.967,-144.37"/>
<polygon fill="midnightblue" stroke="midnightblue" points="300.528,-146.782 305.791,-137.586 295.943,-141.493 300.528,-146.782"/>
</g>
<!-- Node7&#45;&gt;Node3 -->
<g id="edge16" class="edge"><title>Node7&#45;&gt;Node3</title>
<path fill="none" stroke="midnightblue" d="M237.221,-116.164C232.61,-106.868 226.52,-92.9591 224,-80 220.802,-63.5546 225.041,-44.9399 229.671,-31.1928"/>
<polygon fill="midnightblue" stroke="midnightblue" points="232.979,-32.3389 233.171,-21.7458 226.415,-29.9071 232.979,-32.3389"/>
</g>
<!-- Node8 -->
<g id="node17" class="node"><title>Node8</title>
<a xlink:href="../../d4/d03/exceptions_8h.html" target="_top" xlink:title="../exceptions.h">
<polygon fill="white" stroke="black" points="265.5,-58.5 265.5,-79.5 346.5,-79.5 346.5,-58.5 265.5,-58.5"/>
<text text-anchor="middle" x="306" y="-66.5" font-family="Helvetica,sans-Serif" font-size="10.00">../exceptions.h</text>
</a>
</g>
<!-- Node7&#45;&gt;Node8 -->
<g id="edge18" class="edge"><title>Node7&#45;&gt;Node8</title>
<path fill="none" stroke="midnightblue" d="M254.555,-116.362C263.613,-108.023 276.41,-96.2418 286.974,-86.5162"/>
<polygon fill="midnightblue" stroke="midnightblue" points="289.532,-88.9187 294.518,-79.5707 284.79,-83.7688 289.532,-88.9187"/>
</g>
<!-- Node8&#45;&gt;Node3 -->
<g id="edge20" class="edge"><title>Node8&#45;&gt;Node3</title>
<path fill="none" stroke="midnightblue" d="M293.528,-58.3619C283.655,-49.9408 269.667,-38.0105 258.202,-28.2308"/>
<polygon fill="midnightblue" stroke="midnightblue" points="260.273,-25.3972 250.393,-21.5707 255.73,-30.7231 260.273,-25.3972"/>
</g>
<!-- Node9&#45;&gt;Node3 -->
<g id="edge24" class="edge"><title>Node9&#45;&gt;Node3</title>
<path fill="none" stroke="midnightblue" d="M173.552,-116.295C185.493,-96.7861 210.954,-55.1884 226.054,-30.5177"/>
<polygon fill="midnightblue" stroke="midnightblue" points="229.228,-32.0356 231.464,-21.6792 223.258,-28.3812 229.228,-32.0356"/>
</g>
<!-- Node9&#45;&gt;Node8 -->
<g id="edge26" class="edge"><title>Node9&#45;&gt;Node8</title>
<path fill="none" stroke="midnightblue" d="M192.172,-116.497C214.273,-107.275 246.639,-93.7695 271.213,-83.5153"/>
<polygon fill="midnightblue" stroke="midnightblue" points="272.665,-86.7022 280.546,-79.6212 269.969,-80.2421 272.665,-86.7022"/>
</g>
<!-- Node10&#45;&gt;Node3 -->
<g id="edge30" class="edge"><title>Node10&#45;&gt;Node3</title>
<path fill="none" stroke="midnightblue" d="M125.609,-181.348C124.098,-166.099 123.079,-137.514 133,-116 150.576,-77.8865 188.263,-45.7838 213.373,-27.4614"/>
<polygon fill="midnightblue" stroke="midnightblue" points="215.548,-30.21 221.677,-21.5679 211.496,-24.5016 215.548,-30.21"/>
</g>
<!-- Node10&#45;&gt;Node9 -->
<g id="edge32" class="edge"><title>Node10&#45;&gt;Node9</title>
<path fill="none" stroke="midnightblue" d="M133.605,-181.267C139.43,-171.801 148.06,-157.777 155.088,-146.357"/>
<polygon fill="midnightblue" stroke="midnightblue" points="158.258,-147.885 160.518,-137.534 152.296,-144.216 158.258,-147.885"/>
</g>
<!-- Node11&#45;&gt;Node3 -->
<g id="edge36" class="edge"><title>Node11&#45;&gt;Node3</title>
<path fill="none" stroke="midnightblue" d="M298.205,-116.365C284.702,-108.137 267.437,-95.5369 257,-80 247.283,-65.5346 242.51,-46.2092 240.181,-31.6906"/>
<polygon fill="midnightblue" stroke="midnightblue" points="243.637,-31.1291 238.834,-21.6852 236.699,-32.0627 243.637,-31.1291"/>
</g>
<!-- Node11&#45;&gt;Node8 -->
<g id="edge38" class="edge"><title>Node11&#45;&gt;Node8</title>
<path fill="none" stroke="midnightblue" d="M315.799,-116.362C314.243,-108.84 312.107,-98.5187 310.227,-89.4308"/>
<polygon fill="midnightblue" stroke="midnightblue" points="313.641,-88.6541 308.187,-79.5707 306.786,-90.0724 313.641,-88.6541"/>
</g>
<!-- Node12&#45;&gt;Node3 -->
<g id="edge42" class="edge"><title>Node12&#45;&gt;Node3</title>
<path fill="none" stroke="midnightblue" d="M163.804,-452.246C111.529,-434.729 38,-398.909 38,-336 38,-336 38,-336 38,-127 38,-51.2352 146.726,-24.134 203.848,-15.1239"/>
<polygon fill="midnightblue" stroke="midnightblue" points="204.493,-18.5666 213.875,-13.6444 203.472,-11.6416 204.493,-18.5666"/>
</g>
<!-- Node12&#45;&gt;Node5 -->
<g id="edge44" class="edge"><title>Node12&#45;&gt;Node5</title>
<path fill="none" stroke="midnightblue" d="M219.263,-448.778C228.435,-411.722 250.011,-324.557 259.894,-284.63"/>
<polygon fill="midnightblue" stroke="midnightblue" points="263.293,-285.462 262.298,-274.914 256.498,-283.78 263.293,-285.462"/>
</g>
<!-- Node13 -->
<g id="node36" class="node"><title>Node13</title>
<a xlink:href="../../de/dca/bgi__base_8h.html" target="_top" xlink:title="bgi_base.h">
<polygon fill="white" stroke="black" points="313,-390.5 313,-411.5 377,-411.5 377,-390.5 313,-390.5"/>
<text text-anchor="middle" x="345" y="-398.5" font-family="Helvetica,sans-Serif" font-size="10.00">bgi_base.h</text>
</a>
</g>
<!-- Node12&#45;&gt;Node13 -->
<g id="edge46" class="edge"><title>Node12&#45;&gt;Node13</title>
<path fill="none" stroke="midnightblue" d="M249.156,-448.922C269.456,-438.772 294.981,-426.01 314.584,-416.208"/>
<polygon fill="midnightblue" stroke="midnightblue" points="316.304,-419.261 323.683,-411.658 313.174,-413 316.304,-419.261"/>
</g>
<!-- Node13&#45;&gt;Node3 -->
<g id="edge48" class="edge"><title>Node13&#45;&gt;Node3</title>
<path fill="none" stroke="midnightblue" d="M377.343,-398.726C484.478,-390.32 821,-356.551 821,-264 821,-264 821,-264 821,-127 821,-95.1919 826.479,-78.3112 802,-58 761.212,-24.1564 388.535,-13.9746 272.395,-11.61"/>
<polygon fill="midnightblue" stroke="midnightblue" points="272.353,-8.10863 262.286,-11.411 272.215,-15.1073 272.353,-8.10863"/>
</g>
<!-- Node13&#45;&gt;Node5 -->
<g id="edge50" class="edge"><title>Node13&#45;&gt;Node5</title>
<path fill="none" stroke="midnightblue" d="M317.022,-390.453C301,-382.864 282.121,-370.955 272,-354 259.442,-332.964 259.611,-304.061 261.646,-284.741"/>
<polygon fill="midnightblue" stroke="midnightblue" points="265.145,-284.977 262.977,-274.606 258.204,-284.065 265.145,-284.977"/>
</g>
<!-- Node14 -->
<g id="node40" class="node"><title>Node14</title>
<a xlink:href="../../de/dd6/graphicsitem_8h.html" target="_top" xlink:title="librepcbcommon/graphics\l/graphicsitem.h">
<polygon fill="white" stroke="black" points="281,-319 281,-353 409,-353 409,-319 281,-319"/>
<text text-anchor="start" x="289" y="-340" font-family="Helvetica,sans-Serif" font-size="10.00">librepcbcommon/graphics</text>
<text text-anchor="middle" x="345" y="-327" font-family="Helvetica,sans-Serif" font-size="10.00">/graphicsitem.h</text>
</a>
</g>
<!-- Node13&#45;&gt;Node14 -->
<g id="edge52" class="edge"><title>Node13&#45;&gt;Node14</title>
<path fill="none" stroke="midnightblue" d="M345,-390.267C345,-382.931 345,-372.857 345,-363.38"/>
<polygon fill="midnightblue" stroke="midnightblue" points="348.5,-363.11 345,-353.11 341.5,-363.11 348.5,-363.11"/>
</g>
<!-- Node15 -->
<g id="node44" class="node"><title>Node15</title>
<a xlink:href="../../d3/d02/board_8h.html" target="_top" xlink:title="../board.h">
<polygon fill="white" stroke="black" points="427,-325.5 427,-346.5 485,-346.5 485,-325.5 427,-325.5"/>
<text text-anchor="middle" x="456" y="-333.5" font-family="Helvetica,sans-Serif" font-size="10.00">../board.h</text>
</a>
</g>
<!-- Node13&#45;&gt;Node15 -->
<g id="edge58" class="edge"><title>Node13&#45;&gt;Node15</title>
<path fill="none" stroke="midnightblue" d="M363.329,-390.267C381.271,-379.76 408.805,-363.637 429.202,-351.692"/>
<polygon fill="midnightblue" stroke="midnightblue" points="431.151,-354.607 438.012,-346.534 427.614,-348.567 431.151,-354.607"/>
</g>
<!-- Node14&#45;&gt;Node3 -->
<g id="edge54" class="edge"><title>Node14&#45;&gt;Node3</title>
<path fill="none" stroke="midnightblue" d="M343.211,-318.906C340.777,-294.699 336.546,-249.029 335,-210 334.367,-194.013 331.679,-189.651 335,-174 338.635,-156.872 346.778,-154.992 351,-138 357.231,-112.923 354.111,-105.824 355,-80 355.337,-70.228 360.476,-66.1007 355,-58 336.629,-30.8229 299.675,-19.3582 272.188,-14.5232"/>
<polygon fill="midnightblue" stroke="midnightblue" points="272.593,-11.0443 262.176,-12.9758 271.524,-17.9622 272.593,-11.0443"/>
</g>
<!-- Node14&#45;&gt;Node5 -->
<g id="edge56" class="edge"><title>Node14&#45;&gt;Node5</title>
<path fill="none" stroke="midnightblue" d="M326.041,-318.937C313.609,-307.748 297.386,-293.147 284.79,-281.811"/>
<polygon fill="midnightblue" stroke="midnightblue" points="286.887,-278.989 277.112,-274.901 282.204,-284.192 286.887,-278.989"/>
</g>
<!-- Node15&#45;&gt;Node3 -->
<g id="edge60" class="edge"><title>Node15&#45;&gt;Node3</title>
<path fill="none" stroke="midnightblue" d="M485.111,-330.202C528.267,-321.053 606.258,-302.217 626,-282 660.163,-247.015 671.633,-216.241 647,-174 594.265,-83.5667 539.576,-95.9232 442,-58 384.504,-35.6539 313.577,-22.2792 272.301,-15.8023"/>
<polygon fill="midnightblue" stroke="midnightblue" points="272.638,-12.3133 262.225,-14.2663 271.583,-19.2333 272.638,-12.3133"/>
</g>
<!-- Node15&#45;&gt;Node5 -->
<g id="edge62" class="edge"><title>Node15&#45;&gt;Node5</title>
<path fill="none" stroke="midnightblue" d="M434.47,-325.329C429.135,-322.817 423.4,-320.225 418,-318 380.751,-302.652 337.368,-287.599 306.331,-277.301"/>
<polygon fill="midnightblue" stroke="midnightblue" points="307.304,-273.937 296.711,-274.131 305.113,-280.585 307.304,-273.937"/>
</g>
<!-- Node15&#45;&gt;Node6 -->
<g id="edge72" class="edge"><title>Node15&#45;&gt;Node6</title>
<path fill="none" stroke="midnightblue" d="M436.279,-325.477C430.511,-322.726 424.111,-319.98 418,-318 337.992,-292.072 311.894,-300.947 226.19,-282.142"/>
<polygon fill="midnightblue" stroke="midnightblue" points="226.82,-278.696 216.295,-279.907 225.278,-285.524 226.82,-278.696"/>
</g>
<!-- Node15&#45;&gt;Node8 -->
<g id="edge78" class="edge"><title>Node15&#45;&gt;Node8</title>
<path fill="none" stroke="midnightblue" d="M455.52,-325.241C455.047,-308.124 455.291,-273.787 463,-246 467.782,-228.763 476.89,-227.41 481,-210 484.676,-194.428 488.883,-187.923 481,-174 453.954,-126.231 395.547,-97.8237 353.645,-82.8387"/>
<polygon fill="midnightblue" stroke="midnightblue" points="354.771,-79.5248 344.177,-79.5785 352.492,-86.1434 354.771,-79.5248"/>
</g>
<!-- Node16 -->
<g id="node48" class="node"><title>Node16</title>
<a xlink:href="../../da/d81/if__attributeprovider_8h.html" target="_top" xlink:title="librepcbcommon/if_attributeprovider.h">
<polygon fill="white" stroke="black" points="614.5,-58.5 614.5,-79.5 793.5,-79.5 793.5,-58.5 614.5,-58.5"/>
<text text-anchor="middle" x="704" y="-66.5" font-family="Helvetica,sans-Serif" font-size="10.00">librepcbcommon/if_attributeprovider.h</text>
</a>
</g>
<!-- Node15&#45;&gt;Node16 -->
<g id="edge64" class="edge"><title>Node15&#45;&gt;Node16</title>
<path fill="none" stroke="midnightblue" d="M485.379,-333.057C540.11,-326.936 654.453,-310.94 680,-282 728.154,-227.452 716.751,-131.974 708.676,-89.9099"/>
<polygon fill="midnightblue" stroke="midnightblue" points="712.077,-89.0711 706.636,-79.9801 705.22,-90.4799 712.077,-89.0711"/>
</g>
<!-- Node17 -->
<g id="node51" class="node"><title>Node17</title>
<a xlink:href="../../d0/d1d/if__xmlserializableobject_8h.html" target="_top" xlink:title="librepcbcommon/fileio\l/if_xmlserializableobject.h">
<polygon fill="white" stroke="black" points="343.5,-175 343.5,-209 472.5,-209 472.5,-175 343.5,-175"/>
<text text-anchor="start" x="351.5" y="-196" font-family="Helvetica,sans-Serif" font-size="10.00">librepcbcommon/fileio</text>
<text text-anchor="middle" x="408" y="-183" font-family="Helvetica,sans-Serif" font-size="10.00">/if_xmlserializableobject.h</text>
</a>
</g>
<!-- Node15&#45;&gt;Node17 -->
<g id="edge68" class="edge"><title>Node15&#45;&gt;Node17</title>
<path fill="none" stroke="midnightblue" d="M449.926,-325.122C444.152,-314.418 435.548,-297.476 430,-282 422.604,-261.369 416.848,-237.203 413.082,-219.11"/>
<polygon fill="midnightblue" stroke="midnightblue" points="416.499,-218.346 411.098,-209.231 409.636,-219.725 416.499,-218.346"/>
</g>
<!-- Node18 -->
<g id="node55" class="node"><title>Node18</title>
<a xlink:href="../../dd/dec/filepath_8h.html" target="_top" xlink:title="librepcbcommon/fileio\l/filepath.h">
<polygon fill="white" stroke="black" points="527.5,-175 527.5,-209 638.5,-209 638.5,-175 527.5,-175"/>
<text text-anchor="start" x="535.5" y="-196" font-family="Helvetica,sans-Serif" font-size="10.00">librepcbcommon/fileio</text>
<text text-anchor="middle" x="583" y="-183" font-family="Helvetica,sans-Serif" font-size="10.00">/filepath.h</text>
</a>
</g>
<!-- Node15&#45;&gt;Node18 -->
<g id="edge74" class="edge"><title>Node15&#45;&gt;Node18</title>
<path fill="none" stroke="midnightblue" d="M485.247,-329.869C525.438,-320.781 594.439,-302.58 609,-282 622.543,-262.859 612.586,-236.734 601.303,-217.561"/>
<polygon fill="midnightblue" stroke="midnightblue" points="604.221,-215.627 595.931,-209.03 598.298,-219.357 604.221,-215.627"/>
</g>
<!-- Node19 -->
<g id="node59" class="node"><title>Node19</title>
<a xlink:href="../../da/dfb/if__ercmsgprovider_8h.html" target="_top" xlink:title="../erc/if_ercmsgprovider.h">
<polygon fill="white" stroke="black" points="472,-253.5 472,-274.5 600,-274.5 600,-253.5 472,-253.5"/>
<text text-anchor="middle" x="536" y="-261.5" font-family="Helvetica,sans-Serif" font-size="10.00">../erc/if_ercmsgprovider.h</text>
</a>
</g>
<!-- Node15&#45;&gt;Node19 -->
<g id="edge80" class="edge"><title>Node15&#45;&gt;Node19</title>
<path fill="none" stroke="midnightblue" d="M467.804,-325.376C480.566,-313.89 501.119,-295.393 516.33,-281.703"/>
<polygon fill="midnightblue" stroke="midnightblue" points="519.056,-283.959 524.147,-274.667 514.373,-278.756 519.056,-283.959"/>
</g>
<!-- Node16&#45;&gt;Node3 -->
<g id="edge66" class="edge"><title>Node16&#45;&gt;Node3</title>
<path fill="none" stroke="midnightblue" d="M619.611,-58.4966C515.866,-45.5842 344.658,-24.2751 272.144,-15.2496"/>
<polygon fill="midnightblue" stroke="midnightblue" points="272.536,-11.7716 262.181,-14.0096 271.672,-18.718 272.536,-11.7716"/>
</g>
<!-- Node17&#45;&gt;Node8 -->
<g id="edge70" class="edge"><title>Node17&#45;&gt;Node8</title>
<path fill="none" stroke="midnightblue" d="M396.107,-174.948C384.946,-159.243 367.539,-135.493 351,-116 342.607,-106.107 332.688,-95.6317 324.301,-87.0872"/>
<polygon fill="midnightblue" stroke="midnightblue" points="326.648,-84.4835 317.118,-79.8552 321.682,-89.4166 326.648,-84.4835"/>
</g>
<!-- Node18&#45;&gt;Node3 -->
<g id="edge76" class="edge"><title>Node18&#45;&gt;Node3</title>
<path fill="none" stroke="midnightblue" d="M570.632,-174.75C557.936,-158.012 536.854,-132.751 514,-116 437.475,-59.9084 327.347,-30.0411 272.197,-17.7968"/>
<polygon fill="midnightblue" stroke="midnightblue" points="272.756,-14.3369 262.243,-15.6467 271.278,-21.1791 272.756,-14.3369"/>
</g>
</g>
</svg>
