<?xml version="1.0" encoding="UTF-8" standalone="no"?>
<!DOCTYPE svg PUBLIC "-//W3C//DTD SVG 1.1//EN"
 "http://www.w3.org/Graphics/SVG/1.1/DTD/svg11.dtd">
<!-- Generated by graphviz version 2.26.3 (20100126.1600)
 -->
<!-- Title: /home/travis/build/LibrePCB/LibrePCB/libs/librepcbcommon/attributes/attributetype.cpp Pages: 1 -->
<svg width="766pt" height="302pt"
 viewBox="0.00 0.00 766.11 302.00" xmlns="http://www.w3.org/2000/svg" xmlns:xlink="http://www.w3.org/1999/xlink">
<g id="graph1" class="graph" transform="scale(1 1) rotate(0) translate(4 298)">
<title>/home/travis/build/LibrePCB/LibrePCB/libs/librepcbcommon/attributes/attributetype.cpp</title>
<polygon fill="white" stroke="white" points="-4,5 -4,-298 763.112,-298 763.112,5 -4,5"/>
<!-- Node1 -->
<g id="node1" class="node"><title>Node1</title>
<polygon fill="#bfbfbf" stroke="black" points="360.409,-233 360.409,-293 494.409,-293 494.409,-233 360.409,-233"/>
<text text-anchor="start" x="368.409" y="-280" font-family="Helvetica,sans-Serif" font-size="10.00">/home/travis/build</text>
<text text-anchor="start" x="368.409" y="-267" font-family="Helvetica,sans-Serif" font-size="10.00">/LibrePCB/LibrePCB/libs</text>
<text text-anchor="start" x="368.409" y="-254" font-family="Helvetica,sans-Serif" font-size="10.00">/librepcbcommon/attributes</text>
<text text-anchor="middle" x="427.409" y="-241" font-family="Helvetica,sans-Serif" font-size="10.00">/attributetype.cpp</text>
</g>
<!-- Node2 -->
<g id="node3" class="node"><title>Node2</title>
<polygon fill="white" stroke="#bfbfbf" points="350.409,-0.5 350.409,-21.5 398.409,-21.5 398.409,-0.5 350.409,-0.5"/>
<text text-anchor="middle" x="374.409" y="-8.5" font-family="Helvetica,sans-Serif" font-size="10.00">QtCore</text>
</g>
<!-- Node1&#45;&gt;Node2 -->
<g id="edge2" class="edge"><title>Node1&#45;&gt;Node2</title>
<path fill="none" stroke="midnightblue" d="M360.361,-256.741C250.059,-245.762 40.2753,-221.739 18.4094,-196 -77.8336,-82.7083 233.818,-29.736 340.152,-15.2488"/>
<polygon fill="midnightblue" stroke="midnightblue" points="340.905,-18.6796 350.357,-13.8915 339.982,-11.7407 340.905,-18.6796"/>
</g>
<!-- Node3 -->
<g id="node5" class="node"><title>Node3</title>
<a xlink:href="../../dd/d10/attributetype_8h.html" target="_top" xlink:title="attributetype.h">
<polygon fill="white" stroke="black" points="387.909,-116.5 387.909,-137.5 466.909,-137.5 466.909,-116.5 387.909,-116.5"/>
<text text-anchor="middle" x="427.409" y="-124.5" font-family="Helvetica,sans-Serif" font-size="10.00">attributetype.h</text>
</a>
</g>
<!-- Node1&#45;&gt;Node3 -->
<g id="edge4" class="edge"><title>Node1&#45;&gt;Node3</title>
<path fill="none" stroke="midnightblue" d="M463.685,-232.696C473.635,-222.216 483.129,-209.643 488.409,-196 491.939,-186.881 492.725,-182.774 488.409,-174 482.014,-160.999 470.101,-150.582 458.489,-142.892"/>
<polygon fill="midnightblue" stroke="midnightblue" points="460.119,-139.786 449.764,-137.545 456.461,-145.755 460.119,-139.786"/>
</g>
<!-- Node5 -->
<g id="node11" class="node"><title>Node5</title>
<a xlink:href="../../d6/d92/attributeunit_8h.html" target="_top" xlink:title="attributeunit.h">
<polygon fill="white" stroke="black" points="557.409,-116.5 557.409,-137.5 633.409,-137.5 633.409,-116.5 557.409,-116.5"/>
<text text-anchor="middle" x="595.409" y="-124.5" font-family="Helvetica,sans-Serif" font-size="10.00">attributeunit.h</text>
</a>
</g>
<!-- Node1&#45;&gt;Node5 -->
<g id="edge12" class="edge"><title>Node1&#45;&gt;Node5</title>
<path fill="none" stroke="midnightblue" d="M494.456,-258.795C579.455,-251.904 718.778,-234.866 750.409,-196 782.616,-156.427 700.274,-138.816 643.653,-131.565"/>
<polygon fill="midnightblue" stroke="midnightblue" points="643.761,-128.053 633.414,-130.329 642.922,-135.002 643.761,-128.053"/>
</g>
<!-- Node6 -->
<g id="node15" class="node"><title>Node6</title>
<a xlink:href="../../d9/d64/attrtypestring_8h.html" target="_top" xlink:title="attrtypestring.h">
<polygon fill="white" stroke="black" points="27.4094,-174.5 27.4094,-195.5 109.409,-195.5 109.409,-174.5 27.4094,-174.5"/>
<text text-anchor="middle" x="68.4094" y="-182.5" font-family="Helvetica,sans-Serif" font-size="10.00">attrtypestring.h</text>
</a>
</g>
<!-- Node1&#45;&gt;Node6 -->
<g id="edge18" class="edge"><title>Node1&#45;&gt;Node6</title>
<path fill="none" stroke="midnightblue" d="M360.188,-248.486C299.847,-235.443 208.555,-215.676 119.6,-196.256"/>
<polygon fill="midnightblue" stroke="midnightblue" points="120.124,-192.788 109.608,-194.074 118.631,-199.627 120.124,-192.788"/>
</g>
<!-- Node7 -->
<g id="node19" class="node"><title>Node7</title>
<a xlink:href="../../d2/d18/attrtyperesistance_8h.html" target="_top" xlink:title="attrtyperesistance.h">
<polygon fill="white" stroke="black" points="126.909,-174.5 126.909,-195.5 229.909,-195.5 229.909,-174.5 126.909,-174.5"/>
<text text-anchor="middle" x="178.409" y="-182.5" font-family="Helvetica,sans-Serif" font-size="10.00">attrtyperesistance.h</text>
</a>
</g>
<!-- Node1&#45;&gt;Node7 -->
<g id="edge24" class="edge"><title>Node1&#45;&gt;Node7</title>
<path fill="none" stroke="midnightblue" d="M360.354,-241.995C316.323,-228.202 260.013,-210.563 221.782,-198.586"/>
<polygon fill="midnightblue" stroke="midnightblue" points="222.576,-195.168 211.987,-195.518 220.484,-201.848 222.576,-195.168"/>
</g>
<!-- Node8 -->
<g id="node23" class="node"><title>Node8</title>
<a xlink:href="../../d9/d3e/attrtypecapacitance_8h.html" target="_top" xlink:title="attrtypecapacitance.h">
<polygon fill="white" stroke="black" points="247.409,-174.5 247.409,-195.5 357.409,-195.5 357.409,-174.5 247.409,-174.5"/>
<text text-anchor="middle" x="302.409" y="-182.5" font-family="Helvetica,sans-Serif" font-size="10.00">attrtypecapacitance.h</text>
</a>
</g>
<!-- Node1&#45;&gt;Node8 -->
<g id="edge30" class="edge"><title>Node1&#45;&gt;Node8</title>
<path fill="none" stroke="midnightblue" d="M379.081,-232.843C361.672,-221.98 342.714,-210.15 328.005,-200.972"/>
<polygon fill="midnightblue" stroke="midnightblue" points="329.784,-197.956 319.447,-195.632 326.078,-203.895 329.784,-197.956"/>
</g>
<!-- Node9 -->
<g id="node27" class="node"><title>Node9</title>
<a xlink:href="../../d8/d89/attrtypeinductance_8h.html" target="_top" xlink:title="attrtypeinductance.h">
<polygon fill="white" stroke="black" points="374.909,-174.5 374.909,-195.5 479.909,-195.5 479.909,-174.5 374.909,-174.5"/>
<text text-anchor="middle" x="427.409" y="-182.5" font-family="Helvetica,sans-Serif" font-size="10.00">attrtypeinductance.h</text>
</a>
</g>
<!-- Node1&#45;&gt;Node9 -->
<g id="edge36" class="edge"><title>Node1&#45;&gt;Node9</title>
<path fill="none" stroke="midnightblue" d="M427.409,-232.62C427.409,-223.68 427.409,-214.103 427.409,-205.9"/>
<polygon fill="midnightblue" stroke="midnightblue" points="430.91,-205.753 427.409,-195.753 423.91,-205.753 430.91,-205.753"/>
</g>
<!-- Node10 -->
<g id="node31" class="node"><title>Node10</title>
<a xlink:href="../../d8/dbc/attrtypevoltage_8h.html" target="_top" xlink:title="attrtypevoltage.h">
<polygon fill="white" stroke="black" points="534.909,-174.5 534.909,-195.5 623.909,-195.5 623.909,-174.5 534.909,-174.5"/>
<text text-anchor="middle" x="579.409" y="-182.5" font-family="Helvetica,sans-Serif" font-size="10.00">attrtypevoltage.h</text>
</a>
</g>
<!-- Node1&#45;&gt;Node10 -->
<g id="edge42" class="edge"><title>Node1&#45;&gt;Node10</title>
<path fill="none" stroke="midnightblue" d="M486.177,-232.843C507.945,-221.672 531.705,-209.48 549.791,-200.199"/>
<polygon fill="midnightblue" stroke="midnightblue" points="551.392,-203.311 558.691,-195.632 548.196,-197.083 551.392,-203.311"/>
</g>
<!-- Node11 -->
<g id="node35" class="node"><title>Node11</title>
<a xlink:href="../../d5/dbd/attrtypefrequency_8h.html" target="_top" xlink:title="attrtypefrequency.h">
<polygon fill="white" stroke="black" points="640.909,-174.5 640.909,-195.5 741.909,-195.5 741.909,-174.5 640.909,-174.5"/>
<text text-anchor="middle" x="691.409" y="-182.5" font-family="Helvetica,sans-Serif" font-size="10.00">attrtypefrequency.h</text>
</a>
</g>
<!-- Node1&#45;&gt;Node11 -->
<g id="edge48" class="edge"><title>Node1&#45;&gt;Node11</title>
<path fill="none" stroke="midnightblue" d="M494.711,-243.115C542.231,-229.075 604.613,-210.644 646.259,-198.34"/>
<polygon fill="midnightblue" stroke="midnightblue" points="647.258,-201.694 655.857,-195.504 645.275,-194.981 647.258,-201.694"/>
</g>
<!-- Node3&#45;&gt;Node2 -->
<g id="edge6" class="edge"><title>Node3&#45;&gt;Node2</title>
<path fill="none" stroke="midnightblue" d="M422.518,-116.295C413.644,-96.8724 394.767,-55.5561 383.477,-30.8462"/>
<polygon fill="midnightblue" stroke="midnightblue" points="386.628,-29.3203 379.289,-21.6792 380.261,-32.2293 386.628,-29.3203"/>
</g>
<!-- Node4 -->
<g id="node8" class="node"><title>Node4</title>
<a xlink:href="../../d4/d03/exceptions_8h.html" target="_top" xlink:title="../exceptions.h">
<polygon fill="white" stroke="black" points="420.909,-58.5 420.909,-79.5 501.909,-79.5 501.909,-58.5 420.909,-58.5"/>
<text text-anchor="middle" x="461.409" y="-66.5" font-family="Helvetica,sans-Serif" font-size="10.00">../exceptions.h</text>
</a>
</g>
<!-- Node3&#45;&gt;Node4 -->
<g id="edge8" class="edge"><title>Node3&#45;&gt;Node4</title>
<path fill="none" stroke="midnightblue" d="M433.646,-116.362C438.247,-108.513 444.635,-97.6159 450.123,-88.2527"/>
<polygon fill="midnightblue" stroke="midnightblue" points="453.175,-89.9677 455.213,-79.5707 447.136,-86.4276 453.175,-89.9677"/>
</g>
<!-- Node4&#45;&gt;Node2 -->
<g id="edge10" class="edge"><title>Node4&#45;&gt;Node2</title>
<path fill="none" stroke="midnightblue" d="M445.452,-58.3619C432.453,-49.6955 413.878,-37.3126 398.982,-27.3819"/>
<polygon fill="midnightblue" stroke="midnightblue" points="400.527,-24.2055 390.265,-21.5707 396.644,-30.0299 400.527,-24.2055"/>
</g>
<!-- Node5&#45;&gt;Node2 -->
<g id="edge14" class="edge"><title>Node5&#45;&gt;Node2</title>
<path fill="none" stroke="midnightblue" d="M590.281,-116.387C582.366,-101.14 565.722,-73.2034 543.409,-58 502.293,-29.9846 444.828,-18.5851 408.625,-14.0035"/>
<polygon fill="midnightblue" stroke="midnightblue" points="408.899,-10.5119 398.562,-12.8366 408.092,-17.4653 408.899,-10.5119"/>
</g>
<!-- Node5&#45;&gt;Node4 -->
<g id="edge16" class="edge"><title>Node5&#45;&gt;Node4</title>
<path fill="none" stroke="midnightblue" d="M571.143,-116.497C549.931,-107.315 518.911,-93.8889 495.26,-83.6516"/>
<polygon fill="midnightblue" stroke="midnightblue" points="496.516,-80.3815 485.948,-79.6212 493.735,-86.8055 496.516,-80.3815"/>
</g>
<!-- Node6&#45;&gt;Node2 -->
<g id="edge20" class="edge"><title>Node6&#45;&gt;Node2</title>
<path fill="none" stroke="midnightblue" d="M87.0905,-174.377C139.052,-144.831 285.488,-61.5631 346.834,-26.6804"/>
<polygon fill="midnightblue" stroke="midnightblue" points="348.621,-29.6902 355.584,-21.7046 345.161,-23.6052 348.621,-29.6902"/>
</g>
<!-- Node6&#45;&gt;Node3 -->
<g id="edge22" class="edge"><title>Node6&#45;&gt;Node3</title>
<path fill="none" stroke="midnightblue" d="M109.567,-175.721C112.555,-175.116 115.526,-174.536 118.409,-174 209.439,-157.083 316.395,-141.837 377.608,-133.55"/>
<polygon fill="midnightblue" stroke="midnightblue" points="378.317,-136.987 387.76,-132.183 377.382,-130.049 378.317,-136.987"/>
</g>
<!-- Node7&#45;&gt;Node2 -->
<g id="edge26" class="edge"><title>Node7&#45;&gt;Node2</title>
<path fill="none" stroke="midnightblue" d="M190.375,-174.377C223.111,-145.316 314.388,-64.2843 354.766,-28.4381"/>
<polygon fill="midnightblue" stroke="midnightblue" points="357.197,-30.961 362.351,-21.7046 352.549,-25.7261 357.197,-30.961"/>
</g>
<!-- Node7&#45;&gt;Node3 -->
<g id="edge28" class="edge"><title>Node7&#45;&gt;Node3</title>
<path fill="none" stroke="midnightblue" d="M223.501,-174.497C267.019,-164.36 332.752,-149.049 377.748,-138.568"/>
<polygon fill="midnightblue" stroke="midnightblue" points="378.637,-141.954 387.582,-136.277 377.049,-135.137 378.637,-141.954"/>
</g>
<!-- Node8&#45;&gt;Node2 -->
<g id="edge32" class="edge"><title>Node8&#45;&gt;Node2</title>
<path fill="none" stroke="midnightblue" d="M306.805,-174.377C318.526,-146.051 350.679,-68.3488 366.033,-31.2424"/>
<polygon fill="midnightblue" stroke="midnightblue" points="369.298,-32.5061 369.888,-21.9277 362.83,-29.8296 369.298,-32.5061"/>
</g>
<!-- Node8&#45;&gt;Node3 -->
<g id="edge34" class="edge"><title>Node8&#45;&gt;Node3</title>
<path fill="none" stroke="midnightblue" d="M325.046,-174.497C344.657,-165.397 373.256,-152.127 395.243,-141.925"/>
<polygon fill="midnightblue" stroke="midnightblue" points="396.921,-145.005 404.519,-137.621 393.975,-138.655 396.921,-145.005"/>
</g>
<!-- Node9&#45;&gt;Node2 -->
<g id="edge38" class="edge"><title>Node9&#45;&gt;Node2</title>
<path fill="none" stroke="midnightblue" d="M411.327,-174.346C400.161,-165.943 386.127,-153.138 379.409,-138 364.051,-103.389 367.036,-58.1125 370.674,-32.022"/>
<polygon fill="midnightblue" stroke="midnightblue" points="374.186,-32.2173 372.274,-21.7964 367.27,-31.1349 374.186,-32.2173"/>
</g>
<!-- Node9&#45;&gt;Node3 -->
<g id="edge40" class="edge"><title>Node9&#45;&gt;Node3</title>
<path fill="none" stroke="midnightblue" d="M427.409,-174.362C427.409,-166.922 427.409,-156.743 427.409,-147.728"/>
<polygon fill="midnightblue" stroke="midnightblue" points="430.91,-147.571 427.409,-137.571 423.91,-147.571 430.91,-147.571"/>
</g>
<!-- Node10&#45;&gt;Node2 -->
<g id="edge44" class="edge"><title>Node10&#45;&gt;Node2</title>
<path fill="none" stroke="midnightblue" d="M571.83,-174.44C565.266,-165.086 555.705,-150.943 548.409,-138 529.081,-103.709 539.74,-84.2512 510.409,-58 481.852,-32.4414 438.681,-20.637 408.667,-15.2805"/>
<polygon fill="midnightblue" stroke="midnightblue" points="409.079,-11.8014 398.645,-13.6428 407.95,-18.7098 409.079,-11.8014"/>
</g>
<!-- Node10&#45;&gt;Node3 -->
<g id="edge46" class="edge"><title>Node10&#45;&gt;Node3</title>
<path fill="none" stroke="midnightblue" d="M551.883,-174.497C527.425,-165.164 491.471,-151.445 464.486,-141.147"/>
<polygon fill="midnightblue" stroke="midnightblue" points="465.578,-137.818 454.987,-137.523 463.082,-144.358 465.578,-137.818"/>
</g>
<!-- Node11&#45;&gt;Node2 -->
<g id="edge50" class="edge"><title>Node11&#45;&gt;Node2</title>
<path fill="none" stroke="midnightblue" d="M685.273,-174.479C676.724,-160.308 660.257,-134.712 642.409,-116 613.568,-85.7619 606.014,-76.2223 568.409,-58 515.877,-32.5441 448.483,-20.2389 408.529,-14.7995"/>
<polygon fill="midnightblue" stroke="midnightblue" points="408.872,-11.3148 398.506,-13.5013 407.973,-18.2569 408.872,-11.3148"/>
</g>
<!-- Node11&#45;&gt;Node3 -->
<g id="edge52" class="edge"><title>Node11&#45;&gt;Node3</title>
<path fill="none" stroke="midnightblue" d="M643.601,-174.497C596.436,-164.135 524.657,-148.365 476.913,-137.876"/>
<polygon fill="midnightblue" stroke="midnightblue" points="477.625,-134.449 467.107,-135.721 476.123,-141.286 477.625,-134.449"/>
</g>
</g>
</svg>
