<?xml version="1.0" encoding="UTF-8" standalone="no"?>
<!DOCTYPE svg PUBLIC "-//W3C//DTD SVG 1.1//EN"
 "http://www.w3.org/Graphics/SVG/1.1/DTD/svg11.dtd">
<!-- Generated by graphviz version 2.26.3 (20100126.1600)
 -->
<!-- Title: SchematicPagesDock Pages: 1 -->
<svg width="136pt" height="276pt"
 viewBox="0.00 0.00 136.00 276.00" xmlns="http://www.w3.org/2000/svg" xmlns:xlink="http://www.w3.org/1999/xlink">
<g id="graph1" class="graph" transform="scale(1 1) rotate(0) translate(4 272)">
<title>SchematicPagesDock</title>
<polygon fill="white" stroke="white" points="-4,5 -4,-272 133,-272 133,5 -4,5"/>
<!-- Node1 -->
<g id="node1" class="node"><title>Node1</title>
<polygon fill="#bfbfbf" stroke="black" points="7,-0.5 7,-63.5 121,-63.5 121,-0.5 7,-0.5"/>
<text text-anchor="middle" x="64" y="-50.5" font-family="Helvetica,sans-Serif" font-size="10.00">SchematicPagesDock</text>
<polyline fill="none" stroke="black" points="7,-42.5 121,-42.5 "/>
<text text-anchor="middle" x="64" y="-29.5" font-family="Helvetica,sans-Serif" font-size="10.00"> </text>
<polyline fill="none" stroke="black" points="7,-21.5 121,-21.5 "/>
<text text-anchor="middle" x="64" y="-8.5" font-family="Helvetica,sans-Serif" font-size="10.00"> </text>
</g>
<!-- Node2 -->
<g id="node2" class="node"><title>Node2</title>
<a xlink:href="../../d6/dd3/class_ui___schematic_pages_dock.html" target="_top" xlink:title="{Ui_SchematicPagesDock\n|+ dockWidgetContents\l+ verticalLayout\l+ listWidget\l+ horizontalLayout\l+ btnNewSchematic\l+ btnRemoveSchematic\l+ btnSchematicUp\l+ btnSchematicDown\l|+ setupUi()\l+ retranslateUi()\l}">
<polygon fill="white" stroke="black" points="-0.5,-100.5 -0.5,-267.5 128.5,-267.5 128.5,-100.5 -0.5,-100.5"/>
<text text-anchor="middle" x="64" y="-254.5" font-family="Helvetica,sans-Serif" font-size="10.00">Ui_SchematicPagesDock</text>
<polyline fill="none" stroke="black" points="-0.5,-246.5 128.5,-246.5 "/>
<text text-anchor="start" x="7.5" y="-233.5" font-family="Helvetica,sans-Serif" font-size="10.00">+ dockWidgetContents</text>
<text text-anchor="start" x="7.5" y="-220.5" font-family="Helvetica,sans-Serif" font-size="10.00">+ verticalLayout</text>
<text text-anchor="start" x="7.5" y="-207.5" font-family="Helvetica,sans-Serif" font-size="10.00">+ listWidget</text>
<text text-anchor="start" x="7.5" y="-194.5" font-family="Helvetica,sans-Serif" font-size="10.00">+ horizontalLayout</text>
<text text-anchor="start" x="7.5" y="-181.5" font-family="Helvetica,sans-Serif" font-size="10.00">+ btnNewSchematic</text>
<text text-anchor="start" x="7.5" y="-168.5" font-family="Helvetica,sans-Serif" font-size="10.00">+ btnRemoveSchematic</text>
<text text-anchor="start" x="7.5" y="-155.5" font-family="Helvetica,sans-Serif" font-size="10.00">+ btnSchematicUp</text>
<text text-anchor="start" x="7.5" y="-142.5" font-family="Helvetica,sans-Serif" font-size="10.00">+ btnSchematicDown</text>
<polyline fill="none" stroke="black" points="-0.5,-134.5 128.5,-134.5 "/>
<text text-anchor="start" x="7.5" y="-121.5" font-family="Helvetica,sans-Serif" font-size="10.00">+ setupUi()</text>
<text text-anchor="start" x="7.5" y="-108.5" font-family="Helvetica,sans-Serif" font-size="10.00">+ retranslateUi()</text>
</a>
</g>
<!-- Node2&#45;&gt;Node1 -->
<g id="edge2" class="edge"><title>Node2&#45;&gt;Node1</title>
<path fill="none" stroke="midnightblue" d="M64,-90.3908C64,-80.8567 64,-71.7139 64,-63.6084"/>
<polygon fill="none" stroke="midnightblue" points="60.5001,-90.4408 64,-100.441 67.5001,-90.4409 60.5001,-90.4408"/>
</g>
</g>
</svg>
