<?xml version="1.0" encoding="UTF-8" standalone="no"?>
<!DOCTYPE svg PUBLIC "-//W3C//DTD SVG 1.1//EN"
 "http://www.w3.org/Graphics/SVG/1.1/DTD/svg11.dtd">
<!-- Generated by graphviz version 2.26.3 (20100126.1600)
 -->
<!-- Title: /home/travis/build/LibrePCB/LibrePCB/libs/librepcbprojecteditor/boardeditor/fsm/bes_base.cpp Pages: 1 -->
<svg width="1405pt" height="460pt"
 viewBox="0.00 0.00 1405.00 460.00" xmlns="http://www.w3.org/2000/svg" xmlns:xlink="http://www.w3.org/1999/xlink">
<g id="graph1" class="graph" transform="scale(1 1) rotate(0) translate(4 456)">
<title>/home/travis/build/LibrePCB/LibrePCB/libs/librepcbprojecteditor/boardeditor/fsm/bes_base.cpp</title>
<polygon fill="white" stroke="white" points="-4,5 -4,-456 1402,-456 1402,5 -4,5"/>
<!-- Node1 -->
<g id="node1" class="node"><title>Node1</title>
<polygon fill="#bfbfbf" stroke="black" points="163.5,-391 163.5,-451 314.5,-451 314.5,-391 163.5,-391"/>
<text text-anchor="start" x="171.5" y="-438" font-family="Helvetica,sans-Serif" font-size="10.00">/home/travis/build</text>
<text text-anchor="start" x="171.5" y="-425" font-family="Helvetica,sans-Serif" font-size="10.00">/LibrePCB/LibrePCB/libs</text>
<text text-anchor="start" x="171.5" y="-412" font-family="Helvetica,sans-Serif" font-size="10.00">/librepcbprojecteditor</text>
<text text-anchor="middle" x="239" y="-399" font-family="Helvetica,sans-Serif" font-size="10.00">/boardeditor/fsm/bes_base.cpp</text>
</g>
<!-- Node2 -->
<g id="node3" class="node"><title>Node2</title>
<polygon fill="white" stroke="#bfbfbf" points="559,-0.5 559,-21.5 607,-21.5 607,-0.5 559,-0.5"/>
<text text-anchor="middle" x="583" y="-8.5" font-family="Helvetica,sans-Serif" font-size="10.00">QtCore</text>
</g>
<!-- Node1&#45;&gt;Node2 -->
<g id="edge2" class="edge"><title>Node1&#45;&gt;Node2</title>
<path fill="none" stroke="midnightblue" d="M163.379,-408.392C93.3594,-391.883 0,-355.365 0,-278 0,-278 0,-278 0,-148 0,-93.5869 34.2377,-82.146 83,-58 124.594,-37.4037 442.927,-18.5531 548.846,-12.7939"/>
<polygon fill="midnightblue" stroke="midnightblue" points="549.191,-16.2806 558.988,-12.2474 548.814,-9.2907 549.191,-16.2806"/>
</g>
<!-- Node3 -->
<g id="node5" class="node"><title>Node3</title>
<a xlink:href="../../d1/deb/bes__base_8h.html" target="_top" xlink:title="bes_base.h">
<polygon fill="white" stroke="black" points="262.5,-332.5 262.5,-353.5 329.5,-353.5 329.5,-332.5 262.5,-332.5"/>
<text text-anchor="middle" x="296" y="-340.5" font-family="Helvetica,sans-Serif" font-size="10.00">bes_base.h</text>
</a>
</g>
<!-- Node1&#45;&gt;Node3 -->
<g id="edge4" class="edge"><title>Node1&#45;&gt;Node3</title>
<path fill="none" stroke="midnightblue" d="M261.201,-390.62C268.254,-380.969 275.848,-370.576 282.138,-361.97"/>
<polygon fill="midnightblue" stroke="midnightblue" points="285.067,-363.892 288.142,-353.753 279.416,-359.762 285.067,-363.892"/>
</g>
<!-- Node5 -->
<g id="node11" class="node"><title>Node5</title>
<a xlink:href="../../dd/dec/boardeditor_8h.html" target="_top" xlink:title="../boardeditor.h">
<polygon fill="white" stroke="black" points="28,-267.5 28,-288.5 110,-288.5 110,-267.5 28,-267.5"/>
<text text-anchor="middle" x="69" y="-275.5" font-family="Helvetica,sans-Serif" font-size="10.00">../boardeditor.h</text>
</a>
</g>
<!-- Node1&#45;&gt;Node5 -->
<g id="edge58" class="edge"><title>Node1&#45;&gt;Node5</title>
<path fill="none" stroke="midnightblue" d="M202.947,-390.673C168.5,-361.697 117.782,-319.034 89.6717,-295.389"/>
<polygon fill="midnightblue" stroke="midnightblue" points="91.6225,-292.456 81.7168,-288.697 87.1164,-297.813 91.6225,-292.456"/>
</g>
<!-- Node16 -->
<g id="node46" class="node"><title>Node16</title>
<a xlink:href="../../dc/d8d/project_8h.html" target="_top" xlink:title="librepcbproject/project.h">
<polygon fill="white" stroke="black" points="930,-202.5 930,-223.5 1050,-223.5 1050,-202.5 930,-202.5"/>
<text text-anchor="middle" x="990" y="-210.5" font-family="Helvetica,sans-Serif" font-size="10.00">librepcbproject/project.h</text>
</a>
</g>
<!-- Node1&#45;&gt;Node16 -->
<g id="edge60" class="edge"><title>Node1&#45;&gt;Node16</title>
<path fill="none" stroke="midnightblue" d="M314.795,-400.008C468.905,-357.325 814.94,-261.485 942.015,-226.29"/>
<polygon fill="midnightblue" stroke="midnightblue" points="943.147,-229.609 951.849,-223.566 941.278,-222.863 943.147,-229.609"/>
</g>
<!-- Node3&#45;&gt;Node2 -->
<g id="edge6" class="edge"><title>Node3&#45;&gt;Node2</title>
<path fill="none" stroke="midnightblue" d="M324.694,-332.48C340.761,-324.955 359.436,-313.103 369,-296 420.639,-203.657 307.038,-139.914 374,-58 395.791,-31.3428 495.392,-18.6597 548.848,-13.6815"/>
<polygon fill="midnightblue" stroke="midnightblue" points="549.238,-17.1608 558.888,-12.7868 548.617,-10.1884 549.238,-17.1608"/>
</g>
<!-- Node4 -->
<g id="node8" class="node"><title>Node4</title>
<a xlink:href="../../db/d67/boardeditorevent_8h.html" target="_top" xlink:title="boardeditorevent.h">
<polygon fill="white" stroke="black" points="382.5,-65.5 382.5,-86.5 479.5,-86.5 479.5,-65.5 382.5,-65.5"/>
<text text-anchor="middle" x="431" y="-73.5" font-family="Helvetica,sans-Serif" font-size="10.00">boardeditorevent.h</text>
</a>
</g>
<!-- Node3&#45;&gt;Node4 -->
<g id="edge8" class="edge"><title>Node3&#45;&gt;Node4</title>
<path fill="none" stroke="midnightblue" d="M329.647,-337.086C353.702,-331.015 384.757,-319.051 402,-296 447.121,-235.682 440.234,-139.165 434.463,-96.9313"/>
<polygon fill="midnightblue" stroke="midnightblue" points="437.915,-96.3497 432.981,-86.9742 430.992,-97.3807 437.915,-96.3497"/>
</g>
<!-- Node3&#45;&gt;Node5 -->
<g id="edge12" class="edge"><title>Node3&#45;&gt;Node5</title>
<path fill="none" stroke="midnightblue" d="M262.48,-335.012C226.701,-326.273 168.47,-311.441 119,-296 114.938,-294.732 110.716,-293.337 106.525,-291.901"/>
<polygon fill="midnightblue" stroke="midnightblue" points="107.483,-288.528 96.8877,-288.519 105.164,-295.133 107.483,-288.528"/>
</g>
<!-- Node8 -->
<g id="node19" class="node"><title>Node8</title>
<polygon fill="white" stroke="#bfbfbf" points="128,-267.5 128,-288.5 214,-288.5 214,-267.5 128,-267.5"/>
<text text-anchor="middle" x="171" y="-275.5" font-family="Helvetica,sans-Serif" font-size="10.00">ui_boardeditor.h</text>
</g>
<!-- Node3&#45;&gt;Node8 -->
<g id="edge22" class="edge"><title>Node3&#45;&gt;Node8</title>
<path fill="none" stroke="midnightblue" d="M275.638,-332.412C255.209,-321.788 223.535,-305.318 200.385,-293.28"/>
<polygon fill="midnightblue" stroke="midnightblue" points="201.84,-290.092 191.353,-288.584 198.61,-296.302 201.84,-290.092"/>
</g>
<!-- Node9 -->
<g id="node21" class="node"><title>Node9</title>
<a xlink:href="../../d1/da8/all__length__units_8h.html" target="_top" xlink:title="librepcbcommon/units\l/all_length_units.h">
<polygon fill="white" stroke="black" points="493,-261 493,-295 605,-295 605,-261 493,-261"/>
<text text-anchor="start" x="501" y="-282" font-family="Helvetica,sans-Serif" font-size="10.00">librepcbcommon/units</text>
<text text-anchor="middle" x="549" y="-269" font-family="Helvetica,sans-Serif" font-size="10.00">/all_length_units.h</text>
</a>
</g>
<!-- Node3&#45;&gt;Node9 -->
<g id="edge24" class="edge"><title>Node3&#45;&gt;Node9</title>
<path fill="none" stroke="midnightblue" d="M329.596,-334.369C368.58,-324.353 433.797,-307.598 483.02,-294.951"/>
<polygon fill="midnightblue" stroke="midnightblue" points="484.137,-298.278 492.952,-292.4 482.395,-291.498 484.137,-298.278"/>
</g>
<!-- Node15 -->
<g id="node41" class="node"><title>Node15</title>
<a xlink:href="../../df/dfc/graphicsview_8h.html" target="_top" xlink:title="librepcbcommon/graphics\l/graphicsview.h">
<polygon fill="white" stroke="black" points="232,-261 232,-295 360,-295 360,-261 232,-261"/>
<text text-anchor="start" x="240" y="-282" font-family="Helvetica,sans-Serif" font-size="10.00">librepcbcommon/graphics</text>
<text text-anchor="middle" x="296" y="-269" font-family="Helvetica,sans-Serif" font-size="10.00">/graphicsview.h</text>
</a>
</g>
<!-- Node3&#45;&gt;Node15 -->
<g id="edge52" class="edge"><title>Node3&#45;&gt;Node15</title>
<path fill="none" stroke="midnightblue" d="M296,-332.267C296,-324.931 296,-314.857 296,-305.38"/>
<polygon fill="midnightblue" stroke="midnightblue" points="299.5,-305.11 296,-295.11 292.5,-305.11 299.5,-305.11"/>
</g>
<!-- Node4&#45;&gt;Node2 -->
<g id="edge10" class="edge"><title>Node4&#45;&gt;Node2</title>
<path fill="none" stroke="midnightblue" d="M455.76,-65.412C481.194,-54.5353 520.961,-37.5297 549.263,-25.4269"/>
<polygon fill="midnightblue" stroke="midnightblue" points="550.935,-28.5186 558.754,-21.3685 548.183,-22.0824 550.935,-28.5186"/>
</g>
<!-- Node5&#45;&gt;Node2 -->
<g id="edge14" class="edge"><title>Node5&#45;&gt;Node2</title>
<path fill="none" stroke="midnightblue" d="M67.232,-267.463C61.9086,-231.763 49.9891,-114.464 112,-58 144.167,-28.7105 445.383,-15.7179 548.54,-12.1018"/>
<polygon fill="midnightblue" stroke="midnightblue" points="548.853,-15.5932 558.727,-11.7528 548.613,-8.59729 548.853,-15.5932"/>
</g>
<!-- Node6 -->
<g id="node14" class="node"><title>Node6</title>
<polygon fill="white" stroke="#bfbfbf" points="203.5,-202.5 203.5,-223.5 266.5,-223.5 266.5,-202.5 203.5,-202.5"/>
<text text-anchor="middle" x="235" y="-210.5" font-family="Helvetica,sans-Serif" font-size="10.00">QtWidgets</text>
</g>
<!-- Node5&#45;&gt;Node6 -->
<g id="edge16" class="edge"><title>Node5&#45;&gt;Node6</title>
<path fill="none" stroke="midnightblue" d="M96.0402,-267.412C123.894,-256.505 167.487,-239.436 198.412,-227.327"/>
<polygon fill="midnightblue" stroke="midnightblue" points="199.936,-230.489 207.971,-223.584 197.384,-223.971 199.936,-230.489"/>
</g>
<!-- Node7 -->
<g id="node16" class="node"><title>Node7</title>
<a xlink:href="../../df/df9/if__graphicsvieweventhandler_8h.html" target="_top" xlink:title="librepcbcommon/graphics\l/if_graphicsvieweventhandler.h">
<polygon fill="white" stroke="black" points="120.5,-59 120.5,-93 271.5,-93 271.5,-59 120.5,-59"/>
<text text-anchor="start" x="128.5" y="-80" font-family="Helvetica,sans-Serif" font-size="10.00">librepcbcommon/graphics</text>
<text text-anchor="middle" x="196" y="-67" font-family="Helvetica,sans-Serif" font-size="10.00">/if_graphicsvieweventhandler.h</text>
</a>
</g>
<!-- Node5&#45;&gt;Node7 -->
<g id="edge18" class="edge"><title>Node5&#45;&gt;Node7</title>
<path fill="none" stroke="midnightblue" d="M75.6493,-267.424C94.9872,-236.666 151.614,-146.599 179.749,-101.849"/>
<polygon fill="midnightblue" stroke="midnightblue" points="182.777,-103.608 185.136,-93.279 176.851,-99.8819 182.777,-103.608"/>
</g>
<!-- Node7&#45;&gt;Node2 -->
<g id="edge20" class="edge"><title>Node7&#45;&gt;Node2</title>
<path fill="none" stroke="midnightblue" d="M271.693,-61.7816C278.891,-60.4814 286.081,-59.2024 293,-58 385.336,-41.9525 494.527,-24.7276 548.805,-16.2832"/>
<polygon fill="midnightblue" stroke="midnightblue" points="549.563,-19.7075 558.908,-14.7143 548.489,-12.7904 549.563,-19.7075"/>
</g>
<!-- Node10 -->
<g id="node23" class="node"><title>Node10</title>
<a xlink:href="../../d0/d09/lengthunit_8h.html" target="_top" xlink:title="lengthunit.h">
<polygon fill="white" stroke="black" points="625.5,-137.5 625.5,-158.5 692.5,-158.5 692.5,-137.5 625.5,-137.5"/>
<text text-anchor="middle" x="659" y="-145.5" font-family="Helvetica,sans-Serif" font-size="10.00">lengthunit.h</text>
</a>
</g>
<!-- Node9&#45;&gt;Node10 -->
<g id="edge26" class="edge"><title>Node9&#45;&gt;Node10</title>
<path fill="none" stroke="midnightblue" d="M564.754,-260.655C574.214,-250.145 586.427,-236.414 597,-224 613.396,-204.749 631.632,-182.259 644.057,-166.765"/>
<polygon fill="midnightblue" stroke="midnightblue" points="646.801,-168.938 650.313,-158.943 641.334,-164.566 646.801,-168.938"/>
</g>
<!-- Node12 -->
<g id="node29" class="node"><title>Node12</title>
<a xlink:href="../../dd/db9/length_8h.html" target="_top" xlink:title="length.h">
<polygon fill="white" stroke="black" points="557.5,-137.5 557.5,-158.5 608.5,-158.5 608.5,-137.5 557.5,-137.5"/>
<text text-anchor="middle" x="583" y="-145.5" font-family="Helvetica,sans-Serif" font-size="10.00">length.h</text>
</a>
</g>
<!-- Node9&#45;&gt;Node12 -->
<g id="edge34" class="edge"><title>Node9&#45;&gt;Node12</title>
<path fill="none" stroke="midnightblue" d="M562.433,-260.574C569.386,-250.481 577.197,-237.194 581,-224 586.236,-205.834 586.239,-184.204 585.226,-168.674"/>
<polygon fill="midnightblue" stroke="midnightblue" points="588.702,-168.248 584.368,-158.58 581.727,-168.84 588.702,-168.248"/>
</g>
<!-- Node13 -->
<g id="node33" class="node"><title>Node13</title>
<a xlink:href="../../d2/d91/point_8h.html" target="_top" xlink:title="point.h">
<polygon fill="white" stroke="black" points="526,-202.5 526,-223.5 572,-223.5 572,-202.5 526,-202.5"/>
<text text-anchor="middle" x="549" y="-210.5" font-family="Helvetica,sans-Serif" font-size="10.00">point.h</text>
</a>
</g>
<!-- Node9&#45;&gt;Node13 -->
<g id="edge40" class="edge"><title>Node9&#45;&gt;Node13</title>
<path fill="none" stroke="midnightblue" d="M549,-260.922C549,-252.67 549,-242.692 549,-233.982"/>
<polygon fill="midnightblue" stroke="midnightblue" points="552.5,-233.852 549,-223.852 545.5,-233.852 552.5,-233.852"/>
</g>
<!-- Node14 -->
<g id="node37" class="node"><title>Node14</title>
<a xlink:href="../../da/dac/angle_8h.html" target="_top" xlink:title="angle.h">
<polygon fill="white" stroke="black" points="492,-137.5 492,-158.5 540,-158.5 540,-137.5 492,-137.5"/>
<text text-anchor="middle" x="516" y="-145.5" font-family="Helvetica,sans-Serif" font-size="10.00">angle.h</text>
</a>
</g>
<!-- Node9&#45;&gt;Node14 -->
<g id="edge46" class="edge"><title>Node9&#45;&gt;Node14</title>
<path fill="none" stroke="midnightblue" d="M535.5,-260.593C528.526,-250.506 520.716,-237.218 517,-224 511.885,-205.805 512.181,-184.178 513.434,-168.657"/>
<polygon fill="midnightblue" stroke="midnightblue" points="516.93,-168.87 514.452,-158.569 509.965,-168.167 516.93,-168.87"/>
</g>
<!-- Node10&#45;&gt;Node2 -->
<g id="edge28" class="edge"><title>Node10&#45;&gt;Node2</title>
<path fill="none" stroke="midnightblue" d="M653.036,-137.25C640.272,-114.241 610.148,-59.9371 593.877,-30.6079"/>
<polygon fill="midnightblue" stroke="midnightblue" points="596.848,-28.7469 588.936,-21.7002 590.726,-32.1427 596.848,-28.7469"/>
</g>
<!-- Node11 -->
<g id="node26" class="node"><title>Node11</title>
<a xlink:href="../../d4/d03/exceptions_8h.html" target="_top" xlink:title="../exceptions.h">
<polygon fill="white" stroke="black" points="648.5,-65.5 648.5,-86.5 729.5,-86.5 729.5,-65.5 648.5,-65.5"/>
<text text-anchor="middle" x="689" y="-73.5" font-family="Helvetica,sans-Serif" font-size="10.00">../exceptions.h</text>
</a>
</g>
<!-- Node10&#45;&gt;Node11 -->
<g id="edge30" class="edge"><title>Node10&#45;&gt;Node11</title>
<path fill="none" stroke="midnightblue" d="M663.427,-137.376C667.946,-126.528 675.072,-109.426 680.655,-96.0271"/>
<polygon fill="midnightblue" stroke="midnightblue" points="683.94,-97.2444 684.555,-86.6674 677.478,-94.552 683.94,-97.2444"/>
</g>
<!-- Node11&#45;&gt;Node2 -->
<g id="edge32" class="edge"><title>Node11&#45;&gt;Node2</title>
<path fill="none" stroke="midnightblue" d="M671.496,-65.2666C654.44,-54.8074 628.306,-38.782 608.854,-26.8541"/>
<polygon fill="midnightblue" stroke="midnightblue" points="610.533,-23.7776 600.178,-21.5337 606.873,-29.745 610.533,-23.7776"/>
</g>
<!-- Node12&#45;&gt;Node2 -->
<g id="edge36" class="edge"><title>Node12&#45;&gt;Node2</title>
<path fill="none" stroke="midnightblue" d="M583,-137.25C583,-114.541 583,-61.3484 583,-31.7682"/>
<polygon fill="midnightblue" stroke="midnightblue" points="586.5,-31.7002 583,-21.7002 579.5,-31.7003 586.5,-31.7002"/>
</g>
<!-- Node12&#45;&gt;Node11 -->
<g id="edge38" class="edge"><title>Node12&#45;&gt;Node11</title>
<path fill="none" stroke="midnightblue" d="M598.641,-137.376C616.098,-125.518 644.559,-106.186 664.874,-92.3877"/>
<polygon fill="midnightblue" stroke="midnightblue" points="666.99,-95.1816 673.295,-86.6674 663.056,-89.391 666.99,-95.1816"/>
</g>
<!-- Node13&#45;&gt;Node2 -->
<g id="edge42" class="edge"><title>Node13&#45;&gt;Node2</title>
<path fill="none" stroke="midnightblue" d="M525.858,-203.412C510.647,-195.742 491.959,-183.379 483,-166 475.668,-151.779 477.742,-145.112 483,-130 497.978,-86.9504 536.723,-48.9048 561.353,-28.0005"/>
<polygon fill="midnightblue" stroke="midnightblue" points="563.634,-30.6559 569.11,-21.5858 559.173,-25.2615 563.634,-30.6559"/>
</g>
<!-- Node13&#45;&gt;Node12 -->
<g id="edge44" class="edge"><title>Node13&#45;&gt;Node12</title>
<path fill="none" stroke="midnightblue" d="M554.614,-202.267C559.516,-192.896 566.755,-179.057 572.695,-167.7"/>
<polygon fill="midnightblue" stroke="midnightblue" points="575.956,-169.017 577.49,-158.534 569.754,-165.772 575.956,-169.017"/>
</g>
<!-- Node14&#45;&gt;Node2 -->
<g id="edge48" class="edge"><title>Node14&#45;&gt;Node2</title>
<path fill="none" stroke="midnightblue" d="M521.257,-137.25C532.461,-114.341 558.837,-60.4087 573.223,-30.9919"/>
<polygon fill="midnightblue" stroke="midnightblue" points="576.518,-32.2212 577.767,-21.7002 570.23,-29.1458 576.518,-32.2212"/>
</g>
<!-- Node14&#45;&gt;Node11 -->
<g id="edge50" class="edge"><title>Node14&#45;&gt;Node11</title>
<path fill="none" stroke="midnightblue" d="M534.282,-137.474C539.013,-134.904 544.144,-132.249 549,-130 581.881,-114.771 620.363,-100.149 648.652,-89.97"/>
<polygon fill="midnightblue" stroke="midnightblue" points="649.964,-93.2179 658.207,-86.5613 647.612,-86.6249 649.964,-93.2179"/>
</g>
<!-- Node15&#45;&gt;Node2 -->
<g id="edge54" class="edge"><title>Node15&#45;&gt;Node2</title>
<path fill="none" stroke="midnightblue" d="M293.756,-260.775C289.418,-219.392 284.762,-113.682 341,-58 369.906,-29.3799 489.311,-17.3489 548.882,-13.0509"/>
<polygon fill="midnightblue" stroke="midnightblue" points="549.196,-16.5376 558.932,-12.3584 548.715,-9.55415 549.196,-16.5376"/>
</g>
<!-- Node15&#45;&gt;Node6 -->
<g id="edge56" class="edge"><title>Node15&#45;&gt;Node6</title>
<path fill="none" stroke="midnightblue" d="M279.973,-260.922C271.455,-251.845 260.976,-240.679 252.277,-231.41"/>
<polygon fill="midnightblue" stroke="midnightblue" points="254.58,-228.749 245.184,-223.852 249.475,-233.539 254.58,-228.749"/>
</g>
<!-- Node16&#45;&gt;Node2 -->
<g id="edge62" class="edge"><title>Node16&#45;&gt;Node2</title>
<path fill="none" stroke="midnightblue" d="M998.165,-202.489C1010.22,-185.605 1029.63,-152.102 1013,-130 978.234,-83.8078 938.723,-121.742 888,-94 866.724,-82.3638 868.853,-68.5122 847,-58 806.846,-38.6842 679.13,-21.9758 617.254,-14.7757"/>
<polygon fill="midnightblue" stroke="midnightblue" points="617.539,-11.2856 607.206,-13.6229 616.741,-18.24 617.539,-11.2856"/>
</g>
<!-- Node16&#45;&gt;Node11 -->
<g id="edge80" class="edge"><title>Node16&#45;&gt;Node11</title>
<path fill="none" stroke="midnightblue" d="M929.814,-207.634C865.529,-200.888 768.854,-187.512 739,-166 715.413,-149.004 701.615,-117.275 694.688,-96.3946"/>
<polygon fill="midnightblue" stroke="midnightblue" points="697.961,-95.1298 691.676,-86.5999 691.27,-97.187 697.961,-95.1298"/>
</g>
<!-- Node17 -->
<g id="node49" class="node"><title>Node17</title>
<a xlink:href="../../d0/d1d/if__xmlserializableobject_8h.html" target="_top" xlink:title="librepcbcommon/fileio\l/if_xmlserializableobject.h">
<polygon fill="white" stroke="black" points="747.5,-131 747.5,-165 876.5,-165 876.5,-131 747.5,-131"/>
<text text-anchor="start" x="755.5" y="-152" font-family="Helvetica,sans-Serif" font-size="10.00">librepcbcommon/fileio</text>
<text text-anchor="middle" x="812" y="-139" font-family="Helvetica,sans-Serif" font-size="10.00">/if_xmlserializableobject.h</text>
</a>
</g>
<!-- Node16&#45;&gt;Node17 -->
<g id="edge64" class="edge"><title>Node16&#45;&gt;Node17</title>
<path fill="none" stroke="midnightblue" d="M961.005,-202.412C936.026,-193.291 899.244,-179.859 868.475,-168.623"/>
<polygon fill="midnightblue" stroke="midnightblue" points="869.313,-165.203 858.719,-165.06 866.912,-171.778 869.313,-165.203"/>
</g>
<!-- Node18 -->
<g id="node52" class="node"><title>Node18</title>
<a xlink:href="../../da/d81/if__attributeprovider_8h.html" target="_top" xlink:title="librepcbcommon/if_attributeprovider.h">
<polygon fill="white" stroke="black" points="896.5,-65.5 896.5,-86.5 1075.5,-86.5 1075.5,-65.5 896.5,-65.5"/>
<text text-anchor="middle" x="986" y="-73.5" font-family="Helvetica,sans-Serif" font-size="10.00">librepcbcommon/if_attributeprovider.h</text>
</a>
</g>
<!-- Node16&#45;&gt;Node18 -->
<g id="edge68" class="edge"><title>Node16&#45;&gt;Node18</title>
<path fill="none" stroke="midnightblue" d="M1010.01,-202.367C1022.9,-194.293 1038.6,-181.875 1046,-166 1052.76,-151.499 1052.51,-144.616 1046,-130 1039.14,-114.606 1025.49,-101.759 1012.94,-92.4629"/>
<polygon fill="midnightblue" stroke="midnightblue" points="1014.73,-89.4449 1004.52,-86.6069 1010.73,-95.1911 1014.73,-89.4449"/>
</g>
<!-- Node19 -->
<g id="node55" class="node"><title>Node19</title>
<a xlink:href="../../d4/d45/if__schematiclayerprovider_8h.html" target="_top" xlink:title="librepcbcommon/if_schematiclayerprovider.h">
<polygon fill="white" stroke="black" points="1093,-65.5 1093,-86.5 1303,-86.5 1303,-65.5 1093,-65.5"/>
<text text-anchor="middle" x="1198" y="-73.5" font-family="Helvetica,sans-Serif" font-size="10.00">librepcbcommon/if_schematiclayerprovider.h</text>
</a>
</g>
<!-- Node16&#45;&gt;Node19 -->
<g id="edge72" class="edge"><title>Node16&#45;&gt;Node19</title>
<path fill="none" stroke="midnightblue" d="M1006.32,-202.389C1020.92,-192.882 1042.91,-178.544 1062,-166 1101.11,-140.293 1146.42,-110.257 1173.62,-92.2026"/>
<polygon fill="midnightblue" stroke="midnightblue" points="1175.71,-95.0106 1182.11,-86.5628 1171.84,-89.1793 1175.71,-95.0106"/>
</g>
<!-- Node20 -->
<g id="node58" class="node"><title>Node20</title>
<a xlink:href="../../d4/dba/if__boardlayerprovider_8h.html" target="_top" xlink:title="librepcbcommon/if_boardlayerprovider.h">
<polygon fill="white" stroke="black" points="1208.5,-137.5 1208.5,-158.5 1397.5,-158.5 1397.5,-137.5 1208.5,-137.5"/>
<text text-anchor="middle" x="1303" y="-145.5" font-family="Helvetica,sans-Serif" font-size="10.00">librepcbcommon/if_boardlayerprovider.h</text>
</a>
</g>
<!-- Node16&#45;&gt;Node20 -->
<g id="edge76" class="edge"><title>Node16&#45;&gt;Node20</title>
<path fill="none" stroke="midnightblue" d="M1040.64,-202.484C1095.76,-191.038 1183.86,-172.742 1242.56,-160.552"/>
<polygon fill="midnightblue" stroke="midnightblue" points="1243.36,-163.961 1252.44,-158.501 1241.93,-157.107 1243.36,-163.961"/>
</g>
<!-- Node21 -->
<g id="node62" class="node"><title>Node21</title>
<a xlink:href="../../d5/db9/filelock_8h.html" target="_top" xlink:title="librepcbcommon/fileio\l/filelock.h">
<polygon fill="white" stroke="black" points="893.5,-131 893.5,-165 1004.5,-165 1004.5,-131 893.5,-131"/>
<text text-anchor="start" x="901.5" y="-152" font-family="Helvetica,sans-Serif" font-size="10.00">librepcbcommon/fileio</text>
<text text-anchor="middle" x="949" y="-139" font-family="Helvetica,sans-Serif" font-size="10.00">/filelock.h</text>
</a>
</g>
<!-- Node16&#45;&gt;Node21 -->
<g id="edge82" class="edge"><title>Node16&#45;&gt;Node21</title>
<path fill="none" stroke="midnightblue" d="M983.23,-202.267C978.354,-194.537 971.56,-183.766 965.31,-173.857"/>
<polygon fill="midnightblue" stroke="midnightblue" points="968.088,-171.701 959.792,-165.11 962.167,-175.435 968.088,-171.701"/>
</g>
<!-- Node17&#45;&gt;Node11 -->
<g id="edge66" class="edge"><title>Node17&#45;&gt;Node11</title>
<path fill="none" stroke="midnightblue" d="M782.851,-130.937C762.612,-119.09 735.84,-103.419 716.071,-91.8463"/>
<polygon fill="midnightblue" stroke="midnightblue" points="717.657,-88.7193 707.259,-86.688 714.121,-94.7604 717.657,-88.7193"/>
</g>
<!-- Node18&#45;&gt;Node2 -->
<g id="edge70" class="edge"><title>Node18&#45;&gt;Node2</title>
<path fill="none" stroke="midnightblue" d="M926.933,-65.4938C912.565,-62.9889 897.237,-60.3591 883,-58 786.745,-42.0506 672.871,-24.598 617.159,-16.1514"/>
<polygon fill="midnightblue" stroke="midnightblue" points="617.544,-12.6699 607.133,-14.6333 616.496,-19.591 617.544,-12.6699"/>
</g>
<!-- Node19&#45;&gt;Node2 -->
<g id="edge74" class="edge"><title>Node19&#45;&gt;Node2</title>
<path fill="none" stroke="midnightblue" d="M1135.98,-65.4793C1119.14,-62.8227 1100.9,-60.1246 1084,-58 908.967,-35.9937 698.34,-19.4608 617.179,-13.459"/>
<polygon fill="midnightblue" stroke="midnightblue" points="617.275,-9.95664 607.045,-12.7147 616.762,-16.9378 617.275,-9.95664"/>
</g>
<!-- Node20&#45;&gt;Node2 -->
<g id="edge78" class="edge"><title>Node20&#45;&gt;Node2</title>
<path fill="none" stroke="midnightblue" d="M1308.56,-137.478C1317.56,-118.798 1332.41,-79.765 1312,-58 1287.96,-32.358 758.708,-15.8767 617.414,-11.923"/>
<polygon fill="midnightblue" stroke="midnightblue" points="617.27,-8.41779 607.177,-11.6396 617.076,-15.4151 617.27,-8.41779"/>
</g>
<!-- Node21&#45;&gt;Node2 -->
<g id="edge84" class="edge"><title>Node21&#45;&gt;Node2</title>
<path fill="none" stroke="midnightblue" d="M915.944,-130.865C897.523,-120.863 874.448,-107.57 855,-94 834.56,-79.7373 834.446,-68.8352 812,-58 747.743,-26.982 663.742,-16.4009 617.42,-12.8154"/>
<polygon fill="midnightblue" stroke="midnightblue" points="617.531,-9.31456 607.308,-12.0985 617.036,-16.297 617.531,-9.31456"/>
</g>
<!-- Node21&#45;&gt;Node11 -->
<g id="edge90" class="edge"><title>Node21&#45;&gt;Node11</title>
<path fill="none" stroke="midnightblue" d="M893.183,-132.181C890.418,-131.435 887.679,-130.705 885,-130 819.948,-112.892 802.337,-113.628 738,-94 733.953,-92.7653 729.752,-91.3823 725.589,-89.9462"/>
<polygon fill="midnightblue" stroke="midnightblue" points="726.625,-86.6001 716.031,-86.5434 724.277,-93.1946 726.625,-86.6001"/>
</g>
<!-- Node22 -->
<g id="node65" class="node"><title>Node22</title>
<a xlink:href="../../dd/dec/filepath_8h.html" target="_top" xlink:title="filepath.h">
<polygon fill="white" stroke="black" points="747,-65.5 747,-86.5 803,-86.5 803,-65.5 747,-65.5"/>
<text text-anchor="middle" x="775" y="-73.5" font-family="Helvetica,sans-Serif" font-size="10.00">filepath.h</text>
</a>
</g>
<!-- Node21&#45;&gt;Node22 -->
<g id="edge86" class="edge"><title>Node21&#45;&gt;Node22</title>
<path fill="none" stroke="midnightblue" d="M906.719,-130.911C880.782,-120.376 846.918,-106.53 817,-94 814.325,-92.8796 811.557,-91.712 808.777,-90.5336"/>
<polygon fill="midnightblue" stroke="midnightblue" points="809.972,-87.2385 799.401,-86.5384 807.229,-93.6782 809.972,-87.2385"/>
</g>
<!-- Node22&#45;&gt;Node2 -->
<g id="edge88" class="edge"><title>Node22&#45;&gt;Node2</title>
<path fill="none" stroke="midnightblue" d="M754.515,-65.3202C749.21,-62.7529 743.454,-60.1378 738,-58 697.132,-41.9794 648.47,-28.0206 616.716,-19.5662"/>
<polygon fill="midnightblue" stroke="midnightblue" points="617.593,-16.1779 607.032,-17.019 615.813,-22.9477 617.593,-16.1779"/>
</g>
</g>
</svg>
