<?xml version="1.0" encoding="UTF-8" standalone="no"?>
<!DOCTYPE svg PUBLIC "-//W3C//DTD SVG 1.1//EN"
 "http://www.w3.org/Graphics/SVG/1.1/DTD/svg11.dtd">
<!-- Generated by graphviz version 2.26.3 (20100126.1600)
 -->
<!-- Title: execCmd Pages: 1 -->
<svg width="454pt" height="122pt"
 viewBox="0.00 0.00 454.00 122.00" xmlns="http://www.w3.org/2000/svg" xmlns:xlink="http://www.w3.org/1999/xlink">
<g id="graph1" class="graph" transform="scale(1 1) rotate(0) translate(4 118)">
<title>execCmd</title>
<polygon fill="white" stroke="white" points="-4,5 -4,-118 451,-118 451,5 -4,5"/>
<!-- Node1 -->
<g id="node1" class="node"><title>Node1</title>
<polygon fill="#bfbfbf" stroke="black" points="0.5,-46.5 0.5,-67.5 59.5,-67.5 59.5,-46.5 0.5,-46.5"/>
<text text-anchor="middle" x="30" y="-54.5" font-family="Helvetica,sans-Serif" font-size="10.00">execCmd</text>
</g>
<!-- Node2 -->
<g id="node3" class="node"><title>Node2</title>
<a xlink:href="../../d4/d90/class_undo_stack.html#acafc28cb3929a83228bf6f6d738111cd" target="_top" xlink:title="Begin building a new command that consists of multiple commands step by step (over a &quot;long&quot; time) ...">
<polygon fill="white" stroke="black" points="106,-92.5 106,-113.5 246,-113.5 246,-92.5 106,-92.5"/>
<text text-anchor="middle" x="176" y="-100.5" font-family="Helvetica,sans-Serif" font-size="10.00">UndoStack::beginCommand</text>
</a>
</g>
<!-- Node1&#45;&gt;Node2 -->
<g id="edge2" class="edge"><title>Node1&#45;&gt;Node2</title>
<path fill="none" stroke="midnightblue" d="M54.4839,-67.5262C66.8013,-72.595 82.0438,-78.5275 96,-83 103.657,-85.4538 111.805,-87.7936 119.86,-89.9513"/>
<polygon fill="midnightblue" stroke="midnightblue" points="119.04,-93.3545 129.599,-92.4882 120.805,-86.5805 119.04,-93.3545"/>
</g>
<!-- Node3 -->
<g id="node5" class="node"><title>Node3</title>
<a xlink:href="../../de/d50/classproject_1_1_s_i___symbol.html#a4d55d03995b846c5840a2adf64399e94" target="_top" xlink:title="project::SI_Symbol\l::getName">
<polygon fill="white" stroke="black" points="126,-40 126,-74 226,-74 226,-40 126,-40"/>
<text text-anchor="start" x="134" y="-61" font-family="Helvetica,sans-Serif" font-size="10.00">project::SI_Symbol</text>
<text text-anchor="middle" x="176" y="-48" font-family="Helvetica,sans-Serif" font-size="10.00">::getName</text>
</a>
</g>
<!-- Node1&#45;&gt;Node3 -->
<g id="edge4" class="edge"><title>Node1&#45;&gt;Node3</title>
<path fill="none" stroke="midnightblue" d="M59.5453,-57C75.7231,-57 96.3776,-57 115.787,-57"/>
<polygon fill="midnightblue" stroke="midnightblue" points="115.793,-60.5001 125.793,-57 115.793,-53.5001 115.793,-60.5001"/>
</g>
<!-- Node6 -->
<g id="node11" class="node"><title>Node6</title>
<a xlink:href="../../d4/d90/class_undo_stack.html#a9a588d4c258dd39ab422ac23dab43ad8" target="_top" xlink:title="Append a new command to the currently active command. ">
<polygon fill="white" stroke="black" points="96.5,-0.5 96.5,-21.5 255.5,-21.5 255.5,-0.5 96.5,-0.5"/>
<text text-anchor="middle" x="176" y="-8.5" font-family="Helvetica,sans-Serif" font-size="10.00">UndoStack::appendToCommand</text>
</a>
</g>
<!-- Node1&#45;&gt;Node6 -->
<g id="edge10" class="edge"><title>Node1&#45;&gt;Node6</title>
<path fill="none" stroke="midnightblue" d="M54.4839,-46.4738C66.8013,-41.405 82.0438,-35.4725 96,-31 103.657,-28.5462 111.805,-26.2064 119.86,-24.0487"/>
<polygon fill="midnightblue" stroke="midnightblue" points="120.805,-27.4195 129.599,-21.5118 119.04,-20.6455 120.805,-27.4195"/>
</g>
<!-- Node4 -->
<g id="node7" class="node"><title>Node4</title>
<a xlink:href="../../de/d67/classproject_1_1_gen_comp_instance.html#ab0c96f485564e41206ce9a4ce42ba389" target="_top" xlink:title="project::GenCompInstance\l::getName">
<polygon fill="white" stroke="black" points="302,-66 302,-100 436,-100 436,-66 302,-66"/>
<text text-anchor="start" x="310" y="-87" font-family="Helvetica,sans-Serif" font-size="10.00">project::GenCompInstance</text>
<text text-anchor="middle" x="369" y="-74" font-family="Helvetica,sans-Serif" font-size="10.00">::getName</text>
</a>
</g>
<!-- Node3&#45;&gt;Node4 -->
<g id="edge6" class="edge"><title>Node3&#45;&gt;Node4</title>
<path fill="none" stroke="midnightblue" d="M226.205,-63.7633C246.254,-66.4642 269.797,-69.6359 291.92,-72.6161"/>
<polygon fill="midnightblue" stroke="midnightblue" points="291.589,-76.1031 301.967,-73.9696 292.524,-69.1658 291.589,-76.1031"/>
</g>
<!-- Node5 -->
<g id="node9" class="node"><title>Node5</title>
<a xlink:href="../../d5/d1e/classlibrary_1_1_gen_comp_symb_var_item.html#a9eeab11e7c84e646f29fac8b709988dc" target="_top" xlink:title="library::GenCompSymbVarItem\l::getSuffix">
<polygon fill="white" stroke="black" points="292.5,-14 292.5,-48 445.5,-48 445.5,-14 292.5,-14"/>
<text text-anchor="start" x="300.5" y="-35" font-family="Helvetica,sans-Serif" font-size="10.00">library::GenCompSymbVarItem</text>
<text text-anchor="middle" x="369" y="-22" font-family="Helvetica,sans-Serif" font-size="10.00">::getSuffix</text>
</a>
</g>
<!-- Node3&#45;&gt;Node5 -->
<g id="edge8" class="edge"><title>Node3&#45;&gt;Node5</title>
<path fill="none" stroke="midnightblue" d="M226.205,-50.2367C243.42,-47.9176 263.211,-45.2514 282.467,-42.6573"/>
<polygon fill="midnightblue" stroke="midnightblue" points="283.028,-46.1134 292.471,-41.3096 282.093,-39.1761 283.028,-46.1134"/>
</g>
</g>
</svg>
