<?xml version="1.0" encoding="UTF-8" standalone="no"?>
<!DOCTYPE svg PUBLIC "-//W3C//DTD SVG 1.1//EN"
 "http://www.w3.org/Graphics/SVG/1.1/DTD/svg11.dtd">
<!-- Generated by graphviz version 2.26.3 (20100126.1600)
 -->
<!-- Title: redo Pages: 1 -->
<svg width="246pt" height="166pt"
 viewBox="0.00 0.00 246.00 166.02" xmlns="http://www.w3.org/2000/svg" xmlns:xlink="http://www.w3.org/1999/xlink">
<g id="graph1" class="graph" transform="scale(1 1) rotate(0) translate(4 162.025)">
<title>redo</title>
<polygon fill="white" stroke="white" points="-4,5 -4,-162.025 243,-162.025 243,5 -4,5"/>
<!-- Node1 -->
<g id="node1" class="node"><title>Node1</title>
<polygon fill="#bfbfbf" stroke="black" points="0.5,-78.5 0.5,-99.5 35.5,-99.5 35.5,-78.5 0.5,-78.5"/>
<text text-anchor="middle" x="18" y="-86.5" font-family="Helvetica,sans-Serif" font-size="10.00">redo</text>
</g>
<!-- Node2 -->
<g id="node3" class="node"><title>Node2</title>
<a xlink:href="../../d4/d90/class_undo_stack.html#a4911bb94f4b16c98ef066f4b66490e37" target="_top" xlink:title="Check if redo is possible. ">
<polygon fill="white" stroke="black" points="182,-127.5 182,-148.5 238,-148.5 238,-127.5 182,-127.5"/>
<text text-anchor="middle" x="210" y="-135.5" font-family="Helvetica,sans-Serif" font-size="10.00">canRedo</text>
</a>
</g>
<!-- Node1&#45;&gt;Node2 -->
<g id="edge2" class="edge"><title>Node1&#45;&gt;Node2</title>
<path fill="none" stroke="midnightblue" d="M23.9234,-99.9762C32.3944,-114.369 49.4685,-138.965 72,-149 103.718,-163.126 143.585,-157.806 172.303,-150.489"/>
<polygon fill="midnightblue" stroke="midnightblue" points="173.242,-153.86 181.964,-147.846 171.395,-147.108 173.242,-153.86"/>
</g>
<!-- Node3 -->
<g id="node5" class="node"><title>Node3</title>
<a xlink:href="../../d4/d90/class_undo_stack.html#ac45199a5fa405b01e4a81bcd46ca47d2" target="_top" xlink:title="Get the text for the undo action. ">
<polygon fill="white" stroke="black" points="72.5,-78.5 72.5,-99.5 145.5,-99.5 145.5,-78.5 72.5,-78.5"/>
<text text-anchor="middle" x="109" y="-86.5" font-family="Helvetica,sans-Serif" font-size="10.00">getUndoText</text>
</a>
</g>
<!-- Node1&#45;&gt;Node3 -->
<g id="edge4" class="edge"><title>Node1&#45;&gt;Node3</title>
<path fill="none" stroke="midnightblue" d="M35.5457,-89C43.2073,-89 52.5954,-89 62.0664,-89"/>
<polygon fill="midnightblue" stroke="midnightblue" points="62.2983,-92.5001 72.2983,-89 62.2982,-85.5001 62.2983,-92.5001"/>
</g>
<!-- Node4 -->
<g id="node7" class="node"><title>Node4</title>
<a xlink:href="../../d4/d90/class_undo_stack.html#a0838f37a375891734d27a88e34437d1c" target="_top" xlink:title="Check if undo is possible. ">
<polygon fill="white" stroke="black" points="182,-68.5 182,-89.5 238,-89.5 238,-68.5 182,-68.5"/>
<text text-anchor="middle" x="210" y="-76.5" font-family="Helvetica,sans-Serif" font-size="10.00">canUndo</text>
</a>
</g>
<!-- Node1&#45;&gt;Node4 -->
<g id="edge12" class="edge"><title>Node1&#45;&gt;Node4</title>
<path fill="none" stroke="midnightblue" d="M35.5531,-80.6932C45.9041,-76.2576 59.4041,-71.2576 72,-69 105.336,-63.025 143.81,-66.6644 171.652,-71.1405"/>
<polygon fill="midnightblue" stroke="midnightblue" points="171.32,-74.6348 181.769,-72.8786 172.506,-67.7359 171.32,-74.6348"/>
</g>
<!-- Node5 -->
<g id="node9" class="node"><title>Node5</title>
<a xlink:href="../../d4/d90/class_undo_stack.html#a9482dad85e92eb354629b5c47e8b57f5" target="_top" xlink:title="Get the text for the redo action. ">
<polygon fill="white" stroke="black" points="72.5,-118.5 72.5,-139.5 145.5,-139.5 145.5,-118.5 72.5,-118.5"/>
<text text-anchor="middle" x="109" y="-126.5" font-family="Helvetica,sans-Serif" font-size="10.00">getRedoText</text>
</a>
</g>
<!-- Node1&#45;&gt;Node5 -->
<g id="edge8" class="edge"><title>Node1&#45;&gt;Node5</title>
<path fill="none" stroke="midnightblue" d="M35.5457,-96.7124C46.8501,-101.681 61.913,-108.302 75.4552,-114.255"/>
<polygon fill="midnightblue" stroke="midnightblue" points="74.4087,-117.618 84.9718,-118.438 77.2256,-111.21 74.4087,-117.618"/>
</g>
<!-- Node6 -->
<g id="node13" class="node"><title>Node6</title>
<a xlink:href="../../d4/d90/class_undo_stack.html#ac94ae4017f4a9133369c65c0fdb6f4c7" target="_top" xlink:title="Check if the stack is in a clean state (the state of the last setClean()) ">
<polygon fill="white" stroke="black" points="84,-0.5 84,-21.5 134,-21.5 134,-0.5 84,-0.5"/>
<text text-anchor="middle" x="109" y="-8.5" font-family="Helvetica,sans-Serif" font-size="10.00">isClean</text>
</a>
</g>
<!-- Node1&#45;&gt;Node6 -->
<g id="edge14" class="edge"><title>Node1&#45;&gt;Node6</title>
<path fill="none" stroke="midnightblue" d="M27.8301,-78.2569C38.2745,-67.1128 55.5218,-49.4657 72,-36 75.6093,-33.0505 79.5642,-30.1075 83.5032,-27.3305"/>
<polygon fill="midnightblue" stroke="midnightblue" points="85.66,-30.0965 91.9607,-21.5787 81.7235,-24.3082 85.66,-30.0965"/>
</g>
<!-- Node3&#45;&gt;Node4 -->
<g id="edge6" class="edge"><title>Node3&#45;&gt;Node4</title>
<path fill="none" stroke="midnightblue" d="M145.749,-85.3615C154.25,-84.5198 163.314,-83.6224 171.872,-82.775"/>
<polygon fill="midnightblue" stroke="midnightblue" points="172.383,-86.2417 181.99,-81.7733 171.693,-79.2757 172.383,-86.2417"/>
</g>
<!-- Node5&#45;&gt;Node2 -->
<g id="edge10" class="edge"><title>Node5&#45;&gt;Node2</title>
<path fill="none" stroke="midnightblue" d="M145.749,-132.275C154.25,-133.032 163.314,-133.84 171.872,-134.602"/>
<polygon fill="midnightblue" stroke="midnightblue" points="171.718,-138.103 181.99,-135.504 172.34,-131.13 171.718,-138.103"/>
</g>
</g>
</svg>
