<?xml version="1.0" encoding="UTF-8" standalone="no"?>
<!DOCTYPE svg PUBLIC "-//W3C//DTD SVG 1.1//EN"
 "http://www.w3.org/Graphics/SVG/1.1/DTD/svg11.dtd">
<!-- Generated by graphviz version 2.26.3 (20100126.1600)
 -->
<!-- Title: getRedoText Pages: 1 -->
<svg width="156pt" height="70pt"
 viewBox="0.00 0.00 156.00 70.00" xmlns="http://www.w3.org/2000/svg" xmlns:xlink="http://www.w3.org/1999/xlink">
<g id="graph1" class="graph" transform="scale(1 1) rotate(0) translate(4 66)">
<title>getRedoText</title>
<polygon fill="white" stroke="white" points="-4,5 -4,-66 153,-66 153,5 -4,5"/>
<!-- Node1 -->
<g id="node1" class="node"><title>Node1</title>
<polygon fill="#bfbfbf" stroke="black" points="0.5,-20.5 0.5,-41.5 73.5,-41.5 73.5,-20.5 0.5,-20.5"/>
<text text-anchor="middle" x="37" y="-28.5" font-family="Helvetica,sans-Serif" font-size="10.00">getRedoText</text>
</g>
<!-- Node2 -->
<g id="node3" class="node"><title>Node2</title>
<a xlink:href="../../d4/d90/class_undo_stack.html#a0e1e7804a53f6d62efc72c9bdbec8571" target="_top" xlink:title="Undo the last command. ">
<polygon fill="white" stroke="black" points="110,-40.5 110,-61.5 148,-61.5 148,-40.5 110,-40.5"/>
<text text-anchor="middle" x="129" y="-48.5" font-family="Helvetica,sans-Serif" font-size="10.00">undo</text>
</a>
</g>
<!-- Node1&#45;&gt;Node2 -->
<g id="edge2" class="edge"><title>Node1&#45;&gt;Node2</title>
<path fill="none" stroke="midnightblue" d="M83.6578,-41.143C92.9569,-43.1645 102.22,-45.1783 109.927,-46.8537"/>
<polygon fill="midnightblue" stroke="midnightblue" points="84.1405,-37.6663 73.6252,-38.962 82.6534,-44.5065 84.1405,-37.6663"/>
</g>
<!-- Node3 -->
<g id="node5" class="node"><title>Node3</title>
<a xlink:href="../../d4/d90/class_undo_stack.html#a93c48d6ed036e1a381be53ac67643284" target="_top" xlink:title="Redo the last undoed command. ">
<polygon fill="white" stroke="black" points="111.5,-0.5 111.5,-21.5 146.5,-21.5 146.5,-0.5 111.5,-0.5"/>
<text text-anchor="middle" x="129" y="-8.5" font-family="Helvetica,sans-Serif" font-size="10.00">redo</text>
</a>
</g>
<!-- Node1&#45;&gt;Node3 -->
<g id="edge4" class="edge"><title>Node1&#45;&gt;Node3</title>
<path fill="none" stroke="midnightblue" d="M83.5238,-20.8861C93.4806,-18.7216 103.405,-16.5642 111.43,-14.8196"/>
<polygon fill="midnightblue" stroke="midnightblue" points="82.6534,-17.4935 73.6252,-23.038 84.1405,-24.3337 82.6534,-17.4935"/>
</g>
</g>
</svg>
