<?xml version="1.0" encoding="UTF-8" standalone="no"?>
<!DOCTYPE svg PUBLIC "-//W3C//DTD SVG 1.1//EN"
 "http://www.w3.org/Graphics/SVG/1.1/DTD/svg11.dtd">
<!-- Generated by graphviz version 2.26.3 (20100126.1600)
 -->
<!-- Title: /home/travis/build/LibrePCB/LibrePCB/libs/librepcbcommon/systeminfo.cpp Pages: 1 -->
<svg width="209pt" height="172pt"
 viewBox="0.00 0.00 209.00 172.00" xmlns="http://www.w3.org/2000/svg" xmlns:xlink="http://www.w3.org/1999/xlink">
<g id="graph1" class="graph" transform="scale(1 1) rotate(0) translate(4 168)">
<title>/home/travis/build/LibrePCB/LibrePCB/libs/librepcbcommon/systeminfo.cpp</title>
<polygon fill="white" stroke="white" points="-4,5 -4,-168 206,-168 206,5 -4,5"/>
<!-- Node1 -->
<g id="node1" class="node"><title>Node1</title>
<polygon fill="#bfbfbf" stroke="black" points="-0.5,-116.5 -0.5,-163.5 160.5,-163.5 160.5,-116.5 -0.5,-116.5"/>
<text text-anchor="start" x="7.5" y="-150.5" font-family="Helvetica,sans-Serif" font-size="10.00">/home/travis/build</text>
<text text-anchor="start" x="7.5" y="-137.5" font-family="Helvetica,sans-Serif" font-size="10.00">/LibrePCB/LibrePCB/libs</text>
<text text-anchor="middle" x="80" y="-124.5" font-family="Helvetica,sans-Serif" font-size="10.00">/librepcbcommon/systeminfo.cpp</text>
</g>
<!-- Node2 -->
<g id="node3" class="node"><title>Node2</title>
<polygon fill="white" stroke="#bfbfbf" points="69,-0.5 69,-21.5 117,-21.5 117,-0.5 69,-0.5"/>
<text text-anchor="middle" x="93" y="-8.5" font-family="Helvetica,sans-Serif" font-size="10.00">QtCore</text>
</g>
<!-- Node1&#45;&gt;Node2 -->
<g id="edge2" class="edge"><title>Node1&#45;&gt;Node2</title>
<path fill="none" stroke="midnightblue" d="M56.3358,-116.146C43.1803,-99.8832 31.0988,-77.7906 40,-58 45.5176,-45.7325 55.995,-35.3682 66.1869,-27.52"/>
<polygon fill="midnightblue" stroke="midnightblue" points="68.4644,-30.1944 74.5659,-21.5328 64.3947,-24.499 68.4644,-30.1944"/>
</g>
<!-- Node3 -->
<g id="node5" class="node"><title>Node3</title>
<polygon fill="white" stroke="#bfbfbf" points="49,-58.5 49,-79.5 111,-79.5 111,-58.5 49,-58.5"/>
<text text-anchor="middle" x="80" y="-66.5" font-family="Helvetica,sans-Serif" font-size="10.00">QHostInfo</text>
</g>
<!-- Node1&#45;&gt;Node3 -->
<g id="edge4" class="edge"><title>Node1&#45;&gt;Node3</title>
<path fill="none" stroke="midnightblue" d="M80,-116.358C80,-107.719 80,-98.0215 80,-89.6624"/>
<polygon fill="midnightblue" stroke="midnightblue" points="83.5001,-89.6462 80,-79.6462 76.5001,-89.6463 83.5001,-89.6462"/>
</g>
<!-- Node4 -->
<g id="node7" class="node"><title>Node4</title>
<a xlink:href="../../d6/d3c/systeminfo_8h.html" target="_top" xlink:title="systeminfo.h">
<polygon fill="white" stroke="black" points="128.5,-58.5 128.5,-79.5 201.5,-79.5 201.5,-58.5 128.5,-58.5"/>
<text text-anchor="middle" x="165" y="-66.5" font-family="Helvetica,sans-Serif" font-size="10.00">systeminfo.h</text>
</a>
</g>
<!-- Node1&#45;&gt;Node4 -->
<g id="edge6" class="edge"><title>Node1&#45;&gt;Node4</title>
<path fill="none" stroke="midnightblue" d="M108.304,-116.358C120.157,-106.457 133.675,-95.166 144.537,-86.0926"/>
<polygon fill="midnightblue" stroke="midnightblue" points="146.823,-88.7432 152.255,-79.6462 142.336,-83.3708 146.823,-88.7432"/>
</g>
<!-- Node4&#45;&gt;Node2 -->
<g id="edge8" class="edge"><title>Node4&#45;&gt;Node2</title>
<path fill="none" stroke="midnightblue" d="M151.794,-58.3619C141.239,-49.859 126.242,-37.7785 114.037,-27.9466"/>
<polygon fill="midnightblue" stroke="midnightblue" points="116.105,-25.1183 106.122,-21.5707 111.714,-30.5696 116.105,-25.1183"/>
</g>
</g>
</svg>
