<?xml version="1.0" encoding="UTF-8" standalone="no"?>
<!DOCTYPE svg PUBLIC "-//W3C//DTD SVG 1.1//EN"
 "http://www.w3.org/Graphics/SVG/1.1/DTD/svg11.dtd">
<!-- Generated by graphviz version 2.26.3 (20100126.1600)
 -->
<!-- Title: /home/travis/build/LibrePCB/LibrePCB/libs/librepcbprojecteditor/schematiceditor/schematicpagesdock.h Pages: 1 -->
<svg width="200pt" height="128pt"
 viewBox="0.00 0.00 200.00 128.00" xmlns="http://www.w3.org/2000/svg" xmlns:xlink="http://www.w3.org/1999/xlink">
<g id="graph1" class="graph" transform="scale(1 1) rotate(0) translate(4 124)">
<title>/home/travis/build/LibrePCB/LibrePCB/libs/librepcbprojecteditor/schematiceditor/schematicpagesdock.h</title>
<polygon fill="white" stroke="white" points="-4,5 -4,-124 197,-124 197,5 -4,5"/>
<!-- Node1 -->
<g id="node1" class="node"><title>Node1</title>
<polygon fill="#bfbfbf" stroke="black" points="0,-59 0,-119 192,-119 192,-59 0,-59"/>
<text text-anchor="start" x="8" y="-106" font-family="Helvetica,sans-Serif" font-size="10.00">/home/travis/build</text>
<text text-anchor="start" x="8" y="-93" font-family="Helvetica,sans-Serif" font-size="10.00">/LibrePCB/LibrePCB/libs</text>
<text text-anchor="start" x="8" y="-80" font-family="Helvetica,sans-Serif" font-size="10.00">/librepcbprojecteditor</text>
<text text-anchor="middle" x="96" y="-67" font-family="Helvetica,sans-Serif" font-size="10.00">/schematiceditor/schematicpagesdock.h</text>
</g>
<!-- Node2 -->
<g id="node3" class="node"><title>Node2</title>
<polygon fill="white" stroke="#bfbfbf" points="36,-0.5 36,-21.5 84,-21.5 84,-0.5 36,-0.5"/>
<text text-anchor="middle" x="60" y="-8.5" font-family="Helvetica,sans-Serif" font-size="10.00">QtCore</text>
</g>
<!-- Node1&#45;&gt;Node2 -->
<g id="edge2" class="edge"><title>Node1&#45;&gt;Node2</title>
<path fill="none" stroke="midnightblue" d="M81.9784,-58.6198C77.7115,-49.3749 73.1307,-39.4498 69.2613,-31.0661"/>
<polygon fill="midnightblue" stroke="midnightblue" points="72.3316,-29.3663 64.9631,-21.7535 65.9759,-32.2998 72.3316,-29.3663"/>
</g>
<!-- Node3 -->
<g id="node5" class="node"><title>Node3</title>
<polygon fill="white" stroke="#bfbfbf" points="101.5,-0.5 101.5,-21.5 164.5,-21.5 164.5,-0.5 101.5,-0.5"/>
<text text-anchor="middle" x="133" y="-8.5" font-family="Helvetica,sans-Serif" font-size="10.00">QtWidgets</text>
</g>
<!-- Node1&#45;&gt;Node3 -->
<g id="edge4" class="edge"><title>Node1&#45;&gt;Node3</title>
<path fill="none" stroke="midnightblue" d="M110.411,-58.6198C114.845,-49.2734 119.608,-39.2316 123.612,-30.7902"/>
<polygon fill="midnightblue" stroke="midnightblue" points="126.775,-32.2885 127.899,-21.7535 120.451,-29.2884 126.775,-32.2885"/>
</g>
</g>
</svg>
