<?xml version="1.0" encoding="UTF-8" standalone="no"?>
<!DOCTYPE svg PUBLIC "-//W3C//DTD SVG 1.1//EN"
 "http://www.w3.org/Graphics/SVG/1.1/DTD/svg11.dtd">
<!-- Generated by graphviz version 2.26.3 (20100126.1600)
 -->
<!-- Title: updateCacheAndRepaint Pages: 1 -->
<svg width="666pt" height="958pt"
 viewBox="0.00 0.00 666.00 958.00" xmlns="http://www.w3.org/2000/svg" xmlns:xlink="http://www.w3.org/1999/xlink">
<g id="graph1" class="graph" transform="scale(1 1) rotate(0) translate(4 954)">
<title>updateCacheAndRepaint</title>
<polygon fill="white" stroke="white" points="-4,5 -4,-954 663,-954 663,5 -4,5"/>
<!-- Node1 -->
<g id="node1" class="node"><title>Node1</title>
<polygon fill="#bfbfbf" stroke="black" points="0.5,-412.5 0.5,-433.5 125.5,-433.5 125.5,-412.5 0.5,-412.5"/>
<text text-anchor="middle" x="63" y="-420.5" font-family="Helvetica,sans-Serif" font-size="10.00">updateCacheAndRepaint</text>
</g>
<!-- Node2 -->
<g id="node3" class="node"><title>Node2</title>
<a xlink:href="../../d9/db9/classlibrary_1_1_symbol.html#aa8dd7ebe32db86a2f2124e341482d48c" target="_top" xlink:title="library::Symbol::getPolygons">
<polygon fill="white" stroke="black" points="170,-928.5 170,-949.5 312,-949.5 312,-928.5 170,-928.5"/>
<text text-anchor="middle" x="241" y="-936.5" font-family="Helvetica,sans-Serif" font-size="10.00">library::Symbol::getPolygons</text>
</a>
</g>
<!-- Node1&#45;&gt;Node2 -->
<g id="edge2" class="edge"><title>Node1&#45;&gt;Node2</title>
<path fill="none" stroke="midnightblue" d="M63.699,-433.573C68.1711,-498.148 94.7539,-839.105 162,-914 165.31,-917.686 169.159,-920.833 173.342,-923.519"/>
<polygon fill="midnightblue" stroke="midnightblue" points="171.875,-926.705 182.332,-928.41 175.22,-920.556 171.875,-926.705"/>
</g>
<!-- Node3 -->
<g id="node5" class="node"><title>Node3</title>
<a xlink:href="../../d1/d7f/classlibrary_1_1_symbol_polygon.html#a0c155e27c8e6d8f1cd3a8443b7bad250" target="_top" xlink:title="library::SymbolPolygon\l::toQPainterPathPx">
<polygon fill="white" stroke="black" points="182.5,-706 182.5,-740 299.5,-740 299.5,-706 182.5,-706"/>
<text text-anchor="start" x="190.5" y="-727" font-family="Helvetica,sans-Serif" font-size="10.00">library::SymbolPolygon</text>
<text text-anchor="middle" x="241" y="-714" font-family="Helvetica,sans-Serif" font-size="10.00">::toQPainterPathPx</text>
</a>
</g>
<!-- Node1&#45;&gt;Node3 -->
<g id="edge4" class="edge"><title>Node1&#45;&gt;Node3</title>
<path fill="none" stroke="midnightblue" d="M65.8826,-433.872C75.3721,-468.305 108.143,-577.095 162,-652 175.017,-670.105 193.363,-686.947 209.099,-699.68"/>
<polygon fill="midnightblue" stroke="midnightblue" points="207.029,-702.505 217.049,-705.949 211.364,-697.008 207.029,-702.505"/>
</g>
<!-- Node4 -->
<g id="node7" class="node"><title>Node4</title>
<a xlink:href="../../d0/d69/class_point.html#a3fb0d1120536f2a889eac1e5e88b9ac5" target="_top" xlink:title="Get the point as a QPointF object in pixels (for QGraphics* objects) ">
<polygon fill="white" stroke="black" points="383.5,-850.5 383.5,-871.5 484.5,-871.5 484.5,-850.5 383.5,-850.5"/>
<text text-anchor="middle" x="434" y="-858.5" font-family="Helvetica,sans-Serif" font-size="10.00">Point::toPxQPointF</text>
</a>
</g>
<!-- Node1&#45;&gt;Node4 -->
<g id="edge56" class="edge"><title>Node1&#45;&gt;Node4</title>
<path fill="none" stroke="midnightblue" d="M63.2487,-433.759C64.8298,-478.199 76.4599,-649.763 162,-749 216.167,-811.841 311.123,-840.028 373.285,-852.238"/>
<polygon fill="midnightblue" stroke="midnightblue" points="372.875,-855.722 383.35,-854.131 374.169,-848.842 372.875,-855.722"/>
</g>
<!-- Node5 -->
<g id="node9" class="node"><title>Node5</title>
<a xlink:href="../../df/df0/class_length.html#abf9a817a583f3939aea7bffdeeb7b235" target="_top" xlink:title="Get the length in pixels (for QGraphics* objects) ">
<polygon fill="white" stroke="black" points="567,-869.5 567,-890.5 639,-890.5 639,-869.5 567,-869.5"/>
<text text-anchor="middle" x="603" y="-877.5" font-family="Helvetica,sans-Serif" font-size="10.00">Length::toPx</text>
</a>
</g>
<!-- Node1&#45;&gt;Node5 -->
<g id="edge24" class="edge"><title>Node1&#45;&gt;Node5</title>
<path fill="none" stroke="midnightblue" d="M64.4169,-433.676C72.031,-489.605 109.698,-748.481 162,-807 262.836,-919.823 465.903,-903.129 556.972,-888.763"/>
<polygon fill="midnightblue" stroke="midnightblue" points="557.688,-892.192 566.99,-887.12 556.555,-885.285 557.688,-892.192"/>
</g>
<!-- Node10 -->
<g id="node19" class="node"><title>Node10</title>
<a xlink:href="../../d2/d39/class_angle.html#a74e05120ac11f78df41f0a0304990f9f" target="_top" xlink:title="Map this Angle object to [&#45;180..+180[ degrees. ">
<polygon fill="white" stroke="black" points="548.5,-607.5 548.5,-628.5 657.5,-628.5 657.5,-607.5 548.5,-607.5"/>
<text text-anchor="middle" x="603" y="-615.5" font-family="Helvetica,sans-Serif" font-size="10.00">Angle::mapTo180deg</text>
</a>
</g>
<!-- Node1&#45;&gt;Node10 -->
<g id="edge48" class="edge"><title>Node1&#45;&gt;Node10</title>
<path fill="none" stroke="midnightblue" d="M64.509,-433.644C70.02,-468.01 92.5155,-576.252 162,-619 221.81,-655.796 249.805,-620.948 320,-619 336.019,-618.555 339.981,-617.445 356,-617 425.307,-615.076 442.668,-616.619 512,-617 520.403,-617.046 529.243,-617.116 537.975,-617.198"/>
<polygon fill="midnightblue" stroke="midnightblue" points="538.109,-620.7 548.143,-617.3 538.178,-613.7 538.109,-620.7"/>
</g>
<!-- Node12 -->
<g id="node23" class="node"><title>Node12</title>
<a xlink:href="../../d1/d7f/classlibrary_1_1_symbol_polygon.html#a69af915a70be9a59f27a36ef42fe7606" target="_top" xlink:title="library::SymbolPolygon\l::getWidth">
<polygon fill="white" stroke="black" points="182.5,-576 182.5,-610 299.5,-610 299.5,-576 182.5,-576"/>
<text text-anchor="start" x="190.5" y="-597" font-family="Helvetica,sans-Serif" font-size="10.00">library::SymbolPolygon</text>
<text text-anchor="middle" x="241" y="-584" font-family="Helvetica,sans-Serif" font-size="10.00">::getWidth</text>
</a>
</g>
<!-- Node1&#45;&gt;Node12 -->
<g id="edge22" class="edge"><title>Node1&#45;&gt;Node12</title>
<path fill="none" stroke="midnightblue" d="M67.4649,-433.816C79.0157,-460.478 112.478,-529.879 162,-567 165.444,-569.582 169.158,-571.915 173.031,-574.022"/>
<polygon fill="midnightblue" stroke="midnightblue" points="171.784,-577.308 182.307,-578.54 174.85,-571.015 171.784,-577.308"/>
</g>
<!-- Node13 -->
<g id="node26" class="node"><title>Node13</title>
<a xlink:href="../../d1/d7f/classlibrary_1_1_symbol_polygon.html#afb5593c9c44f491b400edfa695fea7dc" target="_top" xlink:title="library::SymbolPolygon\l::isGrabArea">
<polygon fill="white" stroke="black" points="182.5,-524 182.5,-558 299.5,-558 299.5,-524 182.5,-524"/>
<text text-anchor="start" x="190.5" y="-545" font-family="Helvetica,sans-Serif" font-size="10.00">library::SymbolPolygon</text>
<text text-anchor="middle" x="241" y="-532" font-family="Helvetica,sans-Serif" font-size="10.00">::isGrabArea</text>
</a>
</g>
<!-- Node1&#45;&gt;Node13 -->
<g id="edge26" class="edge"><title>Node1&#45;&gt;Node13</title>
<path fill="none" stroke="midnightblue" d="M71.6932,-433.672C87.6727,-452.636 123.612,-492.334 162,-515 165.468,-517.047 169.118,-518.957 172.869,-520.736"/>
<polygon fill="midnightblue" stroke="midnightblue" points="171.791,-524.084 182.355,-524.887 174.597,-517.672 171.791,-524.084"/>
</g>
<!-- Node14 -->
<g id="node28" class="node"><title>Node14</title>
<a xlink:href="../../d9/db9/classlibrary_1_1_symbol.html#af3e51c69f130dab1acd01d41105c4ea3" target="_top" xlink:title="library::Symbol::getTexts">
<polygon fill="white" stroke="black" points="178,-484.5 178,-505.5 304,-505.5 304,-484.5 178,-484.5"/>
<text text-anchor="middle" x="241" y="-492.5" font-family="Helvetica,sans-Serif" font-size="10.00">library::Symbol::getTexts</text>
</a>
</g>
<!-- Node1&#45;&gt;Node14 -->
<g id="edge28" class="edge"><title>Node1&#45;&gt;Node14</title>
<path fill="none" stroke="midnightblue" d="M80.2953,-433.697C99.6064,-445.252 132.086,-463.542 162,-475 168.302,-477.414 174.999,-479.623 181.725,-481.619"/>
<polygon fill="midnightblue" stroke="midnightblue" points="180.981,-485.046 191.556,-484.391 182.881,-478.309 180.981,-485.046"/>
</g>
<!-- Node15 -->
<g id="node30" class="node"><title>Node15</title>
<a xlink:href="../../db/df7/classlibrary_1_1_symbol_text.html#ab42d5f674bbe33d8d5a601bedfd7921e" target="_top" xlink:title="library::SymbolText\l::getText">
<polygon fill="white" stroke="black" points="190.5,-432 190.5,-466 291.5,-466 291.5,-432 190.5,-432"/>
<text text-anchor="start" x="198.5" y="-453" font-family="Helvetica,sans-Serif" font-size="10.00">library::SymbolText</text>
<text text-anchor="middle" x="241" y="-440" font-family="Helvetica,sans-Serif" font-size="10.00">::getText</text>
</a>
</g>
<!-- Node1&#45;&gt;Node15 -->
<g id="edge30" class="edge"><title>Node1&#45;&gt;Node15</title>
<path fill="none" stroke="midnightblue" d="M125.506,-432.13C143.259,-434.723 162.559,-437.542 180.208,-440.12"/>
<polygon fill="midnightblue" stroke="midnightblue" points="179.984,-443.625 190.385,-441.607 180.996,-436.698 179.984,-443.625"/>
</g>
<!-- Node16 -->
<g id="node32" class="node"><title>Node16</title>
<a xlink:href="../../d9/d41/class_i_f___attribute_provider.html#a64e9824168a64622ace994d0ce6dd8ba" target="_top" xlink:title="Replace all variables in a text with their attribute values. ">
<polygon fill="white" stroke="black" points="162.5,-380 162.5,-414 319.5,-414 319.5,-380 162.5,-380"/>
<text text-anchor="start" x="170.5" y="-401" font-family="Helvetica,sans-Serif" font-size="10.00">IF_AttributeProvider</text>
<text text-anchor="middle" x="241" y="-388" font-family="Helvetica,sans-Serif" font-size="10.00">::replaceVariablesWithAttributes</text>
</a>
</g>
<!-- Node1&#45;&gt;Node16 -->
<g id="edge32" class="edge"><title>Node1&#45;&gt;Node16</title>
<path fill="none" stroke="midnightblue" d="M125.506,-413.87C134.167,-412.605 143.196,-411.286 152.223,-409.967"/>
<polygon fill="midnightblue" stroke="midnightblue" points="153.004,-413.391 162.393,-408.482 151.992,-406.464 153.004,-413.391"/>
</g>
<!-- Node17 -->
<g id="node34" class="node"><title>Node17</title>
<a xlink:href="../../db/df7/classlibrary_1_1_symbol_text.html#a0956fb9eaa66799447596d95c6f1e46d" target="_top" xlink:title="library::SymbolText\l::getHeight">
<polygon fill="white" stroke="black" points="190.5,-328 190.5,-362 291.5,-362 291.5,-328 190.5,-328"/>
<text text-anchor="start" x="198.5" y="-349" font-family="Helvetica,sans-Serif" font-size="10.00">library::SymbolText</text>
<text text-anchor="middle" x="241" y="-336" font-family="Helvetica,sans-Serif" font-size="10.00">::getHeight</text>
</a>
</g>
<!-- Node1&#45;&gt;Node17 -->
<g id="edge34" class="edge"><title>Node1&#45;&gt;Node17</title>
<path fill="none" stroke="midnightblue" d="M80.8093,-412.493C100.299,-401.269 132.684,-383.422 162,-371 168.074,-368.426 174.496,-365.943 180.949,-363.6"/>
<polygon fill="midnightblue" stroke="midnightblue" points="182.119,-366.899 190.387,-360.273 179.793,-360.297 182.119,-366.899"/>
</g>
<!-- Node18 -->
<g id="node36" class="node"><title>Node18</title>
<a xlink:href="../../db/df7/classlibrary_1_1_symbol_text.html#a8c33abf636eed65eeeccb22558ba0880" target="_top" xlink:title="library::SymbolText\l::getAlign">
<polygon fill="white" stroke="black" points="190.5,-276 190.5,-310 291.5,-310 291.5,-276 190.5,-276"/>
<text text-anchor="start" x="198.5" y="-297" font-family="Helvetica,sans-Serif" font-size="10.00">library::SymbolText</text>
<text text-anchor="middle" x="241" y="-284" font-family="Helvetica,sans-Serif" font-size="10.00">::getAlign</text>
</a>
</g>
<!-- Node1&#45;&gt;Node18 -->
<g id="edge36" class="edge"><title>Node1&#45;&gt;Node18</title>
<path fill="none" stroke="midnightblue" d="M70.4159,-412.203C85.3494,-391.247 121.129,-344.852 162,-319 167.821,-315.318 174.216,-312.105 180.768,-309.315"/>
<polygon fill="midnightblue" stroke="midnightblue" points="182.402,-312.434 190.433,-305.524 179.846,-305.918 182.402,-312.434"/>
</g>
<!-- Node19 -->
<g id="node38" class="node"><title>Node19</title>
<a xlink:href="../../df/de9/class_alignment.html#a4fbb4767912b1fed45bc601018994247" target="_top" xlink:title="Alignment::toQtAlign">
<polygon fill="white" stroke="black" points="187.5,-236.5 187.5,-257.5 294.5,-257.5 294.5,-236.5 187.5,-236.5"/>
<text text-anchor="middle" x="241" y="-244.5" font-family="Helvetica,sans-Serif" font-size="10.00">Alignment::toQtAlign</text>
</a>
</g>
<!-- Node1&#45;&gt;Node19 -->
<g id="edge38" class="edge"><title>Node1&#45;&gt;Node19</title>
<path fill="none" stroke="midnightblue" d="M66.5812,-412.322C76.6825,-383.902 108.217,-305.938 162,-267 166.772,-263.545 172.082,-260.685 177.628,-258.318"/>
<polygon fill="midnightblue" stroke="midnightblue" points="178.981,-261.549 187.132,-254.781 176.539,-254.988 178.981,-261.549"/>
</g>
<!-- Node22 -->
<g id="node44" class="node"><title>Node22</title>
<a xlink:href="../../db/df7/classlibrary_1_1_symbol_text.html#a01f0e165edb023b0c50cdbfd70f36021" target="_top" xlink:title="library::SymbolText\l::getRotation">
<polygon fill="white" stroke="black" points="190.5,-184 190.5,-218 291.5,-218 291.5,-184 190.5,-184"/>
<text text-anchor="start" x="198.5" y="-205" font-family="Helvetica,sans-Serif" font-size="10.00">library::SymbolText</text>
<text text-anchor="middle" x="241" y="-192" font-family="Helvetica,sans-Serif" font-size="10.00">::getRotation</text>
</a>
</g>
<!-- Node1&#45;&gt;Node22 -->
<g id="edge44" class="edge"><title>Node1&#45;&gt;Node22</title>
<path fill="none" stroke="midnightblue" d="M65.339,-412.292C73.0475,-379.535 100.737,-279.712 162,-227 167.568,-222.209 174.044,-218.295 180.845,-215.099"/>
<polygon fill="midnightblue" stroke="midnightblue" points="182.384,-218.25 190.268,-211.172 179.691,-211.789 182.384,-218.25"/>
</g>
<!-- Node23 -->
<g id="node46" class="node"><title>Node23</title>
<a xlink:href="../../de/d50/classproject_1_1_s_i___symbol.html#a01f0e165edb023b0c50cdbfd70f36021" target="_top" xlink:title="project::SI_Symbol\l::getRotation">
<polygon fill="white" stroke="black" points="191,-132 191,-166 291,-166 291,-132 191,-132"/>
<text text-anchor="start" x="199" y="-153" font-family="Helvetica,sans-Serif" font-size="10.00">project::SI_Symbol</text>
<text text-anchor="middle" x="241" y="-140" font-family="Helvetica,sans-Serif" font-size="10.00">::getRotation</text>
</a>
</g>
<!-- Node1&#45;&gt;Node23 -->
<g id="edge46" class="edge"><title>Node1&#45;&gt;Node23</title>
<path fill="none" stroke="midnightblue" d="M64.0893,-412.284C68.5326,-374.186 88.6993,-243.901 162,-175 167.497,-169.833 174.041,-165.692 180.976,-162.373"/>
<polygon fill="midnightblue" stroke="midnightblue" points="182.74,-165.429 190.613,-158.339 180.037,-158.972 182.74,-165.429"/>
</g>
<!-- Node24 -->
<g id="node49" class="node"><title>Node24</title>
<a xlink:href="../../d2/d39/class_angle.html#a7f29e0cf68871bab5b01569d78de4504" target="_top" xlink:title="90 degrees ">
<polygon fill="white" stroke="black" points="204,-92.5 204,-113.5 278,-113.5 278,-92.5 204,-92.5"/>
<text text-anchor="middle" x="241" y="-100.5" font-family="Helvetica,sans-Serif" font-size="10.00">Angle::deg90</text>
</a>
</g>
<!-- Node1&#45;&gt;Node24 -->
<g id="edge50" class="edge"><title>Node1&#45;&gt;Node24</title>
<path fill="none" stroke="midnightblue" d="M65.0818,-412.397C74.7788,-364.041 116.954,-164.965 162,-123 170.727,-114.87 182.274,-109.925 193.836,-106.95"/>
<polygon fill="midnightblue" stroke="midnightblue" points="194.873,-110.308 203.931,-104.812 193.423,-103.46 194.873,-110.308"/>
</g>
<!-- Node26 -->
<g id="node53" class="node"><title>Node26</title>
<a xlink:href="../../db/df7/classlibrary_1_1_symbol_text.html#ae23dd3ab799e9f70a4037eea91f69a82" target="_top" xlink:title="library::SymbolText\l::getPosition">
<polygon fill="white" stroke="black" points="190.5,-40 190.5,-74 291.5,-74 291.5,-40 190.5,-40"/>
<text text-anchor="start" x="198.5" y="-61" font-family="Helvetica,sans-Serif" font-size="10.00">library::SymbolText</text>
<text text-anchor="middle" x="241" y="-48" font-family="Helvetica,sans-Serif" font-size="10.00">::getPosition</text>
</a>
</g>
<!-- Node1&#45;&gt;Node26 -->
<g id="edge54" class="edge"><title>Node1&#45;&gt;Node26</title>
<path fill="none" stroke="midnightblue" d="M64.7138,-412.491C73.3533,-360.697 113.627,-133.077 162,-83 167.431,-77.3775 174.099,-72.9703 181.236,-69.5157"/>
<polygon fill="midnightblue" stroke="midnightblue" points="182.612,-72.7344 190.471,-65.6298 179.897,-66.2823 182.612,-72.7344"/>
</g>
<!-- Node27 -->
<g id="node56" class="node"><title>Node27</title>
<a xlink:href="../../df/de9/class_alignment.html#a5e73aa1977269073f3ce5f2af38443a0" target="_top" xlink:title="Alignment::mirrored">
<polygon fill="white" stroke="black" points="190.5,-0.5 190.5,-21.5 291.5,-21.5 291.5,-0.5 190.5,-0.5"/>
<text text-anchor="middle" x="241" y="-8.5" font-family="Helvetica,sans-Serif" font-size="10.00">Alignment::mirrored</text>
</a>
</g>
<!-- Node1&#45;&gt;Node27 -->
<g id="edge58" class="edge"><title>Node1&#45;&gt;Node27</title>
<path fill="none" stroke="midnightblue" d="M64.2193,-412.365C70.9476,-355.491 105.31,-87.7226 162,-31 167.294,-25.7025 173.777,-21.7408 180.731,-18.7888"/>
<polygon fill="midnightblue" stroke="midnightblue" points="182.175,-21.9907 190.437,-15.3586 179.842,-15.3907 182.175,-21.9907"/>
</g>
<!-- Node3&#45;&gt;Node4 -->
<g id="edge6" class="edge"><title>Node3&#45;&gt;Node4</title>
<path fill="none" stroke="midnightblue" d="M258.868,-740.057C275.078,-755.667 299.502,-779.532 320,-801 336.517,-818.299 335.541,-828.611 356,-841 361.415,-844.279 367.354,-847.024 373.464,-849.321"/>
<polygon fill="midnightblue" stroke="midnightblue" points="372.559,-852.709 383.153,-852.574 374.787,-846.073 372.559,-852.709"/>
</g>
<!-- Node6 -->
<g id="node11" class="node"><title>Node6</title>
<a xlink:href="../../d9/d94/classlibrary_1_1_symbol_polygon_segment.html#a894842161e505b56d67b0cf5b0f50087" target="_top" xlink:title="library::SymbolPolygonSegment\l::getAngle">
<polygon fill="white" stroke="black" points="356,-758 356,-792 512,-792 512,-758 356,-758"/>
<text text-anchor="start" x="364" y="-779" font-family="Helvetica,sans-Serif" font-size="10.00">library::SymbolPolygonSegment</text>
<text text-anchor="middle" x="434" y="-766" font-family="Helvetica,sans-Serif" font-size="10.00">::getAngle</text>
</a>
</g>
<!-- Node3&#45;&gt;Node6 -->
<g id="edge10" class="edge"><title>Node3&#45;&gt;Node6</title>
<path fill="none" stroke="midnightblue" d="M299.692,-738.814C319.04,-744.026 340.795,-749.888 361.072,-755.351"/>
<polygon fill="midnightblue" stroke="midnightblue" points="360.323,-758.774 370.89,-757.996 362.145,-752.015 360.323,-758.774"/>
</g>
<!-- Node7 -->
<g id="node13" class="node"><title>Node7</title>
<a xlink:href="../../d9/d94/classlibrary_1_1_symbol_polygon_segment.html#af89771a9eb5882eaee9f298f663f89dc" target="_top" xlink:title="library::SymbolPolygonSegment\l::getEndPos">
<polygon fill="white" stroke="black" points="356,-706 356,-740 512,-740 512,-706 356,-706"/>
<text text-anchor="start" x="364" y="-727" font-family="Helvetica,sans-Serif" font-size="10.00">library::SymbolPolygonSegment</text>
<text text-anchor="middle" x="434" y="-714" font-family="Helvetica,sans-Serif" font-size="10.00">::getEndPos</text>
</a>
</g>
<!-- Node3&#45;&gt;Node7 -->
<g id="edge12" class="edge"><title>Node3&#45;&gt;Node7</title>
<path fill="none" stroke="midnightblue" d="M299.692,-723C314.157,-723 329.968,-723 345.501,-723"/>
<polygon fill="midnightblue" stroke="midnightblue" points="345.651,-726.5 355.651,-723 345.651,-719.5 345.651,-726.5"/>
</g>
<!-- Node8 -->
<g id="node15" class="node"><title>Node8</title>
<a xlink:href="../../d2/d39/class_angle.html#a70d223e0c1188606f971188d6f23b66f" target="_top" xlink:title="Get the angle in radians. ">
<polygon fill="white" stroke="black" points="397,-666.5 397,-687.5 471,-687.5 471,-666.5 397,-666.5"/>
<text text-anchor="middle" x="434" y="-674.5" font-family="Helvetica,sans-Serif" font-size="10.00">Angle::toRad</text>
</a>
</g>
<!-- Node3&#45;&gt;Node8 -->
<g id="edge14" class="edge"><title>Node3&#45;&gt;Node8</title>
<path fill="none" stroke="midnightblue" d="M299.692,-709.011C327.719,-702.331 360.799,-694.447 387.116,-688.174"/>
<polygon fill="midnightblue" stroke="midnightblue" points="387.931,-691.578 396.847,-685.855 386.308,-684.769 387.931,-691.578"/>
</g>
<!-- Node9 -->
<g id="node17" class="node"><title>Node9</title>
<a xlink:href="../../d2/d39/class_angle.html#ae76e6384199e1c899025c103affd862f" target="_top" xlink:title="Get an Angle object which is mapped to [&#45;180..+180[ degrees. ">
<polygon fill="white" stroke="black" points="371.5,-626.5 371.5,-647.5 496.5,-647.5 496.5,-626.5 371.5,-626.5"/>
<text text-anchor="middle" x="434" y="-634.5" font-family="Helvetica,sans-Serif" font-size="10.00">Angle::mappedTo180deg</text>
</a>
</g>
<!-- Node3&#45;&gt;Node9 -->
<g id="edge16" class="edge"><title>Node3&#45;&gt;Node9</title>
<path fill="none" stroke="midnightblue" d="M266.023,-705.985C288.667,-691.245 323.371,-670.26 356,-657 361.864,-654.617 368.095,-652.451 374.378,-650.5"/>
<polygon fill="midnightblue" stroke="midnightblue" points="375.635,-653.779 384.25,-647.611 373.669,-647.061 375.635,-653.779"/>
</g>
<!-- Node11 -->
<g id="node21" class="node"><title>Node11</title>
<a xlink:href="../../d2/d39/class_angle.html#ad2926beabd4d66cc5bc1ac4c622540ea" target="_top" xlink:title="Get the Angle in degrees. ">
<polygon fill="white" stroke="black" points="397,-810.5 397,-831.5 471,-831.5 471,-810.5 397,-810.5"/>
<text text-anchor="middle" x="434" y="-818.5" font-family="Helvetica,sans-Serif" font-size="10.00">Angle::toDeg</text>
</a>
</g>
<!-- Node3&#45;&gt;Node11 -->
<g id="edge20" class="edge"><title>Node3&#45;&gt;Node11</title>
<path fill="none" stroke="midnightblue" d="M261.31,-740.005C283.331,-757.637 320.151,-784.84 356,-801 365.755,-805.397 376.649,-808.953 387.129,-811.777"/>
<polygon fill="midnightblue" stroke="midnightblue" points="386.448,-815.215 397,-814.264 388.158,-808.427 386.448,-815.215"/>
</g>
<!-- Node4&#45;&gt;Node5 -->
<g id="edge8" class="edge"><title>Node4&#45;&gt;Node5</title>
<path fill="none" stroke="midnightblue" d="M484.706,-866.701C507.536,-869.267 534.306,-872.277 556.601,-874.784"/>
<polygon fill="midnightblue" stroke="midnightblue" points="556.495,-878.294 566.823,-875.933 557.277,-871.337 556.495,-878.294"/>
</g>
<!-- Node9&#45;&gt;Node10 -->
<g id="edge18" class="edge"><title>Node9&#45;&gt;Node10</title>
<path fill="none" stroke="midnightblue" d="M496.929,-629.925C510.39,-628.412 524.634,-626.81 538.165,-625.289"/>
<polygon fill="midnightblue" stroke="midnightblue" points="538.803,-628.74 548.349,-624.144 538.021,-621.783 538.803,-628.74"/>
</g>
<!-- Node20 -->
<g id="node40" class="node"><title>Node20</title>
<a xlink:href="../../d7/d39/class_h_align.html#a5947e6026a6c38886e5598e032fa7317" target="_top" xlink:title="HAlign::toQtAlignFlag">
<polygon fill="white" stroke="black" points="378.5,-256.5 378.5,-277.5 489.5,-277.5 489.5,-256.5 378.5,-256.5"/>
<text text-anchor="middle" x="434" y="-264.5" font-family="Helvetica,sans-Serif" font-size="10.00">HAlign::toQtAlignFlag</text>
</a>
</g>
<!-- Node19&#45;&gt;Node20 -->
<g id="edge40" class="edge"><title>Node19&#45;&gt;Node20</title>
<path fill="none" stroke="midnightblue" d="M294.505,-252.545C317.346,-254.912 344.227,-257.697 368.264,-260.188"/>
<polygon fill="midnightblue" stroke="midnightblue" points="368.064,-263.686 378.372,-261.235 368.786,-256.723 368.064,-263.686"/>
</g>
<!-- Node21 -->
<g id="node42" class="node"><title>Node21</title>
<a xlink:href="../../d9/dbc/class_v_align.html#a5947e6026a6c38886e5598e032fa7317" target="_top" xlink:title="VAlign::toQtAlignFlag">
<polygon fill="white" stroke="black" points="379,-216.5 379,-237.5 489,-237.5 489,-216.5 379,-216.5"/>
<text text-anchor="middle" x="434" y="-224.5" font-family="Helvetica,sans-Serif" font-size="10.00">VAlign::toQtAlignFlag</text>
</a>
</g>
<!-- Node19&#45;&gt;Node21 -->
<g id="edge42" class="edge"><title>Node19&#45;&gt;Node21</title>
<path fill="none" stroke="midnightblue" d="M294.505,-241.455C317.444,-239.078 344.457,-236.279 368.572,-233.78"/>
<polygon fill="midnightblue" stroke="midnightblue" points="369.124,-237.242 378.71,-232.73 368.402,-230.279 369.124,-237.242"/>
</g>
<!-- Node25 -->
<g id="node51" class="node"><title>Node25</title>
<a xlink:href="../../d2/d39/class_angle.html#ae0cfbf0d84fd0eab0f9dfc1b365b8667" target="_top" xlink:title="Default Constructor. ">
<polygon fill="white" stroke="black" points="398,-92.5 398,-113.5 470,-113.5 470,-92.5 398,-92.5"/>
<text text-anchor="middle" x="434" y="-100.5" font-family="Helvetica,sans-Serif" font-size="10.00">Angle::Angle</text>
</a>
</g>
<!-- Node24&#45;&gt;Node25 -->
<g id="edge52" class="edge"><title>Node24&#45;&gt;Node25</title>
<path fill="none" stroke="midnightblue" d="M278.212,-103C309.482,-103 354.312,-103 387.86,-103"/>
<polygon fill="midnightblue" stroke="midnightblue" points="387.882,-106.5 397.882,-103 387.882,-99.5001 387.882,-106.5"/>
</g>
<!-- Node28 -->
<g id="node58" class="node"><title>Node28</title>
<a xlink:href="../../df/de9/class_alignment.html#ac2a03de30f0ea7f185b8ae3625c8b076" target="_top" xlink:title="Alignment::Alignment">
<polygon fill="white" stroke="black" points="379,-0.5 379,-21.5 489,-21.5 489,-0.5 379,-0.5"/>
<text text-anchor="middle" x="434" y="-8.5" font-family="Helvetica,sans-Serif" font-size="10.00">Alignment::Alignment</text>
</a>
</g>
<!-- Node27&#45;&gt;Node28 -->
<g id="edge60" class="edge"><title>Node27&#45;&gt;Node28</title>
<path fill="none" stroke="midnightblue" d="M291.708,-11C315.267,-11 343.566,-11 368.7,-11"/>
<polygon fill="midnightblue" stroke="midnightblue" points="368.888,-14.5001 378.888,-11 368.888,-7.5001 368.888,-14.5001"/>
</g>
</g>
</svg>
