<?xml version="1.0" encoding="UTF-8" standalone="no"?>
<!DOCTYPE svg PUBLIC "-//W3C//DTD SVG 1.1//EN"
 "http://www.w3.org/Graphics/SVG/1.1/DTD/svg11.dtd">
<!-- Generated by graphviz version 2.26.3 (20100126.1600)
 -->
<!-- Title: /home/travis/build/LibrePCB/LibrePCB/libs/librepcbprojecteditor/boardeditor/fsm/bes_select.h Pages: 1 -->
<svg width="2137pt" height="460pt"
 viewBox="0.00 0.00 2136.86 460.00" xmlns="http://www.w3.org/2000/svg" xmlns:xlink="http://www.w3.org/1999/xlink">
<g id="graph1" class="graph" transform="scale(1 1) rotate(0) translate(4 456)">
<title>/home/travis/build/LibrePCB/LibrePCB/libs/librepcbprojecteditor/boardeditor/fsm/bes_select.h</title>
<polygon fill="white" stroke="white" points="-4,5 -4,-456 2133.86,-456 2133.86,5 -4,5"/>
<!-- Node1 -->
<g id="node1" class="node"><title>Node1</title>
<polygon fill="#bfbfbf" stroke="black" points="1927.86,-391 1927.86,-451 2073.86,-451 2073.86,-391 1927.86,-391"/>
<text text-anchor="start" x="1935.86" y="-438" font-family="Helvetica,sans-Serif" font-size="10.00">/home/travis/build</text>
<text text-anchor="start" x="1935.86" y="-425" font-family="Helvetica,sans-Serif" font-size="10.00">/LibrePCB/LibrePCB/libs</text>
<text text-anchor="start" x="1935.86" y="-412" font-family="Helvetica,sans-Serif" font-size="10.00">/librepcbprojecteditor</text>
<text text-anchor="middle" x="2000.86" y="-399" font-family="Helvetica,sans-Serif" font-size="10.00">/boardeditor/fsm/bes_select.h</text>
</g>
<!-- Node2 -->
<g id="node3" class="node"><title>Node2</title>
<polygon fill="white" stroke="#bfbfbf" points="1704.86,-0.5 1704.86,-21.5 1752.86,-21.5 1752.86,-0.5 1704.86,-0.5"/>
<text text-anchor="middle" x="1728.86" y="-8.5" font-family="Helvetica,sans-Serif" font-size="10.00">QtCore</text>
</g>
<!-- Node1&#45;&gt;Node2 -->
<g id="edge2" class="edge"><title>Node1&#45;&gt;Node2</title>
<path fill="none" stroke="midnightblue" d="M2052.19,-390.909C2087.8,-365.773 2128.86,-326.313 2128.86,-278 2128.86,-278 2128.86,-278 2128.86,-148 2128.86,-102.456 2117.38,-83.8164 2079.86,-58 2028.95,-22.9677 1841.53,-13.9723 1763.4,-11.7246"/>
<polygon fill="midnightblue" stroke="midnightblue" points="1763.22,-8.2186 1753.13,-11.4502 1763.03,-15.2161 1763.22,-8.2186"/>
</g>
<!-- Node3 -->
<g id="node5" class="node"><title>Node3</title>
<a xlink:href="../../d1/deb/bes__base_8h.html" target="_top" xlink:title="bes_base.h">
<polygon fill="white" stroke="black" points="1839.36,-332.5 1839.36,-353.5 1906.36,-353.5 1906.36,-332.5 1839.36,-332.5"/>
<text text-anchor="middle" x="1872.86" y="-340.5" font-family="Helvetica,sans-Serif" font-size="10.00">bes_base.h</text>
</a>
</g>
<!-- Node1&#45;&gt;Node3 -->
<g id="edge4" class="edge"><title>Node1&#45;&gt;Node3</title>
<path fill="none" stroke="midnightblue" d="M1951.37,-390.843C1933.55,-379.98 1914.13,-368.15 1899.07,-358.972"/>
<polygon fill="midnightblue" stroke="midnightblue" points="1900.67,-355.847 1890.31,-353.632 1897.03,-361.824 1900.67,-355.847"/>
</g>
<!-- Node3&#45;&gt;Node2 -->
<g id="edge6" class="edge"><title>Node3&#45;&gt;Node2</title>
<path fill="none" stroke="midnightblue" d="M1906.45,-338.63C1967.6,-328.588 2090.86,-297.827 2090.86,-213 2090.86,-213 2090.86,-213 2090.86,-148 2090.86,-104.227 2085.74,-84.4473 2050.86,-58 2006.13,-24.0832 1836.81,-14.5016 1763.28,-11.9119"/>
<polygon fill="midnightblue" stroke="midnightblue" points="1763.27,-8.40959 1753.16,-11.5785 1763.04,-15.4058 1763.27,-8.40959"/>
</g>
<!-- Node4 -->
<g id="node8" class="node"><title>Node4</title>
<a xlink:href="../../db/d67/boardeditorevent_8h.html" target="_top" xlink:title="boardeditorevent.h">
<polygon fill="white" stroke="black" points="331.362,-267.5 331.362,-288.5 428.362,-288.5 428.362,-267.5 331.362,-267.5"/>
<text text-anchor="middle" x="379.862" y="-275.5" font-family="Helvetica,sans-Serif" font-size="10.00">boardeditorevent.h</text>
</a>
</g>
<!-- Node3&#45;&gt;Node4 -->
<g id="edge8" class="edge"><title>Node3&#45;&gt;Node4</title>
<path fill="none" stroke="midnightblue" d="M1839.23,-341.536C1646.98,-333.166 687.088,-291.376 438.647,-280.559"/>
<polygon fill="midnightblue" stroke="midnightblue" points="438.529,-277.051 428.386,-280.113 438.225,-284.044 438.529,-277.051"/>
</g>
<!-- Node5 -->
<g id="node11" class="node"><title>Node5</title>
<a xlink:href="../../dd/dec/boardeditor_8h.html" target="_top" xlink:title="../boardeditor.h">
<polygon fill="white" stroke="black" points="1831.86,-137.5 1831.86,-158.5 1913.86,-158.5 1913.86,-137.5 1831.86,-137.5"/>
<text text-anchor="middle" x="1872.86" y="-145.5" font-family="Helvetica,sans-Serif" font-size="10.00">../boardeditor.h</text>
</a>
</g>
<!-- Node3&#45;&gt;Node5 -->
<g id="edge12" class="edge"><title>Node3&#45;&gt;Node5</title>
<path fill="none" stroke="midnightblue" d="M1872.86,-332.238C1872.86,-301.082 1872.86,-210.397 1872.86,-169.022"/>
<polygon fill="midnightblue" stroke="midnightblue" points="1876.36,-168.969 1872.86,-158.969 1869.36,-168.969 1876.36,-168.969"/>
</g>
<!-- Node8 -->
<g id="node19" class="node"><title>Node8</title>
<a xlink:href="../../d2/d0d/ui__boardeditor_8h.html" target="_top" xlink:title="ui_boardeditor.h">
<polygon fill="white" stroke="black" points="838.862,-267.5 838.862,-288.5 924.862,-288.5 924.862,-267.5 838.862,-267.5"/>
<text text-anchor="middle" x="881.862" y="-275.5" font-family="Helvetica,sans-Serif" font-size="10.00">ui_boardeditor.h</text>
</a>
</g>
<!-- Node3&#45;&gt;Node8 -->
<g id="edge22" class="edge"><title>Node3&#45;&gt;Node8</title>
<path fill="none" stroke="midnightblue" d="M1839.32,-340.8C1693.55,-331.239 1114.39,-293.251 935.065,-281.49"/>
<polygon fill="midnightblue" stroke="midnightblue" points="935.288,-277.997 925.08,-280.835 934.83,-284.982 935.288,-277.997"/>
</g>
<!-- Node21 -->
<g id="node45" class="node"><title>Node21</title>
<a xlink:href="../../d1/da8/all__length__units_8h.html" target="_top" xlink:title="librepcbcommon/units\l/all_length_units.h">
<polygon fill="white" stroke="black" points="1641.86,-261 1641.86,-295 1753.86,-295 1753.86,-261 1641.86,-261"/>
<text text-anchor="start" x="1649.86" y="-282" font-family="Helvetica,sans-Serif" font-size="10.00">librepcbcommon/units</text>
<text text-anchor="middle" x="1697.86" y="-269" font-family="Helvetica,sans-Serif" font-size="10.00">/all_length_units.h</text>
</a>
</g>
<!-- Node3&#45;&gt;Node21 -->
<g id="edge48" class="edge"><title>Node3&#45;&gt;Node21</title>
<path fill="none" stroke="midnightblue" d="M1844.36,-332.412C1819.8,-323.291 1783.64,-309.859 1753.39,-298.623"/>
<polygon fill="midnightblue" stroke="midnightblue" points="1754.39,-295.261 1743.79,-295.06 1751.95,-301.823 1754.39,-295.261"/>
</g>
<!-- Node27 -->
<g id="node65" class="node"><title>Node27</title>
<a xlink:href="../../df/dfc/graphicsview_8h.html" target="_top" xlink:title="librepcbcommon/graphics\l/graphicsview.h">
<polygon fill="white" stroke="black" points="1931.86,-131 1931.86,-165 2059.86,-165 2059.86,-131 1931.86,-131"/>
<text text-anchor="start" x="1939.86" y="-152" font-family="Helvetica,sans-Serif" font-size="10.00">librepcbcommon/graphics</text>
<text text-anchor="middle" x="1995.86" y="-139" font-family="Helvetica,sans-Serif" font-size="10.00">/graphicsview.h</text>
</a>
</g>
<!-- Node3&#45;&gt;Node27 -->
<g id="edge76" class="edge"><title>Node3&#45;&gt;Node27</title>
<path fill="none" stroke="midnightblue" d="M1879.65,-332.238C1898.6,-302.198 1952.45,-216.821 1979.68,-173.655"/>
<polygon fill="midnightblue" stroke="midnightblue" points="1982.69,-175.445 1985.06,-165.12 1976.77,-171.711 1982.69,-175.445"/>
</g>
<!-- Node4&#45;&gt;Node2 -->
<g id="edge10" class="edge"><title>Node4&#45;&gt;Node2</title>
<path fill="none" stroke="midnightblue" d="M331.197,-274.506C234.572,-267.073 25.9652,-248.36 4.86165,-224 -1.54063,-216.61 -1.66051,-209.285 4.86165,-202 122.203,-70.9405 1461.65,-20.0049 1694.47,-12.115"/>
<polygon fill="midnightblue" stroke="midnightblue" points="1694.83,-15.6049 1704.71,-11.7717 1694.59,-8.6088 1694.83,-15.6049"/>
</g>
<!-- Node5&#45;&gt;Node2 -->
<g id="edge14" class="edge"><title>Node5&#45;&gt;Node2</title>
<path fill="none" stroke="midnightblue" d="M1884.89,-137.475C1903.65,-119.788 1935.77,-83.5365 1915.86,-58 1897.26,-34.1442 1811.71,-20.5462 1763.02,-14.6126"/>
<polygon fill="midnightblue" stroke="midnightblue" points="1763.28,-11.1189 1752.94,-13.4292 1762.46,-18.0712 1763.28,-11.1189"/>
</g>
<!-- Node6 -->
<g id="node14" class="node"><title>Node6</title>
<polygon fill="white" stroke="#bfbfbf" points="1962.36,-65.5 1962.36,-86.5 2025.36,-86.5 2025.36,-65.5 1962.36,-65.5"/>
<text text-anchor="middle" x="1993.86" y="-73.5" font-family="Helvetica,sans-Serif" font-size="10.00">QtWidgets</text>
</g>
<!-- Node5&#45;&gt;Node6 -->
<g id="edge16" class="edge"><title>Node5&#45;&gt;Node6</title>
<path fill="none" stroke="midnightblue" d="M1890.72,-137.376C1910.91,-125.359 1944.01,-105.665 1967.25,-91.8338"/>
<polygon fill="midnightblue" stroke="midnightblue" points="1969.13,-94.7889 1975.93,-86.6674 1965.55,-88.7733 1969.13,-94.7889"/>
</g>
<!-- Node7 -->
<g id="node16" class="node"><title>Node7</title>
<a xlink:href="../../df/df9/if__graphicsvieweventhandler_8h.html" target="_top" xlink:title="librepcbcommon/graphics\l/if_graphicsvieweventhandler.h">
<polygon fill="white" stroke="black" points="1756.36,-59 1756.36,-93 1907.36,-93 1907.36,-59 1756.36,-59"/>
<text text-anchor="start" x="1764.36" y="-80" font-family="Helvetica,sans-Serif" font-size="10.00">librepcbcommon/graphics</text>
<text text-anchor="middle" x="1831.86" y="-67" font-family="Helvetica,sans-Serif" font-size="10.00">/if_graphicsvieweventhandler.h</text>
</a>
</g>
<!-- Node5&#45;&gt;Node7 -->
<g id="edge18" class="edge"><title>Node5&#45;&gt;Node7</title>
<path fill="none" stroke="midnightblue" d="M1866.81,-137.376C1861.52,-128.087 1853.62,-114.212 1846.67,-102.002"/>
<polygon fill="midnightblue" stroke="midnightblue" points="1849.59,-100.052 1841.6,-93.0944 1843.5,-103.516 1849.59,-100.052"/>
</g>
<!-- Node7&#45;&gt;Node2 -->
<g id="edge20" class="edge"><title>Node7&#45;&gt;Node2</title>
<path fill="none" stroke="midnightblue" d="M1804.8,-58.922C1789.15,-49.0489 1769.59,-36.7039 1754.24,-27.0164"/>
<polygon fill="midnightblue" stroke="midnightblue" points="1756.08,-24.0354 1745.75,-21.6584 1752.34,-29.9552 1756.08,-24.0354"/>
</g>
<!-- Node9 -->
<g id="node21" class="node"><title>Node9</title>
<polygon fill="white" stroke="#bfbfbf" points="1479.36,-202.5 1479.36,-223.5 1568.36,-223.5 1568.36,-202.5 1479.36,-202.5"/>
<text text-anchor="middle" x="1523.86" y="-210.5" font-family="Helvetica,sans-Serif" font-size="10.00">QtCore/QVariant</text>
</g>
<!-- Node8&#45;&gt;Node9 -->
<g id="edge24" class="edge"><title>Node8&#45;&gt;Node9</title>
<path fill="none" stroke="midnightblue" d="M924.925,-275.727C1020.97,-270.297 1260.11,-254.786 1469.17,-224.132"/>
<polygon fill="midnightblue" stroke="midnightblue" points="1469.73,-227.588 1479.11,-222.66 1468.7,-220.663 1469.73,-227.588"/>
</g>
<!-- Node10 -->
<g id="node23" class="node"><title>Node10</title>
<polygon fill="white" stroke="#bfbfbf" points="13.3617,-202.5 13.3617,-223.5 114.362,-223.5 114.362,-202.5 13.3617,-202.5"/>
<text text-anchor="middle" x="63.8617" y="-210.5" font-family="Helvetica,sans-Serif" font-size="10.00">QtWidgets/QAction</text>
</g>
<!-- Node8&#45;&gt;Node10 -->
<g id="edge26" class="edge"><title>Node8&#45;&gt;Node10</title>
<path fill="none" stroke="midnightblue" d="M838.475,-276.635C723.57,-272.651 401.749,-259.113 124.896,-224.153"/>
<polygon fill="midnightblue" stroke="midnightblue" points="125.015,-220.64 114.653,-222.847 124.13,-227.584 125.015,-220.64"/>
</g>
<!-- Node11 -->
<g id="node25" class="node"><title>Node11</title>
<polygon fill="white" stroke="#bfbfbf" points="131.862,-202.5 131.862,-223.5 253.862,-223.5 253.862,-202.5 131.862,-202.5"/>
<text text-anchor="middle" x="192.862" y="-210.5" font-family="Helvetica,sans-Serif" font-size="10.00">QtWidgets/QApplication</text>
</g>
<!-- Node8&#45;&gt;Node11 -->
<g id="edge28" class="edge"><title>Node8&#45;&gt;Node11</title>
<path fill="none" stroke="midnightblue" d="M838.604,-275.256C739.111,-268.722 486.169,-250.852 264.126,-224.087"/>
<polygon fill="midnightblue" stroke="midnightblue" points="264.259,-220.578 253.91,-222.847 263.416,-227.527 264.259,-220.578"/>
</g>
<!-- Node12 -->
<g id="node27" class="node"><title>Node12</title>
<polygon fill="white" stroke="#bfbfbf" points="271.862,-202.5 271.862,-223.5 399.862,-223.5 399.862,-202.5 271.862,-202.5"/>
<text text-anchor="middle" x="335.862" y="-210.5" font-family="Helvetica,sans-Serif" font-size="10.00">QtWidgets/QButtonGroup</text>
</g>
<!-- Node8&#45;&gt;Node12 -->
<g id="edge30" class="edge"><title>Node8&#45;&gt;Node12</title>
<path fill="none" stroke="midnightblue" d="M838.755,-273.602C757.243,-265.172 574.688,-245.753 410.242,-224.148"/>
<polygon fill="midnightblue" stroke="midnightblue" points="410.309,-220.627 399.937,-222.788 409.393,-227.566 410.309,-220.627"/>
</g>
<!-- Node13 -->
<g id="node29" class="node"><title>Node13</title>
<polygon fill="white" stroke="#bfbfbf" points="417.362,-202.5 417.362,-223.5 544.362,-223.5 544.362,-202.5 417.362,-202.5"/>
<text text-anchor="middle" x="480.862" y="-210.5" font-family="Helvetica,sans-Serif" font-size="10.00">QtWidgets/QHeaderView</text>
</g>
<!-- Node8&#45;&gt;Node13 -->
<g id="edge32" class="edge"><title>Node8&#45;&gt;Node13</title>
<path fill="none" stroke="midnightblue" d="M838.567,-270.982C770.551,-259.957 637.854,-238.448 554.597,-224.952"/>
<polygon fill="midnightblue" stroke="midnightblue" points="555.128,-221.493 544.697,-223.347 554.008,-228.402 555.128,-221.493"/>
</g>
<!-- Node14 -->
<g id="node31" class="node"><title>Node14</title>
<polygon fill="white" stroke="#bfbfbf" points="561.862,-202.5 561.862,-223.5 691.862,-223.5 691.862,-202.5 561.862,-202.5"/>
<text text-anchor="middle" x="626.862" y="-210.5" font-family="Helvetica,sans-Serif" font-size="10.00">QtWidgets/QMainWindow</text>
</g>
<!-- Node8&#45;&gt;Node14 -->
<g id="edge34" class="edge"><title>Node8&#45;&gt;Node14</title>
<path fill="none" stroke="midnightblue" d="M840.608,-267.484C796.26,-256.18 725.704,-238.195 677.895,-226.008"/>
<polygon fill="midnightblue" stroke="midnightblue" points="678.611,-222.579 668.056,-223.501 676.882,-229.362 678.611,-222.579"/>
</g>
<!-- Node15 -->
<g id="node33" class="node"><title>Node15</title>
<polygon fill="white" stroke="#bfbfbf" points="709.862,-202.5 709.862,-223.5 807.862,-223.5 807.862,-202.5 709.862,-202.5"/>
<text text-anchor="middle" x="758.862" y="-210.5" font-family="Helvetica,sans-Serif" font-size="10.00">QtWidgets/QMenu</text>
</g>
<!-- Node8&#45;&gt;Node15 -->
<g id="edge36" class="edge"><title>Node8&#45;&gt;Node15</title>
<path fill="none" stroke="midnightblue" d="M861.826,-267.412C841.723,-256.788 810.556,-240.318 787.776,-228.28"/>
<polygon fill="midnightblue" stroke="midnightblue" points="789.366,-225.161 778.889,-223.584 786.095,-231.35 789.366,-225.161"/>
</g>
<!-- Node16 -->
<g id="node35" class="node"><title>Node16</title>
<polygon fill="white" stroke="#bfbfbf" points="825.362,-202.5 825.362,-223.5 938.362,-223.5 938.362,-202.5 825.362,-202.5"/>
<text text-anchor="middle" x="881.862" y="-210.5" font-family="Helvetica,sans-Serif" font-size="10.00">QtWidgets/QMenuBar</text>
</g>
<!-- Node8&#45;&gt;Node16 -->
<g id="edge38" class="edge"><title>Node8&#45;&gt;Node16</title>
<path fill="none" stroke="midnightblue" d="M881.862,-267.267C881.862,-258.18 881.862,-244.892 881.862,-233.74"/>
<polygon fill="midnightblue" stroke="midnightblue" points="885.362,-233.534 881.862,-223.534 878.362,-233.534 885.362,-233.534"/>
</g>
<!-- Node17 -->
<g id="node37" class="node"><title>Node17</title>
<polygon fill="white" stroke="#bfbfbf" points="955.362,-202.5 955.362,-223.5 1072.36,-223.5 1072.36,-202.5 955.362,-202.5"/>
<text text-anchor="middle" x="1013.86" y="-210.5" font-family="Helvetica,sans-Serif" font-size="10.00">QtWidgets/QStatusBar</text>
</g>
<!-- Node8&#45;&gt;Node17 -->
<g id="edge40" class="edge"><title>Node8&#45;&gt;Node17</title>
<path fill="none" stroke="midnightblue" d="M903.364,-267.412C925.033,-256.741 958.682,-240.172 983.157,-228.12"/>
<polygon fill="midnightblue" stroke="midnightblue" points="984.944,-231.141 992.369,-223.584 981.851,-224.861 984.944,-231.141"/>
</g>
<!-- Node18 -->
<g id="node39" class="node"><title>Node18</title>
<polygon fill="white" stroke="#bfbfbf" points="1089.36,-202.5 1089.36,-223.5 1196.36,-223.5 1196.36,-202.5 1089.36,-202.5"/>
<text text-anchor="middle" x="1142.86" y="-210.5" font-family="Helvetica,sans-Serif" font-size="10.00">QtWidgets/QToolBar</text>
</g>
<!-- Node8&#45;&gt;Node18 -->
<g id="edge42" class="edge"><title>Node8&#45;&gt;Node18</title>
<path fill="none" stroke="midnightblue" d="M924.086,-267.484C969.573,-256.156 1042,-238.12 1090.93,-225.932"/>
<polygon fill="midnightblue" stroke="midnightblue" points="1091.84,-229.313 1100.7,-223.501 1090.15,-222.521 1091.84,-229.313"/>
</g>
<!-- Node19 -->
<g id="node41" class="node"><title>Node19</title>
<polygon fill="white" stroke="#bfbfbf" points="1213.36,-202.5 1213.36,-223.5 1340.36,-223.5 1340.36,-202.5 1213.36,-202.5"/>
<text text-anchor="middle" x="1276.86" y="-210.5" font-family="Helvetica,sans-Serif" font-size="10.00">QtWidgets/QVBoxLayout</text>
</g>
<!-- Node8&#45;&gt;Node19 -->
<g id="edge44" class="edge"><title>Node8&#45;&gt;Node19</title>
<path fill="none" stroke="midnightblue" d="M924.886,-270.92C991.683,-259.928 1121.16,-238.622 1203.08,-225.141"/>
<polygon fill="midnightblue" stroke="midnightblue" points="1203.78,-228.574 1213.08,-223.496 1202.64,-221.667 1203.78,-228.574"/>
</g>
<!-- Node20 -->
<g id="node43" class="node"><title>Node20</title>
<polygon fill="white" stroke="#bfbfbf" points="1357.86,-202.5 1357.86,-223.5 1461.86,-223.5 1461.86,-202.5 1357.86,-202.5"/>
<text text-anchor="middle" x="1409.86" y="-210.5" font-family="Helvetica,sans-Serif" font-size="10.00">QtWidgets/QWidget</text>
</g>
<!-- Node8&#45;&gt;Node20 -->
<g id="edge46" class="edge"><title>Node8&#45;&gt;Node20</title>
<path fill="none" stroke="midnightblue" d="M925.119,-273.922C1006.01,-266.095 1185.86,-247.749 1347.52,-224.129"/>
<polygon fill="midnightblue" stroke="midnightblue" points="1348.27,-227.557 1357.65,-222.639 1347.25,-220.632 1348.27,-227.557"/>
</g>
<!-- Node22 -->
<g id="node47" class="node"><title>Node22</title>
<a xlink:href="../../d0/d09/lengthunit_8h.html" target="_top" xlink:title="lengthunit.h">
<polygon fill="white" stroke="black" points="1702.36,-137.5 1702.36,-158.5 1769.36,-158.5 1769.36,-137.5 1702.36,-137.5"/>
<text text-anchor="middle" x="1735.86" y="-145.5" font-family="Helvetica,sans-Serif" font-size="10.00">lengthunit.h</text>
</a>
</g>
<!-- Node21&#45;&gt;Node22 -->
<g id="edge50" class="edge"><title>Node21&#45;&gt;Node22</title>
<path fill="none" stroke="midnightblue" d="M1702.91,-260.737C1709.9,-236.805 1722.52,-193.632 1729.95,-168.221"/>
<polygon fill="midnightblue" stroke="midnightblue" points="1733.34,-169.107 1732.78,-158.527 1726.62,-167.143 1733.34,-169.107"/>
</g>
<!-- Node24 -->
<g id="node53" class="node"><title>Node24</title>
<a xlink:href="../../dd/db9/length_8h.html" target="_top" xlink:title="length.h">
<polygon fill="white" stroke="black" points="1568.36,-137.5 1568.36,-158.5 1619.36,-158.5 1619.36,-137.5 1568.36,-137.5"/>
<text text-anchor="middle" x="1593.86" y="-145.5" font-family="Helvetica,sans-Serif" font-size="10.00">length.h</text>
</a>
</g>
<!-- Node21&#45;&gt;Node24 -->
<g id="edge58" class="edge"><title>Node21&#45;&gt;Node24</title>
<path fill="none" stroke="midnightblue" d="M1685.53,-260.826C1674.21,-245.243 1656.83,-221.752 1640.86,-202 1631,-189.797 1619.43,-176.497 1610.24,-166.15"/>
<polygon fill="midnightblue" stroke="midnightblue" points="1612.73,-163.685 1603.46,-158.562 1607.51,-168.35 1612.73,-163.685"/>
</g>
<!-- Node25 -->
<g id="node57" class="node"><title>Node25</title>
<a xlink:href="../../d2/d91/point_8h.html" target="_top" xlink:title="point.h">
<polygon fill="white" stroke="black" points="1585.86,-202.5 1585.86,-223.5 1631.86,-223.5 1631.86,-202.5 1585.86,-202.5"/>
<text text-anchor="middle" x="1608.86" y="-210.5" font-family="Helvetica,sans-Serif" font-size="10.00">point.h</text>
</a>
</g>
<!-- Node21&#45;&gt;Node25 -->
<g id="edge64" class="edge"><title>Node21&#45;&gt;Node25</title>
<path fill="none" stroke="midnightblue" d="M1674.48,-260.922C1661.21,-251.233 1644.69,-239.165 1631.54,-229.562"/>
<polygon fill="midnightblue" stroke="midnightblue" points="1633.6,-226.73 1623.46,-223.658 1629.47,-232.383 1633.6,-226.73"/>
</g>
<!-- Node26 -->
<g id="node61" class="node"><title>Node26</title>
<a xlink:href="../../da/dac/angle_8h.html" target="_top" xlink:title="angle.h">
<polygon fill="white" stroke="black" points="1636.86,-137.5 1636.86,-158.5 1684.86,-158.5 1684.86,-137.5 1636.86,-137.5"/>
<text text-anchor="middle" x="1660.86" y="-145.5" font-family="Helvetica,sans-Serif" font-size="10.00">angle.h</text>
</a>
</g>
<!-- Node21&#45;&gt;Node26 -->
<g id="edge70" class="edge"><title>Node21&#45;&gt;Node26</title>
<path fill="none" stroke="midnightblue" d="M1692.95,-260.737C1686.14,-236.805 1673.85,-193.632 1666.62,-168.221"/>
<polygon fill="midnightblue" stroke="midnightblue" points="1669.96,-167.187 1663.86,-158.527 1663.23,-169.103 1669.96,-167.187"/>
</g>
<!-- Node22&#45;&gt;Node2 -->
<g id="edge52" class="edge"><title>Node22&#45;&gt;Node2</title>
<path fill="none" stroke="midnightblue" d="M1735.31,-137.25C1734.15,-114.541 1731.43,-61.3484 1729.92,-31.7682"/>
<polygon fill="midnightblue" stroke="midnightblue" points="1733.41,-31.5086 1729.41,-21.7002 1726.42,-31.8658 1733.41,-31.5086"/>
</g>
<!-- Node23 -->
<g id="node50" class="node"><title>Node23</title>
<a xlink:href="../../d4/d03/exceptions_8h.html" target="_top" xlink:title="../exceptions.h">
<polygon fill="white" stroke="black" points="1620.36,-65.5 1620.36,-86.5 1701.36,-86.5 1701.36,-65.5 1620.36,-65.5"/>
<text text-anchor="middle" x="1660.86" y="-73.5" font-family="Helvetica,sans-Serif" font-size="10.00">../exceptions.h</text>
</a>
</g>
<!-- Node22&#45;&gt;Node23 -->
<g id="edge54" class="edge"><title>Node22&#45;&gt;Node23</title>
<path fill="none" stroke="midnightblue" d="M1724.8,-137.376C1712.83,-125.89 1693.56,-107.393 1679.3,-93.7031"/>
<polygon fill="midnightblue" stroke="midnightblue" points="1681.61,-91.0679 1671.97,-86.6674 1676.76,-96.1176 1681.61,-91.0679"/>
</g>
<!-- Node23&#45;&gt;Node2 -->
<g id="edge56" class="edge"><title>Node23&#45;&gt;Node2</title>
<path fill="none" stroke="midnightblue" d="M1672.09,-65.2666C1682.49,-55.328 1698.14,-40.3635 1710.38,-28.6645"/>
<polygon fill="midnightblue" stroke="midnightblue" points="1713.03,-30.9736 1717.84,-21.5337 1708.19,-25.9135 1713.03,-30.9736"/>
</g>
<!-- Node24&#45;&gt;Node2 -->
<g id="edge60" class="edge"><title>Node24&#45;&gt;Node2</title>
<path fill="none" stroke="midnightblue" d="M1591.46,-137.283C1588.03,-118.986 1583.96,-81.4324 1601.86,-58 1613.44,-42.8485 1661.34,-28.0269 1694.88,-19.201"/>
<polygon fill="midnightblue" stroke="midnightblue" points="1695.96,-22.5381 1704.77,-16.6607 1694.22,-15.7581 1695.96,-22.5381"/>
</g>
<!-- Node24&#45;&gt;Node23 -->
<g id="edge62" class="edge"><title>Node24&#45;&gt;Node23</title>
<path fill="none" stroke="midnightblue" d="M1603.75,-137.376C1614.34,-125.997 1631.33,-107.735 1644.03,-94.0845"/>
<polygon fill="midnightblue" stroke="midnightblue" points="1646.68,-96.3725 1650.94,-86.6674 1641.56,-91.6038 1646.68,-96.3725"/>
</g>
<!-- Node25&#45;&gt;Node2 -->
<g id="edge66" class="edge"><title>Node25&#45;&gt;Node2</title>
<path fill="none" stroke="midnightblue" d="M1592.27,-202.5C1580.79,-194.174 1566.43,-181.397 1559.86,-166 1540.53,-120.68 1549.7,-92.5112 1584.86,-58 1600.56,-42.5936 1657.22,-27.2541 1694.62,-18.4718"/>
<polygon fill="midnightblue" stroke="midnightblue" points="1695.64,-21.8275 1704.6,-16.1741 1694.07,-15.0058 1695.64,-21.8275"/>
</g>
<!-- Node25&#45;&gt;Node24 -->
<g id="edge68" class="edge"><title>Node25&#45;&gt;Node24</title>
<path fill="none" stroke="midnightblue" d="M1606.38,-202.267C1604.27,-193.085 1601.16,-179.615 1598.57,-168.392"/>
<polygon fill="midnightblue" stroke="midnightblue" points="1601.95,-167.491 1596.29,-158.534 1595.13,-169.065 1601.95,-167.491"/>
</g>
<!-- Node26&#45;&gt;Node2 -->
<g id="edge72" class="edge"><title>Node26&#45;&gt;Node2</title>
<path fill="none" stroke="midnightblue" d="M1647.39,-137.364C1627.23,-120.126 1593.43,-85.2676 1611.86,-58 1630.23,-30.8229 1667.19,-19.3582 1694.67,-14.5232"/>
<polygon fill="midnightblue" stroke="midnightblue" points="1695.34,-17.9622 1704.69,-12.9758 1694.27,-11.0443 1695.34,-17.9622"/>
</g>
<!-- Node26&#45;&gt;Node23 -->
<g id="edge74" class="edge"><title>Node26&#45;&gt;Node23</title>
<path fill="none" stroke="midnightblue" d="M1660.86,-137.376C1660.86,-126.741 1660.86,-110.095 1660.86,-96.8195"/>
<polygon fill="midnightblue" stroke="midnightblue" points="1664.36,-96.6674 1660.86,-86.6674 1657.36,-96.6675 1664.36,-96.6674"/>
</g>
<!-- Node27&#45;&gt;Node2 -->
<g id="edge78" class="edge"><title>Node27&#45;&gt;Node2</title>
<path fill="none" stroke="midnightblue" d="M2013.13,-130.726C2030.51,-111.249 2052.3,-79.4994 2033.86,-58 2016.37,-37.6089 1839.07,-20.3199 1763.11,-13.7886"/>
<polygon fill="midnightblue" stroke="midnightblue" points="1763.35,-10.2965 1753.09,-12.9392 1762.76,-17.2715 1763.35,-10.2965"/>
</g>
<!-- Node27&#45;&gt;Node6 -->
<g id="edge80" class="edge"><title>Node27&#45;&gt;Node6</title>
<path fill="none" stroke="midnightblue" d="M1995.39,-130.937C1995.11,-120.814 1994.75,-107.898 1994.45,-97.1329"/>
<polygon fill="midnightblue" stroke="midnightblue" points="1997.94,-96.8 1994.16,-86.901 1990.94,-96.9944 1997.94,-96.8"/>
</g>
</g>
</svg>
