<?xml version="1.0" encoding="UTF-8" standalone="no"?>
<!DOCTYPE svg PUBLIC "-//W3C//DTD SVG 1.1//EN"
 "http://www.w3.org/Graphics/SVG/1.1/DTD/svg11.dtd">
<!-- Generated by graphviz version 2.26.3 (20100126.1600)
 -->
<!-- Title: on_btnRemove_clicked Pages: 1 -->
<svg width="324pt" height="70pt"
 viewBox="0.00 0.00 324.00 70.00" xmlns="http://www.w3.org/2000/svg" xmlns:xlink="http://www.w3.org/1999/xlink">
<g id="graph1" class="graph" transform="scale(1 1) rotate(0) translate(4 66)">
<title>on_btnRemove_clicked</title>
<polygon fill="white" stroke="white" points="-4,5 -4,-66 321,-66 321,5 -4,5"/>
<!-- Node1 -->
<g id="node1" class="node"><title>Node1</title>
<polygon fill="#bfbfbf" stroke="black" points="0.5,-20.5 0.5,-41.5 119.5,-41.5 119.5,-20.5 0.5,-20.5"/>
<text text-anchor="middle" x="60" y="-28.5" font-family="Helvetica,sans-Serif" font-size="10.00">on_btnRemove_clicked</text>
</g>
<!-- Node2 -->
<g id="node3" class="node"><title>Node2</title>
<a xlink:href="../../d4/d90/class_undo_stack.html#a9a588d4c258dd39ab422ac23dab43ad8" target="_top" xlink:title="Append a new command to the currently active command. ">
<polygon fill="white" stroke="black" points="156.5,-40.5 156.5,-61.5 315.5,-61.5 315.5,-40.5 156.5,-40.5"/>
<text text-anchor="middle" x="236" y="-48.5" font-family="Helvetica,sans-Serif" font-size="10.00">UndoStack::appendToCommand</text>
</a>
</g>
<!-- Node1&#45;&gt;Node2 -->
<g id="edge2" class="edge"><title>Node1&#45;&gt;Node2</title>
<path fill="none" stroke="midnightblue" d="M119.586,-37.7711C128.135,-38.7427 137.086,-39.7598 146.064,-40.78"/>
<polygon fill="midnightblue" stroke="midnightblue" points="145.86,-44.2792 156.191,-41.9308 146.65,-37.324 145.86,-44.2792"/>
</g>
<!-- Node3 -->
<g id="node5" class="node"><title>Node3</title>
<a xlink:href="../../df/d70/class_exception.html#aa530ab8cc747843c76a435c3075ed094" target="_top" xlink:title="Get the user error message (translated) ">
<polygon fill="white" stroke="black" points="176.5,-0.5 176.5,-21.5 295.5,-21.5 295.5,-0.5 176.5,-0.5"/>
<text text-anchor="middle" x="236" y="-8.5" font-family="Helvetica,sans-Serif" font-size="10.00">Exception::getUserMsg</text>
</a>
</g>
<!-- Node1&#45;&gt;Node3 -->
<g id="edge4" class="edge"><title>Node1&#45;&gt;Node3</title>
<path fill="none" stroke="midnightblue" d="M119.586,-24.2289C134.638,-22.5184 150.932,-20.6668 166.429,-18.9058"/>
<polygon fill="midnightblue" stroke="midnightblue" points="166.935,-22.3709 176.476,-17.7641 166.145,-15.4157 166.935,-22.3709"/>
</g>
</g>
</svg>
