<?xml version="1.0" encoding="UTF-8" standalone="no"?>
<!DOCTYPE svg PUBLIC "-//W3C//DTD SVG 1.1//EN"
 "http://www.w3.org/Graphics/SVG/1.1/DTD/svg11.dtd">
<!-- Generated by graphviz version 2.26.3 (20100126.1600)
 -->
<!-- Title: on_buttonBox_clicked Pages: 1 -->
<svg width="604pt" height="298pt"
 viewBox="0.00 0.00 604.00 298.00" xmlns="http://www.w3.org/2000/svg" xmlns:xlink="http://www.w3.org/1999/xlink">
<g id="graph1" class="graph" transform="scale(1 1) rotate(0) translate(4 294)">
<title>on_buttonBox_clicked</title>
<polygon fill="white" stroke="white" points="-4,5 -4,-294 601,-294 601,5 -4,5"/>
<!-- Node1 -->
<g id="node1" class="node"><title>Node1</title>
<polygon fill="#bfbfbf" stroke="black" points="0.5,-144.5 0.5,-165.5 113.5,-165.5 113.5,-144.5 0.5,-144.5"/>
<text text-anchor="middle" x="57" y="-152.5" font-family="Helvetica,sans-Serif" font-size="10.00">on_buttonBox_clicked</text>
</g>
<!-- Node2 -->
<g id="node3" class="node"><title>Node2</title>
<a xlink:href="../../d1/d44/classproject_1_1_project_settings_dialog.html#ae3e3bcb65670e4c31e0f0a06dcdcb1a8" target="_top" xlink:title="applySettings">
<polygon fill="white" stroke="black" points="169,-164.5 169,-185.5 245,-185.5 245,-164.5 169,-164.5"/>
<text text-anchor="middle" x="207" y="-172.5" font-family="Helvetica,sans-Serif" font-size="10.00">applySettings</text>
</a>
</g>
<!-- Node1&#45;&gt;Node2 -->
<g id="edge2" class="edge"><title>Node1&#45;&gt;Node2</title>
<path fill="none" stroke="midnightblue" d="M113.709,-162.561C128.529,-164.537 144.365,-166.649 158.703,-168.56"/>
<polygon fill="midnightblue" stroke="midnightblue" points="158.468,-172.06 168.843,-169.912 159.393,-165.121 158.468,-172.06"/>
</g>
<!-- Node7 -->
<g id="node13" class="node"><title>Node7</title>
<a xlink:href="../../d1/d44/classproject_1_1_project_settings_dialog.html#a594d31c13f7ad414e312f94e6b87f2a9" target="_top" xlink:title="restoreDefaultSettings">
<polygon fill="white" stroke="black" points="150,-124.5 150,-145.5 264,-145.5 264,-124.5 150,-124.5"/>
<text text-anchor="middle" x="207" y="-132.5" font-family="Helvetica,sans-Serif" font-size="10.00">restoreDefaultSettings</text>
</a>
</g>
<!-- Node1&#45;&gt;Node7 -->
<g id="edge12" class="edge"><title>Node1&#45;&gt;Node7</title>
<path fill="none" stroke="midnightblue" d="M113.709,-147.439C122.176,-146.31 130.975,-145.137 139.636,-143.982"/>
<polygon fill="midnightblue" stroke="midnightblue" points="140.263,-147.429 149.713,-142.638 139.338,-140.491 140.263,-147.429"/>
</g>
<!-- Node3 -->
<g id="node5" class="node"><title>Node3</title>
<a xlink:href="../../d8/dea/classproject_1_1_cmd_project_settings_change.html#a50424f32061290175b08d295c880577e" target="_top" xlink:title="project::CmdProjectSettings\lChange::setLocaleOrder">
<polygon fill="white" stroke="black" points="300,-256 300,-290 440,-290 440,-256 300,-256"/>
<text text-anchor="start" x="308" y="-277" font-family="Helvetica,sans-Serif" font-size="10.00">project::CmdProjectSettings</text>
<text text-anchor="middle" x="370" y="-264" font-family="Helvetica,sans-Serif" font-size="10.00">Change::setLocaleOrder</text>
</a>
</g>
<!-- Node2&#45;&gt;Node3 -->
<g id="edge4" class="edge"><title>Node2&#45;&gt;Node3</title>
<path fill="none" stroke="midnightblue" d="M218.228,-185.549C234.947,-200.804 267.873,-229.147 300,-247 302.89,-248.606 305.898,-250.15 308.973,-251.628"/>
<polygon fill="midnightblue" stroke="midnightblue" points="307.791,-254.935 318.345,-255.863 310.674,-248.556 307.791,-254.935"/>
</g>
<!-- Node4 -->
<g id="node7" class="node"><title>Node4</title>
<a xlink:href="../../d8/dea/classproject_1_1_cmd_project_settings_change.html#a6d4d10e573d7cd7a1f44788d7b22f576" target="_top" xlink:title="project::CmdProjectSettings\lChange::setNormOrder">
<polygon fill="white" stroke="black" points="300,-204 300,-238 440,-238 440,-204 300,-204"/>
<text text-anchor="start" x="308" y="-225" font-family="Helvetica,sans-Serif" font-size="10.00">project::CmdProjectSettings</text>
<text text-anchor="middle" x="370" y="-212" font-family="Helvetica,sans-Serif" font-size="10.00">Change::setNormOrder</text>
</a>
</g>
<!-- Node2&#45;&gt;Node4 -->
<g id="edge6" class="edge"><title>Node2&#45;&gt;Node4</title>
<path fill="none" stroke="midnightblue" d="M244.395,-185.553C260.803,-190.184 280.624,-195.777 299.623,-201.139"/>
<polygon fill="midnightblue" stroke="midnightblue" points="298.887,-204.568 309.461,-203.915 300.788,-197.831 298.887,-204.568"/>
</g>
<!-- Node5 -->
<g id="node9" class="node"><title>Node5</title>
<a xlink:href="../../d4/d90/class_undo_stack.html#a6649c687fca96c8e65cec90e50551d28" target="_top" xlink:title="Execute a command and push it to the stack (similar to QUndoStack::push()) ">
<polygon fill="white" stroke="black" points="313.5,-164.5 313.5,-185.5 426.5,-185.5 426.5,-164.5 313.5,-164.5"/>
<text text-anchor="middle" x="370" y="-172.5" font-family="Helvetica,sans-Serif" font-size="10.00">UndoStack::execCmd</text>
</a>
</g>
<!-- Node2&#45;&gt;Node5 -->
<g id="edge8" class="edge"><title>Node2&#45;&gt;Node5</title>
<path fill="none" stroke="midnightblue" d="M245.216,-175C262.524,-175 283.501,-175 303.277,-175"/>
<polygon fill="midnightblue" stroke="midnightblue" points="303.484,-178.5 313.484,-175 303.484,-171.5 303.484,-178.5"/>
</g>
<!-- Node6 -->
<g id="node11" class="node"><title>Node6</title>
<a xlink:href="../../df/d70/class_exception.html#aa530ab8cc747843c76a435c3075ed094" target="_top" xlink:title="Get the user error message (translated) ">
<polygon fill="white" stroke="black" points="310.5,-124.5 310.5,-145.5 429.5,-145.5 429.5,-124.5 310.5,-124.5"/>
<text text-anchor="middle" x="370" y="-132.5" font-family="Helvetica,sans-Serif" font-size="10.00">Exception::getUserMsg</text>
</a>
</g>
<!-- Node2&#45;&gt;Node6 -->
<g id="edge10" class="edge"><title>Node2&#45;&gt;Node6</title>
<path fill="none" stroke="midnightblue" d="M245.216,-165.622C266.706,-160.348 293.851,-153.687 317.331,-147.925"/>
<polygon fill="midnightblue" stroke="midnightblue" points="318.265,-151.3 327.143,-145.517 316.597,-144.501 318.265,-151.3"/>
</g>
<!-- Node7&#45;&gt;Node5 -->
<g id="edge16" class="edge"><title>Node7&#45;&gt;Node5</title>
<path fill="none" stroke="midnightblue" d="M249.826,-145.51C270.521,-150.588 295.546,-156.729 317.391,-162.09"/>
<polygon fill="midnightblue" stroke="midnightblue" points="316.631,-165.507 327.177,-164.491 318.299,-158.709 316.631,-165.507"/>
</g>
<!-- Node7&#45;&gt;Node6 -->
<g id="edge24" class="edge"><title>Node7&#45;&gt;Node6</title>
<path fill="none" stroke="midnightblue" d="M264.009,-135C275.7,-135 288.132,-135 300.214,-135"/>
<polygon fill="midnightblue" stroke="midnightblue" points="300.256,-138.5 310.256,-135 300.256,-131.5 300.256,-138.5"/>
</g>
<!-- Node8 -->
<g id="node15" class="node"><title>Node8</title>
<a xlink:href="../../d8/dea/classproject_1_1_cmd_project_settings_change.html#ad59385e2b83064738e8974bbe8195cb4" target="_top" xlink:title="project::CmdProjectSettings\lChange::restoreDefaults">
<polygon fill="white" stroke="black" points="300,-72 300,-106 440,-106 440,-72 300,-72"/>
<text text-anchor="start" x="308" y="-93" font-family="Helvetica,sans-Serif" font-size="10.00">project::CmdProjectSettings</text>
<text text-anchor="middle" x="370" y="-80" font-family="Helvetica,sans-Serif" font-size="10.00">Change::restoreDefaults</text>
</a>
</g>
<!-- Node7&#45;&gt;Node8 -->
<g id="edge14" class="edge"><title>Node7&#45;&gt;Node8</title>
<path fill="none" stroke="midnightblue" d="M244.395,-124.447C260.803,-119.816 280.624,-114.223 299.623,-108.861"/>
<polygon fill="midnightblue" stroke="midnightblue" points="300.788,-112.169 309.461,-106.085 298.887,-105.432 300.788,-112.169"/>
</g>
<!-- Node9 -->
<g id="node18" class="node"><title>Node9</title>
<a xlink:href="../../d1/d44/classproject_1_1_project_settings_dialog.html#af816f81586cdc5885eb5a06c1f238078" target="_top" xlink:title="updateGuiFromSettings">
<polygon fill="white" stroke="black" points="310.5,-32.5 310.5,-53.5 429.5,-53.5 429.5,-32.5 310.5,-32.5"/>
<text text-anchor="middle" x="370" y="-40.5" font-family="Helvetica,sans-Serif" font-size="10.00">updateGuiFromSettings</text>
</a>
</g>
<!-- Node7&#45;&gt;Node9 -->
<g id="edge18" class="edge"><title>Node7&#45;&gt;Node9</title>
<path fill="none" stroke="midnightblue" d="M217.779,-124.379C234.189,-108.772 267.025,-79.6903 300,-63 304.352,-60.7972 308.983,-58.804 313.71,-57.0072"/>
<polygon fill="midnightblue" stroke="midnightblue" points="315.202,-60.1935 323.488,-53.591 312.893,-53.5853 315.202,-60.1935"/>
</g>
<!-- Node10 -->
<g id="node20" class="node"><title>Node10</title>
<a xlink:href="../../d7/d04/classproject_1_1_project_settings.html#a4e1f38901d0cab44a6bdae922a877b22" target="_top" xlink:title="project::ProjectSettings\l::getLocaleOrder">
<polygon fill="white" stroke="black" points="476.5,-52 476.5,-86 595.5,-86 595.5,-52 476.5,-52"/>
<text text-anchor="start" x="484.5" y="-73" font-family="Helvetica,sans-Serif" font-size="10.00">project::ProjectSettings</text>
<text text-anchor="middle" x="536" y="-60" font-family="Helvetica,sans-Serif" font-size="10.00">::getLocaleOrder</text>
</a>
</g>
<!-- Node9&#45;&gt;Node10 -->
<g id="edge20" class="edge"><title>Node9&#45;&gt;Node10</title>
<path fill="none" stroke="midnightblue" d="M429.93,-52.3866C441.756,-54.2389 454.261,-56.1975 466.376,-58.095"/>
<polygon fill="midnightblue" stroke="midnightblue" points="466.015,-61.5811 476.437,-59.6708 467.099,-54.6655 466.015,-61.5811"/>
</g>
<!-- Node11 -->
<g id="node22" class="node"><title>Node11</title>
<a xlink:href="../../d7/d04/classproject_1_1_project_settings.html#a6573891f2d7f5eae69101472e6cd025a" target="_top" xlink:title="project::ProjectSettings\l::getNormOrder">
<polygon fill="white" stroke="black" points="476.5,-0 476.5,-34 595.5,-34 595.5,-0 476.5,-0"/>
<text text-anchor="start" x="484.5" y="-21" font-family="Helvetica,sans-Serif" font-size="10.00">project::ProjectSettings</text>
<text text-anchor="middle" x="536" y="-8" font-family="Helvetica,sans-Serif" font-size="10.00">::getNormOrder</text>
</a>
</g>
<!-- Node9&#45;&gt;Node11 -->
<g id="edge22" class="edge"><title>Node9&#45;&gt;Node11</title>
<path fill="none" stroke="midnightblue" d="M429.93,-33.6134C441.756,-31.7611 454.261,-29.8025 466.376,-27.905"/>
<polygon fill="midnightblue" stroke="midnightblue" points="467.099,-31.3345 476.437,-26.3292 466.015,-24.4189 467.099,-31.3345"/>
</g>
</g>
</svg>
