<?xml version="1.0" encoding="UTF-8" standalone="no"?>
<!DOCTYPE svg PUBLIC "-//W3C//DTD SVG 1.1//EN"
 "http://www.w3.org/Graphics/SVG/1.1/DTD/svg11.dtd">
<!-- Generated by graphviz version 2.26.3 (20100126.1600)
 -->
<!-- Title: getPath Pages: 1 -->
<svg width="402pt" height="370pt"
 viewBox="0.00 0.00 402.00 370.00" xmlns="http://www.w3.org/2000/svg" xmlns:xlink="http://www.w3.org/1999/xlink">
<g id="graph1" class="graph" transform="scale(1 1) rotate(0) translate(4 366)">
<title>getPath</title>
<polygon fill="white" stroke="white" points="-4,5 -4,-366 399,-366 399,5 -4,5"/>
<!-- Node1 -->
<g id="node1" class="node"><title>Node1</title>
<polygon fill="#bfbfbf" stroke="black" points="0,-188.5 0,-209.5 50,-209.5 50,-188.5 0,-188.5"/>
<text text-anchor="middle" x="25" y="-196.5" font-family="Helvetica,sans-Serif" font-size="10.00">getPath</text>
</g>
<!-- Node2 -->
<g id="node3" class="node"><title>Node2</title>
<a xlink:href="../../d1/def/class_control_panel.html#ae12cfb17fef4222f1db5a1b356cddeb4" target="_top" xlink:title="ControlPanel::ControlPanel">
<polygon fill="white" stroke="black" points="90.5,-340.5 90.5,-361.5 225.5,-361.5 225.5,-340.5 90.5,-340.5"/>
<text text-anchor="middle" x="158" y="-348.5" font-family="Helvetica,sans-Serif" font-size="10.00">ControlPanel::ControlPanel</text>
</a>
</g>
<!-- Node1&#45;&gt;Node2 -->
<g id="edge2" class="edge"><title>Node1&#45;&gt;Node2</title>
<path fill="none" stroke="midnightblue" d="M28.8777,-219.642C35.4418,-248.791 51.5441,-301.716 86,-331 90.4484,-334.781 95.5577,-337.85 100.958,-340.342"/>
<polygon fill="midnightblue" stroke="midnightblue" points="32.2792,-218.808 26.8106,-209.734 25.4267,-220.238 32.2792,-218.808"/>
</g>
<!-- Node3 -->
<g id="node5" class="node"><title>Node3</title>
<a xlink:href="../../d1/def/class_control_panel.html#ac7142ee2baa705d2dd402769467d5a4e" target="_top" xlink:title="ControlPanel::saveSettings">
<polygon fill="white" stroke="black" points="90,-300.5 90,-321.5 226,-321.5 226,-300.5 90,-300.5"/>
<text text-anchor="middle" x="158" y="-308.5" font-family="Helvetica,sans-Serif" font-size="10.00">ControlPanel::saveSettings</text>
</a>
</g>
<!-- Node1&#45;&gt;Node3 -->
<g id="edge4" class="edge"><title>Node1&#45;&gt;Node3</title>
<path fill="none" stroke="midnightblue" d="M33.0945,-218.896C42.6569,-239.913 60.5478,-272.515 86,-291 91.2485,-294.812 97.1934,-297.897 103.362,-300.395"/>
<polygon fill="midnightblue" stroke="midnightblue" points="36.2623,-217.403 29.0726,-209.621 29.8402,-220.188 36.2623,-217.403"/>
</g>
<!-- Node5 -->
<g id="node9" class="node"><title>Node5</title>
<a xlink:href="../../d1/def/class_control_panel.html#a1165e1d4439a045e94970c9fbc73bb3c" target="_top" xlink:title="ControlPanel::loadSettings">
<polygon fill="white" stroke="black" points="91.5,-260.5 91.5,-281.5 224.5,-281.5 224.5,-260.5 91.5,-260.5"/>
<text text-anchor="middle" x="158" y="-268.5" font-family="Helvetica,sans-Serif" font-size="10.00">ControlPanel::loadSettings</text>
</a>
</g>
<!-- Node1&#45;&gt;Node5 -->
<g id="edge8" class="edge"><title>Node1&#45;&gt;Node5</title>
<path fill="none" stroke="midnightblue" d="M41.9137,-216.992C53.3836,-228.232 69.4255,-242.193 86,-251 93.1029,-254.774 100.988,-257.894 108.861,-260.454"/>
<polygon fill="midnightblue" stroke="midnightblue" points="44.2705,-214.398 34.7531,-209.743 39.2903,-219.317 44.2705,-214.398"/>
</g>
<!-- Node6 -->
<g id="node11" class="node"><title>Node6</title>
<a xlink:href="../../d1/def/class_control_panel.html#a27d94f62f2537a17c6e2852e00560a19" target="_top" xlink:title="ControlPanel::on_actionOpen\l_Project_triggered">
<polygon fill="white" stroke="black" points="86,-208 86,-242 230,-242 230,-208 86,-208"/>
<text text-anchor="start" x="94" y="-229" font-family="Helvetica,sans-Serif" font-size="10.00">ControlPanel::on_actionOpen</text>
<text text-anchor="middle" x="158" y="-216" font-family="Helvetica,sans-Serif" font-size="10.00">_Project_triggered</text>
</a>
</g>
<!-- Node1&#45;&gt;Node6 -->
<g id="edge10" class="edge"><title>Node1&#45;&gt;Node6</title>
<path fill="none" stroke="midnightblue" d="M60.0783,-205.857C68.1237,-207.43 76.9659,-209.159 85.9441,-210.914"/>
<polygon fill="midnightblue" stroke="midnightblue" points="60.502,-202.374 50.0163,-203.89 59.159,-209.244 60.502,-202.374"/>
</g>
<!-- Node7 -->
<g id="node13" class="node"><title>Node7</title>
<a xlink:href="../../d6/d7e/class_favorite_projects_model.html#aa2a1f5c6e270bd5457719ec969258130" target="_top" xlink:title="FavoriteProjectsModel\l::FavoriteProjectsModel">
<polygon fill="white" stroke="black" points="98,-156 98,-190 218,-190 218,-156 98,-156"/>
<text text-anchor="start" x="106" y="-177" font-family="Helvetica,sans-Serif" font-size="10.00">FavoriteProjectsModel</text>
<text text-anchor="middle" x="158" y="-164" font-family="Helvetica,sans-Serif" font-size="10.00">::FavoriteProjectsModel</text>
</a>
</g>
<!-- Node1&#45;&gt;Node7 -->
<g id="edge12" class="edge"><title>Node1&#45;&gt;Node7</title>
<path fill="none" stroke="midnightblue" d="M60.1137,-192.136C71.6722,-189.876 84.8724,-187.296 97.7566,-184.777"/>
<polygon fill="midnightblue" stroke="midnightblue" points="59.159,-188.756 50.0163,-194.11 60.502,-195.626 59.159,-188.756"/>
</g>
<!-- Node8 -->
<g id="node15" class="node"><title>Node8</title>
<a xlink:href="../../d6/d7e/class_favorite_projects_model.html#aae2c382151ef7c9aa913361172b30db6" target="_top" xlink:title="FavoriteProjectsModel\l::save">
<polygon fill="white" stroke="black" points="101,-104 101,-138 215,-138 215,-104 101,-104"/>
<text text-anchor="start" x="109" y="-125" font-family="Helvetica,sans-Serif" font-size="10.00">FavoriteProjectsModel</text>
<text text-anchor="middle" x="158" y="-112" font-family="Helvetica,sans-Serif" font-size="10.00">::save</text>
</a>
</g>
<!-- Node1&#45;&gt;Node8 -->
<g id="edge14" class="edge"><title>Node1&#45;&gt;Node8</title>
<path fill="none" stroke="midnightblue" d="M42.5651,-181.023C54.0967,-170.02 69.9657,-156.314 86,-147 91.6311,-143.729 97.7443,-140.758 103.949,-138.091"/>
<polygon fill="midnightblue" stroke="midnightblue" points="40.0158,-178.621 35.3259,-188.121 44.9166,-183.619 40.0158,-178.621"/>
</g>
<!-- Node11 -->
<g id="node21" class="node"><title>Node11</title>
<a xlink:href="../../d2/d25/class_recent_projects_model.html#a24e2b4ea548893a1902224f486e86e30" target="_top" xlink:title="RecentProjectsModel\l::RecentProjectsModel">
<polygon fill="white" stroke="black" points="100,-52 100,-86 216,-86 216,-52 100,-52"/>
<text text-anchor="start" x="108" y="-73" font-family="Helvetica,sans-Serif" font-size="10.00">RecentProjectsModel</text>
<text text-anchor="middle" x="158" y="-60" font-family="Helvetica,sans-Serif" font-size="10.00">::RecentProjectsModel</text>
</a>
</g>
<!-- Node1&#45;&gt;Node11 -->
<g id="edge20" class="edge"><title>Node1&#45;&gt;Node11</title>
<path fill="none" stroke="midnightblue" d="M32.0436,-178.647C41.0866,-155.348 58.9176,-117.509 86,-95 90.1905,-91.5171 94.8856,-88.483 99.816,-85.8431"/>
<polygon fill="midnightblue" stroke="midnightblue" points="28.6887,-177.629 28.5054,-188.222 35.2547,-180.055 28.6887,-177.629"/>
</g>
<!-- Node12 -->
<g id="node23" class="node"><title>Node12</title>
<a xlink:href="../../d2/d25/class_recent_projects_model.html#aae2c382151ef7c9aa913361172b30db6" target="_top" xlink:title="RecentProjectsModel\l::save">
<polygon fill="white" stroke="black" points="103,-0 103,-34 213,-34 213,-0 103,-0"/>
<text text-anchor="start" x="111" y="-21" font-family="Helvetica,sans-Serif" font-size="10.00">RecentProjectsModel</text>
<text text-anchor="middle" x="158" y="-8" font-family="Helvetica,sans-Serif" font-size="10.00">::save</text>
</a>
</g>
<!-- Node1&#45;&gt;Node12 -->
<g id="edge22" class="edge"><title>Node1&#45;&gt;Node12</title>
<path fill="none" stroke="midnightblue" d="M27.6426,-177.93C32.884,-144.783 47.6149,-80.3921 86,-43 90.8551,-38.2705 96.6333,-34.3935 102.774,-31.2171"/>
<polygon fill="midnightblue" stroke="midnightblue" points="24.1168,-177.86 26.1612,-188.256 31.0459,-178.854 24.1168,-177.86"/>
</g>
<!-- Node4 -->
<g id="node7" class="node"><title>Node4</title>
<a xlink:href="../../d1/def/class_control_panel.html#a5de2bd09256045c0b96e5a0be780fa85" target="_top" xlink:title="ControlPanel::closeEvent">
<polygon fill="white" stroke="black" points="266,-300.5 266,-321.5 394,-321.5 394,-300.5 266,-300.5"/>
<text text-anchor="middle" x="330" y="-308.5" font-family="Helvetica,sans-Serif" font-size="10.00">ControlPanel::closeEvent</text>
</a>
</g>
<!-- Node3&#45;&gt;Node4 -->
<g id="edge6" class="edge"><title>Node3&#45;&gt;Node4</title>
<path fill="none" stroke="midnightblue" d="M236.635,-311C246.451,-311 256.397,-311 265.955,-311"/>
<polygon fill="midnightblue" stroke="midnightblue" points="236.473,-307.5 226.473,-311 236.473,-314.5 236.473,-307.5"/>
</g>
<!-- Node9 -->
<g id="node17" class="node"><title>Node9</title>
<a xlink:href="../../d6/d7e/class_favorite_projects_model.html#a365b771b224c9ec2d697046ef689aefb" target="_top" xlink:title="FavoriteProjectsModel\l::addFavoriteProject">
<polygon fill="white" stroke="black" points="273,-130 273,-164 387,-164 387,-130 273,-130"/>
<text text-anchor="start" x="281" y="-151" font-family="Helvetica,sans-Serif" font-size="10.00">FavoriteProjectsModel</text>
<text text-anchor="middle" x="330" y="-138" font-family="Helvetica,sans-Serif" font-size="10.00">::addFavoriteProject</text>
</a>
</g>
<!-- Node8&#45;&gt;Node9 -->
<g id="edge16" class="edge"><title>Node8&#45;&gt;Node9</title>
<path fill="none" stroke="midnightblue" d="M225.455,-131.197C241.173,-133.573 257.76,-136.08 272.977,-138.38"/>
<polygon fill="midnightblue" stroke="midnightblue" points="225.684,-127.692 215.274,-129.658 224.638,-134.613 225.684,-127.692"/>
</g>
<!-- Node10 -->
<g id="node19" class="node"><title>Node10</title>
<a xlink:href="../../d6/d7e/class_favorite_projects_model.html#afb1218eb9a356dd6541f6144d883a573" target="_top" xlink:title="FavoriteProjectsModel\l::removeFavoriteProject">
<polygon fill="white" stroke="black" points="269.5,-78 269.5,-112 390.5,-112 390.5,-78 269.5,-78"/>
<text text-anchor="start" x="277.5" y="-99" font-family="Helvetica,sans-Serif" font-size="10.00">FavoriteProjectsModel</text>
<text text-anchor="middle" x="330" y="-86" font-family="Helvetica,sans-Serif" font-size="10.00">::removeFavoriteProject</text>
</a>
</g>
<!-- Node8&#45;&gt;Node10 -->
<g id="edge18" class="edge"><title>Node8&#45;&gt;Node10</title>
<path fill="none" stroke="midnightblue" d="M225.223,-110.838C239.801,-108.635 255.136,-106.317 269.439,-104.155"/>
<polygon fill="midnightblue" stroke="midnightblue" points="224.638,-107.387 215.274,-112.342 225.684,-114.308 224.638,-107.387"/>
</g>
<!-- Node13 -->
<g id="node25" class="node"><title>Node13</title>
<a xlink:href="../../d2/d25/class_recent_projects_model.html#a17734f75d46ca0bd8d6c7d2672c06c40" target="_top" xlink:title="RecentProjectsModel\l::setLastRecentProject">
<polygon fill="white" stroke="black" points="271.5,-0 271.5,-34 388.5,-34 388.5,-0 271.5,-0"/>
<text text-anchor="start" x="279.5" y="-21" font-family="Helvetica,sans-Serif" font-size="10.00">RecentProjectsModel</text>
<text text-anchor="middle" x="330" y="-8" font-family="Helvetica,sans-Serif" font-size="10.00">::setLastRecentProject</text>
</a>
</g>
<!-- Node12&#45;&gt;Node13 -->
<g id="edge24" class="edge"><title>Node12&#45;&gt;Node13</title>
<path fill="none" stroke="midnightblue" d="M223.562,-17C239.323,-17 256.057,-17 271.474,-17"/>
<polygon fill="midnightblue" stroke="midnightblue" points="223.369,-13.5001 213.369,-17 223.369,-20.5001 223.369,-13.5001"/>
</g>
</g>
</svg>
