<?xml version="1.0" encoding="UTF-8" standalone="no"?>
<!DOCTYPE svg PUBLIC "-//W3C//DTD SVG 1.1//EN"
 "http://www.w3.org/Graphics/SVG/1.1/DTD/svg11.dtd">
<!-- Generated by graphviz version 2.26.3 (20100126.1600)
 -->
<!-- Title: AddGenCompDialog Pages: 1 -->
<svg width="1344pt" height="774pt"
 viewBox="0.00 0.00 1344.00 774.36" xmlns="http://www.w3.org/2000/svg" xmlns:xlink="http://www.w3.org/1999/xlink">
<g id="graph1" class="graph" transform="scale(1 1) rotate(0) translate(4 770.357)">
<title>AddGenCompDialog</title>
<polygon fill="white" stroke="white" points="-4,5 -4,-770.357 1341,-770.357 1341,5 -4,5"/>
<!-- Node1 -->
<g id="node1" class="node"><title>Node1</title>
<polygon fill="#bfbfbf" stroke="black" points="0,-691.857 0,-712.857 106,-712.857 106,-691.857 0,-691.857"/>
<text text-anchor="middle" x="53" y="-699.857" font-family="Helvetica,sans-Serif" font-size="10.00">AddGenCompDialog</text>
</g>
<!-- Node2 -->
<g id="node3" class="node"><title>Node2</title>
<a xlink:href="../../d2/d05/classproject_1_1_project.html#a6054e079a2e370148fce27b138686ba3" target="_top" xlink:title="Get the ProjectSettings object which contains all project settings. ">
<polygon fill="white" stroke="black" points="840,-682.857 840,-703.857 978,-703.857 978,-682.857 840,-682.857"/>
<text text-anchor="middle" x="909" y="-690.857" font-family="Helvetica,sans-Serif" font-size="10.00">project::Project::getSettings</text>
</a>
</g>
<!-- Node1&#45;&gt;Node2 -->
<g id="edge2" class="edge"><title>Node1&#45;&gt;Node2</title>
<path fill="none" stroke="midnightblue" d="M106.223,-701.798C251.802,-700.267 657.188,-696.005 829.678,-694.191"/>
<polygon fill="midnightblue" stroke="midnightblue" points="829.742,-697.691 839.705,-694.086 829.669,-690.691 829.742,-697.691"/>
</g>
<!-- Node3 -->
<g id="node5" class="node"><title>Node3</title>
<a xlink:href="../../d7/d04/classproject_1_1_project_settings.html#a4e1f38901d0cab44a6bdae922a877b22" target="_top" xlink:title="project::ProjectSettings\l::getLocaleOrder">
<polygon fill="white" stroke="black" points="849.5,-79.3572 849.5,-113.357 968.5,-113.357 968.5,-79.3572 849.5,-79.3572"/>
<text text-anchor="start" x="857.5" y="-100.357" font-family="Helvetica,sans-Serif" font-size="10.00">project::ProjectSettings</text>
<text text-anchor="middle" x="909" y="-87.3572" font-family="Helvetica,sans-Serif" font-size="10.00">::getLocaleOrder</text>
</a>
</g>
<!-- Node1&#45;&gt;Node3 -->
<g id="edge4" class="edge"><title>Node1&#45;&gt;Node3</title>
<path fill="none" stroke="midnightblue" d="M55.3674,-691.673C75.1223,-603.855 215.777,-4.35718 374,-4.35718 374,-4.35718 374,-4.35718 539,-4.35718 653.534,-4.35718 687.414,13.0716 796,-23.3572 827.863,-34.0467 859.609,-55.7841 881.302,-72.7718"/>
<polygon fill="midnightblue" stroke="midnightblue" points="879.394,-75.7275 889.386,-79.2488 883.77,-70.2646 879.394,-75.7275"/>
</g>
<!-- Node4 -->
<g id="node7" class="node"><title>Node4</title>
<a xlink:href="../../d5/d56/class_workspace.html#a0aaab7f8db4623adc7227460a859db51" target="_top" xlink:title="Get the workspace library. ">
<polygon fill="white" stroke="black" points="851.5,-722.857 851.5,-743.857 966.5,-743.857 966.5,-722.857 851.5,-722.857"/>
<text text-anchor="middle" x="909" y="-730.857" font-family="Helvetica,sans-Serif" font-size="10.00">Workspace::getLibrary</text>
</a>
</g>
<!-- Node1&#45;&gt;Node4 -->
<g id="edge6" class="edge"><title>Node1&#45;&gt;Node4</title>
<path fill="none" stroke="midnightblue" d="M84.4773,-712.925C141.508,-731.103 266.031,-766.357 374,-766.357 374,-766.357 374,-766.357 539,-766.357 653.392,-766.357 682.306,-764.972 796,-752.357 811.571,-750.63 828.255,-748.167 843.894,-745.585"/>
<polygon fill="midnightblue" stroke="midnightblue" points="844.721,-748.995 853.998,-743.877 843.554,-742.093 844.721,-748.995"/>
</g>
<!-- Node5 -->
<g id="node9" class="node"><title>Node5</title>
<a xlink:href="../../d1/d92/classproject_1_1_add_gen_comp_dialog.html#ab30df3fcf42614694068294b48161b00" target="_top" xlink:title="treeCategories_currentItem\lChanged">
<polygon fill="white" stroke="black" points="142.5,-593.357 142.5,-627.357 277.5,-627.357 277.5,-593.357 142.5,-593.357"/>
<text text-anchor="start" x="150.5" y="-614.357" font-family="Helvetica,sans-Serif" font-size="10.00">treeCategories_currentItem</text>
<text text-anchor="middle" x="210" y="-601.357" font-family="Helvetica,sans-Serif" font-size="10.00">Changed</text>
</a>
</g>
<!-- Node1&#45;&gt;Node5 -->
<g id="edge8" class="edge"><title>Node1&#45;&gt;Node5</title>
<path fill="none" stroke="midnightblue" d="M71.0099,-691.804C95.5263,-677.437 140.016,-651.367 172.066,-632.586"/>
<polygon fill="midnightblue" stroke="midnightblue" points="173.89,-635.574 180.748,-627.498 170.351,-629.534 173.89,-635.574"/>
</g>
<!-- Node6 -->
<g id="node11" class="node"><title>Node6</title>
<a xlink:href="../../d1/d92/classproject_1_1_add_gen_comp_dialog.html#ae968bf4d25607bdad3eb848014d999da" target="_top" xlink:title="setSelectedCategory">
<polygon fill="white" stroke="black" points="320,-513.857 320,-534.857 428,-534.857 428,-513.857 320,-513.857"/>
<text text-anchor="middle" x="374" y="-521.857" font-family="Helvetica,sans-Serif" font-size="10.00">setSelectedCategory</text>
</a>
</g>
<!-- Node5&#45;&gt;Node6 -->
<g id="edge10" class="edge"><title>Node5&#45;&gt;Node6</title>
<path fill="none" stroke="midnightblue" d="M242.794,-593.16C272.523,-577.571 315.946,-554.8 344.579,-539.785"/>
<polygon fill="midnightblue" stroke="midnightblue" points="346.45,-542.756 353.681,-535.012 343.199,-536.557 346.45,-542.756"/>
</g>
<!-- Node35 -->
<g id="node83" class="node"><title>Node35</title>
<a xlink:href="../../df/d70/class_exception.html#aa530ab8cc747843c76a435c3075ed094" target="_top" xlink:title="Get the user error message (translated) ">
<polygon fill="white" stroke="black" points="314.5,-599.857 314.5,-620.857 433.5,-620.857 433.5,-599.857 314.5,-599.857"/>
<text text-anchor="middle" x="374" y="-607.857" font-family="Helvetica,sans-Serif" font-size="10.00">Exception::getUserMsg</text>
</a>
</g>
<!-- Node5&#45;&gt;Node35 -->
<g id="edge96" class="edge"><title>Node5&#45;&gt;Node35</title>
<path fill="none" stroke="midnightblue" d="M277.652,-610.357C286.404,-610.357 295.38,-610.357 304.166,-610.357"/>
<polygon fill="midnightblue" stroke="midnightblue" points="304.368,-613.857 314.368,-610.357 304.368,-606.857 304.368,-613.857"/>
</g>
<!-- Node6&#45;&gt;Node2 -->
<g id="edge80" class="edge"><title>Node6&#45;&gt;Node2</title>
<path fill="none" stroke="midnightblue" d="M389.64,-535.067C408.113,-547.294 440.119,-567.173 470,-579.357 488.203,-586.78 745.204,-652.007 857.32,-680.328"/>
<polygon fill="midnightblue" stroke="midnightblue" points="856.512,-683.733 867.065,-682.788 858.226,-676.946 856.512,-683.733"/>
</g>
<!-- Node6&#45;&gt;Node3 -->
<g id="edge82" class="edge"><title>Node6&#45;&gt;Node3</title>
<path fill="none" stroke="midnightblue" d="M376.738,-513.776C391.763,-458.203 469.968,-199.188 644,-108.357 704.248,-76.9127 783.09,-77.7319 839.071,-84.0675"/>
<polygon fill="midnightblue" stroke="midnightblue" points="838.898,-87.5722 849.248,-85.3081 839.745,-80.6237 838.898,-87.5722"/>
</g>
<!-- Node6&#45;&gt;Node4 -->
<g id="edge84" class="edge"><title>Node6&#45;&gt;Node4</title>
<path fill="none" stroke="midnightblue" d="M385.788,-535.135C398.826,-547.514 419.855,-568.893 434,-590.357 455.232,-622.575 439.143,-646.191 470,-669.357 579.238,-751.369 747.816,-750.465 841.086,-742.169"/>
<polygon fill="midnightblue" stroke="midnightblue" points="841.624,-745.634 851.251,-741.209 840.966,-738.665 841.624,-745.634"/>
</g>
<!-- Node7 -->
<g id="node13" class="node"><title>Node7</title>
<a xlink:href="../../d1/d92/classproject_1_1_add_gen_comp_dialog.html#abf6af5dc67073d848d5cf561412d4b27" target="_top" xlink:title="setSelectedGenComp">
<polygon fill="white" stroke="black" points="482.5,-344.857 482.5,-365.857 595.5,-365.857 595.5,-344.857 482.5,-344.857"/>
<text text-anchor="middle" x="539" y="-352.857" font-family="Helvetica,sans-Serif" font-size="10.00">setSelectedGenComp</text>
</a>
</g>
<!-- Node6&#45;&gt;Node7 -->
<g id="edge12" class="edge"><title>Node6&#45;&gt;Node7</title>
<path fill="none" stroke="midnightblue" d="M384.321,-513.785C411.87,-485.569 487.362,-408.247 521.649,-373.129"/>
<polygon fill="midnightblue" stroke="midnightblue" points="524.201,-375.525 528.682,-365.925 519.192,-370.635 524.201,-375.525"/>
</g>
<!-- Node25 -->
<g id="node55" class="node"><title>Node25</title>
<a xlink:href="../../dd/d8a/classlibrary_1_1_library_base_element.html#a01f0309d43de518f4e94c724d22f4502" target="_top" xlink:title="library::LibraryBaseElement\l::getName">
<polygon fill="white" stroke="black" points="651.5,-32.3572 651.5,-66.3572 788.5,-66.3572 788.5,-32.3572 651.5,-32.3572"/>
<text text-anchor="start" x="659.5" y="-53.3572" font-family="Helvetica,sans-Serif" font-size="10.00">library::LibraryBaseElement</text>
<text text-anchor="middle" x="720" y="-40.3572" font-family="Helvetica,sans-Serif" font-size="10.00">::getName</text>
</a>
</g>
<!-- Node6&#45;&gt;Node25 -->
<g id="edge90" class="edge"><title>Node6&#45;&gt;Node25</title>
<path fill="none" stroke="midnightblue" d="M374.671,-513.844C378.808,-452.527 402.917,-141.685 470,-80.3572 515.429,-38.8248 586.469,-33.5891 641.228,-37.2936"/>
<polygon fill="midnightblue" stroke="midnightblue" points="641.01,-40.7871 651.253,-38.0826 641.559,-33.8087 641.01,-40.7871"/>
</g>
<!-- Node31 -->
<g id="node74" class="node"><title>Node31</title>
<a xlink:href="../../de/d02/classlibrary_1_1_library.html#a1a2a776b3860f2889bf1a4800c9ea396" target="_top" xlink:title="library::Library::getGeneric\lComponentsByCategory">
<polygon fill="white" stroke="black" points="473.5,-626.357 473.5,-660.357 604.5,-660.357 604.5,-626.357 473.5,-626.357"/>
<text text-anchor="start" x="481.5" y="-647.357" font-family="Helvetica,sans-Serif" font-size="10.00">library::Library::getGeneric</text>
<text text-anchor="middle" x="539" y="-634.357" font-family="Helvetica,sans-Serif" font-size="10.00">ComponentsByCategory</text>
</a>
</g>
<!-- Node6&#45;&gt;Node31 -->
<g id="edge86" class="edge"><title>Node6&#45;&gt;Node31</title>
<path fill="none" stroke="midnightblue" d="M383.466,-535.024C399.738,-552.872 434.683,-589.113 470,-612.357 474.99,-615.641 480.384,-618.737 485.883,-621.607"/>
<polygon fill="midnightblue" stroke="midnightblue" points="484.667,-624.911 495.181,-626.219 487.777,-618.64 484.667,-624.911"/>
</g>
<!-- Node32 -->
<g id="node76" class="node"><title>Node32</title>
<a xlink:href="../../de/d02/classlibrary_1_1_library.html#acb98813856285edc2af1aa57be55e8d3" target="_top" xlink:title="library::Library::getGeneric\lComponents">
<polygon fill="white" stroke="black" points="473.5,-536.357 473.5,-570.357 604.5,-570.357 604.5,-536.357 473.5,-536.357"/>
<text text-anchor="start" x="481.5" y="-557.357" font-family="Helvetica,sans-Serif" font-size="10.00">library::Library::getGeneric</text>
<text text-anchor="middle" x="539" y="-544.357" font-family="Helvetica,sans-Serif" font-size="10.00">Components</text>
</a>
</g>
<!-- Node6&#45;&gt;Node32 -->
<g id="edge88" class="edge"><title>Node6&#45;&gt;Node32</title>
<path fill="none" stroke="midnightblue" d="M428.027,-533.853C439.335,-535.84 451.456,-537.971 463.384,-540.067"/>
<polygon fill="midnightblue" stroke="midnightblue" points="462.881,-543.532 473.336,-541.816 464.093,-536.638 462.881,-543.532"/>
</g>
<!-- Node33 -->
<g id="node79" class="node"><title>Node33</title>
<a xlink:href="../../dd/d8a/classlibrary_1_1_library_base_element.html#a7d1a61339da05cc25ae2d8dc84c2aad4" target="_top" xlink:title="library::LibraryBaseElement\l::getXmlFilepath">
<polygon fill="white" stroke="black" points="470.5,-484.357 470.5,-518.357 607.5,-518.357 607.5,-484.357 470.5,-484.357"/>
<text text-anchor="start" x="478.5" y="-505.357" font-family="Helvetica,sans-Serif" font-size="10.00">library::LibraryBaseElement</text>
<text text-anchor="middle" x="539" y="-492.357" font-family="Helvetica,sans-Serif" font-size="10.00">::getXmlFilepath</text>
</a>
</g>
<!-- Node6&#45;&gt;Node33 -->
<g id="edge92" class="edge"><title>Node6&#45;&gt;Node33</title>
<path fill="none" stroke="midnightblue" d="M428.027,-516.826C438.389,-515.382 449.434,-513.842 460.388,-512.315"/>
<polygon fill="midnightblue" stroke="midnightblue" points="460.978,-515.767 470.399,-510.92 460.011,-508.834 460.978,-515.767"/>
</g>
<!-- Node34 -->
<g id="node81" class="node"><title>Node34</title>
<a xlink:href="../../d4/d1c/class_file_path.html#a39a0bbf3901de18041fb5c324ecf412a" target="_top" xlink:title="Get the absolute and well&#45;formatted filepath as a QString. ">
<polygon fill="white" stroke="black" points="499,-444.857 499,-465.857 579,-465.857 579,-444.857 499,-444.857"/>
<text text-anchor="middle" x="539" y="-452.857" font-family="Helvetica,sans-Serif" font-size="10.00">FilePath::toStr</text>
</a>
</g>
<!-- Node6&#45;&gt;Node34 -->
<g id="edge94" class="edge"><title>Node6&#45;&gt;Node34</title>
<path fill="none" stroke="midnightblue" d="M392.277,-513.704C411.241,-502.97 441.989,-486.449 470,-475.357 476.012,-472.977 482.419,-470.74 488.814,-468.687"/>
<polygon fill="midnightblue" stroke="midnightblue" points="490.266,-471.902 498.795,-465.616 488.208,-465.211 490.266,-471.902"/>
</g>
<!-- Node7&#45;&gt;Node2 -->
<g id="edge54" class="edge"><title>Node7&#45;&gt;Node2</title>
<path fill="none" stroke="midnightblue" d="M550.566,-365.948C565.672,-380.342 592.064,-407.495 608,-435.357 632.702,-478.546 607.921,-507.097 644,-541.357 694.91,-589.701 743.733,-537.483 796,-584.357 827.766,-612.845 799.929,-645.213 832,-673.357 833.771,-674.912 835.649,-676.348 837.61,-677.674"/>
<polygon fill="midnightblue" stroke="midnightblue" points="836.253,-680.928 846.678,-682.817 839.706,-674.839 836.253,-680.928"/>
</g>
<!-- Node7&#45;&gt;Node3 -->
<g id="edge56" class="edge"><title>Node7&#45;&gt;Node3</title>
<path fill="none" stroke="midnightblue" d="M541.072,-344.852C548.361,-310.839 576.143,-202.948 644,-151.357 674.108,-128.467 771.144,-112.616 839.027,-104.003"/>
<polygon fill="midnightblue" stroke="midnightblue" points="839.746,-107.44 849.237,-102.734 838.882,-100.494 839.746,-107.44"/>
</g>
<!-- Node8 -->
<g id="node15" class="node"><title>Node8</title>
<a xlink:href="../../d1/d92/classproject_1_1_add_gen_comp_dialog.html#adfcb4e9c07721bf39ddcb34d2e39e61c" target="_top" xlink:title="setSelectedSymbVar">
<polygon fill="white" stroke="black" points="665.5,-510.857 665.5,-531.857 774.5,-531.857 774.5,-510.857 665.5,-510.857"/>
<text text-anchor="middle" x="720" y="-518.857" font-family="Helvetica,sans-Serif" font-size="10.00">setSelectedSymbVar</text>
</a>
</g>
<!-- Node7&#45;&gt;Node8 -->
<g id="edge14" class="edge"><title>Node7&#45;&gt;Node8</title>
<path fill="none" stroke="midnightblue" d="M549.62,-366.136C563.903,-380.956 589.626,-408.816 608,-435.357 627.019,-462.83 617.694,-480.755 644,-501.357 647.602,-504.178 651.564,-506.603 655.73,-508.687"/>
<polygon fill="midnightblue" stroke="midnightblue" points="654.547,-511.989 665.116,-512.728 657.315,-505.559 654.547,-511.989"/>
</g>
<!-- Node9 -->
<g id="node19" class="node"><title>Node9</title>
<a xlink:href="../../d7/dff/classlibrary_1_1_gen_comp_symb_var.html#ada9b237a8629c03e16491a72730b456b" target="_top" xlink:title="library::GenCompSymbVar\l::getUuid">
<polygon fill="white" stroke="black" points="842,-210.357 842,-244.357 976,-244.357 976,-210.357 842,-210.357"/>
<text text-anchor="start" x="850" y="-231.357" font-family="Helvetica,sans-Serif" font-size="10.00">library::GenCompSymbVar</text>
<text text-anchor="middle" x="909" y="-218.357" font-family="Helvetica,sans-Serif" font-size="10.00">::getUuid</text>
</a>
</g>
<!-- Node7&#45;&gt;Node9 -->
<g id="edge76" class="edge"><title>Node7&#45;&gt;Node9</title>
<path fill="none" stroke="midnightblue" d="M567.695,-365.864C618.896,-382.615 727.079,-408.737 796,-359.357 836.445,-330.38 796.788,-288.508 832,-253.357 832.955,-252.404 833.946,-251.486 834.969,-250.601"/>
<polygon fill="midnightblue" stroke="midnightblue" points="837.366,-253.184 843.373,-244.457 833.235,-247.533 837.366,-253.184"/>
</g>
<!-- Node24 -->
<g id="node53" class="node"><title>Node24</title>
<a xlink:href="../../dd/d8a/classlibrary_1_1_library_base_element.html#ada9b237a8629c03e16491a72730b456b" target="_top" xlink:title="library::LibraryBaseElement\l::getUuid">
<polygon fill="white" stroke="black" points="651.5,-160.357 651.5,-194.357 788.5,-194.357 788.5,-160.357 651.5,-160.357"/>
<text text-anchor="start" x="659.5" y="-181.357" font-family="Helvetica,sans-Serif" font-size="10.00">library::LibraryBaseElement</text>
<text text-anchor="middle" x="720" y="-168.357" font-family="Helvetica,sans-Serif" font-size="10.00">::getUuid</text>
</a>
</g>
<!-- Node7&#45;&gt;Node24 -->
<g id="edge58" class="edge"><title>Node7&#45;&gt;Node24</title>
<path fill="none" stroke="midnightblue" d="M543.423,-344.791C555.432,-317.357 591.321,-243.234 644,-203.357 645.807,-201.989 647.69,-200.691 649.634,-199.457"/>
<polygon fill="midnightblue" stroke="midnightblue" points="651.498,-202.425 658.485,-194.461 648.056,-196.329 651.498,-202.425"/>
</g>
<!-- Node7&#45;&gt;Node25 -->
<g id="edge60" class="edge"><title>Node7&#45;&gt;Node25</title>
<path fill="none" stroke="midnightblue" d="M541.999,-344.618C552.129,-309.591 587.624,-196.439 644,-118.357 656.323,-101.29 673.455,-85.2818 688.334,-72.9897"/>
<polygon fill="midnightblue" stroke="midnightblue" points="690.728,-75.5562 696.324,-66.5599 686.339,-70.1028 690.728,-75.5562"/>
</g>
<!-- Node26 -->
<g id="node58" class="node"><title>Node26</title>
<a xlink:href="../../dd/d8a/classlibrary_1_1_library_base_element.html#a0e5b7dc7eca3c6468aa85375bf2c3dde" target="_top" xlink:title="library::LibraryBaseElement\l::getDescription">
<polygon fill="white" stroke="black" points="651.5,-264.357 651.5,-298.357 788.5,-298.357 788.5,-264.357 651.5,-264.357"/>
<text text-anchor="start" x="659.5" y="-285.357" font-family="Helvetica,sans-Serif" font-size="10.00">library::LibraryBaseElement</text>
<text text-anchor="middle" x="720" y="-272.357" font-family="Helvetica,sans-Serif" font-size="10.00">::getDescription</text>
</a>
</g>
<!-- Node7&#45;&gt;Node26 -->
<g id="edge64" class="edge"><title>Node7&#45;&gt;Node26</title>
<path fill="none" stroke="midnightblue" d="M560.447,-344.794C581.479,-334.617 614.581,-319.08 644,-307.357 648.658,-305.501 653.506,-303.654 658.4,-301.849"/>
<polygon fill="midnightblue" stroke="midnightblue" points="659.614,-305.132 667.828,-298.44 657.234,-298.549 659.614,-305.132"/>
</g>
<!-- Node27 -->
<g id="node61" class="node"><title>Node27</title>
<a xlink:href="../../d7/d7c/classlibrary_1_1_generic_component.html#abc945674e34471b63d0db571ba1d88b1" target="_top" xlink:title="library::GenericComponent\l::getSymbolVariants">
<polygon fill="white" stroke="black" points="653.5,-458.357 653.5,-492.357 786.5,-492.357 786.5,-458.357 653.5,-458.357"/>
<text text-anchor="start" x="661.5" y="-479.357" font-family="Helvetica,sans-Serif" font-size="10.00">library::GenericComponent</text>
<text text-anchor="middle" x="720" y="-466.357" font-family="Helvetica,sans-Serif" font-size="10.00">::getSymbolVariants</text>
</a>
</g>
<!-- Node7&#45;&gt;Node27 -->
<g id="edge68" class="edge"><title>Node7&#45;&gt;Node27</title>
<path fill="none" stroke="midnightblue" d="M548.071,-365.892C565.075,-385.037 603.677,-425.737 644,-449.357 646.828,-451.014 649.777,-452.585 652.801,-454.073"/>
<polygon fill="midnightblue" stroke="midnightblue" points="651.502,-457.327 662.053,-458.289 654.404,-450.957 651.502,-457.327"/>
</g>
<!-- Node28 -->
<g id="node63" class="node"><title>Node28</title>
<a xlink:href="../../d7/dff/classlibrary_1_1_gen_comp_symb_var.html#a01f0309d43de518f4e94c724d22f4502" target="_top" xlink:title="library::GenCompSymbVar\l::getName">
<polygon fill="white" stroke="black" points="653,-316.357 653,-350.357 787,-350.357 787,-316.357 653,-316.357"/>
<text text-anchor="start" x="661" y="-337.357" font-family="Helvetica,sans-Serif" font-size="10.00">library::GenCompSymbVar</text>
<text text-anchor="middle" x="720" y="-324.357" font-family="Helvetica,sans-Serif" font-size="10.00">::getName</text>
</a>
</g>
<!-- Node7&#45;&gt;Node28 -->
<g id="edge70" class="edge"><title>Node7&#45;&gt;Node28</title>
<path fill="none" stroke="midnightblue" d="M595.773,-348.457C610.656,-346.648 626.959,-344.666 642.716,-342.751"/>
<polygon fill="midnightblue" stroke="midnightblue" points="643.466,-346.185 652.971,-341.504 642.622,-339.237 643.466,-346.185"/>
</g>
<!-- Node29 -->
<g id="node66" class="node"><title>Node29</title>
<a xlink:href="../../d7/dff/classlibrary_1_1_gen_comp_symb_var.html#a8e3b6104c3fd62f36ce94537b91d4be7" target="_top" xlink:title="library::GenCompSymbVar\l::isDefault">
<polygon fill="white" stroke="black" points="653,-406.357 653,-440.357 787,-440.357 787,-406.357 653,-406.357"/>
<text text-anchor="start" x="661" y="-427.357" font-family="Helvetica,sans-Serif" font-size="10.00">library::GenCompSymbVar</text>
<text text-anchor="middle" x="720" y="-414.357" font-family="Helvetica,sans-Serif" font-size="10.00">::isDefault</text>
</a>
</g>
<!-- Node7&#45;&gt;Node29 -->
<g id="edge74" class="edge"><title>Node7&#45;&gt;Node29</title>
<path fill="none" stroke="midnightblue" d="M567.281,-365.982C593.322,-375.765 632.683,-390.553 664.922,-402.665"/>
<polygon fill="midnightblue" stroke="midnightblue" points="664.084,-406.089 674.676,-406.33 666.546,-399.536 664.084,-406.089"/>
</g>
<!-- Node30 -->
<g id="node69" class="node"><title>Node30</title>
<a xlink:href="../../d7/d7c/classlibrary_1_1_generic_component.html#ae3f730c7ba15a0ece18176677c262367" target="_top" xlink:title="library::GenericComponent\l::getDefaultSymbolVariantUuid">
<polygon fill="white" stroke="black" points="644,-212.357 644,-246.357 796,-246.357 796,-212.357 644,-212.357"/>
<text text-anchor="start" x="652" y="-233.357" font-family="Helvetica,sans-Serif" font-size="10.00">library::GenericComponent</text>
<text text-anchor="middle" x="720" y="-220.357" font-family="Helvetica,sans-Serif" font-size="10.00">::getDefaultSymbolVariantUuid</text>
</a>
</g>
<!-- Node7&#45;&gt;Node30 -->
<g id="edge78" class="edge"><title>Node7&#45;&gt;Node30</title>
<path fill="none" stroke="midnightblue" d="M547.4,-344.748C563.876,-324.598 602.462,-280.558 644,-255.357 646.657,-253.746 649.426,-252.217 652.27,-250.771"/>
<polygon fill="midnightblue" stroke="midnightblue" points="653.98,-253.835 661.551,-246.424 651.011,-247.495 653.98,-253.835"/>
</g>
<!-- Node8&#45;&gt;Node2 -->
<g id="edge16" class="edge"><title>Node8&#45;&gt;Node2</title>
<path fill="none" stroke="midnightblue" d="M774.515,-531.961C782.507,-535.472 790.038,-540.142 796,-546.357 836.613,-588.695 790.059,-632.333 832,-673.357 833.444,-674.77 834.974,-676.086 836.576,-677.313"/>
<polygon fill="midnightblue" stroke="midnightblue" points="834.797,-680.329 845.117,-682.727 838.546,-674.417 834.797,-680.329"/>
</g>
<!-- Node8&#45;&gt;Node3 -->
<g id="edge18" class="edge"><title>Node8&#45;&gt;Node3</title>
<path fill="none" stroke="midnightblue" d="M774.832,-515.448C782.886,-512.342 790.355,-507.839 796,-501.357 840.095,-450.72 807.339,-263.809 832,-201.357 844.094,-170.731 867.355,-140.962 885.159,-120.991"/>
<polygon fill="midnightblue" stroke="midnightblue" points="887.768,-123.324 891.921,-113.577 882.597,-118.606 887.768,-123.324"/>
</g>
<!-- Node8&#45;&gt;Node4 -->
<g id="edge30" class="edge"><title>Node8&#45;&gt;Node4</title>
<path fill="none" stroke="midnightblue" d="M723.01,-532.044C732.777,-564.701 766.794,-663.949 832,-713.357 835.041,-715.661 838.322,-717.701 841.757,-719.507"/>
<polygon fill="midnightblue" stroke="midnightblue" points="840.592,-722.822 851.145,-723.761 843.481,-716.446 840.592,-722.822"/>
</g>
<!-- Node8&#45;&gt;Node9 -->
<g id="edge20" class="edge"><title>Node8&#45;&gt;Node9</title>
<path fill="none" stroke="midnightblue" d="M774.696,-515.328C782.766,-512.236 790.276,-507.769 796,-501.357 870.176,-418.273 760.705,-338.926 832,-253.357 832.723,-252.49 833.475,-251.652 834.255,-250.841"/>
<polygon fill="midnightblue" stroke="midnightblue" points="836.615,-253.428 841.947,-244.273 832.07,-248.105 836.615,-253.428"/>
</g>
<!-- Node10 -->
<g id="node21" class="node"><title>Node10</title>
<a xlink:href="../../d7/dff/classlibrary_1_1_gen_comp_symb_var.html#a07748d2329ba6f3667d423c7662dffe1" target="_top" xlink:title="library::GenCompSymbVar\l::getNorm">
<polygon fill="white" stroke="black" points="842,-262.357 842,-296.357 976,-296.357 976,-262.357 842,-262.357"/>
<text text-anchor="start" x="850" y="-283.357" font-family="Helvetica,sans-Serif" font-size="10.00">library::GenCompSymbVar</text>
<text text-anchor="middle" x="909" y="-270.357" font-family="Helvetica,sans-Serif" font-size="10.00">::getNorm</text>
</a>
</g>
<!-- Node8&#45;&gt;Node10 -->
<g id="edge22" class="edge"><title>Node8&#45;&gt;Node10</title>
<path fill="none" stroke="midnightblue" d="M774.878,-514.996C782.826,-511.932 790.249,-507.561 796,-501.357 856.213,-436.406 774.04,-372.327 832,-305.357 832.739,-304.504 833.506,-303.678 834.301,-302.88"/>
<polygon fill="midnightblue" stroke="midnightblue" points="836.644,-305.483 842.095,-296.398 832.168,-300.101 836.644,-305.483"/>
</g>
<!-- Node11 -->
<g id="node23" class="node"><title>Node11</title>
<a xlink:href="../../d7/dff/classlibrary_1_1_gen_comp_symb_var.html#a0e5b7dc7eca3c6468aa85375bf2c3dde" target="_top" xlink:title="library::GenCompSymbVar\l::getDescription">
<polygon fill="white" stroke="black" points="842,-354.357 842,-388.357 976,-388.357 976,-354.357 842,-354.357"/>
<text text-anchor="start" x="850" y="-375.357" font-family="Helvetica,sans-Serif" font-size="10.00">library::GenCompSymbVar</text>
<text text-anchor="middle" x="909" y="-362.357" font-family="Helvetica,sans-Serif" font-size="10.00">::getDescription</text>
</a>
</g>
<!-- Node8&#45;&gt;Node11 -->
<g id="edge24" class="edge"><title>Node8&#45;&gt;Node11</title>
<path fill="none" stroke="midnightblue" d="M774.874,-513.924C782.632,-510.977 789.996,-506.922 796,-501.357 831.874,-468.108 797.282,-431.812 832,-397.357 832.958,-396.407 833.951,-395.491 834.977,-394.609"/>
<polygon fill="midnightblue" stroke="midnightblue" points="837.371,-397.195 843.396,-388.479 833.251,-391.536 837.371,-397.195"/>
</g>
<!-- Node13 -->
<g id="node27" class="node"><title>Node13</title>
<a xlink:href="../../d7/dff/classlibrary_1_1_gen_comp_symb_var.html#a95be340ed5134b5b4fc05ab47e4c9c34" target="_top" xlink:title="library::GenCompSymbVar\l::getItems">
<polygon fill="white" stroke="black" points="842,-550.357 842,-584.357 976,-584.357 976,-550.357 842,-550.357"/>
<text text-anchor="start" x="850" y="-571.357" font-family="Helvetica,sans-Serif" font-size="10.00">library::GenCompSymbVar</text>
<text text-anchor="middle" x="909" y="-558.357" font-family="Helvetica,sans-Serif" font-size="10.00">::getItems</text>
</a>
</g>
<!-- Node8&#45;&gt;Node13 -->
<g id="edge28" class="edge"><title>Node8&#45;&gt;Node13</title>
<path fill="none" stroke="midnightblue" d="M763.36,-531.911C783.672,-536.854 808.494,-542.896 831.852,-548.58"/>
<polygon fill="midnightblue" stroke="midnightblue" points="831.211,-552.027 841.755,-550.991 832.867,-545.225 831.211,-552.027"/>
</g>
<!-- Node14 -->
<g id="node30" class="node"><title>Node14</title>
<a xlink:href="../../de/d02/classlibrary_1_1_library.html#ab9d3322f7c9a51af677857c032f30bd7" target="_top" xlink:title="library::Library::getSymbols">
<polygon fill="white" stroke="black" points="841,-510.857 841,-531.857 977,-531.857 977,-510.857 841,-510.857"/>
<text text-anchor="middle" x="909" y="-518.857" font-family="Helvetica,sans-Serif" font-size="10.00">library::Library::getSymbols</text>
</a>
</g>
<!-- Node8&#45;&gt;Node14 -->
<g id="edge32" class="edge"><title>Node8&#45;&gt;Node14</title>
<path fill="none" stroke="midnightblue" d="M774.667,-521.357C792.133,-521.357 811.821,-521.357 830.63,-521.357"/>
<polygon fill="midnightblue" stroke="midnightblue" points="830.669,-524.857 840.669,-521.357 830.669,-517.857 830.669,-524.857"/>
</g>
<!-- Node15 -->
<g id="node32" class="node"><title>Node15</title>
<a xlink:href="../../d5/d1e/classlibrary_1_1_gen_comp_symb_var_item.html#ae244026d0acdc7d950b6752f4ad00e4e" target="_top" xlink:title="library::GenCompSymbVarItem\l::getSymbolUuid">
<polygon fill="white" stroke="black" points="832.5,-458.357 832.5,-492.357 985.5,-492.357 985.5,-458.357 832.5,-458.357"/>
<text text-anchor="start" x="840.5" y="-479.357" font-family="Helvetica,sans-Serif" font-size="10.00">library::GenCompSymbVarItem</text>
<text text-anchor="middle" x="909" y="-466.357" font-family="Helvetica,sans-Serif" font-size="10.00">::getSymbolUuid</text>
</a>
</g>
<!-- Node8&#45;&gt;Node15 -->
<g id="edge34" class="edge"><title>Node8&#45;&gt;Node15</title>
<path fill="none" stroke="midnightblue" d="M763.36,-510.804C782.822,-506.067 806.424,-500.323 828.912,-494.85"/>
<polygon fill="midnightblue" stroke="midnightblue" points="829.916,-498.207 838.805,-492.442 828.261,-491.406 829.916,-498.207"/>
</g>
<!-- Node16 -->
<g id="node34" class="node"><title>Node16</title>
<a xlink:href="../../d5/d1e/classlibrary_1_1_gen_comp_symb_var_item.html#ada9b237a8629c03e16491a72730b456b" target="_top" xlink:title="library::GenCompSymbVarItem\l::getUuid">
<polygon fill="white" stroke="black" points="832.5,-406.357 832.5,-440.357 985.5,-440.357 985.5,-406.357 832.5,-406.357"/>
<text text-anchor="start" x="840.5" y="-427.357" font-family="Helvetica,sans-Serif" font-size="10.00">library::GenCompSymbVarItem</text>
<text text-anchor="middle" x="909" y="-414.357" font-family="Helvetica,sans-Serif" font-size="10.00">::getUuid</text>
</a>
</g>
<!-- Node8&#45;&gt;Node16 -->
<g id="edge36" class="edge"><title>Node8&#45;&gt;Node16</title>
<path fill="none" stroke="midnightblue" d="M774.83,-511.981C782.331,-509.288 789.631,-505.821 796,-501.357 819.019,-485.225 809.546,-466.266 832,-449.357 833.832,-447.978 835.741,-446.669 837.711,-445.427"/>
<polygon fill="midnightblue" stroke="midnightblue" points="839.668,-448.342 846.681,-440.4 836.246,-442.236 839.668,-448.342"/>
</g>
<!-- Node17 -->
<g id="node36" class="node"><title>Node17</title>
<a xlink:href="../../d0/d69/class_point.html#a3da9ee2bc3910d0f0c43c30798906fdd" target="_top" xlink:title="Point::fromPx">
<polygon fill="white" stroke="black" points="870.5,-602.857 870.5,-623.857 947.5,-623.857 947.5,-602.857 870.5,-602.857"/>
<text text-anchor="middle" x="909" y="-610.857" font-family="Helvetica,sans-Serif" font-size="10.00">Point::fromPx</text>
</a>
</g>
<!-- Node8&#45;&gt;Node17 -->
<g id="edge38" class="edge"><title>Node8&#45;&gt;Node17</title>
<path fill="none" stroke="midnightblue" d="M767.117,-531.99C777.198,-535.559 787.393,-540.245 796,-546.357 817.454,-561.592 810.072,-578.813 832,-593.357 840.546,-599.026 850.612,-603.088 860.598,-606"/>
<polygon fill="midnightblue" stroke="midnightblue" points="859.941,-609.445 870.497,-608.545 861.684,-602.665 859.941,-609.445"/>
</g>
<!-- Node21 -->
<g id="node45" class="node"><title>Node21</title>
<a xlink:href="../../d0/d69/class_point.html#a3fb0d1120536f2a889eac1e5e88b9ac5" target="_top" xlink:title="Get the point as a QPointF object in pixels (for QGraphics* objects) ">
<polygon fill="white" stroke="black" points="858.5,-642.857 858.5,-663.857 959.5,-663.857 959.5,-642.857 858.5,-642.857"/>
<text text-anchor="middle" x="909" y="-650.857" font-family="Helvetica,sans-Serif" font-size="10.00">Point::toPxQPointF</text>
</a>
</g>
<!-- Node8&#45;&gt;Node21 -->
<g id="edge48" class="edge"><title>Node8&#45;&gt;Node21</title>
<path fill="none" stroke="midnightblue" d="M772.346,-531.923C780.974,-535.439 789.281,-540.121 796,-546.357 826.672,-574.824 800.438,-605.881 832,-633.357 836.922,-637.642 842.651,-641.027 848.72,-643.697"/>
<polygon fill="midnightblue" stroke="midnightblue" points="847.878,-647.119 858.471,-647.333 850.324,-640.56 847.878,-647.119"/>
</g>
<!-- Node23 -->
<g id="node49" class="node"><title>Node23</title>
<a xlink:href="../../dc/dcc/class_graphics_scene.html#ad4900f3543f03cac6482cdbe7368291f" target="_top" xlink:title="GraphicsScene::addItem">
<polygon fill="white" stroke="black" points="846.5,-314.857 846.5,-335.857 971.5,-335.857 971.5,-314.857 846.5,-314.857"/>
<text text-anchor="middle" x="909" y="-322.857" font-family="Helvetica,sans-Serif" font-size="10.00">GraphicsScene::addItem</text>
</a>
</g>
<!-- Node8&#45;&gt;Node23 -->
<g id="edge52" class="edge"><title>Node8&#45;&gt;Node23</title>
<path fill="none" stroke="midnightblue" d="M774.639,-514.769C782.616,-511.733 790.111,-507.429 796,-501.357 845.541,-450.281 782.378,-396.354 832,-345.357 833.812,-343.495 835.774,-341.798 837.853,-340.253"/>
<polygon fill="midnightblue" stroke="midnightblue" points="839.697,-343.228 846.389,-335.014 836.036,-337.262 839.697,-343.228"/>
</g>
<!-- Node12 -->
<g id="node25" class="node"><title>Node12</title>
<a xlink:href="../../dd/d8a/classlibrary_1_1_library_base_element.html#a3de489fd5ff14ef1709e7ba41628ab3e" target="_top" xlink:title="Get the string of a specific locale from a QMap. ">
<polygon fill="white" stroke="black" points="1022.5,-146.357 1022.5,-180.357 1159.5,-180.357 1159.5,-146.357 1022.5,-146.357"/>
<text text-anchor="start" x="1030.5" y="-167.357" font-family="Helvetica,sans-Serif" font-size="10.00">library::LibraryBaseElement</text>
<text text-anchor="middle" x="1091" y="-154.357" font-family="Helvetica,sans-Serif" font-size="10.00">::localeStringFromList</text>
</a>
</g>
<!-- Node11&#45;&gt;Node12 -->
<g id="edge26" class="edge"><title>Node11&#45;&gt;Node12</title>
<path fill="none" stroke="midnightblue" d="M972.393,-354.3C977.241,-351.719 981.853,-348.756 986,-345.357 1037.26,-303.345 1068.65,-229.295 1082.55,-189.843"/>
<polygon fill="midnightblue" stroke="midnightblue" points="1085.87,-190.965 1085.79,-180.371 1079.24,-188.703 1085.87,-190.965"/>
</g>
<!-- Node18 -->
<g id="node38" class="node"><title>Node18</title>
<a xlink:href="../../df/df0/class_length.html#a5aef66a62c626dea314f1a1e1716534b" target="_top" xlink:title="Set the length in pixels (from QGraphics* objects) ">
<polygon fill="white" stroke="black" points="1037.5,-562.857 1037.5,-583.857 1144.5,-583.857 1144.5,-562.857 1037.5,-562.857"/>
<text text-anchor="middle" x="1091" y="-570.857" font-family="Helvetica,sans-Serif" font-size="10.00">Length::setLengthPx</text>
</a>
</g>
<!-- Node17&#45;&gt;Node18 -->
<g id="edge40" class="edge"><title>Node17&#45;&gt;Node18</title>
<path fill="none" stroke="midnightblue" d="M947.598,-604.874C972.41,-599.421 1005.11,-592.235 1033.01,-586.101"/>
<polygon fill="midnightblue" stroke="midnightblue" points="1034.04,-589.46 1043.06,-583.895 1032.54,-582.623 1034.04,-589.46"/>
</g>
<!-- Node20 -->
<g id="node42" class="node"><title>Node20</title>
<a xlink:href="../../d0/d69/class_point.html#aaf8d7a6826dcd72e03dc632960106b90" target="_top" xlink:title="Map this Point object to a specific grid interval. ">
<polygon fill="white" stroke="black" points="1044.5,-602.857 1044.5,-623.857 1137.5,-623.857 1137.5,-602.857 1044.5,-602.857"/>
<text text-anchor="middle" x="1091" y="-610.857" font-family="Helvetica,sans-Serif" font-size="10.00">Point::mapToGrid</text>
</a>
</g>
<!-- Node17&#45;&gt;Node20 -->
<g id="edge44" class="edge"><title>Node17&#45;&gt;Node20</title>
<path fill="none" stroke="midnightblue" d="M947.598,-613.357C972.782,-613.357 1006.09,-613.357 1034.27,-613.357"/>
<polygon fill="midnightblue" stroke="midnightblue" points="1034.39,-616.857 1044.39,-613.357 1034.39,-609.857 1034.39,-616.857"/>
</g>
<!-- Node19 -->
<g id="node40" class="node"><title>Node19</title>
<a xlink:href="../../df/df0/class_length.html#a73dbcae99cc78c7f7e737d5211154527" target="_top" xlink:title="Set the length from a floating point number in nanometers. ">
<polygon fill="white" stroke="black" points="1196.5,-562.857 1196.5,-583.857 1335.5,-583.857 1335.5,-562.857 1196.5,-562.857"/>
<text text-anchor="middle" x="1266" y="-570.857" font-family="Helvetica,sans-Serif" font-size="10.00">Length::setLengthFromFloat</text>
</a>
</g>
<!-- Node18&#45;&gt;Node19 -->
<g id="edge42" class="edge"><title>Node18&#45;&gt;Node19</title>
<path fill="none" stroke="midnightblue" d="M1144.93,-573.357C1158.03,-573.357 1172.3,-573.357 1186.3,-573.357"/>
<polygon fill="midnightblue" stroke="midnightblue" points="1186.43,-576.857 1196.43,-573.357 1186.43,-569.857 1186.43,-576.857"/>
</g>
<!-- Node20&#45;&gt;Node20 -->
<g id="edge46" class="edge"><title>Node20&#45;&gt;Node20</title>
<path fill="none" stroke="midnightblue" d="M1063.35,-624.065C1051.54,-633.01 1060.75,-642.357 1091,-642.357 1110.85,-642.357 1121.64,-638.332 1123.38,-633.036"/>
<polygon fill="midnightblue" stroke="midnightblue" points="1126.41,-631.279 1118.65,-624.065 1120.21,-634.543 1126.41,-631.279"/>
</g>
<!-- Node22 -->
<g id="node47" class="node"><title>Node22</title>
<a xlink:href="../../df/df0/class_length.html#abf9a817a583f3939aea7bffdeeb7b235" target="_top" xlink:title="Get the length in pixels (for QGraphics* objects) ">
<polygon fill="white" stroke="black" points="1055,-660.857 1055,-681.857 1127,-681.857 1127,-660.857 1055,-660.857"/>
<text text-anchor="middle" x="1091" y="-668.857" font-family="Helvetica,sans-Serif" font-size="10.00">Length::toPx</text>
</a>
</g>
<!-- Node21&#45;&gt;Node22 -->
<g id="edge50" class="edge"><title>Node21&#45;&gt;Node22</title>
<path fill="none" stroke="midnightblue" d="M959.697,-658.371C986.439,-661.016 1019,-664.236 1045.01,-666.808"/>
<polygon fill="midnightblue" stroke="midnightblue" points="1044.69,-670.294 1054.99,-667.796 1045.38,-663.328 1044.69,-670.294"/>
</g>
<!-- Node25&#45;&gt;Node12 -->
<g id="edge62" class="edge"><title>Node25&#45;&gt;Node12</title>
<path fill="none" stroke="midnightblue" d="M788.672,-43.0875C844.122,-40.724 923.008,-43.5888 986,-70.3572 1020.93,-85.2009 1052.25,-116.442 1071.4,-138.613"/>
<polygon fill="midnightblue" stroke="midnightblue" points="1068.78,-140.927 1077.9,-146.323 1074.13,-136.419 1068.78,-140.927"/>
</g>
<!-- Node26&#45;&gt;Node12 -->
<g id="edge66" class="edge"><title>Node26&#45;&gt;Node12</title>
<path fill="none" stroke="midnightblue" d="M784.172,-264.153C788.437,-261.612 792.442,-258.699 796,-255.357 826.503,-226.71 797.436,-191.947 832,-168.357 885.592,-131.781 961.037,-134.842 1016.68,-144.482"/>
<polygon fill="midnightblue" stroke="midnightblue" points="1016.37,-147.982 1026.83,-146.35 1017.63,-141.098 1016.37,-147.982"/>
</g>
<!-- Node28&#45;&gt;Node12 -->
<g id="edge72" class="edge"><title>Node28&#45;&gt;Node12</title>
<path fill="none" stroke="midnightblue" d="M784.779,-316.183C788.851,-313.637 792.651,-310.714 796,-307.357 831.142,-272.137 793.772,-233.201 832,-201.357 858.724,-179.097 946.079,-169.871 1012.01,-166.051"/>
<polygon fill="midnightblue" stroke="midnightblue" points="1012.6,-169.524 1022.39,-165.483 1012.22,-162.534 1012.6,-169.524"/>
</g>
</g>
</svg>
