<?xml version="1.0" encoding="UTF-8" standalone="no"?>
<!DOCTYPE svg PUBLIC "-//W3C//DTD SVG 1.1//EN"
 "http://www.w3.org/Graphics/SVG/1.1/DTD/svg11.dtd">
<!-- Generated by graphviz version 2.26.3 (20100126.1600)
 -->
<!-- Title: /home/travis/build/LibrePCB/LibrePCB/libs/librepcbcommon/attributes/attrtypefrequency.cpp Pages: 1 -->
<svg width="224pt" height="302pt"
 viewBox="0.00 0.00 224.00 302.00" xmlns="http://www.w3.org/2000/svg" xmlns:xlink="http://www.w3.org/1999/xlink">
<g id="graph1" class="graph" transform="scale(1 1) rotate(0) translate(4 298)">
<title>/home/travis/build/LibrePCB/LibrePCB/libs/librepcbcommon/attributes/attrtypefrequency.cpp</title>
<polygon fill="white" stroke="white" points="-4,5 -4,-298 221,-298 221,5 -4,5"/>
<!-- Node1 -->
<g id="node1" class="node"><title>Node1</title>
<polygon fill="#bfbfbf" stroke="black" points="0,-233 0,-293 134,-293 134,-233 0,-233"/>
<text text-anchor="start" x="8" y="-280" font-family="Helvetica,sans-Serif" font-size="10.00">/home/travis/build</text>
<text text-anchor="start" x="8" y="-267" font-family="Helvetica,sans-Serif" font-size="10.00">/LibrePCB/LibrePCB/libs</text>
<text text-anchor="start" x="8" y="-254" font-family="Helvetica,sans-Serif" font-size="10.00">/librepcbcommon/attributes</text>
<text text-anchor="middle" x="67" y="-241" font-family="Helvetica,sans-Serif" font-size="10.00">/attrtypefrequency.cpp</text>
</g>
<!-- Node2 -->
<g id="node3" class="node"><title>Node2</title>
<polygon fill="white" stroke="#bfbfbf" points="30,-0.5 30,-21.5 78,-21.5 78,-0.5 30,-0.5"/>
<text text-anchor="middle" x="54" y="-8.5" font-family="Helvetica,sans-Serif" font-size="10.00">QtCore</text>
</g>
<!-- Node1&#45;&gt;Node2 -->
<g id="edge2" class="edge"><title>Node1&#45;&gt;Node2</title>
<path fill="none" stroke="midnightblue" d="M32.2046,-232.841C22.4676,-222.284 13.1459,-209.63 8,-196 -14.1182,-137.415 21.5877,-64.3697 41.7241,-30.2432"/>
<polygon fill="midnightblue" stroke="midnightblue" points="44.7183,-32.0556 46.9298,-21.6942 38.7395,-28.415 44.7183,-32.0556"/>
</g>
<!-- Node3 -->
<g id="node5" class="node"><title>Node3</title>
<a xlink:href="../../d5/dbd/attrtypefrequency_8h.html" target="_top" xlink:title="attrtypefrequency.h">
<polygon fill="white" stroke="black" points="16.5,-174.5 16.5,-195.5 117.5,-195.5 117.5,-174.5 16.5,-174.5"/>
<text text-anchor="middle" x="67" y="-182.5" font-family="Helvetica,sans-Serif" font-size="10.00">attrtypefrequency.h</text>
</a>
</g>
<!-- Node1&#45;&gt;Node3 -->
<g id="edge4" class="edge"><title>Node1&#45;&gt;Node3</title>
<path fill="none" stroke="midnightblue" d="M67,-232.62C67,-223.68 67,-214.103 67,-205.9"/>
<polygon fill="midnightblue" stroke="midnightblue" points="70.5001,-205.753 67,-195.753 63.5001,-205.753 70.5001,-205.753"/>
</g>
<!-- Node6 -->
<g id="node14" class="node"><title>Node6</title>
<a xlink:href="../../d6/d92/attributeunit_8h.html" target="_top" xlink:title="attributeunit.h">
<polygon fill="white" stroke="black" points="140,-116.5 140,-137.5 216,-137.5 216,-116.5 140,-116.5"/>
<text text-anchor="middle" x="178" y="-124.5" font-family="Helvetica,sans-Serif" font-size="10.00">attributeunit.h</text>
</a>
</g>
<!-- Node1&#45;&gt;Node6 -->
<g id="edge16" class="edge"><title>Node1&#45;&gt;Node6</title>
<path fill="none" stroke="midnightblue" d="M94.5208,-232.736C104.616,-221.379 116.011,-208.254 126,-196 139.372,-179.595 153.8,-160.314 164.058,-146.31"/>
<polygon fill="midnightblue" stroke="midnightblue" points="167.086,-148.096 170.143,-137.952 161.427,-143.976 167.086,-148.096"/>
</g>
<!-- Node3&#45;&gt;Node2 -->
<g id="edge6" class="edge"><title>Node3&#45;&gt;Node2</title>
<path fill="none" stroke="midnightblue" d="M57.0164,-174.418C49.325,-165.489 39.3018,-151.962 35,-138 23.6917,-101.298 36.2058,-56.4832 45.6021,-31.0934"/>
<polygon fill="midnightblue" stroke="midnightblue" points="48.8627,-32.3653 49.2378,-21.7771 42.3417,-29.8204 48.8627,-32.3653"/>
</g>
<!-- Node4 -->
<g id="node8" class="node"><title>Node4</title>
<a xlink:href="../../dd/d10/attributetype_8h.html" target="_top" xlink:title="attributetype.h">
<polygon fill="white" stroke="black" points="43.5,-116.5 43.5,-137.5 122.5,-137.5 122.5,-116.5 43.5,-116.5"/>
<text text-anchor="middle" x="83" y="-124.5" font-family="Helvetica,sans-Serif" font-size="10.00">attributetype.h</text>
</a>
</g>
<!-- Node3&#45;&gt;Node4 -->
<g id="edge8" class="edge"><title>Node3&#45;&gt;Node4</title>
<path fill="none" stroke="midnightblue" d="M69.9346,-174.362C72.0096,-166.84 74.8569,-156.519 77.3639,-147.431"/>
<polygon fill="midnightblue" stroke="midnightblue" points="80.7986,-148.141 80.084,-137.571 74.0506,-146.28 80.7986,-148.141"/>
</g>
<!-- Node4&#45;&gt;Node2 -->
<g id="edge10" class="edge"><title>Node4&#45;&gt;Node2</title>
<path fill="none" stroke="midnightblue" d="M80.3237,-116.295C75.5113,-97.0451 65.3222,-56.2889 59.1273,-31.5091"/>
<polygon fill="midnightblue" stroke="midnightblue" points="62.4907,-30.5317 56.6698,-21.6792 55.6997,-32.2295 62.4907,-30.5317"/>
</g>
<!-- Node5 -->
<g id="node11" class="node"><title>Node5</title>
<a xlink:href="../../d4/d03/exceptions_8h.html" target="_top" xlink:title="../exceptions.h">
<polygon fill="white" stroke="black" points="81.5,-58.5 81.5,-79.5 162.5,-79.5 162.5,-58.5 81.5,-58.5"/>
<text text-anchor="middle" x="122" y="-66.5" font-family="Helvetica,sans-Serif" font-size="10.00">../exceptions.h</text>
</a>
</g>
<!-- Node4&#45;&gt;Node5 -->
<g id="edge12" class="edge"><title>Node4&#45;&gt;Node5</title>
<path fill="none" stroke="midnightblue" d="M90.1532,-116.362C95.4858,-108.431 102.911,-97.3885 109.251,-87.9606"/>
<polygon fill="midnightblue" stroke="midnightblue" points="112.217,-89.8221 114.892,-79.5707 106.408,-85.9161 112.217,-89.8221"/>
</g>
<!-- Node5&#45;&gt;Node2 -->
<g id="edge14" class="edge"><title>Node5&#45;&gt;Node2</title>
<path fill="none" stroke="midnightblue" d="M109.528,-58.3619C99.6547,-49.9408 85.6675,-38.0105 74.2016,-28.2308"/>
<polygon fill="midnightblue" stroke="midnightblue" points="76.2729,-25.3972 66.3932,-21.5707 71.7302,-30.7231 76.2729,-25.3972"/>
</g>
<!-- Node6&#45;&gt;Node2 -->
<g id="edge18" class="edge"><title>Node6&#45;&gt;Node2</title>
<path fill="none" stroke="midnightblue" d="M180.035,-116.457C182.236,-101.796 183.884,-75.1271 171,-58 151.483,-32.0558 115.31,-20.3978 88.3309,-15.1806"/>
<polygon fill="midnightblue" stroke="midnightblue" points="88.5824,-11.6725 78.1336,-13.4251 87.3948,-18.571 88.5824,-11.6725"/>
</g>
<!-- Node6&#45;&gt;Node5 -->
<g id="edge20" class="edge"><title>Node6&#45;&gt;Node5</title>
<path fill="none" stroke="midnightblue" d="M167.729,-116.362C159.756,-108.104 148.525,-96.4725 139.189,-86.8029"/>
<polygon fill="midnightblue" stroke="midnightblue" points="141.67,-84.3336 132.206,-79.5707 136.634,-89.1958 141.67,-84.3336"/>
</g>
</g>
</svg>
