<?xml version="1.0" encoding="UTF-8" standalone="no"?>
<!DOCTYPE svg PUBLIC "-//W3C//DTD SVG 1.1//EN"
 "http://www.w3.org/Graphics/SVG/1.1/DTD/svg11.dtd">
<!-- Generated by graphviz version 2.26.3 (20100126.1600)
 -->
<!-- Title: getX Pages: 1 -->
<svg width="226pt" height="94pt"
 viewBox="0.00 0.00 226.00 94.00" xmlns="http://www.w3.org/2000/svg" xmlns:xlink="http://www.w3.org/1999/xlink">
<g id="graph1" class="graph" transform="scale(1 1) rotate(0) translate(4 90)">
<title>getX</title>
<polygon fill="white" stroke="white" points="-4,5 -4,-90 223,-90 223,5 -4,5"/>
<!-- Node1 -->
<g id="node1" class="node"><title>Node1</title>
<polygon fill="#bfbfbf" stroke="black" points="0.5,-32.5 0.5,-53.5 37.5,-53.5 37.5,-32.5 0.5,-32.5"/>
<text text-anchor="middle" x="19" y="-40.5" font-family="Helvetica,sans-Serif" font-size="10.00">getX</text>
</g>
<!-- Node2 -->
<g id="node3" class="node"><title>Node2</title>
<a xlink:href="../../d8/dea/classlibrary_1_1_footprint.html#a8747acbd54e52d4fcb3bb74f1bb2a88a" target="_top" xlink:title="Serialize the object to a XML DOM element. ">
<polygon fill="white" stroke="black" points="74,-52 74,-86 218,-86 218,-52 74,-52"/>
<text text-anchor="start" x="82" y="-73" font-family="Helvetica,sans-Serif" font-size="10.00">library::Footprint</text>
<text text-anchor="middle" x="146" y="-60" font-family="Helvetica,sans-Serif" font-size="10.00">::serializeToXmlDomElement</text>
</a>
</g>
<!-- Node1&#45;&gt;Node2 -->
<g id="edge2" class="edge"><title>Node1&#45;&gt;Node2</title>
<path fill="none" stroke="midnightblue" d="M47.7753,-48.891C55.6575,-50.5047 64.5706,-52.3294 73.7319,-54.205"/>
<polygon fill="midnightblue" stroke="midnightblue" points="48.2381,-45.4132 37.7393,-46.8364 46.8341,-52.271 48.2381,-45.4132"/>
</g>
<!-- Node3 -->
<g id="node5" class="node"><title>Node3</title>
<a xlink:href="../../df/d64/classproject_1_1_s_e_s___draw_wire.html#aae39c66c9e71801f5670fc4519f4d50b" target="_top" xlink:title="project::SES_DrawWire\l::calcMiddlePointPos">
<polygon fill="white" stroke="black" points="85.5,-0 85.5,-34 206.5,-34 206.5,-0 85.5,-0"/>
<text text-anchor="start" x="93.5" y="-21" font-family="Helvetica,sans-Serif" font-size="10.00">project::SES_DrawWire</text>
<text text-anchor="middle" x="146" y="-8" font-family="Helvetica,sans-Serif" font-size="10.00">::calcMiddlePointPos</text>
</a>
</g>
<!-- Node1&#45;&gt;Node3 -->
<g id="edge4" class="edge"><title>Node1&#45;&gt;Node3</title>
<path fill="none" stroke="midnightblue" d="M47.7453,-37.1151C58.921,-34.8272 72.1723,-32.1143 85.2665,-29.4336"/>
<polygon fill="midnightblue" stroke="midnightblue" points="46.8341,-33.729 37.7393,-39.1636 48.2381,-40.5868 46.8341,-33.729"/>
</g>
</g>
</svg>
