<?xml version="1.0" encoding="UTF-8" standalone="no"?>
<!DOCTYPE svg PUBLIC "-//W3C//DTD SVG 1.1//EN"
 "http://www.w3.org/Graphics/SVG/1.1/DTD/svg11.dtd">
<!-- Generated by graphviz version 2.26.3 (20100126.1600)
 -->
<!-- Title: updateCacheAndRepaint Pages: 1 -->
<svg width="628pt" height="1188pt"
 viewBox="0.00 0.00 628.00 1188.00" xmlns="http://www.w3.org/2000/svg" xmlns:xlink="http://www.w3.org/1999/xlink">
<g id="graph1" class="graph" transform="scale(1 1) rotate(0) translate(4 1184)">
<title>updateCacheAndRepaint</title>
<polygon fill="white" stroke="white" points="-4,5 -4,-1184 625,-1184 625,5 -4,5"/>
<!-- Node1 -->
<g id="node1" class="node"><title>Node1</title>
<polygon fill="#bfbfbf" stroke="black" points="0.5,-498.5 0.5,-519.5 125.5,-519.5 125.5,-498.5 0.5,-498.5"/>
<text text-anchor="middle" x="63" y="-506.5" font-family="Helvetica,sans-Serif" font-size="10.00">updateCacheAndRepaint</text>
</g>
<!-- Node2 -->
<g id="node3" class="node"><title>Node2</title>
<a xlink:href="../../d9/db9/classlibrary_1_1_symbol.html#aa8dd7ebe32db86a2f2124e341482d48c" target="_top" xlink:title="library::Symbol::getPolygons">
<polygon fill="white" stroke="black" points="170,-1098.5 170,-1119.5 312,-1119.5 312,-1098.5 170,-1098.5"/>
<text text-anchor="middle" x="241" y="-1106.5" font-family="Helvetica,sans-Serif" font-size="10.00">library::Symbol::getPolygons</text>
</a>
</g>
<!-- Node1&#45;&gt;Node2 -->
<g id="edge2" class="edge"><title>Node1&#45;&gt;Node2</title>
<path fill="none" stroke="midnightblue" d="M63.375,-519.937C66.0493,-591.701 84.417,-995.079 162,-1084 165.201,-1087.67 168.936,-1090.8 173.008,-1093.48"/>
<polygon fill="midnightblue" stroke="midnightblue" points="171.338,-1096.56 181.778,-1098.37 174.744,-1090.44 171.338,-1096.56"/>
</g>
<!-- Node3 -->
<g id="node5" class="node"><title>Node3</title>
<a xlink:href="../../d1/d7f/classlibrary_1_1_symbol_polygon.html#a0c155e27c8e6d8f1cd3a8443b7bad250" target="_top" xlink:title="library::SymbolPolygon\l::toQPainterPathPx">
<polygon fill="white" stroke="black" points="182.5,-1008 182.5,-1042 299.5,-1042 299.5,-1008 182.5,-1008"/>
<text text-anchor="start" x="190.5" y="-1029" font-family="Helvetica,sans-Serif" font-size="10.00">library::SymbolPolygon</text>
<text text-anchor="middle" x="241" y="-1016" font-family="Helvetica,sans-Serif" font-size="10.00">::toQPainterPathPx</text>
</a>
</g>
<!-- Node1&#45;&gt;Node3 -->
<g id="edge4" class="edge"><title>Node1&#45;&gt;Node3</title>
<path fill="none" stroke="midnightblue" d="M64.367,-519.578C72.3134,-579.986 113.878,-881.37 162,-960 172.153,-976.589 188.075,-990.88 202.973,-1001.8"/>
<polygon fill="midnightblue" stroke="midnightblue" points="201.379,-1004.96 211.576,-1007.84 205.399,-999.229 201.379,-1004.96"/>
</g>
<!-- Node4 -->
<g id="node7" class="node"><title>Node4</title>
<a xlink:href="../../d0/d69/class_point.html#a3fb0d1120536f2a889eac1e5e88b9ac5" target="_top" xlink:title="Get the point as a QPointF object in pixels (for QGraphics* objects) ">
<polygon fill="white" stroke="black" points="383.5,-1158.5 383.5,-1179.5 484.5,-1179.5 484.5,-1158.5 383.5,-1158.5"/>
<text text-anchor="middle" x="434" y="-1166.5" font-family="Helvetica,sans-Serif" font-size="10.00">Point::toPxQPointF</text>
</a>
</g>
<!-- Node1&#45;&gt;Node4 -->
<g id="edge60" class="edge"><title>Node1&#45;&gt;Node4</title>
<path fill="none" stroke="midnightblue" d="M63.4176,-519.821C66.3108,-589.111 85.5775,-970.225 162,-1051 211.638,-1103.46 261.777,-1046.26 320,-1089 345.07,-1107.4 331.069,-1130.41 356,-1149 361.222,-1152.89 367.127,-1156.03 373.293,-1158.56"/>
<polygon fill="midnightblue" stroke="midnightblue" points="372.543,-1162.01 383.138,-1162.06 374.885,-1155.41 372.543,-1162.01"/>
</g>
<!-- Node5 -->
<g id="node9" class="node"><title>Node5</title>
<a xlink:href="../../df/df0/class_length.html#abf9a817a583f3939aea7bffdeeb7b235" target="_top" xlink:title="Get the length in pixels (for QGraphics* objects) ">
<polygon fill="white" stroke="black" points="548,-1046.5 548,-1067.5 620,-1067.5 620,-1046.5 548,-1046.5"/>
<text text-anchor="middle" x="584" y="-1054.5" font-family="Helvetica,sans-Serif" font-size="10.00">Length::toPx</text>
</a>
</g>
<!-- Node1&#45;&gt;Node5 -->
<g id="edge20" class="edge"><title>Node1&#45;&gt;Node5</title>
<path fill="none" stroke="midnightblue" d="M63.9005,-519.689C69.1528,-579.335 97.8431,-870.367 162,-927 279.305,-1030.55 375.248,-888.964 512,-965 541.668,-981.496 563.318,-1015.75 574.753,-1037.48"/>
<polygon fill="midnightblue" stroke="midnightblue" points="571.66,-1039.12 579.281,-1046.48 577.913,-1035.98 571.66,-1039.12"/>
</g>
<!-- Node10 -->
<g id="node19" class="node"><title>Node10</title>
<a xlink:href="../../d1/d7f/classlibrary_1_1_symbol_polygon.html#a69af915a70be9a59f27a36ef42fe7606" target="_top" xlink:title="library::SymbolPolygon\l::getWidth">
<polygon fill="white" stroke="black" points="182.5,-884 182.5,-918 299.5,-918 299.5,-884 182.5,-884"/>
<text text-anchor="start" x="190.5" y="-905" font-family="Helvetica,sans-Serif" font-size="10.00">library::SymbolPolygon</text>
<text text-anchor="middle" x="241" y="-892" font-family="Helvetica,sans-Serif" font-size="10.00">::getWidth</text>
</a>
</g>
<!-- Node1&#45;&gt;Node10 -->
<g id="edge18" class="edge"><title>Node1&#45;&gt;Node10</title>
<path fill="none" stroke="midnightblue" d="M64.4928,-519.578C72.3485,-573.855 110.497,-820.65 162,-875 165.361,-878.547 169.215,-881.611 173.371,-884.257"/>
<polygon fill="midnightblue" stroke="midnightblue" points="171.815,-887.395 182.268,-889.123 175.174,-881.253 171.815,-887.395"/>
</g>
<!-- Node11 -->
<g id="node22" class="node"><title>Node11</title>
<a xlink:href="../../d1/d7f/classlibrary_1_1_symbol_polygon.html#afb5593c9c44f491b400edfa695fea7dc" target="_top" xlink:title="library::SymbolPolygon\l::isGrabArea">
<polygon fill="white" stroke="black" points="182.5,-832 182.5,-866 299.5,-866 299.5,-832 182.5,-832"/>
<text text-anchor="start" x="190.5" y="-853" font-family="Helvetica,sans-Serif" font-size="10.00">library::SymbolPolygon</text>
<text text-anchor="middle" x="241" y="-840" font-family="Helvetica,sans-Serif" font-size="10.00">::isGrabArea</text>
</a>
</g>
<!-- Node1&#45;&gt;Node11 -->
<g id="edge22" class="edge"><title>Node1&#45;&gt;Node11</title>
<path fill="none" stroke="midnightblue" d="M65.0158,-519.685C74.5818,-569.361 116.816,-777.246 162,-823 165.434,-826.477 169.34,-829.489 173.535,-832.098"/>
<polygon fill="midnightblue" stroke="midnightblue" points="172.023,-835.259 182.489,-836.909 175.336,-829.093 172.023,-835.259"/>
</g>
<!-- Node12 -->
<g id="node24" class="node"><title>Node12</title>
<a xlink:href="../../d9/db9/classlibrary_1_1_symbol.html#af3e51c69f130dab1acd01d41105c4ea3" target="_top" xlink:title="library::Symbol::getTexts">
<polygon fill="white" stroke="black" points="178,-792.5 178,-813.5 304,-813.5 304,-792.5 178,-792.5"/>
<text text-anchor="middle" x="241" y="-800.5" font-family="Helvetica,sans-Serif" font-size="10.00">library::Symbol::getTexts</text>
</a>
</g>
<!-- Node1&#45;&gt;Node12 -->
<g id="edge24" class="edge"><title>Node1&#45;&gt;Node12</title>
<path fill="none" stroke="midnightblue" d="M63.4456,-519.576C65.7543,-560.309 79.7166,-708.467 162,-783 164.019,-784.828 166.18,-786.495 168.452,-788.014"/>
<polygon fill="midnightblue" stroke="midnightblue" points="167.253,-791.352 177.691,-793.167 170.663,-785.239 167.253,-791.352"/>
</g>
<!-- Node13 -->
<g id="node26" class="node"><title>Node13</title>
<a xlink:href="../../db/df7/classlibrary_1_1_symbol_text.html#ab42d5f674bbe33d8d5a601bedfd7921e" target="_top" xlink:title="library::SymbolText\l::getText">
<polygon fill="white" stroke="black" points="190.5,-740 190.5,-774 291.5,-774 291.5,-740 190.5,-740"/>
<text text-anchor="start" x="198.5" y="-761" font-family="Helvetica,sans-Serif" font-size="10.00">library::SymbolText</text>
<text text-anchor="middle" x="241" y="-748" font-family="Helvetica,sans-Serif" font-size="10.00">::getText</text>
</a>
</g>
<!-- Node1&#45;&gt;Node13 -->
<g id="edge26" class="edge"><title>Node1&#45;&gt;Node13</title>
<path fill="none" stroke="midnightblue" d="M64.6237,-519.579C70.6052,-554.934 94.6708,-670.182 162,-731 167.525,-735.991 174.029,-740.026 180.894,-743.287"/>
<polygon fill="midnightblue" stroke="midnightblue" points="179.844,-746.642 190.42,-747.273 182.546,-740.185 179.844,-746.642"/>
</g>
<!-- Node14 -->
<g id="node28" class="node"><title>Node14</title>
<a xlink:href="../../d9/d41/class_i_f___attribute_provider.html#a64e9824168a64622ace994d0ce6dd8ba" target="_top" xlink:title="Replace all variables in a text with their attribute values. ">
<polygon fill="white" stroke="black" points="162.5,-688 162.5,-722 319.5,-722 319.5,-688 162.5,-688"/>
<text text-anchor="start" x="170.5" y="-709" font-family="Helvetica,sans-Serif" font-size="10.00">IF_AttributeProvider</text>
<text text-anchor="middle" x="241" y="-696" font-family="Helvetica,sans-Serif" font-size="10.00">::replaceVariablesWithAttributes</text>
</a>
</g>
<!-- Node1&#45;&gt;Node14 -->
<g id="edge28" class="edge"><title>Node1&#45;&gt;Node14</title>
<path fill="none" stroke="midnightblue" d="M66.1762,-519.544C75.6457,-549.197 106.527,-634.077 162,-679 163.557,-680.261 165.177,-681.461 166.849,-682.604"/>
<polygon fill="midnightblue" stroke="midnightblue" points="165.214,-685.705 175.589,-687.854 168.819,-679.704 165.214,-685.705"/>
</g>
<!-- Node15 -->
<g id="node30" class="node"><title>Node15</title>
<a xlink:href="../../db/df7/classlibrary_1_1_symbol_text.html#a0956fb9eaa66799447596d95c6f1e46d" target="_top" xlink:title="library::SymbolText\l::getHeight">
<polygon fill="white" stroke="black" points="190.5,-636 190.5,-670 291.5,-670 291.5,-636 190.5,-636"/>
<text text-anchor="start" x="198.5" y="-657" font-family="Helvetica,sans-Serif" font-size="10.00">library::SymbolText</text>
<text text-anchor="middle" x="241" y="-644" font-family="Helvetica,sans-Serif" font-size="10.00">::getHeight</text>
</a>
</g>
<!-- Node1&#45;&gt;Node15 -->
<g id="edge30" class="edge"><title>Node1&#45;&gt;Node15</title>
<path fill="none" stroke="midnightblue" d="M68.9855,-519.506C82.5576,-542.408 117.94,-597.158 162,-627 167.703,-630.863 174.023,-634.189 180.534,-637.044"/>
<polygon fill="midnightblue" stroke="midnightblue" points="179.573,-640.429 190.157,-640.897 182.175,-633.931 179.573,-640.429"/>
</g>
<!-- Node16 -->
<g id="node32" class="node"><title>Node16</title>
<a xlink:href="../../db/df7/classlibrary_1_1_symbol_text.html#a8c33abf636eed65eeeccb22558ba0880" target="_top" xlink:title="library::SymbolText\l::getAlign">
<polygon fill="white" stroke="black" points="190.5,-584 190.5,-618 291.5,-618 291.5,-584 190.5,-584"/>
<text text-anchor="start" x="198.5" y="-605" font-family="Helvetica,sans-Serif" font-size="10.00">library::SymbolText</text>
<text text-anchor="middle" x="241" y="-592" font-family="Helvetica,sans-Serif" font-size="10.00">::getAlign</text>
</a>
</g>
<!-- Node1&#45;&gt;Node16 -->
<g id="edge32" class="edge"><title>Node1&#45;&gt;Node16</title>
<path fill="none" stroke="midnightblue" d="M76.3844,-519.646C94.7761,-533.86 129.311,-559.089 162,-575 168.019,-577.93 174.448,-580.651 180.943,-583.143"/>
<polygon fill="midnightblue" stroke="midnightblue" points="179.87,-586.477 190.463,-586.628 182.276,-579.904 179.87,-586.477"/>
</g>
<!-- Node17 -->
<g id="node34" class="node"><title>Node17</title>
<a xlink:href="../../df/de9/class_alignment.html#a4fbb4767912b1fed45bc601018994247" target="_top" xlink:title="Alignment::toQtAlign">
<polygon fill="white" stroke="black" points="187.5,-544.5 187.5,-565.5 294.5,-565.5 294.5,-544.5 187.5,-544.5"/>
<text text-anchor="middle" x="241" y="-552.5" font-family="Helvetica,sans-Serif" font-size="10.00">Alignment::toQtAlign</text>
</a>
</g>
<!-- Node1&#45;&gt;Node17 -->
<g id="edge34" class="edge"><title>Node1&#45;&gt;Node17</title>
<path fill="none" stroke="midnightblue" d="M102.96,-519.581C120.988,-524.332 142.556,-529.986 162,-535 170.853,-537.283 180.271,-539.688 189.405,-542.008"/>
<polygon fill="midnightblue" stroke="midnightblue" points="188.61,-545.417 199.163,-544.482 190.33,-538.632 188.61,-545.417"/>
</g>
<!-- Node20 -->
<g id="node40" class="node"><title>Node20</title>
<a xlink:href="../../db/df7/classlibrary_1_1_symbol_text.html#a894842161e505b56d67b0cf5b0f50087" target="_top" xlink:title="library::SymbolText\l::getAngle">
<polygon fill="white" stroke="black" points="190.5,-492 190.5,-526 291.5,-526 291.5,-492 190.5,-492"/>
<text text-anchor="start" x="198.5" y="-513" font-family="Helvetica,sans-Serif" font-size="10.00">library::SymbolText</text>
<text text-anchor="middle" x="241" y="-500" font-family="Helvetica,sans-Serif" font-size="10.00">::getAngle</text>
</a>
</g>
<!-- Node1&#45;&gt;Node20 -->
<g id="edge40" class="edge"><title>Node1&#45;&gt;Node20</title>
<path fill="none" stroke="midnightblue" d="M125.506,-509C143.259,-509 162.559,-509 180.208,-509"/>
<polygon fill="midnightblue" stroke="midnightblue" points="180.385,-512.5 190.385,-509 180.385,-505.5 180.385,-512.5"/>
</g>
<!-- Node21 -->
<g id="node42" class="node"><title>Node21</title>
<a xlink:href="../../d2/d39/class_angle.html#a0f80113e23a69620a2d810b933e12a8d" target="_top" xlink:title="Get an Angle object with a specific angle. ">
<polygon fill="white" stroke="black" points="198.5,-452.5 198.5,-473.5 283.5,-473.5 283.5,-452.5 198.5,-452.5"/>
<text text-anchor="middle" x="241" y="-460.5" font-family="Helvetica,sans-Serif" font-size="10.00">Angle::fromDeg</text>
</a>
</g>
<!-- Node1&#45;&gt;Node21 -->
<g id="edge42" class="edge"><title>Node1&#45;&gt;Node21</title>
<path fill="none" stroke="midnightblue" d="M102.96,-498.419C120.988,-493.668 142.556,-488.014 162,-483 170.853,-480.717 180.271,-478.312 189.405,-475.992"/>
<polygon fill="midnightblue" stroke="midnightblue" points="190.33,-479.368 199.163,-473.518 188.61,-472.583 190.33,-479.368"/>
</g>
<!-- Node23 -->
<g id="node46" class="node"><title>Node23</title>
<a xlink:href="../../d2/d39/class_angle.html#a74e05120ac11f78df41f0a0304990f9f" target="_top" xlink:title="Map this Angle object to [&#45;180..+180[ degrees. ">
<polygon fill="white" stroke="black" points="186.5,-412.5 186.5,-433.5 295.5,-433.5 295.5,-412.5 186.5,-412.5"/>
<text text-anchor="middle" x="241" y="-420.5" font-family="Helvetica,sans-Serif" font-size="10.00">Angle::mapTo180deg</text>
</a>
</g>
<!-- Node1&#45;&gt;Node23 -->
<g id="edge46" class="edge"><title>Node1&#45;&gt;Node23</title>
<path fill="none" stroke="midnightblue" d="M75.9183,-498.264C94.0505,-483.711 128.585,-457.841 162,-443 167.384,-440.609 173.107,-438.466 178.916,-436.555"/>
<polygon fill="midnightblue" stroke="midnightblue" points="180.189,-439.825 188.728,-433.553 178.142,-433.131 180.189,-439.825"/>
</g>
<!-- Node24 -->
<g id="node48" class="node"><title>Node24</title>
<a xlink:href="../../d2/d39/class_angle.html#a7f29e0cf68871bab5b01569d78de4504" target="_top" xlink:title="90 degrees ">
<polygon fill="white" stroke="black" points="204,-372.5 204,-393.5 278,-393.5 278,-372.5 204,-372.5"/>
<text text-anchor="middle" x="241" y="-380.5" font-family="Helvetica,sans-Serif" font-size="10.00">Angle::deg90</text>
</a>
</g>
<!-- Node1&#45;&gt;Node24 -->
<g id="edge48" class="edge"><title>Node1&#45;&gt;Node24</title>
<path fill="none" stroke="midnightblue" d="M69.7635,-498.399C84.051,-476.905 119.51,-428.109 162,-403 171.698,-397.269 183.006,-393.168 193.984,-390.238"/>
<polygon fill="midnightblue" stroke="midnightblue" points="195.006,-393.592 203.918,-387.862 193.378,-386.784 195.006,-393.592"/>
</g>
<!-- Node26 -->
<g id="node52" class="node"><title>Node26</title>
<a xlink:href="../../df/de9/class_alignment.html#a93ac87426467e240e2b47877c20cb538" target="_top" xlink:title="Alignment::getV">
<polygon fill="white" stroke="black" points="198,-332.5 198,-353.5 284,-353.5 284,-332.5 198,-332.5"/>
<text text-anchor="middle" x="241" y="-340.5" font-family="Helvetica,sans-Serif" font-size="10.00">Alignment::getV</text>
</a>
</g>
<!-- Node1&#45;&gt;Node26 -->
<g id="edge52" class="edge"><title>Node1&#45;&gt;Node26</title>
<path fill="none" stroke="midnightblue" d="M67.1012,-498.216C78.0339,-470.982 110.593,-399.04 162,-363 169.824,-357.515 179.019,-353.532 188.316,-350.64"/>
<polygon fill="midnightblue" stroke="midnightblue" points="189.26,-354.01 197.988,-348.004 187.42,-347.257 189.26,-354.01"/>
</g>
<!-- Node27 -->
<g id="node54" class="node"><title>Node27</title>
<a xlink:href="../../d9/dbc/class_v_align.html#a5740c8bad67e52268042b18bc70857fe" target="_top" xlink:title="VAlign::top">
<polygon fill="white" stroke="black" points="208.5,-292.5 208.5,-313.5 273.5,-313.5 273.5,-292.5 208.5,-292.5"/>
<text text-anchor="middle" x="241" y="-300.5" font-family="Helvetica,sans-Serif" font-size="10.00">VAlign::top</text>
</a>
</g>
<!-- Node1&#45;&gt;Node27 -->
<g id="edge54" class="edge"><title>Node1&#45;&gt;Node27</title>
<path fill="none" stroke="midnightblue" d="M65.4705,-498.193C73.3891,-466.097 101.253,-370.617 162,-323 172.368,-314.873 185.644,-310.012 198.342,-307.117"/>
<polygon fill="midnightblue" stroke="midnightblue" points="199.178,-310.52 208.335,-305.191 197.853,-303.647 199.178,-310.52"/>
</g>
<!-- Node29 -->
<g id="node58" class="node"><title>Node29</title>
<a xlink:href="../../db/df7/classlibrary_1_1_symbol_text.html#ae23dd3ab799e9f70a4037eea91f69a82" target="_top" xlink:title="library::SymbolText\l::getPosition">
<polygon fill="white" stroke="black" points="190.5,-240 190.5,-274 291.5,-274 291.5,-240 190.5,-240"/>
<text text-anchor="start" x="198.5" y="-261" font-family="Helvetica,sans-Serif" font-size="10.00">library::SymbolText</text>
<text text-anchor="middle" x="241" y="-248" font-family="Helvetica,sans-Serif" font-size="10.00">::getPosition</text>
</a>
</g>
<!-- Node1&#45;&gt;Node29 -->
<g id="edge58" class="edge"><title>Node1&#45;&gt;Node29</title>
<path fill="none" stroke="midnightblue" d="M64.5213,-498.484C70.2369,-462.798 93.7032,-345.103 162,-283 167.508,-277.991 174.003,-273.945 180.862,-270.678"/>
<polygon fill="midnightblue" stroke="midnightblue" points="182.515,-273.78 190.384,-266.687 179.809,-267.324 182.515,-273.78"/>
</g>
<!-- Node30 -->
<g id="node61" class="node"><title>Node30</title>
<a xlink:href="../../d9/dbc/class_v_align.html#a32b7a6a37823d5451e6e037a446fe651" target="_top" xlink:title="VAlign::bottom">
<polygon fill="white" stroke="black" points="200.5,-200.5 200.5,-221.5 281.5,-221.5 281.5,-200.5 200.5,-200.5"/>
<text text-anchor="middle" x="241" y="-208.5" font-family="Helvetica,sans-Serif" font-size="10.00">VAlign::bottom</text>
</a>
</g>
<!-- Node1&#45;&gt;Node30 -->
<g id="edge62" class="edge"><title>Node1&#45;&gt;Node30</title>
<path fill="none" stroke="midnightblue" d="M63.3914,-498.273C65.5007,-456.961 78.8273,-306.688 162,-231 169.93,-223.784 180.087,-219.088 190.459,-216.051"/>
<polygon fill="midnightblue" stroke="midnightblue" points="191.52,-219.395 200.403,-213.621 189.858,-212.595 191.52,-219.395"/>
</g>
<!-- Node31 -->
<g id="node64" class="node"><title>Node31</title>
<a xlink:href="../../df/de9/class_alignment.html#a6339681132c1aa328fb76af8163337cf" target="_top" xlink:title="Alignment::getH">
<polygon fill="white" stroke="black" points="197.5,-160.5 197.5,-181.5 284.5,-181.5 284.5,-160.5 197.5,-160.5"/>
<text text-anchor="middle" x="241" y="-168.5" font-family="Helvetica,sans-Serif" font-size="10.00">Alignment::getH</text>
</a>
</g>
<!-- Node1&#45;&gt;Node31 -->
<g id="edge66" class="edge"><title>Node1&#45;&gt;Node31</title>
<path fill="none" stroke="midnightblue" d="M64.8657,-498.444C73.9082,-448.425 114.676,-235.841 162,-191 169.089,-184.283 178.098,-179.735 187.476,-176.673"/>
<polygon fill="midnightblue" stroke="midnightblue" points="188.59,-179.997 197.319,-173.992 186.75,-173.243 188.59,-179.997"/>
</g>
<!-- Node32 -->
<g id="node66" class="node"><title>Node32</title>
<a xlink:href="../../d7/d39/class_h_align.html#abced6c2fe3f1a0c121a5d221b99f1589" target="_top" xlink:title="HAlign::left">
<polygon fill="white" stroke="black" points="208.5,-80.5 208.5,-101.5 273.5,-101.5 273.5,-80.5 208.5,-80.5"/>
<text text-anchor="middle" x="241" y="-88.5" font-family="Helvetica,sans-Serif" font-size="10.00">HAlign::left</text>
</a>
</g>
<!-- Node1&#45;&gt;Node32 -->
<g id="edge68" class="edge"><title>Node1&#45;&gt;Node32</title>
<path fill="none" stroke="midnightblue" d="M64.1946,-498.204C70.7945,-440.469 104.597,-168.642 162,-111 171.626,-101.334 185.208,-96.1118 198.4,-93.3576"/>
<polygon fill="midnightblue" stroke="midnightblue" points="199.053,-96.7972 208.341,-91.6996 197.901,-89.8925 199.053,-96.7972"/>
</g>
<!-- Node34 -->
<g id="node70" class="node"><title>Node34</title>
<a xlink:href="../../d7/d39/class_h_align.html#a8874b1fe4a8642d61412c4cc857d539e" target="_top" xlink:title="HAlign::right">
<polygon fill="white" stroke="black" points="205.5,-40.5 205.5,-61.5 276.5,-61.5 276.5,-40.5 205.5,-40.5"/>
<text text-anchor="middle" x="241" y="-48.5" font-family="Helvetica,sans-Serif" font-size="10.00">HAlign::right</text>
</a>
</g>
<!-- Node1&#45;&gt;Node34 -->
<g id="edge72" class="edge"><title>Node1&#45;&gt;Node34</title>
<path fill="none" stroke="midnightblue" d="M63.9197,-498.351C69.3774,-437.59 99.4238,-135.203 162,-71 170.795,-61.9765 183.032,-56.8108 195.252,-53.9109"/>
<polygon fill="midnightblue" stroke="midnightblue" points="196.267,-57.2806 205.436,-51.9729 194.958,-50.404 196.267,-57.2806"/>
</g>
<!-- Node35 -->
<g id="node73" class="node"><title>Node35</title>
<a xlink:href="../../d9/dbc/class_v_align.html#ab7f47ae1b686f741af8b21ccc3eab465" target="_top" xlink:title="VAlign::center">
<polygon fill="white" stroke="black" points="202,-120.5 202,-141.5 280,-141.5 280,-120.5 202,-120.5"/>
<text text-anchor="middle" x="241" y="-128.5" font-family="Helvetica,sans-Serif" font-size="10.00">VAlign::center</text>
</a>
</g>
<!-- Node1&#45;&gt;Node35 -->
<g id="edge76" class="edge"><title>Node1&#45;&gt;Node35</title>
<path fill="none" stroke="midnightblue" d="M64.5094,-498.229C72.3064,-444.081 109.684,-202.186 162,-151 170.052,-143.122 180.738,-138.209 191.64,-135.18"/>
<polygon fill="midnightblue" stroke="midnightblue" points="192.674,-138.534 201.644,-132.897 191.116,-131.71 192.674,-138.534"/>
</g>
<!-- Node36 -->
<g id="node76" class="node"><title>Node36</title>
<a xlink:href="../../d7/d39/class_h_align.html#af22e83faa8a2815e1384ffd24e1aac6f" target="_top" xlink:title="HAlign::center">
<polygon fill="white" stroke="black" points="201.5,-0.5 201.5,-21.5 280.5,-21.5 280.5,-0.5 201.5,-0.5"/>
<text text-anchor="middle" x="241" y="-8.5" font-family="Helvetica,sans-Serif" font-size="10.00">HAlign::center</text>
</a>
</g>
<!-- Node1&#45;&gt;Node36 -->
<g id="edge80" class="edge"><title>Node1&#45;&gt;Node36</title>
<path fill="none" stroke="midnightblue" d="M63.7116,-498.238C68.1723,-434.01 94.3159,-101.71 162,-31 169.79,-22.862 180.376,-17.8515 191.266,-14.8103"/>
<polygon fill="midnightblue" stroke="midnightblue" points="192.304,-18.164 201.281,-12.5378 190.755,-11.3375 192.304,-18.164"/>
</g>
<!-- Node3&#45;&gt;Node4 -->
<g id="edge6" class="edge"><title>Node3&#45;&gt;Node4</title>
<path fill="none" stroke="midnightblue" d="M299.655,-1041.49C307.125,-1045.38 314.179,-1050.15 320,-1056 351.268,-1087.41 322.861,-1119.57 356,-1149 361.127,-1153.55 367.152,-1157.1 373.543,-1159.85"/>
<polygon fill="midnightblue" stroke="midnightblue" points="372.514,-1163.2 383.107,-1163.34 374.915,-1156.62 372.514,-1163.2"/>
</g>
<!-- Node6 -->
<g id="node11" class="node"><title>Node6</title>
<a xlink:href="../../d9/d94/classlibrary_1_1_symbol_polygon_segment.html#a894842161e505b56d67b0cf5b0f50087" target="_top" xlink:title="library::SymbolPolygonSegment\l::getAngle">
<polygon fill="white" stroke="black" points="356,-1106 356,-1140 512,-1140 512,-1106 356,-1106"/>
<text text-anchor="start" x="364" y="-1127" font-family="Helvetica,sans-Serif" font-size="10.00">library::SymbolPolygonSegment</text>
<text text-anchor="middle" x="434" y="-1114" font-family="Helvetica,sans-Serif" font-size="10.00">::getAngle</text>
</a>
</g>
<!-- Node3&#45;&gt;Node6 -->
<g id="edge10" class="edge"><title>Node3&#45;&gt;Node6</title>
<path fill="none" stroke="midnightblue" d="M294.633,-1042.01C303.486,-1045.94 312.283,-1050.58 320,-1056 339.847,-1069.93 335.796,-1083.59 356,-1097 358.263,-1098.5 360.621,-1099.92 363.047,-1101.27"/>
<polygon fill="midnightblue" stroke="midnightblue" points="361.575,-1104.45 372.081,-1105.82 364.723,-1098.2 361.575,-1104.45"/>
</g>
<!-- Node7 -->
<g id="node13" class="node"><title>Node7</title>
<a xlink:href="../../d9/d94/classlibrary_1_1_symbol_polygon_segment.html#af89771a9eb5882eaee9f298f663f89dc" target="_top" xlink:title="library::SymbolPolygonSegment\l::getEndPos">
<polygon fill="white" stroke="black" points="356,-1054 356,-1088 512,-1088 512,-1054 356,-1054"/>
<text text-anchor="start" x="364" y="-1075" font-family="Helvetica,sans-Serif" font-size="10.00">library::SymbolPolygonSegment</text>
<text text-anchor="middle" x="434" y="-1062" font-family="Helvetica,sans-Serif" font-size="10.00">::getEndPos</text>
</a>
</g>
<!-- Node3&#45;&gt;Node7 -->
<g id="edge12" class="edge"><title>Node3&#45;&gt;Node7</title>
<path fill="none" stroke="midnightblue" d="M299.692,-1038.99C316.442,-1042.98 334.997,-1047.4 352.834,-1051.65"/>
<polygon fill="midnightblue" stroke="midnightblue" points="352.115,-1055.08 362.654,-1054 353.738,-1048.27 352.115,-1055.08"/>
</g>
<!-- Node8 -->
<g id="node15" class="node"><title>Node8</title>
<a xlink:href="../../d2/d39/class_angle.html#a70d223e0c1188606f971188d6f23b66f" target="_top" xlink:title="Get the angle in radians. ">
<polygon fill="white" stroke="black" points="397,-1014.5 397,-1035.5 471,-1035.5 471,-1014.5 397,-1014.5"/>
<text text-anchor="middle" x="434" y="-1022.5" font-family="Helvetica,sans-Serif" font-size="10.00">Angle::toRad</text>
</a>
</g>
<!-- Node3&#45;&gt;Node8 -->
<g id="edge14" class="edge"><title>Node3&#45;&gt;Node8</title>
<path fill="none" stroke="midnightblue" d="M299.692,-1025C327.595,-1025 360.508,-1025 386.768,-1025"/>
<polygon fill="midnightblue" stroke="midnightblue" points="386.847,-1028.5 396.847,-1025 386.847,-1021.5 386.847,-1028.5"/>
</g>
<!-- Node9 -->
<g id="node17" class="node"><title>Node9</title>
<a xlink:href="../../d2/d39/class_angle.html#ad2926beabd4d66cc5bc1ac4c622540ea" target="_top" xlink:title="Get the Angle in degrees. ">
<polygon fill="white" stroke="black" points="397,-974.5 397,-995.5 471,-995.5 471,-974.5 397,-974.5"/>
<text text-anchor="middle" x="434" y="-982.5" font-family="Helvetica,sans-Serif" font-size="10.00">Angle::toDeg</text>
</a>
</g>
<!-- Node3&#45;&gt;Node9 -->
<g id="edge16" class="edge"><title>Node3&#45;&gt;Node9</title>
<path fill="none" stroke="midnightblue" d="M299.692,-1012.84C327.595,-1007.05 360.508,-1000.23 386.768,-994.789"/>
<polygon fill="midnightblue" stroke="midnightblue" points="387.765,-998.157 396.847,-992.7 386.345,-991.302 387.765,-998.157"/>
</g>
<!-- Node4&#45;&gt;Node5 -->
<g id="edge8" class="edge"><title>Node4&#45;&gt;Node5</title>
<path fill="none" stroke="midnightblue" d="M484.721,-1161.15C494.265,-1158.27 503.809,-1154.35 512,-1149 539.994,-1130.7 561.796,-1097.81 573.769,-1076.71"/>
<polygon fill="midnightblue" stroke="midnightblue" points="576.98,-1078.14 578.704,-1067.68 570.837,-1074.78 576.98,-1078.14"/>
</g>
<!-- Node18 -->
<g id="node36" class="node"><title>Node18</title>
<a xlink:href="../../d7/d39/class_h_align.html#a5947e6026a6c38886e5598e032fa7317" target="_top" xlink:title="HAlign::toQtAlignFlag">
<polygon fill="white" stroke="black" points="378.5,-564.5 378.5,-585.5 489.5,-585.5 489.5,-564.5 378.5,-564.5"/>
<text text-anchor="middle" x="434" y="-572.5" font-family="Helvetica,sans-Serif" font-size="10.00">HAlign::toQtAlignFlag</text>
</a>
</g>
<!-- Node17&#45;&gt;Node18 -->
<g id="edge36" class="edge"><title>Node17&#45;&gt;Node18</title>
<path fill="none" stroke="midnightblue" d="M294.505,-560.545C317.346,-562.912 344.227,-565.697 368.264,-568.188"/>
<polygon fill="midnightblue" stroke="midnightblue" points="368.064,-571.686 378.372,-569.235 368.786,-564.723 368.064,-571.686"/>
</g>
<!-- Node19 -->
<g id="node38" class="node"><title>Node19</title>
<a xlink:href="../../d9/dbc/class_v_align.html#a5947e6026a6c38886e5598e032fa7317" target="_top" xlink:title="VAlign::toQtAlignFlag">
<polygon fill="white" stroke="black" points="379,-524.5 379,-545.5 489,-545.5 489,-524.5 379,-524.5"/>
<text text-anchor="middle" x="434" y="-532.5" font-family="Helvetica,sans-Serif" font-size="10.00">VAlign::toQtAlignFlag</text>
</a>
</g>
<!-- Node17&#45;&gt;Node19 -->
<g id="edge38" class="edge"><title>Node17&#45;&gt;Node19</title>
<path fill="none" stroke="midnightblue" d="M294.505,-549.455C317.444,-547.078 344.457,-544.279 368.572,-541.78"/>
<polygon fill="midnightblue" stroke="midnightblue" points="369.124,-545.242 378.71,-540.73 368.402,-538.279 369.124,-545.242"/>
</g>
<!-- Node22 -->
<g id="node44" class="node"><title>Node22</title>
<a xlink:href="../../d2/d39/class_angle.html#a2dd720121a7300f3f5c8a03aaf488ce5" target="_top" xlink:title="Set the angle in degrees. ">
<polygon fill="white" stroke="black" points="382,-452.5 382,-473.5 486,-473.5 486,-452.5 382,-452.5"/>
<text text-anchor="middle" x="434" y="-460.5" font-family="Helvetica,sans-Serif" font-size="10.00">Angle::setAngleDeg</text>
</a>
</g>
<!-- Node21&#45;&gt;Node22 -->
<g id="edge44" class="edge"><title>Node21&#45;&gt;Node22</title>
<path fill="none" stroke="midnightblue" d="M283.833,-463C309.549,-463 342.72,-463 371.343,-463"/>
<polygon fill="midnightblue" stroke="midnightblue" points="371.66,-466.5 381.66,-463 371.66,-459.5 371.66,-466.5"/>
</g>
<!-- Node25 -->
<g id="node50" class="node"><title>Node25</title>
<a xlink:href="../../d2/d39/class_angle.html#ae0cfbf0d84fd0eab0f9dfc1b365b8667" target="_top" xlink:title="Default Constructor. ">
<polygon fill="white" stroke="black" points="398,-372.5 398,-393.5 470,-393.5 470,-372.5 398,-372.5"/>
<text text-anchor="middle" x="434" y="-380.5" font-family="Helvetica,sans-Serif" font-size="10.00">Angle::Angle</text>
</a>
</g>
<!-- Node24&#45;&gt;Node25 -->
<g id="edge50" class="edge"><title>Node24&#45;&gt;Node25</title>
<path fill="none" stroke="midnightblue" d="M278.212,-383C309.482,-383 354.312,-383 387.86,-383"/>
<polygon fill="midnightblue" stroke="midnightblue" points="387.882,-386.5 397.882,-383 387.882,-379.5 387.882,-386.5"/>
</g>
<!-- Node28 -->
<g id="node56" class="node"><title>Node28</title>
<a xlink:href="../../d9/dbc/class_v_align.html#aa9d4e983876662a3c9af6fee862092b1" target="_top" xlink:title="VAlign::VAlign">
<polygon fill="white" stroke="black" points="394,-200.5 394,-221.5 474,-221.5 474,-200.5 394,-200.5"/>
<text text-anchor="middle" x="434" y="-208.5" font-family="Helvetica,sans-Serif" font-size="10.00">VAlign::VAlign</text>
</a>
</g>
<!-- Node27&#45;&gt;Node28 -->
<g id="edge56" class="edge"><title>Node27&#45;&gt;Node28</title>
<path fill="none" stroke="midnightblue" d="M273.661,-297.156C288.196,-293.945 305.31,-289.309 320,-283 354.369,-268.24 390.247,-243.855 412.361,-227.611"/>
<polygon fill="midnightblue" stroke="midnightblue" points="414.479,-230.397 420.404,-221.613 410.295,-224.785 414.479,-230.397"/>
</g>
<!-- Node30&#45;&gt;Node28 -->
<g id="edge64" class="edge"><title>Node30&#45;&gt;Node28</title>
<path fill="none" stroke="midnightblue" d="M281.93,-211C311.555,-211 351.78,-211 383.418,-211"/>
<polygon fill="midnightblue" stroke="midnightblue" points="383.791,-214.5 393.79,-211 383.79,-207.5 383.791,-214.5"/>
</g>
<!-- Node33 -->
<g id="node68" class="node"><title>Node33</title>
<a xlink:href="../../d7/d39/class_h_align.html#a3140789af70e17b0724f8fa8f2f5035b" target="_top" xlink:title="HAlign::HAlign">
<polygon fill="white" stroke="black" points="393.5,-40.5 393.5,-61.5 474.5,-61.5 474.5,-40.5 393.5,-40.5"/>
<text text-anchor="middle" x="434" y="-48.5" font-family="Helvetica,sans-Serif" font-size="10.00">HAlign::HAlign</text>
</a>
</g>
<!-- Node32&#45;&gt;Node33 -->
<g id="edge70" class="edge"><title>Node32&#45;&gt;Node33</title>
<path fill="none" stroke="midnightblue" d="M273.74,-84.2145C303.79,-77.9865 348.772,-68.6639 383.437,-61.4793"/>
<polygon fill="midnightblue" stroke="midnightblue" points="384.296,-64.8759 393.377,-59.4192 382.875,-58.0215 384.296,-64.8759"/>
</g>
<!-- Node34&#45;&gt;Node33 -->
<g id="edge74" class="edge"><title>Node34&#45;&gt;Node33</title>
<path fill="none" stroke="midnightblue" d="M276.85,-51C306.784,-51 349.811,-51 383.278,-51"/>
<polygon fill="midnightblue" stroke="midnightblue" points="383.332,-54.5001 393.332,-51 383.332,-47.5001 383.332,-54.5001"/>
</g>
<!-- Node35&#45;&gt;Node28 -->
<g id="edge78" class="edge"><title>Node35&#45;&gt;Node28</title>
<path fill="none" stroke="midnightblue" d="M280.143,-138.972C293.039,-142.108 307.319,-146.136 320,-151 351.568,-163.107 385.606,-181.838 408.189,-195.148"/>
<polygon fill="midnightblue" stroke="midnightblue" points="406.454,-198.188 416.834,-200.309 410.042,-192.178 406.454,-198.188"/>
</g>
<!-- Node36&#45;&gt;Node33 -->
<g id="edge82" class="edge"><title>Node36&#45;&gt;Node33</title>
<path fill="none" stroke="midnightblue" d="M280.522,-19.1911C310.177,-25.3372 351.016,-33.8013 383.112,-40.4533"/>
<polygon fill="midnightblue" stroke="midnightblue" points="382.698,-43.9418 393.201,-42.5442 384.119,-37.0875 382.698,-43.9418"/>
</g>
</g>
</svg>
