<?xml version="1.0" encoding="UTF-8" standalone="no"?>
<!DOCTYPE svg PUBLIC "-//W3C//DTD SVG 1.1//EN"
 "http://www.w3.org/Graphics/SVG/1.1/DTD/svg11.dtd">
<!-- Generated by graphviz version 2.26.3 (20100126.1600)
 -->
<!-- Title: /home/travis/build/LibrePCB/LibrePCB/libs/librepcblibrary/sym/symbolpin.h Pages: 1 -->
<svg width="2507pt" height="374pt"
 viewBox="0.00 0.00 2507.00 374.00" xmlns="http://www.w3.org/2000/svg" xmlns:xlink="http://www.w3.org/1999/xlink">
<g id="graph1" class="graph" transform="scale(1 1) rotate(0) translate(4 370)">
<title>/home/travis/build/LibrePCB/LibrePCB/libs/librepcblibrary/sym/symbolpin.h</title>
<polygon fill="white" stroke="white" points="-4,5 -4,-370 2504,-370 2504,5 -4,5"/>
<!-- Node1 -->
<g id="node1" class="node"><title>Node1</title>
<polygon fill="#bfbfbf" stroke="black" points="1812.5,-318.5 1812.5,-365.5 1969.5,-365.5 1969.5,-318.5 1812.5,-318.5"/>
<text text-anchor="start" x="1820.5" y="-352.5" font-family="Helvetica,sans-Serif" font-size="10.00">/home/travis/build</text>
<text text-anchor="start" x="1820.5" y="-339.5" font-family="Helvetica,sans-Serif" font-size="10.00">/LibrePCB/LibrePCB/libs</text>
<text text-anchor="middle" x="1891" y="-326.5" font-family="Helvetica,sans-Serif" font-size="10.00">/librepcblibrary/sym/symbolpin.h</text>
</g>
<!-- Node2 -->
<g id="node3" class="node"><title>Node2</title>
<a xlink:href="../../df/d70/symbol_8h.html" target="_top" xlink:title="/home/travis/build\l/LibrePCB/LibrePCB/libs\l/librepcblibrary/sym/symbol.h">
<polygon fill="white" stroke="black" points="982,-221.5 982,-268.5 1126,-268.5 1126,-221.5 982,-221.5"/>
<text text-anchor="start" x="990" y="-255.5" font-family="Helvetica,sans-Serif" font-size="10.00">/home/travis/build</text>
<text text-anchor="start" x="990" y="-242.5" font-family="Helvetica,sans-Serif" font-size="10.00">/LibrePCB/LibrePCB/libs</text>
<text text-anchor="middle" x="1054" y="-229.5" font-family="Helvetica,sans-Serif" font-size="10.00">/librepcblibrary/sym/symbol.h</text>
</a>
</g>
<!-- Node1&#45;&gt;Node2 -->
<g id="edge2" class="edge"><title>Node1&#45;&gt;Node2</title>
<path fill="none" stroke="midnightblue" d="M1802.04,-331.691C1635.39,-312.377 1279.2,-271.099 1126.24,-253.372"/>
<polygon fill="midnightblue" stroke="midnightblue" points="1801.92,-335.2 1812.26,-332.874 1802.73,-328.246 1801.92,-335.2"/>
</g>
<!-- Node11 -->
<g id="node21" class="node"><title>Node11</title>
<a xlink:href="../../d5/d35/si__symbolpin_8cpp.html" target="_top" xlink:title="/home/travis/build\l/LibrePCB/LibrePCB/libs\l/librepcbproject/schematics\l/items/si_symbolpin.cpp">
<polygon fill="white" stroke="black" points="1799,-105 1799,-165 1935,-165 1935,-105 1799,-105"/>
<text text-anchor="start" x="1807" y="-152" font-family="Helvetica,sans-Serif" font-size="10.00">/home/travis/build</text>
<text text-anchor="start" x="1807" y="-139" font-family="Helvetica,sans-Serif" font-size="10.00">/LibrePCB/LibrePCB/libs</text>
<text text-anchor="start" x="1807" y="-126" font-family="Helvetica,sans-Serif" font-size="10.00">/librepcbproject/schematics</text>
<text text-anchor="middle" x="1867" y="-113" font-family="Helvetica,sans-Serif" font-size="10.00">/items/si_symbolpin.cpp</text>
</a>
</g>
<!-- Node1&#45;&gt;Node11 -->
<g id="edge34" class="edge"><title>Node1&#45;&gt;Node11</title>
<path fill="none" stroke="midnightblue" d="M1802.03,-337.763C1717.47,-331.651 1599.02,-316.945 1570,-282 1548.99,-256.698 1548.7,-233.063 1570,-208 1602.08,-170.248 1742.75,-186.88 1790,-172 1796.22,-170.04 1802.58,-167.661 1808.85,-165.064"/>
<polygon fill="midnightblue" stroke="midnightblue" points="1801.95,-341.266 1812.17,-338.467 1802.43,-334.283 1801.95,-341.266"/>
</g>
<!-- Node15 -->
<g id="node29" class="node"><title>Node15</title>
<a xlink:href="../../d3/d23/symbolpin_8cpp.html" target="_top" xlink:title="/home/travis/build\l/LibrePCB/LibrePCB/libs\l/librepcblibrary/sym/symbolpin.cpp">
<polygon fill="white" stroke="black" points="1578.5,-221.5 1578.5,-268.5 1745.5,-268.5 1745.5,-221.5 1578.5,-221.5"/>
<text text-anchor="start" x="1586.5" y="-255.5" font-family="Helvetica,sans-Serif" font-size="10.00">/home/travis/build</text>
<text text-anchor="start" x="1586.5" y="-242.5" font-family="Helvetica,sans-Serif" font-size="10.00">/LibrePCB/LibrePCB/libs</text>
<text text-anchor="middle" x="1662" y="-229.5" font-family="Helvetica,sans-Serif" font-size="10.00">/librepcblibrary/sym/symbolpin.cpp</text>
</a>
</g>
<!-- Node1&#45;&gt;Node15 -->
<g id="edge28" class="edge"><title>Node1&#45;&gt;Node15</title>
<path fill="none" stroke="midnightblue" d="M1825.84,-314.399C1791.66,-299.921 1750.23,-282.371 1717.58,-268.542"/>
<polygon fill="midnightblue" stroke="midnightblue" points="1824.7,-317.718 1835.27,-318.395 1827.43,-311.272 1824.7,-317.718"/>
</g>
<!-- Node16 -->
<g id="node31" class="node"><title>Node16</title>
<a xlink:href="../../d9/ded/symbolpinpreviewgraphicsitem_8cpp.html" target="_top" xlink:title="/home/travis/build\l/LibrePCB/LibrePCB/libs\l/librepcblibrary/sym/symbolpinpreviewgraphicsitem.cpp">
<polygon fill="white" stroke="black" points="1762.5,-221.5 1762.5,-268.5 2019.5,-268.5 2019.5,-221.5 1762.5,-221.5"/>
<text text-anchor="start" x="1770.5" y="-255.5" font-family="Helvetica,sans-Serif" font-size="10.00">/home/travis/build</text>
<text text-anchor="start" x="1770.5" y="-242.5" font-family="Helvetica,sans-Serif" font-size="10.00">/LibrePCB/LibrePCB/libs</text>
<text text-anchor="middle" x="1891" y="-229.5" font-family="Helvetica,sans-Serif" font-size="10.00">/librepcblibrary/sym/symbolpinpreviewgraphicsitem.cpp</text>
</a>
</g>
<!-- Node1&#45;&gt;Node16 -->
<g id="edge30" class="edge"><title>Node1&#45;&gt;Node16</title>
<path fill="none" stroke="midnightblue" d="M1891,-308.019C1891,-295.036 1891,-280.524 1891,-268.702"/>
<polygon fill="midnightblue" stroke="midnightblue" points="1887.5,-308.022 1891,-318.022 1894.5,-308.023 1887.5,-308.022"/>
</g>
<!-- Node17 -->
<g id="node33" class="node"><title>Node17</title>
<a xlink:href="../../d9/d24/sgi__symbolpin_8cpp.html" target="_top" xlink:title="/home/travis/build\l/LibrePCB/LibrePCB/libs\l/librepcbproject/schematics\l/graphicsitems/sgi_symbolpin.cpp">
<polygon fill="white" stroke="black" points="2037,-215 2037,-275 2201,-275 2201,-215 2037,-215"/>
<text text-anchor="start" x="2045" y="-262" font-family="Helvetica,sans-Serif" font-size="10.00">/home/travis/build</text>
<text text-anchor="start" x="2045" y="-249" font-family="Helvetica,sans-Serif" font-size="10.00">/LibrePCB/LibrePCB/libs</text>
<text text-anchor="start" x="2045" y="-236" font-family="Helvetica,sans-Serif" font-size="10.00">/librepcbproject/schematics</text>
<text text-anchor="middle" x="2119" y="-223" font-family="Helvetica,sans-Serif" font-size="10.00">/graphicsitems/sgi_symbolpin.cpp</text>
</a>
</g>
<!-- Node1&#45;&gt;Node17 -->
<g id="edge32" class="edge"><title>Node1&#45;&gt;Node17</title>
<path fill="none" stroke="midnightblue" d="M1956.03,-314.336C1984.78,-302.101 2018.68,-287.681 2048.08,-275.17"/>
<polygon fill="midnightblue" stroke="midnightblue" points="1954.32,-311.26 1946.48,-318.395 1957.06,-317.701 1954.32,-311.26"/>
</g>
<!-- Node18 -->
<g id="node36" class="node"><title>Node18</title>
<a xlink:href="../../dc/db2/schematic_8cpp.html" target="_top" xlink:title="/home/travis/build\l/LibrePCB/LibrePCB/libs\l/librepcbproject/schematics\l/schematic.cpp">
<polygon fill="white" stroke="black" points="2219,-215 2219,-275 2355,-275 2355,-215 2219,-215"/>
<text text-anchor="start" x="2227" y="-262" font-family="Helvetica,sans-Serif" font-size="10.00">/home/travis/build</text>
<text text-anchor="start" x="2227" y="-249" font-family="Helvetica,sans-Serif" font-size="10.00">/LibrePCB/LibrePCB/libs</text>
<text text-anchor="start" x="2227" y="-236" font-family="Helvetica,sans-Serif" font-size="10.00">/librepcbproject/schematics</text>
<text text-anchor="middle" x="2287" y="-223" font-family="Helvetica,sans-Serif" font-size="10.00">/schematic.cpp</text>
</a>
</g>
<!-- Node1&#45;&gt;Node18 -->
<g id="edge36" class="edge"><title>Node1&#45;&gt;Node18</title>
<path fill="none" stroke="midnightblue" d="M1979.98,-331.63C2044.85,-322.546 2134.27,-306.839 2210,-282 2216.06,-280.012 2222.26,-277.649 2228.37,-275.091"/>
<polygon fill="midnightblue" stroke="midnightblue" points="1979.22,-328.202 1969.79,-333.031 1980.17,-335.136 1979.22,-328.202"/>
</g>
<!-- Node19 -->
<g id="node38" class="node"><title>Node19</title>
<a xlink:href="../../df/d6c/ses__drawwire_8cpp.html" target="_top" xlink:title="/home/travis/build\l/LibrePCB/LibrePCB/libs\l/librepcbprojecteditor\l/schematiceditor/fsm/ses\l_drawwire.cpp">
<polygon fill="white" stroke="black" points="2372.5,-208.5 2372.5,-281.5 2499.5,-281.5 2499.5,-208.5 2372.5,-208.5"/>
<text text-anchor="start" x="2380.5" y="-268.5" font-family="Helvetica,sans-Serif" font-size="10.00">/home/travis/build</text>
<text text-anchor="start" x="2380.5" y="-255.5" font-family="Helvetica,sans-Serif" font-size="10.00">/LibrePCB/LibrePCB/libs</text>
<text text-anchor="start" x="2380.5" y="-242.5" font-family="Helvetica,sans-Serif" font-size="10.00">/librepcbprojecteditor</text>
<text text-anchor="start" x="2380.5" y="-229.5" font-family="Helvetica,sans-Serif" font-size="10.00">/schematiceditor/fsm/ses</text>
<text text-anchor="middle" x="2436" y="-216.5" font-family="Helvetica,sans-Serif" font-size="10.00">_drawwire.cpp</text>
</a>
</g>
<!-- Node1&#45;&gt;Node19 -->
<g id="edge38" class="edge"><title>Node1&#45;&gt;Node19</title>
<path fill="none" stroke="midnightblue" d="M1979.61,-334.464C2096.14,-323.915 2294.28,-303.601 2364,-282 2366.68,-281.168 2369.39,-280.241 2372.09,-279.237"/>
<polygon fill="midnightblue" stroke="midnightblue" points="1979.28,-330.98 1969.63,-335.361 1979.9,-337.951 1979.28,-330.98"/>
</g>
<!-- Node3 -->
<g id="node5" class="node"><title>Node3</title>
<a xlink:href="../../de/d98/elements_8h.html" target="_top" xlink:title="/home/travis/build\l/LibrePCB/LibrePCB/libs\l/librepcblibrary/elements.h">
<polygon fill="white" stroke="black" points="26.5,-111.5 26.5,-158.5 157.5,-158.5 157.5,-111.5 26.5,-111.5"/>
<text text-anchor="start" x="34.5" y="-145.5" font-family="Helvetica,sans-Serif" font-size="10.00">/home/travis/build</text>
<text text-anchor="start" x="34.5" y="-132.5" font-family="Helvetica,sans-Serif" font-size="10.00">/LibrePCB/LibrePCB/libs</text>
<text text-anchor="middle" x="92" y="-119.5" font-family="Helvetica,sans-Serif" font-size="10.00">/librepcblibrary/elements.h</text>
</a>
</g>
<!-- Node2&#45;&gt;Node3 -->
<g id="edge4" class="edge"><title>Node2&#45;&gt;Node3</title>
<path fill="none" stroke="midnightblue" d="M971.618,-242.223C781.379,-235.167 316.296,-214.055 166,-172 154.657,-168.826 142.989,-163.889 132.367,-158.645"/>
<polygon fill="midnightblue" stroke="midnightblue" points="971.714,-245.729 981.836,-242.598 971.971,-238.734 971.714,-245.729"/>
</g>
<!-- Node5 -->
<g id="node9" class="node"><title>Node5</title>
<a xlink:href="../../d7/d7d/library_8cpp.html" target="_top" xlink:title="/home/travis/build\l/LibrePCB/LibrePCB/libs\l/librepcblibrary/library.cpp">
<polygon fill="white" stroke="black" points="175,-111.5 175,-158.5 303,-158.5 303,-111.5 175,-111.5"/>
<text text-anchor="start" x="183" y="-145.5" font-family="Helvetica,sans-Serif" font-size="10.00">/home/travis/build</text>
<text text-anchor="start" x="183" y="-132.5" font-family="Helvetica,sans-Serif" font-size="10.00">/LibrePCB/LibrePCB/libs</text>
<text text-anchor="middle" x="239" y="-119.5" font-family="Helvetica,sans-Serif" font-size="10.00">/librepcblibrary/library.cpp</text>
</a>
</g>
<!-- Node2&#45;&gt;Node5 -->
<g id="edge8" class="edge"><title>Node2&#45;&gt;Node5</title>
<path fill="none" stroke="midnightblue" d="M971.575,-240.736C805.038,-231.494 433.951,-207.542 312,-172 300.814,-168.74 289.305,-163.772 278.826,-158.525"/>
<polygon fill="midnightblue" stroke="midnightblue" points="971.585,-244.242 981.763,-241.298 971.97,-237.253 971.585,-244.242"/>
</g>
<!-- Node6 -->
<g id="node11" class="node"><title>Node6</title>
<a xlink:href="../../d8/d67/symbol_8cpp.html" target="_top" xlink:title="/home/travis/build\l/LibrePCB/LibrePCB/libs\l/librepcblibrary/sym/symbol.cpp">
<polygon fill="white" stroke="black" points="320.5,-111.5 320.5,-158.5 475.5,-158.5 475.5,-111.5 320.5,-111.5"/>
<text text-anchor="start" x="328.5" y="-145.5" font-family="Helvetica,sans-Serif" font-size="10.00">/home/travis/build</text>
<text text-anchor="start" x="328.5" y="-132.5" font-family="Helvetica,sans-Serif" font-size="10.00">/LibrePCB/LibrePCB/libs</text>
<text text-anchor="middle" x="398" y="-119.5" font-family="Helvetica,sans-Serif" font-size="10.00">/librepcblibrary/sym/symbol.cpp</text>
</a>
</g>
<!-- Node2&#45;&gt;Node6 -->
<g id="edge10" class="edge"><title>Node2&#45;&gt;Node6</title>
<path fill="none" stroke="midnightblue" d="M971.43,-241.634C859.286,-235.442 653.38,-218.301 484,-172 471.457,-168.571 458.355,-163.672 446.268,-158.557"/>
<polygon fill="midnightblue" stroke="midnightblue" points="971.481,-245.141 981.655,-242.182 971.856,-238.151 971.481,-245.141"/>
</g>
<!-- Node7 -->
<g id="node13" class="node"><title>Node7</title>
<a xlink:href="../../d0/d05/symbolpreviewgraphicsitem_8cpp.html" target="_top" xlink:title="/home/travis/build\l/LibrePCB/LibrePCB/libs\l/librepcblibrary/sym/symbolpreviewgraphicsitem.cpp">
<polygon fill="white" stroke="black" points="493,-111.5 493,-158.5 737,-158.5 737,-111.5 493,-111.5"/>
<text text-anchor="start" x="501" y="-145.5" font-family="Helvetica,sans-Serif" font-size="10.00">/home/travis/build</text>
<text text-anchor="start" x="501" y="-132.5" font-family="Helvetica,sans-Serif" font-size="10.00">/LibrePCB/LibrePCB/libs</text>
<text text-anchor="middle" x="615" y="-119.5" font-family="Helvetica,sans-Serif" font-size="10.00">/librepcblibrary/sym/symbolpreviewgraphicsitem.cpp</text>
</a>
</g>
<!-- Node2&#45;&gt;Node7 -->
<g id="edge12" class="edge"><title>Node2&#45;&gt;Node7</title>
<path fill="none" stroke="midnightblue" d="M972.147,-226.598C909.948,-212.373 822.365,-191.825 746,-172 729.873,-167.814 712.694,-163.127 696.265,-158.533"/>
<polygon fill="midnightblue" stroke="midnightblue" points="971.378,-230.012 981.907,-228.826 972.936,-223.188 971.378,-230.012"/>
</g>
<!-- Node8 -->
<g id="node15" class="node"><title>Node8</title>
<a xlink:href="../../d4/d20/projectlibrary_8cpp.html" target="_top" xlink:title="/home/travis/build\l/LibrePCB/LibrePCB/libs\l/librepcbproject/library\l/projectlibrary.cpp">
<polygon fill="white" stroke="black" points="754.5,-105 754.5,-165 879.5,-165 879.5,-105 754.5,-105"/>
<text text-anchor="start" x="762.5" y="-152" font-family="Helvetica,sans-Serif" font-size="10.00">/home/travis/build</text>
<text text-anchor="start" x="762.5" y="-139" font-family="Helvetica,sans-Serif" font-size="10.00">/LibrePCB/LibrePCB/libs</text>
<text text-anchor="start" x="762.5" y="-126" font-family="Helvetica,sans-Serif" font-size="10.00">/librepcbproject/library</text>
<text text-anchor="middle" x="817" y="-113" font-family="Helvetica,sans-Serif" font-size="10.00">/projectlibrary.cpp</text>
</a>
</g>
<!-- Node2&#45;&gt;Node8 -->
<g id="edge14" class="edge"><title>Node2&#45;&gt;Node8</title>
<path fill="none" stroke="midnightblue" d="M988.543,-217.401C957.807,-204.139 920.798,-187.736 888,-172 883.363,-169.775 878.584,-167.421 873.799,-165.02"/>
<polygon fill="midnightblue" stroke="midnightblue" points="987.3,-220.676 997.869,-221.411 990.065,-214.245 987.3,-220.676"/>
</g>
<!-- Node9 -->
<g id="node17" class="node"><title>Node9</title>
<a xlink:href="../../de/dd8/sgi__symbol_8cpp.html" target="_top" xlink:title="/home/travis/build\l/LibrePCB/LibrePCB/libs\l/librepcbproject/schematics\l/graphicsitems/sgi_symbol.cpp">
<polygon fill="white" stroke="black" points="897,-105 897,-165 1049,-165 1049,-105 897,-105"/>
<text text-anchor="start" x="905" y="-152" font-family="Helvetica,sans-Serif" font-size="10.00">/home/travis/build</text>
<text text-anchor="start" x="905" y="-139" font-family="Helvetica,sans-Serif" font-size="10.00">/LibrePCB/LibrePCB/libs</text>
<text text-anchor="start" x="905" y="-126" font-family="Helvetica,sans-Serif" font-size="10.00">/librepcbproject/schematics</text>
<text text-anchor="middle" x="973" y="-113" font-family="Helvetica,sans-Serif" font-size="10.00">/graphicsitems/sgi_symbol.cpp</text>
</a>
</g>
<!-- Node2&#45;&gt;Node9 -->
<g id="edge16" class="edge"><title>Node2&#45;&gt;Node9</title>
<path fill="none" stroke="midnightblue" d="M1030.68,-213.335C1019.55,-198.212 1006.28,-180.198 995.283,-165.26"/>
<polygon fill="midnightblue" stroke="midnightblue" points="1027.88,-215.425 1036.62,-221.402 1033.51,-211.274 1027.88,-215.425"/>
</g>
<!-- Node10 -->
<g id="node19" class="node"><title>Node10</title>
<a xlink:href="../../d0/da6/si__symbol_8cpp.html" target="_top" xlink:title="/home/travis/build\l/LibrePCB/LibrePCB/libs\l/librepcbproject/schematics\l/items/si_symbol.cpp">
<polygon fill="white" stroke="black" points="1067,-105 1067,-165 1203,-165 1203,-105 1067,-105"/>
<text text-anchor="start" x="1075" y="-152" font-family="Helvetica,sans-Serif" font-size="10.00">/home/travis/build</text>
<text text-anchor="start" x="1075" y="-139" font-family="Helvetica,sans-Serif" font-size="10.00">/LibrePCB/LibrePCB/libs</text>
<text text-anchor="start" x="1075" y="-126" font-family="Helvetica,sans-Serif" font-size="10.00">/librepcbproject/schematics</text>
<text text-anchor="middle" x="1135" y="-113" font-family="Helvetica,sans-Serif" font-size="10.00">/items/si_symbol.cpp</text>
</a>
</g>
<!-- Node2&#45;&gt;Node10 -->
<g id="edge18" class="edge"><title>Node2&#45;&gt;Node10</title>
<path fill="none" stroke="midnightblue" d="M1077.32,-213.335C1088.45,-198.212 1101.72,-180.198 1112.72,-165.26"/>
<polygon fill="midnightblue" stroke="midnightblue" points="1074.49,-211.274 1071.38,-221.402 1080.12,-215.425 1074.49,-211.274"/>
</g>
<!-- Node2&#45;&gt;Node11 -->
<g id="edge20" class="edge"><title>Node2&#45;&gt;Node11</title>
<path fill="none" stroke="midnightblue" d="M1136.38,-238.456C1315.29,-224.009 1728.3,-189.303 1790,-172 1796.57,-170.158 1803.26,-167.783 1809.83,-165.127"/>
<polygon fill="midnightblue" stroke="midnightblue" points="1135.92,-234.982 1126.23,-239.274 1136.48,-241.959 1135.92,-234.982"/>
</g>
<!-- Node12 -->
<g id="node23" class="node"><title>Node12</title>
<a xlink:href="../../da/d64/addgencompdialog_8cpp.html" target="_top" xlink:title="/home/travis/build\l/LibrePCB/LibrePCB/libs\l/librepcbprojecteditor\l/dialogs/addgencompdialog.cpp">
<polygon fill="white" stroke="black" points="1220.5,-105 1220.5,-165 1373.5,-165 1373.5,-105 1220.5,-105"/>
<text text-anchor="start" x="1228.5" y="-152" font-family="Helvetica,sans-Serif" font-size="10.00">/home/travis/build</text>
<text text-anchor="start" x="1228.5" y="-139" font-family="Helvetica,sans-Serif" font-size="10.00">/LibrePCB/LibrePCB/libs</text>
<text text-anchor="start" x="1228.5" y="-126" font-family="Helvetica,sans-Serif" font-size="10.00">/librepcbprojecteditor</text>
<text text-anchor="middle" x="1297" y="-113" font-family="Helvetica,sans-Serif" font-size="10.00">/dialogs/addgencompdialog.cpp</text>
</a>
</g>
<!-- Node2&#45;&gt;Node12 -->
<g id="edge22" class="edge"><title>Node2&#45;&gt;Node12</title>
<path fill="none" stroke="midnightblue" d="M1115.33,-217.239C1150.48,-201.325 1194.63,-181.34 1230.6,-165.056"/>
<polygon fill="midnightblue" stroke="midnightblue" points="1113.8,-214.09 1106.13,-221.402 1116.68,-220.467 1113.8,-214.09"/>
</g>
<!-- Node13 -->
<g id="node25" class="node"><title>Node13</title>
<a xlink:href="../../d8/df2/ses__addcomponents_8cpp.html" target="_top" xlink:title="/home/travis/build\l/LibrePCB/LibrePCB/libs\l/librepcbprojecteditor\l/schematiceditor/fsm/ses\l_addcomponents.cpp">
<polygon fill="white" stroke="black" points="1390.5,-98.5 1390.5,-171.5 1517.5,-171.5 1517.5,-98.5 1390.5,-98.5"/>
<text text-anchor="start" x="1398.5" y="-158.5" font-family="Helvetica,sans-Serif" font-size="10.00">/home/travis/build</text>
<text text-anchor="start" x="1398.5" y="-145.5" font-family="Helvetica,sans-Serif" font-size="10.00">/LibrePCB/LibrePCB/libs</text>
<text text-anchor="start" x="1398.5" y="-132.5" font-family="Helvetica,sans-Serif" font-size="10.00">/librepcbprojecteditor</text>
<text text-anchor="start" x="1398.5" y="-119.5" font-family="Helvetica,sans-Serif" font-size="10.00">/schematiceditor/fsm/ses</text>
<text text-anchor="middle" x="1454" y="-106.5" font-family="Helvetica,sans-Serif" font-size="10.00">_addcomponents.cpp</text>
</a>
</g>
<!-- Node2&#45;&gt;Node13 -->
<g id="edge24" class="edge"><title>Node2&#45;&gt;Node13</title>
<path fill="none" stroke="midnightblue" d="M1136.32,-232.69C1203.67,-221.201 1300.72,-201.378 1382,-172 1384.78,-170.997 1387.58,-169.909 1390.39,-168.758"/>
<polygon fill="midnightblue" stroke="midnightblue" points="1135.47,-229.283 1126.19,-234.393 1136.63,-236.186 1135.47,-229.283"/>
</g>
<!-- Node14 -->
<g id="node27" class="node"><title>Node14</title>
<a xlink:href="../../da/d89/symbolinstancepropertiesdialog_8cpp.html" target="_top" xlink:title="/home/travis/build\l/LibrePCB/LibrePCB/libs\l/librepcbprojecteditor\l/schematiceditor/symbolinstancepropertiesdialog.cpp">
<polygon fill="white" stroke="black" points="1534.5,-105 1534.5,-165 1781.5,-165 1781.5,-105 1534.5,-105"/>
<text text-anchor="start" x="1542.5" y="-152" font-family="Helvetica,sans-Serif" font-size="10.00">/home/travis/build</text>
<text text-anchor="start" x="1542.5" y="-139" font-family="Helvetica,sans-Serif" font-size="10.00">/LibrePCB/LibrePCB/libs</text>
<text text-anchor="start" x="1542.5" y="-126" font-family="Helvetica,sans-Serif" font-size="10.00">/librepcbprojecteditor</text>
<text text-anchor="middle" x="1658" y="-113" font-family="Helvetica,sans-Serif" font-size="10.00">/schematiceditor/symbolinstancepropertiesdialog.cpp</text>
</a>
</g>
<!-- Node2&#45;&gt;Node14 -->
<g id="edge26" class="edge"><title>Node2&#45;&gt;Node14</title>
<path fill="none" stroke="midnightblue" d="M1136.14,-235.331C1230.74,-223.496 1390.54,-201.35 1526,-172 1535.54,-169.934 1545.4,-167.58 1555.25,-165.085"/>
<polygon fill="midnightblue" stroke="midnightblue" points="1135.55,-231.877 1126.06,-236.584 1136.42,-238.824 1135.55,-231.877"/>
</g>
<!-- Node4 -->
<g id="node7" class="node"><title>Node4</title>
<a xlink:href="../../da/d6c/cmdprojectlibraryaddelement_8cpp.html" target="_top" xlink:title="/home/travis/build\l/LibrePCB/LibrePCB/libs\l/librepcbproject/library\l/cmd/cmdprojectlibraryaddelement.cpp">
<polygon fill="white" stroke="black" points="-0.5,-1 -0.5,-61 184.5,-61 184.5,-1 -0.5,-1"/>
<text text-anchor="start" x="7.5" y="-48" font-family="Helvetica,sans-Serif" font-size="10.00">/home/travis/build</text>
<text text-anchor="start" x="7.5" y="-35" font-family="Helvetica,sans-Serif" font-size="10.00">/LibrePCB/LibrePCB/libs</text>
<text text-anchor="start" x="7.5" y="-22" font-family="Helvetica,sans-Serif" font-size="10.00">/librepcbproject/library</text>
<text text-anchor="middle" x="92" y="-9" font-family="Helvetica,sans-Serif" font-size="10.00">/cmd/cmdprojectlibraryaddelement.cpp</text>
</a>
</g>
<!-- Node3&#45;&gt;Node4 -->
<g id="edge6" class="edge"><title>Node3&#45;&gt;Node4</title>
<path fill="none" stroke="midnightblue" d="M92,-101.088C92,-88.2422 92,-73.7143 92,-61.2295"/>
<polygon fill="midnightblue" stroke="midnightblue" points="88.5001,-101.401 92,-111.401 95.5001,-101.401 88.5001,-101.401"/>
</g>
</g>
</svg>
