<?xml version="1.0" encoding="UTF-8" standalone="no"?>
<!DOCTYPE svg PUBLIC "-//W3C//DTD SVG 1.1//EN"
 "http://www.w3.org/Graphics/SVG/1.1/DTD/svg11.dtd">
<!-- Generated by graphviz version 2.26.3 (20100126.1600)
 -->
<!-- Title: getAngle Pages: 1 -->
<svg width="746pt" height="198pt"
 viewBox="0.00 0.00 746.00 198.00" xmlns="http://www.w3.org/2000/svg" xmlns:xlink="http://www.w3.org/1999/xlink">
<g id="graph1" class="graph" transform="scale(1 1) rotate(0) translate(4 194)">
<title>getAngle</title>
<polygon fill="white" stroke="white" points="-4,5 -4,-194 743,-194 743,5 -4,5"/>
<!-- Node1 -->
<g id="node1" class="node"><title>Node1</title>
<polygon fill="#bfbfbf" stroke="black" points="0.5,-84.5 0.5,-105.5 55.5,-105.5 55.5,-84.5 0.5,-84.5"/>
<text text-anchor="middle" x="28" y="-92.5" font-family="Helvetica,sans-Serif" font-size="10.00">getAngle</text>
</g>
<!-- Node2 -->
<g id="node3" class="node"><title>Node2</title>
<a xlink:href="../../d1/d7f/classlibrary_1_1_symbol_polygon.html#a0c155e27c8e6d8f1cd3a8443b7bad250" target="_top" xlink:title="library::SymbolPolygon\l::toQPainterPathPx">
<polygon fill="white" stroke="black" points="92.5,-78 92.5,-112 209.5,-112 209.5,-78 92.5,-78"/>
<text text-anchor="start" x="100.5" y="-99" font-family="Helvetica,sans-Serif" font-size="10.00">library::SymbolPolygon</text>
<text text-anchor="middle" x="151" y="-86" font-family="Helvetica,sans-Serif" font-size="10.00">::toQPainterPathPx</text>
</a>
</g>
<!-- Node1&#45;&gt;Node2 -->
<g id="edge2" class="edge"><title>Node1&#45;&gt;Node2</title>
<path fill="none" stroke="midnightblue" d="M65.8069,-95C74.2017,-95 83.2919,-95 92.3017,-95"/>
<polygon fill="midnightblue" stroke="midnightblue" points="65.6036,-91.5001 55.6036,-95 65.6036,-98.5001 65.6036,-91.5001"/>
</g>
<!-- Node3 -->
<g id="node5" class="node"><title>Node3</title>
<a xlink:href="../../d9/da8/classlibrary_1_1_symbol_preview_graphics_item.html#abbb5db1b700a86caa85ff4c0c13142f2" target="_top" xlink:title="library::SymbolPreviewGraphics\lItem::updateCacheAndRepaint">
<polygon fill="white" stroke="black" points="246,-156 246,-190 402,-190 402,-156 246,-156"/>
<text text-anchor="start" x="254" y="-177" font-family="Helvetica,sans-Serif" font-size="10.00">library::SymbolPreviewGraphics</text>
<text text-anchor="middle" x="324" y="-164" font-family="Helvetica,sans-Serif" font-size="10.00">Item::updateCacheAndRepaint</text>
</a>
</g>
<!-- Node2&#45;&gt;Node3 -->
<g id="edge4" class="edge"><title>Node2&#45;&gt;Node3</title>
<path fill="none" stroke="midnightblue" d="M187.692,-117.09C205.011,-126.992 226.187,-138.359 246,-147 253.196,-150.139 260.9,-153.129 268.562,-155.889"/>
<polygon fill="midnightblue" stroke="midnightblue" points="189.422,-114.048 179.014,-112.068 185.916,-120.106 189.422,-114.048"/>
</g>
<!-- Node4 -->
<g id="node7" class="node"><title>Node4</title>
<a xlink:href="../../d9/da8/classlibrary_1_1_symbol_preview_graphics_item.html#aa77fc5d2da89e1f09b09f7c6724ed721" target="_top" xlink:title="library::SymbolPreviewGraphics\lItem::paint">
<polygon fill="white" stroke="black" points="246,-104 246,-138 402,-138 402,-104 246,-104"/>
<text text-anchor="start" x="254" y="-125" font-family="Helvetica,sans-Serif" font-size="10.00">library::SymbolPreviewGraphics</text>
<text text-anchor="middle" x="324" y="-112" font-family="Helvetica,sans-Serif" font-size="10.00">Item::paint</text>
</a>
</g>
<!-- Node2&#45;&gt;Node4 -->
<g id="edge6" class="edge"><title>Node2&#45;&gt;Node4</title>
<path fill="none" stroke="midnightblue" d="M219.57,-105.305C228.206,-106.603 237.09,-107.938 245.859,-109.256"/>
<polygon fill="midnightblue" stroke="midnightblue" points="219.979,-101.828 209.57,-103.802 218.939,-108.75 219.979,-101.828"/>
</g>
<!-- Node5 -->
<g id="node9" class="node"><title>Node5</title>
<a xlink:href="../../dd/d00/classproject_1_1_s_g_i___symbol.html#abbb5db1b700a86caa85ff4c0c13142f2" target="_top" xlink:title="project::SGI_Symbol\l::updateCacheAndRepaint">
<polygon fill="white" stroke="black" points="258.5,-52 258.5,-86 389.5,-86 389.5,-52 258.5,-52"/>
<text text-anchor="start" x="266.5" y="-73" font-family="Helvetica,sans-Serif" font-size="10.00">project::SGI_Symbol</text>
<text text-anchor="middle" x="324" y="-60" font-family="Helvetica,sans-Serif" font-size="10.00">::updateCacheAndRepaint</text>
</a>
</g>
<!-- Node2&#45;&gt;Node5 -->
<g id="edge8" class="edge"><title>Node2&#45;&gt;Node5</title>
<path fill="none" stroke="midnightblue" d="M219.656,-84.6818C232.404,-82.7658 245.693,-80.7686 258.349,-78.8666"/>
<polygon fill="midnightblue" stroke="midnightblue" points="218.939,-81.2502 209.57,-86.1976 219.979,-88.1724 218.939,-81.2502"/>
</g>
<!-- Node8 -->
<g id="node15" class="node"><title>Node8</title>
<a xlink:href="../../dd/d00/classproject_1_1_s_g_i___symbol.html#aa77fc5d2da89e1f09b09f7c6724ed721" target="_top" xlink:title="project::SGI_Symbol\l::paint">
<polygon fill="white" stroke="black" points="270.5,-0 270.5,-34 377.5,-34 377.5,-0 270.5,-0"/>
<text text-anchor="start" x="278.5" y="-21" font-family="Helvetica,sans-Serif" font-size="10.00">project::SGI_Symbol</text>
<text text-anchor="middle" x="324" y="-8" font-family="Helvetica,sans-Serif" font-size="10.00">::paint</text>
</a>
</g>
<!-- Node2&#45;&gt;Node8 -->
<g id="edge14" class="edge"><title>Node2&#45;&gt;Node8</title>
<path fill="none" stroke="midnightblue" d="M187.692,-72.9097C205.011,-63.0081 226.187,-51.6415 246,-43 253.719,-39.6331 262.024,-36.4371 270.233,-33.5121"/>
<polygon fill="midnightblue" stroke="midnightblue" points="185.916,-69.8935 179.014,-77.9319 189.422,-75.9521 185.916,-69.8935"/>
</g>
<!-- Node6 -->
<g id="node11" class="node"><title>Node6</title>
<a xlink:href="../../de/d50/classproject_1_1_s_i___symbol.html#a803d371853cd2d72f4df8a45349d0cb7" target="_top" xlink:title="project::SI_Symbol\l::schematicOrGenCompAttributes\lChanged">
<polygon fill="white" stroke="black" points="438,-45.5 438,-92.5 602,-92.5 602,-45.5 438,-45.5"/>
<text text-anchor="start" x="446" y="-79.5" font-family="Helvetica,sans-Serif" font-size="10.00">project::SI_Symbol</text>
<text text-anchor="start" x="446" y="-66.5" font-family="Helvetica,sans-Serif" font-size="10.00">::schematicOrGenCompAttributes</text>
<text text-anchor="middle" x="520" y="-53.5" font-family="Helvetica,sans-Serif" font-size="10.00">Changed</text>
</a>
</g>
<!-- Node5&#45;&gt;Node6 -->
<g id="edge10" class="edge"><title>Node5&#45;&gt;Node6</title>
<path fill="none" stroke="midnightblue" d="M399.845,-69C412.278,-69 425.214,-69 437.793,-69"/>
<polygon fill="midnightblue" stroke="midnightblue" points="399.538,-65.5001 389.538,-69 399.538,-72.5001 399.538,-65.5001"/>
</g>
<!-- Node7 -->
<g id="node13" class="node"><title>Node7</title>
<a xlink:href="../../de/d50/classproject_1_1_s_i___symbol.html#ae4e286593d2a82f74246f9cba8193605" target="_top" xlink:title="project::SI_Symbol\l::init">
<polygon fill="white" stroke="black" points="638,-52 638,-86 738,-86 738,-52 638,-52"/>
<text text-anchor="start" x="646" y="-73" font-family="Helvetica,sans-Serif" font-size="10.00">project::SI_Symbol</text>
<text text-anchor="middle" x="688" y="-60" font-family="Helvetica,sans-Serif" font-size="10.00">::init</text>
</a>
</g>
<!-- Node6&#45;&gt;Node7 -->
<g id="edge12" class="edge"><title>Node6&#45;&gt;Node7</title>
<path fill="none" stroke="midnightblue" d="M612.282,-69C620.987,-69 629.572,-69 637.658,-69"/>
<polygon fill="midnightblue" stroke="midnightblue" points="612.031,-65.5001 602.031,-69 612.031,-72.5001 612.031,-65.5001"/>
</g>
</g>
</svg>
