<?xml version="1.0" encoding="UTF-8" standalone="no"?>
<!DOCTYPE svg PUBLIC "-//W3C//DTD SVG 1.1//EN"
 "http://www.w3.org/Graphics/SVG/1.1/DTD/svg11.dtd">
<!-- Generated by graphviz version 2.26.3 (20100126.1600)
 -->
<!-- Title: /home/travis/build/LibrePCB/LibrePCB/libs/librepcbworkspace/moc/moc_favoriteprojectsmodel.cpp Pages: 1 -->
<svg width="378pt" height="258pt"
 viewBox="0.00 0.00 378.00 258.00" xmlns="http://www.w3.org/2000/svg" xmlns:xlink="http://www.w3.org/1999/xlink">
<g id="graph1" class="graph" transform="scale(1 1) rotate(0) translate(4 254)">
<title>/home/travis/build/LibrePCB/LibrePCB/libs/librepcbworkspace/moc/moc_favoriteprojectsmodel.cpp</title>
<polygon fill="white" stroke="white" points="-4,5 -4,-254 375,-254 375,5 -4,5"/>
<!-- Node1 -->
<g id="node1" class="node"><title>Node1</title>
<polygon fill="#bfbfbf" stroke="black" points="118.5,-189 118.5,-249 273.5,-249 273.5,-189 118.5,-189"/>
<text text-anchor="start" x="126.5" y="-236" font-family="Helvetica,sans-Serif" font-size="10.00">/home/travis/build</text>
<text text-anchor="start" x="126.5" y="-223" font-family="Helvetica,sans-Serif" font-size="10.00">/LibrePCB/LibrePCB/libs</text>
<text text-anchor="start" x="126.5" y="-210" font-family="Helvetica,sans-Serif" font-size="10.00">/librepcbworkspace/moc</text>
<text text-anchor="middle" x="196" y="-197" font-family="Helvetica,sans-Serif" font-size="10.00">/moc_favoriteprojectsmodel.cpp</text>
</g>
<!-- Node2 -->
<g id="node3" class="node"><title>Node2</title>
<a xlink:href="../../d0/de8/favoriteprojectsmodel_8h.html" target="_top" xlink:title="../favoriteprojectsmodel.h">
<polygon fill="white" stroke="black" points="-0.5,-130.5 -0.5,-151.5 126.5,-151.5 126.5,-130.5 -0.5,-130.5"/>
<text text-anchor="middle" x="63" y="-138.5" font-family="Helvetica,sans-Serif" font-size="10.00">../favoriteprojectsmodel.h</text>
</a>
</g>
<!-- Node1&#45;&gt;Node2 -->
<g id="edge2" class="edge"><title>Node1&#45;&gt;Node2</title>
<path fill="none" stroke="midnightblue" d="M144.579,-188.843C125.88,-177.877 105.503,-165.927 89.792,-156.713"/>
<polygon fill="midnightblue" stroke="midnightblue" points="91.5251,-153.672 81.1285,-151.632 87.9839,-159.71 91.5251,-153.672"/>
</g>
<!-- Node5 -->
<g id="node10" class="node"><title>Node5</title>
<polygon fill="white" stroke="#bfbfbf" points="143.5,-130.5 143.5,-151.5 248.5,-151.5 248.5,-130.5 143.5,-130.5"/>
<text text-anchor="middle" x="196" y="-138.5" font-family="Helvetica,sans-Serif" font-size="10.00">QtCore/qbytearray.h</text>
</g>
<!-- Node1&#45;&gt;Node5 -->
<g id="edge10" class="edge"><title>Node1&#45;&gt;Node5</title>
<path fill="none" stroke="midnightblue" d="M196,-188.62C196,-179.68 196,-170.103 196,-161.9"/>
<polygon fill="midnightblue" stroke="midnightblue" points="199.5,-161.753 196,-151.753 192.5,-161.753 199.5,-161.753"/>
</g>
<!-- Node6 -->
<g id="node12" class="node"><title>Node6</title>
<polygon fill="white" stroke="#bfbfbf" points="265.5,-130.5 265.5,-151.5 370.5,-151.5 370.5,-130.5 265.5,-130.5"/>
<text text-anchor="middle" x="318" y="-138.5" font-family="Helvetica,sans-Serif" font-size="10.00">QtCore/qmetatype.h</text>
</g>
<!-- Node1&#45;&gt;Node6 -->
<g id="edge12" class="edge"><title>Node1&#45;&gt;Node6</title>
<path fill="none" stroke="midnightblue" d="M243.168,-188.843C260,-178.082 278.314,-166.373 292.611,-157.232"/>
<polygon fill="midnightblue" stroke="midnightblue" points="294.831,-159.967 301.371,-151.632 291.06,-154.07 294.831,-159.967"/>
</g>
<!-- Node3 -->
<g id="node5" class="node"><title>Node3</title>
<polygon fill="white" stroke="#bfbfbf" points="39,-0.5 39,-21.5 87,-21.5 87,-0.5 39,-0.5"/>
<text text-anchor="middle" x="63" y="-8.5" font-family="Helvetica,sans-Serif" font-size="10.00">QtCore</text>
</g>
<!-- Node2&#45;&gt;Node3 -->
<g id="edge4" class="edge"><title>Node2&#45;&gt;Node3</title>
<path fill="none" stroke="midnightblue" d="M56.3174,-130.284C50.9833,-121.06 43.9346,-107.192 41,-94 37.5256,-78.3818 37.5256,-73.6182 41,-58 43.0863,-48.6216 47.252,-38.9009 51.4027,-30.7504"/>
<polygon fill="midnightblue" stroke="midnightblue" points="54.6132,-32.1729 56.3174,-21.716 48.4642,-28.8278 54.6132,-32.1729"/>
</g>
<!-- Node4 -->
<g id="node7" class="node"><title>Node4</title>
<a xlink:href="../../dd/dec/filepath_8h.html" target="_top" xlink:title="librepcbcommon/fileio\l/filepath.h">
<polygon fill="white" stroke="black" points="49.5,-59 49.5,-93 160.5,-93 160.5,-59 49.5,-59"/>
<text text-anchor="start" x="57.5" y="-80" font-family="Helvetica,sans-Serif" font-size="10.00">librepcbcommon/fileio</text>
<text text-anchor="middle" x="105" y="-67" font-family="Helvetica,sans-Serif" font-size="10.00">/filepath.h</text>
</a>
</g>
<!-- Node2&#45;&gt;Node4 -->
<g id="edge6" class="edge"><title>Node2&#45;&gt;Node4</title>
<path fill="none" stroke="midnightblue" d="M69.9354,-130.267C74.9812,-122.458 82.0318,-111.546 88.4885,-101.554"/>
<polygon fill="midnightblue" stroke="midnightblue" points="91.4569,-103.409 93.9444,-93.1099 85.5775,-99.6095 91.4569,-103.409"/>
</g>
<!-- Node4&#45;&gt;Node3 -->
<g id="edge8" class="edge"><title>Node4&#45;&gt;Node3</title>
<path fill="none" stroke="midnightblue" d="M93.965,-58.922C88.2778,-50.1203 81.3211,-39.3541 75.4433,-30.2575"/>
<polygon fill="midnightblue" stroke="midnightblue" points="78.379,-28.3518 70.0121,-21.8521 72.4996,-32.1508 78.379,-28.3518"/>
</g>
</g>
</svg>
