<?xml version="1.0" encoding="UTF-8" standalone="no"?>
<!DOCTYPE svg PUBLIC "-//W3C//DTD SVG 1.1//EN"
 "http://www.w3.org/Graphics/SVG/1.1/DTD/svg11.dtd">
<!-- Generated by graphviz version 2.26.3 (20100126.1600)
 -->
<!-- Title: /home/travis/build/LibrePCB/LibrePCB/libs/librepcbcommon/graphics/graphicsitem.cpp Pages: 1 -->
<svg width="167pt" height="186pt"
 viewBox="0.00 0.00 167.00 186.00" xmlns="http://www.w3.org/2000/svg" xmlns:xlink="http://www.w3.org/1999/xlink">
<g id="graph1" class="graph" transform="scale(1 1) rotate(0) translate(4 182)">
<title>/home/travis/build/LibrePCB/LibrePCB/libs/librepcbcommon/graphics/graphicsitem.cpp</title>
<polygon fill="white" stroke="white" points="-4,5 -4,-182 164,-182 164,5 -4,5"/>
<!-- Node1 -->
<g id="node1" class="node"><title>Node1</title>
<polygon fill="#bfbfbf" stroke="black" points="10.5,-117 10.5,-177 141.5,-177 141.5,-117 10.5,-117"/>
<text text-anchor="start" x="18.5" y="-164" font-family="Helvetica,sans-Serif" font-size="10.00">/home/travis/build</text>
<text text-anchor="start" x="18.5" y="-151" font-family="Helvetica,sans-Serif" font-size="10.00">/LibrePCB/LibrePCB/libs</text>
<text text-anchor="start" x="18.5" y="-138" font-family="Helvetica,sans-Serif" font-size="10.00">/librepcbcommon/graphics</text>
<text text-anchor="middle" x="76" y="-125" font-family="Helvetica,sans-Serif" font-size="10.00">/graphicsitem.cpp</text>
</g>
<!-- Node2 -->
<g id="node3" class="node"><title>Node2</title>
<polygon fill="white" stroke="#bfbfbf" points="0,-0.5 0,-21.5 48,-21.5 48,-0.5 0,-0.5"/>
<text text-anchor="middle" x="24" y="-8.5" font-family="Helvetica,sans-Serif" font-size="10.00">QtCore</text>
</g>
<!-- Node1&#45;&gt;Node2 -->
<g id="edge2" class="edge"><title>Node1&#45;&gt;Node2</title>
<path fill="none" stroke="midnightblue" d="M48.1295,-116.833C39.7838,-106.004 31.628,-93.1901 27,-80 21.5495,-64.4659 21.0825,-45.7474 21.8213,-31.7283"/>
<polygon fill="midnightblue" stroke="midnightblue" points="25.3196,-31.8832 22.6001,-21.6434 18.3404,-31.3442 25.3196,-31.8832"/>
</g>
<!-- Node3 -->
<g id="node5" class="node"><title>Node3</title>
<polygon fill="white" stroke="#bfbfbf" points="96.5,-0.5 96.5,-21.5 159.5,-21.5 159.5,-0.5 96.5,-0.5"/>
<text text-anchor="middle" x="128" y="-8.5" font-family="Helvetica,sans-Serif" font-size="10.00">QtWidgets</text>
</g>
<!-- Node1&#45;&gt;Node3 -->
<g id="edge4" class="edge"><title>Node1&#45;&gt;Node3</title>
<path fill="none" stroke="midnightblue" d="M103.87,-116.833C112.216,-106.004 120.372,-93.1901 125,-80 130.45,-64.4659 130.918,-45.7474 130.179,-31.7283"/>
<polygon fill="midnightblue" stroke="midnightblue" points="133.66,-31.3442 129.4,-21.6434 126.68,-31.8832 133.66,-31.3442"/>
</g>
<!-- Node4 -->
<g id="node7" class="node"><title>Node4</title>
<a xlink:href="../../de/dd6/graphicsitem_8h.html" target="_top" xlink:title="graphicsitem.h">
<polygon fill="white" stroke="black" points="36,-58.5 36,-79.5 116,-79.5 116,-58.5 36,-58.5"/>
<text text-anchor="middle" x="76" y="-66.5" font-family="Helvetica,sans-Serif" font-size="10.00">graphicsitem.h</text>
</a>
</g>
<!-- Node1&#45;&gt;Node4 -->
<g id="edge6" class="edge"><title>Node1&#45;&gt;Node4</title>
<path fill="none" stroke="midnightblue" d="M76,-116.62C76,-107.68 76,-98.1035 76,-89.9002"/>
<polygon fill="midnightblue" stroke="midnightblue" points="79.5001,-89.7534 76,-79.7535 72.5001,-89.7535 79.5001,-89.7534"/>
</g>
<!-- Node4&#45;&gt;Node2 -->
<g id="edge8" class="edge"><title>Node4&#45;&gt;Node2</title>
<path fill="none" stroke="midnightblue" d="M66.4624,-58.3619C59.1323,-50.1861 48.8367,-38.7025 40.2192,-29.0907"/>
<polygon fill="midnightblue" stroke="midnightblue" points="42.7586,-26.68 33.4771,-21.5707 37.5466,-31.3528 42.7586,-26.68"/>
</g>
<!-- Node4&#45;&gt;Node3 -->
<g id="edge10" class="edge"><title>Node4&#45;&gt;Node3</title>
<path fill="none" stroke="midnightblue" d="M85.5376,-58.3619C92.8677,-50.1861 103.163,-38.7025 111.781,-29.0907"/>
<polygon fill="midnightblue" stroke="midnightblue" points="114.453,-31.3528 118.523,-21.5707 109.241,-26.68 114.453,-31.3528"/>
</g>
</g>
</svg>
