<?xml version="1.0" encoding="UTF-8" standalone="no"?>
<!DOCTYPE svg PUBLIC "-//W3C//DTD SVG 1.1//EN"
 "http://www.w3.org/Graphics/SVG/1.1/DTD/svg11.dtd">
<!-- Generated by graphviz version 2.26.3 (20100126.1600)
 -->
<!-- Title: /home/travis/build/LibrePCB/LibrePCB/libs/librepcbworkspace/projecttreemodel.h Pages: 1 -->
<svg width="706pt" height="154pt"
 viewBox="0.00 0.00 706.00 154.00" xmlns="http://www.w3.org/2000/svg" xmlns:xlink="http://www.w3.org/1999/xlink">
<g id="graph1" class="graph" transform="scale(1 1) rotate(0) translate(4 150)">
<title>/home/travis/build/LibrePCB/LibrePCB/libs/librepcbworkspace/projecttreemodel.h</title>
<polygon fill="white" stroke="white" points="-4,5 -4,-150 703,-150 703,5 -4,5"/>
<!-- Node1 -->
<g id="node1" class="node"><title>Node1</title>
<polygon fill="#bfbfbf" stroke="black" points="257,-98.5 257,-145.5 441,-145.5 441,-98.5 257,-98.5"/>
<text text-anchor="start" x="265" y="-132.5" font-family="Helvetica,sans-Serif" font-size="10.00">/home/travis/build</text>
<text text-anchor="start" x="265" y="-119.5" font-family="Helvetica,sans-Serif" font-size="10.00">/LibrePCB/LibrePCB/libs</text>
<text text-anchor="middle" x="349" y="-106.5" font-family="Helvetica,sans-Serif" font-size="10.00">/librepcbworkspace/projecttreemodel.h</text>
</g>
<!-- Node2 -->
<g id="node3" class="node"><title>Node2</title>
<a xlink:href="../../d8/dd0/moc__projecttreemodel_8cpp.html" target="_top" xlink:title="/home/travis/build\l/LibrePCB/LibrePCB/libs\l/librepcbworkspace/moc\l/moc_projecttreemodel.cpp">
<polygon fill="white" stroke="black" points="0,-1 0,-61 134,-61 134,-1 0,-1"/>
<text text-anchor="start" x="8" y="-48" font-family="Helvetica,sans-Serif" font-size="10.00">/home/travis/build</text>
<text text-anchor="start" x="8" y="-35" font-family="Helvetica,sans-Serif" font-size="10.00">/LibrePCB/LibrePCB/libs</text>
<text text-anchor="start" x="8" y="-22" font-family="Helvetica,sans-Serif" font-size="10.00">/librepcbworkspace/moc</text>
<text text-anchor="middle" x="67" y="-9" font-family="Helvetica,sans-Serif" font-size="10.00">/moc_projecttreemodel.cpp</text>
</a>
</g>
<!-- Node1&#45;&gt;Node2 -->
<g id="edge2" class="edge"><title>Node1&#45;&gt;Node2</title>
<path fill="none" stroke="midnightblue" d="M250.629,-95.5996C216.326,-85.8007 177.736,-74.1062 143,-62 140.174,-61.0152 137.301,-59.9833 134.406,-58.9187"/>
<polygon fill="midnightblue" stroke="midnightblue" points="250.078,-99.0815 260.654,-98.4446 251.99,-92.3474 250.078,-99.0815"/>
</g>
<!-- Node3 -->
<g id="node5" class="node"><title>Node3</title>
<a xlink:href="../../d1/ddb/projecttreemodel_8cpp.html" target="_top" xlink:title="/home/travis/build\l/LibrePCB/LibrePCB/libs\l/librepcbworkspace/projecttreemodel.cpp">
<polygon fill="white" stroke="black" points="152,-7.5 152,-54.5 346,-54.5 346,-7.5 152,-7.5"/>
<text text-anchor="start" x="160" y="-41.5" font-family="Helvetica,sans-Serif" font-size="10.00">/home/travis/build</text>
<text text-anchor="start" x="160" y="-28.5" font-family="Helvetica,sans-Serif" font-size="10.00">/LibrePCB/LibrePCB/libs</text>
<text text-anchor="middle" x="249" y="-15.5" font-family="Helvetica,sans-Serif" font-size="10.00">/librepcbworkspace/projecttreemodel.cpp</text>
</a>
</g>
<!-- Node1&#45;&gt;Node3 -->
<g id="edge4" class="edge"><title>Node1&#45;&gt;Node3</title>
<path fill="none" stroke="midnightblue" d="M315.431,-91.4521C302.203,-79.4146 287.249,-65.8063 274.883,-54.5531"/>
<polygon fill="midnightblue" stroke="midnightblue" points="313.235,-94.1866 322.987,-98.3284 317.947,-89.0093 313.235,-94.1866"/>
</g>
<!-- Node4 -->
<g id="node7" class="node"><title>Node4</title>
<a xlink:href="../../d8/dad/workspace_8cpp.html" target="_top" xlink:title="/home/travis/build\l/LibrePCB/LibrePCB/libs\l/librepcbworkspace/workspace.cpp">
<polygon fill="white" stroke="black" points="364,-7.5 364,-54.5 534,-54.5 534,-7.5 364,-7.5"/>
<text text-anchor="start" x="372" y="-41.5" font-family="Helvetica,sans-Serif" font-size="10.00">/home/travis/build</text>
<text text-anchor="start" x="372" y="-28.5" font-family="Helvetica,sans-Serif" font-size="10.00">/LibrePCB/LibrePCB/libs</text>
<text text-anchor="middle" x="449" y="-15.5" font-family="Helvetica,sans-Serif" font-size="10.00">/librepcbworkspace/workspace.cpp</text>
</a>
</g>
<!-- Node1&#45;&gt;Node4 -->
<g id="edge6" class="edge"><title>Node1&#45;&gt;Node4</title>
<path fill="none" stroke="midnightblue" d="M382.569,-91.4521C395.797,-79.4146 410.751,-65.8063 423.117,-54.5531"/>
<polygon fill="midnightblue" stroke="midnightblue" points="380.053,-89.0093 375.013,-98.3284 384.765,-94.1866 380.053,-89.0093"/>
</g>
<!-- Node5 -->
<g id="node9" class="node"><title>Node5</title>
<a xlink:href="../../d1/d4e/controlpanel_8cpp.html" target="_top" xlink:title="/home/travis/build\l/LibrePCB/LibrePCB/librepcb\l/controlpanel/controlpanel.cpp">
<polygon fill="white" stroke="black" points="552,-7.5 552,-54.5 698,-54.5 698,-7.5 552,-7.5"/>
<text text-anchor="start" x="560" y="-41.5" font-family="Helvetica,sans-Serif" font-size="10.00">/home/travis/build</text>
<text text-anchor="start" x="560" y="-28.5" font-family="Helvetica,sans-Serif" font-size="10.00">/LibrePCB/LibrePCB/librepcb</text>
<text text-anchor="middle" x="625" y="-15.5" font-family="Helvetica,sans-Serif" font-size="10.00">/controlpanel/controlpanel.cpp</text>
</a>
</g>
<!-- Node1&#45;&gt;Node5 -->
<g id="edge8" class="edge"><title>Node1&#45;&gt;Node5</title>
<path fill="none" stroke="midnightblue" d="M438.728,-95.5073C471.665,-85.4522 509.161,-73.6168 543,-62 549.766,-59.6774 556.811,-57.1627 563.805,-54.6047"/>
<polygon fill="midnightblue" stroke="midnightblue" points="437.664,-92.1725 429.115,-98.4311 439.701,-98.8696 437.664,-92.1725"/>
</g>
</g>
</svg>
