<?xml version="1.0" encoding="UTF-8" standalone="no"?>
<!DOCTYPE svg PUBLIC "-//W3C//DTD SVG 1.1//EN"
 "http://www.w3.org/Graphics/SVG/1.1/DTD/svg11.dtd">
<!-- Generated by graphviz version 2.26.3 (20100126.1600)
 -->
<!-- Title: undo Pages: 1 -->
<svg width="516pt" height="134pt"
 viewBox="0.00 0.00 516.00 134.00" xmlns="http://www.w3.org/2000/svg" xmlns:xlink="http://www.w3.org/1999/xlink">
<g id="graph1" class="graph" transform="scale(1 1) rotate(0) translate(4 130)">
<title>undo</title>
<polygon fill="white" stroke="white" points="-4,5 -4,-130 513,-130 513,5 -4,5"/>
<!-- Node1 -->
<g id="node1" class="node"><title>Node1</title>
<polygon fill="#bfbfbf" stroke="black" points="0,-52.5 0,-73.5 38,-73.5 38,-52.5 0,-52.5"/>
<text text-anchor="middle" x="19" y="-60.5" font-family="Helvetica,sans-Serif" font-size="10.00">undo</text>
</g>
<!-- Node2 -->
<g id="node3" class="node"><title>Node2</title>
<a xlink:href="../../dd/d2d/classproject_1_1_schematic.html#a82cb4f1b59f21eb04b16cf9e1224f5b0" target="_top" xlink:title="project::Schematic\l::addNetLabel">
<polygon fill="white" stroke="black" points="81,-92 81,-126 179,-126 179,-92 81,-92"/>
<text text-anchor="start" x="89" y="-113" font-family="Helvetica,sans-Serif" font-size="10.00">project::Schematic</text>
<text text-anchor="middle" x="130" y="-100" font-family="Helvetica,sans-Serif" font-size="10.00">::addNetLabel</text>
</a>
</g>
<!-- Node1&#45;&gt;Node2 -->
<g id="edge2" class="edge"><title>Node1&#45;&gt;Node2</title>
<path fill="none" stroke="midnightblue" d="M38.0816,-70.9077C49.4714,-75.6278 64.525,-81.8662 79.1456,-87.9252"/>
<polygon fill="midnightblue" stroke="midnightblue" points="78.0699,-91.268 88.648,-91.8631 80.7498,-84.8013 78.0699,-91.268"/>
</g>
<!-- Node3 -->
<g id="node5" class="node"><title>Node3</title>
<a xlink:href="../../d3/d26/class_undo_command.html#a0e1e7804a53f6d62efc72c9bdbec8571" target="_top" xlink:title="Undo the command (and all child commands in reverse order) ">
<polygon fill="white" stroke="black" points="74,-52.5 74,-73.5 186,-73.5 186,-52.5 74,-52.5"/>
<text text-anchor="middle" x="130" y="-60.5" font-family="Helvetica,sans-Serif" font-size="10.00">UndoCommand::undo</text>
</a>
</g>
<!-- Node1&#45;&gt;Node3 -->
<g id="edge4" class="edge"><title>Node1&#45;&gt;Node3</title>
<path fill="none" stroke="midnightblue" d="M38.0816,-63C45.4559,-63 54.366,-63 63.7001,-63"/>
<polygon fill="midnightblue" stroke="midnightblue" points="63.9424,-66.5001 73.9423,-63 63.9423,-59.5001 63.9424,-66.5001"/>
</g>
<!-- Node6 -->
<g id="node13" class="node"><title>Node6</title>
<a xlink:href="../../dd/d2d/classproject_1_1_schematic.html#a89da44eacee6aa1d9f7e5997bece3e73" target="_top" xlink:title="project::Schematic\l::removeNetLabel">
<polygon fill="white" stroke="black" points="81,-0 81,-34 179,-34 179,-0 81,-0"/>
<text text-anchor="start" x="89" y="-21" font-family="Helvetica,sans-Serif" font-size="10.00">project::Schematic</text>
<text text-anchor="middle" x="130" y="-8" font-family="Helvetica,sans-Serif" font-size="10.00">::removeNetLabel</text>
</a>
</g>
<!-- Node1&#45;&gt;Node6 -->
<g id="edge14" class="edge"><title>Node1&#45;&gt;Node6</title>
<path fill="none" stroke="midnightblue" d="M38.0816,-55.0923C49.4714,-50.3722 64.525,-44.1338 79.1456,-38.0748"/>
<polygon fill="midnightblue" stroke="midnightblue" points="80.7498,-41.1987 88.648,-34.1369 78.0699,-34.732 80.7498,-41.1987"/>
</g>
<!-- Node4 -->
<g id="node7" class="node"><title>Node4</title>
<a xlink:href="../../d3/d26/class_undo_command.html#ae57d776a4010cbabb44c03d9ac6514eb" target="_top" xlink:title="This method shows whether that command is executed (redo() called one time more than undo()) ...">
<polygon fill="white" stroke="black" points="368,-71.5 368,-92.5 508,-92.5 508,-71.5 368,-71.5"/>
<text text-anchor="middle" x="438" y="-79.5" font-family="Helvetica,sans-Serif" font-size="10.00">UndoCommand::isExecuted</text>
</a>
</g>
<!-- Node3&#45;&gt;Node4 -->
<g id="edge6" class="edge"><title>Node3&#45;&gt;Node4</title>
<path fill="none" stroke="midnightblue" d="M169.546,-73.5401C185.685,-77.3312 204.611,-81.1317 222,-83 266.685,-87.801 316.869,-87.8877 357.612,-86.622"/>
<polygon fill="midnightblue" stroke="midnightblue" points="357.884,-90.1148 367.758,-86.273 357.643,-83.1189 357.884,-90.1148"/>
</g>
<!-- Node5 -->
<g id="node9" class="node"><title>Node5</title>
<a xlink:href="../../d3/d26/class_undo_command.html#a93c48d6ed036e1a381be53ac67643284" target="_top" xlink:title="Redo/execute the command (and all child commands in normal order) ">
<polygon fill="white" stroke="black" points="222,-52.5 222,-73.5 332,-73.5 332,-52.5 222,-52.5"/>
<text text-anchor="middle" x="277" y="-60.5" font-family="Helvetica,sans-Serif" font-size="10.00">UndoCommand::redo</text>
</a>
</g>
<!-- Node3&#45;&gt;Node5 -->
<g id="edge8" class="edge"><title>Node3&#45;&gt;Node5</title>
<path fill="none" stroke="midnightblue" d="M186.414,-56.4148C194.703,-56.2522 203.298,-56.2099 211.747,-56.2879"/>
<polygon fill="midnightblue" stroke="midnightblue" points="211.897,-59.7905 221.949,-56.4427 212.003,-52.7913 211.897,-59.7905"/>
</g>
<!-- Node5&#45;&gt;Node3 -->
<g id="edge12" class="edge"><title>Node5&#45;&gt;Node3</title>
<path fill="none" stroke="midnightblue" d="M221.949,-69.5573C213.695,-69.7331 205.109,-69.7886 196.646,-69.7238"/>
<polygon fill="midnightblue" stroke="midnightblue" points="196.46,-66.2211 186.414,-69.5852 196.365,-73.2205 196.46,-66.2211"/>
</g>
<!-- Node5&#45;&gt;Node4 -->
<g id="edge10" class="edge"><title>Node5&#45;&gt;Node4</title>
<path fill="none" stroke="midnightblue" d="M332.407,-69.5387C340.645,-70.5109 349.272,-71.529 357.893,-72.5464"/>
<polygon fill="midnightblue" stroke="midnightblue" points="357.645,-76.0414 367.987,-73.7376 358.466,-69.0896 357.645,-76.0414"/>
</g>
</g>
</svg>
