<?xml version="1.0" encoding="UTF-8" standalone="no"?>
<!DOCTYPE svg PUBLIC "-//W3C//DTD SVG 1.1//EN"
 "http://www.w3.org/Graphics/SVG/1.1/DTD/svg11.dtd">
<!-- Generated by graphviz version 2.26.3 (20100126.1600)
 -->
<!-- Title: addFavoriteProject Pages: 1 -->
<svg width="344pt" height="94pt"
 viewBox="0.00 0.00 344.00 94.00" xmlns="http://www.w3.org/2000/svg" xmlns:xlink="http://www.w3.org/1999/xlink">
<g id="graph1" class="graph" transform="scale(1 1) rotate(0) translate(4 90)">
<title>addFavoriteProject</title>
<polygon fill="white" stroke="white" points="-4,5 -4,-90 341,-90 341,5 -4,5"/>
<!-- Node1 -->
<g id="node1" class="node"><title>Node1</title>
<polygon fill="#bfbfbf" stroke="black" points="0,-32.5 0,-53.5 98,-53.5 98,-32.5 0,-32.5"/>
<text text-anchor="middle" x="49" y="-40.5" font-family="Helvetica,sans-Serif" font-size="10.00">addFavoriteProject</text>
</g>
<!-- Node2 -->
<g id="node3" class="node"><title>Node2</title>
<a xlink:href="../../d1/def/class_control_panel.html#af48b18b1f3edf33ae8c178b192a0641c" target="_top" xlink:title="ControlPanel::on_project\lTreeView_customContextMenuRequested">
<polygon fill="white" stroke="black" points="134.5,-52 134.5,-86 335.5,-86 335.5,-52 134.5,-52"/>
<text text-anchor="start" x="142.5" y="-73" font-family="Helvetica,sans-Serif" font-size="10.00">ControlPanel::on_project</text>
<text text-anchor="middle" x="235" y="-60" font-family="Helvetica,sans-Serif" font-size="10.00">TreeView_customContextMenuRequested</text>
</a>
</g>
<!-- Node1&#45;&gt;Node2 -->
<g id="edge2" class="edge"><title>Node1&#45;&gt;Node2</title>
<path fill="none" stroke="midnightblue" d="M108.314,-51.2912C116.666,-52.4587 125.437,-53.6848 134.302,-54.924"/>
<polygon fill="midnightblue" stroke="midnightblue" points="108.745,-47.8174 98.3563,-49.8993 107.775,-54.75 108.745,-47.8174"/>
</g>
<!-- Node3 -->
<g id="node5" class="node"><title>Node3</title>
<a xlink:href="../../d1/def/class_control_panel.html#ac2ec613a69ae9cdaed6e1725e7fcf8c1" target="_top" xlink:title="ControlPanel::on_recentProjects\lListView_customContextMenuRequested">
<polygon fill="white" stroke="black" points="136.5,-0 136.5,-34 333.5,-34 333.5,-0 136.5,-0"/>
<text text-anchor="start" x="144.5" y="-21" font-family="Helvetica,sans-Serif" font-size="10.00">ControlPanel::on_recentProjects</text>
<text text-anchor="middle" x="235" y="-8" font-family="Helvetica,sans-Serif" font-size="10.00">ListView_customContextMenuRequested</text>
</a>
</g>
<!-- Node1&#45;&gt;Node3 -->
<g id="edge4" class="edge"><title>Node1&#45;&gt;Node3</title>
<path fill="none" stroke="midnightblue" d="M108.319,-34.708C117.348,-33.446 126.865,-32.1156 136.462,-30.7741"/>
<polygon fill="midnightblue" stroke="midnightblue" points="107.775,-31.25 98.3563,-36.1007 108.745,-38.1826 107.775,-31.25"/>
</g>
</g>
</svg>
