<?xml version="1.0" encoding="UTF-8" standalone="no"?>
<!DOCTYPE svg PUBLIC "-//W3C//DTD SVG 1.1//EN"
 "http://www.w3.org/Graphics/SVG/1.1/DTD/svg11.dtd">
<!-- Generated by graphviz version 2.26.3 (20100126.1600)
 -->
<!-- Title: /home/travis/build/LibrePCB/LibrePCB/libs/librepcbworkspace/settings/items/wsi_base.h Pages: 1 -->
<svg width="1940pt" height="364pt"
 viewBox="0.00 0.00 1940.00 364.00" xmlns="http://www.w3.org/2000/svg" xmlns:xlink="http://www.w3.org/1999/xlink">
<g id="graph1" class="graph" transform="scale(1 1) rotate(0) translate(4 360)">
<title>/home/travis/build/LibrePCB/LibrePCB/libs/librepcbworkspace/settings/items/wsi_base.h</title>
<polygon fill="white" stroke="white" points="-4,5 -4,-360 1937,-360 1937,5 -4,5"/>
<!-- Node1 -->
<g id="node1" class="node"><title>Node1</title>
<polygon fill="#bfbfbf" stroke="black" points="1127,-295 1127,-355 1265,-355 1265,-295 1127,-295"/>
<text text-anchor="start" x="1135" y="-342" font-family="Helvetica,sans-Serif" font-size="10.00">/home/travis/build</text>
<text text-anchor="start" x="1135" y="-329" font-family="Helvetica,sans-Serif" font-size="10.00">/LibrePCB/LibrePCB/libs</text>
<text text-anchor="start" x="1135" y="-316" font-family="Helvetica,sans-Serif" font-size="10.00">/librepcbworkspace/settings</text>
<text text-anchor="middle" x="1196" y="-303" font-family="Helvetica,sans-Serif" font-size="10.00">/items/wsi_base.h</text>
</g>
<!-- Node2 -->
<g id="node3" class="node"><title>Node2</title>
<a xlink:href="../../d1/df7/wsi__applocale_8h.html" target="_top" xlink:title="/home/travis/build\l/LibrePCB/LibrePCB/libs\l/librepcbworkspace/settings\l/items/wsi_applocale.h">
<polygon fill="white" stroke="black" points="1519,-197 1519,-257 1657,-257 1657,-197 1519,-197"/>
<text text-anchor="start" x="1527" y="-244" font-family="Helvetica,sans-Serif" font-size="10.00">/home/travis/build</text>
<text text-anchor="start" x="1527" y="-231" font-family="Helvetica,sans-Serif" font-size="10.00">/LibrePCB/LibrePCB/libs</text>
<text text-anchor="start" x="1527" y="-218" font-family="Helvetica,sans-Serif" font-size="10.00">/librepcbworkspace/settings</text>
<text text-anchor="middle" x="1588" y="-205" font-family="Helvetica,sans-Serif" font-size="10.00">/items/wsi_applocale.h</text>
</a>
</g>
<!-- Node1&#45;&gt;Node2 -->
<g id="edge2" class="edge"><title>Node1&#45;&gt;Node2</title>
<path fill="none" stroke="midnightblue" d="M1275.17,-311.915C1339.23,-300.421 1431.39,-281.824 1510,-258 1512.93,-257.112 1515.9,-256.162 1518.89,-255.165"/>
<polygon fill="midnightblue" stroke="midnightblue" points="1274.37,-308.502 1265.14,-313.698 1275.6,-315.394 1274.37,-308.502"/>
</g>
<!-- Node10 -->
<g id="node19" class="node"><title>Node10</title>
<a xlink:href="../../d1/daf/wsi__base_8cpp.html" target="_top" xlink:title="/home/travis/build\l/LibrePCB/LibrePCB/libs\l/librepcbworkspace/settings\l/items/wsi_base.cpp">
<polygon fill="white" stroke="black" points="1794,-1 1794,-61 1932,-61 1932,-1 1794,-1"/>
<text text-anchor="start" x="1802" y="-48" font-family="Helvetica,sans-Serif" font-size="10.00">/home/travis/build</text>
<text text-anchor="start" x="1802" y="-35" font-family="Helvetica,sans-Serif" font-size="10.00">/LibrePCB/LibrePCB/libs</text>
<text text-anchor="start" x="1802" y="-22" font-family="Helvetica,sans-Serif" font-size="10.00">/librepcbworkspace/settings</text>
<text text-anchor="middle" x="1863" y="-9" font-family="Helvetica,sans-Serif" font-size="10.00">/items/wsi_base.cpp</text>
</a>
</g>
<!-- Node1&#45;&gt;Node10 -->
<g id="edge66" class="edge"><title>Node1&#45;&gt;Node10</title>
<path fill="none" stroke="midnightblue" d="M1275.52,-320.374C1391.47,-312.509 1600.31,-293.787 1666,-258 1751.92,-211.195 1817.66,-111.18 1846.69,-61.007"/>
<polygon fill="midnightblue" stroke="midnightblue" points="1275.02,-316.899 1265.28,-321.057 1275.49,-323.883 1275.02,-316.899"/>
</g>
<!-- Node16 -->
<g id="node31" class="node"><title>Node16</title>
<a xlink:href="../../dd/d8d/wsi__appdefaultmeasurementunits_8h.html" target="_top" xlink:title="/home/travis/build\l/LibrePCB/LibrePCB/libs\l/librepcbworkspace/settings\l/items/wsi_appdefaultmeasurementunits.h">
<polygon fill="white" stroke="black" points="467,-197 467,-257 667,-257 667,-197 467,-197"/>
<text text-anchor="start" x="475" y="-244" font-family="Helvetica,sans-Serif" font-size="10.00">/home/travis/build</text>
<text text-anchor="start" x="475" y="-231" font-family="Helvetica,sans-Serif" font-size="10.00">/LibrePCB/LibrePCB/libs</text>
<text text-anchor="start" x="475" y="-218" font-family="Helvetica,sans-Serif" font-size="10.00">/librepcbworkspace/settings</text>
<text text-anchor="middle" x="567" y="-205" font-family="Helvetica,sans-Serif" font-size="10.00">/items/wsi_appdefaultmeasurementunits.h</text>
</a>
</g>
<!-- Node1&#45;&gt;Node16 -->
<g id="edge30" class="edge"><title>Node1&#45;&gt;Node16</title>
<path fill="none" stroke="midnightblue" d="M1116.63,-318.479C1014.13,-309.212 830.516,-289.743 676,-258 673.109,-257.406 670.183,-256.775 667.235,-256.114"/>
<polygon fill="midnightblue" stroke="midnightblue" points="1116.63,-321.993 1126.9,-319.398 1117.26,-315.021 1116.63,-321.993"/>
</g>
<!-- Node18 -->
<g id="node36" class="node"><title>Node18</title>
<a xlink:href="../../d8/d1a/wsi__projectautosaveinterval_8h.html" target="_top" xlink:title="/home/travis/build\l/LibrePCB/LibrePCB/libs\l/librepcbworkspace/settings\l/items/wsi_projectautosaveinterval.h">
<polygon fill="white" stroke="black" points="685,-197 685,-257 861,-257 861,-197 685,-197"/>
<text text-anchor="start" x="693" y="-244" font-family="Helvetica,sans-Serif" font-size="10.00">/home/travis/build</text>
<text text-anchor="start" x="693" y="-231" font-family="Helvetica,sans-Serif" font-size="10.00">/LibrePCB/LibrePCB/libs</text>
<text text-anchor="start" x="693" y="-218" font-family="Helvetica,sans-Serif" font-size="10.00">/librepcbworkspace/settings</text>
<text text-anchor="middle" x="773" y="-205" font-family="Helvetica,sans-Serif" font-size="10.00">/items/wsi_projectautosaveinterval.h</text>
</a>
</g>
<!-- Node1&#45;&gt;Node18 -->
<g id="edge36" class="edge"><title>Node1&#45;&gt;Node18</title>
<path fill="none" stroke="midnightblue" d="M1116.85,-311.178C1050.49,-299.007 953.473,-279.85 870,-258 867.092,-257.239 864.143,-256.442 861.171,-255.618"/>
<polygon fill="midnightblue" stroke="midnightblue" points="1116.35,-314.645 1126.82,-312.996 1117.61,-307.759 1116.35,-314.645"/>
</g>
<!-- Node20 -->
<g id="node41" class="node"><title>Node20</title>
<a xlink:href="../../d8/d06/wsi__librarylocaleorder_8h.html" target="_top" xlink:title="/home/travis/build\l/LibrePCB/LibrePCB/libs\l/librepcbworkspace/settings\l/items/wsi_librarylocaleorder.h">
<polygon fill="white" stroke="black" points="878.5,-197 878.5,-257 1027.5,-257 1027.5,-197 878.5,-197"/>
<text text-anchor="start" x="886.5" y="-244" font-family="Helvetica,sans-Serif" font-size="10.00">/home/travis/build</text>
<text text-anchor="start" x="886.5" y="-231" font-family="Helvetica,sans-Serif" font-size="10.00">/LibrePCB/LibrePCB/libs</text>
<text text-anchor="start" x="886.5" y="-218" font-family="Helvetica,sans-Serif" font-size="10.00">/librepcbworkspace/settings</text>
<text text-anchor="middle" x="953" y="-205" font-family="Helvetica,sans-Serif" font-size="10.00">/items/wsi_librarylocaleorder.h</text>
</a>
</g>
<!-- Node1&#45;&gt;Node20 -->
<g id="edge42" class="edge"><title>Node1&#45;&gt;Node20</title>
<path fill="none" stroke="midnightblue" d="M1117.08,-293.173C1088.31,-281.568 1055.88,-268.491 1027.5,-257.045"/>
<polygon fill="midnightblue" stroke="midnightblue" points="1116.11,-296.554 1126.69,-297.048 1118.73,-290.062 1116.11,-296.554"/>
</g>
<!-- Node22 -->
<g id="node46" class="node"><title>Node22</title>
<a xlink:href="../../dd/d39/wsi__librarynormorder_8h.html" target="_top" xlink:title="/home/travis/build\l/LibrePCB/LibrePCB/libs\l/librepcbworkspace/settings\l/items/wsi_librarynormorder.h">
<polygon fill="white" stroke="black" points="1044.5,-197 1044.5,-257 1189.5,-257 1189.5,-197 1044.5,-197"/>
<text text-anchor="start" x="1052.5" y="-244" font-family="Helvetica,sans-Serif" font-size="10.00">/home/travis/build</text>
<text text-anchor="start" x="1052.5" y="-231" font-family="Helvetica,sans-Serif" font-size="10.00">/LibrePCB/LibrePCB/libs</text>
<text text-anchor="start" x="1052.5" y="-218" font-family="Helvetica,sans-Serif" font-size="10.00">/librepcbworkspace/settings</text>
<text text-anchor="middle" x="1117" y="-205" font-family="Helvetica,sans-Serif" font-size="10.00">/items/wsi_librarynormorder.h</text>
</a>
</g>
<!-- Node1&#45;&gt;Node22 -->
<g id="edge48" class="edge"><title>Node1&#45;&gt;Node22</title>
<path fill="none" stroke="midnightblue" d="M1165.17,-286.758C1157.29,-276.976 1148.92,-266.592 1141.4,-257.272"/>
<polygon fill="midnightblue" stroke="midnightblue" points="1162.65,-289.208 1171.65,-294.797 1168.1,-284.815 1162.65,-289.208"/>
</g>
<!-- Node24 -->
<g id="node51" class="node"><title>Node24</title>
<a xlink:href="../../d4/dc7/wsi__debugtools_8h.html" target="_top" xlink:title="/home/travis/build\l/LibrePCB/LibrePCB/libs\l/librepcbworkspace/settings\l/items/wsi_debugtools.h">
<polygon fill="white" stroke="black" points="1207,-197 1207,-257 1345,-257 1345,-197 1207,-197"/>
<text text-anchor="start" x="1215" y="-244" font-family="Helvetica,sans-Serif" font-size="10.00">/home/travis/build</text>
<text text-anchor="start" x="1215" y="-231" font-family="Helvetica,sans-Serif" font-size="10.00">/LibrePCB/LibrePCB/libs</text>
<text text-anchor="start" x="1215" y="-218" font-family="Helvetica,sans-Serif" font-size="10.00">/librepcbworkspace/settings</text>
<text text-anchor="middle" x="1276" y="-205" font-family="Helvetica,sans-Serif" font-size="10.00">/items/wsi_debugtools.h</text>
</a>
</g>
<!-- Node1&#45;&gt;Node24 -->
<g id="edge54" class="edge"><title>Node1&#45;&gt;Node24</title>
<path fill="none" stroke="midnightblue" d="M1227.22,-286.758C1235.2,-276.976 1243.68,-266.592 1251.29,-257.272"/>
<polygon fill="midnightblue" stroke="midnightblue" points="1224.27,-284.837 1220.66,-294.797 1229.69,-289.264 1224.27,-284.837"/>
</g>
<!-- Node26 -->
<g id="node56" class="node"><title>Node26</title>
<a xlink:href="../../db/d31/wsi__appearance_8h.html" target="_top" xlink:title="/home/travis/build\l/LibrePCB/LibrePCB/libs\l/librepcbworkspace/settings\l/items/wsi_appearance.h">
<polygon fill="white" stroke="black" points="1363,-197 1363,-257 1501,-257 1501,-197 1363,-197"/>
<text text-anchor="start" x="1371" y="-244" font-family="Helvetica,sans-Serif" font-size="10.00">/home/travis/build</text>
<text text-anchor="start" x="1371" y="-231" font-family="Helvetica,sans-Serif" font-size="10.00">/LibrePCB/LibrePCB/libs</text>
<text text-anchor="start" x="1371" y="-218" font-family="Helvetica,sans-Serif" font-size="10.00">/librepcbworkspace/settings</text>
<text text-anchor="middle" x="1432" y="-205" font-family="Helvetica,sans-Serif" font-size="10.00">/items/wsi_appearance.h</text>
</a>
</g>
<!-- Node1&#45;&gt;Node26 -->
<g id="edge60" class="edge"><title>Node1&#45;&gt;Node26</title>
<path fill="none" stroke="midnightblue" d="M1274.73,-292.306C1303.23,-280.473 1335.17,-267.208 1362.79,-255.741"/>
<polygon fill="midnightblue" stroke="midnightblue" points="1273.11,-289.191 1265.21,-296.259 1275.79,-295.656 1273.11,-289.191"/>
</g>
<!-- Node3 -->
<g id="node5" class="node"><title>Node3</title>
<a xlink:href="../../d7/dfd/workspacesettings_8h.html" target="_top" xlink:title="/home/travis/build\l/LibrePCB/LibrePCB/libs\l/librepcbworkspace/settings\l/workspacesettings.h">
<polygon fill="white" stroke="black" points="1051,-99 1051,-159 1189,-159 1189,-99 1051,-99"/>
<text text-anchor="start" x="1059" y="-146" font-family="Helvetica,sans-Serif" font-size="10.00">/home/travis/build</text>
<text text-anchor="start" x="1059" y="-133" font-family="Helvetica,sans-Serif" font-size="10.00">/LibrePCB/LibrePCB/libs</text>
<text text-anchor="start" x="1059" y="-120" font-family="Helvetica,sans-Serif" font-size="10.00">/librepcbworkspace/settings</text>
<text text-anchor="middle" x="1120" y="-107" font-family="Helvetica,sans-Serif" font-size="10.00">/workspacesettings.h</text>
</a>
</g>
<!-- Node2&#45;&gt;Node3 -->
<g id="edge4" class="edge"><title>Node2&#45;&gt;Node3</title>
<path fill="none" stroke="midnightblue" d="M1509.01,-196.021C1372.65,-163.398 1330.19,-193.274 1198,-160 1195.03,-159.253 1192.03,-158.42 1189.01,-157.52"/>
<polygon fill="midnightblue" stroke="midnightblue" points="1508.44,-199.487 1518.99,-198.48 1510.12,-192.69 1508.44,-199.487"/>
</g>
<!-- Node15 -->
<g id="node29" class="node"><title>Node15</title>
<a xlink:href="../../dd/d44/wsi__applocale_8cpp.html" target="_top" xlink:title="/home/travis/build\l/LibrePCB/LibrePCB/libs\l/librepcbworkspace/settings\l/items/wsi_applocale.cpp">
<polygon fill="white" stroke="black" points="1519,-99 1519,-159 1657,-159 1657,-99 1519,-99"/>
<text text-anchor="start" x="1527" y="-146" font-family="Helvetica,sans-Serif" font-size="10.00">/home/travis/build</text>
<text text-anchor="start" x="1527" y="-133" font-family="Helvetica,sans-Serif" font-size="10.00">/LibrePCB/LibrePCB/libs</text>
<text text-anchor="start" x="1527" y="-120" font-family="Helvetica,sans-Serif" font-size="10.00">/librepcbworkspace/settings</text>
<text text-anchor="middle" x="1588" y="-107" font-family="Helvetica,sans-Serif" font-size="10.00">/items/wsi_applocale.cpp</text>
</a>
</g>
<!-- Node2&#45;&gt;Node15 -->
<g id="edge28" class="edge"><title>Node2&#45;&gt;Node15</title>
<path fill="none" stroke="midnightblue" d="M1588,-186.696C1588,-177.527 1588,-167.939 1588,-159.272"/>
<polygon fill="midnightblue" stroke="midnightblue" points="1584.5,-186.797 1588,-196.797 1591.5,-186.797 1584.5,-186.797"/>
</g>
<!-- Node4 -->
<g id="node7" class="node"><title>Node4</title>
<a xlink:href="../../de/de5/boardeditor_8cpp.html" target="_top" xlink:title="/home/travis/build\l/LibrePCB/LibrePCB/libs\l/librepcbprojecteditor\l/boardeditor/boardeditor.cpp">
<polygon fill="white" stroke="black" points="1327.5,-1 1327.5,-61 1464.5,-61 1464.5,-1 1327.5,-1"/>
<text text-anchor="start" x="1335.5" y="-48" font-family="Helvetica,sans-Serif" font-size="10.00">/home/travis/build</text>
<text text-anchor="start" x="1335.5" y="-35" font-family="Helvetica,sans-Serif" font-size="10.00">/LibrePCB/LibrePCB/libs</text>
<text text-anchor="start" x="1335.5" y="-22" font-family="Helvetica,sans-Serif" font-size="10.00">/librepcbprojecteditor</text>
<text text-anchor="middle" x="1396" y="-9" font-family="Helvetica,sans-Serif" font-size="10.00">/boardeditor/boardeditor.cpp</text>
</a>
</g>
<!-- Node3&#45;&gt;Node4 -->
<g id="edge6" class="edge"><title>Node3&#45;&gt;Node4</title>
<path fill="none" stroke="midnightblue" d="M1198.94,-97.7915C1252.77,-79.6585 1268.93,-79.4858 1319,-62 1321.72,-61.0498 1324.49,-60.0589 1327.27,-59.0394"/>
<polygon fill="midnightblue" stroke="midnightblue" points="1197.53,-94.5742 1189.2,-101.126 1199.8,-101.196 1197.53,-94.5742"/>
</g>
<!-- Node5 -->
<g id="node9" class="node"><title>Node5</title>
<a xlink:href="../../da/d64/addgencompdialog_8cpp.html" target="_top" xlink:title="/home/travis/build\l/LibrePCB/LibrePCB/libs\l/librepcbprojecteditor\l/dialogs/addgencompdialog.cpp">
<polygon fill="white" stroke="black" points="1481.5,-1 1481.5,-61 1634.5,-61 1634.5,-1 1481.5,-1"/>
<text text-anchor="start" x="1489.5" y="-48" font-family="Helvetica,sans-Serif" font-size="10.00">/home/travis/build</text>
<text text-anchor="start" x="1489.5" y="-35" font-family="Helvetica,sans-Serif" font-size="10.00">/LibrePCB/LibrePCB/libs</text>
<text text-anchor="start" x="1489.5" y="-22" font-family="Helvetica,sans-Serif" font-size="10.00">/librepcbprojecteditor</text>
<text text-anchor="middle" x="1558" y="-9" font-family="Helvetica,sans-Serif" font-size="10.00">/dialogs/addgencompdialog.cpp</text>
</a>
</g>
<!-- Node3&#45;&gt;Node5 -->
<g id="edge8" class="edge"><title>Node3&#45;&gt;Node5</title>
<path fill="none" stroke="midnightblue" d="M1198.98,-98.0028C1319.26,-68.2426 1356.42,-90.5211 1473,-62 1475.75,-61.3281 1478.53,-60.5974 1481.32,-59.8195"/>
<polygon fill="midnightblue" stroke="midnightblue" points="1197.85,-94.6788 1189.02,-100.537 1199.58,-101.462 1197.85,-94.6788"/>
</g>
<!-- Node6 -->
<g id="node11" class="node"><title>Node6</title>
<a xlink:href="../../da/d1e/projecteditor_8cpp.html" target="_top" xlink:title="/home/travis/build\l/LibrePCB/LibrePCB/libs\l/librepcbprojecteditor\l/projecteditor.cpp">
<polygon fill="white" stroke="black" points="1651.5,-1 1651.5,-61 1776.5,-61 1776.5,-1 1651.5,-1"/>
<text text-anchor="start" x="1659.5" y="-48" font-family="Helvetica,sans-Serif" font-size="10.00">/home/travis/build</text>
<text text-anchor="start" x="1659.5" y="-35" font-family="Helvetica,sans-Serif" font-size="10.00">/LibrePCB/LibrePCB/libs</text>
<text text-anchor="start" x="1659.5" y="-22" font-family="Helvetica,sans-Serif" font-size="10.00">/librepcbprojecteditor</text>
<text text-anchor="middle" x="1714" y="-9" font-family="Helvetica,sans-Serif" font-size="10.00">/projecteditor.cpp</text>
</a>
</g>
<!-- Node3&#45;&gt;Node6 -->
<g id="edge10" class="edge"><title>Node3&#45;&gt;Node6</title>
<path fill="none" stroke="midnightblue" d="M1199.35,-97.955C1393.23,-54.7388 1453.75,-109.557 1643,-62 1645.74,-61.3116 1648.51,-60.5276 1651.28,-59.6682"/>
<polygon fill="midnightblue" stroke="midnightblue" points="1198.38,-94.5858 1189.41,-100.228 1199.94,-101.409 1198.38,-94.5858"/>
</g>
<!-- Node7 -->
<g id="node13" class="node"><title>Node7</title>
<a xlink:href="../../d1/d1e/schematiceditor_8cpp.html" target="_top" xlink:title="/home/travis/build\l/LibrePCB/LibrePCB/libs\l/librepcbprojecteditor\l/schematiceditor/schematiceditor.cpp">
<polygon fill="white" stroke="black" points="-0.5,-1 -0.5,-61 178.5,-61 178.5,-1 -0.5,-1"/>
<text text-anchor="start" x="7.5" y="-48" font-family="Helvetica,sans-Serif" font-size="10.00">/home/travis/build</text>
<text text-anchor="start" x="7.5" y="-35" font-family="Helvetica,sans-Serif" font-size="10.00">/LibrePCB/LibrePCB/libs</text>
<text text-anchor="start" x="7.5" y="-22" font-family="Helvetica,sans-Serif" font-size="10.00">/librepcbprojecteditor</text>
<text text-anchor="middle" x="89" y="-9" font-family="Helvetica,sans-Serif" font-size="10.00">/schematiceditor/schematiceditor.cpp</text>
</a>
</g>
<!-- Node3&#45;&gt;Node7 -->
<g id="edge12" class="edge"><title>Node3&#45;&gt;Node7</title>
<path fill="none" stroke="midnightblue" d="M1040.65,-97.9849C668.107,-20.5529 558.287,-127.35 187,-62 184.276,-61.5205 181.522,-60.9855 178.753,-60.4034"/>
<polygon fill="midnightblue" stroke="midnightblue" points="1040.11,-101.449 1050.62,-100.088 1041.56,-94.5997 1040.11,-101.449"/>
</g>
<!-- Node8 -->
<g id="node15" class="node"><title>Node8</title>
<a xlink:href="../../d5/d41/favoriteprojectsmodel_8cpp.html" target="_top" xlink:title="/home/travis/build\l/LibrePCB/LibrePCB/libs\l/librepcbworkspace/favoriteprojectsmodel.cpp">
<polygon fill="white" stroke="black" points="195.5,-7.5 195.5,-54.5 410.5,-54.5 410.5,-7.5 195.5,-7.5"/>
<text text-anchor="start" x="203.5" y="-41.5" font-family="Helvetica,sans-Serif" font-size="10.00">/home/travis/build</text>
<text text-anchor="start" x="203.5" y="-28.5" font-family="Helvetica,sans-Serif" font-size="10.00">/LibrePCB/LibrePCB/libs</text>
<text text-anchor="middle" x="303" y="-15.5" font-family="Helvetica,sans-Serif" font-size="10.00">/librepcbworkspace/favoriteprojectsmodel.cpp</text>
</a>
</g>
<!-- Node3&#45;&gt;Node8 -->
<g id="edge14" class="edge"><title>Node3&#45;&gt;Node8</title>
<path fill="none" stroke="midnightblue" d="M1040.47,-97.9276C769.271,-39.6572 689.491,-105.493 419,-62 407.063,-60.0806 394.58,-57.4396 382.412,-54.5027"/>
<polygon fill="midnightblue" stroke="midnightblue" points="1040.09,-101.428 1050.61,-100.145 1041.59,-94.5899 1040.09,-101.428"/>
</g>
<!-- Node9 -->
<g id="node17" class="node"><title>Node9</title>
<a xlink:href="../../d8/da7/recentprojectsmodel_8cpp.html" target="_top" xlink:title="/home/travis/build\l/LibrePCB/LibrePCB/libs\l/librepcbworkspace/recentprojectsmodel.cpp">
<polygon fill="white" stroke="black" points="428,-7.5 428,-54.5 638,-54.5 638,-7.5 428,-7.5"/>
<text text-anchor="start" x="436" y="-41.5" font-family="Helvetica,sans-Serif" font-size="10.00">/home/travis/build</text>
<text text-anchor="start" x="436" y="-28.5" font-family="Helvetica,sans-Serif" font-size="10.00">/LibrePCB/LibrePCB/libs</text>
<text text-anchor="middle" x="533" y="-15.5" font-family="Helvetica,sans-Serif" font-size="10.00">/librepcbworkspace/recentprojectsmodel.cpp</text>
</a>
</g>
<!-- Node3&#45;&gt;Node9 -->
<g id="edge16" class="edge"><title>Node3&#45;&gt;Node9</title>
<path fill="none" stroke="midnightblue" d="M1040.69,-97.9394C868.645,-58.3448 817.273,-92.6677 647,-62 635.797,-59.9822 624.093,-57.3823 612.633,-54.5475"/>
<polygon fill="midnightblue" stroke="midnightblue" points="1040.04,-101.383 1050.58,-100.265 1041.65,-94.5686 1040.04,-101.383"/>
</g>
<!-- Node3&#45;&gt;Node10 -->
<g id="edge18" class="edge"><title>Node3&#45;&gt;Node10</title>
<path fill="none" stroke="midnightblue" d="M1199.35,-97.9713C1455.07,-42.9751 1533.15,-118.259 1785,-62 1787.84,-61.3646 1790.72,-60.6393 1793.61,-59.842"/>
<polygon fill="midnightblue" stroke="midnightblue" points="1198.41,-94.5937 1189.39,-100.158 1199.91,-101.431 1198.41,-94.5937"/>
</g>
<!-- Node11 -->
<g id="node21" class="node"><title>Node11</title>
<a xlink:href="../../df/d5a/workspacesettings_8cpp.html" target="_top" xlink:title="/home/travis/build\l/LibrePCB/LibrePCB/libs\l/librepcbworkspace/settings\l/workspacesettings.cpp">
<polygon fill="white" stroke="black" points="656,-1 656,-61 794,-61 794,-1 656,-1"/>
<text text-anchor="start" x="664" y="-48" font-family="Helvetica,sans-Serif" font-size="10.00">/home/travis/build</text>
<text text-anchor="start" x="664" y="-35" font-family="Helvetica,sans-Serif" font-size="10.00">/LibrePCB/LibrePCB/libs</text>
<text text-anchor="start" x="664" y="-22" font-family="Helvetica,sans-Serif" font-size="10.00">/librepcbworkspace/settings</text>
<text text-anchor="middle" x="725" y="-9" font-family="Helvetica,sans-Serif" font-size="10.00">/workspacesettings.cpp</text>
</a>
</g>
<!-- Node3&#45;&gt;Node11 -->
<g id="edge20" class="edge"><title>Node3&#45;&gt;Node11</title>
<path fill="none" stroke="midnightblue" d="M1041.26,-98.0454C936.385,-71.1128 903.663,-89.1993 803,-62 800.046,-61.2018 797.051,-60.3259 794.043,-59.3905"/>
<polygon fill="midnightblue" stroke="midnightblue" points="1040.39,-101.437 1050.96,-100.609 1042.18,-94.6693 1040.39,-101.437"/>
</g>
<!-- Node12 -->
<g id="node23" class="node"><title>Node12</title>
<a xlink:href="../../d3/d42/workspacesettingsdialog_8cpp.html" target="_top" xlink:title="/home/travis/build\l/LibrePCB/LibrePCB/libs\l/librepcbworkspace/settings\l/workspacesettingsdialog.cpp">
<polygon fill="white" stroke="black" points="812,-1 812,-61 958,-61 958,-1 812,-1"/>
<text text-anchor="start" x="820" y="-48" font-family="Helvetica,sans-Serif" font-size="10.00">/home/travis/build</text>
<text text-anchor="start" x="820" y="-35" font-family="Helvetica,sans-Serif" font-size="10.00">/LibrePCB/LibrePCB/libs</text>
<text text-anchor="start" x="820" y="-22" font-family="Helvetica,sans-Serif" font-size="10.00">/librepcbworkspace/settings</text>
<text text-anchor="middle" x="885" y="-9" font-family="Helvetica,sans-Serif" font-size="10.00">/workspacesettingsdialog.cpp</text>
</a>
</g>
<!-- Node3&#45;&gt;Node12 -->
<g id="edge22" class="edge"><title>Node3&#45;&gt;Node12</title>
<path fill="none" stroke="midnightblue" d="M1041.27,-96.1686C1014.04,-84.8111 983.672,-72.1483 957.005,-61.0275"/>
<polygon fill="midnightblue" stroke="midnightblue" points="1040.19,-99.5082 1050.76,-100.127 1042.88,-93.0474 1040.19,-99.5082"/>
</g>
<!-- Node13 -->
<g id="node25" class="node"><title>Node13</title>
<a xlink:href="../../d8/dad/workspace_8cpp.html" target="_top" xlink:title="/home/travis/build\l/LibrePCB/LibrePCB/libs\l/librepcbworkspace/workspace.cpp">
<polygon fill="white" stroke="black" points="976,-7.5 976,-54.5 1146,-54.5 1146,-7.5 976,-7.5"/>
<text text-anchor="start" x="984" y="-41.5" font-family="Helvetica,sans-Serif" font-size="10.00">/home/travis/build</text>
<text text-anchor="start" x="984" y="-28.5" font-family="Helvetica,sans-Serif" font-size="10.00">/LibrePCB/LibrePCB/libs</text>
<text text-anchor="middle" x="1061" y="-15.5" font-family="Helvetica,sans-Serif" font-size="10.00">/librepcbworkspace/workspace.cpp</text>
</a>
</g>
<!-- Node3&#45;&gt;Node13 -->
<g id="edge24" class="edge"><title>Node3&#45;&gt;Node13</title>
<path fill="none" stroke="midnightblue" d="M1096.46,-89.9039C1089.3,-78.0027 1081.64,-65.288 1075.29,-54.7289"/>
<polygon fill="midnightblue" stroke="midnightblue" points="1093.66,-92.0351 1101.82,-98.7971 1099.66,-88.4247 1093.66,-92.0351"/>
</g>
<!-- Node14 -->
<g id="node27" class="node"><title>Node14</title>
<a xlink:href="../../d1/d4e/controlpanel_8cpp.html" target="_top" xlink:title="/home/travis/build\l/LibrePCB/LibrePCB/librepcb\l/controlpanel/controlpanel.cpp">
<polygon fill="white" stroke="black" points="1164,-7.5 1164,-54.5 1310,-54.5 1310,-7.5 1164,-7.5"/>
<text text-anchor="start" x="1172" y="-41.5" font-family="Helvetica,sans-Serif" font-size="10.00">/home/travis/build</text>
<text text-anchor="start" x="1172" y="-28.5" font-family="Helvetica,sans-Serif" font-size="10.00">/LibrePCB/LibrePCB/librepcb</text>
<text text-anchor="middle" x="1237" y="-15.5" font-family="Helvetica,sans-Serif" font-size="10.00">/controlpanel/controlpanel.cpp</text>
</a>
</g>
<!-- Node3&#45;&gt;Node14 -->
<g id="edge26" class="edge"><title>Node3&#45;&gt;Node14</title>
<path fill="none" stroke="midnightblue" d="M1163.77,-92.3417C1178.79,-79.758 1195.2,-66.0126 1208.67,-54.7289"/>
<polygon fill="midnightblue" stroke="midnightblue" points="1161.48,-89.6928 1156.06,-98.7971 1165.97,-95.0591 1161.48,-89.6928"/>
</g>
<!-- Node16&#45;&gt;Node3 -->
<g id="edge32" class="edge"><title>Node16&#45;&gt;Node3</title>
<path fill="none" stroke="midnightblue" d="M677.48,-195.867C838.542,-166.846 886.42,-197.771 1042,-160 1044.83,-159.312 1047.7,-158.543 1050.57,-157.709"/>
<polygon fill="midnightblue" stroke="midnightblue" points="676.407,-192.506 667.213,-197.77 677.683,-199.389 676.407,-192.506"/>
</g>
<!-- Node17 -->
<g id="node34" class="node"><title>Node17</title>
<a xlink:href="../../d1/dd2/wsi__appdefaultmeasurementunits_8cpp.html" target="_top" xlink:title="/home/travis/build\l/LibrePCB/LibrePCB/libs\l/librepcbworkspace/settings\l/items/wsi_appdefaultmeasurementunits.cpp">
<polygon fill="white" stroke="black" points="270.5,-99 270.5,-159 481.5,-159 481.5,-99 270.5,-99"/>
<text text-anchor="start" x="278.5" y="-146" font-family="Helvetica,sans-Serif" font-size="10.00">/home/travis/build</text>
<text text-anchor="start" x="278.5" y="-133" font-family="Helvetica,sans-Serif" font-size="10.00">/LibrePCB/LibrePCB/libs</text>
<text text-anchor="start" x="278.5" y="-120" font-family="Helvetica,sans-Serif" font-size="10.00">/librepcbworkspace/settings</text>
<text text-anchor="middle" x="376" y="-107" font-family="Helvetica,sans-Serif" font-size="10.00">/items/wsi_appdefaultmeasurementunits.cpp</text>
</a>
</g>
<!-- Node16&#45;&gt;Node17 -->
<g id="edge34" class="edge"><title>Node16&#45;&gt;Node17</title>
<path fill="none" stroke="midnightblue" d="M499.445,-192.338C478.239,-181.458 455.017,-169.543 434.494,-159.012"/>
<polygon fill="midnightblue" stroke="midnightblue" points="497.901,-195.48 508.396,-196.931 501.096,-189.252 497.901,-195.48"/>
</g>
<!-- Node18&#45;&gt;Node3 -->
<g id="edge38" class="edge"><title>Node18&#45;&gt;Node3</title>
<path fill="none" stroke="midnightblue" d="M871.245,-195.792C947.388,-176.564 970.28,-181.583 1042,-160 1044.93,-159.118 1047.9,-158.172 1050.9,-157.179"/>
<polygon fill="midnightblue" stroke="midnightblue" points="869.98,-192.504 861.175,-198.396 871.732,-199.281 869.98,-192.504"/>
</g>
<!-- Node19 -->
<g id="node39" class="node"><title>Node19</title>
<a xlink:href="../../dc/d55/wsi__projectautosaveinterval_8cpp.html" target="_top" xlink:title="/home/travis/build\l/LibrePCB/LibrePCB/libs\l/librepcbworkspace/settings\l/items/wsi_projectautosaveinterval.cpp">
<polygon fill="white" stroke="black" points="499,-99 499,-159 685,-159 685,-99 499,-99"/>
<text text-anchor="start" x="507" y="-146" font-family="Helvetica,sans-Serif" font-size="10.00">/home/travis/build</text>
<text text-anchor="start" x="507" y="-133" font-family="Helvetica,sans-Serif" font-size="10.00">/LibrePCB/LibrePCB/libs</text>
<text text-anchor="start" x="507" y="-120" font-family="Helvetica,sans-Serif" font-size="10.00">/librepcbworkspace/settings</text>
<text text-anchor="middle" x="592" y="-107" font-family="Helvetica,sans-Serif" font-size="10.00">/items/wsi_projectautosaveinterval.cpp</text>
</a>
</g>
<!-- Node18&#45;&gt;Node19 -->
<g id="edge40" class="edge"><title>Node18&#45;&gt;Node19</title>
<path fill="none" stroke="midnightblue" d="M708.245,-191.939C688.407,-181.198 666.769,-169.483 647.599,-159.103"/>
<polygon fill="midnightblue" stroke="midnightblue" points="706.757,-195.114 717.217,-196.797 710.09,-188.958 706.757,-195.114"/>
</g>
<!-- Node20&#45;&gt;Node3 -->
<g id="edge44" class="edge"><title>Node20&#45;&gt;Node3</title>
<path fill="none" stroke="midnightblue" d="M1013.24,-191.649C1031.41,-180.987 1051.17,-169.389 1068.7,-159.103"/>
<polygon fill="midnightblue" stroke="midnightblue" points="1011.32,-188.717 1004.47,-196.797 1014.86,-194.755 1011.32,-188.717"/>
</g>
<!-- Node21 -->
<g id="node44" class="node"><title>Node21</title>
<a xlink:href="../../df/d4b/wsi__librarylocaleorder_8cpp.html" target="_top" xlink:title="/home/travis/build\l/LibrePCB/LibrePCB/libs\l/librepcbworkspace/settings\l/items/wsi_librarylocaleorder.cpp">
<polygon fill="white" stroke="black" points="702.5,-99 702.5,-159 861.5,-159 861.5,-99 702.5,-99"/>
<text text-anchor="start" x="710.5" y="-146" font-family="Helvetica,sans-Serif" font-size="10.00">/home/travis/build</text>
<text text-anchor="start" x="710.5" y="-133" font-family="Helvetica,sans-Serif" font-size="10.00">/LibrePCB/LibrePCB/libs</text>
<text text-anchor="start" x="710.5" y="-120" font-family="Helvetica,sans-Serif" font-size="10.00">/librepcbworkspace/settings</text>
<text text-anchor="middle" x="782" y="-107" font-family="Helvetica,sans-Serif" font-size="10.00">/items/wsi_librarylocaleorder.cpp</text>
</a>
</g>
<!-- Node20&#45;&gt;Node21 -->
<g id="edge46" class="edge"><title>Node20&#45;&gt;Node21</title>
<path fill="none" stroke="midnightblue" d="M891.569,-191.794C872.896,-181.093 852.557,-169.436 834.527,-159.103"/>
<polygon fill="midnightblue" stroke="midnightblue" points="889.883,-194.861 900.299,-196.797 893.363,-188.788 889.883,-194.861"/>
</g>
<!-- Node22&#45;&gt;Node3 -->
<g id="edge50" class="edge"><title>Node22&#45;&gt;Node3</title>
<path fill="none" stroke="midnightblue" d="M1118.23,-186.696C1118.51,-177.527 1118.81,-167.939 1119.07,-159.272"/>
<polygon fill="midnightblue" stroke="midnightblue" points="1114.73,-186.695 1117.92,-196.797 1121.73,-186.909 1114.73,-186.695"/>
</g>
<!-- Node23 -->
<g id="node49" class="node"><title>Node23</title>
<a xlink:href="../../d1/d2b/wsi__librarynormorder_8cpp.html" target="_top" xlink:title="/home/travis/build\l/LibrePCB/LibrePCB/libs\l/librepcbworkspace/settings\l/items/wsi_librarynormorder.cpp">
<polygon fill="white" stroke="black" points="878.5,-99 878.5,-159 1033.5,-159 1033.5,-99 878.5,-99"/>
<text text-anchor="start" x="886.5" y="-146" font-family="Helvetica,sans-Serif" font-size="10.00">/home/travis/build</text>
<text text-anchor="start" x="886.5" y="-133" font-family="Helvetica,sans-Serif" font-size="10.00">/LibrePCB/LibrePCB/libs</text>
<text text-anchor="start" x="886.5" y="-120" font-family="Helvetica,sans-Serif" font-size="10.00">/librepcbworkspace/settings</text>
<text text-anchor="middle" x="956" y="-107" font-family="Helvetica,sans-Serif" font-size="10.00">/items/wsi_librarynormorder.cpp</text>
</a>
</g>
<!-- Node22&#45;&gt;Node23 -->
<g id="edge52" class="edge"><title>Node22&#45;&gt;Node23</title>
<path fill="none" stroke="midnightblue" d="M1058.44,-191.358C1041.06,-180.776 1022.2,-169.296 1005.46,-159.103"/>
<polygon fill="midnightblue" stroke="midnightblue" points="1057.02,-194.587 1067.38,-196.797 1060.66,-188.608 1057.02,-194.587"/>
</g>
<!-- Node24&#45;&gt;Node3 -->
<g id="edge56" class="edge"><title>Node24&#45;&gt;Node3</title>
<path fill="none" stroke="midnightblue" d="M1219.26,-191.358C1202.42,-180.776 1184.14,-169.296 1167.92,-159.103"/>
<polygon fill="midnightblue" stroke="midnightblue" points="1217.59,-194.441 1227.92,-196.797 1221.32,-188.514 1217.59,-194.441"/>
</g>
<!-- Node25 -->
<g id="node54" class="node"><title>Node25</title>
<a xlink:href="../../d9/d83/wsi__debugtools_8cpp.html" target="_top" xlink:title="/home/travis/build\l/LibrePCB/LibrePCB/libs\l/librepcbworkspace/settings\l/items/wsi_debugtools.cpp">
<polygon fill="white" stroke="black" points="1207,-99 1207,-159 1345,-159 1345,-99 1207,-99"/>
<text text-anchor="start" x="1215" y="-146" font-family="Helvetica,sans-Serif" font-size="10.00">/home/travis/build</text>
<text text-anchor="start" x="1215" y="-133" font-family="Helvetica,sans-Serif" font-size="10.00">/LibrePCB/LibrePCB/libs</text>
<text text-anchor="start" x="1215" y="-120" font-family="Helvetica,sans-Serif" font-size="10.00">/librepcbworkspace/settings</text>
<text text-anchor="middle" x="1276" y="-107" font-family="Helvetica,sans-Serif" font-size="10.00">/items/wsi_debugtools.cpp</text>
</a>
</g>
<!-- Node24&#45;&gt;Node25 -->
<g id="edge58" class="edge"><title>Node24&#45;&gt;Node25</title>
<path fill="none" stroke="midnightblue" d="M1276,-186.696C1276,-177.527 1276,-167.939 1276,-159.272"/>
<polygon fill="midnightblue" stroke="midnightblue" points="1272.5,-186.797 1276,-196.797 1279.5,-186.797 1272.5,-186.797"/>
</g>
<!-- Node26&#45;&gt;Node3 -->
<g id="edge62" class="edge"><title>Node26&#45;&gt;Node3</title>
<path fill="none" stroke="midnightblue" d="M1353.28,-195.955C1284.26,-175.298 1263.01,-180.29 1198,-160 1195.08,-159.088 1192.11,-158.117 1189.13,-157.103"/>
<polygon fill="midnightblue" stroke="midnightblue" points="1352.29,-199.311 1362.87,-198.897 1354.34,-192.619 1352.29,-199.311"/>
</g>
<!-- Node27 -->
<g id="node59" class="node"><title>Node27</title>
<a xlink:href="../../dd/dce/wsi__appearance_8cpp.html" target="_top" xlink:title="/home/travis/build\l/LibrePCB/LibrePCB/libs\l/librepcbworkspace/settings\l/items/wsi_appearance.cpp">
<polygon fill="white" stroke="black" points="1363,-99 1363,-159 1501,-159 1501,-99 1363,-99"/>
<text text-anchor="start" x="1371" y="-146" font-family="Helvetica,sans-Serif" font-size="10.00">/home/travis/build</text>
<text text-anchor="start" x="1371" y="-133" font-family="Helvetica,sans-Serif" font-size="10.00">/LibrePCB/LibrePCB/libs</text>
<text text-anchor="start" x="1371" y="-120" font-family="Helvetica,sans-Serif" font-size="10.00">/librepcbworkspace/settings</text>
<text text-anchor="middle" x="1432" y="-107" font-family="Helvetica,sans-Serif" font-size="10.00">/items/wsi_appearance.cpp</text>
</a>
</g>
<!-- Node26&#45;&gt;Node27 -->
<g id="edge64" class="edge"><title>Node26&#45;&gt;Node27</title>
<path fill="none" stroke="midnightblue" d="M1432,-186.696C1432,-177.527 1432,-167.939 1432,-159.272"/>
<polygon fill="midnightblue" stroke="midnightblue" points="1428.5,-186.797 1432,-196.797 1435.5,-186.797 1428.5,-186.797"/>
</g>
</g>
</svg>
