<?xml version="1.0" encoding="UTF-8" standalone="no"?>
<!DOCTYPE svg PUBLIC "-//W3C//DTD SVG 1.1//EN"
 "http://www.w3.org/Graphics/SVG/1.1/DTD/svg11.dtd">
<!-- Generated by graphviz version 2.26.3 (20100126.1600)
 -->
<!-- Title: startAddingComponent Pages: 1 -->
<svg width="634pt" height="422pt"
 viewBox="0.00 0.00 634.00 422.00" xmlns="http://www.w3.org/2000/svg" xmlns:xlink="http://www.w3.org/1999/xlink">
<g id="graph1" class="graph" transform="scale(1 1) rotate(0) translate(4 418)">
<title>startAddingComponent</title>
<polygon fill="white" stroke="white" points="-4,5 -4,-418 631,-418 631,5 -4,5"/>
<!-- Node1 -->
<g id="node1" class="node"><title>Node1</title>
<polygon fill="#bfbfbf" stroke="black" points="0,-202.5 0,-223.5 116,-223.5 116,-202.5 0,-202.5"/>
<text text-anchor="middle" x="58" y="-210.5" font-family="Helvetica,sans-Serif" font-size="10.00">startAddingComponent</text>
</g>
<!-- Node2 -->
<g id="node3" class="node"><title>Node2</title>
<a xlink:href="../../dd/d8a/classlibrary_1_1_library_base_element.html#ada9b237a8629c03e16491a72730b456b" target="_top" xlink:title="library::LibraryBaseElement\l::getUuid">
<polygon fill="white" stroke="black" points="160.5,-380 160.5,-414 297.5,-414 297.5,-380 160.5,-380"/>
<text text-anchor="start" x="168.5" y="-401" font-family="Helvetica,sans-Serif" font-size="10.00">library::LibraryBaseElement</text>
<text text-anchor="middle" x="229" y="-388" font-family="Helvetica,sans-Serif" font-size="10.00">::getUuid</text>
</a>
</g>
<!-- Node1&#45;&gt;Node2 -->
<g id="edge2" class="edge"><title>Node1&#45;&gt;Node2</title>
<path fill="none" stroke="midnightblue" d="M61.366,-223.584C70.8718,-251.795 100.62,-329.462 152,-371 153.564,-372.264 155.192,-373.468 156.872,-374.614"/>
<polygon fill="midnightblue" stroke="midnightblue" points="155.28,-377.741 165.657,-379.882 158.88,-371.737 155.28,-377.741"/>
</g>
<!-- Node3 -->
<g id="node5" class="node"><title>Node3</title>
<a xlink:href="../../dd/d8a/classlibrary_1_1_library_base_element.html#aca4dbb3f44caf7609755d9b9b1bd97e9" target="_top" xlink:title="library::LibraryBaseElement\l::getVersion">
<polygon fill="white" stroke="black" points="160.5,-328 160.5,-362 297.5,-362 297.5,-328 160.5,-328"/>
<text text-anchor="start" x="168.5" y="-349" font-family="Helvetica,sans-Serif" font-size="10.00">library::LibraryBaseElement</text>
<text text-anchor="middle" x="229" y="-336" font-family="Helvetica,sans-Serif" font-size="10.00">::getVersion</text>
</a>
</g>
<!-- Node1&#45;&gt;Node3 -->
<g id="edge4" class="edge"><title>Node1&#45;&gt;Node3</title>
<path fill="none" stroke="midnightblue" d="M64.6589,-223.673C78.4093,-244.866 112.025,-292.495 152,-319 154.291,-320.519 156.68,-321.958 159.138,-323.319"/>
<polygon fill="midnightblue" stroke="midnightblue" points="157.782,-326.555 168.289,-327.917 160.925,-320.3 157.782,-326.555"/>
</g>
<!-- Node4 -->
<g id="node7" class="node"><title>Node4</title>
<a xlink:href="../../de/d34/class_version.html#a39a0bbf3901de18041fb5c324ecf412a" target="_top" xlink:title="Get the version as a string in the format &quot;1.2.3&quot;. ">
<polygon fill="white" stroke="black" points="190.5,-288.5 190.5,-309.5 267.5,-309.5 267.5,-288.5 190.5,-288.5"/>
<text text-anchor="middle" x="229" y="-296.5" font-family="Helvetica,sans-Serif" font-size="10.00">Version::toStr</text>
</a>
</g>
<!-- Node1&#45;&gt;Node4 -->
<g id="edge6" class="edge"><title>Node1&#45;&gt;Node4</title>
<path fill="none" stroke="midnightblue" d="M70.1779,-223.744C87.2923,-238.306 119.965,-264.186 152,-279 160.932,-283.13 170.857,-286.511 180.53,-289.239"/>
<polygon fill="midnightblue" stroke="midnightblue" points="179.905,-292.694 190.466,-291.85 181.684,-285.923 179.905,-292.694"/>
</g>
<!-- Node5 -->
<g id="node9" class="node"><title>Node5</title>
<a xlink:href="../../d4/d1c/class_file_path.html#ab03554821fd99cccf6f55a6686bcdc0d" target="_top" xlink:title="Get the filepath of the parent directory of the file or directory. ">
<polygon fill="white" stroke="black" points="172.5,-248.5 172.5,-269.5 285.5,-269.5 285.5,-248.5 172.5,-248.5"/>
<text text-anchor="middle" x="229" y="-256.5" font-family="Helvetica,sans-Serif" font-size="10.00">FilePath::getParentDir</text>
</a>
</g>
<!-- Node1&#45;&gt;Node5 -->
<g id="edge8" class="edge"><title>Node1&#45;&gt;Node5</title>
<path fill="none" stroke="midnightblue" d="M95.4711,-223.51C112.676,-228.298 133.356,-234.001 152,-239 160.433,-241.261 169.395,-243.625 178.112,-245.903"/>
<polygon fill="midnightblue" stroke="midnightblue" points="177.249,-249.295 187.809,-248.429 179.014,-242.521 177.249,-249.295"/>
</g>
<!-- Node8 -->
<g id="node15" class="node"><title>Node8</title>
<a xlink:href="../../de/d4c/classproject_1_1_cmd_project_library_add_element.html#ab54678f9a8e1759a9a4a872419a0275c" target="_top" xlink:title="project::CmdProjectLibrary\lAddElement::getElement">
<polygon fill="white" stroke="black" points="162.5,-196 162.5,-230 295.5,-230 295.5,-196 162.5,-196"/>
<text text-anchor="start" x="170.5" y="-217" font-family="Helvetica,sans-Serif" font-size="10.00">project::CmdProjectLibrary</text>
<text text-anchor="middle" x="229" y="-204" font-family="Helvetica,sans-Serif" font-size="10.00">AddElement::getElement</text>
</a>
</g>
<!-- Node1&#45;&gt;Node8 -->
<g id="edge14" class="edge"><title>Node1&#45;&gt;Node8</title>
<path fill="none" stroke="midnightblue" d="M116.37,-213C127.935,-213 140.239,-213 152.306,-213"/>
<polygon fill="midnightblue" stroke="midnightblue" points="152.366,-216.5 162.366,-213 152.366,-209.5 152.366,-216.5"/>
</g>
<!-- Node9 -->
<g id="node17" class="node"><title>Node9</title>
<a xlink:href="../../d5/d1e/classlibrary_1_1_gen_comp_symb_var_item.html#ae244026d0acdc7d950b6752f4ad00e4e" target="_top" xlink:title="library::GenCompSymbVarItem\l::getSymbolUuid">
<polygon fill="white" stroke="black" points="152.5,-144 152.5,-178 305.5,-178 305.5,-144 152.5,-144"/>
<text text-anchor="start" x="160.5" y="-165" font-family="Helvetica,sans-Serif" font-size="10.00">library::GenCompSymbVarItem</text>
<text text-anchor="middle" x="229" y="-152" font-family="Helvetica,sans-Serif" font-size="10.00">::getSymbolUuid</text>
</a>
</g>
<!-- Node1&#45;&gt;Node9 -->
<g id="edge16" class="edge"><title>Node1&#45;&gt;Node9</title>
<path fill="none" stroke="midnightblue" d="M92.6044,-202.477C112.847,-196.321 139.074,-188.346 163.114,-181.036"/>
<polygon fill="midnightblue" stroke="midnightblue" points="164.356,-184.316 172.905,-178.058 162.319,-177.619 164.356,-184.316"/>
</g>
<!-- Node10 -->
<g id="node19" class="node"><title>Node10</title>
<a xlink:href="../../d0/d69/class_point.html#a3da9ee2bc3910d0f0c43c30798906fdd" target="_top" xlink:title="Point::fromPx">
<polygon fill="white" stroke="black" points="190.5,-104.5 190.5,-125.5 267.5,-125.5 267.5,-104.5 190.5,-104.5"/>
<text text-anchor="middle" x="229" y="-112.5" font-family="Helvetica,sans-Serif" font-size="10.00">Point::fromPx</text>
</a>
</g>
<!-- Node1&#45;&gt;Node10 -->
<g id="edge18" class="edge"><title>Node1&#45;&gt;Node10</title>
<path fill="none" stroke="midnightblue" d="M67.6232,-202.456C83.5421,-185.655 117.083,-152.886 152,-135 160.759,-130.514 170.606,-126.975 180.259,-124.205"/>
<polygon fill="midnightblue" stroke="midnightblue" points="181.414,-127.52 190.193,-121.588 179.631,-120.751 181.414,-127.52"/>
</g>
<!-- Node14 -->
<g id="node28" class="node"><title>Node14</title>
<a xlink:href="../../dd/d2d/classproject_1_1_schematic.html#ada9b237a8629c03e16491a72730b456b" target="_top" xlink:title="project::Schematic\l::getUuid">
<polygon fill="white" stroke="black" points="180,-52 180,-86 278,-86 278,-52 180,-52"/>
<text text-anchor="start" x="188" y="-73" font-family="Helvetica,sans-Serif" font-size="10.00">project::Schematic</text>
<text text-anchor="middle" x="229" y="-60" font-family="Helvetica,sans-Serif" font-size="10.00">::getUuid</text>
</a>
</g>
<!-- Node1&#45;&gt;Node14 -->
<g id="edge28" class="edge"><title>Node1&#45;&gt;Node14</title>
<path fill="none" stroke="midnightblue" d="M63.7518,-202.161C76.5333,-179.086 109.549,-124.789 152,-95 157.587,-91.0794 163.812,-87.712 170.235,-84.8289"/>
<polygon fill="midnightblue" stroke="midnightblue" points="171.804,-87.9687 179.734,-80.9432 169.153,-81.4898 171.804,-87.9687"/>
</g>
<!-- Node15 -->
<g id="node30" class="node"><title>Node15</title>
<a xlink:href="../../d9/d81/classproject_1_1_cmd_symbol_instance_add.html#a8ca5f01ca7fa0349a47306b88ea4c415" target="_top" xlink:title="project::CmdSymbolInstance\lAdd::getSymbol">
<polygon fill="white" stroke="black" points="157.5,-0 157.5,-34 300.5,-34 300.5,-0 157.5,-0"/>
<text text-anchor="start" x="165.5" y="-21" font-family="Helvetica,sans-Serif" font-size="10.00">project::CmdSymbolInstance</text>
<text text-anchor="middle" x="229" y="-8" font-family="Helvetica,sans-Serif" font-size="10.00">Add::getSymbol</text>
</a>
</g>
<!-- Node1&#45;&gt;Node15 -->
<g id="edge30" class="edge"><title>Node1&#45;&gt;Node15</title>
<path fill="none" stroke="midnightblue" d="M60.8706,-202.482C69.4799,-172.896 97.8933,-88.1743 152,-43 153.378,-41.8499 154.808,-40.7498 156.284,-39.6978"/>
<polygon fill="midnightblue" stroke="midnightblue" points="158.513,-42.4332 165.159,-34.1819 154.818,-36.4878 158.513,-42.4332"/>
</g>
<!-- Node6 -->
<g id="node11" class="node"><title>Node6</title>
<a xlink:href="../../d4/d1c/class_file_path.html#a329a3fd87c1339c347833a8026e24c80" target="_top" xlink:title="Check if the specified filepath is the root directory. ">
<polygon fill="white" stroke="black" points="352.5,-268.5 352.5,-289.5 439.5,-289.5 439.5,-268.5 352.5,-268.5"/>
<text text-anchor="middle" x="396" y="-276.5" font-family="Helvetica,sans-Serif" font-size="10.00">FilePath::isRoot</text>
</a>
</g>
<!-- Node5&#45;&gt;Node6 -->
<g id="edge10" class="edge"><title>Node5&#45;&gt;Node6</title>
<path fill="none" stroke="midnightblue" d="M285.539,-265.771C303.896,-267.97 324.201,-270.401 342.343,-272.574"/>
<polygon fill="midnightblue" stroke="midnightblue" points="342.111,-276.071 352.457,-273.785 342.944,-269.121 342.111,-276.071"/>
</g>
<!-- Node7 -->
<g id="node13" class="node"><title>Node7</title>
<a xlink:href="../../d4/d1c/class_file_path.html#abad2142d090ea829d85560b03d47d98f" target="_top" xlink:title="The default constructor (this will create an invalid object!) ">
<polygon fill="white" stroke="black" points="348.5,-228.5 348.5,-249.5 443.5,-249.5 443.5,-228.5 348.5,-228.5"/>
<text text-anchor="middle" x="396" y="-236.5" font-family="Helvetica,sans-Serif" font-size="10.00">FilePath::FilePath</text>
</a>
</g>
<!-- Node5&#45;&gt;Node7 -->
<g id="edge12" class="edge"><title>Node5&#45;&gt;Node7</title>
<path fill="none" stroke="midnightblue" d="M285.539,-252.229C302.465,-250.202 321.046,-247.976 338.061,-245.939"/>
<polygon fill="midnightblue" stroke="midnightblue" points="338.911,-249.362 348.424,-244.698 338.079,-242.412 338.911,-249.362"/>
</g>
<!-- Node11 -->
<g id="node21" class="node"><title>Node11</title>
<a xlink:href="../../df/df0/class_length.html#a5aef66a62c626dea314f1a1e1716534b" target="_top" xlink:title="Set the length in pixels (from QGraphics* objects) ">
<polygon fill="white" stroke="black" points="342.5,-133.5 342.5,-154.5 449.5,-154.5 449.5,-133.5 342.5,-133.5"/>
<text text-anchor="middle" x="396" y="-141.5" font-family="Helvetica,sans-Serif" font-size="10.00">Length::setLengthPx</text>
</a>
</g>
<!-- Node10&#45;&gt;Node11 -->
<g id="edge20" class="edge"><title>Node10&#45;&gt;Node11</title>
<path fill="none" stroke="midnightblue" d="M267.733,-121.726C286.865,-125.048 310.448,-129.144 332.153,-132.913"/>
<polygon fill="midnightblue" stroke="midnightblue" points="331.847,-136.412 342.298,-134.675 333.045,-129.515 331.847,-136.412"/>
</g>
<!-- Node13 -->
<g id="node25" class="node"><title>Node13</title>
<a xlink:href="../../d0/d69/class_point.html#aaf8d7a6826dcd72e03dc632960106b90" target="_top" xlink:title="Map this Point object to a specific grid interval. ">
<polygon fill="white" stroke="black" points="349.5,-75.5 349.5,-96.5 442.5,-96.5 442.5,-75.5 349.5,-75.5"/>
<text text-anchor="middle" x="396" y="-83.5" font-family="Helvetica,sans-Serif" font-size="10.00">Point::mapToGrid</text>
</a>
</g>
<!-- Node10&#45;&gt;Node13 -->
<g id="edge24" class="edge"><title>Node10&#45;&gt;Node13</title>
<path fill="none" stroke="midnightblue" d="M267.733,-108.274C289.063,-104.57 315.927,-99.9048 339.552,-95.8023"/>
<polygon fill="midnightblue" stroke="midnightblue" points="340.2,-99.2423 349.453,-94.0829 339.002,-92.3455 340.2,-99.2423"/>
</g>
<!-- Node12 -->
<g id="node23" class="node"><title>Node12</title>
<a xlink:href="../../df/df0/class_length.html#a73dbcae99cc78c7f7e737d5211154527" target="_top" xlink:title="Set the length from a floating point number in nanometers. ">
<polygon fill="white" stroke="black" points="486.5,-133.5 486.5,-154.5 625.5,-154.5 625.5,-133.5 486.5,-133.5"/>
<text text-anchor="middle" x="556" y="-141.5" font-family="Helvetica,sans-Serif" font-size="10.00">Length::setLengthFromFloat</text>
</a>
</g>
<!-- Node11&#45;&gt;Node12 -->
<g id="edge22" class="edge"><title>Node11&#45;&gt;Node12</title>
<path fill="none" stroke="midnightblue" d="M449.723,-144C458.232,-144 467.187,-144 476.14,-144"/>
<polygon fill="midnightblue" stroke="midnightblue" points="476.223,-147.5 486.223,-144 476.223,-140.5 476.223,-147.5"/>
</g>
<!-- Node13&#45;&gt;Node13 -->
<g id="edge26" class="edge"><title>Node13&#45;&gt;Node13</title>
<path fill="none" stroke="midnightblue" d="M370.578,-96.7079C359.713,-105.653 368.188,-115 396,-115 413.817,-115 423.698,-111.164 425.643,-106.055"/>
<polygon fill="midnightblue" stroke="midnightblue" points="428.727,-104.382 421.422,-96.7079 422.348,-107.262 428.727,-104.382"/>
</g>
</g>
</svg>
