<?xml version="1.0" encoding="UTF-8" standalone="no"?>
<!DOCTYPE svg PUBLIC "-//W3C//DTD SVG 1.1//EN"
 "http://www.w3.org/Graphics/SVG/1.1/DTD/svg11.dtd">
<!-- Generated by graphviz version 2.26.3 (20100126.1600)
 -->
<!-- Title: getPackageUuid Pages: 1 -->
<svg width="692pt" height="192pt"
 viewBox="0.00 0.00 692.00 192.00" xmlns="http://www.w3.org/2000/svg" xmlns:xlink="http://www.w3.org/1999/xlink">
<g id="graph1" class="graph" transform="scale(1 1) rotate(0) translate(4 188)">
<title>getPackageUuid</title>
<polygon fill="white" stroke="white" points="-4,5 -4,-188 689,-188 689,5 -4,5"/>
<!-- Node1 -->
<g id="node1" class="node"><title>Node1</title>
<polygon fill="#bfbfbf" stroke="black" points="0.5,-107.5 0.5,-128.5 89.5,-128.5 89.5,-107.5 0.5,-107.5"/>
<text text-anchor="middle" x="45" y="-115.5" font-family="Helvetica,sans-Serif" font-size="10.00">getPackageUuid</text>
</g>
<!-- Node2 -->
<g id="node3" class="node"><title>Node2</title>
<a xlink:href="../../de/d02/classlibrary_1_1_library.html#a1dea3b622e340b2b8685735b15878ed1" target="_top" xlink:title="library::Library::addComponentsToDb">
<polygon fill="white" stroke="black" points="126.5,-143.5 126.5,-164.5 305.5,-164.5 305.5,-143.5 126.5,-143.5"/>
<text text-anchor="middle" x="216" y="-151.5" font-family="Helvetica,sans-Serif" font-size="10.00">library::Library::addComponentsToDb</text>
</a>
</g>
<!-- Node1&#45;&gt;Node2 -->
<g id="edge2" class="edge"><title>Node1&#45;&gt;Node2</title>
<path fill="none" stroke="midnightblue" d="M99.7764,-129.532C121.019,-134.004 145.181,-139.091 165.951,-143.463"/>
<polygon fill="midnightblue" stroke="midnightblue" points="100.435,-126.094 89.9282,-127.459 98.9927,-132.944 100.435,-126.094"/>
</g>
<!-- Node5 -->
<g id="node9" class="node"><title>Node5</title>
<a xlink:href="../../dc/dbb/classproject_1_1_unplaced_components_dock.html#a41c3c33dc2c3c5545110b742d536cc76" target="_top" xlink:title="project::UnplacedComponents\lDock::addComponent">
<polygon fill="white" stroke="black" points="141.5,-65 141.5,-99 290.5,-99 290.5,-65 141.5,-65"/>
<text text-anchor="start" x="149.5" y="-86" font-family="Helvetica,sans-Serif" font-size="10.00">project::UnplacedComponents</text>
<text text-anchor="middle" x="216" y="-73" font-family="Helvetica,sans-Serif" font-size="10.00">Dock::addComponent</text>
</a>
</g>
<!-- Node1&#45;&gt;Node5 -->
<g id="edge8" class="edge"><title>Node1&#45;&gt;Node5</title>
<path fill="none" stroke="midnightblue" d="M99.7862,-106.466C112.998,-103.685 127.338,-100.666 141.288,-97.7288"/>
<polygon fill="midnightblue" stroke="midnightblue" points="98.9927,-103.056 89.9282,-108.541 100.435,-109.906 98.9927,-103.056"/>
</g>
<!-- Node3 -->
<g id="node5" class="node"><title>Node3</title>
<a xlink:href="../../de/d02/classlibrary_1_1_library.html#abf6f5a1b41bdc95e7b0602fbab2219a7" target="_top" xlink:title="Rescan the whole library directory and update the SQLite database. ">
<polygon fill="white" stroke="black" points="360.5,-156.5 360.5,-177.5 473.5,-177.5 473.5,-156.5 360.5,-156.5"/>
<text text-anchor="middle" x="417" y="-164.5" font-family="Helvetica,sans-Serif" font-size="10.00">library::Library::rescan</text>
</a>
</g>
<!-- Node2&#45;&gt;Node3 -->
<g id="edge4" class="edge"><title>Node2&#45;&gt;Node3</title>
<path fill="none" stroke="midnightblue" d="M315.704,-160.449C331.07,-161.442 346.46,-162.438 360.439,-163.342"/>
<polygon fill="midnightblue" stroke="midnightblue" points="315.83,-156.949 305.625,-159.797 315.378,-163.935 315.83,-156.949"/>
</g>
<!-- Node4 -->
<g id="node7" class="node"><title>Node4</title>
<a xlink:href="../../d1/def/class_control_panel.html#a65617210fcf4b06dcce361e933bbb994" target="_top" xlink:title="ControlPanel::on_actionRescan\lLibrary_triggered">
<polygon fill="white" stroke="black" points="528.5,-150 528.5,-184 683.5,-184 683.5,-150 528.5,-150"/>
<text text-anchor="start" x="536.5" y="-171" font-family="Helvetica,sans-Serif" font-size="10.00">ControlPanel::on_actionRescan</text>
<text text-anchor="middle" x="606" y="-158" font-family="Helvetica,sans-Serif" font-size="10.00">Library_triggered</text>
</a>
</g>
<!-- Node3&#45;&gt;Node4 -->
<g id="edge6" class="edge"><title>Node3&#45;&gt;Node4</title>
<path fill="none" stroke="midnightblue" d="M483.979,-167C498.343,-167 513.636,-167 528.364,-167"/>
<polygon fill="midnightblue" stroke="midnightblue" points="483.706,-163.5 473.706,-167 483.706,-170.5 483.706,-163.5"/>
</g>
<!-- Node6 -->
<g id="node11" class="node"><title>Node6</title>
<a xlink:href="../../dc/dbb/classproject_1_1_unplaced_components_dock.html#accd0a903591840efc04eae995ba9518a" target="_top" xlink:title="project::UnplacedComponents\lDock::on_btnAdd_clicked">
<polygon fill="white" stroke="black" points="342.5,-104 342.5,-138 491.5,-138 491.5,-104 342.5,-104"/>
<text text-anchor="start" x="350.5" y="-125" font-family="Helvetica,sans-Serif" font-size="10.00">project::UnplacedComponents</text>
<text text-anchor="middle" x="417" y="-112" font-family="Helvetica,sans-Serif" font-size="10.00">Dock::on_btnAdd_clicked</text>
</a>
</g>
<!-- Node5&#45;&gt;Node6 -->
<g id="edge10" class="edge"><title>Node5&#45;&gt;Node6</title>
<path fill="none" stroke="midnightblue" d="M300.549,-98.4049C314.389,-101.09 328.643,-103.856 342.226,-106.492"/>
<polygon fill="midnightblue" stroke="midnightblue" points="301.043,-94.9357 290.559,-96.4667 299.71,-101.808 301.043,-94.9357"/>
</g>
<!-- Node7 -->
<g id="node13" class="node"><title>Node7</title>
<a xlink:href="../../dc/dbb/classproject_1_1_unplaced_components_dock.html#af175cf3f7948ac944834cad09819b753" target="_top" xlink:title="project::UnplacedComponents\lDock::on_pushButton_clicked">
<polygon fill="white" stroke="black" points="342.5,-52 342.5,-86 491.5,-86 491.5,-52 342.5,-52"/>
<text text-anchor="start" x="350.5" y="-73" font-family="Helvetica,sans-Serif" font-size="10.00">project::UnplacedComponents</text>
<text text-anchor="middle" x="417" y="-60" font-family="Helvetica,sans-Serif" font-size="10.00">Dock::on_pushButton_clicked</text>
</a>
</g>
<!-- Node5&#45;&gt;Node7 -->
<g id="edge12" class="edge"><title>Node5&#45;&gt;Node7</title>
<path fill="none" stroke="midnightblue" d="M300.549,-76.5317C314.389,-75.6365 328.643,-74.7146 342.226,-73.8361"/>
<polygon fill="midnightblue" stroke="midnightblue" points="300.313,-73.0395 290.559,-77.1778 300.764,-80.0249 300.313,-73.0395"/>
</g>
<!-- Node8 -->
<g id="node15" class="node"><title>Node8</title>
<a xlink:href="../../dc/dbb/classproject_1_1_unplaced_components_dock.html#ae18908ab5cceaf70614eaf307a041e8a" target="_top" xlink:title="project::UnplacedComponents\lDock::on_btnAddAll_clicked">
<polygon fill="white" stroke="black" points="342.5,-0 342.5,-34 491.5,-34 491.5,-0 342.5,-0"/>
<text text-anchor="start" x="350.5" y="-21" font-family="Helvetica,sans-Serif" font-size="10.00">project::UnplacedComponents</text>
<text text-anchor="middle" x="417" y="-8" font-family="Helvetica,sans-Serif" font-size="10.00">Dock::on_btnAddAll_clicked</text>
</a>
</g>
<!-- Node5&#45;&gt;Node8 -->
<g id="edge14" class="edge"><title>Node5&#45;&gt;Node8</title>
<path fill="none" stroke="midnightblue" d="M278.342,-61.8397C305.864,-52.9394 337.871,-42.5891 364.194,-34.0767"/>
<polygon fill="midnightblue" stroke="midnightblue" points="277.248,-58.5148 268.81,-64.922 279.402,-65.1752 277.248,-58.5148"/>
</g>
</g>
</svg>
