<?xml version="1.0" encoding="UTF-8" standalone="no"?>
<!DOCTYPE svg PUBLIC "-//W3C//DTD SVG 1.1//EN"
 "http://www.w3.org/Graphics/SVG/1.1/DTD/svg11.dtd">
<!-- Generated by graphviz version 2.26.3 (20100126.1600)
 -->
<!-- Title: redo Pages: 1 -->
<svg width="514pt" height="186pt"
 viewBox="0.00 0.00 514.00 186.00" xmlns="http://www.w3.org/2000/svg" xmlns:xlink="http://www.w3.org/1999/xlink">
<g id="graph1" class="graph" transform="scale(1 1) rotate(0) translate(4 182)">
<title>redo</title>
<polygon fill="white" stroke="white" points="-4,5 -4,-182 511,-182 511,5 -4,5"/>
<!-- Node1 -->
<g id="node1" class="node"><title>Node1</title>
<polygon fill="#bfbfbf" stroke="black" points="0.5,-72.5 0.5,-93.5 35.5,-93.5 35.5,-72.5 0.5,-72.5"/>
<text text-anchor="middle" x="18" y="-80.5" font-family="Helvetica,sans-Serif" font-size="10.00">redo</text>
</g>
<!-- Node2 -->
<g id="node3" class="node"><title>Node2</title>
<a xlink:href="../../d1/d7b/classproject_1_1_s_i___net_label.html#a6c8d1949f20fd5639ae720fa00aa1241" target="_top" xlink:title="project::SI_NetLabel\l::setNetSignal">
<polygon fill="white" stroke="black" points="74,-144 74,-178 180,-178 180,-144 74,-144"/>
<text text-anchor="start" x="82" y="-165" font-family="Helvetica,sans-Serif" font-size="10.00">project::SI_NetLabel</text>
<text text-anchor="middle" x="127" y="-152" font-family="Helvetica,sans-Serif" font-size="10.00">::setNetSignal</text>
</a>
</g>
<!-- Node1&#45;&gt;Node2 -->
<g id="edge2" class="edge"><title>Node1&#45;&gt;Node2</title>
<path fill="none" stroke="midnightblue" d="M27.1032,-93.6232C37.2118,-104.945 54.4326,-122.876 72,-135 73.8716,-136.292 75.8175,-137.55 77.8119,-138.771"/>
<polygon fill="midnightblue" stroke="midnightblue" points="76.3648,-141.975 86.787,-143.88 79.8273,-135.891 76.3648,-141.975"/>
</g>
<!-- Node3 -->
<g id="node5" class="node"><title>Node3</title>
<a xlink:href="../../d1/d7b/classproject_1_1_s_i___net_label.html#aed08011e6158136fd130624f64f14307" target="_top" xlink:title="project::SI_NetLabel\l::setPosition">
<polygon fill="white" stroke="black" points="74,-92 74,-126 180,-126 180,-92 74,-92"/>
<text text-anchor="start" x="82" y="-113" font-family="Helvetica,sans-Serif" font-size="10.00">project::SI_NetLabel</text>
<text text-anchor="middle" x="127" y="-100" font-family="Helvetica,sans-Serif" font-size="10.00">::setPosition</text>
</a>
</g>
<!-- Node1&#45;&gt;Node3 -->
<g id="edge4" class="edge"><title>Node1&#45;&gt;Node3</title>
<path fill="none" stroke="midnightblue" d="M35.5127,-87.1773C43.4479,-89.0701 53.3639,-91.4354 63.714,-93.9043"/>
<polygon fill="midnightblue" stroke="midnightblue" points="63.1807,-97.3752 73.7199,-96.291 64.8049,-90.5662 63.1807,-97.3752"/>
</g>
<!-- Node4 -->
<g id="node7" class="node"><title>Node4</title>
<a xlink:href="../../d1/d7b/classproject_1_1_s_i___net_label.html#ad2c89c0ca3cf75c26f1a17027643245f" target="_top" xlink:title="project::SI_NetLabel\l::setAngle">
<polygon fill="white" stroke="black" points="74,-40 74,-74 180,-74 180,-40 74,-40"/>
<text text-anchor="start" x="82" y="-61" font-family="Helvetica,sans-Serif" font-size="10.00">project::SI_NetLabel</text>
<text text-anchor="middle" x="127" y="-48" font-family="Helvetica,sans-Serif" font-size="10.00">::setAngle</text>
</a>
</g>
<!-- Node1&#45;&gt;Node4 -->
<g id="edge6" class="edge"><title>Node1&#45;&gt;Node4</title>
<path fill="none" stroke="midnightblue" d="M35.5127,-78.8227C43.4479,-76.9299 53.3639,-74.5646 63.714,-72.0957"/>
<polygon fill="midnightblue" stroke="midnightblue" points="64.8049,-75.4338 73.7199,-69.709 63.1807,-68.6248 64.8049,-75.4338"/>
</g>
<!-- Node5 -->
<g id="node9" class="node"><title>Node5</title>
<a xlink:href="../../d3/d26/class_undo_command.html#a93c48d6ed036e1a381be53ac67643284" target="_top" xlink:title="Redo/execute the command (and all child commands in normal order) ">
<polygon fill="white" stroke="black" points="72,-0.5 72,-21.5 182,-21.5 182,-0.5 72,-0.5"/>
<text text-anchor="middle" x="127" y="-8.5" font-family="Helvetica,sans-Serif" font-size="10.00">UndoCommand::redo</text>
</a>
</g>
<!-- Node1&#45;&gt;Node5 -->
<g id="edge8" class="edge"><title>Node1&#45;&gt;Node5</title>
<path fill="none" stroke="midnightblue" d="M26.5326,-72.4773C36.405,-60.9035 53.6682,-42.4332 72,-31 75.1144,-29.0576 78.445,-27.2652 81.8688,-25.619"/>
<polygon fill="midnightblue" stroke="midnightblue" points="83.303,-28.812 91.065,-21.6008 80.5002,-22.3976 83.303,-28.812"/>
</g>
<!-- Node6 -->
<g id="node11" class="node"><title>Node6</title>
<a xlink:href="../../d3/d26/class_undo_command.html#ae57d776a4010cbabb44c03d9ac6514eb" target="_top" xlink:title="This method shows whether that command is executed (redo() called one time more than undo()) ...">
<polygon fill="white" stroke="black" points="366,-19.5 366,-40.5 506,-40.5 506,-19.5 366,-19.5"/>
<text text-anchor="middle" x="436" y="-27.5" font-family="Helvetica,sans-Serif" font-size="10.00">UndoCommand::isExecuted</text>
</a>
</g>
<!-- Node5&#45;&gt;Node6 -->
<g id="edge10" class="edge"><title>Node5&#45;&gt;Node6</title>
<path fill="none" stroke="midnightblue" d="M166.11,-21.5399C182.073,-25.3309 200.793,-29.1314 218,-31 263.362,-35.9261 314.347,-35.9906 355.599,-34.6801"/>
<polygon fill="midnightblue" stroke="midnightblue" points="355.724,-38.178 365.595,-34.3298 355.479,-31.1822 355.724,-38.178"/>
</g>
<!-- Node7 -->
<g id="node13" class="node"><title>Node7</title>
<a xlink:href="../../d3/d26/class_undo_command.html#a0e1e7804a53f6d62efc72c9bdbec8571" target="_top" xlink:title="Undo the command (and all child commands in reverse order) ">
<polygon fill="white" stroke="black" points="218,-0.5 218,-21.5 330,-21.5 330,-0.5 218,-0.5"/>
<text text-anchor="middle" x="274" y="-8.5" font-family="Helvetica,sans-Serif" font-size="10.00">UndoCommand::undo</text>
</a>
</g>
<!-- Node5&#45;&gt;Node7 -->
<g id="edge12" class="edge"><title>Node5&#45;&gt;Node7</title>
<path fill="none" stroke="midnightblue" d="M182.156,-4.44044C190.38,-4.26637 198.932,-4.21163 207.362,-4.27622"/>
<polygon fill="midnightblue" stroke="midnightblue" points="207.509,-7.77842 217.555,-4.41418 207.604,-0.779065 207.509,-7.77842"/>
</g>
<!-- Node7&#45;&gt;Node5 -->
<g id="edge16" class="edge"><title>Node7&#45;&gt;Node5</title>
<path fill="none" stroke="midnightblue" d="M217.555,-17.5858C209.298,-17.7474 200.736,-17.7897 192.32,-17.7127"/>
<polygon fill="midnightblue" stroke="midnightblue" points="192.207,-14.2107 182.156,-17.5596 192.102,-21.2099 192.207,-14.2107"/>
</g>
<!-- Node7&#45;&gt;Node6 -->
<g id="edge14" class="edge"><title>Node7&#45;&gt;Node6</title>
<path fill="none" stroke="midnightblue" d="M330.205,-17.592C338.481,-18.5626 347.14,-19.5781 355.786,-20.5922"/>
<polygon fill="midnightblue" stroke="midnightblue" points="355.567,-24.0904 365.907,-21.7792 356.383,-17.1381 355.567,-24.0904"/>
</g>
</g>
</svg>
