<?xml version="1.0" encoding="UTF-8" standalone="no"?>
<!DOCTYPE svg PUBLIC "-//W3C//DTD SVG 1.1//EN"
 "http://www.w3.org/Graphics/SVG/1.1/DTD/svg11.dtd">
<!-- Generated by graphviz version 2.26.3 (20100126.1600)
 -->
<!-- Title: serializeToXmlDomElement Pages: 1 -->
<svg width="300pt" height="70pt"
 viewBox="0.00 0.00 300.00 70.00" xmlns="http://www.w3.org/2000/svg" xmlns:xlink="http://www.w3.org/1999/xlink">
<g id="graph1" class="graph" transform="scale(1 1) rotate(0) translate(4 66)">
<title>serializeToXmlDomElement</title>
<polygon fill="white" stroke="white" points="-4,5 -4,-66 297,-66 297,5 -4,5"/>
<!-- Node1 -->
<g id="node1" class="node"><title>Node1</title>
<polygon fill="#bfbfbf" stroke="black" points="0,-20.5 0,-41.5 138,-41.5 138,-20.5 0,-20.5"/>
<text text-anchor="middle" x="69" y="-28.5" font-family="Helvetica,sans-Serif" font-size="10.00">serializeToXmlDomElement</text>
</g>
<!-- Node2 -->
<g id="node3" class="node"><title>Node2</title>
<a xlink:href="../../d4/d5f/classlibrary_1_1_gen_comp_signal.html#a524ed0dd8a5522b754411728dfe5c752" target="_top" xlink:title="Check the validity of all attributes of the object. ">
<polygon fill="white" stroke="black" points="174.5,-40.5 174.5,-61.5 291.5,-61.5 291.5,-40.5 174.5,-40.5"/>
<text text-anchor="middle" x="233" y="-48.5" font-family="Helvetica,sans-Serif" font-size="10.00">checkAttributesValidity</text>
</a>
</g>
<!-- Node1&#45;&gt;Node2 -->
<g id="edge2" class="edge"><title>Node1&#45;&gt;Node2</title>
<path fill="none" stroke="midnightblue" d="M138.075,-39.4238C146.758,-40.4827 155.639,-41.5658 164.316,-42.6239"/>
<polygon fill="midnightblue" stroke="midnightblue" points="164.034,-46.1153 174.384,-43.8517 164.881,-39.1668 164.034,-46.1153"/>
</g>
<!-- Node3 -->
<g id="node5" class="node"><title>Node3</title>
<a xlink:href="../../d4/d5f/classlibrary_1_1_gen_comp_signal.html#aedd25a99ede60695fe5d9c62ac14c685" target="_top" xlink:title="signalRoleToString">
<polygon fill="white" stroke="black" points="183.5,-0.5 183.5,-21.5 282.5,-21.5 282.5,-0.5 183.5,-0.5"/>
<text text-anchor="middle" x="233" y="-8.5" font-family="Helvetica,sans-Serif" font-size="10.00">signalRoleToString</text>
</a>
</g>
<!-- Node1&#45;&gt;Node3 -->
<g id="edge4" class="edge"><title>Node1&#45;&gt;Node3</title>
<path fill="none" stroke="midnightblue" d="M138.075,-22.5762C149.737,-21.154 161.757,-19.6882 173.159,-18.2977"/>
<polygon fill="midnightblue" stroke="midnightblue" points="173.925,-21.7303 183.428,-17.0454 173.078,-14.7818 173.925,-21.7303"/>
</g>
</g>
</svg>
