<?xml version="1.0" encoding="UTF-8" standalone="no"?>
<!DOCTYPE svg PUBLIC "-//W3C//DTD SVG 1.1//EN"
 "http://www.w3.org/Graphics/SVG/1.1/DTD/svg11.dtd">
<!-- Generated by graphviz version 2.26.3 (20100126.1600)
 -->
<!-- Title: getName Pages: 1 -->
<svg width="658pt" height="146pt"
 viewBox="0.00 0.00 658.00 146.00" xmlns="http://www.w3.org/2000/svg" xmlns:xlink="http://www.w3.org/1999/xlink">
<g id="graph1" class="graph" transform="scale(1 1) rotate(0) translate(4 142)">
<title>getName</title>
<polygon fill="white" stroke="white" points="-4,5 -4,-142 655,-142 655,5 -4,5"/>
<!-- Node1 -->
<g id="node1" class="node"><title>Node1</title>
<polygon fill="#bfbfbf" stroke="black" points="0,-84.5 0,-105.5 56,-105.5 56,-84.5 0,-84.5"/>
<text text-anchor="middle" x="28" y="-92.5" font-family="Helvetica,sans-Serif" font-size="10.00">getName</text>
</g>
<!-- Node2 -->
<g id="node3" class="node"><title>Node2</title>
<a xlink:href="../../da/d20/classlibrary_1_1_symbol_pin_preview_graphics_item.html#abbb5db1b700a86caa85ff4c0c13142f2" target="_top" xlink:title="library::SymbolPinPreview\lGraphicsItem::updateCacheAndRepaint">
<polygon fill="white" stroke="black" points="92,-104 92,-138 282,-138 282,-104 92,-104"/>
<text text-anchor="start" x="100" y="-125" font-family="Helvetica,sans-Serif" font-size="10.00">library::SymbolPinPreview</text>
<text text-anchor="middle" x="187" y="-112" font-family="Helvetica,sans-Serif" font-size="10.00">GraphicsItem::updateCacheAndRepaint</text>
</a>
</g>
<!-- Node1&#45;&gt;Node2 -->
<g id="edge2" class="edge"><title>Node1&#45;&gt;Node2</title>
<path fill="none" stroke="midnightblue" d="M66.0386,-101.22C73.9978,-102.522 82.7268,-103.949 91.7374,-105.422"/>
<polygon fill="midnightblue" stroke="midnightblue" points="66.4938,-97.7482 56.06,-99.5884 65.3641,-104.656 66.4938,-97.7482"/>
</g>
<!-- Node3 -->
<g id="node5" class="node"><title>Node3</title>
<a xlink:href="../../df/dce/classproject_1_1_gen_comp_signal_instance.html#a56ae9f28c406912ae4a5a893087a72ca" target="_top" xlink:title="project::GenCompSignalInstance\l::updateErcMessages">
<polygon fill="white" stroke="black" points="106.5,-52 106.5,-86 267.5,-86 267.5,-52 106.5,-52"/>
<text text-anchor="start" x="114.5" y="-73" font-family="Helvetica,sans-Serif" font-size="10.00">project::GenCompSignalInstance</text>
<text text-anchor="middle" x="187" y="-60" font-family="Helvetica,sans-Serif" font-size="10.00">::updateErcMessages</text>
</a>
</g>
<!-- Node1&#45;&gt;Node3 -->
<g id="edge4" class="edge"><title>Node1&#45;&gt;Node3</title>
<path fill="none" stroke="midnightblue" d="M66.24,-88.7469C78.3951,-86.7593 92.3304,-84.4806 106.315,-82.1938"/>
<polygon fill="midnightblue" stroke="midnightblue" points="65.3641,-85.3436 56.06,-90.4116 66.4938,-92.2518 65.3641,-85.3436"/>
</g>
<!-- Node4 -->
<g id="node7" class="node"><title>Node4</title>
<a xlink:href="../../df/dce/classproject_1_1_gen_comp_signal_instance.html#a02fd73d861ef2e4aabb38c0c9ff82947" target="_top" xlink:title="project::GenCompSignalInstance\l::init">
<polygon fill="white" stroke="black" points="318.5,-104 318.5,-138 479.5,-138 479.5,-104 318.5,-104"/>
<text text-anchor="start" x="326.5" y="-125" font-family="Helvetica,sans-Serif" font-size="10.00">project::GenCompSignalInstance</text>
<text text-anchor="middle" x="399" y="-112" font-family="Helvetica,sans-Serif" font-size="10.00">::init</text>
</a>
</g>
<!-- Node3&#45;&gt;Node4 -->
<g id="edge6" class="edge"><title>Node3&#45;&gt;Node4</title>
<path fill="none" stroke="midnightblue" d="M266.164,-88.4176C286.942,-93.5141 309.193,-98.9718 329.427,-103.935"/>
<polygon fill="midnightblue" stroke="midnightblue" points="266.963,-85.0098 256.417,-86.0267 265.295,-91.8083 266.963,-85.0098"/>
</g>
<!-- Node5 -->
<g id="node9" class="node"><title>Node5</title>
<a xlink:href="../../df/dce/classproject_1_1_gen_comp_signal_instance.html#af00f21a639ab7a55e814293e9bd76c0f" target="_top" xlink:title="project::GenCompSignalInstance\l::addToCircuit">
<polygon fill="white" stroke="black" points="318.5,-52 318.5,-86 479.5,-86 479.5,-52 318.5,-52"/>
<text text-anchor="start" x="326.5" y="-73" font-family="Helvetica,sans-Serif" font-size="10.00">project::GenCompSignalInstance</text>
<text text-anchor="middle" x="399" y="-60" font-family="Helvetica,sans-Serif" font-size="10.00">::addToCircuit</text>
</a>
</g>
<!-- Node3&#45;&gt;Node5 -->
<g id="edge8" class="edge"><title>Node3&#45;&gt;Node5</title>
<path fill="none" stroke="midnightblue" d="M277.972,-69C291.44,-69 305.237,-69 318.472,-69"/>
<polygon fill="midnightblue" stroke="midnightblue" points="277.753,-65.5001 267.753,-69 277.753,-72.5001 277.753,-65.5001"/>
</g>
<!-- Node7 -->
<g id="node13" class="node"><title>Node7</title>
<a xlink:href="../../df/dce/classproject_1_1_gen_comp_signal_instance.html#ac295ebdc117f47883b0a7af285b69a5e" target="_top" xlink:title="project::GenCompSignalInstance\l::removeFromCircuit">
<polygon fill="white" stroke="black" points="318.5,-0 318.5,-34 479.5,-34 479.5,-0 318.5,-0"/>
<text text-anchor="start" x="326.5" y="-21" font-family="Helvetica,sans-Serif" font-size="10.00">project::GenCompSignalInstance</text>
<text text-anchor="middle" x="399" y="-8" font-family="Helvetica,sans-Serif" font-size="10.00">::removeFromCircuit</text>
</a>
</g>
<!-- Node3&#45;&gt;Node7 -->
<g id="edge12" class="edge"><title>Node3&#45;&gt;Node7</title>
<path fill="none" stroke="midnightblue" d="M266.164,-49.5824C286.942,-44.4859 309.193,-39.0282 329.427,-34.065"/>
<polygon fill="midnightblue" stroke="midnightblue" points="265.295,-46.1917 256.417,-51.9733 266.963,-52.9902 265.295,-46.1917"/>
</g>
<!-- Node6 -->
<g id="node11" class="node"><title>Node6</title>
<a xlink:href="../../de/d67/classproject_1_1_gen_comp_instance.html#af00f21a639ab7a55e814293e9bd76c0f" target="_top" xlink:title="project::GenCompInstance\l::addToCircuit">
<polygon fill="white" stroke="black" points="516,-52 516,-86 650,-86 650,-52 516,-52"/>
<text text-anchor="start" x="524" y="-73" font-family="Helvetica,sans-Serif" font-size="10.00">project::GenCompInstance</text>
<text text-anchor="middle" x="583" y="-60" font-family="Helvetica,sans-Serif" font-size="10.00">::addToCircuit</text>
</a>
</g>
<!-- Node5&#45;&gt;Node6 -->
<g id="edge10" class="edge"><title>Node5&#45;&gt;Node6</title>
<path fill="none" stroke="midnightblue" d="M489.933,-69C498.666,-69 507.413,-69 515.857,-69"/>
<polygon fill="midnightblue" stroke="midnightblue" points="489.705,-65.5001 479.705,-69 489.705,-72.5001 489.705,-65.5001"/>
</g>
<!-- Node8 -->
<g id="node15" class="node"><title>Node8</title>
<a xlink:href="../../de/d67/classproject_1_1_gen_comp_instance.html#ac295ebdc117f47883b0a7af285b69a5e" target="_top" xlink:title="project::GenCompInstance\l::removeFromCircuit">
<polygon fill="white" stroke="black" points="516,-0 516,-34 650,-34 650,-0 516,-0"/>
<text text-anchor="start" x="524" y="-21" font-family="Helvetica,sans-Serif" font-size="10.00">project::GenCompInstance</text>
<text text-anchor="middle" x="583" y="-8" font-family="Helvetica,sans-Serif" font-size="10.00">::removeFromCircuit</text>
</a>
</g>
<!-- Node7&#45;&gt;Node8 -->
<g id="edge14" class="edge"><title>Node7&#45;&gt;Node8</title>
<path fill="none" stroke="midnightblue" d="M489.933,-17C498.666,-17 507.413,-17 515.857,-17"/>
<polygon fill="midnightblue" stroke="midnightblue" points="489.705,-13.5001 479.705,-17 489.705,-20.5001 489.705,-13.5001"/>
</g>
</g>
</svg>
