<?xml version="1.0" encoding="UTF-8" standalone="no"?>
<!DOCTYPE svg PUBLIC "-//W3C//DTD SVG 1.1//EN"
 "http://www.w3.org/Graphics/SVG/1.1/DTD/svg11.dtd">
<!-- Generated by graphviz version 2.26.3 (20100126.1600)
 -->
<!-- Title: /home/travis/build/LibrePCB/LibrePCB/libs/librepcblibrary/moc Pages: 1 -->
<svg width="532pt" height="225pt"
 viewBox="0.00 0.00 532.00 225.00" xmlns="http://www.w3.org/2000/svg" xmlns:xlink="http://www.w3.org/1999/xlink">
<g id="graph1" class="graph" transform="scale(1 1) rotate(0) translate(4 221)">
<title>/home/travis/build/LibrePCB/LibrePCB/libs/librepcblibrary/moc</title>
<polygon fill="white" stroke="white" points="-4,5 -4,-221 529,-221 529,5 -4,5"/>
<g id="graph2" class="cluster"><title>clusterdir_55c01538f0a6d4fce22a43840cf48722</title>
<a xlink:href="dir_55c01538f0a6d4fce22a43840cf48722.html" target="_top" xlink:title="librepcblibrary">
<polygon fill="#ddddee" stroke="black" points="207,-136 207,-209 284,-209 284,-136 207,-136"/>
<text text-anchor="middle" x="245.5" y="-196" font-family="Helvetica,sans-Serif" font-size="10.00">librepcblibrary</text>
</a>
</g>
<!-- dir_110477c50578422c7885c310307ca7ce -->
<g id="node2" class="node"><title>dir_110477c50578422c7885c310307ca7ce</title>
<a xlink:href="dir_110477c50578422c7885c310307ca7ce.html" target="_top" xlink:title="moc">
<polygon fill="#eeeeff" stroke="black" points="272,-180 218,-180 218,-144 272,-144 272,-180"/>
<text text-anchor="middle" x="245" y="-159.5" font-family="Helvetica,sans-Serif" font-size="10.00">moc</text>
</a>
</g>
<!-- dir_c296c97023e70b78536981e9811c54a9 -->
<g id="node3" class="node"><title>dir_c296c97023e70b78536981e9811c54a9</title>
<a xlink:href="dir_c296c97023e70b78536981e9811c54a9.html" target="_top" xlink:title="sym">
<polygon fill="none" stroke="black" points="54,-108 2.13163e-14,-108 0,-72 54,-72 54,-108"/>
<text text-anchor="middle" x="27" y="-87.5" font-family="Helvetica,sans-Serif" font-size="10.00">sym</text>
</a>
</g>
<!-- dir_110477c50578422c7885c310307ca7ce&#45;&gt;dir_c296c97023e70b78536981e9811c54a9 -->
<g id="edge5" class="edge"><title>dir_110477c50578422c7885c310307ca7ce&#45;&gt;dir_c296c97023e70b78536981e9811c54a9</title>
<path fill="none" stroke="black" d="M217.981,-155.564C183.825,-147.091 123.209,-130.932 63.81,-108.003"/>
<polygon fill="black" stroke="black" points="64.8789,-104.662 54.2915,-104.265 62.3201,-111.178 64.8789,-104.662"/>
<a xlink:href="dir_000020_000023.html" target="_top" xlink:title="1">
<text text-anchor="middle" x="69.2626" y="-100.833" font-family="Helvetica,sans-Serif" font-size="10.00">1</text>
</a>
</g>
<!-- dir_06e4e6101a8db3c83eb2a4455a26d6d5 -->
<g id="node4" class="node"><title>dir_06e4e6101a8db3c83eb2a4455a26d6d5</title>
<a xlink:href="dir_06e4e6101a8db3c83eb2a4455a26d6d5.html" target="_top" xlink:title="fpt">
<polygon fill="none" stroke="black" points="126,-108 72,-108 72,-72 126,-72 126,-108"/>
<text text-anchor="middle" x="99" y="-87.5" font-family="Helvetica,sans-Serif" font-size="10.00">fpt</text>
</a>
</g>
<!-- dir_110477c50578422c7885c310307ca7ce&#45;&gt;dir_06e4e6101a8db3c83eb2a4455a26d6d5 -->
<g id="edge7" class="edge"><title>dir_110477c50578422c7885c310307ca7ce&#45;&gt;dir_06e4e6101a8db3c83eb2a4455a26d6d5</title>
<path fill="none" stroke="black" d="M217.881,-148.626C194.672,-137.181 161.058,-120.604 135.491,-107.995"/>
<polygon fill="black" stroke="black" points="136.986,-104.831 126.47,-103.547 133.89,-111.109 136.986,-104.831"/>
<a xlink:href="dir_000020_000018.html" target="_top" xlink:title="1">
<text text-anchor="middle" x="141.466" y="-101.374" font-family="Helvetica,sans-Serif" font-size="10.00">1</text>
</a>
</g>
<!-- dir_5f445570c4b8a15c32cf05317f7a50dc -->
<g id="node5" class="node"><title>dir_5f445570c4b8a15c32cf05317f7a50dc</title>
<a xlink:href="dir_5f445570c4b8a15c32cf05317f7a50dc.html" target="_top" xlink:title="gencmp">
<polygon fill="none" stroke="black" points="117,-36 63,-36 63,-1.77636e-14 117,-3.55271e-15 117,-36"/>
<text text-anchor="middle" x="90" y="-15.5" font-family="Helvetica,sans-Serif" font-size="10.00">gencmp</text>
</a>
</g>
<!-- dir_110477c50578422c7885c310307ca7ce&#45;&gt;dir_5f445570c4b8a15c32cf05317f7a50dc -->
<g id="edge9" class="edge"><title>dir_110477c50578422c7885c310307ca7ce&#45;&gt;dir_5f445570c4b8a15c32cf05317f7a50dc</title>
<path fill="none" stroke="black" d="M218.44,-143.851C204.44,-133.852 187.261,-120.883 173,-108 150.742,-87.8933 127.803,-62.606 111.696,-43.9593"/>
<polygon fill="black" stroke="black" points="114.18,-41.4784 105.019,-36.1557 108.861,-46.0294 114.18,-41.4784"/>
<a xlink:href="dir_000020_000019.html" target="_top" xlink:title="1">
<text text-anchor="middle" x="118.674" y="-39.8637" font-family="Helvetica,sans-Serif" font-size="10.00">1</text>
</a>
</g>
<!-- dir_be13a34b01287725dc2e4e5b676bf5d1 -->
<g id="node6" class="node"><title>dir_be13a34b01287725dc2e4e5b676bf5d1</title>
<a xlink:href="dir_be13a34b01287725dc2e4e5b676bf5d1.html" target="_top" xlink:title="3dmdl">
<polygon fill="none" stroke="black" points="236,-108 182,-108 182,-72 236,-72 236,-108"/>
<text text-anchor="middle" x="209" y="-87.5" font-family="Helvetica,sans-Serif" font-size="10.00">3dmdl</text>
</a>
</g>
<!-- dir_110477c50578422c7885c310307ca7ce&#45;&gt;dir_be13a34b01287725dc2e4e5b676bf5d1 -->
<g id="edge11" class="edge"><title>dir_110477c50578422c7885c310307ca7ce&#45;&gt;dir_be13a34b01287725dc2e4e5b676bf5d1</title>
<path fill="none" stroke="black" d="M235.916,-143.831C231.939,-135.877 227.185,-126.369 222.786,-117.572"/>
<polygon fill="black" stroke="black" points="225.809,-115.792 218.207,-108.413 219.548,-118.923 225.809,-115.792"/>
<a xlink:href="dir_000020_000015.html" target="_top" xlink:title="1">
<text text-anchor="middle" x="229.956" y="-115.238" font-family="Helvetica,sans-Serif" font-size="10.00">1</text>
</a>
</g>
<!-- dir_e7117c3b1a01de4921dd7417c7f68f5c -->
<g id="node7" class="node"><title>dir_e7117c3b1a01de4921dd7417c7f68f5c</title>
<a xlink:href="dir_e7117c3b1a01de4921dd7417c7f68f5c.html" target="_top" xlink:title="spcmdl">
<polygon fill="none" stroke="black" points="308,-108 254,-108 254,-72 308,-72 308,-108"/>
<text text-anchor="middle" x="281" y="-87.5" font-family="Helvetica,sans-Serif" font-size="10.00">spcmdl</text>
</a>
</g>
<!-- dir_110477c50578422c7885c310307ca7ce&#45;&gt;dir_e7117c3b1a01de4921dd7417c7f68f5c -->
<g id="edge13" class="edge"><title>dir_110477c50578422c7885c310307ca7ce&#45;&gt;dir_e7117c3b1a01de4921dd7417c7f68f5c</title>
<path fill="none" stroke="black" d="M254.084,-143.831C258.061,-135.877 262.815,-126.369 267.214,-117.572"/>
<polygon fill="black" stroke="black" points="270.452,-118.923 271.793,-108.413 264.191,-115.792 270.452,-118.923"/>
<a xlink:href="dir_000020_000022.html" target="_top" xlink:title="1">
<text text-anchor="middle" x="271.384" y="-120.908" font-family="Helvetica,sans-Serif" font-size="10.00">1</text>
</a>
</g>
<!-- dir_80d161777bfbe7e63d4d41c8dccd12d6 -->
<g id="node8" class="node"><title>dir_80d161777bfbe7e63d4d41c8dccd12d6</title>
<a xlink:href="dir_80d161777bfbe7e63d4d41c8dccd12d6.html" target="_top" xlink:title="cat">
<polygon fill="none" stroke="black" points="380,-108 326,-108 326,-72 380,-72 380,-108"/>
<text text-anchor="middle" x="353" y="-87.5" font-family="Helvetica,sans-Serif" font-size="10.00">cat</text>
</a>
</g>
<!-- dir_110477c50578422c7885c310307ca7ce&#45;&gt;dir_80d161777bfbe7e63d4d41c8dccd12d6 -->
<g id="edge15" class="edge"><title>dir_110477c50578422c7885c310307ca7ce&#45;&gt;dir_80d161777bfbe7e63d4d41c8dccd12d6</title>
<path fill="none" stroke="black" d="M272.253,-143.831C285.939,-134.707 302.691,-123.539 317.383,-113.745"/>
<polygon fill="black" stroke="black" points="319.377,-116.622 325.756,-108.163 315.494,-110.798 319.377,-116.622"/>
<a xlink:href="dir_000020_000016.html" target="_top" xlink:title="4">
<text text-anchor="middle" x="317.961" y="-118.478" font-family="Helvetica,sans-Serif" font-size="10.00">4</text>
</a>
</g>
<!-- dir_b50533662246528e3e0d233616626239 -->
<g id="node9" class="node"><title>dir_b50533662246528e3e0d233616626239</title>
<a xlink:href="dir_b50533662246528e3e0d233616626239.html" target="_top" xlink:title="pkg">
<polygon fill="none" stroke="black" points="452,-108 398,-108 398,-72 452,-72 452,-108"/>
<text text-anchor="middle" x="425" y="-87.5" font-family="Helvetica,sans-Serif" font-size="10.00">pkg</text>
</a>
</g>
<!-- dir_110477c50578422c7885c310307ca7ce&#45;&gt;dir_b50533662246528e3e0d233616626239 -->
<g id="edge17" class="edge"><title>dir_110477c50578422c7885c310307ca7ce&#45;&gt;dir_b50533662246528e3e0d233616626239</title>
<path fill="none" stroke="black" d="M272.142,-152.779C299.463,-143.29 342.92,-127.636 388.236,-108.142"/>
<polygon fill="black" stroke="black" points="389.849,-111.257 397.623,-104.059 387.057,-104.838 389.849,-111.257"/>
<a xlink:href="dir_000020_000021.html" target="_top" xlink:title="1">
<text text-anchor="middle" x="387.685" y="-112.794" font-family="Helvetica,sans-Serif" font-size="10.00">1</text>
</a>
</g>
<!-- dir_fc08259e8774de7e6bb3ce4c08f4b368 -->
<g id="node10" class="node"><title>dir_fc08259e8774de7e6bb3ce4c08f4b368</title>
<a xlink:href="dir_fc08259e8774de7e6bb3ce4c08f4b368.html" target="_top" xlink:title="cmp">
<polygon fill="none" stroke="black" points="524,-108 470,-108 470,-72 524,-72 524,-108"/>
<text text-anchor="middle" x="497" y="-87.5" font-family="Helvetica,sans-Serif" font-size="10.00">cmp</text>
</a>
</g>
<!-- dir_110477c50578422c7885c310307ca7ce&#45;&gt;dir_fc08259e8774de7e6bb3ce4c08f4b368 -->
<g id="edge19" class="edge"><title>dir_110477c50578422c7885c310307ca7ce&#45;&gt;dir_fc08259e8774de7e6bb3ce4c08f4b368</title>
<path fill="none" stroke="black" d="M272.171,-157.191C311.898,-149.739 388.103,-133.851 460.09,-107.943"/>
<polygon fill="black" stroke="black" points="461.577,-111.126 469.758,-104.393 459.164,-104.555 461.577,-111.126"/>
<a xlink:href="dir_000020_000017.html" target="_top" xlink:title="1">
<text text-anchor="middle" x="459.182" y="-112.53" font-family="Helvetica,sans-Serif" font-size="10.00">1</text>
</a>
</g>
<!-- dir_c296c97023e70b78536981e9811c54a9&#45;&gt;dir_5f445570c4b8a15c32cf05317f7a50dc -->
<g id="edge3" class="edge"><title>dir_c296c97023e70b78536981e9811c54a9&#45;&gt;dir_5f445570c4b8a15c32cf05317f7a50dc</title>
<path fill="none" stroke="black" d="M42.8976,-71.8314C50.2278,-63.454 59.066,-53.3531 67.0969,-44.1749"/>
<polygon fill="black" stroke="black" points="69.9373,-46.2438 73.8884,-36.4133 64.6693,-41.6343 69.9373,-46.2438"/>
<a xlink:href="dir_000023_000019.html" target="_top" xlink:title="3">
<text text-anchor="middle" x="69.7071" y="-48.3187" font-family="Helvetica,sans-Serif" font-size="10.00">3</text>
</a>
</g>
</g>
</svg>
