<?xml version="1.0" encoding="UTF-8" standalone="no"?>
<!DOCTYPE svg PUBLIC "-//W3C//DTD SVG 1.1//EN"
 "http://www.w3.org/Graphics/SVG/1.1/DTD/svg11.dtd">
<!-- Generated by graphviz version 2.26.3 (20100126.1600)
 -->
<!-- Title: /home/travis/build/LibrePCB/LibrePCB/libs/librepcbprojecteditor/schematiceditor/fsm Pages: 1 -->
<svg width="396pt" height="441pt"
 viewBox="0.00 0.00 396.00 441.00" xmlns="http://www.w3.org/2000/svg" xmlns:xlink="http://www.w3.org/1999/xlink">
<g id="graph1" class="graph" transform="scale(1 1) rotate(0) translate(4 437)">
<title>/home/travis/build/LibrePCB/LibrePCB/libs/librepcbprojecteditor/schematiceditor/fsm</title>
<polygon fill="white" stroke="white" points="-4,5 -4,-437 393,-437 393,5 -4,5"/>
<g id="graph2" class="cluster"><title>clusterdir_b2dc0b43800b7ae3d27294802965dcfc</title>
<a xlink:href="dir_b2dc0b43800b7ae3d27294802965dcfc.html" target="_top" xlink:title="schematiceditor">
<polygon fill="#ddddee" stroke="black" points="130,-352 130,-425 216,-425 216,-352 130,-352"/>
<text text-anchor="middle" x="173" y="-412" font-family="Helvetica,sans-Serif" font-size="10.00">schematiceditor</text>
</a>
</g>
<!-- dir_09aece4e091491c353ef7a7907a69695 -->
<g id="node2" class="node"><title>dir_09aece4e091491c353ef7a7907a69695</title>
<a xlink:href="dir_09aece4e091491c353ef7a7907a69695.html" target="_top" xlink:title="fsm">
<polygon fill="#eeeeff" stroke="black" points="200,-396 146,-396 146,-360 200,-360 200,-396"/>
<text text-anchor="middle" x="173" y="-375.5" font-family="Helvetica,sans-Serif" font-size="10.00">fsm</text>
</a>
</g>
<!-- dir_c16b2c78bfcfda89e8740b01cde8ab67 -->
<g id="node3" class="node"><title>dir_c16b2c78bfcfda89e8740b01cde8ab67</title>
<a xlink:href="dir_c16b2c78bfcfda89e8740b01cde8ab67.html" target="_top" xlink:title="librepcbproject">
<polygon fill="white" stroke="red" points="164,-180 84,-180 84,-144 164,-144 164,-180"/>
<text text-anchor="middle" x="124" y="-159.5" font-family="Helvetica,sans-Serif" font-size="10.00">librepcbproject</text>
</a>
</g>
<!-- dir_09aece4e091491c353ef7a7907a69695&#45;&gt;dir_c16b2c78bfcfda89e8740b01cde8ab67 -->
<g id="edge7" class="edge"><title>dir_09aece4e091491c353ef7a7907a69695&#45;&gt;dir_c16b2c78bfcfda89e8740b01cde8ab67</title>
<path fill="none" stroke="black" d="M147.487,-359.871C119.178,-338.02 75.105,-298.397 57,-252 51.1836,-237.095 50.0952,-230.433 57,-216 62.596,-204.303 72.0993,-194.33 82.2172,-186.256"/>
<polygon fill="black" stroke="black" points="84.4496,-188.958 90.4003,-180.192 80.282,-183.334 84.4496,-188.958"/>
<a xlink:href="dir_000052_000027.html" target="_top" xlink:title="61">
<text text-anchor="middle" x="83.252" y="-190.88" font-family="Helvetica,sans-Serif" font-size="10.00">61</text>
</a>
</g>
<!-- dir_7e7dd9e18acbdcefd5ba44d1a89eebf4 -->
<g id="node4" class="node"><title>dir_7e7dd9e18acbdcefd5ba44d1a89eebf4</title>
<a xlink:href="dir_7e7dd9e18acbdcefd5ba44d1a89eebf4.html" target="_top" xlink:title="dialogs">
<polygon fill="none" stroke="black" points="238,-324 184,-324 184,-288 238,-288 238,-324"/>
<text text-anchor="middle" x="211" y="-303.5" font-family="Helvetica,sans-Serif" font-size="10.00">dialogs</text>
</a>
</g>
<!-- dir_09aece4e091491c353ef7a7907a69695&#45;&gt;dir_7e7dd9e18acbdcefd5ba44d1a89eebf4 -->
<g id="edge9" class="edge"><title>dir_09aece4e091491c353ef7a7907a69695&#45;&gt;dir_7e7dd9e18acbdcefd5ba44d1a89eebf4</title>
<path fill="none" stroke="black" d="M182.589,-359.831C186.832,-351.792 191.912,-342.167 196.596,-333.292"/>
<polygon fill="black" stroke="black" points="199.71,-334.891 201.282,-324.413 193.519,-331.623 199.71,-334.891"/>
<a xlink:href="dir_000052_000048.html" target="_top" xlink:title="1">
<text text-anchor="middle" x="200.543" y="-336.895" font-family="Helvetica,sans-Serif" font-size="10.00">1</text>
</a>
</g>
<!-- dir_55c01538f0a6d4fce22a43840cf48722 -->
<g id="node5" class="node"><title>dir_55c01538f0a6d4fce22a43840cf48722</title>
<a xlink:href="dir_55c01538f0a6d4fce22a43840cf48722.html" target="_top" xlink:title="librepcblibrary">
<polygon fill="white" stroke="red" points="230,-108 154,-108 154,-72 230,-72 230,-108"/>
<text text-anchor="middle" x="192" y="-87.5" font-family="Helvetica,sans-Serif" font-size="10.00">librepcblibrary</text>
</a>
</g>
<!-- dir_09aece4e091491c353ef7a7907a69695&#45;&gt;dir_55c01538f0a6d4fce22a43840cf48722 -->
<g id="edge11" class="edge"><title>dir_09aece4e091491c353ef7a7907a69695&#45;&gt;dir_55c01538f0a6d4fce22a43840cf48722</title>
<path fill="none" stroke="black" d="M200.076,-366.238C216.928,-357.317 237.2,-343.282 247,-324 282.377,-254.389 236.659,-161.53 209.491,-116.593"/>
<polygon fill="black" stroke="black" points="212.415,-114.668 204.173,-108.012 206.465,-118.355 212.415,-114.668"/>
<a xlink:href="dir_000052_000014.html" target="_top" xlink:title="3">
<text text-anchor="middle" x="216.722" y="-113.728" font-family="Helvetica,sans-Serif" font-size="10.00">3</text>
</a>
</g>
<!-- dir_54de9d902354a0845f7f0690122ba168 -->
<g id="node6" class="node"><title>dir_54de9d902354a0845f7f0690122ba168</title>
<a xlink:href="dir_54de9d902354a0845f7f0690122ba168.html" target="_top" xlink:title="librepcbworkspace">
<polygon fill="white" stroke="red" points="164,-252 66,-252 66,-216 164,-216 164,-252"/>
<text text-anchor="middle" x="115" y="-231.5" font-family="Helvetica,sans-Serif" font-size="10.00">librepcbworkspace</text>
</a>
</g>
<!-- dir_09aece4e091491c353ef7a7907a69695&#45;&gt;dir_54de9d902354a0845f7f0690122ba168 -->
<g id="edge13" class="edge"><title>dir_09aece4e091491c353ef7a7907a69695&#45;&gt;dir_54de9d902354a0845f7f0690122ba168</title>
<path fill="none" stroke="black" d="M165.654,-359.762C155.674,-334.985 137.745,-290.471 126.114,-261.594"/>
<polygon fill="black" stroke="black" points="129.269,-260.058 122.286,-252.09 122.776,-262.673 129.269,-260.058"/>
<a xlink:href="dir_000052_000054.html" target="_top" xlink:title="1">
<text text-anchor="middle" x="133.245" y="-259.831" font-family="Helvetica,sans-Serif" font-size="10.00">1</text>
</a>
</g>
<!-- dir_2093dc0e773f0ae75a86b05835aba5e8 -->
<g id="node7" class="node"><title>dir_2093dc0e773f0ae75a86b05835aba5e8</title>
<a xlink:href="dir_2093dc0e773f0ae75a86b05835aba5e8.html" target="_top" xlink:title="librepcbcommon">
<polygon fill="white" stroke="red" points="202,-36 114,-36 114,-1.77636e-14 202,-3.55271e-15 202,-36"/>
<text text-anchor="middle" x="158" y="-15.5" font-family="Helvetica,sans-Serif" font-size="10.00">librepcbcommon</text>
</a>
</g>
<!-- dir_09aece4e091491c353ef7a7907a69695&#45;&gt;dir_2093dc0e773f0ae75a86b05835aba5e8 -->
<g id="edge15" class="edge"><title>dir_09aece4e091491c353ef7a7907a69695&#45;&gt;dir_2093dc0e773f0ae75a86b05835aba5e8</title>
<path fill="none" stroke="black" d="M145.969,-369.568C97.3125,-352.515 0,-309.03 0,-234 0,-234 0,-234 0,-162 0,-104.015 58.8493,-63.1713 104.717,-40.1438"/>
<polygon fill="black" stroke="black" points="106.524,-43.1571 113.988,-35.6384 103.464,-36.8611 106.524,-43.1571"/>
<a xlink:href="dir_000052_000006.html" target="_top" xlink:title="11">
<text text-anchor="middle" x="104.532" y="-44.7819" font-family="Helvetica,sans-Serif" font-size="10.00">11</text>
</a>
</g>
<!-- dir_536b8b24a9aa39d847f995654d7c5eb7 -->
<g id="node8" class="node"><title>dir_536b8b24a9aa39d847f995654d7c5eb7</title>
<a xlink:href="dir_536b8b24a9aa39d847f995654d7c5eb7.html" target="_top" xlink:title="ui">
<polygon fill="none" stroke="black" points="388,-252 334,-252 334,-216 388,-216 388,-252"/>
<text text-anchor="middle" x="361" y="-231.5" font-family="Helvetica,sans-Serif" font-size="10.00">ui</text>
</a>
</g>
<!-- dir_09aece4e091491c353ef7a7907a69695&#45;&gt;dir_536b8b24a9aa39d847f995654d7c5eb7 -->
<g id="edge17" class="edge"><title>dir_09aece4e091491c353ef7a7907a69695&#45;&gt;dir_536b8b24a9aa39d847f995654d7c5eb7</title>
<path fill="none" stroke="black" d="M200.148,-374.452C232.405,-368.928 286.109,-355.427 320,-324 337.904,-307.397 348.569,-281.467 354.512,-261.696"/>
<polygon fill="black" stroke="black" points="357.901,-262.572 357.203,-252.001 351.156,-260.7 357.901,-262.572"/>
<a xlink:href="dir_000052_000053.html" target="_top" xlink:title="13">
<text text-anchor="middle" x="359.676" y="-264.295" font-family="Helvetica,sans-Serif" font-size="10.00">13</text>
</a>
</g>
<!-- dir_c16b2c78bfcfda89e8740b01cde8ab67&#45;&gt;dir_55c01538f0a6d4fce22a43840cf48722 -->
<g id="edge3" class="edge"><title>dir_c16b2c78bfcfda89e8740b01cde8ab67&#45;&gt;dir_55c01538f0a6d4fce22a43840cf48722</title>
<path fill="none" stroke="black" d="M141.159,-143.831C149.151,-135.369 158.804,-125.149 167.542,-115.897"/>
<polygon fill="black" stroke="black" points="170.288,-118.087 174.61,-108.413 165.199,-113.28 170.288,-118.087"/>
<a xlink:href="dir_000027_000014.html" target="_top" xlink:title="32">
<text text-anchor="middle" x="169.884" y="-120.149" font-family="Helvetica,sans-Serif" font-size="10.00">32</text>
</a>
</g>
<!-- dir_c16b2c78bfcfda89e8740b01cde8ab67&#45;&gt;dir_2093dc0e773f0ae75a86b05835aba5e8 -->
<g id="edge5" class="edge"><title>dir_c16b2c78bfcfda89e8740b01cde8ab67&#45;&gt;dir_2093dc0e773f0ae75a86b05835aba5e8</title>
<path fill="none" stroke="black" d="M128.226,-143.72C132.44,-125.53 139.116,-96.8233 145,-72 146.97,-63.6874 149.134,-54.661 151.121,-46.4104"/>
<polygon fill="black" stroke="black" points="154.572,-47.0287 153.516,-36.4867 147.767,-45.3867 154.572,-47.0287"/>
<a xlink:href="dir_000027_000006.html" target="_top" xlink:title="192">
<text text-anchor="middle" x="156.489" y="-48.689" font-family="Helvetica,sans-Serif" font-size="10.00">192</text>
</a>
</g>
<!-- dir_7e7dd9e18acbdcefd5ba44d1a89eebf4&#45;&gt;dir_c16b2c78bfcfda89e8740b01cde8ab67 -->
<g id="edge19" class="edge"><title>dir_7e7dd9e18acbdcefd5ba44d1a89eebf4&#45;&gt;dir_c16b2c78bfcfda89e8740b01cde8ab67</title>
<path fill="none" stroke="black" d="M205.373,-287.875C199.075,-269.048 187.786,-239.159 173,-216 166.637,-206.033 158.394,-196.151 150.49,-187.618"/>
<polygon fill="black" stroke="black" points="152.832,-185.003 143.39,-180.197 147.774,-189.842 152.832,-185.003"/>
<a xlink:href="dir_000048_000027.html" target="_top" xlink:title="14">
<text text-anchor="middle" x="157.369" y="-183.138" font-family="Helvetica,sans-Serif" font-size="10.00">14</text>
</a>
</g>
<!-- dir_7e7dd9e18acbdcefd5ba44d1a89eebf4&#45;&gt;dir_55c01538f0a6d4fce22a43840cf48722 -->
<g id="edge21" class="edge"><title>dir_7e7dd9e18acbdcefd5ba44d1a89eebf4&#45;&gt;dir_55c01538f0a6d4fce22a43840cf48722</title>
<path fill="none" stroke="black" d="M209.413,-287.955C206.102,-250.314 198.438,-163.187 194.474,-118.125"/>
<polygon fill="black" stroke="black" points="197.959,-117.8 193.596,-108.145 190.986,-118.413 197.959,-117.8"/>
<a xlink:href="dir_000048_000014.html" target="_top" xlink:title="7">
<text text-anchor="middle" x="201.102" y="-118.632" font-family="Helvetica,sans-Serif" font-size="10.00">7</text>
</a>
</g>
<!-- dir_7e7dd9e18acbdcefd5ba44d1a89eebf4&#45;&gt;dir_54de9d902354a0845f7f0690122ba168 -->
<g id="edge23" class="edge"><title>dir_7e7dd9e18acbdcefd5ba44d1a89eebf4&#45;&gt;dir_54de9d902354a0845f7f0690122ba168</title>
<path fill="none" stroke="black" d="M186.775,-287.831C174.837,-278.878 160.274,-267.956 147.394,-258.295"/>
<polygon fill="black" stroke="black" points="149.317,-255.363 139.217,-252.163 145.117,-260.963 149.317,-255.363"/>
<a xlink:href="dir_000048_000054.html" target="_top" xlink:title="2">
<text text-anchor="middle" x="153.896" y="-252.748" font-family="Helvetica,sans-Serif" font-size="10.00">2</text>
</a>
</g>
<!-- dir_7e7dd9e18acbdcefd5ba44d1a89eebf4&#45;&gt;dir_2093dc0e773f0ae75a86b05835aba5e8 -->
<g id="edge25" class="edge"><title>dir_7e7dd9e18acbdcefd5ba44d1a89eebf4&#45;&gt;dir_2093dc0e773f0ae75a86b05835aba5e8</title>
<path fill="none" stroke="black" d="M219.835,-287.972C238.608,-246.898 277.708,-144.327 239,-72 232.326,-59.5296 221.359,-49.4416 209.62,-41.5111"/>
<polygon fill="black" stroke="black" points="211.32,-38.4466 200.985,-36.1146 207.61,-44.3826 211.32,-38.4466"/>
<a xlink:href="dir_000048_000006.html" target="_top" xlink:title="8">
<text text-anchor="middle" x="215.873" y="-35.444" font-family="Helvetica,sans-Serif" font-size="10.00">8</text>
</a>
</g>
<!-- dir_7e7dd9e18acbdcefd5ba44d1a89eebf4&#45;&gt;dir_536b8b24a9aa39d847f995654d7c5eb7 -->
<g id="edge27" class="edge"><title>dir_7e7dd9e18acbdcefd5ba44d1a89eebf4&#45;&gt;dir_536b8b24a9aa39d847f995654d7c5eb7</title>
<path fill="none" stroke="black" d="M238.164,-292.961C262.406,-281.325 298.092,-264.196 324.762,-251.394"/>
<polygon fill="black" stroke="black" points="326.285,-254.546 333.785,-247.063 323.255,-248.235 326.285,-254.546"/>
<a xlink:href="dir_000048_000053.html" target="_top" xlink:title="4">
<text text-anchor="middle" x="324.273" y="-256.161" font-family="Helvetica,sans-Serif" font-size="10.00">4</text>
</a>
</g>
<!-- dir_55c01538f0a6d4fce22a43840cf48722&#45;&gt;dir_2093dc0e773f0ae75a86b05835aba5e8 -->
<g id="edge29" class="edge"><title>dir_55c01538f0a6d4fce22a43840cf48722&#45;&gt;dir_2093dc0e773f0ae75a86b05835aba5e8</title>
<path fill="none" stroke="black" d="M183.42,-71.8314C179.664,-63.8771 175.174,-54.369 171.02,-45.5723"/>
<polygon fill="black" stroke="black" points="174.13,-43.9612 166.695,-36.4133 167.8,-46.9503 174.13,-43.9612"/>
<a xlink:href="dir_000014_000006.html" target="_top" xlink:title="67">
<text text-anchor="middle" x="178.232" y="-43.4993" font-family="Helvetica,sans-Serif" font-size="10.00">67</text>
</a>
</g>
<!-- dir_54de9d902354a0845f7f0690122ba168&#45;&gt;dir_c16b2c78bfcfda89e8740b01cde8ab67 -->
<g id="edge31" class="edge"><title>dir_54de9d902354a0845f7f0690122ba168&#45;&gt;dir_c16b2c78bfcfda89e8740b01cde8ab67</title>
<path fill="none" stroke="black" d="M117.271,-215.831C118.234,-208.131 119.378,-198.974 120.448,-190.417"/>
<polygon fill="black" stroke="black" points="123.931,-190.77 121.698,-180.413 116.985,-189.902 123.931,-190.77"/>
<a xlink:href="dir_000054_000027.html" target="_top" xlink:title="1">
<text text-anchor="middle" x="126.302" y="-192.189" font-family="Helvetica,sans-Serif" font-size="10.00">1</text>
</a>
</g>
<!-- dir_54de9d902354a0845f7f0690122ba168&#45;&gt;dir_55c01538f0a6d4fce22a43840cf48722 -->
<g id="edge33" class="edge"><title>dir_54de9d902354a0845f7f0690122ba168&#45;&gt;dir_55c01538f0a6d4fce22a43840cf48722</title>
<path fill="none" stroke="black" d="M140.722,-215.921C152.282,-206.496 165.078,-194.012 173,-180 183.709,-161.058 188.401,-136.784 190.447,-118.219"/>
<polygon fill="black" stroke="black" points="193.953,-118.307 191.372,-108.032 186.982,-117.674 193.953,-118.307"/>
<a xlink:href="dir_000054_000014.html" target="_top" xlink:title="1">
<text text-anchor="middle" x="196.456" y="-119.644" font-family="Helvetica,sans-Serif" font-size="10.00">1</text>
</a>
</g>
<!-- dir_54de9d902354a0845f7f0690122ba168&#45;&gt;dir_2093dc0e773f0ae75a86b05835aba5e8 -->
<g id="edge35" class="edge"><title>dir_54de9d902354a0845f7f0690122ba168&#45;&gt;dir_2093dc0e773f0ae75a86b05835aba5e8</title>
<path fill="none" stroke="black" d="M96.8424,-215.729C88.451,-205.991 79.3877,-193.295 75,-180 69.9856,-164.806 70.4057,-159.326 75,-144 86.5557,-105.451 114.134,-67.7915 134.342,-43.8372"/>
<polygon fill="black" stroke="black" points="136.999,-46.1162 140.879,-36.2575 131.698,-41.5445 136.999,-46.1162"/>
<a xlink:href="dir_000054_000006.html" target="_top" xlink:title="12">
<text text-anchor="middle" x="136.801" y="-48.1926" font-family="Helvetica,sans-Serif" font-size="10.00">12</text>
</a>
</g>
<!-- dir_536b8b24a9aa39d847f995654d7c5eb7&#45;&gt;dir_2093dc0e773f0ae75a86b05835aba5e8 -->
<g id="edge37" class="edge"><title>dir_536b8b24a9aa39d847f995654d7c5eb7&#45;&gt;dir_2093dc0e773f0ae75a86b05835aba5e8</title>
<path fill="none" stroke="black" d="M356.781,-215.834C348.225,-182.82 325.814,-112.649 282,-72 262.332,-53.7531 235.52,-41.0373 211.858,-32.55"/>
<polygon fill="black" stroke="black" points="212.879,-29.2002 202.284,-29.2794 210.616,-35.8243 212.879,-29.2002"/>
<a xlink:href="dir_000053_000006.html" target="_top" xlink:title="1">
<text text-anchor="middle" x="217.198" y="-25.1753" font-family="Helvetica,sans-Serif" font-size="10.00">1</text>
</a>
</g>
</g>
</svg>
