<?xml version="1.0" encoding="UTF-8" standalone="no"?>
<!DOCTYPE svg PUBLIC "-//W3C//DTD SVG 1.1//EN"
 "http://www.w3.org/Graphics/SVG/1.1/DTD/svg11.dtd">
<!-- Generated by graphviz version 2.26.3 (20100126.1600)
 -->
<!-- Title: /home/travis/build/LibrePCB/LibrePCB/libs/librepcbcommon/moc Pages: 1 -->
<svg width="134pt" height="153pt"
 viewBox="0.00 0.00 134.00 153.00" xmlns="http://www.w3.org/2000/svg" xmlns:xlink="http://www.w3.org/1999/xlink">
<g id="graph1" class="graph" transform="scale(1 1) rotate(0) translate(4 149)">
<title>/home/travis/build/LibrePCB/LibrePCB/libs/librepcbcommon/moc</title>
<polygon fill="white" stroke="white" points="-4,5 -4,-149 131,-149 131,5 -4,5"/>
<g id="graph2" class="cluster"><title>clusterdir_2093dc0e773f0ae75a86b05835aba5e8</title>
<a xlink:href="dir_2093dc0e773f0ae75a86b05835aba5e8.html" target="_top" xlink:title="librepcbcommon">
<polygon fill="#ddddee" stroke="black" points="19,-64 19,-137 107,-137 107,-64 19,-64"/>
<text text-anchor="middle" x="63" y="-124" font-family="Helvetica,sans-Serif" font-size="10.00">librepcbcommon</text>
</a>
</g>
<!-- dir_32460da31d0240e69d342998fabfaf0a -->
<g id="node2" class="node"><title>dir_32460da31d0240e69d342998fabfaf0a</title>
<a xlink:href="dir_32460da31d0240e69d342998fabfaf0a.html" target="_top" xlink:title="moc">
<polygon fill="#eeeeff" stroke="black" points="90,-108 36,-108 36,-72 90,-72 90,-108"/>
<text text-anchor="middle" x="63" y="-87.5" font-family="Helvetica,sans-Serif" font-size="10.00">moc</text>
</a>
</g>
<!-- dir_f62226a606bee24c71a7209d4b9ae3a9 -->
<g id="node3" class="node"><title>dir_f62226a606bee24c71a7209d4b9ae3a9</title>
<a xlink:href="dir_f62226a606bee24c71a7209d4b9ae3a9.html" target="_top" xlink:title="graphics">
<polygon fill="none" stroke="black" points="54,-36 2.13163e-14,-36 0,-1.77636e-14 54,-3.55271e-15 54,-36"/>
<text text-anchor="middle" x="27" y="-15.5" font-family="Helvetica,sans-Serif" font-size="10.00">graphics</text>
</a>
</g>
<!-- dir_32460da31d0240e69d342998fabfaf0a&#45;&gt;dir_f62226a606bee24c71a7209d4b9ae3a9 -->
<g id="edge3" class="edge"><title>dir_32460da31d0240e69d342998fabfaf0a&#45;&gt;dir_f62226a606bee24c71a7209d4b9ae3a9</title>
<path fill="none" stroke="black" d="M53.9157,-71.8314C49.9385,-63.8771 45.1845,-54.369 40.7861,-45.5723"/>
<polygon fill="black" stroke="black" points="43.8093,-43.7923 36.2066,-36.4133 37.5483,-46.9228 43.8093,-43.7923"/>
<a xlink:href="dir_000011_000010.html" target="_top" xlink:title="2">
<text text-anchor="middle" x="47.9563" y="-43.2377" font-family="Helvetica,sans-Serif" font-size="10.00">2</text>
</a>
</g>
<!-- dir_b6ed50a501e0effb2b7153e32f58674c -->
<g id="node4" class="node"><title>dir_b6ed50a501e0effb2b7153e32f58674c</title>
<a xlink:href="dir_b6ed50a501e0effb2b7153e32f58674c.html" target="_top" xlink:title="dialogs">
<polygon fill="none" stroke="black" points="126,-36 72,-36 72,-1.77636e-14 126,-3.55271e-15 126,-36"/>
<text text-anchor="middle" x="99" y="-15.5" font-family="Helvetica,sans-Serif" font-size="10.00">dialogs</text>
</a>
</g>
<!-- dir_32460da31d0240e69d342998fabfaf0a&#45;&gt;dir_b6ed50a501e0effb2b7153e32f58674c -->
<g id="edge5" class="edge"><title>dir_32460da31d0240e69d342998fabfaf0a&#45;&gt;dir_b6ed50a501e0effb2b7153e32f58674c</title>
<path fill="none" stroke="black" d="M72.0843,-71.8314C76.0615,-63.8771 80.8155,-54.369 85.2139,-45.5723"/>
<polygon fill="black" stroke="black" points="88.4517,-46.9228 89.7934,-36.4133 82.1907,-43.7923 88.4517,-46.9228"/>
<a xlink:href="dir_000011_000008.html" target="_top" xlink:title="1">
<text text-anchor="middle" x="89.3837" y="-48.9077" font-family="Helvetica,sans-Serif" font-size="10.00">1</text>
</a>
</g>
</g>
</svg>
