<?xml version="1.0" encoding="UTF-8" standalone="no"?>
<!DOCTYPE svg PUBLIC "-//W3C//DTD SVG 1.1//EN"
 "http://www.w3.org/Graphics/SVG/1.1/DTD/svg11.dtd">
<!-- Generated by graphviz version 2.26.3 (20100126.1600)
 -->
<!-- Title: /home/travis/build/LibrePCB/LibrePCB/libs/librepcbprojecteditor/docks Pages: 1 -->
<svg width="160pt" height="153pt"
 viewBox="0.00 0.00 160.00 153.00" xmlns="http://www.w3.org/2000/svg" xmlns:xlink="http://www.w3.org/1999/xlink">
<g id="graph1" class="graph" transform="scale(1 1) rotate(0) translate(4 149)">
<title>/home/travis/build/LibrePCB/LibrePCB/libs/librepcbprojecteditor/docks</title>
<polygon fill="white" stroke="white" points="-4,5 -4,-149 157,-149 157,5 -4,5"/>
<g id="graph2" class="cluster"><title>clusterdir_c9cfeac3c53dca536daac88123922f35</title>
<a xlink:href="dir_c9cfeac3c53dca536daac88123922f35.html" target="_top" xlink:title="librepcbprojecteditor">
<polygon fill="#ddddee" stroke="black" points="30,-64 30,-137 134,-137 134,-64 30,-64"/>
<text text-anchor="middle" x="82" y="-124" font-family="Helvetica,sans-Serif" font-size="10.00">librepcbprojecteditor</text>
</a>
</g>
<!-- dir_208e671a8d0e32210ffd1eca0f068421 -->
<g id="node2" class="node"><title>dir_208e671a8d0e32210ffd1eca0f068421</title>
<a xlink:href="dir_208e671a8d0e32210ffd1eca0f068421.html" target="_top" xlink:title="docks">
<polygon fill="#eeeeff" stroke="black" points="109,-108 55,-108 55,-72 109,-72 109,-108"/>
<text text-anchor="middle" x="82" y="-87.5" font-family="Helvetica,sans-Serif" font-size="10.00">docks</text>
</a>
</g>
<!-- dir_c16b2c78bfcfda89e8740b01cde8ab67 -->
<g id="node3" class="node"><title>dir_c16b2c78bfcfda89e8740b01cde8ab67</title>
<a xlink:href="dir_c16b2c78bfcfda89e8740b01cde8ab67.html" target="_top" xlink:title="librepcbproject">
<polygon fill="white" stroke="red" points="80,-36 3.55271e-14,-36 0,-1.77636e-14 80,-3.55271e-15 80,-36"/>
<text text-anchor="middle" x="40" y="-15.5" font-family="Helvetica,sans-Serif" font-size="10.00">librepcbproject</text>
</a>
</g>
<!-- dir_208e671a8d0e32210ffd1eca0f068421&#45;&gt;dir_c16b2c78bfcfda89e8740b01cde8ab67 -->
<g id="edge3" class="edge"><title>dir_208e671a8d0e32210ffd1eca0f068421&#45;&gt;dir_c16b2c78bfcfda89e8740b01cde8ab67</title>
<path fill="none" stroke="black" d="M71.4016,-71.8314C66.7123,-63.7925 61.0972,-54.1666 55.9202,-45.2918"/>
<polygon fill="black" stroke="black" points="58.8031,-43.2875 50.7411,-36.4133 52.7566,-46.8146 58.8031,-43.2875"/>
<a xlink:href="dir_000049_000027.html" target="_top" xlink:title="4">
<text text-anchor="middle" x="63.0667" y="-42.4618" font-family="Helvetica,sans-Serif" font-size="10.00">4</text>
</a>
</g>
<!-- dir_536b8b24a9aa39d847f995654d7c5eb7 -->
<g id="node4" class="node"><title>dir_536b8b24a9aa39d847f995654d7c5eb7</title>
<a xlink:href="dir_536b8b24a9aa39d847f995654d7c5eb7.html" target="_top" xlink:title="ui">
<polygon fill="none" stroke="black" points="152,-36 98,-36 98,-1.77636e-14 152,-3.55271e-15 152,-36"/>
<text text-anchor="middle" x="125" y="-15.5" font-family="Helvetica,sans-Serif" font-size="10.00">ui</text>
</a>
</g>
<!-- dir_208e671a8d0e32210ffd1eca0f068421&#45;&gt;dir_536b8b24a9aa39d847f995654d7c5eb7 -->
<g id="edge5" class="edge"><title>dir_208e671a8d0e32210ffd1eca0f068421&#45;&gt;dir_536b8b24a9aa39d847f995654d7c5eb7</title>
<path fill="none" stroke="black" d="M92.8507,-71.8314C97.7023,-63.7079 103.522,-53.9637 108.868,-45.0118"/>
<polygon fill="black" stroke="black" points="111.881,-46.7933 114.003,-36.4133 105.871,-43.2041 111.881,-46.7933"/>
<a xlink:href="dir_000049_000053.html" target="_top" xlink:title="1">
<text text-anchor="middle" x="112.475" y="-48.8352" font-family="Helvetica,sans-Serif" font-size="10.00">1</text>
</a>
</g>
</g>
</svg>
