<?xml version="1.0" encoding="UTF-8" standalone="no"?>
<!DOCTYPE svg PUBLIC "-//W3C//DTD SVG 1.1//EN"
 "http://www.w3.org/Graphics/SVG/1.1/DTD/svg11.dtd">
<!-- Generated by graphviz version 2.26.3 (20100126.1600)
 -->
<!-- Title: /home/travis/build/LibrePCB/LibrePCB/libs/librepcbworkspace/settings Pages: 1 -->
<svg width="122pt" height="233pt"
 viewBox="0.00 0.00 122.00 233.00" xmlns="http://www.w3.org/2000/svg" xmlns:xlink="http://www.w3.org/1999/xlink">
<g id="graph1" class="graph" transform="scale(1 1) rotate(0) translate(4 229)">
<title>/home/travis/build/LibrePCB/LibrePCB/libs/librepcbworkspace/settings</title>
<polygon fill="white" stroke="white" points="-4,5 -4,-229 119,-229 119,5 -4,5"/>
<g id="graph2" class="cluster"><title>clusterdir_54de9d902354a0845f7f0690122ba168</title>
<a xlink:href="dir_54de9d902354a0845f7f0690122ba168.html" target="_top" xlink:title="librepcbworkspace">
<polygon fill="#ddddee" stroke="black" points="8,-56 8,-217 106,-217 106,-56 8,-56"/>
<text text-anchor="middle" x="57" y="-204" font-family="Helvetica,sans-Serif" font-size="10.00">librepcbworkspace</text>
</a>
</g>
<g id="graph3" class="cluster"><title>clusterdir_79a10727e6ab09f49a79aedb4ca5ab6a</title>
<a xlink:href="dir_79a10727e6ab09f49a79aedb4ca5ab6a.html" target="_top">
<polygon fill="#eeeeff" stroke="black" points="22,-64 22,-188 92,-188 92,-64 22,-64"/>
</a>
</g>
<!-- dir_79a10727e6ab09f49a79aedb4ca5ab6a -->
<g id="node3" class="node"><title>dir_79a10727e6ab09f49a79aedb4ca5ab6a</title>
<text text-anchor="middle" x="57" y="-159.5" font-family="Helvetica,sans-Serif" font-size="10.00">settings</text>
</g>
<!-- dir_6a01b766c878e3abbbdbbca9a86593b9 -->
<g id="node4" class="node"><title>dir_6a01b766c878e3abbbdbbca9a86593b9</title>
<a xlink:href="dir_6a01b766c878e3abbbdbbca9a86593b9.html" target="_top" xlink:title="items">
<polygon fill="white" stroke="black" points="84,-108 30,-108 30,-72 84,-72 84,-108"/>
<text text-anchor="middle" x="57" y="-87.5" font-family="Helvetica,sans-Serif" font-size="10.00">items</text>
</a>
</g>
<!-- dir_79a10727e6ab09f49a79aedb4ca5ab6a&#45;&gt;dir_6a01b766c878e3abbbdbbca9a86593b9 -->
<g id="edge6" class="edge"><title>dir_79a10727e6ab09f49a79aedb4ca5ab6a&#45;&gt;dir_6a01b766c878e3abbbdbbca9a86593b9</title>
<path fill="none" stroke="black" d="M57,-143.831C57,-136.131 57,-126.974 57,-118.417"/>
<polygon fill="black" stroke="black" points="60.5001,-118.413 57,-108.413 53.5001,-118.413 60.5001,-118.413"/>
<a xlink:href="dir_000044_000045.html" target="_top" xlink:title="7">
<text text-anchor="middle" x="63.3393" y="-119.508" font-family="Helvetica,sans-Serif" font-size="10.00">7</text>
</a>
</g>
<!-- dir_2093dc0e773f0ae75a86b05835aba5e8 -->
<g id="node5" class="node"><title>dir_2093dc0e773f0ae75a86b05835aba5e8</title>
<a xlink:href="dir_2093dc0e773f0ae75a86b05835aba5e8.html" target="_top" xlink:title="librepcbcommon">
<polygon fill="white" stroke="red" points="101,-36 13,-36 13,-1.77636e-14 101,-3.55271e-15 101,-36"/>
<text text-anchor="middle" x="57" y="-15.5" font-family="Helvetica,sans-Serif" font-size="10.00">librepcbcommon</text>
</a>
</g>
<!-- dir_6a01b766c878e3abbbdbbca9a86593b9&#45;&gt;dir_2093dc0e773f0ae75a86b05835aba5e8 -->
<g id="edge4" class="edge"><title>dir_6a01b766c878e3abbbdbbca9a86593b9&#45;&gt;dir_2093dc0e773f0ae75a86b05835aba5e8</title>
<path fill="none" stroke="black" d="M57,-71.8314C57,-64.131 57,-54.9743 57,-46.4166"/>
<polygon fill="black" stroke="black" points="60.5001,-46.4132 57,-36.4133 53.5001,-46.4133 60.5001,-46.4132"/>
<a xlink:href="dir_000045_000003.html" target="_top" xlink:title="1">
<text text-anchor="middle" x="63.3393" y="-47.5079" font-family="Helvetica,sans-Serif" font-size="10.00">1</text>
</a>
</g>
</g>
</svg>
