<?xml version="1.0" encoding="UTF-8" standalone="no"?>
<!DOCTYPE svg PUBLIC "-//W3C//DTD SVG 1.1//EN"
 "http://www.w3.org/Graphics/SVG/1.1/DTD/svg11.dtd">
<!-- Generated by graphviz version 2.26.3 (20100126.1600)
 -->
<!-- Title: /home/travis/build/LibrePCB/LibrePCB/libs/librepcbworkspace Pages: 1 -->
<svg width="424pt" height="305pt"
 viewBox="0.00 0.00 424.00 305.00" xmlns="http://www.w3.org/2000/svg" xmlns:xlink="http://www.w3.org/1999/xlink">
<g id="graph1" class="graph" transform="scale(1 1) rotate(0) translate(4 301)">
<title>/home/travis/build/LibrePCB/LibrePCB/libs/librepcbworkspace</title>
<polygon fill="white" stroke="white" points="-4,5 -4,-301 421,-301 421,5 -4,5"/>
<g id="graph2" class="cluster"><title>clusterdir_6719ab1f1f7655efc2fa43f7eb574fd1</title>
<a xlink:href="dir_6719ab1f1f7655efc2fa43f7eb574fd1.html" target="_top" xlink:title="libs">
<polygon fill="#ddddee" stroke="black" points="8,-56 8,-289 210,-289 210,-56 8,-56"/>
<text text-anchor="middle" x="109" y="-276" font-family="Helvetica,sans-Serif" font-size="10.00">libs</text>
</a>
</g>
<g id="graph3" class="cluster"><title>clusterdir_54de9d902354a0845f7f0690122ba168</title>
<a xlink:href="dir_54de9d902354a0845f7f0690122ba168.html" target="_top">
<polygon fill="#eeeeff" stroke="black" points="16,-64 16,-260 202,-260 202,-64 16,-64"/>
</a>
</g>
<!-- dir_54de9d902354a0845f7f0690122ba168 -->
<g id="node3" class="node"><title>dir_54de9d902354a0845f7f0690122ba168</title>
<text text-anchor="middle" x="145" y="-231.5" font-family="Helvetica,sans-Serif" font-size="10.00">librepcbworkspace</text>
</g>
<!-- dir_79a10727e6ab09f49a79aedb4ca5ab6a -->
<g id="node5" class="node"><title>dir_79a10727e6ab09f49a79aedb4ca5ab6a</title>
<a xlink:href="dir_79a10727e6ab09f49a79aedb4ca5ab6a.html" target="_top" xlink:title="settings">
<polygon fill="white" stroke="red" points="162,-180 108,-180 108,-144 162,-144 162,-180"/>
<text text-anchor="middle" x="135" y="-159.5" font-family="Helvetica,sans-Serif" font-size="10.00">settings</text>
</a>
</g>
<!-- dir_54de9d902354a0845f7f0690122ba168&#45;&gt;dir_79a10727e6ab09f49a79aedb4ca5ab6a -->
<g id="edge16" class="edge"><title>dir_54de9d902354a0845f7f0690122ba168&#45;&gt;dir_79a10727e6ab09f49a79aedb4ca5ab6a</title>
<path fill="none" stroke="black" d="M142.477,-215.831C141.407,-208.131 140.135,-198.974 138.947,-190.417"/>
<polygon fill="black" stroke="black" points="142.4,-189.837 137.557,-180.413 135.466,-190.8 142.4,-189.837"/>
<a xlink:href="dir_000054_000056.html" target="_top" xlink:title="20">
<text text-anchor="middle" x="145.707" y="-190.507" font-family="Helvetica,sans-Serif" font-size="10.00">20</text>
</a>
</g>
<!-- dir_c16b2c78bfcfda89e8740b01cde8ab67 -->
<g id="node7" class="node"><title>dir_c16b2c78bfcfda89e8740b01cde8ab67</title>
<a xlink:href="dir_c16b2c78bfcfda89e8740b01cde8ab67.html" target="_top" xlink:title="librepcbproject">
<polygon fill="white" stroke="red" points="298,-180 218,-180 218,-144 298,-144 298,-180"/>
<text text-anchor="middle" x="258" y="-159.5" font-family="Helvetica,sans-Serif" font-size="10.00">librepcbproject</text>
</a>
</g>
<!-- dir_54de9d902354a0845f7f0690122ba168&#45;&gt;dir_c16b2c78bfcfda89e8740b01cde8ab67 -->
<g id="edge12" class="edge"><title>dir_54de9d902354a0845f7f0690122ba168&#45;&gt;dir_c16b2c78bfcfda89e8740b01cde8ab67</title>
<path fill="none" stroke="black" d="M173.515,-215.831C187.834,-206.707 205.362,-195.539 220.734,-185.745"/>
<polygon fill="black" stroke="black" points="222.942,-188.488 229.494,-180.163 219.18,-182.585 222.942,-188.488"/>
<a xlink:href="dir_000054_000027.html" target="_top" xlink:title="1">
<text text-anchor="middle" x="221.436" y="-190.314" font-family="Helvetica,sans-Serif" font-size="10.00">1</text>
</a>
</g>
<!-- dir_55c01538f0a6d4fce22a43840cf48722 -->
<g id="node8" class="node"><title>dir_55c01538f0a6d4fce22a43840cf48722</title>
<a xlink:href="dir_55c01538f0a6d4fce22a43840cf48722.html" target="_top" xlink:title="librepcblibrary">
<polygon fill="white" stroke="red" points="294,-108 218,-108 218,-72 294,-72 294,-108"/>
<text text-anchor="middle" x="256" y="-87.5" font-family="Helvetica,sans-Serif" font-size="10.00">librepcblibrary</text>
</a>
</g>
<!-- dir_54de9d902354a0845f7f0690122ba168&#45;&gt;dir_55c01538f0a6d4fce22a43840cf48722 -->
<g id="edge14" class="edge"><title>dir_54de9d902354a0845f7f0690122ba168&#45;&gt;dir_55c01538f0a6d4fce22a43840cf48722</title>
<path fill="none" stroke="black" d="M157.242,-215.69C169.764,-197.23 190.018,-168.099 209,-144 216.419,-134.581 224.921,-124.593 232.635,-115.802"/>
<polygon fill="black" stroke="black" points="235.434,-117.921 239.446,-108.116 230.194,-113.279 235.434,-117.921"/>
<a xlink:href="dir_000054_000014.html" target="_top" xlink:title="1">
<text text-anchor="middle" x="235.175" y="-119.995" font-family="Helvetica,sans-Serif" font-size="10.00">1</text>
</a>
</g>
<!-- dir_b4a8ee36730f19b279d17288825dae3c -->
<g id="node10" class="node"><title>dir_b4a8ee36730f19b279d17288825dae3c</title>
<a xlink:href="dir_b4a8ee36730f19b279d17288825dae3c.html" target="_top" xlink:title="librepcblibraryeditor">
<polygon fill="white" stroke="red" points="416,-180 316,-180 316,-144 416,-144 416,-180"/>
<text text-anchor="middle" x="366" y="-159.5" font-family="Helvetica,sans-Serif" font-size="10.00">librepcblibraryeditor</text>
</a>
</g>
<!-- dir_54de9d902354a0845f7f0690122ba168&#45;&gt;dir_b4a8ee36730f19b279d17288825dae3c -->
<g id="edge18" class="edge"><title>dir_54de9d902354a0845f7f0690122ba168&#45;&gt;dir_b4a8ee36730f19b279d17288825dae3c</title>
<path fill="none" stroke="black" d="M194.263,-216.017C227.401,-204.862 271.202,-190.597 306.312,-179.528"/>
<polygon fill="black" stroke="black" points="307.476,-182.831 315.968,-176.495 305.379,-176.152 307.476,-182.831"/>
<a xlink:href="dir_000054_000024.html" target="_top" xlink:title="1">
<text text-anchor="middle" x="304.897" y="-184.116" font-family="Helvetica,sans-Serif" font-size="10.00">1</text>
</a>
</g>
<!-- dir_aac3527c7568d2c421f771c0b9735667 -->
<g id="node4" class="node"><title>dir_aac3527c7568d2c421f771c0b9735667</title>
<a xlink:href="dir_aac3527c7568d2c421f771c0b9735667.html" target="_top" xlink:title="moc">
<polygon fill="white" stroke="black" points="78,-252 24,-252 24,-216 78,-216 78,-252"/>
<text text-anchor="middle" x="51" y="-231.5" font-family="Helvetica,sans-Serif" font-size="10.00">moc</text>
</a>
</g>
<!-- dir_aac3527c7568d2c421f771c0b9735667&#45;&gt;dir_79a10727e6ab09f49a79aedb4ca5ab6a -->
<g id="edge8" class="edge"><title>dir_aac3527c7568d2c421f771c0b9735667&#45;&gt;dir_79a10727e6ab09f49a79aedb4ca5ab6a</title>
<path fill="none" stroke="black" d="M72.1967,-215.831C82.4434,-207.048 94.9003,-196.371 106.01,-186.849"/>
<polygon fill="black" stroke="black" points="108.495,-189.328 113.81,-180.163 103.94,-184.013 108.495,-189.328"/>
<a xlink:href="dir_000055_000056.html" target="_top" xlink:title="10">
<text text-anchor="middle" x="107.614" y="-191.323" font-family="Helvetica,sans-Serif" font-size="10.00">10</text>
</a>
</g>
<!-- dir_7374477a1848b9c6f18a8ac32553944f -->
<g id="node6" class="node"><title>dir_7374477a1848b9c6f18a8ac32553944f</title>
<a xlink:href="dir_7374477a1848b9c6f18a8ac32553944f.html" target="_top" xlink:title="ui">
<polygon fill="white" stroke="black" points="162,-108 108,-108 108,-72 162,-72 162,-108"/>
<text text-anchor="middle" x="135" y="-87.5" font-family="Helvetica,sans-Serif" font-size="10.00">ui</text>
</a>
</g>
<!-- dir_79a10727e6ab09f49a79aedb4ca5ab6a&#45;&gt;dir_7374477a1848b9c6f18a8ac32553944f -->
<g id="edge22" class="edge"><title>dir_79a10727e6ab09f49a79aedb4ca5ab6a&#45;&gt;dir_7374477a1848b9c6f18a8ac32553944f</title>
<path fill="none" stroke="black" d="M135,-143.831C135,-136.131 135,-126.974 135,-118.417"/>
<polygon fill="black" stroke="black" points="138.5,-118.413 135,-108.413 131.5,-118.413 138.5,-118.413"/>
<a xlink:href="dir_000056_000058.html" target="_top" xlink:title="1">
<text text-anchor="middle" x="141.339" y="-119.508" font-family="Helvetica,sans-Serif" font-size="10.00">1</text>
</a>
</g>
<!-- dir_2093dc0e773f0ae75a86b05835aba5e8 -->
<g id="node9" class="node"><title>dir_2093dc0e773f0ae75a86b05835aba5e8</title>
<a xlink:href="dir_2093dc0e773f0ae75a86b05835aba5e8.html" target="_top" xlink:title="librepcbcommon">
<polygon fill="white" stroke="red" points="333,-36 245,-36 245,-1.77636e-14 333,-3.55271e-15 333,-36"/>
<text text-anchor="middle" x="289" y="-15.5" font-family="Helvetica,sans-Serif" font-size="10.00">librepcbcommon</text>
</a>
</g>
<!-- dir_79a10727e6ab09f49a79aedb4ca5ab6a&#45;&gt;dir_2093dc0e773f0ae75a86b05835aba5e8 -->
<g id="edge20" class="edge"><title>dir_79a10727e6ab09f49a79aedb4ca5ab6a&#45;&gt;dir_2093dc0e773f0ae75a86b05835aba5e8</title>
<path fill="none" stroke="black" d="M147.357,-143.788C167.356,-114.387 204.996,-59.3893 209,-56 216.916,-49.3002 226.213,-43.4931 235.615,-38.5732"/>
<polygon fill="black" stroke="black" points="237.202,-41.6931 244.62,-34.128 234.104,-35.4163 237.202,-41.6931"/>
<a xlink:href="dir_000056_000006.html" target="_top" xlink:title="3">
<text text-anchor="middle" x="235.236" y="-43.3302" font-family="Helvetica,sans-Serif" font-size="10.00">3</text>
</a>
</g>
<!-- dir_c16b2c78bfcfda89e8740b01cde8ab67&#45;&gt;dir_55c01538f0a6d4fce22a43840cf48722 -->
<g id="edge4" class="edge"><title>dir_c16b2c78bfcfda89e8740b01cde8ab67&#45;&gt;dir_55c01538f0a6d4fce22a43840cf48722</title>
<path fill="none" stroke="black" d="M257.495,-143.831C257.281,-136.131 257.027,-126.974 256.789,-118.417"/>
<polygon fill="black" stroke="black" points="260.288,-118.312 256.511,-108.413 253.291,-118.507 260.288,-118.312"/>
<a xlink:href="dir_000027_000014.html" target="_top" xlink:title="32">
<text text-anchor="middle" x="263.226" y="-119.327" font-family="Helvetica,sans-Serif" font-size="10.00">32</text>
</a>
</g>
<!-- dir_c16b2c78bfcfda89e8740b01cde8ab67&#45;&gt;dir_2093dc0e773f0ae75a86b05835aba5e8 -->
<g id="edge6" class="edge"><title>dir_c16b2c78bfcfda89e8740b01cde8ab67&#45;&gt;dir_2093dc0e773f0ae75a86b05835aba5e8</title>
<path fill="none" stroke="black" d="M278.858,-143.646C288.154,-134.071 298.098,-121.54 303,-108 310.279,-87.8957 305.963,-63.9209 300.27,-45.773"/>
<polygon fill="black" stroke="black" points="303.501,-44.4072 296.933,-36.0936 296.883,-46.6883 303.501,-44.4072"/>
<a xlink:href="dir_000027_000006.html" target="_top" xlink:title="192">
<text text-anchor="middle" x="307.357" y="-44.3804" font-family="Helvetica,sans-Serif" font-size="10.00">192</text>
</a>
</g>
<!-- dir_55c01538f0a6d4fce22a43840cf48722&#45;&gt;dir_2093dc0e773f0ae75a86b05835aba5e8 -->
<g id="edge10" class="edge"><title>dir_55c01538f0a6d4fce22a43840cf48722&#45;&gt;dir_2093dc0e773f0ae75a86b05835aba5e8</title>
<path fill="none" stroke="black" d="M264.327,-71.8314C267.973,-63.8771 272.331,-54.369 276.363,-45.5723"/>
<polygon fill="black" stroke="black" points="279.576,-46.9622 280.561,-36.4133 273.212,-44.0456 279.576,-46.9622"/>
<a xlink:href="dir_000014_000006.html" target="_top" xlink:title="67">
<text text-anchor="middle" x="280.659" y="-48.9129" font-family="Helvetica,sans-Serif" font-size="10.00">67</text>
</a>
</g>
<!-- dir_b4a8ee36730f19b279d17288825dae3c&#45;&gt;dir_54de9d902354a0845f7f0690122ba168 -->
<g id="edge24" class="edge"><title>dir_b4a8ee36730f19b279d17288825dae3c&#45;&gt;dir_54de9d902354a0845f7f0690122ba168</title>
<path fill="none" stroke="black" d="M316.586,-180.034C283.198,-191.272 239.037,-205.651 203.84,-216.74"/>
<polygon fill="black" stroke="black" points="202.66,-213.442 194.166,-219.775 204.755,-220.121 202.66,-213.442"/>
<a xlink:href="dir_000024_000054.html" target="_top" xlink:title="1">
<text text-anchor="middle" x="205.239" y="-207.157" font-family="Helvetica,sans-Serif" font-size="10.00">1</text>
</a>
</g>
<!-- dir_b4a8ee36730f19b279d17288825dae3c&#45;&gt;dir_2093dc0e773f0ae75a86b05835aba5e8 -->
<g id="edge26" class="edge"><title>dir_b4a8ee36730f19b279d17288825dae3c&#45;&gt;dir_2093dc0e773f0ae75a86b05835aba5e8</title>
<path fill="none" stroke="black" d="M359.494,-143.687C351.427,-121.995 336.574,-85.1305 319,-56 316.641,-52.0888 313.931,-48.1258 311.126,-44.3091"/>
<polygon fill="black" stroke="black" points="313.807,-42.0534 304.933,-36.2647 308.26,-46.3236 313.807,-42.0534"/>
<a xlink:href="dir_000024_000006.html" target="_top" xlink:title="1">
<text text-anchor="middle" x="318.249" y="-40.6697" font-family="Helvetica,sans-Serif" font-size="10.00">1</text>
</a>
</g>
</g>
</svg>
