<?xml version="1.0" encoding="UTF-8" standalone="no"?>
<!DOCTYPE svg PUBLIC "-//W3C//DTD SVG 1.1//EN"
 "http://www.w3.org/Graphics/SVG/1.1/DTD/svg11.dtd">
<!-- Generated by graphviz version 2.26.3 (20100126.1600)
 -->
<!-- Title: /home/travis/build/LibrePCB/LibrePCB/libs/librepcbworkspace/moc Pages: 1 -->
<svg width="122pt" height="153pt"
 viewBox="0.00 0.00 122.00 153.00" xmlns="http://www.w3.org/2000/svg" xmlns:xlink="http://www.w3.org/1999/xlink">
<g id="graph1" class="graph" transform="scale(1 1) rotate(0) translate(4 149)">
<title>/home/travis/build/LibrePCB/LibrePCB/libs/librepcbworkspace/moc</title>
<polygon fill="white" stroke="white" points="-4,5 -4,-149 119,-149 119,5 -4,5"/>
<g id="graph2" class="cluster"><title>clusterdir_54de9d902354a0845f7f0690122ba168</title>
<a xlink:href="dir_54de9d902354a0845f7f0690122ba168.html" target="_top" xlink:title="librepcbworkspace">
<polygon fill="#ddddee" stroke="black" points="8,-64 8,-137 106,-137 106,-64 8,-64"/>
<text text-anchor="middle" x="57" y="-124" font-family="Helvetica,sans-Serif" font-size="10.00">librepcbworkspace</text>
</a>
</g>
<!-- dir_aac3527c7568d2c421f771c0b9735667 -->
<g id="node2" class="node"><title>dir_aac3527c7568d2c421f771c0b9735667</title>
<a xlink:href="dir_aac3527c7568d2c421f771c0b9735667.html" target="_top" xlink:title="moc">
<polygon fill="#eeeeff" stroke="black" points="84,-108 30,-108 30,-72 84,-72 84,-108"/>
<text text-anchor="middle" x="57" y="-87.5" font-family="Helvetica,sans-Serif" font-size="10.00">moc</text>
</a>
</g>
<!-- dir_79a10727e6ab09f49a79aedb4ca5ab6a -->
<g id="node3" class="node"><title>dir_79a10727e6ab09f49a79aedb4ca5ab6a</title>
<a xlink:href="dir_79a10727e6ab09f49a79aedb4ca5ab6a.html" target="_top" xlink:title="settings">
<polygon fill="white" stroke="red" points="84,-36 30,-36 30,-1.77636e-14 84,-3.55271e-15 84,-36"/>
<text text-anchor="middle" x="57" y="-15.5" font-family="Helvetica,sans-Serif" font-size="10.00">settings</text>
</a>
</g>
<!-- dir_aac3527c7568d2c421f771c0b9735667&#45;&gt;dir_79a10727e6ab09f49a79aedb4ca5ab6a -->
<g id="edge3" class="edge"><title>dir_aac3527c7568d2c421f771c0b9735667&#45;&gt;dir_79a10727e6ab09f49a79aedb4ca5ab6a</title>
<path fill="none" stroke="black" d="M57,-71.8314C57,-64.131 57,-54.9743 57,-46.4166"/>
<polygon fill="black" stroke="black" points="60.5001,-46.4132 57,-36.4133 53.5001,-46.4133 60.5001,-46.4132"/>
<a xlink:href="dir_000055_000056.html" target="_top" xlink:title="10">
<text text-anchor="middle" x="63.3393" y="-47.5079" font-family="Helvetica,sans-Serif" font-size="10.00">10</text>
</a>
</g>
</g>
</svg>
