<?xml version="1.0" encoding="UTF-8" standalone="no"?>
<!DOCTYPE svg PUBLIC "-//W3C//DTD SVG 1.1//EN"
 "http://www.w3.org/Graphics/SVG/1.1/DTD/svg11.dtd">
<!-- Generated by graphviz version 2.26.3 (20100126.1600)
 -->
<!-- Title: /home/travis/build/LibrePCB/LibrePCB/librepcb/controlpanel Pages: 1 -->
<svg width="108pt" height="153pt"
 viewBox="0.00 0.00 108.00 153.00" xmlns="http://www.w3.org/2000/svg" xmlns:xlink="http://www.w3.org/1999/xlink">
<g id="graph1" class="graph" transform="scale(1 1) rotate(0) translate(4 149)">
<title>/home/travis/build/LibrePCB/LibrePCB/librepcb/controlpanel</title>
<polygon fill="white" stroke="white" points="-4,5 -4,-149 105,-149 105,5 -4,5"/>
<g id="graph2" class="cluster"><title>clusterdir_161cb931f5aaaa50b42a028b3c7c32ae</title>
<a xlink:href="dir_161cb931f5aaaa50b42a028b3c7c32ae.html" target="_top" xlink:title="librepcb">
<polygon fill="#ddddee" stroke="black" points="8,-64 8,-137 92,-137 92,-64 8,-64"/>
<text text-anchor="middle" x="50" y="-124" font-family="Helvetica,sans-Serif" font-size="10.00">librepcb</text>
</a>
</g>
<!-- dir_e281785fde6e531918efeeb56d5de73a -->
<g id="node2" class="node"><title>dir_e281785fde6e531918efeeb56d5de73a</title>
<a xlink:href="dir_e281785fde6e531918efeeb56d5de73a.html" target="_top" xlink:title="controlpanel">
<polygon fill="#eeeeff" stroke="black" points="84,-108 16,-108 16,-72 84,-72 84,-108"/>
<text text-anchor="middle" x="50" y="-87.5" font-family="Helvetica,sans-Serif" font-size="10.00">controlpanel</text>
</a>
</g>
<!-- dir_6719ab1f1f7655efc2fa43f7eb574fd1 -->
<g id="node3" class="node"><title>dir_6719ab1f1f7655efc2fa43f7eb574fd1</title>
<a xlink:href="dir_6719ab1f1f7655efc2fa43f7eb574fd1.html" target="_top" xlink:title="libs">
<polygon fill="white" stroke="red" points="77,-36 23,-36 23,-1.77636e-14 77,-3.55271e-15 77,-36"/>
<text text-anchor="middle" x="50" y="-15.5" font-family="Helvetica,sans-Serif" font-size="10.00">libs</text>
</a>
</g>
<!-- dir_e281785fde6e531918efeeb56d5de73a&#45;&gt;dir_6719ab1f1f7655efc2fa43f7eb574fd1 -->
<g id="edge3" class="edge"><title>dir_e281785fde6e531918efeeb56d5de73a&#45;&gt;dir_6719ab1f1f7655efc2fa43f7eb574fd1</title>
<path fill="none" stroke="black" d="M50,-71.8314C50,-64.131 50,-54.9743 50,-46.4166"/>
<polygon fill="black" stroke="black" points="53.5001,-46.4132 50,-36.4133 46.5001,-46.4133 53.5001,-46.4132"/>
<a xlink:href="dir_000001_000002.html" target="_top" xlink:title="9">
<text text-anchor="middle" x="56.3393" y="-47.5079" font-family="Helvetica,sans-Serif" font-size="10.00">9</text>
</a>
</g>
</g>
</svg>
