<?xml version="1.0" encoding="UTF-8" standalone="no"?>
<!DOCTYPE svg PUBLIC "-//W3C//DTD SVG 1.1//EN"
 "http://www.w3.org/Graphics/SVG/1.1/DTD/svg11.dtd">
<!-- Generated by graphviz version 2.26.3 (20100126.1600)
 -->
<!-- Title: /home/travis/build/LibrePCB/LibrePCB/libs/librepcbproject/settings/cmd Pages: 1 -->
<svg width="96pt" height="153pt"
 viewBox="0.00 0.00 96.00 153.00" xmlns="http://www.w3.org/2000/svg" xmlns:xlink="http://www.w3.org/1999/xlink">
<g id="graph1" class="graph" transform="scale(1 1) rotate(0) translate(4 149)">
<title>/home/travis/build/LibrePCB/LibrePCB/libs/librepcbproject/settings/cmd</title>
<polygon fill="white" stroke="white" points="-4,5 -4,-149 93,-149 93,5 -4,5"/>
<g id="graph2" class="cluster"><title>clusterdir_efc38cef2ea58e90050d02dbad2a4ede</title>
<a xlink:href="dir_efc38cef2ea58e90050d02dbad2a4ede.html" target="_top" xlink:title="settings">
<polygon fill="#ddddee" stroke="black" points="9,-64 9,-137 79,-137 79,-64 9,-64"/>
<text text-anchor="middle" x="44" y="-124" font-family="Helvetica,sans-Serif" font-size="10.00">settings</text>
</a>
</g>
<!-- dir_0f3dab7f82dc037539e561ced520cb8c -->
<g id="node2" class="node"><title>dir_0f3dab7f82dc037539e561ced520cb8c</title>
<a xlink:href="dir_0f3dab7f82dc037539e561ced520cb8c.html" target="_top" xlink:title="cmd">
<polygon fill="#eeeeff" stroke="black" points="71,-108 17,-108 17,-72 71,-72 71,-108"/>
<text text-anchor="middle" x="44" y="-87.5" font-family="Helvetica,sans-Serif" font-size="10.00">cmd</text>
</a>
</g>
<!-- dir_2093dc0e773f0ae75a86b05835aba5e8 -->
<g id="node3" class="node"><title>dir_2093dc0e773f0ae75a86b05835aba5e8</title>
<a xlink:href="dir_2093dc0e773f0ae75a86b05835aba5e8.html" target="_top" xlink:title="librepcbcommon">
<polygon fill="white" stroke="red" points="88,-36 4.26326e-14,-36 0,-1.77636e-14 88,-3.55271e-15 88,-36"/>
<text text-anchor="middle" x="44" y="-15.5" font-family="Helvetica,sans-Serif" font-size="10.00">librepcbcommon</text>
</a>
</g>
<!-- dir_0f3dab7f82dc037539e561ced520cb8c&#45;&gt;dir_2093dc0e773f0ae75a86b05835aba5e8 -->
<g id="edge3" class="edge"><title>dir_0f3dab7f82dc037539e561ced520cb8c&#45;&gt;dir_2093dc0e773f0ae75a86b05835aba5e8</title>
<path fill="none" stroke="black" d="M44,-71.8314C44,-64.131 44,-54.9743 44,-46.4166"/>
<polygon fill="black" stroke="black" points="47.5001,-46.4132 44,-36.4133 40.5001,-46.4133 47.5001,-46.4132"/>
<a xlink:href="dir_000044_000006.html" target="_top" xlink:title="1">
<text text-anchor="middle" x="50.3393" y="-47.5079" font-family="Helvetica,sans-Serif" font-size="10.00">1</text>
</a>
</g>
</g>
</svg>
