<?xml version="1.0" encoding="UTF-8" standalone="no"?>
<!DOCTYPE svg PUBLIC "-//W3C//DTD SVG 1.1//EN"
 "http://www.w3.org/Graphics/SVG/1.1/DTD/svg11.dtd">
<!-- Generated by graphviz version 2.26.3 (20100126.1600)
 -->
<!-- Title: Graphical Class Hierarchy Pages: 1 -->
<svg width="242pt" height="282pt"
 viewBox="0.00 0.00 242.00 282.00" xmlns="http://www.w3.org/2000/svg" xmlns:xlink="http://www.w3.org/1999/xlink">
<g id="graph1" class="graph" transform="scale(1 1) rotate(0) translate(4 278)">
<title>Graphical Class Hierarchy</title>
<polygon fill="white" stroke="white" points="-4,5 -4,-278 239,-278 239,5 -4,5"/>
<!-- Node1 -->
<g id="node1" class="node"><title>Node1</title>
<polygon fill="white" stroke="#bfbfbf" points="0,-132.5 0,-153.5 52,-153.5 52,-132.5 0,-132.5"/>
<text text-anchor="middle" x="26" y="-140.5" font-family="Helvetica,sans-Serif" font-size="10.00">QDialog</text>
</g>
<!-- Node2 -->
<g id="node3" class="node"><title>Node2</title>
<a xlink:href="dc/d4e/class_grid_settings_dialog.html" target="_top" xlink:title="This class provides a Dialog (GUI) to change the grid settings of a GraphicsView. ...">
<polygon fill="white" stroke="black" points="112,-252.5 112,-273.5 210,-273.5 210,-252.5 112,-252.5"/>
<text text-anchor="middle" x="161" y="-260.5" font-family="Helvetica,sans-Serif" font-size="10.00">GridSettingsDialog</text>
</a>
</g>
<!-- Node1&#45;&gt;Node2 -->
<g id="edge2" class="edge"><title>Node1&#45;&gt;Node2</title>
<path fill="none" stroke="midnightblue" d="M33.1572,-162.949C42.3468,-185.711 60.4685,-222.433 88,-243 95.0534,-248.269 103.415,-252.15 111.917,-255.009"/>
<polygon fill="midnightblue" stroke="midnightblue" points="36.4128,-161.664 29.5618,-153.582 29.8776,-164.172 36.4128,-161.664"/>
</g>
<!-- Node3 -->
<g id="node5" class="node"><title>Node3</title>
<a xlink:href="d1/d92/classproject_1_1_add_gen_comp_dialog.html" target="_top" xlink:title="The AddGenCompDialog class. ">
<polygon fill="white" stroke="black" points="108,-212.5 108,-233.5 214,-233.5 214,-212.5 108,-212.5"/>
<text text-anchor="middle" x="161" y="-220.5" font-family="Helvetica,sans-Serif" font-size="10.00">AddGenCompDialog</text>
</a>
</g>
<!-- Node1&#45;&gt;Node3 -->
<g id="edge4" class="edge"><title>Node1&#45;&gt;Node3</title>
<path fill="none" stroke="midnightblue" d="M40.4357,-161.243C51.9648,-174.644 69.2501,-192.309 88,-203 94.6209,-206.775 101.989,-209.866 109.425,-212.39"/>
<polygon fill="midnightblue" stroke="midnightblue" points="43.1242,-159.002 34.0394,-153.551 37.7417,-163.478 43.1242,-159.002"/>
</g>
<!-- Node4 -->
<g id="node7" class="node"><title>Node4</title>
<a xlink:href="d3/d8f/classproject_1_1_edit_net_classes_dialog.html" target="_top" xlink:title="The EditNetClassesDialog class. ">
<polygon fill="white" stroke="black" points="104.5,-172.5 104.5,-193.5 217.5,-193.5 217.5,-172.5 104.5,-172.5"/>
<text text-anchor="middle" x="161" y="-180.5" font-family="Helvetica,sans-Serif" font-size="10.00">EditNetClassesDialog</text>
</a>
</g>
<!-- Node1&#45;&gt;Node4 -->
<g id="edge6" class="edge"><title>Node1&#45;&gt;Node4</title>
<path fill="none" stroke="midnightblue" d="M61.866,-154.87C70.4078,-157.613 79.5086,-160.469 88,-163 98.704,-166.191 110.348,-169.468 121.127,-172.422"/>
<polygon fill="midnightblue" stroke="midnightblue" points="62.7573,-151.48 52.1653,-151.726 60.5993,-158.139 62.7573,-151.48"/>
</g>
<!-- Node5 -->
<g id="node9" class="node"><title>Node5</title>
<a xlink:href="dd/db6/classproject_1_1_project_properties_editor_dialog.html" target="_top" xlink:title="The ProjectPropertiesEditorDialog class. ">
<polygon fill="white" stroke="black" points="88.5,-132.5 88.5,-153.5 233.5,-153.5 233.5,-132.5 88.5,-132.5"/>
<text text-anchor="middle" x="161" y="-140.5" font-family="Helvetica,sans-Serif" font-size="10.00">ProjectPropertiesEditorDialog</text>
</a>
</g>
<!-- Node1&#45;&gt;Node5 -->
<g id="edge8" class="edge"><title>Node1&#45;&gt;Node5</title>
<path fill="none" stroke="midnightblue" d="M62.2561,-143C70.4205,-143 79.3673,-143 88.4368,-143"/>
<polygon fill="midnightblue" stroke="midnightblue" points="62.0294,-139.5 52.0294,-143 62.0293,-146.5 62.0294,-139.5"/>
</g>
<!-- Node6 -->
<g id="node11" class="node"><title>Node6</title>
<a xlink:href="d1/d44/classproject_1_1_project_settings_dialog.html" target="_top" xlink:title="The ProjectSettingsDialog class. ">
<polygon fill="white" stroke="black" points="105.5,-92.5 105.5,-113.5 216.5,-113.5 216.5,-92.5 105.5,-92.5"/>
<text text-anchor="middle" x="161" y="-100.5" font-family="Helvetica,sans-Serif" font-size="10.00">ProjectSettingsDialog</text>
</a>
</g>
<!-- Node1&#45;&gt;Node6 -->
<g id="edge10" class="edge"><title>Node1&#45;&gt;Node6</title>
<path fill="none" stroke="midnightblue" d="M61.866,-131.13C70.4078,-128.387 79.5086,-125.531 88,-123 98.704,-119.809 110.348,-116.532 121.127,-113.578"/>
<polygon fill="midnightblue" stroke="midnightblue" points="60.5993,-127.861 52.1653,-134.274 62.7573,-134.52 60.5993,-127.861"/>
</g>
<!-- Node7 -->
<g id="node13" class="node"><title>Node7</title>
<a xlink:href="d9/de8/classproject_1_1_symbol_instance_properties_dialog.html" target="_top" xlink:title="The SymbolInstancePropertiesDialog class. ">
<polygon fill="white" stroke="black" points="95.5,-40 95.5,-74 226.5,-74 226.5,-40 95.5,-40"/>
<text text-anchor="start" x="103.5" y="-61" font-family="Helvetica,sans-Serif" font-size="10.00">SymbolInstanceProperties</text>
<text text-anchor="middle" x="161" y="-48" font-family="Helvetica,sans-Serif" font-size="10.00">Dialog</text>
</a>
</g>
<!-- Node1&#45;&gt;Node7 -->
<g id="edge12" class="edge"><title>Node1&#45;&gt;Node7</title>
<path fill="none" stroke="midnightblue" d="M41.4074,-124.325C53.0478,-111.233 70.0444,-94.147 88,-83 93.3721,-79.6649 99.2322,-76.6781 105.22,-74.024"/>
<polygon fill="midnightblue" stroke="midnightblue" points="38.4545,-122.389 34.5752,-132.249 43.756,-126.961 38.4545,-122.389"/>
</g>
<!-- Node8 -->
<g id="node15" class="node"><title>Node8</title>
<a xlink:href="d1/d5c/class_workspace_settings_dialog.html" target="_top" xlink:title="The WorkspaceSettingsDialog class. ">
<polygon fill="white" stroke="black" points="96,-0.5 96,-21.5 226,-21.5 226,-0.5 96,-0.5"/>
<text text-anchor="middle" x="161" y="-8.5" font-family="Helvetica,sans-Serif" font-size="10.00">WorkspaceSettingsDialog</text>
</a>
</g>
<!-- Node1&#45;&gt;Node8 -->
<g id="edge14" class="edge"><title>Node1&#45;&gt;Node8</title>
<path fill="none" stroke="midnightblue" d="M31.8845,-122.535C40.2147,-97.2494 57.8841,-54.6792 88,-31 92.8551,-27.1826 98.388,-24.0928 104.186,-21.592"/>
<polygon fill="midnightblue" stroke="midnightblue" points="28.5039,-121.619 28.8771,-132.207 35.1883,-123.697 28.5039,-121.619"/>
</g>
</g>
</svg>
