<?xml version="1.0" encoding="UTF-8" standalone="no"?>
<!DOCTYPE svg PUBLIC "-//W3C//DTD SVG 1.1//EN"
 "http://www.w3.org/Graphics/SVG/1.1/DTD/svg11.dtd">
<!-- Generated by graphviz version 2.26.3 (20100126.1600)
 -->
<!-- Title: Graphical Class Hierarchy Pages: 1 -->
<svg width="182pt" height="110pt"
 viewBox="0.00 0.00 182.00 110.00" xmlns="http://www.w3.org/2000/svg" xmlns:xlink="http://www.w3.org/1999/xlink">
<g id="graph1" class="graph" transform="scale(1 1) rotate(0) translate(4 106)">
<title>Graphical Class Hierarchy</title>
<polygon fill="white" stroke="white" points="-4,5 -4,-106 179,-106 179,5 -4,5"/>
<!-- Node1 -->
<g id="node1" class="node"><title>Node1</title>
<a xlink:href="d1/d7f/class_smart_file.html" target="_top" xlink:title="The abstract SmartFile class represents a file and provides some useful methods to work with that fil...">
<polygon fill="white" stroke="black" points="0.5,-40.5 0.5,-61.5 59.5,-61.5 59.5,-40.5 0.5,-40.5"/>
<text text-anchor="middle" x="30" y="-48.5" font-family="Helvetica,sans-Serif" font-size="10.00">SmartFile</text>
</a>
</g>
<!-- Node2 -->
<g id="node3" class="node"><title>Node2</title>
<a xlink:href="dc/d03/class_smart_ini_file.html" target="_top" xlink:title="The SmartIniFile class represents an INI file and provides access over QSettings objects. ">
<polygon fill="white" stroke="black" points="100.5,-80.5 100.5,-101.5 169.5,-101.5 169.5,-80.5 100.5,-80.5"/>
<text text-anchor="middle" x="135" y="-88.5" font-family="Helvetica,sans-Serif" font-size="10.00">SmartIniFile</text>
</a>
</g>
<!-- Node1&#45;&gt;Node2 -->
<g id="edge2" class="edge"><title>Node1&#45;&gt;Node2</title>
<path fill="none" stroke="midnightblue" d="M67.3123,-65.2142C80.4643,-70.2245 95.0077,-75.7648 107.232,-80.4218"/>
<polygon fill="midnightblue" stroke="midnightblue" points="68.1784,-61.7988 57.5875,-61.5095 65.6864,-68.3403 68.1784,-61.7988"/>
</g>
<!-- Node3 -->
<g id="node5" class="node"><title>Node3</title>
<a xlink:href="db/deb/class_smart_text_file.html" target="_top" xlink:title="The SmartTextFile class represents a text file and provides access to its content. ">
<polygon fill="white" stroke="black" points="96,-40.5 96,-61.5 174,-61.5 174,-40.5 96,-40.5"/>
<text text-anchor="middle" x="135" y="-48.5" font-family="Helvetica,sans-Serif" font-size="10.00">SmartTextFile</text>
</a>
</g>
<!-- Node1&#45;&gt;Node3 -->
<g id="edge4" class="edge"><title>Node1&#45;&gt;Node3</title>
<path fill="none" stroke="midnightblue" d="M69.6866,-51C78.2677,-51 87.3351,-51 95.8937,-51"/>
<polygon fill="midnightblue" stroke="midnightblue" points="69.5278,-47.5001 59.5278,-51 69.5277,-54.5001 69.5278,-47.5001"/>
</g>
<!-- Node4 -->
<g id="node7" class="node"><title>Node4</title>
<a xlink:href="da/db0/class_smart_xml_file.html" target="_top" xlink:title="The SmartXmlFile class represents a XML file and provides methods to load/save XML DOM trees (XmlDomD...">
<polygon fill="white" stroke="black" points="97,-0.5 97,-21.5 173,-21.5 173,-0.5 97,-0.5"/>
<text text-anchor="middle" x="135" y="-8.5" font-family="Helvetica,sans-Serif" font-size="10.00">SmartXmlFile</text>
</a>
</g>
<!-- Node1&#45;&gt;Node4 -->
<g id="edge6" class="edge"><title>Node1&#45;&gt;Node4</title>
<path fill="none" stroke="midnightblue" d="M67.3123,-36.7858C80.4643,-31.7755 95.0077,-26.2352 107.232,-21.5782"/>
<polygon fill="midnightblue" stroke="midnightblue" points="65.6864,-33.6597 57.5875,-40.4905 68.1784,-40.2012 65.6864,-33.6597"/>
</g>
</g>
</svg>
