<?xml version="1.0" encoding="UTF-8" standalone="no"?>
<!DOCTYPE svg PUBLIC "-//W3C//DTD SVG 1.1//EN"
 "http://www.w3.org/Graphics/SVG/1.1/DTD/svg11.dtd">
<!-- Generated by graphviz version 2.26.3 (20100126.1600)
 -->
<!-- Title: getRotation Pages: 1 -->
<svg width="658pt" height="174pt"
 viewBox="0.00 0.00 658.00 174.00" xmlns="http://www.w3.org/2000/svg" xmlns:xlink="http://www.w3.org/1999/xlink">
<g id="graph1" class="graph" transform="scale(1 1) rotate(0) translate(4 170)">
<title>getRotation</title>
<polygon fill="white" stroke="white" points="-4,5 -4,-170 655,-170 655,5 -4,5"/>
<!-- Node1 -->
<g id="node1" class="node"><title>Node1</title>
<polygon fill="#bfbfbf" stroke="black" points="0.5,-53.5 0.5,-74.5 67.5,-74.5 67.5,-53.5 0.5,-53.5"/>
<text text-anchor="middle" x="34" y="-61.5" font-family="Helvetica,sans-Serif" font-size="10.00">getRotation</text>
</g>
<!-- Node2 -->
<g id="node3" class="node"><title>Node2</title>
<a xlink:href="../../dc/d87/classproject_1_1_b_g_i___footprint.html#abbb5db1b700a86caa85ff4c0c13142f2" target="_top" xlink:title="project::BGI_Footprint\l::updateCacheAndRepaint">
<polygon fill="white" stroke="black" points="272.5,-92 272.5,-126 403.5,-126 403.5,-92 272.5,-92"/>
<text text-anchor="start" x="280.5" y="-113" font-family="Helvetica,sans-Serif" font-size="10.00">project::BGI_Footprint</text>
<text text-anchor="middle" x="338" y="-100" font-family="Helvetica,sans-Serif" font-size="10.00">::updateCacheAndRepaint</text>
</a>
</g>
<!-- Node1&#45;&gt;Node2 -->
<g id="edge2" class="edge"><title>Node1&#45;&gt;Node2</title>
<path fill="none" stroke="midnightblue" d="M67.0987,-78.4165C78.5786,-82.8427 91.6661,-87.2636 104,-90 160.006,-102.426 225.162,-106.931 272.477,-108.47"/>
<polygon fill="midnightblue" stroke="midnightblue" points="68.068,-75.0345 57.4834,-74.5676 65.4665,-81.5332 68.068,-75.0345"/>
</g>
<!-- Node7 -->
<g id="node15" class="node"><title>Node7</title>
<a xlink:href="../../d9/d13/classproject_1_1_b_g_i___footprint_pad.html#abbb5db1b700a86caa85ff4c0c13142f2" target="_top" xlink:title="project::BGI_FootprintPad\l::updateCacheAndRepaint">
<polygon fill="white" stroke="black" points="104.5,-47 104.5,-81 235.5,-81 235.5,-47 104.5,-47"/>
<text text-anchor="start" x="112.5" y="-68" font-family="Helvetica,sans-Serif" font-size="10.00">project::BGI_FootprintPad</text>
<text text-anchor="middle" x="170" y="-55" font-family="Helvetica,sans-Serif" font-size="10.00">::updateCacheAndRepaint</text>
</a>
</g>
<!-- Node1&#45;&gt;Node7 -->
<g id="edge16" class="edge"><title>Node1&#45;&gt;Node7</title>
<path fill="none" stroke="midnightblue" d="M77.6819,-64C86.2067,-64 95.3188,-64 104.375,-64"/>
<polygon fill="midnightblue" stroke="midnightblue" points="77.618,-60.5001 67.618,-64 77.618,-67.5001 77.618,-60.5001"/>
</g>
<!-- Node8 -->
<g id="node17" class="node"><title>Node8</title>
<a xlink:href="../../d4/ddd/classproject_1_1_b_i___footprint_pad.html#a212e36e19edc323ddeb73387d2f011a5" target="_top" xlink:title="project::BI_FootprintPad\l::updatePosition">
<polygon fill="white" stroke="black" points="277,-40 277,-74 399,-74 399,-40 277,-40"/>
<text text-anchor="start" x="285" y="-61" font-family="Helvetica,sans-Serif" font-size="10.00">project::BI_FootprintPad</text>
<text text-anchor="middle" x="338" y="-48" font-family="Helvetica,sans-Serif" font-size="10.00">::updatePosition</text>
</a>
</g>
<!-- Node1&#45;&gt;Node8 -->
<g id="edge26" class="edge"><title>Node1&#45;&gt;Node8</title>
<path fill="none" stroke="midnightblue" d="M65.5406,-49.5724C77.3469,-44.9022 91.0411,-40.3289 104,-38 162.168,-27.5462 229.514,-35.0301 276.979,-43.4854"/>
<polygon fill="midnightblue" stroke="midnightblue" points="64.0252,-46.4117 56.1249,-53.4711 66.7032,-52.8792 64.0252,-46.4117"/>
</g>
<!-- Node3 -->
<g id="node5" class="node"><title>Node3</title>
<a xlink:href="../../da/d96/classproject_1_1_b_i___footprint.html#a80db668afe30ac6b6c9e5eb061b61cfc" target="_top" xlink:title="componentInstanceAttributes\lChanged">
<polygon fill="white" stroke="black" points="440,-132 440,-166 584,-166 584,-132 440,-132"/>
<text text-anchor="start" x="448" y="-153" font-family="Helvetica,sans-Serif" font-size="10.00">componentInstanceAttributes</text>
<text text-anchor="middle" x="512" y="-140" font-family="Helvetica,sans-Serif" font-size="10.00">Changed</text>
</a>
</g>
<!-- Node2&#45;&gt;Node3 -->
<g id="edge4" class="edge"><title>Node2&#45;&gt;Node3</title>
<path fill="none" stroke="midnightblue" d="M413.798,-126.425C422.406,-128.404 431.163,-130.417 439.724,-132.385"/>
<polygon fill="midnightblue" stroke="midnightblue" points="414.312,-122.952 403.782,-124.122 412.744,-129.774 414.312,-122.952"/>
</g>
<!-- Node5 -->
<g id="node9" class="node"><title>Node5</title>
<a xlink:href="../../da/d96/classproject_1_1_b_i___footprint.html#a271c63e12acd19bccc27bf6861938df2" target="_top" xlink:title="componentInstanceMoved">
<polygon fill="white" stroke="black" points="446.5,-52.5 446.5,-73.5 577.5,-73.5 577.5,-52.5 446.5,-52.5"/>
<text text-anchor="middle" x="512" y="-60.5" font-family="Helvetica,sans-Serif" font-size="10.00">componentInstanceMoved</text>
</a>
</g>
<!-- Node2&#45;&gt;Node5 -->
<g id="edge8" class="edge"><title>Node2&#45;&gt;Node5</title>
<path fill="none" stroke="midnightblue" d="M412.73,-89.2439C433.167,-83.841 454.526,-78.1943 472.173,-73.529"/>
<polygon fill="midnightblue" stroke="midnightblue" points="411.564,-85.9316 402.791,-91.8713 413.354,-92.6991 411.564,-85.9316"/>
</g>
<!-- Node6 -->
<g id="node12" class="node"><title>Node6</title>
<a xlink:href="../../da/d96/classproject_1_1_b_i___footprint.html#ab6c0fcabcb9d5a38a27ed7aeb34f0958" target="_top" xlink:title="componentInstanceRotated">
<polygon fill="white" stroke="black" points="443.5,-92.5 443.5,-113.5 580.5,-113.5 580.5,-92.5 443.5,-92.5"/>
<text text-anchor="middle" x="512" y="-100.5" font-family="Helvetica,sans-Serif" font-size="10.00">componentInstanceRotated</text>
</a>
</g>
<!-- Node2&#45;&gt;Node6 -->
<g id="edge12" class="edge"><title>Node2&#45;&gt;Node6</title>
<path fill="none" stroke="midnightblue" d="M413.867,-106.384C423.631,-106.047 433.585,-105.704 443.227,-105.371"/>
<polygon fill="midnightblue" stroke="midnightblue" points="413.655,-102.889 403.782,-106.732 413.897,-109.885 413.655,-102.889"/>
</g>
<!-- Node4 -->
<g id="node7" class="node"><title>Node4</title>
<a xlink:href="../../da/d96/classproject_1_1_b_i___footprint.html#a02fd73d861ef2e4aabb38c0c9ff82947" target="_top" xlink:title="init">
<polygon fill="white" stroke="black" points="620.5,-92.5 620.5,-113.5 649.5,-113.5 649.5,-92.5 620.5,-92.5"/>
<text text-anchor="middle" x="635" y="-100.5" font-family="Helvetica,sans-Serif" font-size="10.00">init</text>
</a>
</g>
<!-- Node3&#45;&gt;Node4 -->
<g id="edge6" class="edge"><title>Node3&#45;&gt;Node4</title>
<path fill="none" stroke="midnightblue" d="M569.278,-128.476C574.263,-126.641 579.225,-124.798 584,-123 596.283,-118.375 610.143,-112.924 620.311,-108.882"/>
<polygon fill="midnightblue" stroke="midnightblue" points="567.892,-125.256 559.704,-131.98 570.298,-131.83 567.892,-125.256"/>
</g>
<!-- Node5&#45;&gt;Node4 -->
<g id="edge10" class="edge"><title>Node5&#45;&gt;Node4</title>
<path fill="none" stroke="midnightblue" d="M562.675,-76.3689C569.869,-78.4721 577.148,-80.7114 584,-83 596.449,-87.1577 610.296,-92.6446 620.417,-96.8196"/>
<polygon fill="midnightblue" stroke="midnightblue" points="563.541,-72.9763 552.964,-73.5935 561.617,-79.7068 563.541,-72.9763"/>
</g>
<!-- Node6&#45;&gt;Node4 -->
<g id="edge14" class="edge"><title>Node6&#45;&gt;Node4</title>
<path fill="none" stroke="midnightblue" d="M590.735,-103C601.966,-103 612.363,-103 620.255,-103"/>
<polygon fill="midnightblue" stroke="midnightblue" points="590.692,-99.5001 580.692,-103 590.692,-106.5 590.692,-99.5001"/>
</g>
<!-- Node7&#45;&gt;Node8 -->
<g id="edge18" class="edge"><title>Node7&#45;&gt;Node8</title>
<path fill="none" stroke="midnightblue" d="M246.15,-60.8271C256.461,-60.3975 266.931,-59.9612 276.931,-59.5445"/>
<polygon fill="midnightblue" stroke="midnightblue" points="245.761,-57.3401 235.916,-61.2535 246.053,-64.3341 245.761,-57.3401"/>
</g>
<!-- Node8&#45;&gt;Node5 -->
<g id="edge20" class="edge"><title>Node8&#45;&gt;Node5</title>
<path fill="none" stroke="midnightblue" d="M409.506,-59.4657C421.747,-59.8878 434.411,-60.3245 446.485,-60.7409"/>
<polygon fill="midnightblue" stroke="midnightblue" points="409.461,-55.9622 399.346,-59.1154 409.219,-62.958 409.461,-55.9622"/>
</g>
<!-- Node8&#45;&gt;Node6 -->
<g id="edge22" class="edge"><title>Node8&#45;&gt;Node6</title>
<path fill="none" stroke="midnightblue" d="M409.109,-75.7989C430.606,-81.4819 453.442,-87.5192 472.126,-92.4586"/>
<polygon fill="midnightblue" stroke="midnightblue" points="409.908,-72.3901 399.346,-73.2179 408.119,-79.1576 409.908,-72.3901"/>
</g>
<!-- Node9 -->
<g id="node21" class="node"><title>Node9</title>
<a xlink:href="../../d4/ddd/classproject_1_1_b_i___footprint_pad.html#ac81e6cd36593d731c5e2e23048ed6754" target="_top" xlink:title="project::BI_FootprintPad\l::BI_FootprintPad">
<polygon fill="white" stroke="black" points="451,-0 451,-34 573,-34 573,-0 451,-0"/>
<text text-anchor="start" x="459" y="-21" font-family="Helvetica,sans-Serif" font-size="10.00">project::BI_FootprintPad</text>
<text text-anchor="middle" x="512" y="-8" font-family="Helvetica,sans-Serif" font-size="10.00">::BI_FootprintPad</text>
</a>
</g>
<!-- Node8&#45;&gt;Node9 -->
<g id="edge24" class="edge"><title>Node8&#45;&gt;Node9</title>
<path fill="none" stroke="midnightblue" d="M409.288,-40.6121C423.102,-37.4363 437.463,-34.1349 450.915,-31.0425"/>
<polygon fill="midnightblue" stroke="midnightblue" points="408.308,-37.246 399.346,-42.8975 409.876,-44.068 408.308,-37.246"/>
</g>
</g>
</svg>
