<?xml version="1.0" encoding="UTF-8" standalone="no"?>
<!DOCTYPE svg PUBLIC "-//W3C//DTD SVG 1.1//EN"
 "http://www.w3.org/Graphics/SVG/1.1/DTD/svg11.dtd">
<!-- Generated by graphviz version 2.26.3 (20100126.1600)
 -->
<!-- Title: serializeToXmlDomElement Pages: 1 -->
<svg width="694pt" height="93pt"
 viewBox="0.00 0.00 694.00 93.00" xmlns="http://www.w3.org/2000/svg" xmlns:xlink="http://www.w3.org/1999/xlink">
<g id="graph1" class="graph" transform="scale(1 1) rotate(0) translate(4 89)">
<title>serializeToXmlDomElement</title>
<polygon fill="white" stroke="white" points="-4,5 -4,-89 691,-89 691,5 -4,5"/>
<!-- Node1 -->
<g id="node1" class="node"><title>Node1</title>
<polygon fill="#bfbfbf" stroke="black" points="0,-29.5 0,-50.5 138,-50.5 138,-29.5 0,-29.5"/>
<text text-anchor="middle" x="69" y="-37.5" font-family="Helvetica,sans-Serif" font-size="10.00">serializeToXmlDomElement</text>
</g>
<!-- Node2 -->
<g id="node3" class="node"><title>Node2</title>
<a xlink:href="../../d8/dff/classlibrary_1_1_library_element.html#a8747acbd54e52d4fcb3bb74f1bb2a88a" target="_top" xlink:title="Serialize the object to a XML DOM element. ">
<polygon fill="white" stroke="black" points="174,-23 174,-57 318,-57 318,-23 174,-23"/>
<text text-anchor="start" x="182" y="-44" font-family="Helvetica,sans-Serif" font-size="10.00">library::LibraryElement</text>
<text text-anchor="middle" x="246" y="-31" font-family="Helvetica,sans-Serif" font-size="10.00">::serializeToXmlDomElement</text>
</a>
</g>
<!-- Node1&#45;&gt;Node2 -->
<g id="edge2" class="edge"><title>Node1&#45;&gt;Node2</title>
<path fill="none" stroke="midnightblue" d="M138.193,-40C146.626,-40 155.304,-40 163.901,-40"/>
<polygon fill="midnightblue" stroke="midnightblue" points="163.937,-43.5001 173.937,-40 163.937,-36.5001 163.937,-43.5001"/>
</g>
<!-- Node3 -->
<g id="node5" class="node"><title>Node3</title>
<a xlink:href="../../dd/d8a/classlibrary_1_1_library_base_element.html#a8747acbd54e52d4fcb3bb74f1bb2a88a" target="_top" xlink:title="Serialize the object to a XML DOM element. ">
<polygon fill="white" stroke="black" points="354,-23 354,-57 498,-57 498,-23 354,-23"/>
<text text-anchor="start" x="362" y="-44" font-family="Helvetica,sans-Serif" font-size="10.00">library::LibraryBaseElement</text>
<text text-anchor="middle" x="426" y="-31" font-family="Helvetica,sans-Serif" font-size="10.00">::serializeToXmlDomElement</text>
</a>
</g>
<!-- Node2&#45;&gt;Node3 -->
<g id="edge4" class="edge"><title>Node2&#45;&gt;Node3</title>
<path fill="none" stroke="midnightblue" d="M318.176,-40C326.52,-40 335.077,-40 343.544,-40"/>
<polygon fill="midnightblue" stroke="midnightblue" points="343.808,-43.5001 353.808,-40 343.808,-36.5001 343.808,-43.5001"/>
</g>
<!-- Node4 -->
<g id="node7" class="node"><title>Node4</title>
<a xlink:href="../../d1/d1f/class_xml_dom_element.html#af2ee1b74300d31ca889b32ddd96d51ac" target="_top" xlink:title="Append a child to the end of the child list of this element. ">
<polygon fill="white" stroke="black" points="534.5,-63.5 534.5,-84.5 685.5,-84.5 685.5,-63.5 534.5,-63.5"/>
<text text-anchor="middle" x="610" y="-71.5" font-family="Helvetica,sans-Serif" font-size="10.00">XmlDomElement::appendChild</text>
</a>
</g>
<!-- Node2&#45;&gt;Node4 -->
<g id="edge10" class="edge"><title>Node2&#45;&gt;Node4</title>
<path fill="none" stroke="midnightblue" d="M307.269,-57.0525C322.428,-60.6321 338.709,-63.9427 354,-66 410.38,-73.5857 474.344,-75.5875 524.231,-75.692"/>
<polygon fill="midnightblue" stroke="midnightblue" points="524.336,-79.192 534.335,-75.6878 524.333,-72.192 524.336,-79.192"/>
</g>
<!-- Node5 -->
<g id="node9" class="node"><title>Node5</title>
<a xlink:href="../../d1/d1f/class_xml_dom_element.html#a22b3ed6c99338244f5855c446f66d702" target="_top" xlink:title="Create a new text child and append it to the list of childs. ">
<polygon fill="white" stroke="black" points="536,-0 536,-34 684,-34 684,-0 536,-0"/>
<text text-anchor="start" x="544" y="-21" font-family="Helvetica,sans-Serif" font-size="10.00">XmlDomElement::appendText</text>
<text text-anchor="middle" x="610" y="-8" font-family="Helvetica,sans-Serif" font-size="10.00">Child</text>
</a>
</g>
<!-- Node2&#45;&gt;Node5 -->
<g id="edge12" class="edge"><title>Node2&#45;&gt;Node5</title>
<path fill="none" stroke="midnightblue" d="M305.809,-22.9441C321.367,-19.2418 338.2,-15.875 354,-14 410.984,-7.23739 475.602,-8.0588 525.661,-10.5347"/>
<polygon fill="midnightblue" stroke="midnightblue" points="525.623,-14.0374 535.793,-11.068 525.991,-7.0471 525.623,-14.0374"/>
</g>
<!-- Node3&#45;&gt;Node4 -->
<g id="edge6" class="edge"><title>Node3&#45;&gt;Node4</title>
<path fill="none" stroke="midnightblue" d="M498.194,-53.3401C513,-56.0761 528.525,-58.9448 543.134,-61.6443"/>
<polygon fill="midnightblue" stroke="midnightblue" points="542.612,-65.1071 553.082,-63.4825 543.884,-58.2236 542.612,-65.1071"/>
</g>
<!-- Node3&#45;&gt;Node5 -->
<g id="edge8" class="edge"><title>Node3&#45;&gt;Node5</title>
<path fill="none" stroke="midnightblue" d="M498.194,-30.9758C507.288,-29.839 516.653,-28.6683 525.911,-27.5111"/>
<polygon fill="midnightblue" stroke="midnightblue" points="526.408,-30.9763 535.897,-26.2629 525.54,-24.0304 526.408,-30.9763"/>
</g>
</g>
</svg>
