<?xml version="1.0" encoding="UTF-8" standalone="no"?>
<!DOCTYPE svg PUBLIC "-//W3C//DTD SVG 1.1//EN"
 "http://www.w3.org/Graphics/SVG/1.1/DTD/svg11.dtd">
<!-- Generated by graphviz version 2.26.3 (20100126.1600)
 -->
<!-- Title: addSchematic Pages: 1 -->
<svg width="280pt" height="198pt"
 viewBox="0.00 0.00 280.00 198.00" xmlns="http://www.w3.org/2000/svg" xmlns:xlink="http://www.w3.org/1999/xlink">
<g id="graph1" class="graph" transform="scale(1 1) rotate(0) translate(4 194)">
<title>addSchematic</title>
<polygon fill="white" stroke="white" points="-4,5 -4,-194 277,-194 277,5 -4,5"/>
<!-- Node1 -->
<g id="node1" class="node"><title>Node1</title>
<polygon fill="#bfbfbf" stroke="black" points="0.5,-84.5 0.5,-105.5 79.5,-105.5 79.5,-84.5 0.5,-84.5"/>
<text text-anchor="middle" x="40" y="-92.5" font-family="Helvetica,sans-Serif" font-size="10.00">addSchematic</text>
</g>
<!-- Node2 -->
<g id="node3" class="node"><title>Node2</title>
<a xlink:href="../../d0/db5/classproject_1_1_cmd_schematic_add.html#a91ca7652063093da57fc1bd0141dcc95" target="_top" xlink:title="Redo/execute the command (and all child commands in normal order) ">
<polygon fill="white" stroke="black" points="125.5,-156 125.5,-190 262.5,-190 262.5,-156 125.5,-156"/>
<text text-anchor="start" x="133.5" y="-177" font-family="Helvetica,sans-Serif" font-size="10.00">project::CmdSchematicAdd</text>
<text text-anchor="middle" x="194" y="-164" font-family="Helvetica,sans-Serif" font-size="10.00">::redo</text>
</a>
</g>
<!-- Node1&#45;&gt;Node2 -->
<g id="edge2" class="edge"><title>Node1&#45;&gt;Node2</title>
<path fill="none" stroke="midnightblue" d="M60.9834,-111.722C75.7197,-122.858 96.2497,-137.193 116,-147 122.52,-150.238 129.538,-153.217 136.597,-155.913"/>
<polygon fill="midnightblue" stroke="midnightblue" points="63.0844,-108.922 53.0262,-105.593 58.8129,-114.468 63.0844,-108.922"/>
</g>
<!-- Node3 -->
<g id="node5" class="node"><title>Node3</title>
<a xlink:href="../../d0/db5/classproject_1_1_cmd_schematic_add.html#a19e8778088bfe76b16745470981bb913" target="_top" xlink:title="Undo the command (and all child commands in reverse order) ">
<polygon fill="white" stroke="black" points="125.5,-104 125.5,-138 262.5,-138 262.5,-104 125.5,-104"/>
<text text-anchor="start" x="133.5" y="-125" font-family="Helvetica,sans-Serif" font-size="10.00">project::CmdSchematicAdd</text>
<text text-anchor="middle" x="194" y="-112" font-family="Helvetica,sans-Serif" font-size="10.00">::undo</text>
</a>
</g>
<!-- Node1&#45;&gt;Node3 -->
<g id="edge4" class="edge"><title>Node1&#45;&gt;Node3</title>
<path fill="none" stroke="midnightblue" d="M89.8204,-103.411C101.2,-105.333 113.489,-107.407 125.499,-109.435"/>
<polygon fill="midnightblue" stroke="midnightblue" points="90.102,-99.9093 79.6588,-101.696 88.9366,-106.812 90.102,-99.9093"/>
</g>
<!-- Node4 -->
<g id="node7" class="node"><title>Node4</title>
<a xlink:href="../../d9/d6e/classproject_1_1_cmd_schematic_remove.html#a91ca7652063093da57fc1bd0141dcc95" target="_top" xlink:title="Redo/execute the command (and all child commands in normal order) ">
<polygon fill="white" stroke="black" points="116,-52 116,-86 272,-86 272,-52 116,-52"/>
<text text-anchor="start" x="124" y="-73" font-family="Helvetica,sans-Serif" font-size="10.00">project::CmdSchematicRemove</text>
<text text-anchor="middle" x="194" y="-60" font-family="Helvetica,sans-Serif" font-size="10.00">::redo</text>
</a>
</g>
<!-- Node1&#45;&gt;Node4 -->
<g id="edge6" class="edge"><title>Node1&#45;&gt;Node4</title>
<path fill="none" stroke="midnightblue" d="M89.6318,-86.6206C98.0378,-85.2014 106.944,-83.6978 115.87,-82.1907"/>
<polygon fill="midnightblue" stroke="midnightblue" points="88.9366,-83.1884 79.6588,-88.3044 90.102,-90.0907 88.9366,-83.1884"/>
</g>
<!-- Node5 -->
<g id="node9" class="node"><title>Node5</title>
<a xlink:href="../../d9/d6e/classproject_1_1_cmd_schematic_remove.html#a19e8778088bfe76b16745470981bb913" target="_top" xlink:title="Undo the command (and all child commands in reverse order) ">
<polygon fill="white" stroke="black" points="116,-0 116,-34 272,-34 272,-0 116,-0"/>
<text text-anchor="start" x="124" y="-21" font-family="Helvetica,sans-Serif" font-size="10.00">project::CmdSchematicRemove</text>
<text text-anchor="middle" x="194" y="-8" font-family="Helvetica,sans-Serif" font-size="10.00">::undo</text>
</a>
</g>
<!-- Node1&#45;&gt;Node5 -->
<g id="edge8" class="edge"><title>Node1&#45;&gt;Node5</title>
<path fill="none" stroke="midnightblue" d="M60.9834,-78.278C75.7197,-67.1418 96.2497,-52.8074 116,-43 122.52,-39.7623 129.538,-36.7827 136.597,-34.0869"/>
<polygon fill="midnightblue" stroke="midnightblue" points="58.8129,-75.5319 53.0262,-84.4068 63.0844,-81.0776 58.8129,-75.5319"/>
</g>
</g>
</svg>
