<?xml version="1.0" encoding="UTF-8" standalone="no"?>
<!DOCTYPE svg PUBLIC "-//W3C//DTD SVG 1.1//EN"
 "http://www.w3.org/Graphics/SVG/1.1/DTD/svg11.dtd">
<!-- Generated by graphviz version 2.26.3 (20100126.1600)
 -->
<!-- Title: getSchematics Pages: 1 -->
<svg width="688pt" height="302pt"
 viewBox="0.00 0.00 688.00 302.00" xmlns="http://www.w3.org/2000/svg" xmlns:xlink="http://www.w3.org/1999/xlink">
<g id="graph1" class="graph" transform="scale(1 1) rotate(0) translate(4 298)">
<title>getSchematics</title>
<polygon fill="white" stroke="white" points="-4,5 -4,-298 685,-298 685,5 -4,5"/>
<!-- Node1 -->
<g id="node1" class="node"><title>Node1</title>
<polygon fill="#bfbfbf" stroke="black" points="0,-159.5 0,-180.5 82,-180.5 82,-159.5 0,-159.5"/>
<text text-anchor="middle" x="41" y="-167.5" font-family="Helvetica,sans-Serif" font-size="10.00">getSchematics</text>
</g>
<!-- Node2 -->
<g id="node3" class="node"><title>Node2</title>
<a xlink:href="../../d3/dd6/classproject_1_1_project_editor.html#a9f14b9293fefcadb6df3288b459fd470" target="_top" xlink:title="Open the schematic and/or the board editor window. ">
<polygon fill="white" stroke="black" points="129.5,-179 129.5,-213 256.5,-213 256.5,-179 129.5,-179"/>
<text text-anchor="start" x="137.5" y="-200" font-family="Helvetica,sans-Serif" font-size="10.00">project::ProjectEditor</text>
<text text-anchor="middle" x="193" y="-187" font-family="Helvetica,sans-Serif" font-size="10.00">::showAllRequiredEditors</text>
</a>
</g>
<!-- Node1&#45;&gt;Node2 -->
<g id="edge2" class="edge"><title>Node1&#45;&gt;Node2</title>
<path fill="none" stroke="midnightblue" d="M92.293,-178.774C104.156,-180.803 116.921,-182.986 129.245,-185.094"/>
<polygon fill="midnightblue" stroke="midnightblue" points="92.5804,-175.272 82.1334,-177.036 91.4001,-182.172 92.5804,-175.272"/>
</g>
<!-- Node11 -->
<g id="node21" class="node"><title>Node11</title>
<a xlink:href="../../da/dda/classproject_1_1_schematic_pages_dock.html#a6a112ab8a5e3ee445c66bd74590f4ef5" target="_top" xlink:title="project::SchematicPagesDock\l::SchematicPagesDock">
<polygon fill="white" stroke="black" points="118.5,-127 118.5,-161 267.5,-161 267.5,-127 118.5,-127"/>
<text text-anchor="start" x="126.5" y="-148" font-family="Helvetica,sans-Serif" font-size="10.00">project::SchematicPagesDock</text>
<text text-anchor="middle" x="193" y="-135" font-family="Helvetica,sans-Serif" font-size="10.00">::SchematicPagesDock</text>
</a>
</g>
<!-- Node1&#45;&gt;Node11 -->
<g id="edge20" class="edge"><title>Node1&#45;&gt;Node11</title>
<path fill="none" stroke="midnightblue" d="M92.1863,-161.244C100.642,-159.798 109.558,-158.273 118.447,-156.752"/>
<polygon fill="midnightblue" stroke="midnightblue" points="91.4001,-157.828 82.1334,-162.964 92.5804,-164.728 91.4001,-157.828"/>
</g>
<!-- Node3 -->
<g id="node5" class="node"><title>Node3</title>
<a xlink:href="../../d1/def/class_control_panel.html#aed7117cdf440630b400bb7226a9801e9" target="_top" xlink:title="Create a new project and open it with the editor. ">
<polygon fill="white" stroke="black" points="304.5,-234.5 304.5,-255.5 441.5,-255.5 441.5,-234.5 304.5,-234.5"/>
<text text-anchor="middle" x="373" y="-242.5" font-family="Helvetica,sans-Serif" font-size="10.00">ControlPanel::createProject</text>
</a>
</g>
<!-- Node2&#45;&gt;Node3 -->
<g id="edge4" class="edge"><title>Node2&#45;&gt;Node3</title>
<path fill="none" stroke="midnightblue" d="M265.101,-215.627C288.729,-222.059 314.072,-228.958 334.256,-234.453"/>
<polygon fill="midnightblue" stroke="midnightblue" points="266.018,-212.25 255.45,-213 264.18,-219.004 266.018,-212.25"/>
</g>
<!-- Node5 -->
<g id="node9" class="node"><title>Node5</title>
<a xlink:href="../../d1/def/class_control_panel.html#a00fbb51d24ad11e028629d3dcb376e94" target="_top" xlink:title="Open a project with the editor (or bring an already opened editor to front) ">
<polygon fill="white" stroke="black" points="307.5,-136.5 307.5,-157.5 438.5,-157.5 438.5,-136.5 307.5,-136.5"/>
<text text-anchor="middle" x="373" y="-144.5" font-family="Helvetica,sans-Serif" font-size="10.00">ControlPanel::openProject</text>
</a>
</g>
<!-- Node2&#45;&gt;Node5 -->
<g id="edge8" class="edge"><title>Node2&#45;&gt;Node5</title>
<path fill="none" stroke="midnightblue" d="M265.101,-176.373C288.729,-169.941 314.072,-163.042 334.256,-157.547"/>
<polygon fill="midnightblue" stroke="midnightblue" points="264.18,-172.996 255.45,-179 266.018,-179.75 264.18,-172.996"/>
</g>
<!-- Node4 -->
<g id="node7" class="node"><title>Node4</title>
<a xlink:href="../../d1/def/class_control_panel.html#a7a18efb5b56dcbff9f550db0c651e210" target="_top" xlink:title="ControlPanel::on_actionNew\l_Project_triggered">
<polygon fill="white" stroke="black" points="508.5,-260 508.5,-294 649.5,-294 649.5,-260 508.5,-260"/>
<text text-anchor="start" x="516.5" y="-281" font-family="Helvetica,sans-Serif" font-size="10.00">ControlPanel::on_actionNew</text>
<text text-anchor="middle" x="579" y="-268" font-family="Helvetica,sans-Serif" font-size="10.00">_Project_triggered</text>
</a>
</g>
<!-- Node3&#45;&gt;Node4 -->
<g id="edge6" class="edge"><title>Node3&#45;&gt;Node4</title>
<path fill="none" stroke="midnightblue" d="M450.802,-257.086C469.715,-260.024 489.836,-263.149 508.394,-266.032"/>
<polygon fill="midnightblue" stroke="midnightblue" points="451.156,-253.599 440.737,-255.522 450.082,-260.516 451.156,-253.599"/>
</g>
<!-- Node6 -->
<g id="node11" class="node"><title>Node6</title>
<a xlink:href="../../d1/def/class_control_panel.html#a27d94f62f2537a17c6e2852e00560a19" target="_top" xlink:title="ControlPanel::on_actionOpen\l_Project_triggered">
<polygon fill="white" stroke="black" points="507,-208 507,-242 651,-242 651,-208 507,-208"/>
<text text-anchor="start" x="515" y="-229" font-family="Helvetica,sans-Serif" font-size="10.00">ControlPanel::on_actionOpen</text>
<text text-anchor="middle" x="579" y="-216" font-family="Helvetica,sans-Serif" font-size="10.00">_Project_triggered</text>
</a>
</g>
<!-- Node5&#45;&gt;Node6 -->
<g id="edge10" class="edge"><title>Node5&#45;&gt;Node6</title>
<path fill="none" stroke="midnightblue" d="M400.339,-162.506C421.13,-173.809 450.717,-188.858 478,-199 487.25,-202.438 497.138,-205.591 506.975,-208.424"/>
<polygon fill="midnightblue" stroke="midnightblue" points="401.892,-159.366 391.444,-157.607 398.515,-165.497 401.892,-159.366"/>
</g>
<!-- Node7 -->
<g id="node13" class="node"><title>Node7</title>
<a xlink:href="../../d1/def/class_control_panel.html#aa9b5edbaaad9ac1ff6416a5656c36d5e" target="_top" xlink:title="ControlPanel::on_project\lTreeView_doubleClicked">
<polygon fill="white" stroke="black" points="516.5,-156 516.5,-190 641.5,-190 641.5,-156 516.5,-156"/>
<text text-anchor="start" x="524.5" y="-177" font-family="Helvetica,sans-Serif" font-size="10.00">ControlPanel::on_project</text>
<text text-anchor="middle" x="579" y="-164" font-family="Helvetica,sans-Serif" font-size="10.00">TreeView_doubleClicked</text>
</a>
</g>
<!-- Node5&#45;&gt;Node7 -->
<g id="edge12" class="edge"><title>Node5&#45;&gt;Node7</title>
<path fill="none" stroke="midnightblue" d="M448.806,-156.568C471.014,-159.371 495.039,-162.403 516.333,-165.091"/>
<polygon fill="midnightblue" stroke="midnightblue" points="449.106,-153.078 438.746,-155.298 448.229,-160.023 449.106,-153.078"/>
</g>
<!-- Node8 -->
<g id="node15" class="node"><title>Node8</title>
<a xlink:href="../../d1/def/class_control_panel.html#af48b18b1f3edf33ae8c178b192a0641c" target="_top" xlink:title="ControlPanel::on_project\lTreeView_customContextMenuRequested">
<polygon fill="white" stroke="black" points="478.5,-104 478.5,-138 679.5,-138 679.5,-104 478.5,-104"/>
<text text-anchor="start" x="486.5" y="-125" font-family="Helvetica,sans-Serif" font-size="10.00">ControlPanel::on_project</text>
<text text-anchor="middle" x="579" y="-112" font-family="Helvetica,sans-Serif" font-size="10.00">TreeView_customContextMenuRequested</text>
</a>
</g>
<!-- Node5&#45;&gt;Node8 -->
<g id="edge14" class="edge"><title>Node5&#45;&gt;Node8</title>
<path fill="none" stroke="midnightblue" d="M448.951,-137.414C458.492,-136.21 468.365,-134.964 478.212,-133.721"/>
<polygon fill="midnightblue" stroke="midnightblue" points="448.229,-133.977 438.746,-138.702 449.106,-140.922 448.229,-133.977"/>
</g>
<!-- Node9 -->
<g id="node17" class="node"><title>Node9</title>
<a xlink:href="../../d1/def/class_control_panel.html#a57d50dbdf1e82756a9e680c3f908c2a7" target="_top" xlink:title="ControlPanel::on_recentProjects\lListView_clicked">
<polygon fill="white" stroke="black" points="500,-52 500,-86 658,-86 658,-52 500,-52"/>
<text text-anchor="start" x="508" y="-73" font-family="Helvetica,sans-Serif" font-size="10.00">ControlPanel::on_recentProjects</text>
<text text-anchor="middle" x="579" y="-60" font-family="Helvetica,sans-Serif" font-size="10.00">ListView_clicked</text>
</a>
</g>
<!-- Node5&#45;&gt;Node9 -->
<g id="edge16" class="edge"><title>Node5&#45;&gt;Node9</title>
<path fill="none" stroke="midnightblue" d="M400.339,-131.494C421.13,-120.191 450.717,-105.142 478,-95 486.74,-91.751 496.052,-88.757 505.35,-86.0468"/>
<polygon fill="midnightblue" stroke="midnightblue" points="398.515,-128.503 391.444,-136.393 401.892,-134.634 398.515,-128.503"/>
</g>
<!-- Node10 -->
<g id="node19" class="node"><title>Node10</title>
<a xlink:href="../../d1/def/class_control_panel.html#a65af77641a3437339023cdcef2d2465e" target="_top" xlink:title="ControlPanel::on_favorite\lProjectsListView_clicked">
<polygon fill="white" stroke="black" points="515.5,-0 515.5,-34 642.5,-34 642.5,-0 515.5,-0"/>
<text text-anchor="start" x="523.5" y="-21" font-family="Helvetica,sans-Serif" font-size="10.00">ControlPanel::on_favorite</text>
<text text-anchor="middle" x="579" y="-8" font-family="Helvetica,sans-Serif" font-size="10.00">ProjectsListView_clicked</text>
</a>
</g>
<!-- Node5&#45;&gt;Node10 -->
<g id="edge18" class="edge"><title>Node5&#45;&gt;Node10</title>
<path fill="none" stroke="midnightblue" d="M386.81,-128.166C405.053,-104.662 439.418,-64.9006 478,-43 489.416,-36.5198 502.467,-31.6247 515.31,-27.9366"/>
<polygon fill="midnightblue" stroke="midnightblue" points="383.89,-126.224 380.633,-136.306 389.466,-130.456 383.89,-126.224"/>
</g>
</g>
</svg>
