<?xml version="1.0" encoding="UTF-8" standalone="no"?>
<!DOCTYPE svg PUBLIC "-//W3C//DTD SVG 1.1//EN"
 "http://www.w3.org/Graphics/SVG/1.1/DTD/svg11.dtd">
<!-- Generated by graphviz version 2.26.3 (20100126.1600)
 -->
<!-- Title: SGI_Symbol Pages: 1 -->
<svg width="148pt" height="508pt"
 viewBox="0.00 0.00 148.00 508.00" xmlns="http://www.w3.org/2000/svg" xmlns:xlink="http://www.w3.org/1999/xlink">
<g id="graph1" class="graph" transform="scale(1 1) rotate(0) translate(4 504)">
<title>SGI_Symbol</title>
<polygon fill="white" stroke="white" points="-4,5 -4,-504 145,-504 145,5 -4,5"/>
<!-- Node1 -->
<g id="node1" class="node"><title>Node1</title>
<polygon fill="#bfbfbf" stroke="black" points="0,-0.5 0,-245.5 140,-245.5 140,-0.5 0,-0.5"/>
<text text-anchor="middle" x="70" y="-232.5" font-family="Helvetica,sans-Serif" font-size="10.00">SGI_Symbol</text>
<polyline fill="none" stroke="black" points="0,-224.5 140,-224.5 "/>
<text text-anchor="start" x="8" y="-211.5" font-family="Helvetica,sans-Serif" font-size="10.00">&#45; mSymbol</text>
<text text-anchor="start" x="8" y="-198.5" font-family="Helvetica,sans-Serif" font-size="10.00">&#45; mLibSymbol</text>
<text text-anchor="start" x="8" y="-185.5" font-family="Helvetica,sans-Serif" font-size="10.00">&#45; mFont</text>
<text text-anchor="start" x="8" y="-172.5" font-family="Helvetica,sans-Serif" font-size="10.00">&#45; mBoundingRect</text>
<text text-anchor="start" x="8" y="-159.5" font-family="Helvetica,sans-Serif" font-size="10.00">&#45; mShape</text>
<text text-anchor="start" x="8" y="-146.5" font-family="Helvetica,sans-Serif" font-size="10.00">&#45; mCachedTextProperties</text>
<polyline fill="none" stroke="black" points="0,-138.5 140,-138.5 "/>
<text text-anchor="start" x="8" y="-125.5" font-family="Helvetica,sans-Serif" font-size="10.00">+ SGI_Symbol()</text>
<text text-anchor="start" x="8" y="-112.5" font-family="Helvetica,sans-Serif" font-size="10.00">+ ~SGI_Symbol()</text>
<text text-anchor="start" x="8" y="-99.5" font-family="Helvetica,sans-Serif" font-size="10.00">+ updateCacheAndRepaint()</text>
<text text-anchor="start" x="8" y="-86.5" font-family="Helvetica,sans-Serif" font-size="10.00">+ boundingRect()</text>
<text text-anchor="start" x="8" y="-73.5" font-family="Helvetica,sans-Serif" font-size="10.00">+ shape()</text>
<text text-anchor="start" x="8" y="-60.5" font-family="Helvetica,sans-Serif" font-size="10.00">+ paint()</text>
<text text-anchor="start" x="8" y="-47.5" font-family="Helvetica,sans-Serif" font-size="10.00">&#45; SGI_Symbol()</text>
<text text-anchor="start" x="8" y="-34.5" font-family="Helvetica,sans-Serif" font-size="10.00">&#45; SGI_Symbol()</text>
<text text-anchor="start" x="8" y="-21.5" font-family="Helvetica,sans-Serif" font-size="10.00">&#45; operator=()</text>
<text text-anchor="start" x="8" y="-8.5" font-family="Helvetica,sans-Serif" font-size="10.00">&#45; getSchematicLayer()</text>
</g>
<!-- Node2 -->
<g id="node2" class="node"><title>Node2</title>
<a xlink:href="../../d3/d4c/classproject_1_1_s_g_i___base.html" target="_top" xlink:title="The Schematic Graphics Item Base (SGI_Base) class. ">
<polygon fill="white" stroke="black" points="28.5,-283 28.5,-385 111.5,-385 111.5,-283 28.5,-283"/>
<text text-anchor="middle" x="70" y="-372" font-family="Helvetica,sans-Serif" font-size="10.00">SGI_Base</text>
<polyline fill="none" stroke="black" points="28.5,-364 111.5,-364 "/>
<text text-anchor="middle" x="70" y="-351" font-family="Helvetica,sans-Serif" font-size="10.00"> </text>
<polyline fill="none" stroke="black" points="28.5,-343 111.5,-343 "/>
<text text-anchor="start" x="36.5" y="-330" font-family="Helvetica,sans-Serif" font-size="10.00">+ SGI_Base()</text>
<text text-anchor="start" x="36.5" y="-317" font-family="Helvetica,sans-Serif" font-size="10.00">+ ~SGI_Base()</text>
<text text-anchor="start" x="36.5" y="-304" font-family="Helvetica,sans-Serif" font-size="10.00">&#45; SGI_Base()</text>
<text text-anchor="start" x="36.5" y="-291" font-family="Helvetica,sans-Serif" font-size="10.00">&#45; operator=()</text>
</a>
</g>
<!-- Node2&#45;&gt;Node1 -->
<g id="edge2" class="edge"><title>Node2&#45;&gt;Node1</title>
<path fill="none" stroke="midnightblue" d="M70,-272.705C70,-264.117 70,-255.053 70,-245.806"/>
<polygon fill="none" stroke="midnightblue" points="66.5001,-272.923 70,-282.923 73.5001,-272.923 66.5001,-272.923"/>
</g>
<!-- Node3 -->
<g id="node4" class="node"><title>Node3</title>
<a xlink:href="../../d9/d37/class_graphics_item.html" target="_top" xlink:title="The GraphicsItem class. ">
<polygon fill="white" stroke="black" points="22,-423 22,-499 118,-499 118,-423 22,-423"/>
<text text-anchor="middle" x="70" y="-486" font-family="Helvetica,sans-Serif" font-size="10.00">GraphicsItem</text>
<polyline fill="none" stroke="black" points="22,-478 118,-478 "/>
<text text-anchor="middle" x="70" y="-465" font-family="Helvetica,sans-Serif" font-size="10.00"> </text>
<polyline fill="none" stroke="black" points="22,-457 118,-457 "/>
<text text-anchor="start" x="30" y="-444" font-family="Helvetica,sans-Serif" font-size="10.00">+ GraphicsItem()</text>
<text text-anchor="start" x="30" y="-431" font-family="Helvetica,sans-Serif" font-size="10.00">+ ~GraphicsItem()</text>
</a>
</g>
<!-- Node3&#45;&gt;Node2 -->
<g id="edge4" class="edge"><title>Node3&#45;&gt;Node2</title>
<path fill="none" stroke="midnightblue" d="M70,-412.621C70,-403.662 70,-394.276 70,-385.235"/>
<polygon fill="none" stroke="midnightblue" points="66.5001,-412.896 70,-422.896 73.5001,-412.896 66.5001,-412.896"/>
</g>
</g>
</svg>
