<?xml version="1.0" encoding="UTF-8" standalone="no"?>
<!DOCTYPE svg PUBLIC "-//W3C//DTD SVG 1.1//EN"
 "http://www.w3.org/Graphics/SVG/1.1/DTD/svg11.dtd">
<!-- Generated by graphviz version 2.26.3 (20100126.1600)
 -->
<!-- Title: startMovingSelectedItems Pages: 1 -->
<svg width="308pt" height="82pt"
 viewBox="0.00 0.00 308.00 82.00" xmlns="http://www.w3.org/2000/svg" xmlns:xlink="http://www.w3.org/1999/xlink">
<g id="graph1" class="graph" transform="scale(1 1) rotate(0) translate(4 78)">
<title>startMovingSelectedItems</title>
<polygon fill="white" stroke="white" points="-4,5 -4,-78 305,-78 305,5 -4,5"/>
<!-- Node1 -->
<g id="node1" class="node"><title>Node1</title>
<polygon fill="#bfbfbf" stroke="black" points="0.5,-29.5 0.5,-50.5 131.5,-50.5 131.5,-29.5 0.5,-29.5"/>
<text text-anchor="middle" x="66" y="-37.5" font-family="Helvetica,sans-Serif" font-size="10.00">startMovingSelectedItems</text>
</g>
<!-- Node2 -->
<g id="node3" class="node"><title>Node2</title>
<a xlink:href="../../da/dc8/classproject_1_1_b_i___base.html#a67376e778d857201eb9d295eafa6aeb6" target="_top" xlink:title="project::BI_Base::getType">
<polygon fill="white" stroke="black" points="168.5,-52.5 168.5,-73.5 299.5,-73.5 299.5,-52.5 168.5,-52.5"/>
<text text-anchor="middle" x="234" y="-60.5" font-family="Helvetica,sans-Serif" font-size="10.00">project::BI_Base::getType</text>
</a>
</g>
<!-- Node1&#45;&gt;Node2 -->
<g id="edge2" class="edge"><title>Node1&#45;&gt;Node2</title>
<path fill="none" stroke="midnightblue" d="M131.916,-49.0242C140.505,-50.2001 149.359,-51.4123 158.096,-52.6083"/>
<polygon fill="midnightblue" stroke="midnightblue" points="157.892,-56.113 168.274,-54.0018 158.841,-49.1777 157.892,-56.113"/>
</g>
<!-- Node3 -->
<g id="node5" class="node"><title>Node3</title>
<a xlink:href="../../da/d96/classproject_1_1_b_i___footprint.html#ad600c6e3a11c0ef28f97f5665675e6a1" target="_top" xlink:title="project::BI_Footprint\l::getComponentInstance">
<polygon fill="white" stroke="black" points="172,-0 172,-34 296,-34 296,-0 172,-0"/>
<text text-anchor="start" x="180" y="-21" font-family="Helvetica,sans-Serif" font-size="10.00">project::BI_Footprint</text>
<text text-anchor="middle" x="234" y="-8" font-family="Helvetica,sans-Serif" font-size="10.00">::getComponentInstance</text>
</a>
</g>
<!-- Node1&#45;&gt;Node3 -->
<g id="edge4" class="edge"><title>Node1&#45;&gt;Node3</title>
<path fill="none" stroke="midnightblue" d="M131.916,-30.9758C141.672,-29.6401 151.77,-28.2576 161.649,-26.9052"/>
<polygon fill="midnightblue" stroke="midnightblue" points="162.408,-30.334 171.841,-25.5098 161.459,-23.3987 162.408,-30.334"/>
</g>
</g>
</svg>
