<?xml version="1.0" encoding="UTF-8" standalone="no"?>
<!DOCTYPE svg PUBLIC "-//W3C//DTD SVG 1.1//EN"
 "http://www.w3.org/Graphics/SVG/1.1/DTD/svg11.dtd">
<!-- Generated by graphviz version 2.26.3 (20100126.1600)
 -->
<!-- Title: /home/travis/build/LibrePCB/LibrePCB/libs/librepcbproject/circuit/cmd/cmdnetsignalremove.cpp Pages: 1 -->
<svg width="740pt" height="330pt"
 viewBox="0.00 0.00 740.41 330.00" xmlns="http://www.w3.org/2000/svg" xmlns:xlink="http://www.w3.org/1999/xlink">
<g id="graph1" class="graph" transform="scale(1 1) rotate(0) translate(4 326)">
<title>/home/travis/build/LibrePCB/LibrePCB/libs/librepcbproject/circuit/cmd/cmdnetsignalremove.cpp</title>
<polygon fill="white" stroke="white" points="-4,5 -4,-326 737.406,-326 737.406,5 -4,5"/>
<!-- Node1 -->
<g id="node1" class="node"><title>Node1</title>
<polygon fill="#bfbfbf" stroke="black" points="174.178,-261 174.178,-321 324.178,-321 324.178,-261 174.178,-261"/>
<text text-anchor="start" x="182.178" y="-308" font-family="Helvetica,sans-Serif" font-size="10.00">/home/travis/build</text>
<text text-anchor="start" x="182.178" y="-295" font-family="Helvetica,sans-Serif" font-size="10.00">/LibrePCB/LibrePCB/libs</text>
<text text-anchor="start" x="182.178" y="-282" font-family="Helvetica,sans-Serif" font-size="10.00">/librepcbproject/circuit</text>
<text text-anchor="middle" x="249.178" y="-269" font-family="Helvetica,sans-Serif" font-size="10.00">/cmd/cmdnetsignalremove.cpp</text>
</g>
<!-- Node2 -->
<g id="node3" class="node"><title>Node2</title>
<polygon fill="white" stroke="#bfbfbf" points="226.178,-0.5 226.178,-21.5 274.178,-21.5 274.178,-0.5 226.178,-0.5"/>
<text text-anchor="middle" x="250.178" y="-8.5" font-family="Helvetica,sans-Serif" font-size="10.00">QtCore</text>
</g>
<!-- Node1&#45;&gt;Node2 -->
<g id="edge2" class="edge"><title>Node1&#45;&gt;Node2</title>
<path fill="none" stroke="midnightblue" d="M174.132,-276.383C94.3032,-256.355 -17.8574,-212.999 3.17757,-130 12.1182,-94.7224 13.1684,-79.9753 42.1776,-58 69.2336,-37.5043 164.246,-22.2563 215.982,-15.2538"/>
<polygon fill="midnightblue" stroke="midnightblue" points="216.568,-18.7068 226.022,-13.9249 215.649,-11.7673 216.568,-18.7068"/>
</g>
<!-- Node3 -->
<g id="node5" class="node"><title>Node3</title>
<a xlink:href="../../d7/d3b/cmdnetsignalremove_8h.html" target="_top" xlink:title="cmdnetsignalremove.h">
<polygon fill="white" stroke="black" points="99.6776,-202.5 99.6776,-223.5 214.678,-223.5 214.678,-202.5 99.6776,-202.5"/>
<text text-anchor="middle" x="157.178" y="-210.5" font-family="Helvetica,sans-Serif" font-size="10.00">cmdnetsignalremove.h</text>
</a>
</g>
<!-- Node1&#45;&gt;Node3 -->
<g id="edge4" class="edge"><title>Node1&#45;&gt;Node3</title>
<path fill="none" stroke="midnightblue" d="M213.608,-260.843C201.479,-250.56 188.329,-239.411 177.776,-230.464"/>
<polygon fill="midnightblue" stroke="midnightblue" points="179.831,-227.617 169.94,-223.82 175.304,-232.956 179.831,-227.617"/>
</g>
<!-- Node6 -->
<g id="node15" class="node"><title>Node6</title>
<a xlink:href="../../d1/d08/netsignal_8h.html" target="_top" xlink:title="../netsignal.h">
<polygon fill="white" stroke="black" points="305.678,-202.5 305.678,-223.5 378.678,-223.5 378.678,-202.5 305.678,-202.5"/>
<text text-anchor="middle" x="342.178" y="-210.5" font-family="Helvetica,sans-Serif" font-size="10.00">../netsignal.h</text>
</a>
</g>
<!-- Node1&#45;&gt;Node6 -->
<g id="edge18" class="edge"><title>Node1&#45;&gt;Node6</title>
<path fill="none" stroke="midnightblue" d="M285.134,-260.843C297.395,-250.56 310.688,-239.411 321.355,-230.464"/>
<polygon fill="midnightblue" stroke="midnightblue" points="323.864,-232.928 329.277,-223.82 319.366,-227.564 323.864,-232.928"/>
</g>
<!-- Node9 -->
<g id="node24" class="node"><title>Node9</title>
<a xlink:href="../../d3/ddf/circuit_8h.html" target="_top" xlink:title="../circuit.h">
<polygon fill="white" stroke="black" points="588.178,-202.5 588.178,-223.5 648.178,-223.5 648.178,-202.5 588.178,-202.5"/>
<text text-anchor="middle" x="618.178" y="-210.5" font-family="Helvetica,sans-Serif" font-size="10.00">../circuit.h</text>
</a>
</g>
<!-- Node1&#45;&gt;Node9 -->
<g id="edge30" class="edge"><title>Node1&#45;&gt;Node9</title>
<path fill="none" stroke="midnightblue" d="M324.295,-275.122C400.987,-258.91 517.142,-234.357 577.906,-221.513"/>
<polygon fill="midnightblue" stroke="midnightblue" points="578.817,-224.897 587.877,-219.405 577.37,-218.049 578.817,-224.897"/>
</g>
<!-- Node3&#45;&gt;Node2 -->
<g id="edge6" class="edge"><title>Node3&#45;&gt;Node2</title>
<path fill="none" stroke="midnightblue" d="M103.848,-202.42C67.5527,-194.011 24.181,-181.166 13.1776,-166 3.78161,-153.049 4.77735,-143.618 13.1776,-130 57.9138,-57.4785 161.833,-27.62 215.982,-16.6417"/>
<polygon fill="midnightblue" stroke="midnightblue" points="216.646,-20.0782 225.803,-14.748 215.321,-13.2049 216.646,-20.0782"/>
</g>
<!-- Node4 -->
<g id="node8" class="node"><title>Node4</title>
<a xlink:href="../../dc/da0/undocommand_8h.html" target="_top" xlink:title="librepcbcommon/undocommand.h">
<polygon fill="white" stroke="black" points="21.6776,-137.5 21.6776,-158.5 184.678,-158.5 184.678,-137.5 21.6776,-137.5"/>
<text text-anchor="middle" x="103.178" y="-145.5" font-family="Helvetica,sans-Serif" font-size="10.00">librepcbcommon/undocommand.h</text>
</a>
</g>
<!-- Node3&#45;&gt;Node4 -->
<g id="edge8" class="edge"><title>Node3&#45;&gt;Node4</title>
<path fill="none" stroke="midnightblue" d="M148.261,-202.267C140.161,-192.517 128.044,-177.932 118.411,-166.336"/>
<polygon fill="midnightblue" stroke="midnightblue" points="121.011,-163.989 111.929,-158.534 115.627,-168.462 121.011,-163.989"/>
</g>
<!-- Node5 -->
<g id="node11" class="node"><title>Node5</title>
<a xlink:href="../../d4/d03/exceptions_8h.html" target="_top" xlink:title="exceptions.h">
<polygon fill="white" stroke="black" points="214.178,-65.5 214.178,-86.5 286.178,-86.5 286.178,-65.5 214.178,-65.5"/>
<text text-anchor="middle" x="250.178" y="-73.5" font-family="Helvetica,sans-Serif" font-size="10.00">exceptions.h</text>
</a>
</g>
<!-- Node3&#45;&gt;Node5 -->
<g id="edge16" class="edge"><title>Node3&#45;&gt;Node5</title>
<path fill="none" stroke="midnightblue" d="M165.749,-202.376C173.224,-192.98 184.239,-178.813 193.178,-166 209.758,-142.232 227.395,-113.843 238.584,-95.3941"/>
<polygon fill="midnightblue" stroke="midnightblue" points="241.642,-97.1007 243.808,-86.7295 235.647,-93.4865 241.642,-97.1007"/>
</g>
<!-- Node4&#45;&gt;Node2 -->
<g id="edge10" class="edge"><title>Node4&#45;&gt;Node2</title>
<path fill="none" stroke="midnightblue" d="M114.712,-137.25C139.938,-113.741 200.218,-57.5613 231.152,-28.7311"/>
<polygon fill="midnightblue" stroke="midnightblue" points="233.767,-31.0786 238.696,-21.7002 228.995,-25.9577 233.767,-31.0786"/>
</g>
<!-- Node4&#45;&gt;Node5 -->
<g id="edge12" class="edge"><title>Node4&#45;&gt;Node5</title>
<path fill="none" stroke="midnightblue" d="M124.868,-137.376C149.838,-125.146 191.04,-104.965 219.338,-91.105"/>
<polygon fill="midnightblue" stroke="midnightblue" points="220.957,-94.2094 228.398,-86.6674 217.878,-87.9229 220.957,-94.2094"/>
</g>
<!-- Node5&#45;&gt;Node2 -->
<g id="edge14" class="edge"><title>Node5&#45;&gt;Node2</title>
<path fill="none" stroke="midnightblue" d="M250.178,-65.2666C250.178,-56.1799 250.178,-42.8919 250.178,-31.7395"/>
<polygon fill="midnightblue" stroke="midnightblue" points="253.678,-31.5337 250.178,-21.5337 246.678,-31.5337 253.678,-31.5337"/>
</g>
<!-- Node6&#45;&gt;Node2 -->
<g id="edge20" class="edge"><title>Node6&#45;&gt;Node2</title>
<path fill="none" stroke="midnightblue" d="M379.067,-210.541C435.393,-205.932 538.691,-193.825 561.178,-166 571.234,-153.556 570.247,-143.181 561.178,-130 528.538,-82.564 358.385,-36.8972 284.49,-18.9687"/>
<polygon fill="midnightblue" stroke="midnightblue" points="284.855,-15.4568 274.314,-16.5278 283.222,-22.2638 284.855,-15.4568"/>
</g>
<!-- Node6&#45;&gt;Node5 -->
<g id="edge28" class="edge"><title>Node6&#45;&gt;Node5</title>
<path fill="none" stroke="midnightblue" d="M316.051,-202.483C300.103,-194.729 280.639,-182.631 269.178,-166 255.012,-145.445 251.062,-116.435 250.133,-96.96"/>
<polygon fill="midnightblue" stroke="midnightblue" points="253.626,-96.642 249.881,-86.7312 246.629,-96.8144 253.626,-96.642"/>
</g>
<!-- Node7 -->
<g id="node18" class="node"><title>Node7</title>
<a xlink:href="../../da/dfb/if__ercmsgprovider_8h.html" target="_top" xlink:title="../erc/if_ercmsgprovider.h">
<polygon fill="white" stroke="black" points="278.178,-137.5 278.178,-158.5 406.178,-158.5 406.178,-137.5 278.178,-137.5"/>
<text text-anchor="middle" x="342.178" y="-145.5" font-family="Helvetica,sans-Serif" font-size="10.00">../erc/if_ercmsgprovider.h</text>
</a>
</g>
<!-- Node6&#45;&gt;Node7 -->
<g id="edge22" class="edge"><title>Node6&#45;&gt;Node7</title>
<path fill="none" stroke="midnightblue" d="M342.178,-202.267C342.178,-193.18 342.178,-179.892 342.178,-168.74"/>
<polygon fill="midnightblue" stroke="midnightblue" points="345.678,-168.534 342.178,-158.534 338.678,-168.534 345.678,-168.534"/>
</g>
<!-- Node8 -->
<g id="node20" class="node"><title>Node8</title>
<a xlink:href="../../d0/d1d/if__xmlserializableobject_8h.html" target="_top" xlink:title="librepcbcommon/fileio\l/if_xmlserializableobject.h">
<polygon fill="white" stroke="black" points="423.678,-131 423.678,-165 552.678,-165 552.678,-131 423.678,-131"/>
<text text-anchor="start" x="431.678" y="-152" font-family="Helvetica,sans-Serif" font-size="10.00">librepcbcommon/fileio</text>
<text text-anchor="middle" x="488.178" y="-139" font-family="Helvetica,sans-Serif" font-size="10.00">/if_xmlserializableobject.h</text>
</a>
</g>
<!-- Node6&#45;&gt;Node8 -->
<g id="edge24" class="edge"><title>Node6&#45;&gt;Node8</title>
<path fill="none" stroke="midnightblue" d="M365.96,-202.412C386.093,-193.448 415.576,-180.323 440.54,-169.209"/>
<polygon fill="midnightblue" stroke="midnightblue" points="442.145,-172.325 449.857,-165.06 439.298,-165.93 442.145,-172.325"/>
</g>
<!-- Node8&#45;&gt;Node5 -->
<g id="edge26" class="edge"><title>Node8&#45;&gt;Node5</title>
<path fill="none" stroke="midnightblue" d="M431.775,-130.937C390.008,-118.302 333.858,-101.315 295.107,-89.592"/>
<polygon fill="midnightblue" stroke="midnightblue" points="295.743,-86.1278 285.157,-86.5821 293.716,-92.8279 295.743,-86.1278"/>
</g>
<!-- Node9&#45;&gt;Node2 -->
<g id="edge32" class="edge"><title>Node9&#45;&gt;Node2</title>
<path fill="none" stroke="midnightblue" d="M634.551,-202.443C673.32,-176.221 764.273,-106.725 720.178,-58 691.015,-25.7752 387.838,-14.6907 284.477,-11.8322"/>
<polygon fill="midnightblue" stroke="midnightblue" points="284.365,-8.32806 274.275,-11.5591 284.178,-15.3256 284.365,-8.32806"/>
</g>
<!-- Node9&#45;&gt;Node5 -->
<g id="edge36" class="edge"><title>Node9&#45;&gt;Node5</title>
<path fill="none" stroke="midnightblue" d="M614.104,-202.299C606.612,-184.191 588.837,-147.747 561.178,-130 518.063,-102.336 372.054,-86.2778 296.432,-79.6282"/>
<polygon fill="midnightblue" stroke="midnightblue" points="296.51,-76.1221 286.247,-78.7522 295.91,-83.0963 296.51,-76.1221"/>
</g>
<!-- Node9&#45;&gt;Node8 -->
<g id="edge34" class="edge"><title>Node9&#45;&gt;Node8</title>
<path fill="none" stroke="midnightblue" d="M597.001,-202.412C579.311,-193.567 553.515,-180.669 531.478,-169.65"/>
<polygon fill="midnightblue" stroke="midnightblue" points="532.808,-166.402 522.298,-165.06 529.677,-172.663 532.808,-166.402"/>
</g>
<!-- Node10 -->
<g id="node29" class="node"><title>Node10</title>
<a xlink:href="../../dd/dec/filepath_8h.html" target="_top" xlink:title="librepcbcommon/fileio\l/filepath.h">
<polygon fill="white" stroke="black" points="600.678,-59 600.678,-93 711.678,-93 711.678,-59 600.678,-59"/>
<text text-anchor="start" x="608.678" y="-80" font-family="Helvetica,sans-Serif" font-size="10.00">librepcbcommon/fileio</text>
<text text-anchor="middle" x="656.178" y="-67" font-family="Helvetica,sans-Serif" font-size="10.00">/filepath.h</text>
</a>
</g>
<!-- Node9&#45;&gt;Node10 -->
<g id="edge38" class="edge"><title>Node9&#45;&gt;Node10</title>
<path fill="none" stroke="midnightblue" d="M621.492,-202.199C624.386,-192.689 628.663,-178.455 632.178,-166 638.125,-144.924 644.496,-120.961 649.179,-103.064"/>
<polygon fill="midnightblue" stroke="midnightblue" points="652.59,-103.854 651.724,-93.2941 645.816,-102.088 652.59,-103.854"/>
</g>
<!-- Node10&#45;&gt;Node2 -->
<g id="edge40" class="edge"><title>Node10&#45;&gt;Node2</title>
<path fill="none" stroke="midnightblue" d="M600.571,-60.8993C596.054,-59.8543 591.548,-58.8718 587.178,-58 477.603,-36.1441 345.981,-20.9276 284.706,-14.4704"/>
<polygon fill="midnightblue" stroke="midnightblue" points="284.758,-10.9571 274.45,-13.4025 284.033,-17.9194 284.758,-10.9571"/>
</g>
</g>
</svg>
