<?xml version="1.0" encoding="UTF-8" standalone="no"?>
<!DOCTYPE svg PUBLIC "-//W3C//DTD SVG 1.1//EN"
 "http://www.w3.org/Graphics/SVG/1.1/DTD/svg11.dtd">
<!-- Generated by graphviz version 2.26.3 (20100126.1600)
 -->
<!-- Title: /home/travis/build/LibrePCB/LibrePCB/libs/librepcblibrary/3dmdl/model3d.h Pages: 1 -->
<svg width="710pt" height="266pt"
 viewBox="0.00 0.00 710.00 266.00" xmlns="http://www.w3.org/2000/svg" xmlns:xlink="http://www.w3.org/1999/xlink">
<g id="graph1" class="graph" transform="scale(1 1) rotate(0) translate(4 262)">
<title>/home/travis/build/LibrePCB/LibrePCB/libs/librepcblibrary/3dmdl/model3d.h</title>
<polygon fill="white" stroke="white" points="-4,5 -4,-262 707,-262 707,5 -4,5"/>
<!-- Node1 -->
<g id="node1" class="node"><title>Node1</title>
<polygon fill="#bfbfbf" stroke="black" points="291.5,-197 291.5,-257 416.5,-257 416.5,-197 291.5,-197"/>
<text text-anchor="start" x="299.5" y="-244" font-family="Helvetica,sans-Serif" font-size="10.00">/home/travis/build</text>
<text text-anchor="start" x="299.5" y="-231" font-family="Helvetica,sans-Serif" font-size="10.00">/LibrePCB/LibrePCB/libs</text>
<text text-anchor="start" x="299.5" y="-218" font-family="Helvetica,sans-Serif" font-size="10.00">/librepcblibrary/3dmdl</text>
<text text-anchor="middle" x="354" y="-205" font-family="Helvetica,sans-Serif" font-size="10.00">/model3d.h</text>
</g>
<!-- Node2 -->
<g id="node3" class="node"><title>Node2</title>
<a xlink:href="../../d9/d75/model3d_8cpp.html" target="_top" xlink:title="/home/travis/build\l/LibrePCB/LibrePCB/libs\l/librepcblibrary/3dmdl\l/model3d.cpp">
<polygon fill="white" stroke="black" points="-0.5,-99 -0.5,-159 124.5,-159 124.5,-99 -0.5,-99"/>
<text text-anchor="start" x="7.5" y="-146" font-family="Helvetica,sans-Serif" font-size="10.00">/home/travis/build</text>
<text text-anchor="start" x="7.5" y="-133" font-family="Helvetica,sans-Serif" font-size="10.00">/LibrePCB/LibrePCB/libs</text>
<text text-anchor="start" x="7.5" y="-120" font-family="Helvetica,sans-Serif" font-size="10.00">/librepcblibrary/3dmdl</text>
<text text-anchor="middle" x="62" y="-107" font-family="Helvetica,sans-Serif" font-size="10.00">/model3d.cpp</text>
</a>
</g>
<!-- Node1&#45;&gt;Node2 -->
<g id="edge2" class="edge"><title>Node1&#45;&gt;Node2</title>
<path fill="none" stroke="midnightblue" d="M281.789,-207.425C238.267,-195.056 181.965,-178.041 133,-160 130.223,-158.977 127.4,-157.901 124.558,-156.788"/>
<polygon fill="midnightblue" stroke="midnightblue" points="280.861,-210.8 291.435,-210.15 282.764,-204.064 280.861,-210.8"/>
</g>
<!-- Node3 -->
<g id="node5" class="node"><title>Node3</title>
<a xlink:href="../../de/d98/elements_8h.html" target="_top" xlink:title="/home/travis/build\l/LibrePCB/LibrePCB/libs\l/librepcblibrary/elements.h">
<polygon fill="white" stroke="black" points="141.5,-105.5 141.5,-152.5 272.5,-152.5 272.5,-105.5 141.5,-105.5"/>
<text text-anchor="start" x="149.5" y="-139.5" font-family="Helvetica,sans-Serif" font-size="10.00">/home/travis/build</text>
<text text-anchor="start" x="149.5" y="-126.5" font-family="Helvetica,sans-Serif" font-size="10.00">/LibrePCB/LibrePCB/libs</text>
<text text-anchor="middle" x="207" y="-113.5" font-family="Helvetica,sans-Serif" font-size="10.00">/librepcblibrary/elements.h</text>
</a>
</g>
<!-- Node1&#45;&gt;Node3 -->
<g id="edge4" class="edge"><title>Node1&#45;&gt;Node3</title>
<path fill="none" stroke="midnightblue" d="M300.309,-191.206C281.085,-178.39 259.907,-164.271 242.593,-152.729"/>
<polygon fill="midnightblue" stroke="midnightblue" points="298.434,-194.162 308.696,-196.797 302.317,-188.338 298.434,-194.162"/>
</g>
<!-- Node5 -->
<g id="node9" class="node"><title>Node5</title>
<a xlink:href="../../d7/d7d/library_8cpp.html" target="_top" xlink:title="/home/travis/build\l/LibrePCB/LibrePCB/libs\l/librepcblibrary/library.cpp">
<polygon fill="white" stroke="black" points="290,-105.5 290,-152.5 418,-152.5 418,-105.5 290,-105.5"/>
<text text-anchor="start" x="298" y="-139.5" font-family="Helvetica,sans-Serif" font-size="10.00">/home/travis/build</text>
<text text-anchor="start" x="298" y="-126.5" font-family="Helvetica,sans-Serif" font-size="10.00">/LibrePCB/LibrePCB/libs</text>
<text text-anchor="middle" x="354" y="-113.5" font-family="Helvetica,sans-Serif" font-size="10.00">/librepcblibrary/library.cpp</text>
</a>
</g>
<!-- Node1&#45;&gt;Node5 -->
<g id="edge8" class="edge"><title>Node1&#45;&gt;Node5</title>
<path fill="none" stroke="midnightblue" d="M354,-186.5C354,-175.009 354,-162.874 354,-152.729"/>
<polygon fill="midnightblue" stroke="midnightblue" points="350.5,-186.797 354,-196.797 357.5,-186.797 350.5,-186.797"/>
</g>
<!-- Node6 -->
<g id="node11" class="node"><title>Node6</title>
<a xlink:href="../../d8/d5c/moc__model3d_8cpp.html" target="_top" xlink:title="/home/travis/build\l/LibrePCB/LibrePCB/libs\l/librepcblibrary/moc/moc\l_model3d.cpp">
<polygon fill="white" stroke="black" points="435.5,-99 435.5,-159 560.5,-159 560.5,-99 435.5,-99"/>
<text text-anchor="start" x="443.5" y="-146" font-family="Helvetica,sans-Serif" font-size="10.00">/home/travis/build</text>
<text text-anchor="start" x="443.5" y="-133" font-family="Helvetica,sans-Serif" font-size="10.00">/LibrePCB/LibrePCB/libs</text>
<text text-anchor="start" x="443.5" y="-120" font-family="Helvetica,sans-Serif" font-size="10.00">/librepcblibrary/moc/moc</text>
<text text-anchor="middle" x="498" y="-107" font-family="Helvetica,sans-Serif" font-size="10.00">_model3d.cpp</text>
</a>
</g>
<!-- Node1&#45;&gt;Node6 -->
<g id="edge10" class="edge"><title>Node1&#45;&gt;Node6</title>
<path fill="none" stroke="midnightblue" d="M406.761,-191.093C422.115,-180.644 438.729,-169.337 453.519,-159.272"/>
<polygon fill="midnightblue" stroke="midnightblue" points="404.678,-188.277 398.38,-196.797 408.616,-194.064 404.678,-188.277"/>
</g>
<!-- Node7 -->
<g id="node13" class="node"><title>Node7</title>
<a xlink:href="../../d4/d20/projectlibrary_8cpp.html" target="_top" xlink:title="/home/travis/build\l/LibrePCB/LibrePCB/libs\l/librepcbproject/library\l/projectlibrary.cpp">
<polygon fill="white" stroke="black" points="577.5,-99 577.5,-159 702.5,-159 702.5,-99 577.5,-99"/>
<text text-anchor="start" x="585.5" y="-146" font-family="Helvetica,sans-Serif" font-size="10.00">/home/travis/build</text>
<text text-anchor="start" x="585.5" y="-133" font-family="Helvetica,sans-Serif" font-size="10.00">/LibrePCB/LibrePCB/libs</text>
<text text-anchor="start" x="585.5" y="-120" font-family="Helvetica,sans-Serif" font-size="10.00">/librepcbproject/library</text>
<text text-anchor="middle" x="640" y="-107" font-family="Helvetica,sans-Serif" font-size="10.00">/projectlibrary.cpp</text>
</a>
</g>
<!-- Node1&#45;&gt;Node7 -->
<g id="edge12" class="edge"><title>Node1&#45;&gt;Node7</title>
<path fill="none" stroke="midnightblue" d="M426.305,-206.62C468.336,-194.24 522.099,-177.487 569,-160 571.773,-158.966 574.593,-157.881 577.432,-156.761"/>
<polygon fill="midnightblue" stroke="midnightblue" points="425.318,-203.262 416.705,-209.432 427.286,-209.98 425.318,-203.262"/>
</g>
<!-- Node4 -->
<g id="node7" class="node"><title>Node4</title>
<a xlink:href="../../da/d6c/cmdprojectlibraryaddelement_8cpp.html" target="_top" xlink:title="/home/travis/build\l/LibrePCB/LibrePCB/libs\l/librepcbproject/library\l/cmd/cmdprojectlibraryaddelement.cpp">
<polygon fill="white" stroke="black" points="114.5,-1 114.5,-61 299.5,-61 299.5,-1 114.5,-1"/>
<text text-anchor="start" x="122.5" y="-48" font-family="Helvetica,sans-Serif" font-size="10.00">/home/travis/build</text>
<text text-anchor="start" x="122.5" y="-35" font-family="Helvetica,sans-Serif" font-size="10.00">/LibrePCB/LibrePCB/libs</text>
<text text-anchor="start" x="122.5" y="-22" font-family="Helvetica,sans-Serif" font-size="10.00">/librepcbproject/library</text>
<text text-anchor="middle" x="207" y="-9" font-family="Helvetica,sans-Serif" font-size="10.00">/cmd/cmdprojectlibraryaddelement.cpp</text>
</a>
</g>
<!-- Node3&#45;&gt;Node4 -->
<g id="edge6" class="edge"><title>Node3&#45;&gt;Node4</title>
<path fill="none" stroke="midnightblue" d="M207,-95.1315C207,-84.1 207,-71.934 207,-61.1903"/>
<polygon fill="midnightblue" stroke="midnightblue" points="203.5,-95.2769 207,-105.277 210.5,-95.277 203.5,-95.2769"/>
</g>
</g>
</svg>
