<?xml version="1.0" encoding="UTF-8" standalone="no"?>
<!DOCTYPE svg PUBLIC "-//W3C//DTD SVG 1.1//EN"
 "http://www.w3.org/Graphics/SVG/1.1/DTD/svg11.dtd">
<!-- Generated by graphviz version 2.26.3 (20100126.1600)
 -->
<!-- Title: ~UnplacedComponentsDock Pages: 1 -->
<svg width="976pt" height="870pt"
 viewBox="0.00 0.00 976.00 870.00" xmlns="http://www.w3.org/2000/svg" xmlns:xlink="http://www.w3.org/1999/xlink">
<g id="graph1" class="graph" transform="scale(1 1) rotate(0) translate(4 866)">
<title>~UnplacedComponentsDock</title>
<polygon fill="white" stroke="white" points="-4,5 -4,-866 973,-866 973,5 -4,5"/>
<!-- Node1 -->
<g id="node1" class="node"><title>Node1</title>
<polygon fill="#bfbfbf" stroke="black" points="0.5,-80.5 0.5,-101.5 143.5,-101.5 143.5,-80.5 0.5,-80.5"/>
<text text-anchor="middle" x="72" y="-88.5" font-family="Helvetica,sans-Serif" font-size="10.00">~UnplacedComponentsDock</text>
</g>
<!-- Node2 -->
<g id="node3" class="node"><title>Node2</title>
<a xlink:href="../../dc/dbb/classproject_1_1_unplaced_components_dock.html#a5c8f1dac9d4bbb3d9985ca4d9d3c99bb" target="_top" xlink:title="setBoard">
<polygon fill="white" stroke="black" points="180,-80.5 180,-101.5 236,-101.5 236,-80.5 180,-80.5"/>
<text text-anchor="middle" x="208" y="-88.5" font-family="Helvetica,sans-Serif" font-size="10.00">setBoard</text>
</a>
</g>
<!-- Node1&#45;&gt;Node2 -->
<g id="edge2" class="edge"><title>Node1&#45;&gt;Node2</title>
<path fill="none" stroke="midnightblue" d="M143.584,-91C152.673,-91 161.677,-91 169.942,-91"/>
<polygon fill="midnightblue" stroke="midnightblue" points="169.969,-94.5001 179.969,-91 169.969,-87.5001 169.969,-94.5001"/>
</g>
<!-- Node3 -->
<g id="node5" class="node"><title>Node3</title>
<a xlink:href="../../dc/dbb/classproject_1_1_unplaced_components_dock.html#ad000d7056be9060e68ab7f2548d12946" target="_top" xlink:title="updateComponentsList">
<polygon fill="white" stroke="black" points="293.5,-478.5 293.5,-499.5 410.5,-499.5 410.5,-478.5 293.5,-478.5"/>
<text text-anchor="middle" x="352" y="-486.5" font-family="Helvetica,sans-Serif" font-size="10.00">updateComponentsList</text>
</a>
</g>
<!-- Node2&#45;&gt;Node3 -->
<g id="edge4" class="edge"><title>Node2&#45;&gt;Node3</title>
<path fill="none" stroke="midnightblue" d="M211.852,-101.646C231.251,-155.264 318.359,-396.02 344.537,-468.372"/>
<polygon fill="midnightblue" stroke="midnightblue" points="341.375,-469.922 348.069,-478.135 347.958,-467.541 341.375,-469.922"/>
</g>
<!-- Node22 -->
<g id="node45" class="node"><title>Node22</title>
<a xlink:href="../../d0/d69/class_point.html#adb9043980e8c2b8b1f2289cd48a3e168" target="_top" xlink:title="Point::fromMm">
<polygon fill="white" stroke="black" points="311.5,-120.5 311.5,-141.5 392.5,-141.5 392.5,-120.5 311.5,-120.5"/>
<text text-anchor="middle" x="352" y="-128.5" font-family="Helvetica,sans-Serif" font-size="10.00">Point::fromMm</text>
</a>
</g>
<!-- Node2&#45;&gt;Node22 -->
<g id="edge46" class="edge"><title>Node2&#45;&gt;Node22</title>
<path fill="none" stroke="midnightblue" d="M236.25,-100.215C247.352,-103.735 260.233,-107.693 272,-111 281.411,-113.644 291.493,-116.301 301.218,-118.775"/>
<polygon fill="midnightblue" stroke="midnightblue" points="300.63,-122.236 311.182,-121.279 302.336,-115.447 300.63,-122.236"/>
</g>
<!-- Node26 -->
<g id="node54" class="node"><title>Node26</title>
<a xlink:href="../../d0/d69/class_point.html#a446f375ce96e6aa9e86286903b0c870c" target="_top" xlink:title="Get a Point object which is mapped to a specific grid interval. ">
<polygon fill="white" stroke="black" points="297.5,-80.5 297.5,-101.5 406.5,-101.5 406.5,-80.5 297.5,-80.5"/>
<text text-anchor="middle" x="352" y="-88.5" font-family="Helvetica,sans-Serif" font-size="10.00">Point::mappedToGrid</text>
</a>
</g>
<!-- Node2&#45;&gt;Node26 -->
<g id="edge56" class="edge"><title>Node2&#45;&gt;Node26</title>
<path fill="none" stroke="midnightblue" d="M236.106,-91C250.748,-91 269.306,-91 287.256,-91"/>
<polygon fill="midnightblue" stroke="midnightblue" points="287.427,-94.5001 297.427,-91 287.427,-87.5001 287.427,-94.5001"/>
</g>
<!-- Node27 -->
<g id="node57" class="node"><title>Node27</title>
<a xlink:href="../../d5/d07/classproject_1_1_board.html#a8fdde458ce65c4d4a40545c222303ae9" target="_top" xlink:title="project::Board::getGridProperties">
<polygon fill="white" stroke="black" points="272.5,-40.5 272.5,-61.5 431.5,-61.5 431.5,-40.5 272.5,-40.5"/>
<text text-anchor="middle" x="352" y="-48.5" font-family="Helvetica,sans-Serif" font-size="10.00">project::Board::getGridProperties</text>
</a>
</g>
<!-- Node2&#45;&gt;Node27 -->
<g id="edge60" class="edge"><title>Node2&#45;&gt;Node27</title>
<path fill="none" stroke="midnightblue" d="M236.25,-81.7849C247.352,-78.2653 260.233,-74.3066 272,-71 280.412,-68.6364 289.359,-66.263 298.11,-64.0189"/>
<polygon fill="midnightblue" stroke="midnightblue" points="299.032,-67.396 307.866,-61.5475 297.313,-60.6103 299.032,-67.396"/>
</g>
<!-- Node28 -->
<g id="node59" class="node"><title>Node28</title>
<a xlink:href="../../d8/dbf/class_grid_properties.html#a4cc9437a41e81f8f0f873ce9fbd67900" target="_top" xlink:title="GridProperties::getInterval">
<polygon fill="white" stroke="black" points="286.5,-0.5 286.5,-21.5 417.5,-21.5 417.5,-0.5 286.5,-0.5"/>
<text text-anchor="middle" x="352" y="-8.5" font-family="Helvetica,sans-Serif" font-size="10.00">GridProperties::getInterval</text>
</a>
</g>
<!-- Node2&#45;&gt;Node28 -->
<g id="edge62" class="edge"><title>Node2&#45;&gt;Node28</title>
<path fill="none" stroke="midnightblue" d="M216.331,-80.3796C227.527,-66.8438 248.731,-43.6834 272,-31 276.18,-28.7218 280.623,-26.6979 285.191,-24.9009"/>
<polygon fill="midnightblue" stroke="midnightblue" points="286.448,-28.1686 294.699,-21.5218 284.104,-21.5728 286.448,-28.1686"/>
</g>
<!-- Node4 -->
<g id="node7" class="node"><title>Node4</title>
<a xlink:href="../../dc/dbb/classproject_1_1_unplaced_components_dock.html#a8b27105b4d0e8500f6c177ab8bde0b65" target="_top" xlink:title="setSelectedGenCompInstance">
<polygon fill="white" stroke="black" points="468,-833.5 468,-854.5 618,-854.5 618,-833.5 468,-833.5"/>
<text text-anchor="middle" x="543" y="-841.5" font-family="Helvetica,sans-Serif" font-size="10.00">setSelectedGenCompInstance</text>
</a>
</g>
<!-- Node3&#45;&gt;Node4 -->
<g id="edge6" class="edge"><title>Node3&#45;&gt;Node4</title>
<path fill="none" stroke="midnightblue" d="M352.491,-499.606C355.165,-544.915 371.681,-724.236 468,-819 471.975,-822.911 476.577,-826.209 481.507,-828.992"/>
<polygon fill="midnightblue" stroke="midnightblue" points="480.148,-832.224 490.67,-833.465 483.219,-825.934 480.148,-832.224"/>
</g>
<!-- Node6 -->
<g id="node11" class="node"><title>Node6</title>
<a xlink:href="../../dd/d8a/classlibrary_1_1_library_base_element.html#a01f0309d43de518f4e94c724d22f4502" target="_top" xlink:title="library::LibraryBaseElement\l::getName">
<polygon fill="white" stroke="black" points="655.5,-788 655.5,-822 792.5,-822 792.5,-788 655.5,-788"/>
<text text-anchor="start" x="663.5" y="-809" font-family="Helvetica,sans-Serif" font-size="10.00">library::LibraryBaseElement</text>
<text text-anchor="middle" x="724" y="-796" font-family="Helvetica,sans-Serif" font-size="10.00">::getName</text>
</a>
</g>
<!-- Node3&#45;&gt;Node6 -->
<g id="edge40" class="edge"><title>Node3&#45;&gt;Node6</title>
<path fill="none" stroke="midnightblue" d="M352.379,-499.759C354.578,-544.02 369.38,-713.144 468,-786 518.365,-823.207 590.561,-825.296 645.452,-819.607"/>
<polygon fill="midnightblue" stroke="midnightblue" points="645.952,-823.073 655.49,-818.461 645.158,-816.118 645.952,-823.073"/>
</g>
<!-- Node8 -->
<g id="node15" class="node"><title>Node8</title>
<a xlink:href="../../d2/d05/classproject_1_1_project.html#a8fac03aa9a740943b9193a49a31bd6ae" target="_top" xlink:title="Get the Circuit object. ">
<polygon fill="white" stroke="black" points="477.5,-755.5 477.5,-776.5 608.5,-776.5 608.5,-755.5 477.5,-755.5"/>
<text text-anchor="middle" x="543" y="-763.5" font-family="Helvetica,sans-Serif" font-size="10.00">project::Project::getCircuit</text>
</a>
</g>
<!-- Node3&#45;&gt;Node8 -->
<g id="edge14" class="edge"><title>Node3&#45;&gt;Node8</title>
<path fill="none" stroke="midnightblue" d="M353.531,-499.743C359.726,-539.135 386.634,-676.949 468,-746 469.978,-747.679 472.082,-749.218 474.283,-750.629"/>
<polygon fill="midnightblue" stroke="midnightblue" points="472.728,-753.767 483.186,-755.463 476.068,-747.615 472.728,-753.767"/>
</g>
<!-- Node9 -->
<g id="node17" class="node"><title>Node9</title>
<a xlink:href="../../d1/d03/classproject_1_1_circuit.html#af9d9d6ca29e9ad4c4591eeae0197ff08" target="_top" xlink:title="project::Circuit::getGen\lCompInstances">
<polygon fill="white" stroke="black" points="484,-703 484,-737 602,-737 602,-703 484,-703"/>
<text text-anchor="start" x="492" y="-724" font-family="Helvetica,sans-Serif" font-size="10.00">project::Circuit::getGen</text>
<text text-anchor="middle" x="543" y="-711" font-family="Helvetica,sans-Serif" font-size="10.00">CompInstances</text>
</a>
</g>
<!-- Node3&#45;&gt;Node9 -->
<g id="edge16" class="edge"><title>Node3&#45;&gt;Node9</title>
<path fill="none" stroke="midnightblue" d="M355.055,-499.688C365.218,-533.35 401.089,-638.236 468,-694 470.233,-695.861 472.607,-697.592 475.084,-699.202"/>
<polygon fill="midnightblue" stroke="midnightblue" points="473.429,-702.287 483.846,-704.219 476.908,-696.212 473.429,-702.287"/>
</g>
<!-- Node10 -->
<g id="node19" class="node"><title>Node10</title>
<a xlink:href="../../d5/d07/classproject_1_1_board.html#a392a41a5ac250cc2a623dbb2df12dfac" target="_top" xlink:title="project::Board::getComponent\lInstances">
<polygon fill="white" stroke="black" points="469.5,-651 469.5,-685 616.5,-685 616.5,-651 469.5,-651"/>
<text text-anchor="start" x="477.5" y="-672" font-family="Helvetica,sans-Serif" font-size="10.00">project::Board::getComponent</text>
<text text-anchor="middle" x="543" y="-659" font-family="Helvetica,sans-Serif" font-size="10.00">Instances</text>
</a>
</g>
<!-- Node3&#45;&gt;Node10 -->
<g id="edge18" class="edge"><title>Node3&#45;&gt;Node10</title>
<path fill="none" stroke="midnightblue" d="M357.187,-499.613C371.18,-527.172 412.43,-601.662 468,-642 470.049,-643.488 472.191,-644.896 474.401,-646.228"/>
<polygon fill="midnightblue" stroke="midnightblue" points="472.753,-649.316 483.213,-650.998 476.085,-643.16 472.753,-649.316"/>
</g>
<!-- Node11 -->
<g id="node21" class="node"><title>Node11</title>
<a xlink:href="../../de/d67/classproject_1_1_gen_comp_instance.html#ada9b237a8629c03e16491a72730b456b" target="_top" xlink:title="project::GenCompInstance\l::getUuid">
<polygon fill="white" stroke="black" points="476,-599 476,-633 610,-633 610,-599 476,-599"/>
<text text-anchor="start" x="484" y="-620" font-family="Helvetica,sans-Serif" font-size="10.00">project::GenCompInstance</text>
<text text-anchor="middle" x="543" y="-607" font-family="Helvetica,sans-Serif" font-size="10.00">::getUuid</text>
</a>
</g>
<!-- Node3&#45;&gt;Node11 -->
<g id="edge20" class="edge"><title>Node3&#45;&gt;Node11</title>
<path fill="none" stroke="midnightblue" d="M361.516,-499.646C380.12,-519.88 423.405,-564.167 468,-590 470.862,-591.658 473.846,-593.233 476.905,-594.727"/>
<polygon fill="midnightblue" stroke="midnightblue" points="475.704,-598.026 486.257,-598.966 478.594,-591.65 475.704,-598.026"/>
</g>
<!-- Node12 -->
<g id="node23" class="node"><title>Node12</title>
<a xlink:href="../../de/d67/classproject_1_1_gen_comp_instance.html#abcd40fa7fd6f8d3d8e6f9630daa8b861" target="_top" xlink:title="project::GenCompInstance\l::getGenComp">
<polygon fill="white" stroke="black" points="476,-547 476,-581 610,-581 610,-547 476,-547"/>
<text text-anchor="start" x="484" y="-568" font-family="Helvetica,sans-Serif" font-size="10.00">project::GenCompInstance</text>
<text text-anchor="middle" x="543" y="-555" font-family="Helvetica,sans-Serif" font-size="10.00">::getGenComp</text>
</a>
</g>
<!-- Node3&#45;&gt;Node12 -->
<g id="edge22" class="edge"><title>Node3&#45;&gt;Node12</title>
<path fill="none" stroke="midnightblue" d="M375.806,-499.6C399.125,-509.853 435.755,-525.616 468,-538 472.782,-539.837 477.757,-541.688 482.767,-543.511"/>
<polygon fill="midnightblue" stroke="midnightblue" points="481.811,-546.887 492.406,-546.971 484.176,-540.298 481.811,-546.887"/>
</g>
<!-- Node13 -->
<g id="node25" class="node"><title>Node13</title>
<a xlink:href="../../d7/d7c/classlibrary_1_1_generic_component.html#a9f78a2a936ffbbb66f8865343e93aed7" target="_top" xlink:title="library::GenericComponent\l::isSchematicOnly">
<polygon fill="white" stroke="black" points="476.5,-495 476.5,-529 609.5,-529 609.5,-495 476.5,-495"/>
<text text-anchor="start" x="484.5" y="-516" font-family="Helvetica,sans-Serif" font-size="10.00">library::GenericComponent</text>
<text text-anchor="middle" x="543" y="-503" font-family="Helvetica,sans-Serif" font-size="10.00">::isSchematicOnly</text>
</a>
</g>
<!-- Node3&#45;&gt;Node13 -->
<g id="edge24" class="edge"><title>Node3&#45;&gt;Node13</title>
<path fill="none" stroke="midnightblue" d="M410.604,-496.057C428.265,-498.184 447.916,-500.55 466.557,-502.795"/>
<polygon fill="midnightblue" stroke="midnightblue" points="466.145,-506.27 476.492,-503.991 466.982,-499.321 466.145,-506.27"/>
</g>
<!-- Node14 -->
<g id="node27" class="node"><title>Node14</title>
<a xlink:href="../../d2/d05/classproject_1_1_project.html#a1ce83ab861173e235c7a651243d02937" target="_top" xlink:title="Get the ProjectLibrary object which contains all library elements used in this project. ">
<polygon fill="white" stroke="black" points="477.5,-455.5 477.5,-476.5 608.5,-476.5 608.5,-455.5 477.5,-455.5"/>
<text text-anchor="middle" x="543" y="-463.5" font-family="Helvetica,sans-Serif" font-size="10.00">project::Project::getLibrary</text>
</a>
</g>
<!-- Node3&#45;&gt;Node14 -->
<g id="edge26" class="edge"><title>Node3&#45;&gt;Node14</title>
<path fill="none" stroke="midnightblue" d="M410.604,-481.943C428.451,-479.794 448.33,-477.4 467.145,-475.134"/>
<polygon fill="midnightblue" stroke="midnightblue" points="467.659,-478.598 477.168,-473.927 466.822,-471.648 467.659,-478.598"/>
</g>
<!-- Node15 -->
<g id="node29" class="node"><title>Node15</title>
<a xlink:href="../../d9/d30/classproject_1_1_project_library.html#acc16ec02378a1c17f0b883ff8002e402" target="_top" xlink:title="project::ProjectLibrary\l::getComponentsOfGenComp">
<polygon fill="white" stroke="black" points="470,-403 470,-437 616,-437 616,-403 470,-403"/>
<text text-anchor="start" x="478" y="-424" font-family="Helvetica,sans-Serif" font-size="10.00">project::ProjectLibrary</text>
<text text-anchor="middle" x="543" y="-411" font-family="Helvetica,sans-Serif" font-size="10.00">::getComponentsOfGenComp</text>
</a>
</g>
<!-- Node3&#45;&gt;Node15 -->
<g id="edge28" class="edge"><title>Node3&#45;&gt;Node15</title>
<path fill="none" stroke="midnightblue" d="M380.067,-478.405C403.522,-469.598 437.876,-456.803 468,-446 473.108,-444.168 478.419,-442.285 483.749,-440.409"/>
<polygon fill="midnightblue" stroke="midnightblue" points="485.046,-443.663 493.326,-437.054 482.731,-437.057 485.046,-443.663"/>
</g>
<!-- Node17 -->
<g id="node33" class="node"><title>Node17</title>
<a xlink:href="../../dd/d8a/classlibrary_1_1_library_base_element.html#ada9b237a8629c03e16491a72730b456b" target="_top" xlink:title="library::LibraryBaseElement\l::getUuid">
<polygon fill="white" stroke="black" points="655.5,-358 655.5,-392 792.5,-392 792.5,-358 655.5,-358"/>
<text text-anchor="start" x="663.5" y="-379" font-family="Helvetica,sans-Serif" font-size="10.00">library::LibraryBaseElement</text>
<text text-anchor="middle" x="724" y="-366" font-family="Helvetica,sans-Serif" font-size="10.00">::getUuid</text>
</a>
</g>
<!-- Node3&#45;&gt;Node17 -->
<g id="edge34" class="edge"><title>Node3&#45;&gt;Node17</title>
<path fill="none" stroke="midnightblue" d="M360.864,-478.28C378.669,-457.633 421.106,-412.738 468,-394 524.355,-371.482 593.19,-367.544 645.283,-368.79"/>
<polygon fill="midnightblue" stroke="midnightblue" points="645.366,-372.295 655.47,-369.105 645.582,-365.298 645.366,-372.295"/>
</g>
<!-- Node18 -->
<g id="node36" class="node"><title>Node18</title>
<a xlink:href="../../de/d67/classproject_1_1_gen_comp_instance.html#ab0c96f485564e41206ce9a4ce42ba389" target="_top" xlink:title="project::GenCompInstance\l::getName">
<polygon fill="white" stroke="black" points="476,-313 476,-347 610,-347 610,-313 476,-313"/>
<text text-anchor="start" x="484" y="-334" font-family="Helvetica,sans-Serif" font-size="10.00">project::GenCompInstance</text>
<text text-anchor="middle" x="543" y="-321" font-family="Helvetica,sans-Serif" font-size="10.00">::getName</text>
</a>
</g>
<!-- Node3&#45;&gt;Node18 -->
<g id="edge36" class="edge"><title>Node3&#45;&gt;Node18</title>
<path fill="none" stroke="midnightblue" d="M359.182,-478.26C375.739,-454.227 418.949,-395.52 468,-361 472.872,-357.572 478.18,-354.43 483.648,-351.574"/>
<polygon fill="midnightblue" stroke="midnightblue" points="485.497,-354.566 492.951,-347.037 482.429,-348.274 485.497,-354.566"/>
</g>
<!-- Node19 -->
<g id="node38" class="node"><title>Node19</title>
<a xlink:href="../../de/d67/classproject_1_1_gen_comp_instance.html#a1dbc1371a264fd73efc4b08a38f115da" target="_top" xlink:title="project::GenCompInstance\l::getValue">
<polygon fill="white" stroke="black" points="476,-261 476,-295 610,-295 610,-261 476,-261"/>
<text text-anchor="start" x="484" y="-282" font-family="Helvetica,sans-Serif" font-size="10.00">project::GenCompInstance</text>
<text text-anchor="middle" x="543" y="-269" font-family="Helvetica,sans-Serif" font-size="10.00">::getValue</text>
</a>
</g>
<!-- Node3&#45;&gt;Node19 -->
<g id="edge38" class="edge"><title>Node3&#45;&gt;Node19</title>
<path fill="none" stroke="midnightblue" d="M355.691,-478.478C367.194,-447.189 405.413,-353.811 468,-304 469.577,-302.745 471.219,-301.548 472.912,-300.408"/>
<polygon fill="midnightblue" stroke="midnightblue" points="474.943,-303.273 481.756,-295.159 471.37,-297.253 474.943,-303.273"/>
</g>
<!-- Node20 -->
<g id="node41" class="node"><title>Node20</title>
<a xlink:href="../../d2/d05/classproject_1_1_project.html#a6054e079a2e370148fce27b138686ba3" target="_top" xlink:title="Get the ProjectSettings object which contains all project settings. ">
<polygon fill="white" stroke="black" points="474,-221.5 474,-242.5 612,-242.5 612,-221.5 474,-221.5"/>
<text text-anchor="middle" x="543" y="-229.5" font-family="Helvetica,sans-Serif" font-size="10.00">project::Project::getSettings</text>
</a>
</g>
<!-- Node3&#45;&gt;Node20 -->
<g id="edge42" class="edge"><title>Node3&#45;&gt;Node20</title>
<path fill="none" stroke="midnightblue" d="M353.961,-478.313C361.394,-440.943 391.39,-314.986 468,-252 470.049,-250.315 472.227,-248.771 474.501,-247.356"/>
<polygon fill="midnightblue" stroke="midnightblue" points="476.471,-250.275 483.684,-242.515 473.206,-244.083 476.471,-250.275"/>
</g>
<!-- Node21 -->
<g id="node43" class="node"><title>Node21</title>
<a xlink:href="../../d7/d04/classproject_1_1_project_settings.html#a4e1f38901d0cab44a6bdae922a877b22" target="_top" xlink:title="project::ProjectSettings\l::getLocaleOrder">
<polygon fill="white" stroke="black" points="483.5,-169 483.5,-203 602.5,-203 602.5,-169 483.5,-169"/>
<text text-anchor="start" x="491.5" y="-190" font-family="Helvetica,sans-Serif" font-size="10.00">project::ProjectSettings</text>
<text text-anchor="middle" x="543" y="-177" font-family="Helvetica,sans-Serif" font-size="10.00">::getLocaleOrder</text>
</a>
</g>
<!-- Node3&#45;&gt;Node21 -->
<g id="edge44" class="edge"><title>Node3&#45;&gt;Node21</title>
<path fill="none" stroke="midnightblue" d="M353.314,-478.49C358.931,-437.981 384.575,-290.338 468,-212 470.119,-210.01 472.398,-208.172 474.797,-206.473"/>
<polygon fill="midnightblue" stroke="midnightblue" points="476.66,-209.436 483.351,-201.221 472.998,-203.471 476.66,-209.436"/>
</g>
<!-- Node5 -->
<g id="node9" class="node"><title>Node5</title>
<a xlink:href="../../d4/d1c/class_file_path.html#a0a886a9edf5bf682f5245159661bfc94" target="_top" xlink:title="Check whether this object contains a valid filepath or not. ">
<polygon fill="white" stroke="black" points="680,-840.5 680,-861.5 768,-861.5 768,-840.5 680,-840.5"/>
<text text-anchor="middle" x="724" y="-848.5" font-family="Helvetica,sans-Serif" font-size="10.00">FilePath::isValid</text>
</a>
</g>
<!-- Node4&#45;&gt;Node5 -->
<g id="edge8" class="edge"><title>Node4&#45;&gt;Node5</title>
<path fill="none" stroke="midnightblue" d="M618.188,-846.908C635.398,-847.573 653.368,-848.268 669.512,-848.893"/>
<polygon fill="midnightblue" stroke="midnightblue" points="669.703,-852.403 679.831,-849.292 669.974,-845.408 669.703,-852.403"/>
</g>
<!-- Node4&#45;&gt;Node6 -->
<g id="edge10" class="edge"><title>Node4&#45;&gt;Node6</title>
<path fill="none" stroke="midnightblue" d="M591.981,-833.446C608.412,-829.906 627.173,-825.863 645.293,-821.959"/>
<polygon fill="midnightblue" stroke="midnightblue" points="646.237,-825.336 655.275,-819.808 644.762,-818.493 646.237,-825.336"/>
</g>
<!-- Node7 -->
<g id="node13" class="node"><title>Node7</title>
<a xlink:href="../../dd/d8a/classlibrary_1_1_library_base_element.html#a3de489fd5ff14ef1709e7ba41628ab3e" target="_top" xlink:title="Get the string of a specific locale from a QMap. ">
<polygon fill="white" stroke="black" points="830.5,-788 830.5,-822 967.5,-822 967.5,-788 830.5,-788"/>
<text text-anchor="start" x="838.5" y="-809" font-family="Helvetica,sans-Serif" font-size="10.00">library::LibraryBaseElement</text>
<text text-anchor="middle" x="899" y="-796" font-family="Helvetica,sans-Serif" font-size="10.00">::localeStringFromList</text>
</a>
</g>
<!-- Node6&#45;&gt;Node7 -->
<g id="edge12" class="edge"><title>Node6&#45;&gt;Node7</title>
<path fill="none" stroke="midnightblue" d="M792.662,-805C801.637,-805 810.89,-805 820.017,-805"/>
<polygon fill="midnightblue" stroke="midnightblue" points="820.248,-808.5 830.248,-805 820.248,-801.5 820.248,-808.5"/>
</g>
<!-- Node16 -->
<g id="node31" class="node"><title>Node16</title>
<a xlink:href="../../d3/dad/classlibrary_1_1_component.html#a88f1a973e2036997bc17ce0782c36587" target="_top" xlink:title="library::Component\l::getGenCompUuid">
<polygon fill="white" stroke="black" points="673.5,-410 673.5,-444 774.5,-444 774.5,-410 673.5,-410"/>
<text text-anchor="start" x="681.5" y="-431" font-family="Helvetica,sans-Serif" font-size="10.00">library::Component</text>
<text text-anchor="middle" x="724" y="-418" font-family="Helvetica,sans-Serif" font-size="10.00">::getGenCompUuid</text>
</a>
</g>
<!-- Node15&#45;&gt;Node16 -->
<g id="edge30" class="edge"><title>Node15&#45;&gt;Node16</title>
<path fill="none" stroke="midnightblue" d="M616.098,-422.827C631.722,-423.431 648.066,-424.063 663.17,-424.647"/>
<polygon fill="midnightblue" stroke="midnightblue" points="663.277,-428.154 673.405,-425.043 663.547,-421.159 663.277,-428.154"/>
</g>
<!-- Node15&#45;&gt;Node17 -->
<g id="edge32" class="edge"><title>Node15&#45;&gt;Node17</title>
<path fill="none" stroke="midnightblue" d="M611.428,-402.987C622.578,-400.215 634.204,-397.325 645.571,-394.499"/>
<polygon fill="midnightblue" stroke="midnightblue" points="646.615,-397.846 655.475,-392.037 644.926,-391.053 646.615,-397.846"/>
</g>
<!-- Node23 -->
<g id="node47" class="node"><title>Node23</title>
<a xlink:href="../../df/df0/class_length.html#ad9d64077c16d3a2631a87b69cea3426d" target="_top" xlink:title="Set the length in millimeters. ">
<polygon fill="white" stroke="black" points="487.5,-129.5 487.5,-150.5 598.5,-150.5 598.5,-129.5 487.5,-129.5"/>
<text text-anchor="middle" x="543" y="-137.5" font-family="Helvetica,sans-Serif" font-size="10.00">Length::setLengthMm</text>
</a>
</g>
<!-- Node22&#45;&gt;Node23 -->
<g id="edge48" class="edge"><title>Node22&#45;&gt;Node23</title>
<path fill="none" stroke="midnightblue" d="M392.506,-132.909C417.083,-134.067 449.031,-135.572 477.166,-136.898"/>
<polygon fill="midnightblue" stroke="midnightblue" points="477.184,-140.403 487.338,-137.377 477.514,-133.41 477.184,-140.403"/>
</g>
<!-- Node25 -->
<g id="node51" class="node"><title>Node25</title>
<a xlink:href="../../d0/d69/class_point.html#aaf8d7a6826dcd72e03dc632960106b90" target="_top" xlink:title="Map this Point object to a specific grid interval. ">
<polygon fill="white" stroke="black" points="496.5,-71.5 496.5,-92.5 589.5,-92.5 589.5,-71.5 496.5,-71.5"/>
<text text-anchor="middle" x="543" y="-79.5" font-family="Helvetica,sans-Serif" font-size="10.00">Point::mapToGrid</text>
</a>
</g>
<!-- Node22&#45;&gt;Node25 -->
<g id="edge52" class="edge"><title>Node22&#45;&gt;Node25</title>
<path fill="none" stroke="midnightblue" d="M392.719,-120.909C405.318,-117.762 419.239,-114.262 432,-111 452.13,-105.854 474.286,-100.087 493.474,-95.0589"/>
<polygon fill="midnightblue" stroke="midnightblue" points="494.426,-98.4274 503.211,-92.5041 492.65,-91.6566 494.426,-98.4274"/>
</g>
<!-- Node24 -->
<g id="node49" class="node"><title>Node24</title>
<a xlink:href="../../df/df0/class_length.html#a73dbcae99cc78c7f7e737d5211154527" target="_top" xlink:title="Set the length from a floating point number in nanometers. ">
<polygon fill="white" stroke="black" points="654.5,-129.5 654.5,-150.5 793.5,-150.5 793.5,-129.5 654.5,-129.5"/>
<text text-anchor="middle" x="724" y="-137.5" font-family="Helvetica,sans-Serif" font-size="10.00">Length::setLengthFromFloat</text>
</a>
</g>
<!-- Node23&#45;&gt;Node24 -->
<g id="edge50" class="edge"><title>Node23&#45;&gt;Node24</title>
<path fill="none" stroke="midnightblue" d="M598.783,-140C613.183,-140 628.965,-140 644.325,-140"/>
<polygon fill="midnightblue" stroke="midnightblue" points="644.339,-143.5 654.339,-140 644.339,-136.5 644.339,-143.5"/>
</g>
<!-- Node25&#45;&gt;Node25 -->
<g id="edge54" class="edge"><title>Node25&#45;&gt;Node25</title>
<path fill="none" stroke="midnightblue" d="M514.4,-92.7079C502.178,-101.653 511.711,-111 543,-111 563.533,-111 574.698,-106.975 576.492,-101.679"/>
<polygon fill="midnightblue" stroke="midnightblue" points="579.461,-99.8117 571.6,-92.7079 573.315,-103.163 579.461,-99.8117"/>
</g>
<!-- Node26&#45;&gt;Node25 -->
<g id="edge58" class="edge"><title>Node26&#45;&gt;Node25</title>
<path fill="none" stroke="midnightblue" d="M406.733,-88.421C431.633,-87.2477 461.084,-85.8599 486.225,-84.6753"/>
<polygon fill="midnightblue" stroke="midnightblue" points="486.524,-88.1652 496.348,-84.1983 486.194,-81.1729 486.524,-88.1652"/>
</g>
</g>
</svg>
