<?xml version="1.0" encoding="UTF-8" standalone="no"?>
<!DOCTYPE svg PUBLIC "-//W3C//DTD SVG 1.1//EN"
 "http://www.w3.org/Graphics/SVG/1.1/DTD/svg11.dtd">
<!-- Generated by graphviz version 2.26.3 (20100126.1600)
 -->
<!-- Title: on_cbxSelectedComponent_currentIndexChanged Pages: 1 -->
<svg width="308pt" height="214pt"
 viewBox="0.00 0.00 308.00 214.00" xmlns="http://www.w3.org/2000/svg" xmlns:xlink="http://www.w3.org/1999/xlink">
<g id="graph1" class="graph" transform="scale(1 1) rotate(0) translate(4 210)">
<title>on_cbxSelectedComponent_currentIndexChanged</title>
<polygon fill="white" stroke="white" points="-4,5 -4,-210 305,-210 305,5 -4,5"/>
<!-- Node1 -->
<g id="node1" class="node"><title>Node1</title>
<polygon fill="#bfbfbf" stroke="black" points="0.5,-80 0.5,-114 137.5,-114 137.5,-80 0.5,-80"/>
<text text-anchor="start" x="8.5" y="-101" font-family="Helvetica,sans-Serif" font-size="10.00">on_cbxSelectedComponent</text>
<text text-anchor="middle" x="69" y="-88" font-family="Helvetica,sans-Serif" font-size="10.00">_currentIndexChanged</text>
</g>
<!-- Node2 -->
<g id="node3" class="node"><title>Node2</title>
<a xlink:href="../../d3/dd6/classproject_1_1_project_editor.html#a8bd898624d6ef8da257077c470a1367a" target="_top" xlink:title="project::ProjectEditor\l::getWorkspace">
<polygon fill="white" stroke="black" points="183,-172 183,-206 291,-206 291,-172 183,-172"/>
<text text-anchor="start" x="191" y="-193" font-family="Helvetica,sans-Serif" font-size="10.00">project::ProjectEditor</text>
<text text-anchor="middle" x="237" y="-180" font-family="Helvetica,sans-Serif" font-size="10.00">::getWorkspace</text>
</a>
</g>
<!-- Node1&#45;&gt;Node2 -->
<g id="edge2" class="edge"><title>Node1&#45;&gt;Node2</title>
<path fill="none" stroke="midnightblue" d="M93.7535,-114.243C114.597,-128.346 145.489,-148.291 174,-163 177.091,-164.594 180.302,-166.165 183.565,-167.697"/>
<polygon fill="midnightblue" stroke="midnightblue" points="182.291,-170.962 192.845,-171.898 185.178,-164.585 182.291,-170.962"/>
</g>
<!-- Node3 -->
<g id="node5" class="node"><title>Node3</title>
<a xlink:href="../../d5/d56/class_workspace.html#a0aaab7f8db4623adc7227460a859db51" target="_top" xlink:title="Get the workspace library. ">
<polygon fill="white" stroke="black" points="179.5,-132.5 179.5,-153.5 294.5,-153.5 294.5,-132.5 179.5,-132.5"/>
<text text-anchor="middle" x="237" y="-140.5" font-family="Helvetica,sans-Serif" font-size="10.00">Workspace::getLibrary</text>
</a>
</g>
<!-- Node1&#45;&gt;Node3 -->
<g id="edge4" class="edge"><title>Node1&#45;&gt;Node3</title>
<path fill="none" stroke="midnightblue" d="M131.557,-114.129C150.273,-119.253 170.512,-124.795 188.206,-129.64"/>
<polygon fill="midnightblue" stroke="midnightblue" points="187.73,-133.138 198.299,-132.403 189.579,-126.387 187.73,-133.138"/>
</g>
<!-- Node4 -->
<g id="node7" class="node"><title>Node4</title>
<a xlink:href="../../de/d02/classlibrary_1_1_library.html#ad5121bf85bceffc79b92edc6d7445a07" target="_top" xlink:title="library::Library::getLatest\lComponent">
<polygon fill="white" stroke="black" points="174.5,-80 174.5,-114 299.5,-114 299.5,-80 174.5,-80"/>
<text text-anchor="start" x="182.5" y="-101" font-family="Helvetica,sans-Serif" font-size="10.00">library::Library::getLatest</text>
<text text-anchor="middle" x="237" y="-88" font-family="Helvetica,sans-Serif" font-size="10.00">Component</text>
</a>
</g>
<!-- Node1&#45;&gt;Node4 -->
<g id="edge6" class="edge"><title>Node1&#45;&gt;Node4</title>
<path fill="none" stroke="midnightblue" d="M137.817,-97C146.544,-97 155.498,-97 164.284,-97"/>
<polygon fill="midnightblue" stroke="midnightblue" points="164.497,-100.5 174.497,-97 164.497,-93.5001 164.497,-100.5"/>
</g>
<!-- Node5 -->
<g id="node9" class="node"><title>Node5</title>
<a xlink:href="../../d4/d1c/class_file_path.html#a0a886a9edf5bf682f5245159661bfc94" target="_top" xlink:title="Check whether this object contains a valid filepath or not. ">
<polygon fill="white" stroke="black" points="193,-40.5 193,-61.5 281,-61.5 281,-40.5 193,-40.5"/>
<text text-anchor="middle" x="237" y="-48.5" font-family="Helvetica,sans-Serif" font-size="10.00">FilePath::isValid</text>
</a>
</g>
<!-- Node1&#45;&gt;Node5 -->
<g id="edge8" class="edge"><title>Node1&#45;&gt;Node5</title>
<path fill="none" stroke="midnightblue" d="M131.557,-79.8713C150.273,-74.7466 170.512,-69.2051 188.206,-64.3603"/>
<polygon fill="midnightblue" stroke="midnightblue" points="189.579,-67.6133 198.299,-61.5966 187.73,-60.8619 189.579,-67.6133"/>
</g>
<!-- Node6 -->
<g id="node11" class="node"><title>Node6</title>
<a xlink:href="../../dc/dbb/classproject_1_1_unplaced_components_dock.html#a72f69a594e25f3c54771588086c929c2" target="_top" xlink:title="setSelectedComponent">
<polygon fill="white" stroke="black" points="177.5,-0.5 177.5,-21.5 296.5,-21.5 296.5,-0.5 177.5,-0.5"/>
<text text-anchor="middle" x="237" y="-8.5" font-family="Helvetica,sans-Serif" font-size="10.00">setSelectedComponent</text>
</a>
</g>
<!-- Node1&#45;&gt;Node6 -->
<g id="edge10" class="edge"><title>Node1&#45;&gt;Node6</title>
<path fill="none" stroke="midnightblue" d="M92.2076,-79.9904C112.861,-65.456 144.31,-44.7704 174,-31 178.694,-28.8227 183.69,-26.7919 188.734,-24.9235"/>
<polygon fill="midnightblue" stroke="midnightblue" points="190.145,-28.1383 198.43,-21.535 187.835,-21.5303 190.145,-28.1383"/>
</g>
</g>
</svg>
