<?xml version="1.0" encoding="UTF-8" standalone="no"?>
<!DOCTYPE svg PUBLIC "-//W3C//DTD SVG 1.1//EN"
 "http://www.w3.org/Graphics/SVG/1.1/DTD/svg11.dtd">
<!-- Generated by graphviz version 2.26.3 (20100126.1600)
 -->
<!-- Title: ~UnplacedComponentsDock Pages: 1 -->
<svg width="980pt" height="936pt"
 viewBox="0.00 0.00 980.00 936.00" xmlns="http://www.w3.org/2000/svg" xmlns:xlink="http://www.w3.org/1999/xlink">
<g id="graph1" class="graph" transform="scale(1 1) rotate(0) translate(4 932)">
<title>~UnplacedComponentsDock</title>
<polygon fill="white" stroke="white" points="-4,5 -4,-932 977,-932 977,5 -4,5"/>
<!-- Node1 -->
<g id="node1" class="node"><title>Node1</title>
<polygon fill="#bfbfbf" stroke="black" points="0.5,-80.5 0.5,-101.5 143.5,-101.5 143.5,-80.5 0.5,-80.5"/>
<text text-anchor="middle" x="72" y="-88.5" font-family="Helvetica,sans-Serif" font-size="10.00">~UnplacedComponentsDock</text>
</g>
<!-- Node2 -->
<g id="node3" class="node"><title>Node2</title>
<a xlink:href="../../dc/dbb/classproject_1_1_unplaced_components_dock.html#a5c8f1dac9d4bbb3d9985ca4d9d3c99bb" target="_top" xlink:title="setBoard">
<polygon fill="white" stroke="black" points="180,-80.5 180,-101.5 236,-101.5 236,-80.5 180,-80.5"/>
<text text-anchor="middle" x="208" y="-88.5" font-family="Helvetica,sans-Serif" font-size="10.00">setBoard</text>
</a>
</g>
<!-- Node1&#45;&gt;Node2 -->
<g id="edge2" class="edge"><title>Node1&#45;&gt;Node2</title>
<path fill="none" stroke="midnightblue" d="M143.584,-91C152.673,-91 161.677,-91 169.942,-91"/>
<polygon fill="midnightblue" stroke="midnightblue" points="169.969,-94.5001 179.969,-91 169.969,-87.5001 169.969,-94.5001"/>
</g>
<!-- Node3 -->
<g id="node5" class="node"><title>Node3</title>
<a xlink:href="../../dc/dbb/classproject_1_1_unplaced_components_dock.html#ad000d7056be9060e68ab7f2548d12946" target="_top" xlink:title="updateComponentsList">
<polygon fill="white" stroke="black" points="293.5,-515.5 293.5,-536.5 410.5,-536.5 410.5,-515.5 293.5,-515.5"/>
<text text-anchor="middle" x="352" y="-523.5" font-family="Helvetica,sans-Serif" font-size="10.00">updateComponentsList</text>
</a>
</g>
<!-- Node2&#45;&gt;Node3 -->
<g id="edge4" class="edge"><title>Node2&#45;&gt;Node3</title>
<path fill="none" stroke="midnightblue" d="M211.56,-101.753C230.507,-158.99 319.611,-428.158 345.146,-505.294"/>
<polygon fill="midnightblue" stroke="midnightblue" points="341.971,-506.84 348.436,-515.234 348.616,-504.64 341.971,-506.84"/>
</g>
<!-- Node22 -->
<g id="node44" class="node"><title>Node22</title>
<a xlink:href="../../d0/d69/class_point.html#adb9043980e8c2b8b1f2289cd48a3e168" target="_top" xlink:title="Point::fromMm">
<polygon fill="white" stroke="black" points="311.5,-120.5 311.5,-141.5 392.5,-141.5 392.5,-120.5 311.5,-120.5"/>
<text text-anchor="middle" x="352" y="-128.5" font-family="Helvetica,sans-Serif" font-size="10.00">Point::fromMm</text>
</a>
</g>
<!-- Node2&#45;&gt;Node22 -->
<g id="edge44" class="edge"><title>Node2&#45;&gt;Node22</title>
<path fill="none" stroke="midnightblue" d="M236.25,-100.215C247.352,-103.735 260.233,-107.693 272,-111 281.411,-113.644 291.493,-116.301 301.218,-118.775"/>
<polygon fill="midnightblue" stroke="midnightblue" points="300.63,-122.236 311.182,-121.279 302.336,-115.447 300.63,-122.236"/>
</g>
<!-- Node26 -->
<g id="node53" class="node"><title>Node26</title>
<a xlink:href="../../d0/d69/class_point.html#a446f375ce96e6aa9e86286903b0c870c" target="_top" xlink:title="Get a Point object which is mapped to a specific grid interval. ">
<polygon fill="white" stroke="black" points="297.5,-80.5 297.5,-101.5 406.5,-101.5 406.5,-80.5 297.5,-80.5"/>
<text text-anchor="middle" x="352" y="-88.5" font-family="Helvetica,sans-Serif" font-size="10.00">Point::mappedToGrid</text>
</a>
</g>
<!-- Node2&#45;&gt;Node26 -->
<g id="edge54" class="edge"><title>Node2&#45;&gt;Node26</title>
<path fill="none" stroke="midnightblue" d="M236.106,-91C250.748,-91 269.306,-91 287.256,-91"/>
<polygon fill="midnightblue" stroke="midnightblue" points="287.427,-94.5001 297.427,-91 287.427,-87.5001 287.427,-94.5001"/>
</g>
<!-- Node27 -->
<g id="node56" class="node"><title>Node27</title>
<a xlink:href="../../d5/d07/classproject_1_1_board.html#a8fdde458ce65c4d4a40545c222303ae9" target="_top" xlink:title="project::Board::getGridProperties">
<polygon fill="white" stroke="black" points="272.5,-40.5 272.5,-61.5 431.5,-61.5 431.5,-40.5 272.5,-40.5"/>
<text text-anchor="middle" x="352" y="-48.5" font-family="Helvetica,sans-Serif" font-size="10.00">project::Board::getGridProperties</text>
</a>
</g>
<!-- Node2&#45;&gt;Node27 -->
<g id="edge58" class="edge"><title>Node2&#45;&gt;Node27</title>
<path fill="none" stroke="midnightblue" d="M236.25,-81.7849C247.352,-78.2653 260.233,-74.3066 272,-71 280.412,-68.6364 289.359,-66.263 298.11,-64.0189"/>
<polygon fill="midnightblue" stroke="midnightblue" points="299.032,-67.396 307.866,-61.5475 297.313,-60.6103 299.032,-67.396"/>
</g>
<!-- Node28 -->
<g id="node58" class="node"><title>Node28</title>
<a xlink:href="../../d8/dbf/class_grid_properties.html#a4cc9437a41e81f8f0f873ce9fbd67900" target="_top" xlink:title="GridProperties::getInterval">
<polygon fill="white" stroke="black" points="286.5,-0.5 286.5,-21.5 417.5,-21.5 417.5,-0.5 286.5,-0.5"/>
<text text-anchor="middle" x="352" y="-8.5" font-family="Helvetica,sans-Serif" font-size="10.00">GridProperties::getInterval</text>
</a>
</g>
<!-- Node2&#45;&gt;Node28 -->
<g id="edge60" class="edge"><title>Node2&#45;&gt;Node28</title>
<path fill="none" stroke="midnightblue" d="M216.331,-80.3796C227.527,-66.8438 248.731,-43.6834 272,-31 276.18,-28.7218 280.623,-26.6979 285.191,-24.9009"/>
<polygon fill="midnightblue" stroke="midnightblue" points="286.448,-28.1686 294.699,-21.5218 284.104,-21.5728 286.448,-28.1686"/>
</g>
<!-- Node4 -->
<g id="node7" class="node"><title>Node4</title>
<a xlink:href="../../dc/dbb/classproject_1_1_unplaced_components_dock.html#a8b27105b4d0e8500f6c177ab8bde0b65" target="_top" xlink:title="setSelectedGenCompInstance">
<polygon fill="white" stroke="black" points="470,-899.5 470,-920.5 620,-920.5 620,-899.5 470,-899.5"/>
<text text-anchor="middle" x="545" y="-907.5" font-family="Helvetica,sans-Serif" font-size="10.00">setSelectedGenCompInstance</text>
</a>
</g>
<!-- Node3&#45;&gt;Node4 -->
<g id="edge6" class="edge"><title>Node3&#45;&gt;Node4</title>
<path fill="none" stroke="midnightblue" d="M354.106,-536.752C364.891,-590.811 415.47,-832.396 468,-885 471.91,-888.916 476.44,-892.219 481.305,-895.004"/>
<polygon fill="midnightblue" stroke="midnightblue" points="479.847,-898.188 490.363,-899.481 482.949,-891.913 479.847,-898.188"/>
</g>
<!-- Node6 -->
<g id="node11" class="node"><title>Node6</title>
<a xlink:href="../../dd/d8a/classlibrary_1_1_library_base_element.html#a01f0309d43de518f4e94c724d22f4502" target="_top" xlink:title="library::LibraryBaseElement\l::getName">
<polygon fill="white" stroke="black" points="659.5,-854 659.5,-888 796.5,-888 796.5,-854 659.5,-854"/>
<text text-anchor="start" x="667.5" y="-875" font-family="Helvetica,sans-Serif" font-size="10.00">library::LibraryBaseElement</text>
<text text-anchor="middle" x="728" y="-862" font-family="Helvetica,sans-Serif" font-size="10.00">::getName</text>
</a>
</g>
<!-- Node3&#45;&gt;Node6 -->
<g id="edge38" class="edge"><title>Node3&#45;&gt;Node6</title>
<path fill="none" stroke="midnightblue" d="M354.181,-536.687C364.938,-588.289 413.998,-810.867 468,-852 518.927,-890.791 592.951,-892.516 649.001,-886.293"/>
<polygon fill="midnightblue" stroke="midnightblue" points="649.744,-889.729 659.248,-885.046 648.898,-882.78 649.744,-889.729"/>
</g>
<!-- Node8 -->
<g id="node15" class="node"><title>Node8</title>
<a xlink:href="../../d2/d05/classproject_1_1_project.html#a8fac03aa9a740943b9193a49a31bd6ae" target="_top" xlink:title="Get the Circuit object. ">
<polygon fill="white" stroke="black" points="479.5,-821.5 479.5,-842.5 610.5,-842.5 610.5,-821.5 479.5,-821.5"/>
<text text-anchor="middle" x="545" y="-829.5" font-family="Helvetica,sans-Serif" font-size="10.00">project::Project::getCircuit</text>
</a>
</g>
<!-- Node3&#45;&gt;Node8 -->
<g id="edge14" class="edge"><title>Node3&#45;&gt;Node8</title>
<path fill="none" stroke="midnightblue" d="M352.978,-536.766C357.402,-578.926 379.362,-734.29 468,-812 469.772,-813.554 471.65,-814.989 473.612,-816.315"/>
<polygon fill="midnightblue" stroke="midnightblue" points="472.256,-819.57 482.682,-821.455 475.708,-813.48 472.256,-819.57"/>
</g>
<!-- Node9 -->
<g id="node17" class="node"><title>Node9</title>
<a xlink:href="../../d1/d03/classproject_1_1_circuit.html#af9d9d6ca29e9ad4c4591eeae0197ff08" target="_top" xlink:title="project::Circuit::getGen\lCompInstances">
<polygon fill="white" stroke="black" points="486,-769 486,-803 604,-803 604,-769 486,-769"/>
<text text-anchor="start" x="494" y="-790" font-family="Helvetica,sans-Serif" font-size="10.00">project::Circuit::getGen</text>
<text text-anchor="middle" x="545" y="-777" font-family="Helvetica,sans-Serif" font-size="10.00">CompInstances</text>
</a>
</g>
<!-- Node3&#45;&gt;Node9 -->
<g id="edge16" class="edge"><title>Node3&#45;&gt;Node9</title>
<path fill="none" stroke="midnightblue" d="M354.209,-536.634C362.37,-573.274 394.246,-695.559 468,-760 470.822,-762.466 473.888,-764.7 477.116,-766.724"/>
<polygon fill="midnightblue" stroke="midnightblue" points="475.536,-769.85 485.985,-771.605 478.911,-763.717 475.536,-769.85"/>
</g>
<!-- Node10 -->
<g id="node19" class="node"><title>Node10</title>
<a xlink:href="../../d5/d07/classproject_1_1_board.html#a392a41a5ac250cc2a623dbb2df12dfac" target="_top" xlink:title="project::Board::getComponent\lInstances">
<polygon fill="white" stroke="black" points="471.5,-717 471.5,-751 618.5,-751 618.5,-717 471.5,-717"/>
<text text-anchor="start" x="479.5" y="-738" font-family="Helvetica,sans-Serif" font-size="10.00">project::Board::getComponent</text>
<text text-anchor="middle" x="545" y="-725" font-family="Helvetica,sans-Serif" font-size="10.00">Instances</text>
</a>
</g>
<!-- Node3&#45;&gt;Node10 -->
<g id="edge18" class="edge"><title>Node3&#45;&gt;Node10</title>
<path fill="none" stroke="midnightblue" d="M355.89,-536.817C367.681,-568.092 406.056,-659.477 468,-708 469.76,-709.379 471.597,-710.686 473.495,-711.926"/>
<polygon fill="midnightblue" stroke="midnightblue" points="471.747,-714.958 482.154,-716.941 475.255,-708.901 471.747,-714.958"/>
</g>
<!-- Node11 -->
<g id="node21" class="node"><title>Node11</title>
<a xlink:href="../../de/d67/classproject_1_1_gen_comp_instance.html#ada9b237a8629c03e16491a72730b456b" target="_top" xlink:title="project::GenCompInstance\l::getUuid">
<polygon fill="white" stroke="black" points="478,-665 478,-699 612,-699 612,-665 478,-665"/>
<text text-anchor="start" x="486" y="-686" font-family="Helvetica,sans-Serif" font-size="10.00">project::GenCompInstance</text>
<text text-anchor="middle" x="545" y="-673" font-family="Helvetica,sans-Serif" font-size="10.00">::getUuid</text>
</a>
</g>
<!-- Node3&#45;&gt;Node11 -->
<g id="edge20" class="edge"><title>Node3&#45;&gt;Node11</title>
<path fill="none" stroke="midnightblue" d="M358.738,-536.782C374.694,-561.456 417.276,-622.48 468,-656 470.294,-657.516 472.684,-658.951 475.144,-660.31"/>
<polygon fill="midnightblue" stroke="midnightblue" points="473.792,-663.548 484.3,-664.901 476.929,-657.29 473.792,-663.548"/>
</g>
<!-- Node12 -->
<g id="node23" class="node"><title>Node12</title>
<a xlink:href="../../de/d67/classproject_1_1_gen_comp_instance.html#abcd40fa7fd6f8d3d8e6f9630daa8b861" target="_top" xlink:title="project::GenCompInstance\l::getGenComp">
<polygon fill="white" stroke="black" points="478,-613 478,-647 612,-647 612,-613 478,-613"/>
<text text-anchor="start" x="486" y="-634" font-family="Helvetica,sans-Serif" font-size="10.00">project::GenCompInstance</text>
<text text-anchor="middle" x="545" y="-621" font-family="Helvetica,sans-Serif" font-size="10.00">::getGenComp</text>
</a>
</g>
<!-- Node3&#45;&gt;Node12 -->
<g id="edge22" class="edge"><title>Node3&#45;&gt;Node12</title>
<path fill="none" stroke="midnightblue" d="M365.205,-536.612C386.015,-552.925 428.182,-584.331 468,-604 471.597,-605.777 475.346,-607.48 479.167,-609.104"/>
<polygon fill="midnightblue" stroke="midnightblue" points="478.189,-612.483 488.772,-612.973 480.804,-605.99 478.189,-612.483"/>
</g>
<!-- Node13 -->
<g id="node25" class="node"><title>Node13</title>
<a xlink:href="../../d7/d7c/classlibrary_1_1_generic_component.html#a9f78a2a936ffbbb66f8865343e93aed7" target="_top" xlink:title="library::GenericComponent\l::isSchematicOnly">
<polygon fill="white" stroke="black" points="478.5,-561 478.5,-595 611.5,-595 611.5,-561 478.5,-561"/>
<text text-anchor="start" x="486.5" y="-582" font-family="Helvetica,sans-Serif" font-size="10.00">library::GenericComponent</text>
<text text-anchor="middle" x="545" y="-569" font-family="Helvetica,sans-Serif" font-size="10.00">::isSchematicOnly</text>
</a>
</g>
<!-- Node3&#45;&gt;Node13 -->
<g id="edge24" class="edge"><title>Node3&#45;&gt;Node13</title>
<path fill="none" stroke="midnightblue" d="M391.056,-536.523C414.208,-542.761 444.295,-550.867 471.721,-558.257"/>
<polygon fill="midnightblue" stroke="midnightblue" points="471.121,-561.72 481.688,-560.942 472.943,-554.961 471.121,-561.72"/>
</g>
<!-- Node14 -->
<g id="node27" class="node"><title>Node14</title>
<a xlink:href="../../d3/dd6/classproject_1_1_project_editor.html#a8bd898624d6ef8da257077c470a1367a" target="_top" xlink:title="project::ProjectEditor\l::getWorkspace">
<polygon fill="white" stroke="black" points="491,-509 491,-543 599,-543 599,-509 491,-509"/>
<text text-anchor="start" x="499" y="-530" font-family="Helvetica,sans-Serif" font-size="10.00">project::ProjectEditor</text>
<text text-anchor="middle" x="545" y="-517" font-family="Helvetica,sans-Serif" font-size="10.00">::getWorkspace</text>
</a>
</g>
<!-- Node3&#45;&gt;Node14 -->
<g id="edge26" class="edge"><title>Node3&#45;&gt;Node14</title>
<path fill="none" stroke="midnightblue" d="M410.692,-526C432.812,-526 458.08,-526 480.686,-526"/>
<polygon fill="midnightblue" stroke="midnightblue" points="480.865,-529.5 490.865,-526 480.865,-522.5 480.865,-529.5"/>
</g>
<!-- Node15 -->
<g id="node29" class="node"><title>Node15</title>
<a xlink:href="../../d5/d56/class_workspace.html#a0aaab7f8db4623adc7227460a859db51" target="_top" xlink:title="Get the workspace library. ">
<polygon fill="white" stroke="black" points="487.5,-469.5 487.5,-490.5 602.5,-490.5 602.5,-469.5 487.5,-469.5"/>
<text text-anchor="middle" x="545" y="-477.5" font-family="Helvetica,sans-Serif" font-size="10.00">Workspace::getLibrary</text>
</a>
</g>
<!-- Node3&#45;&gt;Node15 -->
<g id="edge28" class="edge"><title>Node3&#45;&gt;Node15</title>
<path fill="none" stroke="midnightblue" d="M396.278,-515.447C424.474,-508.726 461.183,-499.977 491.074,-492.853"/>
<polygon fill="midnightblue" stroke="midnightblue" points="492.012,-496.227 500.928,-490.504 490.389,-489.418 492.012,-496.227"/>
</g>
<!-- Node16 -->
<g id="node31" class="node"><title>Node16</title>
<a xlink:href="../../de/d02/classlibrary_1_1_library.html#a6782766e6d899cf530b12dc94db35f3e" target="_top" xlink:title="library::Library::getComponents\lOfGenericComponent">
<polygon fill="white" stroke="black" points="468.5,-417 468.5,-451 621.5,-451 621.5,-417 468.5,-417"/>
<text text-anchor="start" x="476.5" y="-438" font-family="Helvetica,sans-Serif" font-size="10.00">library::Library::getComponents</text>
<text text-anchor="middle" x="545" y="-425" font-family="Helvetica,sans-Serif" font-size="10.00">OfGenericComponent</text>
</a>
</g>
<!-- Node3&#45;&gt;Node16 -->
<g id="edge30" class="edge"><title>Node3&#45;&gt;Node16</title>
<path fill="none" stroke="midnightblue" d="M368.378,-515.341C390.379,-501.339 431,-476.588 468,-460 472.094,-458.165 476.359,-456.384 480.689,-454.673"/>
<polygon fill="midnightblue" stroke="midnightblue" points="482.128,-457.87 490.231,-451.044 479.64,-451.327 482.128,-457.87"/>
</g>
<!-- Node17 -->
<g id="node33" class="node"><title>Node17</title>
<a xlink:href="../../dd/d8a/classlibrary_1_1_library_base_element.html#ada9b237a8629c03e16491a72730b456b" target="_top" xlink:title="library::LibraryBaseElement\l::getUuid">
<polygon fill="white" stroke="black" points="476.5,-365 476.5,-399 613.5,-399 613.5,-365 476.5,-365"/>
<text text-anchor="start" x="484.5" y="-386" font-family="Helvetica,sans-Serif" font-size="10.00">library::LibraryBaseElement</text>
<text text-anchor="middle" x="545" y="-373" font-family="Helvetica,sans-Serif" font-size="10.00">::getUuid</text>
</a>
</g>
<!-- Node3&#45;&gt;Node17 -->
<g id="edge32" class="edge"><title>Node3&#45;&gt;Node17</title>
<path fill="none" stroke="midnightblue" d="M359.743,-515.225C376.768,-492.274 419.802,-438.204 468,-408 470.606,-406.367 473.326,-404.823 476.123,-403.366"/>
<polygon fill="midnightblue" stroke="midnightblue" points="477.75,-406.468 485.266,-399.001 474.734,-400.151 477.75,-406.468"/>
</g>
<!-- Node18 -->
<g id="node35" class="node"><title>Node18</title>
<a xlink:href="../../de/d67/classproject_1_1_gen_comp_instance.html#ab0c96f485564e41206ce9a4ce42ba389" target="_top" xlink:title="project::GenCompInstance\l::getName">
<polygon fill="white" stroke="black" points="478,-313 478,-347 612,-347 612,-313 478,-313"/>
<text text-anchor="start" x="486" y="-334" font-family="Helvetica,sans-Serif" font-size="10.00">project::GenCompInstance</text>
<text text-anchor="middle" x="545" y="-321" font-family="Helvetica,sans-Serif" font-size="10.00">::getName</text>
</a>
</g>
<!-- Node3&#45;&gt;Node18 -->
<g id="edge34" class="edge"><title>Node3&#45;&gt;Node18</title>
<path fill="none" stroke="midnightblue" d="M356.277,-515.476C368.836,-485.877 408.499,-401.123 468,-356 469.827,-354.615 471.732,-353.3 473.698,-352.054"/>
<polygon fill="midnightblue" stroke="midnightblue" points="475.659,-354.966 482.657,-347.011 472.225,-348.866 475.659,-354.966"/>
</g>
<!-- Node19 -->
<g id="node37" class="node"><title>Node19</title>
<a xlink:href="../../de/d67/classproject_1_1_gen_comp_instance.html#a1dbc1371a264fd73efc4b08a38f115da" target="_top" xlink:title="project::GenCompInstance\l::getValue">
<polygon fill="white" stroke="black" points="478,-261 478,-295 612,-295 612,-261 478,-261"/>
<text text-anchor="start" x="486" y="-282" font-family="Helvetica,sans-Serif" font-size="10.00">project::GenCompInstance</text>
<text text-anchor="middle" x="545" y="-269" font-family="Helvetica,sans-Serif" font-size="10.00">::getValue</text>
</a>
</g>
<!-- Node3&#45;&gt;Node19 -->
<g id="edge36" class="edge"><title>Node3&#45;&gt;Node19</title>
<path fill="none" stroke="midnightblue" d="M354.505,-515.417C363.42,-480.048 396.943,-364.763 468,-304 469.364,-302.834 470.782,-301.719 472.246,-300.654"/>
<polygon fill="midnightblue" stroke="midnightblue" points="474.487,-303.379 481.071,-295.079 470.748,-297.461 474.487,-303.379"/>
</g>
<!-- Node20 -->
<g id="node40" class="node"><title>Node20</title>
<a xlink:href="../../d2/d05/classproject_1_1_project.html#a6054e079a2e370148fce27b138686ba3" target="_top" xlink:title="Get the ProjectSettings object which contains all project settings. ">
<polygon fill="white" stroke="black" points="476,-221.5 476,-242.5 614,-242.5 614,-221.5 476,-221.5"/>
<text text-anchor="middle" x="545" y="-229.5" font-family="Helvetica,sans-Serif" font-size="10.00">project::Project::getSettings</text>
</a>
</g>
<!-- Node3&#45;&gt;Node20 -->
<g id="edge40" class="edge"><title>Node3&#45;&gt;Node20</title>
<path fill="none" stroke="midnightblue" d="M353.168,-515.397C358.247,-474.567 382.176,-326.1 468,-252 469.784,-250.46 471.672,-249.036 473.642,-247.72"/>
<polygon fill="midnightblue" stroke="midnightblue" points="475.734,-250.56 482.742,-242.614 472.309,-244.455 475.734,-250.56"/>
</g>
<!-- Node21 -->
<g id="node42" class="node"><title>Node21</title>
<a xlink:href="../../d7/d04/classproject_1_1_project_settings.html#a4e1f38901d0cab44a6bdae922a877b22" target="_top" xlink:title="project::ProjectSettings\l::getLocaleOrder">
<polygon fill="white" stroke="black" points="485.5,-169 485.5,-203 604.5,-203 604.5,-169 485.5,-169"/>
<text text-anchor="start" x="493.5" y="-190" font-family="Helvetica,sans-Serif" font-size="10.00">project::ProjectSettings</text>
<text text-anchor="middle" x="545" y="-177" font-family="Helvetica,sans-Serif" font-size="10.00">::getLocaleOrder</text>
</a>
</g>
<!-- Node3&#45;&gt;Node21 -->
<g id="edge42" class="edge"><title>Node3&#45;&gt;Node21</title>
<path fill="none" stroke="midnightblue" d="M352.724,-515.318C356.282,-471.254 375.702,-301.728 468,-212 470.687,-209.388 473.646,-207.037 476.791,-204.923"/>
<polygon fill="midnightblue" stroke="midnightblue" points="478.609,-207.915 485.491,-199.859 475.088,-201.865 478.609,-207.915"/>
</g>
<!-- Node5 -->
<g id="node9" class="node"><title>Node5</title>
<a xlink:href="../../d4/d1c/class_file_path.html#a0a886a9edf5bf682f5245159661bfc94" target="_top" xlink:title="Check whether this object contains a valid filepath or not. ">
<polygon fill="white" stroke="black" points="684,-906.5 684,-927.5 772,-927.5 772,-906.5 684,-906.5"/>
<text text-anchor="middle" x="728" y="-914.5" font-family="Helvetica,sans-Serif" font-size="10.00">FilePath::isValid</text>
</a>
</g>
<!-- Node4&#45;&gt;Node5 -->
<g id="edge8" class="edge"><title>Node4&#45;&gt;Node5</title>
<path fill="none" stroke="midnightblue" d="M620.225,-912.877C638.186,-913.564 657.01,-914.285 673.81,-914.927"/>
<polygon fill="midnightblue" stroke="midnightblue" points="673.857,-918.431 683.983,-915.316 674.124,-911.437 673.857,-918.431"/>
</g>
<!-- Node4&#45;&gt;Node6 -->
<g id="edge10" class="edge"><title>Node4&#45;&gt;Node6</title>
<path fill="none" stroke="midnightblue" d="M594.522,-899.446C611.391,-895.851 630.69,-891.738 649.271,-887.778"/>
<polygon fill="midnightblue" stroke="midnightblue" points="650.152,-891.169 659.203,-885.662 648.693,-884.323 650.152,-891.169"/>
</g>
<!-- Node7 -->
<g id="node13" class="node"><title>Node7</title>
<a xlink:href="../../dd/d8a/classlibrary_1_1_library_base_element.html#a3de489fd5ff14ef1709e7ba41628ab3e" target="_top" xlink:title="Get the string of a specific locale from a QMap. ">
<polygon fill="white" stroke="black" points="834.5,-854 834.5,-888 971.5,-888 971.5,-854 834.5,-854"/>
<text text-anchor="start" x="842.5" y="-875" font-family="Helvetica,sans-Serif" font-size="10.00">library::LibraryBaseElement</text>
<text text-anchor="middle" x="903" y="-862" font-family="Helvetica,sans-Serif" font-size="10.00">::localeStringFromList</text>
</a>
</g>
<!-- Node6&#45;&gt;Node7 -->
<g id="edge12" class="edge"><title>Node6&#45;&gt;Node7</title>
<path fill="none" stroke="midnightblue" d="M796.662,-871C805.637,-871 814.89,-871 824.017,-871"/>
<polygon fill="midnightblue" stroke="midnightblue" points="824.248,-874.5 834.248,-871 824.248,-867.5 824.248,-874.5"/>
</g>
<!-- Node23 -->
<g id="node46" class="node"><title>Node23</title>
<a xlink:href="../../df/df0/class_length.html#ad9d64077c16d3a2631a87b69cea3426d" target="_top" xlink:title="Set the length in millimeters. ">
<polygon fill="white" stroke="black" points="489.5,-129.5 489.5,-150.5 600.5,-150.5 600.5,-129.5 489.5,-129.5"/>
<text text-anchor="middle" x="545" y="-137.5" font-family="Helvetica,sans-Serif" font-size="10.00">Length::setLengthMm</text>
</a>
</g>
<!-- Node22&#45;&gt;Node23 -->
<g id="edge46" class="edge"><title>Node22&#45;&gt;Node23</title>
<path fill="none" stroke="midnightblue" d="M392.93,-132.909C417.962,-134.076 450.56,-135.596 479.153,-136.929"/>
<polygon fill="midnightblue" stroke="midnightblue" points="479.332,-140.441 489.484,-137.411 479.658,-133.449 479.332,-140.441"/>
</g>
<!-- Node25 -->
<g id="node50" class="node"><title>Node25</title>
<a xlink:href="../../d0/d69/class_point.html#aaf8d7a6826dcd72e03dc632960106b90" target="_top" xlink:title="Map this Point object to a specific grid interval. ">
<polygon fill="white" stroke="black" points="498.5,-71.5 498.5,-92.5 591.5,-92.5 591.5,-71.5 498.5,-71.5"/>
<text text-anchor="middle" x="545" y="-79.5" font-family="Helvetica,sans-Serif" font-size="10.00">Point::mapToGrid</text>
</a>
</g>
<!-- Node22&#45;&gt;Node25 -->
<g id="edge50" class="edge"><title>Node22&#45;&gt;Node25</title>
<path fill="none" stroke="midnightblue" d="M392.71,-120.875C405.309,-117.727 419.232,-114.234 432,-111 452.398,-105.833 474.85,-100.084 494.33,-95.0757"/>
<polygon fill="midnightblue" stroke="midnightblue" points="495.406,-98.4127 504.219,-92.5314 493.662,-91.6335 495.406,-98.4127"/>
</g>
<!-- Node24 -->
<g id="node48" class="node"><title>Node24</title>
<a xlink:href="../../df/df0/class_length.html#a73dbcae99cc78c7f7e737d5211154527" target="_top" xlink:title="Set the length from a floating point number in nanometers. ">
<polygon fill="white" stroke="black" points="658.5,-129.5 658.5,-150.5 797.5,-150.5 797.5,-129.5 658.5,-129.5"/>
<text text-anchor="middle" x="728" y="-137.5" font-family="Helvetica,sans-Serif" font-size="10.00">Length::setLengthFromFloat</text>
</a>
</g>
<!-- Node23&#45;&gt;Node24 -->
<g id="edge48" class="edge"><title>Node23&#45;&gt;Node24</title>
<path fill="none" stroke="midnightblue" d="M600.9,-140C615.731,-140 632.04,-140 647.886,-140"/>
<polygon fill="midnightblue" stroke="midnightblue" points="648.212,-143.5 658.212,-140 648.212,-136.5 648.212,-143.5"/>
</g>
<!-- Node25&#45;&gt;Node25 -->
<g id="edge52" class="edge"><title>Node25&#45;&gt;Node25</title>
<path fill="none" stroke="midnightblue" d="M516.082,-92.7079C503.724,-101.653 513.363,-111 545,-111 565.762,-111 577.05,-106.975 578.864,-101.679"/>
<polygon fill="midnightblue" stroke="midnightblue" points="581.811,-99.7751 573.918,-92.7079 575.681,-103.155 581.811,-99.7751"/>
</g>
<!-- Node26&#45;&gt;Node25 -->
<g id="edge56" class="edge"><title>Node26&#45;&gt;Node25</title>
<path fill="none" stroke="midnightblue" d="M406.532,-88.457C432.118,-87.2639 462.592,-85.8429 488.429,-84.638"/>
<polygon fill="midnightblue" stroke="midnightblue" points="488.625,-88.1328 498.451,-84.1707 488.299,-81.1404 488.625,-88.1328"/>
</g>
</g>
</svg>
