<?xml version="1.0" encoding="UTF-8" standalone="no"?>
<!DOCTYPE svg PUBLIC "-//W3C//DTD SVG 1.1//EN"
 "http://www.w3.org/Graphics/SVG/1.1/DTD/svg11.dtd">
<!-- Generated by graphviz version 2.26.3 (20100126.1600)
 -->
<!-- Title: AttrTypeResistance Pages: 1 -->
<svg width="136pt" height="720pt"
 viewBox="0.00 0.00 136.00 720.00" xmlns="http://www.w3.org/2000/svg" xmlns:xlink="http://www.w3.org/1999/xlink">
<g id="graph1" class="graph" transform="scale(1 1) rotate(0) translate(4 716)">
<title>AttrTypeResistance</title>
<polygon fill="white" stroke="white" points="-4,5 -4,-716 133,-716 133,5 -4,5"/>
<!-- Node1 -->
<g id="node1" class="node"><title>Node1</title>
<polygon fill="#bfbfbf" stroke="black" points="0,-1 0,-155 122,-155 122,-1 0,-1"/>
<text text-anchor="middle" x="61" y="-142" font-family="Helvetica,sans-Serif" font-size="10.00">AttrTypeResistance</text>
<polyline fill="none" stroke="black" points="0,-134 122,-134 "/>
<text text-anchor="middle" x="61" y="-121" font-family="Helvetica,sans-Serif" font-size="10.00"> </text>
<polyline fill="none" stroke="black" points="0,-113 122,-113 "/>
<text text-anchor="start" x="8" y="-100" font-family="Helvetica,sans-Serif" font-size="10.00">+ isValueValid()</text>
<text text-anchor="start" x="8" y="-87" font-family="Helvetica,sans-Serif" font-size="10.00">+ valueFromTr()</text>
<text text-anchor="start" x="8" y="-74" font-family="Helvetica,sans-Serif" font-size="10.00">+ printableValueTr()</text>
<text text-anchor="start" x="8" y="-61" font-family="Helvetica,sans-Serif" font-size="10.00">+ instance()</text>
<text text-anchor="start" x="8" y="-48" font-family="Helvetica,sans-Serif" font-size="10.00">&#45; AttrTypeResistance()</text>
<text text-anchor="start" x="8" y="-35" font-family="Helvetica,sans-Serif" font-size="10.00">&#45; operator=()</text>
<text text-anchor="start" x="8" y="-22" font-family="Helvetica,sans-Serif" font-size="10.00">&#45; AttrTypeResistance()</text>
<text text-anchor="start" x="8" y="-9" font-family="Helvetica,sans-Serif" font-size="10.00">&#45; ~AttrTypeResistance()</text>
</g>
<!-- Node2 -->
<g id="node2" class="node"><title>Node2</title>
<a xlink:href="../../d8/d57/class_attribute_type.html" target="_top" xlink:title="The AttributeType class. ">
<polygon fill="white" stroke="black" points="3.5,-195 3.5,-505 118.5,-505 118.5,-195 3.5,-195"/>
<text text-anchor="middle" x="61" y="-492" font-family="Helvetica,sans-Serif" font-size="10.00">AttributeType</text>
<polyline fill="none" stroke="black" points="3.5,-484 118.5,-484 "/>
<text text-anchor="start" x="11.5" y="-471" font-family="Helvetica,sans-Serif" font-size="10.00"># mType</text>
<text text-anchor="start" x="11.5" y="-458" font-family="Helvetica,sans-Serif" font-size="10.00"># mTypeName</text>
<text text-anchor="start" x="11.5" y="-445" font-family="Helvetica,sans-Serif" font-size="10.00"># mTypeNameTr</text>
<text text-anchor="start" x="11.5" y="-432" font-family="Helvetica,sans-Serif" font-size="10.00"># mAvailableUnits</text>
<polyline fill="none" stroke="black" points="3.5,-424 118.5,-424 "/>
<text text-anchor="start" x="11.5" y="-411" font-family="Helvetica,sans-Serif" font-size="10.00">+ AttributeType()</text>
<text text-anchor="start" x="11.5" y="-398" font-family="Helvetica,sans-Serif" font-size="10.00">+ ~AttributeType()</text>
<text text-anchor="start" x="11.5" y="-385" font-family="Helvetica,sans-Serif" font-size="10.00">+ getType()</text>
<text text-anchor="start" x="11.5" y="-372" font-family="Helvetica,sans-Serif" font-size="10.00">+ getName()</text>
<text text-anchor="start" x="11.5" y="-359" font-family="Helvetica,sans-Serif" font-size="10.00">+ getNameTr()</text>
<text text-anchor="start" x="11.5" y="-346" font-family="Helvetica,sans-Serif" font-size="10.00">+ getAvailableUnits()</text>
<text text-anchor="start" x="11.5" y="-333" font-family="Helvetica,sans-Serif" font-size="10.00">+ getUnitFromString()</text>
<text text-anchor="start" x="11.5" y="-320" font-family="Helvetica,sans-Serif" font-size="10.00">+ getDefaultUnit()</text>
<text text-anchor="start" x="11.5" y="-307" font-family="Helvetica,sans-Serif" font-size="10.00">+ throwIfValueInvalid()</text>
<text text-anchor="start" x="11.5" y="-294" font-family="Helvetica,sans-Serif" font-size="10.00">+ isValueValid()</text>
<text text-anchor="start" x="11.5" y="-281" font-family="Helvetica,sans-Serif" font-size="10.00">+ valueFromTr()</text>
<text text-anchor="start" x="11.5" y="-268" font-family="Helvetica,sans-Serif" font-size="10.00">+ printableValueTr()</text>
<text text-anchor="start" x="11.5" y="-255" font-family="Helvetica,sans-Serif" font-size="10.00">+ getAllTypes()</text>
<text text-anchor="start" x="11.5" y="-242" font-family="Helvetica,sans-Serif" font-size="10.00">+ fromString()</text>
<text text-anchor="start" x="11.5" y="-229" font-family="Helvetica,sans-Serif" font-size="10.00"># AttributeType()</text>
<text text-anchor="start" x="11.5" y="-216" font-family="Helvetica,sans-Serif" font-size="10.00"># AttributeType()</text>
<text text-anchor="start" x="11.5" y="-203" font-family="Helvetica,sans-Serif" font-size="10.00"># operator=()</text>
</a>
</g>
<!-- Node2&#45;&gt;Node1 -->
<g id="edge2" class="edge"><title>Node2&#45;&gt;Node1</title>
<path fill="none" stroke="midnightblue" d="M61,-184.7C61,-174.536 61,-164.601 61,-155.137"/>
<polygon fill="none" stroke="midnightblue" points="57.5001,-184.931 61,-194.931 64.5001,-184.931 57.5001,-184.931"/>
</g>
<!-- Node3 -->
<g id="node4" class="node"><title>Node3</title>
<a xlink:href="../../d7/d08/class_attribute_unit.html" target="_top" xlink:title="The AttributeUnit class. ">
<polygon fill="white" stroke="black" points="15,-557 15,-711 107,-711 107,-557 15,-557"/>
<text text-anchor="middle" x="61" y="-698" font-family="Helvetica,sans-Serif" font-size="10.00">AttributeUnit</text>
<polyline fill="none" stroke="black" points="15,-690 107,-690 "/>
<text text-anchor="start" x="23" y="-677" font-family="Helvetica,sans-Serif" font-size="10.00">&#45; mName</text>
<text text-anchor="start" x="23" y="-664" font-family="Helvetica,sans-Serif" font-size="10.00">&#45; mSymbolTr</text>
<polyline fill="none" stroke="black" points="15,-656 107,-656 "/>
<text text-anchor="start" x="23" y="-643" font-family="Helvetica,sans-Serif" font-size="10.00">+ AttributeUnit()</text>
<text text-anchor="start" x="23" y="-630" font-family="Helvetica,sans-Serif" font-size="10.00">+ ~AttributeUnit()</text>
<text text-anchor="start" x="23" y="-617" font-family="Helvetica,sans-Serif" font-size="10.00">+ getName()</text>
<text text-anchor="start" x="23" y="-604" font-family="Helvetica,sans-Serif" font-size="10.00">+ getSymbolTr()</text>
<text text-anchor="start" x="23" y="-591" font-family="Helvetica,sans-Serif" font-size="10.00">&#45; AttributeUnit()</text>
<text text-anchor="start" x="23" y="-578" font-family="Helvetica,sans-Serif" font-size="10.00">&#45; AttributeUnit()</text>
<text text-anchor="start" x="23" y="-565" font-family="Helvetica,sans-Serif" font-size="10.00">&#45; operator=()</text>
</a>
</g>
<!-- Node3&#45;&gt;Node2 -->
<g id="edge4" class="edge"><title>Node3&#45;&gt;Node2</title>
<path fill="none" stroke="#404040" d="M61,-556.771C61,-544.257 61,-530.89 61,-517.2"/>
<polygon fill="none" stroke="#404040" points="61.0001,-517.099 57,-511.099 61,-505.099 65,-511.099 61.0001,-517.099"/>
<text text-anchor="middle" x="94.5" y="-528.5" font-family="Helvetica,sans-Serif" font-size="10.00"> #mDefaultUnit</text>
</g>
</g>
</svg>
