<?xml version="1.0" encoding="UTF-8" standalone="no"?>
<!DOCTYPE svg PUBLIC "-//W3C//DTD SVG 1.1//EN"
 "http://www.w3.org/Graphics/SVG/1.1/DTD/svg11.dtd">
<!-- Generated by graphviz version 2.26.3 (20100126.1600)
 -->
<!-- Title: /home/travis/build/LibrePCB/LibrePCB/libs/librepcblibrary/moc/moc_libraryelement.cpp Pages: 1 -->
<svg width="473pt" height="388pt"
 viewBox="0.00 0.00 473.01 388.00" xmlns="http://www.w3.org/2000/svg" xmlns:xlink="http://www.w3.org/1999/xlink">
<g id="graph1" class="graph" transform="scale(1 1) rotate(0) translate(4 384)">
<title>/home/travis/build/LibrePCB/LibrePCB/libs/librepcblibrary/moc/moc_libraryelement.cpp</title>
<polygon fill="white" stroke="white" points="-4,5 -4,-384 470.009,-384 470.009,5 -4,5"/>
<!-- Node1 -->
<g id="node1" class="node"><title>Node1</title>
<polygon fill="#bfbfbf" stroke="black" points="145.509,-319 145.509,-379 270.509,-379 270.509,-319 145.509,-319"/>
<text text-anchor="start" x="153.509" y="-366" font-family="Helvetica,sans-Serif" font-size="10.00">/home/travis/build</text>
<text text-anchor="start" x="153.509" y="-353" font-family="Helvetica,sans-Serif" font-size="10.00">/LibrePCB/LibrePCB/libs</text>
<text text-anchor="start" x="153.509" y="-340" font-family="Helvetica,sans-Serif" font-size="10.00">/librepcblibrary/moc/moc</text>
<text text-anchor="middle" x="208.009" y="-327" font-family="Helvetica,sans-Serif" font-size="10.00">_libraryelement.cpp</text>
</g>
<!-- Node2 -->
<g id="node3" class="node"><title>Node2</title>
<a xlink:href="../../d0/db0/libraryelement_8h.html" target="_top" xlink:title="../libraryelement.h">
<polygon fill="white" stroke="black" points="43.5093,-260.5 43.5093,-281.5 138.509,-281.5 138.509,-260.5 43.5093,-260.5"/>
<text text-anchor="middle" x="91.0093" y="-268.5" font-family="Helvetica,sans-Serif" font-size="10.00">../libraryelement.h</text>
</a>
</g>
<!-- Node1&#45;&gt;Node2 -->
<g id="edge2" class="edge"><title>Node1&#45;&gt;Node2</title>
<path fill="none" stroke="midnightblue" d="M162.774,-318.843C146.633,-308.082 129.069,-296.373 115.357,-287.232"/>
<polygon fill="midnightblue" stroke="midnightblue" points="117.219,-284.267 106.957,-281.632 113.336,-290.091 117.219,-284.267"/>
</g>
<!-- Node10 -->
<g id="node23" class="node"><title>Node10</title>
<polygon fill="white" stroke="#bfbfbf" points="155.509,-260.5 155.509,-281.5 260.509,-281.5 260.509,-260.5 155.509,-260.5"/>
<text text-anchor="middle" x="208.009" y="-268.5" font-family="Helvetica,sans-Serif" font-size="10.00">QtCore/qbytearray.h</text>
</g>
<!-- Node1&#45;&gt;Node10 -->
<g id="edge26" class="edge"><title>Node1&#45;&gt;Node10</title>
<path fill="none" stroke="midnightblue" d="M208.009,-318.62C208.009,-309.68 208.009,-300.103 208.009,-291.9"/>
<polygon fill="midnightblue" stroke="midnightblue" points="211.509,-291.753 208.009,-281.753 204.509,-291.753 211.509,-291.753"/>
</g>
<!-- Node11 -->
<g id="node25" class="node"><title>Node11</title>
<polygon fill="white" stroke="#bfbfbf" points="277.509,-260.5 277.509,-281.5 382.509,-281.5 382.509,-260.5 277.509,-260.5"/>
<text text-anchor="middle" x="330.009" y="-268.5" font-family="Helvetica,sans-Serif" font-size="10.00">QtCore/qmetatype.h</text>
</g>
<!-- Node1&#45;&gt;Node11 -->
<g id="edge28" class="edge"><title>Node1&#45;&gt;Node11</title>
<path fill="none" stroke="midnightblue" d="M255.178,-318.843C272.009,-308.082 290.323,-296.373 304.621,-287.232"/>
<polygon fill="midnightblue" stroke="midnightblue" points="306.84,-289.967 313.38,-281.632 303.07,-284.07 306.84,-289.967"/>
</g>
<!-- Node3 -->
<g id="node5" class="node"><title>Node3</title>
<polygon fill="white" stroke="#bfbfbf" points="181.009,-0.5 181.009,-21.5 229.009,-21.5 229.009,-0.5 181.009,-0.5"/>
<text text-anchor="middle" x="205.009" y="-8.5" font-family="Helvetica,sans-Serif" font-size="10.00">QtCore</text>
</g>
<!-- Node2&#45;&gt;Node3 -->
<g id="edge4" class="edge"><title>Node2&#45;&gt;Node3</title>
<path fill="none" stroke="midnightblue" d="M76.0391,-260.381C45.5046,-237.342 -19.0438,-180.747 6.00929,-130 37.9673,-65.2659 122.812,-32.8291 170.76,-19.2074"/>
<polygon fill="midnightblue" stroke="midnightblue" points="171.953,-22.5102 180.683,-16.5075 170.115,-15.7557 171.953,-22.5102"/>
</g>
<!-- Node4 -->
<g id="node7" class="node"><title>Node4</title>
<a xlink:href="../../de/dd7/librarybaseelement_8h.html" target="_top" xlink:title="librarybaseelement.h">
<polygon fill="white" stroke="black" points="141.509,-202.5 141.509,-223.5 248.509,-223.5 248.509,-202.5 141.509,-202.5"/>
<text text-anchor="middle" x="195.009" y="-210.5" font-family="Helvetica,sans-Serif" font-size="10.00">librarybaseelement.h</text>
</a>
</g>
<!-- Node2&#45;&gt;Node4 -->
<g id="edge6" class="edge"><title>Node2&#45;&gt;Node4</title>
<path fill="none" stroke="midnightblue" d="M110.084,-260.362C126.064,-251.45 149.09,-238.609 167.136,-228.545"/>
<polygon fill="midnightblue" stroke="midnightblue" points="169.026,-231.498 176.055,-223.571 165.617,-225.385 169.026,-231.498"/>
</g>
<!-- Node5 -->
<g id="node9" class="node"><title>Node5</title>
<polygon fill="white" stroke="#bfbfbf" points="14.5093,-137.5 14.5093,-158.5 67.5093,-158.5 67.5093,-137.5 14.5093,-137.5"/>
<text text-anchor="middle" x="41.0093" y="-145.5" font-family="Helvetica,sans-Serif" font-size="10.00">QObject</text>
</g>
<!-- Node4&#45;&gt;Node5 -->
<g id="edge8" class="edge"><title>Node4&#45;&gt;Node5</title>
<path fill="none" stroke="midnightblue" d="M165.819,-202.393C141.521,-193.344 106.154,-179.664 76.0093,-166 73.9867,-165.083 71.9136,-164.109 69.8353,-163.107"/>
<polygon fill="midnightblue" stroke="midnightblue" points="71.3439,-159.948 60.832,-158.625 68.2244,-166.215 71.3439,-159.948"/>
</g>
<!-- Node6 -->
<g id="node11" class="node"><title>Node6</title>
<a xlink:href="../../d0/d1d/if__xmlserializableobject_8h.html" target="_top" xlink:title="librepcbcommon/fileio\l/if_xmlserializableobject.h">
<polygon fill="white" stroke="black" points="84.5093,-131 84.5093,-165 213.509,-165 213.509,-131 84.5093,-131"/>
<text text-anchor="start" x="92.5093" y="-152" font-family="Helvetica,sans-Serif" font-size="10.00">librepcbcommon/fileio</text>
<text text-anchor="middle" x="149.009" y="-139" font-family="Helvetica,sans-Serif" font-size="10.00">/if_xmlserializableobject.h</text>
</a>
</g>
<!-- Node4&#45;&gt;Node6 -->
<g id="edge10" class="edge"><title>Node4&#45;&gt;Node6</title>
<path fill="none" stroke="midnightblue" d="M187.413,-202.267C181.887,-194.458 174.165,-183.546 167.093,-173.554"/>
<polygon fill="midnightblue" stroke="midnightblue" points="169.751,-171.251 161.118,-165.11 164.038,-175.294 169.751,-171.251"/>
</g>
<!-- Node7 -->
<g id="node13" class="node"><title>Node7</title>
<a xlink:href="../../d4/d03/exceptions_8h.html" target="_top" xlink:title="../exceptions.h">
<polygon fill="white" stroke="black" points="108.509,-65.5 108.509,-86.5 189.509,-86.5 189.509,-65.5 108.509,-65.5"/>
<text text-anchor="middle" x="149.009" y="-73.5" font-family="Helvetica,sans-Serif" font-size="10.00">../exceptions.h</text>
</a>
</g>
<!-- Node4&#45;&gt;Node7 -->
<g id="edge16" class="edge"><title>Node4&#45;&gt;Node7</title>
<path fill="none" stroke="midnightblue" d="M203.585,-202.377C215.54,-186.188 234.424,-154.626 222.009,-130 216.863,-119.792 194.118,-103.819 175.367,-91.889"/>
<polygon fill="midnightblue" stroke="midnightblue" points="177.179,-88.8944 166.844,-86.5641 173.47,-94.8311 177.179,-88.8944"/>
</g>
<!-- Node8 -->
<g id="node17" class="node"><title>Node8</title>
<a xlink:href="../../dd/dec/filepath_8h.html" target="_top" xlink:title="librepcbcommon/fileio\l/filepath.h">
<polygon fill="white" stroke="black" points="206.509,-59 206.509,-93 317.509,-93 317.509,-59 206.509,-59"/>
<text text-anchor="start" x="214.509" y="-80" font-family="Helvetica,sans-Serif" font-size="10.00">librepcbcommon/fileio</text>
<text text-anchor="middle" x="262.009" y="-67" font-family="Helvetica,sans-Serif" font-size="10.00">/filepath.h</text>
</a>
</g>
<!-- Node4&#45;&gt;Node8 -->
<g id="edge18" class="edge"><title>Node4&#45;&gt;Node8</title>
<path fill="none" stroke="midnightblue" d="M207.71,-202.27C217.361,-193.459 230.257,-180.164 238.009,-166 248.768,-146.343 254.912,-121.596 258.284,-103.029"/>
<polygon fill="midnightblue" stroke="midnightblue" points="261.737,-103.598 259.924,-93.1592 254.832,-102.45 261.737,-103.598"/>
</g>
<!-- Node9 -->
<g id="node20" class="node"><title>Node9</title>
<a xlink:href="../../df/dfc/version_8h.html" target="_top" xlink:title="librepcbcommon/version.h">
<polygon fill="white" stroke="black" points="334.509,-65.5 334.509,-86.5 465.509,-86.5 465.509,-65.5 334.509,-65.5"/>
<text text-anchor="middle" x="400.009" y="-73.5" font-family="Helvetica,sans-Serif" font-size="10.00">librepcbcommon/version.h</text>
</a>
</g>
<!-- Node4&#45;&gt;Node9 -->
<g id="edge22" class="edge"><title>Node4&#45;&gt;Node9</title>
<path fill="none" stroke="midnightblue" d="M210.755,-202.477C246.38,-178.669 333.362,-120.54 375.853,-92.1436"/>
<polygon fill="midnightblue" stroke="midnightblue" points="377.84,-95.0249 384.21,-86.5585 373.951,-89.2049 377.84,-95.0249"/>
</g>
<!-- Node6&#45;&gt;Node7 -->
<g id="edge12" class="edge"><title>Node6&#45;&gt;Node7</title>
<path fill="none" stroke="midnightblue" d="M149.009,-130.937C149.009,-120.814 149.009,-107.898 149.009,-97.1329"/>
<polygon fill="midnightblue" stroke="midnightblue" points="152.509,-96.901 149.009,-86.901 145.509,-96.9011 152.509,-96.901"/>
</g>
<!-- Node7&#45;&gt;Node3 -->
<g id="edge14" class="edge"><title>Node7&#45;&gt;Node3</title>
<path fill="none" stroke="midnightblue" d="M158.257,-65.2666C166.656,-55.5173 179.222,-40.9317 189.212,-29.3365"/>
<polygon fill="midnightblue" stroke="midnightblue" points="192.059,-31.3943 195.934,-21.5337 186.755,-26.8253 192.059,-31.3943"/>
</g>
<!-- Node8&#45;&gt;Node3 -->
<g id="edge20" class="edge"><title>Node8&#45;&gt;Node3</title>
<path fill="none" stroke="midnightblue" d="M247.033,-58.922C239.074,-49.8453 229.282,-38.6793 221.153,-29.4097"/>
<polygon fill="midnightblue" stroke="midnightblue" points="223.751,-27.0631 214.526,-21.8521 218.487,-31.6784 223.751,-27.0631"/>
</g>
<!-- Node9&#45;&gt;Node3 -->
<g id="edge24" class="edge"><title>Node9&#45;&gt;Node3</title>
<path fill="none" stroke="midnightblue" d="M368.245,-65.412C332.634,-53.5415 275.123,-34.3711 238.731,-22.2407"/>
<polygon fill="midnightblue" stroke="midnightblue" points="239.657,-18.8598 229.063,-19.0179 237.443,-25.5006 239.657,-18.8598"/>
</g>
</g>
</svg>
