<?xml version="1.0" encoding="UTF-8" standalone="no"?>
<!DOCTYPE svg PUBLIC "-//W3C//DTD SVG 1.1//EN"
 "http://www.w3.org/Graphics/SVG/1.1/DTD/svg11.dtd">
<!-- Generated by graphviz version 2.26.3 (20100126.1600)
 -->
<!-- Title: accept Pages: 1 -->
<svg width="328pt" height="42pt"
 viewBox="0.00 0.00 328.00 42.00" xmlns="http://www.w3.org/2000/svg" xmlns:xlink="http://www.w3.org/1999/xlink">
<g id="graph1" class="graph" transform="scale(1 1) rotate(0) translate(4 38)">
<title>accept</title>
<polygon fill="white" stroke="white" points="-4,5 -4,-38 325,-38 325,5 -4,5"/>
<!-- Node1 -->
<g id="node1" class="node"><title>Node1</title>
<polygon fill="#bfbfbf" stroke="black" points="0,-6.5 0,-27.5 46,-27.5 46,-6.5 0,-6.5"/>
<text text-anchor="middle" x="23" y="-14.5" font-family="Helvetica,sans-Serif" font-size="10.00">accept</text>
</g>
<!-- Node2 -->
<g id="node3" class="node"><title>Node2</title>
<a xlink:href="../../de/d52/class_workspace_settings.html#a5bc0f0d3031418d5afd33af2d41e076e" target="_top" xlink:title="WorkspaceSettings::\lapplyAll">
<polygon fill="white" stroke="black" points="82,-0 82,-34 190,-34 190,-0 82,-0"/>
<text text-anchor="start" x="90" y="-21" font-family="Helvetica,sans-Serif" font-size="10.00">WorkspaceSettings::</text>
<text text-anchor="middle" x="136" y="-8" font-family="Helvetica,sans-Serif" font-size="10.00">applyAll</text>
</a>
</g>
<!-- Node1&#45;&gt;Node2 -->
<g id="edge2" class="edge"><title>Node1&#45;&gt;Node2</title>
<path fill="none" stroke="midnightblue" d="M46.1399,-17C53.6461,-17 62.3762,-17 71.3875,-17"/>
<polygon fill="midnightblue" stroke="midnightblue" points="71.6307,-20.5001 81.6307,-17 71.6307,-13.5001 71.6307,-20.5001"/>
</g>
<!-- Node3 -->
<g id="node5" class="node"><title>Node3</title>
<a xlink:href="../../d4/dda/class_w_s_i___base.html#ae8035f1283a63c55fbbfb4e786db8a98" target="_top" xlink:title="WSI_Base::apply">
<polygon fill="white" stroke="black" points="226.5,-6.5 226.5,-27.5 319.5,-27.5 319.5,-6.5 226.5,-6.5"/>
<text text-anchor="middle" x="273" y="-14.5" font-family="Helvetica,sans-Serif" font-size="10.00">WSI_Base::apply</text>
</a>
</g>
<!-- Node2&#45;&gt;Node3 -->
<g id="edge4" class="edge"><title>Node2&#45;&gt;Node3</title>
<path fill="none" stroke="midnightblue" d="M190.146,-17C198.747,-17 207.664,-17 216.322,-17"/>
<polygon fill="midnightblue" stroke="midnightblue" points="216.331,-20.5001 226.331,-17 216.331,-13.5001 216.331,-20.5001"/>
</g>
</g>
</svg>
