<?xml version="1.0" encoding="UTF-8" standalone="no"?>
<!DOCTYPE svg PUBLIC "-//W3C//DTD SVG 1.1//EN"
 "http://www.w3.org/Graphics/SVG/1.1/DTD/svg11.dtd">
<!-- Generated by graphviz version 2.26.3 (20100126.1600)
 -->
<!-- Title: undo Pages: 1 -->
<svg width="556pt" height="190pt"
 viewBox="0.00 0.00 556.00 190.00" xmlns="http://www.w3.org/2000/svg" xmlns:xlink="http://www.w3.org/1999/xlink">
<g id="graph1" class="graph" transform="scale(1 1) rotate(0) translate(4 186)">
<title>undo</title>
<polygon fill="white" stroke="white" points="-4,5 -4,-186 553,-186 553,5 -4,5"/>
<!-- Node1 -->
<g id="node1" class="node"><title>Node1</title>
<polygon fill="#bfbfbf" stroke="black" points="0,-80.5 0,-101.5 38,-101.5 38,-80.5 0,-80.5"/>
<text text-anchor="middle" x="19" y="-88.5" font-family="Helvetica,sans-Serif" font-size="10.00">undo</text>
</g>
<!-- Node2 -->
<g id="node3" class="node"><title>Node2</title>
<a xlink:href="../../d2/d05/classproject_1_1_project.html#a76f48efb90b1c6b4f9b4f0626513858a" target="_top" xlink:title="Set the name of the project. ">
<polygon fill="white" stroke="black" points="86,-160.5 86,-181.5 214,-181.5 214,-160.5 86,-160.5"/>
<text text-anchor="middle" x="150" y="-168.5" font-family="Helvetica,sans-Serif" font-size="10.00">project::Project::setName</text>
</a>
</g>
<!-- Node1&#45;&gt;Node2 -->
<g id="edge2" class="edge"><title>Node1&#45;&gt;Node2</title>
<path fill="none" stroke="midnightblue" d="M25.8348,-101.613C35.1062,-115.141 52.9499,-138.293 74,-151 77.4494,-153.082 81.1144,-154.95 84.8992,-156.626"/>
<polygon fill="midnightblue" stroke="midnightblue" points="83.9127,-159.999 94.4997,-160.406 86.4775,-153.485 83.9127,-159.999"/>
</g>
<!-- Node3 -->
<g id="node5" class="node"><title>Node3</title>
<a xlink:href="../../d2/d05/classproject_1_1_project.html#ac1485ee71d1b2853ae2e2ab0b25f506a" target="_top" xlink:title="Set the description (in HTML) of the project. ">
<polygon fill="white" stroke="black" points="74,-120.5 74,-141.5 226,-141.5 226,-120.5 74,-120.5"/>
<text text-anchor="middle" x="150" y="-128.5" font-family="Helvetica,sans-Serif" font-size="10.00">project::Project::setDescription</text>
</a>
</g>
<!-- Node1&#45;&gt;Node3 -->
<g id="edge4" class="edge"><title>Node1&#45;&gt;Node3</title>
<path fill="none" stroke="midnightblue" d="M38.1977,-98.4697C48.6955,-102.43 61.9753,-107.24 74,-111 81.508,-113.348 89.4891,-115.652 97.3493,-117.814"/>
<polygon fill="midnightblue" stroke="midnightblue" points="96.63,-121.245 107.196,-120.469 98.4521,-114.486 96.63,-121.245"/>
</g>
<!-- Node4 -->
<g id="node7" class="node"><title>Node4</title>
<a xlink:href="../../d2/d05/classproject_1_1_project.html#afdcf25db6238fd43e072256ac0b4037f" target="_top" xlink:title="Set the author of the project. ">
<polygon fill="white" stroke="black" points="84.5,-80.5 84.5,-101.5 215.5,-101.5 215.5,-80.5 84.5,-80.5"/>
<text text-anchor="middle" x="150" y="-88.5" font-family="Helvetica,sans-Serif" font-size="10.00">project::Project::setAuthor</text>
</a>
</g>
<!-- Node1&#45;&gt;Node4 -->
<g id="edge6" class="edge"><title>Node1&#45;&gt;Node4</title>
<path fill="none" stroke="midnightblue" d="M38.0485,-91C47.9444,-91 60.7547,-91 74.1578,-91"/>
<polygon fill="midnightblue" stroke="midnightblue" points="74.4843,-94.5001 84.4843,-91 74.4842,-87.5001 74.4843,-94.5001"/>
</g>
<!-- Node5 -->
<g id="node9" class="node"><title>Node5</title>
<a xlink:href="../../d2/d05/classproject_1_1_project.html#ad87c0e01ee713c04be68468385565f04" target="_top" xlink:title="Set the date and time when the project was created. ">
<polygon fill="white" stroke="black" points="81.5,-40.5 81.5,-61.5 218.5,-61.5 218.5,-40.5 81.5,-40.5"/>
<text text-anchor="middle" x="150" y="-48.5" font-family="Helvetica,sans-Serif" font-size="10.00">project::Project::setCreated</text>
</a>
</g>
<!-- Node1&#45;&gt;Node5 -->
<g id="edge8" class="edge"><title>Node1&#45;&gt;Node5</title>
<path fill="none" stroke="midnightblue" d="M38.1977,-83.5303C48.6955,-79.5697 61.9753,-74.7599 74,-71 81.508,-68.6524 89.4891,-66.3478 97.3493,-64.1859"/>
<polygon fill="midnightblue" stroke="midnightblue" points="98.4521,-67.5136 107.196,-61.5313 96.63,-60.7549 98.4521,-67.5136"/>
</g>
<!-- Node6 -->
<g id="node11" class="node"><title>Node6</title>
<a xlink:href="../../d3/d26/class_undo_command.html#a0e1e7804a53f6d62efc72c9bdbec8571" target="_top" xlink:title="Undo the command (and all child commands in reverse order) ">
<polygon fill="white" stroke="black" points="94,-0.5 94,-21.5 206,-21.5 206,-0.5 94,-0.5"/>
<text text-anchor="middle" x="150" y="-8.5" font-family="Helvetica,sans-Serif" font-size="10.00">UndoCommand::undo</text>
</a>
</g>
<!-- Node1&#45;&gt;Node6 -->
<g id="edge10" class="edge"><title>Node1&#45;&gt;Node6</title>
<path fill="none" stroke="midnightblue" d="M25.8348,-80.3867C35.1062,-66.8586 52.9499,-43.7065 74,-31 77.4494,-28.9178 81.1144,-27.0499 84.8992,-25.3745"/>
<polygon fill="midnightblue" stroke="midnightblue" points="86.4775,-28.5146 94.4997,-21.594 83.9127,-22.0014 86.4775,-28.5146"/>
</g>
<!-- Node7 -->
<g id="node13" class="node"><title>Node7</title>
<a xlink:href="../../d3/d26/class_undo_command.html#ae57d776a4010cbabb44c03d9ac6514eb" target="_top" xlink:title="This method shows whether that command is executed (redo() called one time more than undo()) ...">
<polygon fill="white" stroke="black" points="408,-19.5 408,-40.5 548,-40.5 548,-19.5 408,-19.5"/>
<text text-anchor="middle" x="478" y="-27.5" font-family="Helvetica,sans-Serif" font-size="10.00">UndoCommand::isExecuted</text>
</a>
</g>
<!-- Node6&#45;&gt;Node7 -->
<g id="edge12" class="edge"><title>Node6&#45;&gt;Node7</title>
<path fill="none" stroke="midnightblue" d="M198.263,-21.5436C217.928,-25.3352 240.948,-29.1351 262,-31 310.698,-35.3139 323.112,-31.2306 372,-31 380.333,-30.9607 389.035,-30.904 397.714,-30.8373"/>
<polygon fill="midnightblue" stroke="midnightblue" points="397.897,-34.336 407.869,-30.7549 397.84,-27.3363 397.897,-34.336"/>
</g>
<!-- Node8 -->
<g id="node15" class="node"><title>Node8</title>
<a xlink:href="../../d3/d26/class_undo_command.html#a93c48d6ed036e1a381be53ac67643284" target="_top" xlink:title="Redo/execute the command (and all child commands in normal order) ">
<polygon fill="white" stroke="black" points="262,-0.5 262,-21.5 372,-21.5 372,-0.5 262,-0.5"/>
<text text-anchor="middle" x="317" y="-8.5" font-family="Helvetica,sans-Serif" font-size="10.00">UndoCommand::redo</text>
</a>
</g>
<!-- Node6&#45;&gt;Node8 -->
<g id="edge14" class="edge"><title>Node6&#45;&gt;Node8</title>
<path fill="none" stroke="midnightblue" d="M206.073,-4.58464C220.701,-4.21527 236.593,-4.15168 251.656,-4.39387"/>
<polygon fill="midnightblue" stroke="midnightblue" points="251.854,-7.89874 261.926,-4.61039 252.002,-0.900291 251.854,-7.89874"/>
</g>
<!-- Node8&#45;&gt;Node6 -->
<g id="edge18" class="edge"><title>Node8&#45;&gt;Node6</title>
<path fill="none" stroke="midnightblue" d="M261.926,-17.3896C247.356,-17.7729 231.476,-17.8505 216.376,-17.6222"/>
<polygon fill="midnightblue" stroke="midnightblue" points="216.141,-14.1169 206.073,-17.4154 216.001,-21.1155 216.141,-14.1169"/>
</g>
<!-- Node8&#45;&gt;Node7 -->
<g id="edge16" class="edge"><title>Node8&#45;&gt;Node7</title>
<path fill="none" stroke="midnightblue" d="M372.407,-17.5387C380.645,-18.5109 389.272,-19.529 397.893,-20.5464"/>
<polygon fill="midnightblue" stroke="midnightblue" points="397.645,-24.0414 407.987,-21.7376 398.466,-17.0896 397.645,-24.0414"/>
</g>
</g>
</svg>
