<?xml version="1.0" encoding="UTF-8" standalone="no"?>
<!DOCTYPE svg PUBLIC "-//W3C//DTD SVG 1.1//EN"
 "http://www.w3.org/Graphics/SVG/1.1/DTD/svg11.dtd">
<!-- Generated by graphviz version 2.26.3 (20100126.1600)
 -->
<!-- Title: removeFromCircuit Pages: 1 -->
<svg width="650pt" height="416pt"
 viewBox="0.00 0.00 650.00 416.00" xmlns="http://www.w3.org/2000/svg" xmlns:xlink="http://www.w3.org/1999/xlink">
<g id="graph1" class="graph" transform="scale(1 1) rotate(0) translate(4 412)">
<title>removeFromCircuit</title>
<polygon fill="white" stroke="white" points="-4,5 -4,-412 647,-412 647,5 -4,5"/>
<!-- Node1 -->
<g id="node1" class="node"><title>Node1</title>
<polygon fill="#bfbfbf" stroke="black" points="0,-219.5 0,-240.5 100,-240.5 100,-219.5 0,-219.5"/>
<text text-anchor="middle" x="50" y="-227.5" font-family="Helvetica,sans-Serif" font-size="10.00">removeFromCircuit</text>
</g>
<!-- Node2 -->
<g id="node3" class="node"><title>Node2</title>
<a xlink:href="../../d3/d93/classproject_1_1_net_signal.html#a09b8f71f7ed0d3890e755c7fb8f560a0" target="_top" xlink:title="project::NetSignal\l::unregisterGenCompSignal">
<polygon fill="white" stroke="black" points="136.5,-236 136.5,-270 273.5,-270 273.5,-236 136.5,-236"/>
<text text-anchor="start" x="144.5" y="-257" font-family="Helvetica,sans-Serif" font-size="10.00">project::NetSignal</text>
<text text-anchor="middle" x="205" y="-244" font-family="Helvetica,sans-Serif" font-size="10.00">::unregisterGenCompSignal</text>
</a>
</g>
<!-- Node1&#45;&gt;Node2 -->
<g id="edge2" class="edge"><title>Node1&#45;&gt;Node2</title>
<path fill="none" stroke="midnightblue" d="M100.324,-237.467C108.673,-238.706 117.505,-240.017 126.356,-241.33"/>
<polygon fill="midnightblue" stroke="midnightblue" points="125.927,-244.805 136.333,-242.811 126.955,-237.881 125.927,-244.805"/>
</g>
<!-- Node3 -->
<g id="node5" class="node"><title>Node3</title>
<a xlink:href="../../df/dce/classproject_1_1_gen_comp_signal_instance.html#a56ae9f28c406912ae4a5a893087a72ca" target="_top" xlink:title="updateErcMessages">
<polygon fill="white" stroke="black" points="152,-196.5 152,-217.5 258,-217.5 258,-196.5 152,-196.5"/>
<text text-anchor="middle" x="205" y="-204.5" font-family="Helvetica,sans-Serif" font-size="10.00">updateErcMessages</text>
</a>
</g>
<!-- Node1&#45;&gt;Node3 -->
<g id="edge4" class="edge"><title>Node1&#45;&gt;Node3</title>
<path fill="none" stroke="midnightblue" d="M100.324,-222.533C113.626,-220.559 128.15,-218.404 142.03,-216.344"/>
<polygon fill="midnightblue" stroke="midnightblue" points="142.618,-219.795 151.996,-214.865 141.59,-212.871 142.618,-219.795"/>
</g>
<!-- Node4 -->
<g id="node7" class="node"><title>Node4</title>
<a xlink:href="../../d1/d03/classproject_1_1_circuit.html#ac48a585009b5ee63f88e0c2b5357d6e9" target="_top" xlink:title="project::Circuit::getProject">
<polygon fill="white" stroke="black" points="313.5,-386.5 313.5,-407.5 444.5,-407.5 444.5,-386.5 313.5,-386.5"/>
<text text-anchor="middle" x="379" y="-394.5" font-family="Helvetica,sans-Serif" font-size="10.00">project::Circuit::getProject</text>
</a>
</g>
<!-- Node3&#45;&gt;Node4 -->
<g id="edge6" class="edge"><title>Node3&#45;&gt;Node4</title>
<path fill="none" stroke="midnightblue" d="M258.085,-215.922C264.016,-218.698 269.522,-222.308 274,-227 321.337,-276.595 262.663,-327.405 310,-377 311.243,-378.303 312.566,-379.522 313.955,-380.663"/>
<polygon fill="midnightblue" stroke="midnightblue" points="312.281,-383.753 322.544,-386.382 316.16,-377.927 312.281,-383.753"/>
</g>
<!-- Node5 -->
<g id="node9" class="node"><title>Node5</title>
<a xlink:href="../../d2/d05/classproject_1_1_project.html#a6054e079a2e370148fce27b138686ba3" target="_top" xlink:title="Get the ProjectSettings object which contains all project settings. ">
<polygon fill="white" stroke="black" points="310,-346.5 310,-367.5 448,-367.5 448,-346.5 310,-346.5"/>
<text text-anchor="middle" x="379" y="-354.5" font-family="Helvetica,sans-Serif" font-size="10.00">project::Project::getSettings</text>
</a>
</g>
<!-- Node3&#45;&gt;Node5 -->
<g id="edge8" class="edge"><title>Node3&#45;&gt;Node5</title>
<path fill="none" stroke="midnightblue" d="M258.077,-216.431C263.936,-219.127 269.426,-222.58 274,-227 310.99,-262.747 273.01,-301.253 310,-337 311.48,-338.43 313.056,-339.759 314.709,-340.994"/>
<polygon fill="midnightblue" stroke="midnightblue" points="313.18,-344.163 323.533,-346.415 316.845,-338.198 313.18,-344.163"/>
</g>
<!-- Node6 -->
<g id="node11" class="node"><title>Node6</title>
<a xlink:href="../../d7/d04/classproject_1_1_project_settings.html#a4e1f38901d0cab44a6bdae922a877b22" target="_top" xlink:title="project::ProjectSettings\l::getLocaleOrder">
<polygon fill="white" stroke="black" points="319.5,-294 319.5,-328 438.5,-328 438.5,-294 319.5,-294"/>
<text text-anchor="start" x="327.5" y="-315" font-family="Helvetica,sans-Serif" font-size="10.00">project::ProjectSettings</text>
<text text-anchor="middle" x="379" y="-302" font-family="Helvetica,sans-Serif" font-size="10.00">::getLocaleOrder</text>
</a>
</g>
<!-- Node3&#45;&gt;Node6 -->
<g id="edge10" class="edge"><title>Node3&#45;&gt;Node6</title>
<path fill="none" stroke="midnightblue" d="M257.125,-217.542C263.144,-220.051 268.931,-223.157 274,-227 298.177,-245.33 286.559,-265.739 310,-285 311.521,-286.25 313.108,-287.443 314.747,-288.582"/>
<polygon fill="midnightblue" stroke="midnightblue" points="312.968,-291.597 323.323,-293.838 316.626,-285.628 312.968,-291.597"/>
</g>
<!-- Node7 -->
<g id="node13" class="node"><title>Node7</title>
<a xlink:href="../../d4/d5f/classlibrary_1_1_gen_comp_signal.html#a01f0309d43de518f4e94c724d22f4502" target="_top" xlink:title="library::GenCompSignal\l::getName">
<polygon fill="white" stroke="black" points="319,-242 319,-276 439,-276 439,-242 319,-242"/>
<text text-anchor="start" x="327" y="-263" font-family="Helvetica,sans-Serif" font-size="10.00">library::GenCompSignal</text>
<text text-anchor="middle" x="379" y="-250" font-family="Helvetica,sans-Serif" font-size="10.00">::getName</text>
</a>
</g>
<!-- Node3&#45;&gt;Node7 -->
<g id="edge12" class="edge"><title>Node3&#45;&gt;Node7</title>
<path fill="none" stroke="midnightblue" d="M241.911,-217.598C252.298,-220.608 263.599,-223.908 274,-227 286.81,-230.808 300.48,-234.931 313.579,-238.911"/>
<polygon fill="midnightblue" stroke="midnightblue" points="312.874,-242.355 323.46,-241.918 314.913,-235.658 312.874,-242.355"/>
</g>
<!-- Node9 -->
<g id="node17" class="node"><title>Node9</title>
<a xlink:href="../../de/d67/classproject_1_1_gen_comp_instance.html#ab0c96f485564e41206ce9a4ce42ba389" target="_top" xlink:title="project::GenCompInstance\l::getName">
<polygon fill="white" stroke="black" points="312,-190 312,-224 446,-224 446,-190 312,-190"/>
<text text-anchor="start" x="320" y="-211" font-family="Helvetica,sans-Serif" font-size="10.00">project::GenCompInstance</text>
<text text-anchor="middle" x="379" y="-198" font-family="Helvetica,sans-Serif" font-size="10.00">::getName</text>
</a>
</g>
<!-- Node3&#45;&gt;Node9 -->
<g id="edge16" class="edge"><title>Node3&#45;&gt;Node9</title>
<path fill="none" stroke="midnightblue" d="M258.151,-207C271.874,-207 286.929,-207 301.614,-207"/>
<polygon fill="midnightblue" stroke="midnightblue" points="301.7,-210.5 311.7,-207 301.7,-203.5 301.7,-210.5"/>
</g>
<!-- Node10 -->
<g id="node19" class="node"><title>Node10</title>
<a xlink:href="../../d3/d93/classproject_1_1_net_signal.html#ab0c96f485564e41206ce9a4ce42ba389" target="_top" xlink:title="project::NetSignal\l::getName">
<polygon fill="white" stroke="black" points="331.5,-138 331.5,-172 426.5,-172 426.5,-138 331.5,-138"/>
<text text-anchor="start" x="339.5" y="-159" font-family="Helvetica,sans-Serif" font-size="10.00">project::NetSignal</text>
<text text-anchor="middle" x="379" y="-146" font-family="Helvetica,sans-Serif" font-size="10.00">::getName</text>
</a>
</g>
<!-- Node3&#45;&gt;Node10 -->
<g id="edge18" class="edge"><title>Node3&#45;&gt;Node10</title>
<path fill="none" stroke="midnightblue" d="M240.211,-196.477C263.56,-189.499 294.733,-180.183 321.62,-172.148"/>
<polygon fill="midnightblue" stroke="midnightblue" points="322.731,-175.469 331.31,-169.252 320.726,-168.762 322.731,-175.469"/>
</g>
<!-- Node11 -->
<g id="node21" class="node"><title>Node11</title>
<a xlink:href="../../df/dce/classproject_1_1_gen_comp_signal_instance.html#aa821b370fece67458578c040f67873e6" target="_top" xlink:title="getForcedNetSignalName">
<polygon fill="white" stroke="black" points="314.5,-98.5 314.5,-119.5 443.5,-119.5 443.5,-98.5 314.5,-98.5"/>
<text text-anchor="middle" x="379" y="-106.5" font-family="Helvetica,sans-Serif" font-size="10.00">getForcedNetSignalName</text>
</a>
</g>
<!-- Node3&#45;&gt;Node11 -->
<g id="edge20" class="edge"><title>Node3&#45;&gt;Node11</title>
<path fill="none" stroke="midnightblue" d="M216.363,-196.367C234.702,-179.74 272.569,-147.569 310,-129 314.562,-126.737 319.423,-124.687 324.373,-122.84"/>
<polygon fill="midnightblue" stroke="midnightblue" points="325.636,-126.107 333.946,-119.535 323.351,-119.49 325.636,-126.107"/>
</g>
<!-- Node14 -->
<g id="node27" class="node"><title>Node14</title>
<a xlink:href="../../d4/d5f/classlibrary_1_1_gen_comp_signal.html#a7b7ad6f6434c5a98612c3a4520f33901" target="_top" xlink:title="library::GenCompSignal\l::isRequired">
<polygon fill="white" stroke="black" points="319,-46 319,-80 439,-80 439,-46 319,-46"/>
<text text-anchor="start" x="327" y="-67" font-family="Helvetica,sans-Serif" font-size="10.00">library::GenCompSignal</text>
<text text-anchor="middle" x="379" y="-54" font-family="Helvetica,sans-Serif" font-size="10.00">::isRequired</text>
</a>
</g>
<!-- Node3&#45;&gt;Node14 -->
<g id="edge26" class="edge"><title>Node3&#45;&gt;Node14</title>
<path fill="none" stroke="midnightblue" d="M211.836,-196.308C226.91,-173.521 265.249,-119.747 310,-89 312.123,-87.5411 314.339,-86.1509 316.62,-84.8276"/>
<polygon fill="midnightblue" stroke="midnightblue" points="318.467,-87.8108 325.681,-80.0515 315.202,-81.6185 318.467,-87.8108"/>
</g>
<!-- Node15 -->
<g id="node29" class="node"><title>Node15</title>
<a xlink:href="../../df/dce/classproject_1_1_gen_comp_signal_instance.html#a5efcbff9463612d09935ed254844cc5b" target="_top" xlink:title="isNetSignalNameForced">
<polygon fill="white" stroke="black" points="317.5,-6.5 317.5,-27.5 440.5,-27.5 440.5,-6.5 317.5,-6.5"/>
<text text-anchor="middle" x="379" y="-14.5" font-family="Helvetica,sans-Serif" font-size="10.00">isNetSignalNameForced</text>
</a>
</g>
<!-- Node3&#45;&gt;Node15 -->
<g id="edge28" class="edge"><title>Node3&#45;&gt;Node15</title>
<path fill="none" stroke="midnightblue" d="M208.481,-196.349C218.819,-166.415 252.275,-80.866 310,-37 312.453,-35.1359 315.075,-33.4453 317.811,-31.912"/>
<polygon fill="midnightblue" stroke="midnightblue" points="319.389,-35.0367 326.867,-27.5313 316.341,-28.7353 319.389,-35.0367"/>
</g>
<!-- Node8 -->
<g id="node15" class="node"><title>Node8</title>
<a xlink:href="../../dd/d8a/classlibrary_1_1_library_base_element.html#a3de489fd5ff14ef1709e7ba41628ab3e" target="_top" xlink:title="Get the string of a specific locale from a QMap. ">
<polygon fill="white" stroke="black" points="494.5,-242 494.5,-276 631.5,-276 631.5,-242 494.5,-242"/>
<text text-anchor="start" x="502.5" y="-263" font-family="Helvetica,sans-Serif" font-size="10.00">library::LibraryBaseElement</text>
<text text-anchor="middle" x="563" y="-250" font-family="Helvetica,sans-Serif" font-size="10.00">::localeStringFromList</text>
</a>
</g>
<!-- Node7&#45;&gt;Node8 -->
<g id="edge14" class="edge"><title>Node7&#45;&gt;Node8</title>
<path fill="none" stroke="midnightblue" d="M439.248,-259C453.555,-259 469.029,-259 484.031,-259"/>
<polygon fill="midnightblue" stroke="midnightblue" points="484.322,-262.5 494.322,-259 484.322,-255.5 484.322,-262.5"/>
</g>
<!-- Node12 -->
<g id="node23" class="node"><title>Node12</title>
<a xlink:href="../../d4/d5f/classlibrary_1_1_gen_comp_signal.html#aaaec8b99650920ff82534ae863e5559b" target="_top" xlink:title="library::GenCompSignal\l::getForcedNetName">
<polygon fill="white" stroke="black" points="503,-124 503,-158 623,-158 623,-124 503,-124"/>
<text text-anchor="start" x="511" y="-145" font-family="Helvetica,sans-Serif" font-size="10.00">library::GenCompSignal</text>
<text text-anchor="middle" x="563" y="-132" font-family="Helvetica,sans-Serif" font-size="10.00">::getForcedNetName</text>
</a>
</g>
<!-- Node11&#45;&gt;Node12 -->
<g id="edge22" class="edge"><title>Node11&#45;&gt;Node12</title>
<path fill="none" stroke="midnightblue" d="M439.503,-119.522C456.49,-122.476 475.106,-125.714 492.614,-128.759"/>
<polygon fill="midnightblue" stroke="midnightblue" points="492.323,-132.261 502.774,-130.526 493.522,-125.364 492.323,-132.261"/>
</g>
<!-- Node13 -->
<g id="node25" class="node"><title>Node13</title>
<a xlink:href="../../d9/d41/class_i_f___attribute_provider.html#a64e9824168a64622ace994d0ce6dd8ba" target="_top" xlink:title="Replace all variables in a text with their attribute values. ">
<polygon fill="white" stroke="black" points="484.5,-72 484.5,-106 641.5,-106 641.5,-72 484.5,-72"/>
<text text-anchor="start" x="492.5" y="-93" font-family="Helvetica,sans-Serif" font-size="10.00">IF_AttributeProvider</text>
<text text-anchor="middle" x="563" y="-80" font-family="Helvetica,sans-Serif" font-size="10.00">::replaceVariablesWithAttributes</text>
</a>
</g>
<!-- Node11&#45;&gt;Node13 -->
<g id="edge24" class="edge"><title>Node11&#45;&gt;Node13</title>
<path fill="none" stroke="midnightblue" d="M443.613,-101.977C453.476,-100.905 463.801,-99.7825 474.075,-98.6657"/>
<polygon fill="midnightblue" stroke="midnightblue" points="474.75,-102.113 484.313,-97.5529 473.994,-95.1541 474.75,-102.113"/>
</g>
<!-- Node16 -->
<g id="node31" class="node"><title>Node16</title>
<a xlink:href="../../d4/d5f/classlibrary_1_1_gen_comp_signal.html#a5efcbff9463612d09935ed254844cc5b" target="_top" xlink:title="library::GenCompSignal\l::isNetSignalNameForced">
<polygon fill="white" stroke="black" points="498.5,-0 498.5,-34 627.5,-34 627.5,-0 498.5,-0"/>
<text text-anchor="start" x="506.5" y="-21" font-family="Helvetica,sans-Serif" font-size="10.00">library::GenCompSignal</text>
<text text-anchor="middle" x="563" y="-8" font-family="Helvetica,sans-Serif" font-size="10.00">::isNetSignalNameForced</text>
</a>
</g>
<!-- Node15&#45;&gt;Node16 -->
<g id="edge30" class="edge"><title>Node15&#45;&gt;Node16</title>
<path fill="none" stroke="midnightblue" d="M440.525,-17C455.78,-17 472.295,-17 488.11,-17"/>
<polygon fill="midnightblue" stroke="midnightblue" points="488.382,-20.5001 498.382,-17 488.382,-13.5001 488.382,-20.5001"/>
</g>
</g>
</svg>
