<?xml version="1.0" encoding="UTF-8" standalone="no"?>
<!DOCTYPE svg PUBLIC "-//W3C//DTD SVG 1.1//EN"
 "http://www.w3.org/Graphics/SVG/1.1/DTD/svg11.dtd">
<!-- Generated by graphviz version 2.26.3 (20100126.1600)
 -->
<!-- Title: isExistingFile Pages: 1 -->
<svg width="244pt" height="214pt"
 viewBox="0.00 0.00 244.00 214.00" xmlns="http://www.w3.org/2000/svg" xmlns:xlink="http://www.w3.org/1999/xlink">
<g id="graph1" class="graph" transform="scale(1 1) rotate(0) translate(4 210)">
<title>isExistingFile</title>
<polygon fill="white" stroke="white" points="-4,5 -4,-210 241,-210 241,5 -4,5"/>
<!-- Node1 -->
<g id="node1" class="node"><title>Node1</title>
<polygon fill="#bfbfbf" stroke="black" points="0.5,-104.5 0.5,-125.5 75.5,-125.5 75.5,-104.5 0.5,-104.5"/>
<text text-anchor="middle" x="38" y="-112.5" font-family="Helvetica,sans-Serif" font-size="10.00">isExistingFile</text>
</g>
<!-- Node2 -->
<g id="node3" class="node"><title>Node2</title>
<a xlink:href="../../d1/d7f/class_smart_file.html#ae26b12e9a273928cb2bef60733d53be3" target="_top" xlink:title="The destructor. ">
<polygon fill="white" stroke="black" points="117.5,-184.5 117.5,-205.5 230.5,-205.5 230.5,-184.5 117.5,-184.5"/>
<text text-anchor="middle" x="174" y="-192.5" font-family="Helvetica,sans-Serif" font-size="10.00">SmartFile::~SmartFile</text>
</a>
</g>
<!-- Node1&#45;&gt;Node2 -->
<g id="edge2" class="edge"><title>Node1&#45;&gt;Node2</title>
<path fill="none" stroke="midnightblue" d="M56.1396,-132.948C70.3272,-146.139 91.0925,-163.668 112,-175 118.762,-178.665 126.306,-181.794 133.739,-184.413"/>
<polygon fill="midnightblue" stroke="midnightblue" points="58.25,-130.124 48.5949,-125.762 53.4224,-135.193 58.25,-130.124"/>
</g>
<!-- Node3 -->
<g id="node5" class="node"><title>Node3</title>
<a xlink:href="../../d1/d7f/class_smart_file.html#aad04c6beb14eb767757a86a5f0d67893" target="_top" xlink:title="Remove the file from the file system. ">
<polygon fill="white" stroke="black" points="117.5,-144.5 117.5,-165.5 230.5,-165.5 230.5,-144.5 117.5,-144.5"/>
<text text-anchor="middle" x="174" y="-152.5" font-family="Helvetica,sans-Serif" font-size="10.00">SmartFile::removeFile</text>
</a>
</g>
<!-- Node1&#45;&gt;Node3 -->
<g id="edge4" class="edge"><title>Node1&#45;&gt;Node3</title>
<path fill="none" stroke="midnightblue" d="M83.3418,-128.336C101.137,-133.57 121.269,-139.491 138.034,-144.422"/>
<polygon fill="midnightblue" stroke="midnightblue" points="84.3137,-124.973 73.7324,-125.51 82.3385,-131.689 84.3137,-124.973"/>
</g>
<!-- Node4 -->
<g id="node7" class="node"><title>Node4</title>
<a xlink:href="../../dc/d03/class_smart_ini_file.html#a505580327a442b26f4ff537e68201ed1" target="_top" xlink:title="Write all changes to the file system. ">
<polygon fill="white" stroke="black" points="126,-104.5 126,-125.5 222,-125.5 222,-104.5 126,-104.5"/>
<text text-anchor="middle" x="174" y="-112.5" font-family="Helvetica,sans-Serif" font-size="10.00">SmartIniFile::save</text>
</a>
</g>
<!-- Node1&#45;&gt;Node4 -->
<g id="edge6" class="edge"><title>Node1&#45;&gt;Node4</title>
<path fill="none" stroke="midnightblue" d="M85.6912,-115C98.7146,-115 112.832,-115 125.88,-115"/>
<polygon fill="midnightblue" stroke="midnightblue" points="85.5226,-111.5 75.5226,-115 85.5226,-118.5 85.5226,-111.5"/>
</g>
<!-- Node5 -->
<g id="node9" class="node"><title>Node5</title>
<a xlink:href="../../d9/d30/classproject_1_1_project_library.html#a66be7fb27dfb9ffcd6333afaff0c8d77" target="_top" xlink:title="project::ProjectLibrary\l::loadElements">
<polygon fill="white" stroke="black" points="118,-52 118,-86 230,-86 230,-52 118,-52"/>
<text text-anchor="start" x="126" y="-73" font-family="Helvetica,sans-Serif" font-size="10.00">project::ProjectLibrary</text>
<text text-anchor="middle" x="174" y="-60" font-family="Helvetica,sans-Serif" font-size="10.00">::loadElements</text>
</a>
</g>
<!-- Node1&#45;&gt;Node5 -->
<g id="edge8" class="edge"><title>Node1&#45;&gt;Node5</title>
<path fill="none" stroke="midnightblue" d="M79.0277,-101.123C93.0229,-96.3893 108.837,-91.0404 123.489,-86.0845"/>
<polygon fill="midnightblue" stroke="midnightblue" points="77.5525,-97.9271 69.2011,-104.447 79.7954,-104.558 77.5525,-97.9271"/>
</g>
<!-- Node6 -->
<g id="node11" class="node"><title>Node6</title>
<a xlink:href="../../db/d9c/class_project_tree_item.html#a1ad168c613453fd34bb78cc6ce8e4c23" target="_top" xlink:title="ProjectTreeItem::Project\lTreeItem">
<polygon fill="white" stroke="black" points="112.5,-0 112.5,-34 235.5,-34 235.5,-0 112.5,-0"/>
<text text-anchor="start" x="120.5" y="-21" font-family="Helvetica,sans-Serif" font-size="10.00">ProjectTreeItem::Project</text>
<text text-anchor="middle" x="174" y="-8" font-family="Helvetica,sans-Serif" font-size="10.00">TreeItem</text>
</a>
</g>
<!-- Node1&#45;&gt;Node6 -->
<g id="edge10" class="edge"><title>Node1&#45;&gt;Node6</title>
<path fill="none" stroke="midnightblue" d="M53.1125,-96.848C67.0807,-80.9766 89.0841,-58.158 112,-43 116.868,-39.7803 122.199,-36.8265 127.627,-34.1575"/>
<polygon fill="midnightblue" stroke="midnightblue" points="50.4508,-94.5753 46.5783,-104.437 55.7554,-99.1427 50.4508,-94.5753"/>
</g>
</g>
</svg>
