<?xml version="1.0" encoding="UTF-8" standalone="no"?>
<!DOCTYPE svg PUBLIC "-//W3C//DTD SVG 1.1//EN"
 "http://www.w3.org/Graphics/SVG/1.1/DTD/svg11.dtd">
<!-- Generated by graphviz version 2.26.3 (20100126.1600)
 -->
<!-- Title: isExistingFile Pages: 1 -->
<svg width="244pt" height="174pt"
 viewBox="0.00 0.00 244.00 174.00" xmlns="http://www.w3.org/2000/svg" xmlns:xlink="http://www.w3.org/1999/xlink">
<g id="graph1" class="graph" transform="scale(1 1) rotate(0) translate(4 170)">
<title>isExistingFile</title>
<polygon fill="white" stroke="white" points="-4,5 -4,-170 241,-170 241,5 -4,5"/>
<!-- Node1 -->
<g id="node1" class="node"><title>Node1</title>
<polygon fill="#bfbfbf" stroke="black" points="0.5,-81.5 0.5,-102.5 75.5,-102.5 75.5,-81.5 0.5,-81.5"/>
<text text-anchor="middle" x="38" y="-89.5" font-family="Helvetica,sans-Serif" font-size="10.00">isExistingFile</text>
</g>
<!-- Node2 -->
<g id="node3" class="node"><title>Node2</title>
<a xlink:href="../../d1/d7f/class_smart_file.html#ae26b12e9a273928cb2bef60733d53be3" target="_top" xlink:title="The destructor. ">
<polygon fill="white" stroke="black" points="117.5,-144.5 117.5,-165.5 230.5,-165.5 230.5,-144.5 117.5,-144.5"/>
<text text-anchor="middle" x="174" y="-152.5" font-family="Helvetica,sans-Serif" font-size="10.00">SmartFile::~SmartFile</text>
</a>
</g>
<!-- Node1&#45;&gt;Node2 -->
<g id="edge2" class="edge"><title>Node1&#45;&gt;Node2</title>
<path fill="none" stroke="midnightblue" d="M62.5278,-108.04C76.6108,-116.789 94.8547,-127.359 112,-135 119.851,-138.499 128.505,-141.683 136.793,-144.431"/>
<polygon fill="midnightblue" stroke="midnightblue" points="64.2503,-104.988 53.9274,-102.603 60.5099,-110.905 64.2503,-104.988"/>
</g>
<!-- Node3 -->
<g id="node5" class="node"><title>Node3</title>
<a xlink:href="../../d1/d7f/class_smart_file.html#aad04c6beb14eb767757a86a5f0d67893" target="_top" xlink:title="Remove the file from the file system. ">
<polygon fill="white" stroke="black" points="117.5,-104.5 117.5,-125.5 230.5,-125.5 230.5,-104.5 117.5,-104.5"/>
<text text-anchor="middle" x="174" y="-112.5" font-family="Helvetica,sans-Serif" font-size="10.00">SmartFile::removeFile</text>
</a>
</g>
<!-- Node1&#45;&gt;Node3 -->
<g id="edge4" class="edge"><title>Node1&#45;&gt;Node3</title>
<path fill="none" stroke="midnightblue" d="M85.5623,-100.044C95.8721,-101.787 106.873,-103.648 117.489,-105.443"/>
<polygon fill="midnightblue" stroke="midnightblue" points="85.9663,-96.5623 75.5226,-98.3457 84.799,-103.464 85.9663,-96.5623"/>
</g>
<!-- Node4 -->
<g id="node7" class="node"><title>Node4</title>
<a xlink:href="../../d9/d30/classproject_1_1_project_library.html#a66be7fb27dfb9ffcd6333afaff0c8d77" target="_top" xlink:title="project::ProjectLibrary\l::loadElements">
<polygon fill="white" stroke="black" points="118,-52 118,-86 230,-86 230,-52 118,-52"/>
<text text-anchor="start" x="126" y="-73" font-family="Helvetica,sans-Serif" font-size="10.00">project::ProjectLibrary</text>
<text text-anchor="middle" x="174" y="-60" font-family="Helvetica,sans-Serif" font-size="10.00">::loadElements</text>
</a>
</g>
<!-- Node1&#45;&gt;Node4 -->
<g id="edge6" class="edge"><title>Node1&#45;&gt;Node4</title>
<path fill="none" stroke="midnightblue" d="M85.6248,-83.9458C95.9999,-82.1912 107.072,-80.3187 117.746,-78.5135"/>
<polygon fill="midnightblue" stroke="midnightblue" points="84.799,-80.5357 75.5226,-85.6543 85.9663,-87.4377 84.799,-80.5357"/>
</g>
<!-- Node5 -->
<g id="node9" class="node"><title>Node5</title>
<a xlink:href="../../db/d9c/class_project_tree_item.html#a1ad168c613453fd34bb78cc6ce8e4c23" target="_top" xlink:title="ProjectTreeItem::Project\lTreeItem">
<polygon fill="white" stroke="black" points="112.5,-0 112.5,-34 235.5,-34 235.5,-0 112.5,-0"/>
<text text-anchor="start" x="120.5" y="-21" font-family="Helvetica,sans-Serif" font-size="10.00">ProjectTreeItem::Project</text>
<text text-anchor="middle" x="174" y="-8" font-family="Helvetica,sans-Serif" font-size="10.00">TreeItem</text>
</a>
</g>
<!-- Node1&#45;&gt;Node5 -->
<g id="edge8" class="edge"><title>Node1&#45;&gt;Node5</title>
<path fill="none" stroke="midnightblue" d="M60.4791,-75.5123C74.8049,-65.414 93.9956,-52.626 112,-43 117.867,-39.8632 124.195,-36.8342 130.488,-34.0206"/>
<polygon fill="midnightblue" stroke="midnightblue" points="58.3422,-72.7374 52.242,-81.3999 62.4127,-78.4323 58.3422,-72.7374"/>
</g>
</g>
</svg>
