<?xml version="1.0" encoding="UTF-8" standalone="no"?>
<!DOCTYPE svg PUBLIC "-//W3C//DTD SVG 1.1//EN"
 "http://www.w3.org/Graphics/SVG/1.1/DTD/svg11.dtd">
<!-- Generated by graphviz version 2.26.3 (20100126.1600)
 -->
<!-- Title: signalRoleToString Pages: 1 -->
<svg width="462pt" height="42pt"
 viewBox="0.00 0.00 462.00 42.00" xmlns="http://www.w3.org/2000/svg" xmlns:xlink="http://www.w3.org/1999/xlink">
<g id="graph1" class="graph" transform="scale(1 1) rotate(0) translate(4 38)">
<title>signalRoleToString</title>
<polygon fill="white" stroke="white" points="-4,5 -4,-38 459,-38 459,5 -4,5"/>
<!-- Node1 -->
<g id="node1" class="node"><title>Node1</title>
<polygon fill="#bfbfbf" stroke="black" points="0.5,-6.5 0.5,-27.5 99.5,-27.5 99.5,-6.5 0.5,-6.5"/>
<text text-anchor="middle" x="50" y="-14.5" font-family="Helvetica,sans-Serif" font-size="10.00">signalRoleToString</text>
</g>
<!-- Node2 -->
<g id="node3" class="node"><title>Node2</title>
<a xlink:href="../../d4/d5f/classlibrary_1_1_gen_comp_signal.html#aeb87054a7c12b9ccee59af89a9abf24f" target="_top" xlink:title="Serialize the object to a XML DOM element. ">
<polygon fill="white" stroke="black" points="136,-6.5 136,-27.5 274,-27.5 274,-6.5 136,-6.5"/>
<text text-anchor="middle" x="205" y="-14.5" font-family="Helvetica,sans-Serif" font-size="10.00">serializeToXmlDomElement</text>
</a>
</g>
<!-- Node1&#45;&gt;Node2 -->
<g id="edge2" class="edge"><title>Node1&#45;&gt;Node2</title>
<path fill="none" stroke="midnightblue" d="M110.078,-17C118.568,-17 127.353,-17 135.996,-17"/>
<polygon fill="midnightblue" stroke="midnightblue" points="109.896,-13.5001 99.8962,-17 109.896,-20.5001 109.896,-13.5001"/>
</g>
<!-- Node3 -->
<g id="node5" class="node"><title>Node3</title>
<a xlink:href="../../d7/d7c/classlibrary_1_1_generic_component.html#aeb87054a7c12b9ccee59af89a9abf24f" target="_top" xlink:title="Serialize the object to a XML DOM element. ">
<polygon fill="white" stroke="black" points="310,-0 310,-34 454,-34 454,-0 310,-0"/>
<text text-anchor="start" x="318" y="-21" font-family="Helvetica,sans-Serif" font-size="10.00">library::GenericComponent</text>
<text text-anchor="middle" x="382" y="-8" font-family="Helvetica,sans-Serif" font-size="10.00">::serializeToXmlDomElement</text>
</a>
</g>
<!-- Node2&#45;&gt;Node3 -->
<g id="edge4" class="edge"><title>Node2&#45;&gt;Node3</title>
<path fill="none" stroke="midnightblue" d="M284.465,-17C292.949,-17 301.545,-17 309.937,-17"/>
<polygon fill="midnightblue" stroke="midnightblue" points="284.193,-13.5001 274.193,-17 284.193,-20.5001 284.193,-13.5001"/>
</g>
</g>
</svg>
