<?xml version="1.0" encoding="UTF-8" standalone="no"?>
<!DOCTYPE svg PUBLIC "-//W3C//DTD SVG 1.1//EN"
 "http://www.w3.org/Graphics/SVG/1.1/DTD/svg11.dtd">
<!-- Generated by graphviz version 2.26.3 (20100126.1600)
 -->
<!-- Title: checkAttributesValidity Pages: 1 -->
<svg width="484pt" height="446pt"
 viewBox="0.00 0.00 484.00 446.00" xmlns="http://www.w3.org/2000/svg" xmlns:xlink="http://www.w3.org/1999/xlink">
<g id="graph1" class="graph" transform="scale(1 1) rotate(0) translate(4 442)">
<title>checkAttributesValidity</title>
<polygon fill="white" stroke="white" points="-4,5 -4,-442 481,-442 481,5 -4,5"/>
<!-- Node1 -->
<g id="node1" class="node"><title>Node1</title>
<polygon fill="#bfbfbf" stroke="black" points="0.5,-318.5 0.5,-339.5 117.5,-339.5 117.5,-318.5 0.5,-318.5"/>
<text text-anchor="middle" x="59" y="-326.5" font-family="Helvetica,sans-Serif" font-size="10.00">checkAttributesValidity</text>
</g>
<!-- Node2 -->
<g id="node3" class="node"><title>Node2</title>
<a xlink:href="../../d3/d60/classlibrary_1_1_library_category.html#a524ed0dd8a5522b754411728dfe5c752" target="_top" xlink:title="Check the validity of all attributes of the object. ">
<polygon fill="white" stroke="black" points="154.5,-358 154.5,-392 277.5,-392 277.5,-358 154.5,-358"/>
<text text-anchor="start" x="162.5" y="-379" font-family="Helvetica,sans-Serif" font-size="10.00">library::LibraryCategory</text>
<text text-anchor="middle" x="216" y="-366" font-family="Helvetica,sans-Serif" font-size="10.00">::checkAttributesValidity</text>
</a>
</g>
<!-- Node1&#45;&gt;Node2 -->
<g id="edge2" class="edge"><title>Node1&#45;&gt;Node2</title>
<path fill="none" stroke="midnightblue" d="M104.957,-342.465C121.454,-347.299 140.283,-352.815 157.69,-357.915"/>
<polygon fill="midnightblue" stroke="midnightblue" points="105.6,-339.006 95.019,-339.553 103.631,-345.724 105.6,-339.006"/>
</g>
<!-- Node3 -->
<g id="node5" class="node"><title>Node3</title>
<a xlink:href="../../dd/d8a/classlibrary_1_1_library_base_element.html#ab6b2b9128217f98c13508797ed0a6080" target="_top" xlink:title="readFromFile">
<polygon fill="white" stroke="black" points="179,-318.5 179,-339.5 253,-339.5 253,-318.5 179,-318.5"/>
<text text-anchor="middle" x="216" y="-326.5" font-family="Helvetica,sans-Serif" font-size="10.00">readFromFile</text>
</a>
</g>
<!-- Node1&#45;&gt;Node3 -->
<g id="edge4" class="edge"><title>Node1&#45;&gt;Node3</title>
<path fill="none" stroke="midnightblue" d="M128.054,-329C145.455,-329 163.484,-329 178.655,-329"/>
<polygon fill="midnightblue" stroke="midnightblue" points="127.908,-325.5 117.908,-329 127.908,-332.5 127.908,-325.5"/>
</g>
<!-- Node8 -->
<g id="node15" class="node"><title>Node8</title>
<a xlink:href="../../d8/dff/classlibrary_1_1_library_element.html#a524ed0dd8a5522b754411728dfe5c752" target="_top" xlink:title="Check the validity of all attributes of the object. ">
<polygon fill="white" stroke="black" points="154.5,-130 154.5,-164 277.5,-164 277.5,-130 154.5,-130"/>
<text text-anchor="start" x="162.5" y="-151" font-family="Helvetica,sans-Serif" font-size="10.00">library::LibraryElement</text>
<text text-anchor="middle" x="216" y="-138" font-family="Helvetica,sans-Serif" font-size="10.00">::checkAttributesValidity</text>
</a>
</g>
<!-- Node1&#45;&gt;Node8 -->
<g id="edge14" class="edge"><title>Node1&#45;&gt;Node8</title>
<path fill="none" stroke="midnightblue" d="M74.6891,-310.813C105.05,-275.617 171.457,-198.635 201.145,-164.221"/>
<polygon fill="midnightblue" stroke="midnightblue" points="72.0013,-308.57 68.1196,-318.428 77.3017,-313.142 72.0013,-308.57"/>
</g>
<!-- Node4 -->
<g id="node7" class="node"><title>Node4</title>
<a xlink:href="../../da/dae/classlibrary_1_1_model3_d.html#ac8b4ef6474fe7628b5bbfaae0ca72217" target="_top" xlink:title="library::Model3D::Model3D">
<polygon fill="white" stroke="black" points="328.5,-416.5 328.5,-437.5 461.5,-437.5 461.5,-416.5 328.5,-416.5"/>
<text text-anchor="middle" x="395" y="-424.5" font-family="Helvetica,sans-Serif" font-size="10.00">library::Model3D::Model3D</text>
</a>
</g>
<!-- Node3&#45;&gt;Node4 -->
<g id="edge6" class="edge"><title>Node3&#45;&gt;Node4</title>
<path fill="none" stroke="midnightblue" d="M262.574,-339.973C268.081,-342.413 273.377,-345.385 278,-349 301.9,-367.69 289.461,-389.158 314,-407 319.272,-410.833 325.193,-413.937 331.373,-416.449"/>
<polygon fill="midnightblue" stroke="midnightblue" points="263.779,-336.687 253.19,-336.349 261.257,-343.217 263.779,-336.687"/>
</g>
<!-- Node5 -->
<g id="node9" class="node"><title>Node5</title>
<a xlink:href="../../da/dc5/classlibrary_1_1_component_category.html#ab4f102b62e0b8f8d6c9f54ca418789c0" target="_top" xlink:title="library::ComponentCategory\l::ComponentCategory">
<polygon fill="white" stroke="black" points="325.5,-364 325.5,-398 464.5,-398 464.5,-364 325.5,-364"/>
<text text-anchor="start" x="333.5" y="-385" font-family="Helvetica,sans-Serif" font-size="10.00">library::ComponentCategory</text>
<text text-anchor="middle" x="395" y="-372" font-family="Helvetica,sans-Serif" font-size="10.00">::ComponentCategory</text>
</a>
</g>
<!-- Node3&#45;&gt;Node5 -->
<g id="edge8" class="edge"><title>Node3&#45;&gt;Node5</title>
<path fill="none" stroke="midnightblue" d="M261.924,-342.341C284.564,-348.918 312.125,-356.925 336.28,-363.942"/>
<polygon fill="midnightblue" stroke="midnightblue" points="262.803,-338.952 252.223,-339.523 260.85,-345.674 262.803,-338.952"/>
</g>
<!-- Node6 -->
<g id="node11" class="node"><title>Node6</title>
<a xlink:href="../../df/d5f/classlibrary_1_1_package_category.html#a06ccc04d83f9ffbaf45619c8c5cc61ad" target="_top" xlink:title="library::PackageCategory\l::PackageCategory">
<polygon fill="white" stroke="black" points="331.5,-312 331.5,-346 458.5,-346 458.5,-312 331.5,-312"/>
<text text-anchor="start" x="339.5" y="-333" font-family="Helvetica,sans-Serif" font-size="10.00">library::PackageCategory</text>
<text text-anchor="middle" x="395" y="-320" font-family="Helvetica,sans-Serif" font-size="10.00">::PackageCategory</text>
</a>
</g>
<!-- Node3&#45;&gt;Node6 -->
<g id="edge10" class="edge"><title>Node3&#45;&gt;Node6</title>
<path fill="none" stroke="midnightblue" d="M263.256,-329C284.04,-329 308.769,-329 331.159,-329"/>
<polygon fill="midnightblue" stroke="midnightblue" points="263.089,-325.5 253.089,-329 263.089,-332.5 263.089,-325.5"/>
</g>
<!-- Node7 -->
<g id="node13" class="node"><title>Node7</title>
<a xlink:href="../../da/d3b/classlibrary_1_1_spice_model.html#a90adff110b400d7328dad39e2937f93f" target="_top" xlink:title="library::SpiceModel\l::SpiceModel">
<polygon fill="white" stroke="black" points="345,-260 345,-294 445,-294 445,-260 345,-260"/>
<text text-anchor="start" x="353" y="-281" font-family="Helvetica,sans-Serif" font-size="10.00">library::SpiceModel</text>
<text text-anchor="middle" x="395" y="-268" font-family="Helvetica,sans-Serif" font-size="10.00">::SpiceModel</text>
</a>
</g>
<!-- Node3&#45;&gt;Node7 -->
<g id="edge12" class="edge"><title>Node3&#45;&gt;Node7</title>
<path fill="none" stroke="midnightblue" d="M261.978,-315.643C287.362,-308.269 318.92,-299.102 344.927,-291.546"/>
<polygon fill="midnightblue" stroke="midnightblue" points="260.85,-312.326 252.223,-318.477 262.803,-319.048 260.85,-312.326"/>
</g>
<!-- Node9 -->
<g id="node17" class="node"><title>Node9</title>
<a xlink:href="../../d3/dad/classlibrary_1_1_component.html#a524ed0dd8a5522b754411728dfe5c752" target="_top" xlink:title="Check the validity of all attributes of the object. ">
<polygon fill="white" stroke="black" points="333.5,-208 333.5,-242 456.5,-242 456.5,-208 333.5,-208"/>
<text text-anchor="start" x="341.5" y="-229" font-family="Helvetica,sans-Serif" font-size="10.00">library::Component</text>
<text text-anchor="middle" x="395" y="-216" font-family="Helvetica,sans-Serif" font-size="10.00">::checkAttributesValidity</text>
</a>
</g>
<!-- Node8&#45;&gt;Node9 -->
<g id="edge16" class="edge"><title>Node8&#45;&gt;Node9</title>
<path fill="none" stroke="midnightblue" d="M253.884,-169.122C271.758,-179.03 293.599,-190.393 314,-199 321.484,-202.157 329.491,-205.158 337.451,-207.924"/>
<polygon fill="midnightblue" stroke="midnightblue" points="255.362,-165.938 244.928,-164.096 251.936,-172.042 255.362,-165.938"/>
</g>
<!-- Node10 -->
<g id="node19" class="node"><title>Node10</title>
<a xlink:href="../../d8/dea/classlibrary_1_1_footprint.html#a524ed0dd8a5522b754411728dfe5c752" target="_top" xlink:title="Check the validity of all attributes of the object. ">
<polygon fill="white" stroke="black" points="333.5,-156 333.5,-190 456.5,-190 456.5,-156 333.5,-156"/>
<text text-anchor="start" x="341.5" y="-177" font-family="Helvetica,sans-Serif" font-size="10.00">library::Footprint</text>
<text text-anchor="middle" x="395" y="-164" font-family="Helvetica,sans-Serif" font-size="10.00">::checkAttributesValidity</text>
</a>
</g>
<!-- Node8&#45;&gt;Node10 -->
<g id="edge18" class="edge"><title>Node8&#45;&gt;Node10</title>
<path fill="none" stroke="midnightblue" d="M287.882,-157.441C302.922,-159.626 318.653,-161.911 333.285,-164.036"/>
<polygon fill="midnightblue" stroke="midnightblue" points="288.001,-153.922 277.602,-155.948 286.995,-160.849 288.001,-153.922"/>
</g>
<!-- Node11 -->
<g id="node21" class="node"><title>Node11</title>
<a xlink:href="../../d7/d7c/classlibrary_1_1_generic_component.html#a524ed0dd8a5522b754411728dfe5c752" target="_top" xlink:title="Check the validity of all attributes of the object. ">
<polygon fill="white" stroke="black" points="328.5,-104 328.5,-138 461.5,-138 461.5,-104 328.5,-104"/>
<text text-anchor="start" x="336.5" y="-125" font-family="Helvetica,sans-Serif" font-size="10.00">library::GenericComponent</text>
<text text-anchor="middle" x="395" y="-112" font-family="Helvetica,sans-Serif" font-size="10.00">::checkAttributesValidity</text>
</a>
</g>
<!-- Node8&#45;&gt;Node11 -->
<g id="edge20" class="edge"><title>Node8&#45;&gt;Node11</title>
<path fill="none" stroke="midnightblue" d="M287.735,-136.58C301.156,-134.631 315.133,-132.601 328.391,-130.675"/>
<polygon fill="midnightblue" stroke="midnightblue" points="286.995,-133.151 277.602,-138.052 288.001,-140.078 286.995,-133.151"/>
</g>
<!-- Node12 -->
<g id="node23" class="node"><title>Node12</title>
<a xlink:href="../../d1/dcf/classlibrary_1_1_package.html#a524ed0dd8a5522b754411728dfe5c752" target="_top" xlink:title="Check the validity of all attributes of the object. ">
<polygon fill="white" stroke="black" points="314.5,-52 314.5,-86 475.5,-86 475.5,-52 314.5,-52"/>
<text text-anchor="start" x="322.5" y="-73" font-family="Helvetica,sans-Serif" font-size="10.00">library::Package::checkAttributes</text>
<text text-anchor="middle" x="395" y="-60" font-family="Helvetica,sans-Serif" font-size="10.00">Validity</text>
</a>
</g>
<!-- Node8&#45;&gt;Node12 -->
<g id="edge22" class="edge"><title>Node8&#45;&gt;Node12</title>
<path fill="none" stroke="midnightblue" d="M253.884,-124.878C271.758,-114.97 293.599,-103.607 314,-95 321.484,-91.8426 329.491,-88.8418 337.451,-86.076"/>
<polygon fill="midnightblue" stroke="midnightblue" points="251.936,-121.958 244.928,-129.904 255.362,-128.062 251.936,-121.958"/>
</g>
<!-- Node13 -->
<g id="node25" class="node"><title>Node13</title>
<a xlink:href="../../d9/db9/classlibrary_1_1_symbol.html#a524ed0dd8a5522b754411728dfe5c752" target="_top" xlink:title="Check the validity of all attributes of the object. ">
<polygon fill="white" stroke="black" points="317,-0 317,-34 473,-34 473,-0 317,-0"/>
<text text-anchor="start" x="325" y="-21" font-family="Helvetica,sans-Serif" font-size="10.00">library::Symbol::checkAttributes</text>
<text text-anchor="middle" x="395" y="-8" font-family="Helvetica,sans-Serif" font-size="10.00">Validity</text>
</a>
</g>
<!-- Node8&#45;&gt;Node13 -->
<g id="edge24" class="edge"><title>Node8&#45;&gt;Node13</title>
<path fill="none" stroke="midnightblue" d="M233.938,-121.582C251.756,-98.081 281.111,-63.7503 314,-43 319.371,-39.6113 325.223,-36.6274 331.243,-34.008"/>
<polygon fill="midnightblue" stroke="midnightblue" points="231.059,-119.588 227.911,-129.705 236.681,-123.76 231.059,-119.588"/>
</g>
</g>
</svg>
