<?xml version="1.0" encoding="UTF-8" standalone="no"?>
<!DOCTYPE svg PUBLIC "-//W3C//DTD SVG 1.1//EN"
 "http://www.w3.org/Graphics/SVG/1.1/DTD/svg11.dtd">
<!-- Generated by graphviz version 2.26.3 (20100126.1600)
 -->
<!-- Title: /home/travis/build/LibrePCB/LibrePCB/libs/librepcbproject/boards/graphicsitems/bgi_footprintpad.cpp Pages: 1 -->
<svg width="1898pt" height="648pt"
 viewBox="0.00 0.00 1898.47 648.00" xmlns="http://www.w3.org/2000/svg" xmlns:xlink="http://www.w3.org/1999/xlink">
<g id="graph1" class="graph" transform="scale(1 1) rotate(0) translate(4 644)">
<title>/home/travis/build/LibrePCB/LibrePCB/libs/librepcbproject/boards/graphicsitems/bgi_footprintpad.cpp</title>
<polygon fill="white" stroke="white" points="-4,5 -4,-644 1895.47,-644 1895.47,5 -4,5"/>
<!-- Node1 -->
<g id="node1" class="node"><title>Node1</title>
<polygon fill="#bfbfbf" stroke="black" points="1001.97,-579 1001.97,-639 1172.97,-639 1172.97,-579 1001.97,-579"/>
<text text-anchor="start" x="1009.97" y="-626" font-family="Helvetica,sans-Serif" font-size="10.00">/home/travis/build</text>
<text text-anchor="start" x="1009.97" y="-613" font-family="Helvetica,sans-Serif" font-size="10.00">/LibrePCB/LibrePCB/libs</text>
<text text-anchor="start" x="1009.97" y="-600" font-family="Helvetica,sans-Serif" font-size="10.00">/librepcbproject/boards</text>
<text text-anchor="middle" x="1087.47" y="-587" font-family="Helvetica,sans-Serif" font-size="10.00">/graphicsitems/bgi_footprintpad.cpp</text>
</g>
<!-- Node2 -->
<g id="node3" class="node"><title>Node2</title>
<polygon fill="white" stroke="#bfbfbf" points="1088.47,-0.5 1088.47,-21.5 1136.47,-21.5 1136.47,-0.5 1088.47,-0.5"/>
<text text-anchor="middle" x="1112.47" y="-8.5" font-family="Helvetica,sans-Serif" font-size="10.00">QtCore</text>
</g>
<!-- Node1&#45;&gt;Node2 -->
<g id="edge2" class="edge"><title>Node1&#45;&gt;Node2</title>
<path fill="none" stroke="midnightblue" d="M1001.8,-606.697C745.361,-598.677 1.47033,-566.73 1.47033,-466 1.47033,-466 1.47033,-466 1.47033,-127 1.47033,-95.1919 -4.411,-77.816 20.4703,-58 62.814,-24.2767 897.47,-13.3285 1078.16,-11.3491"/>
<polygon fill="midnightblue" stroke="midnightblue" points="1078.44,-14.8463 1088.41,-11.2389 1078.37,-7.84673 1078.44,-14.8463"/>
</g>
<!-- Node3 -->
<g id="node5" class="node"><title>Node3</title>
<polygon fill="white" stroke="#bfbfbf" points="1484.97,-253.5 1484.97,-274.5 1547.97,-274.5 1547.97,-253.5 1484.97,-253.5"/>
<text text-anchor="middle" x="1516.47" y="-261.5" font-family="Helvetica,sans-Serif" font-size="10.00">QtWidgets</text>
</g>
<!-- Node1&#45;&gt;Node3 -->
<g id="edge4" class="edge"><title>Node1&#45;&gt;Node3</title>
<path fill="none" stroke="midnightblue" d="M1173.02,-598.929C1301.27,-581.413 1528.47,-539.947 1528.47,-466 1528.47,-466 1528.47,-466 1528.47,-401 1528.47,-359.635 1522.97,-311.512 1519.42,-284.723"/>
<polygon fill="midnightblue" stroke="midnightblue" points="1522.86,-284.063 1518.04,-274.631 1515.93,-285.013 1522.86,-284.063"/>
</g>
<!-- Node4 -->
<g id="node7" class="node"><title>Node4</title>
<polygon fill="white" stroke="#bfbfbf" points="1783.97,-520.5 1783.97,-541.5 1836.97,-541.5 1836.97,-520.5 1783.97,-520.5"/>
<text text-anchor="middle" x="1810.47" y="-528.5" font-family="Helvetica,sans-Serif" font-size="10.00">QPrinter</text>
</g>
<!-- Node1&#45;&gt;Node4 -->
<g id="edge6" class="edge"><title>Node1&#45;&gt;Node4</title>
<path fill="none" stroke="midnightblue" d="M1173.04,-605.296C1303.04,-598.616 1557.69,-581.396 1770.47,-542 1771.57,-541.797 1772.68,-541.578 1773.8,-541.346"/>
<polygon fill="midnightblue" stroke="midnightblue" points="1775,-544.66 1783.94,-538.976 1773.4,-537.844 1775,-544.66"/>
</g>
<!-- Node5 -->
<g id="node9" class="node"><title>Node5</title>
<a xlink:href="../../d2/d00/bgi__footprintpad_8h.html" target="_top" xlink:title="bgi_footprintpad.h">
<polygon fill="white" stroke="black" points="1556.47,-455.5 1556.47,-476.5 1650.47,-476.5 1650.47,-455.5 1556.47,-455.5"/>
<text text-anchor="middle" x="1603.47" y="-463.5" font-family="Helvetica,sans-Serif" font-size="10.00">bgi_footprintpad.h</text>
</a>
</g>
<!-- Node1&#45;&gt;Node5 -->
<g id="edge8" class="edge"><title>Node1&#45;&gt;Node5</title>
<path fill="none" stroke="midnightblue" d="M1173.2,-603.833C1287.12,-595.711 1481.16,-577.131 1542.47,-542 1565.38,-528.87 1583.03,-503.496 1593.32,-485.691"/>
<polygon fill="midnightblue" stroke="midnightblue" points="1596.51,-487.153 1598.26,-476.704 1590.38,-483.779 1596.51,-487.153"/>
</g>
<!-- Node8 -->
<g id="node21" class="node"><title>Node8</title>
<a xlink:href="../../d3/d02/board_8h.html" target="_top" xlink:title="../board.h">
<polygon fill="white" stroke="black" points="1106.47,-325.5 1106.47,-346.5 1164.47,-346.5 1164.47,-325.5 1106.47,-325.5"/>
<text text-anchor="middle" x="1135.47" y="-333.5" font-family="Helvetica,sans-Serif" font-size="10.00">../board.h</text>
</a>
</g>
<!-- Node1&#45;&gt;Node8 -->
<g id="edge108" class="edge"><title>Node1&#45;&gt;Node8</title>
<path fill="none" stroke="midnightblue" d="M1082.53,-578.735C1080.89,-567.263 1079.28,-554.062 1078.47,-542 1073.76,-471.606 1107.49,-392.149 1125.15,-355.918"/>
<polygon fill="midnightblue" stroke="midnightblue" points="1128.33,-357.398 1129.67,-346.888 1122.07,-354.269 1128.33,-357.398"/>
</g>
<!-- Node19 -->
<g id="node57" class="node"><title>Node19</title>
<a xlink:href="../../d7/d4c/bi__footprintpad_8h.html" target="_top" xlink:title="../items/bi_footprintpad.h">
<polygon fill="white" stroke="black" points="1598.97,-520.5 1598.97,-541.5 1723.97,-541.5 1723.97,-520.5 1598.97,-520.5"/>
<text text-anchor="middle" x="1661.47" y="-528.5" font-family="Helvetica,sans-Serif" font-size="10.00">../items/bi_footprintpad.h</text>
</a>
</g>
<!-- Node1&#45;&gt;Node19 -->
<g id="edge76" class="edge"><title>Node1&#45;&gt;Node19</title>
<path fill="none" stroke="midnightblue" d="M1173.33,-597.48C1272.06,-584.209 1438.99,-561.699 1582.47,-542 1584.56,-541.713 1586.68,-541.421 1588.82,-541.126"/>
<polygon fill="midnightblue" stroke="midnightblue" points="1589.52,-544.564 1598.95,-539.728 1588.56,-537.629 1589.52,-544.564"/>
</g>
<!-- Node21 -->
<g id="node66" class="node"><title>Node21</title>
<a xlink:href="../../d7/dce/bi__footprint_8h.html" target="_top" xlink:title="../items/bi_footprint.h">
<polygon fill="white" stroke="black" points="1086.97,-520.5 1086.97,-541.5 1195.97,-541.5 1195.97,-520.5 1086.97,-520.5"/>
<text text-anchor="middle" x="1141.47" y="-528.5" font-family="Helvetica,sans-Serif" font-size="10.00">../items/bi_footprint.h</text>
</a>
</g>
<!-- Node1&#45;&gt;Node21 -->
<g id="edge90" class="edge"><title>Node1&#45;&gt;Node21</title>
<path fill="none" stroke="midnightblue" d="M1108.5,-578.62C1115.11,-569.07 1122.23,-558.795 1128.15,-550.242"/>
<polygon fill="midnightblue" stroke="midnightblue" points="1131.21,-551.968 1134.03,-541.753 1125.46,-547.983 1131.21,-551.968"/>
</g>
<!-- Node23 -->
<g id="node78" class="node"><title>Node23</title>
<a xlink:href="../../dc/d8d/project_8h.html" target="_top" xlink:title="../../project.h">
<polygon fill="white" stroke="black" points="333.47,-325.5 333.47,-346.5 405.47,-346.5 405.47,-325.5 333.47,-325.5"/>
<text text-anchor="middle" x="369.47" y="-333.5" font-family="Helvetica,sans-Serif" font-size="10.00">../../project.h</text>
</a>
</g>
<!-- Node1&#45;&gt;Node23 -->
<g id="edge110" class="edge"><title>Node1&#45;&gt;Node23</title>
<path fill="none" stroke="midnightblue" d="M1008.23,-578.872C854.058,-520.251 519.017,-392.861 406.885,-350.226"/>
<polygon fill="midnightblue" stroke="midnightblue" points="407.943,-346.884 397.352,-346.601 405.455,-353.427 407.943,-346.884"/>
</g>
<!-- Node27 -->
<g id="node95" class="node"><title>Node27</title>
<a xlink:href="../../dc/d82/boardlayer_8h.html" target="_top" xlink:title="librepcbcommon/boardlayer.h">
<polygon fill="white" stroke="black" points="1746.47,-325.5 1746.47,-346.5 1890.47,-346.5 1890.47,-325.5 1746.47,-325.5"/>
<text text-anchor="middle" x="1818.47" y="-333.5" font-family="Helvetica,sans-Serif" font-size="10.00">librepcbcommon/boardlayer.h</text>
</a>
</g>
<!-- Node1&#45;&gt;Node27 -->
<g id="edge136" class="edge"><title>Node1&#45;&gt;Node27</title>
<path fill="none" stroke="midnightblue" d="M1173.02,-604.946C1338.14,-596.426 1688.49,-574.708 1732.47,-542 1793.56,-496.57 1811.54,-399.56 1816.59,-356.883"/>
<polygon fill="midnightblue" stroke="midnightblue" points="1820.09,-357.132 1817.66,-346.819 1813.12,-356.394 1820.09,-357.132"/>
</g>
<!-- Node28 -->
<g id="node99" class="node"><title>Node28</title>
<a xlink:href="../../d1/dc1/footprintpad_8h.html" target="_top" xlink:title="librepcblibrary/fpt\l/footprintpad.h">
<polygon fill="white" stroke="black" points="997.97,-319 997.97,-353 1088.97,-353 1088.97,-319 997.97,-319"/>
<text text-anchor="start" x="1005.97" y="-340" font-family="Helvetica,sans-Serif" font-size="10.00">librepcblibrary/fpt</text>
<text text-anchor="middle" x="1043.47" y="-327" font-family="Helvetica,sans-Serif" font-size="10.00">/footprintpad.h</text>
</a>
</g>
<!-- Node1&#45;&gt;Node28 -->
<g id="edge142" class="edge"><title>Node1&#45;&gt;Node28</title>
<path fill="none" stroke="midnightblue" d="M1038.04,-578.972C1025.78,-568.877 1014.21,-556.446 1007.47,-542 978.891,-480.787 987.894,-454.657 1007.47,-390 1010.56,-379.809 1016.27,-369.784 1022.25,-361.19"/>
<polygon fill="midnightblue" stroke="midnightblue" points="1025.09,-363.239 1028.23,-353.121 1019.46,-359.07 1025.09,-363.239"/>
</g>
<!-- Node29 -->
<g id="node104" class="node"><title>Node29</title>
<a xlink:href="../../d5/d31/projectsettings_8h.html" target="_top" xlink:title="../../settings/projectsettings.h">
<polygon fill="white" stroke="black" points="500.47,-325.5 500.47,-346.5 644.47,-346.5 644.47,-325.5 500.47,-325.5"/>
<text text-anchor="middle" x="572.47" y="-333.5" font-family="Helvetica,sans-Serif" font-size="10.00">../../settings/projectsettings.h</text>
</a>
</g>
<!-- Node1&#45;&gt;Node29 -->
<g id="edge150" class="edge"><title>Node1&#45;&gt;Node29</title>
<path fill="none" stroke="midnightblue" d="M1030.39,-578.741C920.792,-520.644 684.43,-395.35 601.748,-351.52"/>
<polygon fill="midnightblue" stroke="midnightblue" points="602.92,-348.18 592.445,-346.589 599.642,-354.365 602.92,-348.18"/>
</g>
<!-- Node30 -->
<g id="node109" class="node"><title>Node30</title>
<a xlink:href="../../df/d9b/componentinstance_8h.html" target="_top" xlink:title="../componentinstance.h">
<polygon fill="white" stroke="black" points="823.97,-325.5 823.97,-346.5 942.97,-346.5 942.97,-325.5 823.97,-325.5"/>
<text text-anchor="middle" x="883.47" y="-333.5" font-family="Helvetica,sans-Serif" font-size="10.00">../componentinstance.h</text>
</a>
</g>
<!-- Node1&#45;&gt;Node30 -->
<g id="edge158" class="edge"><title>Node1&#45;&gt;Node30</title>
<path fill="none" stroke="midnightblue" d="M1037.8,-578.909C1023.04,-568.44 1007.58,-555.819 995.47,-542 943.609,-482.831 906.216,-395.582 891.006,-356.382"/>
<polygon fill="midnightblue" stroke="midnightblue" points="894.214,-354.972 887.388,-346.87 887.672,-357.461 894.214,-354.972"/>
</g>
<!-- Node5&#45;&gt;Node2 -->
<g id="edge10" class="edge"><title>Node5&#45;&gt;Node2</title>
<path fill="none" stroke="midnightblue" d="M1615.16,-455.454C1636.71,-434.806 1680.47,-386.627 1680.47,-336 1680.47,-336 1680.47,-336 1680.47,-127 1680.47,-53.2142 1600.57,-77.7115 1529.47,-58 1457.44,-38.0322 1232.98,-19.8788 1146.72,-13.4595"/>
<polygon fill="midnightblue" stroke="midnightblue" points="1146.89,-9.96334 1136.66,-12.7183 1146.38,-16.9444 1146.89,-9.96334"/>
</g>
<!-- Node5&#45;&gt;Node3 -->
<g id="edge12" class="edge"><title>Node5&#45;&gt;Node3</title>
<path fill="none" stroke="midnightblue" d="M1609.23,-455.36C1622.32,-429.622 1651.06,-362.825 1623.47,-318 1609.2,-294.819 1581.58,-281.229 1557.97,-273.48"/>
<polygon fill="midnightblue" stroke="midnightblue" points="1558.74,-270.055 1548.15,-270.506 1556.71,-276.754 1558.74,-270.055"/>
</g>
<!-- Node6 -->
<g id="node13" class="node"><title>Node6</title>
<a xlink:href="../../de/dca/bgi__base_8h.html" target="_top" xlink:title="bgi_base.h">
<polygon fill="white" stroke="black" points="1293.47,-390.5 1293.47,-411.5 1357.47,-411.5 1357.47,-390.5 1293.47,-390.5"/>
<text text-anchor="middle" x="1325.47" y="-398.5" font-family="Helvetica,sans-Serif" font-size="10.00">bgi_base.h</text>
</a>
</g>
<!-- Node5&#45;&gt;Node6 -->
<g id="edge14" class="edge"><title>Node5&#45;&gt;Node6</title>
<path fill="none" stroke="midnightblue" d="M1558.5,-455.484C1505.77,-443.156 1419.06,-422.881 1367.59,-410.848"/>
<polygon fill="midnightblue" stroke="midnightblue" points="1368.32,-407.425 1357.79,-408.556 1366.73,-414.241 1368.32,-407.425"/>
</g>
<!-- Node6&#45;&gt;Node2 -->
<g id="edge16" class="edge"><title>Node6&#45;&gt;Node2</title>
<path fill="none" stroke="midnightblue" d="M1313.91,-390.403C1297.42,-373.976 1270.87,-341.782 1287.47,-318 1314.03,-279.951 1354.19,-316.276 1385.47,-282 1413.37,-251.42 1409.47,-233.398 1409.47,-192 1409.47,-192 1409.47,-192 1409.47,-127 1409.47,-94.5312 1410.24,-78.9982 1385.47,-58 1349.94,-27.8746 1211.86,-16.429 1146.78,-12.6428"/>
<polygon fill="midnightblue" stroke="midnightblue" points="1146.79,-9.13853 1136.62,-12.0798 1146.41,-16.1278 1146.79,-9.13853"/>
</g>
<!-- Node6&#45;&gt;Node3 -->
<g id="edge18" class="edge"><title>Node6&#45;&gt;Node3</title>
<path fill="none" stroke="midnightblue" d="M1357.53,-391.014C1380.03,-383.092 1410.14,-370.591 1433.47,-354 1461.71,-333.918 1487.64,-302.913 1502.75,-283.042"/>
<polygon fill="midnightblue" stroke="midnightblue" points="1505.74,-284.887 1508.91,-274.775 1500.13,-280.709 1505.74,-284.887"/>
</g>
<!-- Node7 -->
<g id="node17" class="node"><title>Node7</title>
<a xlink:href="../../de/dd6/graphicsitem_8h.html" target="_top" xlink:title="librepcbcommon/graphics\l/graphicsitem.h">
<polygon fill="white" stroke="black" points="1296.47,-319 1296.47,-353 1424.47,-353 1424.47,-319 1296.47,-319"/>
<text text-anchor="start" x="1304.47" y="-340" font-family="Helvetica,sans-Serif" font-size="10.00">librepcbcommon/graphics</text>
<text text-anchor="middle" x="1360.47" y="-327" font-family="Helvetica,sans-Serif" font-size="10.00">/graphicsitem.h</text>
</a>
</g>
<!-- Node6&#45;&gt;Node7 -->
<g id="edge20" class="edge"><title>Node6&#45;&gt;Node7</title>
<path fill="none" stroke="midnightblue" d="M1331.25,-390.267C1335.37,-382.615 1341.09,-371.986 1346.38,-362.16"/>
<polygon fill="midnightblue" stroke="midnightblue" points="1349.6,-363.574 1351.26,-353.11 1343.43,-360.255 1349.6,-363.574"/>
</g>
<!-- Node6&#45;&gt;Node8 -->
<g id="edge26" class="edge"><title>Node6&#45;&gt;Node8</title>
<path fill="none" stroke="midnightblue" d="M1294.52,-390.412C1261.65,-379.166 1209.63,-361.369 1174.09,-349.212"/>
<polygon fill="midnightblue" stroke="midnightblue" points="1175.13,-345.869 1164.54,-345.943 1172.86,-352.492 1175.13,-345.869"/>
</g>
<!-- Node7&#45;&gt;Node2 -->
<g id="edge22" class="edge"><title>Node7&#45;&gt;Node2</title>
<path fill="none" stroke="midnightblue" d="M1387.13,-318.862C1399.85,-309.413 1414.27,-296.633 1423.47,-282 1445.51,-246.956 1447.47,-233.398 1447.47,-192 1447.47,-192 1447.47,-192 1447.47,-127 1447.47,-94.5312 1448.45,-78.7432 1423.47,-58 1381.91,-23.49 1218.84,-14.2492 1146.89,-11.8317"/>
<polygon fill="midnightblue" stroke="midnightblue" points="1146.67,-8.32305 1136.56,-11.5108 1146.45,-15.3197 1146.67,-8.32305"/>
</g>
<!-- Node7&#45;&gt;Node3 -->
<g id="edge24" class="edge"><title>Node7&#45;&gt;Node3</title>
<path fill="none" stroke="midnightblue" d="M1397.44,-318.937C1423.81,-306.769 1458.91,-290.565 1484.16,-278.913"/>
<polygon fill="midnightblue" stroke="midnightblue" points="1485.7,-282.057 1493.31,-274.688 1482.77,-275.701 1485.7,-282.057"/>
</g>
<!-- Node8&#45;&gt;Node2 -->
<g id="edge28" class="edge"><title>Node8&#45;&gt;Node2</title>
<path fill="none" stroke="midnightblue" d="M1160.41,-325.342C1166.31,-322.88 1172.59,-320.308 1178.47,-318 1221.66,-301.037 1246.1,-317.086 1276.47,-282 1303.22,-251.088 1295.47,-232.882 1295.47,-192 1295.47,-192 1295.47,-192 1295.47,-127 1295.47,-57.3517 1199.74,-27.7707 1146.76,-16.7323"/>
<polygon fill="midnightblue" stroke="midnightblue" points="1147.26,-13.2641 1136.77,-14.7655 1145.91,-20.1321 1147.26,-13.2641"/>
</g>
<!-- Node8&#45;&gt;Node3 -->
<g id="edge30" class="edge"><title>Node8&#45;&gt;Node3</title>
<path fill="none" stroke="midnightblue" d="M1164.73,-330.47C1231.86,-317.785 1397.07,-286.563 1474.79,-271.877"/>
<polygon fill="midnightblue" stroke="midnightblue" points="1475.54,-275.298 1484.71,-270.002 1474.24,-268.42 1475.54,-275.298"/>
</g>
<!-- Node9 -->
<g id="node25" class="node"><title>Node9</title>
<a xlink:href="../../da/d81/if__attributeprovider_8h.html" target="_top" xlink:title="librepcbcommon/if_attributeprovider.h">
<polygon fill="white" stroke="black" points="514.97,-253.5 514.97,-274.5 693.97,-274.5 693.97,-253.5 514.97,-253.5"/>
<text text-anchor="middle" x="604.47" y="-261.5" font-family="Helvetica,sans-Serif" font-size="10.00">librepcbcommon/if_attributeprovider.h</text>
</a>
</g>
<!-- Node8&#45;&gt;Node9 -->
<g id="edge32" class="edge"><title>Node8&#45;&gt;Node9</title>
<path fill="none" stroke="midnightblue" d="M1116.24,-325.332C1110.38,-322.509 1103.8,-319.762 1097.47,-318 943.838,-275.243 898.869,-300.464 740.47,-282 724.406,-280.127 707.295,-277.982 690.822,-275.84"/>
<polygon fill="midnightblue" stroke="midnightblue" points="691.033,-272.337 680.664,-274.509 690.124,-279.278 691.033,-272.337"/>
</g>
<!-- Node10 -->
<g id="node28" class="node"><title>Node10</title>
<a xlink:href="../../d0/d1d/if__xmlserializableobject_8h.html" target="_top" xlink:title="librepcbcommon/fileio\l/if_xmlserializableobject.h">
<polygon fill="white" stroke="black" points="748.97,-247 748.97,-281 877.97,-281 877.97,-247 748.97,-247"/>
<text text-anchor="start" x="756.97" y="-268" font-family="Helvetica,sans-Serif" font-size="10.00">librepcbcommon/fileio</text>
<text text-anchor="middle" x="813.47" y="-255" font-family="Helvetica,sans-Serif" font-size="10.00">/if_xmlserializableobject.h</text>
</a>
</g>
<!-- Node8&#45;&gt;Node10 -->
<g id="edge36" class="edge"><title>Node8&#45;&gt;Node10</title>
<path fill="none" stroke="midnightblue" d="M1115.77,-325.416C1110,-322.664 1103.6,-319.933 1097.47,-318 1009.76,-290.321 981.477,-300.646 888.144,-282.244"/>
<polygon fill="midnightblue" stroke="midnightblue" points="888.79,-278.803 878.293,-280.243 887.397,-285.663 888.79,-278.803"/>
</g>
<!-- Node11 -->
<g id="node30" class="node"><title>Node11</title>
<a xlink:href="../../d4/d03/exceptions_8h.html" target="_top" xlink:title="../exceptions.h">
<polygon fill="white" stroke="black" points="975.97,-58.5 975.97,-79.5 1056.97,-79.5 1056.97,-58.5 975.97,-58.5"/>
<text text-anchor="middle" x="1016.47" y="-66.5" font-family="Helvetica,sans-Serif" font-size="10.00">../exceptions.h</text>
</a>
</g>
<!-- Node8&#45;&gt;Node11 -->
<g id="edge72" class="edge"><title>Node8&#45;&gt;Node11</title>
<path fill="none" stroke="midnightblue" d="M1128.19,-325.05C1104.85,-289.727 1032.72,-178.734 1020.47,-138 1015.73,-122.223 1014.92,-103.522 1015.19,-89.5716"/>
<polygon fill="midnightblue" stroke="midnightblue" points="1018.69,-89.6787 1015.59,-79.5486 1011.7,-89.403 1018.69,-89.6787"/>
</g>
<!-- Node12 -->
<g id="node33" class="node"><title>Node12</title>
<a xlink:href="../../d1/da8/all__length__units_8h.html" target="_top" xlink:title="librepcbcommon/units\l/all_length_units.h">
<polygon fill="white" stroke="black" points="1155.47,-247 1155.47,-281 1267.47,-281 1267.47,-247 1155.47,-247"/>
<text text-anchor="start" x="1163.47" y="-268" font-family="Helvetica,sans-Serif" font-size="10.00">librepcbcommon/units</text>
<text text-anchor="middle" x="1211.47" y="-255" font-family="Helvetica,sans-Serif" font-size="10.00">/all_length_units.h</text>
</a>
</g>
<!-- Node8&#45;&gt;Node12 -->
<g id="edge42" class="edge"><title>Node8&#45;&gt;Node12</title>
<path fill="none" stroke="midnightblue" d="M1146.68,-325.376C1156.97,-315.632 1172.58,-300.84 1185.91,-288.22"/>
<polygon fill="midnightblue" stroke="midnightblue" points="1188.57,-290.513 1193.43,-281.094 1183.76,-285.431 1188.57,-290.513"/>
</g>
<!-- Node17 -->
<g id="node51" class="node"><title>Node17</title>
<a xlink:href="../../dd/dec/filepath_8h.html" target="_top" xlink:title="librepcbcommon/fileio\l/filepath.h">
<polygon fill="white" stroke="black" points="446.97,-175 446.97,-209 557.97,-209 557.97,-175 446.97,-175"/>
<text text-anchor="start" x="454.97" y="-196" font-family="Helvetica,sans-Serif" font-size="10.00">librepcbcommon/fileio</text>
<text text-anchor="middle" x="502.47" y="-183" font-family="Helvetica,sans-Serif" font-size="10.00">/filepath.h</text>
</a>
</g>
<!-- Node8&#45;&gt;Node17 -->
<g id="edge68" class="edge"><title>Node8&#45;&gt;Node17</title>
<path fill="none" stroke="midnightblue" d="M1127.22,-325.344C1111.32,-305.709 1074.29,-264.167 1032.47,-246 950.681,-210.468 691.4,-197.826 568.419,-193.751"/>
<polygon fill="midnightblue" stroke="midnightblue" points="568.485,-190.251 558.378,-193.427 568.26,-197.248 568.485,-190.251"/>
</g>
<!-- Node18 -->
<g id="node55" class="node"><title>Node18</title>
<a xlink:href="../../da/dfb/if__ercmsgprovider_8h.html" target="_top" xlink:title="../erc/if_ercmsgprovider.h">
<polygon fill="white" stroke="black" points="895.47,-253.5 895.47,-274.5 1023.47,-274.5 1023.47,-253.5 895.47,-253.5"/>
<text text-anchor="middle" x="959.47" y="-261.5" font-family="Helvetica,sans-Serif" font-size="10.00">../erc/if_ercmsgprovider.h</text>
</a>
</g>
<!-- Node8&#45;&gt;Node18 -->
<g id="edge74" class="edge"><title>Node8&#45;&gt;Node18</title>
<path fill="none" stroke="midnightblue" d="M1113.89,-325.458C1108.55,-322.942 1102.83,-320.315 1097.47,-318 1064.09,-303.583 1025.5,-288.626 997.635,-278.119"/>
<polygon fill="midnightblue" stroke="midnightblue" points="998.843,-274.834 988.251,-274.596 996.383,-281.387 998.843,-274.834"/>
</g>
<!-- Node9&#45;&gt;Node2 -->
<g id="edge34" class="edge"><title>Node9&#45;&gt;Node2</title>
<path fill="none" stroke="midnightblue" d="M606.22,-253.151C612.503,-218.066 637.4,-107.113 707.47,-58 737.579,-36.8965 985.595,-19.0891 1077.97,-13.1287"/>
<polygon fill="midnightblue" stroke="midnightblue" points="1078.43,-16.6065 1088.19,-12.4769 1077.99,-9.6207 1078.43,-16.6065"/>
</g>
<!-- Node10&#45;&gt;Node11 -->
<g id="edge38" class="edge"><title>Node10&#45;&gt;Node11</title>
<path fill="none" stroke="midnightblue" d="M831.485,-246.695C869.715,-209.972 958.641,-124.55 997.608,-87.1194"/>
<polygon fill="midnightblue" stroke="midnightblue" points="1000.34,-89.347 1005.13,-79.8953 995.492,-84.2987 1000.34,-89.347"/>
</g>
<!-- Node11&#45;&gt;Node2 -->
<g id="edge40" class="edge"><title>Node11&#45;&gt;Node2</title>
<path fill="none" stroke="midnightblue" d="M1034.08,-58.3619C1048.69,-49.532 1069.69,-36.844 1086.28,-26.8224"/>
<polygon fill="midnightblue" stroke="midnightblue" points="1088.22,-29.7376 1094.97,-21.5707 1084.6,-23.7461 1088.22,-29.7376"/>
</g>
<!-- Node13 -->
<g id="node35" class="node"><title>Node13</title>
<a xlink:href="../../d0/d09/lengthunit_8h.html" target="_top" xlink:title="lengthunit.h">
<polygon fill="white" stroke="black" points="1028.97,-116.5 1028.97,-137.5 1095.97,-137.5 1095.97,-116.5 1028.97,-116.5"/>
<text text-anchor="middle" x="1062.47" y="-124.5" font-family="Helvetica,sans-Serif" font-size="10.00">lengthunit.h</text>
</a>
</g>
<!-- Node12&#45;&gt;Node13 -->
<g id="edge44" class="edge"><title>Node12&#45;&gt;Node13</title>
<path fill="none" stroke="midnightblue" d="M1192.9,-246.926C1164.38,-220.7 1110.08,-170.774 1081.36,-144.37"/>
<polygon fill="midnightblue" stroke="midnightblue" points="1083.71,-141.778 1073.98,-137.586 1078.98,-146.931 1083.71,-141.778"/>
</g>
<!-- Node14 -->
<g id="node39" class="node"><title>Node14</title>
<a xlink:href="../../dd/db9/length_8h.html" target="_top" xlink:title="length.h">
<polygon fill="white" stroke="black" points="1178.97,-116.5 1178.97,-137.5 1229.97,-137.5 1229.97,-116.5 1178.97,-116.5"/>
<text text-anchor="middle" x="1204.47" y="-124.5" font-family="Helvetica,sans-Serif" font-size="10.00">length.h</text>
</a>
</g>
<!-- Node12&#45;&gt;Node14 -->
<g id="edge50" class="edge"><title>Node12&#45;&gt;Node14</title>
<path fill="none" stroke="midnightblue" d="M1210.6,-246.926C1209.32,-221.821 1206.92,-174.998 1205.54,-147.881"/>
<polygon fill="midnightblue" stroke="midnightblue" points="1209.02,-147.395 1205.01,-137.586 1202.03,-147.752 1209.02,-147.395"/>
</g>
<!-- Node15 -->
<g id="node43" class="node"><title>Node15</title>
<a xlink:href="../../d2/d91/point_8h.html" target="_top" xlink:title="point.h">
<polygon fill="white" stroke="black" points="1221.47,-181.5 1221.47,-202.5 1267.47,-202.5 1267.47,-181.5 1221.47,-181.5"/>
<text text-anchor="middle" x="1244.47" y="-189.5" font-family="Helvetica,sans-Serif" font-size="10.00">point.h</text>
</a>
</g>
<!-- Node12&#45;&gt;Node15 -->
<g id="edge56" class="edge"><title>Node12&#45;&gt;Node15</title>
<path fill="none" stroke="midnightblue" d="M1219.29,-246.937C1224.08,-236.494 1230.23,-223.079 1235.25,-212.12"/>
<polygon fill="midnightblue" stroke="midnightblue" points="1238.49,-213.45 1239.47,-202.901 1232.13,-210.533 1238.49,-213.45"/>
</g>
<!-- Node16 -->
<g id="node47" class="node"><title>Node16</title>
<a xlink:href="../../da/dac/angle_8h.html" target="_top" xlink:title="angle.h">
<polygon fill="white" stroke="black" points="1113.47,-116.5 1113.47,-137.5 1161.47,-137.5 1161.47,-116.5 1113.47,-116.5"/>
<text text-anchor="middle" x="1137.47" y="-124.5" font-family="Helvetica,sans-Serif" font-size="10.00">angle.h</text>
</a>
</g>
<!-- Node12&#45;&gt;Node16 -->
<g id="edge62" class="edge"><title>Node12&#45;&gt;Node16</title>
<path fill="none" stroke="midnightblue" d="M1202.25,-246.926C1188.45,-221.372 1162.49,-173.318 1147.97,-146.447"/>
<polygon fill="midnightblue" stroke="midnightblue" points="1151.02,-144.722 1143.19,-137.586 1144.86,-148.048 1151.02,-144.722"/>
</g>
<!-- Node13&#45;&gt;Node2 -->
<g id="edge46" class="edge"><title>Node13&#45;&gt;Node2</title>
<path fill="none" stroke="midnightblue" d="M1067.08,-116.295C1075.42,-96.9588 1093.11,-55.9229 1103.77,-31.1767"/>
<polygon fill="midnightblue" stroke="midnightblue" points="1107.12,-32.2479 1107.87,-21.6792 1100.69,-29.477 1107.12,-32.2479"/>
</g>
<!-- Node13&#45;&gt;Node11 -->
<g id="edge48" class="edge"><title>Node13&#45;&gt;Node11</title>
<path fill="none" stroke="midnightblue" d="M1054.03,-116.362C1047.68,-108.35 1038.8,-97.1605 1031.28,-87.6696"/>
<polygon fill="midnightblue" stroke="midnightblue" points="1033.81,-85.2308 1024.85,-79.5707 1028.33,-89.5805 1033.81,-85.2308"/>
</g>
<!-- Node14&#45;&gt;Node2 -->
<g id="edge52" class="edge"><title>Node14&#45;&gt;Node2</title>
<path fill="none" stroke="midnightblue" d="M1195.98,-116.295C1180.3,-96.5271 1146.64,-54.0801 1127.18,-29.5443"/>
<polygon fill="midnightblue" stroke="midnightblue" points="1129.9,-27.3393 1120.94,-21.6792 1124.41,-31.6891 1129.9,-27.3393"/>
</g>
<!-- Node14&#45;&gt;Node11 -->
<g id="edge54" class="edge"><title>Node14&#45;&gt;Node11</title>
<path fill="none" stroke="midnightblue" d="M1178.87,-118.665C1176.03,-117.759 1173.19,-116.856 1170.47,-116 1133.77,-104.465 1092.03,-91.7508 1061.27,-82.4579"/>
<polygon fill="midnightblue" stroke="midnightblue" points="1062.28,-79.105 1051.69,-79.5668 1060.25,-85.8065 1062.28,-79.105"/>
</g>
<!-- Node15&#45;&gt;Node2 -->
<g id="edge58" class="edge"><title>Node15&#45;&gt;Node2</title>
<path fill="none" stroke="midnightblue" d="M1246.05,-181.258C1247.79,-165.9 1249.08,-137.183 1238.47,-116 1217.9,-74.9293 1173.22,-43.9268 1142.99,-26.6116"/>
<polygon fill="midnightblue" stroke="midnightblue" points="1144.55,-23.477 1134.11,-21.6813 1141.16,-29.5965 1144.55,-23.477"/>
</g>
<!-- Node15&#45;&gt;Node14 -->
<g id="edge60" class="edge"><title>Node15&#45;&gt;Node14</title>
<path fill="none" stroke="midnightblue" d="M1237.87,-181.267C1232.04,-171.801 1223.41,-157.777 1216.38,-146.357"/>
<polygon fill="midnightblue" stroke="midnightblue" points="1219.17,-144.216 1210.95,-137.534 1213.21,-147.885 1219.17,-144.216"/>
</g>
<!-- Node16&#45;&gt;Node2 -->
<g id="edge64" class="edge"><title>Node16&#45;&gt;Node2</title>
<path fill="none" stroke="midnightblue" d="M1135.16,-116.295C1131.01,-97.0451 1122.23,-56.2889 1116.89,-31.5091"/>
<polygon fill="midnightblue" stroke="midnightblue" points="1120.3,-30.7174 1114.77,-21.6792 1113.46,-32.1922 1120.3,-30.7174"/>
</g>
<!-- Node16&#45;&gt;Node11 -->
<g id="edge66" class="edge"><title>Node16&#45;&gt;Node11</title>
<path fill="none" stroke="midnightblue" d="M1115.56,-116.497C1096.66,-107.438 1069.14,-94.2462 1047.89,-84.0628"/>
<polygon fill="midnightblue" stroke="midnightblue" points="1049.16,-80.7876 1038.63,-79.6212 1046.13,-87.0999 1049.16,-80.7876"/>
</g>
<!-- Node17&#45;&gt;Node2 -->
<g id="edge70" class="edge"><title>Node17&#45;&gt;Node2</title>
<path fill="none" stroke="midnightblue" d="M505.736,-174.931C512.365,-145.461 530.402,-85.5549 571.47,-58 613.515,-29.7897 965.947,-15.8288 1078.24,-12.0673"/>
<polygon fill="midnightblue" stroke="midnightblue" points="1078.46,-15.5621 1088.34,-11.735 1078.23,-8.56587 1078.46,-15.5621"/>
</g>
<!-- Node19&#45;&gt;Node2 -->
<g id="edge78" class="edge"><title>Node19&#45;&gt;Node2</title>
<path fill="none" stroke="midnightblue" d="M1669.88,-520.231C1685.74,-498.814 1718.47,-448.809 1718.47,-401 1718.47,-401 1718.47,-401 1718.47,-127 1718.47,-68.1552 1661.3,-76.6011 1605.47,-58 1519.97,-29.5118 1243.89,-16.1633 1146.7,-12.263"/>
<polygon fill="midnightblue" stroke="midnightblue" points="1146.68,-8.75933 1136.55,-11.8639 1146.4,-15.7539 1146.68,-8.75933"/>
</g>
<!-- Node19&#45;&gt;Node5 -->
<g id="edge88" class="edge"><title>Node19&#45;&gt;Node5</title>
<path fill="none" stroke="midnightblue" d="M1651.89,-520.267C1643.11,-510.423 1629.93,-495.648 1619.53,-484"/>
<polygon fill="midnightblue" stroke="midnightblue" points="1622.14,-481.665 1612.87,-476.534 1616.92,-486.325 1622.14,-481.665"/>
</g>
<!-- Node20 -->
<g id="node60" class="node"><title>Node20</title>
<a xlink:href="../../de/df6/bi__base_8h.html" target="_top" xlink:title="bi_base.h">
<polygon fill="white" stroke="black" points="1555.97,-325.5 1555.97,-346.5 1614.97,-346.5 1614.97,-325.5 1555.97,-325.5"/>
<text text-anchor="middle" x="1585.47" y="-333.5" font-family="Helvetica,sans-Serif" font-size="10.00">bi_base.h</text>
</a>
</g>
<!-- Node19&#45;&gt;Node20 -->
<g id="edge80" class="edge"><title>Node19&#45;&gt;Node20</title>
<path fill="none" stroke="midnightblue" d="M1663.03,-520.478C1665.02,-504.422 1667.32,-473.031 1659.47,-448 1647.94,-411.257 1620.47,-375.286 1602.43,-354.398"/>
<polygon fill="midnightblue" stroke="midnightblue" points="1604.83,-351.827 1595.58,-346.66 1599.59,-356.467 1604.83,-351.827"/>
</g>
<!-- Node20&#45;&gt;Node2 -->
<g id="edge82" class="edge"><title>Node20&#45;&gt;Node2</title>
<path fill="none" stroke="midnightblue" d="M1584.84,-325.166C1583.49,-301.182 1580.47,-241.78 1580.47,-192 1580.47,-192 1580.47,-192 1580.47,-127 1580.47,-37.5841 1254.55,-16.6218 1146.68,-12.1326"/>
<polygon fill="midnightblue" stroke="midnightblue" points="1146.78,-8.63394 1136.65,-11.7371 1146.5,-15.6285 1146.78,-8.63394"/>
</g>
<!-- Node20&#45;&gt;Node3 -->
<g id="edge84" class="edge"><title>Node20&#45;&gt;Node3</title>
<path fill="none" stroke="midnightblue" d="M1575.29,-325.376C1564.38,-313.997 1546.88,-295.735 1533.8,-282.085"/>
<polygon fill="midnightblue" stroke="midnightblue" points="1536.14,-279.466 1526.69,-274.667 1531.09,-284.309 1536.14,-279.466"/>
</g>
<!-- Node20&#45;&gt;Node12 -->
<g id="edge86" class="edge"><title>Node20&#45;&gt;Node12</title>
<path fill="none" stroke="midnightblue" d="M1555.81,-330.29C1496.02,-318.78 1359.74,-292.544 1277.69,-276.748"/>
<polygon fill="midnightblue" stroke="midnightblue" points="1278.2,-273.282 1267.72,-274.828 1276.87,-280.155 1278.2,-273.282"/>
</g>
<!-- Node21&#45;&gt;Node2 -->
<g id="edge92" class="edge"><title>Node21&#45;&gt;Node2</title>
<path fill="none" stroke="midnightblue" d="M1146.29,-520.152C1160.98,-487.663 1207.6,-389.009 1262.47,-318 1276.5,-299.844 1286.89,-301.19 1299.47,-282 1322.91,-246.237 1333.47,-234.759 1333.47,-192 1333.47,-192 1333.47,-192 1333.47,-127 1333.47,-43.6413 1208.68,-20.0599 1146.64,-13.4872"/>
<polygon fill="midnightblue" stroke="midnightblue" points="1146.83,-9.98937 1136.54,-12.5089 1146.16,-16.9568 1146.83,-9.98937"/>
</g>
<!-- Node21&#45;&gt;Node9 -->
<g id="edge98" class="edge"><title>Node21&#45;&gt;Node9</title>
<path fill="none" stroke="midnightblue" d="M1120.09,-520.369C1036.55,-478.834 732.043,-327.43 634.647,-279.004"/>
<polygon fill="midnightblue" stroke="midnightblue" points="636.134,-275.835 625.622,-274.517 633.018,-282.103 636.134,-275.835"/>
</g>
<!-- Node21&#45;&gt;Node10 -->
<g id="edge96" class="edge"><title>Node21&#45;&gt;Node10</title>
<path fill="none" stroke="midnightblue" d="M1132.58,-520.471C1098.08,-479.683 973.845,-333.562 951.47,-318 931.234,-303.925 906.814,-292.822 884.178,-284.437"/>
<polygon fill="midnightblue" stroke="midnightblue" points="885.198,-281.085 874.603,-281.01 882.838,-287.675 885.198,-281.085"/>
</g>
<!-- Node21&#45;&gt;Node20 -->
<g id="edge94" class="edge"><title>Node21&#45;&gt;Node20</title>
<path fill="none" stroke="midnightblue" d="M1196.18,-524.765C1241.09,-518.338 1305.65,-506.055 1358.47,-484 1441.21,-449.453 1526.57,-384.317 1564.79,-353.284"/>
<polygon fill="midnightblue" stroke="midnightblue" points="1567.11,-355.903 1572.63,-346.857 1562.68,-350.49 1567.11,-355.903"/>
</g>
<!-- Node22 -->
<g id="node72" class="node"><title>Node22</title>
<a xlink:href="../../d7/dad/bgi__footprint_8h.html" target="_top" xlink:title="../graphicsitems/bgi\l_footprint.h">
<polygon fill="white" stroke="black" points="1247.47,-449 1247.47,-483 1349.47,-483 1349.47,-449 1247.47,-449"/>
<text text-anchor="start" x="1255.47" y="-470" font-family="Helvetica,sans-Serif" font-size="10.00">../graphicsitems/bgi</text>
<text text-anchor="middle" x="1298.47" y="-457" font-family="Helvetica,sans-Serif" font-size="10.00">_footprint.h</text>
</a>
</g>
<!-- Node21&#45;&gt;Node22 -->
<g id="edge100" class="edge"><title>Node21&#45;&gt;Node22</title>
<path fill="none" stroke="midnightblue" d="M1167.04,-520.412C1188.89,-511.37 1220.96,-498.091 1247.95,-486.915"/>
<polygon fill="midnightblue" stroke="midnightblue" points="1249.36,-490.12 1257.26,-483.06 1246.68,-483.652 1249.36,-490.12"/>
</g>
<!-- Node22&#45;&gt;Node2 -->
<g id="edge102" class="edge"><title>Node22&#45;&gt;Node2</title>
<path fill="none" stroke="midnightblue" d="M1289.21,-448.569C1275.05,-419.302 1252.19,-359.426 1277.47,-318 1295.69,-288.137 1325.52,-309.243 1347.47,-282 1373.44,-249.763 1371.47,-233.398 1371.47,-192 1371.47,-192 1371.47,-192 1371.47,-127 1371.47,-94.5312 1371.95,-79.3294 1347.47,-58 1317.94,-32.2693 1204.73,-18.9638 1146.9,-13.725"/>
<polygon fill="midnightblue" stroke="midnightblue" points="1147.05,-10.2245 1136.78,-12.8395 1146.44,-17.1979 1147.05,-10.2245"/>
</g>
<!-- Node22&#45;&gt;Node3 -->
<g id="edge104" class="edge"><title>Node22&#45;&gt;Node3</title>
<path fill="none" stroke="midnightblue" d="M1333.88,-448.85C1370.57,-429.716 1427.85,-395.875 1466.47,-354 1485.68,-333.172 1500.27,-303.631 1508.6,-284.153"/>
<polygon fill="midnightblue" stroke="midnightblue" points="1511.9,-285.315 1512.47,-274.735 1505.43,-282.652 1511.9,-285.315"/>
</g>
<!-- Node22&#45;&gt;Node6 -->
<g id="edge106" class="edge"><title>Node22&#45;&gt;Node6</title>
<path fill="none" stroke="midnightblue" d="M1305.56,-448.922C1309.11,-440.395 1313.41,-430.025 1317.11,-421.115"/>
<polygon fill="midnightblue" stroke="midnightblue" points="1320.36,-422.43 1320.96,-411.852 1313.89,-419.744 1320.36,-422.43"/>
</g>
<!-- Node23&#45;&gt;Node2 -->
<g id="edge112" class="edge"><title>Node23&#45;&gt;Node2</title>
<path fill="none" stroke="midnightblue" d="M333.281,-327.794C309.206,-320.252 279.365,-306.41 264.47,-282 256.136,-268.342 258.405,-260.806 264.47,-246 288.531,-187.27 419.449,-78.6297 479.47,-58 591.66,-19.4397 962.884,-12.4955 1078.07,-11.2622"/>
<polygon fill="midnightblue" stroke="midnightblue" points="1078.44,-14.7589 1088.4,-11.1598 1078.37,-7.75919 1078.44,-14.7589"/>
</g>
<!-- Node23&#45;&gt;Node9 -->
<g id="edge116" class="edge"><title>Node23&#45;&gt;Node9</title>
<path fill="none" stroke="midnightblue" d="M403.893,-325.453C445.345,-312.753 515.038,-291.401 560.387,-277.506"/>
<polygon fill="midnightblue" stroke="midnightblue" points="561.42,-280.851 569.956,-274.575 559.369,-274.158 561.42,-280.851"/>
</g>
<!-- Node23&#45;&gt;Node10 -->
<g id="edge114" class="edge"><title>Node23&#45;&gt;Node10</title>
<path fill="none" stroke="midnightblue" d="M405.805,-330.108C478.316,-318.349 642.281,-291.76 738.721,-276.121"/>
<polygon fill="midnightblue" stroke="midnightblue" points="739.388,-279.559 748.699,-274.503 738.268,-272.649 739.388,-279.559"/>
</g>
<!-- Node23&#45;&gt;Node11 -->
<g id="edge126" class="edge"><title>Node23&#45;&gt;Node11</title>
<path fill="none" stroke="midnightblue" d="M373.998,-325.371C389.348,-289.33 438.47,-174 438.47,-174 459.198,-157.445 828.091,-98.4331 965.472,-76.9201"/>
<polygon fill="midnightblue" stroke="midnightblue" points="966.388,-80.3194 975.727,-75.3165 965.306,-73.4034 966.388,-80.3194"/>
</g>
<!-- Node24 -->
<g id="node83" class="node"><title>Node24</title>
<a xlink:href="../../d4/d45/if__schematiclayerprovider_8h.html" target="_top" xlink:title="librepcbcommon/if_schematiclayerprovider.h">
<polygon fill="white" stroke="black" points="29.4703,-58.5 29.4703,-79.5 239.47,-79.5 239.47,-58.5 29.4703,-58.5"/>
<text text-anchor="middle" x="134.47" y="-66.5" font-family="Helvetica,sans-Serif" font-size="10.00">librepcbcommon/if_schematiclayerprovider.h</text>
</a>
</g>
<!-- Node23&#45;&gt;Node24 -->
<g id="edge118" class="edge"><title>Node23&#45;&gt;Node24</title>
<path fill="none" stroke="midnightblue" d="M333.288,-333.36C267.94,-326.355 132.213,-300.999 80.4703,-210 56.9862,-168.699 93.8248,-115.201 117.34,-87.4804"/>
<polygon fill="midnightblue" stroke="midnightblue" points="120.162,-89.5712 124.129,-79.747 114.901,-84.9532 120.162,-89.5712"/>
</g>
<!-- Node25 -->
<g id="node86" class="node"><title>Node25</title>
<a xlink:href="../../d4/dba/if__boardlayerprovider_8h.html" target="_top" xlink:title="librepcbcommon/if_boardlayerprovider.h">
<polygon fill="white" stroke="black" points="88.9703,-181.5 88.9703,-202.5 277.97,-202.5 277.97,-181.5 88.9703,-181.5"/>
<text text-anchor="middle" x="183.47" y="-189.5" font-family="Helvetica,sans-Serif" font-size="10.00">librepcbcommon/if_boardlayerprovider.h</text>
</a>
</g>
<!-- Node23&#45;&gt;Node25 -->
<g id="edge122" class="edge"><title>Node23&#45;&gt;Node25</title>
<path fill="none" stroke="midnightblue" d="M333.217,-329.156C303.012,-321.872 260.403,-307.732 231.47,-282 210.271,-263.146 196.807,-232.643 189.699,-212.455"/>
<polygon fill="midnightblue" stroke="midnightblue" points="192.935,-211.093 186.474,-202.697 186.288,-213.29 192.935,-211.093"/>
</g>
<!-- Node26 -->
<g id="node90" class="node"><title>Node26</title>
<a xlink:href="../../d5/db9/filelock_8h.html" target="_top" xlink:title="librepcbcommon/fileio\l/filelock.h">
<polygon fill="white" stroke="black" points="272.97,-247 272.97,-281 383.97,-281 383.97,-247 272.97,-247"/>
<text text-anchor="start" x="280.97" y="-268" font-family="Helvetica,sans-Serif" font-size="10.00">librepcbcommon/fileio</text>
<text text-anchor="middle" x="328.47" y="-255" font-family="Helvetica,sans-Serif" font-size="10.00">/filelock.h</text>
</a>
</g>
<!-- Node23&#45;&gt;Node26 -->
<g id="edge128" class="edge"><title>Node23&#45;&gt;Node26</title>
<path fill="none" stroke="midnightblue" d="M363.421,-325.376C358.131,-316.087 350.23,-302.212 343.277,-290.002"/>
<polygon fill="midnightblue" stroke="midnightblue" points="346.195,-288.052 338.205,-281.094 340.112,-291.516 346.195,-288.052"/>
</g>
<!-- Node24&#45;&gt;Node2 -->
<g id="edge120" class="edge"><title>Node24&#45;&gt;Node2</title>
<path fill="none" stroke="midnightblue" d="M239.575,-59.069C244.269,-58.6933 248.918,-58.3348 253.47,-58 573.773,-34.4418 962.068,-17.2986 1078.13,-12.4155"/>
<polygon fill="midnightblue" stroke="midnightblue" points="1078.35,-15.9095 1088.19,-11.9942 1078.06,-8.91562 1078.35,-15.9095"/>
</g>
<!-- Node25&#45;&gt;Node2 -->
<g id="edge124" class="edge"><title>Node25&#45;&gt;Node2</title>
<path fill="none" stroke="midnightblue" d="M188.135,-181.498C200.51,-155.085 236.993,-86.0025 291.47,-58 362.157,-21.6654 931.05,-12.9802 1077.95,-11.3348"/>
<polygon fill="midnightblue" stroke="midnightblue" points="1078.21,-14.8323 1088.18,-11.2242 1078.14,-7.8327 1078.21,-14.8323"/>
</g>
<!-- Node26&#45;&gt;Node2 -->
<g id="edge130" class="edge"><title>Node26&#45;&gt;Node2</title>
<path fill="none" stroke="midnightblue" d="M331.564,-246.78C335.772,-227.353 344.882,-195.649 362.47,-174 422.955,-99.5516 453.57,-88.6286 544.47,-58 644.304,-24.3614 971.038,-14.1652 1078.14,-11.6868"/>
<polygon fill="midnightblue" stroke="midnightblue" points="1078.46,-15.1806 1088.37,-11.4581 1078.3,-8.18237 1078.46,-15.1806"/>
</g>
<!-- Node26&#45;&gt;Node11 -->
<g id="edge134" class="edge"><title>Node26&#45;&gt;Node11</title>
<path fill="none" stroke="midnightblue" d="M337.968,-246.932C350.53,-226.093 374.718,-191.471 405.47,-174 501.598,-119.389 836.918,-84.809 965.628,-73.2792"/>
<polygon fill="midnightblue" stroke="midnightblue" points="965.97,-76.7627 975.622,-72.3933 965.352,-69.7901 965.97,-76.7627"/>
</g>
<!-- Node26&#45;&gt;Node17 -->
<g id="edge132" class="edge"><title>Node26&#45;&gt;Node17</title>
<path fill="none" stroke="midnightblue" d="M369.706,-246.937C394.32,-236.752 425.765,-223.74 451.874,-212.936"/>
<polygon fill="midnightblue" stroke="midnightblue" points="453.328,-216.123 461.23,-209.065 450.651,-209.655 453.328,-216.123"/>
</g>
<!-- Node27&#45;&gt;Node2 -->
<g id="edge138" class="edge"><title>Node27&#45;&gt;Node2</title>
<path fill="none" stroke="midnightblue" d="M1814.54,-325.331C1806.2,-301.676 1787.47,-242.89 1787.47,-192 1787.47,-192 1787.47,-192 1787.47,-127 1787.47,-87.783 1767.13,-76.3438 1732.47,-58 1680.61,-30.5526 1269.56,-15.8241 1146.91,-12.0097"/>
<polygon fill="midnightblue" stroke="midnightblue" points="1146.71,-8.5021 1136.61,-11.6941 1146.49,-15.4988 1146.71,-8.5021"/>
</g>
<!-- Node27&#45;&gt;Node3 -->
<g id="edge140" class="edge"><title>Node27&#45;&gt;Node3</title>
<path fill="none" stroke="midnightblue" d="M1774.23,-325.453C1716.24,-311.627 1615.23,-287.546 1558.41,-273.998"/>
<polygon fill="midnightblue" stroke="midnightblue" points="1558.87,-270.51 1548.33,-271.596 1557.25,-277.319 1558.87,-270.51"/>
</g>
<!-- Node28&#45;&gt;Node2 -->
<g id="edge144" class="edge"><title>Node28&#45;&gt;Node2</title>
<path fill="none" stroke="midnightblue" d="M1042.66,-318.846C1041.5,-300.562 1038.75,-270.877 1032.47,-246 1010.82,-160.283 915.48,-129.506 967.47,-58 980.593,-39.9521 1039.35,-25.2861 1077.93,-17.3786"/>
<polygon fill="midnightblue" stroke="midnightblue" points="1079.09,-20.7154 1088.22,-15.3303 1077.72,-13.8501 1079.09,-20.7154"/>
</g>
<!-- Node28&#45;&gt;Node10 -->
<g id="edge148" class="edge"><title>Node28&#45;&gt;Node10</title>
<path fill="none" stroke="midnightblue" d="M997.755,-321.689C963.481,-310.96 916.117,-296.133 877.989,-284.197"/>
<polygon fill="midnightblue" stroke="midnightblue" points="878.594,-280.719 868.005,-281.072 876.503,-287.399 878.594,-280.719"/>
</g>
<!-- Node28&#45;&gt;Node12 -->
<g id="edge146" class="edge"><title>Node28&#45;&gt;Node12</title>
<path fill="none" stroke="midnightblue" d="M1083.28,-318.937C1106.94,-308.797 1137.14,-295.854 1162.29,-285.078"/>
<polygon fill="midnightblue" stroke="midnightblue" points="1163.84,-288.221 1171.65,-281.065 1161.08,-281.787 1163.84,-288.221"/>
</g>
<!-- Node29&#45;&gt;Node2 -->
<g id="edge152" class="edge"><title>Node29&#45;&gt;Node2</title>
<path fill="none" stroke="midnightblue" d="M551.512,-325.477C535.892,-316.35 515.727,-301.533 506.47,-282 499.619,-267.541 498.587,-259.923 506.47,-246 521.792,-218.938 543.377,-230.828 566.47,-210 629.178,-153.444 607.097,-99.7998 680.47,-58 714.787,-38.4504 982.003,-19.4363 1078.15,-13.1618"/>
<polygon fill="midnightblue" stroke="midnightblue" points="1078.47,-16.6487 1088.22,-12.5105 1078.01,-9.66325 1078.47,-16.6487"/>
</g>
<!-- Node29&#45;&gt;Node10 -->
<g id="edge154" class="edge"><title>Node29&#45;&gt;Node10</title>
<path fill="none" stroke="midnightblue" d="M607.772,-325.453C644.07,-314.609 701.484,-297.456 746.442,-284.025"/>
<polygon fill="midnightblue" stroke="midnightblue" points="747.544,-287.349 756.124,-281.133 745.54,-280.642 747.544,-287.349"/>
</g>
<!-- Node29&#45;&gt;Node17 -->
<g id="edge156" class="edge"><title>Node29&#45;&gt;Node17</title>
<path fill="none" stroke="midnightblue" d="M533.321,-325.445C511.594,-317.364 486.412,-303.802 473.47,-282 461.588,-261.984 471.766,-236.529 483.212,-217.802"/>
<polygon fill="midnightblue" stroke="midnightblue" points="486.292,-219.486 488.841,-209.202 480.436,-215.652 486.292,-219.486"/>
</g>
<!-- Node30&#45;&gt;Node2 -->
<g id="edge160" class="edge"><title>Node30&#45;&gt;Node2</title>
<path fill="none" stroke="midnightblue" d="M823.911,-327.213C794.738,-319.882 761.46,-306.475 740.47,-282 713.857,-250.967 721.47,-232.882 721.47,-192 721.47,-192 721.47,-192 721.47,-127 721.47,-52.8657 983.078,-22.398 1078.32,-13.7624"/>
<polygon fill="midnightblue" stroke="midnightblue" points="1078.65,-17.2467 1088.31,-12.8821 1078.04,-10.2737 1078.65,-17.2467"/>
</g>
<!-- Node30&#45;&gt;Node9 -->
<g id="edge164" class="edge"><title>Node30&#45;&gt;Node9</title>
<path fill="none" stroke="midnightblue" d="M842.603,-325.453C792.977,-312.647 709.257,-291.042 655.459,-277.158"/>
<polygon fill="midnightblue" stroke="midnightblue" points="656.005,-273.685 645.447,-274.575 654.256,-280.463 656.005,-273.685"/>
</g>
<!-- Node30&#45;&gt;Node10 -->
<g id="edge168" class="edge"><title>Node30&#45;&gt;Node10</title>
<path fill="none" stroke="midnightblue" d="M873.142,-325.376C863.756,-315.723 849.556,-301.116 837.362,-288.574"/>
<polygon fill="midnightblue" stroke="midnightblue" points="839.57,-285.825 830.09,-281.094 834.551,-290.704 839.57,-285.825"/>
</g>
<!-- Node30&#45;&gt;Node12 -->
<g id="edge162" class="edge"><title>Node30&#45;&gt;Node12</title>
<path fill="none" stroke="midnightblue" d="M931.516,-325.453C988.014,-313.051 1082.1,-292.398 1145.43,-278.496"/>
<polygon fill="midnightblue" stroke="midnightblue" points="1146.3,-281.888 1155.32,-276.326 1144.8,-275.051 1146.3,-281.888"/>
</g>
<!-- Node30&#45;&gt;Node18 -->
<g id="edge166" class="edge"><title>Node30&#45;&gt;Node18</title>
<path fill="none" stroke="midnightblue" d="M894.684,-325.376C906.808,-313.89 926.334,-295.393 940.784,-281.703"/>
<polygon fill="midnightblue" stroke="midnightblue" points="943.358,-284.086 948.21,-274.667 938.544,-279.004 943.358,-284.086"/>
</g>
</g>
</svg>
