<?xml version="1.0" encoding="UTF-8" standalone="no"?>
<!DOCTYPE svg PUBLIC "-//W3C//DTD SVG 1.1//EN"
 "http://www.w3.org/Graphics/SVG/1.1/DTD/svg11.dtd">
<!-- Generated by graphviz version 2.26.3 (20100126.1600)
 -->
<!-- Title: GenCompSymbVarItem Pages: 1 -->
<svg width="692pt" height="70pt"
 viewBox="0.00 0.00 692.00 70.00" xmlns="http://www.w3.org/2000/svg" xmlns:xlink="http://www.w3.org/1999/xlink">
<g id="graph1" class="graph" transform="scale(1 1) rotate(0) translate(4 66)">
<title>GenCompSymbVarItem</title>
<polygon fill="white" stroke="white" points="-4,5 -4,-66 689,-66 689,5 -4,5"/>
<!-- Node1 -->
<g id="node1" class="node"><title>Node1</title>
<polygon fill="#bfbfbf" stroke="black" points="0.5,-20.5 0.5,-41.5 121.5,-41.5 121.5,-20.5 0.5,-20.5"/>
<text text-anchor="middle" x="61" y="-28.5" font-family="Helvetica,sans-Serif" font-size="10.00">GenCompSymbVarItem</text>
</g>
<!-- Node2 -->
<g id="node3" class="node"><title>Node2</title>
<a xlink:href="../../d1/d1f/class_xml_dom_element.html#a95f6de04ddcc9336005e890a5bca080a" target="_top" xlink:title="Get the first child element of this element. ">
<polygon fill="white" stroke="black" points="163,-40.5 163,-61.5 315,-61.5 315,-40.5 163,-40.5"/>
<text text-anchor="middle" x="239" y="-48.5" font-family="Helvetica,sans-Serif" font-size="10.00">XmlDomElement::getFirstChild</text>
</a>
</g>
<!-- Node1&#45;&gt;Node2 -->
<g id="edge2" class="edge"><title>Node1&#45;&gt;Node2</title>
<path fill="none" stroke="midnightblue" d="M121.76,-37.8269C131.758,-38.9503 142.286,-40.1333 152.764,-41.3106"/>
<polygon fill="midnightblue" stroke="midnightblue" points="152.446,-44.7968 162.775,-42.4354 153.228,-37.8406 152.446,-44.7968"/>
</g>
<!-- Node3 -->
<g id="node5" class="node"><title>Node3</title>
<a xlink:href="../../d1/d1f/class_xml_dom_element.html#a3cd8526c7b8169654ac3b2357af7392e" target="_top" xlink:title="Get the next sibling element (with a specific name) ">
<polygon fill="white" stroke="black" points="158.5,-0.5 158.5,-21.5 319.5,-21.5 319.5,-0.5 158.5,-0.5"/>
<text text-anchor="middle" x="239" y="-8.5" font-family="Helvetica,sans-Serif" font-size="10.00">XmlDomElement::getNextSibling</text>
</a>
</g>
<!-- Node1&#45;&gt;Node3 -->
<g id="edge4" class="edge"><title>Node1&#45;&gt;Node3</title>
<path fill="none" stroke="midnightblue" d="M121.76,-24.1731C130.321,-23.2111 139.271,-22.2055 148.246,-21.1971"/>
<polygon fill="midnightblue" stroke="midnightblue" points="148.822,-24.6545 158.368,-20.0597 148.04,-17.6983 148.822,-24.6545"/>
</g>
<!-- Node4 -->
<g id="node7" class="node"><title>Node4</title>
<a xlink:href="../../d1/d1f/class_xml_dom_element.html#adc4e44d2a70ffd20acf6f46952f44723" target="_top" xlink:title="Get the next child (with a specific name) of a specific child. ">
<polygon fill="white" stroke="black" points="356,-0.5 356,-21.5 510,-21.5 510,-0.5 356,-0.5"/>
<text text-anchor="middle" x="433" y="-8.5" font-family="Helvetica,sans-Serif" font-size="10.00">XmlDomElement::getNextChild</text>
</a>
</g>
<!-- Node3&#45;&gt;Node4 -->
<g id="edge6" class="edge"><title>Node3&#45;&gt;Node4</title>
<path fill="none" stroke="midnightblue" d="M319.588,-11C328.193,-11 336.975,-11 345.653,-11"/>
<polygon fill="midnightblue" stroke="midnightblue" points="345.776,-14.5001 355.776,-11 345.776,-7.5001 345.776,-14.5001"/>
</g>
<!-- Node5 -->
<g id="node9" class="node"><title>Node5</title>
<a xlink:href="../../d1/d1f/class_xml_dom_element.html#ab0c96f485564e41206ce9a4ce42ba389" target="_top" xlink:title="Get the tag name of this element. ">
<polygon fill="white" stroke="black" points="546.5,-0.5 546.5,-21.5 683.5,-21.5 683.5,-0.5 546.5,-0.5"/>
<text text-anchor="middle" x="615" y="-8.5" font-family="Helvetica,sans-Serif" font-size="10.00">XmlDomElement::getName</text>
</a>
</g>
<!-- Node4&#45;&gt;Node5 -->
<g id="edge8" class="edge"><title>Node4&#45;&gt;Node5</title>
<path fill="none" stroke="midnightblue" d="M510.184,-11C518.819,-11 527.624,-11 536.277,-11"/>
<polygon fill="midnightblue" stroke="midnightblue" points="536.348,-14.5001 546.348,-11 536.348,-7.5001 536.348,-14.5001"/>
</g>
</g>
</svg>
