<?xml version="1.0" encoding="UTF-8" standalone="no"?>
<!DOCTYPE svg PUBLIC "-//W3C//DTD SVG 1.1//EN"
 "http://www.w3.org/Graphics/SVG/1.1/DTD/svg11.dtd">
<!-- Generated by graphviz version 2.26.3 (20100126.1600)
 -->
<!-- Title: /home/travis/build/LibrePCB/LibrePCB/libs/librepcbcommon/ui/ui_gridsettingsdialog.h Pages: 1 -->
<svg width="2184pt" height="114pt"
 viewBox="0.00 0.00 2184.00 114.00" xmlns="http://www.w3.org/2000/svg" xmlns:xlink="http://www.w3.org/1999/xlink">
<g id="graph1" class="graph" transform="scale(1 1) rotate(0) translate(4 110)">
<title>/home/travis/build/LibrePCB/LibrePCB/libs/librepcbcommon/ui/ui_gridsettingsdialog.h</title>
<polygon fill="white" stroke="white" points="-4,5 -4,-110 2181,-110 2181,5 -4,5"/>
<!-- Node1 -->
<g id="node1" class="node"><title>Node1</title>
<polygon fill="#bfbfbf" stroke="black" points="975.5,-58.5 975.5,-105.5 1176.5,-105.5 1176.5,-58.5 975.5,-58.5"/>
<text text-anchor="start" x="983.5" y="-92.5" font-family="Helvetica,sans-Serif" font-size="10.00">/home/travis/build</text>
<text text-anchor="start" x="983.5" y="-79.5" font-family="Helvetica,sans-Serif" font-size="10.00">/LibrePCB/LibrePCB/libs</text>
<text text-anchor="middle" x="1076" y="-66.5" font-family="Helvetica,sans-Serif" font-size="10.00">/librepcbcommon/ui/ui_gridsettingsdialog.h</text>
</g>
<!-- Node2 -->
<g id="node3" class="node"><title>Node2</title>
<polygon fill="white" stroke="#bfbfbf" points="-0.5,-0.5 -0.5,-21.5 88.5,-21.5 88.5,-0.5 -0.5,-0.5"/>
<text text-anchor="middle" x="44" y="-8.5" font-family="Helvetica,sans-Serif" font-size="10.00">QtCore/QVariant</text>
</g>
<!-- Node1&#45;&gt;Node2 -->
<g id="edge2" class="edge"><title>Node1&#45;&gt;Node2</title>
<path fill="none" stroke="midnightblue" d="M975.477,-80.5869C799.413,-77.0671 423.802,-64.9076 98.8258,-22.097"/>
<polygon fill="midnightblue" stroke="midnightblue" points="99.1161,-18.6049 88.742,-20.7565 98.1936,-25.5438 99.1161,-18.6049"/>
</g>
<!-- Node3 -->
<g id="node5" class="node"><title>Node3</title>
<polygon fill="white" stroke="#bfbfbf" points="105.5,-0.5 105.5,-21.5 206.5,-21.5 206.5,-0.5 105.5,-0.5"/>
<text text-anchor="middle" x="156" y="-8.5" font-family="Helvetica,sans-Serif" font-size="10.00">QtWidgets/QAction</text>
</g>
<!-- Node1&#45;&gt;Node3 -->
<g id="edge4" class="edge"><title>Node1&#45;&gt;Node3</title>
<path fill="none" stroke="midnightblue" d="M975.219,-78.7274C815.962,-72.7239 496.28,-57.2979 216.718,-22.1121"/>
<polygon fill="midnightblue" stroke="midnightblue" points="217.152,-18.6391 206.79,-20.8521 216.27,-25.5834 217.152,-18.6391"/>
</g>
<!-- Node4 -->
<g id="node7" class="node"><title>Node4</title>
<polygon fill="white" stroke="#bfbfbf" points="224,-0.5 224,-21.5 346,-21.5 346,-0.5 224,-0.5"/>
<text text-anchor="middle" x="285" y="-8.5" font-family="Helvetica,sans-Serif" font-size="10.00">QtWidgets/QApplication</text>
</g>
<!-- Node1&#45;&gt;Node4 -->
<g id="edge6" class="edge"><title>Node1&#45;&gt;Node4</title>
<path fill="none" stroke="midnightblue" d="M975.457,-75.9538C837.95,-67.1642 583.335,-49.0339 356.16,-22.0697"/>
<polygon fill="midnightblue" stroke="midnightblue" points="356.392,-18.5725 346.047,-20.8612 355.561,-25.5231 356.392,-18.5725"/>
</g>
<!-- Node5 -->
<g id="node9" class="node"><title>Node5</title>
<polygon fill="white" stroke="#bfbfbf" points="364,-0.5 364,-21.5 492,-21.5 492,-0.5 364,-0.5"/>
<text text-anchor="middle" x="428" y="-8.5" font-family="Helvetica,sans-Serif" font-size="10.00">QtWidgets/QButtonGroup</text>
</g>
<!-- Node1&#45;&gt;Node5 -->
<g id="edge8" class="edge"><title>Node1&#45;&gt;Node5</title>
<path fill="none" stroke="midnightblue" d="M975.344,-72.8982C862.619,-62.3859 674.239,-43.8655 502.078,-22.0949"/>
<polygon fill="midnightblue" stroke="midnightblue" points="502.433,-18.6119 492.071,-20.8234 501.55,-25.556 502.433,-18.6119"/>
</g>
<!-- Node6 -->
<g id="node11" class="node"><title>Node6</title>
<polygon fill="white" stroke="#bfbfbf" points="510,-0.5 510,-21.5 632,-21.5 632,-0.5 510,-0.5"/>
<text text-anchor="middle" x="571" y="-8.5" font-family="Helvetica,sans-Serif" font-size="10.00">QtWidgets/QComboBox</text>
</g>
<!-- Node1&#45;&gt;Node6 -->
<g id="edge10" class="edge"><title>Node1&#45;&gt;Node6</title>
<path fill="none" stroke="midnightblue" d="M975.279,-68.6536C889.476,-57.1572 762.614,-39.861 642.211,-22.1601"/>
<polygon fill="midnightblue" stroke="midnightblue" points="642.476,-18.6615 632.073,-20.6664 641.456,-25.5867 642.476,-18.6615"/>
</g>
<!-- Node7 -->
<g id="node13" class="node"><title>Node7</title>
<polygon fill="white" stroke="#bfbfbf" points="649.5,-0.5 649.5,-21.5 750.5,-21.5 750.5,-0.5 649.5,-0.5"/>
<text text-anchor="middle" x="700" y="-8.5" font-family="Helvetica,sans-Serif" font-size="10.00">QtWidgets/QDialog</text>
</g>
<!-- Node1&#45;&gt;Node7 -->
<g id="edge12" class="edge"><title>Node1&#45;&gt;Node7</title>
<path fill="none" stroke="midnightblue" d="M975.239,-62.9733C906.801,-50.0503 818.546,-33.385 760.668,-22.456"/>
<polygon fill="midnightblue" stroke="midnightblue" points="761.058,-18.9678 750.582,-20.5515 759.759,-25.8463 761.058,-18.9678"/>
</g>
<!-- Node8 -->
<g id="node15" class="node"><title>Node8</title>
<polygon fill="white" stroke="#bfbfbf" points="767.5,-0.5 767.5,-21.5 914.5,-21.5 914.5,-0.5 767.5,-0.5"/>
<text text-anchor="middle" x="841" y="-8.5" font-family="Helvetica,sans-Serif" font-size="10.00">QtWidgets/QDialogButtonBox</text>
</g>
<!-- Node1&#45;&gt;Node8 -->
<g id="edge14" class="edge"><title>Node1&#45;&gt;Node8</title>
<path fill="none" stroke="midnightblue" d="M998.075,-58.4566C960.822,-47.2016 917.561,-34.131 885.882,-24.5602"/>
<polygon fill="midnightblue" stroke="midnightblue" points="886.612,-21.1243 876.027,-21.5825 884.587,-27.8252 886.612,-21.1243"/>
</g>
<!-- Node9 -->
<g id="node17" class="node"><title>Node9</title>
<polygon fill="white" stroke="#bfbfbf" points="931.5,-0.5 931.5,-21.5 1072.5,-21.5 1072.5,-0.5 931.5,-0.5"/>
<text text-anchor="middle" x="1002" y="-8.5" font-family="Helvetica,sans-Serif" font-size="10.00">QtWidgets/QDoubleSpinBox</text>
</g>
<!-- Node1&#45;&gt;Node9 -->
<g id="edge16" class="edge"><title>Node1&#45;&gt;Node9</title>
<path fill="none" stroke="midnightblue" d="M1051.36,-58.358C1041.24,-48.6513 1029.73,-37.6082 1020.37,-28.6289"/>
<polygon fill="midnightblue" stroke="midnightblue" points="1022.74,-26.044 1013.1,-21.6462 1017.89,-31.0951 1022.74,-26.044"/>
</g>
<!-- Node10 -->
<g id="node19" class="node"><title>Node10</title>
<polygon fill="white" stroke="#bfbfbf" points="1089.5,-0.5 1089.5,-21.5 1210.5,-21.5 1210.5,-0.5 1089.5,-0.5"/>
<text text-anchor="middle" x="1150" y="-8.5" font-family="Helvetica,sans-Serif" font-size="10.00">QtWidgets/QGridLayout</text>
</g>
<!-- Node1&#45;&gt;Node10 -->
<g id="edge18" class="edge"><title>Node1&#45;&gt;Node10</title>
<path fill="none" stroke="midnightblue" d="M1100.64,-58.358C1110.76,-48.6513 1122.27,-37.6082 1131.63,-28.6289"/>
<polygon fill="midnightblue" stroke="midnightblue" points="1134.11,-31.0951 1138.9,-21.6462 1129.26,-26.044 1134.11,-31.0951"/>
</g>
<!-- Node11 -->
<g id="node21" class="node"><title>Node11</title>
<polygon fill="white" stroke="#bfbfbf" points="1227.5,-0.5 1227.5,-21.5 1344.5,-21.5 1344.5,-0.5 1227.5,-0.5"/>
<text text-anchor="middle" x="1286" y="-8.5" font-family="Helvetica,sans-Serif" font-size="10.00">QtWidgets/QGroupBox</text>
</g>
<!-- Node1&#45;&gt;Node11 -->
<g id="edge20" class="edge"><title>Node1&#45;&gt;Node11</title>
<path fill="none" stroke="midnightblue" d="M1145.64,-58.4566C1178.64,-47.299 1216.92,-34.3572 1245.15,-24.8096"/>
<polygon fill="midnightblue" stroke="midnightblue" points="1246.35,-28.1011 1254.7,-21.5825 1244.11,-21.4698 1246.35,-28.1011"/>
</g>
<!-- Node12 -->
<g id="node23" class="node"><title>Node12</title>
<polygon fill="white" stroke="#bfbfbf" points="1362,-0.5 1362,-21.5 1490,-21.5 1490,-0.5 1362,-0.5"/>
<text text-anchor="middle" x="1426" y="-8.5" font-family="Helvetica,sans-Serif" font-size="10.00">QtWidgets/QHBoxLayout</text>
</g>
<!-- Node1&#45;&gt;Node12 -->
<g id="edge22" class="edge"><title>Node1&#45;&gt;Node12</title>
<path fill="none" stroke="midnightblue" d="M1176.76,-61.5591C1237.16,-49.3076 1312.03,-34.1187 1363.87,-23.6039"/>
<polygon fill="midnightblue" stroke="midnightblue" points="1364.81,-26.9838 1373.92,-21.5655 1363.42,-20.1235 1364.81,-26.9838"/>
</g>
<!-- Node13 -->
<g id="node25" class="node"><title>Node13</title>
<polygon fill="white" stroke="#bfbfbf" points="1507.5,-0.5 1507.5,-21.5 1634.5,-21.5 1634.5,-0.5 1507.5,-0.5"/>
<text text-anchor="middle" x="1571" y="-8.5" font-family="Helvetica,sans-Serif" font-size="10.00">QtWidgets/QHeaderView</text>
</g>
<!-- Node1&#45;&gt;Node13 -->
<g id="edge24" class="edge"><title>Node1&#45;&gt;Node13</title>
<path fill="none" stroke="midnightblue" d="M1176.9,-67.9979C1260.19,-56.3658 1381.81,-39.2184 1497.32,-22.2382"/>
<polygon fill="midnightblue" stroke="midnightblue" points="1498.02,-25.673 1507.4,-20.7541 1497,-18.7476 1498.02,-25.673"/>
</g>
<!-- Node14 -->
<g id="node27" class="node"><title>Node14</title>
<polygon fill="white" stroke="#bfbfbf" points="1651.5,-0.5 1651.5,-21.5 1748.5,-21.5 1748.5,-0.5 1651.5,-0.5"/>
<text text-anchor="middle" x="1700" y="-8.5" font-family="Helvetica,sans-Serif" font-size="10.00">QtWidgets/QLabel</text>
</g>
<!-- Node1&#45;&gt;Node14 -->
<g id="edge26" class="edge"><title>Node1&#45;&gt;Node14</title>
<path fill="none" stroke="midnightblue" d="M1176.7,-73.9533C1288.1,-64.4583 1473.08,-46.9371 1641.2,-22.1832"/>
<polygon fill="midnightblue" stroke="midnightblue" points="1641.85,-25.6254 1651.23,-20.6953 1640.82,-18.7012 1641.85,-25.6254"/>
</g>
<!-- Node15 -->
<g id="node29" class="node"><title>Node15</title>
<polygon fill="white" stroke="#bfbfbf" points="1766,-0.5 1766,-21.5 1894,-21.5 1894,-0.5 1766,-0.5"/>
<text text-anchor="middle" x="1830" y="-8.5" font-family="Helvetica,sans-Serif" font-size="10.00">QtWidgets/QRadioButton</text>
</g>
<!-- Node1&#45;&gt;Node15 -->
<g id="edge28" class="edge"><title>Node1&#45;&gt;Node15</title>
<path fill="none" stroke="midnightblue" d="M1176.59,-75.0871C1307.56,-65.6467 1543.82,-47.1205 1755.86,-22.0793"/>
<polygon fill="midnightblue" stroke="midnightblue" points="1756.42,-25.5373 1765.94,-20.8819 1755.59,-18.5862 1756.42,-25.5373"/>
</g>
<!-- Node16 -->
<g id="node31" class="node"><title>Node16</title>
<polygon fill="white" stroke="#bfbfbf" points="1911.5,-0.5 1911.5,-21.5 2032.5,-21.5 2032.5,-0.5 1911.5,-0.5"/>
<text text-anchor="middle" x="1972" y="-8.5" font-family="Helvetica,sans-Serif" font-size="10.00">QtWidgets/QToolButton</text>
</g>
<!-- Node1&#45;&gt;Node16 -->
<g id="edge30" class="edge"><title>Node1&#45;&gt;Node16</title>
<path fill="none" stroke="midnightblue" d="M1176.51,-77.4895C1330.45,-69.9625 1634.02,-52.6797 1901.17,-22.137"/>
<polygon fill="midnightblue" stroke="midnightblue" points="1901.92,-25.5735 1911.46,-20.9522 1901.12,-18.6194 1901.92,-25.5735"/>
</g>
<!-- Node17 -->
<g id="node33" class="node"><title>Node17</title>
<polygon fill="white" stroke="#bfbfbf" points="2049.5,-0.5 2049.5,-21.5 2176.5,-21.5 2176.5,-0.5 2049.5,-0.5"/>
<text text-anchor="middle" x="2113" y="-8.5" font-family="Helvetica,sans-Serif" font-size="10.00">QtWidgets/QVBoxLayout</text>
</g>
<!-- Node1&#45;&gt;Node17 -->
<g id="edge32" class="edge"><title>Node1&#45;&gt;Node17</title>
<path fill="none" stroke="midnightblue" d="M1176.62,-78.711C1350.58,-72.3695 1718.95,-56.0613 2039.49,-22.0882"/>
<polygon fill="midnightblue" stroke="midnightblue" points="2039.86,-25.5682 2049.44,-21.0266 2039.12,-18.6077 2039.86,-25.5682"/>
</g>
</g>
</svg>
