<?xml version="1.0" encoding="UTF-8" standalone="no"?>
<!DOCTYPE svg PUBLIC "-//W3C//DTD SVG 1.1//EN"
 "http://www.w3.org/Graphics/SVG/1.1/DTD/svg11.dtd">
<!-- Generated by graphviz version 2.26.3 (20100126.1600)
 -->
<!-- Title: Project Pages: 1 -->
<svg width="618pt" height="431pt"
 viewBox="0.00 0.00 618.00 431.00" xmlns="http://www.w3.org/2000/svg" xmlns:xlink="http://www.w3.org/1999/xlink">
<g id="graph1" class="graph" transform="scale(1 1) rotate(0) translate(4 427)">
<title>Project</title>
<polygon fill="white" stroke="white" points="-4,5 -4,-427 615,-427 615,5 -4,5"/>
<!-- Node1 -->
<g id="node1" class="node"><title>Node1</title>
<polygon fill="#bfbfbf" stroke="black" points="0.5,-221.5 0.5,-242.5 47.5,-242.5 47.5,-221.5 0.5,-221.5"/>
<text text-anchor="middle" x="24" y="-229.5" font-family="Helvetica,sans-Serif" font-size="10.00">Project</text>
</g>
<!-- Node2 -->
<g id="node3" class="node"><title>Node2</title>
<a xlink:href="../../da/db0/class_smart_xml_file.html#a78a7e349e46f4e4ff824991d725d15e8" target="_top" xlink:title="Create a new XML file. ">
<polygon fill="white" stroke="black" points="110.5,-401.5 110.5,-422.5 219.5,-422.5 219.5,-401.5 110.5,-401.5"/>
<text text-anchor="middle" x="165" y="-409.5" font-family="Helvetica,sans-Serif" font-size="10.00">SmartXmlFile::create</text>
</a>
</g>
<!-- Node1&#45;&gt;Node2 -->
<g id="edge2" class="edge"><title>Node1&#45;&gt;Node2</title>
<path fill="none" stroke="midnightblue" d="M24.7102,-242.855C27.2064,-271.763 38.1182,-351.183 84,-392 88.9004,-396.359 94.6015,-399.803 100.667,-402.517"/>
<polygon fill="midnightblue" stroke="midnightblue" points="99.8429,-405.947 110.434,-406.209 102.318,-399.399 99.8429,-405.947"/>
</g>
<!-- Node3 -->
<g id="node5" class="node"><title>Node3</title>
<a xlink:href="../../d7/deb/class_system_info.html#a527387b438f668d7805b2874994de02a" target="_top" xlink:title="Get the full name of the user which is logged in (like &quot;Homer Simpson&quot;) ">
<polygon fill="white" stroke="black" points="91.5,-361.5 91.5,-382.5 238.5,-382.5 238.5,-361.5 91.5,-361.5"/>
<text text-anchor="middle" x="165" y="-369.5" font-family="Helvetica,sans-Serif" font-size="10.00">SystemInfo::getFullUsername</text>
</a>
</g>
<!-- Node1&#45;&gt;Node3 -->
<g id="edge4" class="edge"><title>Node1&#45;&gt;Node3</title>
<path fill="none" stroke="midnightblue" d="M26.1346,-242.537C31.4625,-266.028 47.6196,-322.903 84,-352 86.0786,-353.662 88.2761,-355.189 90.5647,-356.591"/>
<polygon fill="midnightblue" stroke="midnightblue" points="89.3006,-359.88 99.7852,-361.404 92.5398,-353.674 89.3006,-359.88"/>
</g>
<!-- Node4 -->
<g id="node7" class="node"><title>Node4</title>
<a xlink:href="../../d1/d1f/class_xml_dom_element.html#a95f6de04ddcc9336005e890a5bca080a" target="_top" xlink:title="Get the first child element of this element. ">
<polygon fill="white" stroke="black" points="89,-321.5 89,-342.5 241,-342.5 241,-321.5 89,-321.5"/>
<text text-anchor="middle" x="165" y="-329.5" font-family="Helvetica,sans-Serif" font-size="10.00">XmlDomElement::getFirstChild</text>
</a>
</g>
<!-- Node1&#45;&gt;Node4 -->
<g id="edge6" class="edge"><title>Node1&#45;&gt;Node4</title>
<path fill="none" stroke="midnightblue" d="M28.965,-242.675C37.6004,-260.022 57.0724,-294.177 84,-312 87.0801,-314.039 90.3502,-315.87 93.742,-317.514"/>
<polygon fill="midnightblue" stroke="midnightblue" points="92.3861,-320.741 102.957,-321.446 95.133,-314.302 92.3861,-320.741"/>
</g>
<!-- Node5 -->
<g id="node9" class="node"><title>Node5</title>
<a xlink:href="../../d1/d1f/class_xml_dom_element.html#aa340796d6d9e4c3787a38aa39ce1befe" target="_top" xlink:title="Get the text of this text element as a QString. ">
<polygon fill="white" stroke="black" points="100,-281.5 100,-302.5 230,-302.5 230,-281.5 100,-281.5"/>
<text text-anchor="middle" x="165" y="-289.5" font-family="Helvetica,sans-Serif" font-size="10.00">XmlDomElement::getText</text>
</a>
</g>
<!-- Node1&#45;&gt;Node5 -->
<g id="edge8" class="edge"><title>Node1&#45;&gt;Node5</title>
<path fill="none" stroke="midnightblue" d="M37.0395,-242.642C48.699,-251.664 66.5863,-264.327 84,-272 89.4346,-274.395 95.2061,-276.535 101.067,-278.442"/>
<polygon fill="midnightblue" stroke="midnightblue" points="100.387,-281.892 110.972,-281.433 102.411,-275.191 100.387,-281.892"/>
</g>
<!-- Node6 -->
<g id="node11" class="node"><title>Node6</title>
<a xlink:href="../../db/deb/class_smart_text_file.html#a7e8ee9901aee9cf5e06589b6fea88690" target="_top" xlink:title="Create a new text file. ">
<polygon fill="white" stroke="black" points="109.5,-241.5 109.5,-262.5 220.5,-262.5 220.5,-241.5 109.5,-241.5"/>
<text text-anchor="middle" x="165" y="-249.5" font-family="Helvetica,sans-Serif" font-size="10.00">SmartTextFile::create</text>
</a>
</g>
<!-- Node1&#45;&gt;Node6 -->
<g id="edge10" class="edge"><title>Node1&#45;&gt;Node6</title>
<path fill="none" stroke="midnightblue" d="M47.6002,-235.348C61.8878,-237.374 80.8786,-240.068 99.4142,-242.697"/>
<polygon fill="midnightblue" stroke="midnightblue" points="98.9415,-246.165 109.334,-244.104 99.9246,-239.234 98.9415,-246.165"/>
</g>
<!-- Node7 -->
<g id="node13" class="node"><title>Node7</title>
<a xlink:href="../../d4/d1c/class_file_path.html#aeb37554b75918a9262a0c09df1205fff" target="_top" xlink:title="Build an absolute and well&#45;formatted filepath from a relative filepath. ">
<polygon fill="white" stroke="black" points="108,-201.5 108,-222.5 222,-222.5 222,-201.5 108,-201.5"/>
<text text-anchor="middle" x="165" y="-209.5" font-family="Helvetica,sans-Serif" font-size="10.00">FilePath::fromRelative</text>
</a>
</g>
<!-- Node1&#45;&gt;Node7 -->
<g id="edge12" class="edge"><title>Node1&#45;&gt;Node7</title>
<path fill="none" stroke="midnightblue" d="M47.6002,-228.652C61.4912,-226.682 79.8279,-224.081 97.8698,-221.522"/>
<polygon fill="midnightblue" stroke="midnightblue" points="98.4232,-224.979 107.833,-220.109 97.4401,-218.048 98.4232,-224.979"/>
</g>
<!-- Node8 -->
<g id="node15" class="node"><title>Node8</title>
<a xlink:href="../../dd/d2d/classproject_1_1_schematic.html#ad77652f99177030cccc9dd2df4767e83" target="_top" xlink:title="project::Schematic\l::create">
<polygon fill="white" stroke="black" points="116,-149 116,-183 214,-183 214,-149 116,-149"/>
<text text-anchor="start" x="124" y="-170" font-family="Helvetica,sans-Serif" font-size="10.00">project::Schematic</text>
<text text-anchor="middle" x="165" y="-157" font-family="Helvetica,sans-Serif" font-size="10.00">::create</text>
</a>
</g>
<!-- Node1&#45;&gt;Node8 -->
<g id="edge14" class="edge"><title>Node1&#45;&gt;Node8</title>
<path fill="none" stroke="midnightblue" d="M37.6416,-221.301C49.3928,-212.487 67.0849,-200.156 84,-192 91.0154,-188.617 98.5777,-185.525 106.164,-182.747"/>
<polygon fill="midnightblue" stroke="midnightblue" points="107.461,-186.001 115.746,-179.398 105.152,-179.393 107.461,-186.001"/>
</g>
<!-- Node9 -->
<g id="node17" class="node"><title>Node9</title>
<a xlink:href="../../d1/d1f/class_xml_dom_element.html#a3cd8526c7b8169654ac3b2357af7392e" target="_top" xlink:title="Get the next sibling element (with a specific name) ">
<polygon fill="white" stroke="black" points="84.5,-109.5 84.5,-130.5 245.5,-130.5 245.5,-109.5 84.5,-109.5"/>
<text text-anchor="middle" x="165" y="-117.5" font-family="Helvetica,sans-Serif" font-size="10.00">XmlDomElement::getNextSibling</text>
</a>
</g>
<!-- Node1&#45;&gt;Node9 -->
<g id="edge16" class="edge"><title>Node1&#45;&gt;Node9</title>
<path fill="none" stroke="midnightblue" d="M27.8967,-221.297C35.5208,-201.921 54.3042,-161.087 84,-140 86.7163,-138.071 89.5984,-136.327 92.5944,-134.751"/>
<polygon fill="midnightblue" stroke="midnightblue" points="94.2351,-137.849 101.873,-130.507 91.3233,-131.484 94.2351,-137.849"/>
</g>
<!-- Node12 -->
<g id="node23" class="node"><title>Node12</title>
<a xlink:href="../../d5/d07/classproject_1_1_board.html#a7379f6fc841e4fb650bca7e58c0b5e1e" target="_top" xlink:title="project::Board::create">
<polygon fill="white" stroke="black" points="110,-69.5 110,-90.5 220,-90.5 220,-69.5 110,-69.5"/>
<text text-anchor="middle" x="165" y="-77.5" font-family="Helvetica,sans-Serif" font-size="10.00">project::Board::create</text>
</a>
</g>
<!-- Node1&#45;&gt;Node12 -->
<g id="edge22" class="edge"><title>Node1&#45;&gt;Node12</title>
<path fill="none" stroke="midnightblue" d="M25.6614,-221.195C30.1406,-195.892 44.8837,-132.49 84,-100 88.8992,-95.9307 94.505,-92.6693 100.43,-90.0582"/>
<polygon fill="midnightblue" stroke="midnightblue" points="101.827,-93.2721 109.948,-86.4678 99.3562,-86.7226 101.827,-93.2721"/>
</g>
<!-- Node13 -->
<g id="node25" class="node"><title>Node13</title>
<a xlink:href="../../de/d6b/class_application.html#a71dfd4d8f6708f9d9eb0f0c507c1e9ef" target="_top" xlink:title="Application::majorVersion">
<polygon fill="white" stroke="black" points="101,-29.5 101,-50.5 229,-50.5 229,-29.5 101,-29.5"/>
<text text-anchor="middle" x="165" y="-37.5" font-family="Helvetica,sans-Serif" font-size="10.00">Application::majorVersion</text>
</a>
</g>
<!-- Node1&#45;&gt;Node13 -->
<g id="edge24" class="edge"><title>Node1&#45;&gt;Node13</title>
<path fill="none" stroke="midnightblue" d="M24.3826,-221.236C26.0633,-190.982 35.127,-104.501 84,-60 86.4633,-57.757 89.1378,-55.7556 91.9657,-53.9705"/>
<polygon fill="midnightblue" stroke="midnightblue" points="93.6701,-57.0283 100.852,-49.2388 90.38,-50.8497 93.6701,-57.0283"/>
</g>
<!-- Node10 -->
<g id="node19" class="node"><title>Node10</title>
<a xlink:href="../../d1/d1f/class_xml_dom_element.html#adc4e44d2a70ffd20acf6f46952f44723" target="_top" xlink:title="Get the next child (with a specific name) of a specific child. ">
<polygon fill="white" stroke="black" points="282,-109.5 282,-130.5 436,-130.5 436,-109.5 282,-109.5"/>
<text text-anchor="middle" x="359" y="-117.5" font-family="Helvetica,sans-Serif" font-size="10.00">XmlDomElement::getNextChild</text>
</a>
</g>
<!-- Node9&#45;&gt;Node10 -->
<g id="edge18" class="edge"><title>Node9&#45;&gt;Node10</title>
<path fill="none" stroke="midnightblue" d="M245.588,-120C254.193,-120 262.975,-120 271.653,-120"/>
<polygon fill="midnightblue" stroke="midnightblue" points="271.776,-123.5 281.776,-120 271.776,-116.5 271.776,-123.5"/>
</g>
<!-- Node11 -->
<g id="node21" class="node"><title>Node11</title>
<a xlink:href="../../d1/d1f/class_xml_dom_element.html#ab0c96f485564e41206ce9a4ce42ba389" target="_top" xlink:title="Get the tag name of this element. ">
<polygon fill="white" stroke="black" points="472.5,-109.5 472.5,-130.5 609.5,-130.5 609.5,-109.5 472.5,-109.5"/>
<text text-anchor="middle" x="541" y="-117.5" font-family="Helvetica,sans-Serif" font-size="10.00">XmlDomElement::getName</text>
</a>
</g>
<!-- Node10&#45;&gt;Node11 -->
<g id="edge20" class="edge"><title>Node10&#45;&gt;Node11</title>
<path fill="none" stroke="midnightblue" d="M436.184,-120C444.819,-120 453.624,-120 462.277,-120"/>
<polygon fill="midnightblue" stroke="midnightblue" points="462.348,-123.5 472.348,-120 462.348,-116.5 462.348,-123.5"/>
</g>
<!-- Node14 -->
<g id="node27" class="node"><title>Node14</title>
<a xlink:href="../../de/d6b/class_application.html#a9b7423f4d6e1631b033ff1ef3f1104bc" target="_top" xlink:title="Application::application\lVersion">
<polygon fill="white" stroke="black" points="300.5,-40 300.5,-74 417.5,-74 417.5,-40 300.5,-40"/>
<text text-anchor="start" x="308.5" y="-61" font-family="Helvetica,sans-Serif" font-size="10.00">Application::application</text>
<text text-anchor="middle" x="359" y="-48" font-family="Helvetica,sans-Serif" font-size="10.00">Version</text>
</a>
</g>
<!-- Node13&#45;&gt;Node14 -->
<g id="edge26" class="edge"><title>Node13&#45;&gt;Node14</title>
<path fill="none" stroke="midnightblue" d="M229.061,-45.6135C248.609,-47.3266 270.183,-49.2171 290.042,-50.9573"/>
<polygon fill="midnightblue" stroke="midnightblue" points="289.983,-54.4655 300.251,-51.8519 290.594,-47.4922 289.983,-54.4655"/>
</g>
<!-- Node16 -->
<g id="node31" class="node"><title>Node16</title>
<a xlink:href="../../de/d34/class_version.html#a1d27f264dcf673c9b3a991023cd0420c" target="_top" xlink:title="Get the numbers in the version string. ">
<polygon fill="white" stroke="black" points="304.5,-0.5 304.5,-21.5 413.5,-21.5 413.5,-0.5 304.5,-0.5"/>
<text text-anchor="middle" x="359" y="-8.5" font-family="Helvetica,sans-Serif" font-size="10.00">Version::getNumbers</text>
</a>
</g>
<!-- Node13&#45;&gt;Node16 -->
<g id="edge30" class="edge"><title>Node13&#45;&gt;Node16</title>
<path fill="none" stroke="midnightblue" d="M229.061,-30.4239C250.022,-27.2906 273.311,-23.8091 294.318,-20.669"/>
<polygon fill="midnightblue" stroke="midnightblue" points="295.054,-24.0979 304.427,-19.1579 294.019,-17.1748 295.054,-24.0979"/>
</g>
<!-- Node15 -->
<g id="node29" class="node"><title>Node15</title>
<a xlink:href="../../de/d34/class_version.html#a0a886a9edf5bf682f5245159661bfc94" target="_top" xlink:title="Check if the object represents a valid version number. ">
<polygon fill="white" stroke="black" points="498.5,-46.5 498.5,-67.5 583.5,-67.5 583.5,-46.5 498.5,-46.5"/>
<text text-anchor="middle" x="541" y="-54.5" font-family="Helvetica,sans-Serif" font-size="10.00">Version::isValid</text>
</a>
</g>
<!-- Node14&#45;&gt;Node15 -->
<g id="edge28" class="edge"><title>Node14&#45;&gt;Node15</title>
<path fill="none" stroke="midnightblue" d="M417.588,-57C440.284,-57 466.074,-57 488.189,-57"/>
<polygon fill="midnightblue" stroke="midnightblue" points="488.392,-60.5001 498.392,-57 488.392,-53.5001 488.392,-60.5001"/>
</g>
</g>
</svg>
