<?xml version="1.0" encoding="UTF-8" standalone="no"?>
<!DOCTYPE svg PUBLIC "-//W3C//DTD SVG 1.1//EN"
 "http://www.w3.org/Graphics/SVG/1.1/DTD/svg11.dtd">
<!-- Generated by graphviz version 2.26.3 (20100126.1600)
 -->
<!-- Title: /home/travis/build/LibrePCB/LibrePCB/libs/librepcbcommon/fileio/smarttextfile.h Pages: 1 -->
<svg width="369pt" height="266pt"
 viewBox="0.00 0.00 369.00 266.00" xmlns="http://www.w3.org/2000/svg" xmlns:xlink="http://www.w3.org/1999/xlink">
<g id="graph1" class="graph" transform="scale(1 1) rotate(0) translate(4 262)">
<title>/home/travis/build/LibrePCB/LibrePCB/libs/librepcbcommon/fileio/smarttextfile.h</title>
<polygon fill="white" stroke="white" points="-4,5 -4,-262 366,-262 366,5 -4,5"/>
<!-- Node1 -->
<g id="node1" class="node"><title>Node1</title>
<polygon fill="#bfbfbf" stroke="black" points="146.5,-197 146.5,-257 271.5,-257 271.5,-197 146.5,-197"/>
<text text-anchor="start" x="154.5" y="-244" font-family="Helvetica,sans-Serif" font-size="10.00">/home/travis/build</text>
<text text-anchor="start" x="154.5" y="-231" font-family="Helvetica,sans-Serif" font-size="10.00">/LibrePCB/LibrePCB/libs</text>
<text text-anchor="start" x="154.5" y="-218" font-family="Helvetica,sans-Serif" font-size="10.00">/librepcbcommon/fileio</text>
<text text-anchor="middle" x="209" y="-205" font-family="Helvetica,sans-Serif" font-size="10.00">/smarttextfile.h</text>
</g>
<!-- Node2 -->
<g id="node3" class="node"><title>Node2</title>
<a xlink:href="../../d3/d76/smartinifile_8h.html" target="_top" xlink:title="/home/travis/build\l/LibrePCB/LibrePCB/libs\l/librepcbcommon/fileio\l/smartinifile.h">
<polygon fill="white" stroke="black" points="56.5,-99 56.5,-159 181.5,-159 181.5,-99 56.5,-99"/>
<text text-anchor="start" x="64.5" y="-146" font-family="Helvetica,sans-Serif" font-size="10.00">/home/travis/build</text>
<text text-anchor="start" x="64.5" y="-133" font-family="Helvetica,sans-Serif" font-size="10.00">/LibrePCB/LibrePCB/libs</text>
<text text-anchor="start" x="64.5" y="-120" font-family="Helvetica,sans-Serif" font-size="10.00">/librepcbcommon/fileio</text>
<text text-anchor="middle" x="119" y="-107" font-family="Helvetica,sans-Serif" font-size="10.00">/smartinifile.h</text>
</a>
</g>
<!-- Node1&#45;&gt;Node2 -->
<g id="edge2" class="edge"><title>Node1&#45;&gt;Node2</title>
<path fill="none" stroke="midnightblue" d="M174.418,-189.344C165.278,-179.392 155.531,-168.778 146.801,-159.272"/>
<polygon fill="midnightblue" stroke="midnightblue" points="171.921,-191.799 181.263,-196.797 177.076,-187.064 171.921,-191.799"/>
</g>
<!-- Node4 -->
<g id="node7" class="node"><title>Node4</title>
<a xlink:href="../../df/d18/project_8cpp.html" target="_top" xlink:title="/home/travis/build\l/LibrePCB/LibrePCB/libs\l/librepcbproject/project.cpp">
<polygon fill="white" stroke="black" points="142,-7.5 142,-54.5 276,-54.5 276,-7.5 142,-7.5"/>
<text text-anchor="start" x="150" y="-41.5" font-family="Helvetica,sans-Serif" font-size="10.00">/home/travis/build</text>
<text text-anchor="start" x="150" y="-28.5" font-family="Helvetica,sans-Serif" font-size="10.00">/LibrePCB/LibrePCB/libs</text>
<text text-anchor="middle" x="209" y="-15.5" font-family="Helvetica,sans-Serif" font-size="10.00">/librepcbproject/project.cpp</text>
</a>
</g>
<!-- Node1&#45;&gt;Node4 -->
<g id="edge10" class="edge"><title>Node1&#45;&gt;Node4</title>
<path fill="none" stroke="midnightblue" d="M209,-186.649C209,-146.887 209,-87.48 209,-54.755"/>
<polygon fill="midnightblue" stroke="midnightblue" points="205.5,-186.805 209,-196.805 212.5,-186.805 205.5,-186.805"/>
</g>
<!-- Node5 -->
<g id="node9" class="node"><title>Node5</title>
<a xlink:href="../../d2/d05/smarttextfile_8cpp.html" target="_top" xlink:title="/home/travis/build\l/LibrePCB/LibrePCB/libs\l/librepcbcommon/fileio\l/smarttextfile.cpp">
<polygon fill="white" stroke="black" points="236.5,-99 236.5,-159 361.5,-159 361.5,-99 236.5,-99"/>
<text text-anchor="start" x="244.5" y="-146" font-family="Helvetica,sans-Serif" font-size="10.00">/home/travis/build</text>
<text text-anchor="start" x="244.5" y="-133" font-family="Helvetica,sans-Serif" font-size="10.00">/LibrePCB/LibrePCB/libs</text>
<text text-anchor="start" x="244.5" y="-120" font-family="Helvetica,sans-Serif" font-size="10.00">/librepcbcommon/fileio</text>
<text text-anchor="middle" x="299" y="-107" font-family="Helvetica,sans-Serif" font-size="10.00">/smarttextfile.cpp</text>
</a>
</g>
<!-- Node1&#45;&gt;Node5 -->
<g id="edge8" class="edge"><title>Node1&#45;&gt;Node5</title>
<path fill="none" stroke="midnightblue" d="M243.582,-189.344C252.722,-179.392 262.469,-168.778 271.199,-159.272"/>
<polygon fill="midnightblue" stroke="midnightblue" points="240.924,-187.064 236.737,-196.797 246.079,-191.799 240.924,-187.064"/>
</g>
<!-- Node3 -->
<g id="node5" class="node"><title>Node3</title>
<a xlink:href="../../de/d80/smartinifile_8cpp.html" target="_top" xlink:title="/home/travis/build\l/LibrePCB/LibrePCB/libs\l/librepcbcommon/fileio\l/smartinifile.cpp">
<polygon fill="white" stroke="black" points="-0.5,-1 -0.5,-61 124.5,-61 124.5,-1 -0.5,-1"/>
<text text-anchor="start" x="7.5" y="-48" font-family="Helvetica,sans-Serif" font-size="10.00">/home/travis/build</text>
<text text-anchor="start" x="7.5" y="-35" font-family="Helvetica,sans-Serif" font-size="10.00">/LibrePCB/LibrePCB/libs</text>
<text text-anchor="start" x="7.5" y="-22" font-family="Helvetica,sans-Serif" font-size="10.00">/librepcbcommon/fileio</text>
<text text-anchor="middle" x="62" y="-9" font-family="Helvetica,sans-Serif" font-size="10.00">/smartinifile.cpp</text>
</a>
</g>
<!-- Node2&#45;&gt;Node3 -->
<g id="edge4" class="edge"><title>Node2&#45;&gt;Node3</title>
<path fill="none" stroke="midnightblue" d="M96.2443,-89.8761C90.7058,-80.3537 84.8653,-70.3122 79.6071,-61.2718"/>
<polygon fill="midnightblue" stroke="midnightblue" points="93.3798,-91.9127 101.433,-98.7971 99.4307,-88.3932 93.3798,-91.9127"/>
</g>
<!-- Node2&#45;&gt;Node4 -->
<g id="edge6" class="edge"><title>Node2&#45;&gt;Node4</title>
<path fill="none" stroke="midnightblue" d="M153.622,-91.3001C164.915,-79.0032 177.131,-65.7021 187.208,-54.7289"/>
<polygon fill="midnightblue" stroke="midnightblue" points="150.924,-89.0644 146.737,-98.7971 156.079,-93.7992 150.924,-89.0644"/>
</g>
</g>
</svg>
