<?xml version="1.0" encoding="UTF-8" standalone="no"?>
<!DOCTYPE svg PUBLIC "-//W3C//DTD SVG 1.1//EN"
 "http://www.w3.org/Graphics/SVG/1.1/DTD/svg11.dtd">
<!-- Generated by graphviz version 2.26.3 (20100126.1600)
 -->
<!-- Title: getPinsAtScenePos Pages: 1 -->
<svg width="424pt" height="94pt"
 viewBox="0.00 0.00 424.00 94.00" xmlns="http://www.w3.org/2000/svg" xmlns:xlink="http://www.w3.org/1999/xlink">
<g id="graph1" class="graph" transform="scale(1 1) rotate(0) translate(4 90)">
<title>getPinsAtScenePos</title>
<polygon fill="white" stroke="white" points="-4,5 -4,-90 421,-90 421,5 -4,5"/>
<!-- Node1 -->
<g id="node1" class="node"><title>Node1</title>
<polygon fill="#bfbfbf" stroke="black" points="0,-32.5 0,-53.5 104,-53.5 104,-32.5 0,-32.5"/>
<text text-anchor="middle" x="52" y="-40.5" font-family="Helvetica,sans-Serif" font-size="10.00">getPinsAtScenePos</text>
</g>
<!-- Node2 -->
<g id="node3" class="node"><title>Node2</title>
<a xlink:href="../../de/d50/classproject_1_1_s_i___symbol.html#a16a2a98f4b0e7d1e95f44fbbfd1e3d50" target="_top" xlink:title="project::SI_Symbol\l::getPins">
<polygon fill="white" stroke="black" points="149,-52 149,-86 249,-86 249,-52 149,-52"/>
<text text-anchor="start" x="157" y="-73" font-family="Helvetica,sans-Serif" font-size="10.00">project::SI_Symbol</text>
<text text-anchor="middle" x="199" y="-60" font-family="Helvetica,sans-Serif" font-size="10.00">::getPins</text>
</a>
</g>
<!-- Node1&#45;&gt;Node2 -->
<g id="edge2" class="edge"><title>Node1&#45;&gt;Node2</title>
<path fill="none" stroke="midnightblue" d="M104.241,-52.2398C115.474,-54.2267 127.433,-56.3418 138.936,-58.3765"/>
<polygon fill="midnightblue" stroke="midnightblue" points="138.442,-61.8434 148.899,-60.1386 139.662,-54.9504 138.442,-61.8434"/>
</g>
<!-- Node3 -->
<g id="node5" class="node"><title>Node3</title>
<a xlink:href="../../d6/d12/classproject_1_1_s_i___symbol_pin.html#af90fb11b274fda88ef94e9f685a6ab35" target="_top" xlink:title="project::SI_SymbolPin\l::getGrabAreaScenePx">
<polygon fill="white" stroke="black" points="140.5,-0 140.5,-34 257.5,-34 257.5,-0 140.5,-0"/>
<text text-anchor="start" x="148.5" y="-21" font-family="Helvetica,sans-Serif" font-size="10.00">project::SI_SymbolPin</text>
<text text-anchor="middle" x="199" y="-8" font-family="Helvetica,sans-Serif" font-size="10.00">::getGrabAreaScenePx</text>
</a>
</g>
<!-- Node1&#45;&gt;Node3 -->
<g id="edge4" class="edge"><title>Node1&#45;&gt;Node3</title>
<path fill="none" stroke="midnightblue" d="M104.241,-33.7602C112.755,-32.2543 121.685,-30.6747 130.519,-29.1124"/>
<polygon fill="midnightblue" stroke="midnightblue" points="131.186,-32.5488 140.423,-27.3605 129.966,-25.6558 131.186,-32.5488"/>
</g>
<!-- Node4 -->
<g id="node7" class="node"><title>Node4</title>
<a xlink:href="../../da/d6f/classproject_1_1_s_g_i___symbol_pin.html#a066dd522d7c2b9f0f85b2a103aba0542" target="_top" xlink:title="project::SGI_SymbolPin\l::shape">
<polygon fill="white" stroke="black" points="294,-0 294,-34 416,-34 416,-0 294,-0"/>
<text text-anchor="start" x="302" y="-21" font-family="Helvetica,sans-Serif" font-size="10.00">project::SGI_SymbolPin</text>
<text text-anchor="middle" x="355" y="-8" font-family="Helvetica,sans-Serif" font-size="10.00">::shape</text>
</a>
</g>
<!-- Node3&#45;&gt;Node4 -->
<g id="edge6" class="edge"><title>Node3&#45;&gt;Node4</title>
<path fill="none" stroke="midnightblue" d="M257.532,-17C266.046,-17 274.889,-17 283.622,-17"/>
<polygon fill="midnightblue" stroke="midnightblue" points="283.795,-20.5001 293.795,-17 283.795,-13.5001 283.795,-20.5001"/>
</g>
</g>
</svg>
