<?xml version="1.0" encoding="UTF-8" standalone="no"?>
<!DOCTYPE svg PUBLIC "-//W3C//DTD SVG 1.1//EN"
 "http://www.w3.org/Graphics/SVG/1.1/DTD/svg11.dtd">
<!-- Generated by graphviz version 2.26.3 (20100126.1600)
 -->
<!-- Title: removeSymbol Pages: 1 -->
<svg width="270pt" height="238pt"
 viewBox="0.00 0.00 270.00 238.00" xmlns="http://www.w3.org/2000/svg" xmlns:xlink="http://www.w3.org/1999/xlink">
<g id="graph1" class="graph" transform="scale(1 1) rotate(0) translate(4 234)">
<title>removeSymbol</title>
<polygon fill="white" stroke="white" points="-4,5 -4,-234 267,-234 267,5 -4,5"/>
<!-- Node1 -->
<g id="node1" class="node"><title>Node1</title>
<polygon fill="#bfbfbf" stroke="black" points="0,-98.5 0,-119.5 82,-119.5 82,-98.5 0,-98.5"/>
<text text-anchor="middle" x="41" y="-106.5" font-family="Helvetica,sans-Serif" font-size="10.00">removeSymbol</text>
</g>
<!-- Node2 -->
<g id="node3" class="node"><title>Node2</title>
<a xlink:href="../../d9/d81/classproject_1_1_cmd_symbol_instance_add.html#a91ca7652063093da57fc1bd0141dcc95" target="_top" xlink:title="Redo/execute the command (and all child commands in normal order) ">
<polygon fill="white" stroke="black" points="118.5,-196 118.5,-230 261.5,-230 261.5,-196 118.5,-196"/>
<text text-anchor="start" x="126.5" y="-217" font-family="Helvetica,sans-Serif" font-size="10.00">project::CmdSymbolInstance</text>
<text text-anchor="middle" x="190" y="-204" font-family="Helvetica,sans-Serif" font-size="10.00">Add::redo</text>
</a>
</g>
<!-- Node1&#45;&gt;Node2 -->
<g id="edge2" class="edge"><title>Node1&#45;&gt;Node2</title>
<path fill="none" stroke="midnightblue" d="M55.4348,-127.853C69.6687,-145.312 92.8856,-170.931 118,-187 123.15,-190.295 128.773,-193.245 134.534,-195.868"/>
<polygon fill="midnightblue" stroke="midnightblue" points="57.8084,-125.214 48.8478,-119.561 52.3272,-129.568 57.8084,-125.214"/>
</g>
<!-- Node3 -->
<g id="node5" class="node"><title>Node3</title>
<a xlink:href="../../d9/d81/classproject_1_1_cmd_symbol_instance_add.html#a19e8778088bfe76b16745470981bb913" target="_top" xlink:title="Undo the command (and all child commands in reverse order) ">
<polygon fill="white" stroke="black" points="118.5,-144 118.5,-178 261.5,-178 261.5,-144 118.5,-144"/>
<text text-anchor="start" x="126.5" y="-165" font-family="Helvetica,sans-Serif" font-size="10.00">project::CmdSymbolInstance</text>
<text text-anchor="middle" x="190" y="-152" font-family="Helvetica,sans-Serif" font-size="10.00">Add::undo</text>
</a>
</g>
<!-- Node1&#45;&gt;Node3 -->
<g id="edge4" class="edge"><title>Node1&#45;&gt;Node3</title>
<path fill="none" stroke="midnightblue" d="M80.7572,-122.875C99.3054,-129.348 121.556,-137.113 141.122,-143.942"/>
<polygon fill="midnightblue" stroke="midnightblue" points="81.7472,-119.514 71.1524,-119.523 79.4406,-126.123 81.7472,-119.514"/>
</g>
<!-- Node4 -->
<g id="node7" class="node"><title>Node4</title>
<a xlink:href="../../d6/d55/classproject_1_1_cmd_symbol_instance_remove.html#a91ca7652063093da57fc1bd0141dcc95" target="_top" xlink:title="Redo/execute the command (and all child commands in normal order) ">
<polygon fill="white" stroke="black" points="118.5,-92 118.5,-126 261.5,-126 261.5,-92 118.5,-92"/>
<text text-anchor="start" x="126.5" y="-113" font-family="Helvetica,sans-Serif" font-size="10.00">project::CmdSymbolInstance</text>
<text text-anchor="middle" x="190" y="-100" font-family="Helvetica,sans-Serif" font-size="10.00">Remove::redo</text>
</a>
</g>
<!-- Node1&#45;&gt;Node4 -->
<g id="edge6" class="edge"><title>Node1&#45;&gt;Node4</title>
<path fill="none" stroke="midnightblue" d="M92.1841,-109C100.653,-109 109.569,-109 118.43,-109"/>
<polygon fill="midnightblue" stroke="midnightblue" points="92.1094,-105.5 82.1093,-109 92.1093,-112.5 92.1094,-105.5"/>
</g>
<!-- Node5 -->
<g id="node9" class="node"><title>Node5</title>
<a xlink:href="../../d6/d55/classproject_1_1_cmd_symbol_instance_remove.html#a19e8778088bfe76b16745470981bb913" target="_top" xlink:title="Undo the command (and all child commands in reverse order) ">
<polygon fill="white" stroke="black" points="118.5,-40 118.5,-74 261.5,-74 261.5,-40 118.5,-40"/>
<text text-anchor="start" x="126.5" y="-61" font-family="Helvetica,sans-Serif" font-size="10.00">project::CmdSymbolInstance</text>
<text text-anchor="middle" x="190" y="-48" font-family="Helvetica,sans-Serif" font-size="10.00">Remove::undo</text>
</a>
</g>
<!-- Node1&#45;&gt;Node5 -->
<g id="edge8" class="edge"><title>Node1&#45;&gt;Node5</title>
<path fill="none" stroke="midnightblue" d="M80.7572,-95.125C99.3054,-88.6518 121.556,-80.8866 141.122,-74.0582"/>
<polygon fill="midnightblue" stroke="midnightblue" points="79.4406,-91.8774 71.1524,-98.477 81.7472,-98.4865 79.4406,-91.8774"/>
</g>
<!-- Node6 -->
<g id="node11" class="node"><title>Node6</title>
<a xlink:href="../../dd/d2d/classproject_1_1_schematic.html#a9d2b171705c992ace4155d02176f0022" target="_top" xlink:title="~Schematic">
<polygon fill="white" stroke="black" points="155.5,-0.5 155.5,-21.5 224.5,-21.5 224.5,-0.5 155.5,-0.5"/>
<text text-anchor="middle" x="190" y="-8.5" font-family="Helvetica,sans-Serif" font-size="10.00">~Schematic</text>
</a>
</g>
<!-- Node1&#45;&gt;Node6 -->
<g id="edge10" class="edge"><title>Node1&#45;&gt;Node6</title>
<path fill="none" stroke="midnightblue" d="M54.557,-90.4892C68.5352,-72.7023 91.9196,-46.33 118,-31 129.296,-24.3602 142.886,-19.8465 155.202,-16.8148"/>
<polygon fill="midnightblue" stroke="midnightblue" points="51.7687,-88.3737 48.48,-98.4452 57.3316,-92.6228 51.7687,-88.3737"/>
</g>
</g>
</svg>
