<?xml version="1.0" encoding="UTF-8" standalone="no"?>
<!DOCTYPE svg PUBLIC "-//W3C//DTD SVG 1.1//EN"
 "http://www.w3.org/Graphics/SVG/1.1/DTD/svg11.dtd">
<!-- Generated by graphviz version 2.26.3 (20100126.1600)
 -->
<!-- Title: getUuid Pages: 1 -->
<svg width="1040pt" height="334pt"
 viewBox="0.00 0.00 1040.00 334.15" xmlns="http://www.w3.org/2000/svg" xmlns:xlink="http://www.w3.org/1999/xlink">
<g id="graph1" class="graph" transform="scale(1 1) rotate(0) translate(4 330.155)">
<title>getUuid</title>
<polygon fill="white" stroke="white" points="-4,5 -4,-330.155 1037,-330.155 1037,5 -4,5"/>
<!-- Node1 -->
<g id="node1" class="node"><title>Node1</title>
<polygon fill="#bfbfbf" stroke="black" points="0,-148.5 0,-169.5 50,-169.5 50,-148.5 0,-148.5"/>
<text text-anchor="middle" x="25" y="-156.5" font-family="Helvetica,sans-Serif" font-size="10.00">getUuid</text>
</g>
<!-- Node2 -->
<g id="node3" class="node"><title>Node2</title>
<a xlink:href="../../d7/d7c/classlibrary_1_1_generic_component.html#a707cf56368ef6282708cf47ab360e6e4" target="_top" xlink:title="library::GenericComponent\l::getSymbolVariantByUuid">
<polygon fill="white" stroke="black" points="91.5,-246 91.5,-280 224.5,-280 224.5,-246 91.5,-246"/>
<text text-anchor="start" x="99.5" y="-267" font-family="Helvetica,sans-Serif" font-size="10.00">library::GenericComponent</text>
<text text-anchor="middle" x="158" y="-254" font-family="Helvetica,sans-Serif" font-size="10.00">::getSymbolVariantByUuid</text>
</a>
</g>
<!-- Node1&#45;&gt;Node2 -->
<g id="edge2" class="edge"><title>Node1&#45;&gt;Node2</title>
<path fill="none" stroke="midnightblue" d="M35.8637,-178.46C46.552,-195.991 64.3846,-221.345 86,-237 90.6283,-240.352 95.7332,-243.312 101.024,-245.916"/>
<polygon fill="midnightblue" stroke="midnightblue" points="38.764,-176.487 30.6821,-169.636 32.7279,-180.032 38.764,-176.487"/>
</g>
<!-- Node4 -->
<g id="node7" class="node"><title>Node4</title>
<a xlink:href="../../d7/d7c/classlibrary_1_1_generic_component.html#a524ed0dd8a5522b754411728dfe5c752" target="_top" xlink:title="Check the validity of all attributes of the object. ">
<polygon fill="white" stroke="black" points="296.5,-291 296.5,-325 429.5,-325 429.5,-291 296.5,-291"/>
<text text-anchor="start" x="304.5" y="-312" font-family="Helvetica,sans-Serif" font-size="10.00">library::GenericComponent</text>
<text text-anchor="middle" x="363" y="-299" font-family="Helvetica,sans-Serif" font-size="10.00">::checkAttributesValidity</text>
</a>
</g>
<!-- Node1&#45;&gt;Node4 -->
<g id="edge12" class="edge"><title>Node1&#45;&gt;Node4</title>
<path fill="none" stroke="midnightblue" d="M28.1453,-179.865C33.8553,-209.677 48.9692,-263.651 86,-289 147.653,-331.204 236.194,-329.267 296.462,-321.169"/>
<polygon fill="midnightblue" stroke="midnightblue" points="31.5458,-178.989 26.3912,-169.733 24.6483,-180.184 31.5458,-178.989"/>
</g>
<!-- Node6 -->
<g id="node11" class="node"><title>Node6</title>
<a xlink:href="../../d7/d7c/classlibrary_1_1_generic_component.html#ad6c2bb438fe200b1224b2d8e05d3eca0" target="_top" xlink:title="library::GenericComponent\l::parseDomTree">
<polygon fill="white" stroke="black" points="91.5,-194 91.5,-228 224.5,-228 224.5,-194 91.5,-194"/>
<text text-anchor="start" x="99.5" y="-215" font-family="Helvetica,sans-Serif" font-size="10.00">library::GenericComponent</text>
<text text-anchor="middle" x="158" y="-202" font-family="Helvetica,sans-Serif" font-size="10.00">::parseDomTree</text>
</a>
</g>
<!-- Node1&#45;&gt;Node6 -->
<g id="edge10" class="edge"><title>Node1&#45;&gt;Node6</title>
<path fill="none" stroke="midnightblue" d="M58.2757,-173.584C67.2355,-177.401 76.9523,-181.441 86,-185 93.5444,-187.967 101.581,-190.997 109.448,-193.89"/>
<polygon fill="midnightblue" stroke="midnightblue" points="59.4876,-170.296 48.9181,-169.564 56.7242,-176.727 59.4876,-170.296"/>
</g>
<!-- Node7 -->
<g id="node14" class="node"><title>Node7</title>
<a xlink:href="../../de/d67/classproject_1_1_gen_comp_instance.html#aeb87054a7c12b9ccee59af89a9abf24f" target="_top" xlink:title="Serialize the object to a XML DOM element. ">
<polygon fill="white" stroke="black" points="86,-0 86,-34 230,-34 230,-0 86,-0"/>
<text text-anchor="start" x="94" y="-21" font-family="Helvetica,sans-Serif" font-size="10.00">project::GenCompInstance</text>
<text text-anchor="middle" x="158" y="-8" font-family="Helvetica,sans-Serif" font-size="10.00">::serializeToXmlDomElement</text>
</a>
</g>
<!-- Node1&#45;&gt;Node7 -->
<g id="edge14" class="edge"><title>Node1&#45;&gt;Node7</title>
<path fill="none" stroke="midnightblue" d="M31.545,-138.662C40.356,-114.188 58.2109,-73.2435 86,-48 92.0442,-42.5095 99.2102,-37.8898 106.64,-34.0343"/>
<polygon fill="midnightblue" stroke="midnightblue" points="28.1589,-137.747 28.2246,-148.342 34.7801,-140.018 28.1589,-137.747"/>
</g>
<!-- Node9 -->
<g id="node18" class="node"><title>Node9</title>
<a xlink:href="../../d1/d92/classproject_1_1_add_gen_comp_dialog.html#a0c185cf76ee12c6d0bf8bff219ca5d8a" target="_top" xlink:title="project::AddGenCompDialog\l::getSelectedSymbVarUuid">
<polygon fill="white" stroke="black" points="87.5,-90 87.5,-124 228.5,-124 228.5,-90 87.5,-90"/>
<text text-anchor="start" x="95.5" y="-111" font-family="Helvetica,sans-Serif" font-size="10.00">project::AddGenCompDialog</text>
<text text-anchor="middle" x="158" y="-98" font-family="Helvetica,sans-Serif" font-size="10.00">::getSelectedSymbVarUuid</text>
</a>
</g>
<!-- Node1&#45;&gt;Node9 -->
<g id="edge18" class="edge"><title>Node1&#45;&gt;Node9</title>
<path fill="none" stroke="midnightblue" d="M58.2757,-144.416C67.2355,-140.599 76.9523,-136.559 86,-133 93.5444,-130.033 101.581,-127.003 109.448,-124.11"/>
<polygon fill="midnightblue" stroke="midnightblue" points="56.7242,-141.273 48.9181,-148.436 59.4876,-147.704 56.7242,-141.273"/>
</g>
<!-- Node10 -->
<g id="node20" class="node"><title>Node10</title>
<a xlink:href="../../d1/d92/classproject_1_1_add_gen_comp_dialog.html#abf6af5dc67073d848d5cf561412d4b27" target="_top" xlink:title="project::AddGenCompDialog\l::setSelectedGenComp">
<polygon fill="white" stroke="black" points="292.5,-93 292.5,-127 433.5,-127 433.5,-93 292.5,-93"/>
<text text-anchor="start" x="300.5" y="-114" font-family="Helvetica,sans-Serif" font-size="10.00">project::AddGenCompDialog</text>
<text text-anchor="middle" x="363" y="-101" font-family="Helvetica,sans-Serif" font-size="10.00">::setSelectedGenComp</text>
</a>
</g>
<!-- Node1&#45;&gt;Node10 -->
<g id="edge20" class="edge"><title>Node1&#45;&gt;Node10</title>
<path fill="none" stroke="midnightblue" d="M33.9876,-139.177C43.7697,-120.288 61.3743,-93.0035 86,-81 163.15,-43.3944 266.481,-71.8788 322.599,-92.8838"/>
<polygon fill="midnightblue" stroke="midnightblue" points="30.7214,-137.889 29.476,-148.411 37.0108,-140.963 30.7214,-137.889"/>
</g>
<!-- Node15 -->
<g id="node30" class="node"><title>Node15</title>
<a xlink:href="../../d1/d92/classproject_1_1_add_gen_comp_dialog.html#adfcb4e9c07721bf39ddcb34d2e39e61c" target="_top" xlink:title="project::AddGenCompDialog\l::setSelectedSymbVar">
<polygon fill="white" stroke="black" points="87.5,-142 87.5,-176 228.5,-176 228.5,-142 87.5,-142"/>
<text text-anchor="start" x="95.5" y="-163" font-family="Helvetica,sans-Serif" font-size="10.00">project::AddGenCompDialog</text>
<text text-anchor="middle" x="158" y="-150" font-family="Helvetica,sans-Serif" font-size="10.00">::setSelectedSymbVar</text>
</a>
</g>
<!-- Node1&#45;&gt;Node15 -->
<g id="edge30" class="edge"><title>Node1&#45;&gt;Node15</title>
<path fill="none" stroke="midnightblue" d="M60.1805,-159C68.6182,-159 77.9277,-159 87.3487,-159"/>
<polygon fill="midnightblue" stroke="midnightblue" points="60.0163,-155.5 50.0163,-159 60.0162,-162.5 60.0163,-155.5"/>
</g>
<!-- Node3 -->
<g id="node5" class="node"><title>Node3</title>
<a xlink:href="../../d7/d7c/classlibrary_1_1_generic_component.html#aef815675052fb5b66236635c32d075fa" target="_top" xlink:title="library::GenericComponent\l::getDefaultSymbolVariant">
<polygon fill="white" stroke="black" points="296.5,-239 296.5,-273 429.5,-273 429.5,-239 296.5,-239"/>
<text text-anchor="start" x="304.5" y="-260" font-family="Helvetica,sans-Serif" font-size="10.00">library::GenericComponent</text>
<text text-anchor="middle" x="363" y="-247" font-family="Helvetica,sans-Serif" font-size="10.00">::getDefaultSymbolVariant</text>
</a>
</g>
<!-- Node2&#45;&gt;Node3 -->
<g id="edge4" class="edge"><title>Node2&#45;&gt;Node3</title>
<path fill="none" stroke="midnightblue" d="M234.701,-260.381C254.99,-259.688 276.722,-258.946 296.426,-258.273"/>
<polygon fill="midnightblue" stroke="midnightblue" points="234.432,-256.888 224.558,-260.727 234.671,-263.884 234.432,-256.888"/>
</g>
<!-- Node2&#45;&gt;Node4 -->
<g id="edge6" class="edge"><title>Node2&#45;&gt;Node4</title>
<path fill="none" stroke="midnightblue" d="M234.423,-279.776C254.792,-284.247 276.632,-289.041 296.426,-293.386"/>
<polygon fill="midnightblue" stroke="midnightblue" points="235.076,-276.336 224.558,-277.61 233.575,-283.173 235.076,-276.336"/>
</g>
<!-- Node5 -->
<g id="node9" class="node"><title>Node5</title>
<a xlink:href="../../d1/d92/classproject_1_1_add_gen_comp_dialog.html#a59cdf065c69c12551c2043dfe0891ff1" target="_top" xlink:title="project::AddGenCompDialog\l::on_cbxSymbVar_currentIndexChanged">
<polygon fill="white" stroke="black" points="266.5,-164 266.5,-198 459.5,-198 459.5,-164 266.5,-164"/>
<text text-anchor="start" x="274.5" y="-185" font-family="Helvetica,sans-Serif" font-size="10.00">project::AddGenCompDialog</text>
<text text-anchor="middle" x="363" y="-172" font-family="Helvetica,sans-Serif" font-size="10.00">::on_cbxSymbVar_currentIndexChanged</text>
</a>
</g>
<!-- Node2&#45;&gt;Node5 -->
<g id="edge8" class="edge"><title>Node2&#45;&gt;Node5</title>
<path fill="none" stroke="midnightblue" d="M216.171,-242.288C220.861,-240.529 225.517,-238.752 230,-237 261.852,-224.553 297.55,-209.458 323.936,-198.078"/>
<polygon fill="midnightblue" stroke="midnightblue" points="214.699,-239.101 206.541,-245.861 217.134,-245.664 214.699,-239.101"/>
</g>
<!-- Node8 -->
<g id="node16" class="node"><title>Node8</title>
<a xlink:href="../../d1/d03/classproject_1_1_circuit.html#aeb87054a7c12b9ccee59af89a9abf24f" target="_top" xlink:title="Serialize the object to a XML DOM element. ">
<polygon fill="white" stroke="black" points="302,-0 302,-34 424,-34 424,-0 302,-0"/>
<text text-anchor="start" x="310" y="-21" font-family="Helvetica,sans-Serif" font-size="10.00">project::Circuit::serialize</text>
<text text-anchor="middle" x="363" y="-8" font-family="Helvetica,sans-Serif" font-size="10.00">ToXmlDomElement</text>
</a>
</g>
<!-- Node7&#45;&gt;Node8 -->
<g id="edge16" class="edge"><title>Node7&#45;&gt;Node8</title>
<path fill="none" stroke="midnightblue" d="M240.55,-17C261.041,-17 282.638,-17 301.893,-17"/>
<polygon fill="midnightblue" stroke="midnightblue" points="240.275,-13.5001 230.275,-17 240.275,-20.5001 240.275,-13.5001"/>
</g>
<!-- Node11 -->
<g id="node22" class="node"><title>Node11</title>
<a xlink:href="../../d1/d92/classproject_1_1_add_gen_comp_dialog.html#a5951d1d20ef2d9675b3b1690d6799fa7" target="_top" xlink:title="project::AddGenCompDialog\l::on_listGenericComponents\l_currentItemChanged">
<polygon fill="white" stroke="black" points="496.5,-115.5 496.5,-162.5 637.5,-162.5 637.5,-115.5 496.5,-115.5"/>
<text text-anchor="start" x="504.5" y="-149.5" font-family="Helvetica,sans-Serif" font-size="10.00">project::AddGenCompDialog</text>
<text text-anchor="start" x="504.5" y="-136.5" font-family="Helvetica,sans-Serif" font-size="10.00">::on_listGenericComponents</text>
<text text-anchor="middle" x="567" y="-123.5" font-family="Helvetica,sans-Serif" font-size="10.00">_currentItemChanged</text>
</a>
</g>
<!-- Node10&#45;&gt;Node11 -->
<g id="edge22" class="edge"><title>Node10&#45;&gt;Node11</title>
<path fill="none" stroke="midnightblue" d="M443.876,-121.497C461.224,-123.963 479.424,-126.55 496.348,-128.956"/>
<polygon fill="midnightblue" stroke="midnightblue" points="444.17,-118.004 433.777,-120.061 443.185,-124.934 444.17,-118.004"/>
</g>
<!-- Node12 -->
<g id="node24" class="node"><title>Node12</title>
<a xlink:href="../../d1/d92/classproject_1_1_add_gen_comp_dialog.html#ae968bf4d25607bdad3eb848014d999da" target="_top" xlink:title="project::AddGenCompDialog\l::setSelectedCategory">
<polygon fill="white" stroke="black" points="496.5,-63 496.5,-97 637.5,-97 637.5,-63 496.5,-63"/>
<text text-anchor="start" x="504.5" y="-84" font-family="Helvetica,sans-Serif" font-size="10.00">project::AddGenCompDialog</text>
<text text-anchor="middle" x="567" y="-71" font-family="Helvetica,sans-Serif" font-size="10.00">::setSelectedCategory</text>
</a>
</g>
<!-- Node10&#45;&gt;Node12 -->
<g id="edge24" class="edge"><title>Node10&#45;&gt;Node12</title>
<path fill="none" stroke="midnightblue" d="M443.876,-98.1065C461.224,-95.5553 479.424,-92.8789 496.348,-90.39"/>
<polygon fill="midnightblue" stroke="midnightblue" points="443.161,-94.6739 433.777,-99.5916 444.18,-101.599 443.161,-94.6739"/>
</g>
<!-- Node13 -->
<g id="node26" class="node"><title>Node13</title>
<a xlink:href="../../d1/d92/classproject_1_1_add_gen_comp_dialog.html#ab30df3fcf42614694068294b48161b00" target="_top" xlink:title="project::AddGenCompDialog\l::treeCategories_currentItemChanged">
<polygon fill="white" stroke="black" points="674,-63 674,-97 854,-97 854,-63 674,-63"/>
<text text-anchor="start" x="682" y="-84" font-family="Helvetica,sans-Serif" font-size="10.00">project::AddGenCompDialog</text>
<text text-anchor="middle" x="764" y="-71" font-family="Helvetica,sans-Serif" font-size="10.00">::treeCategories_currentItemChanged</text>
</a>
</g>
<!-- Node12&#45;&gt;Node13 -->
<g id="edge26" class="edge"><title>Node12&#45;&gt;Node13</title>
<path fill="none" stroke="midnightblue" d="M647.654,-80C656.338,-80 665.213,-80 673.998,-80"/>
<polygon fill="midnightblue" stroke="midnightblue" points="647.565,-76.5001 637.565,-80 647.565,-83.5001 647.565,-76.5001"/>
</g>
<!-- Node14 -->
<g id="node28" class="node"><title>Node14</title>
<a xlink:href="../../d1/d92/classproject_1_1_add_gen_comp_dialog.html#a158bc6ffa6ab14d062e57c57929a197f" target="_top" xlink:title="project::AddGenCompDialog\l::AddGenCompDialog">
<polygon fill="white" stroke="black" points="890.5,-63 890.5,-97 1031.5,-97 1031.5,-63 890.5,-63"/>
<text text-anchor="start" x="898.5" y="-84" font-family="Helvetica,sans-Serif" font-size="10.00">project::AddGenCompDialog</text>
<text text-anchor="middle" x="961" y="-71" font-family="Helvetica,sans-Serif" font-size="10.00">::AddGenCompDialog</text>
</a>
</g>
<!-- Node13&#45;&gt;Node14 -->
<g id="edge28" class="edge"><title>Node13&#45;&gt;Node14</title>
<path fill="none" stroke="midnightblue" d="M864.422,-80C873.187,-80 881.932,-80 890.378,-80"/>
<polygon fill="midnightblue" stroke="midnightblue" points="864.14,-76.5001 854.14,-80 864.14,-83.5001 864.14,-76.5001"/>
</g>
<!-- Node15&#45;&gt;Node5 -->
<g id="edge32" class="edge"><title>Node15&#45;&gt;Node5</title>
<path fill="none" stroke="midnightblue" d="M238.659,-167.656C247.717,-168.628 257.013,-169.626 266.247,-170.617"/>
<polygon fill="midnightblue" stroke="midnightblue" points="238.866,-164.158 228.549,-166.571 238.119,-171.118 238.866,-164.158"/>
</g>
<!-- Node15&#45;&gt;Node10 -->
<g id="edge34" class="edge"><title>Node15&#45;&gt;Node10</title>
<path fill="none" stroke="midnightblue" d="M238.339,-139.797C256.16,-135.537 274.919,-131.053 292.321,-126.894"/>
<polygon fill="midnightblue" stroke="midnightblue" points="237.462,-136.408 228.549,-142.137 239.089,-143.216 237.462,-136.408"/>
</g>
</g>
</svg>
