<?xml version="1.0" encoding="UTF-8" standalone="no"?>
<!DOCTYPE svg PUBLIC "-//W3C//DTD SVG 1.1//EN"
 "http://www.w3.org/Graphics/SVG/1.1/DTD/svg11.dtd">
<!-- Generated by graphviz version 2.26.3 (20100126.1600)
 -->
<!-- Title: unregisterNetPoint Pages: 1 -->
<svg width="420pt" height="94pt"
 viewBox="0.00 0.00 420.00 94.00" xmlns="http://www.w3.org/2000/svg" xmlns:xlink="http://www.w3.org/1999/xlink">
<g id="graph1" class="graph" transform="scale(1 1) rotate(0) translate(4 90)">
<title>unregisterNetPoint</title>
<polygon fill="white" stroke="white" points="-4,5 -4,-90 417,-90 417,5 -4,5"/>
<!-- Node1 -->
<g id="node1" class="node"><title>Node1</title>
<polygon fill="#bfbfbf" stroke="black" points="0,-32.5 0,-53.5 98,-53.5 98,-32.5 0,-32.5"/>
<text text-anchor="middle" x="49" y="-40.5" font-family="Helvetica,sans-Serif" font-size="10.00">unregisterNetPoint</text>
</g>
<!-- Node2 -->
<g id="node3" class="node"><title>Node2</title>
<a xlink:href="../../d3/d43/classproject_1_1_s_i___net_point.html#a1894cd9c0e70404c048068221df5135d" target="_top" xlink:title="project::SI_NetPoint\l::detachFromPin">
<polygon fill="white" stroke="black" points="134.5,-26 134.5,-60 239.5,-60 239.5,-26 134.5,-26"/>
<text text-anchor="start" x="142.5" y="-47" font-family="Helvetica,sans-Serif" font-size="10.00">project::SI_NetPoint</text>
<text text-anchor="middle" x="187" y="-34" font-family="Helvetica,sans-Serif" font-size="10.00">::detachFromPin</text>
</a>
</g>
<!-- Node1&#45;&gt;Node2 -->
<g id="edge2" class="edge"><title>Node1&#45;&gt;Node2</title>
<path fill="none" stroke="midnightblue" d="M108.145,-43C116.864,-43 125.797,-43 134.373,-43"/>
<polygon fill="midnightblue" stroke="midnightblue" points="108.042,-39.5001 98.0422,-43 108.042,-46.5001 108.042,-39.5001"/>
</g>
<!-- Node3 -->
<g id="node5" class="node"><title>Node3</title>
<a xlink:href="../../d1/d92/classproject_1_1_cmd_schematic_net_point_detach.html#a91ca7652063093da57fc1bd0141dcc95" target="_top" xlink:title="Redo/execute the command (and all child commands in normal order) ">
<polygon fill="white" stroke="black" points="276.5,-52 276.5,-86 411.5,-86 411.5,-52 276.5,-52"/>
<text text-anchor="start" x="284.5" y="-73" font-family="Helvetica,sans-Serif" font-size="10.00">project::CmdSchematicNet</text>
<text text-anchor="middle" x="344" y="-60" font-family="Helvetica,sans-Serif" font-size="10.00">PointDetach::redo</text>
</a>
</g>
<!-- Node2&#45;&gt;Node3 -->
<g id="edge4" class="edge"><title>Node2&#45;&gt;Node3</title>
<path fill="none" stroke="midnightblue" d="M249.816,-53.4026C258.549,-54.8488 267.551,-56.3397 276.368,-57.7998"/>
<polygon fill="midnightblue" stroke="midnightblue" points="250.153,-49.9109 239.715,-51.73 249.009,-56.8168 250.153,-49.9109"/>
</g>
<!-- Node4 -->
<g id="node7" class="node"><title>Node4</title>
<a xlink:href="../../d1/d92/classproject_1_1_cmd_schematic_net_point_detach.html#a19e8778088bfe76b16745470981bb913" target="_top" xlink:title="Undo the command (and all child commands in reverse order) ">
<polygon fill="white" stroke="black" points="276.5,-0 276.5,-34 411.5,-34 411.5,-0 276.5,-0"/>
<text text-anchor="start" x="284.5" y="-21" font-family="Helvetica,sans-Serif" font-size="10.00">project::CmdSchematicNet</text>
<text text-anchor="middle" x="344" y="-8" font-family="Helvetica,sans-Serif" font-size="10.00">PointDetach::undo</text>
</a>
</g>
<!-- Node2&#45;&gt;Node4 -->
<g id="edge6" class="edge"><title>Node2&#45;&gt;Node4</title>
<path fill="none" stroke="midnightblue" d="M249.816,-32.5974C258.549,-31.1512 267.551,-29.6603 276.368,-28.2002"/>
<polygon fill="midnightblue" stroke="midnightblue" points="249.009,-29.1832 239.715,-34.27 250.153,-36.0891 249.009,-29.1832"/>
</g>
</g>
</svg>
