<?xml version="1.0" encoding="UTF-8" standalone="no"?>
<!DOCTYPE svg PUBLIC "-//W3C//DTD SVG 1.1//EN"
 "http://www.w3.org/Graphics/SVG/1.1/DTD/svg11.dtd">
<!-- Generated by graphviz version 2.26.3 (20100126.1600)
 -->
<!-- Title: getSymbol Pages: 1 -->
<svg width="686pt" height="160pt"
 viewBox="0.00 0.00 686.00 160.00" xmlns="http://www.w3.org/2000/svg" xmlns:xlink="http://www.w3.org/1999/xlink">
<g id="graph1" class="graph" transform="scale(1 1) rotate(0) translate(4 156)">
<title>getSymbol</title>
<polygon fill="white" stroke="white" points="-4,5 -4,-156 683,-156 683,5 -4,5"/>
<!-- Node1 -->
<g id="node1" class="node"><title>Node1</title>
<polygon fill="#bfbfbf" stroke="black" points="0.5,-46.5 0.5,-67.5 63.5,-67.5 63.5,-46.5 0.5,-46.5"/>
<text text-anchor="middle" x="32" y="-54.5" font-family="Helvetica,sans-Serif" font-size="10.00">getSymbol</text>
</g>
<!-- Node2 -->
<g id="node3" class="node"><title>Node2</title>
<a xlink:href="../../da/d6f/classproject_1_1_s_g_i___symbol_pin.html#abbb5db1b700a86caa85ff4c0c13142f2" target="_top" xlink:title="project::SGI_SymbolPin\l::updateCacheAndRepaint">
<polygon fill="white" stroke="black" points="100.5,-40 100.5,-74 231.5,-74 231.5,-40 100.5,-40"/>
<text text-anchor="start" x="108.5" y="-61" font-family="Helvetica,sans-Serif" font-size="10.00">project::SGI_SymbolPin</text>
<text text-anchor="middle" x="166" y="-48" font-family="Helvetica,sans-Serif" font-size="10.00">::updateCacheAndRepaint</text>
</a>
</g>
<!-- Node1&#45;&gt;Node2 -->
<g id="edge2" class="edge"><title>Node1&#45;&gt;Node2</title>
<path fill="none" stroke="midnightblue" d="M73.7581,-57C82.2527,-57 91.3812,-57 100.474,-57"/>
<polygon fill="midnightblue" stroke="midnightblue" points="73.7562,-53.5001 63.7561,-57 73.7561,-60.5001 73.7562,-53.5001"/>
</g>
<!-- Node3 -->
<g id="node5" class="node"><title>Node3</title>
<a xlink:href="../../d6/d12/classproject_1_1_s_i___symbol_pin.html#a212e36e19edc323ddeb73387d2f011a5" target="_top" xlink:title="updatePosition">
<polygon fill="white" stroke="black" points="268.5,-46.5 268.5,-67.5 349.5,-67.5 349.5,-46.5 268.5,-46.5"/>
<text text-anchor="middle" x="309" y="-54.5" font-family="Helvetica,sans-Serif" font-size="10.00">updatePosition</text>
</a>
</g>
<!-- Node2&#45;&gt;Node3 -->
<g id="edge4" class="edge"><title>Node2&#45;&gt;Node3</title>
<path fill="none" stroke="midnightblue" d="M241.902,-57C250.983,-57 259.968,-57 268.27,-57"/>
<polygon fill="midnightblue" stroke="midnightblue" points="241.641,-53.5001 231.641,-57 241.641,-60.5001 241.641,-53.5001"/>
</g>
<!-- Node4 -->
<g id="node7" class="node"><title>Node4</title>
<a xlink:href="../../de/d50/classproject_1_1_s_i___symbol.html#ae4d151fe3fae75cb19c5add958a470a8" target="_top" xlink:title="project::SI_Symbol\l::setPosition">
<polygon fill="white" stroke="black" points="386,-40 386,-74 486,-74 486,-40 386,-40"/>
<text text-anchor="start" x="394" y="-61" font-family="Helvetica,sans-Serif" font-size="10.00">project::SI_Symbol</text>
<text text-anchor="middle" x="436" y="-48" font-family="Helvetica,sans-Serif" font-size="10.00">::setPosition</text>
</a>
</g>
<!-- Node3&#45;&gt;Node4 -->
<g id="edge6" class="edge"><title>Node3&#45;&gt;Node4</title>
<path fill="none" stroke="midnightblue" d="M359.725,-57C368.247,-57 377.089,-57 385.602,-57"/>
<polygon fill="midnightblue" stroke="midnightblue" points="359.533,-53.5001 349.533,-57 359.533,-60.5001 359.533,-53.5001"/>
</g>
<!-- Node8 -->
<g id="node15" class="node"><title>Node8</title>
<a xlink:href="../../de/d50/classproject_1_1_s_i___symbol.html#ac2fecbff745326981395b663b0494597" target="_top" xlink:title="project::SI_Symbol\l::setAngle">
<polygon fill="white" stroke="black" points="386,-92 386,-126 486,-126 486,-92 386,-92"/>
<text text-anchor="start" x="394" y="-113" font-family="Helvetica,sans-Serif" font-size="10.00">project::SI_Symbol</text>
<text text-anchor="middle" x="436" y="-100" font-family="Helvetica,sans-Serif" font-size="10.00">::setAngle</text>
</a>
</g>
<!-- Node3&#45;&gt;Node8 -->
<g id="edge14" class="edge"><title>Node3&#45;&gt;Node8</title>
<path fill="none" stroke="midnightblue" d="M343.985,-71.3245C359.569,-77.7055 378.046,-85.2708 394.339,-91.9418"/>
<polygon fill="midnightblue" stroke="midnightblue" points="345.281,-68.0732 334.7,-67.523 342.628,-74.5512 345.281,-68.0732"/>
</g>
<!-- Node9 -->
<g id="node20" class="node"><title>Node9</title>
<a xlink:href="../../d6/d12/classproject_1_1_s_i___symbol_pin.html#a2e791a2f0f926f88b6d3a8b6d73a03f0" target="_top" xlink:title="SI_SymbolPin">
<polygon fill="white" stroke="black" points="396.5,-0.5 396.5,-21.5 475.5,-21.5 475.5,-0.5 396.5,-0.5"/>
<text text-anchor="middle" x="436" y="-8.5" font-family="Helvetica,sans-Serif" font-size="10.00">SI_SymbolPin</text>
</a>
</g>
<!-- Node3&#45;&gt;Node9 -->
<g id="edge22" class="edge"><title>Node3&#45;&gt;Node9</title>
<path fill="none" stroke="midnightblue" d="M347.746,-42.9661C366.825,-36.0555 389.439,-27.8645 406.999,-21.5042"/>
<polygon fill="midnightblue" stroke="midnightblue" points="346.347,-39.7503 338.136,-46.4467 348.731,-46.3319 346.347,-39.7503"/>
</g>
<!-- Node5 -->
<g id="node9" class="node"><title>Node5</title>
<a xlink:href="../../dd/d49/classproject_1_1_cmd_symbol_instance_edit.html#a6eaf0a56905dd18ebdf240a2229576c6" target="_top" xlink:title="project::CmdSymbolInstance\lEdit::~CmdSymbolInstanceEdit">
<polygon fill="white" stroke="black" points="522.5,-118 522.5,-152 677.5,-152 677.5,-118 522.5,-118"/>
<text text-anchor="start" x="530.5" y="-139" font-family="Helvetica,sans-Serif" font-size="10.00">project::CmdSymbolInstance</text>
<text text-anchor="middle" x="600" y="-126" font-family="Helvetica,sans-Serif" font-size="10.00">Edit::~CmdSymbolInstanceEdit</text>
</a>
</g>
<!-- Node4&#45;&gt;Node5 -->
<g id="edge8" class="edge"><title>Node4&#45;&gt;Node5</title>
<path fill="none" stroke="midnightblue" d="M479.363,-79.0454C481.626,-80.3521 483.85,-81.6746 486,-83 502.8,-93.3581 504.436,-99.998 522,-109 528.351,-112.255 535.197,-115.231 542.102,-117.912"/>
<polygon fill="midnightblue" stroke="midnightblue" points="480.965,-75.9311 470.527,-74.1114 477.552,-82.0428 480.965,-75.9311"/>
</g>
<!-- Node6 -->
<g id="node11" class="node"><title>Node6</title>
<a xlink:href="../../dd/d49/classproject_1_1_cmd_symbol_instance_edit.html#a91ca7652063093da57fc1bd0141dcc95" target="_top" xlink:title="Redo/execute the command (and all child commands in normal order) ">
<polygon fill="white" stroke="black" points="528.5,-66 528.5,-100 671.5,-100 671.5,-66 528.5,-66"/>
<text text-anchor="start" x="536.5" y="-87" font-family="Helvetica,sans-Serif" font-size="10.00">project::CmdSymbolInstance</text>
<text text-anchor="middle" x="600" y="-74" font-family="Helvetica,sans-Serif" font-size="10.00">Edit::redo</text>
</a>
</g>
<!-- Node4&#45;&gt;Node6 -->
<g id="edge10" class="edge"><title>Node4&#45;&gt;Node6</title>
<path fill="none" stroke="midnightblue" d="M496.026,-66.5163C506.576,-68.1889 517.651,-69.9446 528.477,-71.661"/>
<polygon fill="midnightblue" stroke="midnightblue" points="496.521,-63.0512 486.097,-64.9421 495.425,-69.9649 496.521,-63.0512"/>
</g>
<!-- Node7 -->
<g id="node13" class="node"><title>Node7</title>
<a xlink:href="../../dd/d49/classproject_1_1_cmd_symbol_instance_edit.html#a19e8778088bfe76b16745470981bb913" target="_top" xlink:title="Undo the command (and all child commands in reverse order) ">
<polygon fill="white" stroke="black" points="528.5,-14 528.5,-48 671.5,-48 671.5,-14 528.5,-14"/>
<text text-anchor="start" x="536.5" y="-35" font-family="Helvetica,sans-Serif" font-size="10.00">project::CmdSymbolInstance</text>
<text text-anchor="middle" x="600" y="-22" font-family="Helvetica,sans-Serif" font-size="10.00">Edit::undo</text>
</a>
</g>
<!-- Node4&#45;&gt;Node7 -->
<g id="edge12" class="edge"><title>Node4&#45;&gt;Node7</title>
<path fill="none" stroke="midnightblue" d="M496.026,-47.4837C506.576,-45.8111 517.651,-44.0554 528.477,-42.339"/>
<polygon fill="midnightblue" stroke="midnightblue" points="495.425,-44.0351 486.097,-49.0579 496.521,-50.9488 495.425,-44.0351"/>
</g>
<!-- Node8&#45;&gt;Node5 -->
<g id="edge16" class="edge"><title>Node8&#45;&gt;Node5</title>
<path fill="none" stroke="midnightblue" d="M496.003,-118.513C504.6,-119.876 513.544,-121.294 522.42,-122.701"/>
<polygon fill="midnightblue" stroke="midnightblue" points="496.521,-115.051 486.097,-116.942 495.425,-121.965 496.521,-115.051"/>
</g>
<!-- Node8&#45;&gt;Node6 -->
<g id="edge18" class="edge"><title>Node8&#45;&gt;Node6</title>
<path fill="none" stroke="midnightblue" d="M496.026,-99.4837C506.576,-97.8111 517.651,-96.0554 528.477,-94.339"/>
<polygon fill="midnightblue" stroke="midnightblue" points="495.425,-96.0351 486.097,-101.058 496.521,-102.949 495.425,-96.0351"/>
</g>
<!-- Node8&#45;&gt;Node7 -->
<g id="edge20" class="edge"><title>Node8&#45;&gt;Node7</title>
<path fill="none" stroke="midnightblue" d="M479.363,-86.9546C481.626,-85.6479 483.85,-84.3254 486,-83 502.8,-72.6419 504.436,-66.002 522,-57 528.351,-53.7447 535.197,-50.7692 542.102,-48.0884"/>
<polygon fill="midnightblue" stroke="midnightblue" points="477.552,-83.9572 470.527,-91.8886 480.965,-90.0689 477.552,-83.9572"/>
</g>
</g>
</svg>
