<?xml version="1.0" encoding="UTF-8" standalone="no"?>
<!DOCTYPE svg PUBLIC "-//W3C//DTD SVG 1.1//EN"
 "http://www.w3.org/Graphics/SVG/1.1/DTD/svg11.dtd">
<!-- Generated by graphviz version 2.26.3 (20100126.1600)
 -->
<!-- Title: fromPx Pages: 1 -->
<svg width="376pt" height="88pt"
 viewBox="0.00 0.00 376.00 88.00" xmlns="http://www.w3.org/2000/svg" xmlns:xlink="http://www.w3.org/1999/xlink">
<g id="graph1" class="graph" transform="scale(1 1) rotate(0) translate(4 84)">
<title>fromPx</title>
<polygon fill="white" stroke="white" points="-4,5 -4,-84 373,-84 373,5 -4,5"/>
<!-- Node1 -->
<g id="node1" class="node"><title>Node1</title>
<polygon fill="#bfbfbf" stroke="black" points="0,-29.5 0,-50.5 48,-50.5 48,-29.5 0,-29.5"/>
<text text-anchor="middle" x="24" y="-37.5" font-family="Helvetica,sans-Serif" font-size="10.00">fromPx</text>
</g>
<!-- Node2 -->
<g id="node3" class="node"><title>Node2</title>
<a xlink:href="../../df/df0/class_length.html#a5aef66a62c626dea314f1a1e1716534b" target="_top" xlink:title="Set the length in pixels (from QGraphics* objects) ">
<polygon fill="white" stroke="black" points="84.5,-58.5 84.5,-79.5 191.5,-79.5 191.5,-58.5 84.5,-58.5"/>
<text text-anchor="middle" x="138" y="-66.5" font-family="Helvetica,sans-Serif" font-size="10.00">Length::setLengthPx</text>
</a>
</g>
<!-- Node1&#45;&gt;Node2 -->
<g id="edge2" class="edge"><title>Node1&#45;&gt;Node2</title>
<path fill="none" stroke="midnightblue" d="M48.1765,-46.1502C59.3222,-48.9855 73.0079,-52.4669 86.3051,-55.8495"/>
<polygon fill="midnightblue" stroke="midnightblue" points="85.7951,-59.3312 96.3494,-58.4047 87.5209,-52.5473 85.7951,-59.3312"/>
</g>
<!-- Node4 -->
<g id="node7" class="node"><title>Node4</title>
<a xlink:href="../../d0/d69/class_point.html#aaf8d7a6826dcd72e03dc632960106b90" target="_top" xlink:title="Map this Point object to a specific grid interval. ">
<polygon fill="white" stroke="black" points="105.5,-0.5 105.5,-21.5 170.5,-21.5 170.5,-0.5 105.5,-0.5"/>
<text text-anchor="middle" x="138" y="-8.5" font-family="Helvetica,sans-Serif" font-size="10.00">mapToGrid</text>
</a>
</g>
<!-- Node1&#45;&gt;Node4 -->
<g id="edge6" class="edge"><title>Node1&#45;&gt;Node4</title>
<path fill="none" stroke="midnightblue" d="M48.1765,-33.8498C61.7946,-30.3856 79.2045,-25.9567 95.0648,-21.9221"/>
<polygon fill="midnightblue" stroke="midnightblue" points="96.3796,-25.1992 105.208,-19.3418 94.6538,-18.4152 96.3796,-25.1992"/>
</g>
<!-- Node3 -->
<g id="node5" class="node"><title>Node3</title>
<a xlink:href="../../df/df0/class_length.html#a73dbcae99cc78c7f7e737d5211154527" target="_top" xlink:title="Set the length from a floating point number in nanometers. ">
<polygon fill="white" stroke="black" points="228.5,-58.5 228.5,-79.5 367.5,-79.5 367.5,-58.5 228.5,-58.5"/>
<text text-anchor="middle" x="298" y="-66.5" font-family="Helvetica,sans-Serif" font-size="10.00">Length::setLengthFromFloat</text>
</a>
</g>
<!-- Node2&#45;&gt;Node3 -->
<g id="edge4" class="edge"><title>Node2&#45;&gt;Node3</title>
<path fill="none" stroke="midnightblue" d="M191.723,-69C200.232,-69 209.187,-69 218.14,-69"/>
<polygon fill="midnightblue" stroke="midnightblue" points="218.223,-72.5001 228.223,-69 218.223,-65.5001 218.223,-72.5001"/>
</g>
<!-- Node4&#45;&gt;Node4 -->
<g id="edge8" class="edge"><title>Node4&#45;&gt;Node4</title>
<path fill="none" stroke="midnightblue" d="M119.887,-21.7079C112.146,-30.6531 118.184,-40 138,-40 150.385,-40 157.388,-36.3489 159.009,-31.4266"/>
<polygon fill="midnightblue" stroke="midnightblue" points="162.323,-30.2922 156.113,-21.7079 155.615,-32.2909 162.323,-30.2922"/>
</g>
</g>
</svg>
