<?xml version="1.0" encoding="UTF-8" standalone="no"?>
<!DOCTYPE svg PUBLIC "-//W3C//DTD SVG 1.1//EN"
 "http://www.w3.org/Graphics/SVG/1.1/DTD/svg11.dtd">
<!-- Generated by graphviz version 2.26.3 (20100126.1600)
 -->
<!-- Title: WorkspaceSettingsDialog Pages: 1 -->
<svg width="512pt" height="1046pt"
 viewBox="0.00 0.00 512.00 1046.00" xmlns="http://www.w3.org/2000/svg" xmlns:xlink="http://www.w3.org/1999/xlink">
<g id="graph1" class="graph" transform="scale(1 1) rotate(0) translate(4 1042)">
<title>WorkspaceSettingsDialog</title>
<polygon fill="white" stroke="white" points="-4,5 -4,-1042 509,-1042 509,5 -4,5"/>
<!-- Node1 -->
<g id="node1" class="node"><title>Node1</title>
<polygon fill="#bfbfbf" stroke="black" points="0,-514.5 0,-535.5 130,-535.5 130,-514.5 0,-514.5"/>
<text text-anchor="middle" x="65" y="-522.5" font-family="Helvetica,sans-Serif" font-size="10.00">WorkspaceSettingsDialog</text>
</g>
<!-- Node2 -->
<g id="node3" class="node"><title>Node2</title>
<a xlink:href="../../d2/d84/class_ui___workspace_settings_dialog.html#a5b19a9242f7f02e5a7fff17829669c9b" target="_top" xlink:title="Ui_WorkspaceSettingsDialog\l::setupUi">
<polygon fill="white" stroke="black" points="171.5,-1004 171.5,-1038 316.5,-1038 316.5,-1004 171.5,-1004"/>
<text text-anchor="start" x="179.5" y="-1025" font-family="Helvetica,sans-Serif" font-size="10.00">Ui_WorkspaceSettingsDialog</text>
<text text-anchor="middle" x="244" y="-1012" font-family="Helvetica,sans-Serif" font-size="10.00">::setupUi</text>
</a>
</g>
<!-- Node1&#45;&gt;Node2 -->
<g id="edge2" class="edge"><title>Node1&#45;&gt;Node2</title>
<path fill="none" stroke="midnightblue" d="M65.8616,-535.517C71.2029,-598.289 101.69,-923.191 166,-995 166.762,-995.851 167.552,-996.674 168.369,-997.47"/>
<polygon fill="midnightblue" stroke="midnightblue" points="166.377,-1000.36 176.351,-1003.93 170.781,-994.92 166.377,-1000.36"/>
</g>
<!-- Node4 -->
<g id="node7" class="node"><title>Node4</title>
<a xlink:href="../../de/d52/class_workspace_settings.html#a1929f7901456c111916955644d31a649" target="_top" xlink:title="WorkspaceSettings::\lgetAppLocale">
<polygon fill="white" stroke="black" points="190,-952 190,-986 298,-986 298,-952 190,-952"/>
<text text-anchor="start" x="198" y="-973" font-family="Helvetica,sans-Serif" font-size="10.00">WorkspaceSettings::</text>
<text text-anchor="middle" x="244" y="-960" font-family="Helvetica,sans-Serif" font-size="10.00">getAppLocale</text>
</a>
</g>
<!-- Node1&#45;&gt;Node4 -->
<g id="edge6" class="edge"><title>Node1&#45;&gt;Node4</title>
<path fill="none" stroke="midnightblue" d="M66.2035,-535.868C72.982,-595.244 108.167,-880.05 166,-943 170.145,-947.512 175.093,-951.241 180.458,-954.325"/>
<polygon fill="midnightblue" stroke="midnightblue" points="179.294,-957.653 189.812,-958.927 182.384,-951.372 179.294,-957.653"/>
</g>
<!-- Node5 -->
<g id="node9" class="node"><title>Node5</title>
<a xlink:href="../../db/d82/class_w_s_i___app_locale.html#ae41cea32d4b5495f11a95b07c760aaed" target="_top" xlink:title="WSI_AppLocale::getLabelText">
<polygon fill="white" stroke="black" points="169.5,-912.5 169.5,-933.5 318.5,-933.5 318.5,-912.5 169.5,-912.5"/>
<text text-anchor="middle" x="244" y="-920.5" font-family="Helvetica,sans-Serif" font-size="10.00">WSI_AppLocale::getLabelText</text>
</a>
</g>
<!-- Node1&#45;&gt;Node5 -->
<g id="edge8" class="edge"><title>Node1&#45;&gt;Node5</title>
<path fill="none" stroke="midnightblue" d="M66.3854,-535.622C73.8473,-591.248 110.968,-848.521 166,-903 167.298,-904.285 168.666,-905.49 170.095,-906.622"/>
<polygon fill="midnightblue" stroke="midnightblue" points="168.567,-909.804 178.859,-912.322 172.384,-903.936 168.567,-909.804"/>
</g>
<!-- Node6 -->
<g id="node11" class="node"><title>Node6</title>
<a xlink:href="../../db/d82/class_w_s_i___app_locale.html#a2d5687f40d2384e2454a06193194f6ab" target="_top" xlink:title="WSI_AppLocale::getWidget">
<polygon fill="white" stroke="black" points="175.5,-872.5 175.5,-893.5 312.5,-893.5 312.5,-872.5 175.5,-872.5"/>
<text text-anchor="middle" x="244" y="-880.5" font-family="Helvetica,sans-Serif" font-size="10.00">WSI_AppLocale::getWidget</text>
</a>
</g>
<!-- Node1&#45;&gt;Node6 -->
<g id="edge10" class="edge"><title>Node1&#45;&gt;Node6</title>
<path fill="none" stroke="midnightblue" d="M66.7226,-535.516C75.4127,-587.332 116,-814.93 166,-863 167.474,-864.417 169.034,-865.737 170.665,-866.967"/>
<polygon fill="midnightblue" stroke="midnightblue" points="169.016,-870.064 179.351,-872.396 172.726,-864.128 169.016,-870.064"/>
</g>
<!-- Node7 -->
<g id="node13" class="node"><title>Node7</title>
<a xlink:href="../../de/d52/class_workspace_settings.html#a4abf1b2064c294b05b38047f25e3a744" target="_top" xlink:title="WorkspaceSettings::\lgetAppDefMeasUnits">
<polygon fill="white" stroke="black" points="189,-820 189,-854 299,-854 299,-820 189,-820"/>
<text text-anchor="start" x="197" y="-841" font-family="Helvetica,sans-Serif" font-size="10.00">WorkspaceSettings::</text>
<text text-anchor="middle" x="244" y="-828" font-family="Helvetica,sans-Serif" font-size="10.00">getAppDefMeasUnits</text>
</a>
</g>
<!-- Node1&#45;&gt;Node7 -->
<g id="edge12" class="edge"><title>Node1&#45;&gt;Node7</title>
<path fill="none" stroke="midnightblue" d="M65.5275,-535.56C68.1666,-576.948 83.3606,-729.813 166,-811 170.009,-814.939 174.631,-818.281 179.581,-821.117"/>
<polygon fill="midnightblue" stroke="midnightblue" points="178.272,-824.376 188.785,-825.695 181.39,-818.108 178.272,-824.376"/>
</g>
<!-- Node8 -->
<g id="node15" class="node"><title>Node8</title>
<a xlink:href="../../d3/d01/class_w_s_i___app_default_measurement_units.html#a0954b0d079f89bf5c6260bf53ae213ec" target="_top" xlink:title="WSI_AppDefaultMeasurement\lUnits::getLengthUnitLabelText">
<polygon fill="white" stroke="black" points="169.5,-768 169.5,-802 318.5,-802 318.5,-768 169.5,-768"/>
<text text-anchor="start" x="177.5" y="-789" font-family="Helvetica,sans-Serif" font-size="10.00">WSI_AppDefaultMeasurement</text>
<text text-anchor="middle" x="244" y="-776" font-family="Helvetica,sans-Serif" font-size="10.00">Units::getLengthUnitLabelText</text>
</a>
</g>
<!-- Node1&#45;&gt;Node8 -->
<g id="edge14" class="edge"><title>Node1&#45;&gt;Node8</title>
<path fill="none" stroke="midnightblue" d="M66.4695,-535.62C72.0919,-572.217 95.5848,-694.376 166,-759 167.15,-760.056 168.345,-761.069 169.577,-762.04"/>
<polygon fill="midnightblue" stroke="midnightblue" points="167.961,-765.173 178.205,-767.878 171.884,-759.375 167.961,-765.173"/>
</g>
<!-- Node9 -->
<g id="node17" class="node"><title>Node9</title>
<a xlink:href="../../d3/d01/class_w_s_i___app_default_measurement_units.html#ab27d526a2d70d0ade24396f5b1107536" target="_top" xlink:title="WSI_AppDefaultMeasurement\lUnits::getLengthUnitComboBox">
<polygon fill="white" stroke="black" points="166.5,-716 166.5,-750 321.5,-750 321.5,-716 166.5,-716"/>
<text text-anchor="start" x="174.5" y="-737" font-family="Helvetica,sans-Serif" font-size="10.00">WSI_AppDefaultMeasurement</text>
<text text-anchor="middle" x="244" y="-724" font-family="Helvetica,sans-Serif" font-size="10.00">Units::getLengthUnitComboBox</text>
</a>
</g>
<!-- Node1&#45;&gt;Node9 -->
<g id="edge16" class="edge"><title>Node1&#45;&gt;Node9</title>
<path fill="none" stroke="midnightblue" d="M67.9559,-535.822C77.054,-567.108 107.616,-658.522 166,-707 167.524,-708.265 169.111,-709.47 170.752,-710.616"/>
<polygon fill="midnightblue" stroke="midnightblue" points="168.983,-713.637 179.338,-715.88 172.642,-707.669 168.983,-713.637"/>
</g>
<!-- Node10 -->
<g id="node19" class="node"><title>Node10</title>
<a xlink:href="../../de/d52/class_workspace_settings.html#a012466b220bf623f6d0df3ab850f6acc" target="_top" xlink:title="WorkspaceSettings::\lgetProjectAutosaveInterval">
<polygon fill="white" stroke="black" points="177,-664 177,-698 311,-698 311,-664 177,-664"/>
<text text-anchor="start" x="185" y="-685" font-family="Helvetica,sans-Serif" font-size="10.00">WorkspaceSettings::</text>
<text text-anchor="middle" x="244" y="-672" font-family="Helvetica,sans-Serif" font-size="10.00">getProjectAutosaveInterval</text>
</a>
</g>
<!-- Node1&#45;&gt;Node10 -->
<g id="edge18" class="edge"><title>Node1&#45;&gt;Node10</title>
<path fill="none" stroke="midnightblue" d="M70.49,-535.827C83.5896,-560.597 119.113,-621.808 166,-655 168.09,-656.479 170.27,-657.879 172.517,-659.203"/>
<polygon fill="midnightblue" stroke="midnightblue" points="170.993,-662.357 181.469,-663.942 174.268,-656.17 170.993,-662.357"/>
</g>
<!-- Node11 -->
<g id="node21" class="node"><title>Node11</title>
<a xlink:href="../../d6/d31/class_w_s_i___project_autosave_interval.html#ae41cea32d4b5495f11a95b07c760aaed" target="_top" xlink:title="WSI_ProjectAutosaveInterval\l::getLabelText">
<polygon fill="white" stroke="black" points="171,-612 171,-646 317,-646 317,-612 171,-612"/>
<text text-anchor="start" x="179" y="-633" font-family="Helvetica,sans-Serif" font-size="10.00">WSI_ProjectAutosaveInterval</text>
<text text-anchor="middle" x="244" y="-620" font-family="Helvetica,sans-Serif" font-size="10.00">::getLabelText</text>
</a>
</g>
<!-- Node1&#45;&gt;Node11 -->
<g id="edge20" class="edge"><title>Node1&#45;&gt;Node11</title>
<path fill="none" stroke="midnightblue" d="M76.2263,-535.758C93.9836,-552.266 130.221,-583.931 166,-603 169.279,-604.748 172.698,-606.409 176.194,-607.983"/>
<polygon fill="midnightblue" stroke="midnightblue" points="175.012,-611.283 185.586,-611.946 177.733,-604.833 175.012,-611.283"/>
</g>
<!-- Node12 -->
<g id="node23" class="node"><title>Node12</title>
<a xlink:href="../../d6/d31/class_w_s_i___project_autosave_interval.html#a2d5687f40d2384e2454a06193194f6ab" target="_top" xlink:title="WSI_ProjectAutosaveInterval\l::getWidget">
<polygon fill="white" stroke="black" points="171,-560 171,-594 317,-594 317,-560 171,-560"/>
<text text-anchor="start" x="179" y="-581" font-family="Helvetica,sans-Serif" font-size="10.00">WSI_ProjectAutosaveInterval</text>
<text text-anchor="middle" x="244" y="-568" font-family="Helvetica,sans-Serif" font-size="10.00">::getWidget</text>
</a>
</g>
<!-- Node1&#45;&gt;Node12 -->
<g id="edge22" class="edge"><title>Node1&#45;&gt;Node12</title>
<path fill="none" stroke="midnightblue" d="M101.223,-535.523C122.507,-541.706 150.111,-549.725 175.367,-557.062"/>
<polygon fill="midnightblue" stroke="midnightblue" points="174.701,-560.513 185.28,-559.942 176.654,-553.791 174.701,-560.513"/>
</g>
<!-- Node13 -->
<g id="node25" class="node"><title>Node13</title>
<a xlink:href="../../de/d52/class_workspace_settings.html#ae618bffea0533f54ce89366010d6d842" target="_top" xlink:title="WorkspaceSettings::\lgetAppearance">
<polygon fill="white" stroke="black" points="190,-508 190,-542 298,-542 298,-508 190,-508"/>
<text text-anchor="start" x="198" y="-529" font-family="Helvetica,sans-Serif" font-size="10.00">WorkspaceSettings::</text>
<text text-anchor="middle" x="244" y="-516" font-family="Helvetica,sans-Serif" font-size="10.00">getAppearance</text>
</a>
</g>
<!-- Node1&#45;&gt;Node13 -->
<g id="edge24" class="edge"><title>Node1&#45;&gt;Node13</title>
<path fill="none" stroke="midnightblue" d="M130.129,-525C146.201,-525 163.408,-525 179.453,-525"/>
<polygon fill="midnightblue" stroke="midnightblue" points="179.805,-528.5 189.805,-525 179.805,-521.5 179.805,-528.5"/>
</g>
<!-- Node14 -->
<g id="node27" class="node"><title>Node14</title>
<a xlink:href="../../d8/dcb/class_w_s_i___appearance.html#a1a764ea4a5e95897c06eb94fc129cd75" target="_top" xlink:title="WSI_Appearance::getUseOpen\lGlLabelText">
<polygon fill="white" stroke="black" points="167,-456 167,-490 321,-490 321,-456 167,-456"/>
<text text-anchor="start" x="175" y="-477" font-family="Helvetica,sans-Serif" font-size="10.00">WSI_Appearance::getUseOpen</text>
<text text-anchor="middle" x="244" y="-464" font-family="Helvetica,sans-Serif" font-size="10.00">GlLabelText</text>
</a>
</g>
<!-- Node1&#45;&gt;Node14 -->
<g id="edge26" class="edge"><title>Node1&#45;&gt;Node14</title>
<path fill="none" stroke="midnightblue" d="M101.223,-514.477C122.507,-508.294 150.111,-500.275 175.367,-492.938"/>
<polygon fill="midnightblue" stroke="midnightblue" points="176.654,-496.209 185.28,-490.058 174.701,-489.487 176.654,-496.209"/>
</g>
<!-- Node15 -->
<g id="node29" class="node"><title>Node15</title>
<a xlink:href="../../d8/dcb/class_w_s_i___appearance.html#adec3e9a8734ceaf3f916ab1d88b1198f" target="_top" xlink:title="WSI_Appearance::getUseOpen\lGlWidget">
<polygon fill="white" stroke="black" points="167,-404 167,-438 321,-438 321,-404 167,-404"/>
<text text-anchor="start" x="175" y="-425" font-family="Helvetica,sans-Serif" font-size="10.00">WSI_Appearance::getUseOpen</text>
<text text-anchor="middle" x="244" y="-412" font-family="Helvetica,sans-Serif" font-size="10.00">GlWidget</text>
</a>
</g>
<!-- Node1&#45;&gt;Node15 -->
<g id="edge28" class="edge"><title>Node1&#45;&gt;Node15</title>
<path fill="none" stroke="midnightblue" d="M76.2263,-514.242C93.9836,-497.734 130.221,-466.069 166,-447 169.279,-445.252 172.698,-443.591 176.194,-442.017"/>
<polygon fill="midnightblue" stroke="midnightblue" points="177.733,-445.167 185.586,-438.054 175.012,-438.717 177.733,-445.167"/>
</g>
<!-- Node16 -->
<g id="node31" class="node"><title>Node16</title>
<a xlink:href="../../de/d52/class_workspace_settings.html#aa9f0124a076e4ac7b0525170b0eccfdd" target="_top" xlink:title="WorkspaceSettings::\lgetLibLocaleOrder">
<polygon fill="white" stroke="black" points="190,-352 190,-386 298,-386 298,-352 190,-352"/>
<text text-anchor="start" x="198" y="-373" font-family="Helvetica,sans-Serif" font-size="10.00">WorkspaceSettings::</text>
<text text-anchor="middle" x="244" y="-360" font-family="Helvetica,sans-Serif" font-size="10.00">getLibLocaleOrder</text>
</a>
</g>
<!-- Node1&#45;&gt;Node16 -->
<g id="edge30" class="edge"><title>Node1&#45;&gt;Node16</title>
<path fill="none" stroke="midnightblue" d="M70.49,-514.173C83.5896,-489.403 119.113,-428.192 166,-395 170.515,-391.804 175.449,-388.98 180.574,-386.488"/>
<polygon fill="midnightblue" stroke="midnightblue" points="182.215,-389.59 189.954,-382.354 179.391,-383.185 182.215,-389.59"/>
</g>
<!-- Node17 -->
<g id="node33" class="node"><title>Node17</title>
<a xlink:href="../../de/ded/class_w_s_i___library_locale_order.html#ae41cea32d4b5495f11a95b07c760aaed" target="_top" xlink:title="WSI_LibraryLocaleOrder\l::getLabelText">
<polygon fill="white" stroke="black" points="182.5,-300 182.5,-334 305.5,-334 305.5,-300 182.5,-300"/>
<text text-anchor="start" x="190.5" y="-321" font-family="Helvetica,sans-Serif" font-size="10.00">WSI_LibraryLocaleOrder</text>
<text text-anchor="middle" x="244" y="-308" font-family="Helvetica,sans-Serif" font-size="10.00">::getLabelText</text>
</a>
</g>
<!-- Node1&#45;&gt;Node17 -->
<g id="edge32" class="edge"><title>Node1&#45;&gt;Node17</title>
<path fill="none" stroke="midnightblue" d="M67.9559,-514.178C77.054,-482.892 107.616,-391.478 166,-343 168.394,-341.012 170.945,-339.175 173.61,-337.476"/>
<polygon fill="midnightblue" stroke="midnightblue" points="175.449,-340.458 182.455,-332.51 172.022,-334.354 175.449,-340.458"/>
</g>
<!-- Node18 -->
<g id="node35" class="node"><title>Node18</title>
<a xlink:href="../../de/ded/class_w_s_i___library_locale_order.html#a2d5687f40d2384e2454a06193194f6ab" target="_top" xlink:title="WSI_LibraryLocaleOrder\l::getWidget">
<polygon fill="white" stroke="black" points="182.5,-248 182.5,-282 305.5,-282 305.5,-248 182.5,-248"/>
<text text-anchor="start" x="190.5" y="-269" font-family="Helvetica,sans-Serif" font-size="10.00">WSI_LibraryLocaleOrder</text>
<text text-anchor="middle" x="244" y="-256" font-family="Helvetica,sans-Serif" font-size="10.00">::getWidget</text>
</a>
</g>
<!-- Node1&#45;&gt;Node18 -->
<g id="edge34" class="edge"><title>Node1&#45;&gt;Node18</title>
<path fill="none" stroke="midnightblue" d="M66.4695,-514.38C72.0919,-477.783 95.5848,-355.624 166,-291 168.419,-288.78 171.033,-286.749 173.787,-284.891"/>
<polygon fill="midnightblue" stroke="midnightblue" points="175.568,-287.904 182.416,-279.821 172.021,-281.869 175.568,-287.904"/>
</g>
<!-- Node19 -->
<g id="node37" class="node"><title>Node19</title>
<a xlink:href="../../de/d52/class_workspace_settings.html#aa8dce192d4178a1f7fcc2db5825bcd17" target="_top" xlink:title="WorkspaceSettings::\lgetLibNormOrder">
<polygon fill="white" stroke="black" points="190,-196 190,-230 298,-230 298,-196 190,-196"/>
<text text-anchor="start" x="198" y="-217" font-family="Helvetica,sans-Serif" font-size="10.00">WorkspaceSettings::</text>
<text text-anchor="middle" x="244" y="-204" font-family="Helvetica,sans-Serif" font-size="10.00">getLibNormOrder</text>
</a>
</g>
<!-- Node1&#45;&gt;Node19 -->
<g id="edge36" class="edge"><title>Node1&#45;&gt;Node19</title>
<path fill="none" stroke="midnightblue" d="M65.5275,-514.44C68.1666,-473.052 83.3606,-320.187 166,-239 170.305,-234.77 175.316,-231.229 180.682,-228.263"/>
<polygon fill="midnightblue" stroke="midnightblue" points="182.486,-231.28 189.986,-223.796 179.456,-224.969 182.486,-231.28"/>
</g>
<!-- Node20 -->
<g id="node39" class="node"><title>Node20</title>
<a xlink:href="../../d5/da3/class_w_s_i___library_norm_order.html#ae41cea32d4b5495f11a95b07c760aaed" target="_top" xlink:title="WSI_LibraryNormOrder\l::getLabelText">
<polygon fill="white" stroke="black" points="184.5,-144 184.5,-178 303.5,-178 303.5,-144 184.5,-144"/>
<text text-anchor="start" x="192.5" y="-165" font-family="Helvetica,sans-Serif" font-size="10.00">WSI_LibraryNormOrder</text>
<text text-anchor="middle" x="244" y="-152" font-family="Helvetica,sans-Serif" font-size="10.00">::getLabelText</text>
</a>
</g>
<!-- Node1&#45;&gt;Node20 -->
<g id="edge38" class="edge"><title>Node1&#45;&gt;Node20</title>
<path fill="none" stroke="midnightblue" d="M66.8518,-514.21C75.9968,-462.071 117.838,-236.698 166,-187 168.825,-184.085 171.985,-181.497 175.37,-179.199"/>
<polygon fill="midnightblue" stroke="midnightblue" points="177.308,-182.12 184.188,-174.063 173.785,-176.072 177.308,-182.12"/>
</g>
<!-- Node21 -->
<g id="node41" class="node"><title>Node21</title>
<a xlink:href="../../d5/da3/class_w_s_i___library_norm_order.html#a2d5687f40d2384e2454a06193194f6ab" target="_top" xlink:title="WSI_LibraryNormOrder\l::getWidget">
<polygon fill="white" stroke="black" points="184.5,-92 184.5,-126 303.5,-126 303.5,-92 184.5,-92"/>
<text text-anchor="start" x="192.5" y="-113" font-family="Helvetica,sans-Serif" font-size="10.00">WSI_LibraryNormOrder</text>
<text text-anchor="middle" x="244" y="-100" font-family="Helvetica,sans-Serif" font-size="10.00">::getWidget</text>
</a>
</g>
<!-- Node1&#45;&gt;Node21 -->
<g id="edge40" class="edge"><title>Node1&#45;&gt;Node21</title>
<path fill="none" stroke="midnightblue" d="M66.358,-514.487C73.816,-458.259 111.459,-193.401 166,-135 168.905,-131.89 172.19,-129.152 175.729,-126.741"/>
<polygon fill="midnightblue" stroke="midnightblue" points="177.514,-129.752 184.386,-121.688 173.985,-123.706 177.514,-129.752"/>
</g>
<!-- Node22 -->
<g id="node43" class="node"><title>Node22</title>
<a xlink:href="../../de/d52/class_workspace_settings.html#a4c7190335bf26fde0f0305254838e514" target="_top" xlink:title="WorkspaceSettings::\lgetDebugTools">
<polygon fill="white" stroke="black" points="190,-40 190,-74 298,-74 298,-40 190,-40"/>
<text text-anchor="start" x="198" y="-61" font-family="Helvetica,sans-Serif" font-size="10.00">WorkspaceSettings::</text>
<text text-anchor="middle" x="244" y="-48" font-family="Helvetica,sans-Serif" font-size="10.00">getDebugTools</text>
</a>
</g>
<!-- Node1&#45;&gt;Node22 -->
<g id="edge42" class="edge"><title>Node1&#45;&gt;Node22</title>
<path fill="none" stroke="midnightblue" d="M66.0316,-514.323C72.1185,-453.395 105.174,-150.039 166,-83 170.117,-78.4626 175.046,-74.7158 180.399,-71.6221"/>
<polygon fill="midnightblue" stroke="midnightblue" points="182.324,-74.5749 189.74,-67.0079 179.224,-68.2989 182.324,-74.5749"/>
</g>
<!-- Node23 -->
<g id="node45" class="node"><title>Node23</title>
<a xlink:href="../../df/def/class_w_s_i___debug_tools.html#a2d5687f40d2384e2454a06193194f6ab" target="_top" xlink:title="WSI_DebugTools::getWidget">
<polygon fill="white" stroke="black" points="172,-0.5 172,-21.5 316,-21.5 316,-0.5 172,-0.5"/>
<text text-anchor="middle" x="244" y="-8.5" font-family="Helvetica,sans-Serif" font-size="10.00">WSI_DebugTools::getWidget</text>
</a>
</g>
<!-- Node1&#45;&gt;Node23 -->
<g id="edge44" class="edge"><title>Node1&#45;&gt;Node23</title>
<path fill="none" stroke="midnightblue" d="M65.6786,-514.309C70.0355,-449.018 96.141,-104.393 166,-31 167.226,-29.7121 168.522,-28.5028 169.88,-27.3675"/>
<polygon fill="midnightblue" stroke="midnightblue" points="171.971,-30.1778 178.247,-21.6418 168.017,-24.4009 171.971,-30.1778"/>
</g>
<!-- Node3 -->
<g id="node5" class="node"><title>Node3</title>
<a xlink:href="../../d2/d84/class_ui___workspace_settings_dialog.html#a82df8a2b54a45f8d3897b4300941a873" target="_top" xlink:title="Ui_WorkspaceSettingsDialog\l::retranslateUi">
<polygon fill="white" stroke="black" points="358.5,-1004 358.5,-1038 503.5,-1038 503.5,-1004 358.5,-1004"/>
<text text-anchor="start" x="366.5" y="-1025" font-family="Helvetica,sans-Serif" font-size="10.00">Ui_WorkspaceSettingsDialog</text>
<text text-anchor="middle" x="431" y="-1012" font-family="Helvetica,sans-Serif" font-size="10.00">::retranslateUi</text>
</a>
</g>
<!-- Node2&#45;&gt;Node3 -->
<g id="edge4" class="edge"><title>Node2&#45;&gt;Node3</title>
<path fill="none" stroke="midnightblue" d="M316.567,-1021C326.992,-1021 337.783,-1021 348.385,-1021"/>
<polygon fill="midnightblue" stroke="midnightblue" points="348.474,-1024.5 358.474,-1021 348.474,-1017.5 348.474,-1024.5"/>
</g>
</g>
</svg>
