<?xml version="1.0" encoding="UTF-8" standalone="no"?>
<!DOCTYPE svg PUBLIC "-//W3C//DTD SVG 1.1//EN"
 "http://www.w3.org/Graphics/SVG/1.1/DTD/svg11.dtd">
<!-- Generated by graphviz version 2.26.3 (20100126.1600)
 -->
<!-- Title: ~WorkspaceSettingsDialog Pages: 1 -->
<svg width="336pt" height="694pt"
 viewBox="0.00 0.00 336.00 694.00" xmlns="http://www.w3.org/2000/svg" xmlns:xlink="http://www.w3.org/1999/xlink">
<g id="graph1" class="graph" transform="scale(1 1) rotate(0) translate(4 690)">
<title>~WorkspaceSettingsDialog</title>
<polygon fill="white" stroke="white" points="-4,5 -4,-690 333,-690 333,5 -4,5"/>
<!-- Node1 -->
<g id="node1" class="node"><title>Node1</title>
<polygon fill="#bfbfbf" stroke="black" points="0,-332.5 0,-353.5 136,-353.5 136,-332.5 0,-332.5"/>
<text text-anchor="middle" x="68" y="-340.5" font-family="Helvetica,sans-Serif" font-size="10.00">~WorkspaceSettingsDialog</text>
</g>
<!-- Node2 -->
<g id="node3" class="node"><title>Node2</title>
<a xlink:href="../../de/d52/class_workspace_settings.html#a1929f7901456c111916955644d31a649" target="_top" xlink:title="WorkspaceSettings::\lgetAppLocale">
<polygon fill="white" stroke="black" points="196,-652 196,-686 304,-686 304,-652 196,-652"/>
<text text-anchor="start" x="204" y="-673" font-family="Helvetica,sans-Serif" font-size="10.00">WorkspaceSettings::</text>
<text text-anchor="middle" x="250" y="-660" font-family="Helvetica,sans-Serif" font-size="10.00">getAppLocale</text>
</a>
</g>
<!-- Node1&#45;&gt;Node2 -->
<g id="edge2" class="edge"><title>Node1&#45;&gt;Node2</title>
<path fill="none" stroke="midnightblue" d="M68.4572,-353.778C70.8647,-396.74 85.5399,-557.567 172,-643 176.293,-647.242 181.296,-650.792 186.656,-653.763"/>
<polygon fill="midnightblue" stroke="midnightblue" points="185.425,-657.055 195.954,-658.236 188.46,-650.747 185.425,-657.055"/>
</g>
<!-- Node3 -->
<g id="node5" class="node"><title>Node3</title>
<a xlink:href="../../db/d82/class_w_s_i___app_locale.html#a2d5687f40d2384e2454a06193194f6ab" target="_top" xlink:title="WSI_AppLocale::getWidget">
<polygon fill="white" stroke="black" points="181.5,-612.5 181.5,-633.5 318.5,-633.5 318.5,-612.5 181.5,-612.5"/>
<text text-anchor="middle" x="250" y="-620.5" font-family="Helvetica,sans-Serif" font-size="10.00">WSI_AppLocale::getWidget</text>
</a>
</g>
<!-- Node1&#45;&gt;Node3 -->
<g id="edge4" class="edge"><title>Node1&#45;&gt;Node3</title>
<path fill="none" stroke="midnightblue" d="M68.903,-353.59C72.8535,-393.057 92.1839,-532.905 172,-603 173.75,-604.537 175.602,-605.958 177.536,-607.272"/>
<polygon fill="midnightblue" stroke="midnightblue" points="176.055,-610.457 186.474,-612.378 179.527,-604.379 176.055,-610.457"/>
</g>
<!-- Node4 -->
<g id="node7" class="node"><title>Node4</title>
<a xlink:href="../../de/d52/class_workspace_settings.html#a4abf1b2064c294b05b38047f25e3a744" target="_top" xlink:title="WorkspaceSettings::\lgetAppDefMeasUnits">
<polygon fill="white" stroke="black" points="195,-560 195,-594 305,-594 305,-560 195,-560"/>
<text text-anchor="start" x="203" y="-581" font-family="Helvetica,sans-Serif" font-size="10.00">WorkspaceSettings::</text>
<text text-anchor="middle" x="250" y="-568" font-family="Helvetica,sans-Serif" font-size="10.00">getAppDefMeasUnits</text>
</a>
</g>
<!-- Node1&#45;&gt;Node4 -->
<g id="edge6" class="edge"><title>Node1&#45;&gt;Node4</title>
<path fill="none" stroke="midnightblue" d="M70.3182,-353.865C78.1789,-388.078 107.034,-494.656 172,-551 176.111,-554.566 180.728,-557.646 185.608,-560.306"/>
<polygon fill="midnightblue" stroke="midnightblue" points="184.098,-563.464 194.625,-564.656 187.139,-557.159 184.098,-563.464"/>
</g>
<!-- Node5 -->
<g id="node9" class="node"><title>Node5</title>
<a xlink:href="../../d3/d01/class_w_s_i___app_default_measurement_units.html#ab27d526a2d70d0ade24396f5b1107536" target="_top" xlink:title="WSI_AppDefaultMeasurement\lUnits::getLengthUnitComboBox">
<polygon fill="white" stroke="black" points="172.5,-508 172.5,-542 327.5,-542 327.5,-508 172.5,-508"/>
<text text-anchor="start" x="180.5" y="-529" font-family="Helvetica,sans-Serif" font-size="10.00">WSI_AppDefaultMeasurement</text>
<text text-anchor="middle" x="250" y="-516" font-family="Helvetica,sans-Serif" font-size="10.00">Units::getLengthUnitComboBox</text>
</a>
</g>
<!-- Node1&#45;&gt;Node5 -->
<g id="edge8" class="edge"><title>Node1&#45;&gt;Node5</title>
<path fill="none" stroke="midnightblue" d="M72.2538,-353.87C83.8422,-382.088 118.712,-458.299 172,-499 173.797,-500.373 175.671,-501.675 177.604,-502.911"/>
<polygon fill="midnightblue" stroke="midnightblue" points="175.991,-506.019 186.416,-507.91 179.445,-499.931 175.991,-506.019"/>
</g>
<!-- Node6 -->
<g id="node11" class="node"><title>Node6</title>
<a xlink:href="../../de/d52/class_workspace_settings.html#a012466b220bf623f6d0df3ab850f6acc" target="_top" xlink:title="WorkspaceSettings::\lgetProjectAutosaveInterval">
<polygon fill="white" stroke="black" points="183,-456 183,-490 317,-490 317,-456 183,-456"/>
<text text-anchor="start" x="191" y="-477" font-family="Helvetica,sans-Serif" font-size="10.00">WorkspaceSettings::</text>
<text text-anchor="middle" x="250" y="-464" font-family="Helvetica,sans-Serif" font-size="10.00">getProjectAutosaveInterval</text>
</a>
</g>
<!-- Node1&#45;&gt;Node6 -->
<g id="edge10" class="edge"><title>Node1&#45;&gt;Node6</title>
<path fill="none" stroke="midnightblue" d="M75.9307,-353.763C91.8641,-374.66 129.862,-420.957 172,-447 174.588,-448.599 177.285,-450.113 180.056,-451.543"/>
<polygon fill="midnightblue" stroke="midnightblue" points="178.577,-454.715 189.112,-455.833 181.574,-448.389 178.577,-454.715"/>
</g>
<!-- Node7 -->
<g id="node13" class="node"><title>Node7</title>
<a xlink:href="../../d6/d31/class_w_s_i___project_autosave_interval.html#a2d5687f40d2384e2454a06193194f6ab" target="_top" xlink:title="WSI_ProjectAutosaveInterval\l::getWidget">
<polygon fill="white" stroke="black" points="177,-404 177,-438 323,-438 323,-404 177,-404"/>
<text text-anchor="start" x="185" y="-425" font-family="Helvetica,sans-Serif" font-size="10.00">WSI_ProjectAutosaveInterval</text>
<text text-anchor="middle" x="250" y="-412" font-family="Helvetica,sans-Serif" font-size="10.00">::getWidget</text>
</a>
</g>
<!-- Node1&#45;&gt;Node7 -->
<g id="edge12" class="edge"><title>Node1&#45;&gt;Node7</title>
<path fill="none" stroke="midnightblue" d="M87.1676,-353.616C107.75,-364.77 141.6,-382.408 172,-395 176.463,-396.849 181.11,-398.663 185.813,-400.42"/>
<polygon fill="midnightblue" stroke="midnightblue" points="184.911,-403.816 195.505,-403.937 187.299,-397.236 184.911,-403.816"/>
</g>
<!-- Node8 -->
<g id="node15" class="node"><title>Node8</title>
<a xlink:href="../../de/d52/class_workspace_settings.html#ae618bffea0533f54ce89366010d6d842" target="_top" xlink:title="WorkspaceSettings::\lgetAppearance">
<polygon fill="white" stroke="black" points="196,-352 196,-386 304,-386 304,-352 196,-352"/>
<text text-anchor="start" x="204" y="-373" font-family="Helvetica,sans-Serif" font-size="10.00">WorkspaceSettings::</text>
<text text-anchor="middle" x="250" y="-360" font-family="Helvetica,sans-Serif" font-size="10.00">getAppearance</text>
</a>
</g>
<!-- Node1&#45;&gt;Node8 -->
<g id="edge14" class="edge"><title>Node1&#45;&gt;Node8</title>
<path fill="none" stroke="midnightblue" d="M136.029,-352.718C152.417,-355.06 169.868,-357.553 186.062,-359.866"/>
<polygon fill="midnightblue" stroke="midnightblue" points="185.567,-363.331 195.962,-361.28 186.557,-356.401 185.567,-363.331"/>
</g>
<!-- Node9 -->
<g id="node17" class="node"><title>Node9</title>
<a xlink:href="../../d8/dcb/class_w_s_i___appearance.html#adec3e9a8734ceaf3f916ab1d88b1198f" target="_top" xlink:title="WSI_Appearance::getUseOpen\lGlWidget">
<polygon fill="white" stroke="black" points="173,-300 173,-334 327,-334 327,-300 173,-300"/>
<text text-anchor="start" x="181" y="-321" font-family="Helvetica,sans-Serif" font-size="10.00">WSI_Appearance::getUseOpen</text>
<text text-anchor="middle" x="250" y="-308" font-family="Helvetica,sans-Serif" font-size="10.00">GlWidget</text>
</a>
</g>
<!-- Node1&#45;&gt;Node9 -->
<g id="edge16" class="edge"><title>Node1&#45;&gt;Node9</title>
<path fill="none" stroke="midnightblue" d="M136.029,-333.282C144.758,-332.035 153.79,-330.744 162.772,-329.461"/>
<polygon fill="midnightblue" stroke="midnightblue" points="163.469,-332.897 172.874,-328.018 162.479,-325.967 163.469,-332.897"/>
</g>
<!-- Node10 -->
<g id="node19" class="node"><title>Node10</title>
<a xlink:href="../../de/d52/class_workspace_settings.html#aa9f0124a076e4ac7b0525170b0eccfdd" target="_top" xlink:title="WorkspaceSettings::\lgetLibLocaleOrder">
<polygon fill="white" stroke="black" points="196,-248 196,-282 304,-282 304,-248 196,-248"/>
<text text-anchor="start" x="204" y="-269" font-family="Helvetica,sans-Serif" font-size="10.00">WorkspaceSettings::</text>
<text text-anchor="middle" x="250" y="-256" font-family="Helvetica,sans-Serif" font-size="10.00">getLibLocaleOrder</text>
</a>
</g>
<!-- Node1&#45;&gt;Node10 -->
<g id="edge18" class="edge"><title>Node1&#45;&gt;Node10</title>
<path fill="none" stroke="midnightblue" d="M87.1676,-332.384C107.75,-321.23 141.6,-303.592 172,-291 176.661,-289.069 181.522,-287.176 186.438,-285.347"/>
<polygon fill="midnightblue" stroke="midnightblue" points="187.711,-288.609 195.924,-281.915 185.33,-282.026 187.711,-288.609"/>
</g>
<!-- Node11 -->
<g id="node21" class="node"><title>Node11</title>
<a xlink:href="../../de/ded/class_w_s_i___library_locale_order.html#a2d5687f40d2384e2454a06193194f6ab" target="_top" xlink:title="WSI_LibraryLocaleOrder\l::getWidget">
<polygon fill="white" stroke="black" points="188.5,-196 188.5,-230 311.5,-230 311.5,-196 188.5,-196"/>
<text text-anchor="start" x="196.5" y="-217" font-family="Helvetica,sans-Serif" font-size="10.00">WSI_LibraryLocaleOrder</text>
<text text-anchor="middle" x="250" y="-204" font-family="Helvetica,sans-Serif" font-size="10.00">::getWidget</text>
</a>
</g>
<!-- Node1&#45;&gt;Node11 -->
<g id="edge20" class="edge"><title>Node1&#45;&gt;Node11</title>
<path fill="none" stroke="midnightblue" d="M75.9307,-332.237C91.8641,-311.34 129.862,-265.043 172,-239 174.588,-237.401 177.285,-235.887 180.056,-234.457"/>
<polygon fill="midnightblue" stroke="midnightblue" points="181.574,-237.611 189.112,-230.167 178.577,-231.285 181.574,-237.611"/>
</g>
<!-- Node12 -->
<g id="node23" class="node"><title>Node12</title>
<a xlink:href="../../de/d52/class_workspace_settings.html#aa8dce192d4178a1f7fcc2db5825bcd17" target="_top" xlink:title="WorkspaceSettings::\lgetLibNormOrder">
<polygon fill="white" stroke="black" points="196,-144 196,-178 304,-178 304,-144 196,-144"/>
<text text-anchor="start" x="204" y="-165" font-family="Helvetica,sans-Serif" font-size="10.00">WorkspaceSettings::</text>
<text text-anchor="middle" x="250" y="-152" font-family="Helvetica,sans-Serif" font-size="10.00">getLibNormOrder</text>
</a>
</g>
<!-- Node1&#45;&gt;Node12 -->
<g id="edge22" class="edge"><title>Node1&#45;&gt;Node12</title>
<path fill="none" stroke="midnightblue" d="M72.2538,-332.13C83.8422,-303.912 118.712,-227.701 172,-187 176.396,-183.643 181.248,-180.706 186.317,-178.139"/>
<polygon fill="midnightblue" stroke="midnightblue" points="187.97,-181.233 195.626,-173.909 185.074,-174.86 187.97,-181.233"/>
</g>
<!-- Node13 -->
<g id="node25" class="node"><title>Node13</title>
<a xlink:href="../../d5/da3/class_w_s_i___library_norm_order.html#a2d5687f40d2384e2454a06193194f6ab" target="_top" xlink:title="WSI_LibraryNormOrder\l::getWidget">
<polygon fill="white" stroke="black" points="190.5,-92 190.5,-126 309.5,-126 309.5,-92 190.5,-92"/>
<text text-anchor="start" x="198.5" y="-113" font-family="Helvetica,sans-Serif" font-size="10.00">WSI_LibraryNormOrder</text>
<text text-anchor="middle" x="250" y="-100" font-family="Helvetica,sans-Serif" font-size="10.00">::getWidget</text>
</a>
</g>
<!-- Node1&#45;&gt;Node13 -->
<g id="edge24" class="edge"><title>Node1&#45;&gt;Node13</title>
<path fill="none" stroke="midnightblue" d="M70.3182,-332.135C78.1789,-297.922 107.034,-191.344 172,-135 174.864,-132.516 177.974,-130.267 181.247,-128.232"/>
<polygon fill="midnightblue" stroke="midnightblue" points="183.135,-131.189 190.238,-123.328 179.783,-125.044 183.135,-131.189"/>
</g>
<!-- Node14 -->
<g id="node27" class="node"><title>Node14</title>
<a xlink:href="../../de/d52/class_workspace_settings.html#a4c7190335bf26fde0f0305254838e514" target="_top" xlink:title="WorkspaceSettings::\lgetDebugTools">
<polygon fill="white" stroke="black" points="196,-40 196,-74 304,-74 304,-40 196,-40"/>
<text text-anchor="start" x="204" y="-61" font-family="Helvetica,sans-Serif" font-size="10.00">WorkspaceSettings::</text>
<text text-anchor="middle" x="250" y="-48" font-family="Helvetica,sans-Serif" font-size="10.00">getDebugTools</text>
</a>
</g>
<!-- Node1&#45;&gt;Node14 -->
<g id="edge26" class="edge"><title>Node1&#45;&gt;Node14</title>
<path fill="none" stroke="midnightblue" d="M69.0971,-332.321C73.6914,-293.126 94.8897,-155.708 172,-83 176.325,-78.9223 181.306,-75.4833 186.616,-72.583"/>
<polygon fill="midnightblue" stroke="midnightblue" points="188.291,-75.6619 195.805,-68.1931 185.273,-69.3457 188.291,-75.6619"/>
</g>
<!-- Node15 -->
<g id="node29" class="node"><title>Node15</title>
<a xlink:href="../../df/def/class_w_s_i___debug_tools.html#a2d5687f40d2384e2454a06193194f6ab" target="_top" xlink:title="WSI_DebugTools::getWidget">
<polygon fill="white" stroke="black" points="178,-0.5 178,-21.5 322,-21.5 322,-0.5 178,-0.5"/>
<text text-anchor="middle" x="250" y="-8.5" font-family="Helvetica,sans-Serif" font-size="10.00">WSI_DebugTools::getWidget</text>
</a>
</g>
<!-- Node1&#45;&gt;Node15 -->
<g id="edge28" class="edge"><title>Node1&#45;&gt;Node15</title>
<path fill="none" stroke="midnightblue" d="M70.1382,-332.309C80.2801,-282.617 125.002,-74.7854 172,-31 173.662,-29.4515 175.428,-28.019 177.276,-26.694"/>
<polygon fill="midnightblue" stroke="midnightblue" points="179.081,-29.6927 185.856,-21.5468 175.48,-23.69 179.081,-29.6927"/>
</g>
</g>
</svg>
