<?xml version="1.0" encoding="UTF-8" standalone="no"?>
<!DOCTYPE svg PUBLIC "-//W3C//DTD SVG 1.1//EN"
 "http://www.w3.org/Graphics/SVG/1.1/DTD/svg11.dtd">
<!-- Generated by graphviz version 2.26.3 (20100126.1600)
 -->
<!-- Title: WorkspaceSettingsDialog Pages: 1 -->
<svg width="330pt" height="994pt"
 viewBox="0.00 0.00 330.00 994.00" xmlns="http://www.w3.org/2000/svg" xmlns:xlink="http://www.w3.org/1999/xlink">
<g id="graph1" class="graph" transform="scale(1 1) rotate(0) translate(4 990)">
<title>WorkspaceSettingsDialog</title>
<polygon fill="white" stroke="white" points="-4,5 -4,-990 327,-990 327,5 -4,5"/>
<!-- Node1 -->
<g id="node1" class="node"><title>Node1</title>
<polygon fill="#bfbfbf" stroke="black" points="0,-488.5 0,-509.5 130,-509.5 130,-488.5 0,-488.5"/>
<text text-anchor="middle" x="65" y="-496.5" font-family="Helvetica,sans-Serif" font-size="10.00">WorkspaceSettingsDialog</text>
</g>
<!-- Node2 -->
<g id="node3" class="node"><title>Node2</title>
<a xlink:href="../../de/d52/class_workspace_settings.html#a1929f7901456c111916955644d31a649" target="_top" xlink:title="WorkspaceSettings::\lgetAppLocale">
<polygon fill="white" stroke="black" points="190,-952 190,-986 298,-986 298,-952 190,-952"/>
<text text-anchor="start" x="198" y="-973" font-family="Helvetica,sans-Serif" font-size="10.00">WorkspaceSettings::</text>
<text text-anchor="middle" x="244" y="-960" font-family="Helvetica,sans-Serif" font-size="10.00">getAppLocale</text>
</a>
</g>
<!-- Node1&#45;&gt;Node2 -->
<g id="edge2" class="edge"><title>Node1&#45;&gt;Node2</title>
<path fill="none" stroke="midnightblue" d="M66.0245,-509.725C72.072,-570.926 104.945,-875.643 166,-943 170.115,-947.539 175.042,-951.288 180.394,-954.382"/>
<polygon fill="midnightblue" stroke="midnightblue" points="179.219,-957.705 189.734,-958.997 182.32,-951.429 179.219,-957.705"/>
</g>
<!-- Node3 -->
<g id="node5" class="node"><title>Node3</title>
<a xlink:href="../../db/d82/class_w_s_i___app_locale.html#ae41cea32d4b5495f11a95b07c760aaed" target="_top" xlink:title="WSI_AppLocale::getLabelText">
<polygon fill="white" stroke="black" points="169.5,-912.5 169.5,-933.5 318.5,-933.5 318.5,-912.5 169.5,-912.5"/>
<text text-anchor="middle" x="244" y="-920.5" font-family="Helvetica,sans-Serif" font-size="10.00">WSI_AppLocale::getLabelText</text>
</a>
</g>
<!-- Node1&#45;&gt;Node3 -->
<g id="edge4" class="edge"><title>Node1&#45;&gt;Node3</title>
<path fill="none" stroke="midnightblue" d="M66.186,-509.575C72.8713,-567.34 107.642,-844.289 166,-903 167.287,-904.295 168.646,-905.51 170.067,-906.65"/>
<polygon fill="midnightblue" stroke="midnightblue" points="168.514,-909.818 178.793,-912.388 172.36,-903.969 168.514,-909.818"/>
</g>
<!-- Node4 -->
<g id="node7" class="node"><title>Node4</title>
<a xlink:href="../../db/d82/class_w_s_i___app_locale.html#a2d5687f40d2384e2454a06193194f6ab" target="_top" xlink:title="WSI_AppLocale::getWidget">
<polygon fill="white" stroke="black" points="175.5,-872.5 175.5,-893.5 312.5,-893.5 312.5,-872.5 175.5,-872.5"/>
<text text-anchor="middle" x="244" y="-880.5" font-family="Helvetica,sans-Serif" font-size="10.00">WSI_AppLocale::getWidget</text>
</a>
</g>
<!-- Node1&#45;&gt;Node4 -->
<g id="edge6" class="edge"><title>Node1&#45;&gt;Node4</title>
<path fill="none" stroke="midnightblue" d="M66.4961,-509.588C74.3765,-563.906 112.734,-810.771 166,-863 167.46,-864.431 169.007,-865.765 170.628,-867.006"/>
<polygon fill="midnightblue" stroke="midnightblue" points="168.95,-870.086 179.271,-872.479 172.695,-864.172 168.95,-870.086"/>
</g>
<!-- Node5 -->
<g id="node9" class="node"><title>Node5</title>
<a xlink:href="../../de/d52/class_workspace_settings.html#a4abf1b2064c294b05b38047f25e3a744" target="_top" xlink:title="WorkspaceSettings::\lgetAppDefMeasUnits">
<polygon fill="white" stroke="black" points="189,-820 189,-854 299,-854 299,-820 189,-820"/>
<text text-anchor="start" x="197" y="-841" font-family="Helvetica,sans-Serif" font-size="10.00">WorkspaceSettings::</text>
<text text-anchor="middle" x="244" y="-828" font-family="Helvetica,sans-Serif" font-size="10.00">getAppDefMeasUnits</text>
</a>
</g>
<!-- Node1&#45;&gt;Node5 -->
<g id="edge8" class="edge"><title>Node1&#45;&gt;Node5</title>
<path fill="none" stroke="midnightblue" d="M67.1007,-509.616C77.0587,-558.971 120.906,-765.513 166,-811 169.957,-814.991 174.542,-818.37 179.468,-821.23"/>
<polygon fill="midnightblue" stroke="midnightblue" points="178.135,-824.477 188.642,-825.838 181.277,-818.222 178.135,-824.477"/>
</g>
<!-- Node6 -->
<g id="node11" class="node"><title>Node6</title>
<a xlink:href="../../d3/d01/class_w_s_i___app_default_measurement_units.html#a0954b0d079f89bf5c6260bf53ae213ec" target="_top" xlink:title="WSI_AppDefaultMeasurement\lUnits::getLengthUnitLabelText">
<polygon fill="white" stroke="black" points="169.5,-768 169.5,-802 318.5,-802 318.5,-768 169.5,-768"/>
<text text-anchor="start" x="177.5" y="-789" font-family="Helvetica,sans-Serif" font-size="10.00">WSI_AppDefaultMeasurement</text>
<text text-anchor="middle" x="244" y="-776" font-family="Helvetica,sans-Serif" font-size="10.00">Units::getLengthUnitLabelText</text>
</a>
</g>
<!-- Node1&#45;&gt;Node6 -->
<g id="edge10" class="edge"><title>Node1&#45;&gt;Node6</title>
<path fill="none" stroke="midnightblue" d="M65.9625,-509.673C70.0644,-548.845 89.5553,-686.195 166,-759 167.098,-760.046 168.24,-761.05 169.419,-762.013"/>
<polygon fill="midnightblue" stroke="midnightblue" points="167.492,-764.937 177.691,-767.805 171.506,-759.202 167.492,-764.937"/>
</g>
<!-- Node7 -->
<g id="node13" class="node"><title>Node7</title>
<a xlink:href="../../d3/d01/class_w_s_i___app_default_measurement_units.html#ab27d526a2d70d0ade24396f5b1107536" target="_top" xlink:title="WSI_AppDefaultMeasurement\lUnits::getLengthUnitComboBox">
<polygon fill="white" stroke="black" points="166.5,-716 166.5,-750 321.5,-750 321.5,-716 166.5,-716"/>
<text text-anchor="start" x="174.5" y="-737" font-family="Helvetica,sans-Serif" font-size="10.00">WSI_AppDefaultMeasurement</text>
<text text-anchor="middle" x="244" y="-724" font-family="Helvetica,sans-Serif" font-size="10.00">Units::getLengthUnitComboBox</text>
</a>
</g>
<!-- Node1&#45;&gt;Node7 -->
<g id="edge12" class="edge"><title>Node1&#45;&gt;Node7</title>
<path fill="none" stroke="midnightblue" d="M67.1517,-509.86C74.4898,-544.061 101.731,-650.603 166,-707 167.328,-708.165 168.709,-709.278 170.137,-710.342"/>
<polygon fill="midnightblue" stroke="midnightblue" points="168.452,-713.421 178.751,-715.907 172.251,-707.541 168.452,-713.421"/>
</g>
<!-- Node8 -->
<g id="node15" class="node"><title>Node8</title>
<a xlink:href="../../de/d52/class_workspace_settings.html#a012466b220bf623f6d0df3ab850f6acc" target="_top" xlink:title="WorkspaceSettings::\lgetProjectAutosaveInterval">
<polygon fill="white" stroke="black" points="177,-664 177,-698 311,-698 311,-664 177,-664"/>
<text text-anchor="start" x="185" y="-685" font-family="Helvetica,sans-Serif" font-size="10.00">WorkspaceSettings::</text>
<text text-anchor="middle" x="244" y="-672" font-family="Helvetica,sans-Serif" font-size="10.00">getProjectAutosaveInterval</text>
</a>
</g>
<!-- Node1&#45;&gt;Node8 -->
<g id="edge14" class="edge"><title>Node1&#45;&gt;Node8</title>
<path fill="none" stroke="midnightblue" d="M69.04,-509.871C80.074,-538.089 113.453,-614.303 166,-655 167.788,-656.385 169.653,-657.698 171.58,-658.943"/>
<polygon fill="midnightblue" stroke="midnightblue" points="169.949,-662.042 180.366,-663.974 173.428,-655.967 169.949,-662.042"/>
</g>
<!-- Node9 -->
<g id="node17" class="node"><title>Node9</title>
<a xlink:href="../../d6/d31/class_w_s_i___project_autosave_interval.html#ae41cea32d4b5495f11a95b07c760aaed" target="_top" xlink:title="WSI_ProjectAutosaveInterval\l::getLabelText">
<polygon fill="white" stroke="black" points="171,-612 171,-646 317,-646 317,-612 171,-612"/>
<text text-anchor="start" x="179" y="-633" font-family="Helvetica,sans-Serif" font-size="10.00">WSI_ProjectAutosaveInterval</text>
<text text-anchor="middle" x="244" y="-620" font-family="Helvetica,sans-Serif" font-size="10.00">::getLabelText</text>
</a>
</g>
<!-- Node1&#45;&gt;Node9 -->
<g id="edge16" class="edge"><title>Node1&#45;&gt;Node9</title>
<path fill="none" stroke="midnightblue" d="M72.6274,-509.775C87.9707,-530.694 124.654,-577.027 166,-603 168.576,-604.618 171.264,-606.147 174.027,-607.591"/>
<polygon fill="midnightblue" stroke="midnightblue" points="172.531,-610.755 183.062,-611.914 175.552,-604.44 172.531,-610.755"/>
</g>
<!-- Node10 -->
<g id="node19" class="node"><title>Node10</title>
<a xlink:href="../../d6/d31/class_w_s_i___project_autosave_interval.html#a2d5687f40d2384e2454a06193194f6ab" target="_top" xlink:title="WSI_ProjectAutosaveInterval\l::getWidget">
<polygon fill="white" stroke="black" points="171,-560 171,-594 317,-594 317,-560 171,-560"/>
<text text-anchor="start" x="179" y="-581" font-family="Helvetica,sans-Serif" font-size="10.00">WSI_ProjectAutosaveInterval</text>
<text text-anchor="middle" x="244" y="-568" font-family="Helvetica,sans-Serif" font-size="10.00">::getWidget</text>
</a>
</g>
<!-- Node1&#45;&gt;Node10 -->
<g id="edge18" class="edge"><title>Node1&#45;&gt;Node10</title>
<path fill="none" stroke="midnightblue" d="M83.5734,-509.662C103.528,-520.853 136.373,-538.523 166,-551 170.374,-552.842 174.928,-554.644 179.541,-556.386"/>
<polygon fill="midnightblue" stroke="midnightblue" points="178.46,-559.717 189.053,-559.869 180.867,-553.144 178.46,-559.717"/>
</g>
<!-- Node11 -->
<g id="node21" class="node"><title>Node11</title>
<a xlink:href="../../de/d52/class_workspace_settings.html#ae618bffea0533f54ce89366010d6d842" target="_top" xlink:title="WorkspaceSettings::\lgetAppearance">
<polygon fill="white" stroke="black" points="190,-508 190,-542 298,-542 298,-508 190,-508"/>
<text text-anchor="start" x="198" y="-529" font-family="Helvetica,sans-Serif" font-size="10.00">WorkspaceSettings::</text>
<text text-anchor="middle" x="244" y="-516" font-family="Helvetica,sans-Serif" font-size="10.00">getAppearance</text>
</a>
</g>
<!-- Node1&#45;&gt;Node11 -->
<g id="edge20" class="edge"><title>Node1&#45;&gt;Node11</title>
<path fill="none" stroke="midnightblue" d="M130.129,-508.46C146.201,-510.795 163.408,-513.294 179.453,-515.624"/>
<polygon fill="midnightblue" stroke="midnightblue" points="179.405,-519.154 189.805,-517.128 180.412,-512.227 179.405,-519.154"/>
</g>
<!-- Node12 -->
<g id="node23" class="node"><title>Node12</title>
<a xlink:href="../../d8/dcb/class_w_s_i___appearance.html#a1a764ea4a5e95897c06eb94fc129cd75" target="_top" xlink:title="WSI_Appearance::getUseOpen\lGlLabelText">
<polygon fill="white" stroke="black" points="167,-456 167,-490 321,-490 321,-456 167,-456"/>
<text text-anchor="start" x="175" y="-477" font-family="Helvetica,sans-Serif" font-size="10.00">WSI_Appearance::getUseOpen</text>
<text text-anchor="middle" x="244" y="-464" font-family="Helvetica,sans-Serif" font-size="10.00">GlLabelText</text>
</a>
</g>
<!-- Node1&#45;&gt;Node12 -->
<g id="edge22" class="edge"><title>Node1&#45;&gt;Node12</title>
<path fill="none" stroke="midnightblue" d="M130.129,-489.54C138.772,-488.284 147.743,-486.981 156.685,-485.683"/>
<polygon fill="midnightblue" stroke="midnightblue" points="157.356,-489.122 166.75,-484.221 156.35,-482.195 157.356,-489.122"/>
</g>
<!-- Node13 -->
<g id="node25" class="node"><title>Node13</title>
<a xlink:href="../../d8/dcb/class_w_s_i___appearance.html#adec3e9a8734ceaf3f916ab1d88b1198f" target="_top" xlink:title="WSI_Appearance::getUseOpen\lGlWidget">
<polygon fill="white" stroke="black" points="167,-404 167,-438 321,-438 321,-404 167,-404"/>
<text text-anchor="start" x="175" y="-425" font-family="Helvetica,sans-Serif" font-size="10.00">WSI_Appearance::getUseOpen</text>
<text text-anchor="middle" x="244" y="-412" font-family="Helvetica,sans-Serif" font-size="10.00">GlWidget</text>
</a>
</g>
<!-- Node1&#45;&gt;Node13 -->
<g id="edge24" class="edge"><title>Node1&#45;&gt;Node13</title>
<path fill="none" stroke="midnightblue" d="M83.5734,-488.338C103.528,-477.147 136.373,-459.477 166,-447 170.374,-445.158 174.928,-443.356 179.541,-441.614"/>
<polygon fill="midnightblue" stroke="midnightblue" points="180.867,-444.856 189.053,-438.131 178.46,-438.283 180.867,-444.856"/>
</g>
<!-- Node14 -->
<g id="node27" class="node"><title>Node14</title>
<a xlink:href="../../de/d52/class_workspace_settings.html#aa9f0124a076e4ac7b0525170b0eccfdd" target="_top" xlink:title="WorkspaceSettings::\lgetLibLocaleOrder">
<polygon fill="white" stroke="black" points="190,-352 190,-386 298,-386 298,-352 190,-352"/>
<text text-anchor="start" x="198" y="-373" font-family="Helvetica,sans-Serif" font-size="10.00">WorkspaceSettings::</text>
<text text-anchor="middle" x="244" y="-360" font-family="Helvetica,sans-Serif" font-size="10.00">getLibLocaleOrder</text>
</a>
</g>
<!-- Node1&#45;&gt;Node14 -->
<g id="edge26" class="edge"><title>Node1&#45;&gt;Node14</title>
<path fill="none" stroke="midnightblue" d="M72.6274,-488.225C87.9707,-467.306 124.654,-420.973 166,-395 170.419,-392.224 175.167,-389.71 180.06,-387.441"/>
<polygon fill="midnightblue" stroke="midnightblue" points="181.773,-390.515 189.599,-383.373 179.028,-384.076 181.773,-390.515"/>
</g>
<!-- Node15 -->
<g id="node29" class="node"><title>Node15</title>
<a xlink:href="../../de/ded/class_w_s_i___library_locale_order.html#ae41cea32d4b5495f11a95b07c760aaed" target="_top" xlink:title="WSI_LibraryLocaleOrder\l::getLabelText">
<polygon fill="white" stroke="black" points="182.5,-300 182.5,-334 305.5,-334 305.5,-300 182.5,-300"/>
<text text-anchor="start" x="190.5" y="-321" font-family="Helvetica,sans-Serif" font-size="10.00">WSI_LibraryLocaleOrder</text>
<text text-anchor="middle" x="244" y="-308" font-family="Helvetica,sans-Serif" font-size="10.00">::getLabelText</text>
</a>
</g>
<!-- Node1&#45;&gt;Node15 -->
<g id="edge28" class="edge"><title>Node1&#45;&gt;Node15</title>
<path fill="none" stroke="midnightblue" d="M69.04,-488.129C80.074,-459.911 113.453,-383.697 166,-343 168.328,-341.197 170.786,-339.516 173.34,-337.949"/>
<polygon fill="midnightblue" stroke="midnightblue" points="175.23,-340.906 182.337,-333.048 171.881,-334.759 175.23,-340.906"/>
</g>
<!-- Node16 -->
<g id="node31" class="node"><title>Node16</title>
<a xlink:href="../../de/ded/class_w_s_i___library_locale_order.html#a2d5687f40d2384e2454a06193194f6ab" target="_top" xlink:title="WSI_LibraryLocaleOrder\l::getWidget">
<polygon fill="white" stroke="black" points="182.5,-248 182.5,-282 305.5,-282 305.5,-248 182.5,-248"/>
<text text-anchor="start" x="190.5" y="-269" font-family="Helvetica,sans-Serif" font-size="10.00">WSI_LibraryLocaleOrder</text>
<text text-anchor="middle" x="244" y="-256" font-family="Helvetica,sans-Serif" font-size="10.00">::getWidget</text>
</a>
</g>
<!-- Node1&#45;&gt;Node16 -->
<g id="edge30" class="edge"><title>Node1&#45;&gt;Node16</title>
<path fill="none" stroke="midnightblue" d="M67.1517,-488.14C74.4898,-453.939 101.731,-347.397 166,-291 168.339,-288.948 170.844,-287.057 173.472,-285.314"/>
<polygon fill="midnightblue" stroke="midnightblue" points="175.329,-288.283 182.223,-280.238 171.816,-282.228 175.329,-288.283"/>
</g>
<!-- Node17 -->
<g id="node33" class="node"><title>Node17</title>
<a xlink:href="../../de/d52/class_workspace_settings.html#aa8dce192d4178a1f7fcc2db5825bcd17" target="_top" xlink:title="WorkspaceSettings::\lgetLibNormOrder">
<polygon fill="white" stroke="black" points="190,-196 190,-230 298,-230 298,-196 190,-196"/>
<text text-anchor="start" x="198" y="-217" font-family="Helvetica,sans-Serif" font-size="10.00">WorkspaceSettings::</text>
<text text-anchor="middle" x="244" y="-204" font-family="Helvetica,sans-Serif" font-size="10.00">getLibNormOrder</text>
</a>
</g>
<!-- Node1&#45;&gt;Node17 -->
<g id="edge32" class="edge"><title>Node1&#45;&gt;Node17</title>
<path fill="none" stroke="midnightblue" d="M65.9625,-488.327C70.0644,-449.155 89.5553,-311.805 166,-239 170.304,-234.901 175.272,-231.447 180.573,-228.538"/>
<polygon fill="midnightblue" stroke="midnightblue" points="182.248,-231.616 189.752,-224.137 179.222,-225.304 182.248,-231.616"/>
</g>
<!-- Node18 -->
<g id="node35" class="node"><title>Node18</title>
<a xlink:href="../../d5/da3/class_w_s_i___library_norm_order.html#ae41cea32d4b5495f11a95b07c760aaed" target="_top" xlink:title="WSI_LibraryNormOrder\l::getLabelText">
<polygon fill="white" stroke="black" points="184.5,-144 184.5,-178 303.5,-178 303.5,-144 184.5,-144"/>
<text text-anchor="start" x="192.5" y="-165" font-family="Helvetica,sans-Serif" font-size="10.00">WSI_LibraryNormOrder</text>
<text text-anchor="middle" x="244" y="-152" font-family="Helvetica,sans-Serif" font-size="10.00">::getLabelText</text>
</a>
</g>
<!-- Node1&#45;&gt;Node18 -->
<g id="edge34" class="edge"><title>Node1&#45;&gt;Node18</title>
<path fill="none" stroke="midnightblue" d="M67.1007,-488.384C77.0587,-439.029 120.906,-232.487 166,-187 168.858,-184.117 172.043,-181.554 175.448,-179.275"/>
<polygon fill="midnightblue" stroke="midnightblue" points="177.384,-182.199 184.303,-174.176 173.89,-176.134 177.384,-182.199"/>
</g>
<!-- Node19 -->
<g id="node37" class="node"><title>Node19</title>
<a xlink:href="../../d5/da3/class_w_s_i___library_norm_order.html#a2d5687f40d2384e2454a06193194f6ab" target="_top" xlink:title="WSI_LibraryNormOrder\l::getWidget">
<polygon fill="white" stroke="black" points="184.5,-92 184.5,-126 303.5,-126 303.5,-92 184.5,-92"/>
<text text-anchor="start" x="192.5" y="-113" font-family="Helvetica,sans-Serif" font-size="10.00">WSI_LibraryNormOrder</text>
<text text-anchor="middle" x="244" y="-100" font-family="Helvetica,sans-Serif" font-size="10.00">::getWidget</text>
</a>
</g>
<!-- Node1&#45;&gt;Node19 -->
<g id="edge36" class="edge"><title>Node1&#45;&gt;Node19</title>
<path fill="none" stroke="midnightblue" d="M66.566,-488.481C74.7952,-434.506 114.615,-189.08 166,-135 168.931,-131.915 172.238,-129.196 175.792,-126.799"/>
<polygon fill="midnightblue" stroke="midnightblue" points="177.575,-129.812 184.476,-121.773 174.068,-123.754 177.575,-129.812"/>
</g>
<!-- Node20 -->
<g id="node39" class="node"><title>Node20</title>
<a xlink:href="../../de/d52/class_workspace_settings.html#a4c7190335bf26fde0f0305254838e514" target="_top" xlink:title="WorkspaceSettings::\lgetDebugTools">
<polygon fill="white" stroke="black" points="190,-40 190,-74 298,-74 298,-40 190,-40"/>
<text text-anchor="start" x="198" y="-61" font-family="Helvetica,sans-Serif" font-size="10.00">WorkspaceSettings::</text>
<text text-anchor="middle" x="244" y="-48" font-family="Helvetica,sans-Serif" font-size="10.00">getDebugTools</text>
</a>
</g>
<!-- Node1&#45;&gt;Node20 -->
<g id="edge38" class="edge"><title>Node1&#45;&gt;Node20</title>
<path fill="none" stroke="midnightblue" d="M66.2111,-488.184C73.0298,-429.089 108.394,-145.634 166,-83 170.148,-78.4905 175.097,-74.7624 180.463,-71.6802"/>
<polygon fill="midnightblue" stroke="midnightblue" points="182.389,-74.6332 189.818,-67.0792 179.3,-68.3517 182.389,-74.6332"/>
</g>
<!-- Node21 -->
<g id="node41" class="node"><title>Node21</title>
<a xlink:href="../../df/def/class_w_s_i___debug_tools.html#a2d5687f40d2384e2454a06193194f6ab" target="_top" xlink:title="WSI_DebugTools::getWidget">
<polygon fill="white" stroke="black" points="172,-0.5 172,-21.5 316,-21.5 316,-0.5 172,-0.5"/>
<text text-anchor="middle" x="244" y="-8.5" font-family="Helvetica,sans-Serif" font-size="10.00">WSI_DebugTools::getWidget</text>
</a>
</g>
<!-- Node1&#45;&gt;Node21 -->
<g id="edge40" class="edge"><title>Node1&#45;&gt;Node21</title>
<path fill="none" stroke="midnightblue" d="M65.797,-488.461C70.7619,-425.568 99.4323,-100.178 166,-31 167.233,-29.7188 168.536,-28.5155 169.899,-27.3856"/>
<polygon fill="midnightblue" stroke="midnightblue" points="171.986,-30.1989 178.291,-21.6845 168.053,-24.4085 171.986,-30.1989"/>
</g>
</g>
</svg>
