<?xml version="1.0" encoding="UTF-8" standalone="no"?>
<!DOCTYPE svg PUBLIC "-//W3C//DTD SVG 1.1//EN"
 "http://www.w3.org/Graphics/SVG/1.1/DTD/svg11.dtd">
<!-- Generated by graphviz version 2.26.3 (20100126.1600)
 -->
<!-- Title: /home/travis/build/LibrePCB/LibrePCB/libs/librepcbprojecteditor/ui/ui_ercmsgdock.h Pages: 1 -->
<svg width="1340pt" height="128pt"
 viewBox="0.00 0.00 1340.00 128.00" xmlns="http://www.w3.org/2000/svg" xmlns:xlink="http://www.w3.org/1999/xlink">
<g id="graph1" class="graph" transform="scale(1 1) rotate(0) translate(4 124)">
<title>/home/travis/build/LibrePCB/LibrePCB/libs/librepcbprojecteditor/ui/ui_ercmsgdock.h</title>
<polygon fill="white" stroke="white" points="-4,5 -4,-124 1337,-124 1337,5 -4,5"/>
<!-- Node1 -->
<g id="node1" class="node"><title>Node1</title>
<polygon fill="#bfbfbf" stroke="black" points="583.5,-59 583.5,-119 708.5,-119 708.5,-59 583.5,-59"/>
<text text-anchor="start" x="591.5" y="-106" font-family="Helvetica,sans-Serif" font-size="10.00">/home/travis/build</text>
<text text-anchor="start" x="591.5" y="-93" font-family="Helvetica,sans-Serif" font-size="10.00">/LibrePCB/LibrePCB/libs</text>
<text text-anchor="start" x="591.5" y="-80" font-family="Helvetica,sans-Serif" font-size="10.00">/librepcbprojecteditor</text>
<text text-anchor="middle" x="646" y="-67" font-family="Helvetica,sans-Serif" font-size="10.00">/ui/ui_ercmsgdock.h</text>
</g>
<!-- Node2 -->
<g id="node3" class="node"><title>Node2</title>
<polygon fill="white" stroke="#bfbfbf" points="-0.5,-0.5 -0.5,-21.5 88.5,-21.5 88.5,-0.5 -0.5,-0.5"/>
<text text-anchor="middle" x="44" y="-8.5" font-family="Helvetica,sans-Serif" font-size="10.00">QtCore/QVariant</text>
</g>
<!-- Node1&#45;&gt;Node2 -->
<g id="edge2" class="edge"><title>Node1&#45;&gt;Node2</title>
<path fill="none" stroke="midnightblue" d="M583.185,-83.0515C482.779,-73.1652 279.785,-51.6302 98.7405,-22.1976"/>
<polygon fill="midnightblue" stroke="midnightblue" points="99.2047,-18.7271 88.7706,-20.5651 98.0735,-25.6351 99.2047,-18.7271"/>
</g>
<!-- Node3 -->
<g id="node5" class="node"><title>Node3</title>
<polygon fill="white" stroke="#bfbfbf" points="105.5,-0.5 105.5,-21.5 206.5,-21.5 206.5,-0.5 105.5,-0.5"/>
<text text-anchor="middle" x="156" y="-8.5" font-family="Helvetica,sans-Serif" font-size="10.00">QtWidgets/QAction</text>
</g>
<!-- Node1&#45;&gt;Node3 -->
<g id="edge4" class="edge"><title>Node1&#45;&gt;Node3</title>
<path fill="none" stroke="midnightblue" d="M583.45,-79.8799C501.555,-67.8047 353.275,-45.4803 216.74,-22.2654"/>
<polygon fill="midnightblue" stroke="midnightblue" points="216.959,-18.7523 206.513,-20.521 215.782,-25.6526 216.959,-18.7523"/>
</g>
<!-- Node4 -->
<g id="node7" class="node"><title>Node4</title>
<polygon fill="white" stroke="#bfbfbf" points="224,-0.5 224,-21.5 346,-21.5 346,-0.5 224,-0.5"/>
<text text-anchor="middle" x="285" y="-8.5" font-family="Helvetica,sans-Serif" font-size="10.00">QtWidgets/QApplication</text>
</g>
<!-- Node1&#45;&gt;Node4 -->
<g id="edge6" class="edge"><title>Node1&#45;&gt;Node4</title>
<path fill="none" stroke="midnightblue" d="M583.119,-75.4134C515.675,-60.8412 409.428,-37.8848 343.66,-23.6744"/>
<polygon fill="midnightblue" stroke="midnightblue" points="344.376,-20.2484 333.862,-21.5574 342.897,-27.0905 344.376,-20.2484"/>
</g>
<!-- Node5 -->
<g id="node9" class="node"><title>Node5</title>
<polygon fill="white" stroke="#bfbfbf" points="364,-0.5 364,-21.5 492,-21.5 492,-0.5 364,-0.5"/>
<text text-anchor="middle" x="428" y="-8.5" font-family="Helvetica,sans-Serif" font-size="10.00">QtWidgets/QButtonGroup</text>
</g>
<!-- Node1&#45;&gt;Node5 -->
<g id="edge8" class="edge"><title>Node1&#45;&gt;Node5</title>
<path fill="none" stroke="midnightblue" d="M583.238,-66.5438C545.734,-53.1252 499.267,-36.4991 466.993,-24.9516"/>
<polygon fill="midnightblue" stroke="midnightblue" points="468.053,-21.6137 457.458,-21.5402 465.695,-28.2045 468.053,-21.6137"/>
</g>
<!-- Node6 -->
<g id="node11" class="node"><title>Node6</title>
<polygon fill="white" stroke="#bfbfbf" points="510,-0.5 510,-21.5 638,-21.5 638,-0.5 510,-0.5"/>
<text text-anchor="middle" x="574" y="-8.5" font-family="Helvetica,sans-Serif" font-size="10.00">QtWidgets/QDockWidget</text>
</g>
<!-- Node1&#45;&gt;Node6 -->
<g id="edge10" class="edge"><title>Node1&#45;&gt;Node6</title>
<path fill="none" stroke="midnightblue" d="M617.957,-58.6198C608.767,-48.6638 598.848,-37.9189 590.763,-29.1597"/>
<polygon fill="midnightblue" stroke="midnightblue" points="593.281,-26.7275 583.926,-21.7535 588.137,-31.4755 593.281,-26.7275"/>
</g>
<!-- Node7 -->
<g id="node13" class="node"><title>Node7</title>
<polygon fill="white" stroke="#bfbfbf" points="655.5,-0.5 655.5,-21.5 782.5,-21.5 782.5,-0.5 655.5,-0.5"/>
<text text-anchor="middle" x="719" y="-8.5" font-family="Helvetica,sans-Serif" font-size="10.00">QtWidgets/QHeaderView</text>
</g>
<!-- Node1&#45;&gt;Node7 -->
<g id="edge12" class="edge"><title>Node1&#45;&gt;Node7</title>
<path fill="none" stroke="midnightblue" d="M674.433,-58.6198C683.751,-48.6638 693.807,-37.9189 702.004,-29.1597"/>
<polygon fill="midnightblue" stroke="midnightblue" points="704.658,-31.4463 708.936,-21.7535 699.547,-26.6631 704.658,-31.4463"/>
</g>
<!-- Node8 -->
<g id="node15" class="node"><title>Node8</title>
<polygon fill="white" stroke="#bfbfbf" points="799.5,-0.5 799.5,-21.5 924.5,-21.5 924.5,-0.5 799.5,-0.5"/>
<text text-anchor="middle" x="862" y="-8.5" font-family="Helvetica,sans-Serif" font-size="10.00">QtWidgets/QPushButton</text>
</g>
<!-- Node1&#45;&gt;Node8 -->
<g id="edge14" class="edge"><title>Node1&#45;&gt;Node8</title>
<path fill="none" stroke="midnightblue" d="M708.766,-66.3344C745.632,-53.0217 791.081,-36.6098 822.87,-25.1303"/>
<polygon fill="midnightblue" stroke="midnightblue" points="824.466,-28.2751 832.683,-21.5866 822.089,-21.6912 824.466,-28.2751"/>
</g>
<!-- Node9 -->
<g id="node17" class="node"><title>Node9</title>
<polygon fill="white" stroke="#bfbfbf" points="942,-0.5 942,-21.5 1066,-21.5 1066,-0.5 942,-0.5"/>
<text text-anchor="middle" x="1004" y="-8.5" font-family="Helvetica,sans-Serif" font-size="10.00">QtWidgets/QTreeWidget</text>
</g>
<!-- Node1&#45;&gt;Node9 -->
<g id="edge16" class="edge"><title>Node1&#45;&gt;Node9</title>
<path fill="none" stroke="midnightblue" d="M708.769,-75.3242C775.581,-60.7672 880.456,-37.9173 945.565,-23.7317"/>
<polygon fill="midnightblue" stroke="midnightblue" points="946.635,-27.0806 955.661,-21.5319 945.145,-20.2411 946.635,-27.0806"/>
</g>
<!-- Node10 -->
<g id="node19" class="node"><title>Node10</title>
<polygon fill="white" stroke="#bfbfbf" points="1083.5,-0.5 1083.5,-21.5 1210.5,-21.5 1210.5,-0.5 1083.5,-0.5"/>
<text text-anchor="middle" x="1147" y="-8.5" font-family="Helvetica,sans-Serif" font-size="10.00">QtWidgets/QVBoxLayout</text>
</g>
<!-- Node1&#45;&gt;Node10 -->
<g id="edge18" class="edge"><title>Node1&#45;&gt;Node10</title>
<path fill="none" stroke="midnightblue" d="M708.692,-79.2396C801.471,-64.795 974.962,-37.7843 1073.56,-22.4332"/>
<polygon fill="midnightblue" stroke="midnightblue" points="1074.11,-25.8906 1083.45,-20.8939 1073.03,-18.974 1074.11,-25.8906"/>
</g>
<!-- Node11 -->
<g id="node21" class="node"><title>Node11</title>
<polygon fill="white" stroke="#bfbfbf" points="1228,-0.5 1228,-21.5 1332,-21.5 1332,-0.5 1228,-0.5"/>
<text text-anchor="middle" x="1280" y="-8.5" font-family="Helvetica,sans-Serif" font-size="10.00">QtWidgets/QWidget</text>
</g>
<!-- Node1&#45;&gt;Node11 -->
<g id="edge20" class="edge"><title>Node1&#45;&gt;Node11</title>
<path fill="none" stroke="midnightblue" d="M708.912,-82.9329C812.761,-72.6344 1026.76,-50.2178 1217.85,-22.1058"/>
<polygon fill="midnightblue" stroke="midnightblue" points="1218.41,-25.5603 1227.79,-20.6343 1217.39,-18.6357 1218.41,-25.5603"/>
</g>
</g>
</svg>
