<?xml version="1.0" encoding="UTF-8" standalone="no"?>
<!DOCTYPE svg PUBLIC "-//W3C//DTD SVG 1.1//EN"
 "http://www.w3.org/Graphics/SVG/1.1/DTD/svg11.dtd">
<!-- Generated by graphviz version 2.26.3 (20100126.1600)
 -->
<!-- Title: /home/travis/build/LibrePCB/LibrePCB/libs/librepcbprojecteditor/boardeditor/boardeditor.h Pages: 1 -->
<svg width="1301pt" height="364pt"
 viewBox="0.00 0.00 1301.00 364.00" xmlns="http://www.w3.org/2000/svg" xmlns:xlink="http://www.w3.org/1999/xlink">
<g id="graph1" class="graph" transform="scale(1 1) rotate(0) translate(4 360)">
<title>/home/travis/build/LibrePCB/LibrePCB/libs/librepcbprojecteditor/boardeditor/boardeditor.h</title>
<polygon fill="white" stroke="white" points="-4,5 -4,-360 1298,-360 1298,5 -4,5"/>
<!-- Node1 -->
<g id="node1" class="node"><title>Node1</title>
<polygon fill="#bfbfbf" stroke="black" points="702.5,-295 702.5,-355 829.5,-355 829.5,-295 702.5,-295"/>
<text text-anchor="start" x="710.5" y="-342" font-family="Helvetica,sans-Serif" font-size="10.00">/home/travis/build</text>
<text text-anchor="start" x="710.5" y="-329" font-family="Helvetica,sans-Serif" font-size="10.00">/LibrePCB/LibrePCB/libs</text>
<text text-anchor="start" x="710.5" y="-316" font-family="Helvetica,sans-Serif" font-size="10.00">/librepcbprojecteditor</text>
<text text-anchor="middle" x="766" y="-303" font-family="Helvetica,sans-Serif" font-size="10.00">/boardeditor/boardeditor.h</text>
</g>
<!-- Node2 -->
<g id="node3" class="node"><title>Node2</title>
<a xlink:href="../../de/de5/boardeditor_8cpp.html" target="_top" xlink:title="/home/travis/build\l/LibrePCB/LibrePCB/libs\l/librepcbprojecteditor\l/boardeditor/boardeditor.cpp">
<polygon fill="white" stroke="black" points="-0.5,-1 -0.5,-61 136.5,-61 136.5,-1 -0.5,-1"/>
<text text-anchor="start" x="7.5" y="-48" font-family="Helvetica,sans-Serif" font-size="10.00">/home/travis/build</text>
<text text-anchor="start" x="7.5" y="-35" font-family="Helvetica,sans-Serif" font-size="10.00">/LibrePCB/LibrePCB/libs</text>
<text text-anchor="start" x="7.5" y="-22" font-family="Helvetica,sans-Serif" font-size="10.00">/librepcbprojecteditor</text>
<text text-anchor="middle" x="68" y="-9" font-family="Helvetica,sans-Serif" font-size="10.00">/boardeditor/boardeditor.cpp</text>
</a>
</g>
<!-- Node1&#45;&gt;Node2 -->
<g id="edge2" class="edge"><title>Node1&#45;&gt;Node2</title>
<path fill="none" stroke="midnightblue" d="M692.282,-319.669C605.717,-312.003 458.516,-294.551 337,-258 236.824,-227.868 195.987,-234.941 123,-160 96.1612,-132.443 81.5009,-89.7626 74.2097,-61.1241"/>
<polygon fill="midnightblue" stroke="midnightblue" points="692.009,-323.159 702.274,-320.534 692.613,-316.185 692.009,-323.159"/>
</g>
<!-- Node3 -->
<g id="node5" class="node"><title>Node3</title>
<a xlink:href="../../d1/deb/bes__base_8h.html" target="_top" xlink:title="/home/travis/build\l/LibrePCB/LibrePCB/libs\l/librepcbprojecteditor\l/boardeditor/fsm/bes_base.h">
<polygon fill="white" stroke="black" points="471,-197 471,-257 611,-257 611,-197 471,-197"/>
<text text-anchor="start" x="479" y="-244" font-family="Helvetica,sans-Serif" font-size="10.00">/home/travis/build</text>
<text text-anchor="start" x="479" y="-231" font-family="Helvetica,sans-Serif" font-size="10.00">/LibrePCB/LibrePCB/libs</text>
<text text-anchor="start" x="479" y="-218" font-family="Helvetica,sans-Serif" font-size="10.00">/librepcbprojecteditor</text>
<text text-anchor="middle" x="541" y="-205" font-family="Helvetica,sans-Serif" font-size="10.00">/boardeditor/fsm/bes_base.h</text>
</a>
</g>
<!-- Node1&#45;&gt;Node3 -->
<g id="edge4" class="edge"><title>Node1&#45;&gt;Node3</title>
<path fill="none" stroke="midnightblue" d="M693.132,-293.262C666.42,-281.627 636.289,-268.504 609.932,-257.024"/>
<polygon fill="midnightblue" stroke="midnightblue" points="691.86,-296.526 702.426,-297.31 694.656,-290.108 691.86,-296.526"/>
</g>
<!-- Node5 -->
<g id="node10" class="node"><title>Node5</title>
<a xlink:href="../../da/d7b/bes__fsm_8cpp.html" target="_top" xlink:title="/home/travis/build\l/LibrePCB/LibrePCB/libs\l/librepcbprojecteditor\l/boardeditor/fsm/bes_fsm.cpp">
<polygon fill="white" stroke="black" points="296,-1 296,-61 442,-61 442,-1 296,-1"/>
<text text-anchor="start" x="304" y="-48" font-family="Helvetica,sans-Serif" font-size="10.00">/home/travis/build</text>
<text text-anchor="start" x="304" y="-35" font-family="Helvetica,sans-Serif" font-size="10.00">/LibrePCB/LibrePCB/libs</text>
<text text-anchor="start" x="304" y="-22" font-family="Helvetica,sans-Serif" font-size="10.00">/librepcbprojecteditor</text>
<text text-anchor="middle" x="369" y="-9" font-family="Helvetica,sans-Serif" font-size="10.00">/boardeditor/fsm/bes_fsm.cpp</text>
</a>
</g>
<!-- Node1&#45;&gt;Node5 -->
<g id="edge28" class="edge"><title>Node1&#45;&gt;Node5</title>
<path fill="none" stroke="midnightblue" d="M692.237,-316.537C629.18,-307.497 537.013,-289.933 462,-258 389.753,-227.244 352.051,-229.23 315,-160 301.998,-135.705 305.832,-123.986 315,-98 319.722,-84.616 328.376,-71.9388 337.393,-61.287"/>
<polygon fill="midnightblue" stroke="midnightblue" points="692.102,-320.052 702.49,-317.969 693.07,-313.12 692.102,-320.052"/>
</g>
<!-- Node7 -->
<g id="node14" class="node"><title>Node7</title>
<a xlink:href="../../d1/dbd/bes__base_8cpp.html" target="_top" xlink:title="/home/travis/build\l/LibrePCB/LibrePCB/libs\l/librepcbprojecteditor\l/boardeditor/fsm/bes_base.cpp">
<polygon fill="white" stroke="black" points="631.5,-99 631.5,-159 782.5,-159 782.5,-99 631.5,-99"/>
<text text-anchor="start" x="639.5" y="-146" font-family="Helvetica,sans-Serif" font-size="10.00">/home/travis/build</text>
<text text-anchor="start" x="639.5" y="-133" font-family="Helvetica,sans-Serif" font-size="10.00">/LibrePCB/LibrePCB/libs</text>
<text text-anchor="start" x="639.5" y="-120" font-family="Helvetica,sans-Serif" font-size="10.00">/librepcbprojecteditor</text>
<text text-anchor="middle" x="707" y="-107" font-family="Helvetica,sans-Serif" font-size="10.00">/boardeditor/fsm/bes_base.cpp</text>
</a>
</g>
<!-- Node1&#45;&gt;Node7 -->
<g id="edge26" class="edge"><title>Node1&#45;&gt;Node7</title>
<path fill="none" stroke="midnightblue" d="M753.895,-284.785C742.677,-247.519 726.238,-192.911 716.1,-159.23"/>
<polygon fill="midnightblue" stroke="midnightblue" points="750.677,-286.238 756.911,-294.805 757.379,-284.22 750.677,-286.238"/>
</g>
<!-- Node9 -->
<g id="node19" class="node"><title>Node9</title>
<a xlink:href="../../d7/d20/bes__select_8cpp.html" target="_top" xlink:title="/home/travis/build\l/LibrePCB/LibrePCB/libs\l/librepcbprojecteditor\l/boardeditor/fsm/bes_select.cpp">
<polygon fill="white" stroke="black" points="678,-1 678,-61 834,-61 834,-1 678,-1"/>
<text text-anchor="start" x="686" y="-48" font-family="Helvetica,sans-Serif" font-size="10.00">/home/travis/build</text>
<text text-anchor="start" x="686" y="-35" font-family="Helvetica,sans-Serif" font-size="10.00">/LibrePCB/LibrePCB/libs</text>
<text text-anchor="start" x="686" y="-22" font-family="Helvetica,sans-Serif" font-size="10.00">/librepcbprojecteditor</text>
<text text-anchor="middle" x="756" y="-9" font-family="Helvetica,sans-Serif" font-size="10.00">/boardeditor/fsm/bes_select.cpp</text>
</a>
</g>
<!-- Node1&#45;&gt;Node9 -->
<g id="edge30" class="edge"><title>Node1&#45;&gt;Node9</title>
<path fill="none" stroke="midnightblue" d="M778.715,-284.984C791.358,-239.2 806.772,-162.257 791,-98 787.872,-85.2549 781.847,-72.2435 775.666,-61.1186"/>
<polygon fill="midnightblue" stroke="midnightblue" points="775.287,-284.242 775.908,-294.819 782.018,-286.163 775.287,-284.242"/>
</g>
<!-- Node12 -->
<g id="node28" class="node"><title>Node12</title>
<a xlink:href="../../d4/d7f/boardeditorevent_8cpp.html" target="_top" xlink:title="/home/travis/build\l/LibrePCB/LibrePCB/libs\l/librepcbprojecteditor\l/boardeditor/fsm/boardeditorevent.cpp">
<polygon fill="white" stroke="black" points="820.5,-197 820.5,-257 1001.5,-257 1001.5,-197 820.5,-197"/>
<text text-anchor="start" x="828.5" y="-244" font-family="Helvetica,sans-Serif" font-size="10.00">/home/travis/build</text>
<text text-anchor="start" x="828.5" y="-231" font-family="Helvetica,sans-Serif" font-size="10.00">/LibrePCB/LibrePCB/libs</text>
<text text-anchor="start" x="828.5" y="-218" font-family="Helvetica,sans-Serif" font-size="10.00">/librepcbprojecteditor</text>
<text text-anchor="middle" x="911" y="-205" font-family="Helvetica,sans-Serif" font-size="10.00">/boardeditor/fsm/boardeditorevent.cpp</text>
</a>
</g>
<!-- Node1&#45;&gt;Node12 -->
<g id="edge32" class="edge"><title>Node1&#45;&gt;Node12</title>
<path fill="none" stroke="midnightblue" d="M819.127,-289.093C834.588,-278.644 851.317,-267.337 866.21,-257.272"/>
<polygon fill="midnightblue" stroke="midnightblue" points="817.013,-286.298 810.688,-294.797 820.933,-292.097 817.013,-286.298"/>
</g>
<!-- Node13 -->
<g id="node30" class="node"><title>Node13</title>
<a xlink:href="../../d1/d11/moc__boardeditor_8cpp.html" target="_top" xlink:title="/home/travis/build\l/LibrePCB/LibrePCB/libs\l/librepcbprojecteditor\l/moc/moc_boardeditor.cpp">
<polygon fill="white" stroke="black" points="1019,-197 1019,-257 1151,-257 1151,-197 1019,-197"/>
<text text-anchor="start" x="1027" y="-244" font-family="Helvetica,sans-Serif" font-size="10.00">/home/travis/build</text>
<text text-anchor="start" x="1027" y="-231" font-family="Helvetica,sans-Serif" font-size="10.00">/LibrePCB/LibrePCB/libs</text>
<text text-anchor="start" x="1027" y="-218" font-family="Helvetica,sans-Serif" font-size="10.00">/librepcbprojecteditor</text>
<text text-anchor="middle" x="1085" y="-205" font-family="Helvetica,sans-Serif" font-size="10.00">/moc/moc_boardeditor.cpp</text>
</a>
</g>
<!-- Node1&#45;&gt;Node13 -->
<g id="edge34" class="edge"><title>Node1&#45;&gt;Node13</title>
<path fill="none" stroke="midnightblue" d="M839.441,-307.366C888.256,-295.028 953.526,-277.342 1010,-258 1012.93,-256.996 1015.91,-255.935 1018.92,-254.835"/>
<polygon fill="midnightblue" stroke="midnightblue" points="838.44,-304.009 829.594,-309.839 840.145,-310.798 838.44,-304.009"/>
</g>
<!-- Node14 -->
<g id="node32" class="node"><title>Node14</title>
<a xlink:href="../../da/d1e/projecteditor_8cpp.html" target="_top" xlink:title="/home/travis/build\l/LibrePCB/LibrePCB/libs\l/librepcbprojecteditor\l/projecteditor.cpp">
<polygon fill="white" stroke="black" points="1168.5,-197 1168.5,-257 1293.5,-257 1293.5,-197 1168.5,-197"/>
<text text-anchor="start" x="1176.5" y="-244" font-family="Helvetica,sans-Serif" font-size="10.00">/home/travis/build</text>
<text text-anchor="start" x="1176.5" y="-231" font-family="Helvetica,sans-Serif" font-size="10.00">/LibrePCB/LibrePCB/libs</text>
<text text-anchor="start" x="1176.5" y="-218" font-family="Helvetica,sans-Serif" font-size="10.00">/librepcbprojecteditor</text>
<text text-anchor="middle" x="1231" y="-205" font-family="Helvetica,sans-Serif" font-size="10.00">/projecteditor.cpp</text>
</a>
</g>
<!-- Node1&#45;&gt;Node14 -->
<g id="edge36" class="edge"><title>Node1&#45;&gt;Node14</title>
<path fill="none" stroke="midnightblue" d="M839.504,-317.907C919.57,-308.939 1050.81,-290.59 1160,-258 1162.71,-257.192 1165.45,-256.308 1168.2,-255.366"/>
<polygon fill="midnightblue" stroke="midnightblue" points="839.074,-314.433 829.518,-319.006 839.841,-321.391 839.074,-314.433"/>
</g>
<!-- Node4 -->
<g id="node7" class="node"><title>Node4</title>
<a xlink:href="../../d8/d1d/bes__fsm_8h.html" target="_top" xlink:title="/home/travis/build\l/LibrePCB/LibrePCB/libs\l/librepcbprojecteditor\l/boardeditor/fsm/bes_fsm.h">
<polygon fill="white" stroke="black" points="132,-99 132,-159 268,-159 268,-99 132,-99"/>
<text text-anchor="start" x="140" y="-146" font-family="Helvetica,sans-Serif" font-size="10.00">/home/travis/build</text>
<text text-anchor="start" x="140" y="-133" font-family="Helvetica,sans-Serif" font-size="10.00">/LibrePCB/LibrePCB/libs</text>
<text text-anchor="start" x="140" y="-120" font-family="Helvetica,sans-Serif" font-size="10.00">/librepcbprojecteditor</text>
<text text-anchor="middle" x="200" y="-107" font-family="Helvetica,sans-Serif" font-size="10.00">/boardeditor/fsm/bes_fsm.h</text>
</a>
</g>
<!-- Node3&#45;&gt;Node4 -->
<g id="edge6" class="edge"><title>Node3&#45;&gt;Node4</title>
<path fill="none" stroke="midnightblue" d="M460.801,-203.952C402.223,-187.117 323.658,-164.538 268.115,-148.575"/>
<polygon fill="midnightblue" stroke="midnightblue" points="460.18,-207.415 470.758,-206.813 462.114,-200.687 460.18,-207.415"/>
</g>
<!-- Node3&#45;&gt;Node7 -->
<g id="edge14" class="edge"><title>Node3&#45;&gt;Node7</title>
<path fill="none" stroke="midnightblue" d="M600.881,-191.649C618.94,-180.987 638.586,-169.389 656.009,-159.103"/>
<polygon fill="midnightblue" stroke="midnightblue" points="598.992,-188.699 592.16,-196.797 602.551,-194.727 598.992,-188.699"/>
</g>
<!-- Node8 -->
<g id="node16" class="node"><title>Node8</title>
<a xlink:href="../../d1/d62/bes__select_8h.html" target="_top" xlink:title="/home/travis/build\l/LibrePCB/LibrePCB/libs\l/librepcbprojecteditor\l/boardeditor/fsm/bes_select.h">
<polygon fill="white" stroke="black" points="468,-99 468,-159 614,-159 614,-99 468,-99"/>
<text text-anchor="start" x="476" y="-146" font-family="Helvetica,sans-Serif" font-size="10.00">/home/travis/build</text>
<text text-anchor="start" x="476" y="-133" font-family="Helvetica,sans-Serif" font-size="10.00">/LibrePCB/LibrePCB/libs</text>
<text text-anchor="start" x="476" y="-120" font-family="Helvetica,sans-Serif" font-size="10.00">/librepcbprojecteditor</text>
<text text-anchor="middle" x="541" y="-107" font-family="Helvetica,sans-Serif" font-size="10.00">/boardeditor/fsm/bes_select.h</text>
</a>
</g>
<!-- Node3&#45;&gt;Node8 -->
<g id="edge16" class="edge"><title>Node3&#45;&gt;Node8</title>
<path fill="none" stroke="midnightblue" d="M541,-186.696C541,-177.527 541,-167.939 541,-159.272"/>
<polygon fill="midnightblue" stroke="midnightblue" points="537.5,-186.797 541,-196.797 544.5,-186.797 537.5,-186.797"/>
</g>
<!-- Node11 -->
<g id="node23" class="node"><title>Node11</title>
<a xlink:href="../../d7/df8/moc__bes__base_8cpp.html" target="_top" xlink:title="/home/travis/build\l/LibrePCB/LibrePCB/libs\l/librepcbprojecteditor\l/moc/moc_bes_base.cpp">
<polygon fill="white" stroke="black" points="324,-99 324,-159 450,-159 450,-99 324,-99"/>
<text text-anchor="start" x="332" y="-146" font-family="Helvetica,sans-Serif" font-size="10.00">/home/travis/build</text>
<text text-anchor="start" x="332" y="-133" font-family="Helvetica,sans-Serif" font-size="10.00">/LibrePCB/LibrePCB/libs</text>
<text text-anchor="start" x="332" y="-120" font-family="Helvetica,sans-Serif" font-size="10.00">/librepcbprojecteditor</text>
<text text-anchor="middle" x="387" y="-107" font-family="Helvetica,sans-Serif" font-size="10.00">/moc/moc_bes_base.cpp</text>
</a>
</g>
<!-- Node3&#45;&gt;Node11 -->
<g id="edge24" class="edge"><title>Node3&#45;&gt;Node11</title>
<path fill="none" stroke="midnightblue" d="M484.99,-191.358C468.363,-180.776 450.322,-169.296 434.305,-159.103"/>
<polygon fill="midnightblue" stroke="midnightblue" points="483.223,-194.381 493.538,-196.797 486.981,-188.475 483.223,-194.381"/>
</g>
<!-- Node4&#45;&gt;Node2 -->
<g id="edge8" class="edge"><title>Node4&#45;&gt;Node2</title>
<path fill="none" stroke="midnightblue" d="M151.245,-92.803C137.28,-82.4348 122.206,-71.2442 108.774,-61.2718"/>
<polygon fill="midnightblue" stroke="midnightblue" points="149.203,-95.6463 159.319,-98.7971 153.376,-90.0259 149.203,-95.6463"/>
</g>
<!-- Node4&#45;&gt;Node5 -->
<g id="edge10" class="edge"><title>Node4&#45;&gt;Node5</title>
<path fill="none" stroke="midnightblue" d="M260.963,-93.6485C279.349,-82.9872 299.349,-71.3892 317.087,-61.1032"/>
<polygon fill="midnightblue" stroke="midnightblue" points="258.98,-90.7529 252.085,-98.7971 262.491,-96.8084 258.98,-90.7529"/>
</g>
<!-- Node6 -->
<g id="node12" class="node"><title>Node6</title>
<a xlink:href="../../dd/d54/moc__bes__fsm_8cpp.html" target="_top" xlink:title="/home/travis/build\l/LibrePCB/LibrePCB/libs\l/librepcbprojecteditor\l/moc/moc_bes_fsm.cpp">
<polygon fill="white" stroke="black" points="153.5,-1 153.5,-61 278.5,-61 278.5,-1 153.5,-1"/>
<text text-anchor="start" x="161.5" y="-48" font-family="Helvetica,sans-Serif" font-size="10.00">/home/travis/build</text>
<text text-anchor="start" x="161.5" y="-35" font-family="Helvetica,sans-Serif" font-size="10.00">/LibrePCB/LibrePCB/libs</text>
<text text-anchor="start" x="161.5" y="-22" font-family="Helvetica,sans-Serif" font-size="10.00">/librepcbprojecteditor</text>
<text text-anchor="middle" x="216" y="-9" font-family="Helvetica,sans-Serif" font-size="10.00">/moc/moc_bes_fsm.cpp</text>
</a>
</g>
<!-- Node4&#45;&gt;Node6 -->
<g id="edge12" class="edge"><title>Node4&#45;&gt;Node6</title>
<path fill="none" stroke="midnightblue" d="M206.58,-88.6956C208.077,-79.5273 209.643,-69.9394 211.058,-61.2718"/>
<polygon fill="midnightblue" stroke="midnightblue" points="203.088,-88.3638 204.931,-98.7971 209.997,-89.4918 203.088,-88.3638"/>
</g>
<!-- Node8&#45;&gt;Node5 -->
<g id="edge18" class="edge"><title>Node8&#45;&gt;Node5</title>
<path fill="none" stroke="midnightblue" d="M479.21,-93.7938C460.428,-83.0927 439.969,-71.436 421.834,-61.1032"/>
<polygon fill="midnightblue" stroke="midnightblue" points="477.57,-96.8876 487.991,-98.7971 481.035,-90.8055 477.57,-96.8876"/>
</g>
<!-- Node8&#45;&gt;Node9 -->
<g id="edge20" class="edge"><title>Node8&#45;&gt;Node9</title>
<path fill="none" stroke="midnightblue" d="M616.086,-94.7747C640.214,-83.7771 666.744,-71.684 690.157,-61.0124"/>
<polygon fill="midnightblue" stroke="midnightblue" points="614.616,-91.5984 606.968,-98.9308 617.519,-97.9679 614.616,-91.5984"/>
</g>
<!-- Node10 -->
<g id="node21" class="node"><title>Node10</title>
<a xlink:href="../../dd/df1/moc__bes__select_8cpp.html" target="_top" xlink:title="/home/travis/build\l/LibrePCB/LibrePCB/libs\l/librepcbprojecteditor\l/moc/moc_bes_select.cpp">
<polygon fill="white" stroke="black" points="475.5,-1 475.5,-61 606.5,-61 606.5,-1 475.5,-1"/>
<text text-anchor="start" x="483.5" y="-48" font-family="Helvetica,sans-Serif" font-size="10.00">/home/travis/build</text>
<text text-anchor="start" x="483.5" y="-35" font-family="Helvetica,sans-Serif" font-size="10.00">/LibrePCB/LibrePCB/libs</text>
<text text-anchor="start" x="483.5" y="-22" font-family="Helvetica,sans-Serif" font-size="10.00">/librepcbprojecteditor</text>
<text text-anchor="middle" x="541" y="-9" font-family="Helvetica,sans-Serif" font-size="10.00">/moc/moc_bes_select.cpp</text>
</a>
</g>
<!-- Node8&#45;&gt;Node10 -->
<g id="edge22" class="edge"><title>Node8&#45;&gt;Node10</title>
<path fill="none" stroke="midnightblue" d="M541,-88.6956C541,-79.5273 541,-69.9394 541,-61.2718"/>
<polygon fill="midnightblue" stroke="midnightblue" points="537.5,-88.7971 541,-98.7971 544.5,-88.7972 537.5,-88.7971"/>
</g>
</g>
</svg>
