<?xml version="1.0" encoding="UTF-8" standalone="no"?>
<!DOCTYPE svg PUBLIC "-//W3C//DTD SVG 1.1//EN"
 "http://www.w3.org/Graphics/SVG/1.1/DTD/svg11.dtd">
<!-- Generated by graphviz version 2.26.3 (20100126.1600)
 -->
<!-- Title: /home/travis/build/LibrePCB/LibrePCB/libs/librepcbprojecteditor/boardeditor/fsm/boardeditorevent.cpp Pages: 1 -->
<svg width="1922pt" height="258pt"
 viewBox="0.00 0.00 1921.52 258.00" xmlns="http://www.w3.org/2000/svg" xmlns:xlink="http://www.w3.org/1999/xlink">
<g id="graph1" class="graph" transform="scale(1 1) rotate(0) translate(4 254)">
<title>/home/travis/build/LibrePCB/LibrePCB/libs/librepcbprojecteditor/boardeditor/fsm/boardeditorevent.cpp</title>
<polygon fill="white" stroke="white" points="-4,5 -4,-254 1918.52,-254 1918.52,5 -4,5"/>
<!-- Node1 -->
<g id="node1" class="node"><title>Node1</title>
<polygon fill="#bfbfbf" stroke="black" points="27.0211,-189 27.0211,-249 208.021,-249 208.021,-189 27.0211,-189"/>
<text text-anchor="start" x="35.0211" y="-236" font-family="Helvetica,sans-Serif" font-size="10.00">/home/travis/build</text>
<text text-anchor="start" x="35.0211" y="-223" font-family="Helvetica,sans-Serif" font-size="10.00">/LibrePCB/LibrePCB/libs</text>
<text text-anchor="start" x="35.0211" y="-210" font-family="Helvetica,sans-Serif" font-size="10.00">/librepcbprojecteditor</text>
<text text-anchor="middle" x="117.521" y="-197" font-family="Helvetica,sans-Serif" font-size="10.00">/boardeditor/fsm/boardeditorevent.cpp</text>
</g>
<!-- Node2 -->
<g id="node3" class="node"><title>Node2</title>
<polygon fill="white" stroke="#bfbfbf" points="40.5211,-0.5 40.5211,-21.5 88.5211,-21.5 88.5211,-0.5 40.5211,-0.5"/>
<text text-anchor="middle" x="64.5211" y="-8.5" font-family="Helvetica,sans-Serif" font-size="10.00">QtCore</text>
</g>
<!-- Node1&#45;&gt;Node2 -->
<g id="edge2" class="edge"><title>Node1&#45;&gt;Node2</title>
<path fill="none" stroke="midnightblue" d="M44.3239,-188.924C29.6127,-179.366 16.0639,-167.206 7.52106,-152 -15.9191,-110.277 22.405,-56.9545 46.7842,-29.3724"/>
<polygon fill="midnightblue" stroke="midnightblue" points="49.653,-31.4218 53.8187,-21.6802 44.4873,-26.6978 49.653,-31.4218"/>
</g>
<!-- Node3 -->
<g id="node5" class="node"><title>Node3</title>
<a xlink:href="../../db/d67/boardeditorevent_8h.html" target="_top" xlink:title="boardeditorevent.h">
<polygon fill="white" stroke="black" points="16.0211,-130.5 16.0211,-151.5 113.021,-151.5 113.021,-130.5 16.0211,-130.5"/>
<text text-anchor="middle" x="64.5211" y="-138.5" font-family="Helvetica,sans-Serif" font-size="10.00">boardeditorevent.h</text>
</a>
</g>
<!-- Node1&#45;&gt;Node3 -->
<g id="edge4" class="edge"><title>Node1&#45;&gt;Node3</title>
<path fill="none" stroke="midnightblue" d="M96.8781,-188.62C90.3893,-179.07 83.4072,-168.795 77.5958,-160.242"/>
<polygon fill="midnightblue" stroke="midnightblue" points="80.3431,-158.058 71.8279,-151.753 74.5532,-161.992 80.3431,-158.058"/>
</g>
<!-- Node4 -->
<g id="node8" class="node"><title>Node4</title>
<a xlink:href="../../dd/dec/boardeditor_8h.html" target="_top" xlink:title="../boardeditor.h">
<polygon fill="white" stroke="black" points="130.521,-130.5 130.521,-151.5 212.521,-151.5 212.521,-130.5 130.521,-130.5"/>
<text text-anchor="middle" x="171.521" y="-138.5" font-family="Helvetica,sans-Serif" font-size="10.00">../boardeditor.h</text>
</a>
</g>
<!-- Node1&#45;&gt;Node4 -->
<g id="edge8" class="edge"><title>Node1&#45;&gt;Node4</title>
<path fill="none" stroke="midnightblue" d="M138.553,-188.62C145.165,-179.07 152.279,-168.795 158.2,-160.242"/>
<polygon fill="midnightblue" stroke="midnightblue" points="161.262,-161.968 164.076,-151.753 155.507,-157.983 161.262,-161.968"/>
</g>
<!-- Node7 -->
<g id="node16" class="node"><title>Node7</title>
<a xlink:href="../../d2/d0d/ui__boardeditor_8h.html" target="_top" xlink:title="ui_boardeditor.h">
<polygon fill="white" stroke="black" points="1035.52,-130.5 1035.52,-151.5 1121.52,-151.5 1121.52,-130.5 1035.52,-130.5"/>
<text text-anchor="middle" x="1078.52" y="-138.5" font-family="Helvetica,sans-Serif" font-size="10.00">ui_boardeditor.h</text>
</a>
</g>
<!-- Node1&#45;&gt;Node7 -->
<g id="edge18" class="edge"><title>Node1&#45;&gt;Node7</title>
<path fill="none" stroke="midnightblue" d="M208.362,-211.627C405.604,-195.618 867.95,-158.091 1025.13,-145.334"/>
<polygon fill="midnightblue" stroke="midnightblue" points="1025.79,-148.792 1035.47,-144.494 1025.22,-141.815 1025.79,-148.792"/>
</g>
<!-- Node3&#45;&gt;Node2 -->
<g id="edge6" class="edge"><title>Node3&#45;&gt;Node2</title>
<path fill="none" stroke="midnightblue" d="M64.5211,-130.362C64.5211,-108.936 64.5211,-60.2402 64.5211,-32.1143"/>
<polygon fill="midnightblue" stroke="midnightblue" points="68.0212,-31.7854 64.5211,-21.7854 61.0212,-31.7855 68.0212,-31.7854"/>
</g>
<!-- Node4&#45;&gt;Node2 -->
<g id="edge10" class="edge"><title>Node4&#45;&gt;Node2</title>
<path fill="none" stroke="midnightblue" d="M149.921,-130.346C135.019,-122.109 115.61,-109.506 102.521,-94 86.8706,-75.46 76.3488,-49.4113 70.4187,-31.4651"/>
<polygon fill="midnightblue" stroke="midnightblue" points="73.6979,-30.2235 67.3841,-21.7154 67.0141,-32.3038 73.6979,-30.2235"/>
</g>
<!-- Node5 -->
<g id="node11" class="node"><title>Node5</title>
<polygon fill="white" stroke="#bfbfbf" points="111.021,-65.5 111.021,-86.5 174.021,-86.5 174.021,-65.5 111.021,-65.5"/>
<text text-anchor="middle" x="142.521" y="-73.5" font-family="Helvetica,sans-Serif" font-size="10.00">QtWidgets</text>
</g>
<!-- Node4&#45;&gt;Node5 -->
<g id="edge12" class="edge"><title>Node4&#45;&gt;Node5</title>
<path fill="none" stroke="midnightblue" d="M166.732,-130.267C162.552,-120.896 156.377,-107.057 151.31,-95.7004"/>
<polygon fill="midnightblue" stroke="midnightblue" points="154.492,-94.24 147.221,-86.5337 148.099,-97.0921 154.492,-94.24"/>
</g>
<!-- Node6 -->
<g id="node13" class="node"><title>Node6</title>
<a xlink:href="../../df/df9/if__graphicsvieweventhandler_8h.html" target="_top" xlink:title="librepcbcommon/graphics\l/if_graphicsvieweventhandler.h">
<polygon fill="white" stroke="black" points="191.021,-59 191.021,-93 342.021,-93 342.021,-59 191.021,-59"/>
<text text-anchor="start" x="199.021" y="-80" font-family="Helvetica,sans-Serif" font-size="10.00">librepcbcommon/graphics</text>
<text text-anchor="middle" x="266.521" y="-67" font-family="Helvetica,sans-Serif" font-size="10.00">/if_graphicsvieweventhandler.h</text>
</a>
</g>
<!-- Node4&#45;&gt;Node6 -->
<g id="edge14" class="edge"><title>Node4&#45;&gt;Node6</title>
<path fill="none" stroke="midnightblue" d="M187.208,-130.267C199.659,-121.748 217.506,-109.537 233.119,-98.8541"/>
<polygon fill="midnightblue" stroke="midnightblue" points="235.238,-101.645 241.514,-93.1099 231.285,-95.8682 235.238,-101.645"/>
</g>
<!-- Node6&#45;&gt;Node2 -->
<g id="edge16" class="edge"><title>Node6&#45;&gt;Node2</title>
<path fill="none" stroke="midnightblue" d="M213.448,-58.922C176.953,-47.1785 129.589,-31.9377 98.1823,-21.8316"/>
<polygon fill="midnightblue" stroke="midnightblue" points="99.1715,-18.4732 88.58,-18.7417 97.0272,-25.1367 99.1715,-18.4732"/>
</g>
<!-- Node8 -->
<g id="node18" class="node"><title>Node8</title>
<polygon fill="white" stroke="#bfbfbf" points="359.021,-65.5 359.021,-86.5 448.021,-86.5 448.021,-65.5 359.021,-65.5"/>
<text text-anchor="middle" x="403.521" y="-73.5" font-family="Helvetica,sans-Serif" font-size="10.00">QtCore/QVariant</text>
</g>
<!-- Node7&#45;&gt;Node8 -->
<g id="edge20" class="edge"><title>Node7&#45;&gt;Node8</title>
<path fill="none" stroke="midnightblue" d="M1035.41,-139.157C913.459,-133.721 567.666,-116.693 456.521,-94 451.106,-92.8943 445.481,-91.3915 440.007,-89.7226"/>
<polygon fill="midnightblue" stroke="midnightblue" points="440.986,-86.3606 430.393,-86.589 438.816,-93.0159 440.986,-86.3606"/>
</g>
<!-- Node9 -->
<g id="node20" class="node"><title>Node9</title>
<polygon fill="white" stroke="#bfbfbf" points="465.021,-65.5 465.021,-86.5 566.021,-86.5 566.021,-65.5 465.021,-65.5"/>
<text text-anchor="middle" x="515.521" y="-73.5" font-family="Helvetica,sans-Serif" font-size="10.00">QtWidgets/QAction</text>
</g>
<!-- Node7&#45;&gt;Node9 -->
<g id="edge22" class="edge"><title>Node7&#45;&gt;Node9</title>
<path fill="none" stroke="midnightblue" d="M1035.29,-139.92C947.599,-137.084 742.869,-127.172 574.521,-94 568.315,-92.7772 561.833,-91.1605 555.531,-89.3968"/>
<polygon fill="midnightblue" stroke="midnightblue" points="556.425,-86.0115 545.843,-86.5397 554.445,-92.7256 556.425,-86.0115"/>
</g>
<!-- Node10 -->
<g id="node22" class="node"><title>Node10</title>
<polygon fill="white" stroke="#bfbfbf" points="583.521,-65.5 583.521,-86.5 705.521,-86.5 705.521,-65.5 583.521,-65.5"/>
<text text-anchor="middle" x="644.521" y="-73.5" font-family="Helvetica,sans-Serif" font-size="10.00">QtWidgets/QApplication</text>
</g>
<!-- Node7&#45;&gt;Node10 -->
<g id="edge24" class="edge"><title>Node7&#45;&gt;Node10</title>
<path fill="none" stroke="midnightblue" d="M1035.38,-137.167C966.952,-130.699 829.497,-116.118 714.521,-94 707.153,-92.5825 699.407,-90.8452 691.863,-89.0147"/>
<polygon fill="midnightblue" stroke="midnightblue" points="692.661,-85.6064 682.11,-86.5738 690.961,-92.397 692.661,-85.6064"/>
</g>
<!-- Node11 -->
<g id="node24" class="node"><title>Node11</title>
<polygon fill="white" stroke="#bfbfbf" points="723.521,-65.5 723.521,-86.5 851.521,-86.5 851.521,-65.5 723.521,-65.5"/>
<text text-anchor="middle" x="787.521" y="-73.5" font-family="Helvetica,sans-Serif" font-size="10.00">QtWidgets/QButtonGroup</text>
</g>
<!-- Node7&#45;&gt;Node11 -->
<g id="edge26" class="edge"><title>Node7&#45;&gt;Node11</title>
<path fill="none" stroke="midnightblue" d="M1035.42,-132.098C991.383,-122.911 921.067,-107.988 860.521,-94 853.77,-92.4404 846.681,-90.7537 839.683,-89.0597"/>
<polygon fill="midnightblue" stroke="midnightblue" points="840.092,-85.5567 829.547,-86.5865 838.432,-92.3572 840.092,-85.5567"/>
</g>
<!-- Node12 -->
<g id="node26" class="node"><title>Node12</title>
<polygon fill="white" stroke="#bfbfbf" points="869.021,-65.5 869.021,-86.5 996.021,-86.5 996.021,-65.5 869.021,-65.5"/>
<text text-anchor="middle" x="932.521" y="-73.5" font-family="Helvetica,sans-Serif" font-size="10.00">QtWidgets/QHeaderView</text>
</g>
<!-- Node7&#45;&gt;Node12 -->
<g id="edge28" class="edge"><title>Node7&#45;&gt;Node12</title>
<path fill="none" stroke="midnightblue" d="M1054.74,-130.412C1030.56,-119.647 992.893,-102.878 965.766,-90.8009"/>
<polygon fill="midnightblue" stroke="midnightblue" points="966.852,-87.4533 956.293,-86.5835 964.005,-93.8482 966.852,-87.4533"/>
</g>
<!-- Node13 -->
<g id="node28" class="node"><title>Node13</title>
<polygon fill="white" stroke="#bfbfbf" points="1013.52,-65.5 1013.52,-86.5 1143.52,-86.5 1143.52,-65.5 1013.52,-65.5"/>
<text text-anchor="middle" x="1078.52" y="-73.5" font-family="Helvetica,sans-Serif" font-size="10.00">QtWidgets/QMainWindow</text>
</g>
<!-- Node7&#45;&gt;Node13 -->
<g id="edge30" class="edge"><title>Node7&#45;&gt;Node13</title>
<path fill="none" stroke="midnightblue" d="M1078.52,-130.267C1078.52,-121.18 1078.52,-107.892 1078.52,-96.7395"/>
<polygon fill="midnightblue" stroke="midnightblue" points="1082.02,-96.5337 1078.52,-86.5337 1075.02,-96.5337 1082.02,-96.5337"/>
</g>
<!-- Node14 -->
<g id="node30" class="node"><title>Node14</title>
<polygon fill="white" stroke="#bfbfbf" points="1161.52,-65.5 1161.52,-86.5 1259.52,-86.5 1259.52,-65.5 1161.52,-65.5"/>
<text text-anchor="middle" x="1210.52" y="-73.5" font-family="Helvetica,sans-Serif" font-size="10.00">QtWidgets/QMenu</text>
</g>
<!-- Node7&#45;&gt;Node14 -->
<g id="edge32" class="edge"><title>Node7&#45;&gt;Node14</title>
<path fill="none" stroke="midnightblue" d="M1100.02,-130.412C1121.69,-119.741 1155.34,-103.172 1179.82,-91.1198"/>
<polygon fill="midnightblue" stroke="midnightblue" points="1181.6,-94.1412 1189.03,-86.5835 1178.51,-87.8613 1181.6,-94.1412"/>
</g>
<!-- Node15 -->
<g id="node32" class="node"><title>Node15</title>
<polygon fill="white" stroke="#bfbfbf" points="1277.02,-65.5 1277.02,-86.5 1390.02,-86.5 1390.02,-65.5 1277.02,-65.5"/>
<text text-anchor="middle" x="1333.52" y="-73.5" font-family="Helvetica,sans-Serif" font-size="10.00">QtWidgets/QMenuBar</text>
</g>
<!-- Node7&#45;&gt;Node15 -->
<g id="edge34" class="edge"><title>Node7&#45;&gt;Node15</title>
<path fill="none" stroke="midnightblue" d="M1121.62,-130.698C1160.19,-121.395 1218.23,-107.181 1268.52,-94 1274.25,-92.4976 1280.26,-90.8857 1286.21,-89.2664"/>
<polygon fill="midnightblue" stroke="midnightblue" points="1287.39,-92.5727 1296.1,-86.5521 1285.53,-85.822 1287.39,-92.5727"/>
</g>
<!-- Node16 -->
<g id="node34" class="node"><title>Node16</title>
<polygon fill="white" stroke="#bfbfbf" points="1407.02,-65.5 1407.02,-86.5 1524.02,-86.5 1524.02,-65.5 1407.02,-65.5"/>
<text text-anchor="middle" x="1465.52" y="-73.5" font-family="Helvetica,sans-Serif" font-size="10.00">QtWidgets/QStatusBar</text>
</g>
<!-- Node7&#45;&gt;Node16 -->
<g id="edge36" class="edge"><title>Node7&#45;&gt;Node16</title>
<path fill="none" stroke="midnightblue" d="M1121.76,-136.272C1183.52,-129.153 1300.37,-114.32 1398.52,-94 1405.26,-92.6055 1412.32,-90.9374 1419.23,-89.1872"/>
<polygon fill="midnightblue" stroke="midnightblue" points="1420.4,-92.4992 1429.19,-86.5864 1418.63,-85.7262 1420.4,-92.4992"/>
</g>
<!-- Node17 -->
<g id="node36" class="node"><title>Node17</title>
<polygon fill="white" stroke="#bfbfbf" points="1541.02,-65.5 1541.02,-86.5 1648.02,-86.5 1648.02,-65.5 1541.02,-65.5"/>
<text text-anchor="middle" x="1594.52" y="-73.5" font-family="Helvetica,sans-Serif" font-size="10.00">QtWidgets/QToolBar</text>
</g>
<!-- Node7&#45;&gt;Node17 -->
<g id="edge38" class="edge"><title>Node7&#45;&gt;Node17</title>
<path fill="none" stroke="midnightblue" d="M1121.78,-139.108C1202.96,-134.987 1383.39,-123.122 1532.52,-94 1538.95,-92.7453 1545.67,-91.1262 1552.21,-89.3742"/>
<polygon fill="midnightblue" stroke="midnightblue" points="1553.61,-92.6178 1562.29,-86.5451 1551.72,-85.8784 1553.61,-92.6178"/>
</g>
<!-- Node18 -->
<g id="node38" class="node"><title>Node18</title>
<polygon fill="white" stroke="#bfbfbf" points="1665.02,-65.5 1665.02,-86.5 1792.02,-86.5 1792.02,-65.5 1665.02,-65.5"/>
<text text-anchor="middle" x="1728.52" y="-73.5" font-family="Helvetica,sans-Serif" font-size="10.00">QtWidgets/QVBoxLayout</text>
</g>
<!-- Node7&#45;&gt;Node18 -->
<g id="edge40" class="edge"><title>Node7&#45;&gt;Node18</title>
<path fill="none" stroke="midnightblue" d="M1121.6,-139.907C1218.02,-136.936 1458.33,-126.606 1656.52,-94 1664.66,-92.6617 1673.22,-90.8679 1681.5,-88.9299"/>
<polygon fill="midnightblue" stroke="midnightblue" points="1682.51,-92.2856 1691.39,-86.5155 1680.85,-85.485 1682.51,-92.2856"/>
</g>
<!-- Node19 -->
<g id="node40" class="node"><title>Node19</title>
<polygon fill="white" stroke="#bfbfbf" points="1809.52,-65.5 1809.52,-86.5 1913.52,-86.5 1913.52,-65.5 1809.52,-65.5"/>
<text text-anchor="middle" x="1861.52" y="-73.5" font-family="Helvetica,sans-Serif" font-size="10.00">QtWidgets/QWidget</text>
</g>
<!-- Node7&#45;&gt;Node19 -->
<g id="edge42" class="edge"><title>Node7&#45;&gt;Node19</title>
<path fill="none" stroke="midnightblue" d="M1121.64,-139.45C1256.45,-134.405 1668.81,-117.42 1800.52,-94 1807.24,-92.8052 1814.27,-91.1379 1821.07,-89.296"/>
<polygon fill="midnightblue" stroke="midnightblue" points="1822.16,-92.6259 1830.81,-86.5072 1820.23,-85.8966 1822.16,-92.6259"/>
</g>
</g>
</svg>
