<?xml version="1.0" encoding="UTF-8" standalone="no"?>
<!DOCTYPE svg PUBLIC "-//W3C//DTD SVG 1.1//EN"
 "http://www.w3.org/Graphics/SVG/1.1/DTD/svg11.dtd">
<!-- Generated by graphviz version 2.26.3 (20100126.1600)
 -->
<!-- Title: appendTextChild Pages: 1 -->
<svg width="638pt" height="364pt"
 viewBox="0.00 0.00 638.00 363.96" xmlns="http://www.w3.org/2000/svg" xmlns:xlink="http://www.w3.org/1999/xlink">
<g id="graph1" class="graph" transform="scale(1 1) rotate(0) translate(4 359.957)">
<title>appendTextChild</title>
<polygon fill="white" stroke="white" points="-4,5 -4,-359.957 635,-359.957 635,5 -4,5"/>
<!-- Node1 -->
<g id="node1" class="node"><title>Node1</title>
<polygon fill="#bfbfbf" stroke="black" points="0,-162.5 0,-183.5 90,-183.5 90,-162.5 0,-162.5"/>
<text text-anchor="middle" x="45" y="-170.5" font-family="Helvetica,sans-Serif" font-size="10.00">appendTextChild</text>
</g>
<!-- Node2 -->
<g id="node3" class="node"><title>Node2</title>
<a xlink:href="../../d7/d7c/classlibrary_1_1_generic_component.html#aeb87054a7c12b9ccee59af89a9abf24f" target="_top" xlink:title="Serialize the object to a XML DOM element. ">
<polygon fill="white" stroke="black" points="486,-321 486,-355 630,-355 630,-321 486,-321"/>
<text text-anchor="start" x="494" y="-342" font-family="Helvetica,sans-Serif" font-size="10.00">library::GenericComponent</text>
<text text-anchor="middle" x="558" y="-329" font-family="Helvetica,sans-Serif" font-size="10.00">::serializeToXmlDomElement</text>
</a>
</g>
<!-- Node1&#45;&gt;Node2 -->
<g id="edge2" class="edge"><title>Node1&#45;&gt;Node2</title>
<path fill="none" stroke="midnightblue" d="M53.7409,-193.067C66.0876,-219.065 91.0869,-264.01 126,-289 232.645,-365.333 393.528,-360.622 485.899,-349.715"/>
<polygon fill="midnightblue" stroke="midnightblue" points="56.8456,-191.44 49.4993,-183.806 50.4814,-194.355 56.8456,-191.44"/>
</g>
<!-- Node3 -->
<g id="node5" class="node"><title>Node3</title>
<a xlink:href="../../dd/d8a/classlibrary_1_1_library_base_element.html#aeb87054a7c12b9ccee59af89a9abf24f" target="_top" xlink:title="Serialize the object to a XML DOM element. ">
<polygon fill="white" stroke="black" points="126,-246 126,-280 270,-280 270,-246 126,-246"/>
<text text-anchor="start" x="134" y="-267" font-family="Helvetica,sans-Serif" font-size="10.00">library::LibraryBaseElement</text>
<text text-anchor="middle" x="198" y="-254" font-family="Helvetica,sans-Serif" font-size="10.00">::serializeToXmlDomElement</text>
</a>
</g>
<!-- Node1&#45;&gt;Node3 -->
<g id="edge4" class="edge"><title>Node1&#45;&gt;Node3</title>
<path fill="none" stroke="midnightblue" d="M65.6342,-190.022C81.5055,-202.611 104.32,-219.643 126,-232 134.75,-236.987 144.457,-241.681 153.837,-245.835"/>
<polygon fill="midnightblue" stroke="midnightblue" points="67.5676,-187.085 57.5824,-183.543 63.1793,-192.539 67.5676,-187.085"/>
</g>
<!-- Node6 -->
<g id="node11" class="node"><title>Node6</title>
<a xlink:href="../../d8/dff/classlibrary_1_1_library_element.html#aeb87054a7c12b9ccee59af89a9abf24f" target="_top" xlink:title="Serialize the object to a XML DOM element. ">
<polygon fill="white" stroke="black" points="306,-194 306,-228 450,-228 450,-194 306,-194"/>
<text text-anchor="start" x="314" y="-215" font-family="Helvetica,sans-Serif" font-size="10.00">library::LibraryElement</text>
<text text-anchor="middle" x="378" y="-202" font-family="Helvetica,sans-Serif" font-size="10.00">::serializeToXmlDomElement</text>
</a>
</g>
<!-- Node1&#45;&gt;Node6 -->
<g id="edge22" class="edge"><title>Node1&#45;&gt;Node6</title>
<path fill="none" stroke="midnightblue" d="M81.4983,-186.966C95.2456,-191.626 111.148,-196.311 126,-199 185.908,-209.845 255.053,-212.451 305.742,-212.567"/>
<polygon fill="midnightblue" stroke="midnightblue" points="82.5096,-183.612 71.9148,-183.607 80.194,-190.218 82.5096,-183.612"/>
</g>
<!-- Node11 -->
<g id="node23" class="node"><title>Node11</title>
<a xlink:href="../../d5/d07/classproject_1_1_board.html#aeb87054a7c12b9ccee59af89a9abf24f" target="_top" xlink:title="Serialize the object to a XML DOM element. ">
<polygon fill="white" stroke="black" points="138.5,-156 138.5,-190 257.5,-190 257.5,-156 138.5,-156"/>
<text text-anchor="start" x="146.5" y="-177" font-family="Helvetica,sans-Serif" font-size="10.00">project::Board::serialize</text>
<text text-anchor="middle" x="198" y="-164" font-family="Helvetica,sans-Serif" font-size="10.00">ToXmlDomElement</text>
</a>
</g>
<!-- Node1&#45;&gt;Node11 -->
<g id="edge24" class="edge"><title>Node1&#45;&gt;Node11</title>
<path fill="none" stroke="midnightblue" d="M100.281,-173C112.693,-173 125.914,-173 138.49,-173"/>
<polygon fill="midnightblue" stroke="midnightblue" points="100.078,-169.5 90.0775,-173 100.077,-176.5 100.078,-169.5"/>
</g>
<!-- Node12 -->
<g id="node25" class="node"><title>Node12</title>
<a xlink:href="../../d2/d05/classproject_1_1_project.html#a448e53b465f12e54d5ccbe0b6fbf14b3" target="_top" xlink:title="Serialize the object to a XML DOM element. ">
<polygon fill="white" stroke="black" points="135.5,-104 135.5,-138 260.5,-138 260.5,-104 135.5,-104"/>
<text text-anchor="start" x="143.5" y="-125" font-family="Helvetica,sans-Serif" font-size="10.00">project::Project::serialize</text>
<text text-anchor="middle" x="198" y="-112" font-family="Helvetica,sans-Serif" font-size="10.00">ToXmlDomElement</text>
</a>
</g>
<!-- Node1&#45;&gt;Node12 -->
<g id="edge26" class="edge"><title>Node1&#45;&gt;Node12</title>
<path fill="none" stroke="midnightblue" d="M85.5614,-159.214C104.66,-152.723 127.626,-144.918 147.809,-138.058"/>
<polygon fill="midnightblue" stroke="midnightblue" points="84.3036,-155.945 75.9618,-162.477 86.5562,-162.573 84.3036,-155.945"/>
</g>
<!-- Node13 -->
<g id="node27" class="node"><title>Node13</title>
<a xlink:href="../../dd/d2d/classproject_1_1_schematic.html#aeb87054a7c12b9ccee59af89a9abf24f" target="_top" xlink:title="Serialize the object to a XML DOM element. ">
<polygon fill="white" stroke="black" points="126,-52 126,-86 270,-86 270,-52 126,-52"/>
<text text-anchor="start" x="134" y="-73" font-family="Helvetica,sans-Serif" font-size="10.00">project::Schematic</text>
<text text-anchor="middle" x="198" y="-60" font-family="Helvetica,sans-Serif" font-size="10.00">::serializeToXmlDomElement</text>
</a>
</g>
<!-- Node1&#45;&gt;Node13 -->
<g id="edge28" class="edge"><title>Node1&#45;&gt;Node13</title>
<path fill="none" stroke="midnightblue" d="M59.9722,-154.665C75.0541,-137.228 99.7885,-111.307 126,-95 131.304,-91.7004 137.087,-88.736 142.995,-86.0949"/>
<polygon fill="midnightblue" stroke="midnightblue" points="57.1624,-152.567 53.3797,-162.464 62.5083,-157.086 57.1624,-152.567"/>
</g>
<!-- Node14 -->
<g id="node29" class="node"><title>Node14</title>
<a xlink:href="../../d7/d04/classproject_1_1_project_settings.html#aeb87054a7c12b9ccee59af89a9abf24f" target="_top" xlink:title="Serialize the object to a XML DOM element. ">
<polygon fill="white" stroke="black" points="126,-0 126,-34 270,-34 270,-0 126,-0"/>
<text text-anchor="start" x="134" y="-21" font-family="Helvetica,sans-Serif" font-size="10.00">project::ProjectSettings</text>
<text text-anchor="middle" x="198" y="-8" font-family="Helvetica,sans-Serif" font-size="10.00">::serializeToXmlDomElement</text>
</a>
</g>
<!-- Node1&#45;&gt;Node14 -->
<g id="edge30" class="edge"><title>Node1&#45;&gt;Node14</title>
<path fill="none" stroke="midnightblue" d="M52.5278,-152.923C64.1301,-124.573 88.9864,-72.9352 126,-43 130.133,-39.6571 134.733,-36.7241 139.552,-34.1544"/>
<polygon fill="midnightblue" stroke="midnightblue" points="49.2699,-151.644 48.855,-162.231 55.7813,-154.214 49.2699,-151.644"/>
</g>
<!-- Node4 -->
<g id="node7" class="node"><title>Node4</title>
<a xlink:href="../../d3/d60/classlibrary_1_1_library_category.html#aeb87054a7c12b9ccee59af89a9abf24f" target="_top" xlink:title="Serialize the object to a XML DOM element. ">
<polygon fill="white" stroke="black" points="306,-298 306,-332 450,-332 450,-298 306,-298"/>
<text text-anchor="start" x="314" y="-319" font-family="Helvetica,sans-Serif" font-size="10.00">library::LibraryCategory</text>
<text text-anchor="middle" x="378" y="-306" font-family="Helvetica,sans-Serif" font-size="10.00">::serializeToXmlDomElement</text>
</a>
</g>
<!-- Node3&#45;&gt;Node4 -->
<g id="edge6" class="edge"><title>Node3&#45;&gt;Node4</title>
<path fill="none" stroke="midnightblue" d="M266.895,-282.903C284.052,-287.859 302.293,-293.129 318.929,-297.935"/>
<polygon fill="midnightblue" stroke="midnightblue" points="267.517,-279.44 256.939,-280.027 265.574,-286.165 267.517,-279.44"/>
</g>
<!-- Node5 -->
<g id="node9" class="node"><title>Node5</title>
<a xlink:href="../../dd/d8a/classlibrary_1_1_library_base_element.html#a34aae6df4e44ac910795cdd62c3c69ff" target="_top" xlink:title="library::LibraryBaseElement\l::save">
<polygon fill="white" stroke="black" points="309.5,-246 309.5,-280 446.5,-280 446.5,-246 309.5,-246"/>
<text text-anchor="start" x="317.5" y="-267" font-family="Helvetica,sans-Serif" font-size="10.00">library::LibraryBaseElement</text>
<text text-anchor="middle" x="378" y="-254" font-family="Helvetica,sans-Serif" font-size="10.00">::save</text>
</a>
</g>
<!-- Node3&#45;&gt;Node5 -->
<g id="edge8" class="edge"><title>Node3&#45;&gt;Node5</title>
<path fill="none" stroke="midnightblue" d="M280.244,-263C289.966,-263 299.809,-263 309.316,-263"/>
<polygon fill="midnightblue" stroke="midnightblue" points="280.176,-259.5 270.176,-263 280.176,-266.5 280.176,-259.5"/>
</g>
<!-- Node3&#45;&gt;Node6 -->
<g id="edge10" class="edge"><title>Node3&#45;&gt;Node6</title>
<path fill="none" stroke="midnightblue" d="M266.895,-243.097C284.052,-238.141 302.293,-232.871 318.929,-228.065"/>
<polygon fill="midnightblue" stroke="midnightblue" points="265.574,-239.835 256.939,-245.973 267.517,-246.56 265.574,-239.835"/>
</g>
<!-- Node6&#45;&gt;Node2 -->
<g id="edge16" class="edge"><title>Node6&#45;&gt;Node2</title>
<path fill="none" stroke="midnightblue" d="M445.765,-233.692C447.225,-234.747 448.64,-235.849 450,-237 474.909,-258.086 462.492,-278.362 486,-301 494.2,-308.896 504.419,-315.5 514.558,-320.838"/>
<polygon fill="midnightblue" stroke="midnightblue" points="447.296,-230.521 436.969,-228.155 443.567,-236.444 447.296,-230.521"/>
</g>
<!-- Node7 -->
<g id="node13" class="node"><title>Node7</title>
<a xlink:href="../../d3/dad/classlibrary_1_1_component.html#aeb87054a7c12b9ccee59af89a9abf24f" target="_top" xlink:title="Serialize the object to a XML DOM element. ">
<polygon fill="white" stroke="black" points="486,-258 486,-292 630,-292 630,-258 486,-258"/>
<text text-anchor="start" x="494" y="-279" font-family="Helvetica,sans-Serif" font-size="10.00">library::Component</text>
<text text-anchor="middle" x="558" y="-266" font-family="Helvetica,sans-Serif" font-size="10.00">::serializeToXmlDomElement</text>
</a>
</g>
<!-- Node6&#45;&gt;Node7 -->
<g id="edge12" class="edge"><title>Node6&#45;&gt;Node7</title>
<path fill="none" stroke="midnightblue" d="M435.897,-231.586C459.799,-240.084 487.177,-249.818 509.943,-257.913"/>
<polygon fill="midnightblue" stroke="midnightblue" points="436.831,-228.203 426.237,-228.151 434.486,-234.799 436.831,-228.203"/>
</g>
<!-- Node8 -->
<g id="node15" class="node"><title>Node8</title>
<a xlink:href="../../d8/dea/classlibrary_1_1_footprint.html#aeb87054a7c12b9ccee59af89a9abf24f" target="_top" xlink:title="Serialize the object to a XML DOM element. ">
<polygon fill="white" stroke="black" points="486,-206 486,-240 630,-240 630,-206 486,-206"/>
<text text-anchor="start" x="494" y="-227" font-family="Helvetica,sans-Serif" font-size="10.00">library::Footprint</text>
<text text-anchor="middle" x="558" y="-214" font-family="Helvetica,sans-Serif" font-size="10.00">::serializeToXmlDomElement</text>
</a>
</g>
<!-- Node6&#45;&gt;Node8 -->
<g id="edge14" class="edge"><title>Node6&#45;&gt;Node8</title>
<path fill="none" stroke="midnightblue" d="M460.16,-216.477C468.718,-217.048 477.372,-217.625 485.808,-218.187"/>
<polygon fill="midnightblue" stroke="midnightblue" points="460.386,-212.985 450.176,-215.812 459.921,-219.969 460.386,-212.985"/>
</g>
<!-- Node9 -->
<g id="node18" class="node"><title>Node9</title>
<a xlink:href="../../d1/dcf/classlibrary_1_1_package.html#aeb87054a7c12b9ccee59af89a9abf24f" target="_top" xlink:title="Serialize the object to a XML DOM element. ">
<polygon fill="white" stroke="black" points="493.5,-154 493.5,-188 622.5,-188 622.5,-154 493.5,-154"/>
<text text-anchor="start" x="501.5" y="-175" font-family="Helvetica,sans-Serif" font-size="10.00">library::Package::serialize</text>
<text text-anchor="middle" x="558" y="-162" font-family="Helvetica,sans-Serif" font-size="10.00">ToXmlDomElement</text>
</a>
</g>
<!-- Node6&#45;&gt;Node9 -->
<g id="edge18" class="edge"><title>Node6&#45;&gt;Node9</title>
<path fill="none" stroke="midnightblue" d="M459.96,-192.787C471.163,-190.297 482.533,-187.77 493.369,-185.362"/>
<polygon fill="midnightblue" stroke="midnightblue" points="459.178,-189.375 450.176,-194.961 460.697,-196.208 459.178,-189.375"/>
</g>
<!-- Node10 -->
<g id="node20" class="node"><title>Node10</title>
<a xlink:href="../../d9/db9/classlibrary_1_1_symbol.html#aeb87054a7c12b9ccee59af89a9abf24f" target="_top" xlink:title="Serialize the object to a XML DOM element. ">
<polygon fill="white" stroke="black" points="496,-102 496,-136 620,-136 620,-102 496,-102"/>
<text text-anchor="start" x="504" y="-123" font-family="Helvetica,sans-Serif" font-size="10.00">library::Symbol::serialize</text>
<text text-anchor="middle" x="558" y="-110" font-family="Helvetica,sans-Serif" font-size="10.00">ToXmlDomElement</text>
</a>
</g>
<!-- Node6&#45;&gt;Node10 -->
<g id="edge20" class="edge"><title>Node6&#45;&gt;Node10</title>
<path fill="none" stroke="midnightblue" d="M411.421,-188.148C432.271,-174.513 460,-157.481 486,-145 492.59,-141.837 499.671,-138.833 506.729,-136.065"/>
<polygon fill="midnightblue" stroke="midnightblue" points="409.343,-185.326 402.932,-193.761 413.204,-191.165 409.343,-185.326"/>
</g>
</g>
</svg>
