<?xml version="1.0" encoding="UTF-8" standalone="no"?>
<!DOCTYPE svg PUBLIC "-//W3C//DTD SVG 1.1//EN"
 "http://www.w3.org/Graphics/SVG/1.1/DTD/svg11.dtd">
<!-- Generated by graphviz version 2.26.3 (20100126.1600)
 -->
<!-- Title: /home/travis/build/LibrePCB/LibrePCB/libs/librepcbproject/boards/items/bi_base.h Pages: 1 -->
<svg width="1096pt" height="266pt"
 viewBox="0.00 0.00 1096.00 266.00" xmlns="http://www.w3.org/2000/svg" xmlns:xlink="http://www.w3.org/1999/xlink">
<g id="graph1" class="graph" transform="scale(1 1) rotate(0) translate(4 262)">
<title>/home/travis/build/LibrePCB/LibrePCB/libs/librepcbproject/boards/items/bi_base.h</title>
<polygon fill="white" stroke="white" points="-4,5 -4,-262 1093,-262 1093,5 -4,5"/>
<!-- Node1 -->
<g id="node1" class="node"><title>Node1</title>
<polygon fill="#bfbfbf" stroke="black" points="457.5,-197 457.5,-257 582.5,-257 582.5,-197 457.5,-197"/>
<text text-anchor="start" x="465.5" y="-244" font-family="Helvetica,sans-Serif" font-size="10.00">/home/travis/build</text>
<text text-anchor="start" x="465.5" y="-231" font-family="Helvetica,sans-Serif" font-size="10.00">/LibrePCB/LibrePCB/libs</text>
<text text-anchor="start" x="465.5" y="-218" font-family="Helvetica,sans-Serif" font-size="10.00">/librepcbproject/boards</text>
<text text-anchor="middle" x="520" y="-205" font-family="Helvetica,sans-Serif" font-size="10.00">/items/bi_base.h</text>
</g>
<!-- Node2 -->
<g id="node3" class="node"><title>Node2</title>
<a xlink:href="../../d7/dce/bi__footprint_8h.html" target="_top" xlink:title="/home/travis/build\l/LibrePCB/LibrePCB/libs\l/librepcbproject/boards\l/items/bi_footprint.h">
<polygon fill="white" stroke="black" points="457.5,-99 457.5,-159 582.5,-159 582.5,-99 457.5,-99"/>
<text text-anchor="start" x="465.5" y="-146" font-family="Helvetica,sans-Serif" font-size="10.00">/home/travis/build</text>
<text text-anchor="start" x="465.5" y="-133" font-family="Helvetica,sans-Serif" font-size="10.00">/LibrePCB/LibrePCB/libs</text>
<text text-anchor="start" x="465.5" y="-120" font-family="Helvetica,sans-Serif" font-size="10.00">/librepcbproject/boards</text>
<text text-anchor="middle" x="520" y="-107" font-family="Helvetica,sans-Serif" font-size="10.00">/items/bi_footprint.h</text>
</a>
</g>
<!-- Node1&#45;&gt;Node2 -->
<g id="edge2" class="edge"><title>Node1&#45;&gt;Node2</title>
<path fill="none" stroke="midnightblue" d="M520,-186.696C520,-177.527 520,-167.939 520,-159.272"/>
<polygon fill="midnightblue" stroke="midnightblue" points="516.5,-186.797 520,-196.797 523.5,-186.797 516.5,-186.797"/>
</g>
<!-- Node10 -->
<g id="node19" class="node"><title>Node10</title>
<a xlink:href="../../d7/d4c/bi__footprintpad_8h.html" target="_top" xlink:title="/home/travis/build\l/LibrePCB/LibrePCB/libs\l/librepcbproject/boards\l/items/bi_footprintpad.h">
<polygon fill="white" stroke="black" points="311.5,-99 311.5,-159 436.5,-159 436.5,-99 311.5,-99"/>
<text text-anchor="start" x="319.5" y="-146" font-family="Helvetica,sans-Serif" font-size="10.00">/home/travis/build</text>
<text text-anchor="start" x="319.5" y="-133" font-family="Helvetica,sans-Serif" font-size="10.00">/LibrePCB/LibrePCB/libs</text>
<text text-anchor="start" x="319.5" y="-120" font-family="Helvetica,sans-Serif" font-size="10.00">/librepcbproject/boards</text>
<text text-anchor="middle" x="374" y="-107" font-family="Helvetica,sans-Serif" font-size="10.00">/items/bi_footprintpad.h</text>
</a>
</g>
<!-- Node1&#45;&gt;Node10 -->
<g id="edge18" class="edge"><title>Node1&#45;&gt;Node10</title>
<path fill="none" stroke="midnightblue" d="M466.466,-191.066C450.823,-180.566 433.893,-169.202 418.848,-159.103"/>
<polygon fill="midnightblue" stroke="midnightblue" points="464.75,-194.13 475.004,-196.797 468.652,-188.318 464.75,-194.13"/>
</g>
<!-- Node11 -->
<g id="node26" class="node"><title>Node11</title>
<a xlink:href="../../d1/d97/bi__base_8cpp.html" target="_top" xlink:title="/home/travis/build\l/LibrePCB/LibrePCB/libs\l/librepcbproject/boards\l/items/bi_base.cpp">
<polygon fill="white" stroke="black" points="599.5,-99 599.5,-159 724.5,-159 724.5,-99 599.5,-99"/>
<text text-anchor="start" x="607.5" y="-146" font-family="Helvetica,sans-Serif" font-size="10.00">/home/travis/build</text>
<text text-anchor="start" x="607.5" y="-133" font-family="Helvetica,sans-Serif" font-size="10.00">/LibrePCB/LibrePCB/libs</text>
<text text-anchor="start" x="607.5" y="-120" font-family="Helvetica,sans-Serif" font-size="10.00">/librepcbproject/boards</text>
<text text-anchor="middle" x="662" y="-107" font-family="Helvetica,sans-Serif" font-size="10.00">/items/bi_base.cpp</text>
</a>
</g>
<!-- Node1&#45;&gt;Node11 -->
<g id="edge30" class="edge"><title>Node1&#45;&gt;Node11</title>
<path fill="none" stroke="midnightblue" d="M572.028,-191.093C587.169,-180.644 603.552,-169.337 618.137,-159.272"/>
<polygon fill="midnightblue" stroke="midnightblue" points="570.006,-188.236 563.763,-196.797 573.982,-193.998 570.006,-188.236"/>
</g>
<!-- Node3 -->
<g id="node5" class="node"><title>Node3</title>
<a xlink:href="../../df/d6e/board_8cpp.html" target="_top" xlink:title="/home/travis/build\l/LibrePCB/LibrePCB/libs\l/librepcbproject/boards\l/board.cpp">
<polygon fill="white" stroke="black" points="461.5,-1 461.5,-61 586.5,-61 586.5,-1 461.5,-1"/>
<text text-anchor="start" x="469.5" y="-48" font-family="Helvetica,sans-Serif" font-size="10.00">/home/travis/build</text>
<text text-anchor="start" x="469.5" y="-35" font-family="Helvetica,sans-Serif" font-size="10.00">/LibrePCB/LibrePCB/libs</text>
<text text-anchor="start" x="469.5" y="-22" font-family="Helvetica,sans-Serif" font-size="10.00">/librepcbproject/boards</text>
<text text-anchor="middle" x="524" y="-9" font-family="Helvetica,sans-Serif" font-size="10.00">/board.cpp</text>
</a>
</g>
<!-- Node2&#45;&gt;Node3 -->
<g id="edge4" class="edge"><title>Node2&#45;&gt;Node3</title>
<path fill="none" stroke="midnightblue" d="M521.645,-88.6956C522.019,-79.5273 522.411,-69.9394 522.764,-61.2718"/>
<polygon fill="midnightblue" stroke="midnightblue" points="518.144,-88.6627 521.233,-98.7971 525.138,-88.9482 518.144,-88.6627"/>
</g>
<!-- Node4 -->
<g id="node7" class="node"><title>Node4</title>
<a xlink:href="../../d6/d55/componentinstance_8cpp.html" target="_top" xlink:title="/home/travis/build\l/LibrePCB/LibrePCB/libs\l/librepcbproject/boards\l/componentinstance.cpp">
<polygon fill="white" stroke="black" points="963.5,-1 963.5,-61 1088.5,-61 1088.5,-1 963.5,-1"/>
<text text-anchor="start" x="971.5" y="-48" font-family="Helvetica,sans-Serif" font-size="10.00">/home/travis/build</text>
<text text-anchor="start" x="971.5" y="-35" font-family="Helvetica,sans-Serif" font-size="10.00">/LibrePCB/LibrePCB/libs</text>
<text text-anchor="start" x="971.5" y="-22" font-family="Helvetica,sans-Serif" font-size="10.00">/librepcbproject/boards</text>
<text text-anchor="middle" x="1026" y="-9" font-family="Helvetica,sans-Serif" font-size="10.00">/componentinstance.cpp</text>
</a>
</g>
<!-- Node2&#45;&gt;Node4 -->
<g id="edge6" class="edge"><title>Node2&#45;&gt;Node4</title>
<path fill="none" stroke="midnightblue" d="M592.778,-97.8336C750.376,-58.8257 800.921,-102.185 955,-62 957.733,-61.2872 960.496,-60.4827 963.264,-59.6064"/>
<polygon fill="midnightblue" stroke="midnightblue" points="591.561,-94.5316 582.736,-100.394 593.291,-101.315 591.561,-94.5316"/>
</g>
<!-- Node5 -->
<g id="node9" class="node"><title>Node5</title>
<a xlink:href="../../dc/d8a/bgi__footprint_8cpp.html" target="_top" xlink:title="/home/travis/build\l/LibrePCB/LibrePCB/libs\l/librepcbproject/boards\l/graphicsitems/bgi_footprint.cpp">
<polygon fill="white" stroke="black" points="791.5,-1 791.5,-61 946.5,-61 946.5,-1 791.5,-1"/>
<text text-anchor="start" x="799.5" y="-48" font-family="Helvetica,sans-Serif" font-size="10.00">/home/travis/build</text>
<text text-anchor="start" x="799.5" y="-35" font-family="Helvetica,sans-Serif" font-size="10.00">/LibrePCB/LibrePCB/libs</text>
<text text-anchor="start" x="799.5" y="-22" font-family="Helvetica,sans-Serif" font-size="10.00">/librepcbproject/boards</text>
<text text-anchor="middle" x="869" y="-9" font-family="Helvetica,sans-Serif" font-size="10.00">/graphicsitems/bgi_footprint.cpp</text>
</a>
</g>
<!-- Node2&#45;&gt;Node5 -->
<g id="edge8" class="edge"><title>Node2&#45;&gt;Node5</title>
<path fill="none" stroke="midnightblue" d="M592.45,-97.7873C675.882,-73.3115 702.252,-83.9705 783,-62 785.757,-61.25 788.551,-60.4522 791.363,-59.617"/>
<polygon fill="midnightblue" stroke="midnightblue" points="591.384,-94.453 582.82,-100.692 593.405,-101.155 591.384,-94.453"/>
</g>
<!-- Node6 -->
<g id="node11" class="node"><title>Node6</title>
<a xlink:href="../../dd/d3c/bgi__footprintpad_8cpp.html" target="_top" xlink:title="/home/travis/build\l/LibrePCB/LibrePCB/libs\l/librepcbproject/boards\l/graphicsitems/bgi_footprintpad.cpp">
<polygon fill="white" stroke="black" points="603.5,-1 603.5,-61 774.5,-61 774.5,-1 603.5,-1"/>
<text text-anchor="start" x="611.5" y="-48" font-family="Helvetica,sans-Serif" font-size="10.00">/home/travis/build</text>
<text text-anchor="start" x="611.5" y="-35" font-family="Helvetica,sans-Serif" font-size="10.00">/LibrePCB/LibrePCB/libs</text>
<text text-anchor="start" x="611.5" y="-22" font-family="Helvetica,sans-Serif" font-size="10.00">/librepcbproject/boards</text>
<text text-anchor="middle" x="689" y="-9" font-family="Helvetica,sans-Serif" font-size="10.00">/graphicsitems/bgi_footprintpad.cpp</text>
</a>
</g>
<!-- Node2&#45;&gt;Node6 -->
<g id="edge10" class="edge"><title>Node2&#45;&gt;Node6</title>
<path fill="none" stroke="midnightblue" d="M580.963,-93.6485C599.349,-82.9872 619.349,-71.3892 637.087,-61.1032"/>
<polygon fill="midnightblue" stroke="midnightblue" points="578.98,-90.7529 572.085,-98.7971 582.491,-96.8084 578.98,-90.7529"/>
</g>
<!-- Node7 -->
<g id="node13" class="node"><title>Node7</title>
<a xlink:href="../../de/d33/bi__footprint_8cpp.html" target="_top" xlink:title="/home/travis/build\l/LibrePCB/LibrePCB/libs\l/librepcbproject/boards\l/items/bi_footprint.cpp">
<polygon fill="white" stroke="black" points="-0.5,-1 -0.5,-61 124.5,-61 124.5,-1 -0.5,-1"/>
<text text-anchor="start" x="7.5" y="-48" font-family="Helvetica,sans-Serif" font-size="10.00">/home/travis/build</text>
<text text-anchor="start" x="7.5" y="-35" font-family="Helvetica,sans-Serif" font-size="10.00">/LibrePCB/LibrePCB/libs</text>
<text text-anchor="start" x="7.5" y="-22" font-family="Helvetica,sans-Serif" font-size="10.00">/librepcbproject/boards</text>
<text text-anchor="middle" x="62" y="-9" font-family="Helvetica,sans-Serif" font-size="10.00">/items/bi_footprint.cpp</text>
</a>
</g>
<!-- Node2&#45;&gt;Node7 -->
<g id="edge12" class="edge"><title>Node2&#45;&gt;Node7</title>
<path fill="none" stroke="midnightblue" d="M447.695,-98.7203C446.794,-98.4721 445.895,-98.2318 445,-98 309.871,-63.0044 267.777,-98.3265 133,-62 130.273,-61.2649 127.515,-60.4419 124.751,-59.5502"/>
<polygon fill="midnightblue" stroke="midnightblue" points="446.831,-102.115 457.415,-101.655 448.854,-95.4141 446.831,-102.115"/>
</g>
<!-- Node8 -->
<g id="node15" class="node"><title>Node8</title>
<a xlink:href="../../d7/d56/bi__footprintpad_8cpp.html" target="_top" xlink:title="/home/travis/build\l/LibrePCB/LibrePCB/libs\l/librepcbproject/boards\l/items/bi_footprintpad.cpp">
<polygon fill="white" stroke="black" points="141.5,-1 141.5,-61 270.5,-61 270.5,-1 141.5,-1"/>
<text text-anchor="start" x="149.5" y="-48" font-family="Helvetica,sans-Serif" font-size="10.00">/home/travis/build</text>
<text text-anchor="start" x="149.5" y="-35" font-family="Helvetica,sans-Serif" font-size="10.00">/LibrePCB/LibrePCB/libs</text>
<text text-anchor="start" x="149.5" y="-22" font-family="Helvetica,sans-Serif" font-size="10.00">/librepcbproject/boards</text>
<text text-anchor="middle" x="206" y="-9" font-family="Helvetica,sans-Serif" font-size="10.00">/items/bi_footprintpad.cpp</text>
</a>
</g>
<!-- Node2&#45;&gt;Node8 -->
<g id="edge14" class="edge"><title>Node2&#45;&gt;Node8</title>
<path fill="none" stroke="midnightblue" d="M447.659,-98.8452C446.769,-98.5576 445.883,-98.2757 445,-98 372.941,-75.4918 350.95,-84.855 279,-62 276.244,-61.1246 273.449,-60.1843 270.64,-59.1954"/>
<polygon fill="midnightblue" stroke="midnightblue" points="446.687,-102.212 457.282,-102.124 448.945,-95.5857 446.687,-102.212"/>
</g>
<!-- Node9 -->
<g id="node17" class="node"><title>Node9</title>
<a xlink:href="../../d7/d20/bes__select_8cpp.html" target="_top" xlink:title="/home/travis/build\l/LibrePCB/LibrePCB/libs\l/librepcbprojecteditor\l/boardeditor/fsm/bes_select.cpp">
<polygon fill="white" stroke="black" points="288,-1 288,-61 444,-61 444,-1 288,-1"/>
<text text-anchor="start" x="296" y="-48" font-family="Helvetica,sans-Serif" font-size="10.00">/home/travis/build</text>
<text text-anchor="start" x="296" y="-35" font-family="Helvetica,sans-Serif" font-size="10.00">/LibrePCB/LibrePCB/libs</text>
<text text-anchor="start" x="296" y="-22" font-family="Helvetica,sans-Serif" font-size="10.00">/librepcbprojecteditor</text>
<text text-anchor="middle" x="366" y="-9" font-family="Helvetica,sans-Serif" font-size="10.00">/boardeditor/fsm/bes_select.cpp</text>
</a>
</g>
<!-- Node2&#45;&gt;Node9 -->
<g id="edge16" class="edge"><title>Node2&#45;&gt;Node9</title>
<path fill="none" stroke="midnightblue" d="M463.99,-93.3575C447.363,-82.7765 429.322,-71.2957 413.305,-61.1032"/>
<polygon fill="midnightblue" stroke="midnightblue" points="462.223,-96.3811 472.538,-98.7971 465.981,-90.4755 462.223,-96.3811"/>
</g>
<!-- Node10&#45;&gt;Node3 -->
<g id="edge20" class="edge"><title>Node10&#45;&gt;Node3</title>
<path fill="none" stroke="midnightblue" d="M429.001,-93.0661C445.073,-82.5659 462.466,-71.2022 477.924,-61.1032"/>
<polygon fill="midnightblue" stroke="midnightblue" points="426.686,-90.3975 420.229,-98.7971 430.515,-96.2577 426.686,-90.3975"/>
</g>
<!-- Node10&#45;&gt;Node6 -->
<g id="edge22" class="edge"><title>Node10&#45;&gt;Node6</title>
<path fill="none" stroke="midnightblue" d="M446.352,-98.8806C447.239,-98.5818 448.121,-98.2881 449,-98 512.506,-77.1767 530.773,-80.4794 595,-62 597.725,-61.216 600.489,-60.4043 603.276,-59.5717"/>
<polygon fill="midnightblue" stroke="midnightblue" points="445.032,-95.6349 436.761,-102.257 447.356,-102.238 445.032,-95.6349"/>
</g>
<!-- Node10&#45;&gt;Node7 -->
<g id="edge24" class="edge"><title>Node10&#45;&gt;Node7</title>
<path fill="none" stroke="midnightblue" d="M301.597,-111.705C253.306,-99.4798 188.702,-81.7926 133,-62 130.212,-61.0093 127.378,-59.9599 124.528,-58.8692"/>
<polygon fill="midnightblue" stroke="midnightblue" points="300.785,-115.109 311.337,-114.152 302.492,-108.321 300.785,-115.109"/>
</g>
<!-- Node10&#45;&gt;Node8 -->
<g id="edge26" class="edge"><title>Node10&#45;&gt;Node8</title>
<path fill="none" stroke="midnightblue" d="M313.397,-93.6485C295.121,-82.9872 275.239,-71.3892 257.605,-61.1032"/>
<polygon fill="midnightblue" stroke="midnightblue" points="311.822,-96.7816 322.224,-98.7971 315.349,-90.7351 311.822,-96.7816"/>
</g>
<!-- Node10&#45;&gt;Node9 -->
<g id="edge28" class="edge"><title>Node10&#45;&gt;Node9</title>
<path fill="none" stroke="midnightblue" d="M370.71,-88.6956C369.961,-79.5273 369.179,-69.9394 368.471,-61.2718"/>
<polygon fill="midnightblue" stroke="midnightblue" points="367.232,-89.1151 371.534,-98.7971 374.209,-88.5455 367.232,-89.1151"/>
</g>
</g>
</svg>
