<?xml version="1.0" encoding="UTF-8" standalone="no"?>
<!DOCTYPE svg PUBLIC "-//W3C//DTD SVG 1.1//EN"
 "http://www.w3.org/Graphics/SVG/1.1/DTD/svg11.dtd">
<!-- Generated by graphviz version 2.26.3 (20100126.1600)
 -->
<!-- Title: /home/travis/build/LibrePCB/LibrePCB/libs/librepcbcommon/fileio/smarttextfile.cpp Pages: 1 -->
<svg width="295pt" height="302pt"
 viewBox="0.00 0.00 295.00 302.00" xmlns="http://www.w3.org/2000/svg" xmlns:xlink="http://www.w3.org/1999/xlink">
<g id="graph1" class="graph" transform="scale(1 1) rotate(0) translate(4 298)">
<title>/home/travis/build/LibrePCB/LibrePCB/libs/librepcbcommon/fileio/smarttextfile.cpp</title>
<polygon fill="white" stroke="white" points="-4,5 -4,-298 292,-298 292,5 -4,5"/>
<!-- Node1 -->
<g id="node1" class="node"><title>Node1</title>
<polygon fill="#bfbfbf" stroke="black" points="-0.5,-233 -0.5,-293 124.5,-293 124.5,-233 -0.5,-233"/>
<text text-anchor="start" x="7.5" y="-280" font-family="Helvetica,sans-Serif" font-size="10.00">/home/travis/build</text>
<text text-anchor="start" x="7.5" y="-267" font-family="Helvetica,sans-Serif" font-size="10.00">/LibrePCB/LibrePCB/libs</text>
<text text-anchor="start" x="7.5" y="-254" font-family="Helvetica,sans-Serif" font-size="10.00">/librepcbcommon/fileio</text>
<text text-anchor="middle" x="62" y="-241" font-family="Helvetica,sans-Serif" font-size="10.00">/smarttextfile.cpp</text>
</g>
<!-- Node2 -->
<g id="node3" class="node"><title>Node2</title>
<polygon fill="white" stroke="#bfbfbf" points="81,-0.5 81,-21.5 129,-21.5 129,-0.5 81,-0.5"/>
<text text-anchor="middle" x="105" y="-8.5" font-family="Helvetica,sans-Serif" font-size="10.00">QtCore</text>
</g>
<!-- Node1&#45;&gt;Node2 -->
<g id="edge2" class="edge"><title>Node1&#45;&gt;Node2</title>
<path fill="none" stroke="midnightblue" d="M52.3847,-232.897C48.094,-215.641 44.6745,-193.584 48,-174 57.0686,-120.594 81.7333,-61.3717 95.4593,-31.1515"/>
<polygon fill="midnightblue" stroke="midnightblue" points="98.7959,-32.2746 99.8146,-21.7288 92.4418,-29.3375 98.7959,-32.2746"/>
</g>
<!-- Node3 -->
<g id="node5" class="node"><title>Node3</title>
<a xlink:href="../../d5/d3f/smarttextfile_8h.html" target="_top" xlink:title="smarttextfile.h">
<polygon fill="white" stroke="black" points="56.5,-174.5 56.5,-195.5 135.5,-195.5 135.5,-174.5 56.5,-174.5"/>
<text text-anchor="middle" x="96" y="-182.5" font-family="Helvetica,sans-Serif" font-size="10.00">smarttextfile.h</text>
</a>
</g>
<!-- Node1&#45;&gt;Node3 -->
<g id="edge4" class="edge"><title>Node1&#45;&gt;Node3</title>
<path fill="none" stroke="midnightblue" d="M75.2426,-232.62C79.2725,-223.375 83.5988,-213.45 87.2533,-205.066"/>
<polygon fill="midnightblue" stroke="midnightblue" points="90.5251,-206.319 91.3126,-195.753 84.1082,-203.522 90.5251,-206.319"/>
</g>
<!-- Node3&#45;&gt;Node2 -->
<g id="edge6" class="edge"><title>Node3&#45;&gt;Node2</title>
<path fill="none" stroke="midnightblue" d="M96.5494,-174.377C98.0021,-146.293 101.965,-69.6735 103.903,-32.2027"/>
<polygon fill="midnightblue" stroke="midnightblue" points="107.413,-32.0952 104.435,-21.9277 100.423,-31.7335 107.413,-32.0952"/>
</g>
<!-- Node4 -->
<g id="node8" class="node"><title>Node4</title>
<a xlink:href="../../d3/d9d/smartfile_8h.html" target="_top" xlink:title="smartfile.h">
<polygon fill="white" stroke="black" points="118,-116.5 118,-137.5 180,-137.5 180,-116.5 118,-116.5"/>
<text text-anchor="middle" x="149" y="-124.5" font-family="Helvetica,sans-Serif" font-size="10.00">smartfile.h</text>
</a>
</g>
<!-- Node3&#45;&gt;Node4 -->
<g id="edge8" class="edge"><title>Node3&#45;&gt;Node4</title>
<path fill="none" stroke="midnightblue" d="M105.721,-174.362C113.192,-166.186 123.686,-154.702 132.469,-145.091"/>
<polygon fill="midnightblue" stroke="midnightblue" points="135.179,-147.314 139.341,-137.571 130.011,-142.592 135.179,-147.314"/>
</g>
<!-- Node4&#45;&gt;Node2 -->
<g id="edge10" class="edge"><title>Node4&#45;&gt;Node2</title>
<path fill="none" stroke="midnightblue" d="M142.546,-116.494C137.034,-107.174 129.195,-93.0524 124,-80 117.692,-64.15 112.685,-45.4544 109.398,-31.5245"/>
<polygon fill="midnightblue" stroke="midnightblue" points="112.756,-30.5035 107.139,-21.5202 105.928,-32.0455 112.756,-30.5035"/>
</g>
<!-- Node5 -->
<g id="node11" class="node"><title>Node5</title>
<a xlink:href="../../d4/d03/exceptions_8h.html" target="_top" xlink:title="../exceptions.h">
<polygon fill="white" stroke="black" points="132.5,-58.5 132.5,-79.5 213.5,-79.5 213.5,-58.5 132.5,-58.5"/>
<text text-anchor="middle" x="173" y="-66.5" font-family="Helvetica,sans-Serif" font-size="10.00">../exceptions.h</text>
</a>
</g>
<!-- Node4&#45;&gt;Node5 -->
<g id="edge12" class="edge"><title>Node4&#45;&gt;Node5</title>
<path fill="none" stroke="midnightblue" d="M153.402,-116.362C156.582,-108.677 160.972,-98.0686 164.79,-88.8399"/>
<polygon fill="midnightblue" stroke="midnightblue" points="168.036,-90.1491 168.626,-79.5707 161.568,-87.4726 168.036,-90.1491"/>
</g>
<!-- Node6 -->
<g id="node14" class="node"><title>Node6</title>
<a xlink:href="../../dd/dec/filepath_8h.html" target="_top" xlink:title="filepath.h">
<polygon fill="white" stroke="black" points="231,-58.5 231,-79.5 287,-79.5 287,-58.5 231,-58.5"/>
<text text-anchor="middle" x="259" y="-66.5" font-family="Helvetica,sans-Serif" font-size="10.00">filepath.h</text>
</a>
</g>
<!-- Node4&#45;&gt;Node6 -->
<g id="edge16" class="edge"><title>Node4&#45;&gt;Node6</title>
<path fill="none" stroke="midnightblue" d="M168.92,-116.497C185.946,-107.519 210.669,-94.4835 229.909,-84.3387"/>
<polygon fill="midnightblue" stroke="midnightblue" points="231.643,-87.3814 238.856,-79.6212 228.378,-81.1894 231.643,-87.3814"/>
</g>
<!-- Node5&#45;&gt;Node2 -->
<g id="edge14" class="edge"><title>Node5&#45;&gt;Node2</title>
<path fill="none" stroke="midnightblue" d="M160.528,-58.3619C150.655,-49.9408 136.667,-38.0105 125.202,-28.2308"/>
<polygon fill="midnightblue" stroke="midnightblue" points="127.273,-25.3972 117.393,-21.5707 122.73,-30.7231 127.273,-25.3972"/>
</g>
<!-- Node6&#45;&gt;Node2 -->
<g id="edge18" class="edge"><title>Node6&#45;&gt;Node2</title>
<path fill="none" stroke="midnightblue" d="M231.112,-58.4966C205.174,-48.7278 166.475,-34.1529 138.793,-23.7272"/>
<polygon fill="midnightblue" stroke="midnightblue" points="139.728,-20.3396 129.137,-20.0904 137.261,-26.8904 139.728,-20.3396"/>
</g>
</g>
</svg>
