<?xml version="1.0" encoding="UTF-8" standalone="no"?>
<!DOCTYPE svg PUBLIC "-//W3C//DTD SVG 1.1//EN"
 "http://www.w3.org/Graphics/SVG/1.1/DTD/svg11.dtd">
<!-- Generated by graphviz version 2.26.3 (20100126.1600)
 -->
<!-- Title: /home/travis/build/LibrePCB/LibrePCB/libs/librepcbproject/settings/projectsettings.h Pages: 1 -->
<svg width="232pt" height="272pt"
 viewBox="0.00 0.00 232.34 272.00" xmlns="http://www.w3.org/2000/svg" xmlns:xlink="http://www.w3.org/1999/xlink">
<g id="graph1" class="graph" transform="scale(1 1) rotate(0) translate(4 268)">
<title>/home/travis/build/LibrePCB/LibrePCB/libs/librepcbproject/settings/projectsettings.h</title>
<polygon fill="white" stroke="white" points="-4,5 -4,-268 229.34,-268 229.34,5 -4,5"/>
<!-- Node1 -->
<g id="node1" class="node"><title>Node1</title>
<polygon fill="#bfbfbf" stroke="black" points="14.8401,-203 14.8401,-263 139.84,-263 139.84,-203 14.8401,-203"/>
<text text-anchor="start" x="22.8401" y="-250" font-family="Helvetica,sans-Serif" font-size="10.00">/home/travis/build</text>
<text text-anchor="start" x="22.8401" y="-237" font-family="Helvetica,sans-Serif" font-size="10.00">/LibrePCB/LibrePCB/libs</text>
<text text-anchor="start" x="22.8401" y="-224" font-family="Helvetica,sans-Serif" font-size="10.00">/librepcbproject/settings</text>
<text text-anchor="middle" x="77.3401" y="-211" font-family="Helvetica,sans-Serif" font-size="10.00">/projectsettings.h</text>
</g>
<!-- Node2 -->
<g id="node3" class="node"><title>Node2</title>
<polygon fill="white" stroke="#bfbfbf" points="32.3401,-0.5 32.3401,-21.5 80.3401,-21.5 80.3401,-0.5 32.3401,-0.5"/>
<text text-anchor="middle" x="56.3401" y="-8.5" font-family="Helvetica,sans-Serif" font-size="10.00">QtCore</text>
</g>
<!-- Node1&#45;&gt;Node2 -->
<g id="edge2" class="edge"><title>Node1&#45;&gt;Node2</title>
<path fill="none" stroke="midnightblue" d="M32.922,-202.899C21.4418,-192.662 10.5698,-180.173 4.34014,-166 -2.17258,-151.183 -1.0305,-76.5478 7.34014,-58 12.6656,-46.1999 22.4403,-35.874 31.8665,-27.9294"/>
<polygon fill="midnightblue" stroke="midnightblue" points="34.2408,-30.515 39.9398,-21.5835 29.9149,-25.0116 34.2408,-30.515"/>
</g>
<!-- Node3 -->
<g id="node5" class="node"><title>Node3</title>
<a xlink:href="../../d0/d1d/if__xmlserializableobject_8h.html" target="_top" xlink:title="librepcbcommon/fileio\l/if_xmlserializableobject.h">
<polygon fill="white" stroke="black" points="12.8401,-131 12.8401,-165 141.84,-165 141.84,-131 12.8401,-131"/>
<text text-anchor="start" x="20.8401" y="-152" font-family="Helvetica,sans-Serif" font-size="10.00">librepcbcommon/fileio</text>
<text text-anchor="middle" x="77.3401" y="-139" font-family="Helvetica,sans-Serif" font-size="10.00">/if_xmlserializableobject.h</text>
</a>
</g>
<!-- Node1&#45;&gt;Node3 -->
<g id="edge4" class="edge"><title>Node1&#45;&gt;Node3</title>
<path fill="none" stroke="midnightblue" d="M77.3401,-202.793C77.3401,-193.837 77.3401,-184.084 77.3401,-175.322"/>
<polygon fill="midnightblue" stroke="midnightblue" points="80.8402,-175.246 77.3401,-165.246 73.8402,-175.246 80.8402,-175.246"/>
</g>
<!-- Node5 -->
<g id="node10" class="node"><title>Node5</title>
<a xlink:href="../../dd/dec/filepath_8h.html" target="_top" xlink:title="librepcbcommon/fileio\l/filepath.h">
<polygon fill="white" stroke="black" points="113.84,-59 113.84,-93 224.84,-93 224.84,-59 113.84,-59"/>
<text text-anchor="start" x="121.84" y="-80" font-family="Helvetica,sans-Serif" font-size="10.00">librepcbcommon/fileio</text>
<text text-anchor="middle" x="169.34" y="-67" font-family="Helvetica,sans-Serif" font-size="10.00">/filepath.h</text>
</a>
</g>
<!-- Node1&#45;&gt;Node5 -->
<g id="edge10" class="edge"><title>Node1&#45;&gt;Node5</title>
<path fill="none" stroke="midnightblue" d="M119.182,-202.667C130.869,-192.269 142.502,-179.749 150.34,-166 161.315,-146.749 165.975,-121.924 167.941,-103.224"/>
<polygon fill="midnightblue" stroke="midnightblue" points="171.449,-103.272 168.814,-93.0105 164.475,-102.676 171.449,-103.272"/>
</g>
<!-- Node4 -->
<g id="node7" class="node"><title>Node4</title>
<a xlink:href="../../d4/d03/exceptions_8h.html" target="_top" xlink:title="../exceptions.h">
<polygon fill="white" stroke="black" points="15.8401,-65.5 15.8401,-86.5 96.8401,-86.5 96.8401,-65.5 15.8401,-65.5"/>
<text text-anchor="middle" x="56.3401" y="-73.5" font-family="Helvetica,sans-Serif" font-size="10.00">../exceptions.h</text>
</a>
</g>
<!-- Node3&#45;&gt;Node4 -->
<g id="edge6" class="edge"><title>Node3&#45;&gt;Node4</title>
<path fill="none" stroke="midnightblue" d="M72.3634,-130.937C69.3797,-120.707 65.5642,-107.625 62.405,-96.7937"/>
<polygon fill="midnightblue" stroke="midnightblue" points="65.6797,-95.521 59.5196,-86.901 58.9597,-97.4811 65.6797,-95.521"/>
</g>
<!-- Node4&#45;&gt;Node2 -->
<g id="edge8" class="edge"><title>Node4&#45;&gt;Node2</title>
<path fill="none" stroke="midnightblue" d="M56.3401,-65.2666C56.3401,-56.1799 56.3401,-42.8919 56.3401,-31.7395"/>
<polygon fill="midnightblue" stroke="midnightblue" points="59.8402,-31.5337 56.3401,-21.5337 52.8402,-31.5337 59.8402,-31.5337"/>
</g>
<!-- Node5&#45;&gt;Node2 -->
<g id="edge12" class="edge"><title>Node5&#45;&gt;Node2</title>
<path fill="none" stroke="midnightblue" d="M139.651,-58.922C122.326,-48.9566 100.624,-36.4729 83.713,-26.7455"/>
<polygon fill="midnightblue" stroke="midnightblue" points="85.2827,-23.6107 74.8693,-21.6584 81.7924,-29.6785 85.2827,-23.6107"/>
</g>
</g>
</svg>
