<?xml version="1.0" encoding="UTF-8" standalone="no"?>
<!DOCTYPE svg PUBLIC "-//W3C//DTD SVG 1.1//EN"
 "http://www.w3.org/Graphics/SVG/1.1/DTD/svg11.dtd">
<!-- Generated by graphviz version 2.26.3 (20100126.1600)
 -->
<!-- Title: /home/travis/build/LibrePCB/LibrePCB/libs/librepcbproject/schematics/items/si_netline.h Pages: 1 -->
<svg width="1582pt" height="180pt"
 viewBox="0.00 0.00 1582.00 180.00" xmlns="http://www.w3.org/2000/svg" xmlns:xlink="http://www.w3.org/1999/xlink">
<g id="graph1" class="graph" transform="scale(1 1) rotate(0) translate(4 176)">
<title>/home/travis/build/LibrePCB/LibrePCB/libs/librepcbproject/schematics/items/si_netline.h</title>
<polygon fill="white" stroke="white" points="-4,5 -4,-176 1579,-176 1579,5 -4,5"/>
<!-- Node1 -->
<g id="node1" class="node"><title>Node1</title>
<polygon fill="#bfbfbf" stroke="black" points="775,-111 775,-171 911,-171 911,-111 775,-111"/>
<text text-anchor="start" x="783" y="-158" font-family="Helvetica,sans-Serif" font-size="10.00">/home/travis/build</text>
<text text-anchor="start" x="783" y="-145" font-family="Helvetica,sans-Serif" font-size="10.00">/LibrePCB/LibrePCB/libs</text>
<text text-anchor="start" x="783" y="-132" font-family="Helvetica,sans-Serif" font-size="10.00">/librepcbproject/schematics</text>
<text text-anchor="middle" x="843" y="-119" font-family="Helvetica,sans-Serif" font-size="10.00">/items/si_netline.h</text>
</g>
<!-- Node2 -->
<g id="node3" class="node"><title>Node2</title>
<a xlink:href="../../dd/d91/moc__si__netline_8cpp.html" target="_top" xlink:title="/home/travis/build\l/LibrePCB/LibrePCB/libs\l/librepcbproject/moc/moc\l_si_netline.cpp">
<polygon fill="white" stroke="black" points="0,-7 0,-67 126,-67 126,-7 0,-7"/>
<text text-anchor="start" x="8" y="-54" font-family="Helvetica,sans-Serif" font-size="10.00">/home/travis/build</text>
<text text-anchor="start" x="8" y="-41" font-family="Helvetica,sans-Serif" font-size="10.00">/LibrePCB/LibrePCB/libs</text>
<text text-anchor="start" x="8" y="-28" font-family="Helvetica,sans-Serif" font-size="10.00">/librepcbproject/moc/moc</text>
<text text-anchor="middle" x="63" y="-15" font-family="Helvetica,sans-Serif" font-size="10.00">_si_netline.cpp</text>
</a>
</g>
<!-- Node1&#45;&gt;Node2 -->
<g id="edge2" class="edge"><title>Node1&#45;&gt;Node2</title>
<path fill="none" stroke="midnightblue" d="M764.756,-137.335C606.03,-129.289 251.391,-108.04 135,-74 128.66,-72.1459 122.221,-69.7254 115.934,-67.0091"/>
<polygon fill="midnightblue" stroke="midnightblue" points="764.76,-140.839 774.923,-137.846 765.111,-133.848 764.76,-140.839"/>
</g>
<!-- Node3 -->
<g id="node5" class="node"><title>Node3</title>
<a xlink:href="../../d3/db9/cmdschematicnetlineadd_8cpp.html" target="_top" xlink:title="/home/travis/build\l/LibrePCB/LibrePCB/libs\l/librepcbproject/schematics\l/cmd/cmdschematicnetlineadd.cpp">
<polygon fill="white" stroke="black" points="144,-7 144,-67 312,-67 312,-7 144,-7"/>
<text text-anchor="start" x="152" y="-54" font-family="Helvetica,sans-Serif" font-size="10.00">/home/travis/build</text>
<text text-anchor="start" x="152" y="-41" font-family="Helvetica,sans-Serif" font-size="10.00">/LibrePCB/LibrePCB/libs</text>
<text text-anchor="start" x="152" y="-28" font-family="Helvetica,sans-Serif" font-size="10.00">/librepcbproject/schematics</text>
<text text-anchor="middle" x="228" y="-15" font-family="Helvetica,sans-Serif" font-size="10.00">/cmd/cmdschematicnetlineadd.cpp</text>
</a>
</g>
<!-- Node1&#45;&gt;Node3 -->
<g id="edge4" class="edge"><title>Node1&#45;&gt;Node3</title>
<path fill="none" stroke="midnightblue" d="M764.797,-137.087C661.695,-130.545 475.304,-113.919 321,-74 313.514,-72.0633 305.82,-69.6819 298.217,-67.0689"/>
<polygon fill="midnightblue" stroke="midnightblue" points="764.618,-140.583 774.815,-137.707 765.051,-133.596 764.618,-140.583"/>
</g>
<!-- Node4 -->
<g id="node7" class="node"><title>Node4</title>
<a xlink:href="../../dd/d65/cmdschematicnetlineremove_8cpp.html" target="_top" xlink:title="/home/travis/build\l/LibrePCB/LibrePCB/libs\l/librepcbproject/schematics\l/cmd/cmdschematicnetlineremove.cpp">
<polygon fill="white" stroke="black" points="329.5,-7 329.5,-67 514.5,-67 514.5,-7 329.5,-7"/>
<text text-anchor="start" x="337.5" y="-54" font-family="Helvetica,sans-Serif" font-size="10.00">/home/travis/build</text>
<text text-anchor="start" x="337.5" y="-41" font-family="Helvetica,sans-Serif" font-size="10.00">/LibrePCB/LibrePCB/libs</text>
<text text-anchor="start" x="337.5" y="-28" font-family="Helvetica,sans-Serif" font-size="10.00">/librepcbproject/schematics</text>
<text text-anchor="middle" x="422" y="-15" font-family="Helvetica,sans-Serif" font-size="10.00">/cmd/cmdschematicnetlineremove.cpp</text>
</a>
</g>
<!-- Node1&#45;&gt;Node4 -->
<g id="edge6" class="edge"><title>Node1&#45;&gt;Node4</title>
<path fill="none" stroke="midnightblue" d="M764.67,-127.874C699.406,-116.158 604.323,-97.2767 523,-74 515.729,-71.9188 508.231,-69.5701 500.759,-67.0905"/>
<polygon fill="midnightblue" stroke="midnightblue" points="764.424,-131.385 774.882,-129.692 765.651,-124.493 764.424,-131.385"/>
</g>
<!-- Node5 -->
<g id="node9" class="node"><title>Node5</title>
<a xlink:href="../../d4/d13/sgi__netline_8cpp.html" target="_top" xlink:title="/home/travis/build\l/LibrePCB/LibrePCB/libs\l/librepcbproject/schematics\l/graphicsitems/sgi_netline.cpp">
<polygon fill="white" stroke="black" points="531.5,-7 531.5,-67 680.5,-67 680.5,-7 531.5,-7"/>
<text text-anchor="start" x="539.5" y="-54" font-family="Helvetica,sans-Serif" font-size="10.00">/home/travis/build</text>
<text text-anchor="start" x="539.5" y="-41" font-family="Helvetica,sans-Serif" font-size="10.00">/LibrePCB/LibrePCB/libs</text>
<text text-anchor="start" x="539.5" y="-28" font-family="Helvetica,sans-Serif" font-size="10.00">/librepcbproject/schematics</text>
<text text-anchor="middle" x="606" y="-15" font-family="Helvetica,sans-Serif" font-size="10.00">/graphicsitems/sgi_netline.cpp</text>
</a>
</g>
<!-- Node1&#45;&gt;Node5 -->
<g id="edge8" class="edge"><title>Node1&#45;&gt;Node5</title>
<path fill="none" stroke="midnightblue" d="M765.47,-107.431C740.987,-96.7867 713.844,-84.9416 689,-74 683.947,-71.7744 678.723,-69.4658 673.472,-67.1384"/>
<polygon fill="midnightblue" stroke="midnightblue" points="764.147,-110.672 774.713,-111.447 766.936,-104.252 764.147,-110.672"/>
</g>
<!-- Node6 -->
<g id="node11" class="node"><title>Node6</title>
<a xlink:href="../../d6/d91/si__netline_8cpp.html" target="_top" xlink:title="/home/travis/build\l/LibrePCB/LibrePCB/libs\l/librepcbproject/schematics\l/items/si_netline.cpp">
<polygon fill="white" stroke="black" points="698,-7 698,-67 834,-67 834,-7 698,-7"/>
<text text-anchor="start" x="706" y="-54" font-family="Helvetica,sans-Serif" font-size="10.00">/home/travis/build</text>
<text text-anchor="start" x="706" y="-41" font-family="Helvetica,sans-Serif" font-size="10.00">/LibrePCB/LibrePCB/libs</text>
<text text-anchor="start" x="706" y="-28" font-family="Helvetica,sans-Serif" font-size="10.00">/librepcbproject/schematics</text>
<text text-anchor="middle" x="766" y="-15" font-family="Helvetica,sans-Serif" font-size="10.00">/items/si_netline.cpp</text>
</a>
</g>
<!-- Node1&#45;&gt;Node6 -->
<g id="edge10" class="edge"><title>Node1&#45;&gt;Node6</title>
<path fill="none" stroke="midnightblue" d="M814.557,-102.583C805.865,-90.8433 796.437,-78.1098 788.222,-67.0135"/>
<polygon fill="midnightblue" stroke="midnightblue" points="811.965,-104.965 820.728,-110.919 817.591,-100.799 811.965,-104.965"/>
</g>
<!-- Node7 -->
<g id="node13" class="node"><title>Node7</title>
<a xlink:href="../../d9/d0a/si__netpoint_8cpp.html" target="_top" xlink:title="/home/travis/build\l/LibrePCB/LibrePCB/libs\l/librepcbproject/schematics\l/items/si_netpoint.cpp">
<polygon fill="white" stroke="black" points="852,-7 852,-67 988,-67 988,-7 852,-7"/>
<text text-anchor="start" x="860" y="-54" font-family="Helvetica,sans-Serif" font-size="10.00">/home/travis/build</text>
<text text-anchor="start" x="860" y="-41" font-family="Helvetica,sans-Serif" font-size="10.00">/LibrePCB/LibrePCB/libs</text>
<text text-anchor="start" x="860" y="-28" font-family="Helvetica,sans-Serif" font-size="10.00">/librepcbproject/schematics</text>
<text text-anchor="middle" x="920" y="-15" font-family="Helvetica,sans-Serif" font-size="10.00">/items/si_netpoint.cpp</text>
</a>
</g>
<!-- Node1&#45;&gt;Node7 -->
<g id="edge12" class="edge"><title>Node1&#45;&gt;Node7</title>
<path fill="none" stroke="midnightblue" d="M871.443,-102.583C880.135,-90.8433 889.563,-78.1098 897.778,-67.0135"/>
<polygon fill="midnightblue" stroke="midnightblue" points="868.409,-100.799 865.272,-110.919 874.035,-104.965 868.409,-100.799"/>
</g>
<!-- Node8 -->
<g id="node15" class="node"><title>Node8</title>
<a xlink:href="../../dc/db2/schematic_8cpp.html" target="_top" xlink:title="/home/travis/build\l/LibrePCB/LibrePCB/libs\l/librepcbproject/schematics\l/schematic.cpp">
<polygon fill="white" stroke="black" points="1006,-7 1006,-67 1142,-67 1142,-7 1006,-7"/>
<text text-anchor="start" x="1014" y="-54" font-family="Helvetica,sans-Serif" font-size="10.00">/home/travis/build</text>
<text text-anchor="start" x="1014" y="-41" font-family="Helvetica,sans-Serif" font-size="10.00">/LibrePCB/LibrePCB/libs</text>
<text text-anchor="start" x="1014" y="-28" font-family="Helvetica,sans-Serif" font-size="10.00">/librepcbproject/schematics</text>
<text text-anchor="middle" x="1074" y="-15" font-family="Helvetica,sans-Serif" font-size="10.00">/schematic.cpp</text>
</a>
</g>
<!-- Node1&#45;&gt;Node8 -->
<g id="edge14" class="edge"><title>Node1&#45;&gt;Node8</title>
<path fill="none" stroke="midnightblue" d="M920.373,-108.013C944.957,-97.3511 972.198,-85.3495 997,-74 1001.86,-71.7783 1006.87,-69.4498 1011.9,-67.0884"/>
<polygon fill="midnightblue" stroke="midnightblue" points="918.879,-104.845 911.092,-112.029 921.66,-111.27 918.879,-104.845"/>
</g>
<!-- Node9 -->
<g id="node17" class="node"><title>Node9</title>
<a xlink:href="../../d3/dbd/ses__addnetlabel_8cpp.html" target="_top" xlink:title="/home/travis/build\l/LibrePCB/LibrePCB/libs\l/librepcbprojecteditor\l/schematiceditor/fsm/ses\l_addnetlabel.cpp">
<polygon fill="white" stroke="black" points="1159.5,-0.5 1159.5,-73.5 1286.5,-73.5 1286.5,-0.5 1159.5,-0.5"/>
<text text-anchor="start" x="1167.5" y="-60.5" font-family="Helvetica,sans-Serif" font-size="10.00">/home/travis/build</text>
<text text-anchor="start" x="1167.5" y="-47.5" font-family="Helvetica,sans-Serif" font-size="10.00">/LibrePCB/LibrePCB/libs</text>
<text text-anchor="start" x="1167.5" y="-34.5" font-family="Helvetica,sans-Serif" font-size="10.00">/librepcbprojecteditor</text>
<text text-anchor="start" x="1167.5" y="-21.5" font-family="Helvetica,sans-Serif" font-size="10.00">/schematiceditor/fsm/ses</text>
<text text-anchor="middle" x="1223" y="-8.5" font-family="Helvetica,sans-Serif" font-size="10.00">_addnetlabel.cpp</text>
</a>
</g>
<!-- Node1&#45;&gt;Node9 -->
<g id="edge16" class="edge"><title>Node1&#45;&gt;Node9</title>
<path fill="none" stroke="midnightblue" d="M921.006,-129.806C984.224,-119.371 1074.97,-101.275 1151,-74 1153.78,-73.0034 1156.58,-71.9213 1159.4,-70.7745"/>
<polygon fill="midnightblue" stroke="midnightblue" points="920.411,-126.356 911.102,-131.415 921.534,-133.266 920.411,-126.356"/>
</g>
<!-- Node10 -->
<g id="node19" class="node"><title>Node10</title>
<a xlink:href="../../df/d6c/ses__drawwire_8cpp.html" target="_top" xlink:title="/home/travis/build\l/LibrePCB/LibrePCB/libs\l/librepcbprojecteditor\l/schematiceditor/fsm/ses\l_drawwire.cpp">
<polygon fill="white" stroke="black" points="1303.5,-0.5 1303.5,-73.5 1430.5,-73.5 1430.5,-0.5 1303.5,-0.5"/>
<text text-anchor="start" x="1311.5" y="-60.5" font-family="Helvetica,sans-Serif" font-size="10.00">/home/travis/build</text>
<text text-anchor="start" x="1311.5" y="-47.5" font-family="Helvetica,sans-Serif" font-size="10.00">/LibrePCB/LibrePCB/libs</text>
<text text-anchor="start" x="1311.5" y="-34.5" font-family="Helvetica,sans-Serif" font-size="10.00">/librepcbprojecteditor</text>
<text text-anchor="start" x="1311.5" y="-21.5" font-family="Helvetica,sans-Serif" font-size="10.00">/schematiceditor/fsm/ses</text>
<text text-anchor="middle" x="1367" y="-8.5" font-family="Helvetica,sans-Serif" font-size="10.00">_drawwire.cpp</text>
</a>
</g>
<!-- Node1&#45;&gt;Node10 -->
<g id="edge18" class="edge"><title>Node1&#45;&gt;Node10</title>
<path fill="none" stroke="midnightblue" d="M921.213,-137.168C1012.75,-130.924 1167.97,-114.821 1295,-74 1297.81,-73.0971 1300.64,-72.0933 1303.48,-71.0113"/>
<polygon fill="midnightblue" stroke="midnightblue" points="920.94,-133.678 911.193,-137.829 921.402,-140.663 920.94,-133.678"/>
</g>
<!-- Node11 -->
<g id="node21" class="node"><title>Node11</title>
<a xlink:href="../../d5/d03/ses__select_8cpp.html" target="_top" xlink:title="/home/travis/build\l/LibrePCB/LibrePCB/libs\l/librepcbprojecteditor\l/schematiceditor/fsm/ses\l_select.cpp">
<polygon fill="white" stroke="black" points="1447.5,-0.5 1447.5,-73.5 1574.5,-73.5 1574.5,-0.5 1447.5,-0.5"/>
<text text-anchor="start" x="1455.5" y="-60.5" font-family="Helvetica,sans-Serif" font-size="10.00">/home/travis/build</text>
<text text-anchor="start" x="1455.5" y="-47.5" font-family="Helvetica,sans-Serif" font-size="10.00">/LibrePCB/LibrePCB/libs</text>
<text text-anchor="start" x="1455.5" y="-34.5" font-family="Helvetica,sans-Serif" font-size="10.00">/librepcbprojecteditor</text>
<text text-anchor="start" x="1455.5" y="-21.5" font-family="Helvetica,sans-Serif" font-size="10.00">/schematiceditor/fsm/ses</text>
<text text-anchor="middle" x="1511" y="-8.5" font-family="Helvetica,sans-Serif" font-size="10.00">_select.cpp</text>
</a>
</g>
<!-- Node1&#45;&gt;Node11 -->
<g id="edge20" class="edge"><title>Node1&#45;&gt;Node11</title>
<path fill="none" stroke="midnightblue" d="M921.208,-135.734C1060.07,-125.8 1344.01,-102.692 1439,-74 1441.69,-73.1873 1444.4,-72.2758 1447.11,-71.2858"/>
<polygon fill="midnightblue" stroke="midnightblue" points="920.788,-132.255 911.061,-136.455 921.284,-139.238 920.788,-132.255"/>
</g>
</g>
</svg>
