<?xml version="1.0" encoding="UTF-8" standalone="no"?>
<!DOCTYPE svg PUBLIC "-//W3C//DTD SVG 1.1//EN"
 "http://www.w3.org/Graphics/SVG/1.1/DTD/svg11.dtd">
<!-- Generated by graphviz version 2.26.3 (20100126.1600)
 -->
<!-- Title: /home/travis/build/LibrePCB/LibrePCB/libs/librepcblibrary/fpt/footprintellipse.h Pages: 1 -->
<svg width="1186pt" height="336pt"
 viewBox="0.00 0.00 1186.00 336.00" xmlns="http://www.w3.org/2000/svg" xmlns:xlink="http://www.w3.org/1999/xlink">
<g id="graph1" class="graph" transform="scale(1 1) rotate(0) translate(4 332)">
<title>/home/travis/build/LibrePCB/LibrePCB/libs/librepcblibrary/fpt/footprintellipse.h</title>
<polygon fill="white" stroke="white" points="-4,5 -4,-332 1183,-332 1183,5 -4,5"/>
<!-- Node1 -->
<g id="node1" class="node"><title>Node1</title>
<polygon fill="#bfbfbf" stroke="black" points="675,-280.5 675,-327.5 843,-327.5 843,-280.5 675,-280.5"/>
<text text-anchor="start" x="683" y="-314.5" font-family="Helvetica,sans-Serif" font-size="10.00">/home/travis/build</text>
<text text-anchor="start" x="683" y="-301.5" font-family="Helvetica,sans-Serif" font-size="10.00">/LibrePCB/LibrePCB/libs</text>
<text text-anchor="middle" x="759" y="-288.5" font-family="Helvetica,sans-Serif" font-size="10.00">/librepcblibrary/fpt/footprintellipse.h</text>
</g>
<!-- Node2 -->
<g id="node3" class="node"><title>Node2</title>
<a xlink:href="../../d9/d7a/footprint_8h.html" target="_top" xlink:title="/home/travis/build\l/LibrePCB/LibrePCB/libs\l/librepcblibrary/fpt/footprint.h">
<polygon fill="white" stroke="black" points="601,-196.5 601,-243.5 741,-243.5 741,-196.5 601,-196.5"/>
<text text-anchor="start" x="609" y="-230.5" font-family="Helvetica,sans-Serif" font-size="10.00">/home/travis/build</text>
<text text-anchor="start" x="609" y="-217.5" font-family="Helvetica,sans-Serif" font-size="10.00">/LibrePCB/LibrePCB/libs</text>
<text text-anchor="middle" x="671" y="-204.5" font-family="Helvetica,sans-Serif" font-size="10.00">/librepcblibrary/fpt/footprint.h</text>
</a>
</g>
<!-- Node1&#45;&gt;Node2 -->
<g id="edge2" class="edge"><title>Node1&#45;&gt;Node2</title>
<path fill="none" stroke="midnightblue" d="M726.759,-273.225C716.52,-263.451 705.364,-252.802 695.74,-243.615"/>
<polygon fill="midnightblue" stroke="midnightblue" points="724.368,-275.781 734.018,-280.154 729.201,-270.717 724.368,-275.781"/>
</g>
<!-- Node12 -->
<g id="node23" class="node"><title>Node12</title>
<a xlink:href="../../dc/d49/footprintellipse_8cpp.html" target="_top" xlink:title="/home/travis/build\l/LibrePCB/LibrePCB/libs\l/librepcblibrary/fpt/footprintellipse.cpp">
<polygon fill="white" stroke="black" points="758.5,-196.5 758.5,-243.5 937.5,-243.5 937.5,-196.5 758.5,-196.5"/>
<text text-anchor="start" x="766.5" y="-230.5" font-family="Helvetica,sans-Serif" font-size="10.00">/home/travis/build</text>
<text text-anchor="start" x="766.5" y="-217.5" font-family="Helvetica,sans-Serif" font-size="10.00">/LibrePCB/LibrePCB/libs</text>
<text text-anchor="middle" x="848" y="-204.5" font-family="Helvetica,sans-Serif" font-size="10.00">/librepcblibrary/fpt/footprintellipse.cpp</text>
</a>
</g>
<!-- Node1&#45;&gt;Node12 -->
<g id="edge22" class="edge"><title>Node1&#45;&gt;Node12</title>
<path fill="none" stroke="midnightblue" d="M791.607,-273.225C801.962,-263.451 813.245,-252.802 822.979,-243.615"/>
<polygon fill="midnightblue" stroke="midnightblue" points="789.136,-270.744 784.266,-280.154 793.941,-275.835 789.136,-270.744"/>
</g>
<!-- Node3 -->
<g id="node5" class="node"><title>Node3</title>
<a xlink:href="../../de/d98/elements_8h.html" target="_top" xlink:title="/home/travis/build\l/LibrePCB/LibrePCB/libs\l/librepcblibrary/elements.h">
<polygon fill="white" stroke="black" points="131.5,-105.5 131.5,-152.5 262.5,-152.5 262.5,-105.5 131.5,-105.5"/>
<text text-anchor="start" x="139.5" y="-139.5" font-family="Helvetica,sans-Serif" font-size="10.00">/home/travis/build</text>
<text text-anchor="start" x="139.5" y="-126.5" font-family="Helvetica,sans-Serif" font-size="10.00">/LibrePCB/LibrePCB/libs</text>
<text text-anchor="middle" x="197" y="-113.5" font-family="Helvetica,sans-Serif" font-size="10.00">/librepcblibrary/elements.h</text>
</a>
</g>
<!-- Node2&#45;&gt;Node3 -->
<g id="edge4" class="edge"><title>Node2&#45;&gt;Node3</title>
<path fill="none" stroke="midnightblue" d="M590.681,-213.842C509.03,-206.218 379.463,-190.345 271,-160 263.622,-157.936 255.999,-155.328 248.576,-152.505"/>
<polygon fill="midnightblue" stroke="midnightblue" points="590.612,-217.35 600.889,-214.776 591.249,-210.379 590.612,-217.35"/>
</g>
<!-- Node6 -->
<g id="node11" class="node"><title>Node6</title>
<a xlink:href="../../d4/df4/footprint_8cpp.html" target="_top" xlink:title="/home/travis/build\l/LibrePCB/LibrePCB/libs\l/librepcblibrary/fpt/footprint.cpp">
<polygon fill="white" stroke="black" points="279.5,-105.5 279.5,-152.5 430.5,-152.5 430.5,-105.5 279.5,-105.5"/>
<text text-anchor="start" x="287.5" y="-139.5" font-family="Helvetica,sans-Serif" font-size="10.00">/home/travis/build</text>
<text text-anchor="start" x="287.5" y="-126.5" font-family="Helvetica,sans-Serif" font-size="10.00">/LibrePCB/LibrePCB/libs</text>
<text text-anchor="middle" x="355" y="-113.5" font-family="Helvetica,sans-Serif" font-size="10.00">/librepcblibrary/fpt/footprint.cpp</text>
</a>
</g>
<!-- Node2&#45;&gt;Node6 -->
<g id="edge10" class="edge"><title>Node2&#45;&gt;Node6</title>
<path fill="none" stroke="midnightblue" d="M590.954,-201.402C545.986,-190.43 489.016,-175.653 439,-160 431.731,-157.725 424.167,-155.185 416.687,-152.565"/>
<polygon fill="midnightblue" stroke="midnightblue" points="590.4,-204.869 600.943,-203.825 592.05,-198.066 590.4,-204.869"/>
</g>
<!-- Node7 -->
<g id="node13" class="node"><title>Node7</title>
<a xlink:href="../../d7/d7d/library_8cpp.html" target="_top" xlink:title="/home/travis/build\l/LibrePCB/LibrePCB/libs\l/librepcblibrary/library.cpp">
<polygon fill="white" stroke="black" points="448,-105.5 448,-152.5 576,-152.5 576,-105.5 448,-105.5"/>
<text text-anchor="start" x="456" y="-139.5" font-family="Helvetica,sans-Serif" font-size="10.00">/home/travis/build</text>
<text text-anchor="start" x="456" y="-126.5" font-family="Helvetica,sans-Serif" font-size="10.00">/LibrePCB/LibrePCB/libs</text>
<text text-anchor="middle" x="512" y="-113.5" font-family="Helvetica,sans-Serif" font-size="10.00">/librepcblibrary/library.cpp</text>
</a>
</g>
<!-- Node2&#45;&gt;Node7 -->
<g id="edge12" class="edge"><title>Node2&#45;&gt;Node7</title>
<path fill="none" stroke="midnightblue" d="M620.846,-191.295C599.048,-178.82 573.826,-164.385 553.153,-152.553"/>
<polygon fill="midnightblue" stroke="midnightblue" points="619.222,-194.399 629.64,-196.328 622.699,-188.323 619.222,-194.399"/>
</g>
<!-- Node8 -->
<g id="node15" class="node"><title>Node8</title>
<a xlink:href="../../dc/d8a/bgi__footprint_8cpp.html" target="_top" xlink:title="/home/travis/build\l/LibrePCB/LibrePCB/libs\l/librepcbproject/boards\l/graphicsitems/bgi_footprint.cpp">
<polygon fill="white" stroke="black" points="593.5,-99 593.5,-159 748.5,-159 748.5,-99 593.5,-99"/>
<text text-anchor="start" x="601.5" y="-146" font-family="Helvetica,sans-Serif" font-size="10.00">/home/travis/build</text>
<text text-anchor="start" x="601.5" y="-133" font-family="Helvetica,sans-Serif" font-size="10.00">/LibrePCB/LibrePCB/libs</text>
<text text-anchor="start" x="601.5" y="-120" font-family="Helvetica,sans-Serif" font-size="10.00">/librepcbproject/boards</text>
<text text-anchor="middle" x="671" y="-107" font-family="Helvetica,sans-Serif" font-size="10.00">/graphicsitems/bgi_footprint.cpp</text>
</a>
</g>
<!-- Node2&#45;&gt;Node8 -->
<g id="edge14" class="edge"><title>Node2&#45;&gt;Node8</title>
<path fill="none" stroke="midnightblue" d="M671,-185.836C671,-177.11 671,-167.79 671,-159.274"/>
<polygon fill="midnightblue" stroke="midnightblue" points="667.5,-186.091 671,-196.091 674.5,-186.091 667.5,-186.091"/>
</g>
<!-- Node9 -->
<g id="node17" class="node"><title>Node9</title>
<a xlink:href="../../de/d33/bi__footprint_8cpp.html" target="_top" xlink:title="/home/travis/build\l/LibrePCB/LibrePCB/libs\l/librepcbproject/boards\l/items/bi_footprint.cpp">
<polygon fill="white" stroke="black" points="765.5,-99 765.5,-159 890.5,-159 890.5,-99 765.5,-99"/>
<text text-anchor="start" x="773.5" y="-146" font-family="Helvetica,sans-Serif" font-size="10.00">/home/travis/build</text>
<text text-anchor="start" x="773.5" y="-133" font-family="Helvetica,sans-Serif" font-size="10.00">/LibrePCB/LibrePCB/libs</text>
<text text-anchor="start" x="773.5" y="-120" font-family="Helvetica,sans-Serif" font-size="10.00">/librepcbproject/boards</text>
<text text-anchor="middle" x="828" y="-107" font-family="Helvetica,sans-Serif" font-size="10.00">/items/bi_footprint.cpp</text>
</a>
</g>
<!-- Node2&#45;&gt;Node9 -->
<g id="edge16" class="edge"><title>Node2&#45;&gt;Node9</title>
<path fill="none" stroke="midnightblue" d="M720.829,-191.118C738.45,-180.905 758.306,-169.396 776.096,-159.085"/>
<polygon fill="midnightblue" stroke="midnightblue" points="718.737,-188.286 711.84,-196.328 722.247,-194.342 718.737,-188.286"/>
</g>
<!-- Node10 -->
<g id="node19" class="node"><title>Node10</title>
<a xlink:href="../../d7/d56/bi__footprintpad_8cpp.html" target="_top" xlink:title="/home/travis/build\l/LibrePCB/LibrePCB/libs\l/librepcbproject/boards\l/items/bi_footprintpad.cpp">
<polygon fill="white" stroke="black" points="907.5,-99 907.5,-159 1036.5,-159 1036.5,-99 907.5,-99"/>
<text text-anchor="start" x="915.5" y="-146" font-family="Helvetica,sans-Serif" font-size="10.00">/home/travis/build</text>
<text text-anchor="start" x="915.5" y="-133" font-family="Helvetica,sans-Serif" font-size="10.00">/LibrePCB/LibrePCB/libs</text>
<text text-anchor="start" x="915.5" y="-120" font-family="Helvetica,sans-Serif" font-size="10.00">/librepcbproject/boards</text>
<text text-anchor="middle" x="972" y="-107" font-family="Helvetica,sans-Serif" font-size="10.00">/items/bi_footprintpad.cpp</text>
</a>
</g>
<!-- Node2&#45;&gt;Node10 -->
<g id="edge18" class="edge"><title>Node2&#45;&gt;Node10</title>
<path fill="none" stroke="midnightblue" d="M750.872,-195.852C817.494,-178.337 837.222,-180.426 899,-160 901.745,-159.092 904.531,-158.125 907.333,-157.114"/>
<polygon fill="midnightblue" stroke="midnightblue" points="749.903,-192.488 741.15,-198.458 751.716,-199.25 749.903,-192.488"/>
</g>
<!-- Node11 -->
<g id="node21" class="node"><title>Node11</title>
<a xlink:href="../../d4/d20/projectlibrary_8cpp.html" target="_top" xlink:title="/home/travis/build\l/LibrePCB/LibrePCB/libs\l/librepcbproject/library\l/projectlibrary.cpp">
<polygon fill="white" stroke="black" points="1053.5,-99 1053.5,-159 1178.5,-159 1178.5,-99 1053.5,-99"/>
<text text-anchor="start" x="1061.5" y="-146" font-family="Helvetica,sans-Serif" font-size="10.00">/home/travis/build</text>
<text text-anchor="start" x="1061.5" y="-133" font-family="Helvetica,sans-Serif" font-size="10.00">/LibrePCB/LibrePCB/libs</text>
<text text-anchor="start" x="1061.5" y="-120" font-family="Helvetica,sans-Serif" font-size="10.00">/librepcbproject/library</text>
<text text-anchor="middle" x="1116" y="-107" font-family="Helvetica,sans-Serif" font-size="10.00">/projectlibrary.cpp</text>
</a>
</g>
<!-- Node2&#45;&gt;Node11 -->
<g id="edge20" class="edge"><title>Node2&#45;&gt;Node11</title>
<path fill="none" stroke="midnightblue" d="M750.992,-195.98C881.157,-169.938 920.692,-193.942 1045,-160 1047.72,-159.256 1050.48,-158.425 1053.24,-157.528"/>
<polygon fill="midnightblue" stroke="midnightblue" points="750.134,-192.583 741.047,-198.031 751.548,-199.439 750.134,-192.583"/>
</g>
<!-- Node4 -->
<g id="node7" class="node"><title>Node4</title>
<a xlink:href="../../da/d6c/cmdprojectlibraryaddelement_8cpp.html" target="_top" xlink:title="/home/travis/build\l/LibrePCB/LibrePCB/libs\l/librepcbproject/library\l/cmd/cmdprojectlibraryaddelement.cpp">
<polygon fill="white" stroke="black" points="-0.5,-1 -0.5,-61 184.5,-61 184.5,-1 -0.5,-1"/>
<text text-anchor="start" x="7.5" y="-48" font-family="Helvetica,sans-Serif" font-size="10.00">/home/travis/build</text>
<text text-anchor="start" x="7.5" y="-35" font-family="Helvetica,sans-Serif" font-size="10.00">/LibrePCB/LibrePCB/libs</text>
<text text-anchor="start" x="7.5" y="-22" font-family="Helvetica,sans-Serif" font-size="10.00">/librepcbproject/library</text>
<text text-anchor="middle" x="92" y="-9" font-family="Helvetica,sans-Serif" font-size="10.00">/cmd/cmdprojectlibraryaddelement.cpp</text>
</a>
</g>
<!-- Node3&#45;&gt;Node4 -->
<g id="edge6" class="edge"><title>Node3&#45;&gt;Node4</title>
<path fill="none" stroke="midnightblue" d="M163.969,-98.1707C151.325,-86.3699 136.926,-72.9309 124.347,-61.1903"/>
<polygon fill="midnightblue" stroke="midnightblue" points="161.884,-101.012 171.582,-105.277 166.66,-95.895 161.884,-101.012"/>
</g>
<!-- Node5 -->
<g id="node9" class="node"><title>Node5</title>
<a xlink:href="../../de/dd2/unplacedcomponentsdock_8cpp.html" target="_top" xlink:title="/home/travis/build\l/LibrePCB/LibrePCB/libs\l/librepcbprojecteditor\l/boardeditor/unplacedcomponentsdock.cpp">
<polygon fill="white" stroke="black" points="201.5,-1 201.5,-61 404.5,-61 404.5,-1 201.5,-1"/>
<text text-anchor="start" x="209.5" y="-48" font-family="Helvetica,sans-Serif" font-size="10.00">/home/travis/build</text>
<text text-anchor="start" x="209.5" y="-35" font-family="Helvetica,sans-Serif" font-size="10.00">/LibrePCB/LibrePCB/libs</text>
<text text-anchor="start" x="209.5" y="-22" font-family="Helvetica,sans-Serif" font-size="10.00">/librepcbprojecteditor</text>
<text text-anchor="middle" x="303" y="-9" font-family="Helvetica,sans-Serif" font-size="10.00">/boardeditor/unplacedcomponentsdock.cpp</text>
</a>
</g>
<!-- Node3&#45;&gt;Node5 -->
<g id="edge8" class="edge"><title>Node3&#45;&gt;Node5</title>
<path fill="none" stroke="midnightblue" d="M230.346,-98.1707C243.11,-86.3699 257.646,-72.9309 270.345,-61.1903"/>
<polygon fill="midnightblue" stroke="midnightblue" points="227.626,-95.9184 222.66,-105.277 232.378,-101.058 227.626,-95.9184"/>
</g>
</g>
</svg>
