<?xml version="1.0" encoding="UTF-8" standalone="no"?>
<!DOCTYPE svg PUBLIC "-//W3C//DTD SVG 1.1//EN"
 "http://www.w3.org/Graphics/SVG/1.1/DTD/svg11.dtd">
<!-- Generated by graphviz version 2.26.3 (20100126.1600)
 -->
<!-- Title: mapToGrid Pages: 1 -->
<svg width="802pt" height="260pt"
 viewBox="0.00 0.00 802.00 260.00" xmlns="http://www.w3.org/2000/svg" xmlns:xlink="http://www.w3.org/1999/xlink">
<g id="graph1" class="graph" transform="scale(1 1) rotate(0) translate(4 256)">
<title>mapToGrid</title>
<polygon fill="white" stroke="white" points="-4,5 -4,-256 799,-256 799,5 -4,5"/>
<!-- Node1 -->
<g id="node1" class="node"><title>Node1</title>
<polygon fill="#bfbfbf" stroke="black" points="0.5,-150.5 0.5,-171.5 65.5,-171.5 65.5,-150.5 0.5,-150.5"/>
<text text-anchor="middle" x="33" y="-158.5" font-family="Helvetica,sans-Serif" font-size="10.00">mapToGrid</text>
</g>
<!-- Node2 -->
<g id="node3" class="node"><title>Node2</title>
<a xlink:href="../../df/df0/class_length.html#a4102696e510a98e3d460ac510941ee12" target="_top" xlink:title="Get a Length object which is mapped to a specific grid interval. ">
<polygon fill="white" stroke="black" points="102,-230.5 102,-251.5 182,-251.5 182,-230.5 102,-230.5"/>
<text text-anchor="middle" x="142" y="-238.5" font-family="Helvetica,sans-Serif" font-size="10.00">mappedToGrid</text>
</a>
</g>
<!-- Node1&#45;&gt;Node2 -->
<g id="edge2" class="edge"><title>Node1&#45;&gt;Node2</title>
<path fill="none" stroke="midnightblue" d="M51.0623,-178.969C64.4136,-191.668 83.4258,-208.572 102,-221 107.033,-224.368 112.713,-227.54 118.177,-230.323"/>
<polygon fill="midnightblue" stroke="midnightblue" points="53.1548,-176.123 43.5353,-171.683 48.2864,-181.153 53.1548,-176.123"/>
</g>
<!-- Node3 -->
<g id="node5" class="node"><title>Node3</title>
<a xlink:href="../../df/df0/class_length.html#a796af485ddae7b24093b8b70f790c42b" target="_top" xlink:title="Get a Length object with a specific length and map it to a specific grid. ">
<polygon fill="white" stroke="black" points="115.5,-110.5 115.5,-131.5 168.5,-131.5 168.5,-110.5 115.5,-110.5"/>
<text text-anchor="middle" x="142" y="-118.5" font-family="Helvetica,sans-Serif" font-size="10.00">fromMm</text>
</a>
</g>
<!-- Node1&#45;&gt;Node3 -->
<g id="edge4" class="edge"><title>Node1&#45;&gt;Node3</title>
<path fill="none" stroke="midnightblue" d="M71.3898,-146.912C85.9472,-141.57 102.19,-135.609 115.423,-130.753"/>
<polygon fill="midnightblue" stroke="midnightblue" points="69.8205,-143.76 61.6385,-150.49 72.2321,-150.331 69.8205,-143.76"/>
</g>
<!-- Node14 -->
<g id="node27" class="node"><title>Node14</title>
<a xlink:href="../../df/df0/class_length.html#a8799d9ea9315b068c08f60b63c4467db" target="_top" xlink:title="Get a Length object with a specific length and map it to a specific grid. ">
<polygon fill="white" stroke="black" points="114.5,-190.5 114.5,-211.5 169.5,-211.5 169.5,-190.5 114.5,-190.5"/>
<text text-anchor="middle" x="142" y="-198.5" font-family="Helvetica,sans-Serif" font-size="10.00">fromInch</text>
</a>
</g>
<!-- Node1&#45;&gt;Node14 -->
<g id="edge26" class="edge"><title>Node1&#45;&gt;Node14</title>
<path fill="none" stroke="midnightblue" d="M71.1609,-175.004C85.3701,-180.218 101.212,-186.032 114.305,-190.837"/>
<polygon fill="midnightblue" stroke="midnightblue" points="72.2321,-171.669 61.6385,-171.51 69.8205,-178.24 72.2321,-171.669"/>
</g>
<!-- Node15 -->
<g id="node30" class="node"><title>Node15</title>
<a xlink:href="../../df/df0/class_length.html#ace122f12cdca72e87820635a2ba1952e" target="_top" xlink:title="Get a Length object with a specific length and map it to a specific grid. ">
<polygon fill="white" stroke="black" points="117.5,-150.5 117.5,-171.5 166.5,-171.5 166.5,-150.5 117.5,-150.5"/>
<text text-anchor="middle" x="142" y="-158.5" font-family="Helvetica,sans-Serif" font-size="10.00">fromMil</text>
</a>
</g>
<!-- Node1&#45;&gt;Node15 -->
<g id="edge30" class="edge"><title>Node1&#45;&gt;Node15</title>
<path fill="none" stroke="midnightblue" d="M75.7139,-161C89.8085,-161 105.008,-161 117.292,-161"/>
<polygon fill="midnightblue" stroke="midnightblue" points="75.7036,-157.5 65.7036,-161 75.7036,-164.5 75.7036,-157.5"/>
</g>
<!-- Node16 -->
<g id="node33" class="node"><title>Node16</title>
<a xlink:href="../../df/df0/class_length.html#ae918eccd300947e817bb9c7b5a10099d" target="_top" xlink:title="Get a Length object with a specific length and map it to a specific grid. ">
<polygon fill="white" stroke="black" points="118,-70.5 118,-91.5 166,-91.5 166,-70.5 118,-70.5"/>
<text text-anchor="middle" x="142" y="-78.5" font-family="Helvetica,sans-Serif" font-size="10.00">fromPx</text>
</a>
</g>
<!-- Node1&#45;&gt;Node16 -->
<g id="edge34" class="edge"><title>Node1&#45;&gt;Node16</title>
<path fill="none" stroke="midnightblue" d="M51.0623,-143.031C64.4136,-130.332 83.4258,-113.428 102,-101 107.033,-97.6322 112.713,-94.46 118.177,-91.6768"/>
<polygon fill="midnightblue" stroke="midnightblue" points="48.2864,-140.847 43.5353,-150.317 53.1548,-145.877 48.2864,-140.847"/>
</g>
<!-- Node4 -->
<g id="node7" class="node"><title>Node4</title>
<a xlink:href="../../dd/d55/class_length_unit.html#ad66df98a1f06d30ac6f15516ce54633f" target="_top" xlink:title="Convert a floating point number with this unit to a Length object. ">
<polygon fill="white" stroke="black" points="230.5,-173.5 230.5,-194.5 373.5,-194.5 373.5,-173.5 230.5,-173.5"/>
<text text-anchor="middle" x="302" y="-181.5" font-family="Helvetica,sans-Serif" font-size="10.00">LengthUnit::convertFromUnit</text>
</a>
</g>
<!-- Node3&#45;&gt;Node4 -->
<g id="edge6" class="edge"><title>Node3&#45;&gt;Node4</title>
<path fill="none" stroke="midnightblue" d="M178.29,-135.289C207.73,-146.881 248.565,-162.96 275.132,-173.421"/>
<polygon fill="midnightblue" stroke="midnightblue" points="179.367,-131.952 168.78,-131.545 176.803,-138.465 179.367,-131.952"/>
</g>
<!-- Node7 -->
<g id="node13" class="node"><title>Node7</title>
<a xlink:href="../../dc/dbb/classproject_1_1_unplaced_components_dock.html#a41c3c33dc2c3c5545110b742d536cc76" target="_top" xlink:title="project::UnplacedComponents\lDock::addComponent">
<polygon fill="white" stroke="black" points="227.5,-104 227.5,-138 376.5,-138 376.5,-104 227.5,-104"/>
<text text-anchor="start" x="235.5" y="-125" font-family="Helvetica,sans-Serif" font-size="10.00">project::UnplacedComponents</text>
<text text-anchor="middle" x="302" y="-112" font-family="Helvetica,sans-Serif" font-size="10.00">Dock::addComponent</text>
</a>
</g>
<!-- Node3&#45;&gt;Node7 -->
<g id="edge12" class="edge"><title>Node3&#45;&gt;Node7</title>
<path fill="none" stroke="midnightblue" d="M178.833,-121C193.356,-121 210.588,-121 227.491,-121"/>
<polygon fill="midnightblue" stroke="midnightblue" points="178.78,-117.5 168.78,-121 178.78,-124.5 178.78,-117.5"/>
</g>
<!-- Node11 -->
<g id="node21" class="node"><title>Node11</title>
<a xlink:href="../../d9/de8/classproject_1_1_symbol_instance_properties_dialog.html#ac5b9ac3ae6ade6886893179b59302ec1" target="_top" xlink:title="project::SymbolInstanceProperties\lDialog::applyChanges">
<polygon fill="white" stroke="black" points="218.5,-26 218.5,-60 385.5,-60 385.5,-26 218.5,-26"/>
<text text-anchor="start" x="226.5" y="-47" font-family="Helvetica,sans-Serif" font-size="10.00">project::SymbolInstanceProperties</text>
<text text-anchor="middle" x="302" y="-34" font-family="Helvetica,sans-Serif" font-size="10.00">Dialog::applyChanges</text>
</a>
</g>
<!-- Node3&#45;&gt;Node11 -->
<g id="edge20" class="edge"><title>Node3&#45;&gt;Node11</title>
<path fill="none" stroke="midnightblue" d="M172.916,-105.928C199.866,-92.7903 238.928,-73.7474 267.016,-60.0549"/>
<polygon fill="midnightblue" stroke="midnightblue" points="171.033,-102.952 163.578,-110.481 174.101,-109.245 171.033,-102.952"/>
</g>
<!-- Node5 -->
<g id="node9" class="node"><title>Node5</title>
<a xlink:href="../../dc/d4e/class_grid_settings_dialog.html#a1d0a287161effff06f3a2dd172475420" target="_top" xlink:title="GridSettingsDialog\l::spbxIntervalChanged">
<polygon fill="white" stroke="black" points="448.5,-208 448.5,-242 563.5,-242 563.5,-208 448.5,-208"/>
<text text-anchor="start" x="456.5" y="-229" font-family="Helvetica,sans-Serif" font-size="10.00">GridSettingsDialog</text>
<text text-anchor="middle" x="506" y="-216" font-family="Helvetica,sans-Serif" font-size="10.00">::spbxIntervalChanged</text>
</a>
</g>
<!-- Node4&#45;&gt;Node5 -->
<g id="edge8" class="edge"><title>Node4&#45;&gt;Node5</title>
<path fill="none" stroke="midnightblue" d="M364.31,-196.523C391.108,-201.909 422.237,-208.165 448.481,-213.44"/>
<polygon fill="midnightblue" stroke="midnightblue" points="364.764,-193.044 354.27,-194.505 363.384,-199.907 364.764,-193.044"/>
</g>
<!-- Node6 -->
<g id="node11" class="node"><title>Node6</title>
<a xlink:href="../../dc/d4e/class_grid_settings_dialog.html#accb85452fe6ac5e053dcaae228cd9866" target="_top" xlink:title="GridSettingsDialog\l::GridSettingsDialog">
<polygon fill="white" stroke="black" points="658,-208 658,-242 762,-242 762,-208 658,-208"/>
<text text-anchor="start" x="666" y="-229" font-family="Helvetica,sans-Serif" font-size="10.00">GridSettingsDialog</text>
<text text-anchor="middle" x="710" y="-216" font-family="Helvetica,sans-Serif" font-size="10.00">::GridSettingsDialog</text>
</a>
</g>
<!-- Node5&#45;&gt;Node6 -->
<g id="edge10" class="edge"><title>Node5&#45;&gt;Node6</title>
<path fill="none" stroke="midnightblue" d="M573.909,-225C601.224,-225 632.224,-225 657.731,-225"/>
<polygon fill="midnightblue" stroke="midnightblue" points="573.64,-221.5 563.64,-225 573.64,-228.5 573.64,-221.5"/>
</g>
<!-- Node8 -->
<g id="node15" class="node"><title>Node8</title>
<a xlink:href="../../dc/dbb/classproject_1_1_unplaced_components_dock.html#accd0a903591840efc04eae995ba9518a" target="_top" xlink:title="project::UnplacedComponents\lDock::on_btnAdd_clicked">
<polygon fill="white" stroke="black" points="431.5,-156 431.5,-190 580.5,-190 580.5,-156 431.5,-156"/>
<text text-anchor="start" x="439.5" y="-177" font-family="Helvetica,sans-Serif" font-size="10.00">project::UnplacedComponents</text>
<text text-anchor="middle" x="506" y="-164" font-family="Helvetica,sans-Serif" font-size="10.00">Dock::on_btnAdd_clicked</text>
</a>
</g>
<!-- Node7&#45;&gt;Node8 -->
<g id="edge14" class="edge"><title>Node7&#45;&gt;Node8</title>
<path fill="none" stroke="midnightblue" d="M378.72,-140.556C398.558,-145.613 419.758,-151.017 439.053,-155.935"/>
<polygon fill="midnightblue" stroke="midnightblue" points="379.352,-137.105 368.797,-138.027 377.623,-143.888 379.352,-137.105"/>
</g>
<!-- Node9 -->
<g id="node17" class="node"><title>Node9</title>
<a xlink:href="../../dc/dbb/classproject_1_1_unplaced_components_dock.html#af175cf3f7948ac944834cad09819b753" target="_top" xlink:title="project::UnplacedComponents\lDock::on_pushButton_clicked">
<polygon fill="white" stroke="black" points="431.5,-104 431.5,-138 580.5,-138 580.5,-104 431.5,-104"/>
<text text-anchor="start" x="439.5" y="-125" font-family="Helvetica,sans-Serif" font-size="10.00">project::UnplacedComponents</text>
<text text-anchor="middle" x="506" y="-112" font-family="Helvetica,sans-Serif" font-size="10.00">Dock::on_pushButton_clicked</text>
</a>
</g>
<!-- Node7&#45;&gt;Node9 -->
<g id="edge16" class="edge"><title>Node7&#45;&gt;Node9</title>
<path fill="none" stroke="midnightblue" d="M386.679,-121C401.499,-121 416.822,-121 431.346,-121"/>
<polygon fill="midnightblue" stroke="midnightblue" points="386.515,-117.5 376.515,-121 386.515,-124.5 386.515,-117.5"/>
</g>
<!-- Node10 -->
<g id="node19" class="node"><title>Node10</title>
<a xlink:href="../../dc/dbb/classproject_1_1_unplaced_components_dock.html#ae18908ab5cceaf70614eaf307a041e8a" target="_top" xlink:title="project::UnplacedComponents\lDock::on_btnAddAll_clicked">
<polygon fill="white" stroke="black" points="431.5,-52 431.5,-86 580.5,-86 580.5,-52 431.5,-52"/>
<text text-anchor="start" x="439.5" y="-73" font-family="Helvetica,sans-Serif" font-size="10.00">project::UnplacedComponents</text>
<text text-anchor="middle" x="506" y="-60" font-family="Helvetica,sans-Serif" font-size="10.00">Dock::on_btnAddAll_clicked</text>
</a>
</g>
<!-- Node7&#45;&gt;Node10 -->
<g id="edge18" class="edge"><title>Node7&#45;&gt;Node10</title>
<path fill="none" stroke="midnightblue" d="M378.72,-101.444C398.558,-96.3872 419.758,-90.9833 439.053,-86.065"/>
<polygon fill="midnightblue" stroke="midnightblue" points="377.623,-98.1116 368.797,-103.973 379.352,-104.895 377.623,-98.1116"/>
</g>
<!-- Node12 -->
<g id="node23" class="node"><title>Node12</title>
<a xlink:href="../../d9/de8/classproject_1_1_symbol_instance_properties_dialog.html#aadb9f3b844fb4cf98288cd3c60a3af91" target="_top" xlink:title="project::SymbolInstanceProperties\lDialog::accept">
<polygon fill="white" stroke="black" points="422.5,-0 422.5,-34 589.5,-34 589.5,-0 422.5,-0"/>
<text text-anchor="start" x="430.5" y="-21" font-family="Helvetica,sans-Serif" font-size="10.00">project::SymbolInstanceProperties</text>
<text text-anchor="middle" x="506" y="-8" font-family="Helvetica,sans-Serif" font-size="10.00">Dialog::accept</text>
</a>
</g>
<!-- Node11&#45;&gt;Node12 -->
<g id="edge22" class="edge"><title>Node11&#45;&gt;Node12</title>
<path fill="none" stroke="midnightblue" d="M395.558,-31.076C404.456,-29.9419 413.44,-28.7969 422.237,-27.6757"/>
<polygon fill="midnightblue" stroke="midnightblue" points="395.04,-27.6135 385.563,-32.3498 395.926,-34.5573 395.04,-27.6135"/>
</g>
<!-- Node13 -->
<g id="node25" class="node"><title>Node13</title>
<a xlink:href="../../d9/de8/classproject_1_1_symbol_instance_properties_dialog.html#a9e53392568d47bcb31ccbde9917efb0c" target="_top" xlink:title="project::SymbolInstanceProperties\lDialog::keyPressEvent">
<polygon fill="white" stroke="black" points="626.5,-0 626.5,-34 793.5,-34 793.5,-0 626.5,-0"/>
<text text-anchor="start" x="634.5" y="-21" font-family="Helvetica,sans-Serif" font-size="10.00">project::SymbolInstanceProperties</text>
<text text-anchor="middle" x="710" y="-8" font-family="Helvetica,sans-Serif" font-size="10.00">Dialog::keyPressEvent</text>
</a>
</g>
<!-- Node12&#45;&gt;Node13 -->
<g id="edge24" class="edge"><title>Node12&#45;&gt;Node13</title>
<path fill="none" stroke="midnightblue" d="M599.845,-17C608.649,-17 617.534,-17 626.237,-17"/>
<polygon fill="midnightblue" stroke="midnightblue" points="599.563,-13.5001 589.563,-17 599.563,-20.5001 599.563,-13.5001"/>
</g>
<!-- Node14&#45;&gt;Node4 -->
<g id="edge28" class="edge"><title>Node14&#45;&gt;Node4</title>
<path fill="none" stroke="midnightblue" d="M179.495,-197.016C194.647,-195.406 212.665,-193.492 230.158,-191.633"/>
<polygon fill="midnightblue" stroke="midnightblue" points="179.079,-193.541 169.505,-198.078 179.819,-200.501 179.079,-193.541"/>
</g>
<!-- Node15&#45;&gt;Node4 -->
<g id="edge32" class="edge"><title>Node15&#45;&gt;Node4</title>
<path fill="none" stroke="midnightblue" d="M176.912,-166.019C192.601,-168.274 211.724,-171.023 230.251,-173.686"/>
<polygon fill="midnightblue" stroke="midnightblue" points="177.046,-162.502 166.649,-164.543 176.05,-169.431 177.046,-162.502"/>
</g>
</g>
</svg>
