<?xml version="1.0" encoding="UTF-8" standalone="no"?>
<!DOCTYPE svg PUBLIC "-//W3C//DTD SVG 1.1//EN"
 "http://www.w3.org/Graphics/SVG/1.1/DTD/svg11.dtd">
<!-- Generated by graphviz version 2.26.3 (20100126.1600)
 -->
<!-- Title: removeComponentInstance Pages: 1 -->
<svg width="344pt" height="134pt"
 viewBox="0.00 0.00 344.00 134.00" xmlns="http://www.w3.org/2000/svg" xmlns:xlink="http://www.w3.org/1999/xlink">
<g id="graph1" class="graph" transform="scale(1 1) rotate(0) translate(4 130)">
<title>removeComponentInstance</title>
<polygon fill="white" stroke="white" points="-4,5 -4,-130 341,-130 341,5 -4,5"/>
<!-- Node1 -->
<g id="node1" class="node"><title>Node1</title>
<polygon fill="#bfbfbf" stroke="black" points="0.5,-58.5 0.5,-79.5 137.5,-79.5 137.5,-58.5 0.5,-58.5"/>
<text text-anchor="middle" x="69" y="-66.5" font-family="Helvetica,sans-Serif" font-size="10.00">removeComponentInstance</text>
</g>
<!-- Node2 -->
<g id="node3" class="node"><title>Node2</title>
<a xlink:href="../../d5/d07/classproject_1_1_board.html#a555b5a05c0652dce646b1ef2b8c42759" target="_top" xlink:title="~Board">
<polygon fill="white" stroke="black" points="231,-104.5 231,-125.5 279,-125.5 279,-104.5 231,-104.5"/>
<text text-anchor="middle" x="255" y="-112.5" font-family="Helvetica,sans-Serif" font-size="10.00">~Board</text>
</a>
</g>
<!-- Node1&#45;&gt;Node2 -->
<g id="edge2" class="edge"><title>Node1&#45;&gt;Node2</title>
<path fill="none" stroke="midnightblue" d="M121.565,-82.0234C138.322,-86.1732 156.94,-90.7817 174,-95 193.123,-99.7286 214.789,-105.078 230.898,-109.053"/>
<polygon fill="midnightblue" stroke="midnightblue" points="121.951,-78.5132 111.402,-79.5064 120.268,-85.3079 121.951,-78.5132"/>
</g>
<!-- Node3 -->
<g id="node5" class="node"><title>Node3</title>
<a xlink:href="../../d6/d6a/classproject_1_1_cmd_component_instance_add.html#a91ca7652063093da57fc1bd0141dcc95" target="_top" xlink:title="Redo/execute the command (and all child commands in normal order) ">
<polygon fill="white" stroke="black" points="174.5,-52 174.5,-86 335.5,-86 335.5,-52 174.5,-52"/>
<text text-anchor="start" x="182.5" y="-73" font-family="Helvetica,sans-Serif" font-size="10.00">project::CmdComponentInstance</text>
<text text-anchor="middle" x="255" y="-60" font-family="Helvetica,sans-Serif" font-size="10.00">Add::redo</text>
</a>
</g>
<!-- Node1&#45;&gt;Node3 -->
<g id="edge4" class="edge"><title>Node1&#45;&gt;Node3</title>
<path fill="none" stroke="midnightblue" d="M147.889,-69C156.624,-69 165.53,-69 174.287,-69"/>
<polygon fill="midnightblue" stroke="midnightblue" points="147.731,-65.5001 137.731,-69 147.731,-72.5001 147.731,-65.5001"/>
</g>
<!-- Node4 -->
<g id="node7" class="node"><title>Node4</title>
<a xlink:href="../../d6/d6a/classproject_1_1_cmd_component_instance_add.html#a19e8778088bfe76b16745470981bb913" target="_top" xlink:title="Undo the command (and all child commands in reverse order) ">
<polygon fill="white" stroke="black" points="174.5,-0 174.5,-34 335.5,-34 335.5,-0 174.5,-0"/>
<text text-anchor="start" x="182.5" y="-21" font-family="Helvetica,sans-Serif" font-size="10.00">project::CmdComponentInstance</text>
<text text-anchor="middle" x="255" y="-8" font-family="Helvetica,sans-Serif" font-size="10.00">Add::undo</text>
</a>
</g>
<!-- Node1&#45;&gt;Node4 -->
<g id="edge6" class="edge"><title>Node1&#45;&gt;Node4</title>
<path fill="none" stroke="midnightblue" d="M116.404,-55.7473C139.988,-49.1538 168.772,-41.1068 193.984,-34.0582"/>
<polygon fill="midnightblue" stroke="midnightblue" points="115.328,-52.4137 106.64,-58.477 117.213,-59.1552 115.328,-52.4137"/>
</g>
</g>
</svg>
