<?xml version="1.0" encoding="UTF-8" standalone="no"?>
<!DOCTYPE svg PUBLIC "-//W3C//DTD SVG 1.1//EN"
 "http://www.w3.org/Graphics/SVG/1.1/DTD/svg11.dtd">
<!-- Generated by graphviz version 2.26.3 (20100126.1600)
 -->
<!-- Title: clearSelection Pages: 1 -->
<svg width="604pt" height="116pt"
 viewBox="0.00 0.00 604.00 116.00" xmlns="http://www.w3.org/2000/svg" xmlns:xlink="http://www.w3.org/1999/xlink">
<g id="graph1" class="graph" transform="scale(1 1) rotate(0) translate(4 112)">
<title>clearSelection</title>
<polygon fill="white" stroke="white" points="-4,5 -4,-112 601,-112 601,5 -4,5"/>
<!-- Node1 -->
<g id="node1" class="node"><title>Node1</title>
<polygon fill="#bfbfbf" stroke="black" points="0,-54.5 0,-75.5 78,-75.5 78,-54.5 0,-54.5"/>
<text text-anchor="middle" x="39" y="-62.5" font-family="Helvetica,sans-Serif" font-size="10.00">clearSelection</text>
</g>
<!-- Node2 -->
<g id="node3" class="node"><title>Node2</title>
<a xlink:href="../../d0/d7d/classproject_1_1_component_instance.html#a43009465a74e4ea29421f269c876916d" target="_top" xlink:title="project::ComponentInstance\l::getFootprint">
<polygon fill="white" stroke="black" points="114,-74 114,-108 254,-108 254,-74 114,-74"/>
<text text-anchor="start" x="122" y="-95" font-family="Helvetica,sans-Serif" font-size="10.00">project::ComponentInstance</text>
<text text-anchor="middle" x="184" y="-82" font-family="Helvetica,sans-Serif" font-size="10.00">::getFootprint</text>
</a>
</g>
<!-- Node1&#45;&gt;Node2 -->
<g id="edge2" class="edge"><title>Node1&#45;&gt;Node2</title>
<path fill="none" stroke="midnightblue" d="M78.2391,-72.036C86.2829,-73.4783 95.0242,-75.0457 103.919,-76.6407"/>
<polygon fill="midnightblue" stroke="midnightblue" points="103.538,-80.128 113.999,-78.448 104.773,-73.2379 103.538,-80.128"/>
</g>
<!-- Node3 -->
<g id="node5" class="node"><title>Node3</title>
<a xlink:href="../../da/d96/classproject_1_1_b_i___footprint.html#ad73a1407a19f935203851d27f9fb3903" target="_top" xlink:title="project::BI_Footprint\l::setSelected">
<polygon fill="white" stroke="black" points="131.5,-22 131.5,-56 236.5,-56 236.5,-22 131.5,-22"/>
<text text-anchor="start" x="139.5" y="-43" font-family="Helvetica,sans-Serif" font-size="10.00">project::BI_Footprint</text>
<text text-anchor="middle" x="184" y="-30" font-family="Helvetica,sans-Serif" font-size="10.00">::setSelected</text>
</a>
</g>
<!-- Node1&#45;&gt;Node3 -->
<g id="edge4" class="edge"><title>Node1&#45;&gt;Node3</title>
<path fill="none" stroke="midnightblue" d="M78.2391,-57.964C91.5275,-55.5813 106.719,-52.8572 121.364,-50.2313"/>
<polygon fill="midnightblue" stroke="midnightblue" points="122.16,-53.6445 131.385,-48.4344 120.924,-46.7544 122.16,-53.6445"/>
</g>
<!-- Node4 -->
<g id="node7" class="node"><title>Node4</title>
<a xlink:href="../../da/dc8/classproject_1_1_b_i___base.html#ab98bb60eca6122e4def2f7d285046547" target="_top" xlink:title="project::BI_Base::setSelected">
<polygon fill="white" stroke="black" points="448.5,-28.5 448.5,-49.5 595.5,-49.5 595.5,-28.5 448.5,-28.5"/>
<text text-anchor="middle" x="522" y="-36.5" font-family="Helvetica,sans-Serif" font-size="10.00">project::BI_Base::setSelected</text>
</a>
</g>
<!-- Node3&#45;&gt;Node4 -->
<g id="edge6" class="edge"><title>Node3&#45;&gt;Node4</title>
<path fill="none" stroke="midnightblue" d="M236.557,-41.3754C253.602,-42.0409 272.6,-42.6718 290,-43 344.213,-44.0225 357.787,-43.9854 412,-43 420.538,-42.8448 429.446,-42.622 438.336,-42.3597"/>
<polygon fill="midnightblue" stroke="midnightblue" points="438.458,-45.8578 448.344,-42.0485 438.24,-38.8611 438.458,-45.8578"/>
</g>
<!-- Node5 -->
<g id="node9" class="node"><title>Node5</title>
<a xlink:href="../../d4/ddd/classproject_1_1_b_i___footprint_pad.html#ad73a1407a19f935203851d27f9fb3903" target="_top" xlink:title="project::BI_FootprintPad\l::setSelected">
<polygon fill="white" stroke="black" points="290,-0 290,-34 412,-34 412,-0 290,-0"/>
<text text-anchor="start" x="298" y="-21" font-family="Helvetica,sans-Serif" font-size="10.00">project::BI_FootprintPad</text>
<text text-anchor="middle" x="351" y="-8" font-family="Helvetica,sans-Serif" font-size="10.00">::setSelected</text>
</a>
</g>
<!-- Node3&#45;&gt;Node5 -->
<g id="edge8" class="edge"><title>Node3&#45;&gt;Node5</title>
<path fill="none" stroke="midnightblue" d="M236.84,-32.0391C250.373,-30.2562 265.155,-28.309 279.458,-26.4247"/>
<polygon fill="midnightblue" stroke="midnightblue" points="280.306,-29.8432 289.764,-25.0671 279.392,-22.9032 280.306,-29.8432"/>
</g>
<!-- Node5&#45;&gt;Node4 -->
<g id="edge10" class="edge"><title>Node5&#45;&gt;Node4</title>
<path fill="none" stroke="midnightblue" d="M412.252,-24.8804C420.747,-25.9733 429.589,-27.1109 438.405,-28.2451"/>
<polygon fill="midnightblue" stroke="midnightblue" points="437.962,-31.7169 448.327,-29.5216 438.856,-24.7741 437.962,-31.7169"/>
</g>
</g>
</svg>
