<?xml version="1.0" encoding="UTF-8" standalone="no"?>
<!DOCTYPE svg PUBLIC "-//W3C//DTD SVG 1.1//EN"
 "http://www.w3.org/Graphics/SVG/1.1/DTD/svg11.dtd">
<!-- Generated by graphviz version 2.26.3 (20100126.1600)
 -->
<!-- Title: loadElements Pages: 1 -->
<svg width="258pt" height="82pt"
 viewBox="0.00 0.00 258.00 82.00" xmlns="http://www.w3.org/2000/svg" xmlns:xlink="http://www.w3.org/1999/xlink">
<g id="graph1" class="graph" transform="scale(1 1) rotate(0) translate(4 78)">
<title>loadElements</title>
<polygon fill="white" stroke="white" points="-4,5 -4,-78 255,-78 255,5 -4,5"/>
<!-- Node1 -->
<g id="node1" class="node"><title>Node1</title>
<polygon fill="#bfbfbf" stroke="black" points="0,-23.5 0,-44.5 76,-44.5 76,-23.5 0,-23.5"/>
<text text-anchor="middle" x="38" y="-31.5" font-family="Helvetica,sans-Serif" font-size="10.00">loadElements</text>
</g>
<!-- Node2 -->
<g id="node3" class="node"><title>Node2</title>
<a xlink:href="../../dd/d8a/classlibrary_1_1_library_base_element.html#a628de6fd2b62ced10f53c1bf9e337ffe" target="_top" xlink:title="Check whether a directory contains a valid library element or not. ">
<polygon fill="white" stroke="black" points="112.5,-40 112.5,-74 249.5,-74 249.5,-40 112.5,-40"/>
<text text-anchor="start" x="120.5" y="-61" font-family="Helvetica,sans-Serif" font-size="10.00">library::LibraryBaseElement</text>
<text text-anchor="middle" x="181" y="-48" font-family="Helvetica,sans-Serif" font-size="10.00">::isDirectoryValidElement</text>
</a>
</g>
<!-- Node1&#45;&gt;Node2 -->
<g id="edge2" class="edge"><title>Node1&#45;&gt;Node2</title>
<path fill="none" stroke="midnightblue" d="M76.3214,-40.1636C84.5234,-41.4828 93.4739,-42.9224 102.575,-44.3863"/>
<polygon fill="midnightblue" stroke="midnightblue" points="102.054,-47.8472 112.483,-45.9797 103.165,-40.9361 102.054,-47.8472"/>
</g>
<!-- Node3 -->
<g id="node5" class="node"><title>Node3</title>
<a xlink:href="../../d4/d1c/class_file_path.html#af27e4f117ace775ab38ae937c12cd37a" target="_top" xlink:title="Get the absolute filepath with native directory separators (&quot;/&quot; resp. &quot;\&quot;) ">
<polygon fill="white" stroke="black" points="133.5,-0.5 133.5,-21.5 228.5,-21.5 228.5,-0.5 133.5,-0.5"/>
<text text-anchor="middle" x="181" y="-8.5" font-family="Helvetica,sans-Serif" font-size="10.00">FilePath::toNative</text>
</a>
</g>
<!-- Node1&#45;&gt;Node3 -->
<g id="edge4" class="edge"><title>Node1&#45;&gt;Node3</title>
<path fill="none" stroke="midnightblue" d="M76.3214,-27.8364C90.7088,-25.5224 107.399,-22.8379 123.168,-20.3016"/>
<polygon fill="midnightblue" stroke="midnightblue" points="124.047,-23.7053 133.364,-18.6617 122.936,-16.7941 124.047,-23.7053"/>
</g>
</g>
</svg>
