<?xml version="1.0" encoding="UTF-8" standalone="no"?>
<!DOCTYPE svg PUBLIC "-//W3C//DTD SVG 1.1//EN"
 "http://www.w3.org/Graphics/SVG/1.1/DTD/svg11.dtd">
<!-- Generated by graphviz version 2.26.3 (20100126.1600)
 -->
<!-- Title: rescan Pages: 1 -->
<svg width="362pt" height="110pt"
 viewBox="0.00 0.00 362.00 110.00" xmlns="http://www.w3.org/2000/svg" xmlns:xlink="http://www.w3.org/1999/xlink">
<g id="graph1" class="graph" transform="scale(1 1) rotate(0) translate(4 106)">
<title>rescan</title>
<polygon fill="white" stroke="white" points="-4,5 -4,-106 359,-106 359,5 -4,5"/>
<!-- Node1 -->
<g id="node1" class="node"><title>Node1</title>
<polygon fill="#bfbfbf" stroke="black" points="0,-20.5 0,-41.5 46,-41.5 46,-20.5 0,-20.5"/>
<text text-anchor="middle" x="23" y="-28.5" font-family="Helvetica,sans-Serif" font-size="10.00">rescan</text>
</g>
<!-- Node2 -->
<g id="node3" class="node"><title>Node2</title>
<a xlink:href="../../de/d02/classlibrary_1_1_library.html#a7252d2908c652122452d1f47b8c7bb16" target="_top" xlink:title="clearDatabaseAndCreateTables">
<polygon fill="white" stroke="black" points="82.5,-40.5 82.5,-61.5 237.5,-61.5 237.5,-40.5 82.5,-40.5"/>
<text text-anchor="middle" x="160" y="-48.5" font-family="Helvetica,sans-Serif" font-size="10.00">clearDatabaseAndCreateTables</text>
</a>
</g>
<!-- Node1&#45;&gt;Node2 -->
<g id="edge2" class="edge"><title>Node1&#45;&gt;Node2</title>
<path fill="none" stroke="midnightblue" d="M46.2402,-34.3927C55.2741,-35.7115 66.209,-37.3079 77.6835,-38.983"/>
<polygon fill="midnightblue" stroke="midnightblue" points="77.4712,-42.489 87.872,-40.4704 78.4825,-35.5624 77.4712,-42.489"/>
</g>
<!-- Node5 -->
<g id="node9" class="node"><title>Node5</title>
<a xlink:href="../../de/d02/classlibrary_1_1_library.html#af2169476bf038e2de29eb968e25c561e" target="_top" xlink:title="getAllXmlFilesInLibDir">
<polygon fill="white" stroke="black" points="103.5,-0.5 103.5,-21.5 216.5,-21.5 216.5,-0.5 103.5,-0.5"/>
<text text-anchor="middle" x="160" y="-8.5" font-family="Helvetica,sans-Serif" font-size="10.00">getAllXmlFilesInLibDir</text>
</a>
</g>
<!-- Node1&#45;&gt;Node5 -->
<g id="edge8" class="edge"><title>Node1&#45;&gt;Node5</title>
<path fill="none" stroke="midnightblue" d="M46.2402,-27.6073C59.3226,-25.6974 76.3915,-23.2056 93.3129,-20.7353"/>
<polygon fill="midnightblue" stroke="midnightblue" points="93.8381,-24.1959 103.228,-19.2879 92.8268,-17.2693 93.8381,-24.1959"/>
</g>
<!-- Node3 -->
<g id="node5" class="node"><title>Node3</title>
<a xlink:href="../../de/d02/classlibrary_1_1_library.html#a4e341ac749738a97962a224277794303" target="_top" xlink:title="prepareQuery">
<polygon fill="white" stroke="black" points="276.5,-80.5 276.5,-101.5 351.5,-101.5 351.5,-80.5 276.5,-80.5"/>
<text text-anchor="middle" x="314" y="-88.5" font-family="Helvetica,sans-Serif" font-size="10.00">prepareQuery</text>
</a>
</g>
<!-- Node2&#45;&gt;Node3 -->
<g id="edge4" class="edge"><title>Node2&#45;&gt;Node3</title>
<path fill="none" stroke="midnightblue" d="M200.462,-61.5095C220.772,-66.7849 245.497,-73.2071 266.683,-78.7098"/>
<polygon fill="midnightblue" stroke="midnightblue" points="265.892,-82.1204 276.45,-81.2469 267.652,-75.3452 265.892,-82.1204"/>
</g>
<!-- Node4 -->
<g id="node7" class="node"><title>Node4</title>
<a xlink:href="../../de/d02/classlibrary_1_1_library.html#aa3f504ec425bb6a3578ffd34ccc51cb7" target="_top" xlink:title="execQuery">
<polygon fill="white" stroke="black" points="282,-40.5 282,-61.5 346,-61.5 346,-40.5 282,-40.5"/>
<text text-anchor="middle" x="314" y="-48.5" font-family="Helvetica,sans-Serif" font-size="10.00">execQuery</text>
</a>
</g>
<!-- Node2&#45;&gt;Node4 -->
<g id="edge6" class="edge"><title>Node2&#45;&gt;Node4</title>
<path fill="none" stroke="midnightblue" d="M237.902,-51C249.54,-51 261.151,-51 271.671,-51"/>
<polygon fill="midnightblue" stroke="midnightblue" points="271.787,-54.5001 281.787,-51 271.787,-47.5001 271.787,-54.5001"/>
</g>
<!-- Node6 -->
<g id="node11" class="node"><title>Node6</title>
<a xlink:href="../../d4/d1c/class_file_path.html#a39a0bbf3901de18041fb5c324ecf412a" target="_top" xlink:title="Get the absolute and well&#45;formatted filepath as a QString. ">
<polygon fill="white" stroke="black" points="274,-0.5 274,-21.5 354,-21.5 354,-0.5 274,-0.5"/>
<text text-anchor="middle" x="314" y="-8.5" font-family="Helvetica,sans-Serif" font-size="10.00">FilePath::toStr</text>
</a>
</g>
<!-- Node5&#45;&gt;Node6 -->
<g id="edge10" class="edge"><title>Node5&#45;&gt;Node6</title>
<path fill="none" stroke="midnightblue" d="M216.906,-11C232.222,-11 248.678,-11 263.611,-11"/>
<polygon fill="midnightblue" stroke="midnightblue" points="263.674,-14.5001 273.673,-11 263.673,-7.5001 263.674,-14.5001"/>
</g>
</g>
</svg>
