<?xml version="1.0" encoding="UTF-8" standalone="no"?>
<!DOCTYPE svg PUBLIC "-//W3C//DTD SVG 1.1//EN"
 "http://www.w3.org/Graphics/SVG/1.1/DTD/svg11.dtd">
<!-- Generated by graphviz version 2.26.3 (20100126.1600)
 -->
<!-- Title: getAllXmlFilesInLibDir Pages: 1 -->
<svg width="396pt" height="42pt"
 viewBox="0.00 0.00 396.00 42.00" xmlns="http://www.w3.org/2000/svg" xmlns:xlink="http://www.w3.org/1999/xlink">
<g id="graph1" class="graph" transform="scale(1 1) rotate(0) translate(4 38)">
<title>getAllXmlFilesInLibDir</title>
<polygon fill="white" stroke="white" points="-4,5 -4,-38 393,-38 393,5 -4,5"/>
<!-- Node1 -->
<g id="node1" class="node"><title>Node1</title>
<polygon fill="#bfbfbf" stroke="black" points="0.5,-6.5 0.5,-27.5 113.5,-27.5 113.5,-6.5 0.5,-6.5"/>
<text text-anchor="middle" x="57" y="-14.5" font-family="Helvetica,sans-Serif" font-size="10.00">getAllXmlFilesInLibDir</text>
</g>
<!-- Node2 -->
<g id="node3" class="node"><title>Node2</title>
<a xlink:href="../../de/d02/classlibrary_1_1_library.html#abf6f5a1b41bdc95e7b0602fbab2219a7" target="_top" xlink:title="Rescan the whole library directory and update the SQLite database. ">
<polygon fill="white" stroke="black" points="150,-6.5 150,-27.5 196,-27.5 196,-6.5 150,-6.5"/>
<text text-anchor="middle" x="173" y="-14.5" font-family="Helvetica,sans-Serif" font-size="10.00">rescan</text>
</a>
</g>
<!-- Node1&#45;&gt;Node2 -->
<g id="edge2" class="edge"><title>Node1&#45;&gt;Node2</title>
<path fill="none" stroke="midnightblue" d="M123.787,-17C133.069,-17 142.044,-17 149.731,-17"/>
<polygon fill="midnightblue" stroke="midnightblue" points="123.641,-13.5001 113.641,-17 123.641,-20.5001 123.641,-13.5001"/>
</g>
<!-- Node3 -->
<g id="node5" class="node"><title>Node3</title>
<a xlink:href="../../d1/def/class_control_panel.html#a65617210fcf4b06dcce361e933bbb994" target="_top" xlink:title="ControlPanel::on_actionRescan\lLibrary_triggered">
<polygon fill="white" stroke="black" points="232.5,-0 232.5,-34 387.5,-34 387.5,-0 232.5,-0"/>
<text text-anchor="start" x="240.5" y="-21" font-family="Helvetica,sans-Serif" font-size="10.00">ControlPanel::on_actionRescan</text>
<text text-anchor="middle" x="310" y="-8" font-family="Helvetica,sans-Serif" font-size="10.00">Library_triggered</text>
</a>
</g>
<!-- Node2&#45;&gt;Node3 -->
<g id="edge4" class="edge"><title>Node2&#45;&gt;Node3</title>
<path fill="none" stroke="midnightblue" d="M206.484,-17C214.432,-17 223.24,-17 232.265,-17"/>
<polygon fill="midnightblue" stroke="midnightblue" points="206.24,-13.5001 196.24,-17 206.24,-20.5001 206.24,-13.5001"/>
</g>
</g>
</svg>
