<?xml version="1.0" encoding="UTF-8" standalone="no"?>
<!DOCTYPE svg PUBLIC "-//W3C//DTD SVG 1.1//EN"
 "http://www.w3.org/Graphics/SVG/1.1/DTD/svg11.dtd">
<!-- Generated by graphviz version 2.26.3 (20100126.1600)
 -->
<!-- Title: /home/travis/build/LibrePCB/LibrePCB/libs/librepcbcommon/fileio/smartfile.h Pages: 1 -->
<svg width="1536pt" height="266pt"
 viewBox="0.00 0.00 1536.00 266.00" xmlns="http://www.w3.org/2000/svg" xmlns:xlink="http://www.w3.org/1999/xlink">
<g id="graph1" class="graph" transform="scale(1 1) rotate(0) translate(4 262)">
<title>/home/travis/build/LibrePCB/LibrePCB/libs/librepcbcommon/fileio/smartfile.h</title>
<polygon fill="white" stroke="white" points="-4,5 -4,-262 1533,-262 1533,5 -4,5"/>
<!-- Node1 -->
<g id="node1" class="node"><title>Node1</title>
<polygon fill="#bfbfbf" stroke="black" points="146.5,-197 146.5,-257 271.5,-257 271.5,-197 146.5,-197"/>
<text text-anchor="start" x="154.5" y="-244" font-family="Helvetica,sans-Serif" font-size="10.00">/home/travis/build</text>
<text text-anchor="start" x="154.5" y="-231" font-family="Helvetica,sans-Serif" font-size="10.00">/LibrePCB/LibrePCB/libs</text>
<text text-anchor="start" x="154.5" y="-218" font-family="Helvetica,sans-Serif" font-size="10.00">/librepcbcommon/fileio</text>
<text text-anchor="middle" x="209" y="-205" font-family="Helvetica,sans-Serif" font-size="10.00">/smartfile.h</text>
</g>
<!-- Node2 -->
<g id="node3" class="node"><title>Node2</title>
<a xlink:href="../../de/dab/smartfile_8cpp.html" target="_top" xlink:title="/home/travis/build\l/LibrePCB/LibrePCB/libs\l/librepcbcommon/fileio\l/smartfile.cpp">
<polygon fill="white" stroke="black" points="4.5,-99 4.5,-159 129.5,-159 129.5,-99 4.5,-99"/>
<text text-anchor="start" x="12.5" y="-146" font-family="Helvetica,sans-Serif" font-size="10.00">/home/travis/build</text>
<text text-anchor="start" x="12.5" y="-133" font-family="Helvetica,sans-Serif" font-size="10.00">/LibrePCB/LibrePCB/libs</text>
<text text-anchor="start" x="12.5" y="-120" font-family="Helvetica,sans-Serif" font-size="10.00">/librepcbcommon/fileio</text>
<text text-anchor="middle" x="67" y="-107" font-family="Helvetica,sans-Serif" font-size="10.00">/smartfile.cpp</text>
</a>
</g>
<!-- Node1&#45;&gt;Node2 -->
<g id="edge2" class="edge"><title>Node1&#45;&gt;Node2</title>
<path fill="none" stroke="midnightblue" d="M156.972,-191.093C141.831,-180.644 125.448,-169.337 110.863,-159.272"/>
<polygon fill="midnightblue" stroke="midnightblue" points="155.018,-193.998 165.237,-196.797 158.994,-188.236 155.018,-193.998"/>
</g>
<!-- Node3 -->
<g id="node5" class="node"><title>Node3</title>
<a xlink:href="../../d5/d3f/smarttextfile_8h.html" target="_top" xlink:title="/home/travis/build\l/LibrePCB/LibrePCB/libs\l/librepcbcommon/fileio\l/smarttextfile.h">
<polygon fill="white" stroke="black" points="146.5,-99 146.5,-159 271.5,-159 271.5,-99 146.5,-99"/>
<text text-anchor="start" x="154.5" y="-146" font-family="Helvetica,sans-Serif" font-size="10.00">/home/travis/build</text>
<text text-anchor="start" x="154.5" y="-133" font-family="Helvetica,sans-Serif" font-size="10.00">/LibrePCB/LibrePCB/libs</text>
<text text-anchor="start" x="154.5" y="-120" font-family="Helvetica,sans-Serif" font-size="10.00">/librepcbcommon/fileio</text>
<text text-anchor="middle" x="209" y="-107" font-family="Helvetica,sans-Serif" font-size="10.00">/smarttextfile.h</text>
</a>
</g>
<!-- Node1&#45;&gt;Node3 -->
<g id="edge4" class="edge"><title>Node1&#45;&gt;Node3</title>
<path fill="none" stroke="midnightblue" d="M209,-186.696C209,-177.527 209,-167.939 209,-159.272"/>
<polygon fill="midnightblue" stroke="midnightblue" points="205.5,-186.797 209,-196.797 212.5,-186.797 205.5,-186.797"/>
</g>
<!-- Node6 -->
<g id="node11" class="node"><title>Node6</title>
<a xlink:href="../../d9/d10/smartxmlfile_8h.html" target="_top" xlink:title="/home/travis/build\l/LibrePCB/LibrePCB/libs\l/librepcbcommon/fileio\l/smartxmlfile.h">
<polygon fill="white" stroke="black" points="695.5,-99 695.5,-159 820.5,-159 820.5,-99 695.5,-99"/>
<text text-anchor="start" x="703.5" y="-146" font-family="Helvetica,sans-Serif" font-size="10.00">/home/travis/build</text>
<text text-anchor="start" x="703.5" y="-133" font-family="Helvetica,sans-Serif" font-size="10.00">/LibrePCB/LibrePCB/libs</text>
<text text-anchor="start" x="703.5" y="-120" font-family="Helvetica,sans-Serif" font-size="10.00">/librepcbcommon/fileio</text>
<text text-anchor="middle" x="758" y="-107" font-family="Helvetica,sans-Serif" font-size="10.00">/smartxmlfile.h</text>
</a>
</g>
<!-- Node1&#45;&gt;Node6 -->
<g id="edge10" class="edge"><title>Node1&#45;&gt;Node6</title>
<path fill="none" stroke="midnightblue" d="M281.592,-214.042C390.108,-194.671 592.801,-158.489 695.265,-140.199"/>
<polygon fill="midnightblue" stroke="midnightblue" points="280.939,-210.603 271.71,-215.806 282.169,-217.494 280.939,-210.603"/>
</g>
<!-- Node4 -->
<g id="node7" class="node"><title>Node4</title>
<a xlink:href="../../d2/d05/smarttextfile_8cpp.html" target="_top" xlink:title="/home/travis/build\l/LibrePCB/LibrePCB/libs\l/librepcbcommon/fileio\l/smarttextfile.cpp">
<polygon fill="white" stroke="black" points="-0.5,-1 -0.5,-61 124.5,-61 124.5,-1 -0.5,-1"/>
<text text-anchor="start" x="7.5" y="-48" font-family="Helvetica,sans-Serif" font-size="10.00">/home/travis/build</text>
<text text-anchor="start" x="7.5" y="-35" font-family="Helvetica,sans-Serif" font-size="10.00">/LibrePCB/LibrePCB/libs</text>
<text text-anchor="start" x="7.5" y="-22" font-family="Helvetica,sans-Serif" font-size="10.00">/librepcbcommon/fileio</text>
<text text-anchor="middle" x="62" y="-9" font-family="Helvetica,sans-Serif" font-size="10.00">/smarttextfile.cpp</text>
</a>
</g>
<!-- Node3&#45;&gt;Node4 -->
<g id="edge6" class="edge"><title>Node3&#45;&gt;Node4</title>
<path fill="none" stroke="midnightblue" d="M155.099,-93.0661C139.349,-82.5659 122.303,-71.2022 107.155,-61.1032"/>
<polygon fill="midnightblue" stroke="midnightblue" points="153.434,-96.1623 163.696,-98.7971 157.317,-90.3379 153.434,-96.1623"/>
</g>
<!-- Node5 -->
<g id="node9" class="node"><title>Node5</title>
<a xlink:href="../../df/d18/project_8cpp.html" target="_top" xlink:title="/home/travis/build\l/LibrePCB/LibrePCB/libs\l/librepcbproject/project.cpp">
<polygon fill="white" stroke="black" points="142,-7.5 142,-54.5 276,-54.5 276,-7.5 142,-7.5"/>
<text text-anchor="start" x="150" y="-41.5" font-family="Helvetica,sans-Serif" font-size="10.00">/home/travis/build</text>
<text text-anchor="start" x="150" y="-28.5" font-family="Helvetica,sans-Serif" font-size="10.00">/LibrePCB/LibrePCB/libs</text>
<text text-anchor="middle" x="209" y="-15.5" font-family="Helvetica,sans-Serif" font-size="10.00">/librepcbproject/project.cpp</text>
</a>
</g>
<!-- Node3&#45;&gt;Node5 -->
<g id="edge8" class="edge"><title>Node3&#45;&gt;Node5</title>
<path fill="none" stroke="midnightblue" d="M209,-88.5002C209,-77.0087 209,-64.8739 209,-54.7289"/>
<polygon fill="midnightblue" stroke="midnightblue" points="205.5,-88.7971 209,-98.7971 212.5,-88.7972 205.5,-88.7971"/>
</g>
<!-- Node6&#45;&gt;Node5 -->
<g id="edge24" class="edge"><title>Node6&#45;&gt;Node5</title>
<path fill="none" stroke="midnightblue" d="M685.174,-124.278C591.319,-116.927 423.715,-99.4965 285,-62 277.434,-59.9548 269.611,-57.3576 261.991,-54.5398"/>
<polygon fill="midnightblue" stroke="midnightblue" points="685.174,-127.788 695.412,-125.063 685.709,-120.809 685.174,-127.788"/>
</g>
<!-- Node7 -->
<g id="node13" class="node"><title>Node7</title>
<a xlink:href="../../d0/d7b/smartxmlfile_8cpp.html" target="_top" xlink:title="/home/travis/build\l/LibrePCB/LibrePCB/libs\l/librepcbcommon/fileio\l/smartxmlfile.cpp">
<polygon fill="white" stroke="black" points="293.5,-1 293.5,-61 418.5,-61 418.5,-1 293.5,-1"/>
<text text-anchor="start" x="301.5" y="-48" font-family="Helvetica,sans-Serif" font-size="10.00">/home/travis/build</text>
<text text-anchor="start" x="301.5" y="-35" font-family="Helvetica,sans-Serif" font-size="10.00">/LibrePCB/LibrePCB/libs</text>
<text text-anchor="start" x="301.5" y="-22" font-family="Helvetica,sans-Serif" font-size="10.00">/librepcbcommon/fileio</text>
<text text-anchor="middle" x="356" y="-9" font-family="Helvetica,sans-Serif" font-size="10.00">/smartxmlfile.cpp</text>
</a>
</g>
<!-- Node6&#45;&gt;Node7 -->
<g id="edge12" class="edge"><title>Node6&#45;&gt;Node7</title>
<path fill="none" stroke="midnightblue" d="M685.235,-118.819C617.413,-108.268 513.953,-89.4413 427,-62 424.306,-61.1499 421.577,-60.2307 418.836,-59.2595"/>
<polygon fill="midnightblue" stroke="midnightblue" points="684.975,-122.321 695.391,-120.379 686.038,-115.402 684.975,-122.321"/>
</g>
<!-- Node8 -->
<g id="node15" class="node"><title>Node8</title>
<a xlink:href="../../d7/d7d/library_8cpp.html" target="_top" xlink:title="/home/travis/build\l/LibrePCB/LibrePCB/libs\l/librepcblibrary/library.cpp">
<polygon fill="white" stroke="black" points="436,-7.5 436,-54.5 564,-54.5 564,-7.5 436,-7.5"/>
<text text-anchor="start" x="444" y="-41.5" font-family="Helvetica,sans-Serif" font-size="10.00">/home/travis/build</text>
<text text-anchor="start" x="444" y="-28.5" font-family="Helvetica,sans-Serif" font-size="10.00">/LibrePCB/LibrePCB/libs</text>
<text text-anchor="middle" x="500" y="-15.5" font-family="Helvetica,sans-Serif" font-size="10.00">/librepcblibrary/library.cpp</text>
</a>
</g>
<!-- Node6&#45;&gt;Node8 -->
<g id="edge14" class="edge"><title>Node6&#45;&gt;Node8</title>
<path fill="none" stroke="midnightblue" d="M685.694,-103.836C651.382,-91.634 609.906,-76.5068 573,-62 566.977,-59.6326 560.705,-57.0895 554.479,-54.5151"/>
<polygon fill="midnightblue" stroke="midnightblue" points="684.578,-107.154 695.173,-107.197 686.917,-100.556 684.578,-107.154"/>
</g>
<!-- Node9 -->
<g id="node17" class="node"><title>Node9</title>
<a xlink:href="../../d2/dca/librarybaseelement_8cpp.html" target="_top" xlink:title="/home/travis/build\l/LibrePCB/LibrePCB/libs\l/librepcblibrary/librarybaseelement.cpp">
<polygon fill="white" stroke="black" points="581.5,-7.5 581.5,-54.5 764.5,-54.5 764.5,-7.5 581.5,-7.5"/>
<text text-anchor="start" x="589.5" y="-41.5" font-family="Helvetica,sans-Serif" font-size="10.00">/home/travis/build</text>
<text text-anchor="start" x="589.5" y="-28.5" font-family="Helvetica,sans-Serif" font-size="10.00">/LibrePCB/LibrePCB/libs</text>
<text text-anchor="middle" x="673" y="-15.5" font-family="Helvetica,sans-Serif" font-size="10.00">/librepcblibrary/librarybaseelement.cpp</text>
</a>
</g>
<!-- Node6&#45;&gt;Node9 -->
<g id="edge16" class="edge"><title>Node6&#45;&gt;Node9</title>
<path fill="none" stroke="midnightblue" d="M724.999,-90.9518C714.418,-78.7524 703.009,-65.5986 693.581,-54.7289"/>
<polygon fill="midnightblue" stroke="midnightblue" points="722.607,-93.536 731.804,-98.7971 727.895,-88.9495 722.607,-93.536"/>
</g>
<!-- Node10 -->
<g id="node19" class="node"><title>Node10</title>
<a xlink:href="../../df/d6e/board_8cpp.html" target="_top" xlink:title="/home/travis/build\l/LibrePCB/LibrePCB/libs\l/librepcbproject/boards\l/board.cpp">
<polygon fill="white" stroke="black" points="781.5,-1 781.5,-61 906.5,-61 906.5,-1 781.5,-1"/>
<text text-anchor="start" x="789.5" y="-48" font-family="Helvetica,sans-Serif" font-size="10.00">/home/travis/build</text>
<text text-anchor="start" x="789.5" y="-35" font-family="Helvetica,sans-Serif" font-size="10.00">/LibrePCB/LibrePCB/libs</text>
<text text-anchor="start" x="789.5" y="-22" font-family="Helvetica,sans-Serif" font-size="10.00">/librepcbproject/boards</text>
<text text-anchor="middle" x="844" y="-9" font-family="Helvetica,sans-Serif" font-size="10.00">/board.cpp</text>
</a>
</g>
<!-- Node6&#45;&gt;Node10 -->
<g id="edge18" class="edge"><title>Node6&#45;&gt;Node10</title>
<path fill="none" stroke="midnightblue" d="M791.302,-91.0514C799.961,-81.1836 809.174,-70.685 817.435,-61.2718"/>
<polygon fill="midnightblue" stroke="midnightblue" points="788.47,-88.9723 784.505,-98.7971 793.731,-93.5894 788.47,-88.9723"/>
</g>
<!-- Node11 -->
<g id="node21" class="node"><title>Node11</title>
<a xlink:href="../../d4/d6f/circuit_8cpp.html" target="_top" xlink:title="/home/travis/build\l/LibrePCB/LibrePCB/libs\l/librepcbproject/circuit\l/circuit.cpp">
<polygon fill="white" stroke="black" points="923.5,-1 923.5,-61 1048.5,-61 1048.5,-1 923.5,-1"/>
<text text-anchor="start" x="931.5" y="-48" font-family="Helvetica,sans-Serif" font-size="10.00">/home/travis/build</text>
<text text-anchor="start" x="931.5" y="-35" font-family="Helvetica,sans-Serif" font-size="10.00">/LibrePCB/LibrePCB/libs</text>
<text text-anchor="start" x="931.5" y="-22" font-family="Helvetica,sans-Serif" font-size="10.00">/librepcbproject/circuit</text>
<text text-anchor="middle" x="986" y="-9" font-family="Helvetica,sans-Serif" font-size="10.00">/circuit.cpp</text>
</a>
</g>
<!-- Node6&#45;&gt;Node11 -->
<g id="edge20" class="edge"><title>Node6&#45;&gt;Node11</title>
<path fill="none" stroke="midnightblue" d="M829.978,-98.4315C856.7,-87.044 887.254,-73.9774 915,-62 917.717,-60.8273 920.491,-59.6271 923.292,-58.413"/>
<polygon fill="midnightblue" stroke="midnightblue" points="828.526,-95.2459 820.697,-102.385 831.269,-101.686 828.526,-95.2459"/>
</g>
<!-- Node12 -->
<g id="node23" class="node"><title>Node12</title>
<a xlink:href="../../d0/d69/ercmsglist_8cpp.html" target="_top" xlink:title="/home/travis/build\l/LibrePCB/LibrePCB/libs\l/librepcbproject/erc/ercmsglist.cpp">
<polygon fill="white" stroke="black" points="1066,-7.5 1066,-54.5 1232,-54.5 1232,-7.5 1066,-7.5"/>
<text text-anchor="start" x="1074" y="-41.5" font-family="Helvetica,sans-Serif" font-size="10.00">/home/travis/build</text>
<text text-anchor="start" x="1074" y="-28.5" font-family="Helvetica,sans-Serif" font-size="10.00">/LibrePCB/LibrePCB/libs</text>
<text text-anchor="middle" x="1149" y="-15.5" font-family="Helvetica,sans-Serif" font-size="10.00">/librepcbproject/erc/ercmsglist.cpp</text>
</a>
</g>
<!-- Node6&#45;&gt;Node12 -->
<g id="edge22" class="edge"><title>Node6&#45;&gt;Node12</title>
<path fill="none" stroke="midnightblue" d="M830.505,-114.966C891.386,-102.655 980.445,-83.4118 1057,-62 1065.12,-59.7301 1073.57,-57.1643 1081.92,-54.5048"/>
<polygon fill="midnightblue" stroke="midnightblue" points="829.72,-111.554 820.606,-116.957 831.1,-118.417 829.72,-111.554"/>
</g>
<!-- Node13 -->
<g id="node26" class="node"><title>Node13</title>
<a xlink:href="../../dc/db2/schematic_8cpp.html" target="_top" xlink:title="/home/travis/build\l/LibrePCB/LibrePCB/libs\l/librepcbproject/schematics\l/schematic.cpp">
<polygon fill="white" stroke="black" points="1250,-1 1250,-61 1386,-61 1386,-1 1250,-1"/>
<text text-anchor="start" x="1258" y="-48" font-family="Helvetica,sans-Serif" font-size="10.00">/home/travis/build</text>
<text text-anchor="start" x="1258" y="-35" font-family="Helvetica,sans-Serif" font-size="10.00">/LibrePCB/LibrePCB/libs</text>
<text text-anchor="start" x="1258" y="-22" font-family="Helvetica,sans-Serif" font-size="10.00">/librepcbproject/schematics</text>
<text text-anchor="middle" x="1318" y="-9" font-family="Helvetica,sans-Serif" font-size="10.00">/schematic.cpp</text>
</a>
</g>
<!-- Node6&#45;&gt;Node13 -->
<g id="edge26" class="edge"><title>Node6&#45;&gt;Node13</title>
<path fill="none" stroke="midnightblue" d="M830.854,-124.469C926.373,-117.269 1098.53,-99.9437 1241,-62 1243.92,-61.2212 1246.89,-60.3615 1249.86,-59.4395"/>
<polygon fill="midnightblue" stroke="midnightblue" points="830.438,-120.99 820.723,-125.216 830.953,-127.971 830.438,-120.99"/>
</g>
<!-- Node14 -->
<g id="node28" class="node"><title>Node14</title>
<a xlink:href="../../dd/db5/projectsettings_8cpp.html" target="_top" xlink:title="/home/travis/build\l/LibrePCB/LibrePCB/libs\l/librepcbproject/settings\l/projectsettings.cpp">
<polygon fill="white" stroke="black" points="1403.5,-1 1403.5,-61 1528.5,-61 1528.5,-1 1403.5,-1"/>
<text text-anchor="start" x="1411.5" y="-48" font-family="Helvetica,sans-Serif" font-size="10.00">/home/travis/build</text>
<text text-anchor="start" x="1411.5" y="-35" font-family="Helvetica,sans-Serif" font-size="10.00">/LibrePCB/LibrePCB/libs</text>
<text text-anchor="start" x="1411.5" y="-22" font-family="Helvetica,sans-Serif" font-size="10.00">/librepcbproject/settings</text>
<text text-anchor="middle" x="1466" y="-9" font-family="Helvetica,sans-Serif" font-size="10.00">/projectsettings.cpp</text>
</a>
</g>
<!-- Node6&#45;&gt;Node14 -->
<g id="edge28" class="edge"><title>Node6&#45;&gt;Node14</title>
<path fill="none" stroke="midnightblue" d="M830.72,-124.165C974.438,-114.147 1290.01,-89.732 1395,-62 1397.73,-61.2787 1400.49,-60.4671 1403.26,-59.585"/>
<polygon fill="midnightblue" stroke="midnightblue" points="830.409,-120.678 820.675,-124.861 830.893,-127.661 830.409,-120.678"/>
</g>
</g>
</svg>
