<?xml version="1.0" encoding="UTF-8" standalone="no"?>
<!DOCTYPE svg PUBLIC "-//W3C//DTD SVG 1.1//EN"
 "http://www.w3.org/Graphics/SVG/1.1/DTD/svg11.dtd">
<!-- Generated by graphviz version 2.26.3 (20100126.1600)
 -->
<!-- Title: /home/travis/build/LibrePCB/LibrePCB/libs/librepcblibrary/fpt/footprintpad.h Pages: 1 -->
<svg width="364pt" height="374pt"
 viewBox="0.00 0.00 364.00 374.00" xmlns="http://www.w3.org/2000/svg" xmlns:xlink="http://www.w3.org/1999/xlink">
<g id="graph1" class="graph" transform="scale(1 1) rotate(0) translate(4 370)">
<title>/home/travis/build/LibrePCB/LibrePCB/libs/librepcblibrary/fpt/footprintpad.h</title>
<polygon fill="white" stroke="white" points="-4,5 -4,-370 361,-370 361,5 -4,5"/>
<!-- Node1 -->
<g id="node1" class="node"><title>Node1</title>
<polygon fill="#bfbfbf" stroke="black" points="60,-318.5 60,-365.5 216,-365.5 216,-318.5 60,-318.5"/>
<text text-anchor="start" x="68" y="-352.5" font-family="Helvetica,sans-Serif" font-size="10.00">/home/travis/build</text>
<text text-anchor="start" x="68" y="-339.5" font-family="Helvetica,sans-Serif" font-size="10.00">/LibrePCB/LibrePCB/libs</text>
<text text-anchor="middle" x="138" y="-326.5" font-family="Helvetica,sans-Serif" font-size="10.00">/librepcblibrary/fpt/footprintpad.h</text>
</g>
<!-- Node2 -->
<g id="node3" class="node"><title>Node2</title>
<polygon fill="white" stroke="#bfbfbf" points="71,-0.5 71,-21.5 119,-21.5 119,-0.5 71,-0.5"/>
<text text-anchor="middle" x="95" y="-8.5" font-family="Helvetica,sans-Serif" font-size="10.00">QtCore</text>
</g>
<!-- Node1&#45;&gt;Node2 -->
<g id="edge2" class="edge"><title>Node1&#45;&gt;Node2</title>
<path fill="none" stroke="midnightblue" d="M94.3359,-318.425C53.9062,-293.057 0,-248.618 0,-192 0,-192 0,-192 0,-127 0,-83.5461 40.3953,-47.4386 68.5037,-27.5737"/>
<polygon fill="midnightblue" stroke="midnightblue" points="70.8306,-30.224 77.1312,-21.7061 66.894,-24.4357 70.8306,-30.224"/>
</g>
<!-- Node3 -->
<g id="node5" class="node"><title>Node3</title>
<a xlink:href="../../d1/da8/all__length__units_8h.html" target="_top" xlink:title="librepcbcommon/units\l/all_length_units.h">
<polygon fill="white" stroke="black" points="82,-247 82,-281 194,-281 194,-247 82,-247"/>
<text text-anchor="start" x="90" y="-268" font-family="Helvetica,sans-Serif" font-size="10.00">librepcbcommon/units</text>
<text text-anchor="middle" x="138" y="-255" font-family="Helvetica,sans-Serif" font-size="10.00">/all_length_units.h</text>
</a>
</g>
<!-- Node1&#45;&gt;Node3 -->
<g id="edge4" class="edge"><title>Node1&#45;&gt;Node3</title>
<path fill="none" stroke="midnightblue" d="M138,-318.174C138,-309.638 138,-299.952 138,-291.156"/>
<polygon fill="midnightblue" stroke="midnightblue" points="141.5,-291.003 138,-281.003 134.5,-291.003 141.5,-291.003"/>
</g>
<!-- Node9 -->
<g id="node25" class="node"><title>Node9</title>
<a xlink:href="../../d0/d1d/if__xmlserializableobject_8h.html" target="_top" xlink:title="librepcbcommon/fileio\l/if_xmlserializableobject.h">
<polygon fill="white" stroke="black" points="227.5,-175 227.5,-209 356.5,-209 356.5,-175 227.5,-175"/>
<text text-anchor="start" x="235.5" y="-196" font-family="Helvetica,sans-Serif" font-size="10.00">librepcbcommon/fileio</text>
<text text-anchor="middle" x="292" y="-183" font-family="Helvetica,sans-Serif" font-size="10.00">/if_xmlserializableobject.h</text>
</a>
</g>
<!-- Node1&#45;&gt;Node9 -->
<g id="edge32" class="edge"><title>Node1&#45;&gt;Node9</title>
<path fill="none" stroke="midnightblue" d="M164.189,-318.326C176.142,-307.394 190.409,-294.165 203,-282 225.539,-260.223 250.589,-234.776 268.356,-216.507"/>
<polygon fill="midnightblue" stroke="midnightblue" points="271.044,-218.763 275.496,-209.149 266.02,-213.889 271.044,-218.763"/>
</g>
<!-- Node4 -->
<g id="node7" class="node"><title>Node4</title>
<a xlink:href="../../d0/d09/lengthunit_8h.html" target="_top" xlink:title="lengthunit.h">
<polygon fill="white" stroke="black" points="199.5,-116.5 199.5,-137.5 266.5,-137.5 266.5,-116.5 199.5,-116.5"/>
<text text-anchor="middle" x="233" y="-124.5" font-family="Helvetica,sans-Serif" font-size="10.00">lengthunit.h</text>
</a>
</g>
<!-- Node3&#45;&gt;Node4 -->
<g id="edge6" class="edge"><title>Node3&#45;&gt;Node4</title>
<path fill="none" stroke="midnightblue" d="M149.84,-246.926C167.637,-221.26 201.174,-172.896 219.759,-146.095"/>
<polygon fill="midnightblue" stroke="midnightblue" points="222.837,-147.798 225.659,-137.586 217.084,-143.81 222.837,-147.798"/>
</g>
<!-- Node6 -->
<g id="node13" class="node"><title>Node6</title>
<a xlink:href="../../dd/db9/length_8h.html" target="_top" xlink:title="length.h">
<polygon fill="white" stroke="black" points="131.5,-116.5 131.5,-137.5 182.5,-137.5 182.5,-116.5 131.5,-116.5"/>
<text text-anchor="middle" x="157" y="-124.5" font-family="Helvetica,sans-Serif" font-size="10.00">length.h</text>
</a>
</g>
<!-- Node3&#45;&gt;Node6 -->
<g id="edge14" class="edge"><title>Node3&#45;&gt;Node6</title>
<path fill="none" stroke="midnightblue" d="M140.368,-246.926C143.865,-221.709 150.401,-174.579 154.154,-147.519"/>
<polygon fill="midnightblue" stroke="midnightblue" points="157.625,-147.972 155.532,-137.586 150.691,-147.011 157.625,-147.972"/>
</g>
<!-- Node7 -->
<g id="node17" class="node"><title>Node7</title>
<a xlink:href="../../d2/d91/point_8h.html" target="_top" xlink:title="point.h">
<polygon fill="white" stroke="black" points="45,-181.5 45,-202.5 91,-202.5 91,-181.5 45,-181.5"/>
<text text-anchor="middle" x="68" y="-189.5" font-family="Helvetica,sans-Serif" font-size="10.00">point.h</text>
</a>
</g>
<!-- Node3&#45;&gt;Node7 -->
<g id="edge20" class="edge"><title>Node3&#45;&gt;Node7</title>
<path fill="none" stroke="midnightblue" d="M121.411,-246.937C110.636,-235.855 96.6079,-221.425 85.6318,-210.136"/>
<polygon fill="midnightblue" stroke="midnightblue" points="88.0785,-207.631 78.5982,-202.901 83.0595,-212.511 88.0785,-207.631"/>
</g>
<!-- Node8 -->
<g id="node21" class="node"><title>Node8</title>
<a xlink:href="../../da/dac/angle_8h.html" target="_top" xlink:title="angle.h">
<polygon fill="white" stroke="black" points="66,-116.5 66,-137.5 114,-137.5 114,-116.5 66,-116.5"/>
<text text-anchor="middle" x="90" y="-124.5" font-family="Helvetica,sans-Serif" font-size="10.00">angle.h</text>
</a>
</g>
<!-- Node3&#45;&gt;Node8 -->
<g id="edge26" class="edge"><title>Node3&#45;&gt;Node8</title>
<path fill="none" stroke="midnightblue" d="M132.018,-246.926C123.143,-221.597 106.523,-174.16 97.063,-147.159"/>
<polygon fill="midnightblue" stroke="midnightblue" points="100.319,-145.867 93.7091,-137.586 93.7126,-148.181 100.319,-145.867"/>
</g>
<!-- Node4&#45;&gt;Node2 -->
<g id="edge8" class="edge"><title>Node4&#45;&gt;Node2</title>
<path fill="none" stroke="midnightblue" d="M236.073,-116.475C239.662,-101.835 243.628,-75.1924 231,-58 218.752,-41.3244 165.412,-26.5507 129.287,-18.1994"/>
<polygon fill="midnightblue" stroke="midnightblue" points="129.673,-14.6988 119.148,-15.9184 128.136,-21.5281 129.673,-14.6988"/>
</g>
<!-- Node5 -->
<g id="node10" class="node"><title>Node5</title>
<a xlink:href="../../d4/d03/exceptions_8h.html" target="_top" xlink:title="../exceptions.h">
<polygon fill="white" stroke="black" points="141.5,-58.5 141.5,-79.5 222.5,-79.5 222.5,-58.5 141.5,-58.5"/>
<text text-anchor="middle" x="182" y="-66.5" font-family="Helvetica,sans-Serif" font-size="10.00">../exceptions.h</text>
</a>
</g>
<!-- Node4&#45;&gt;Node5 -->
<g id="edge10" class="edge"><title>Node4&#45;&gt;Node5</title>
<path fill="none" stroke="midnightblue" d="M223.646,-116.362C216.457,-108.186 206.359,-96.7025 197.907,-87.0907"/>
<polygon fill="midnightblue" stroke="midnightblue" points="200.527,-84.7692 191.295,-79.5707 195.27,-89.3916 200.527,-84.7692"/>
</g>
<!-- Node5&#45;&gt;Node2 -->
<g id="edge12" class="edge"><title>Node5&#45;&gt;Node2</title>
<path fill="none" stroke="midnightblue" d="M166.043,-58.3619C153.043,-49.6955 134.469,-37.3126 119.573,-27.3819"/>
<polygon fill="midnightblue" stroke="midnightblue" points="121.118,-24.2055 110.856,-21.5707 117.235,-30.0299 121.118,-24.2055"/>
</g>
<!-- Node6&#45;&gt;Node2 -->
<g id="edge16" class="edge"><title>Node6&#45;&gt;Node2</title>
<path fill="none" stroke="midnightblue" d="M151.278,-116.295C140.851,-96.7861 118.618,-55.1884 105.432,-30.5177"/>
<polygon fill="midnightblue" stroke="midnightblue" points="108.508,-28.8487 100.708,-21.6792 102.335,-32.1484 108.508,-28.8487"/>
</g>
<!-- Node6&#45;&gt;Node5 -->
<g id="edge18" class="edge"><title>Node6&#45;&gt;Node5</title>
<path fill="none" stroke="midnightblue" d="M161.585,-116.362C164.898,-108.677 169.47,-98.0686 173.448,-88.8399"/>
<polygon fill="midnightblue" stroke="midnightblue" points="176.699,-90.1393 177.444,-79.5707 170.271,-87.3685 176.699,-90.1393"/>
</g>
<!-- Node7&#45;&gt;Node2 -->
<g id="edge22" class="edge"><title>Node7&#45;&gt;Node2</title>
<path fill="none" stroke="midnightblue" d="M65.1673,-181.34C62.4485,-170.517 58.5355,-153.231 57,-138 53.0435,-98.7552 71.4163,-55.1359 83.9937,-30.5889"/>
<polygon fill="midnightblue" stroke="midnightblue" points="87.1748,-32.0615 88.7887,-21.5903 80.9972,-28.7696 87.1748,-32.0615"/>
</g>
<!-- Node7&#45;&gt;Node6 -->
<g id="edge24" class="edge"><title>Node7&#45;&gt;Node6</title>
<path fill="none" stroke="midnightblue" d="M82.6965,-181.267C96.6935,-171.044 117.971,-155.504 134.175,-143.67"/>
<polygon fill="midnightblue" stroke="midnightblue" points="136.566,-146.258 142.577,-137.534 132.437,-140.605 136.566,-146.258"/>
</g>
<!-- Node8&#45;&gt;Node2 -->
<g id="edge28" class="edge"><title>Node8&#45;&gt;Node2</title>
<path fill="none" stroke="midnightblue" d="M90.4614,-116.295C91.2874,-97.1314 93.0322,-56.654 94.1016,-31.8434"/>
<polygon fill="midnightblue" stroke="midnightblue" points="97.6057,-31.8207 94.5397,-21.6792 90.6122,-31.5192 97.6057,-31.8207"/>
</g>
<!-- Node8&#45;&gt;Node5 -->
<g id="edge30" class="edge"><title>Node8&#45;&gt;Node5</title>
<path fill="none" stroke="midnightblue" d="M106.874,-116.362C120.751,-107.614 140.634,-95.0786 156.46,-85.1015"/>
<polygon fill="midnightblue" stroke="midnightblue" points="158.64,-87.8645 165.233,-79.5707 154.907,-81.943 158.64,-87.8645"/>
</g>
<!-- Node9&#45;&gt;Node5 -->
<g id="edge34" class="edge"><title>Node9&#45;&gt;Node5</title>
<path fill="none" stroke="midnightblue" d="M292.215,-174.841C291.565,-158.173 288.205,-132.964 275,-116 263.574,-101.322 246.324,-90.853 229.771,-83.5794"/>
<polygon fill="midnightblue" stroke="midnightblue" points="230.737,-80.1933 220.155,-79.6585 228.094,-86.6751 230.737,-80.1933"/>
</g>
</g>
</svg>
