<?xml version="1.0" encoding="UTF-8" standalone="no"?>
<!DOCTYPE svg PUBLIC "-//W3C//DTD SVG 1.1//EN"
 "http://www.w3.org/Graphics/SVG/1.1/DTD/svg11.dtd">
<!-- Generated by graphviz version 2.26.3 (20100126.1600)
 -->
<!-- Title: /home/travis/build/LibrePCB/LibrePCB/libs/librepcblibrary/gencmp/gencompsignal.h Pages: 1 -->
<svg width="180pt" height="258pt"
 viewBox="0.00 0.00 180.00 258.00" xmlns="http://www.w3.org/2000/svg" xmlns:xlink="http://www.w3.org/1999/xlink">
<g id="graph1" class="graph" transform="scale(1 1) rotate(0) translate(4 254)">
<title>/home/travis/build/LibrePCB/LibrePCB/libs/librepcblibrary/gencmp/gencompsignal.h</title>
<polygon fill="white" stroke="white" points="-4,5 -4,-254 177,-254 177,5 -4,5"/>
<!-- Node1 -->
<g id="node1" class="node"><title>Node1</title>
<polygon fill="#bfbfbf" stroke="black" points="-0.5,-189 -0.5,-249 124.5,-249 124.5,-189 -0.5,-189"/>
<text text-anchor="start" x="7.5" y="-236" font-family="Helvetica,sans-Serif" font-size="10.00">/home/travis/build</text>
<text text-anchor="start" x="7.5" y="-223" font-family="Helvetica,sans-Serif" font-size="10.00">/LibrePCB/LibrePCB/libs</text>
<text text-anchor="start" x="7.5" y="-210" font-family="Helvetica,sans-Serif" font-size="10.00">/librepcblibrary/gencmp</text>
<text text-anchor="middle" x="62" y="-197" font-family="Helvetica,sans-Serif" font-size="10.00">/gencompsignal.h</text>
</g>
<!-- Node2 -->
<g id="node3" class="node"><title>Node2</title>
<polygon fill="white" stroke="#bfbfbf" points="32,-0.5 32,-21.5 80,-21.5 80,-0.5 32,-0.5"/>
<text text-anchor="middle" x="56" y="-8.5" font-family="Helvetica,sans-Serif" font-size="10.00">QtCore</text>
</g>
<!-- Node1&#45;&gt;Node2 -->
<g id="edge2" class="edge"><title>Node1&#45;&gt;Node2</title>
<path fill="none" stroke="midnightblue" d="M46.9437,-188.733C42.1226,-177.487 37.4113,-164.435 35,-152 26.7229,-109.316 39.6958,-58.8134 48.6511,-31.3248"/>
<polygon fill="midnightblue" stroke="midnightblue" points="52.0296,-32.2613 51.9459,-21.6667 45.4045,-30.0011 52.0296,-32.2613"/>
</g>
<!-- Node3 -->
<g id="node5" class="node"><title>Node3</title>
<a xlink:href="../../d0/d1d/if__xmlserializableobject_8h.html" target="_top" xlink:title="librepcbcommon/fileio\l/if_xmlserializableobject.h">
<polygon fill="white" stroke="black" points="43.5,-117 43.5,-151 172.5,-151 172.5,-117 43.5,-117"/>
<text text-anchor="start" x="51.5" y="-138" font-family="Helvetica,sans-Serif" font-size="10.00">librepcbcommon/fileio</text>
<text text-anchor="middle" x="108" y="-125" font-family="Helvetica,sans-Serif" font-size="10.00">/if_xmlserializableobject.h</text>
</a>
</g>
<!-- Node1&#45;&gt;Node3 -->
<g id="edge4" class="edge"><title>Node1&#45;&gt;Node3</title>
<path fill="none" stroke="midnightblue" d="M78.3474,-188.793C83.4072,-179.443 88.937,-169.225 93.8361,-160.172"/>
<polygon fill="midnightblue" stroke="midnightblue" points="96.9856,-161.706 98.667,-151.246 90.8293,-158.375 96.9856,-161.706"/>
</g>
<!-- Node4 -->
<g id="node7" class="node"><title>Node4</title>
<a xlink:href="../../d4/d03/exceptions_8h.html" target="_top" xlink:title="../exceptions.h">
<polygon fill="white" stroke="black" points="55.5,-58.5 55.5,-79.5 136.5,-79.5 136.5,-58.5 55.5,-58.5"/>
<text text-anchor="middle" x="96" y="-66.5" font-family="Helvetica,sans-Serif" font-size="10.00">../exceptions.h</text>
</a>
</g>
<!-- Node3&#45;&gt;Node4 -->
<g id="edge6" class="edge"><title>Node3&#45;&gt;Node4</title>
<path fill="none" stroke="midnightblue" d="M104.847,-116.922C103.307,-108.579 101.441,-98.4703 99.8201,-89.6919"/>
<polygon fill="midnightblue" stroke="midnightblue" points="103.261,-89.0505 98.0035,-79.8521 96.3772,-90.3214 103.261,-89.0505"/>
</g>
<!-- Node4&#45;&gt;Node2 -->
<g id="edge8" class="edge"><title>Node4&#45;&gt;Node2</title>
<path fill="none" stroke="midnightblue" d="M88.6634,-58.3619C83.194,-50.4313 75.5783,-39.3885 69.0763,-29.9606"/>
<polygon fill="midnightblue" stroke="midnightblue" points="71.8487,-27.8157 63.2901,-21.5707 66.0862,-31.7899 71.8487,-27.8157"/>
</g>
</g>
</svg>
