<?xml version="1.0" encoding="UTF-8" standalone="no"?>
<!DOCTYPE svg PUBLIC "-//W3C//DTD SVG 1.1//EN"
 "http://www.w3.org/Graphics/SVG/1.1/DTD/svg11.dtd">
<!-- Generated by graphviz version 2.26.3 (20100126.1600)
 -->
<!-- Title: getSymbols Pages: 1 -->
<svg width="1034pt" height="130pt"
 viewBox="0.00 0.00 1034.00 130.00" xmlns="http://www.w3.org/2000/svg" xmlns:xlink="http://www.w3.org/1999/xlink">
<g id="graph1" class="graph" transform="scale(1 1) rotate(0) translate(4 126)">
<title>getSymbols</title>
<polygon fill="white" stroke="white" points="-4,5 -4,-126 1031,-126 1031,5 -4,5"/>
<!-- Node1 -->
<g id="node1" class="node"><title>Node1</title>
<polygon fill="#bfbfbf" stroke="black" points="0,-68.5 0,-89.5 68,-89.5 68,-68.5 0,-68.5"/>
<text text-anchor="middle" x="34" y="-76.5" font-family="Helvetica,sans-Serif" font-size="10.00">getSymbols</text>
</g>
<!-- Node2 -->
<g id="node3" class="node"><title>Node2</title>
<a xlink:href="../../d1/d92/classproject_1_1_add_gen_comp_dialog.html#adfcb4e9c07721bf39ddcb34d2e39e61c" target="_top" xlink:title="project::AddGenCompDialog\l::setSelectedSymbVar">
<polygon fill="white" stroke="black" points="104.5,-62 104.5,-96 245.5,-96 245.5,-62 104.5,-62"/>
<text text-anchor="start" x="112.5" y="-83" font-family="Helvetica,sans-Serif" font-size="10.00">project::AddGenCompDialog</text>
<text text-anchor="middle" x="175" y="-70" font-family="Helvetica,sans-Serif" font-size="10.00">::setSelectedSymbVar</text>
</a>
</g>
<!-- Node1&#45;&gt;Node2 -->
<g id="edge2" class="edge"><title>Node1&#45;&gt;Node2</title>
<path fill="none" stroke="midnightblue" d="M78.3194,-79C86.6347,-79 95.5162,-79 104.4,-79"/>
<polygon fill="midnightblue" stroke="midnightblue" points="78.1322,-75.5001 68.1322,-79 78.1321,-82.5001 78.1322,-75.5001"/>
</g>
<!-- Node3 -->
<g id="node5" class="node"><title>Node3</title>
<a xlink:href="../../d1/d92/classproject_1_1_add_gen_comp_dialog.html#a59cdf065c69c12551c2043dfe0891ff1" target="_top" xlink:title="project::AddGenCompDialog\l::on_cbxSymbVar_currentIndexChanged">
<polygon fill="white" stroke="black" points="282.5,-88 282.5,-122 475.5,-122 475.5,-88 282.5,-88"/>
<text text-anchor="start" x="290.5" y="-109" font-family="Helvetica,sans-Serif" font-size="10.00">project::AddGenCompDialog</text>
<text text-anchor="middle" x="379" y="-96" font-family="Helvetica,sans-Serif" font-size="10.00">::on_cbxSymbVar_currentIndexChanged</text>
</a>
</g>
<!-- Node2&#45;&gt;Node3 -->
<g id="edge4" class="edge"><title>Node2&#45;&gt;Node3</title>
<path fill="none" stroke="midnightblue" d="M255.909,-89.312C264.639,-90.4246 273.584,-91.5646 282.473,-92.6976"/>
<polygon fill="midnightblue" stroke="midnightblue" points="256.139,-85.813 245.777,-88.0206 255.254,-92.7569 256.139,-85.813"/>
</g>
<!-- Node4 -->
<g id="node7" class="node"><title>Node4</title>
<a xlink:href="../../d1/d92/classproject_1_1_add_gen_comp_dialog.html#abf6af5dc67073d848d5cf561412d4b27" target="_top" xlink:title="project::AddGenCompDialog\l::setSelectedGenComp">
<polygon fill="white" stroke="black" points="308.5,-36 308.5,-70 449.5,-70 449.5,-36 308.5,-36"/>
<text text-anchor="start" x="316.5" y="-57" font-family="Helvetica,sans-Serif" font-size="10.00">project::AddGenCompDialog</text>
<text text-anchor="middle" x="379" y="-44" font-family="Helvetica,sans-Serif" font-size="10.00">::setSelectedGenComp</text>
</a>
</g>
<!-- Node2&#45;&gt;Node4 -->
<g id="edge6" class="edge"><title>Node2&#45;&gt;Node4</title>
<path fill="none" stroke="midnightblue" d="M255.876,-68.6923C273.224,-66.4813 291.424,-64.1617 308.348,-62.0046"/>
<polygon fill="midnightblue" stroke="midnightblue" points="255.254,-65.2431 245.777,-69.9794 256.139,-72.187 255.254,-65.2431"/>
</g>
<!-- Node5 -->
<g id="node9" class="node"><title>Node5</title>
<a xlink:href="../../d1/d92/classproject_1_1_add_gen_comp_dialog.html#a5951d1d20ef2d9675b3b1690d6799fa7" target="_top" xlink:title="project::AddGenCompDialog\l::on_listGenericComponents\l_currentItemChanged">
<polygon fill="white" stroke="black" points="512.5,-59.5 512.5,-106.5 653.5,-106.5 653.5,-59.5 512.5,-59.5"/>
<text text-anchor="start" x="520.5" y="-93.5" font-family="Helvetica,sans-Serif" font-size="10.00">project::AddGenCompDialog</text>
<text text-anchor="start" x="520.5" y="-80.5" font-family="Helvetica,sans-Serif" font-size="10.00">::on_listGenericComponents</text>
<text text-anchor="middle" x="583" y="-67.5" font-family="Helvetica,sans-Serif" font-size="10.00">_currentItemChanged</text>
</a>
</g>
<!-- Node4&#45;&gt;Node5 -->
<g id="edge8" class="edge"><title>Node4&#45;&gt;Node5</title>
<path fill="none" stroke="midnightblue" d="M459.876,-64.8935C477.224,-67.4447 495.424,-70.1211 512.348,-72.61"/>
<polygon fill="midnightblue" stroke="midnightblue" points="460.18,-61.4006 449.777,-63.4084 459.161,-68.3261 460.18,-61.4006"/>
</g>
<!-- Node6 -->
<g id="node11" class="node"><title>Node6</title>
<a xlink:href="../../d1/d92/classproject_1_1_add_gen_comp_dialog.html#ae968bf4d25607bdad3eb848014d999da" target="_top" xlink:title="project::AddGenCompDialog\l::setSelectedCategory">
<polygon fill="white" stroke="black" points="512.5,-7 512.5,-41 653.5,-41 653.5,-7 512.5,-7"/>
<text text-anchor="start" x="520.5" y="-28" font-family="Helvetica,sans-Serif" font-size="10.00">project::AddGenCompDialog</text>
<text text-anchor="middle" x="583" y="-15" font-family="Helvetica,sans-Serif" font-size="10.00">::setSelectedCategory</text>
</a>
</g>
<!-- Node4&#45;&gt;Node6 -->
<g id="edge10" class="edge"><title>Node4&#45;&gt;Node6</title>
<path fill="none" stroke="midnightblue" d="M459.876,-41.5029C477.224,-39.0368 495.424,-36.4496 512.348,-34.0436"/>
<polygon fill="midnightblue" stroke="midnightblue" points="459.185,-38.0659 449.777,-42.9386 460.17,-44.9963 459.185,-38.0659"/>
</g>
<!-- Node7 -->
<g id="node13" class="node"><title>Node7</title>
<a xlink:href="../../d1/d92/classproject_1_1_add_gen_comp_dialog.html#aa523372c74c9d1d342035a3dc5b49d25" target="_top" xlink:title="project::AddGenCompDialog\l::on_treeCategories_currentItem\lChanged">
<polygon fill="white" stroke="black" points="690.5,-0.5 690.5,-47.5 847.5,-47.5 847.5,-0.5 690.5,-0.5"/>
<text text-anchor="start" x="698.5" y="-34.5" font-family="Helvetica,sans-Serif" font-size="10.00">project::AddGenCompDialog</text>
<text text-anchor="start" x="698.5" y="-21.5" font-family="Helvetica,sans-Serif" font-size="10.00">::on_treeCategories_currentItem</text>
<text text-anchor="middle" x="769" y="-8.5" font-family="Helvetica,sans-Serif" font-size="10.00">Changed</text>
</a>
</g>
<!-- Node6&#45;&gt;Node7 -->
<g id="edge12" class="edge"><title>Node6&#45;&gt;Node7</title>
<path fill="none" stroke="midnightblue" d="M663.836,-24C672.644,-24 681.599,-24 690.38,-24"/>
<polygon fill="midnightblue" stroke="midnightblue" points="663.584,-20.5001 653.584,-24 663.584,-27.5001 663.584,-20.5001"/>
</g>
<!-- Node8 -->
<g id="node15" class="node"><title>Node8</title>
<a xlink:href="../../d1/d92/classproject_1_1_add_gen_comp_dialog.html#a158bc6ffa6ab14d062e57c57929a197f" target="_top" xlink:title="project::AddGenCompDialog\l::AddGenCompDialog">
<polygon fill="white" stroke="black" points="884.5,-7 884.5,-41 1025.5,-41 1025.5,-7 884.5,-7"/>
<text text-anchor="start" x="892.5" y="-28" font-family="Helvetica,sans-Serif" font-size="10.00">project::AddGenCompDialog</text>
<text text-anchor="middle" x="955" y="-15" font-family="Helvetica,sans-Serif" font-size="10.00">::AddGenCompDialog</text>
</a>
</g>
<!-- Node7&#45;&gt;Node8 -->
<g id="edge14" class="edge"><title>Node7&#45;&gt;Node8</title>
<path fill="none" stroke="midnightblue" d="M857.673,-24C866.621,-24 875.622,-24 884.345,-24"/>
<polygon fill="midnightblue" stroke="midnightblue" points="857.611,-20.5001 847.611,-24 857.611,-27.5001 857.611,-20.5001"/>
</g>
</g>
</svg>
