<?xml version="1.0" encoding="UTF-8" standalone="no"?>
<!DOCTYPE svg PUBLIC "-//W3C//DTD SVG 1.1//EN"
 "http://www.w3.org/Graphics/SVG/1.1/DTD/svg11.dtd">
<!-- Generated by graphviz version 2.26.3 (20100126.1600)
 -->
<!-- Title: getGenericComponents Pages: 1 -->
<svg width="678pt" height="56pt"
 viewBox="0.00 0.00 678.00 56.00" xmlns="http://www.w3.org/2000/svg" xmlns:xlink="http://www.w3.org/1999/xlink">
<g id="graph1" class="graph" transform="scale(1 1) rotate(0) translate(4 52)">
<title>getGenericComponents</title>
<polygon fill="white" stroke="white" points="-4,5 -4,-52 675,-52 675,5 -4,5"/>
<!-- Node1 -->
<g id="node1" class="node"><title>Node1</title>
<polygon fill="#bfbfbf" stroke="black" points="0.5,-13.5 0.5,-34.5 119.5,-34.5 119.5,-13.5 0.5,-13.5"/>
<text text-anchor="middle" x="60" y="-21.5" font-family="Helvetica,sans-Serif" font-size="10.00">getGenericComponents</text>
</g>
<!-- Node2 -->
<g id="node3" class="node"><title>Node2</title>
<a xlink:href="../../d1/d92/classproject_1_1_add_gen_comp_dialog.html#ae968bf4d25607bdad3eb848014d999da" target="_top" xlink:title="project::AddGenCompDialog\l::setSelectedCategory">
<polygon fill="white" stroke="black" points="156.5,-7 156.5,-41 297.5,-41 297.5,-7 156.5,-7"/>
<text text-anchor="start" x="164.5" y="-28" font-family="Helvetica,sans-Serif" font-size="10.00">project::AddGenCompDialog</text>
<text text-anchor="middle" x="227" y="-15" font-family="Helvetica,sans-Serif" font-size="10.00">::setSelectedCategory</text>
</a>
</g>
<!-- Node1&#45;&gt;Node2 -->
<g id="edge2" class="edge"><title>Node1&#45;&gt;Node2</title>
<path fill="none" stroke="midnightblue" d="M129.99,-24C138.754,-24 147.722,-24 156.494,-24"/>
<polygon fill="midnightblue" stroke="midnightblue" points="129.819,-20.5001 119.819,-24 129.819,-27.5001 129.819,-20.5001"/>
</g>
<!-- Node3 -->
<g id="node5" class="node"><title>Node3</title>
<a xlink:href="../../d1/d92/classproject_1_1_add_gen_comp_dialog.html#aa523372c74c9d1d342035a3dc5b49d25" target="_top" xlink:title="project::AddGenCompDialog\l::on_treeCategories_currentItem\lChanged">
<polygon fill="white" stroke="black" points="334.5,-0.5 334.5,-47.5 491.5,-47.5 491.5,-0.5 334.5,-0.5"/>
<text text-anchor="start" x="342.5" y="-34.5" font-family="Helvetica,sans-Serif" font-size="10.00">project::AddGenCompDialog</text>
<text text-anchor="start" x="342.5" y="-21.5" font-family="Helvetica,sans-Serif" font-size="10.00">::on_treeCategories_currentItem</text>
<text text-anchor="middle" x="413" y="-8.5" font-family="Helvetica,sans-Serif" font-size="10.00">Changed</text>
</a>
</g>
<!-- Node2&#45;&gt;Node3 -->
<g id="edge4" class="edge"><title>Node2&#45;&gt;Node3</title>
<path fill="none" stroke="midnightblue" d="M307.836,-24C316.644,-24 325.599,-24 334.38,-24"/>
<polygon fill="midnightblue" stroke="midnightblue" points="307.584,-20.5001 297.584,-24 307.584,-27.5001 307.584,-20.5001"/>
</g>
<!-- Node4 -->
<g id="node7" class="node"><title>Node4</title>
<a xlink:href="../../d1/d92/classproject_1_1_add_gen_comp_dialog.html#a158bc6ffa6ab14d062e57c57929a197f" target="_top" xlink:title="project::AddGenCompDialog\l::AddGenCompDialog">
<polygon fill="white" stroke="black" points="528.5,-7 528.5,-41 669.5,-41 669.5,-7 528.5,-7"/>
<text text-anchor="start" x="536.5" y="-28" font-family="Helvetica,sans-Serif" font-size="10.00">project::AddGenCompDialog</text>
<text text-anchor="middle" x="599" y="-15" font-family="Helvetica,sans-Serif" font-size="10.00">::AddGenCompDialog</text>
</a>
</g>
<!-- Node3&#45;&gt;Node4 -->
<g id="edge6" class="edge"><title>Node3&#45;&gt;Node4</title>
<path fill="none" stroke="midnightblue" d="M501.673,-24C510.621,-24 519.622,-24 528.345,-24"/>
<polygon fill="midnightblue" stroke="midnightblue" points="501.611,-20.5001 491.611,-24 501.611,-27.5001 501.611,-20.5001"/>
</g>
</g>
</svg>
