<?xml version="1.0" encoding="UTF-8" standalone="no"?>
<!DOCTYPE svg PUBLIC "-//W3C//DTD SVG 1.1//EN"
 "http://www.w3.org/Graphics/SVG/1.1/DTD/svg11.dtd">
<!-- Generated by graphviz version 2.26.3 (20100126.1600)
 -->
<!-- Title: clearDatabaseAndCreateTables Pages: 1 -->
<svg width="276pt" height="70pt"
 viewBox="0.00 0.00 276.00 70.00" xmlns="http://www.w3.org/2000/svg" xmlns:xlink="http://www.w3.org/1999/xlink">
<g id="graph1" class="graph" transform="scale(1 1) rotate(0) translate(4 66)">
<title>clearDatabaseAndCreateTables</title>
<polygon fill="white" stroke="white" points="-4,5 -4,-66 273,-66 273,5 -4,5"/>
<!-- Node1 -->
<g id="node1" class="node"><title>Node1</title>
<polygon fill="#bfbfbf" stroke="black" points="0.5,-20.5 0.5,-41.5 155.5,-41.5 155.5,-20.5 0.5,-20.5"/>
<text text-anchor="middle" x="78" y="-28.5" font-family="Helvetica,sans-Serif" font-size="10.00">clearDatabaseAndCreateTables</text>
</g>
<!-- Node2 -->
<g id="node3" class="node"><title>Node2</title>
<a xlink:href="../../de/d02/classlibrary_1_1_library.html#a4e341ac749738a97962a224277794303" target="_top" xlink:title="prepareQuery">
<polygon fill="white" stroke="black" points="192.5,-40.5 192.5,-61.5 267.5,-61.5 267.5,-40.5 192.5,-40.5"/>
<text text-anchor="middle" x="230" y="-48.5" font-family="Helvetica,sans-Serif" font-size="10.00">prepareQuery</text>
</a>
</g>
<!-- Node1&#45;&gt;Node2 -->
<g id="edge2" class="edge"><title>Node1&#45;&gt;Node2</title>
<path fill="none" stroke="midnightblue" d="M155.781,-41.2344C164.817,-42.4232 173.818,-43.6077 182.275,-44.7205"/>
<polygon fill="midnightblue" stroke="midnightblue" points="181.915,-48.2032 192.287,-46.0377 182.829,-41.263 181.915,-48.2032"/>
</g>
<!-- Node3 -->
<g id="node5" class="node"><title>Node3</title>
<a xlink:href="../../de/d02/classlibrary_1_1_library.html#aa3f504ec425bb6a3578ffd34ccc51cb7" target="_top" xlink:title="execQuery">
<polygon fill="white" stroke="black" points="198,-0.5 198,-21.5 262,-21.5 262,-0.5 198,-0.5"/>
<text text-anchor="middle" x="230" y="-8.5" font-family="Helvetica,sans-Serif" font-size="10.00">execQuery</text>
</a>
</g>
<!-- Node1&#45;&gt;Node3 -->
<g id="edge4" class="edge"><title>Node1&#45;&gt;Node3</title>
<path fill="none" stroke="midnightblue" d="M155.781,-20.7656C166.84,-19.3105 177.849,-17.862 187.87,-16.5435"/>
<polygon fill="midnightblue" stroke="midnightblue" points="188.458,-19.9963 197.916,-15.2216 187.544,-13.0562 188.458,-19.9963"/>
</g>
</g>
</svg>
