<?xml version="1.0" encoding="UTF-8" standalone="no"?>
<!DOCTYPE svg PUBLIC "-//W3C//DTD SVG 1.1//EN"
 "http://www.w3.org/Graphics/SVG/1.1/DTD/svg11.dtd">
<!-- Generated by graphviz version 2.26.3 (20100126.1600)
 -->
<!-- Title: addPackagesToDb Pages: 1 -->
<svg width="382pt" height="42pt"
 viewBox="0.00 0.00 382.00 42.00" xmlns="http://www.w3.org/2000/svg" xmlns:xlink="http://www.w3.org/1999/xlink">
<g id="graph1" class="graph" transform="scale(1 1) rotate(0) translate(4 38)">
<title>addPackagesToDb</title>
<polygon fill="white" stroke="white" points="-4,5 -4,-38 379,-38 379,5 -4,5"/>
<!-- Node1 -->
<g id="node1" class="node"><title>Node1</title>
<polygon fill="#bfbfbf" stroke="black" points="0,-6.5 0,-27.5 100,-27.5 100,-6.5 0,-6.5"/>
<text text-anchor="middle" x="50" y="-14.5" font-family="Helvetica,sans-Serif" font-size="10.00">addPackagesToDb</text>
</g>
<!-- Node2 -->
<g id="node3" class="node"><title>Node2</title>
<a xlink:href="../../de/d02/classlibrary_1_1_library.html#abf6f5a1b41bdc95e7b0602fbab2219a7" target="_top" xlink:title="Rescan the whole library directory and update the SQLite database. ">
<polygon fill="white" stroke="black" points="136,-6.5 136,-27.5 182,-27.5 182,-6.5 136,-6.5"/>
<text text-anchor="middle" x="159" y="-14.5" font-family="Helvetica,sans-Serif" font-size="10.00">rescan</text>
</a>
</g>
<!-- Node1&#45;&gt;Node2 -->
<g id="edge2" class="edge"><title>Node1&#45;&gt;Node2</title>
<path fill="none" stroke="midnightblue" d="M110.041,-17C119.232,-17 128.211,-17 135.917,-17"/>
<polygon fill="midnightblue" stroke="midnightblue" points="110.034,-13.5001 100.034,-17 110.034,-20.5001 110.034,-13.5001"/>
</g>
<!-- Node3 -->
<g id="node5" class="node"><title>Node3</title>
<a xlink:href="../../d1/def/class_control_panel.html#a65617210fcf4b06dcce361e933bbb994" target="_top" xlink:title="ControlPanel::on_actionRescan\lLibrary_triggered">
<polygon fill="white" stroke="black" points="218.5,-0 218.5,-34 373.5,-34 373.5,-0 218.5,-0"/>
<text text-anchor="start" x="226.5" y="-21" font-family="Helvetica,sans-Serif" font-size="10.00">ControlPanel::on_actionRescan</text>
<text text-anchor="middle" x="296" y="-8" font-family="Helvetica,sans-Serif" font-size="10.00">Library_triggered</text>
</a>
</g>
<!-- Node2&#45;&gt;Node3 -->
<g id="edge4" class="edge"><title>Node2&#45;&gt;Node3</title>
<path fill="none" stroke="midnightblue" d="M192.484,-17C200.432,-17 209.24,-17 218.265,-17"/>
<polygon fill="midnightblue" stroke="midnightblue" points="192.24,-13.5001 182.24,-17 192.24,-20.5001 192.24,-13.5001"/>
</g>
</g>
</svg>
