<?xml version="1.0" encoding="UTF-8" standalone="no"?>
<!DOCTYPE svg PUBLIC "-//W3C//DTD SVG 1.1//EN"
 "http://www.w3.org/Graphics/SVG/1.1/DTD/svg11.dtd">
<!-- Generated by graphviz version 2.26.3 (20100126.1600)
 -->
<!-- Title: getGenericComponents Pages: 1 -->
<svg width="700pt" height="42pt"
 viewBox="0.00 0.00 700.00 42.00" xmlns="http://www.w3.org/2000/svg" xmlns:xlink="http://www.w3.org/1999/xlink">
<g id="graph1" class="graph" transform="scale(1 1) rotate(0) translate(4 38)">
<title>getGenericComponents</title>
<polygon fill="white" stroke="white" points="-4,5 -4,-38 697,-38 697,5 -4,5"/>
<!-- Node1 -->
<g id="node1" class="node"><title>Node1</title>
<polygon fill="#bfbfbf" stroke="black" points="0.5,-6.5 0.5,-27.5 119.5,-27.5 119.5,-6.5 0.5,-6.5"/>
<text text-anchor="middle" x="60" y="-14.5" font-family="Helvetica,sans-Serif" font-size="10.00">getGenericComponents</text>
</g>
<!-- Node2 -->
<g id="node3" class="node"><title>Node2</title>
<a xlink:href="../../d1/d92/classproject_1_1_add_gen_comp_dialog.html#ae968bf4d25607bdad3eb848014d999da" target="_top" xlink:title="project::AddGenCompDialog\l::setSelectedCategory">
<polygon fill="white" stroke="black" points="156.5,-0 156.5,-34 297.5,-34 297.5,-0 156.5,-0"/>
<text text-anchor="start" x="164.5" y="-21" font-family="Helvetica,sans-Serif" font-size="10.00">project::AddGenCompDialog</text>
<text text-anchor="middle" x="227" y="-8" font-family="Helvetica,sans-Serif" font-size="10.00">::setSelectedCategory</text>
</a>
</g>
<!-- Node1&#45;&gt;Node2 -->
<g id="edge2" class="edge"><title>Node1&#45;&gt;Node2</title>
<path fill="none" stroke="midnightblue" d="M129.99,-17C138.754,-17 147.722,-17 156.494,-17"/>
<polygon fill="midnightblue" stroke="midnightblue" points="129.819,-13.5001 119.819,-17 129.819,-20.5001 129.819,-13.5001"/>
</g>
<!-- Node3 -->
<g id="node5" class="node"><title>Node3</title>
<a xlink:href="../../d1/d92/classproject_1_1_add_gen_comp_dialog.html#ab30df3fcf42614694068294b48161b00" target="_top" xlink:title="project::AddGenCompDialog\l::treeCategories_currentItemChanged">
<polygon fill="white" stroke="black" points="334,-0 334,-34 514,-34 514,-0 334,-0"/>
<text text-anchor="start" x="342" y="-21" font-family="Helvetica,sans-Serif" font-size="10.00">project::AddGenCompDialog</text>
<text text-anchor="middle" x="424" y="-8" font-family="Helvetica,sans-Serif" font-size="10.00">::treeCategories_currentItemChanged</text>
</a>
</g>
<!-- Node2&#45;&gt;Node3 -->
<g id="edge4" class="edge"><title>Node2&#45;&gt;Node3</title>
<path fill="none" stroke="midnightblue" d="M307.654,-17C316.338,-17 325.213,-17 333.998,-17"/>
<polygon fill="midnightblue" stroke="midnightblue" points="307.565,-13.5001 297.565,-17 307.565,-20.5001 307.565,-13.5001"/>
</g>
<!-- Node4 -->
<g id="node7" class="node"><title>Node4</title>
<a xlink:href="../../d1/d92/classproject_1_1_add_gen_comp_dialog.html#a158bc6ffa6ab14d062e57c57929a197f" target="_top" xlink:title="project::AddGenCompDialog\l::AddGenCompDialog">
<polygon fill="white" stroke="black" points="550.5,-0 550.5,-34 691.5,-34 691.5,-0 550.5,-0"/>
<text text-anchor="start" x="558.5" y="-21" font-family="Helvetica,sans-Serif" font-size="10.00">project::AddGenCompDialog</text>
<text text-anchor="middle" x="621" y="-8" font-family="Helvetica,sans-Serif" font-size="10.00">::AddGenCompDialog</text>
</a>
</g>
<!-- Node3&#45;&gt;Node4 -->
<g id="edge6" class="edge"><title>Node3&#45;&gt;Node4</title>
<path fill="none" stroke="midnightblue" d="M524.422,-17C533.187,-17 541.932,-17 550.378,-17"/>
<polygon fill="midnightblue" stroke="midnightblue" points="524.14,-13.5001 514.14,-17 524.14,-20.5001 524.14,-13.5001"/>
</g>
</g>
</svg>
