<?xml version="1.0" encoding="UTF-8" standalone="no"?>
<!DOCTYPE svg PUBLIC "-//W3C//DTD SVG 1.1//EN"
 "http://www.w3.org/Graphics/SVG/1.1/DTD/svg11.dtd">
<!-- Generated by graphviz version 2.26.3 (20100126.1600)
 -->
<!-- Title: getCategoryChilds Pages: 1 -->
<svg width="256pt" height="70pt"
 viewBox="0.00 0.00 256.00 70.00" xmlns="http://www.w3.org/2000/svg" xmlns:xlink="http://www.w3.org/1999/xlink">
<g id="graph1" class="graph" transform="scale(1 1) rotate(0) translate(4 66)">
<title>getCategoryChilds</title>
<polygon fill="white" stroke="white" points="-4,5 -4,-66 253,-66 253,5 -4,5"/>
<!-- Node1 -->
<g id="node1" class="node"><title>Node1</title>
<polygon fill="#bfbfbf" stroke="black" points="0,-20.5 0,-41.5 98,-41.5 98,-20.5 0,-20.5"/>
<text text-anchor="middle" x="49" y="-28.5" font-family="Helvetica,sans-Serif" font-size="10.00">getCategoryChilds</text>
</g>
<!-- Node2 -->
<g id="node3" class="node"><title>Node2</title>
<a xlink:href="../../d4/d1c/class_file_path.html#aeb37554b75918a9262a0c09df1205fff" target="_top" xlink:title="Build an absolute and well&#45;formatted filepath from a relative filepath. ">
<polygon fill="white" stroke="black" points="134,-40.5 134,-61.5 248,-61.5 248,-40.5 134,-40.5"/>
<text text-anchor="middle" x="191" y="-48.5" font-family="Helvetica,sans-Serif" font-size="10.00">FilePath::fromRelative</text>
</a>
</g>
<!-- Node1&#45;&gt;Node2 -->
<g id="edge2" class="edge"><title>Node1&#45;&gt;Node2</title>
<path fill="none" stroke="midnightblue" d="M98.2662,-37.9389C106.442,-39.0904 115.043,-40.3018 123.575,-41.5035"/>
<polygon fill="midnightblue" stroke="midnightblue" points="123.139,-44.9766 133.529,-42.9055 124.115,-38.045 123.139,-44.9766"/>
</g>
<!-- Node3 -->
<g id="node5" class="node"><title>Node3</title>
<a xlink:href="../../d4/d1c/class_file_path.html#a0a886a9edf5bf682f5245159661bfc94" target="_top" xlink:title="Check whether this object contains a valid filepath or not. ">
<polygon fill="white" stroke="black" points="147,-0.5 147,-21.5 235,-21.5 235,-0.5 147,-0.5"/>
<text text-anchor="middle" x="191" y="-8.5" font-family="Helvetica,sans-Serif" font-size="10.00">FilePath::isValid</text>
</a>
</g>
<!-- Node1&#45;&gt;Node3 -->
<g id="edge4" class="edge"><title>Node1&#45;&gt;Node3</title>
<path fill="none" stroke="midnightblue" d="M98.2662,-24.0611C110.655,-22.3162 124.02,-20.4338 136.642,-18.656"/>
<polygon fill="midnightblue" stroke="midnightblue" points="137.158,-22.118 146.572,-17.2574 136.182,-15.1864 137.158,-22.118"/>
</g>
</g>
</svg>
