<?xml version="1.0" encoding="UTF-8" standalone="no"?>
<!DOCTYPE svg PUBLIC "-//W3C//DTD SVG 1.1//EN"
 "http://www.w3.org/Graphics/SVG/1.1/DTD/svg11.dtd">
<!-- Generated by graphviz version 2.26.3 (20100126.1600)
 -->
<!-- Title: applyNewSettings Pages: 1 -->
<svg width="260pt" height="146pt"
 viewBox="0.00 0.00 260.00 146.00" xmlns="http://www.w3.org/2000/svg" xmlns:xlink="http://www.w3.org/1999/xlink">
<g id="graph1" class="graph" transform="scale(1 1) rotate(0) translate(4 142)">
<title>applyNewSettings</title>
<polygon fill="white" stroke="white" points="-4,5 -4,-142 257,-142 257,5 -4,5"/>
<!-- Node1 -->
<g id="node1" class="node"><title>Node1</title>
<polygon fill="#bfbfbf" stroke="black" points="0,-58.5 0,-79.5 96,-79.5 96,-58.5 0,-58.5"/>
<text text-anchor="middle" x="48" y="-66.5" font-family="Helvetica,sans-Serif" font-size="10.00">applyNewSettings</text>
</g>
<!-- Node2 -->
<g id="node3" class="node"><title>Node2</title>
<a xlink:href="../../d7/d04/classproject_1_1_project_settings.html#ad59385e2b83064738e8974bbe8195cb4" target="_top" xlink:title="project::ProjectSettings\l::restoreDefaults">
<polygon fill="white" stroke="black" points="132.5,-104 132.5,-138 251.5,-138 251.5,-104 132.5,-104"/>
<text text-anchor="start" x="140.5" y="-125" font-family="Helvetica,sans-Serif" font-size="10.00">project::ProjectSettings</text>
<text text-anchor="middle" x="192" y="-112" font-family="Helvetica,sans-Serif" font-size="10.00">::restoreDefaults</text>
</a>
</g>
<!-- Node1&#45;&gt;Node2 -->
<g id="edge2" class="edge"><title>Node1&#45;&gt;Node2</title>
<path fill="none" stroke="midnightblue" d="M77.1405,-79.523C93.8081,-85.5418 115.294,-93.3005 135.165,-100.476"/>
<polygon fill="midnightblue" stroke="midnightblue" points="134.167,-103.837 144.762,-103.942 136.545,-97.2533 134.167,-103.837"/>
</g>
<!-- Node3 -->
<g id="node5" class="node"><title>Node3</title>
<a xlink:href="../../d7/d04/classproject_1_1_project_settings.html#a50424f32061290175b08d295c880577e" target="_top" xlink:title="project::ProjectSettings\l::setLocaleOrder">
<polygon fill="white" stroke="black" points="132.5,-52 132.5,-86 251.5,-86 251.5,-52 132.5,-52"/>
<text text-anchor="start" x="140.5" y="-73" font-family="Helvetica,sans-Serif" font-size="10.00">project::ProjectSettings</text>
<text text-anchor="middle" x="192" y="-60" font-family="Helvetica,sans-Serif" font-size="10.00">::setLocaleOrder</text>
</a>
</g>
<!-- Node1&#45;&gt;Node3 -->
<g id="edge4" class="edge"><title>Node1&#45;&gt;Node3</title>
<path fill="none" stroke="midnightblue" d="M96.3505,-69C104.631,-69 113.381,-69 122.09,-69"/>
<polygon fill="midnightblue" stroke="midnightblue" points="122.264,-72.5001 132.264,-69 122.264,-65.5001 122.264,-72.5001"/>
</g>
<!-- Node4 -->
<g id="node7" class="node"><title>Node4</title>
<a xlink:href="../../d7/d04/classproject_1_1_project_settings.html#a6d4d10e573d7cd7a1f44788d7b22f576" target="_top" xlink:title="project::ProjectSettings\l::setNormOrder">
<polygon fill="white" stroke="black" points="132.5,-0 132.5,-34 251.5,-34 251.5,-0 132.5,-0"/>
<text text-anchor="start" x="140.5" y="-21" font-family="Helvetica,sans-Serif" font-size="10.00">project::ProjectSettings</text>
<text text-anchor="middle" x="192" y="-8" font-family="Helvetica,sans-Serif" font-size="10.00">::setNormOrder</text>
</a>
</g>
<!-- Node1&#45;&gt;Node4 -->
<g id="edge6" class="edge"><title>Node1&#45;&gt;Node4</title>
<path fill="none" stroke="midnightblue" d="M77.1405,-58.477C93.8081,-52.4582 115.294,-44.6995 135.165,-37.5239"/>
<polygon fill="midnightblue" stroke="midnightblue" points="136.545,-40.7467 144.762,-34.0582 134.167,-34.1628 136.545,-40.7467"/>
</g>
</g>
</svg>
