<?xml version="1.0" encoding="UTF-8" standalone="no"?>
<!DOCTYPE svg PUBLIC "-//W3C//DTD SVG 1.1//EN"
 "http://www.w3.org/Graphics/SVG/1.1/DTD/svg11.dtd">
<!-- Generated by graphviz version 2.26.3 (20100126.1600)
 -->
<!-- Title: applyOldSettings Pages: 1 -->
<svg width="256pt" height="94pt"
 viewBox="0.00 0.00 256.00 94.00" xmlns="http://www.w3.org/2000/svg" xmlns:xlink="http://www.w3.org/1999/xlink">
<g id="graph1" class="graph" transform="scale(1 1) rotate(0) translate(4 90)">
<title>applyOldSettings</title>
<polygon fill="white" stroke="white" points="-4,5 -4,-90 253,-90 253,5 -4,5"/>
<!-- Node1 -->
<g id="node1" class="node"><title>Node1</title>
<polygon fill="#bfbfbf" stroke="black" points="0.5,-32.5 0.5,-53.5 91.5,-53.5 91.5,-32.5 0.5,-32.5"/>
<text text-anchor="middle" x="46" y="-40.5" font-family="Helvetica,sans-Serif" font-size="10.00">applyOldSettings</text>
</g>
<!-- Node2 -->
<g id="node3" class="node"><title>Node2</title>
<a xlink:href="../../d7/d04/classproject_1_1_project_settings.html#a50424f32061290175b08d295c880577e" target="_top" xlink:title="project::ProjectSettings\l::setLocaleOrder">
<polygon fill="white" stroke="black" points="128.5,-52 128.5,-86 247.5,-86 247.5,-52 128.5,-52"/>
<text text-anchor="start" x="136.5" y="-73" font-family="Helvetica,sans-Serif" font-size="10.00">project::ProjectSettings</text>
<text text-anchor="middle" x="188" y="-60" font-family="Helvetica,sans-Serif" font-size="10.00">::setLocaleOrder</text>
</a>
</g>
<!-- Node1&#45;&gt;Node2 -->
<g id="edge2" class="edge"><title>Node1&#45;&gt;Node2</title>
<path fill="none" stroke="midnightblue" d="M91.7113,-51.3697C100.285,-52.9395 109.425,-54.613 118.531,-56.2803"/>
<polygon fill="midnightblue" stroke="midnightblue" points="117.904,-59.7236 128.371,-58.082 119.165,-52.8381 117.904,-59.7236"/>
</g>
<!-- Node3 -->
<g id="node5" class="node"><title>Node3</title>
<a xlink:href="../../d7/d04/classproject_1_1_project_settings.html#a6d4d10e573d7cd7a1f44788d7b22f576" target="_top" xlink:title="project::ProjectSettings\l::setNormOrder">
<polygon fill="white" stroke="black" points="128.5,-0 128.5,-34 247.5,-34 247.5,-0 128.5,-0"/>
<text text-anchor="start" x="136.5" y="-21" font-family="Helvetica,sans-Serif" font-size="10.00">project::ProjectSettings</text>
<text text-anchor="middle" x="188" y="-8" font-family="Helvetica,sans-Serif" font-size="10.00">::setNormOrder</text>
</a>
</g>
<!-- Node1&#45;&gt;Node3 -->
<g id="edge4" class="edge"><title>Node1&#45;&gt;Node3</title>
<path fill="none" stroke="midnightblue" d="M91.7113,-34.6303C100.285,-33.0605 109.425,-31.387 118.531,-29.7197"/>
<polygon fill="midnightblue" stroke="midnightblue" points="119.165,-33.1619 128.371,-27.918 117.904,-26.2764 119.165,-33.1619"/>
</g>
</g>
</svg>
