<?xml version="1.0" encoding="UTF-8" standalone="no"?>
<!DOCTYPE svg PUBLIC "-//W3C//DTD SVG 1.1//EN"
 "http://www.w3.org/Graphics/SVG/1.1/DTD/svg11.dtd">
<!-- Generated by graphviz version 2.26.3 (20100126.1600)
 -->
<!-- Title: retranslateUi Pages: 1 -->
<svg width="306pt" height="42pt"
 viewBox="0.00 0.00 306.00 42.00" xmlns="http://www.w3.org/2000/svg" xmlns:xlink="http://www.w3.org/1999/xlink">
<g id="graph1" class="graph" transform="scale(1 1) rotate(0) translate(4 38)">
<title>retranslateUi</title>
<polygon fill="white" stroke="white" points="-4,5 -4,-38 303,-38 303,5 -4,5"/>
<!-- Node1 -->
<g id="node1" class="node"><title>Node1</title>
<polygon fill="#bfbfbf" stroke="black" points="0,-6.5 0,-27.5 72,-27.5 72,-6.5 0,-6.5"/>
<text text-anchor="middle" x="36" y="-14.5" font-family="Helvetica,sans-Serif" font-size="10.00">retranslateUi</text>
</g>
<!-- Node2 -->
<g id="node3" class="node"><title>Node2</title>
<a xlink:href="../../da/d8f/class_ui___grid_settings_dialog.html#a3a420590f6134ad5fbf7d6f21bd67938" target="_top" xlink:title="setupUi">
<polygon fill="white" stroke="black" points="108,-6.5 108,-27.5 158,-27.5 158,-6.5 108,-6.5"/>
<text text-anchor="middle" x="133" y="-14.5" font-family="Helvetica,sans-Serif" font-size="10.00">setupUi</text>
</a>
</g>
<!-- Node1&#45;&gt;Node2 -->
<g id="edge2" class="edge"><title>Node1&#45;&gt;Node2</title>
<path fill="none" stroke="midnightblue" d="M82.2997,-17C91.0682,-17 99.9328,-17 107.744,-17"/>
<polygon fill="midnightblue" stroke="midnightblue" points="82.1193,-13.5001 72.1192,-17 82.1192,-20.5001 82.1193,-13.5001"/>
</g>
<!-- Node3 -->
<g id="node5" class="node"><title>Node3</title>
<a xlink:href="../../dc/d4e/class_grid_settings_dialog.html#accb85452fe6ac5e053dcaae228cd9866" target="_top" xlink:title="GridSettingsDialog\l::GridSettingsDialog">
<polygon fill="white" stroke="black" points="194,-0 194,-34 298,-34 298,-0 194,-0"/>
<text text-anchor="start" x="202" y="-21" font-family="Helvetica,sans-Serif" font-size="10.00">GridSettingsDialog</text>
<text text-anchor="middle" x="246" y="-8" font-family="Helvetica,sans-Serif" font-size="10.00">::GridSettingsDialog</text>
</a>
</g>
<!-- Node2&#45;&gt;Node3 -->
<g id="edge4" class="edge"><title>Node2&#45;&gt;Node3</title>
<path fill="none" stroke="midnightblue" d="M168.233,-17C176.307,-17 185.06,-17 193.681,-17"/>
<polygon fill="midnightblue" stroke="midnightblue" points="168.078,-13.5001 158.078,-17 168.078,-20.5001 168.078,-13.5001"/>
</g>
</g>
</svg>
