<?xml version="1.0" encoding="UTF-8" standalone="no"?>
<!DOCTYPE svg PUBLIC "-//W3C//DTD SVG 1.1//EN"
 "http://www.w3.org/Graphics/SVG/1.1/DTD/svg11.dtd">
<!-- Generated by graphviz version 2.26.3 (20100126.1600)
 -->
<!-- Title: restoreDefaults Pages: 1 -->
<svg width="444pt" height="94pt"
 viewBox="0.00 0.00 444.00 94.00" xmlns="http://www.w3.org/2000/svg" xmlns:xlink="http://www.w3.org/1999/xlink">
<g id="graph1" class="graph" transform="scale(1 1) rotate(0) translate(4 90)">
<title>restoreDefaults</title>
<polygon fill="white" stroke="white" points="-4,5 -4,-90 441,-90 441,5 -4,5"/>
<!-- Node1 -->
<g id="node1" class="node"><title>Node1</title>
<polygon fill="#bfbfbf" stroke="black" points="0.5,-32.5 0.5,-53.5 83.5,-53.5 83.5,-32.5 0.5,-32.5"/>
<text text-anchor="middle" x="42" y="-40.5" font-family="Helvetica,sans-Serif" font-size="10.00">restoreDefaults</text>
</g>
<!-- Node2 -->
<g id="node3" class="node"><title>Node2</title>
<a xlink:href="../../d8/dea/classproject_1_1_cmd_project_settings_change.html#a182114340986a804a9befcd377b5a64d" target="_top" xlink:title="project::CmdProjectSettings\lChange::applyNewSettings">
<polygon fill="white" stroke="black" points="120,-26 120,-60 260,-60 260,-26 120,-26"/>
<text text-anchor="start" x="128" y="-47" font-family="Helvetica,sans-Serif" font-size="10.00">project::CmdProjectSettings</text>
<text text-anchor="middle" x="190" y="-34" font-family="Helvetica,sans-Serif" font-size="10.00">Change::applyNewSettings</text>
</a>
</g>
<!-- Node1&#45;&gt;Node2 -->
<g id="edge2" class="edge"><title>Node1&#45;&gt;Node2</title>
<path fill="none" stroke="midnightblue" d="M93.6869,-43C102.142,-43 111.026,-43 119.836,-43"/>
<polygon fill="midnightblue" stroke="midnightblue" points="93.6201,-39.5001 83.6201,-43 93.6201,-46.5001 93.6201,-39.5001"/>
</g>
<!-- Node3 -->
<g id="node5" class="node"><title>Node3</title>
<a xlink:href="../../d8/dea/classproject_1_1_cmd_project_settings_change.html#a91ca7652063093da57fc1bd0141dcc95" target="_top" xlink:title="Redo/execute the command (and all child commands in normal order) ">
<polygon fill="white" stroke="black" points="296,-52 296,-86 436,-86 436,-52 296,-52"/>
<text text-anchor="start" x="304" y="-73" font-family="Helvetica,sans-Serif" font-size="10.00">project::CmdProjectSettings</text>
<text text-anchor="middle" x="366" y="-60" font-family="Helvetica,sans-Serif" font-size="10.00">Change::redo</text>
</a>
</g>
<!-- Node2&#45;&gt;Node3 -->
<g id="edge4" class="edge"><title>Node2&#45;&gt;Node3</title>
<path fill="none" stroke="midnightblue" d="M270.101,-54.833C278.706,-56.1043 287.412,-57.3905 295.888,-58.6425"/>
<polygon fill="midnightblue" stroke="midnightblue" points="270.47,-51.3497 260.066,-53.3506 269.447,-58.2745 270.47,-51.3497"/>
</g>
<!-- Node4 -->
<g id="node7" class="node"><title>Node4</title>
<a xlink:href="../../d8/dea/classproject_1_1_cmd_project_settings_change.html#a19e8778088bfe76b16745470981bb913" target="_top" xlink:title="Undo the command (and all child commands in reverse order) ">
<polygon fill="white" stroke="black" points="296,-0 296,-34 436,-34 436,-0 296,-0"/>
<text text-anchor="start" x="304" y="-21" font-family="Helvetica,sans-Serif" font-size="10.00">project::CmdProjectSettings</text>
<text text-anchor="middle" x="366" y="-8" font-family="Helvetica,sans-Serif" font-size="10.00">Change::undo</text>
</a>
</g>
<!-- Node2&#45;&gt;Node4 -->
<g id="edge6" class="edge"><title>Node2&#45;&gt;Node4</title>
<path fill="none" stroke="midnightblue" d="M270.101,-31.167C278.706,-29.8957 287.412,-28.6095 295.888,-27.3575"/>
<polygon fill="midnightblue" stroke="midnightblue" points="269.447,-27.7255 260.066,-32.6494 270.47,-34.6503 269.447,-27.7255"/>
</g>
</g>
</svg>
