<?xml version="1.0" encoding="UTF-8" standalone="no"?>
<!DOCTYPE svg PUBLIC "-//W3C//DTD SVG 1.1//EN"
 "http://www.w3.org/Graphics/SVG/1.1/DTD/svg11.dtd">
<!-- Generated by graphviz version 2.26.3 (20100126.1600)
 -->
<!-- Title: unlock Pages: 1 -->
<svg width="186pt" height="110pt"
 viewBox="0.00 0.00 186.00 110.00" xmlns="http://www.w3.org/2000/svg" xmlns:xlink="http://www.w3.org/1999/xlink">
<g id="graph1" class="graph" transform="scale(1 1) rotate(0) translate(4 106)">
<title>unlock</title>
<polygon fill="white" stroke="white" points="-4,5 -4,-106 183,-106 183,5 -4,5"/>
<!-- Node1 -->
<g id="node1" class="node"><title>Node1</title>
<polygon fill="#bfbfbf" stroke="black" points="0.5,-40.5 0.5,-61.5 45.5,-61.5 45.5,-40.5 0.5,-40.5"/>
<text text-anchor="middle" x="23" y="-48.5" font-family="Helvetica,sans-Serif" font-size="10.00">unlock</text>
</g>
<!-- Node2 -->
<g id="node3" class="node"><title>Node2</title>
<a xlink:href="../../d4/d1c/class_file_path.html#a0a886a9edf5bf682f5245159661bfc94" target="_top" xlink:title="Check whether this object contains a valid filepath or not. ">
<polygon fill="white" stroke="black" points="86,-80.5 86,-101.5 174,-101.5 174,-80.5 86,-80.5"/>
<text text-anchor="middle" x="130" y="-88.5" font-family="Helvetica,sans-Serif" font-size="10.00">FilePath::isValid</text>
</a>
</g>
<!-- Node1&#45;&gt;Node2 -->
<g id="edge2" class="edge"><title>Node1&#45;&gt;Node2</title>
<path fill="none" stroke="midnightblue" d="M45.6919,-59.483C59.2052,-64.5347 76.6964,-71.0734 92.2413,-76.8846"/>
<polygon fill="midnightblue" stroke="midnightblue" points="91.0232,-80.1657 101.616,-80.389 93.4744,-73.6089 91.0232,-80.1657"/>
</g>
<!-- Node3 -->
<g id="node5" class="node"><title>Node3</title>
<a xlink:href="../../d4/d1c/class_file_path.html#a39a0bbf3901de18041fb5c324ecf412a" target="_top" xlink:title="Get the absolute and well&#45;formatted filepath as a QString. ">
<polygon fill="white" stroke="black" points="90,-40.5 90,-61.5 170,-61.5 170,-40.5 90,-40.5"/>
<text text-anchor="middle" x="130" y="-48.5" font-family="Helvetica,sans-Serif" font-size="10.00">FilePath::toStr</text>
</a>
</g>
<!-- Node1&#45;&gt;Node3 -->
<g id="edge4" class="edge"><title>Node1&#45;&gt;Node3</title>
<path fill="none" stroke="midnightblue" d="M45.6919,-51C55.5609,-51 67.5515,-51 79.3562,-51"/>
<polygon fill="midnightblue" stroke="midnightblue" points="79.6242,-54.5001 89.6241,-51 79.6241,-47.5001 79.6242,-54.5001"/>
</g>
<!-- Node4 -->
<g id="node7" class="node"><title>Node4</title>
<a xlink:href="../../d4/d1c/class_file_path.html#af27e4f117ace775ab38ae937c12cd37a" target="_top" xlink:title="Get the absolute filepath with native directory separators (&quot;/&quot; resp. &quot;\&quot;) ">
<polygon fill="white" stroke="black" points="82.5,-0.5 82.5,-21.5 177.5,-21.5 177.5,-0.5 82.5,-0.5"/>
<text text-anchor="middle" x="130" y="-8.5" font-family="Helvetica,sans-Serif" font-size="10.00">FilePath::toNative</text>
</a>
</g>
<!-- Node1&#45;&gt;Node4 -->
<g id="edge6" class="edge"><title>Node1&#45;&gt;Node4</title>
<path fill="none" stroke="midnightblue" d="M45.6919,-42.517C59.2052,-37.4653 76.6964,-30.9266 92.2413,-25.1154"/>
<polygon fill="midnightblue" stroke="midnightblue" points="93.4744,-28.3911 101.616,-21.611 91.0232,-21.8343 93.4744,-28.3911"/>
</g>
</g>
</svg>
