<?xml version="1.0" encoding="UTF-8" standalone="no"?>
<!DOCTYPE svg PUBLIC "-//W3C//DTD SVG 1.1//EN"
 "http://www.w3.org/Graphics/SVG/1.1/DTD/svg11.dtd">
<!-- Generated by graphviz version 2.26.3 (20100126.1600)
 -->
<!-- Title: /home/travis/build/LibrePCB/LibrePCB/libs/librepcbcommon/application.h Pages: 1 -->
<svg width="938pt" height="154pt"
 viewBox="0.00 0.00 938.00 154.00" xmlns="http://www.w3.org/2000/svg" xmlns:xlink="http://www.w3.org/1999/xlink">
<g id="graph1" class="graph" transform="scale(1 1) rotate(0) translate(4 150)">
<title>/home/travis/build/LibrePCB/LibrePCB/libs/librepcbcommon/application.h</title>
<polygon fill="white" stroke="white" points="-4,5 -4,-150 935,-150 935,5 -4,5"/>
<!-- Node1 -->
<g id="node1" class="node"><title>Node1</title>
<polygon fill="#bfbfbf" stroke="black" points="386.5,-98.5 386.5,-145.5 535.5,-145.5 535.5,-98.5 386.5,-98.5"/>
<text text-anchor="start" x="394.5" y="-132.5" font-family="Helvetica,sans-Serif" font-size="10.00">/home/travis/build</text>
<text text-anchor="start" x="394.5" y="-119.5" font-family="Helvetica,sans-Serif" font-size="10.00">/LibrePCB/LibrePCB/libs</text>
<text text-anchor="middle" x="461" y="-106.5" font-family="Helvetica,sans-Serif" font-size="10.00">/librepcbcommon/application.h</text>
</g>
<!-- Node2 -->
<g id="node3" class="node"><title>Node2</title>
<a xlink:href="../../df/d7b/application_8cpp.html" target="_top" xlink:title="/home/travis/build\l/LibrePCB/LibrePCB/libs\l/librepcbcommon/application.cpp">
<polygon fill="white" stroke="black" points="-0.5,-7.5 -0.5,-54.5 158.5,-54.5 158.5,-7.5 -0.5,-7.5"/>
<text text-anchor="start" x="7.5" y="-41.5" font-family="Helvetica,sans-Serif" font-size="10.00">/home/travis/build</text>
<text text-anchor="start" x="7.5" y="-28.5" font-family="Helvetica,sans-Serif" font-size="10.00">/LibrePCB/LibrePCB/libs</text>
<text text-anchor="middle" x="79" y="-15.5" font-family="Helvetica,sans-Serif" font-size="10.00">/librepcbcommon/application.cpp</text>
</a>
</g>
<!-- Node1&#45;&gt;Node2 -->
<g id="edge2" class="edge"><title>Node1&#45;&gt;Node2</title>
<path fill="none" stroke="midnightblue" d="M376.281,-107.898C317.145,-97.2802 236.649,-81.2764 167,-62 159.038,-59.7965 150.756,-57.2406 142.598,-54.5602"/>
<polygon fill="midnightblue" stroke="midnightblue" points="375.865,-111.379 386.324,-109.686 377.092,-104.487 375.865,-111.379"/>
</g>
<!-- Node3 -->
<g id="node5" class="node"><title>Node3</title>
<a xlink:href="../../d4/d20/projectlibrary_8cpp.html" target="_top" xlink:title="/home/travis/build\l/LibrePCB/LibrePCB/libs\l/librepcbproject/library\l/projectlibrary.cpp">
<polygon fill="white" stroke="black" points="175.5,-1 175.5,-61 300.5,-61 300.5,-1 175.5,-1"/>
<text text-anchor="start" x="183.5" y="-48" font-family="Helvetica,sans-Serif" font-size="10.00">/home/travis/build</text>
<text text-anchor="start" x="183.5" y="-35" font-family="Helvetica,sans-Serif" font-size="10.00">/LibrePCB/LibrePCB/libs</text>
<text text-anchor="start" x="183.5" y="-22" font-family="Helvetica,sans-Serif" font-size="10.00">/librepcbproject/library</text>
<text text-anchor="middle" x="238" y="-9" font-family="Helvetica,sans-Serif" font-size="10.00">/projectlibrary.cpp</text>
</a>
</g>
<!-- Node1&#45;&gt;Node3 -->
<g id="edge4" class="edge"><title>Node1&#45;&gt;Node3</title>
<path fill="none" stroke="midnightblue" d="M390.138,-94.6335C364.495,-84.5711 335.367,-72.9561 309,-62 306.267,-60.8646 303.48,-59.6954 300.668,-58.5066"/>
<polygon fill="midnightblue" stroke="midnightblue" points="389.194,-98.0227 399.782,-98.4094 391.746,-91.5045 389.194,-98.0227"/>
</g>
<!-- Node4 -->
<g id="node7" class="node"><title>Node4</title>
<a xlink:href="../../df/d18/project_8cpp.html" target="_top" xlink:title="/home/travis/build\l/LibrePCB/LibrePCB/libs\l/librepcbproject/project.cpp">
<polygon fill="white" stroke="black" points="318,-7.5 318,-54.5 452,-54.5 452,-7.5 318,-7.5"/>
<text text-anchor="start" x="326" y="-41.5" font-family="Helvetica,sans-Serif" font-size="10.00">/home/travis/build</text>
<text text-anchor="start" x="326" y="-28.5" font-family="Helvetica,sans-Serif" font-size="10.00">/LibrePCB/LibrePCB/libs</text>
<text text-anchor="middle" x="385" y="-15.5" font-family="Helvetica,sans-Serif" font-size="10.00">/librepcbproject/project.cpp</text>
</a>
</g>
<!-- Node1&#45;&gt;Node4 -->
<g id="edge6" class="edge"><title>Node1&#45;&gt;Node4</title>
<path fill="none" stroke="midnightblue" d="M434.499,-90.2682C424.753,-78.5991 413.893,-65.5961 404.835,-54.7495"/>
<polygon fill="midnightblue" stroke="midnightblue" points="431.935,-92.6591 441.032,-98.0908 437.308,-88.1719 431.935,-92.6591"/>
</g>
<!-- Node5 -->
<g id="node9" class="node"><title>Node5</title>
<a xlink:href="../../dc/db2/schematic_8cpp.html" target="_top" xlink:title="/home/travis/build\l/LibrePCB/LibrePCB/libs\l/librepcbproject/schematics\l/schematic.cpp">
<polygon fill="white" stroke="black" points="470,-1 470,-61 606,-61 606,-1 470,-1"/>
<text text-anchor="start" x="478" y="-48" font-family="Helvetica,sans-Serif" font-size="10.00">/home/travis/build</text>
<text text-anchor="start" x="478" y="-35" font-family="Helvetica,sans-Serif" font-size="10.00">/LibrePCB/LibrePCB/libs</text>
<text text-anchor="start" x="478" y="-22" font-family="Helvetica,sans-Serif" font-size="10.00">/librepcbproject/schematics</text>
<text text-anchor="middle" x="538" y="-9" font-family="Helvetica,sans-Serif" font-size="10.00">/schematic.cpp</text>
</a>
</g>
<!-- Node1&#45;&gt;Node5 -->
<g id="edge8" class="edge"><title>Node1&#45;&gt;Node5</title>
<path fill="none" stroke="midnightblue" d="M487.733,-90.4059C495.725,-80.9612 504.465,-70.632 512.384,-61.274"/>
<polygon fill="midnightblue" stroke="midnightblue" points="485.018,-88.1961 481.231,-98.0908 490.362,-92.7177 485.018,-88.1961"/>
</g>
<!-- Node6 -->
<g id="node11" class="node"><title>Node6</title>
<a xlink:href="../../d1/d4e/controlpanel_8cpp.html" target="_top" xlink:title="/home/travis/build\l/LibrePCB/LibrePCB/librepcb\l/controlpanel/controlpanel.cpp">
<polygon fill="white" stroke="black" points="624,-7.5 624,-54.5 770,-54.5 770,-7.5 624,-7.5"/>
<text text-anchor="start" x="632" y="-41.5" font-family="Helvetica,sans-Serif" font-size="10.00">/home/travis/build</text>
<text text-anchor="start" x="632" y="-28.5" font-family="Helvetica,sans-Serif" font-size="10.00">/LibrePCB/LibrePCB/librepcb</text>
<text text-anchor="middle" x="697" y="-15.5" font-family="Helvetica,sans-Serif" font-size="10.00">/controlpanel/controlpanel.cpp</text>
</a>
</g>
<!-- Node1&#45;&gt;Node6 -->
<g id="edge10" class="edge"><title>Node1&#45;&gt;Node6</title>
<path fill="none" stroke="midnightblue" d="M531.706,-94.7363C564.833,-81.9628 603.919,-66.8916 635.764,-54.6123"/>
<polygon fill="midnightblue" stroke="midnightblue" points="530.154,-91.5835 522.083,-98.4469 532.672,-98.1147 530.154,-91.5835"/>
</g>
<!-- Node7 -->
<g id="node13" class="node"><title>Node7</title>
<a xlink:href="../../df/d0a/main_8cpp.html" target="_top" xlink:title="/home/travis/build\l/LibrePCB/LibrePCB/librepcb\l/main.cpp">
<polygon fill="white" stroke="black" points="787.5,-7.5 787.5,-54.5 930.5,-54.5 930.5,-7.5 787.5,-7.5"/>
<text text-anchor="start" x="795.5" y="-41.5" font-family="Helvetica,sans-Serif" font-size="10.00">/home/travis/build</text>
<text text-anchor="start" x="795.5" y="-28.5" font-family="Helvetica,sans-Serif" font-size="10.00">/LibrePCB/LibrePCB/librepcb</text>
<text text-anchor="middle" x="859" y="-15.5" font-family="Helvetica,sans-Serif" font-size="10.00">/main.cpp</text>
</a>
</g>
<!-- Node1&#45;&gt;Node7 -->
<g id="edge12" class="edge"><title>Node1&#45;&gt;Node7</title>
<path fill="none" stroke="midnightblue" d="M545.932,-110.309C610.557,-100.374 701.31,-84.1792 779,-62 786.448,-59.8737 794.171,-57.3322 801.75,-54.6319"/>
<polygon fill="midnightblue" stroke="midnightblue" points="545.152,-106.887 535.791,-111.849 546.203,-113.807 545.152,-106.887"/>
</g>
</g>
</svg>
