<?xml version="1.0" encoding="UTF-8" standalone="no"?>
<!DOCTYPE svg PUBLIC "-//W3C//DTD SVG 1.1//EN"
 "http://www.w3.org/Graphics/SVG/1.1/DTD/svg11.dtd">
<!-- Generated by graphviz version 2.26.3 (20100126.1600)
 -->
<!-- Title: /home/travis/build/LibrePCB/LibrePCB/libs/librepcblibrary/cmp/component.h Pages: 1 -->
<svg width="1260pt" height="252pt"
 viewBox="0.00 0.00 1260.00 252.00" xmlns="http://www.w3.org/2000/svg" xmlns:xlink="http://www.w3.org/1999/xlink">
<g id="graph1" class="graph" transform="scale(1 1) rotate(0) translate(4 248)">
<title>/home/travis/build/LibrePCB/LibrePCB/libs/librepcblibrary/cmp/component.h</title>
<polygon fill="white" stroke="white" points="-4,5 -4,-248 1257,-248 1257,5 -4,5"/>
<!-- Node1 -->
<g id="node1" class="node"><title>Node1</title>
<polygon fill="#bfbfbf" stroke="black" points="534.5,-196.5 534.5,-243.5 695.5,-243.5 695.5,-196.5 534.5,-196.5"/>
<text text-anchor="start" x="542.5" y="-230.5" font-family="Helvetica,sans-Serif" font-size="10.00">/home/travis/build</text>
<text text-anchor="start" x="542.5" y="-217.5" font-family="Helvetica,sans-Serif" font-size="10.00">/LibrePCB/LibrePCB/libs</text>
<text text-anchor="middle" x="615" y="-204.5" font-family="Helvetica,sans-Serif" font-size="10.00">/librepcblibrary/cmp/component.h</text>
</g>
<!-- Node2 -->
<g id="node3" class="node"><title>Node2</title>
<a xlink:href="../../d2/d6a/component_8cpp.html" target="_top" xlink:title="/home/travis/build\l/LibrePCB/LibrePCB/libs\l/librepcblibrary/cmp/component.cpp">
<polygon fill="white" stroke="black" points="-0.5,-105.5 -0.5,-152.5 170.5,-152.5 170.5,-105.5 -0.5,-105.5"/>
<text text-anchor="start" x="7.5" y="-139.5" font-family="Helvetica,sans-Serif" font-size="10.00">/home/travis/build</text>
<text text-anchor="start" x="7.5" y="-126.5" font-family="Helvetica,sans-Serif" font-size="10.00">/LibrePCB/LibrePCB/libs</text>
<text text-anchor="middle" x="85" y="-113.5" font-family="Helvetica,sans-Serif" font-size="10.00">/librepcblibrary/cmp/component.cpp</text>
</a>
</g>
<!-- Node1&#45;&gt;Node2 -->
<g id="edge2" class="edge"><title>Node1&#45;&gt;Node2</title>
<path fill="none" stroke="midnightblue" d="M524.204,-212.358C435.397,-203.748 296.725,-187.273 179,-160 169.96,-157.906 160.551,-155.316 151.332,-152.532"/>
<polygon fill="midnightblue" stroke="midnightblue" points="523.957,-215.85 534.245,-213.318 524.624,-208.882 523.957,-215.85"/>
</g>
<!-- Node3 -->
<g id="node5" class="node"><title>Node3</title>
<a xlink:href="../../de/d98/elements_8h.html" target="_top" xlink:title="/home/travis/build\l/LibrePCB/LibrePCB/libs\l/librepcblibrary/elements.h">
<polygon fill="white" stroke="black" points="187.5,-105.5 187.5,-152.5 318.5,-152.5 318.5,-105.5 187.5,-105.5"/>
<text text-anchor="start" x="195.5" y="-139.5" font-family="Helvetica,sans-Serif" font-size="10.00">/home/travis/build</text>
<text text-anchor="start" x="195.5" y="-126.5" font-family="Helvetica,sans-Serif" font-size="10.00">/LibrePCB/LibrePCB/libs</text>
<text text-anchor="middle" x="253" y="-113.5" font-family="Helvetica,sans-Serif" font-size="10.00">/librepcblibrary/elements.h</text>
</a>
</g>
<!-- Node1&#45;&gt;Node3 -->
<g id="edge4" class="edge"><title>Node1&#45;&gt;Node3</title>
<path fill="none" stroke="midnightblue" d="M524.379,-205.71C467.089,-195.553 391.879,-180.144 327,-160 320.083,-157.852 312.922,-155.298 305.903,-152.591"/>
<polygon fill="midnightblue" stroke="midnightblue" points="524.044,-209.204 534.498,-207.482 525.252,-202.309 524.044,-209.204"/>
</g>
<!-- Node5 -->
<g id="node9" class="node"><title>Node5</title>
<a xlink:href="../../d7/d7d/library_8cpp.html" target="_top" xlink:title="/home/travis/build\l/LibrePCB/LibrePCB/libs\l/librepcblibrary/library.cpp">
<polygon fill="white" stroke="black" points="336,-105.5 336,-152.5 464,-152.5 464,-105.5 336,-105.5"/>
<text text-anchor="start" x="344" y="-139.5" font-family="Helvetica,sans-Serif" font-size="10.00">/home/travis/build</text>
<text text-anchor="start" x="344" y="-126.5" font-family="Helvetica,sans-Serif" font-size="10.00">/LibrePCB/LibrePCB/libs</text>
<text text-anchor="middle" x="400" y="-113.5" font-family="Helvetica,sans-Serif" font-size="10.00">/librepcblibrary/library.cpp</text>
</a>
</g>
<!-- Node1&#45;&gt;Node5 -->
<g id="edge8" class="edge"><title>Node1&#45;&gt;Node5</title>
<path fill="none" stroke="midnightblue" d="M549.614,-192.401C525.527,-182.226 498.019,-170.598 473,-160 467.295,-157.583 461.34,-155.058 455.399,-152.538"/>
<polygon fill="midnightblue" stroke="midnightblue" points="548.439,-195.704 559.012,-196.371 551.162,-189.256 548.439,-195.704"/>
</g>
<!-- Node6 -->
<g id="node11" class="node"><title>Node6</title>
<a xlink:href="../../d4/dd6/moc__component_8cpp.html" target="_top" xlink:title="/home/travis/build\l/LibrePCB/LibrePCB/libs\l/librepcblibrary/moc/moc\l_component.cpp">
<polygon fill="white" stroke="black" points="481.5,-99 481.5,-159 606.5,-159 606.5,-99 481.5,-99"/>
<text text-anchor="start" x="489.5" y="-146" font-family="Helvetica,sans-Serif" font-size="10.00">/home/travis/build</text>
<text text-anchor="start" x="489.5" y="-133" font-family="Helvetica,sans-Serif" font-size="10.00">/LibrePCB/LibrePCB/libs</text>
<text text-anchor="start" x="489.5" y="-120" font-family="Helvetica,sans-Serif" font-size="10.00">/librepcblibrary/moc/moc</text>
<text text-anchor="middle" x="544" y="-107" font-family="Helvetica,sans-Serif" font-size="10.00">_component.cpp</text>
</a>
</g>
<!-- Node1&#45;&gt;Node6 -->
<g id="edge10" class="edge"><title>Node1&#45;&gt;Node6</title>
<path fill="none" stroke="midnightblue" d="M590.128,-188.122C582.82,-178.755 574.849,-168.538 567.62,-159.274"/>
<polygon fill="midnightblue" stroke="midnightblue" points="587.435,-190.36 596.346,-196.091 592.954,-186.054 587.435,-190.36"/>
</g>
<!-- Node7 -->
<g id="node13" class="node"><title>Node7</title>
<a xlink:href="../../d6/d55/componentinstance_8cpp.html" target="_top" xlink:title="/home/travis/build\l/LibrePCB/LibrePCB/libs\l/librepcbproject/boards\l/componentinstance.cpp">
<polygon fill="white" stroke="black" points="623.5,-99 623.5,-159 748.5,-159 748.5,-99 623.5,-99"/>
<text text-anchor="start" x="631.5" y="-146" font-family="Helvetica,sans-Serif" font-size="10.00">/home/travis/build</text>
<text text-anchor="start" x="631.5" y="-133" font-family="Helvetica,sans-Serif" font-size="10.00">/LibrePCB/LibrePCB/libs</text>
<text text-anchor="start" x="631.5" y="-120" font-family="Helvetica,sans-Serif" font-size="10.00">/librepcbproject/boards</text>
<text text-anchor="middle" x="686" y="-107" font-family="Helvetica,sans-Serif" font-size="10.00">/componentinstance.cpp</text>
</a>
</g>
<!-- Node1&#45;&gt;Node7 -->
<g id="edge12" class="edge"><title>Node1&#45;&gt;Node7</title>
<path fill="none" stroke="midnightblue" d="M639.872,-188.122C647.18,-178.755 655.151,-168.538 662.38,-159.274"/>
<polygon fill="midnightblue" stroke="midnightblue" points="637.046,-186.054 633.654,-196.091 642.565,-190.36 637.046,-186.054"/>
</g>
<!-- Node8 -->
<g id="node15" class="node"><title>Node8</title>
<a xlink:href="../../de/d33/bi__footprint_8cpp.html" target="_top" xlink:title="/home/travis/build\l/LibrePCB/LibrePCB/libs\l/librepcbproject/boards\l/items/bi_footprint.cpp">
<polygon fill="white" stroke="black" points="765.5,-99 765.5,-159 890.5,-159 890.5,-99 765.5,-99"/>
<text text-anchor="start" x="773.5" y="-146" font-family="Helvetica,sans-Serif" font-size="10.00">/home/travis/build</text>
<text text-anchor="start" x="773.5" y="-133" font-family="Helvetica,sans-Serif" font-size="10.00">/LibrePCB/LibrePCB/libs</text>
<text text-anchor="start" x="773.5" y="-120" font-family="Helvetica,sans-Serif" font-size="10.00">/librepcbproject/boards</text>
<text text-anchor="middle" x="828" y="-107" font-family="Helvetica,sans-Serif" font-size="10.00">/items/bi_footprint.cpp</text>
</a>
</g>
<!-- Node1&#45;&gt;Node8 -->
<g id="edge14" class="edge"><title>Node1&#45;&gt;Node8</title>
<path fill="none" stroke="midnightblue" d="M680.759,-192.406C704.777,-182.277 732.144,-170.677 757,-160 759.719,-158.832 762.495,-157.636 765.298,-156.425"/>
<polygon fill="midnightblue" stroke="midnightblue" points="679.24,-189.248 671.384,-196.357 681.959,-195.699 679.24,-189.248"/>
</g>
<!-- Node9 -->
<g id="node17" class="node"><title>Node9</title>
<a xlink:href="../../d4/d20/projectlibrary_8cpp.html" target="_top" xlink:title="/home/travis/build\l/LibrePCB/LibrePCB/libs\l/librepcbproject/library\l/projectlibrary.cpp">
<polygon fill="white" stroke="black" points="907.5,-99 907.5,-159 1032.5,-159 1032.5,-99 907.5,-99"/>
<text text-anchor="start" x="915.5" y="-146" font-family="Helvetica,sans-Serif" font-size="10.00">/home/travis/build</text>
<text text-anchor="start" x="915.5" y="-133" font-family="Helvetica,sans-Serif" font-size="10.00">/LibrePCB/LibrePCB/libs</text>
<text text-anchor="start" x="915.5" y="-120" font-family="Helvetica,sans-Serif" font-size="10.00">/librepcbproject/library</text>
<text text-anchor="middle" x="970" y="-107" font-family="Helvetica,sans-Serif" font-size="10.00">/projectlibrary.cpp</text>
</a>
</g>
<!-- Node1&#45;&gt;Node9 -->
<g id="edge16" class="edge"><title>Node1&#45;&gt;Node9</title>
<path fill="none" stroke="midnightblue" d="M705.666,-205.702C762.044,-195.623 835.616,-180.299 899,-160 901.69,-159.139 904.416,-158.21 907.155,-157.231"/>
<polygon fill="midnightblue" stroke="midnightblue" points="704.942,-202.276 695.703,-207.461 706.159,-209.169 704.942,-202.276"/>
</g>
<!-- Node10 -->
<g id="node19" class="node"><title>Node10</title>
<a xlink:href="../../de/dd2/unplacedcomponentsdock_8cpp.html" target="_top" xlink:title="/home/travis/build\l/LibrePCB/LibrePCB/libs\l/librepcbprojecteditor\l/boardeditor/unplacedcomponentsdock.cpp">
<polygon fill="white" stroke="black" points="1049.5,-99 1049.5,-159 1252.5,-159 1252.5,-99 1049.5,-99"/>
<text text-anchor="start" x="1057.5" y="-146" font-family="Helvetica,sans-Serif" font-size="10.00">/home/travis/build</text>
<text text-anchor="start" x="1057.5" y="-133" font-family="Helvetica,sans-Serif" font-size="10.00">/LibrePCB/LibrePCB/libs</text>
<text text-anchor="start" x="1057.5" y="-120" font-family="Helvetica,sans-Serif" font-size="10.00">/librepcbprojecteditor</text>
<text text-anchor="middle" x="1151" y="-107" font-family="Helvetica,sans-Serif" font-size="10.00">/boardeditor/unplacedcomponentsdock.cpp</text>
</a>
</g>
<!-- Node1&#45;&gt;Node10 -->
<g id="edge18" class="edge"><title>Node1&#45;&gt;Node10</title>
<path fill="none" stroke="midnightblue" d="M705.713,-210.811C792.379,-201.189 926.402,-184.103 1041,-160 1043.72,-159.428 1046.47,-158.826 1049.24,-158.199"/>
<polygon fill="midnightblue" stroke="midnightblue" points="705.203,-207.346 695.646,-211.919 705.969,-214.304 705.203,-207.346"/>
</g>
<!-- Node4 -->
<g id="node7" class="node"><title>Node4</title>
<a xlink:href="../../da/d6c/cmdprojectlibraryaddelement_8cpp.html" target="_top" xlink:title="/home/travis/build\l/LibrePCB/LibrePCB/libs\l/librepcbproject/library\l/cmd/cmdprojectlibraryaddelement.cpp">
<polygon fill="white" stroke="black" points="160.5,-1 160.5,-61 345.5,-61 345.5,-1 160.5,-1"/>
<text text-anchor="start" x="168.5" y="-48" font-family="Helvetica,sans-Serif" font-size="10.00">/home/travis/build</text>
<text text-anchor="start" x="168.5" y="-35" font-family="Helvetica,sans-Serif" font-size="10.00">/LibrePCB/LibrePCB/libs</text>
<text text-anchor="start" x="168.5" y="-22" font-family="Helvetica,sans-Serif" font-size="10.00">/librepcbproject/library</text>
<text text-anchor="middle" x="253" y="-9" font-family="Helvetica,sans-Serif" font-size="10.00">/cmd/cmdprojectlibraryaddelement.cpp</text>
</a>
</g>
<!-- Node3&#45;&gt;Node4 -->
<g id="edge6" class="edge"><title>Node3&#45;&gt;Node4</title>
<path fill="none" stroke="midnightblue" d="M253,-95.1315C253,-84.1 253,-71.934 253,-61.1903"/>
<polygon fill="midnightblue" stroke="midnightblue" points="249.5,-95.2769 253,-105.277 256.5,-95.277 249.5,-95.2769"/>
</g>
</g>
</svg>
