<?xml version="1.0" encoding="UTF-8" standalone="no"?>
<!DOCTYPE svg PUBLIC "-//W3C//DTD SVG 1.1//EN"
 "http://www.w3.org/Graphics/SVG/1.1/DTD/svg11.dtd">
<!-- Generated by graphviz version 2.26.3 (20100126.1600)
 -->
<!-- Title: restoreDefault Pages: 1 -->
<svg width="396pt" height="42pt"
 viewBox="0.00 0.00 396.00 42.00" xmlns="http://www.w3.org/2000/svg" xmlns:xlink="http://www.w3.org/1999/xlink">
<g id="graph1" class="graph" transform="scale(1 1) rotate(0) translate(4 38)">
<title>restoreDefault</title>
<polygon fill="white" stroke="white" points="-4,5 -4,-38 393,-38 393,5 -4,5"/>
<!-- Node1 -->
<g id="node1" class="node"><title>Node1</title>
<polygon fill="#bfbfbf" stroke="black" points="0,-6.5 0,-27.5 78,-27.5 78,-6.5 0,-6.5"/>
<text text-anchor="middle" x="39" y="-14.5" font-family="Helvetica,sans-Serif" font-size="10.00">restoreDefault</text>
</g>
<!-- Node2 -->
<g id="node3" class="node"><title>Node2</title>
<a xlink:href="../../de/d52/class_workspace_settings.html#ad59385e2b83064738e8974bbe8195cb4" target="_top" xlink:title="WorkspaceSettings::\lrestoreDefaults">
<polygon fill="white" stroke="black" points="114,-0 114,-34 222,-34 222,-0 114,-0"/>
<text text-anchor="start" x="122" y="-21" font-family="Helvetica,sans-Serif" font-size="10.00">WorkspaceSettings::</text>
<text text-anchor="middle" x="168" y="-8" font-family="Helvetica,sans-Serif" font-size="10.00">restoreDefaults</text>
</a>
</g>
<!-- Node1&#45;&gt;Node2 -->
<g id="edge2" class="edge"><title>Node1&#45;&gt;Node2</title>
<path fill="none" stroke="midnightblue" d="M88.0969,-17C96.5153,-17 105.306,-17 113.847,-17"/>
<polygon fill="midnightblue" stroke="midnightblue" points="88.0544,-13.5001 78.0543,-17 88.0543,-20.5001 88.0544,-13.5001"/>
</g>
<!-- Node3 -->
<g id="node5" class="node"><title>Node3</title>
<a xlink:href="../../d1/d5c/class_workspace_settings_dialog.html#a33cf9470d5b33d9dd5027715e5b58801" target="_top" xlink:title="WorkspaceSettingsDialog\l::on_buttonBox_clicked">
<polygon fill="white" stroke="black" points="258,-0 258,-34 388,-34 388,-0 258,-0"/>
<text text-anchor="start" x="266" y="-21" font-family="Helvetica,sans-Serif" font-size="10.00">WorkspaceSettingsDialog</text>
<text text-anchor="middle" x="323" y="-8" font-family="Helvetica,sans-Serif" font-size="10.00">::on_buttonBox_clicked</text>
</a>
</g>
<!-- Node2&#45;&gt;Node3 -->
<g id="edge4" class="edge"><title>Node2&#45;&gt;Node3</title>
<path fill="none" stroke="midnightblue" d="M232.366,-17C240.802,-17 249.45,-17 257.898,-17"/>
<polygon fill="midnightblue" stroke="midnightblue" points="232.212,-13.5001 222.211,-17 232.211,-20.5001 232.212,-13.5001"/>
</g>
</g>
</svg>
