<?xml version="1.0" encoding="UTF-8" standalone="no"?>
<!DOCTYPE svg PUBLIC "-//W3C//DTD SVG 1.1//EN"
 "http://www.w3.org/Graphics/SVG/1.1/DTD/svg11.dtd">
<!-- Generated by graphviz version 2.26.3 (20100126.1600)
 -->
<!-- Title: accept Pages: 1 -->
<svg width="1054pt" height="873pt"
 viewBox="0.00 0.00 1054.00 872.51" xmlns="http://www.w3.org/2000/svg" xmlns:xlink="http://www.w3.org/1999/xlink">
<g id="graph1" class="graph" transform="scale(1 1) rotate(0) translate(4 868.515)">
<title>accept</title>
<polygon fill="white" stroke="white" points="-4,5 -4,-868.515 1051,-868.515 1051,5 -4,5"/>
<!-- Node1 -->
<g id="node1" class="node"><title>Node1</title>
<polygon fill="#bfbfbf" stroke="black" points="0,-428.5 0,-449.5 46,-449.5 46,-428.5 0,-428.5"/>
<text text-anchor="middle" x="23" y="-436.5" font-family="Helvetica,sans-Serif" font-size="10.00">accept</text>
</g>
<!-- Node2 -->
<g id="node3" class="node"><title>Node2</title>
<a xlink:href="../../d9/de8/classproject_1_1_symbol_instance_properties_dialog.html#ac5b9ac3ae6ade6886893179b59302ec1" target="_top" xlink:title="applyChanges">
<polygon fill="white" stroke="black" points="82.5,-428.5 82.5,-449.5 161.5,-449.5 161.5,-428.5 82.5,-428.5"/>
<text text-anchor="middle" x="122" y="-436.5" font-family="Helvetica,sans-Serif" font-size="10.00">applyChanges</text>
</a>
</g>
<!-- Node1&#45;&gt;Node2 -->
<g id="edge2" class="edge"><title>Node1&#45;&gt;Node2</title>
<path fill="none" stroke="midnightblue" d="M46.2111,-439C54.0176,-439 63.053,-439 72.106,-439"/>
<polygon fill="midnightblue" stroke="midnightblue" points="72.27,-442.5 82.27,-439 72.2699,-435.5 72.27,-442.5"/>
</g>
<!-- Node3 -->
<g id="node5" class="node"><title>Node3</title>
<a xlink:href="../../de/d67/classproject_1_1_gen_comp_instance.html#ab0c96f485564e41206ce9a4ce42ba389" target="_top" xlink:title="project::GenCompInstance\l::getName">
<polygon fill="white" stroke="black" points="592,-765 592,-799 726,-799 726,-765 592,-765"/>
<text text-anchor="start" x="600" y="-786" font-family="Helvetica,sans-Serif" font-size="10.00">project::GenCompInstance</text>
<text text-anchor="middle" x="659" y="-773" font-family="Helvetica,sans-Serif" font-size="10.00">::getName</text>
</a>
</g>
<!-- Node2&#45;&gt;Node3 -->
<g id="edge4" class="edge"><title>Node2&#45;&gt;Node3</title>
<path fill="none" stroke="midnightblue" d="M122.425,-449.757C124.892,-506.059 139.375,-766.065 198,-814 319.348,-913.222 523.994,-842.351 614.108,-803.223"/>
<polygon fill="midnightblue" stroke="midnightblue" points="615.756,-806.322 623.492,-799.083 612.93,-799.917 615.756,-806.322"/>
</g>
<!-- Node4 -->
<g id="node7" class="node"><title>Node4</title>
<a xlink:href="../../d2/d05/classproject_1_1_project.html#a8fac03aa9a740943b9193a49a31bd6ae" target="_top" xlink:title="Get the Circuit object. ">
<polygon fill="white" stroke="black" points="208.5,-783.5 208.5,-804.5 339.5,-804.5 339.5,-783.5 208.5,-783.5"/>
<text text-anchor="middle" x="274" y="-791.5" font-family="Helvetica,sans-Serif" font-size="10.00">project::Project::getCircuit</text>
</a>
</g>
<!-- Node2&#45;&gt;Node4 -->
<g id="edge6" class="edge"><title>Node2&#45;&gt;Node4</title>
<path fill="none" stroke="midnightblue" d="M122.957,-449.727C127.793,-501.557 151.17,-725.539 198,-774 199.271,-775.315 200.617,-776.548 202.028,-777.702"/>
<polygon fill="midnightblue" stroke="midnightblue" points="200.462,-780.865 210.725,-783.499 204.345,-775.04 200.462,-780.865"/>
</g>
<!-- Node5 -->
<g id="node9" class="node"><title>Node5</title>
<a xlink:href="../../d6/d47/classproject_1_1_cmd_gen_comp_inst_edit.html#af5ced823a72a136e9f8401a9cf95290b" target="_top" xlink:title="project::CmdGenCompInstEdit\l::setName">
<polygon fill="white" stroke="black" points="198.5,-731 198.5,-765 349.5,-765 349.5,-731 198.5,-731"/>
<text text-anchor="start" x="206.5" y="-752" font-family="Helvetica,sans-Serif" font-size="10.00">project::CmdGenCompInstEdit</text>
<text text-anchor="middle" x="274" y="-739" font-family="Helvetica,sans-Serif" font-size="10.00">::setName</text>
</a>
</g>
<!-- Node2&#45;&gt;Node5 -->
<g id="edge8" class="edge"><title>Node2&#45;&gt;Node5</title>
<path fill="none" stroke="midnightblue" d="M123.486,-449.517C130.214,-495.75 159.175,-680.472 198,-722 198.786,-722.84 199.6,-723.654 200.439,-724.441"/>
<polygon fill="midnightblue" stroke="midnightblue" points="198.584,-727.433 208.617,-730.837 202.897,-721.919 198.584,-727.433"/>
</g>
<!-- Node6 -->
<g id="node11" class="node"><title>Node6</title>
<a xlink:href="../../d9/de8/classproject_1_1_symbol_instance_properties_dialog.html#a4318c392201da0bd17995008e1a26c20" target="_top" xlink:title="execCmd">
<polygon fill="white" stroke="black" points="244.5,-691.5 244.5,-712.5 303.5,-712.5 303.5,-691.5 244.5,-691.5"/>
<text text-anchor="middle" x="274" y="-699.5" font-family="Helvetica,sans-Serif" font-size="10.00">execCmd</text>
</a>
</g>
<!-- Node2&#45;&gt;Node6 -->
<g id="edge10" class="edge"><title>Node2&#45;&gt;Node6</title>
<path fill="none" stroke="midnightblue" d="M123.946,-449.781C131.843,-492.386 162.76,-648.338 198,-682 207.731,-691.295 221.245,-696.397 234.183,-699.156"/>
<polygon fill="midnightblue" stroke="midnightblue" points="233.904,-702.659 244.352,-700.903 235.089,-695.76 233.904,-702.659"/>
</g>
<!-- Node11 -->
<g id="node22" class="node"><title>Node11</title>
<a xlink:href="../../de/d67/classproject_1_1_gen_comp_instance.html#a1dbc1371a264fd73efc4b08a38f115da" target="_top" xlink:title="project::GenCompInstance\l::getValue">
<polygon fill="white" stroke="black" points="207,-639 207,-673 341,-673 341,-639 207,-639"/>
<text text-anchor="start" x="215" y="-660" font-family="Helvetica,sans-Serif" font-size="10.00">project::GenCompInstance</text>
<text text-anchor="middle" x="274" y="-647" font-family="Helvetica,sans-Serif" font-size="10.00">::getValue</text>
</a>
</g>
<!-- Node2&#45;&gt;Node11 -->
<g id="edge22" class="edge"><title>Node2&#45;&gt;Node11</title>
<path fill="none" stroke="midnightblue" d="M123.164,-449.817C127.197,-481.992 143.463,-578.076 198,-630 199.105,-631.052 200.254,-632.061 201.441,-633.03"/>
<polygon fill="midnightblue" stroke="midnightblue" points="199.574,-635.994 209.777,-638.85 203.581,-630.255 199.574,-635.994"/>
</g>
<!-- Node12 -->
<g id="node24" class="node"><title>Node12</title>
<a xlink:href="../../d6/d47/classproject_1_1_cmd_gen_comp_inst_edit.html#a30b9ad9df323f77f4202279cfb428c6b" target="_top" xlink:title="project::CmdGenCompInstEdit\l::setValue">
<polygon fill="white" stroke="black" points="198.5,-587 198.5,-621 349.5,-621 349.5,-587 198.5,-587"/>
<text text-anchor="start" x="206.5" y="-608" font-family="Helvetica,sans-Serif" font-size="10.00">project::CmdGenCompInstEdit</text>
<text text-anchor="middle" x="274" y="-595" font-family="Helvetica,sans-Serif" font-size="10.00">::setValue</text>
</a>
</g>
<!-- Node2&#45;&gt;Node12 -->
<g id="edge24" class="edge"><title>Node2&#45;&gt;Node12</title>
<path fill="none" stroke="midnightblue" d="M124.933,-449.781C132.53,-475.703 155.298,-542.031 198,-578 199.52,-579.28 201.106,-580.499 202.746,-581.658"/>
<polygon fill="midnightblue" stroke="midnightblue" points="200.998,-584.692 211.344,-586.976 204.68,-578.738 200.998,-584.692"/>
</g>
<!-- Node13 -->
<g id="node26" class="node"><title>Node13</title>
<a xlink:href="../../de/d67/classproject_1_1_gen_comp_instance.html#a92ea66644a6aa09a4b6dc92af04079e5" target="_top" xlink:title="project::GenCompInstance\l::getAttributeByKey">
<polygon fill="white" stroke="black" points="207,-535 207,-569 341,-569 341,-535 207,-535"/>
<text text-anchor="start" x="215" y="-556" font-family="Helvetica,sans-Serif" font-size="10.00">project::GenCompInstance</text>
<text text-anchor="middle" x="274" y="-543" font-family="Helvetica,sans-Serif" font-size="10.00">::getAttributeByKey</text>
</a>
</g>
<!-- Node2&#45;&gt;Node13 -->
<g id="edge26" class="edge"><title>Node2&#45;&gt;Node13</title>
<path fill="none" stroke="midnightblue" d="M129.481,-449.708C141.931,-466.843 168.471,-500.567 198,-521 203.075,-524.512 208.609,-527.723 214.3,-530.634"/>
<polygon fill="midnightblue" stroke="midnightblue" points="212.8,-533.796 223.33,-534.963 215.825,-527.484 212.8,-533.796"/>
</g>
<!-- Node14 -->
<g id="node28" class="node"><title>Node14</title>
<a xlink:href="../../d7/d77/classproject_1_1_gen_comp_attribute_instance.html#aa966546cdb8297bfa36dc77b3e7e2b37" target="_top" xlink:title="project::GenCompAttribute\lInstance::getKey">
<polygon fill="white" stroke="black" points="399.5,-512 399.5,-546 532.5,-546 532.5,-512 399.5,-512"/>
<text text-anchor="start" x="407.5" y="-533" font-family="Helvetica,sans-Serif" font-size="10.00">project::GenCompAttribute</text>
<text text-anchor="middle" x="466" y="-520" font-family="Helvetica,sans-Serif" font-size="10.00">Instance::getKey</text>
</a>
</g>
<!-- Node2&#45;&gt;Node14 -->
<g id="edge32" class="edge"><title>Node2&#45;&gt;Node14</title>
<path fill="none" stroke="midnightblue" d="M134.8,-449.693C149.207,-461.118 173.777,-478.821 198,-488 259.843,-511.436 334.532,-521.497 389.336,-525.805"/>
<polygon fill="midnightblue" stroke="midnightblue" points="389.1,-529.297 399.331,-526.544 389.616,-522.316 389.1,-529.297"/>
</g>
<!-- Node15 -->
<g id="node30" class="node"><title>Node15</title>
<a xlink:href="../../de/d67/classproject_1_1_gen_comp_instance.html#aceb1002a6511011bbae228460e48c5e7" target="_top" xlink:title="project::GenCompInstance\l::getAttributes">
<polygon fill="white" stroke="black" points="207,-445 207,-479 341,-479 341,-445 207,-445"/>
<text text-anchor="start" x="215" y="-466" font-family="Helvetica,sans-Serif" font-size="10.00">project::GenCompInstance</text>
<text text-anchor="middle" x="274" y="-453" font-family="Helvetica,sans-Serif" font-size="10.00">::getAttributes</text>
</a>
</g>
<!-- Node2&#45;&gt;Node15 -->
<g id="edge30" class="edge"><title>Node2&#45;&gt;Node15</title>
<path fill="none" stroke="midnightblue" d="M161.539,-444.983C172.397,-446.626 184.556,-448.466 196.758,-450.312"/>
<polygon fill="midnightblue" stroke="midnightblue" points="196.579,-453.825 206.99,-451.86 197.626,-446.904 196.579,-453.825"/>
</g>
<!-- Node16 -->
<g id="node33" class="node"><title>Node16</title>
<a xlink:href="../../df/df0/class_length.html#a796af485ddae7b24093b8b70f790c42b" target="_top" xlink:title="Get a Length object with a specific length and map it to a specific grid. ">
<polygon fill="white" stroke="black" points="230,-405.5 230,-426.5 318,-426.5 318,-405.5 230,-405.5"/>
<text text-anchor="middle" x="274" y="-413.5" font-family="Helvetica,sans-Serif" font-size="10.00">Length::fromMm</text>
</a>
</g>
<!-- Node2&#45;&gt;Node16 -->
<g id="edge34" class="edge"><title>Node2&#45;&gt;Node16</title>
<path fill="none" stroke="midnightblue" d="M161.539,-433.017C179.285,-430.332 200.507,-427.121 219.71,-424.215"/>
<polygon fill="midnightblue" stroke="midnightblue" points="220.472,-427.64 229.836,-422.683 219.425,-420.718 220.472,-427.64"/>
</g>
<!-- Node20 -->
<g id="node41" class="node"><title>Node20</title>
<a xlink:href="../../d2/d39/class_angle.html#a0f80113e23a69620a2d810b933e12a8d" target="_top" xlink:title="Get an Angle object with a specific angle. ">
<polygon fill="white" stroke="black" points="231.5,-365.5 231.5,-386.5 316.5,-386.5 316.5,-365.5 231.5,-365.5"/>
<text text-anchor="middle" x="274" y="-373.5" font-family="Helvetica,sans-Serif" font-size="10.00">Angle::fromDeg</text>
</a>
</g>
<!-- Node2&#45;&gt;Node20 -->
<g id="edge42" class="edge"><title>Node2&#45;&gt;Node20</title>
<path fill="none" stroke="midnightblue" d="M137.99,-428.334C152.963,-418.746 176.232,-404.849 198,-396 205.458,-392.968 213.516,-390.271 221.501,-387.916"/>
<polygon fill="midnightblue" stroke="midnightblue" points="222.472,-391.279 231.159,-385.214 220.586,-384.538 222.472,-391.279"/>
</g>
<!-- Node22 -->
<g id="node45" class="node"><title>Node22</title>
<a xlink:href="../../de/d50/classproject_1_1_s_i___symbol.html#a98612bae828cddb2f664368397d27fe3" target="_top" xlink:title="project::SI_Symbol\l::getPosition">
<polygon fill="white" stroke="black" points="224,-313 224,-347 324,-347 324,-313 224,-313"/>
<text text-anchor="start" x="232" y="-334" font-family="Helvetica,sans-Serif" font-size="10.00">project::SI_Symbol</text>
<text text-anchor="middle" x="274" y="-321" font-family="Helvetica,sans-Serif" font-size="10.00">::getPosition</text>
</a>
</g>
<!-- Node2&#45;&gt;Node22 -->
<g id="edge46" class="edge"><title>Node2&#45;&gt;Node22</title>
<path fill="none" stroke="midnightblue" d="M129.119,-428.24C141.251,-410.698 167.593,-375.901 198,-356 203.008,-352.722 208.474,-349.813 214.102,-347.24"/>
<polygon fill="midnightblue" stroke="midnightblue" points="215.809,-350.32 223.676,-343.223 213.1,-343.865 215.809,-350.32"/>
</g>
<!-- Node23 -->
<g id="node47" class="node"><title>Node23</title>
<a xlink:href="../../de/d50/classproject_1_1_s_i___symbol.html#a01f0e165edb023b0c50cdbfd70f36021" target="_top" xlink:title="project::SI_Symbol\l::getRotation">
<polygon fill="white" stroke="black" points="224,-261 224,-295 324,-295 324,-261 224,-261"/>
<text text-anchor="start" x="232" y="-282" font-family="Helvetica,sans-Serif" font-size="10.00">project::SI_Symbol</text>
<text text-anchor="middle" x="274" y="-269" font-family="Helvetica,sans-Serif" font-size="10.00">::getRotation</text>
</a>
</g>
<!-- Node2&#45;&gt;Node23 -->
<g id="edge48" class="edge"><title>Node2&#45;&gt;Node23</title>
<path fill="none" stroke="midnightblue" d="M125.143,-428.152C133.06,-402.711 156.231,-338.744 198,-304 202.925,-299.903 208.53,-296.44 214.411,-293.514"/>
<polygon fill="midnightblue" stroke="midnightblue" points="216.098,-296.595 223.825,-289.345 213.264,-290.194 216.098,-296.595"/>
</g>
<!-- Node24 -->
<g id="node49" class="node"><title>Node24</title>
<a xlink:href="../../dd/d49/classproject_1_1_cmd_symbol_instance_edit.html#aa96ed7261c6e384d0279dea35b31553e" target="_top" xlink:title="project::CmdSymbolInstance\lEdit::setPosition">
<polygon fill="white" stroke="black" points="202.5,-209 202.5,-243 345.5,-243 345.5,-209 202.5,-209"/>
<text text-anchor="start" x="210.5" y="-230" font-family="Helvetica,sans-Serif" font-size="10.00">project::CmdSymbolInstance</text>
<text text-anchor="middle" x="274" y="-217" font-family="Helvetica,sans-Serif" font-size="10.00">Edit::setPosition</text>
</a>
</g>
<!-- Node2&#45;&gt;Node24 -->
<g id="edge50" class="edge"><title>Node2&#45;&gt;Node24</title>
<path fill="none" stroke="midnightblue" d="M123.238,-428.405C127.478,-396.892 144.261,-302.791 198,-252 199.109,-250.952 200.261,-249.947 201.452,-248.981"/>
<polygon fill="midnightblue" stroke="midnightblue" points="203.588,-251.759 209.804,-243.179 199.594,-246.01 203.588,-251.759"/>
</g>
<!-- Node25 -->
<g id="node51" class="node"><title>Node25</title>
<a xlink:href="../../dd/d49/classproject_1_1_cmd_symbol_instance_edit.html#afe7708f6182d8bac4e99807fe81b1061" target="_top" xlink:title="project::CmdSymbolInstance\lEdit::setRotation">
<polygon fill="white" stroke="black" points="202.5,-157 202.5,-191 345.5,-191 345.5,-157 202.5,-157"/>
<text text-anchor="start" x="210.5" y="-178" font-family="Helvetica,sans-Serif" font-size="10.00">project::CmdSymbolInstance</text>
<text text-anchor="middle" x="274" y="-165" font-family="Helvetica,sans-Serif" font-size="10.00">Edit::setRotation</text>
</a>
</g>
<!-- Node2&#45;&gt;Node25 -->
<g id="edge52" class="edge"><title>Node2&#45;&gt;Node25</title>
<path fill="none" stroke="midnightblue" d="M124.042,-428.466C132.306,-386.827 164.428,-234.31 198,-200 198.933,-199.047 199.902,-198.129 200.903,-197.244"/>
<polygon fill="midnightblue" stroke="midnightblue" points="203.22,-199.882 209.147,-191.1 199.037,-194.27 203.22,-199.882"/>
</g>
<!-- Node26 -->
<g id="node53" class="node"><title>Node26</title>
<a xlink:href="../../d9/de8/classproject_1_1_symbol_instance_properties_dialog.html#afd1bce071dc634026d41b91abd1498ba" target="_top" xlink:title="endCmd">
<polygon fill="white" stroke="black" points="247.5,-117.5 247.5,-138.5 300.5,-138.5 300.5,-117.5 247.5,-117.5"/>
<text text-anchor="middle" x="274" y="-125.5" font-family="Helvetica,sans-Serif" font-size="10.00">endCmd</text>
</a>
</g>
<!-- Node2&#45;&gt;Node26 -->
<g id="edge54" class="edge"><title>Node2&#45;&gt;Node26</title>
<path fill="none" stroke="midnightblue" d="M123.329,-428.436C129.484,-381.145 156.686,-189.391 198,-148 208.393,-137.588 223.514,-132.398 237.537,-129.88"/>
<polygon fill="midnightblue" stroke="midnightblue" points="238.055,-133.341 247.47,-128.481 237.079,-126.41 238.055,-133.341"/>
</g>
<!-- Node32 -->
<g id="node67" class="node"><title>Node32</title>
<a xlink:href="../../df/d70/class_exception.html#aa530ab8cc747843c76a435c3075ed094" target="_top" xlink:title="Get the user error message (translated) ">
<polygon fill="white" stroke="black" points="214.5,-77.5 214.5,-98.5 333.5,-98.5 333.5,-77.5 214.5,-77.5"/>
<text text-anchor="middle" x="274" y="-85.5" font-family="Helvetica,sans-Serif" font-size="10.00">Exception::getUserMsg</text>
</a>
</g>
<!-- Node2&#45;&gt;Node32 -->
<g id="edge70" class="edge"><title>Node2&#45;&gt;Node32</title>
<path fill="none" stroke="midnightblue" d="M122.976,-428.4C127.903,-377.182 151.64,-155.85 198,-108 200.326,-105.599 202.903,-103.475 205.661,-101.596"/>
<polygon fill="midnightblue" stroke="midnightblue" points="207.418,-104.623 214.412,-96.6644 203.982,-98.525 207.418,-104.623"/>
</g>
<!-- Node33 -->
<g id="node69" class="node"><title>Node33</title>
<a xlink:href="../../d9/de8/classproject_1_1_symbol_instance_properties_dialog.html#afc217cc9d5f5bd26ab99f2af1b932668" target="_top" xlink:title="abortCmd">
<polygon fill="white" stroke="black" points="436.5,-39.5 436.5,-60.5 495.5,-60.5 495.5,-39.5 436.5,-39.5"/>
<text text-anchor="middle" x="466" y="-47.5" font-family="Helvetica,sans-Serif" font-size="10.00">abortCmd</text>
</a>
</g>
<!-- Node2&#45;&gt;Node33 -->
<g id="edge72" class="edge"><title>Node2&#45;&gt;Node33</title>
<path fill="none" stroke="midnightblue" d="M122.503,-428.426C125.367,-373.067 141.547,-117.304 198,-68 261.451,-12.5842 368.809,-26.4161 426.508,-39.3586"/>
<polygon fill="midnightblue" stroke="midnightblue" points="425.809,-42.7895 436.344,-41.6651 427.407,-35.9744 425.809,-42.7895"/>
</g>
<!-- Node7 -->
<g id="node13" class="node"><title>Node7</title>
<a xlink:href="../../d4/d90/class_undo_stack.html#acafc28cb3929a83228bf6f6d738111cd" target="_top" xlink:title="Begin building a new command that consists of multiple commands step by step (over a &quot;long&quot; time) ...">
<polygon fill="white" stroke="black" points="396,-714.5 396,-735.5 536,-735.5 536,-714.5 396,-714.5"/>
<text text-anchor="middle" x="466" y="-722.5" font-family="Helvetica,sans-Serif" font-size="10.00">UndoStack::beginCommand</text>
</a>
</g>
<!-- Node6&#45;&gt;Node7 -->
<g id="edge12" class="edge"><title>Node6&#45;&gt;Node7</title>
<path fill="none" stroke="midnightblue" d="M303.579,-705.543C325.504,-708.17 356.494,-711.882 385.535,-715.361"/>
<polygon fill="midnightblue" stroke="midnightblue" points="385.363,-718.865 395.708,-716.58 386.195,-711.915 385.363,-718.865"/>
</g>
<!-- Node8 -->
<g id="node15" class="node"><title>Node8</title>
<a xlink:href="../../de/d50/classproject_1_1_s_i___symbol.html#a4d55d03995b846c5840a2adf64399e94" target="_top" xlink:title="project::SI_Symbol\l::getName">
<polygon fill="white" stroke="black" points="416,-662 416,-696 516,-696 516,-662 416,-662"/>
<text text-anchor="start" x="424" y="-683" font-family="Helvetica,sans-Serif" font-size="10.00">project::SI_Symbol</text>
<text text-anchor="middle" x="466" y="-670" font-family="Helvetica,sans-Serif" font-size="10.00">::getName</text>
</a>
</g>
<!-- Node6&#45;&gt;Node8 -->
<g id="edge14" class="edge"><title>Node6&#45;&gt;Node8</title>
<path fill="none" stroke="midnightblue" d="M303.579,-698.457C330.653,-695.213 371.55,-690.314 405.531,-686.244"/>
<polygon fill="midnightblue" stroke="midnightblue" points="406.32,-689.674 415.832,-685.01 405.487,-682.724 406.32,-689.674"/>
</g>
<!-- Node10 -->
<g id="node20" class="node"><title>Node10</title>
<a xlink:href="../../d4/d90/class_undo_stack.html#a9a588d4c258dd39ab422ac23dab43ad8" target="_top" xlink:title="Append a new command to the currently active command. ">
<polygon fill="white" stroke="black" points="386.5,-754.5 386.5,-775.5 545.5,-775.5 545.5,-754.5 386.5,-754.5"/>
<text text-anchor="middle" x="466" y="-762.5" font-family="Helvetica,sans-Serif" font-size="10.00">UndoStack::appendToCommand</text>
</a>
</g>
<!-- Node6&#45;&gt;Node10 -->
<g id="edge20" class="edge"><title>Node6&#45;&gt;Node10</title>
<path fill="none" stroke="midnightblue" d="M303.589,-707.537C317.954,-710.785 335.254,-715.539 350,-722 367.391,-729.619 368.562,-737.488 386,-745 391.695,-747.453 397.753,-749.649 403.888,-751.604"/>
<polygon fill="midnightblue" stroke="midnightblue" points="402.968,-754.982 413.551,-754.48 404.965,-748.273 402.968,-754.982"/>
</g>
<!-- Node8&#45;&gt;Node3 -->
<g id="edge16" class="edge"><title>Node8&#45;&gt;Node3</title>
<path fill="none" stroke="midnightblue" d="M516.369,-692.953C526.393,-696.398 536.692,-700.432 546,-705 576.236,-719.837 607.665,-741.879 629.678,-758.582"/>
<polygon fill="midnightblue" stroke="midnightblue" points="627.57,-761.376 637.632,-764.696 631.837,-755.826 627.57,-761.376"/>
</g>
<!-- Node9 -->
<g id="node18" class="node"><title>Node9</title>
<a xlink:href="../../d5/d1e/classlibrary_1_1_gen_comp_symb_var_item.html#a9eeab11e7c84e646f29fac8b709988dc" target="_top" xlink:title="library::GenCompSymbVarItem\l::getSuffix">
<polygon fill="white" stroke="black" points="582.5,-662 582.5,-696 735.5,-696 735.5,-662 582.5,-662"/>
<text text-anchor="start" x="590.5" y="-683" font-family="Helvetica,sans-Serif" font-size="10.00">library::GenCompSymbVarItem</text>
<text text-anchor="middle" x="659" y="-670" font-family="Helvetica,sans-Serif" font-size="10.00">::getSuffix</text>
</a>
</g>
<!-- Node8&#45;&gt;Node9 -->
<g id="edge18" class="edge"><title>Node8&#45;&gt;Node9</title>
<path fill="none" stroke="midnightblue" d="M516.205,-679C533.42,-679 553.211,-679 572.467,-679"/>
<polygon fill="midnightblue" stroke="midnightblue" points="572.471,-682.5 582.471,-679 572.471,-675.5 572.471,-682.5"/>
</g>
<!-- Node13&#45;&gt;Node14 -->
<g id="edge28" class="edge"><title>Node13&#45;&gt;Node14</title>
<path fill="none" stroke="midnightblue" d="M341.152,-543.956C356.587,-542.107 373.119,-540.126 388.937,-538.231"/>
<polygon fill="midnightblue" stroke="midnightblue" points="389.697,-541.666 399.21,-537.001 388.865,-534.715 389.697,-541.666"/>
</g>
<!-- Node17 -->
<g id="node35" class="node"><title>Node17</title>
<a xlink:href="../../df/df0/class_length.html#ad9d64077c16d3a2631a87b69cea3426d" target="_top" xlink:title="Set the length in millimeters. ">
<polygon fill="white" stroke="black" points="410.5,-445.5 410.5,-466.5 521.5,-466.5 521.5,-445.5 410.5,-445.5"/>
<text text-anchor="middle" x="466" y="-453.5" font-family="Helvetica,sans-Serif" font-size="10.00">Length::setLengthMm</text>
</a>
</g>
<!-- Node16&#45;&gt;Node17 -->
<g id="edge36" class="edge"><title>Node16&#45;&gt;Node17</title>
<path fill="none" stroke="midnightblue" d="M318.049,-425.177C343.996,-430.583 377.19,-437.498 405.558,-443.408"/>
<polygon fill="midnightblue" stroke="midnightblue" points="404.868,-446.839 415.372,-445.452 406.296,-439.986 404.868,-446.839"/>
</g>
<!-- Node19 -->
<g id="node39" class="node"><title>Node19</title>
<a xlink:href="../../df/df0/class_length.html#a12aaddfb6cccff89e294f502574fe869" target="_top" xlink:title="Map this Length object to a specific grid interval. ">
<polygon fill="white" stroke="black" points="416,-405.5 416,-426.5 516,-426.5 516,-405.5 416,-405.5"/>
<text text-anchor="middle" x="466" y="-413.5" font-family="Helvetica,sans-Serif" font-size="10.00">Length::mapToGrid</text>
</a>
</g>
<!-- Node16&#45;&gt;Node19 -->
<g id="edge40" class="edge"><title>Node16&#45;&gt;Node19</title>
<path fill="none" stroke="midnightblue" d="M318.049,-416C343.981,-416 377.152,-416 405.51,-416"/>
<polygon fill="midnightblue" stroke="midnightblue" points="405.718,-419.5 415.718,-416 405.718,-412.5 405.718,-419.5"/>
</g>
<!-- Node18 -->
<g id="node37" class="node"><title>Node18</title>
<a xlink:href="../../df/df0/class_length.html#a73dbcae99cc78c7f7e737d5211154527" target="_top" xlink:title="Set the length from a floating point number in nanometers. ">
<polygon fill="white" stroke="black" points="589.5,-445.5 589.5,-466.5 728.5,-466.5 728.5,-445.5 589.5,-445.5"/>
<text text-anchor="middle" x="659" y="-453.5" font-family="Helvetica,sans-Serif" font-size="10.00">Length::setLengthFromFloat</text>
</a>
</g>
<!-- Node17&#45;&gt;Node18 -->
<g id="edge38" class="edge"><title>Node17&#45;&gt;Node18</title>
<path fill="none" stroke="midnightblue" d="M521.565,-456C539.582,-456 559.937,-456 579.352,-456"/>
<polygon fill="midnightblue" stroke="midnightblue" points="579.403,-459.5 589.402,-456 579.402,-452.5 579.403,-459.5"/>
</g>
<!-- Node21 -->
<g id="node43" class="node"><title>Node21</title>
<a xlink:href="../../d2/d39/class_angle.html#a2dd720121a7300f3f5c8a03aaf488ce5" target="_top" xlink:title="Set the angle in degrees. ">
<polygon fill="white" stroke="black" points="414,-365.5 414,-386.5 518,-386.5 518,-365.5 414,-365.5"/>
<text text-anchor="middle" x="466" y="-373.5" font-family="Helvetica,sans-Serif" font-size="10.00">Angle::setAngleDeg</text>
</a>
</g>
<!-- Node20&#45;&gt;Node21 -->
<g id="edge44" class="edge"><title>Node20&#45;&gt;Node21</title>
<path fill="none" stroke="midnightblue" d="M316.611,-376C342.194,-376 375.193,-376 403.668,-376"/>
<polygon fill="midnightblue" stroke="midnightblue" points="403.931,-379.5 413.931,-376 403.931,-372.5 403.931,-379.5"/>
</g>
<!-- Node27 -->
<g id="node55" class="node"><title>Node27</title>
<a xlink:href="../../d4/d90/class_undo_stack.html#a82aa679ad2c2cc3c5a2ad82d7564b0b6" target="_top" xlink:title="End the currently active command and keep the changes. ">
<polygon fill="white" stroke="black" points="400,-117.5 400,-138.5 532,-138.5 532,-117.5 400,-117.5"/>
<text text-anchor="middle" x="466" y="-125.5" font-family="Helvetica,sans-Serif" font-size="10.00">UndoStack::endCommand</text>
</a>
</g>
<!-- Node26&#45;&gt;Node27 -->
<g id="edge56" class="edge"><title>Node26&#45;&gt;Node27</title>
<path fill="none" stroke="midnightblue" d="M300.697,-128C323.755,-128 358.235,-128 389.748,-128"/>
<polygon fill="midnightblue" stroke="midnightblue" points="389.857,-131.5 399.857,-128 389.857,-124.5 389.857,-131.5"/>
</g>
<!-- Node28 -->
<g id="node57" class="node"><title>Node28</title>
<a xlink:href="../../d4/d90/class_undo_stack.html#a4569aea2e8254c626ce894aac55866e9" target="_top" xlink:title="End the currently active command and revert the changes. ">
<polygon fill="white" stroke="black" points="590,-39.5 590,-60.5 728,-60.5 728,-39.5 590,-39.5"/>
<text text-anchor="middle" x="659" y="-47.5" font-family="Helvetica,sans-Serif" font-size="10.00">UndoStack::abortCommand</text>
</a>
</g>
<!-- Node27&#45;&gt;Node28 -->
<g id="edge58" class="edge"><title>Node27&#45;&gt;Node28</title>
<path fill="none" stroke="midnightblue" d="M492.029,-117.481C525.843,-103.815 585.039,-79.8912 623.102,-64.5079"/>
<polygon fill="midnightblue" stroke="midnightblue" points="624.807,-67.594 632.767,-60.6019 622.184,-61.1039 624.807,-67.594"/>
</g>
<!-- Node30 -->
<g id="node61" class="node"><title>Node30</title>
<a xlink:href="../../d4/d90/class_undo_stack.html#a0838f37a375891734d27a88e34437d1c" target="_top" xlink:title="Check if undo is possible. ">
<polygon fill="white" stroke="black" points="936,-78.5 936,-99.5 1046,-99.5 1046,-78.5 936,-78.5"/>
<text text-anchor="middle" x="991" y="-86.5" font-family="Helvetica,sans-Serif" font-size="10.00">UndoStack::canUndo</text>
</a>
</g>
<!-- Node27&#45;&gt;Node30 -->
<g id="edge68" class="edge"><title>Node27&#45;&gt;Node30</title>
<path fill="none" stroke="midnightblue" d="M532.113,-128.639C617.468,-128.656 770.439,-125.944 900,-109 913.036,-107.295 926.966,-104.657 939.909,-101.85"/>
<polygon fill="midnightblue" stroke="midnightblue" points="941.051,-105.181 950.042,-99.5772 939.519,-98.3508 941.051,-105.181"/>
</g>
<!-- Node29 -->
<g id="node59" class="node"><title>Node29</title>
<a xlink:href="../../d4/d90/class_undo_stack.html#ac45199a5fa405b01e4a81bcd46ca47d2" target="_top" xlink:title="Get the text for the undo action. ">
<polygon fill="white" stroke="black" points="772,-78.5 772,-99.5 900,-99.5 900,-78.5 772,-78.5"/>
<text text-anchor="middle" x="836" y="-86.5" font-family="Helvetica,sans-Serif" font-size="10.00">UndoStack::getUndoText</text>
</a>
</g>
<!-- Node28&#45;&gt;Node29 -->
<g id="edge60" class="edge"><title>Node28&#45;&gt;Node29</title>
<path fill="none" stroke="midnightblue" d="M706.899,-60.554C728.838,-65.388 755.027,-71.1586 778.066,-76.2349"/>
<polygon fill="midnightblue" stroke="midnightblue" points="777.544,-79.7038 788.063,-78.4376 779.05,-72.8677 777.544,-79.7038"/>
</g>
<!-- Node28&#45;&gt;Node30 -->
<g id="edge64" class="edge"><title>Node28&#45;&gt;Node30</title>
<path fill="none" stroke="midnightblue" d="M728.106,-52.9199C776.441,-55.5787 842.399,-60.4412 900,-69 912.625,-70.8759 926.113,-73.4955 938.732,-76.2221"/>
<polygon fill="midnightblue" stroke="midnightblue" points="938.112,-79.6696 948.633,-78.4195 939.629,-72.8359 938.112,-79.6696"/>
</g>
<!-- Node31 -->
<g id="node64" class="node"><title>Node31</title>
<a xlink:href="../../d4/d90/class_undo_stack.html#ac94ae4017f4a9133369c65c0fdb6f4c7" target="_top" xlink:title="Check if the stack is in a clean state (the state of the last setClean()) ">
<polygon fill="white" stroke="black" points="784,-0.5 784,-21.5 888,-21.5 888,-0.5 784,-0.5"/>
<text text-anchor="middle" x="836" y="-8.5" font-family="Helvetica,sans-Serif" font-size="10.00">UndoStack::isClean</text>
</a>
</g>
<!-- Node28&#45;&gt;Node31 -->
<g id="edge66" class="edge"><title>Node28&#45;&gt;Node31</title>
<path fill="none" stroke="midnightblue" d="M706.899,-39.446C728.838,-34.612 755.027,-28.8414 778.066,-23.7651"/>
<polygon fill="midnightblue" stroke="midnightblue" points="779.05,-27.1323 788.063,-21.5624 777.544,-20.2962 779.05,-27.1323"/>
</g>
<!-- Node29&#45;&gt;Node30 -->
<g id="edge62" class="edge"><title>Node29&#45;&gt;Node30</title>
<path fill="none" stroke="midnightblue" d="M900.387,-89C908.784,-89 917.393,-89 925.803,-89"/>
<polygon fill="midnightblue" stroke="midnightblue" points="925.935,-92.5001 935.935,-89 925.935,-85.5001 925.935,-92.5001"/>
</g>
<!-- Node33&#45;&gt;Node28 -->
<g id="edge74" class="edge"><title>Node33&#45;&gt;Node28</title>
<path fill="none" stroke="midnightblue" d="M495.733,-50C518.15,-50 549.996,-50 579.618,-50"/>
<polygon fill="midnightblue" stroke="midnightblue" points="579.984,-53.5001 589.984,-50 579.984,-46.5001 579.984,-53.5001"/>
</g>
</g>
</svg>
