<?xml version="1.0" encoding="UTF-8" standalone="no"?>
<!DOCTYPE svg PUBLIC "-//W3C//DTD SVG 1.1//EN"
 "http://www.w3.org/Graphics/SVG/1.1/DTD/svg11.dtd">
<!-- Generated by graphviz version 2.26.3 (20100126.1600)
 -->
<!-- Title: endCmd Pages: 1 -->
<svg width="380pt" height="30pt"
 viewBox="0.00 0.00 380.00 30.00" xmlns="http://www.w3.org/2000/svg" xmlns:xlink="http://www.w3.org/1999/xlink">
<g id="graph1" class="graph" transform="scale(1 1) rotate(0) translate(4 26)">
<title>endCmd</title>
<polygon fill="white" stroke="white" points="-4,5 -4,-26 377,-26 377,5 -4,5"/>
<!-- Node1 -->
<g id="node1" class="node"><title>Node1</title>
<polygon fill="#bfbfbf" stroke="black" points="0.5,-0.5 0.5,-21.5 53.5,-21.5 53.5,-0.5 0.5,-0.5"/>
<text text-anchor="middle" x="27" y="-8.5" font-family="Helvetica,sans-Serif" font-size="10.00">endCmd</text>
</g>
<!-- Node2 -->
<g id="node3" class="node"><title>Node2</title>
<a xlink:href="../../d9/de8/classproject_1_1_symbol_instance_properties_dialog.html#ac5b9ac3ae6ade6886893179b59302ec1" target="_top" xlink:title="applyChanges">
<polygon fill="white" stroke="black" points="90.5,-0.5 90.5,-21.5 169.5,-21.5 169.5,-0.5 90.5,-0.5"/>
<text text-anchor="middle" x="130" y="-8.5" font-family="Helvetica,sans-Serif" font-size="10.00">applyChanges</text>
</a>
</g>
<!-- Node1&#45;&gt;Node2 -->
<g id="edge2" class="edge"><title>Node1&#45;&gt;Node2</title>
<path fill="none" stroke="midnightblue" d="M63.691,-11C72.3327,-11 81.5824,-11 90.3479,-11"/>
<polygon fill="midnightblue" stroke="midnightblue" points="63.5251,-7.5001 53.5251,-11 63.525,-14.5001 63.5251,-7.5001"/>
</g>
<!-- Node3 -->
<g id="node5" class="node"><title>Node3</title>
<a xlink:href="../../d9/de8/classproject_1_1_symbol_instance_properties_dialog.html#aadb9f3b844fb4cf98288cd3c60a3af91" target="_top" xlink:title="accept">
<polygon fill="white" stroke="black" points="206,-0.5 206,-21.5 252,-21.5 252,-0.5 206,-0.5"/>
<text text-anchor="middle" x="229" y="-8.5" font-family="Helvetica,sans-Serif" font-size="10.00">accept</text>
</a>
</g>
<!-- Node2&#45;&gt;Node3 -->
<g id="edge4" class="edge"><title>Node2&#45;&gt;Node3</title>
<path fill="none" stroke="midnightblue" d="M179.88,-11C188.952,-11 198.006,-11 205.824,-11"/>
<polygon fill="midnightblue" stroke="midnightblue" points="179.697,-7.5001 169.697,-11 179.697,-14.5001 179.697,-7.5001"/>
</g>
<!-- Node4 -->
<g id="node7" class="node"><title>Node4</title>
<a xlink:href="../../d9/de8/classproject_1_1_symbol_instance_properties_dialog.html#a9e53392568d47bcb31ccbde9917efb0c" target="_top" xlink:title="keyPressEvent">
<polygon fill="white" stroke="black" points="288.5,-0.5 288.5,-21.5 371.5,-21.5 371.5,-0.5 288.5,-0.5"/>
<text text-anchor="middle" x="330" y="-8.5" font-family="Helvetica,sans-Serif" font-size="10.00">keyPressEvent</text>
</a>
</g>
<!-- Node3&#45;&gt;Node4 -->
<g id="edge6" class="edge"><title>Node3&#45;&gt;Node4</title>
<path fill="none" stroke="midnightblue" d="M262.256,-11C270.581,-11 279.617,-11 288.295,-11"/>
<polygon fill="midnightblue" stroke="midnightblue" points="262.171,-7.5001 252.171,-11 262.171,-14.5001 262.171,-7.5001"/>
</g>
</g>
</svg>
