<?xml version="1.0" encoding="UTF-8" standalone="no"?>
<!DOCTYPE svg PUBLIC "-//W3C//DTD SVG 1.1//EN"
 "http://www.w3.org/Graphics/SVG/1.1/DTD/svg11.dtd">
<!-- Generated by graphviz version 2.26.3 (20100126.1600)
 -->
<!-- Title: serializeToXmlDomElement Pages: 1 -->
<svg width="518pt" height="274pt"
 viewBox="0.00 0.00 518.00 273.77" xmlns="http://www.w3.org/2000/svg" xmlns:xlink="http://www.w3.org/1999/xlink">
<g id="graph1" class="graph" transform="scale(1 1) rotate(0) translate(4 269.766)">
<title>serializeToXmlDomElement</title>
<polygon fill="white" stroke="white" points="-4,5 -4,-269.766 515,-269.766 515,5 -4,5"/>
<!-- Node1 -->
<g id="node1" class="node"><title>Node1</title>
<polygon fill="#bfbfbf" stroke="black" points="0,-136.5 0,-157.5 138,-157.5 138,-136.5 0,-136.5"/>
<text text-anchor="middle" x="69" y="-144.5" font-family="Helvetica,sans-Serif" font-size="10.00">serializeToXmlDomElement</text>
</g>
<!-- Node2 -->
<g id="node3" class="node"><title>Node2</title>
<a xlink:href="../../d1/d1f/class_xml_dom_element.html#af2ee1b74300d31ca889b32ddd96d51ac" target="_top" xlink:title="Append a child to the end of the child list of this element. ">
<polygon fill="white" stroke="black" points="358.5,-214.5 358.5,-235.5 509.5,-235.5 509.5,-214.5 358.5,-214.5"/>
<text text-anchor="middle" x="434" y="-222.5" font-family="Helvetica,sans-Serif" font-size="10.00">XmlDomElement::appendChild</text>
</a>
</g>
<!-- Node1&#45;&gt;Node2 -->
<g id="edge2" class="edge"><title>Node1&#45;&gt;Node2</title>
<path fill="none" stroke="midnightblue" d="M75.4922,-157.62C89.9001,-180.028 127.019,-231.671 174,-251 249.121,-281.906 346.358,-256.856 398.019,-239.008"/>
<polygon fill="midnightblue" stroke="midnightblue" points="399.477,-242.204 407.724,-235.553 397.129,-235.61 399.477,-242.204"/>
</g>
<!-- Node3 -->
<g id="node5" class="node"><title>Node3</title>
<a xlink:href="../../d1/d1f/class_xml_dom_element.html#a22b3ed6c99338244f5855c446f66d702" target="_top" xlink:title="Create a new text child and append it to the list of childs. ">
<polygon fill="white" stroke="black" points="174,-104 174,-138 322,-138 322,-104 174,-104"/>
<text text-anchor="start" x="182" y="-125" font-family="Helvetica,sans-Serif" font-size="10.00">XmlDomElement::appendText</text>
<text text-anchor="middle" x="248" y="-112" font-family="Helvetica,sans-Serif" font-size="10.00">Child</text>
</a>
</g>
<!-- Node1&#45;&gt;Node3 -->
<g id="edge4" class="edge"><title>Node1&#45;&gt;Node3</title>
<path fill="none" stroke="midnightblue" d="M138.206,-136.948C146.621,-135.725 155.288,-134.467 163.888,-133.217"/>
<polygon fill="midnightblue" stroke="midnightblue" points="164.542,-136.659 173.935,-131.758 163.536,-129.732 164.542,-136.659"/>
</g>
<!-- Node4 -->
<g id="node7" class="node"><title>Node4</title>
<a xlink:href="../../de/d50/classproject_1_1_s_i___symbol.html#a8747acbd54e52d4fcb3bb74f1bb2a88a" target="_top" xlink:title="Serialize the object to a XML DOM element. ">
<polygon fill="white" stroke="black" points="176,-208 176,-242 320,-242 320,-208 176,-208"/>
<text text-anchor="start" x="184" y="-229" font-family="Helvetica,sans-Serif" font-size="10.00">project::SI_Symbol</text>
<text text-anchor="middle" x="248" y="-216" font-family="Helvetica,sans-Serif" font-size="10.00">::serializeToXmlDomElement</text>
</a>
</g>
<!-- Node1&#45;&gt;Node4 -->
<g id="edge6" class="edge"><title>Node1&#45;&gt;Node4</title>
<path fill="none" stroke="midnightblue" d="M88.4061,-157.503C109.232,-168.563 143.445,-186.123 174,-199 178.321,-200.821 182.819,-202.623 187.368,-204.377"/>
<polygon fill="midnightblue" stroke="midnightblue" points="186.143,-207.656 196.735,-207.904 188.61,-201.105 186.143,-207.656"/>
</g>
<!-- Node6 -->
<g id="node12" class="node"><title>Node6</title>
<a xlink:href="../../d3/d43/classproject_1_1_s_i___net_point.html#a8747acbd54e52d4fcb3bb74f1bb2a88a" target="_top" xlink:title="Serialize the object to a XML DOM element. ">
<polygon fill="white" stroke="black" points="176,-156 176,-190 320,-190 320,-156 176,-156"/>
<text text-anchor="start" x="184" y="-177" font-family="Helvetica,sans-Serif" font-size="10.00">project::SI_NetPoint</text>
<text text-anchor="middle" x="248" y="-164" font-family="Helvetica,sans-Serif" font-size="10.00">::serializeToXmlDomElement</text>
</a>
</g>
<!-- Node1&#45;&gt;Node6 -->
<g id="edge12" class="edge"><title>Node1&#45;&gt;Node6</title>
<path fill="none" stroke="midnightblue" d="M138.206,-157.052C147.237,-158.364 156.559,-159.718 165.777,-161.057"/>
<polygon fill="midnightblue" stroke="midnightblue" points="165.322,-164.527 175.721,-162.501 166.328,-157.6 165.322,-164.527"/>
</g>
<!-- Node7 -->
<g id="node16" class="node"><title>Node7</title>
<a xlink:href="../../d3/d7c/classproject_1_1_s_i___net_line.html#a8747acbd54e52d4fcb3bb74f1bb2a88a" target="_top" xlink:title="Serialize the object to a XML DOM element. ">
<polygon fill="white" stroke="black" points="176,-52 176,-86 320,-86 320,-52 176,-52"/>
<text text-anchor="start" x="184" y="-73" font-family="Helvetica,sans-Serif" font-size="10.00">project::SI_NetLine</text>
<text text-anchor="middle" x="248" y="-60" font-family="Helvetica,sans-Serif" font-size="10.00">::serializeToXmlDomElement</text>
</a>
</g>
<!-- Node1&#45;&gt;Node7 -->
<g id="edge18" class="edge"><title>Node1&#45;&gt;Node7</title>
<path fill="none" stroke="midnightblue" d="M88.4061,-136.497C109.232,-125.437 143.445,-107.877 174,-95 178.321,-93.1788 182.819,-91.3771 187.368,-89.6226"/>
<polygon fill="midnightblue" stroke="midnightblue" points="188.61,-92.895 196.735,-86.0964 186.143,-86.3437 188.61,-92.895"/>
</g>
<!-- Node8 -->
<g id="node18" class="node"><title>Node8</title>
<a xlink:href="../../d1/d7b/classproject_1_1_s_i___net_label.html#a8747acbd54e52d4fcb3bb74f1bb2a88a" target="_top" xlink:title="Serialize the object to a XML DOM element. ">
<polygon fill="white" stroke="black" points="176,-0 176,-34 320,-34 320,-0 176,-0"/>
<text text-anchor="start" x="184" y="-21" font-family="Helvetica,sans-Serif" font-size="10.00">project::SI_NetLabel</text>
<text text-anchor="middle" x="248" y="-8" font-family="Helvetica,sans-Serif" font-size="10.00">::serializeToXmlDomElement</text>
</a>
</g>
<!-- Node1&#45;&gt;Node8 -->
<g id="edge20" class="edge"><title>Node1&#45;&gt;Node8</title>
<path fill="none" stroke="midnightblue" d="M77.0687,-136.301C93.2636,-115.517 131.808,-69.4082 174,-43 176.572,-41.3903 179.257,-39.8638 182.015,-38.4183"/>
<polygon fill="midnightblue" stroke="midnightblue" points="183.539,-41.5691 191.028,-34.0744 180.5,-35.2633 183.539,-41.5691"/>
</g>
<!-- Node4&#45;&gt;Node2 -->
<g id="edge8" class="edge"><title>Node4&#45;&gt;Node2</title>
<path fill="none" stroke="midnightblue" d="M320.179,-225C329.403,-225 338.915,-225 348.326,-225"/>
<polygon fill="midnightblue" stroke="midnightblue" points="348.48,-228.5 358.48,-225 348.48,-221.5 348.48,-228.5"/>
</g>
<!-- Node5 -->
<g id="node10" class="node"><title>Node5</title>
<a xlink:href="../../d1/d1f/class_xml_dom_element.html#a7dbc10bec6de11bf7a444b8bf048f296" target="_top" xlink:title="Set or add an attribute to this element. ">
<polygon fill="white" stroke="black" points="360.5,-168.5 360.5,-189.5 507.5,-189.5 507.5,-168.5 360.5,-168.5"/>
<text text-anchor="middle" x="434" y="-176.5" font-family="Helvetica,sans-Serif" font-size="10.00">XmlDomElement::setAttribute</text>
</a>
</g>
<!-- Node4&#45;&gt;Node5 -->
<g id="edge10" class="edge"><title>Node4&#45;&gt;Node5</title>
<path fill="none" stroke="midnightblue" d="M316.995,-207.937C338.31,-202.665 361.431,-196.947 381.447,-191.997"/>
<polygon fill="midnightblue" stroke="midnightblue" points="382.436,-195.358 391.303,-189.56 380.755,-188.563 382.436,-195.358"/>
</g>
<!-- Node6&#45;&gt;Node2 -->
<g id="edge14" class="edge"><title>Node6&#45;&gt;Node2</title>
<path fill="none" stroke="midnightblue" d="M308.903,-190.027C334.119,-197.076 362.923,-205.129 386.53,-211.729"/>
<polygon fill="midnightblue" stroke="midnightblue" points="385.731,-215.14 396.304,-214.461 387.616,-208.398 385.731,-215.14"/>
</g>
<!-- Node6&#45;&gt;Node5 -->
<g id="edge16" class="edge"><title>Node6&#45;&gt;Node5</title>
<path fill="none" stroke="midnightblue" d="M320.179,-175.328C330.058,-175.647 340.269,-175.976 350.332,-176.301"/>
<polygon fill="midnightblue" stroke="midnightblue" points="350.22,-179.799 360.328,-176.623 350.446,-172.803 350.22,-179.799"/>
</g>
</g>
</svg>
