<?xml version="1.0" encoding="UTF-8" standalone="no"?>
<!DOCTYPE svg PUBLIC "-//W3C//DTD SVG 1.1//EN"
 "http://www.w3.org/Graphics/SVG/1.1/DTD/svg11.dtd">
<!-- Generated by graphviz version 2.26.3 (20100126.1600)
 -->
<!-- Title: getNetSignal Pages: 1 -->
<svg width="412pt" height="250pt"
 viewBox="0.00 0.00 412.00 250.00" xmlns="http://www.w3.org/2000/svg" xmlns:xlink="http://www.w3.org/1999/xlink">
<g id="graph1" class="graph" transform="scale(1 1) rotate(0) translate(4 246)">
<title>getNetSignal</title>
<polygon fill="white" stroke="white" points="-4,5 -4,-246 409,-246 409,5 -4,5"/>
<!-- Node1 -->
<g id="node1" class="node"><title>Node1</title>
<polygon fill="#bfbfbf" stroke="black" points="0.5,-110.5 0.5,-131.5 73.5,-131.5 73.5,-110.5 0.5,-110.5"/>
<text text-anchor="middle" x="37" y="-118.5" font-family="Helvetica,sans-Serif" font-size="10.00">getNetSignal</text>
</g>
<!-- Node2 -->
<g id="node3" class="node"><title>Node2</title>
<a xlink:href="../../da/d6f/classproject_1_1_s_g_i___symbol_pin.html#aa77fc5d2da89e1f09b09f7c6724ed721" target="_top" xlink:title="project::SGI_SymbolPin\l::paint">
<polygon fill="white" stroke="black" points="110,-208 110,-242 232,-242 232,-208 110,-208"/>
<text text-anchor="start" x="118" y="-229" font-family="Helvetica,sans-Serif" font-size="10.00">project::SGI_SymbolPin</text>
<text text-anchor="middle" x="171" y="-216" font-family="Helvetica,sans-Serif" font-size="10.00">::paint</text>
</a>
</g>
<!-- Node1&#45;&gt;Node2 -->
<g id="edge2" class="edge"><title>Node1&#45;&gt;Node2</title>
<path fill="none" stroke="midnightblue" d="M50.9065,-139.867C64.42,-157.127 86.3213,-182.426 110,-199 114.621,-202.235 119.708,-205.184 124.914,-207.838"/>
<polygon fill="midnightblue" stroke="midnightblue" points="53.4911,-137.484 44.6393,-131.662 47.9284,-141.734 53.4911,-137.484"/>
</g>
<!-- Node3 -->
<g id="node5" class="node"><title>Node3</title>
<a xlink:href="../../d3/d43/classproject_1_1_s_i___net_point.html#a452a0b25e1716bec8ba4ad69b9d1786d" target="_top" xlink:title="project::SI_NetPoint\l::SI_NetPoint">
<polygon fill="white" stroke="black" points="118.5,-156 118.5,-190 223.5,-190 223.5,-156 118.5,-156"/>
<text text-anchor="start" x="126.5" y="-177" font-family="Helvetica,sans-Serif" font-size="10.00">project::SI_NetPoint</text>
<text text-anchor="middle" x="171" y="-164" font-family="Helvetica,sans-Serif" font-size="10.00">::SI_NetPoint</text>
</a>
</g>
<!-- Node1&#45;&gt;Node3 -->
<g id="edge4" class="edge"><title>Node1&#45;&gt;Node3</title>
<path fill="none" stroke="midnightblue" d="M73.4485,-135.144C89.9885,-141.563 109.689,-149.208 127.042,-155.942"/>
<polygon fill="midnightblue" stroke="midnightblue" points="74.7058,-131.878 64.1169,-131.523 72.1733,-138.404 74.7058,-131.878"/>
</g>
<!-- Node4 -->
<g id="node7" class="node"><title>Node4</title>
<a xlink:href="../../d3/d43/classproject_1_1_s_i___net_point.html#aad648031067c9ed02fa9daa1c426ff92" target="_top" xlink:title="project::SI_NetPoint\l::attachToPin">
<polygon fill="white" stroke="black" points="118.5,-104 118.5,-138 223.5,-138 223.5,-104 118.5,-104"/>
<text text-anchor="start" x="126.5" y="-125" font-family="Helvetica,sans-Serif" font-size="10.00">project::SI_NetPoint</text>
<text text-anchor="middle" x="171" y="-112" font-family="Helvetica,sans-Serif" font-size="10.00">::attachToPin</text>
</a>
</g>
<!-- Node1&#45;&gt;Node4 -->
<g id="edge6" class="edge"><title>Node1&#45;&gt;Node4</title>
<path fill="none" stroke="midnightblue" d="M83.6327,-121C94.8415,-121 106.891,-121 118.352,-121"/>
<polygon fill="midnightblue" stroke="midnightblue" points="83.6161,-117.5 73.6161,-121 83.6161,-124.5 83.6161,-117.5"/>
</g>
<!-- Node7 -->
<g id="node13" class="node"><title>Node7</title>
<a xlink:href="../../df/d64/classproject_1_1_s_e_s___draw_wire.html#ac0d67255f68a55c37b5a1e2a661ab69c" target="_top" xlink:title="project::SES_DrawWire\l::startPositioning">
<polygon fill="white" stroke="black" points="110.5,-52 110.5,-86 231.5,-86 231.5,-52 110.5,-52"/>
<text text-anchor="start" x="118.5" y="-73" font-family="Helvetica,sans-Serif" font-size="10.00">project::SES_DrawWire</text>
<text text-anchor="middle" x="171" y="-60" font-family="Helvetica,sans-Serif" font-size="10.00">::startPositioning</text>
</a>
</g>
<!-- Node1&#45;&gt;Node7 -->
<g id="edge12" class="edge"><title>Node1&#45;&gt;Node7</title>
<path fill="none" stroke="midnightblue" d="M73.4485,-106.856C89.9885,-100.437 109.689,-92.7922 127.042,-86.0582"/>
<polygon fill="midnightblue" stroke="midnightblue" points="72.1733,-103.596 64.1169,-110.477 74.7058,-110.122 72.1733,-103.596"/>
</g>
<!-- Node8 -->
<g id="node15" class="node"><title>Node8</title>
<a xlink:href="../../df/d64/classproject_1_1_s_e_s___draw_wire.html#a72ccca96a5dabd93710518c9d18b93a1" target="_top" xlink:title="project::SES_DrawWire\l::addNextNetPoint">
<polygon fill="white" stroke="black" points="110.5,-0 110.5,-34 231.5,-34 231.5,-0 110.5,-0"/>
<text text-anchor="start" x="118.5" y="-21" font-family="Helvetica,sans-Serif" font-size="10.00">project::SES_DrawWire</text>
<text text-anchor="middle" x="171" y="-8" font-family="Helvetica,sans-Serif" font-size="10.00">::addNextNetPoint</text>
</a>
</g>
<!-- Node1&#45;&gt;Node8 -->
<g id="edge14" class="edge"><title>Node1&#45;&gt;Node8</title>
<path fill="none" stroke="midnightblue" d="M50.9065,-102.133C64.42,-84.8734 86.3213,-59.5744 110,-43 114.621,-39.7652 119.708,-36.8162 124.914,-34.1621"/>
<polygon fill="midnightblue" stroke="midnightblue" points="47.9284,-100.266 44.6393,-110.338 53.4911,-104.516 47.9284,-100.266"/>
</g>
<!-- Node5 -->
<g id="node9" class="node"><title>Node5</title>
<a xlink:href="../../d1/d92/classproject_1_1_cmd_schematic_net_point_detach.html#a91ca7652063093da57fc1bd0141dcc95" target="_top" xlink:title="Redo/execute the command (and all child commands in normal order) ">
<polygon fill="white" stroke="black" points="268.5,-130 268.5,-164 403.5,-164 403.5,-130 268.5,-130"/>
<text text-anchor="start" x="276.5" y="-151" font-family="Helvetica,sans-Serif" font-size="10.00">project::CmdSchematicNet</text>
<text text-anchor="middle" x="336" y="-138" font-family="Helvetica,sans-Serif" font-size="10.00">PointDetach::redo</text>
</a>
</g>
<!-- Node4&#45;&gt;Node5 -->
<g id="edge8" class="edge"><title>Node4&#45;&gt;Node5</title>
<path fill="none" stroke="midnightblue" d="M233.874,-130.907C245.183,-132.689 257.015,-134.554 268.45,-136.356"/>
<polygon fill="midnightblue" stroke="midnightblue" points="234.084,-127.397 223.661,-129.298 232.994,-134.312 234.084,-127.397"/>
</g>
<!-- Node6 -->
<g id="node11" class="node"><title>Node6</title>
<a xlink:href="../../d1/d92/classproject_1_1_cmd_schematic_net_point_detach.html#a19e8778088bfe76b16745470981bb913" target="_top" xlink:title="Undo the command (and all child commands in reverse order) ">
<polygon fill="white" stroke="black" points="268.5,-78 268.5,-112 403.5,-112 403.5,-78 268.5,-78"/>
<text text-anchor="start" x="276.5" y="-99" font-family="Helvetica,sans-Serif" font-size="10.00">project::CmdSchematicNet</text>
<text text-anchor="middle" x="336" y="-86" font-family="Helvetica,sans-Serif" font-size="10.00">PointDetach::undo</text>
</a>
</g>
<!-- Node4&#45;&gt;Node6 -->
<g id="edge10" class="edge"><title>Node4&#45;&gt;Node6</title>
<path fill="none" stroke="midnightblue" d="M233.874,-111.093C245.183,-109.311 257.015,-107.446 268.45,-105.644"/>
<polygon fill="midnightblue" stroke="midnightblue" points="232.994,-107.688 223.661,-112.702 234.084,-114.603 232.994,-107.688"/>
</g>
</g>
</svg>
