<?xml version="1.0" encoding="UTF-8" standalone="no"?>
<!DOCTYPE svg PUBLIC "-//W3C//DTD SVG 1.1//EN"
 "http://www.w3.org/Graphics/SVG/1.1/DTD/svg11.dtd">
<!-- Generated by graphviz version 2.26.3 (20100126.1600)
 -->
<!-- Title: /home/travis/build/LibrePCB/LibrePCB/libs/librepcbprojecteditor/schematiceditor/schematicclipboard.h Pages: 1 -->
<svg width="224pt" height="186pt"
 viewBox="0.00 0.00 224.00 186.00" xmlns="http://www.w3.org/2000/svg" xmlns:xlink="http://www.w3.org/1999/xlink">
<g id="graph1" class="graph" transform="scale(1 1) rotate(0) translate(4 182)">
<title>/home/travis/build/LibrePCB/LibrePCB/libs/librepcbprojecteditor/schematiceditor/schematicclipboard.h</title>
<polygon fill="white" stroke="white" points="-4,5 -4,-182 221,-182 221,5 -4,5"/>
<!-- Node1 -->
<g id="node1" class="node"><title>Node1</title>
<polygon fill="#bfbfbf" stroke="black" points="0,-117 0,-177 184,-177 184,-117 0,-117"/>
<text text-anchor="start" x="8" y="-164" font-family="Helvetica,sans-Serif" font-size="10.00">/home/travis/build</text>
<text text-anchor="start" x="8" y="-151" font-family="Helvetica,sans-Serif" font-size="10.00">/LibrePCB/LibrePCB/libs</text>
<text text-anchor="start" x="8" y="-138" font-family="Helvetica,sans-Serif" font-size="10.00">/librepcbprojecteditor</text>
<text text-anchor="middle" x="92" y="-125" font-family="Helvetica,sans-Serif" font-size="10.00">/schematiceditor/schematicclipboard.h</text>
</g>
<!-- Node2 -->
<g id="node3" class="node"><title>Node2</title>
<polygon fill="white" stroke="#bfbfbf" points="68,-0.5 68,-21.5 116,-21.5 116,-0.5 68,-0.5"/>
<text text-anchor="middle" x="92" y="-8.5" font-family="Helvetica,sans-Serif" font-size="10.00">QtCore</text>
</g>
<!-- Node1&#45;&gt;Node2 -->
<g id="edge2" class="edge"><title>Node1&#45;&gt;Node2</title>
<path fill="none" stroke="midnightblue" d="M71.5526,-116.733C62.4916,-99.6147 55.0744,-77.746 61,-58 64.0536,-47.8243 70.1021,-37.8172 76.0521,-29.6697"/>
<polygon fill="midnightblue" stroke="midnightblue" points="78.9273,-31.6745 82.3234,-21.6387 73.4101,-27.3662 78.9273,-31.6745"/>
</g>
<!-- Node3 -->
<g id="node5" class="node"><title>Node3</title>
<a xlink:href="../../d4/d03/exceptions_8h.html" target="_top" xlink:title="librepcbcommon/exceptions.h">
<polygon fill="white" stroke="black" points="70,-58.5 70,-79.5 216,-79.5 216,-58.5 70,-58.5"/>
<text text-anchor="middle" x="143" y="-66.5" font-family="Helvetica,sans-Serif" font-size="10.00">librepcbcommon/exceptions.h</text>
</a>
</g>
<!-- Node1&#45;&gt;Node3 -->
<g id="edge4" class="edge"><title>Node1&#45;&gt;Node3</title>
<path fill="none" stroke="midnightblue" d="M111.864,-116.62C118.108,-107.07 124.827,-96.7947 130.419,-88.242"/>
<polygon fill="midnightblue" stroke="midnightblue" points="133.426,-90.0386 135.969,-79.7535 127.567,-86.2078 133.426,-90.0386"/>
</g>
<!-- Node3&#45;&gt;Node2 -->
<g id="edge6" class="edge"><title>Node3&#45;&gt;Node2</title>
<path fill="none" stroke="midnightblue" d="M133.646,-58.3619C126.457,-50.1861 116.359,-38.7025 107.907,-29.0907"/>
<polygon fill="midnightblue" stroke="midnightblue" points="110.527,-26.7692 101.295,-21.5707 105.27,-31.3916 110.527,-26.7692"/>
</g>
</g>
</svg>
