<?xml version="1.0" encoding="UTF-8" standalone="no"?>
<!DOCTYPE svg PUBLIC "-//W3C//DTD SVG 1.1//EN"
 "http://www.w3.org/Graphics/SVG/1.1/DTD/svg11.dtd">
<!-- Generated by graphviz version 2.26.3 (20100126.1600)
 -->
<!-- Title: readLocaleDomNodes Pages: 1 -->
<svg width="310pt" height="250pt"
 viewBox="0.00 0.00 310.00 250.00" xmlns="http://www.w3.org/2000/svg" xmlns:xlink="http://www.w3.org/1999/xlink">
<g id="graph1" class="graph" transform="scale(1 1) rotate(0) translate(4 246)">
<title>readLocaleDomNodes</title>
<polygon fill="white" stroke="white" points="-4,5 -4,-246 307,-246 307,5 -4,5"/>
<!-- Node1 -->
<g id="node1" class="node"><title>Node1</title>
<polygon fill="#bfbfbf" stroke="black" points="0.5,-110.5 0.5,-131.5 113.5,-131.5 113.5,-110.5 0.5,-110.5"/>
<text text-anchor="middle" x="57" y="-118.5" font-family="Helvetica,sans-Serif" font-size="10.00">readLocaleDomNodes</text>
</g>
<!-- Node2 -->
<g id="node3" class="node"><title>Node2</title>
<a xlink:href="../../d2/d4e/classlibrary_1_1_footprint_pad.html#a02f3343c2d3add90b7a029912ad4c477" target="_top" xlink:title="library::FootprintPad\l::FootprintPad">
<polygon fill="white" stroke="black" points="174,-208 174,-242 278,-242 278,-208 174,-208"/>
<text text-anchor="start" x="182" y="-229" font-family="Helvetica,sans-Serif" font-size="10.00">library::FootprintPad</text>
<text text-anchor="middle" x="226" y="-216" font-family="Helvetica,sans-Serif" font-size="10.00">::FootprintPad</text>
</a>
</g>
<!-- Node1&#45;&gt;Node2 -->
<g id="edge2" class="edge"><title>Node1&#45;&gt;Node2</title>
<path fill="none" stroke="midnightblue" d="M74.1827,-138.832C91.8076,-156.247 120.717,-182.475 150,-199 157.408,-203.181 165.601,-206.845 173.784,-210.002"/>
<polygon fill="midnightblue" stroke="midnightblue" points="76.448,-136.146 66.9179,-131.517 71.4812,-141.079 76.448,-136.146"/>
</g>
<!-- Node3 -->
<g id="node5" class="node"><title>Node3</title>
<a xlink:href="../../d4/d5f/classlibrary_1_1_gen_comp_signal.html#ad500334edf2114d058e2010633a60e08" target="_top" xlink:title="library::GenCompSignal\l::GenCompSignal">
<polygon fill="white" stroke="black" points="166,-156 166,-190 286,-190 286,-156 166,-156"/>
<text text-anchor="start" x="174" y="-177" font-family="Helvetica,sans-Serif" font-size="10.00">library::GenCompSignal</text>
<text text-anchor="middle" x="226" y="-164" font-family="Helvetica,sans-Serif" font-size="10.00">::GenCompSignal</text>
</a>
</g>
<!-- Node1&#45;&gt;Node3 -->
<g id="edge4" class="edge"><title>Node1&#45;&gt;Node3</title>
<path fill="none" stroke="midnightblue" d="M100.935,-134.518C122.2,-141.062 147.96,-148.988 170.561,-155.942"/>
<polygon fill="midnightblue" stroke="midnightblue" points="101.787,-131.119 91.1997,-131.523 99.7281,-137.809 101.787,-131.119"/>
</g>
<!-- Node4 -->
<g id="node7" class="node"><title>Node4</title>
<a xlink:href="../../d7/dff/classlibrary_1_1_gen_comp_symb_var.html#aaf658e6730f690b372dde7bb8173f54d" target="_top" xlink:title="library::GenCompSymbVar\l::GenCompSymbVar">
<polygon fill="white" stroke="black" points="159,-104 159,-138 293,-138 293,-104 159,-104"/>
<text text-anchor="start" x="167" y="-125" font-family="Helvetica,sans-Serif" font-size="10.00">library::GenCompSymbVar</text>
<text text-anchor="middle" x="226" y="-112" font-family="Helvetica,sans-Serif" font-size="10.00">::GenCompSymbVar</text>
</a>
</g>
<!-- Node1&#45;&gt;Node4 -->
<g id="edge6" class="edge"><title>Node1&#45;&gt;Node4</title>
<path fill="none" stroke="midnightblue" d="M123.752,-121C135.301,-121 147.313,-121 158.872,-121"/>
<polygon fill="midnightblue" stroke="midnightblue" points="123.745,-117.5 113.745,-121 123.745,-124.5 123.745,-117.5"/>
</g>
<!-- Node5 -->
<g id="node9" class="node"><title>Node5</title>
<a xlink:href="../../d5/d40/classlibrary_1_1_library_element_attribute.html#ac4e221bdc91d964218f3b2c1ab3fc826" target="_top" xlink:title="library::LibraryElementAttribute\l::LibraryElementAttribute">
<polygon fill="white" stroke="black" points="150.5,-52 150.5,-86 301.5,-86 301.5,-52 150.5,-52"/>
<text text-anchor="start" x="158.5" y="-73" font-family="Helvetica,sans-Serif" font-size="10.00">library::LibraryElementAttribute</text>
<text text-anchor="middle" x="226" y="-60" font-family="Helvetica,sans-Serif" font-size="10.00">::LibraryElementAttribute</text>
</a>
</g>
<!-- Node1&#45;&gt;Node5 -->
<g id="edge8" class="edge"><title>Node1&#45;&gt;Node5</title>
<path fill="none" stroke="midnightblue" d="M100.935,-107.482C122.2,-100.938 147.96,-93.0124 170.561,-86.0582"/>
<polygon fill="midnightblue" stroke="midnightblue" points="99.7281,-104.191 91.1997,-110.477 101.787,-110.881 99.7281,-104.191"/>
</g>
<!-- Node6 -->
<g id="node11" class="node"><title>Node6</title>
<a xlink:href="../../d0/dfd/classlibrary_1_1_symbol_pin.html#ad59733fe4076bf9210183dbade26054a" target="_top" xlink:title="library::SymbolPin\l::SymbolPin">
<polygon fill="white" stroke="black" points="178,-0 178,-34 274,-34 274,-0 178,-0"/>
<text text-anchor="start" x="186" y="-21" font-family="Helvetica,sans-Serif" font-size="10.00">library::SymbolPin</text>
<text text-anchor="middle" x="226" y="-8" font-family="Helvetica,sans-Serif" font-size="10.00">::SymbolPin</text>
</a>
</g>
<!-- Node1&#45;&gt;Node6 -->
<g id="edge10" class="edge"><title>Node1&#45;&gt;Node6</title>
<path fill="none" stroke="midnightblue" d="M74.1827,-103.168C91.8076,-85.7526 120.717,-59.525 150,-43 158.623,-38.134 168.309,-33.9672 177.804,-30.4861"/>
<polygon fill="midnightblue" stroke="midnightblue" points="71.4812,-100.921 66.9179,-110.483 76.448,-105.854 71.4812,-100.921"/>
</g>
</g>
</svg>
