<?xml version="1.0" encoding="UTF-8" standalone="no"?>
<!DOCTYPE svg PUBLIC "-//W3C//DTD SVG 1.1//EN"
 "http://www.w3.org/Graphics/SVG/1.1/DTD/svg11.dtd">
<!-- Generated by graphviz version 2.26.3 (20100126.1600)
 -->
<!-- Title: abs Pages: 1 -->
<svg width="264pt" height="30pt"
 viewBox="0.00 0.00 264.00 30.00" xmlns="http://www.w3.org/2000/svg" xmlns:xlink="http://www.w3.org/1999/xlink">
<g id="graph1" class="graph" transform="scale(1 1) rotate(0) translate(4 26)">
<title>abs</title>
<polygon fill="white" stroke="white" points="-4,5 -4,-26 261,-26 261,5 -4,5"/>
<!-- Node1 -->
<g id="node1" class="node"><title>Node1</title>
<polygon fill="#bfbfbf" stroke="black" points="0,-0.5 0,-21.5 32,-21.5 32,-0.5 0,-0.5"/>
<text text-anchor="middle" x="16" y="-8.5" font-family="Helvetica,sans-Serif" font-size="10.00">abs</text>
</g>
<!-- Node2 -->
<g id="node3" class="node"><title>Node2</title>
<a xlink:href="../../d0/d69/class_point.html#a07c9955efa8608bc94044ff826a71b79" target="_top" xlink:title="Make both coordinates absolute (X,Y &gt;= 0) ">
<polygon fill="white" stroke="black" points="68,-0.5 68,-21.5 126,-21.5 126,-0.5 68,-0.5"/>
<text text-anchor="middle" x="97" y="-8.5" font-family="Helvetica,sans-Serif" font-size="10.00">makeAbs</text>
</a>
</g>
<!-- Node1&#45;&gt;Node2 -->
<g id="edge2" class="edge"><title>Node1&#45;&gt;Node2</title>
<path fill="none" stroke="midnightblue" d="M32.003,-11C39.4396,-11 48.6414,-11 57.758,-11"/>
<polygon fill="midnightblue" stroke="midnightblue" points="57.9163,-14.5001 67.9163,-11 57.9162,-7.5001 57.9163,-14.5001"/>
</g>
<!-- Node3 -->
<g id="node5" class="node"><title>Node3</title>
<a xlink:href="../../df/df0/class_length.html#a13f4bb7adbb486ded36fe6a8204b81e6" target="_top" xlink:title="Make the length absolute (mNanometers &gt;= 0) ">
<polygon fill="white" stroke="black" points="162.5,-0.5 162.5,-21.5 255.5,-21.5 255.5,-0.5 162.5,-0.5"/>
<text text-anchor="middle" x="209" y="-8.5" font-family="Helvetica,sans-Serif" font-size="10.00">Length::makeAbs</text>
</a>
</g>
<!-- Node2&#45;&gt;Node3 -->
<g id="edge4" class="edge"><title>Node2&#45;&gt;Node3</title>
<path fill="none" stroke="midnightblue" d="M126.134,-11C134.14,-11 143.106,-11 152.102,-11"/>
<polygon fill="midnightblue" stroke="midnightblue" points="152.223,-14.5001 162.223,-11 152.223,-7.5001 152.223,-14.5001"/>
</g>
</g>
</svg>
