<?xml version="1.0" encoding="UTF-8" standalone="no"?>
<!DOCTYPE svg PUBLIC "-//W3C//DTD SVG 1.1//EN"
 "http://www.w3.org/Graphics/SVG/1.1/DTD/svg11.dtd">
<!-- Generated by graphviz version 2.26.3 (20100126.1600)
 -->
<!-- Title: toPxQPointF Pages: 1 -->
<svg width="1112pt" height="1036pt"
 viewBox="0.00 0.00 1112.00 1035.72" xmlns="http://www.w3.org/2000/svg" xmlns:xlink="http://www.w3.org/1999/xlink">
<g id="graph1" class="graph" transform="scale(1 1) rotate(0) translate(4 1031.72)">
<title>toPxQPointF</title>
<polygon fill="white" stroke="white" points="-4,5 -4,-1031.72 1109,-1031.72 1109,5 -4,5"/>
<!-- Node1 -->
<g id="node1" class="node"><title>Node1</title>
<polygon fill="#bfbfbf" stroke="black" points="0.5,-593.5 0.5,-614.5 73.5,-614.5 73.5,-593.5 0.5,-593.5"/>
<text text-anchor="middle" x="37" y="-601.5" font-family="Helvetica,sans-Serif" font-size="10.00">toPxQPointF</text>
</g>
<!-- Node2 -->
<g id="node3" class="node"><title>Node2</title>
<a xlink:href="../../d2/d28/classlibrary_1_1_footprint_polygon.html#a0c155e27c8e6d8f1cd3a8443b7bad250" target="_top" xlink:title="library::FootprintPolygon\l::toQPainterPathPx">
<polygon fill="white" stroke="black" points="134,-871 134,-905 256,-905 256,-871 134,-871"/>
<text text-anchor="start" x="142" y="-892" font-family="Helvetica,sans-Serif" font-size="10.00">library::FootprintPolygon</text>
<text text-anchor="middle" x="195" y="-879" font-family="Helvetica,sans-Serif" font-size="10.00">::toQPainterPathPx</text>
</a>
</g>
<!-- Node1&#45;&gt;Node2 -->
<g id="edge2" class="edge"><title>Node1&#45;&gt;Node2</title>
<path fill="none" stroke="midnightblue" d="M40.6066,-624.786C50.3072,-678.564 78.3714,-820.482 110,-855 116.631,-862.236 125.035,-867.903 133.965,-872.336"/>
<polygon fill="midnightblue" stroke="midnightblue" points="44.0137,-623.954 38.8207,-614.719 37.1213,-625.177 44.0137,-623.954"/>
</g>
<!-- Node3 -->
<g id="node5" class="node"><title>Node3</title>
<a xlink:href="../../dc/d87/classproject_1_1_b_g_i___footprint.html#abbb5db1b700a86caa85ff4c0c13142f2" target="_top" xlink:title="project::BGI_Footprint\l::updateCacheAndRepaint">
<polygon fill="white" stroke="black" points="347.5,-871 347.5,-905 478.5,-905 478.5,-871 347.5,-871"/>
<text text-anchor="start" x="355.5" y="-892" font-family="Helvetica,sans-Serif" font-size="10.00">project::BGI_Footprint</text>
<text text-anchor="middle" x="413" y="-879" font-family="Helvetica,sans-Serif" font-size="10.00">::updateCacheAndRepaint</text>
</a>
</g>
<!-- Node1&#45;&gt;Node3 -->
<g id="edge32" class="edge"><title>Node1&#45;&gt;Node3</title>
<path fill="none" stroke="midnightblue" d="M41.3153,-624.593C51.8747,-673.056 80.3263,-792.247 110,-819 118.878,-827.004 260.718,-857.003 347.143,-874.701"/>
<polygon fill="midnightblue" stroke="midnightblue" points="44.6987,-623.677 39.1813,-614.632 37.854,-625.144 44.6987,-623.677"/>
</g>
<!-- Node5 -->
<g id="node9" class="node"><title>Node5</title>
<a xlink:href="../../da/d96/classproject_1_1_b_i___footprint.html#a02fd73d861ef2e4aabb38c0c9ff82947" target="_top" xlink:title="project::BI_Footprint\l::init">
<polygon fill="white" stroke="black" points="783.5,-846 783.5,-880 888.5,-880 888.5,-846 783.5,-846"/>
<text text-anchor="start" x="791.5" y="-867" font-family="Helvetica,sans-Serif" font-size="10.00">project::BI_Footprint</text>
<text text-anchor="middle" x="836" y="-854" font-family="Helvetica,sans-Serif" font-size="10.00">::init</text>
</a>
</g>
<!-- Node1&#45;&gt;Node5 -->
<g id="edge36" class="edge"><title>Node1&#45;&gt;Node5</title>
<path fill="none" stroke="midnightblue" d="M38.2079,-624.894C42.6146,-693.129 60.258,-907.543 110,-951 318.678,-1133.31 699.217,-940.807 806.909,-880.069"/>
<polygon fill="midnightblue" stroke="midnightblue" points="41.6809,-624.346 37.5724,-614.58 34.6941,-624.776 41.6809,-624.346"/>
</g>
<!-- Node6 -->
<g id="node11" class="node"><title>Node6</title>
<a xlink:href="../../dc/d87/classproject_1_1_b_g_i___footprint.html#aa77fc5d2da89e1f09b09f7c6724ed721" target="_top" xlink:title="project::BGI_Footprint\l::paint">
<polygon fill="white" stroke="black" points="356.5,-923 356.5,-957 469.5,-957 469.5,-923 356.5,-923"/>
<text text-anchor="start" x="364.5" y="-944" font-family="Helvetica,sans-Serif" font-size="10.00">project::BGI_Footprint</text>
<text text-anchor="middle" x="413" y="-931" font-family="Helvetica,sans-Serif" font-size="10.00">::paint</text>
</a>
</g>
<!-- Node1&#45;&gt;Node6 -->
<g id="edge34" class="edge"><title>Node1&#45;&gt;Node6</title>
<path fill="none" stroke="midnightblue" d="M38.8132,-625.094C44.7287,-688.558 65.6896,-875.716 110,-914 177.917,-972.68 289.248,-964.891 356.384,-953.036"/>
<polygon fill="midnightblue" stroke="midnightblue" points="42.2643,-624.393 37.8815,-614.747 35.2925,-625.021 42.2643,-624.393"/>
</g>
<!-- Node7 -->
<g id="node13" class="node"><title>Node7</title>
<a xlink:href="../../d1/d7f/classlibrary_1_1_symbol_polygon.html#a0c155e27c8e6d8f1cd3a8443b7bad250" target="_top" xlink:title="library::SymbolPolygon\l::toQPainterPathPx">
<polygon fill="white" stroke="black" points="136.5,-610 136.5,-644 253.5,-644 253.5,-610 136.5,-610"/>
<text text-anchor="start" x="144.5" y="-631" font-family="Helvetica,sans-Serif" font-size="10.00">library::SymbolPolygon</text>
<text text-anchor="middle" x="195" y="-618" font-family="Helvetica,sans-Serif" font-size="10.00">::toQPainterPathPx</text>
</a>
</g>
<!-- Node1&#45;&gt;Node7 -->
<g id="edge12" class="edge"><title>Node1&#45;&gt;Node7</title>
<path fill="none" stroke="midnightblue" d="M83.5956,-610.783C100.103,-613.186 118.894,-615.921 136.279,-618.452"/>
<polygon fill="midnightblue" stroke="midnightblue" points="84.0454,-607.312 73.6455,-609.334 83.037,-614.239 84.0454,-607.312"/>
</g>
<!-- Node8 -->
<g id="node15" class="node"><title>Node8</title>
<a xlink:href="../../d9/da8/classlibrary_1_1_symbol_preview_graphics_item.html#abbb5db1b700a86caa85ff4c0c13142f2" target="_top" xlink:title="library::SymbolPreviewGraphics\lItem::updateCacheAndRepaint">
<polygon fill="white" stroke="black" points="335,-677 335,-711 491,-711 491,-677 335,-677"/>
<text text-anchor="start" x="343" y="-698" font-family="Helvetica,sans-Serif" font-size="10.00">library::SymbolPreviewGraphics</text>
<text text-anchor="middle" x="413" y="-685" font-family="Helvetica,sans-Serif" font-size="10.00">Item::updateCacheAndRepaint</text>
</a>
</g>
<!-- Node1&#45;&gt;Node8 -->
<g id="edge28" class="edge"><title>Node1&#45;&gt;Node8</title>
<path fill="none" stroke="midnightblue" d="M50.282,-622.694C63.356,-639.424 84.9616,-662.963 110,-674 181.395,-705.47 271.511,-707.238 334.839,-703.128"/>
<polygon fill="midnightblue" stroke="midnightblue" points="53.0558,-620.559 44.2499,-614.668 47.4601,-624.765 53.0558,-620.559"/>
</g>
<!-- Node9 -->
<g id="node17" class="node"><title>Node9</title>
<a xlink:href="../../d9/da8/classlibrary_1_1_symbol_preview_graphics_item.html#aa77fc5d2da89e1f09b09f7c6724ed721" target="_top" xlink:title="library::SymbolPreviewGraphics\lItem::paint">
<polygon fill="white" stroke="black" points="335,-625 335,-659 491,-659 491,-625 335,-625"/>
<text text-anchor="start" x="343" y="-646" font-family="Helvetica,sans-Serif" font-size="10.00">library::SymbolPreviewGraphics</text>
<text text-anchor="middle" x="413" y="-633" font-family="Helvetica,sans-Serif" font-size="10.00">Item::paint</text>
</a>
</g>
<!-- Node1&#45;&gt;Node9 -->
<g id="edge30" class="edge"><title>Node1&#45;&gt;Node9</title>
<path fill="none" stroke="midnightblue" d="M56.0505,-621.446C69.8904,-632.88 89.6849,-646.814 110,-653 183.898,-675.502 272.641,-668.591 334.926,-658.594"/>
<polygon fill="midnightblue" stroke="midnightblue" points="58.1162,-618.606 48.2514,-614.741 53.553,-623.914 58.1162,-618.606"/>
</g>
<!-- Node10 -->
<g id="node19" class="node"><title>Node10</title>
<a xlink:href="../../dd/d00/classproject_1_1_s_g_i___symbol.html#abbb5db1b700a86caa85ff4c0c13142f2" target="_top" xlink:title="project::SGI_Symbol\l::updateCacheAndRepaint">
<polygon fill="white" stroke="black" points="347.5,-573 347.5,-607 478.5,-607 478.5,-573 347.5,-573"/>
<text text-anchor="start" x="355.5" y="-594" font-family="Helvetica,sans-Serif" font-size="10.00">project::SGI_Symbol</text>
<text text-anchor="middle" x="413" y="-581" font-family="Helvetica,sans-Serif" font-size="10.00">::updateCacheAndRepaint</text>
</a>
</g>
<!-- Node1&#45;&gt;Node10 -->
<g id="edge60" class="edge"><title>Node1&#45;&gt;Node10</title>
<path fill="none" stroke="midnightblue" d="M83.7915,-602.044C92.5028,-601.689 101.528,-601.328 110,-601 191.792,-597.835 286.015,-594.456 347.389,-592.291"/>
<polygon fill="midnightblue" stroke="midnightblue" points="83.6094,-598.548 73.7612,-602.455 83.8961,-605.542 83.6094,-598.548"/>
</g>
<!-- Node13 -->
<g id="node25" class="node"><title>Node13</title>
<a xlink:href="../../dd/d00/classproject_1_1_s_g_i___symbol.html#aa77fc5d2da89e1f09b09f7c6724ed721" target="_top" xlink:title="project::SGI_Symbol\l::paint">
<polygon fill="white" stroke="black" points="359.5,-521 359.5,-555 466.5,-555 466.5,-521 359.5,-521"/>
<text text-anchor="start" x="367.5" y="-542" font-family="Helvetica,sans-Serif" font-size="10.00">project::SGI_Symbol</text>
<text text-anchor="middle" x="413" y="-529" font-family="Helvetica,sans-Serif" font-size="10.00">::paint</text>
</a>
</g>
<!-- Node1&#45;&gt;Node13 -->
<g id="edge62" class="edge"><title>Node1&#45;&gt;Node13</title>
<path fill="none" stroke="midnightblue" d="M83.7675,-594.89C92.4811,-593.233 101.513,-591.542 110,-590 197.173,-574.162 298.696,-557 359.305,-546.89"/>
<polygon fill="midnightblue" stroke="midnightblue" points="82.9005,-591.493 73.7364,-596.81 84.216,-598.368 82.9005,-591.493"/>
</g>
<!-- Node14 -->
<g id="node27" class="node"><title>Node14</title>
<a xlink:href="../../d9/da8/classlibrary_1_1_symbol_preview_graphics_item.html#a686732ebe57e974c4b06dc6da431d1da" target="_top" xlink:title="library::SymbolPreviewGraphics\lItem::SymbolPreviewGraphicsItem">
<polygon fill="white" stroke="black" points="110.5,-482 110.5,-516 279.5,-516 279.5,-482 110.5,-482"/>
<text text-anchor="start" x="118.5" y="-503" font-family="Helvetica,sans-Serif" font-size="10.00">library::SymbolPreviewGraphics</text>
<text text-anchor="middle" x="195" y="-490" font-family="Helvetica,sans-Serif" font-size="10.00">Item::SymbolPreviewGraphicsItem</text>
</a>
</g>
<!-- Node1&#45;&gt;Node14 -->
<g id="edge26" class="edge"><title>Node1&#45;&gt;Node14</title>
<path fill="none" stroke="midnightblue" d="M51.1365,-585.588C64.6725,-569.051 86.4673,-545.116 110,-530 118.326,-524.652 127.702,-520.059 137.107,-516.173"/>
<polygon fill="midnightblue" stroke="midnightblue" points="48.345,-583.474 44.8454,-593.475 53.8174,-587.839 48.345,-583.474"/>
</g>
<!-- Node15 -->
<g id="node34" class="node"><title>Node15</title>
<a xlink:href="../../da/d96/classproject_1_1_b_i___footprint.html#a271c63e12acd19bccc27bf6861938df2" target="_top" xlink:title="project::BI_Footprint\l::componentInstanceMoved">
<polygon fill="white" stroke="black" points="344.5,-729 344.5,-763 481.5,-763 481.5,-729 344.5,-729"/>
<text text-anchor="start" x="352.5" y="-750" font-family="Helvetica,sans-Serif" font-size="10.00">project::BI_Footprint</text>
<text text-anchor="middle" x="413" y="-737" font-family="Helvetica,sans-Serif" font-size="10.00">::componentInstanceMoved</text>
</a>
</g>
<!-- Node1&#45;&gt;Node15 -->
<g id="edge38" class="edge"><title>Node1&#45;&gt;Node15</title>
<path fill="none" stroke="midnightblue" d="M45.6536,-623.767C56.9007,-646.901 78.8539,-684.406 110,-703 181.624,-745.758 279.359,-752.244 344.24,-750.865"/>
<polygon fill="midnightblue" stroke="midnightblue" points="48.7579,-622.141 41.3688,-614.548 42.4101,-625.092 48.7579,-622.141"/>
</g>
<!-- Node16 -->
<g id="node37" class="node"><title>Node16</title>
<a xlink:href="../../d4/ddd/classproject_1_1_b_i___footprint_pad.html#a212e36e19edc323ddeb73387d2f011a5" target="_top" xlink:title="project::BI_FootprintPad\l::updatePosition">
<polygon fill="white" stroke="black" points="134,-776 134,-810 256,-810 256,-776 134,-776"/>
<text text-anchor="start" x="142" y="-797" font-family="Helvetica,sans-Serif" font-size="10.00">project::BI_FootprintPad</text>
<text text-anchor="middle" x="195" y="-784" font-family="Helvetica,sans-Serif" font-size="10.00">::updatePosition</text>
</a>
</g>
<!-- Node1&#45;&gt;Node16 -->
<g id="edge42" class="edge"><title>Node1&#45;&gt;Node16</title>
<path fill="none" stroke="midnightblue" d="M41.2284,-624.941C49.0429,-658.436 68.8469,-724.132 110,-762 116.82,-768.275 125.011,-773.305 133.579,-777.329"/>
<polygon fill="midnightblue" stroke="midnightblue" points="44.5877,-623.92 39.0244,-614.904 37.7506,-625.422 44.5877,-623.92"/>
</g>
<!-- Node19 -->
<g id="node45" class="node"><title>Node19</title>
<a xlink:href="../../df/dd1/classproject_1_1_s_g_i___net_line.html#abbb5db1b700a86caa85ff4c0c13142f2" target="_top" xlink:title="project::SGI_NetLine\l::updateCacheAndRepaint">
<polygon fill="white" stroke="black" points="129.5,-430 129.5,-464 260.5,-464 260.5,-430 129.5,-430"/>
<text text-anchor="start" x="137.5" y="-451" font-family="Helvetica,sans-Serif" font-size="10.00">project::SGI_NetLine</text>
<text text-anchor="middle" x="195" y="-438" font-family="Helvetica,sans-Serif" font-size="10.00">::updateCacheAndRepaint</text>
</a>
</g>
<!-- Node1&#45;&gt;Node19 -->
<g id="edge52" class="edge"><title>Node1&#45;&gt;Node19</title>
<path fill="none" stroke="midnightblue" d="M42.9829,-583.581C52.4758,-554.736 73.7271,-502.31 110,-473 115.761,-468.345 122.351,-464.521 129.255,-461.381"/>
<polygon fill="midnightblue" stroke="midnightblue" points="39.5614,-582.796 39.9136,-593.385 46.2416,-584.887 39.5614,-582.796"/>
</g>
<!-- Node23 -->
<g id="node55" class="node"><title>Node23</title>
<a xlink:href="../../d1/d7b/classproject_1_1_s_i___net_label.html#a02fd73d861ef2e4aabb38c0c9ff82947" target="_top" xlink:title="project::SI_NetLabel\l::init">
<polygon fill="white" stroke="black" points="142,-378 142,-412 248,-412 248,-378 142,-378"/>
<text text-anchor="start" x="150" y="-399" font-family="Helvetica,sans-Serif" font-size="10.00">project::SI_NetLabel</text>
<text text-anchor="middle" x="195" y="-386" font-family="Helvetica,sans-Serif" font-size="10.00">::init</text>
</a>
</g>
<!-- Node1&#45;&gt;Node23 -->
<g id="edge64" class="edge"><title>Node1&#45;&gt;Node23</title>
<path fill="none" stroke="midnightblue" d="M39.4923,-582.746C45.0775,-544.761 62.1055,-465.088 110,-421 118.856,-412.848 130.206,-407.25 141.709,-403.406"/>
<polygon fill="midnightblue" stroke="midnightblue" points="35.9627,-582.734 38.1048,-593.11 42.9008,-583.663 35.9627,-582.734"/>
</g>
<!-- Node24 -->
<g id="node57" class="node"><title>Node24</title>
<a xlink:href="../../d3/d43/classproject_1_1_s_i___net_point.html#a02fd73d861ef2e4aabb38c0c9ff82947" target="_top" xlink:title="project::SI_NetPoint\l::init">
<polygon fill="white" stroke="black" points="142.5,-326 142.5,-360 247.5,-360 247.5,-326 142.5,-326"/>
<text text-anchor="start" x="150.5" y="-347" font-family="Helvetica,sans-Serif" font-size="10.00">project::SI_NetPoint</text>
<text text-anchor="middle" x="195" y="-334" font-family="Helvetica,sans-Serif" font-size="10.00">::init</text>
</a>
</g>
<!-- Node1&#45;&gt;Node24 -->
<g id="edge66" class="edge"><title>Node1&#45;&gt;Node24</title>
<path fill="none" stroke="midnightblue" d="M40.8483,-583.385C50.8354,-531.954 78.9747,-399.891 110,-369 118.749,-360.289 130.33,-354.484 142.119,-350.618"/>
<polygon fill="midnightblue" stroke="midnightblue" points="37.3867,-582.853 38.9491,-593.332 44.2625,-584.166 37.3867,-582.853"/>
</g>
<!-- Node25 -->
<g id="node59" class="node"><title>Node25</title>
<a xlink:href="../../d3/d43/classproject_1_1_s_i___net_point.html#af90fb11b274fda88ef94e9f685a6ab35" target="_top" xlink:title="project::SI_NetPoint\l::getGrabAreaScenePx">
<polygon fill="white" stroke="black" points="136.5,-274 136.5,-308 253.5,-308 253.5,-274 136.5,-274"/>
<text text-anchor="start" x="144.5" y="-295" font-family="Helvetica,sans-Serif" font-size="10.00">project::SI_NetPoint</text>
<text text-anchor="middle" x="195" y="-282" font-family="Helvetica,sans-Serif" font-size="10.00">::getGrabAreaScenePx</text>
</a>
</g>
<!-- Node1&#45;&gt;Node25 -->
<g id="edge68" class="edge"><title>Node1&#45;&gt;Node25</title>
<path fill="none" stroke="midnightblue" d="M39.6195,-583.288C47.4986,-524.116 72.7561,-356.067 110,-317 117.134,-309.516 126.357,-304.169 136.085,-300.353"/>
<polygon fill="midnightblue" stroke="midnightblue" points="36.1353,-582.94 38.3141,-593.308 43.0767,-583.844 36.1353,-582.94"/>
</g>
<!-- Node30 -->
<g id="node69" class="node"><title>Node30</title>
<a xlink:href="../../d6/d12/classproject_1_1_s_i___symbol_pin.html#a212e36e19edc323ddeb73387d2f011a5" target="_top" xlink:title="project::SI_SymbolPin\l::updatePosition">
<polygon fill="white" stroke="black" points="138,-196 138,-230 252,-230 252,-196 138,-196"/>
<text text-anchor="start" x="146" y="-217" font-family="Helvetica,sans-Serif" font-size="10.00">project::SI_SymbolPin</text>
<text text-anchor="middle" x="195" y="-204" font-family="Helvetica,sans-Serif" font-size="10.00">::updatePosition</text>
</a>
</g>
<!-- Node1&#45;&gt;Node30 -->
<g id="edge78" class="edge"><title>Node1&#45;&gt;Node30</title>
<path fill="none" stroke="midnightblue" d="M39.3258,-583.13C46.9542,-517.624 72.8715,-317.346 110,-265 120.609,-250.043 137.005,-238.557 152.578,-230.232"/>
<polygon fill="midnightblue" stroke="midnightblue" points="35.8091,-583.078 38.1511,-593.411 42.7638,-583.873 35.8091,-583.078"/>
</g>
<!-- Node37 -->
<g id="node86" class="node"><title>Node37</title>
<a xlink:href="../../d1/d92/classproject_1_1_add_gen_comp_dialog.html#adfcb4e9c07721bf39ddcb34d2e39e61c" target="_top" xlink:title="project::AddGenCompDialog\l::setSelectedSymbVar">
<polygon fill="white" stroke="black" points="124.5,-66 124.5,-100 265.5,-100 265.5,-66 124.5,-66"/>
<text text-anchor="start" x="132.5" y="-87" font-family="Helvetica,sans-Serif" font-size="10.00">project::AddGenCompDialog</text>
<text text-anchor="middle" x="195" y="-74" font-family="Helvetica,sans-Serif" font-size="10.00">::setSelectedSymbVar</text>
</a>
</g>
<!-- Node1&#45;&gt;Node37 -->
<g id="edge98" class="edge"><title>Node1&#45;&gt;Node37</title>
<path fill="none" stroke="midnightblue" d="M39.2674,-582.857C47.4637,-508.478 76.8269,-259.475 110,-187 125.916,-152.227 156.324,-119.325 176.124,-100.168"/>
<polygon fill="midnightblue" stroke="midnightblue" points="35.7398,-582.921 38.1363,-593.241 42.6986,-583.679 35.7398,-582.921"/>
</g>
<!-- Node2&#45;&gt;Node3 -->
<g id="edge4" class="edge"><title>Node2&#45;&gt;Node3</title>
<path fill="none" stroke="midnightblue" d="M266.231,-888C292.366,-888 321.805,-888 347.421,-888"/>
<polygon fill="midnightblue" stroke="midnightblue" points="266.015,-884.5 256.015,-888 266.015,-891.5 266.015,-884.5"/>
</g>
<!-- Node2&#45;&gt;Node6 -->
<g id="edge10" class="edge"><title>Node2&#45;&gt;Node6</title>
<path fill="none" stroke="midnightblue" d="M265.802,-904.888C295.182,-911.897 328.801,-919.916 356.486,-926.52"/>
<polygon fill="midnightblue" stroke="midnightblue" points="266.554,-901.47 256.015,-902.554 264.93,-908.279 266.554,-901.47"/>
</g>
<!-- Node4 -->
<g id="node7" class="node"><title>Node4</title>
<a xlink:href="../../da/d96/classproject_1_1_b_i___footprint.html#a80db668afe30ac6b6c9e5eb061b61cfc" target="_top" xlink:title="project::BI_Footprint\l::componentInstanceAttributes\lChanged">
<polygon fill="white" stroke="black" points="553,-855.5 553,-902.5 703,-902.5 703,-855.5 553,-855.5"/>
<text text-anchor="start" x="561" y="-889.5" font-family="Helvetica,sans-Serif" font-size="10.00">project::BI_Footprint</text>
<text text-anchor="start" x="561" y="-876.5" font-family="Helvetica,sans-Serif" font-size="10.00">::componentInstanceAttributes</text>
<text text-anchor="middle" x="628" y="-863.5" font-family="Helvetica,sans-Serif" font-size="10.00">Changed</text>
</a>
</g>
<!-- Node3&#45;&gt;Node4 -->
<g id="edge6" class="edge"><title>Node3&#45;&gt;Node4</title>
<path fill="none" stroke="midnightblue" d="M488.745,-884.829C509.576,-883.957 532.154,-883.012 552.945,-882.142"/>
<polygon fill="midnightblue" stroke="midnightblue" points="488.52,-881.336 478.675,-885.251 488.813,-888.329 488.52,-881.336"/>
</g>
<!-- Node4&#45;&gt;Node5 -->
<g id="edge8" class="edge"><title>Node4&#45;&gt;Node5</title>
<path fill="none" stroke="midnightblue" d="M713.199,-872.446C737.011,-870.615 762.183,-868.678 783.496,-867.039"/>
<polygon fill="midnightblue" stroke="midnightblue" points="712.795,-868.967 703.093,-873.224 713.332,-875.946 712.795,-868.967"/>
</g>
<!-- Node7&#45;&gt;Node8 -->
<g id="edge14" class="edge"><title>Node7&#45;&gt;Node8</title>
<path fill="none" stroke="midnightblue" d="M252.627,-647.377C272.605,-654.214 295.205,-661.697 316,-668 326.011,-671.034 336.658,-674.075 347.092,-676.951"/>
<polygon fill="midnightblue" stroke="midnightblue" points="253.645,-644.025 243.05,-644.08 251.367,-650.644 253.645,-644.025"/>
</g>
<!-- Node7&#45;&gt;Node9 -->
<g id="edge16" class="edge"><title>Node7&#45;&gt;Node9</title>
<path fill="none" stroke="midnightblue" d="M263.877,-631.739C286.459,-633.293 311.711,-635.031 334.924,-636.628"/>
<polygon fill="midnightblue" stroke="midnightblue" points="263.923,-628.234 253.707,-631.039 263.443,-635.218 263.923,-628.234"/>
</g>
<!-- Node7&#45;&gt;Node10 -->
<g id="edge18" class="edge"><title>Node7&#45;&gt;Node10</title>
<path fill="none" stroke="midnightblue" d="M263.737,-615.334C290.43,-610.803 320.87,-605.637 347.269,-601.156"/>
<polygon fill="midnightblue" stroke="midnightblue" points="262.98,-611.912 253.707,-617.036 264.151,-618.813 262.98,-611.912"/>
</g>
<!-- Node7&#45;&gt;Node13 -->
<g id="edge24" class="edge"><title>Node7&#45;&gt;Node13</title>
<path fill="none" stroke="midnightblue" d="M232.403,-604.814C255.823,-591.614 286.966,-575.293 316,-564 329.811,-558.628 345.145,-553.957 359.467,-550.113"/>
<polygon fill="midnightblue" stroke="midnightblue" points="230.461,-601.893 223.508,-609.887 233.929,-607.973 230.461,-601.893"/>
</g>
<!-- Node11 -->
<g id="node21" class="node"><title>Node11</title>
<a xlink:href="../../de/d50/classproject_1_1_s_i___symbol.html#a803d371853cd2d72f4df8a45349d0cb7" target="_top" xlink:title="project::SI_Symbol\l::schematicOrGenCompAttributes\lChanged">
<polygon fill="white" stroke="black" points="546,-566.5 546,-613.5 710,-613.5 710,-566.5 546,-566.5"/>
<text text-anchor="start" x="554" y="-600.5" font-family="Helvetica,sans-Serif" font-size="10.00">project::SI_Symbol</text>
<text text-anchor="start" x="554" y="-587.5" font-family="Helvetica,sans-Serif" font-size="10.00">::schematicOrGenCompAttributes</text>
<text text-anchor="middle" x="628" y="-574.5" font-family="Helvetica,sans-Serif" font-size="10.00">Changed</text>
</a>
</g>
<!-- Node10&#45;&gt;Node11 -->
<g id="edge20" class="edge"><title>Node10&#45;&gt;Node11</title>
<path fill="none" stroke="midnightblue" d="M488.745,-590C507.152,-590 526.923,-590 545.62,-590"/>
<polygon fill="midnightblue" stroke="midnightblue" points="488.675,-586.5 478.675,-590 488.675,-593.5 488.675,-586.5"/>
</g>
<!-- Node12 -->
<g id="node23" class="node"><title>Node12</title>
<a xlink:href="../../de/d50/classproject_1_1_s_i___symbol.html#ae4e286593d2a82f74246f9cba8193605" target="_top" xlink:title="project::SI_Symbol\l::init">
<polygon fill="white" stroke="black" points="786,-573 786,-607 886,-607 886,-573 786,-573"/>
<text text-anchor="start" x="794" y="-594" font-family="Helvetica,sans-Serif" font-size="10.00">project::SI_Symbol</text>
<text text-anchor="middle" x="836" y="-581" font-family="Helvetica,sans-Serif" font-size="10.00">::init</text>
</a>
</g>
<!-- Node11&#45;&gt;Node12 -->
<g id="edge22" class="edge"><title>Node11&#45;&gt;Node12</title>
<path fill="none" stroke="midnightblue" d="M720.469,-590C742.948,-590 766.155,-590 785.819,-590"/>
<polygon fill="midnightblue" stroke="midnightblue" points="720.207,-586.5 710.207,-590 720.207,-593.5 720.207,-586.5"/>
</g>
<!-- Node15&#45;&gt;Node5 -->
<g id="edge40" class="edge"><title>Node15&#45;&gt;Node5</title>
<path fill="none" stroke="midnightblue" d="M492.049,-749.149C553.054,-753.537 638.779,-764.014 710,-789 748.78,-802.605 788.936,-828.624 813.197,-845.898"/>
<polygon fill="midnightblue" stroke="midnightblue" points="491.932,-745.633 481.717,-748.447 491.457,-752.617 491.932,-745.633"/>
</g>
<!-- Node16&#45;&gt;Node15 -->
<g id="edge44" class="edge"><title>Node16&#45;&gt;Node15</title>
<path fill="none" stroke="midnightblue" d="M265.863,-777.722C291.042,-772.294 319.328,-766.195 344.321,-760.807"/>
<polygon fill="midnightblue" stroke="midnightblue" points="265.053,-774.316 256.015,-779.845 266.528,-781.159 265.053,-774.316"/>
</g>
<!-- Node17 -->
<g id="node40" class="node"><title>Node17</title>
<a xlink:href="../../da/d96/classproject_1_1_b_i___footprint.html#ab6c0fcabcb9d5a38a27ed7aeb34f0958" target="_top" xlink:title="project::BI_Footprint\l::componentInstanceRotated">
<polygon fill="white" stroke="black" points="556.5,-798 556.5,-832 699.5,-832 699.5,-798 556.5,-798"/>
<text text-anchor="start" x="564.5" y="-819" font-family="Helvetica,sans-Serif" font-size="10.00">project::BI_Footprint</text>
<text text-anchor="middle" x="628" y="-806" font-family="Helvetica,sans-Serif" font-size="10.00">::componentInstanceRotated</text>
</a>
</g>
<!-- Node16&#45;&gt;Node17 -->
<g id="edge46" class="edge"><title>Node16&#45;&gt;Node17</title>
<path fill="none" stroke="midnightblue" d="M266.131,-796.614C346.329,-800.689 475.992,-807.277 556.387,-811.361"/>
<polygon fill="midnightblue" stroke="midnightblue" points="266.285,-793.117 256.12,-796.105 265.929,-800.108 266.285,-793.117"/>
</g>
<!-- Node18 -->
<g id="node43" class="node"><title>Node18</title>
<a xlink:href="../../d4/ddd/classproject_1_1_b_i___footprint_pad.html#ac81e6cd36593d731c5e2e23048ed6754" target="_top" xlink:title="project::BI_FootprintPad\l::BI_FootprintPad">
<polygon fill="white" stroke="black" points="352,-819 352,-853 474,-853 474,-819 352,-819"/>
<text text-anchor="start" x="360" y="-840" font-family="Helvetica,sans-Serif" font-size="10.00">project::BI_FootprintPad</text>
<text text-anchor="middle" x="413" y="-827" font-family="Helvetica,sans-Serif" font-size="10.00">::BI_FootprintPad</text>
</a>
</g>
<!-- Node16&#45;&gt;Node18 -->
<g id="edge50" class="edge"><title>Node16&#45;&gt;Node18</title>
<path fill="none" stroke="midnightblue" d="M266.053,-807.015C293.803,-812.489 325.302,-818.702 352,-823.968"/>
<polygon fill="midnightblue" stroke="midnightblue" points="266.503,-803.537 256.015,-805.035 265.149,-810.404 266.503,-803.537"/>
</g>
<!-- Node17&#45;&gt;Node5 -->
<g id="edge48" class="edge"><title>Node17&#45;&gt;Node5</title>
<path fill="none" stroke="midnightblue" d="M709.373,-833.778C734.237,-839.516 760.915,-845.673 783.341,-850.848"/>
<polygon fill="midnightblue" stroke="midnightblue" points="710.113,-830.357 699.582,-831.519 708.539,-837.178 710.113,-830.357"/>
</g>
<!-- Node20 -->
<g id="node47" class="node"><title>Node20</title>
<a xlink:href="../../d3/d7c/classproject_1_1_s_i___net_line.html#a47af38f5c88a1613e220affee2fd2203" target="_top" xlink:title="project::SI_NetLine\l::updateLine">
<polygon fill="white" stroke="black" points="362.5,-430 362.5,-464 463.5,-464 463.5,-430 362.5,-430"/>
<text text-anchor="start" x="370.5" y="-451" font-family="Helvetica,sans-Serif" font-size="10.00">project::SI_NetLine</text>
<text text-anchor="middle" x="413" y="-438" font-family="Helvetica,sans-Serif" font-size="10.00">::updateLine</text>
</a>
</g>
<!-- Node19&#45;&gt;Node20 -->
<g id="edge54" class="edge"><title>Node19&#45;&gt;Node20</title>
<path fill="none" stroke="midnightblue" d="M270.81,-447C301.085,-447 335.136,-447 362.325,-447"/>
<polygon fill="midnightblue" stroke="midnightblue" points="270.703,-443.5 260.703,-447 270.703,-450.5 270.703,-443.5"/>
</g>
<!-- Node21 -->
<g id="node49" class="node"><title>Node21</title>
<a xlink:href="../../d3/d7c/classproject_1_1_s_i___net_line.html#a02fd73d861ef2e4aabb38c0c9ff82947" target="_top" xlink:title="project::SI_NetLine\l::init">
<polygon fill="white" stroke="black" points="577.5,-404 577.5,-438 678.5,-438 678.5,-404 577.5,-404"/>
<text text-anchor="start" x="585.5" y="-425" font-family="Helvetica,sans-Serif" font-size="10.00">project::SI_NetLine</text>
<text text-anchor="middle" x="628" y="-412" font-family="Helvetica,sans-Serif" font-size="10.00">::init</text>
</a>
</g>
<!-- Node20&#45;&gt;Node21 -->
<g id="edge56" class="edge"><title>Node20&#45;&gt;Node21</title>
<path fill="none" stroke="midnightblue" d="M474.007,-439.622C506.645,-435.676 546.364,-430.872 577.288,-427.133"/>
<polygon fill="midnightblue" stroke="midnightblue" points="473.187,-436.196 463.68,-440.871 474.028,-443.145 473.187,-436.196"/>
</g>
<!-- Node22 -->
<g id="node51" class="node"><title>Node22</title>
<a xlink:href="../../d3/d43/classproject_1_1_s_i___net_point.html#adc3ecff9d47a4b35383fb20ac506ea32" target="_top" xlink:title="project::SI_NetPoint\l::updateLines">
<polygon fill="white" stroke="black" points="575.5,-456 575.5,-490 680.5,-490 680.5,-456 575.5,-456"/>
<text text-anchor="start" x="583.5" y="-477" font-family="Helvetica,sans-Serif" font-size="10.00">project::SI_NetPoint</text>
<text text-anchor="middle" x="628" y="-464" font-family="Helvetica,sans-Serif" font-size="10.00">::updateLines</text>
</a>
</g>
<!-- Node20&#45;&gt;Node22 -->
<g id="edge58" class="edge"><title>Node20&#45;&gt;Node22</title>
<path fill="none" stroke="midnightblue" d="M473.815,-454.354C505.834,-458.226 544.711,-462.928 575.415,-466.641"/>
<polygon fill="midnightblue" stroke="midnightblue" points="474.028,-450.855 463.68,-453.129 473.187,-457.804 474.028,-450.855"/>
</g>
<!-- Node26 -->
<g id="node61" class="node"><title>Node26</title>
<a xlink:href="../../dd/d2d/classproject_1_1_schematic.html#ac6709a9f69bbe2647444abaccbc8403e" target="_top" xlink:title="project::Schematic\l::getItemsAtScenePos">
<polygon fill="white" stroke="black" points="355,-378 355,-412 471,-412 471,-378 355,-378"/>
<text text-anchor="start" x="363" y="-399" font-family="Helvetica,sans-Serif" font-size="10.00">project::Schematic</text>
<text text-anchor="middle" x="413" y="-386" font-family="Helvetica,sans-Serif" font-size="10.00">::getItemsAtScenePos</text>
</a>
</g>
<!-- Node25&#45;&gt;Node26 -->
<g id="edge70" class="edge"><title>Node25&#45;&gt;Node26</title>
<path fill="none" stroke="midnightblue" d="M263.2,-307.245C269.144,-310.009 274.849,-313.236 280,-317 302.696,-333.584 293.018,-352.815 316,-369 327.475,-377.081 341.325,-382.651 354.921,-386.49"/>
<polygon fill="midnightblue" stroke="midnightblue" points="264.282,-303.904 253.706,-303.271 261.578,-310.361 264.282,-303.904"/>
</g>
<!-- Node27 -->
<g id="node63" class="node"><title>Node27</title>
<a xlink:href="../../dd/d2d/classproject_1_1_schematic.html#a09cd583afe0d7757cfd22a30e7940992" target="_top" xlink:title="project::Schematic\l::getNetPointsAtScenePos">
<polygon fill="white" stroke="black" points="346,-326 346,-360 480,-360 480,-326 346,-326"/>
<text text-anchor="start" x="354" y="-347" font-family="Helvetica,sans-Serif" font-size="10.00">project::Schematic</text>
<text text-anchor="middle" x="413" y="-334" font-family="Helvetica,sans-Serif" font-size="10.00">::getNetPointsAtScenePos</text>
</a>
</g>
<!-- Node25&#45;&gt;Node27 -->
<g id="edge72" class="edge"><title>Node25&#45;&gt;Node27</title>
<path fill="none" stroke="midnightblue" d="M263.559,-307.353C289.768,-313.605 319.613,-320.724 345.704,-326.948"/>
<polygon fill="midnightblue" stroke="midnightblue" points="264.246,-303.919 253.707,-305.003 262.622,-310.728 264.246,-303.919"/>
</g>
<!-- Node28 -->
<g id="node65" class="node"><title>Node28</title>
<a xlink:href="../../dd/d2d/classproject_1_1_schematic.html#a1e81bd3e07987e2b02f760b3d6d75c21" target="_top" xlink:title="project::Schematic\l::setSelectionRect">
<polygon fill="white" stroke="black" points="364,-274 364,-308 462,-308 462,-274 364,-274"/>
<text text-anchor="start" x="372" y="-295" font-family="Helvetica,sans-Serif" font-size="10.00">project::Schematic</text>
<text text-anchor="middle" x="413" y="-282" font-family="Helvetica,sans-Serif" font-size="10.00">::setSelectionRect</text>
</a>
</g>
<!-- Node25&#45;&gt;Node28 -->
<g id="edge74" class="edge"><title>Node25&#45;&gt;Node28</title>
<path fill="none" stroke="midnightblue" d="M264.021,-291C296.435,-291 334.324,-291 363.781,-291"/>
<polygon fill="midnightblue" stroke="midnightblue" points="263.707,-287.5 253.707,-291 263.707,-294.5 263.707,-287.5"/>
</g>
<!-- Node29 -->
<g id="node67" class="node"><title>Node29</title>
<a xlink:href="../../d8/d8b/classproject_1_1_s_e_s___select.html#ae7b1d9775f8e164e825c0cdecf27eff5" target="_top" xlink:title="project::SES_Select\l::processSubStateIdleScene\lEvent">
<polygon fill="white" stroke="black" points="557.5,-274.5 557.5,-321.5 698.5,-321.5 698.5,-274.5 557.5,-274.5"/>
<text text-anchor="start" x="565.5" y="-308.5" font-family="Helvetica,sans-Serif" font-size="10.00">project::SES_Select</text>
<text text-anchor="start" x="565.5" y="-295.5" font-family="Helvetica,sans-Serif" font-size="10.00">::processSubStateIdleScene</text>
<text text-anchor="middle" x="628" y="-282.5" font-family="Helvetica,sans-Serif" font-size="10.00">Event</text>
</a>
</g>
<!-- Node28&#45;&gt;Node29 -->
<g id="edge76" class="edge"><title>Node28&#45;&gt;Node29</title>
<path fill="none" stroke="midnightblue" d="M472.243,-292.929C498.517,-293.784 529.645,-294.798 557.141,-295.693"/>
<polygon fill="midnightblue" stroke="midnightblue" points="472.164,-289.425 462.056,-292.597 471.937,-296.421 472.164,-289.425"/>
</g>
<!-- Node31 -->
<g id="node71" class="node"><title>Node31</title>
<a xlink:href="../../de/d50/classproject_1_1_s_i___symbol.html#ae4d151fe3fae75cb19c5add958a470a8" target="_top" xlink:title="project::SI_Symbol\l::setPosition">
<polygon fill="white" stroke="black" points="363,-222 363,-256 463,-256 463,-222 363,-222"/>
<text text-anchor="start" x="371" y="-243" font-family="Helvetica,sans-Serif" font-size="10.00">project::SI_Symbol</text>
<text text-anchor="middle" x="413" y="-230" font-family="Helvetica,sans-Serif" font-size="10.00">::setPosition</text>
</a>
</g>
<!-- Node30&#45;&gt;Node31 -->
<g id="edge80" class="edge"><title>Node30&#45;&gt;Node31</title>
<path fill="none" stroke="midnightblue" d="M262.567,-221.058C294.933,-224.919 333.026,-229.462 362.781,-233.011"/>
<polygon fill="midnightblue" stroke="midnightblue" points="262.621,-217.54 252.277,-219.831 261.792,-224.491 262.621,-217.54"/>
</g>
<!-- Node35 -->
<g id="node79" class="node"><title>Node35</title>
<a xlink:href="../../de/d50/classproject_1_1_s_i___symbol.html#a92a6c99e0892b13f98c8ec4b5e4823f5" target="_top" xlink:title="project::SI_Symbol\l::setRotation">
<polygon fill="white" stroke="black" points="363,-170 363,-204 463,-204 463,-170 363,-170"/>
<text text-anchor="start" x="371" y="-191" font-family="Helvetica,sans-Serif" font-size="10.00">project::SI_Symbol</text>
<text text-anchor="middle" x="413" y="-178" font-family="Helvetica,sans-Serif" font-size="10.00">::setRotation</text>
</a>
</g>
<!-- Node30&#45;&gt;Node35 -->
<g id="edge88" class="edge"><title>Node30&#45;&gt;Node35</title>
<path fill="none" stroke="midnightblue" d="M262.567,-204.942C294.933,-201.081 333.026,-196.538 362.781,-192.989"/>
<polygon fill="midnightblue" stroke="midnightblue" points="261.792,-201.509 252.277,-206.169 262.621,-208.46 261.792,-201.509"/>
</g>
<!-- Node36 -->
<g id="node84" class="node"><title>Node36</title>
<a xlink:href="../../d6/d12/classproject_1_1_s_i___symbol_pin.html#a2e791a2f0f926f88b6d3a8b6d73a03f0" target="_top" xlink:title="project::SI_SymbolPin\l::SI_SymbolPin">
<polygon fill="white" stroke="black" points="356,-118 356,-152 470,-152 470,-118 356,-118"/>
<text text-anchor="start" x="364" y="-139" font-family="Helvetica,sans-Serif" font-size="10.00">project::SI_SymbolPin</text>
<text text-anchor="middle" x="413" y="-126" font-family="Helvetica,sans-Serif" font-size="10.00">::SI_SymbolPin</text>
</a>
</g>
<!-- Node30&#45;&gt;Node36 -->
<g id="edge96" class="edge"><title>Node30&#45;&gt;Node36</title>
<path fill="none" stroke="midnightblue" d="M240.282,-191.699C262.751,-181.606 290.483,-169.851 316,-161 328.766,-156.572 342.692,-152.442 355.906,-148.836"/>
<polygon fill="midnightblue" stroke="midnightblue" points="238.659,-188.593 230.997,-195.91 241.55,-194.968 238.659,-188.593"/>
</g>
<!-- Node32 -->
<g id="node73" class="node"><title>Node32</title>
<a xlink:href="../../dd/d49/classproject_1_1_cmd_symbol_instance_edit.html#a6eaf0a56905dd18ebdf240a2229576c6" target="_top" xlink:title="project::CmdSymbolInstance\lEdit::~CmdSymbolInstanceEdit">
<polygon fill="white" stroke="black" points="550.5,-170 550.5,-204 705.5,-204 705.5,-170 550.5,-170"/>
<text text-anchor="start" x="558.5" y="-191" font-family="Helvetica,sans-Serif" font-size="10.00">project::CmdSymbolInstance</text>
<text text-anchor="middle" x="628" y="-178" font-family="Helvetica,sans-Serif" font-size="10.00">Edit::~CmdSymbolInstanceEdit</text>
</a>
</g>
<!-- Node31&#45;&gt;Node32 -->
<g id="edge82" class="edge"><title>Node31&#45;&gt;Node32</title>
<path fill="none" stroke="midnightblue" d="M472.933,-224.505C499.143,-218.166 530.078,-210.684 557.395,-204.077"/>
<polygon fill="midnightblue" stroke="midnightblue" points="472.034,-221.121 463.137,-226.874 473.679,-227.925 472.034,-221.121"/>
</g>
<!-- Node33 -->
<g id="node75" class="node"><title>Node33</title>
<a xlink:href="../../dd/d49/classproject_1_1_cmd_symbol_instance_edit.html#a91ca7652063093da57fc1bd0141dcc95" target="_top" xlink:title="Redo/execute the command (and all child commands in normal order) ">
<polygon fill="white" stroke="black" points="556.5,-118 556.5,-152 699.5,-152 699.5,-118 556.5,-118"/>
<text text-anchor="start" x="564.5" y="-139" font-family="Helvetica,sans-Serif" font-size="10.00">project::CmdSymbolInstance</text>
<text text-anchor="middle" x="628" y="-126" font-family="Helvetica,sans-Serif" font-size="10.00">Edit::redo</text>
</a>
</g>
<!-- Node31&#45;&gt;Node33 -->
<g id="edge84" class="edge"><title>Node31&#45;&gt;Node33</title>
<path fill="none" stroke="midnightblue" d="M473.107,-229.905C486.046,-226.091 499.095,-220.68 510,-213 532.982,-196.815 523.389,-177.7 546,-161 550.565,-157.628 555.582,-154.685 560.815,-152.117"/>
<polygon fill="midnightblue" stroke="midnightblue" points="472.037,-226.568 463.272,-232.52 473.836,-233.332 472.037,-226.568"/>
</g>
<!-- Node34 -->
<g id="node77" class="node"><title>Node34</title>
<a xlink:href="../../dd/d49/classproject_1_1_cmd_symbol_instance_edit.html#a19e8778088bfe76b16745470981bb913" target="_top" xlink:title="Undo the command (and all child commands in reverse order) ">
<polygon fill="white" stroke="black" points="556.5,-222 556.5,-256 699.5,-256 699.5,-222 556.5,-222"/>
<text text-anchor="start" x="564.5" y="-243" font-family="Helvetica,sans-Serif" font-size="10.00">project::CmdSymbolInstance</text>
<text text-anchor="middle" x="628" y="-230" font-family="Helvetica,sans-Serif" font-size="10.00">Edit::undo</text>
</a>
</g>
<!-- Node31&#45;&gt;Node34 -->
<g id="edge86" class="edge"><title>Node31&#45;&gt;Node34</title>
<path fill="none" stroke="midnightblue" d="M473.142,-239C498.914,-239 529.225,-239 556.166,-239"/>
<polygon fill="midnightblue" stroke="midnightblue" points="473.137,-235.5 463.137,-239 473.137,-242.5 473.137,-235.5"/>
</g>
<!-- Node35&#45;&gt;Node32 -->
<g id="edge90" class="edge"><title>Node35&#45;&gt;Node32</title>
<path fill="none" stroke="midnightblue" d="M473.138,-187C497.079,-187 524.936,-187 550.37,-187"/>
<polygon fill="midnightblue" stroke="midnightblue" points="473.137,-183.5 463.137,-187 473.137,-190.5 473.137,-183.5"/>
</g>
<!-- Node35&#45;&gt;Node33 -->
<g id="edge92" class="edge"><title>Node35&#45;&gt;Node33</title>
<path fill="none" stroke="midnightblue" d="M472.933,-172.505C499.143,-166.166 530.078,-158.684 557.395,-152.077"/>
<polygon fill="midnightblue" stroke="midnightblue" points="472.034,-169.121 463.137,-174.874 473.679,-175.925 472.034,-169.121"/>
</g>
<!-- Node35&#45;&gt;Node34 -->
<g id="edge94" class="edge"><title>Node35&#45;&gt;Node34</title>
<path fill="none" stroke="midnightblue" d="M472.933,-201.495C499.143,-207.834 530.078,-215.316 557.395,-221.923"/>
<polygon fill="midnightblue" stroke="midnightblue" points="473.679,-198.075 463.137,-199.126 472.034,-204.879 473.679,-198.075"/>
</g>
<!-- Node38 -->
<g id="node88" class="node"><title>Node38</title>
<a xlink:href="../../d1/d92/classproject_1_1_add_gen_comp_dialog.html#a59cdf065c69c12551c2043dfe0891ff1" target="_top" xlink:title="project::AddGenCompDialog\l::on_cbxSymbVar_currentIndexChanged">
<polygon fill="white" stroke="black" points="316.5,-14 316.5,-48 509.5,-48 509.5,-14 316.5,-14"/>
<text text-anchor="start" x="324.5" y="-35" font-family="Helvetica,sans-Serif" font-size="10.00">project::AddGenCompDialog</text>
<text text-anchor="middle" x="413" y="-22" font-family="Helvetica,sans-Serif" font-size="10.00">::on_cbxSymbVar_currentIndexChanged</text>
</a>
</g>
<!-- Node37&#45;&gt;Node38 -->
<g id="edge100" class="edge"><title>Node37&#45;&gt;Node38</title>
<path fill="none" stroke="midnightblue" d="M275.577,-63.7797C297.179,-58.6271 320.381,-53.0925 341.457,-48.0653"/>
<polygon fill="midnightblue" stroke="midnightblue" points="274.693,-60.3923 265.778,-66.1171 276.318,-67.2013 274.693,-60.3923"/>
</g>
<!-- Node39 -->
<g id="node90" class="node"><title>Node39</title>
<a xlink:href="../../d1/d92/classproject_1_1_add_gen_comp_dialog.html#abf6af5dc67073d848d5cf561412d4b27" target="_top" xlink:title="project::AddGenCompDialog\l::setSelectedGenComp">
<polygon fill="white" stroke="black" points="342.5,-66 342.5,-100 483.5,-100 483.5,-66 342.5,-66"/>
<text text-anchor="start" x="350.5" y="-87" font-family="Helvetica,sans-Serif" font-size="10.00">project::AddGenCompDialog</text>
<text text-anchor="middle" x="413" y="-74" font-family="Helvetica,sans-Serif" font-size="10.00">::setSelectedGenComp</text>
</a>
</g>
<!-- Node37&#45;&gt;Node39 -->
<g id="edge102" class="edge"><title>Node37&#45;&gt;Node39</title>
<path fill="none" stroke="midnightblue" d="M275.974,-83C297.719,-83 321.059,-83 342.204,-83"/>
<polygon fill="midnightblue" stroke="midnightblue" points="275.778,-79.5001 265.778,-83 275.778,-86.5001 275.778,-79.5001"/>
</g>
<!-- Node40 -->
<g id="node92" class="node"><title>Node40</title>
<a xlink:href="../../d1/d92/classproject_1_1_add_gen_comp_dialog.html#a5951d1d20ef2d9675b3b1690d6799fa7" target="_top" xlink:title="project::AddGenCompDialog\l::on_listGenericComponents\l_currentItemChanged">
<polygon fill="white" stroke="black" points="557.5,-0.5 557.5,-47.5 698.5,-47.5 698.5,-0.5 557.5,-0.5"/>
<text text-anchor="start" x="565.5" y="-34.5" font-family="Helvetica,sans-Serif" font-size="10.00">project::AddGenCompDialog</text>
<text text-anchor="start" x="565.5" y="-21.5" font-family="Helvetica,sans-Serif" font-size="10.00">::on_listGenericComponents</text>
<text text-anchor="middle" x="628" y="-8.5" font-family="Helvetica,sans-Serif" font-size="10.00">_currentItemChanged</text>
</a>
</g>
<!-- Node39&#45;&gt;Node40 -->
<g id="edge104" class="edge"><title>Node39&#45;&gt;Node40</title>
<path fill="none" stroke="midnightblue" d="M486.825,-63.3008C494.652,-61.1857 502.492,-59.056 510,-57 525.285,-52.8143 541.667,-48.2701 557.213,-43.9304"/>
<polygon fill="midnightblue" stroke="midnightblue" points="485.687,-59.9826 476.943,-65.9656 487.51,-66.7412 485.687,-59.9826"/>
</g>
<!-- Node41 -->
<g id="node94" class="node"><title>Node41</title>
<a xlink:href="../../d1/d92/classproject_1_1_add_gen_comp_dialog.html#ae968bf4d25607bdad3eb848014d999da" target="_top" xlink:title="project::AddGenCompDialog\l::setSelectedCategory">
<polygon fill="white" stroke="black" points="557.5,-66 557.5,-100 698.5,-100 698.5,-66 557.5,-66"/>
<text text-anchor="start" x="565.5" y="-87" font-family="Helvetica,sans-Serif" font-size="10.00">project::AddGenCompDialog</text>
<text text-anchor="middle" x="628" y="-74" font-family="Helvetica,sans-Serif" font-size="10.00">::setSelectedCategory</text>
</a>
</g>
<!-- Node39&#45;&gt;Node41 -->
<g id="edge106" class="edge"><title>Node39&#45;&gt;Node41</title>
<path fill="none" stroke="midnightblue" d="M493.807,-83C514.667,-83 536.958,-83 557.261,-83"/>
<polygon fill="midnightblue" stroke="midnightblue" points="493.697,-79.5001 483.697,-83 493.697,-86.5001 493.697,-79.5001"/>
</g>
<!-- Node42 -->
<g id="node96" class="node"><title>Node42</title>
<a xlink:href="../../d1/d92/classproject_1_1_add_gen_comp_dialog.html#ab30df3fcf42614694068294b48161b00" target="_top" xlink:title="project::AddGenCompDialog\l::treeCategories_currentItemChanged">
<polygon fill="white" stroke="black" points="746,-66 746,-100 926,-100 926,-66 746,-66"/>
<text text-anchor="start" x="754" y="-87" font-family="Helvetica,sans-Serif" font-size="10.00">project::AddGenCompDialog</text>
<text text-anchor="middle" x="836" y="-74" font-family="Helvetica,sans-Serif" font-size="10.00">::treeCategories_currentItemChanged</text>
</a>
</g>
<!-- Node41&#45;&gt;Node42 -->
<g id="edge108" class="edge"><title>Node41&#45;&gt;Node42</title>
<path fill="none" stroke="midnightblue" d="M708.816,-83C720.992,-83 733.614,-83 745.968,-83"/>
<polygon fill="midnightblue" stroke="midnightblue" points="708.71,-79.5001 698.71,-83 708.71,-86.5001 708.71,-79.5001"/>
</g>
<!-- Node43 -->
<g id="node98" class="node"><title>Node43</title>
<a xlink:href="../../d1/d92/classproject_1_1_add_gen_comp_dialog.html#a158bc6ffa6ab14d062e57c57929a197f" target="_top" xlink:title="project::AddGenCompDialog\l::AddGenCompDialog">
<polygon fill="white" stroke="black" points="962.5,-66 962.5,-100 1103.5,-100 1103.5,-66 962.5,-66"/>
<text text-anchor="start" x="970.5" y="-87" font-family="Helvetica,sans-Serif" font-size="10.00">project::AddGenCompDialog</text>
<text text-anchor="middle" x="1033" y="-74" font-family="Helvetica,sans-Serif" font-size="10.00">::AddGenCompDialog</text>
</a>
</g>
<!-- Node42&#45;&gt;Node43 -->
<g id="edge110" class="edge"><title>Node42&#45;&gt;Node43</title>
<path fill="none" stroke="midnightblue" d="M936.422,-83C945.187,-83 953.932,-83 962.378,-83"/>
<polygon fill="midnightblue" stroke="midnightblue" points="936.14,-79.5001 926.14,-83 936.14,-86.5001 936.14,-79.5001"/>
</g>
</g>
</svg>
