<?xml version="1.0" encoding="UTF-8" standalone="no"?>
<!DOCTYPE svg PUBLIC "-//W3C//DTD SVG 1.1//EN"
 "http://www.w3.org/Graphics/SVG/1.1/DTD/svg11.dtd">
<!-- Generated by graphviz version 2.26.3 (20100126.1600)
 -->
<!-- Title: convertFromUnit Pages: 1 -->
<svg width="390pt" height="42pt"
 viewBox="0.00 0.00 390.00 42.00" xmlns="http://www.w3.org/2000/svg" xmlns:xlink="http://www.w3.org/1999/xlink">
<g id="graph1" class="graph" transform="scale(1 1) rotate(0) translate(4 38)">
<title>convertFromUnit</title>
<polygon fill="white" stroke="white" points="-4,5 -4,-38 387,-38 387,5 -4,5"/>
<!-- Node1 -->
<g id="node1" class="node"><title>Node1</title>
<polygon fill="#bfbfbf" stroke="black" points="0.5,-6.5 0.5,-27.5 89.5,-27.5 89.5,-6.5 0.5,-6.5"/>
<text text-anchor="middle" x="45" y="-14.5" font-family="Helvetica,sans-Serif" font-size="10.00">convertFromUnit</text>
</g>
<!-- Node2 -->
<g id="node3" class="node"><title>Node2</title>
<a xlink:href="../../dc/d4e/class_grid_settings_dialog.html#a1d0a287161effff06f3a2dd172475420" target="_top" xlink:title="GridSettingsDialog\l::spbxIntervalChanged">
<polygon fill="white" stroke="black" points="126.5,-0 126.5,-34 241.5,-34 241.5,-0 126.5,-0"/>
<text text-anchor="start" x="134.5" y="-21" font-family="Helvetica,sans-Serif" font-size="10.00">GridSettingsDialog</text>
<text text-anchor="middle" x="184" y="-8" font-family="Helvetica,sans-Serif" font-size="10.00">::spbxIntervalChanged</text>
</a>
</g>
<!-- Node1&#45;&gt;Node2 -->
<g id="edge2" class="edge"><title>Node1&#45;&gt;Node2</title>
<path fill="none" stroke="midnightblue" d="M100.021,-17C108.601,-17 117.489,-17 126.13,-17"/>
<polygon fill="midnightblue" stroke="midnightblue" points="99.7456,-13.5001 89.7456,-17 99.7456,-20.5001 99.7456,-13.5001"/>
</g>
<!-- Node3 -->
<g id="node5" class="node"><title>Node3</title>
<a xlink:href="../../dc/d4e/class_grid_settings_dialog.html#accb85452fe6ac5e053dcaae228cd9866" target="_top" xlink:title="GridSettingsDialog\l::GridSettingsDialog">
<polygon fill="white" stroke="black" points="278,-0 278,-34 382,-34 382,-0 278,-0"/>
<text text-anchor="start" x="286" y="-21" font-family="Helvetica,sans-Serif" font-size="10.00">GridSettingsDialog</text>
<text text-anchor="middle" x="330" y="-8" font-family="Helvetica,sans-Serif" font-size="10.00">::GridSettingsDialog</text>
</a>
</g>
<!-- Node2&#45;&gt;Node3 -->
<g id="edge4" class="edge"><title>Node2&#45;&gt;Node3</title>
<path fill="none" stroke="midnightblue" d="M251.897,-17C260.644,-17 269.49,-17 277.928,-17"/>
<polygon fill="midnightblue" stroke="midnightblue" points="251.703,-13.5001 241.703,-17 251.703,-20.5001 251.703,-13.5001"/>
</g>
</g>
</svg>
