<?xml version="1.0" encoding="UTF-8" standalone="no"?>
<!DOCTYPE svg PUBLIC "-//W3C//DTD SVG 1.1//EN"
 "http://www.w3.org/Graphics/SVG/1.1/DTD/svg11.dtd">
<!-- Generated by graphviz version 2.26.3 (20100126.1600)
 -->
<!-- Title: convertToUnit Pages: 1 -->
<svg width="364pt" height="108pt"
 viewBox="0.00 0.00 364.00 108.39" xmlns="http://www.w3.org/2000/svg" xmlns:xlink="http://www.w3.org/1999/xlink">
<g id="graph1" class="graph" transform="scale(1 1) rotate(0) translate(4 104.387)">
<title>convertToUnit</title>
<polygon fill="white" stroke="white" points="-4,5 -4,-104.387 361,-104.387 361,5 -4,5"/>
<!-- Node1 -->
<g id="node1" class="node"><title>Node1</title>
<polygon fill="#bfbfbf" stroke="black" points="0,-58.5 0,-79.5 78,-79.5 78,-58.5 0,-58.5"/>
<text text-anchor="middle" x="39" y="-66.5" font-family="Helvetica,sans-Serif" font-size="10.00">convertToUnit</text>
</g>
<!-- Node2 -->
<g id="node3" class="node"><title>Node2</title>
<a xlink:href="../../dc/d4e/class_grid_settings_dialog.html#accb85452fe6ac5e053dcaae228cd9866" target="_top" xlink:title="GridSettingsDialog\l::GridSettingsDialog">
<polygon fill="white" stroke="black" points="252,-52 252,-86 356,-86 356,-52 252,-52"/>
<text text-anchor="start" x="260" y="-73" font-family="Helvetica,sans-Serif" font-size="10.00">GridSettingsDialog</text>
<text text-anchor="middle" x="304" y="-60" font-family="Helvetica,sans-Serif" font-size="10.00">::GridSettingsDialog</text>
</a>
</g>
<!-- Node1&#45;&gt;Node2 -->
<g id="edge2" class="edge"><title>Node1&#45;&gt;Node2</title>
<path fill="none" stroke="midnightblue" d="M72.1265,-83.1521C84.9562,-87.9194 99.922,-92.629 114,-95 158.704,-102.529 171.134,-101.489 216,-95 228.929,-93.13 242.604,-89.7904 255.22,-86.1145"/>
<polygon fill="midnightblue" stroke="midnightblue" points="73.3712,-79.8808 62.7821,-79.533 70.8431,-86.4084 73.3712,-79.8808"/>
</g>
<!-- Node3 -->
<g id="node5" class="node"><title>Node3</title>
<a xlink:href="../../dc/d4e/class_grid_settings_dialog.html#a8c6b24c281de39bab23a247e236f39c0" target="_top" xlink:title="GridSettingsDialog\l::cbxUnitsChanged">
<polygon fill="white" stroke="black" points="114.5,-52 114.5,-86 215.5,-86 215.5,-52 114.5,-52"/>
<text text-anchor="start" x="122.5" y="-73" font-family="Helvetica,sans-Serif" font-size="10.00">GridSettingsDialog</text>
<text text-anchor="middle" x="165" y="-60" font-family="Helvetica,sans-Serif" font-size="10.00">::cbxUnitsChanged</text>
</a>
</g>
<!-- Node1&#45;&gt;Node3 -->
<g id="edge4" class="edge"><title>Node1&#45;&gt;Node3</title>
<path fill="none" stroke="midnightblue" d="M88.3369,-69C96.8451,-69 105.703,-69 114.247,-69"/>
<polygon fill="midnightblue" stroke="midnightblue" points="88.1765,-65.5001 78.1765,-69 88.1765,-72.5001 88.1765,-65.5001"/>
</g>
<!-- Node4 -->
<g id="node8" class="node"><title>Node4</title>
<a xlink:href="../../dc/d4e/class_grid_settings_dialog.html#a4fe43a1e03977a7e1879ba51775b0ce5" target="_top" xlink:title="GridSettingsDialog\l::buttonBoxClicked">
<polygon fill="white" stroke="black" points="115,-0 115,-34 215,-34 215,-0 115,-0"/>
<text text-anchor="start" x="123" y="-21" font-family="Helvetica,sans-Serif" font-size="10.00">GridSettingsDialog</text>
<text text-anchor="middle" x="165" y="-8" font-family="Helvetica,sans-Serif" font-size="10.00">::buttonBoxClicked</text>
</a>
</g>
<!-- Node1&#45;&gt;Node4 -->
<g id="edge8" class="edge"><title>Node1&#45;&gt;Node4</title>
<path fill="none" stroke="midnightblue" d="M74.1477,-54.4946C89.5168,-48.1518 107.655,-40.6663 123.667,-34.0582"/>
<polygon fill="midnightblue" stroke="midnightblue" points="72.4065,-51.4268 64.498,-58.477 75.077,-57.8974 72.4065,-51.4268"/>
</g>
<!-- Node3&#45;&gt;Node2 -->
<g id="edge6" class="edge"><title>Node3&#45;&gt;Node2</title>
<path fill="none" stroke="midnightblue" d="M225.684,-69C234.397,-69 243.298,-69 251.828,-69"/>
<polygon fill="midnightblue" stroke="midnightblue" points="225.575,-65.5001 215.575,-69 225.575,-72.5001 225.575,-65.5001"/>
</g>
<!-- Node4&#45;&gt;Node2 -->
<g id="edge10" class="edge"><title>Node4&#45;&gt;Node2</title>
<path fill="none" stroke="midnightblue" d="M220.065,-37.5997C232.765,-42.3508 246.138,-47.3536 258.384,-51.935"/>
<polygon fill="midnightblue" stroke="midnightblue" points="221.106,-34.2525 210.514,-34.0267 218.653,-40.8088 221.106,-34.2525"/>
</g>
</g>
</svg>
