<?xml version="1.0" encoding="UTF-8" standalone="no"?>
<!DOCTYPE svg PUBLIC "-//W3C//DTD SVG 1.1//EN"
 "http://www.w3.org/Graphics/SVG/1.1/DTD/svg11.dtd">
<!-- Generated by graphviz version 2.26.3 (20100126.1600)
 -->
<!-- Title: eventFilter Pages: 1 -->
<svg width="258pt" height="82pt"
 viewBox="0.00 0.00 258.00 82.00" xmlns="http://www.w3.org/2000/svg" xmlns:xlink="http://www.w3.org/1999/xlink">
<g id="graph1" class="graph" transform="scale(1 1) rotate(0) translate(4 78)">
<title>eventFilter</title>
<polygon fill="white" stroke="white" points="-4,5 -4,-78 255,-78 255,5 -4,5"/>
<!-- Node1 -->
<g id="node1" class="node"><title>Node1</title>
<polygon fill="#bfbfbf" stroke="black" points="0,-23.5 0,-44.5 62,-44.5 62,-23.5 0,-23.5"/>
<text text-anchor="middle" x="31" y="-31.5" font-family="Helvetica,sans-Serif" font-size="10.00">eventFilter</text>
</g>
<!-- Node2 -->
<g id="node3" class="node"><title>Node2</title>
<a xlink:href="../../dc/dd0/class_i_f___graphics_view_event_handler.html#a22cc775230ae24c9afa4f7b5a3f164c1" target="_top" xlink:title="The event handler method. ">
<polygon fill="white" stroke="black" points="98.5,-40 98.5,-74 249.5,-74 249.5,-40 98.5,-40"/>
<text text-anchor="start" x="106.5" y="-61" font-family="Helvetica,sans-Serif" font-size="10.00">IF_GraphicsViewEventHandler</text>
<text text-anchor="middle" x="174" y="-48" font-family="Helvetica,sans-Serif" font-size="10.00">::graphicsViewEventHandler</text>
</a>
</g>
<!-- Node1&#45;&gt;Node2 -->
<g id="edge2" class="edge"><title>Node1&#45;&gt;Node2</title>
<path fill="none" stroke="midnightblue" d="M62.0289,-38.9907C70.0764,-40.285 79.1438,-41.7434 88.5461,-43.2557"/>
<polygon fill="midnightblue" stroke="midnightblue" points="88.0079,-46.714 98.4369,-44.8465 89.1196,-39.8028 88.0079,-46.714"/>
</g>
<!-- Node3 -->
<g id="node5" class="node"><title>Node3</title>
<a xlink:href="../../dd/dd5/class_graphics_view.html#a5b24d289ed4c6d4b20e2da8a9c3b03d5" target="_top" xlink:title="handleMouseWheelEvent">
<polygon fill="white" stroke="black" points="110,-0.5 110,-21.5 238,-21.5 238,-0.5 110,-0.5"/>
<text text-anchor="middle" x="174" y="-8.5" font-family="Helvetica,sans-Serif" font-size="10.00">handleMouseWheelEvent</text>
</a>
</g>
<!-- Node1&#45;&gt;Node3 -->
<g id="edge4" class="edge"><title>Node1&#45;&gt;Node3</title>
<path fill="none" stroke="midnightblue" d="M62.0289,-29.0093C73.2222,-27.209 86.3887,-25.0913 99.6851,-22.9527"/>
<polygon fill="midnightblue" stroke="midnightblue" points="100.531,-26.3618 109.848,-21.3182 99.4189,-19.4507 100.531,-26.3618"/>
</g>
</g>
</svg>
