<?xml version="1.0" encoding="UTF-8" standalone="no"?>
<!DOCTYPE svg PUBLIC "-//W3C//DTD SVG 1.1//EN"
 "http://www.w3.org/Graphics/SVG/1.1/DTD/svg11.dtd">
<!-- Generated by graphviz version 2.26.3 (20100126.1600)
 -->
<!-- Title: getGridProperties Pages: 1 -->
<svg width="1058pt" height="130pt"
 viewBox="0.00 0.00 1058.00 130.00" xmlns="http://www.w3.org/2000/svg" xmlns:xlink="http://www.w3.org/1999/xlink">
<g id="graph1" class="graph" transform="scale(1 1) rotate(0) translate(4 126)">
<title>getGridProperties</title>
<polygon fill="white" stroke="white" points="-4,5 -4,-126 1055,-126 1055,5 -4,5"/>
<!-- Node1 -->
<g id="node1" class="node"><title>Node1</title>
<polygon fill="#bfbfbf" stroke="black" points="0,-68.5 0,-89.5 92,-89.5 92,-68.5 0,-68.5"/>
<text text-anchor="middle" x="46" y="-76.5" font-family="Helvetica,sans-Serif" font-size="10.00">getGridProperties</text>
</g>
<!-- Node2 -->
<g id="node3" class="node"><title>Node2</title>
<a xlink:href="../../d1/d92/classproject_1_1_add_gen_comp_dialog.html#adfcb4e9c07721bf39ddcb34d2e39e61c" target="_top" xlink:title="project::AddGenCompDialog\l::setSelectedSymbVar">
<polygon fill="white" stroke="black" points="128.5,-62 128.5,-96 269.5,-96 269.5,-62 128.5,-62"/>
<text text-anchor="start" x="136.5" y="-83" font-family="Helvetica,sans-Serif" font-size="10.00">project::AddGenCompDialog</text>
<text text-anchor="middle" x="199" y="-70" font-family="Helvetica,sans-Serif" font-size="10.00">::setSelectedSymbVar</text>
</a>
</g>
<!-- Node1&#45;&gt;Node2 -->
<g id="edge2" class="edge"><title>Node1&#45;&gt;Node2</title>
<path fill="none" stroke="midnightblue" d="M102.393,-79C110.819,-79 119.595,-79 128.271,-79"/>
<polygon fill="midnightblue" stroke="midnightblue" points="102.32,-75.5001 92.3202,-79 102.32,-82.5001 102.32,-75.5001"/>
</g>
<!-- Node3 -->
<g id="node5" class="node"><title>Node3</title>
<a xlink:href="../../d1/d92/classproject_1_1_add_gen_comp_dialog.html#a59cdf065c69c12551c2043dfe0891ff1" target="_top" xlink:title="project::AddGenCompDialog\l::on_cbxSymbVar_currentIndexChanged">
<polygon fill="white" stroke="black" points="306.5,-88 306.5,-122 499.5,-122 499.5,-88 306.5,-88"/>
<text text-anchor="start" x="314.5" y="-109" font-family="Helvetica,sans-Serif" font-size="10.00">project::AddGenCompDialog</text>
<text text-anchor="middle" x="403" y="-96" font-family="Helvetica,sans-Serif" font-size="10.00">::on_cbxSymbVar_currentIndexChanged</text>
</a>
</g>
<!-- Node2&#45;&gt;Node3 -->
<g id="edge4" class="edge"><title>Node2&#45;&gt;Node3</title>
<path fill="none" stroke="midnightblue" d="M279.909,-89.312C288.639,-90.4246 297.584,-91.5646 306.473,-92.6976"/>
<polygon fill="midnightblue" stroke="midnightblue" points="280.139,-85.813 269.777,-88.0206 279.254,-92.7569 280.139,-85.813"/>
</g>
<!-- Node4 -->
<g id="node7" class="node"><title>Node4</title>
<a xlink:href="../../d1/d92/classproject_1_1_add_gen_comp_dialog.html#abf6af5dc67073d848d5cf561412d4b27" target="_top" xlink:title="project::AddGenCompDialog\l::setSelectedGenComp">
<polygon fill="white" stroke="black" points="332.5,-36 332.5,-70 473.5,-70 473.5,-36 332.5,-36"/>
<text text-anchor="start" x="340.5" y="-57" font-family="Helvetica,sans-Serif" font-size="10.00">project::AddGenCompDialog</text>
<text text-anchor="middle" x="403" y="-44" font-family="Helvetica,sans-Serif" font-size="10.00">::setSelectedGenComp</text>
</a>
</g>
<!-- Node2&#45;&gt;Node4 -->
<g id="edge6" class="edge"><title>Node2&#45;&gt;Node4</title>
<path fill="none" stroke="midnightblue" d="M279.876,-68.6923C297.224,-66.4813 315.424,-64.1617 332.348,-62.0046"/>
<polygon fill="midnightblue" stroke="midnightblue" points="279.254,-65.2431 269.777,-69.9794 280.139,-72.187 279.254,-65.2431"/>
</g>
<!-- Node5 -->
<g id="node9" class="node"><title>Node5</title>
<a xlink:href="../../d1/d92/classproject_1_1_add_gen_comp_dialog.html#a5951d1d20ef2d9675b3b1690d6799fa7" target="_top" xlink:title="project::AddGenCompDialog\l::on_listGenericComponents\l_currentItemChanged">
<polygon fill="white" stroke="black" points="536.5,-59.5 536.5,-106.5 677.5,-106.5 677.5,-59.5 536.5,-59.5"/>
<text text-anchor="start" x="544.5" y="-93.5" font-family="Helvetica,sans-Serif" font-size="10.00">project::AddGenCompDialog</text>
<text text-anchor="start" x="544.5" y="-80.5" font-family="Helvetica,sans-Serif" font-size="10.00">::on_listGenericComponents</text>
<text text-anchor="middle" x="607" y="-67.5" font-family="Helvetica,sans-Serif" font-size="10.00">_currentItemChanged</text>
</a>
</g>
<!-- Node4&#45;&gt;Node5 -->
<g id="edge8" class="edge"><title>Node4&#45;&gt;Node5</title>
<path fill="none" stroke="midnightblue" d="M483.876,-64.8935C501.224,-67.4447 519.424,-70.1211 536.348,-72.61"/>
<polygon fill="midnightblue" stroke="midnightblue" points="484.18,-61.4006 473.777,-63.4084 483.161,-68.3261 484.18,-61.4006"/>
</g>
<!-- Node6 -->
<g id="node11" class="node"><title>Node6</title>
<a xlink:href="../../d1/d92/classproject_1_1_add_gen_comp_dialog.html#ae968bf4d25607bdad3eb848014d999da" target="_top" xlink:title="project::AddGenCompDialog\l::setSelectedCategory">
<polygon fill="white" stroke="black" points="536.5,-7 536.5,-41 677.5,-41 677.5,-7 536.5,-7"/>
<text text-anchor="start" x="544.5" y="-28" font-family="Helvetica,sans-Serif" font-size="10.00">project::AddGenCompDialog</text>
<text text-anchor="middle" x="607" y="-15" font-family="Helvetica,sans-Serif" font-size="10.00">::setSelectedCategory</text>
</a>
</g>
<!-- Node4&#45;&gt;Node6 -->
<g id="edge10" class="edge"><title>Node4&#45;&gt;Node6</title>
<path fill="none" stroke="midnightblue" d="M483.876,-41.5029C501.224,-39.0368 519.424,-36.4496 536.348,-34.0436"/>
<polygon fill="midnightblue" stroke="midnightblue" points="483.185,-38.0659 473.777,-42.9386 484.17,-44.9963 483.185,-38.0659"/>
</g>
<!-- Node7 -->
<g id="node13" class="node"><title>Node7</title>
<a xlink:href="../../d1/d92/classproject_1_1_add_gen_comp_dialog.html#aa523372c74c9d1d342035a3dc5b49d25" target="_top" xlink:title="project::AddGenCompDialog\l::on_treeCategories_currentItem\lChanged">
<polygon fill="white" stroke="black" points="714.5,-0.5 714.5,-47.5 871.5,-47.5 871.5,-0.5 714.5,-0.5"/>
<text text-anchor="start" x="722.5" y="-34.5" font-family="Helvetica,sans-Serif" font-size="10.00">project::AddGenCompDialog</text>
<text text-anchor="start" x="722.5" y="-21.5" font-family="Helvetica,sans-Serif" font-size="10.00">::on_treeCategories_currentItem</text>
<text text-anchor="middle" x="793" y="-8.5" font-family="Helvetica,sans-Serif" font-size="10.00">Changed</text>
</a>
</g>
<!-- Node6&#45;&gt;Node7 -->
<g id="edge12" class="edge"><title>Node6&#45;&gt;Node7</title>
<path fill="none" stroke="midnightblue" d="M687.836,-24C696.644,-24 705.599,-24 714.38,-24"/>
<polygon fill="midnightblue" stroke="midnightblue" points="687.584,-20.5001 677.584,-24 687.584,-27.5001 687.584,-20.5001"/>
</g>
<!-- Node8 -->
<g id="node15" class="node"><title>Node8</title>
<a xlink:href="../../d1/d92/classproject_1_1_add_gen_comp_dialog.html#a158bc6ffa6ab14d062e57c57929a197f" target="_top" xlink:title="project::AddGenCompDialog\l::AddGenCompDialog">
<polygon fill="white" stroke="black" points="908.5,-7 908.5,-41 1049.5,-41 1049.5,-7 908.5,-7"/>
<text text-anchor="start" x="916.5" y="-28" font-family="Helvetica,sans-Serif" font-size="10.00">project::AddGenCompDialog</text>
<text text-anchor="middle" x="979" y="-15" font-family="Helvetica,sans-Serif" font-size="10.00">::AddGenCompDialog</text>
</a>
</g>
<!-- Node7&#45;&gt;Node8 -->
<g id="edge14" class="edge"><title>Node7&#45;&gt;Node8</title>
<path fill="none" stroke="midnightblue" d="M881.673,-24C890.621,-24 899.622,-24 908.345,-24"/>
<polygon fill="midnightblue" stroke="midnightblue" points="881.611,-20.5001 871.611,-24 881.611,-27.5001 881.611,-20.5001"/>
</g>
</g>
</svg>
