<?xml version="1.0" encoding="UTF-8" standalone="no"?>
<!DOCTYPE svg PUBLIC "-//W3C//DTD SVG 1.1//EN"
 "http://www.w3.org/Graphics/SVG/1.1/DTD/svg11.dtd">
<!-- Generated by graphviz version 2.26.3 (20100126.1600)
 -->
<!-- Title: on_cbxSymbVar_currentIndexChanged Pages: 1 -->
<svg width="868pt" height="698pt"
 viewBox="0.00 0.00 868.00 698.00" xmlns="http://www.w3.org/2000/svg" xmlns:xlink="http://www.w3.org/1999/xlink">
<g id="graph1" class="graph" transform="scale(1 1) rotate(0) translate(4 694)">
<title>on_cbxSymbVar_currentIndexChanged</title>
<polygon fill="white" stroke="white" points="-4,5 -4,-694 865,-694 865,5 -4,5"/>
<!-- Node1 -->
<g id="node1" class="node"><title>Node1</title>
<polygon fill="#bfbfbf" stroke="black" points="0,-435 0,-469 148,-469 148,-435 0,-435"/>
<text text-anchor="start" x="8" y="-456" font-family="Helvetica,sans-Serif" font-size="10.00">on_cbxSymbVar_currentIndex</text>
<text text-anchor="middle" x="74" y="-443" font-family="Helvetica,sans-Serif" font-size="10.00">Changed</text>
</g>
<!-- Node2 -->
<g id="node3" class="node"><title>Node2</title>
<a xlink:href="../../d1/d92/classproject_1_1_add_gen_comp_dialog.html#adfcb4e9c07721bf39ddcb34d2e39e61c" target="_top" xlink:title="setSelectedSymbVar">
<polygon fill="white" stroke="black" points="196.5,-345.5 196.5,-366.5 305.5,-366.5 305.5,-345.5 196.5,-345.5"/>
<text text-anchor="middle" x="251" y="-353.5" font-family="Helvetica,sans-Serif" font-size="10.00">setSelectedSymbVar</text>
</a>
</g>
<!-- Node1&#45;&gt;Node2 -->
<g id="edge2" class="edge"><title>Node1&#45;&gt;Node2</title>
<path fill="none" stroke="midnightblue" d="M105.644,-434.837C138.859,-416.822 190.602,-388.758 222.561,-371.425"/>
<polygon fill="midnightblue" stroke="midnightblue" points="224.288,-374.47 231.41,-366.625 220.951,-368.316 224.288,-374.47"/>
</g>
<!-- Node23 -->
<g id="node46" class="node"><title>Node23</title>
<a xlink:href="../../d7/d7c/classlibrary_1_1_generic_component.html#a707cf56368ef6282708cf47ab360e6e4" target="_top" xlink:title="library::GenericComponent\l::getSymbolVariantByUuid">
<polygon fill="white" stroke="black" points="184.5,-532 184.5,-566 317.5,-566 317.5,-532 184.5,-532"/>
<text text-anchor="start" x="192.5" y="-553" font-family="Helvetica,sans-Serif" font-size="10.00">library::GenericComponent</text>
<text text-anchor="middle" x="251" y="-540" font-family="Helvetica,sans-Serif" font-size="10.00">::getSymbolVariantByUuid</text>
</a>
</g>
<!-- Node1&#45;&gt;Node23 -->
<g id="edge46" class="edge"><title>Node1&#45;&gt;Node23</title>
<path fill="none" stroke="midnightblue" d="M105.237,-469.118C134.593,-485.206 178.682,-509.368 210.681,-526.904"/>
<polygon fill="midnightblue" stroke="midnightblue" points="209.327,-530.153 219.778,-531.89 212.691,-524.015 209.327,-530.153"/>
</g>
<!-- Node3 -->
<g id="node5" class="node"><title>Node3</title>
<a xlink:href="../../d2/d05/classproject_1_1_project.html#a6054e079a2e370148fce27b138686ba3" target="_top" xlink:title="Get the ProjectSettings object which contains all project settings. ">
<polygon fill="white" stroke="black" points="363,-616.5 363,-637.5 501,-637.5 501,-616.5 363,-616.5"/>
<text text-anchor="middle" x="432" y="-624.5" font-family="Helvetica,sans-Serif" font-size="10.00">project::Project::getSettings</text>
</a>
</g>
<!-- Node2&#45;&gt;Node3 -->
<g id="edge4" class="edge"><title>Node2&#45;&gt;Node3</title>
<path fill="none" stroke="midnightblue" d="M255.309,-366.684C274.519,-414.287 351.513,-604.835 354,-607 355.756,-608.529 357.614,-609.943 359.553,-611.252"/>
<polygon fill="midnightblue" stroke="midnightblue" points="358.086,-614.443 368.51,-616.337 361.542,-608.356 358.086,-614.443"/>
</g>
<!-- Node4 -->
<g id="node7" class="node"><title>Node4</title>
<a xlink:href="../../d7/d04/classproject_1_1_project_settings.html#a4e1f38901d0cab44a6bdae922a877b22" target="_top" xlink:title="project::ProjectSettings\l::getLocaleOrder">
<polygon fill="white" stroke="black" points="372.5,-564 372.5,-598 491.5,-598 491.5,-564 372.5,-564"/>
<text text-anchor="start" x="380.5" y="-585" font-family="Helvetica,sans-Serif" font-size="10.00">project::ProjectSettings</text>
<text text-anchor="middle" x="432" y="-572" font-family="Helvetica,sans-Serif" font-size="10.00">::getLocaleOrder</text>
</a>
</g>
<!-- Node2&#45;&gt;Node4 -->
<g id="edge6" class="edge"><title>Node2&#45;&gt;Node4</title>
<path fill="none" stroke="midnightblue" d="M253.527,-366.865C261.817,-400.103 291.32,-501.401 354,-555 356.882,-557.464 360.005,-559.697 363.289,-561.72"/>
<polygon fill="midnightblue" stroke="midnightblue" points="361.841,-564.916 372.301,-566.599 365.173,-558.76 361.841,-564.916"/>
</g>
<!-- Node5 -->
<g id="node9" class="node"><title>Node5</title>
<a xlink:href="../../d7/dff/classlibrary_1_1_gen_comp_symb_var.html#ada9b237a8629c03e16491a72730b456b" target="_top" xlink:title="library::GenCompSymbVar\l::getUuid">
<polygon fill="white" stroke="black" points="365,-656 365,-690 499,-690 499,-656 365,-656"/>
<text text-anchor="start" x="373" y="-677" font-family="Helvetica,sans-Serif" font-size="10.00">library::GenCompSymbVar</text>
<text text-anchor="middle" x="432" y="-664" font-family="Helvetica,sans-Serif" font-size="10.00">::getUuid</text>
</a>
</g>
<!-- Node2&#45;&gt;Node5 -->
<g id="edge8" class="edge"><title>Node2&#45;&gt;Node5</title>
<path fill="none" stroke="midnightblue" d="M255.768,-366.801C267.311,-393.167 297.328,-463.048 318,-523 336.707,-577.252 314.224,-605.634 354,-647 354.918,-647.955 355.872,-648.875 356.859,-649.761"/>
<polygon fill="midnightblue" stroke="midnightblue" points="354.901,-652.669 364.986,-655.914 359.126,-647.088 354.901,-652.669"/>
</g>
<!-- Node6 -->
<g id="node11" class="node"><title>Node6</title>
<a xlink:href="../../d7/dff/classlibrary_1_1_gen_comp_symb_var.html#a07748d2329ba6f3667d423c7662dffe1" target="_top" xlink:title="library::GenCompSymbVar\l::getNorm">
<polygon fill="white" stroke="black" points="365,-512 365,-546 499,-546 499,-512 365,-512"/>
<text text-anchor="start" x="373" y="-533" font-family="Helvetica,sans-Serif" font-size="10.00">library::GenCompSymbVar</text>
<text text-anchor="middle" x="432" y="-520" font-family="Helvetica,sans-Serif" font-size="10.00">::getNorm</text>
</a>
</g>
<!-- Node2&#45;&gt;Node6 -->
<g id="edge10" class="edge"><title>Node2&#45;&gt;Node6</title>
<path fill="none" stroke="midnightblue" d="M255.537,-366.631C267.546,-393.522 302.786,-464.815 354,-503 355.86,-504.386 357.797,-505.702 359.796,-506.949"/>
<polygon fill="midnightblue" stroke="midnightblue" points="358.451,-510.206 368.894,-511.995 361.846,-504.084 358.451,-510.206"/>
</g>
<!-- Node7 -->
<g id="node13" class="node"><title>Node7</title>
<a xlink:href="../../d7/dff/classlibrary_1_1_gen_comp_symb_var.html#a0e5b7dc7eca3c6468aa85375bf2c3dde" target="_top" xlink:title="library::GenCompSymbVar\l::getDescription">
<polygon fill="white" stroke="black" points="365,-460 365,-494 499,-494 499,-460 365,-460"/>
<text text-anchor="start" x="373" y="-481" font-family="Helvetica,sans-Serif" font-size="10.00">library::GenCompSymbVar</text>
<text text-anchor="middle" x="432" y="-468" font-family="Helvetica,sans-Serif" font-size="10.00">::getDescription</text>
</a>
</g>
<!-- Node2&#45;&gt;Node7 -->
<g id="edge12" class="edge"><title>Node2&#45;&gt;Node7</title>
<path fill="none" stroke="midnightblue" d="M259.811,-366.694C276.347,-386.121 313.99,-427.375 354,-451 356.827,-452.669 359.776,-454.248 362.801,-455.74"/>
<polygon fill="midnightblue" stroke="midnightblue" points="361.513,-458.999 372.064,-459.956 364.413,-452.628 361.513,-458.999"/>
</g>
<!-- Node9 -->
<g id="node17" class="node"><title>Node9</title>
<a xlink:href="../../d7/dff/classlibrary_1_1_gen_comp_symb_var.html#a95be340ed5134b5b4fc05ab47e4c9c34" target="_top" xlink:title="library::GenCompSymbVar\l::getItems">
<polygon fill="white" stroke="black" points="365,-408 365,-442 499,-442 499,-408 365,-408"/>
<text text-anchor="start" x="373" y="-429" font-family="Helvetica,sans-Serif" font-size="10.00">library::GenCompSymbVar</text>
<text text-anchor="middle" x="432" y="-416" font-family="Helvetica,sans-Serif" font-size="10.00">::getItems</text>
</a>
</g>
<!-- Node2&#45;&gt;Node9 -->
<g id="edge16" class="edge"><title>Node2&#45;&gt;Node9</title>
<path fill="none" stroke="midnightblue" d="M274.941,-366.584C295.689,-375.615 326.601,-388.73 354,-399 359.012,-400.879 364.23,-402.765 369.485,-404.616"/>
<polygon fill="midnightblue" stroke="midnightblue" points="368.354,-407.928 378.948,-407.901 370.649,-401.315 368.354,-407.928"/>
</g>
<!-- Node10 -->
<g id="node19" class="node"><title>Node10</title>
<a xlink:href="../../d5/d56/class_workspace.html#a0aaab7f8db4623adc7227460a859db51" target="_top" xlink:title="Get the workspace library. ">
<polygon fill="white" stroke="black" points="374.5,-368.5 374.5,-389.5 489.5,-389.5 489.5,-368.5 374.5,-368.5"/>
<text text-anchor="middle" x="432" y="-376.5" font-family="Helvetica,sans-Serif" font-size="10.00">Workspace::getLibrary</text>
</a>
</g>
<!-- Node2&#45;&gt;Node10 -->
<g id="edge18" class="edge"><title>Node2&#45;&gt;Node10</title>
<path fill="none" stroke="midnightblue" d="M305.797,-362.963C324.227,-365.305 345.009,-367.946 364.31,-370.399"/>
<polygon fill="midnightblue" stroke="midnightblue" points="363.887,-373.873 374.248,-371.661 364.769,-366.929 363.887,-373.873"/>
</g>
<!-- Node11 -->
<g id="node21" class="node"><title>Node11</title>
<a xlink:href="../../de/d02/classlibrary_1_1_library.html#a1a4160a82ae91b932467f00350c415e0" target="_top" xlink:title="library::Library::getLatest\lSymbol">
<polygon fill="white" stroke="black" points="369.5,-316 369.5,-350 494.5,-350 494.5,-316 369.5,-316"/>
<text text-anchor="start" x="377.5" y="-337" font-family="Helvetica,sans-Serif" font-size="10.00">library::Library::getLatest</text>
<text text-anchor="middle" x="432" y="-324" font-family="Helvetica,sans-Serif" font-size="10.00">Symbol</text>
</a>
</g>
<!-- Node2&#45;&gt;Node11 -->
<g id="edge20" class="edge"><title>Node2&#45;&gt;Node11</title>
<path fill="none" stroke="midnightblue" d="M305.797,-349.037C322.584,-346.904 341.323,-344.523 359.116,-342.261"/>
<polygon fill="midnightblue" stroke="midnightblue" points="359.983,-345.68 369.462,-340.947 359.1,-338.735 359.983,-345.68"/>
</g>
<!-- Node12 -->
<g id="node23" class="node"><title>Node12</title>
<a xlink:href="../../d5/d1e/classlibrary_1_1_gen_comp_symb_var_item.html#ae244026d0acdc7d950b6752f4ad00e4e" target="_top" xlink:title="library::GenCompSymbVarItem\l::getSymbolUuid">
<polygon fill="white" stroke="black" points="355.5,-264 355.5,-298 508.5,-298 508.5,-264 355.5,-264"/>
<text text-anchor="start" x="363.5" y="-285" font-family="Helvetica,sans-Serif" font-size="10.00">library::GenCompSymbVarItem</text>
<text text-anchor="middle" x="432" y="-272" font-family="Helvetica,sans-Serif" font-size="10.00">::getSymbolUuid</text>
</a>
</g>
<!-- Node2&#45;&gt;Node12 -->
<g id="edge22" class="edge"><title>Node2&#45;&gt;Node12</title>
<path fill="none" stroke="midnightblue" d="M271.191,-345.49C291.724,-335.019 324.611,-318.837 354,-307 358.68,-305.115 363.554,-303.255 368.48,-301.449"/>
<polygon fill="midnightblue" stroke="midnightblue" points="369.743,-304.715 377.979,-298.05 367.384,-298.124 369.743,-304.715"/>
</g>
<!-- Node13 -->
<g id="node25" class="node"><title>Node13</title>
<a xlink:href="../../d4/d1c/class_file_path.html#a0a886a9edf5bf682f5245159661bfc94" target="_top" xlink:title="Check whether this object contains a valid filepath or not. ">
<polygon fill="white" stroke="black" points="388,-224.5 388,-245.5 476,-245.5 476,-224.5 388,-224.5"/>
<text text-anchor="middle" x="432" y="-232.5" font-family="Helvetica,sans-Serif" font-size="10.00">FilePath::isValid</text>
</a>
</g>
<!-- Node2&#45;&gt;Node13 -->
<g id="edge24" class="edge"><title>Node2&#45;&gt;Node13</title>
<path fill="none" stroke="midnightblue" d="M258.75,-345.295C274.348,-324.559 311.675,-278.859 354,-255 361.44,-250.806 369.771,-247.475 378.145,-244.833"/>
<polygon fill="midnightblue" stroke="midnightblue" points="379.286,-248.147 387.943,-242.039 377.366,-241.416 379.286,-248.147"/>
</g>
<!-- Node14 -->
<g id="node27" class="node"><title>Node14</title>
<a xlink:href="../../d5/d1e/classlibrary_1_1_gen_comp_symb_var_item.html#ada9b237a8629c03e16491a72730b456b" target="_top" xlink:title="library::GenCompSymbVarItem\l::getUuid">
<polygon fill="white" stroke="black" points="355.5,-172 355.5,-206 508.5,-206 508.5,-172 355.5,-172"/>
<text text-anchor="start" x="363.5" y="-193" font-family="Helvetica,sans-Serif" font-size="10.00">library::GenCompSymbVarItem</text>
<text text-anchor="middle" x="432" y="-180" font-family="Helvetica,sans-Serif" font-size="10.00">::getUuid</text>
</a>
</g>
<!-- Node2&#45;&gt;Node14 -->
<g id="edge26" class="edge"><title>Node2&#45;&gt;Node14</title>
<path fill="none" stroke="midnightblue" d="M255.841,-345.425C268.306,-319.354 304.06,-251.475 354,-215 355.873,-213.632 357.823,-212.333 359.832,-211.099"/>
<polygon fill="midnightblue" stroke="midnightblue" points="361.873,-213.972 368.965,-206.102 358.513,-207.831 361.873,-213.972"/>
</g>
<!-- Node15 -->
<g id="node29" class="node"><title>Node15</title>
<a xlink:href="../../d0/d69/class_point.html#a3da9ee2bc3910d0f0c43c30798906fdd" target="_top" xlink:title="Point::fromPx">
<polygon fill="white" stroke="black" points="393.5,-132.5 393.5,-153.5 470.5,-153.5 470.5,-132.5 393.5,-132.5"/>
<text text-anchor="middle" x="432" y="-140.5" font-family="Helvetica,sans-Serif" font-size="10.00">Point::fromPx</text>
</a>
</g>
<!-- Node2&#45;&gt;Node15 -->
<g id="edge28" class="edge"><title>Node2&#45;&gt;Node15</title>
<path fill="none" stroke="midnightblue" d="M253.47,-345.263C261.597,-312.454 290.678,-212.734 354,-163 362.498,-156.325 372.975,-151.858 383.462,-148.874"/>
<polygon fill="midnightblue" stroke="midnightblue" points="384.565,-152.207 393.455,-146.443 382.911,-145.406 384.565,-152.207"/>
</g>
<!-- Node19 -->
<g id="node38" class="node"><title>Node19</title>
<a xlink:href="../../d9/da8/classlibrary_1_1_symbol_preview_graphics_item.html#a5a5c94b564322784dd2aa1486fa7901a" target="_top" xlink:title="library::SymbolPreviewGraphics\lItem::boundingRect">
<polygon fill="white" stroke="black" points="354,-80 354,-114 510,-114 510,-80 354,-80"/>
<text text-anchor="start" x="362" y="-101" font-family="Helvetica,sans-Serif" font-size="10.00">library::SymbolPreviewGraphics</text>
<text text-anchor="middle" x="432" y="-88" font-family="Helvetica,sans-Serif" font-size="10.00">Item::boundingRect</text>
</a>
</g>
<!-- Node2&#45;&gt;Node19 -->
<g id="edge38" class="edge"><title>Node2&#45;&gt;Node19</title>
<path fill="none" stroke="midnightblue" d="M252.582,-345.421C258.59,-308.965 283.334,-187.286 354,-123 355.155,-121.949 356.353,-120.941 357.59,-119.973"/>
<polygon fill="midnightblue" stroke="midnightblue" points="359.892,-122.643 366.238,-114.158 355.986,-116.834 359.892,-122.643"/>
</g>
<!-- Node20 -->
<g id="node40" class="node"><title>Node20</title>
<a xlink:href="../../d0/d69/class_point.html#a3fb0d1120536f2a889eac1e5e88b9ac5" target="_top" xlink:title="Get the point as a QPointF object in pixels (for QGraphics* objects) ">
<polygon fill="white" stroke="black" points="381.5,-40.5 381.5,-61.5 482.5,-61.5 482.5,-40.5 381.5,-40.5"/>
<text text-anchor="middle" x="432" y="-48.5" font-family="Helvetica,sans-Serif" font-size="10.00">Point::toPxQPointF</text>
</a>
</g>
<!-- Node2&#45;&gt;Node20 -->
<g id="edge40" class="edge"><title>Node2&#45;&gt;Node20</title>
<path fill="none" stroke="midnightblue" d="M251.455,-345.295C253.838,-303.37 268.331,-148.832 354,-71 359.144,-66.3262 365.233,-62.7134 371.704,-59.9258"/>
<polygon fill="midnightblue" stroke="midnightblue" points="373.191,-63.1095 381.395,-56.4047 370.8,-56.5304 373.191,-63.1095"/>
</g>
<!-- Node22 -->
<g id="node44" class="node"><title>Node22</title>
<a xlink:href="../../dc/dcc/class_graphics_scene.html#ad4900f3543f03cac6482cdbe7368291f" target="_top" xlink:title="GraphicsScene::addItem">
<polygon fill="white" stroke="black" points="369.5,-0.5 369.5,-21.5 494.5,-21.5 494.5,-0.5 369.5,-0.5"/>
<text text-anchor="middle" x="432" y="-8.5" font-family="Helvetica,sans-Serif" font-size="10.00">GraphicsScene::addItem</text>
</a>
</g>
<!-- Node2&#45;&gt;Node22 -->
<g id="edge44" class="edge"><title>Node2&#45;&gt;Node22</title>
<path fill="none" stroke="midnightblue" d="M252.973,-345.212C262.527,-294.098 305.51,-76.8522 354,-31 355.955,-29.151 358.058,-27.467 360.274,-25.9337"/>
<polygon fill="midnightblue" stroke="midnightblue" points="362.39,-28.754 369.316,-20.7357 358.902,-22.6854 362.39,-28.754"/>
</g>
<!-- Node8 -->
<g id="node15" class="node"><title>Node8</title>
<a xlink:href="../../dd/d8a/classlibrary_1_1_library_base_element.html#a3de489fd5ff14ef1709e7ba41628ab3e" target="_top" xlink:title="Get the string of a specific locale from a QMap. ">
<polygon fill="white" stroke="black" points="546.5,-460 546.5,-494 683.5,-494 683.5,-460 546.5,-460"/>
<text text-anchor="start" x="554.5" y="-481" font-family="Helvetica,sans-Serif" font-size="10.00">library::LibraryBaseElement</text>
<text text-anchor="middle" x="615" y="-468" font-family="Helvetica,sans-Serif" font-size="10.00">::localeStringFromList</text>
</a>
</g>
<!-- Node7&#45;&gt;Node8 -->
<g id="edge14" class="edge"><title>Node7&#45;&gt;Node8</title>
<path fill="none" stroke="midnightblue" d="M499.103,-477C511.137,-477 523.778,-477 536.108,-477"/>
<polygon fill="midnightblue" stroke="midnightblue" points="536.372,-480.5 546.371,-477 536.371,-473.5 536.372,-480.5"/>
</g>
<!-- Node16 -->
<g id="node31" class="node"><title>Node16</title>
<a xlink:href="../../df/df0/class_length.html#a5aef66a62c626dea314f1a1e1716534b" target="_top" xlink:title="Set the length in pixels (from QGraphics* objects) ">
<polygon fill="white" stroke="black" points="561.5,-164.5 561.5,-185.5 668.5,-185.5 668.5,-164.5 561.5,-164.5"/>
<text text-anchor="middle" x="615" y="-172.5" font-family="Helvetica,sans-Serif" font-size="10.00">Length::setLengthPx</text>
</a>
</g>
<!-- Node15&#45;&gt;Node16 -->
<g id="edge30" class="edge"><title>Node15&#45;&gt;Node16</title>
<path fill="none" stroke="midnightblue" d="M470.81,-149.786C494.161,-153.87 524.457,-159.167 551.248,-163.852"/>
<polygon fill="midnightblue" stroke="midnightblue" points="550.869,-167.339 561.323,-165.614 552.075,-160.444 550.869,-167.339"/>
</g>
<!-- Node18 -->
<g id="node35" class="node"><title>Node18</title>
<a xlink:href="../../d0/d69/class_point.html#aaf8d7a6826dcd72e03dc632960106b90" target="_top" xlink:title="Map this Point object to a specific grid interval. ">
<polygon fill="white" stroke="black" points="568.5,-106.5 568.5,-127.5 661.5,-127.5 661.5,-106.5 568.5,-106.5"/>
<text text-anchor="middle" x="615" y="-114.5" font-family="Helvetica,sans-Serif" font-size="10.00">Point::mapToGrid</text>
</a>
</g>
<!-- Node15&#45;&gt;Node18 -->
<g id="edge34" class="edge"><title>Node15&#45;&gt;Node18</title>
<path fill="none" stroke="midnightblue" d="M470.81,-137.486C496.226,-133.875 529.87,-129.095 558.267,-125.06"/>
<polygon fill="midnightblue" stroke="midnightblue" points="559.058,-128.483 568.466,-123.611 558.073,-121.553 559.058,-128.483"/>
</g>
<!-- Node17 -->
<g id="node33" class="node"><title>Node17</title>
<a xlink:href="../../df/df0/class_length.html#a73dbcae99cc78c7f7e737d5211154527" target="_top" xlink:title="Set the length from a floating point number in nanometers. ">
<polygon fill="white" stroke="black" points="720.5,-164.5 720.5,-185.5 859.5,-185.5 859.5,-164.5 720.5,-164.5"/>
<text text-anchor="middle" x="790" y="-172.5" font-family="Helvetica,sans-Serif" font-size="10.00">Length::setLengthFromFloat</text>
</a>
</g>
<!-- Node16&#45;&gt;Node17 -->
<g id="edge32" class="edge"><title>Node16&#45;&gt;Node17</title>
<path fill="none" stroke="midnightblue" d="M668.934,-175C682.025,-175 696.299,-175 710.303,-175"/>
<polygon fill="midnightblue" stroke="midnightblue" points="710.433,-178.5 720.433,-175 710.433,-171.5 710.433,-178.5"/>
</g>
<!-- Node18&#45;&gt;Node18 -->
<g id="edge36" class="edge"><title>Node18&#45;&gt;Node18</title>
<path fill="none" stroke="midnightblue" d="M587.353,-127.708C575.538,-136.653 584.754,-146 615,-146 634.849,-146 645.641,-141.975 647.376,-136.679"/>
<polygon fill="midnightblue" stroke="midnightblue" points="650.406,-134.922 642.647,-127.708 644.214,-138.186 650.406,-134.922"/>
</g>
<!-- Node21 -->
<g id="node42" class="node"><title>Node21</title>
<a xlink:href="../../df/df0/class_length.html#abf9a817a583f3939aea7bffdeeb7b235" target="_top" xlink:title="Get the length in pixels (for QGraphics* objects) ">
<polygon fill="white" stroke="black" points="579,-40.5 579,-61.5 651,-61.5 651,-40.5 579,-40.5"/>
<text text-anchor="middle" x="615" y="-48.5" font-family="Helvetica,sans-Serif" font-size="10.00">Length::toPx</text>
</a>
</g>
<!-- Node20&#45;&gt;Node21 -->
<g id="edge42" class="edge"><title>Node20&#45;&gt;Node21</title>
<path fill="none" stroke="midnightblue" d="M482.976,-51C509.865,-51 542.605,-51 568.754,-51"/>
<polygon fill="midnightblue" stroke="midnightblue" points="568.79,-54.5001 578.79,-51 568.79,-47.5001 568.79,-54.5001"/>
</g>
<!-- Node23&#45;&gt;Node5 -->
<g id="edge48" class="edge"><title>Node23&#45;&gt;Node5</title>
<path fill="none" stroke="midnightblue" d="M264.919,-566.288C283.229,-587.982 317.4,-625.004 354,-647 356.667,-648.603 359.445,-650.121 362.296,-651.558"/>
<polygon fill="midnightblue" stroke="midnightblue" points="361.059,-654.842 371.604,-655.871 364.002,-648.491 361.059,-654.842"/>
</g>
</g>
</svg>
