<?xml version="1.0" encoding="UTF-8" standalone="no"?>
<!DOCTYPE svg PUBLIC "-//W3C//DTD SVG 1.1//EN"
 "http://www.w3.org/Graphics/SVG/1.1/DTD/svg11.dtd">
<!-- Generated by graphviz version 2.26.3 (20100126.1600)
 -->
<!-- Title: /home/travis/build/LibrePCB/LibrePCB/libs/librepcbcommon/units/lengthunit.h Pages: 1 -->
<svg width="176pt" height="172pt"
 viewBox="0.00 0.00 176.00 172.00" xmlns="http://www.w3.org/2000/svg" xmlns:xlink="http://www.w3.org/1999/xlink">
<g id="graph1" class="graph" transform="scale(1 1) rotate(0) translate(4 168)">
<title>/home/travis/build/LibrePCB/LibrePCB/libs/librepcbcommon/units/lengthunit.h</title>
<polygon fill="white" stroke="white" points="-4,5 -4,-168 173,-168 173,5 -4,5"/>
<!-- Node1 -->
<g id="node1" class="node"><title>Node1</title>
<polygon fill="#bfbfbf" stroke="black" points="0,-116.5 0,-163.5 168,-163.5 168,-116.5 0,-116.5"/>
<text text-anchor="start" x="8" y="-150.5" font-family="Helvetica,sans-Serif" font-size="10.00">/home/travis/build</text>
<text text-anchor="start" x="8" y="-137.5" font-family="Helvetica,sans-Serif" font-size="10.00">/LibrePCB/LibrePCB/libs</text>
<text text-anchor="middle" x="84" y="-124.5" font-family="Helvetica,sans-Serif" font-size="10.00">/librepcbcommon/units/lengthunit.h</text>
</g>
<!-- Node2 -->
<g id="node3" class="node"><title>Node2</title>
<polygon fill="white" stroke="#bfbfbf" points="60,-0.5 60,-21.5 108,-21.5 108,-0.5 60,-0.5"/>
<text text-anchor="middle" x="84" y="-8.5" font-family="Helvetica,sans-Serif" font-size="10.00">QtCore</text>
</g>
<!-- Node1&#45;&gt;Node2 -->
<g id="edge2" class="edge"><title>Node1&#45;&gt;Node2</title>
<path fill="none" stroke="midnightblue" d="M75.4186,-116.373C70.5262,-100.021 65.9273,-77.734 69,-58 70.4084,-48.9549 73.2552,-39.2705 76.0939,-31.057"/>
<polygon fill="midnightblue" stroke="midnightblue" points="79.4055,-32.1923 79.5764,-21.5988 72.8366,-29.7736 79.4055,-32.1923"/>
</g>
<!-- Node3 -->
<g id="node5" class="node"><title>Node3</title>
<a xlink:href="../../d4/d03/exceptions_8h.html" target="_top" xlink:title="../exceptions.h">
<polygon fill="white" stroke="black" points="77.5,-58.5 77.5,-79.5 158.5,-79.5 158.5,-58.5 77.5,-58.5"/>
<text text-anchor="middle" x="118" y="-66.5" font-family="Helvetica,sans-Serif" font-size="10.00">../exceptions.h</text>
</a>
</g>
<!-- Node1&#45;&gt;Node3 -->
<g id="edge4" class="edge"><title>Node1&#45;&gt;Node3</title>
<path fill="none" stroke="midnightblue" d="M95.3215,-116.358C99.5979,-107.428 104.416,-97.3666 108.508,-88.8218"/>
<polygon fill="midnightblue" stroke="midnightblue" points="111.739,-90.1771 112.902,-79.6462 105.426,-87.1537 111.739,-90.1771"/>
</g>
<!-- Node3&#45;&gt;Node2 -->
<g id="edge6" class="edge"><title>Node3&#45;&gt;Node2</title>
<path fill="none" stroke="midnightblue" d="M111.764,-58.3619C107.163,-50.5131 100.775,-39.6159 95.2861,-30.2527"/>
<polygon fill="midnightblue" stroke="midnightblue" points="98.2733,-28.4276 90.1966,-21.5707 92.2344,-31.9677 98.2733,-28.4276"/>
</g>
</g>
</svg>
