<?xml version="1.0" encoding="UTF-8" standalone="no"?>
<!DOCTYPE svg PUBLIC "-//W3C//DTD SVG 1.1//EN"
 "http://www.w3.org/Graphics/SVG/1.1/DTD/svg11.dtd">
<!-- Generated by graphviz version 2.26.3 (20100126.1600)
 -->
<!-- Title: setSelectionRect Pages: 1 -->
<svg width="626pt" height="288pt"
 viewBox="0.00 0.00 626.00 288.00" xmlns="http://www.w3.org/2000/svg" xmlns:xlink="http://www.w3.org/1999/xlink">
<g id="graph1" class="graph" transform="scale(1 1) rotate(0) translate(4 284)">
<title>setSelectionRect</title>
<polygon fill="white" stroke="white" points="-4,5 -4,-284 623,-284 623,5 -4,5"/>
<!-- Node1 -->
<g id="node1" class="node"><title>Node1</title>
<polygon fill="#bfbfbf" stroke="black" points="0,-125.5 0,-146.5 92,-146.5 92,-125.5 0,-125.5"/>
<text text-anchor="middle" x="46" y="-133.5" font-family="Helvetica,sans-Serif" font-size="10.00">setSelectionRect</text>
</g>
<!-- Node2 -->
<g id="node3" class="node"><title>Node2</title>
<a xlink:href="../../d0/d7d/classproject_1_1_component_instance.html#a43009465a74e4ea29421f269c876916d" target="_top" xlink:title="project::ComponentInstance\l::getFootprint">
<polygon fill="white" stroke="black" points="128,-246 128,-280 268,-280 268,-246 128,-246"/>
<text text-anchor="start" x="136" y="-267" font-family="Helvetica,sans-Serif" font-size="10.00">project::ComponentInstance</text>
<text text-anchor="middle" x="198" y="-254" font-family="Helvetica,sans-Serif" font-size="10.00">::getFootprint</text>
</a>
</g>
<!-- Node1&#45;&gt;Node2 -->
<g id="edge2" class="edge"><title>Node1&#45;&gt;Node2</title>
<path fill="none" stroke="midnightblue" d="M52.0185,-146.724C63.9595,-167.089 92.579,-211.592 128,-237 129.883,-238.351 131.844,-239.639 133.864,-240.868"/>
<polygon fill="midnightblue" stroke="midnightblue" points="132.576,-244.153 143.029,-245.88 135.934,-238.012 132.576,-244.153"/>
</g>
<!-- Node3 -->
<g id="node5" class="node"><title>Node3</title>
<a xlink:href="../../da/d96/classproject_1_1_b_i___footprint.html#af90fb11b274fda88ef94e9f685a6ab35" target="_top" xlink:title="project::BI_Footprint\l::getGrabAreaScenePx">
<polygon fill="white" stroke="black" points="139.5,-194 139.5,-228 256.5,-228 256.5,-194 139.5,-194"/>
<text text-anchor="start" x="147.5" y="-215" font-family="Helvetica,sans-Serif" font-size="10.00">project::BI_Footprint</text>
<text text-anchor="middle" x="198" y="-202" font-family="Helvetica,sans-Serif" font-size="10.00">::getGrabAreaScenePx</text>
</a>
</g>
<!-- Node1&#45;&gt;Node3 -->
<g id="edge4" class="edge"><title>Node1&#45;&gt;Node3</title>
<path fill="none" stroke="midnightblue" d="M61.8515,-146.664C78.0242,-157.255 104.074,-173.527 128,-185 131.58,-186.717 135.305,-188.395 139.09,-190.019"/>
<polygon fill="midnightblue" stroke="midnightblue" points="137.991,-193.352 148.57,-193.936 140.664,-186.882 137.991,-193.352"/>
</g>
<!-- Node5 -->
<g id="node9" class="node"><title>Node5</title>
<a xlink:href="../../da/d96/classproject_1_1_b_i___footprint.html#ad73a1407a19f935203851d27f9fb3903" target="_top" xlink:title="project::BI_Footprint\l::setSelected">
<polygon fill="white" stroke="black" points="145.5,-142 145.5,-176 250.5,-176 250.5,-142 145.5,-142"/>
<text text-anchor="start" x="153.5" y="-163" font-family="Helvetica,sans-Serif" font-size="10.00">project::BI_Footprint</text>
<text text-anchor="middle" x="198" y="-150" font-family="Helvetica,sans-Serif" font-size="10.00">::setSelected</text>
</a>
</g>
<!-- Node1&#45;&gt;Node5 -->
<g id="edge8" class="edge"><title>Node1&#45;&gt;Node5</title>
<path fill="none" stroke="midnightblue" d="M92.0175,-142.963C105.719,-145.036 120.97,-147.344 135.535,-149.548"/>
<polygon fill="midnightblue" stroke="midnightblue" points="135.07,-153.018 145.482,-151.053 136.118,-146.096 135.07,-153.018"/>
</g>
<!-- Node7 -->
<g id="node13" class="node"><title>Node7</title>
<a xlink:href="../../d4/ddd/classproject_1_1_b_i___footprint_pad.html#ad73a1407a19f935203851d27f9fb3903" target="_top" xlink:title="project::BI_FootprintPad\l::setSelected">
<polygon fill="white" stroke="black" points="308,-97 308,-131 430,-131 430,-97 308,-97"/>
<text text-anchor="start" x="316" y="-118" font-family="Helvetica,sans-Serif" font-size="10.00">project::BI_FootprintPad</text>
<text text-anchor="middle" x="369" y="-105" font-family="Helvetica,sans-Serif" font-size="10.00">::setSelected</text>
</a>
</g>
<!-- Node1&#45;&gt;Node7 -->
<g id="edge22" class="edge"><title>Node1&#45;&gt;Node7</title>
<path fill="none" stroke="midnightblue" d="M92.278,-132.848C145.981,-129.19 235.151,-123.117 297.719,-118.855"/>
<polygon fill="midnightblue" stroke="midnightblue" points="298.172,-122.332 307.911,-118.161 297.696,-115.349 298.172,-122.332"/>
</g>
<!-- Node8 -->
<g id="node16" class="node"><title>Node8</title>
<a xlink:href="../../da/d96/classproject_1_1_b_i___footprint.html#a9fc9c8d9cc96383e297ae50445941007" target="_top" xlink:title="project::BI_Footprint\l::getPads">
<polygon fill="white" stroke="black" points="145.5,-52 145.5,-86 250.5,-86 250.5,-52 145.5,-52"/>
<text text-anchor="start" x="153.5" y="-73" font-family="Helvetica,sans-Serif" font-size="10.00">project::BI_Footprint</text>
<text text-anchor="middle" x="198" y="-60" font-family="Helvetica,sans-Serif" font-size="10.00">::getPads</text>
</a>
</g>
<!-- Node1&#45;&gt;Node8 -->
<g id="edge16" class="edge"><title>Node1&#45;&gt;Node8</title>
<path fill="none" stroke="midnightblue" d="M70.0849,-125.384C91.5011,-115.944 123.453,-101.86 150.064,-90.1298"/>
<polygon fill="midnightblue" stroke="midnightblue" points="151.489,-93.3266 159.228,-86.0905 148.665,-86.9213 151.489,-93.3266"/>
</g>
<!-- Node9 -->
<g id="node18" class="node"><title>Node9</title>
<a xlink:href="../../d4/ddd/classproject_1_1_b_i___footprint_pad.html#af90fb11b274fda88ef94e9f685a6ab35" target="_top" xlink:title="project::BI_FootprintPad\l::getGrabAreaScenePx">
<polygon fill="white" stroke="black" points="137,-0 137,-34 259,-34 259,-0 137,-0"/>
<text text-anchor="start" x="145" y="-21" font-family="Helvetica,sans-Serif" font-size="10.00">project::BI_FootprintPad</text>
<text text-anchor="middle" x="198" y="-8" font-family="Helvetica,sans-Serif" font-size="10.00">::getGrabAreaScenePx</text>
</a>
</g>
<!-- Node1&#45;&gt;Node9 -->
<g id="edge18" class="edge"><title>Node1&#45;&gt;Node9</title>
<path fill="none" stroke="midnightblue" d="M52.8186,-125.261C65.4486,-106.169 94.2888,-66.1574 128,-43 130.104,-41.5549 132.298,-40.1782 134.556,-38.8681"/>
<polygon fill="midnightblue" stroke="midnightblue" points="136.313,-41.8986 143.528,-34.1404 133.05,-35.7058 136.313,-41.8986"/>
</g>
<!-- Node4 -->
<g id="node7" class="node"><title>Node4</title>
<a xlink:href="../../dc/d87/classproject_1_1_b_g_i___footprint.html#a066dd522d7c2b9f0f85b2a103aba0542" target="_top" xlink:title="project::BGI_Footprint\l::shape">
<polygon fill="white" stroke="black" points="312.5,-194 312.5,-228 425.5,-228 425.5,-194 312.5,-194"/>
<text text-anchor="start" x="320.5" y="-215" font-family="Helvetica,sans-Serif" font-size="10.00">project::BGI_Footprint</text>
<text text-anchor="middle" x="369" y="-202" font-family="Helvetica,sans-Serif" font-size="10.00">::shape</text>
</a>
</g>
<!-- Node3&#45;&gt;Node4 -->
<g id="edge6" class="edge"><title>Node3&#45;&gt;Node4</title>
<path fill="none" stroke="midnightblue" d="M256.848,-211C271.449,-211 287.201,-211 302.153,-211"/>
<polygon fill="midnightblue" stroke="midnightblue" points="302.353,-214.5 312.353,-211 302.353,-207.5 302.353,-214.5"/>
</g>
<!-- Node6 -->
<g id="node11" class="node"><title>Node6</title>
<a xlink:href="../../da/dc8/classproject_1_1_b_i___base.html#ab98bb60eca6122e4def2f7d285046547" target="_top" xlink:title="project::BI_Base::setSelected">
<polygon fill="white" stroke="black" points="470.5,-125.5 470.5,-146.5 617.5,-146.5 617.5,-125.5 470.5,-125.5"/>
<text text-anchor="middle" x="544" y="-133.5" font-family="Helvetica,sans-Serif" font-size="10.00">project::BI_Base::setSelected</text>
</a>
</g>
<!-- Node5&#45;&gt;Node6 -->
<g id="edge10" class="edge"><title>Node5&#45;&gt;Node6</title>
<path fill="none" stroke="midnightblue" d="M250.55,-155.507C306.179,-151.809 394.794,-145.918 460.104,-141.577"/>
<polygon fill="midnightblue" stroke="midnightblue" points="460.632,-145.05 470.378,-140.894 460.167,-138.065 460.632,-145.05"/>
</g>
<!-- Node5&#45;&gt;Node7 -->
<g id="edge12" class="edge"><title>Node5&#45;&gt;Node7</title>
<path fill="none" stroke="midnightblue" d="M250.701,-145.131C265.654,-141.196 282.184,-136.846 298.029,-132.677"/>
<polygon fill="midnightblue" stroke="midnightblue" points="299.006,-136.039 307.786,-130.109 297.224,-129.269 299.006,-136.039"/>
</g>
<!-- Node7&#45;&gt;Node6 -->
<g id="edge14" class="edge"><title>Node7&#45;&gt;Node6</title>
<path fill="none" stroke="midnightblue" d="M430.207,-121.695C439.964,-122.921 450.203,-124.208 460.372,-125.487"/>
<polygon fill="midnightblue" stroke="midnightblue" points="460.139,-128.985 470.497,-126.76 461.012,-122.04 460.139,-128.985"/>
</g>
<!-- Node10 -->
<g id="node20" class="node"><title>Node10</title>
<a xlink:href="../../d9/d13/classproject_1_1_b_g_i___footprint_pad.html#a066dd522d7c2b9f0f85b2a103aba0542" target="_top" xlink:title="project::BGI_FootprintPad\l::shape">
<polygon fill="white" stroke="black" points="304,-0 304,-34 434,-34 434,-0 304,-0"/>
<text text-anchor="start" x="312" y="-21" font-family="Helvetica,sans-Serif" font-size="10.00">project::BGI_FootprintPad</text>
<text text-anchor="middle" x="369" y="-8" font-family="Helvetica,sans-Serif" font-size="10.00">::shape</text>
</a>
</g>
<!-- Node9&#45;&gt;Node10 -->
<g id="edge20" class="edge"><title>Node9&#45;&gt;Node10</title>
<path fill="none" stroke="midnightblue" d="M259.252,-17C270.444,-17 282.241,-17 293.784,-17"/>
<polygon fill="midnightblue" stroke="midnightblue" points="293.841,-20.5001 303.841,-17 293.841,-13.5001 293.841,-20.5001"/>
</g>
</g>
</svg>
