<?xml version="1.0" encoding="UTF-8" standalone="no"?>
<!DOCTYPE svg PUBLIC "-//W3C//DTD SVG 1.1//EN"
 "http://www.w3.org/Graphics/SVG/1.1/DTD/svg11.dtd">
<!-- Generated by graphviz version 2.26.3 (20100126.1600)
 -->
<!-- Title: /home/travis/build/LibrePCB/LibrePCB/libs/librepcbproject/library/cmd/cmdprojectlibraryaddelement.h Pages: 1 -->
<svg width="556pt" height="180pt"
 viewBox="0.00 0.00 556.00 180.00" xmlns="http://www.w3.org/2000/svg" xmlns:xlink="http://www.w3.org/1999/xlink">
<g id="graph1" class="graph" transform="scale(1 1) rotate(0) translate(4 176)">
<title>/home/travis/build/LibrePCB/LibrePCB/libs/librepcbproject/library/cmd/cmdprojectlibraryaddelement.h</title>
<polygon fill="white" stroke="white" points="-4,5 -4,-176 553,-176 553,5 -4,5"/>
<!-- Node1 -->
<g id="node1" class="node"><title>Node1</title>
<polygon fill="#bfbfbf" stroke="black" points="216,-111 216,-171 390,-171 390,-111 216,-111"/>
<text text-anchor="start" x="224" y="-158" font-family="Helvetica,sans-Serif" font-size="10.00">/home/travis/build</text>
<text text-anchor="start" x="224" y="-145" font-family="Helvetica,sans-Serif" font-size="10.00">/LibrePCB/LibrePCB/libs</text>
<text text-anchor="start" x="224" y="-132" font-family="Helvetica,sans-Serif" font-size="10.00">/librepcbproject/library</text>
<text text-anchor="middle" x="303" y="-119" font-family="Helvetica,sans-Serif" font-size="10.00">/cmd/cmdprojectlibraryaddelement.h</text>
</g>
<!-- Node2 -->
<g id="node3" class="node"><title>Node2</title>
<a xlink:href="../../da/d6c/cmdprojectlibraryaddelement_8cpp.html" target="_top" xlink:title="/home/travis/build\l/LibrePCB/LibrePCB/libs\l/librepcbproject/library\l/cmd/cmdprojectlibraryaddelement.cpp">
<polygon fill="white" stroke="black" points="-0.5,-7 -0.5,-67 184.5,-67 184.5,-7 -0.5,-7"/>
<text text-anchor="start" x="7.5" y="-54" font-family="Helvetica,sans-Serif" font-size="10.00">/home/travis/build</text>
<text text-anchor="start" x="7.5" y="-41" font-family="Helvetica,sans-Serif" font-size="10.00">/LibrePCB/LibrePCB/libs</text>
<text text-anchor="start" x="7.5" y="-28" font-family="Helvetica,sans-Serif" font-size="10.00">/librepcbproject/library</text>
<text text-anchor="middle" x="92" y="-15" font-family="Helvetica,sans-Serif" font-size="10.00">/cmd/cmdprojectlibraryaddelement.cpp</text>
</a>
</g>
<!-- Node1&#45;&gt;Node2 -->
<g id="edge2" class="edge"><title>Node1&#45;&gt;Node2</title>
<path fill="none" stroke="midnightblue" d="M232.954,-106.475C207.05,-93.7071 177.919,-79.3487 152.893,-67.0135"/>
<polygon fill="midnightblue" stroke="midnightblue" points="231.453,-109.637 241.97,-110.919 234.548,-103.358 231.453,-109.637"/>
</g>
<!-- Node3 -->
<g id="node5" class="node"><title>Node3</title>
<a xlink:href="../../de/dd2/unplacedcomponentsdock_8cpp.html" target="_top" xlink:title="/home/travis/build\l/LibrePCB/LibrePCB/libs\l/librepcbprojecteditor\l/boardeditor/unplacedcomponentsdock.cpp">
<polygon fill="white" stroke="black" points="201.5,-7 201.5,-67 404.5,-67 404.5,-7 201.5,-7"/>
<text text-anchor="start" x="209.5" y="-54" font-family="Helvetica,sans-Serif" font-size="10.00">/home/travis/build</text>
<text text-anchor="start" x="209.5" y="-41" font-family="Helvetica,sans-Serif" font-size="10.00">/LibrePCB/LibrePCB/libs</text>
<text text-anchor="start" x="209.5" y="-28" font-family="Helvetica,sans-Serif" font-size="10.00">/librepcbprojecteditor</text>
<text text-anchor="middle" x="303" y="-15" font-family="Helvetica,sans-Serif" font-size="10.00">/boardeditor/unplacedcomponentsdock.cpp</text>
</a>
</g>
<!-- Node1&#45;&gt;Node3 -->
<g id="edge4" class="edge"><title>Node1&#45;&gt;Node3</title>
<path fill="none" stroke="midnightblue" d="M303,-100.867C303,-89.6109 303,-77.5711 303,-67.0135"/>
<polygon fill="midnightblue" stroke="midnightblue" points="299.5,-100.919 303,-110.919 306.5,-100.919 299.5,-100.919"/>
</g>
<!-- Node4 -->
<g id="node7" class="node"><title>Node4</title>
<a xlink:href="../../d8/df2/ses__addcomponents_8cpp.html" target="_top" xlink:title="/home/travis/build\l/LibrePCB/LibrePCB/libs\l/librepcbprojecteditor\l/schematiceditor/fsm/ses\l_addcomponents.cpp">
<polygon fill="white" stroke="black" points="421.5,-0.5 421.5,-73.5 548.5,-73.5 548.5,-0.5 421.5,-0.5"/>
<text text-anchor="start" x="429.5" y="-60.5" font-family="Helvetica,sans-Serif" font-size="10.00">/home/travis/build</text>
<text text-anchor="start" x="429.5" y="-47.5" font-family="Helvetica,sans-Serif" font-size="10.00">/LibrePCB/LibrePCB/libs</text>
<text text-anchor="start" x="429.5" y="-34.5" font-family="Helvetica,sans-Serif" font-size="10.00">/librepcbprojecteditor</text>
<text text-anchor="start" x="429.5" y="-21.5" font-family="Helvetica,sans-Serif" font-size="10.00">/schematiceditor/fsm/ses</text>
<text text-anchor="middle" x="485" y="-8.5" font-family="Helvetica,sans-Serif" font-size="10.00">_addcomponents.cpp</text>
</a>
</g>
<!-- Node1&#45;&gt;Node4 -->
<g id="edge6" class="edge"><title>Node1&#45;&gt;Node4</title>
<path fill="none" stroke="midnightblue" d="M364.452,-105.885C382.719,-95.4462 402.769,-83.9892 421.183,-73.4666"/>
<polygon fill="midnightblue" stroke="midnightblue" points="362.588,-102.919 355.642,-110.919 366.061,-108.996 362.588,-102.919"/>
</g>
</g>
</svg>
