<?xml version="1.0" encoding="UTF-8" standalone="no"?>
<!DOCTYPE svg PUBLIC "-//W3C//DTD SVG 1.1//EN"
 "http://www.w3.org/Graphics/SVG/1.1/DTD/svg11.dtd">
<!-- Generated by graphviz version 2.26.3 (20100126.1600)
 -->
<!-- Title: getGenComp Pages: 1 -->
<svg width="678pt" height="364pt"
 viewBox="0.00 0.00 678.00 364.00" xmlns="http://www.w3.org/2000/svg" xmlns:xlink="http://www.w3.org/1999/xlink">
<g id="graph1" class="graph" transform="scale(1 1) rotate(0) translate(4 360)">
<title>getGenComp</title>
<polygon fill="white" stroke="white" points="-4,5 -4,-360 675,-360 675,5 -4,5"/>
<!-- Node1 -->
<g id="node1" class="node"><title>Node1</title>
<polygon fill="#bfbfbf" stroke="black" points="0,-224.5 0,-245.5 74,-245.5 74,-224.5 0,-224.5"/>
<text text-anchor="middle" x="37" y="-232.5" font-family="Helvetica,sans-Serif" font-size="10.00">getGenComp</text>
</g>
<!-- Node2 -->
<g id="node3" class="node"><title>Node2</title>
<a xlink:href="../../d5/d07/classproject_1_1_board.html#a56ae9f28c406912ae4a5a893087a72ca" target="_top" xlink:title="project::Board::updateErc\lMessages">
<polygon fill="white" stroke="black" points="121,-293 121,-327 249,-327 249,-293 121,-293"/>
<text text-anchor="start" x="129" y="-314" font-family="Helvetica,sans-Serif" font-size="10.00">project::Board::updateErc</text>
<text text-anchor="middle" x="185" y="-301" font-family="Helvetica,sans-Serif" font-size="10.00">Messages</text>
</a>
</g>
<!-- Node1&#45;&gt;Node2 -->
<g id="edge2" class="edge"><title>Node1&#45;&gt;Node2</title>
<path fill="none" stroke="midnightblue" d="M58.414,-251.525C72.5069,-261.847 91.6732,-274.864 110,-284 116.413,-287.197 123.316,-290.168 130.244,-292.873"/>
<polygon fill="midnightblue" stroke="midnightblue" points="60.4554,-248.682 50.3477,-245.506 56.2688,-254.292 60.4554,-248.682"/>
</g>
<!-- Node5 -->
<g id="node9" class="node"><title>Node5</title>
<a xlink:href="../../d6/d12/classproject_1_1_s_i___symbol_pin.html#a2e791a2f0f926f88b6d3a8b6d73a03f0" target="_top" xlink:title="project::SI_SymbolPin\l::SI_SymbolPin">
<polygon fill="white" stroke="black" points="128,-241 128,-275 242,-275 242,-241 128,-241"/>
<text text-anchor="start" x="136" y="-262" font-family="Helvetica,sans-Serif" font-size="10.00">project::SI_SymbolPin</text>
<text text-anchor="middle" x="185" y="-249" font-family="Helvetica,sans-Serif" font-size="10.00">::SI_SymbolPin</text>
</a>
</g>
<!-- Node1&#45;&gt;Node5 -->
<g id="edge8" class="edge"><title>Node1&#45;&gt;Node5</title>
<path fill="none" stroke="midnightblue" d="M84.5586,-242.391C98.3203,-244.53 113.487,-246.886 127.773,-249.107"/>
<polygon fill="midnightblue" stroke="midnightblue" points="84.7655,-238.881 74.3466,-240.804 83.6905,-245.798 84.7655,-238.881"/>
</g>
<!-- Node6 -->
<g id="node11" class="node"><title>Node6</title>
<a xlink:href="../../dc/dbb/classproject_1_1_unplaced_components_dock.html#af175cf3f7948ac944834cad09819b753" target="_top" xlink:title="project::UnplacedComponents\lDock::on_pushButton_clicked">
<polygon fill="white" stroke="black" points="304.5,-208 304.5,-242 453.5,-242 453.5,-208 304.5,-208"/>
<text text-anchor="start" x="312.5" y="-229" font-family="Helvetica,sans-Serif" font-size="10.00">project::UnplacedComponents</text>
<text text-anchor="middle" x="379" y="-216" font-family="Helvetica,sans-Serif" font-size="10.00">Dock::on_pushButton_clicked</text>
</a>
</g>
<!-- Node1&#45;&gt;Node6 -->
<g id="edge10" class="edge"><title>Node1&#45;&gt;Node6</title>
<path fill="none" stroke="midnightblue" d="M84.3514,-232.95C92.8884,-232.61 101.708,-232.278 110,-232 175.717,-229.795 250.486,-227.898 304.488,-226.638"/>
<polygon fill="midnightblue" stroke="midnightblue" points="83.9824,-229.462 74.1329,-233.366 84.2669,-236.456 83.9824,-229.462"/>
</g>
<!-- Node7 -->
<g id="node13" class="node"><title>Node7</title>
<a xlink:href="../../dc/dbb/classproject_1_1_unplaced_components_dock.html#ad000d7056be9060e68ab7f2548d12946" target="_top" xlink:title="project::UnplacedComponents\lDock::updateComponentsList">
<polygon fill="white" stroke="black" points="110.5,-127 110.5,-161 259.5,-161 259.5,-127 110.5,-127"/>
<text text-anchor="start" x="118.5" y="-148" font-family="Helvetica,sans-Serif" font-size="10.00">project::UnplacedComponents</text>
<text text-anchor="middle" x="185" y="-135" font-family="Helvetica,sans-Serif" font-size="10.00">Dock::updateComponentsList</text>
</a>
</g>
<!-- Node1&#45;&gt;Node7 -->
<g id="edge12" class="edge"><title>Node1&#45;&gt;Node7</title>
<path fill="none" stroke="midnightblue" d="M62.9697,-219.032C89.4009,-202.781 130.226,-177.679 157.274,-161.048"/>
<polygon fill="midnightblue" stroke="midnightblue" points="60.9525,-216.164 54.2671,-224.383 64.6189,-222.127 60.9525,-216.164"/>
</g>
<!-- Node3 -->
<g id="node5" class="node"><title>Node3</title>
<a xlink:href="../../d5/d07/classproject_1_1_board.html#a95b66fc6a5db1ecdd9d52fbe963818e0" target="_top" xlink:title="project::Board::addToProject">
<polygon fill="white" stroke="black" points="308.5,-334.5 308.5,-355.5 449.5,-355.5 449.5,-334.5 308.5,-334.5"/>
<text text-anchor="middle" x="379" y="-342.5" font-family="Helvetica,sans-Serif" font-size="10.00">project::Board::addToProject</text>
</a>
</g>
<!-- Node2&#45;&gt;Node3 -->
<g id="edge4" class="edge"><title>Node2&#45;&gt;Node3</title>
<path fill="none" stroke="midnightblue" d="M258.942,-323.34C279.342,-327.02 301.187,-330.961 320.575,-334.459"/>
<polygon fill="midnightblue" stroke="midnightblue" points="259.523,-319.888 249.061,-321.557 258.28,-326.777 259.523,-319.888"/>
</g>
<!-- Node4 -->
<g id="node7" class="node"><title>Node4</title>
<a xlink:href="../../d5/d07/classproject_1_1_board.html#ad8078122fac80d0623a2604e7ca69777" target="_top" xlink:title="project::Board::removeFrom\lProject">
<polygon fill="white" stroke="black" points="310,-282 310,-316 448,-316 448,-282 310,-282"/>
<text text-anchor="start" x="318" y="-303" font-family="Helvetica,sans-Serif" font-size="10.00">project::Board::removeFrom</text>
<text text-anchor="middle" x="379" y="-290" font-family="Helvetica,sans-Serif" font-size="10.00">Project</text>
</a>
</g>
<!-- Node2&#45;&gt;Node4 -->
<g id="edge6" class="edge"><title>Node2&#45;&gt;Node4</title>
<path fill="none" stroke="midnightblue" d="M259.235,-305.791C275.8,-304.852 293.305,-303.859 309.663,-302.931"/>
<polygon fill="midnightblue" stroke="midnightblue" points="258.846,-302.307 249.061,-306.368 259.243,-309.296 258.846,-302.307"/>
</g>
<!-- Node7&#45;&gt;Node6 -->
<g id="edge22" class="edge"><title>Node7&#45;&gt;Node6</title>
<path fill="none" stroke="midnightblue" d="M225.589,-166.021C246.305,-176.767 272.116,-189.41 296,-199 303.847,-202.151 312.233,-205.167 320.546,-207.957"/>
<polygon fill="midnightblue" stroke="midnightblue" points="226.936,-162.776 216.454,-161.235 223.688,-168.977 226.936,-162.776"/>
</g>
<!-- Node8 -->
<g id="node15" class="node"><title>Node8</title>
<a xlink:href="../../dc/dbb/classproject_1_1_unplaced_components_dock.html#abda2283f458f0fc17a0ccd8f61df7528" target="_top" xlink:title="project::UnplacedComponents\lDock::UnplacedComponentsDock">
<polygon fill="white" stroke="black" points="296,-156 296,-190 462,-190 462,-156 296,-156"/>
<text text-anchor="start" x="304" y="-177" font-family="Helvetica,sans-Serif" font-size="10.00">project::UnplacedComponents</text>
<text text-anchor="middle" x="379" y="-164" font-family="Helvetica,sans-Serif" font-size="10.00">Dock::UnplacedComponentsDock</text>
</a>
</g>
<!-- Node7&#45;&gt;Node8 -->
<g id="edge14" class="edge"><title>Node7&#45;&gt;Node8</title>
<path fill="none" stroke="midnightblue" d="M269.819,-156.679C278.481,-157.974 287.275,-159.289 295.918,-160.581"/>
<polygon fill="midnightblue" stroke="midnightblue" points="270.136,-153.188 259.728,-155.171 269.101,-160.111 270.136,-153.188"/>
</g>
<!-- Node9 -->
<g id="node17" class="node"><title>Node9</title>
<a xlink:href="../../dc/dbb/classproject_1_1_unplaced_components_dock.html#a5c8f1dac9d4bbb3d9985ca4d9d3c99bb" target="_top" xlink:title="project::UnplacedComponents\lDock::setBoard">
<polygon fill="white" stroke="black" points="304.5,-104 304.5,-138 453.5,-138 453.5,-104 304.5,-104"/>
<text text-anchor="start" x="312.5" y="-125" font-family="Helvetica,sans-Serif" font-size="10.00">project::UnplacedComponents</text>
<text text-anchor="middle" x="379" y="-112" font-family="Helvetica,sans-Serif" font-size="10.00">Dock::setBoard</text>
</a>
</g>
<!-- Node7&#45;&gt;Node9 -->
<g id="edge16" class="edge"><title>Node7&#45;&gt;Node9</title>
<path fill="none" stroke="midnightblue" d="M269.761,-133.951C281.264,-132.587 293.001,-131.196 304.311,-129.855"/>
<polygon fill="midnightblue" stroke="midnightblue" points="269.246,-130.487 259.728,-135.14 270.071,-137.439 269.246,-130.487"/>
</g>
<!-- Node11 -->
<g id="node21" class="node"><title>Node11</title>
<a xlink:href="../../dc/dbb/classproject_1_1_unplaced_components_dock.html#accd0a903591840efc04eae995ba9518a" target="_top" xlink:title="project::UnplacedComponents\lDock::on_btnAdd_clicked">
<polygon fill="white" stroke="black" points="304.5,-52 304.5,-86 453.5,-86 453.5,-52 304.5,-52"/>
<text text-anchor="start" x="312.5" y="-73" font-family="Helvetica,sans-Serif" font-size="10.00">project::UnplacedComponents</text>
<text text-anchor="middle" x="379" y="-60" font-family="Helvetica,sans-Serif" font-size="10.00">Dock::on_btnAdd_clicked</text>
</a>
</g>
<!-- Node7&#45;&gt;Node11 -->
<g id="edge20" class="edge"><title>Node7&#45;&gt;Node11</title>
<path fill="none" stroke="midnightblue" d="M230.232,-122.657C250.183,-113.602 274.042,-103.256 296,-95 304.198,-91.9177 312.941,-88.8974 321.563,-86.0694"/>
<polygon fill="midnightblue" stroke="midnightblue" points="228.707,-119.505 221.07,-126.848 231.62,-125.871 228.707,-119.505"/>
</g>
<!-- Node12 -->
<g id="node24" class="node"><title>Node12</title>
<a xlink:href="../../dc/dbb/classproject_1_1_unplaced_components_dock.html#ae18908ab5cceaf70614eaf307a041e8a" target="_top" xlink:title="project::UnplacedComponents\lDock::on_btnAddAll_clicked">
<polygon fill="white" stroke="black" points="304.5,-0 304.5,-34 453.5,-34 453.5,-0 304.5,-0"/>
<text text-anchor="start" x="312.5" y="-21" font-family="Helvetica,sans-Serif" font-size="10.00">project::UnplacedComponents</text>
<text text-anchor="middle" x="379" y="-8" font-family="Helvetica,sans-Serif" font-size="10.00">Dock::on_btnAddAll_clicked</text>
</a>
</g>
<!-- Node7&#45;&gt;Node12 -->
<g id="edge24" class="edge"><title>Node7&#45;&gt;Node12</title>
<path fill="none" stroke="midnightblue" d="M206.225,-119.303C227.006,-96.5387 260.623,-63.2984 296,-43 301.763,-39.6934 307.997,-36.7554 314.369,-34.1569"/>
<polygon fill="midnightblue" stroke="midnightblue" points="203.5,-117.099 199.428,-126.88 208.711,-121.773 203.5,-117.099"/>
</g>
<!-- Node10 -->
<g id="node19" class="node"><title>Node10</title>
<a xlink:href="../../dc/dbb/classproject_1_1_unplaced_components_dock.html#a538074349f49cbac4a031289b9a96e49" target="_top" xlink:title="project::UnplacedComponents\lDock::~UnplacedComponentsDock">
<polygon fill="white" stroke="black" points="498,-104 498,-138 670,-138 670,-104 498,-104"/>
<text text-anchor="start" x="506" y="-125" font-family="Helvetica,sans-Serif" font-size="10.00">project::UnplacedComponents</text>
<text text-anchor="middle" x="584" y="-112" font-family="Helvetica,sans-Serif" font-size="10.00">Dock::~UnplacedComponentsDock</text>
</a>
</g>
<!-- Node9&#45;&gt;Node10 -->
<g id="edge18" class="edge"><title>Node9&#45;&gt;Node10</title>
<path fill="none" stroke="midnightblue" d="M463.847,-121C475.124,-121 486.695,-121 497.992,-121"/>
<polygon fill="midnightblue" stroke="midnightblue" points="463.59,-117.5 453.59,-121 463.59,-124.5 463.59,-117.5"/>
</g>
</g>
</svg>
