<?xml version="1.0" encoding="UTF-8" standalone="no"?>
<!DOCTYPE svg PUBLIC "-//W3C//DTD SVG 1.1//EN"
 "http://www.w3.org/Graphics/SVG/1.1/DTD/svg11.dtd">
<!-- Generated by graphviz version 2.26.3 (20100126.1600)
 -->
<!-- Title: addToCircuit Pages: 1 -->
<svg width="868pt" height="578pt"
 viewBox="0.00 0.00 868.00 578.00" xmlns="http://www.w3.org/2000/svg" xmlns:xlink="http://www.w3.org/1999/xlink">
<g id="graph1" class="graph" transform="scale(1 1) rotate(0) translate(4 574)">
<title>addToCircuit</title>
<polygon fill="white" stroke="white" points="-4,5 -4,-574 865,-574 865,5 -4,5"/>
<!-- Node1 -->
<g id="node1" class="node"><title>Node1</title>
<polygon fill="#bfbfbf" stroke="black" points="0,-225.5 0,-246.5 72,-246.5 72,-225.5 0,-225.5"/>
<text text-anchor="middle" x="36" y="-233.5" font-family="Helvetica,sans-Serif" font-size="10.00">addToCircuit</text>
</g>
<!-- Node2 -->
<g id="node3" class="node"><title>Node2</title>
<a xlink:href="../../df/dce/classproject_1_1_gen_comp_signal_instance.html#af00f21a639ab7a55e814293e9bd76c0f" target="_top" xlink:title="project::GenCompSignalInstance\l::addToCircuit">
<polygon fill="white" stroke="black" points="108.5,-335 108.5,-369 269.5,-369 269.5,-335 108.5,-335"/>
<text text-anchor="start" x="116.5" y="-356" font-family="Helvetica,sans-Serif" font-size="10.00">project::GenCompSignalInstance</text>
<text text-anchor="middle" x="189" y="-343" font-family="Helvetica,sans-Serif" font-size="10.00">::addToCircuit</text>
</a>
</g>
<!-- Node1&#45;&gt;Node2 -->
<g id="edge2" class="edge"><title>Node1&#45;&gt;Node2</title>
<path fill="none" stroke="midnightblue" d="M50.1196,-246.705C74.499,-265.189 125.031,-303.501 157.95,-328.459"/>
<polygon fill="midnightblue" stroke="midnightblue" points="156.238,-331.553 166.321,-334.806 160.467,-325.975 156.238,-331.553"/>
</g>
<!-- Node18 -->
<g id="node35" class="node"><title>Node18</title>
<a xlink:href="../../de/d67/classproject_1_1_gen_comp_instance.html#a56ae9f28c406912ae4a5a893087a72ca" target="_top" xlink:title="updateErcMessages">
<polygon fill="white" stroke="black" points="136,-110.5 136,-131.5 242,-131.5 242,-110.5 136,-110.5"/>
<text text-anchor="middle" x="189" y="-118.5" font-family="Helvetica,sans-Serif" font-size="10.00">updateErcMessages</text>
</a>
</g>
<!-- Node1&#45;&gt;Node18 -->
<g id="edge34" class="edge"><title>Node1&#45;&gt;Node18</title>
<path fill="none" stroke="midnightblue" d="M50.1196,-225.387C76.7619,-205.362 134.638,-161.86 166.626,-137.817"/>
<polygon fill="midnightblue" stroke="midnightblue" points="169.024,-140.393 174.914,-131.587 164.818,-134.798 169.024,-140.393"/>
</g>
<!-- Node3 -->
<g id="node5" class="node"><title>Node3</title>
<a xlink:href="../../d3/d93/classproject_1_1_net_signal.html#a37fa4482dbe9d4bf285b6d549e26b9a5" target="_top" xlink:title="project::NetSignal\l::registerGenCompSignal">
<polygon fill="white" stroke="black" points="324,-387 324,-421 450,-421 450,-387 324,-387"/>
<text text-anchor="start" x="332" y="-408" font-family="Helvetica,sans-Serif" font-size="10.00">project::NetSignal</text>
<text text-anchor="middle" x="387" y="-395" font-family="Helvetica,sans-Serif" font-size="10.00">::registerGenCompSignal</text>
</a>
</g>
<!-- Node2&#45;&gt;Node3 -->
<g id="edge4" class="edge"><title>Node2&#45;&gt;Node3</title>
<path fill="none" stroke="midnightblue" d="M253.833,-369.027C273.033,-374.069 294.187,-379.625 313.873,-384.795"/>
<polygon fill="midnightblue" stroke="midnightblue" points="313.148,-388.223 323.709,-387.378 314.926,-381.453 313.148,-388.223"/>
</g>
<!-- Node4 -->
<g id="node7" class="node"><title>Node4</title>
<a xlink:href="../../df/dce/classproject_1_1_gen_comp_signal_instance.html#a56ae9f28c406912ae4a5a893087a72ca" target="_top" xlink:title="project::GenCompSignalInstance\l::updateErcMessages">
<polygon fill="white" stroke="black" points="306.5,-335 306.5,-369 467.5,-369 467.5,-335 306.5,-335"/>
<text text-anchor="start" x="314.5" y="-356" font-family="Helvetica,sans-Serif" font-size="10.00">project::GenCompSignalInstance</text>
<text text-anchor="middle" x="387" y="-343" font-family="Helvetica,sans-Serif" font-size="10.00">::updateErcMessages</text>
</a>
</g>
<!-- Node2&#45;&gt;Node4 -->
<g id="edge6" class="edge"><title>Node2&#45;&gt;Node4</title>
<path fill="none" stroke="midnightblue" d="M269.534,-352C278.23,-352 287.123,-352 295.931,-352"/>
<polygon fill="midnightblue" stroke="midnightblue" points="296.216,-355.5 306.216,-352 296.216,-348.5 296.216,-355.5"/>
</g>
<!-- Node5 -->
<g id="node9" class="node"><title>Node5</title>
<a xlink:href="../../d1/d03/classproject_1_1_circuit.html#ac48a585009b5ee63f88e0c2b5357d6e9" target="_top" xlink:title="project::Circuit::getProject">
<polygon fill="white" stroke="black" points="519.5,-548.5 519.5,-569.5 650.5,-569.5 650.5,-548.5 519.5,-548.5"/>
<text text-anchor="middle" x="585" y="-556.5" font-family="Helvetica,sans-Serif" font-size="10.00">project::Circuit::getProject</text>
</a>
</g>
<!-- Node4&#45;&gt;Node5 -->
<g id="edge8" class="edge"><title>Node4&#45;&gt;Node5</title>
<path fill="none" stroke="midnightblue" d="M457.569,-369.114C461.385,-371.676 464.912,-374.619 468,-378 517.445,-432.142 452.729,-486.584 504,-539 505.905,-540.948 507.968,-542.718 510.155,-544.325"/>
<polygon fill="midnightblue" stroke="midnightblue" points="508.764,-547.574 519.133,-549.75 512.385,-541.583 508.764,-547.574"/>
</g>
<!-- Node6 -->
<g id="node11" class="node"><title>Node6</title>
<a xlink:href="../../d2/d05/classproject_1_1_project.html#a6054e079a2e370148fce27b138686ba3" target="_top" xlink:title="Get the ProjectSettings object which contains all project settings. ">
<polygon fill="white" stroke="black" points="516,-508.5 516,-529.5 654,-529.5 654,-508.5 516,-508.5"/>
<text text-anchor="middle" x="585" y="-516.5" font-family="Helvetica,sans-Serif" font-size="10.00">project::Project::getSettings</text>
</a>
</g>
<!-- Node4&#45;&gt;Node6 -->
<g id="edge10" class="edge"><title>Node4&#45;&gt;Node6</title>
<path fill="none" stroke="midnightblue" d="M456.926,-369.125C460.949,-371.683 464.694,-374.623 468,-378 507.247,-418.097 463.403,-460.271 504,-499 505.494,-500.425 507.072,-501.753 508.721,-502.991"/>
<polygon fill="midnightblue" stroke="midnightblue" points="507.151,-506.136 517.489,-508.457 510.854,-500.196 507.151,-506.136"/>
</g>
<!-- Node7 -->
<g id="node13" class="node"><title>Node7</title>
<a xlink:href="../../d7/d04/classproject_1_1_project_settings.html#a4e1f38901d0cab44a6bdae922a877b22" target="_top" xlink:title="project::ProjectSettings\l::getLocaleOrder">
<polygon fill="white" stroke="black" points="525.5,-456 525.5,-490 644.5,-490 644.5,-456 525.5,-456"/>
<text text-anchor="start" x="533.5" y="-477" font-family="Helvetica,sans-Serif" font-size="10.00">project::ProjectSettings</text>
<text text-anchor="middle" x="585" y="-464" font-family="Helvetica,sans-Serif" font-size="10.00">::getLocaleOrder</text>
</a>
</g>
<!-- Node4&#45;&gt;Node7 -->
<g id="edge12" class="edge"><title>Node4&#45;&gt;Node7</title>
<path fill="none" stroke="midnightblue" d="M454.637,-369.011C459.41,-371.597 463.934,-374.574 468,-378 494.45,-400.29 477.55,-424.71 504,-447 507.688,-450.108 511.753,-452.846 516.039,-455.258"/>
<polygon fill="midnightblue" stroke="midnightblue" points="514.585,-458.444 525.098,-459.766 517.704,-452.177 514.585,-458.444"/>
</g>
<!-- Node8 -->
<g id="node15" class="node"><title>Node8</title>
<a xlink:href="../../d4/d5f/classlibrary_1_1_gen_comp_signal.html#a01f0309d43de518f4e94c724d22f4502" target="_top" xlink:title="library::GenCompSignal\l::getName">
<polygon fill="white" stroke="black" points="525,-404 525,-438 645,-438 645,-404 525,-404"/>
<text text-anchor="start" x="533" y="-425" font-family="Helvetica,sans-Serif" font-size="10.00">library::GenCompSignal</text>
<text text-anchor="middle" x="585" y="-412" font-family="Helvetica,sans-Serif" font-size="10.00">::getName</text>
</a>
</g>
<!-- Node4&#45;&gt;Node8 -->
<g id="edge14" class="edge"><title>Node4&#45;&gt;Node8</title>
<path fill="none" stroke="midnightblue" d="M443.546,-369.105C451.81,-371.906 460.169,-374.91 468,-378 484.459,-384.496 487.541,-388.504 504,-395 508.772,-396.883 513.74,-398.734 518.763,-400.527"/>
<polygon fill="midnightblue" stroke="midnightblue" points="517.859,-403.918 528.454,-403.895 520.158,-397.306 517.859,-403.918"/>
</g>
<!-- Node10 -->
<g id="node19" class="node"><title>Node10</title>
<a xlink:href="../../de/d67/classproject_1_1_gen_comp_instance.html#ab0c96f485564e41206ce9a4ce42ba389" target="_top" xlink:title="getName">
<polygon fill="white" stroke="black" points="557,-364.5 557,-385.5 613,-385.5 613,-364.5 557,-364.5"/>
<text text-anchor="middle" x="585" y="-372.5" font-family="Helvetica,sans-Serif" font-size="10.00">getName</text>
</a>
</g>
<!-- Node4&#45;&gt;Node10 -->
<g id="edge18" class="edge"><title>Node4&#45;&gt;Node10</title>
<path fill="none" stroke="midnightblue" d="M467.534,-361.355C494.893,-364.533 524.202,-367.938 546.7,-370.551"/>
<polygon fill="midnightblue" stroke="midnightblue" points="546.505,-374.052 556.842,-371.729 547.312,-367.099 546.505,-374.052"/>
</g>
<!-- Node11 -->
<g id="node21" class="node"><title>Node11</title>
<a xlink:href="../../d3/d93/classproject_1_1_net_signal.html#ab0c96f485564e41206ce9a4ce42ba389" target="_top" xlink:title="project::NetSignal\l::getName">
<polygon fill="white" stroke="black" points="537.5,-312 537.5,-346 632.5,-346 632.5,-312 537.5,-312"/>
<text text-anchor="start" x="545.5" y="-333" font-family="Helvetica,sans-Serif" font-size="10.00">project::NetSignal</text>
<text text-anchor="middle" x="585" y="-320" font-family="Helvetica,sans-Serif" font-size="10.00">::getName</text>
</a>
</g>
<!-- Node4&#45;&gt;Node11 -->
<g id="edge20" class="edge"><title>Node4&#45;&gt;Node11</title>
<path fill="none" stroke="midnightblue" d="M467.534,-342.645C487.498,-340.326 508.502,-337.886 527.139,-335.721"/>
<polygon fill="midnightblue" stroke="midnightblue" points="527.698,-339.18 537.228,-334.549 526.89,-332.227 527.698,-339.18"/>
</g>
<!-- Node12 -->
<g id="node23" class="node"><title>Node12</title>
<a xlink:href="../../df/dce/classproject_1_1_gen_comp_signal_instance.html#aa821b370fece67458578c040f67873e6" target="_top" xlink:title="project::GenCompSignalInstance\l::getForcedNetSignalName">
<polygon fill="white" stroke="black" points="504.5,-260 504.5,-294 665.5,-294 665.5,-260 504.5,-260"/>
<text text-anchor="start" x="512.5" y="-281" font-family="Helvetica,sans-Serif" font-size="10.00">project::GenCompSignalInstance</text>
<text text-anchor="middle" x="585" y="-268" font-family="Helvetica,sans-Serif" font-size="10.00">::getForcedNetSignalName</text>
</a>
</g>
<!-- Node4&#45;&gt;Node12 -->
<g id="edge22" class="edge"><title>Node4&#45;&gt;Node12</title>
<path fill="none" stroke="midnightblue" d="M425.402,-334.936C448.077,-325.107 477.453,-312.799 504,-303 509.109,-301.114 514.427,-299.232 519.788,-297.392"/>
<polygon fill="midnightblue" stroke="midnightblue" points="521.09,-300.646 529.447,-294.133 518.853,-294.014 521.09,-300.646"/>
</g>
<!-- Node15 -->
<g id="node29" class="node"><title>Node15</title>
<a xlink:href="../../d4/d5f/classlibrary_1_1_gen_comp_signal.html#a7b7ad6f6434c5a98612c3a4520f33901" target="_top" xlink:title="library::GenCompSignal\l::isRequired">
<polygon fill="white" stroke="black" points="525,-208 525,-242 645,-242 645,-208 525,-208"/>
<text text-anchor="start" x="533" y="-229" font-family="Helvetica,sans-Serif" font-size="10.00">library::GenCompSignal</text>
<text text-anchor="middle" x="585" y="-216" font-family="Helvetica,sans-Serif" font-size="10.00">::isRequired</text>
</a>
</g>
<!-- Node4&#45;&gt;Node15 -->
<g id="edge28" class="edge"><title>Node4&#45;&gt;Node15</title>
<path fill="none" stroke="midnightblue" d="M402.428,-334.966C423.411,-312.74 463.048,-273.981 504,-251 507.695,-248.927 511.579,-246.991 515.563,-245.189"/>
<polygon fill="midnightblue" stroke="midnightblue" points="517.136,-248.325 525,-241.224 514.425,-241.871 517.136,-248.325"/>
</g>
<!-- Node16 -->
<g id="node31" class="node"><title>Node16</title>
<a xlink:href="../../df/dce/classproject_1_1_gen_comp_signal_instance.html#a5efcbff9463612d09935ed254844cc5b" target="_top" xlink:title="project::GenCompSignalInstance\l::isNetSignalNameForced">
<polygon fill="white" stroke="black" points="504.5,-156 504.5,-190 665.5,-190 665.5,-156 504.5,-156"/>
<text text-anchor="start" x="512.5" y="-177" font-family="Helvetica,sans-Serif" font-size="10.00">project::GenCompSignalInstance</text>
<text text-anchor="middle" x="585" y="-164" font-family="Helvetica,sans-Serif" font-size="10.00">::isNetSignalNameForced</text>
</a>
</g>
<!-- Node4&#45;&gt;Node16 -->
<g id="edge30" class="edge"><title>Node4&#45;&gt;Node16</title>
<path fill="none" stroke="midnightblue" d="M395.573,-334.785C412.161,-303.213 451.671,-235.908 504,-199 506.112,-197.51 508.314,-196.103 510.583,-194.773"/>
<polygon fill="midnightblue" stroke="midnightblue" points="512.401,-197.772 519.625,-190.022 509.145,-191.575 512.401,-197.772"/>
</g>
<!-- Node9 -->
<g id="node17" class="node"><title>Node9</title>
<a xlink:href="../../dd/d8a/classlibrary_1_1_library_base_element.html#a3de489fd5ff14ef1709e7ba41628ab3e" target="_top" xlink:title="Get the string of a specific locale from a QMap. ">
<polygon fill="white" stroke="black" points="712.5,-404 712.5,-438 849.5,-438 849.5,-404 712.5,-404"/>
<text text-anchor="start" x="720.5" y="-425" font-family="Helvetica,sans-Serif" font-size="10.00">library::LibraryBaseElement</text>
<text text-anchor="middle" x="781" y="-412" font-family="Helvetica,sans-Serif" font-size="10.00">::localeStringFromList</text>
</a>
</g>
<!-- Node8&#45;&gt;Node9 -->
<g id="edge16" class="edge"><title>Node8&#45;&gt;Node9</title>
<path fill="none" stroke="midnightblue" d="M645.138,-421C663.166,-421 683.214,-421 702.253,-421"/>
<polygon fill="midnightblue" stroke="midnightblue" points="702.403,-424.5 712.403,-421 702.403,-417.5 702.403,-424.5"/>
</g>
<!-- Node13 -->
<g id="node25" class="node"><title>Node13</title>
<a xlink:href="../../d4/d5f/classlibrary_1_1_gen_comp_signal.html#aaaec8b99650920ff82534ae863e5559b" target="_top" xlink:title="library::GenCompSignal\l::getForcedNetName">
<polygon fill="white" stroke="black" points="721,-234 721,-268 841,-268 841,-234 721,-234"/>
<text text-anchor="start" x="729" y="-255" font-family="Helvetica,sans-Serif" font-size="10.00">library::GenCompSignal</text>
<text text-anchor="middle" x="781" y="-242" font-family="Helvetica,sans-Serif" font-size="10.00">::getForcedNetName</text>
</a>
</g>
<!-- Node12&#45;&gt;Node13 -->
<g id="edge24" class="edge"><title>Node12&#45;&gt;Node13</title>
<path fill="none" stroke="midnightblue" d="M665.569,-266.312C680.582,-264.321 696.159,-262.254 710.828,-260.308"/>
<polygon fill="midnightblue" stroke="midnightblue" points="711.368,-263.768 720.821,-258.983 710.448,-256.828 711.368,-263.768"/>
</g>
<!-- Node14 -->
<g id="node27" class="node"><title>Node14</title>
<a xlink:href="../../d9/d41/class_i_f___attribute_provider.html#a64e9824168a64622ace994d0ce6dd8ba" target="_top" xlink:title="Replace all variables in a text with their attribute values. ">
<polygon fill="white" stroke="black" points="702.5,-286 702.5,-320 859.5,-320 859.5,-286 702.5,-286"/>
<text text-anchor="start" x="710.5" y="-307" font-family="Helvetica,sans-Serif" font-size="10.00">IF_AttributeProvider</text>
<text text-anchor="middle" x="781" y="-294" font-family="Helvetica,sans-Serif" font-size="10.00">::replaceVariablesWithAttributes</text>
</a>
</g>
<!-- Node12&#45;&gt;Node14 -->
<g id="edge26" class="edge"><title>Node12&#45;&gt;Node14</title>
<path fill="none" stroke="midnightblue" d="M665.569,-287.688C674.391,-288.858 683.408,-290.054 692.321,-291.236"/>
<polygon fill="midnightblue" stroke="midnightblue" points="691.951,-294.718 702.324,-292.563 692.871,-287.779 691.951,-294.718"/>
</g>
<!-- Node17 -->
<g id="node33" class="node"><title>Node17</title>
<a xlink:href="../../d4/d5f/classlibrary_1_1_gen_comp_signal.html#a5efcbff9463612d09935ed254844cc5b" target="_top" xlink:title="library::GenCompSignal\l::isNetSignalNameForced">
<polygon fill="white" stroke="black" points="716.5,-156 716.5,-190 845.5,-190 845.5,-156 716.5,-156"/>
<text text-anchor="start" x="724.5" y="-177" font-family="Helvetica,sans-Serif" font-size="10.00">library::GenCompSignal</text>
<text text-anchor="middle" x="781" y="-164" font-family="Helvetica,sans-Serif" font-size="10.00">::isNetSignalNameForced</text>
</a>
</g>
<!-- Node16&#45;&gt;Node17 -->
<g id="edge32" class="edge"><title>Node16&#45;&gt;Node17</title>
<path fill="none" stroke="midnightblue" d="M665.569,-173C679.031,-173 692.947,-173 706.255,-173"/>
<polygon fill="midnightblue" stroke="midnightblue" points="706.296,-176.5 716.296,-173 706.296,-169.5 706.296,-176.5"/>
</g>
<!-- Node19 -->
<g id="node37" class="node"><title>Node19</title>
<a xlink:href="../../de/d67/classproject_1_1_gen_comp_instance.html#ab56d32f3df77886336513524c2adbf00" target="_top" xlink:title="getUnplacedRequiredSymbols\lCount">
<polygon fill="white" stroke="black" points="312.5,-104 312.5,-138 461.5,-138 461.5,-104 312.5,-104"/>
<text text-anchor="start" x="320.5" y="-125" font-family="Helvetica,sans-Serif" font-size="10.00">getUnplacedRequiredSymbols</text>
<text text-anchor="middle" x="387" y="-112" font-family="Helvetica,sans-Serif" font-size="10.00">Count</text>
</a>
</g>
<!-- Node18&#45;&gt;Node19 -->
<g id="edge36" class="edge"><title>Node18&#45;&gt;Node19</title>
<path fill="none" stroke="midnightblue" d="M242.06,-121C260.483,-121 281.634,-121 301.98,-121"/>
<polygon fill="midnightblue" stroke="midnightblue" points="302.206,-124.5 312.206,-121 302.206,-117.5 302.206,-124.5"/>
</g>
<!-- Node23 -->
<g id="node45" class="node"><title>Node23</title>
<a xlink:href="../../de/d67/classproject_1_1_gen_comp_instance.html#a590c3eaacaa9f4ce8ed630d7f00f47a4" target="_top" xlink:title="getUnplacedOptionalSymbols\lCount">
<polygon fill="white" stroke="black" points="314,-52 314,-86 460,-86 460,-52 314,-52"/>
<text text-anchor="start" x="322" y="-73" font-family="Helvetica,sans-Serif" font-size="10.00">getUnplacedOptionalSymbols</text>
<text text-anchor="middle" x="387" y="-60" font-family="Helvetica,sans-Serif" font-size="10.00">Count</text>
</a>
</g>
<!-- Node18&#45;&gt;Node23 -->
<g id="edge44" class="edge"><title>Node18&#45;&gt;Node23</title>
<path fill="none" stroke="midnightblue" d="M229.068,-110.477C252.924,-104.212 283.957,-96.0618 312.193,-88.6463"/>
<polygon fill="midnightblue" stroke="midnightblue" points="313.265,-91.9836 322.047,-86.0582 311.486,-85.2132 313.265,-91.9836"/>
</g>
<!-- Node20 -->
<g id="node39" class="node"><title>Node20</title>
<a xlink:href="../../d7/dff/classlibrary_1_1_gen_comp_symb_var.html#a95be340ed5134b5b4fc05ab47e4c9c34" target="_top" xlink:title="library::GenCompSymbVar\l::getItems">
<polygon fill="white" stroke="black" points="518,-104 518,-138 652,-138 652,-104 518,-104"/>
<text text-anchor="start" x="526" y="-125" font-family="Helvetica,sans-Serif" font-size="10.00">library::GenCompSymbVar</text>
<text text-anchor="middle" x="585" y="-112" font-family="Helvetica,sans-Serif" font-size="10.00">::getItems</text>
</a>
</g>
<!-- Node19&#45;&gt;Node20 -->
<g id="edge38" class="edge"><title>Node19&#45;&gt;Node20</title>
<path fill="none" stroke="midnightblue" d="M461.573,-121C476.626,-121 492.482,-121 507.628,-121"/>
<polygon fill="midnightblue" stroke="midnightblue" points="507.982,-124.5 517.982,-121 507.982,-117.5 507.982,-124.5"/>
</g>
<!-- Node21 -->
<g id="node41" class="node"><title>Node21</title>
<a xlink:href="../../d5/d1e/classlibrary_1_1_gen_comp_symb_var_item.html#a7b7ad6f6434c5a98612c3a4520f33901" target="_top" xlink:title="library::GenCompSymbVarItem\l::isRequired">
<polygon fill="white" stroke="black" points="508.5,-52 508.5,-86 661.5,-86 661.5,-52 508.5,-52"/>
<text text-anchor="start" x="516.5" y="-73" font-family="Helvetica,sans-Serif" font-size="10.00">library::GenCompSymbVarItem</text>
<text text-anchor="middle" x="585" y="-60" font-family="Helvetica,sans-Serif" font-size="10.00">::isRequired</text>
</a>
</g>
<!-- Node19&#45;&gt;Node21 -->
<g id="edge40" class="edge"><title>Node19&#45;&gt;Node21</title>
<path fill="none" stroke="midnightblue" d="M451.833,-103.973C470.465,-99.08 490.937,-93.7033 510.123,-88.6647"/>
<polygon fill="midnightblue" stroke="midnightblue" points="511.239,-91.9904 520.022,-86.065 509.461,-85.22 511.239,-91.9904"/>
</g>
<!-- Node22 -->
<g id="node43" class="node"><title>Node22</title>
<a xlink:href="../../d5/d1e/classlibrary_1_1_gen_comp_symb_var_item.html#ada9b237a8629c03e16491a72730b456b" target="_top" xlink:title="library::GenCompSymbVarItem\l::getUuid">
<polygon fill="white" stroke="black" points="508.5,-0 508.5,-34 661.5,-34 661.5,-0 508.5,-0"/>
<text text-anchor="start" x="516.5" y="-21" font-family="Helvetica,sans-Serif" font-size="10.00">library::GenCompSymbVarItem</text>
<text text-anchor="middle" x="585" y="-8" font-family="Helvetica,sans-Serif" font-size="10.00">::getUuid</text>
</a>
</g>
<!-- Node19&#45;&gt;Node22 -->
<g id="edge42" class="edge"><title>Node19&#45;&gt;Node22</title>
<path fill="none" stroke="midnightblue" d="M453.367,-103.82C458.537,-101.265 463.491,-98.3423 468,-95 490.581,-78.2602 481.419,-59.7398 504,-43 505.832,-41.6422 507.737,-40.3536 509.7,-39.1308"/>
<polygon fill="midnightblue" stroke="midnightblue" points="511.583,-42.0892 518.633,-34.1804 508.189,-35.9666 511.583,-42.0892"/>
</g>
<!-- Node23&#45;&gt;Node20 -->
<g id="edge46" class="edge"><title>Node23&#45;&gt;Node20</title>
<path fill="none" stroke="midnightblue" d="M451.833,-86.0267C470.465,-90.92 490.937,-96.2967 510.123,-101.335"/>
<polygon fill="midnightblue" stroke="midnightblue" points="509.461,-104.78 520.022,-103.935 511.239,-98.0096 509.461,-104.78"/>
</g>
<!-- Node23&#45;&gt;Node21 -->
<g id="edge48" class="edge"><title>Node23&#45;&gt;Node21</title>
<path fill="none" stroke="midnightblue" d="M460.165,-69C472.596,-69 485.61,-69 498.347,-69"/>
<polygon fill="midnightblue" stroke="midnightblue" points="498.487,-72.5001 508.487,-69 498.487,-65.5001 498.487,-72.5001"/>
</g>
<!-- Node23&#45;&gt;Node22 -->
<g id="edge50" class="edge"><title>Node23&#45;&gt;Node22</title>
<path fill="none" stroke="midnightblue" d="M451.833,-51.9733C470.465,-47.08 490.937,-41.7033 510.123,-36.6647"/>
<polygon fill="midnightblue" stroke="midnightblue" points="511.239,-39.9904 520.022,-34.065 509.461,-33.22 511.239,-39.9904"/>
</g>
</g>
</svg>
