<?xml version="1.0" encoding="UTF-8" standalone="no"?>
<!DOCTYPE svg PUBLIC "-//W3C//DTD SVG 1.1//EN"
 "http://www.w3.org/Graphics/SVG/1.1/DTD/svg11.dtd">
<!-- Generated by graphviz version 2.26.3 (20100126.1600)
 -->
<!-- Title: getWidth Pages: 1 -->
<svg width="712pt" height="198pt"
 viewBox="0.00 0.00 712.00 198.00" xmlns="http://www.w3.org/2000/svg" xmlns:xlink="http://www.w3.org/1999/xlink">
<g id="graph1" class="graph" transform="scale(1 1) rotate(0) translate(4 194)">
<title>getWidth</title>
<polygon fill="white" stroke="white" points="-4,5 -4,-194 709,-194 709,5 -4,5"/>
<!-- Node1 -->
<g id="node1" class="node"><title>Node1</title>
<polygon fill="#bfbfbf" stroke="black" points="0,-58.5 0,-79.5 56,-79.5 56,-58.5 0,-58.5"/>
<text text-anchor="middle" x="28" y="-66.5" font-family="Helvetica,sans-Serif" font-size="10.00">getWidth</text>
</g>
<!-- Node2 -->
<g id="node3" class="node"><title>Node2</title>
<a xlink:href="../../d9/d13/classproject_1_1_b_g_i___footprint_pad.html#abbb5db1b700a86caa85ff4c0c13142f2" target="_top" xlink:title="project::BGI_FootprintPad\l::updateCacheAndRepaint">
<polygon fill="white" stroke="black" points="92.5,-78 92.5,-112 223.5,-112 223.5,-78 92.5,-78"/>
<text text-anchor="start" x="100.5" y="-99" font-family="Helvetica,sans-Serif" font-size="10.00">project::BGI_FootprintPad</text>
<text text-anchor="middle" x="158" y="-86" font-family="Helvetica,sans-Serif" font-size="10.00">::updateCacheAndRepaint</text>
</a>
</g>
<!-- Node1&#45;&gt;Node2 -->
<g id="edge2" class="edge"><title>Node1&#45;&gt;Node2</title>
<path fill="none" stroke="midnightblue" d="M66.1904,-76.6381C74.4035,-78.2807 83.309,-80.0618 92.2338,-81.8468"/>
<polygon fill="midnightblue" stroke="midnightblue" points="66.7003,-73.1708 56.2081,-74.6416 65.3274,-80.0349 66.7003,-73.1708"/>
</g>
<!-- Node9 -->
<g id="node19" class="node"><title>Node9</title>
<a xlink:href="../../d9/d13/classproject_1_1_b_g_i___footprint_pad.html#aa77fc5d2da89e1f09b09f7c6724ed721" target="_top" xlink:title="project::BGI_FootprintPad\l::paint">
<polygon fill="white" stroke="black" points="93,-26 93,-60 223,-60 223,-26 93,-26"/>
<text text-anchor="start" x="101" y="-47" font-family="Helvetica,sans-Serif" font-size="10.00">project::BGI_FootprintPad</text>
<text text-anchor="middle" x="158" y="-34" font-family="Helvetica,sans-Serif" font-size="10.00">::paint</text>
</a>
</g>
<!-- Node1&#45;&gt;Node9 -->
<g id="edge20" class="edge"><title>Node1&#45;&gt;Node9</title>
<path fill="none" stroke="midnightblue" d="M66.0583,-61.3883C74.4712,-59.7058 83.6157,-57.8769 92.7664,-56.0467"/>
<polygon fill="midnightblue" stroke="midnightblue" points="65.3274,-57.9651 56.2081,-63.3584 66.7003,-64.8292 65.3274,-57.9651"/>
</g>
<!-- Node3 -->
<g id="node5" class="node"><title>Node3</title>
<a xlink:href="../../d4/ddd/classproject_1_1_b_i___footprint_pad.html#a212e36e19edc323ddeb73387d2f011a5" target="_top" xlink:title="project::BI_FootprintPad\l::updatePosition">
<polygon fill="white" stroke="black" points="260,-78 260,-112 382,-112 382,-78 260,-78"/>
<text text-anchor="start" x="268" y="-99" font-family="Helvetica,sans-Serif" font-size="10.00">project::BI_FootprintPad</text>
<text text-anchor="middle" x="321" y="-86" font-family="Helvetica,sans-Serif" font-size="10.00">::updatePosition</text>
</a>
</g>
<!-- Node2&#45;&gt;Node3 -->
<g id="edge4" class="edge"><title>Node2&#45;&gt;Node3</title>
<path fill="none" stroke="midnightblue" d="M233.979,-95C242.68,-95 251.464,-95 259.934,-95"/>
<polygon fill="midnightblue" stroke="midnightblue" points="233.829,-91.5001 223.828,-95 233.828,-98.5001 233.829,-91.5001"/>
</g>
<!-- Node4 -->
<g id="node7" class="node"><title>Node4</title>
<a xlink:href="../../da/d96/classproject_1_1_b_i___footprint.html#a271c63e12acd19bccc27bf6861938df2" target="_top" xlink:title="project::BI_Footprint\l::componentInstanceMoved">
<polygon fill="white" stroke="black" points="421.5,-156 421.5,-190 558.5,-190 558.5,-156 421.5,-156"/>
<text text-anchor="start" x="429.5" y="-177" font-family="Helvetica,sans-Serif" font-size="10.00">project::BI_Footprint</text>
<text text-anchor="middle" x="490" y="-164" font-family="Helvetica,sans-Serif" font-size="10.00">::componentInstanceMoved</text>
</a>
</g>
<!-- Node3&#45;&gt;Node4 -->
<g id="edge6" class="edge"><title>Node3&#45;&gt;Node4</title>
<path fill="none" stroke="midnightblue" d="M359.01,-117.035C376.652,-126.828 398.085,-138.123 418,-147 424.919,-150.084 432.326,-153.084 439.662,-155.884"/>
<polygon fill="midnightblue" stroke="midnightblue" points="360.593,-113.909 350.159,-112.071 357.169,-120.015 360.593,-113.909"/>
</g>
<!-- Node6 -->
<g id="node11" class="node"><title>Node6</title>
<a xlink:href="../../da/d96/classproject_1_1_b_i___footprint.html#ab6c0fcabcb9d5a38a27ed7aeb34f0958" target="_top" xlink:title="project::BI_Footprint\l::componentInstanceRotated">
<polygon fill="white" stroke="black" points="418.5,-104 418.5,-138 561.5,-138 561.5,-104 418.5,-104"/>
<text text-anchor="start" x="426.5" y="-125" font-family="Helvetica,sans-Serif" font-size="10.00">project::BI_Footprint</text>
<text text-anchor="middle" x="490" y="-112" font-family="Helvetica,sans-Serif" font-size="10.00">::componentInstanceRotated</text>
</a>
</g>
<!-- Node3&#45;&gt;Node6 -->
<g id="edge10" class="edge"><title>Node3&#45;&gt;Node6</title>
<path fill="none" stroke="midnightblue" d="M392.12,-105.941C400.825,-107.281 409.724,-108.65 418.436,-109.99"/>
<polygon fill="midnightblue" stroke="midnightblue" points="392.429,-102.448 382.013,-104.387 391.364,-109.367 392.429,-102.448"/>
</g>
<!-- Node7 -->
<g id="node14" class="node"><title>Node7</title>
<a xlink:href="../../da/d96/classproject_1_1_b_i___footprint.html#ae00c60cb068f7bb3703a6c84450afeaf" target="_top" xlink:title="project::BI_Footprint\l::componentInstanceMirrored">
<polygon fill="white" stroke="black" points="418.5,-52 418.5,-86 561.5,-86 561.5,-52 418.5,-52"/>
<text text-anchor="start" x="426.5" y="-73" font-family="Helvetica,sans-Serif" font-size="10.00">project::BI_Footprint</text>
<text text-anchor="middle" x="490" y="-60" font-family="Helvetica,sans-Serif" font-size="10.00">::componentInstanceMirrored</text>
</a>
</g>
<!-- Node3&#45;&gt;Node7 -->
<g id="edge14" class="edge"><title>Node3&#45;&gt;Node7</title>
<path fill="none" stroke="midnightblue" d="M392.12,-84.0585C400.825,-82.7193 409.724,-81.3501 418.436,-80.0099"/>
<polygon fill="midnightblue" stroke="midnightblue" points="391.364,-80.6334 382.013,-85.6134 392.429,-87.552 391.364,-80.6334"/>
</g>
<!-- Node8 -->
<g id="node17" class="node"><title>Node8</title>
<a xlink:href="../../d4/ddd/classproject_1_1_b_i___footprint_pad.html#ac81e6cd36593d731c5e2e23048ed6754" target="_top" xlink:title="project::BI_FootprintPad\l::BI_FootprintPad">
<polygon fill="white" stroke="black" points="429,-0 429,-34 551,-34 551,-0 429,-0"/>
<text text-anchor="start" x="437" y="-21" font-family="Helvetica,sans-Serif" font-size="10.00">project::BI_FootprintPad</text>
<text text-anchor="middle" x="490" y="-8" font-family="Helvetica,sans-Serif" font-size="10.00">::BI_FootprintPad</text>
</a>
</g>
<!-- Node3&#45;&gt;Node8 -->
<g id="edge18" class="edge"><title>Node3&#45;&gt;Node8</title>
<path fill="none" stroke="midnightblue" d="M359.01,-72.9655C376.652,-63.1719 398.085,-51.877 418,-43 424.919,-39.9158 432.326,-36.9161 439.662,-34.1161"/>
<polygon fill="midnightblue" stroke="midnightblue" points="357.169,-69.9853 350.159,-77.9293 360.593,-76.0908 357.169,-69.9853"/>
</g>
<!-- Node5 -->
<g id="node9" class="node"><title>Node5</title>
<a xlink:href="../../da/d96/classproject_1_1_b_i___footprint.html#a02fd73d861ef2e4aabb38c0c9ff82947" target="_top" xlink:title="project::BI_Footprint\l::init">
<polygon fill="white" stroke="black" points="598.5,-104 598.5,-138 703.5,-138 703.5,-104 598.5,-104"/>
<text text-anchor="start" x="606.5" y="-125" font-family="Helvetica,sans-Serif" font-size="10.00">project::BI_Footprint</text>
<text text-anchor="middle" x="651" y="-112" font-family="Helvetica,sans-Serif" font-size="10.00">::init</text>
</a>
</g>
<!-- Node4&#45;&gt;Node5 -->
<g id="edge8" class="edge"><title>Node4&#45;&gt;Node5</title>
<path fill="none" stroke="midnightblue" d="M552.535,-152.802C567.709,-147.902 583.78,-142.711 598.439,-137.976"/>
<polygon fill="midnightblue" stroke="midnightblue" points="551.158,-149.569 542.717,-155.973 553.309,-156.23 551.158,-149.569"/>
</g>
<!-- Node6&#45;&gt;Node5 -->
<g id="edge12" class="edge"><title>Node6&#45;&gt;Node5</title>
<path fill="none" stroke="midnightblue" d="M571.652,-121C580.609,-121 589.547,-121 598.023,-121"/>
<polygon fill="midnightblue" stroke="midnightblue" points="571.555,-117.5 561.555,-121 571.555,-124.5 571.555,-117.5"/>
</g>
<!-- Node7&#45;&gt;Node5 -->
<g id="edge16" class="edge"><title>Node7&#45;&gt;Node5</title>
<path fill="none" stroke="midnightblue" d="M552.535,-89.1977C567.709,-94.0985 583.78,-99.2891 598.439,-104.024"/>
<polygon fill="midnightblue" stroke="midnightblue" points="553.309,-85.7697 542.717,-86.0267 551.158,-92.4309 553.309,-85.7697"/>
</g>
</g>
</svg>
