<?xml version="1.0" encoding="UTF-8" standalone="no"?>
<!DOCTYPE svg PUBLIC "-//W3C//DTD SVG 1.1//EN"
 "http://www.w3.org/Graphics/SVG/1.1/DTD/svg11.dtd">
<!-- Generated by graphviz version 2.26.3 (20100126.1600)
 -->
<!-- Title: isFilled Pages: 1 -->
<svg width="206pt" height="82pt"
 viewBox="0.00 0.00 206.00 82.00" xmlns="http://www.w3.org/2000/svg" xmlns:xlink="http://www.w3.org/1999/xlink">
<g id="graph1" class="graph" transform="scale(1 1) rotate(0) translate(4 78)">
<title>isFilled</title>
<polygon fill="white" stroke="white" points="-4,5 -4,-78 203,-78 203,5 -4,5"/>
<!-- Node1 -->
<g id="node1" class="node"><title>Node1</title>
<polygon fill="#bfbfbf" stroke="black" points="0.5,-29.5 0.5,-50.5 47.5,-50.5 47.5,-29.5 0.5,-29.5"/>
<text text-anchor="middle" x="24" y="-37.5" font-family="Helvetica,sans-Serif" font-size="10.00">isFilled</text>
</g>
<!-- Node2 -->
<g id="node3" class="node"><title>Node2</title>
<a xlink:href="../../d1/dad/classlibrary_1_1_footprint_ellipse.html#ae7600c8e601a1d99785528ea7d51ee14" target="_top" xlink:title="setIsFilled">
<polygon fill="white" stroke="black" points="110,-52.5 110,-73.5 172,-73.5 172,-52.5 110,-52.5"/>
<text text-anchor="middle" x="141" y="-60.5" font-family="Helvetica,sans-Serif" font-size="10.00">setIsFilled</text>
</a>
</g>
<!-- Node1&#45;&gt;Node2 -->
<g id="edge2" class="edge"><title>Node1&#45;&gt;Node2</title>
<path fill="none" stroke="midnightblue" d="M57.9154,-46.6671C74.2907,-49.8862 93.8075,-53.7229 109.809,-56.8685"/>
<polygon fill="midnightblue" stroke="midnightblue" points="58.164,-43.1491 47.6767,-44.6544 56.8138,-50.0176 58.164,-43.1491"/>
</g>
<!-- Node3 -->
<g id="node5" class="node"><title>Node3</title>
<a xlink:href="../../dc/d87/classproject_1_1_b_g_i___footprint.html#aa77fc5d2da89e1f09b09f7c6724ed721" target="_top" xlink:title="project::BGI_Footprint\l::paint">
<polygon fill="white" stroke="black" points="84.5,-0 84.5,-34 197.5,-34 197.5,-0 84.5,-0"/>
<text text-anchor="start" x="92.5" y="-21" font-family="Helvetica,sans-Serif" font-size="10.00">project::BGI_Footprint</text>
<text text-anchor="middle" x="141" y="-8" font-family="Helvetica,sans-Serif" font-size="10.00">::paint</text>
</a>
</g>
<!-- Node1&#45;&gt;Node3 -->
<g id="edge4" class="edge"><title>Node1&#45;&gt;Node3</title>
<path fill="none" stroke="midnightblue" d="M57.4902,-33.4165C65.9345,-31.7565 75.2353,-29.9281 84.4706,-28.1126"/>
<polygon fill="midnightblue" stroke="midnightblue" points="56.8138,-29.9824 47.6767,-35.3456 58.164,-36.8509 56.8138,-29.9824"/>
</g>
</g>
</svg>
