<?xml version="1.0" encoding="UTF-8" standalone="no"?>
<!DOCTYPE svg PUBLIC "-//W3C//DTD SVG 1.1//EN"
 "http://www.w3.org/Graphics/SVG/1.1/DTD/svg11.dtd">
<!-- Generated by graphviz version 2.26.3 (20100126.1600)
 -->
<!-- Title: /home/travis/build/LibrePCB/LibrePCB/libs/librepcbproject/circuit/cmd/cmdnetsignaladd.cpp Pages: 1 -->
<svg width="740pt" height="330pt"
 viewBox="0.00 0.00 739.97 330.00" xmlns="http://www.w3.org/2000/svg" xmlns:xlink="http://www.w3.org/1999/xlink">
<g id="graph1" class="graph" transform="scale(1 1) rotate(0) translate(4 326)">
<title>/home/travis/build/LibrePCB/LibrePCB/libs/librepcbproject/circuit/cmd/cmdnetsignaladd.cpp</title>
<polygon fill="white" stroke="white" points="-4,5 -4,-326 736.974,-326 736.974,5 -4,5"/>
<!-- Node1 -->
<g id="node1" class="node"><title>Node1</title>
<polygon fill="#bfbfbf" stroke="black" points="181.745,-261 181.745,-321 315.745,-321 315.745,-261 181.745,-261"/>
<text text-anchor="start" x="189.745" y="-308" font-family="Helvetica,sans-Serif" font-size="10.00">/home/travis/build</text>
<text text-anchor="start" x="189.745" y="-295" font-family="Helvetica,sans-Serif" font-size="10.00">/LibrePCB/LibrePCB/libs</text>
<text text-anchor="start" x="189.745" y="-282" font-family="Helvetica,sans-Serif" font-size="10.00">/librepcbproject/circuit</text>
<text text-anchor="middle" x="248.745" y="-269" font-family="Helvetica,sans-Serif" font-size="10.00">/cmd/cmdnetsignaladd.cpp</text>
</g>
<!-- Node2 -->
<g id="node3" class="node"><title>Node2</title>
<polygon fill="white" stroke="#bfbfbf" points="225.745,-0.5 225.745,-21.5 273.745,-21.5 273.745,-0.5 225.745,-0.5"/>
<text text-anchor="middle" x="249.745" y="-8.5" font-family="Helvetica,sans-Serif" font-size="10.00">QtCore</text>
</g>
<!-- Node1&#45;&gt;Node2 -->
<g id="edge2" class="edge"><title>Node1&#45;&gt;Node2</title>
<path fill="none" stroke="midnightblue" d="M181.442,-278.278C101.369,-259.155 -18.9793,-215.72 2.74535,-130 11.686,-94.7224 12.7362,-79.9753 41.7453,-58 68.8014,-37.5043 163.813,-22.2563 215.549,-15.2538"/>
<polygon fill="midnightblue" stroke="midnightblue" points="216.135,-18.7068 225.59,-13.9249 215.217,-11.7673 216.135,-18.7068"/>
</g>
<!-- Node3 -->
<g id="node5" class="node"><title>Node3</title>
<a xlink:href="../../dc/df9/cmdnetsignaladd_8h.html" target="_top" xlink:title="cmdnetsignaladd.h">
<polygon fill="white" stroke="black" points="107.745,-202.5 107.745,-223.5 205.745,-223.5 205.745,-202.5 107.745,-202.5"/>
<text text-anchor="middle" x="156.745" y="-210.5" font-family="Helvetica,sans-Serif" font-size="10.00">cmdnetsignaladd.h</text>
</a>
</g>
<!-- Node1&#45;&gt;Node3 -->
<g id="edge4" class="edge"><title>Node1&#45;&gt;Node3</title>
<path fill="none" stroke="midnightblue" d="M213.176,-260.843C201.047,-250.56 187.896,-239.411 177.344,-230.464"/>
<polygon fill="midnightblue" stroke="midnightblue" points="179.398,-227.617 169.507,-223.82 174.872,-232.956 179.398,-227.617"/>
</g>
<!-- Node6 -->
<g id="node15" class="node"><title>Node6</title>
<a xlink:href="../../d1/d08/netsignal_8h.html" target="_top" xlink:title="../netsignal.h">
<polygon fill="white" stroke="black" points="305.245,-202.5 305.245,-223.5 378.245,-223.5 378.245,-202.5 305.245,-202.5"/>
<text text-anchor="middle" x="341.745" y="-210.5" font-family="Helvetica,sans-Serif" font-size="10.00">../netsignal.h</text>
</a>
</g>
<!-- Node1&#45;&gt;Node6 -->
<g id="edge18" class="edge"><title>Node1&#45;&gt;Node6</title>
<path fill="none" stroke="midnightblue" d="M284.702,-260.843C296.962,-250.56 310.256,-239.411 320.923,-230.464"/>
<polygon fill="midnightblue" stroke="midnightblue" points="323.432,-232.928 328.845,-223.82 318.934,-227.564 323.432,-232.928"/>
</g>
<!-- Node9 -->
<g id="node24" class="node"><title>Node9</title>
<a xlink:href="../../d3/ddf/circuit_8h.html" target="_top" xlink:title="../circuit.h">
<polygon fill="white" stroke="black" points="587.745,-202.5 587.745,-223.5 647.745,-223.5 647.745,-202.5 587.745,-202.5"/>
<text text-anchor="middle" x="617.745" y="-210.5" font-family="Helvetica,sans-Serif" font-size="10.00">../circuit.h</text>
</a>
</g>
<!-- Node1&#45;&gt;Node9 -->
<g id="edge30" class="edge"><title>Node1&#45;&gt;Node9</title>
<path fill="none" stroke="midnightblue" d="M315.997,-276.784C392.399,-260.634 514.604,-234.802 577.482,-221.511"/>
<polygon fill="midnightblue" stroke="midnightblue" points="578.354,-224.904 587.414,-219.412 576.906,-218.055 578.354,-224.904"/>
</g>
<!-- Node3&#45;&gt;Node2 -->
<g id="edge6" class="edge"><title>Node3&#45;&gt;Node2</title>
<path fill="none" stroke="midnightblue" d="M107.585,-203.373C70.5167,-194.999 24.1735,-181.751 12.7453,-166 3.34938,-153.049 4.34513,-143.618 12.7453,-130 57.4816,-57.4785 161.4,-27.62 215.55,-16.6417"/>
<polygon fill="midnightblue" stroke="midnightblue" points="216.214,-20.0782 225.371,-14.748 214.889,-13.2049 216.214,-20.0782"/>
</g>
<!-- Node4 -->
<g id="node8" class="node"><title>Node4</title>
<a xlink:href="../../dc/da0/undocommand_8h.html" target="_top" xlink:title="librepcbcommon/undocommand.h">
<polygon fill="white" stroke="black" points="21.2453,-137.5 21.2453,-158.5 184.245,-158.5 184.245,-137.5 21.2453,-137.5"/>
<text text-anchor="middle" x="102.745" y="-145.5" font-family="Helvetica,sans-Serif" font-size="10.00">librepcbcommon/undocommand.h</text>
</a>
</g>
<!-- Node3&#45;&gt;Node4 -->
<g id="edge8" class="edge"><title>Node3&#45;&gt;Node4</title>
<path fill="none" stroke="midnightblue" d="M147.828,-202.267C139.729,-192.517 127.612,-177.932 117.979,-166.336"/>
<polygon fill="midnightblue" stroke="midnightblue" points="120.579,-163.989 111.496,-158.534 115.194,-168.462 120.579,-163.989"/>
</g>
<!-- Node5 -->
<g id="node11" class="node"><title>Node5</title>
<a xlink:href="../../d4/d03/exceptions_8h.html" target="_top" xlink:title="exceptions.h">
<polygon fill="white" stroke="black" points="213.745,-65.5 213.745,-86.5 285.745,-86.5 285.745,-65.5 213.745,-65.5"/>
<text text-anchor="middle" x="249.745" y="-73.5" font-family="Helvetica,sans-Serif" font-size="10.00">exceptions.h</text>
</a>
</g>
<!-- Node3&#45;&gt;Node5 -->
<g id="edge16" class="edge"><title>Node3&#45;&gt;Node5</title>
<path fill="none" stroke="midnightblue" d="M165.317,-202.376C172.791,-192.98 183.807,-178.813 192.745,-166 209.325,-142.232 226.963,-113.843 238.152,-95.3941"/>
<polygon fill="midnightblue" stroke="midnightblue" points="241.21,-97.1007 243.376,-86.7295 235.215,-93.4865 241.21,-97.1007"/>
</g>
<!-- Node4&#45;&gt;Node2 -->
<g id="edge10" class="edge"><title>Node4&#45;&gt;Node2</title>
<path fill="none" stroke="midnightblue" d="M114.28,-137.25C139.505,-113.741 199.785,-57.5613 230.72,-28.7311"/>
<polygon fill="midnightblue" stroke="midnightblue" points="233.335,-31.0786 238.264,-21.7002 228.562,-25.9577 233.335,-31.0786"/>
</g>
<!-- Node4&#45;&gt;Node5 -->
<g id="edge12" class="edge"><title>Node4&#45;&gt;Node5</title>
<path fill="none" stroke="midnightblue" d="M124.436,-137.376C149.406,-125.146 190.608,-104.965 218.906,-91.105"/>
<polygon fill="midnightblue" stroke="midnightblue" points="220.525,-94.2094 227.966,-86.6674 217.446,-87.9229 220.525,-94.2094"/>
</g>
<!-- Node5&#45;&gt;Node2 -->
<g id="edge14" class="edge"><title>Node5&#45;&gt;Node2</title>
<path fill="none" stroke="midnightblue" d="M249.745,-65.2666C249.745,-56.1799 249.745,-42.8919 249.745,-31.7395"/>
<polygon fill="midnightblue" stroke="midnightblue" points="253.245,-31.5337 249.745,-21.5337 246.245,-31.5337 253.245,-31.5337"/>
</g>
<!-- Node6&#45;&gt;Node2 -->
<g id="edge20" class="edge"><title>Node6&#45;&gt;Node2</title>
<path fill="none" stroke="midnightblue" d="M378.634,-210.541C434.961,-205.932 538.258,-193.825 560.745,-166 570.802,-153.556 569.815,-143.181 560.745,-130 528.106,-82.564 357.953,-36.8972 284.058,-18.9687"/>
<polygon fill="midnightblue" stroke="midnightblue" points="284.422,-15.4568 273.882,-16.5278 282.79,-22.2638 284.422,-15.4568"/>
</g>
<!-- Node6&#45;&gt;Node5 -->
<g id="edge28" class="edge"><title>Node6&#45;&gt;Node5</title>
<path fill="none" stroke="midnightblue" d="M315.619,-202.483C299.671,-194.729 280.207,-182.631 268.745,-166 254.58,-145.445 250.629,-116.435 249.701,-96.96"/>
<polygon fill="midnightblue" stroke="midnightblue" points="253.194,-96.642 249.449,-86.7312 246.196,-96.8144 253.194,-96.642"/>
</g>
<!-- Node7 -->
<g id="node18" class="node"><title>Node7</title>
<a xlink:href="../../da/dfb/if__ercmsgprovider_8h.html" target="_top" xlink:title="../erc/if_ercmsgprovider.h">
<polygon fill="white" stroke="black" points="277.745,-137.5 277.745,-158.5 405.745,-158.5 405.745,-137.5 277.745,-137.5"/>
<text text-anchor="middle" x="341.745" y="-145.5" font-family="Helvetica,sans-Serif" font-size="10.00">../erc/if_ercmsgprovider.h</text>
</a>
</g>
<!-- Node6&#45;&gt;Node7 -->
<g id="edge22" class="edge"><title>Node6&#45;&gt;Node7</title>
<path fill="none" stroke="midnightblue" d="M341.745,-202.267C341.745,-193.18 341.745,-179.892 341.745,-168.74"/>
<polygon fill="midnightblue" stroke="midnightblue" points="345.245,-168.534 341.745,-158.534 338.245,-168.534 345.245,-168.534"/>
</g>
<!-- Node8 -->
<g id="node20" class="node"><title>Node8</title>
<a xlink:href="../../d0/d1d/if__xmlserializableobject_8h.html" target="_top" xlink:title="librepcbcommon/fileio\l/if_xmlserializableobject.h">
<polygon fill="white" stroke="black" points="423.245,-131 423.245,-165 552.245,-165 552.245,-131 423.245,-131"/>
<text text-anchor="start" x="431.245" y="-152" font-family="Helvetica,sans-Serif" font-size="10.00">librepcbcommon/fileio</text>
<text text-anchor="middle" x="487.745" y="-139" font-family="Helvetica,sans-Serif" font-size="10.00">/if_xmlserializableobject.h</text>
</a>
</g>
<!-- Node6&#45;&gt;Node8 -->
<g id="edge24" class="edge"><title>Node6&#45;&gt;Node8</title>
<path fill="none" stroke="midnightblue" d="M365.528,-202.412C385.661,-193.448 415.144,-180.323 440.108,-169.209"/>
<polygon fill="midnightblue" stroke="midnightblue" points="441.713,-172.325 449.425,-165.06 438.866,-165.93 441.713,-172.325"/>
</g>
<!-- Node8&#45;&gt;Node5 -->
<g id="edge26" class="edge"><title>Node8&#45;&gt;Node5</title>
<path fill="none" stroke="midnightblue" d="M431.343,-130.937C389.576,-118.302 333.426,-101.315 294.674,-89.592"/>
<polygon fill="midnightblue" stroke="midnightblue" points="295.31,-86.1278 284.725,-86.5821 293.283,-92.8279 295.31,-86.1278"/>
</g>
<!-- Node9&#45;&gt;Node2 -->
<g id="edge32" class="edge"><title>Node9&#45;&gt;Node2</title>
<path fill="none" stroke="midnightblue" d="M634.119,-202.443C672.888,-176.221 763.841,-106.725 719.745,-58 690.582,-25.7752 387.406,-14.6907 284.044,-11.8322"/>
<polygon fill="midnightblue" stroke="midnightblue" points="283.933,-8.32806 273.843,-11.5591 283.745,-15.3256 283.933,-8.32806"/>
</g>
<!-- Node9&#45;&gt;Node5 -->
<g id="edge36" class="edge"><title>Node9&#45;&gt;Node5</title>
<path fill="none" stroke="midnightblue" d="M613.671,-202.299C606.18,-184.191 588.405,-147.747 560.745,-130 517.63,-102.336 371.621,-86.2778 296,-79.6282"/>
<polygon fill="midnightblue" stroke="midnightblue" points="296.078,-76.1221 285.815,-78.7522 295.478,-83.0963 296.078,-76.1221"/>
</g>
<!-- Node9&#45;&gt;Node8 -->
<g id="edge34" class="edge"><title>Node9&#45;&gt;Node8</title>
<path fill="none" stroke="midnightblue" d="M596.569,-202.412C578.879,-193.567 553.083,-180.669 531.046,-169.65"/>
<polygon fill="midnightblue" stroke="midnightblue" points="532.376,-166.402 521.866,-165.06 529.245,-172.663 532.376,-166.402"/>
</g>
<!-- Node10 -->
<g id="node29" class="node"><title>Node10</title>
<a xlink:href="../../dd/dec/filepath_8h.html" target="_top" xlink:title="librepcbcommon/fileio\l/filepath.h">
<polygon fill="white" stroke="black" points="600.245,-59 600.245,-93 711.245,-93 711.245,-59 600.245,-59"/>
<text text-anchor="start" x="608.245" y="-80" font-family="Helvetica,sans-Serif" font-size="10.00">librepcbcommon/fileio</text>
<text text-anchor="middle" x="655.745" y="-67" font-family="Helvetica,sans-Serif" font-size="10.00">/filepath.h</text>
</a>
</g>
<!-- Node9&#45;&gt;Node10 -->
<g id="edge38" class="edge"><title>Node9&#45;&gt;Node10</title>
<path fill="none" stroke="midnightblue" d="M621.059,-202.199C623.954,-192.689 628.231,-178.455 631.745,-166 637.693,-144.924 644.064,-120.961 648.746,-103.064"/>
<polygon fill="midnightblue" stroke="midnightblue" points="652.157,-103.854 651.292,-93.2941 645.384,-102.088 652.157,-103.854"/>
</g>
<!-- Node10&#45;&gt;Node2 -->
<g id="edge40" class="edge"><title>Node10&#45;&gt;Node2</title>
<path fill="none" stroke="midnightblue" d="M600.139,-60.8993C595.622,-59.8543 591.116,-58.8718 586.745,-58 477.171,-36.1441 345.549,-20.9276 284.274,-14.4704"/>
<polygon fill="midnightblue" stroke="midnightblue" points="284.326,-10.9571 274.017,-13.4025 283.601,-17.9194 284.326,-10.9571"/>
</g>
</g>
</svg>
