<?xml version="1.0" encoding="UTF-8" standalone="no"?>
<!DOCTYPE svg PUBLIC "-//W3C//DTD SVG 1.1//EN"
 "http://www.w3.org/Graphics/SVG/1.1/DTD/svg11.dtd">
<!-- Generated by graphviz version 2.26.3 (20100126.1600)
 -->
<!-- Title: applySettings Pages: 1 -->
<svg width="260pt" height="174pt"
 viewBox="0.00 0.00 260.00 174.00" xmlns="http://www.w3.org/2000/svg" xmlns:xlink="http://www.w3.org/1999/xlink">
<g id="graph1" class="graph" transform="scale(1 1) rotate(0) translate(4 170)">
<title>applySettings</title>
<polygon fill="white" stroke="white" points="-4,5 -4,-170 257,-170 257,5 -4,5"/>
<!-- Node1 -->
<g id="node1" class="node"><title>Node1</title>
<polygon fill="#bfbfbf" stroke="black" points="0,-63.5 0,-84.5 76,-84.5 76,-63.5 0,-63.5"/>
<text text-anchor="middle" x="38" y="-71.5" font-family="Helvetica,sans-Serif" font-size="10.00">applySettings</text>
</g>
<!-- Node2 -->
<g id="node3" class="node"><title>Node2</title>
<a xlink:href="../../d8/dea/classproject_1_1_cmd_project_settings_change.html#a50424f32061290175b08d295c880577e" target="_top" xlink:title="project::CmdProjectSettings\lChange::setLocaleOrder">
<polygon fill="white" stroke="black" points="112,-132 112,-166 252,-166 252,-132 112,-132"/>
<text text-anchor="start" x="120" y="-153" font-family="Helvetica,sans-Serif" font-size="10.00">project::CmdProjectSettings</text>
<text text-anchor="middle" x="182" y="-140" font-family="Helvetica,sans-Serif" font-size="10.00">Change::setLocaleOrder</text>
</a>
</g>
<!-- Node1&#45;&gt;Node2 -->
<g id="edge2" class="edge"><title>Node1&#45;&gt;Node2</title>
<path fill="none" stroke="midnightblue" d="M51.8721,-84.5914C66.318,-95.2767 89.8853,-111.759 112,-123 115.315,-124.685 118.767,-126.319 122.282,-127.892"/>
<polygon fill="midnightblue" stroke="midnightblue" points="121.115,-131.2 131.687,-131.907 123.864,-124.762 121.115,-131.2"/>
</g>
<!-- Node3 -->
<g id="node5" class="node"><title>Node3</title>
<a xlink:href="../../d8/dea/classproject_1_1_cmd_project_settings_change.html#a6d4d10e573d7cd7a1f44788d7b22f576" target="_top" xlink:title="project::CmdProjectSettings\lChange::setNormOrder">
<polygon fill="white" stroke="black" points="112,-80 112,-114 252,-114 252,-80 112,-80"/>
<text text-anchor="start" x="120" y="-101" font-family="Helvetica,sans-Serif" font-size="10.00">project::CmdProjectSettings</text>
<text text-anchor="middle" x="182" y="-88" font-family="Helvetica,sans-Serif" font-size="10.00">Change::setNormOrder</text>
</a>
</g>
<!-- Node1&#45;&gt;Node3 -->
<g id="edge4" class="edge"><title>Node1&#45;&gt;Node3</title>
<path fill="none" stroke="midnightblue" d="M76.2113,-80.1032C84.2024,-81.3795 92.9116,-82.7706 101.79,-84.1886"/>
<polygon fill="midnightblue" stroke="midnightblue" points="101.429,-87.6752 111.855,-85.7963 102.533,-80.7628 101.429,-87.6752"/>
</g>
<!-- Node4 -->
<g id="node7" class="node"><title>Node4</title>
<a xlink:href="../../d4/d90/class_undo_stack.html#a6649c687fca96c8e65cec90e50551d28" target="_top" xlink:title="Execute a command and push it to the stack (similar to QUndoStack::push()) ">
<polygon fill="white" stroke="black" points="125.5,-40.5 125.5,-61.5 238.5,-61.5 238.5,-40.5 125.5,-40.5"/>
<text text-anchor="middle" x="182" y="-48.5" font-family="Helvetica,sans-Serif" font-size="10.00">UndoStack::execCmd</text>
</a>
</g>
<!-- Node1&#45;&gt;Node4 -->
<g id="edge6" class="edge"><title>Node1&#45;&gt;Node4</title>
<path fill="none" stroke="midnightblue" d="M76.2113,-67.8968C88.2292,-65.9773 101.871,-63.7983 115.269,-61.6585"/>
<polygon fill="midnightblue" stroke="midnightblue" points="116.113,-65.0681 125.435,-60.0346 115.008,-58.1558 116.113,-65.0681"/>
</g>
<!-- Node5 -->
<g id="node9" class="node"><title>Node5</title>
<a xlink:href="../../df/d70/class_exception.html#aa530ab8cc747843c76a435c3075ed094" target="_top" xlink:title="Get the user error message (translated) ">
<polygon fill="white" stroke="black" points="122.5,-0.5 122.5,-21.5 241.5,-21.5 241.5,-0.5 122.5,-0.5"/>
<text text-anchor="middle" x="182" y="-8.5" font-family="Helvetica,sans-Serif" font-size="10.00">Exception::getUserMsg</text>
</a>
</g>
<!-- Node1&#45;&gt;Node5 -->
<g id="edge8" class="edge"><title>Node1&#45;&gt;Node5</title>
<path fill="none" stroke="midnightblue" d="M53.5707,-63.4131C68.1505,-53.8796 90.8081,-40.0184 112,-31 117.439,-28.6855 123.226,-26.5492 129.054,-24.6032"/>
<polygon fill="midnightblue" stroke="midnightblue" points="130.364,-27.86 138.845,-21.51 128.255,-21.1852 130.364,-27.86"/>
</g>
</g>
</svg>
