<?xml version="1.0" encoding="UTF-8" standalone="no"?>
<!DOCTYPE svg PUBLIC "-//W3C//DTD SVG 1.1//EN"
 "http://www.w3.org/Graphics/SVG/1.1/DTD/svg11.dtd">
<!-- Generated by graphviz version 2.26.3 (20100126.1600)
 -->
<!-- Title: SymbolInstancePropertiesDialog::AttrItem_t Pages: 1 -->
<svg width="214pt" height="666pt"
 viewBox="0.00 0.00 214.00 666.00" xmlns="http://www.w3.org/2000/svg" xmlns:xlink="http://www.w3.org/1999/xlink">
<g id="graph1" class="graph" transform="scale(1 1) rotate(0) translate(4 662)">
<title>SymbolInstancePropertiesDialog::AttrItem_t</title>
<polygon fill="white" stroke="white" points="-4,5 -4,-662 211,-662 211,5 -4,5"/>
<!-- Node1 -->
<g id="node1" class="node"><title>Node1</title>
<polygon fill="#bfbfbf" stroke="black" points="-0.5,-0.5 -0.5,-89.5 130.5,-89.5 130.5,-0.5 -0.5,-0.5"/>
<text text-anchor="start" x="7.5" y="-76.5" font-family="Helvetica,sans-Serif" font-size="10.00">SymbolInstanceProperties</text>
<text text-anchor="middle" x="65" y="-63.5" font-family="Helvetica,sans-Serif" font-size="10.00">Dialog::AttrItem_t</text>
<polyline fill="none" stroke="black" points="-0.5,-55.5 130.5,-55.5 "/>
<text text-anchor="start" x="7.5" y="-42.5" font-family="Helvetica,sans-Serif" font-size="10.00">+ key</text>
<text text-anchor="start" x="7.5" y="-29.5" font-family="Helvetica,sans-Serif" font-size="10.00">+ value</text>
<polyline fill="none" stroke="black" points="-0.5,-21.5 130.5,-21.5 "/>
<text text-anchor="middle" x="65" y="-8.5" font-family="Helvetica,sans-Serif" font-size="10.00"> </text>
</g>
<!-- Node2 -->
<g id="node2" class="node"><title>Node2</title>
<a xlink:href="../../d7/d08/class_attribute_unit.html" target="_top" xlink:title="The AttributeUnit class. ">
<polygon fill="white" stroke="black" points="36,-503 36,-657 128,-657 128,-503 36,-503"/>
<text text-anchor="middle" x="82" y="-644" font-family="Helvetica,sans-Serif" font-size="10.00">AttributeUnit</text>
<polyline fill="none" stroke="black" points="36,-636 128,-636 "/>
<text text-anchor="start" x="44" y="-623" font-family="Helvetica,sans-Serif" font-size="10.00">&#45; mName</text>
<text text-anchor="start" x="44" y="-610" font-family="Helvetica,sans-Serif" font-size="10.00">&#45; mSymbolTr</text>
<polyline fill="none" stroke="black" points="36,-602 128,-602 "/>
<text text-anchor="start" x="44" y="-589" font-family="Helvetica,sans-Serif" font-size="10.00">+ AttributeUnit()</text>
<text text-anchor="start" x="44" y="-576" font-family="Helvetica,sans-Serif" font-size="10.00">+ ~AttributeUnit()</text>
<text text-anchor="start" x="44" y="-563" font-family="Helvetica,sans-Serif" font-size="10.00">+ getName()</text>
<text text-anchor="start" x="44" y="-550" font-family="Helvetica,sans-Serif" font-size="10.00">+ getSymbolTr()</text>
<text text-anchor="start" x="44" y="-537" font-family="Helvetica,sans-Serif" font-size="10.00">&#45; AttributeUnit()</text>
<text text-anchor="start" x="44" y="-524" font-family="Helvetica,sans-Serif" font-size="10.00">&#45; AttributeUnit()</text>
<text text-anchor="start" x="44" y="-511" font-family="Helvetica,sans-Serif" font-size="10.00">&#45; operator=()</text>
</a>
</g>
<!-- Node2&#45;&gt;Node1 -->
<g id="edge2" class="edge"><title>Node2&#45;&gt;Node1</title>
<path fill="none" stroke="#404040" d="M65.1437,-502.823C62.171,-486.143 59.5378,-468.547 58,-452 46.4224,-327.43 54.2045,-180.518 60.1075,-101.733"/>
<polygon fill="none" stroke="#404040" points="60.1136,-101.652 56.5864,-95.3622 61.0355,-89.6872 64.5627,-95.9768 60.1136,-101.652"/>
<text text-anchor="middle" x="70.5" y="-293.5" font-family="Helvetica,sans-Serif" font-size="10.00"> +unit</text>
</g>
<!-- Node3 -->
<g id="node4" class="node"><title>Node3</title>
<a xlink:href="../../d8/d57/class_attribute_type.html" target="_top" xlink:title="The AttributeType class. ">
<polygon fill="white" stroke="black" points="91.5,-141 91.5,-451 206.5,-451 206.5,-141 91.5,-141"/>
<text text-anchor="middle" x="149" y="-438" font-family="Helvetica,sans-Serif" font-size="10.00">AttributeType</text>
<polyline fill="none" stroke="black" points="91.5,-430 206.5,-430 "/>
<text text-anchor="start" x="99.5" y="-417" font-family="Helvetica,sans-Serif" font-size="10.00"># mType</text>
<text text-anchor="start" x="99.5" y="-404" font-family="Helvetica,sans-Serif" font-size="10.00"># mTypeName</text>
<text text-anchor="start" x="99.5" y="-391" font-family="Helvetica,sans-Serif" font-size="10.00"># mTypeNameTr</text>
<text text-anchor="start" x="99.5" y="-378" font-family="Helvetica,sans-Serif" font-size="10.00"># mAvailableUnits</text>
<polyline fill="none" stroke="black" points="91.5,-370 206.5,-370 "/>
<text text-anchor="start" x="99.5" y="-357" font-family="Helvetica,sans-Serif" font-size="10.00">+ AttributeType()</text>
<text text-anchor="start" x="99.5" y="-344" font-family="Helvetica,sans-Serif" font-size="10.00">+ ~AttributeType()</text>
<text text-anchor="start" x="99.5" y="-331" font-family="Helvetica,sans-Serif" font-size="10.00">+ getType()</text>
<text text-anchor="start" x="99.5" y="-318" font-family="Helvetica,sans-Serif" font-size="10.00">+ getName()</text>
<text text-anchor="start" x="99.5" y="-305" font-family="Helvetica,sans-Serif" font-size="10.00">+ getNameTr()</text>
<text text-anchor="start" x="99.5" y="-292" font-family="Helvetica,sans-Serif" font-size="10.00">+ getAvailableUnits()</text>
<text text-anchor="start" x="99.5" y="-279" font-family="Helvetica,sans-Serif" font-size="10.00">+ getUnitFromString()</text>
<text text-anchor="start" x="99.5" y="-266" font-family="Helvetica,sans-Serif" font-size="10.00">+ getDefaultUnit()</text>
<text text-anchor="start" x="99.5" y="-253" font-family="Helvetica,sans-Serif" font-size="10.00">+ throwIfValueInvalid()</text>
<text text-anchor="start" x="99.5" y="-240" font-family="Helvetica,sans-Serif" font-size="10.00">+ isValueValid()</text>
<text text-anchor="start" x="99.5" y="-227" font-family="Helvetica,sans-Serif" font-size="10.00">+ valueFromTr()</text>
<text text-anchor="start" x="99.5" y="-214" font-family="Helvetica,sans-Serif" font-size="10.00">+ printableValueTr()</text>
<text text-anchor="start" x="99.5" y="-201" font-family="Helvetica,sans-Serif" font-size="10.00">+ getAllTypes()</text>
<text text-anchor="start" x="99.5" y="-188" font-family="Helvetica,sans-Serif" font-size="10.00">+ fromString()</text>
<text text-anchor="start" x="99.5" y="-175" font-family="Helvetica,sans-Serif" font-size="10.00"># AttributeType()</text>
<text text-anchor="start" x="99.5" y="-162" font-family="Helvetica,sans-Serif" font-size="10.00"># AttributeType()</text>
<text text-anchor="start" x="99.5" y="-149" font-family="Helvetica,sans-Serif" font-size="10.00"># operator=()</text>
</a>
</g>
<!-- Node2&#45;&gt;Node3 -->
<g id="edge6" class="edge"><title>Node2&#45;&gt;Node3</title>
<path fill="none" stroke="#404040" d="M100.22,-502.771C103.201,-490.131 106.389,-476.62 109.653,-462.785"/>
<polygon fill="none" stroke="#404040" points="109.654,-462.778 107.139,-456.02 112.41,-451.099 114.925,-457.857 109.654,-462.778"/>
<text text-anchor="middle" x="140.5" y="-474.5" font-family="Helvetica,sans-Serif" font-size="10.00"> #mDefaultUnit</text>
</g>
<!-- Node3&#45;&gt;Node1 -->
<g id="edge4" class="edge"><title>Node3&#45;&gt;Node1</title>
<path fill="none" stroke="#404040" d="M97.1164,-140.967C92.4709,-127.086 87.9965,-113.716 83.9384,-101.59"/>
<polygon fill="none" stroke="#404040" points="83.8365,-101.285 78.1391,-96.8647 80.0281,-89.9054 85.7255,-94.3258 83.8365,-101.285"/>
<text text-anchor="middle" x="103" y="-112.5" font-family="Helvetica,sans-Serif" font-size="10.00"> +type</text>
</g>
</g>
</svg>
