<?xml version="1.0" encoding="UTF-8" standalone="no"?>
<!DOCTYPE svg PUBLIC "-//W3C//DTD SVG 1.1//EN"
 "http://www.w3.org/Graphics/SVG/1.1/DTD/svg11.dtd">
<!-- Generated by graphviz version 2.26.3 (20100126.1600)
 -->
<!-- Title: addComponentInstance Pages: 1 -->
<svg width="326pt" height="94pt"
 viewBox="0.00 0.00 326.00 94.00" xmlns="http://www.w3.org/2000/svg" xmlns:xlink="http://www.w3.org/1999/xlink">
<g id="graph1" class="graph" transform="scale(1 1) rotate(0) translate(4 90)">
<title>addComponentInstance</title>
<polygon fill="white" stroke="white" points="-4,5 -4,-90 323,-90 323,5 -4,5"/>
<!-- Node1 -->
<g id="node1" class="node"><title>Node1</title>
<polygon fill="#bfbfbf" stroke="black" points="0,-32.5 0,-53.5 120,-53.5 120,-32.5 0,-32.5"/>
<text text-anchor="middle" x="60" y="-40.5" font-family="Helvetica,sans-Serif" font-size="10.00">addComponentInstance</text>
</g>
<!-- Node2 -->
<g id="node3" class="node"><title>Node2</title>
<a xlink:href="../../d6/d6a/classproject_1_1_cmd_component_instance_add.html#a91ca7652063093da57fc1bd0141dcc95" target="_top" xlink:title="Redo/execute the command (and all child commands in normal order) ">
<polygon fill="white" stroke="black" points="156.5,-52 156.5,-86 317.5,-86 317.5,-52 156.5,-52"/>
<text text-anchor="start" x="164.5" y="-73" font-family="Helvetica,sans-Serif" font-size="10.00">project::CmdComponentInstance</text>
<text text-anchor="middle" x="237" y="-60" font-family="Helvetica,sans-Serif" font-size="10.00">Add::redo</text>
</a>
</g>
<!-- Node1&#45;&gt;Node2 -->
<g id="edge2" class="edge"><title>Node1&#45;&gt;Node2</title>
<path fill="none" stroke="midnightblue" d="M130.561,-53.365C138.987,-54.6026 147.639,-55.8735 156.194,-57.1302"/>
<polygon fill="midnightblue" stroke="midnightblue" points="130.821,-49.8656 120.418,-51.875 129.803,-56.7913 130.821,-49.8656"/>
</g>
<!-- Node3 -->
<g id="node5" class="node"><title>Node3</title>
<a xlink:href="../../d6/d6a/classproject_1_1_cmd_component_instance_add.html#a19e8778088bfe76b16745470981bb913" target="_top" xlink:title="Undo the command (and all child commands in reverse order) ">
<polygon fill="white" stroke="black" points="156.5,-0 156.5,-34 317.5,-34 317.5,-0 156.5,-0"/>
<text text-anchor="start" x="164.5" y="-21" font-family="Helvetica,sans-Serif" font-size="10.00">project::CmdComponentInstance</text>
<text text-anchor="middle" x="237" y="-8" font-family="Helvetica,sans-Serif" font-size="10.00">Add::undo</text>
</a>
</g>
<!-- Node1&#45;&gt;Node3 -->
<g id="edge4" class="edge"><title>Node1&#45;&gt;Node3</title>
<path fill="none" stroke="midnightblue" d="M130.561,-32.635C138.987,-31.3974 147.639,-30.1265 156.194,-28.8698"/>
<polygon fill="midnightblue" stroke="midnightblue" points="129.803,-29.2087 120.418,-34.125 130.821,-36.1344 129.803,-29.2087"/>
</g>
</g>
</svg>
