<?xml version="1.0" encoding="UTF-8" standalone="no"?>
<!DOCTYPE svg PUBLIC "-//W3C//DTD SVG 1.1//EN"
 "http://www.w3.org/Graphics/SVG/1.1/DTD/svg11.dtd">
<!-- Generated by graphviz version 2.26.3 (20100126.1600)
 -->
<!-- Title: processSubStateMovingSceneEvent Pages: 1 -->
<svg width="724pt" height="370pt"
 viewBox="0.00 0.00 724.00 370.00" xmlns="http://www.w3.org/2000/svg" xmlns:xlink="http://www.w3.org/1999/xlink">
<g id="graph1" class="graph" transform="scale(1 1) rotate(0) translate(4 366)">
<title>processSubStateMovingSceneEvent</title>
<polygon fill="white" stroke="white" points="-4,5 -4,-366 721,-366 721,5 -4,5"/>
<!-- Node1 -->
<g id="node1" class="node"><title>Node1</title>
<polygon fill="#bfbfbf" stroke="black" points="0.5,-158 0.5,-192 151.5,-192 151.5,-158 0.5,-158"/>
<text text-anchor="start" x="8.5" y="-179" font-family="Helvetica,sans-Serif" font-size="10.00">processSubStateMovingScene</text>
<text text-anchor="middle" x="76" y="-166" font-family="Helvetica,sans-Serif" font-size="10.00">Event</text>
</g>
<!-- Node2 -->
<g id="node3" class="node"><title>Node2</title>
<a xlink:href="../../d5/db7/classproject_1_1_s_e_e___redirected_q_event.html#a083850c3a4cf8ca006bbde90f268b22a" target="_top" xlink:title="Helper method to get the QEvent from a pointer to SEE_Base. ">
<polygon fill="white" stroke="black" points="188,-319 188,-353 346,-353 346,-319 188,-319"/>
<text text-anchor="start" x="196" y="-340" font-family="Helvetica,sans-Serif" font-size="10.00">project::SEE_RedirectedQEvent</text>
<text text-anchor="middle" x="267" y="-327" font-family="Helvetica,sans-Serif" font-size="10.00">::getQEventFromSEE</text>
</a>
</g>
<!-- Node1&#45;&gt;Node2 -->
<g id="edge2" class="edge"><title>Node1&#45;&gt;Node2</title>
<path fill="none" stroke="midnightblue" d="M86.6921,-192.096C104.573,-219.427 143.043,-273.122 188,-305 192.851,-308.439 198.135,-311.565 203.597,-314.39"/>
<polygon fill="midnightblue" stroke="midnightblue" points="202.38,-317.688 212.909,-318.863 205.41,-311.378 202.38,-317.688"/>
</g>
<!-- Node4 -->
<g id="node7" class="node"><title>Node4</title>
<a xlink:href="../../d0/d69/class_point.html#a3da9ee2bc3910d0f0c43c30798906fdd" target="_top" xlink:title="Point::fromPx">
<polygon fill="white" stroke="black" points="228.5,-274.5 228.5,-295.5 305.5,-295.5 305.5,-274.5 228.5,-274.5"/>
<text text-anchor="middle" x="267" y="-282.5" font-family="Helvetica,sans-Serif" font-size="10.00">Point::fromPx</text>
</a>
</g>
<!-- Node1&#45;&gt;Node4 -->
<g id="edge6" class="edge"><title>Node1&#45;&gt;Node4</title>
<path fill="none" stroke="midnightblue" d="M94.4534,-192.221C115.607,-211.158 152.018,-241.366 188,-260 197.487,-264.913 208.118,-269.079 218.431,-272.519"/>
<polygon fill="midnightblue" stroke="midnightblue" points="217.584,-275.922 228.174,-275.595 219.691,-269.246 217.584,-275.922"/>
</g>
<!-- Node7 -->
<g id="node13" class="node"><title>Node7</title>
<a xlink:href="../../d0/d69/class_point.html#aaf8d7a6826dcd72e03dc632960106b90" target="_top" xlink:title="Map this Point object to a specific grid interval. ">
<polygon fill="white" stroke="black" points="414.5,-230.5 414.5,-251.5 507.5,-251.5 507.5,-230.5 414.5,-230.5"/>
<text text-anchor="middle" x="461" y="-238.5" font-family="Helvetica,sans-Serif" font-size="10.00">Point::mapToGrid</text>
</a>
</g>
<!-- Node1&#45;&gt;Node7 -->
<g id="edge16" class="edge"><title>Node1&#45;&gt;Node7</title>
<path fill="none" stroke="midnightblue" d="M104.808,-192.14C126.784,-204.264 158.244,-219.625 188,-227 261.07,-245.11 348.405,-246.152 404.271,-244.325"/>
<polygon fill="midnightblue" stroke="midnightblue" points="404.462,-247.82 414.326,-243.954 404.203,-240.825 404.462,-247.82"/>
</g>
<!-- Node8 -->
<g id="node17" class="node"><title>Node8</title>
<a xlink:href="../../dd/d49/classproject_1_1_cmd_symbol_instance_edit.html#a965454db0b8adbe454f19cc61cd66022" target="_top" xlink:title="project::CmdSymbolInstance\lEdit::setDeltaToStartPos">
<polygon fill="white" stroke="black" points="195.5,-184 195.5,-218 338.5,-218 338.5,-184 195.5,-184"/>
<text text-anchor="start" x="203.5" y="-205" font-family="Helvetica,sans-Serif" font-size="10.00">project::CmdSymbolInstance</text>
<text text-anchor="middle" x="267" y="-192" font-family="Helvetica,sans-Serif" font-size="10.00">Edit::setDeltaToStartPos</text>
</a>
</g>
<!-- Node1&#45;&gt;Node8 -->
<g id="edge18" class="edge"><title>Node1&#45;&gt;Node8</title>
<path fill="none" stroke="midnightblue" d="M151.763,-185.313C162.767,-186.811 174.137,-188.359 185.253,-189.872"/>
<polygon fill="midnightblue" stroke="midnightblue" points="184.992,-193.369 195.372,-191.25 185.936,-186.433 184.992,-193.369"/>
</g>
<!-- Node9 -->
<g id="node19" class="node"><title>Node9</title>
<a xlink:href="../../d6/db6/classproject_1_1_cmd_schematic_net_point_edit.html#a06f80b033421a06a85fe8745c3930a56" target="_top" xlink:title="project::CmdSchematicNet\lPointEdit::setDeltaToStartPos">
<polygon fill="white" stroke="black" points="192.5,-132 192.5,-166 341.5,-166 341.5,-132 192.5,-132"/>
<text text-anchor="start" x="200.5" y="-153" font-family="Helvetica,sans-Serif" font-size="10.00">project::CmdSchematicNet</text>
<text text-anchor="middle" x="267" y="-140" font-family="Helvetica,sans-Serif" font-size="10.00">PointEdit::setDeltaToStartPos</text>
</a>
</g>
<!-- Node1&#45;&gt;Node9 -->
<g id="edge20" class="edge"><title>Node1&#45;&gt;Node9</title>
<path fill="none" stroke="midnightblue" d="M151.763,-164.687C161.761,-163.326 172.062,-161.924 182.199,-160.544"/>
<polygon fill="midnightblue" stroke="midnightblue" points="182.829,-163.99 192.265,-159.173 181.885,-157.054 182.829,-163.99"/>
</g>
<!-- Node10 -->
<g id="node21" class="node"><title>Node10</title>
<a xlink:href="../../d5/d00/classproject_1_1_cmd_schematic_net_label_edit.html#a06f80b033421a06a85fe8745c3930a56" target="_top" xlink:title="project::CmdSchematicNet\lLabelEdit::setDeltaToStartPos">
<polygon fill="white" stroke="black" points="192.5,-80 192.5,-114 341.5,-114 341.5,-80 192.5,-80"/>
<text text-anchor="start" x="200.5" y="-101" font-family="Helvetica,sans-Serif" font-size="10.00">project::CmdSchematicNet</text>
<text text-anchor="middle" x="267" y="-88" font-family="Helvetica,sans-Serif" font-size="10.00">LabelEdit::setDeltaToStartPos</text>
</a>
</g>
<!-- Node1&#45;&gt;Node10 -->
<g id="edge22" class="edge"><title>Node1&#45;&gt;Node10</title>
<path fill="none" stroke="midnightblue" d="M110.356,-157.779C132.288,-147.104 161.483,-133.478 188,-123 192.746,-121.125 197.688,-119.271 202.68,-117.47"/>
<polygon fill="midnightblue" stroke="midnightblue" points="204.037,-120.703 212.305,-114.078 201.711,-114.101 204.037,-120.703"/>
</g>
<!-- Node11 -->
<g id="node23" class="node"><title>Node11</title>
<a xlink:href="../../d0/d69/class_point.html#a048944cbec2f6623951087a3776a3a06" target="_top" xlink:title="Check if the position represents the origin (X == 0 and Y == 0) ">
<polygon fill="white" stroke="black" points="228,-40.5 228,-61.5 306,-61.5 306,-40.5 228,-40.5"/>
<text text-anchor="middle" x="267" y="-48.5" font-family="Helvetica,sans-Serif" font-size="10.00">Point::isOrigin</text>
</a>
</g>
<!-- Node1&#45;&gt;Node11 -->
<g id="edge24" class="edge"><title>Node1&#45;&gt;Node11</title>
<path fill="none" stroke="midnightblue" d="M89.6275,-157.812C108.995,-134.567 146.742,-93.4413 188,-71 197.23,-65.9796 207.753,-62.1888 218.043,-59.3368"/>
<polygon fill="midnightblue" stroke="midnightblue" points="218.945,-62.7189 227.786,-56.8805 217.234,-55.9312 218.945,-62.7189"/>
</g>
<!-- Node12 -->
<g id="node25" class="node"><title>Node12</title>
<a xlink:href="../../df/d70/class_exception.html#aa530ab8cc747843c76a435c3075ed094" target="_top" xlink:title="Get the user error message (translated) ">
<polygon fill="white" stroke="black" points="207.5,-0.5 207.5,-21.5 326.5,-21.5 326.5,-0.5 207.5,-0.5"/>
<text text-anchor="middle" x="267" y="-8.5" font-family="Helvetica,sans-Serif" font-size="10.00">Exception::getUserMsg</text>
</a>
</g>
<!-- Node1&#45;&gt;Node12 -->
<g id="edge26" class="edge"><title>Node1&#45;&gt;Node12</title>
<path fill="none" stroke="midnightblue" d="M84.4501,-157.786C100.332,-127.296 137.627,-63.9201 188,-31 191.146,-28.9441 194.489,-27.0995 197.956,-25.4445"/>
<polygon fill="midnightblue" stroke="midnightblue" points="199.502,-28.5912 207.367,-21.4916 196.792,-22.1374 199.502,-28.5912"/>
</g>
<!-- Node3 -->
<g id="node5" class="node"><title>Node3</title>
<a xlink:href="../../d5/db7/classproject_1_1_s_e_e___redirected_q_event.html#a8bc969fd921aeabce5720e8a51c97eb3" target="_top" xlink:title="project::SEE_RedirectedQEvent\l::getQEvent">
<polygon fill="white" stroke="black" points="382,-328 382,-362 540,-362 540,-328 382,-328"/>
<text text-anchor="start" x="390" y="-349" font-family="Helvetica,sans-Serif" font-size="10.00">project::SEE_RedirectedQEvent</text>
<text text-anchor="middle" x="461" y="-336" font-family="Helvetica,sans-Serif" font-size="10.00">::getQEvent</text>
</a>
</g>
<!-- Node2&#45;&gt;Node3 -->
<g id="edge4" class="edge"><title>Node2&#45;&gt;Node3</title>
<path fill="none" stroke="midnightblue" d="M346.187,-339.674C354.529,-340.061 363.054,-340.456 371.502,-340.848"/>
<polygon fill="midnightblue" stroke="midnightblue" points="371.6,-344.356 381.752,-341.324 371.925,-337.364 371.6,-344.356"/>
</g>
<!-- Node5 -->
<g id="node9" class="node"><title>Node5</title>
<a xlink:href="../../df/df0/class_length.html#a5aef66a62c626dea314f1a1e1716534b" target="_top" xlink:title="Set the length in pixels (from QGraphics* objects) ">
<polygon fill="white" stroke="black" points="407.5,-288.5 407.5,-309.5 514.5,-309.5 514.5,-288.5 407.5,-288.5"/>
<text text-anchor="middle" x="461" y="-296.5" font-family="Helvetica,sans-Serif" font-size="10.00">Length::setLengthPx</text>
</a>
</g>
<!-- Node4&#45;&gt;Node5 -->
<g id="edge8" class="edge"><title>Node4&#45;&gt;Node5</title>
<path fill="none" stroke="midnightblue" d="M305.793,-287.799C331.92,-289.685 366.989,-292.216 397.181,-294.394"/>
<polygon fill="midnightblue" stroke="midnightblue" points="396.987,-297.89 407.213,-295.118 397.491,-290.908 396.987,-297.89"/>
</g>
<!-- Node4&#45;&gt;Node7 -->
<g id="edge12" class="edge"><title>Node4&#45;&gt;Node7</title>
<path fill="none" stroke="midnightblue" d="M305.793,-276.202C334.029,-269.798 372.709,-261.025 404.39,-253.839"/>
<polygon fill="midnightblue" stroke="midnightblue" points="405.43,-257.193 414.408,-251.567 403.881,-250.366 405.43,-257.193"/>
</g>
<!-- Node6 -->
<g id="node11" class="node"><title>Node6</title>
<a xlink:href="../../df/df0/class_length.html#a73dbcae99cc78c7f7e737d5211154527" target="_top" xlink:title="Set the length from a floating point number in nanometers. ">
<polygon fill="white" stroke="black" points="576.5,-288.5 576.5,-309.5 715.5,-309.5 715.5,-288.5 576.5,-288.5"/>
<text text-anchor="middle" x="646" y="-296.5" font-family="Helvetica,sans-Serif" font-size="10.00">Length::setLengthFromFloat</text>
</a>
</g>
<!-- Node5&#45;&gt;Node6 -->
<g id="edge10" class="edge"><title>Node5&#45;&gt;Node6</title>
<path fill="none" stroke="midnightblue" d="M514.51,-299C530.656,-299 548.742,-299 566.212,-299"/>
<polygon fill="midnightblue" stroke="midnightblue" points="566.407,-302.5 576.407,-299 566.407,-295.5 566.407,-302.5"/>
</g>
<!-- Node7&#45;&gt;Node7 -->
<g id="edge14" class="edge"><title>Node7&#45;&gt;Node7</title>
<path fill="none" stroke="midnightblue" d="M431.764,-251.708C419.27,-260.653 429.016,-270 461,-270 481.99,-270 493.402,-265.975 495.236,-260.679"/>
<polygon fill="midnightblue" stroke="midnightblue" points="498.162,-258.738 490.236,-251.708 492.048,-262.147 498.162,-258.738"/>
</g>
</g>
</svg>
