<?xml version="1.0" encoding="UTF-8" standalone="no"?>
<!DOCTYPE svg PUBLIC "-//W3C//DTD SVG 1.1//EN"
 "http://www.w3.org/Graphics/SVG/1.1/DTD/svg11.dtd">
<!-- Generated by graphviz version 2.26.3 (20100126.1600)
 -->
<!-- Title: /home/travis/build/LibrePCB/LibrePCB/libs/librepcbprojecteditor/schematiceditor/fsm/schematiceditorevent.cpp Pages: 1 -->
<svg width="2491pt" height="474pt"
 viewBox="0.00 0.00 2491.00 474.00" xmlns="http://www.w3.org/2000/svg" xmlns:xlink="http://www.w3.org/1999/xlink">
<g id="graph1" class="graph" transform="scale(1 1) rotate(0) translate(4 470)">
<title>/home/travis/build/LibrePCB/LibrePCB/libs/librepcbprojecteditor/schematiceditor/fsm/schematiceditorevent.cpp</title>
<polygon fill="white" stroke="white" points="-4,5 -4,-470 2488,-470 2488,5 -4,5"/>
<!-- Node1 -->
<g id="node1" class="node"><title>Node1</title>
<polygon fill="#bfbfbf" stroke="black" points="230.5,-405 230.5,-465 453.5,-465 453.5,-405 230.5,-405"/>
<text text-anchor="start" x="238.5" y="-452" font-family="Helvetica,sans-Serif" font-size="10.00">/home/travis/build</text>
<text text-anchor="start" x="238.5" y="-439" font-family="Helvetica,sans-Serif" font-size="10.00">/LibrePCB/LibrePCB/libs</text>
<text text-anchor="start" x="238.5" y="-426" font-family="Helvetica,sans-Serif" font-size="10.00">/librepcbprojecteditor</text>
<text text-anchor="middle" x="342" y="-413" font-family="Helvetica,sans-Serif" font-size="10.00">/schematiceditor/fsm/schematiceditorevent.cpp</text>
</g>
<!-- Node2 -->
<g id="node3" class="node"><title>Node2</title>
<polygon fill="white" stroke="#bfbfbf" points="516,-0.5 516,-21.5 564,-21.5 564,-0.5 516,-0.5"/>
<text text-anchor="middle" x="540" y="-8.5" font-family="Helvetica,sans-Serif" font-size="10.00">QtCore</text>
</g>
<!-- Node1&#45;&gt;Node2 -->
<g id="edge2" class="edge"><title>Node1&#45;&gt;Node2</title>
<path fill="none" stroke="midnightblue" d="M230.49,-406.42C130.687,-377.471 0,-329.694 0,-278 0,-278 0,-278 0,-141 0,-36.5152 386.963,-15.7698 505.744,-11.8631"/>
<polygon fill="midnightblue" stroke="midnightblue" points="505.861,-15.3613 515.748,-11.5536 505.645,-8.36461 505.861,-15.3613"/>
</g>
<!-- Node3 -->
<g id="node5" class="node"><title>Node3</title>
<a xlink:href="../../da/d97/schematiceditorevent_8h.html" target="_top" xlink:title="schematiceditorevent.h">
<polygon fill="white" stroke="black" points="28,-195.5 28,-216.5 146,-216.5 146,-195.5 28,-195.5"/>
<text text-anchor="middle" x="87" y="-203.5" font-family="Helvetica,sans-Serif" font-size="10.00">schematiceditorevent.h</text>
</a>
</g>
<!-- Node1&#45;&gt;Node3 -->
<g id="edge4" class="edge"><title>Node1&#45;&gt;Node3</title>
<path fill="none" stroke="midnightblue" d="M308.401,-404.827C254.276,-356.221 149.493,-262.121 106.315,-223.346"/>
<polygon fill="midnightblue" stroke="midnightblue" points="108.543,-220.643 98.7647,-216.565 103.866,-225.851 108.543,-220.643"/>
</g>
<!-- Node4 -->
<g id="node8" class="node"><title>Node4</title>
<a xlink:href="../../d2/db7/schematiceditor_8h.html" target="_top" xlink:title="../schematiceditor.h">
<polygon fill="white" stroke="black" points="290.5,-339.5 290.5,-360.5 393.5,-360.5 393.5,-339.5 290.5,-339.5"/>
<text text-anchor="middle" x="342" y="-347.5" font-family="Helvetica,sans-Serif" font-size="10.00">../schematiceditor.h</text>
</a>
</g>
<!-- Node1&#45;&gt;Node4 -->
<g id="edge8" class="edge"><title>Node1&#45;&gt;Node4</title>
<path fill="none" stroke="midnightblue" d="M342,-404.793C342,-393.579 342,-381.116 342,-370.913"/>
<polygon fill="midnightblue" stroke="midnightblue" points="345.5,-370.895 342,-360.895 338.5,-370.895 345.5,-370.895"/>
</g>
<!-- Node7 -->
<g id="node16" class="node"><title>Node7</title>
<a xlink:href="../../df/d40/ui__schematiceditor_8h.html" target="_top" xlink:title="ui_schematiceditor.h">
<polygon fill="white" stroke="black" points="1538.5,-339.5 1538.5,-360.5 1645.5,-360.5 1645.5,-339.5 1538.5,-339.5"/>
<text text-anchor="middle" x="1592" y="-347.5" font-family="Helvetica,sans-Serif" font-size="10.00">ui_schematiceditor.h</text>
</a>
</g>
<!-- Node1&#45;&gt;Node7 -->
<g id="edge18" class="edge"><title>Node1&#45;&gt;Node7</title>
<path fill="none" stroke="midnightblue" d="M453.754,-427.401C708.902,-410.051 1327.7,-367.973 1528.17,-354.341"/>
<polygon fill="midnightblue" stroke="midnightblue" points="1528.5,-357.826 1538.24,-353.656 1528.03,-350.842 1528.5,-357.826"/>
</g>
<!-- Node20 -->
<g id="node42" class="node"><title>Node20</title>
<a xlink:href="../../d1/d8d/schematic_8h.html" target="_top" xlink:title="librepcbproject/schematics\l/schematic.h">
<polygon fill="white" stroke="black" points="586.5,-333 586.5,-367 719.5,-367 719.5,-333 586.5,-333"/>
<text text-anchor="start" x="594.5" y="-354" font-family="Helvetica,sans-Serif" font-size="10.00">librepcbproject/schematics</text>
<text text-anchor="middle" x="653" y="-341" font-family="Helvetica,sans-Serif" font-size="10.00">/schematic.h</text>
</a>
</g>
<!-- Node1&#45;&gt;Node20 -->
<g id="edge44" class="edge"><title>Node1&#45;&gt;Node20</title>
<path fill="none" stroke="midnightblue" d="M452.085,-404.913C494.752,-393.251 542.419,-380.223 580.613,-369.784"/>
<polygon fill="midnightblue" stroke="midnightblue" points="581.892,-373.063 590.615,-367.051 580.046,-366.311 581.892,-373.063"/>
</g>
<!-- Node3&#45;&gt;Node2 -->
<g id="edge6" class="edge"><title>Node3&#45;&gt;Node2</title>
<path fill="none" stroke="midnightblue" d="M94.8371,-195.168C115.772,-167.144 176.185,-92.0743 246,-58 291.306,-35.8878 438.264,-20.1851 505.658,-13.9626"/>
<polygon fill="midnightblue" stroke="midnightblue" points="506.121,-17.4351 515.764,-13.0458 505.488,-10.4637 506.121,-17.4351"/>
</g>
<!-- Node4&#45;&gt;Node2 -->
<g id="edge10" class="edge"><title>Node4&#45;&gt;Node2</title>
<path fill="none" stroke="midnightblue" d="M340.983,-339.355C338.453,-313.408 331.467,-244.858 323,-188 316.746,-146.008 309.793,-136.286 306,-94 304.571,-78.064 295.861,-70.3776 306,-58 330.842,-27.6721 446.805,-16.4998 505.612,-12.7348"/>
<polygon fill="midnightblue" stroke="midnightblue" points="506.121,-16.2106 515.892,-12.1151 505.7,-9.22326 506.121,-16.2106"/>
</g>
<!-- Node5 -->
<g id="node11" class="node"><title>Node5</title>
<polygon fill="white" stroke="#bfbfbf" points="369.5,-267.5 369.5,-288.5 432.5,-288.5 432.5,-267.5 369.5,-267.5"/>
<text text-anchor="middle" x="401" y="-275.5" font-family="Helvetica,sans-Serif" font-size="10.00">QtWidgets</text>
</g>
<!-- Node4&#45;&gt;Node5 -->
<g id="edge12" class="edge"><title>Node4&#45;&gt;Node5</title>
<path fill="none" stroke="midnightblue" d="M350.706,-339.376C359.943,-328.103 374.716,-310.075 385.866,-296.468"/>
<polygon fill="midnightblue" stroke="midnightblue" points="388.628,-298.621 392.259,-288.667 383.213,-294.184 388.628,-298.621"/>
</g>
<!-- Node6 -->
<g id="node13" class="node"><title>Node6</title>
<a xlink:href="../../df/df9/if__graphicsvieweventhandler_8h.html" target="_top" xlink:title="librepcbcommon/graphics\l/if_graphicsvieweventhandler.h">
<polygon fill="white" stroke="black" points="163.5,-189 163.5,-223 314.5,-223 314.5,-189 163.5,-189"/>
<text text-anchor="start" x="171.5" y="-210" font-family="Helvetica,sans-Serif" font-size="10.00">librepcbcommon/graphics</text>
<text text-anchor="middle" x="239" y="-197" font-family="Helvetica,sans-Serif" font-size="10.00">/if_graphicsvieweventhandler.h</text>
</a>
</g>
<!-- Node4&#45;&gt;Node6 -->
<g id="edge14" class="edge"><title>Node4&#45;&gt;Node6</title>
<path fill="none" stroke="midnightblue" d="M334.258,-339.177C318.008,-316.458 279.965,-263.272 257.177,-231.413"/>
<polygon fill="midnightblue" stroke="midnightblue" points="259.849,-229.133 251.185,-223.035 254.156,-233.205 259.849,-229.133"/>
</g>
<!-- Node6&#45;&gt;Node2 -->
<g id="edge16" class="edge"><title>Node6&#45;&gt;Node2</title>
<path fill="none" stroke="midnightblue" d="M237.401,-188.928C235.532,-157.994 236.488,-92.6764 273,-58 305.975,-26.683 441.305,-15.8647 505.674,-12.4426"/>
<polygon fill="midnightblue" stroke="midnightblue" points="505.923,-15.9346 515.735,-11.9376 505.572,-8.94345 505.923,-15.9346"/>
</g>
<!-- Node8 -->
<g id="node18" class="node"><title>Node8</title>
<polygon fill="white" stroke="#bfbfbf" points="1306.5,-267.5 1306.5,-288.5 1395.5,-288.5 1395.5,-267.5 1306.5,-267.5"/>
<text text-anchor="middle" x="1351" y="-275.5" font-family="Helvetica,sans-Serif" font-size="10.00">QtCore/QVariant</text>
</g>
<!-- Node7&#45;&gt;Node8 -->
<g id="edge20" class="edge"><title>Node7&#45;&gt;Node8</title>
<path fill="none" stroke="midnightblue" d="M1553.31,-339.469C1515.19,-328.955 1455.36,-312.089 1404,-296 1399.71,-294.657 1395.24,-293.211 1390.8,-291.744"/>
<polygon fill="midnightblue" stroke="midnightblue" points="1391.78,-288.383 1381.19,-288.53 1389.56,-295.021 1391.78,-288.383"/>
</g>
<!-- Node9 -->
<g id="node20" class="node"><title>Node9</title>
<polygon fill="white" stroke="#bfbfbf" points="1412.5,-267.5 1412.5,-288.5 1513.5,-288.5 1513.5,-267.5 1412.5,-267.5"/>
<text text-anchor="middle" x="1463" y="-275.5" font-family="Helvetica,sans-Serif" font-size="10.00">QtWidgets/QAction</text>
</g>
<!-- Node7&#45;&gt;Node9 -->
<g id="edge22" class="edge"><title>Node7&#45;&gt;Node9</title>
<path fill="none" stroke="midnightblue" d="M1572.97,-339.376C1551.34,-327.305 1515.84,-307.49 1491.04,-293.651"/>
<polygon fill="midnightblue" stroke="midnightblue" points="1492.55,-290.485 1482.11,-288.667 1489.14,-296.597 1492.55,-290.485"/>
</g>
<!-- Node10 -->
<g id="node22" class="node"><title>Node10</title>
<polygon fill="white" stroke="#bfbfbf" points="1531,-267.5 1531,-288.5 1653,-288.5 1653,-267.5 1531,-267.5"/>
<text text-anchor="middle" x="1592" y="-275.5" font-family="Helvetica,sans-Serif" font-size="10.00">QtWidgets/QApplication</text>
</g>
<!-- Node7&#45;&gt;Node10 -->
<g id="edge24" class="edge"><title>Node7&#45;&gt;Node10</title>
<path fill="none" stroke="midnightblue" d="M1592,-339.376C1592,-328.741 1592,-312.095 1592,-298.82"/>
<polygon fill="midnightblue" stroke="midnightblue" points="1595.5,-298.667 1592,-288.667 1588.5,-298.667 1595.5,-298.667"/>
</g>
<!-- Node11 -->
<g id="node24" class="node"><title>Node11</title>
<polygon fill="white" stroke="#bfbfbf" points="1671,-267.5 1671,-288.5 1799,-288.5 1799,-267.5 1671,-267.5"/>
<text text-anchor="middle" x="1735" y="-275.5" font-family="Helvetica,sans-Serif" font-size="10.00">QtWidgets/QButtonGroup</text>
</g>
<!-- Node7&#45;&gt;Node11 -->
<g id="edge26" class="edge"><title>Node7&#45;&gt;Node11</title>
<path fill="none" stroke="midnightblue" d="M1613.1,-339.376C1637.29,-327.199 1677.12,-307.141 1704.64,-293.286"/>
<polygon fill="midnightblue" stroke="midnightblue" points="1706.46,-296.291 1713.81,-288.667 1703.31,-290.038 1706.46,-296.291"/>
</g>
<!-- Node12 -->
<g id="node26" class="node"><title>Node12</title>
<polygon fill="white" stroke="#bfbfbf" points="1817,-267.5 1817,-288.5 1945,-288.5 1945,-267.5 1817,-267.5"/>
<text text-anchor="middle" x="1881" y="-275.5" font-family="Helvetica,sans-Serif" font-size="10.00">QtWidgets/QHBoxLayout</text>
</g>
<!-- Node7&#45;&gt;Node12 -->
<g id="edge28" class="edge"><title>Node7&#45;&gt;Node12</title>
<path fill="none" stroke="midnightblue" d="M1634.33,-339.453C1685.84,-326.62 1772.82,-304.952 1828.53,-291.072"/>
<polygon fill="midnightblue" stroke="midnightblue" points="1829.7,-294.388 1838.55,-288.575 1828,-287.596 1829.7,-294.388"/>
</g>
<!-- Node13 -->
<g id="node28" class="node"><title>Node13</title>
<polygon fill="white" stroke="#bfbfbf" points="1962.5,-267.5 1962.5,-288.5 2089.5,-288.5 2089.5,-267.5 1962.5,-267.5"/>
<text text-anchor="middle" x="2026" y="-275.5" font-family="Helvetica,sans-Serif" font-size="10.00">QtWidgets/QHeaderView</text>
</g>
<!-- Node7&#45;&gt;Node13 -->
<g id="edge30" class="edge"><title>Node7&#45;&gt;Node13</title>
<path fill="none" stroke="midnightblue" d="M1645.64,-343.649C1716.56,-334.876 1845.25,-317.651 1954,-296 1961.47,-294.513 1969.33,-292.753 1976.99,-290.926"/>
<polygon fill="midnightblue" stroke="midnightblue" points="1978.04,-294.275 1986.92,-288.502 1976.37,-287.475 1978.04,-294.275"/>
</g>
<!-- Node14 -->
<g id="node30" class="node"><title>Node14</title>
<polygon fill="white" stroke="#bfbfbf" points="2107,-267.5 2107,-288.5 2237,-288.5 2237,-267.5 2107,-267.5"/>
<text text-anchor="middle" x="2172" y="-275.5" font-family="Helvetica,sans-Serif" font-size="10.00">QtWidgets/QMainWindow</text>
</g>
<!-- Node7&#45;&gt;Node14 -->
<g id="edge32" class="edge"><title>Node7&#45;&gt;Node14</title>
<path fill="none" stroke="midnightblue" d="M1645.5,-346.627C1738.18,-340.265 1934.37,-324.503 2098,-296 2106.15,-294.58 2114.73,-292.78 2123.06,-290.869"/>
<polygon fill="midnightblue" stroke="midnightblue" points="2124.11,-294.217 2133.03,-288.502 2122.49,-287.406 2124.11,-294.217"/>
</g>
<!-- Node15 -->
<g id="node32" class="node"><title>Node15</title>
<polygon fill="white" stroke="#bfbfbf" points="2255,-267.5 2255,-288.5 2353,-288.5 2353,-267.5 2255,-267.5"/>
<text text-anchor="middle" x="2304" y="-275.5" font-family="Helvetica,sans-Serif" font-size="10.00">QtWidgets/QMenu</text>
</g>
<!-- Node7&#45;&gt;Node15 -->
<g id="edge34" class="edge"><title>Node7&#45;&gt;Node15</title>
<path fill="none" stroke="midnightblue" d="M1645.88,-347.073C1780.95,-339.49 2131.36,-318.244 2246,-296 2252.18,-294.801 2258.63,-293.181 2264.9,-291.403"/>
<polygon fill="midnightblue" stroke="midnightblue" points="2265.94,-294.744 2274.51,-288.516 2263.93,-288.039 2265.94,-294.744"/>
</g>
<!-- Node16 -->
<g id="node34" class="node"><title>Node16</title>
<polygon fill="white" stroke="#bfbfbf" points="2370.5,-267.5 2370.5,-288.5 2483.5,-288.5 2483.5,-267.5 2370.5,-267.5"/>
<text text-anchor="middle" x="2427" y="-275.5" font-family="Helvetica,sans-Serif" font-size="10.00">QtWidgets/QMenuBar</text>
</g>
<!-- Node7&#45;&gt;Node16 -->
<g id="edge36" class="edge"><title>Node7&#45;&gt;Node16</title>
<path fill="none" stroke="midnightblue" d="M1645.56,-347.642C1796.57,-340.771 2223.73,-319.746 2362,-296 2369.22,-294.76 2376.79,-293.051 2384.12,-291.176"/>
<polygon fill="midnightblue" stroke="midnightblue" points="2385.14,-294.525 2393.89,-288.546 2383.32,-287.765 2385.14,-294.525"/>
</g>
<!-- Node17 -->
<g id="node36" class="node"><title>Node17</title>
<polygon fill="white" stroke="#bfbfbf" points="926.5,-267.5 926.5,-288.5 1043.5,-288.5 1043.5,-267.5 926.5,-267.5"/>
<text text-anchor="middle" x="985" y="-275.5" font-family="Helvetica,sans-Serif" font-size="10.00">QtWidgets/QStatusBar</text>
</g>
<!-- Node7&#45;&gt;Node17 -->
<g id="edge38" class="edge"><title>Node7&#45;&gt;Node17</title>
<path fill="none" stroke="midnightblue" d="M1538.33,-347.531C1440.81,-342.404 1228.32,-328.278 1052,-296 1044.75,-294.673 1037.14,-292.952 1029.75,-291.101"/>
<polygon fill="midnightblue" stroke="midnightblue" points="1030.44,-287.662 1019.88,-288.522 1028.67,-294.435 1030.44,-287.662"/>
</g>
<!-- Node18 -->
<g id="node38" class="node"><title>Node18</title>
<polygon fill="white" stroke="#bfbfbf" points="1060.5,-267.5 1060.5,-288.5 1167.5,-288.5 1167.5,-267.5 1060.5,-267.5"/>
<text text-anchor="middle" x="1114" y="-275.5" font-family="Helvetica,sans-Serif" font-size="10.00">QtWidgets/QToolBar</text>
</g>
<!-- Node7&#45;&gt;Node18 -->
<g id="edge40" class="edge"><title>Node7&#45;&gt;Node18</title>
<path fill="none" stroke="midnightblue" d="M1538.37,-345.69C1458.71,-338.692 1304.68,-322.865 1176,-296 1169.74,-294.692 1163.18,-293.072 1156.78,-291.345"/>
<polygon fill="midnightblue" stroke="midnightblue" points="1157.48,-287.906 1146.91,-288.571 1155.59,-294.645 1157.48,-287.906"/>
</g>
<!-- Node19 -->
<g id="node40" class="node"><title>Node19</title>
<polygon fill="white" stroke="#bfbfbf" points="1185,-267.5 1185,-288.5 1289,-288.5 1289,-267.5 1185,-267.5"/>
<text text-anchor="middle" x="1237" y="-275.5" font-family="Helvetica,sans-Serif" font-size="10.00">QtWidgets/QWidget</text>
</g>
<!-- Node7&#45;&gt;Node19 -->
<g id="edge42" class="edge"><title>Node7&#45;&gt;Node19</title>
<path fill="none" stroke="midnightblue" d="M1538.27,-341.874C1479.05,-332.515 1381.16,-315.849 1298,-296 1292.22,-294.621 1286.18,-293.026 1280.23,-291.367"/>
<polygon fill="midnightblue" stroke="midnightblue" points="1280.97,-287.937 1270.39,-288.542 1279.04,-294.665 1280.97,-287.937"/>
</g>
<!-- Node20&#45;&gt;Node2 -->
<g id="edge46" class="edge"><title>Node20&#45;&gt;Node2</title>
<path fill="none" stroke="midnightblue" d="M719.571,-340.256C792.425,-325.388 899,-289.386 899,-206 899,-206 899,-206 899,-141 899,-103.157 907.906,-83.5607 880,-58 857.659,-37.5366 656.244,-19.9247 574.37,-13.548"/>
<polygon fill="midnightblue" stroke="midnightblue" points="574.332,-10.0348 564.093,-12.7578 573.795,-17.0142 574.332,-10.0348"/>
</g>
<!-- Node20&#45;&gt;Node5 -->
<g id="edge48" class="edge"><title>Node20&#45;&gt;Node5</title>
<path fill="none" stroke="midnightblue" d="M586.195,-334.825C545.338,-324.989 492.217,-311.205 446,-296 442.621,-294.888 439.13,-293.653 435.657,-292.364"/>
<polygon fill="midnightblue" stroke="midnightblue" points="436.613,-288.982 426.023,-288.654 434.097,-295.514 436.613,-288.982"/>
</g>
<!-- Node21 -->
<g id="node46" class="node"><title>Node21</title>
<a xlink:href="../../da/d81/if__attributeprovider_8h.html" target="_top" xlink:title="librepcbcommon/if_attributeprovider.h">
<polygon fill="white" stroke="black" points="314.5,-65.5 314.5,-86.5 493.5,-86.5 493.5,-65.5 314.5,-65.5"/>
<text text-anchor="middle" x="404" y="-73.5" font-family="Helvetica,sans-Serif" font-size="10.00">librepcbcommon/if_attributeprovider.h</text>
</a>
</g>
<!-- Node20&#45;&gt;Node21 -->
<g id="edge50" class="edge"><title>Node20&#45;&gt;Node21</title>
<path fill="none" stroke="midnightblue" d="M602.07,-332.946C580.07,-324.062 554.875,-311.729 535,-296 465.911,-241.324 425.278,-139.436 410.452,-96.217"/>
<polygon fill="midnightblue" stroke="midnightblue" points="413.716,-94.9406 407.237,-86.5576 407.074,-97.1512 413.716,-94.9406"/>
</g>
<!-- Node22 -->
<g id="node49" class="node"><title>Node22</title>
<a xlink:href="../../d0/d1d/if__xmlserializableobject_8h.html" target="_top" xlink:title="librepcbcommon/fileio\l/if_xmlserializableobject.h">
<polygon fill="white" stroke="black" points="665.5,-189 665.5,-223 794.5,-223 794.5,-189 665.5,-189"/>
<text text-anchor="start" x="673.5" y="-210" font-family="Helvetica,sans-Serif" font-size="10.00">librepcbcommon/fileio</text>
<text text-anchor="middle" x="730" y="-197" font-family="Helvetica,sans-Serif" font-size="10.00">/if_xmlserializableobject.h</text>
</a>
</g>
<!-- Node20&#45;&gt;Node22 -->
<g id="edge54" class="edge"><title>Node20&#45;&gt;Node22</title>
<path fill="none" stroke="midnightblue" d="M662.135,-332.916C675.507,-307.908 700.516,-261.14 716.155,-231.892"/>
<polygon fill="midnightblue" stroke="midnightblue" points="719.248,-233.531 720.877,-223.062 713.075,-230.23 719.248,-233.531"/>
</g>
<!-- Node23 -->
<g id="node51" class="node"><title>Node23</title>
<a xlink:href="../../d4/d03/exceptions_8h.html" target="_top" xlink:title="../exceptions.h">
<polygon fill="white" stroke="black" points="662.5,-65.5 662.5,-86.5 743.5,-86.5 743.5,-65.5 662.5,-65.5"/>
<text text-anchor="middle" x="703" y="-73.5" font-family="Helvetica,sans-Serif" font-size="10.00">../exceptions.h</text>
</a>
</g>
<!-- Node20&#45;&gt;Node23 -->
<g id="edge90" class="edge"><title>Node20&#45;&gt;Node23</title>
<path fill="none" stroke="midnightblue" d="M687.401,-332.837C723.836,-312.505 779.298,-274.865 803,-224 827.07,-172.347 765.053,-118.587 728.14,-92.3622"/>
<polygon fill="midnightblue" stroke="midnightblue" points="730.02,-89.407 719.803,-86.6011 726.04,-95.1657 730.02,-89.407"/>
</g>
<!-- Node24 -->
<g id="node54" class="node"><title>Node24</title>
<a xlink:href="../../d1/da8/all__length__units_8h.html" target="_top" xlink:title="librepcbcommon/units\l/all_length_units.h">
<polygon fill="white" stroke="black" points="544,-261 544,-295 656,-295 656,-261 544,-261"/>
<text text-anchor="start" x="552" y="-282" font-family="Helvetica,sans-Serif" font-size="10.00">librepcbcommon/units</text>
<text text-anchor="middle" x="600" y="-269" font-family="Helvetica,sans-Serif" font-size="10.00">/all_length_units.h</text>
</a>
</g>
<!-- Node20&#45;&gt;Node24 -->
<g id="edge60" class="edge"><title>Node20&#45;&gt;Node24</title>
<path fill="none" stroke="midnightblue" d="M640.44,-332.937C634,-324.189 626.025,-313.354 618.863,-303.626"/>
<polygon fill="midnightblue" stroke="midnightblue" points="621.585,-301.419 612.838,-295.441 615.948,-305.569 621.585,-301.419"/>
</g>
<!-- Node29 -->
<g id="node72" class="node"><title>Node29</title>
<a xlink:href="../../dd/dec/filepath_8h.html" target="_top" xlink:title="librepcbcommon/fileio\l/filepath.h">
<polygon fill="white" stroke="black" points="760.5,-59 760.5,-93 871.5,-93 871.5,-59 760.5,-59"/>
<text text-anchor="start" x="768.5" y="-80" font-family="Helvetica,sans-Serif" font-size="10.00">librepcbcommon/fileio</text>
<text text-anchor="middle" x="816" y="-67" font-family="Helvetica,sans-Serif" font-size="10.00">/filepath.h</text>
</a>
</g>
<!-- Node20&#45;&gt;Node29 -->
<g id="edge86" class="edge"><title>Node20&#45;&gt;Node29</title>
<path fill="none" stroke="midnightblue" d="M710.711,-332.978C732.864,-324.43 757.294,-312.339 776,-296 804.245,-271.329 809.843,-260.1 820,-224 831.471,-183.232 826.519,-133.634 821.533,-103.46"/>
<polygon fill="midnightblue" stroke="midnightblue" points="824.919,-102.509 819.724,-93.2748 818.026,-103.733 824.919,-102.509"/>
</g>
<!-- Node21&#45;&gt;Node2 -->
<g id="edge52" class="edge"><title>Node21&#45;&gt;Node2</title>
<path fill="none" stroke="midnightblue" d="M426.153,-65.412C448.579,-54.6941 483.455,-38.025 508.699,-25.9601"/>
<polygon fill="midnightblue" stroke="midnightblue" points="510.343,-29.0536 517.856,-21.5835 507.324,-22.7379 510.343,-29.0536"/>
</g>
<!-- Node22&#45;&gt;Node23 -->
<g id="edge56" class="edge"><title>Node22&#45;&gt;Node23</title>
<path fill="none" stroke="midnightblue" d="M738.447,-188.749C744.928,-173.114 751.722,-149.59 745,-130 740.363,-116.484 730.807,-103.745 721.981,-94.0384"/>
<polygon fill="midnightblue" stroke="midnightblue" points="724.321,-91.4219 714.863,-86.6472 719.279,-96.2778 724.321,-91.4219"/>
</g>
<!-- Node23&#45;&gt;Node2 -->
<g id="edge58" class="edge"><title>Node23&#45;&gt;Node2</title>
<path fill="none" stroke="midnightblue" d="M676.448,-65.412C648.365,-54.213 603.988,-36.5168 573.514,-24.3645"/>
<polygon fill="midnightblue" stroke="midnightblue" points="574.732,-21.0821 564.146,-20.629 572.139,-27.5841 574.732,-21.0821"/>
</g>
<!-- Node25 -->
<g id="node56" class="node"><title>Node25</title>
<a xlink:href="../../d0/d09/lengthunit_8h.html" target="_top" xlink:title="lengthunit.h">
<polygon fill="white" stroke="black" points="669.5,-130.5 669.5,-151.5 736.5,-151.5 736.5,-130.5 669.5,-130.5"/>
<text text-anchor="middle" x="703" y="-138.5" font-family="Helvetica,sans-Serif" font-size="10.00">lengthunit.h</text>
</a>
</g>
<!-- Node24&#45;&gt;Node25 -->
<g id="edge62" class="edge"><title>Node24&#45;&gt;Node25</title>
<path fill="none" stroke="midnightblue" d="M609.499,-260.698C620.076,-242.03 638.174,-211.782 657,-188 665.139,-177.719 675.232,-167.204 683.89,-158.733"/>
<polygon fill="midnightblue" stroke="midnightblue" points="686.54,-161.04 691.339,-151.594 681.697,-155.987 686.54,-161.04"/>
</g>
<!-- Node26 -->
<g id="node60" class="node"><title>Node26</title>
<a xlink:href="../../dd/db9/length_8h.html" target="_top" xlink:title="length.h">
<polygon fill="white" stroke="black" points="535.5,-130.5 535.5,-151.5 586.5,-151.5 586.5,-130.5 535.5,-130.5"/>
<text text-anchor="middle" x="561" y="-138.5" font-family="Helvetica,sans-Serif" font-size="10.00">length.h</text>
</a>
</g>
<!-- Node24&#45;&gt;Node26 -->
<g id="edge68" class="edge"><title>Node24&#45;&gt;Node26</title>
<path fill="none" stroke="midnightblue" d="M595.139,-260.926C587.961,-235.709 574.544,-188.579 566.841,-161.519"/>
<polygon fill="midnightblue" stroke="midnightblue" points="570.118,-160.246 564.014,-151.586 563.385,-162.163 570.118,-160.246"/>
</g>
<!-- Node27 -->
<g id="node64" class="node"><title>Node27</title>
<a xlink:href="../../d2/d91/point_8h.html" target="_top" xlink:title="point.h">
<polygon fill="white" stroke="black" points="488,-195.5 488,-216.5 534,-216.5 534,-195.5 488,-195.5"/>
<text text-anchor="middle" x="511" y="-203.5" font-family="Helvetica,sans-Serif" font-size="10.00">point.h</text>
</a>
</g>
<!-- Node24&#45;&gt;Node27 -->
<g id="edge74" class="edge"><title>Node24&#45;&gt;Node27</title>
<path fill="none" stroke="midnightblue" d="M578.908,-260.937C564.861,-249.573 546.462,-234.689 532.36,-223.28"/>
<polygon fill="midnightblue" stroke="midnightblue" points="534.187,-220.256 524.212,-216.688 529.785,-225.699 534.187,-220.256"/>
</g>
<!-- Node28 -->
<g id="node68" class="node"><title>Node28</title>
<a xlink:href="../../da/dac/angle_8h.html" target="_top" xlink:title="angle.h">
<polygon fill="white" stroke="black" points="604,-130.5 604,-151.5 652,-151.5 652,-130.5 604,-130.5"/>
<text text-anchor="middle" x="628" y="-138.5" font-family="Helvetica,sans-Serif" font-size="10.00">angle.h</text>
</a>
</g>
<!-- Node24&#45;&gt;Node28 -->
<g id="edge80" class="edge"><title>Node24&#45;&gt;Node28</title>
<path fill="none" stroke="midnightblue" d="M603.49,-260.926C608.643,-235.709 618.276,-188.579 623.806,-161.519"/>
<polygon fill="midnightblue" stroke="midnightblue" points="627.263,-162.085 625.836,-151.586 620.405,-160.683 627.263,-162.085"/>
</g>
<!-- Node25&#45;&gt;Node2 -->
<g id="edge64" class="edge"><title>Node25&#45;&gt;Node2</title>
<path fill="none" stroke="midnightblue" d="M689.661,-130.362C661.483,-107.889 595.688,-55.4136 561.494,-28.1422"/>
<polygon fill="midnightblue" stroke="midnightblue" points="563.524,-25.2844 553.523,-21.7854 559.159,-30.757 563.524,-25.2844"/>
</g>
<!-- Node25&#45;&gt;Node23 -->
<g id="edge66" class="edge"><title>Node25&#45;&gt;Node23</title>
<path fill="none" stroke="midnightblue" d="M703,-130.267C703,-121.18 703,-107.892 703,-96.7395"/>
<polygon fill="midnightblue" stroke="midnightblue" points="706.5,-96.5337 703,-86.5337 699.5,-96.5337 706.5,-96.5337"/>
</g>
<!-- Node26&#45;&gt;Node2 -->
<g id="edge70" class="edge"><title>Node26&#45;&gt;Node2</title>
<path fill="none" stroke="midnightblue" d="M559.281,-130.362C555.805,-108.841 547.884,-59.8068 543.35,-31.7405"/>
<polygon fill="midnightblue" stroke="midnightblue" points="546.792,-31.0993 541.742,-21.7854 539.882,-32.2156 546.792,-31.0993"/>
</g>
<!-- Node26&#45;&gt;Node23 -->
<g id="edge72" class="edge"><title>Node26&#45;&gt;Node23</title>
<path fill="none" stroke="midnightblue" d="M584.131,-130.412C607.648,-119.647 644.282,-102.878 670.666,-90.8009"/>
<polygon fill="midnightblue" stroke="midnightblue" points="672.243,-93.9281 679.879,-86.5835 669.33,-87.5633 672.243,-93.9281"/>
</g>
<!-- Node27&#45;&gt;Node2 -->
<g id="edge76" class="edge"><title>Node27&#45;&gt;Node2</title>
<path fill="none" stroke="midnightblue" d="M512.6,-195.238C517.234,-164.082 530.72,-73.3973 536.874,-32.022"/>
<polygon fill="midnightblue" stroke="midnightblue" points="540.36,-32.375 538.369,-21.9689 533.436,-31.3453 540.36,-32.375"/>
</g>
<!-- Node27&#45;&gt;Node26 -->
<g id="edge78" class="edge"><title>Node27&#45;&gt;Node26</title>
<path fill="none" stroke="midnightblue" d="M519.256,-195.267C526.683,-185.612 537.758,-171.215 546.635,-159.675"/>
<polygon fill="midnightblue" stroke="midnightblue" points="549.574,-161.594 552.897,-151.534 544.026,-157.326 549.574,-161.594"/>
</g>
<!-- Node28&#45;&gt;Node2 -->
<g id="edge82" class="edge"><title>Node28&#45;&gt;Node2</title>
<path fill="none" stroke="midnightblue" d="M620.799,-130.362C605.973,-108.46 571.858,-58.0624 553.044,-30.2702"/>
<polygon fill="midnightblue" stroke="midnightblue" points="555.805,-28.1046 547.301,-21.7854 550.008,-32.0286 555.805,-28.1046"/>
</g>
<!-- Node28&#45;&gt;Node23 -->
<g id="edge84" class="edge"><title>Node28&#45;&gt;Node23</title>
<path fill="none" stroke="midnightblue" d="M640.385,-130.267C651.962,-120.233 669.448,-105.078 683.003,-93.3311"/>
<polygon fill="midnightblue" stroke="midnightblue" points="685.581,-95.728 690.846,-86.5337 680.997,-90.4381 685.581,-95.728"/>
</g>
<!-- Node29&#45;&gt;Node2 -->
<g id="edge88" class="edge"><title>Node29&#45;&gt;Node2</title>
<path fill="none" stroke="midnightblue" d="M760.202,-60.1082C757.432,-59.3817 754.687,-58.6751 752,-58 689.643,-42.332 616.281,-26.6804 574.251,-17.9772"/>
<polygon fill="midnightblue" stroke="midnightblue" points="574.768,-14.5101 564.267,-15.9184 573.354,-21.3659 574.768,-14.5101"/>
</g>
</g>
</svg>
