<?xml version="1.0" encoding="UTF-8" standalone="no"?>
<!DOCTYPE svg PUBLIC "-//W3C//DTD SVG 1.1//EN"
 "http://www.w3.org/Graphics/SVG/1.1/DTD/svg11.dtd">
<!-- Generated by graphviz version 2.26.3 (20100126.1600)
 -->
<!-- Title: /home/travis/build/LibrePCB/LibrePCB/libs/librepcblibrary/sym/symboltext.cpp Pages: 1 -->
<svg width="628pt" height="446pt"
 viewBox="0.00 0.00 628.00 446.00" xmlns="http://www.w3.org/2000/svg" xmlns:xlink="http://www.w3.org/1999/xlink">
<g id="graph1" class="graph" transform="scale(1 1) rotate(0) translate(4 442)">
<title>/home/travis/build/LibrePCB/LibrePCB/libs/librepcblibrary/sym/symboltext.cpp</title>
<polygon fill="white" stroke="white" points="-4,5 -4,-442 625,-442 625,5 -4,5"/>
<!-- Node1 -->
<g id="node1" class="node"><title>Node1</title>
<polygon fill="#bfbfbf" stroke="black" points="449.5,-390.5 449.5,-437.5 620.5,-437.5 620.5,-390.5 449.5,-390.5"/>
<text text-anchor="start" x="457.5" y="-424.5" font-family="Helvetica,sans-Serif" font-size="10.00">/home/travis/build</text>
<text text-anchor="start" x="457.5" y="-411.5" font-family="Helvetica,sans-Serif" font-size="10.00">/LibrePCB/LibrePCB/libs</text>
<text text-anchor="middle" x="535" y="-398.5" font-family="Helvetica,sans-Serif" font-size="10.00">/librepcblibrary/sym/symboltext.cpp</text>
</g>
<!-- Node2 -->
<g id="node3" class="node"><title>Node2</title>
<polygon fill="white" stroke="#bfbfbf" points="228,-0.5 228,-21.5 276,-21.5 276,-0.5 228,-0.5"/>
<text text-anchor="middle" x="252" y="-8.5" font-family="Helvetica,sans-Serif" font-size="10.00">QtCore</text>
</g>
<!-- Node1&#45;&gt;Node2 -->
<g id="edge2" class="edge"><title>Node1&#45;&gt;Node2</title>
<path fill="none" stroke="midnightblue" d="M560.807,-390.113C585.172,-364.844 618,-322.534 618,-278 618,-278 618,-278 618,-134 618,-92.0429 597.919,-79.6837 562,-58 516.123,-30.3049 357.44,-17.409 286.609,-12.9304"/>
<polygon fill="midnightblue" stroke="midnightblue" points="286.618,-9.42447 276.423,-12.3064 286.19,-16.4114 286.618,-9.42447"/>
</g>
<!-- Node3 -->
<g id="node5" class="node"><title>Node3</title>
<a xlink:href="../../d4/d32/symboltext_8h.html" target="_top" xlink:title="symboltext.h">
<polygon fill="white" stroke="black" points="257.5,-332.5 257.5,-353.5 330.5,-353.5 330.5,-332.5 257.5,-332.5"/>
<text text-anchor="middle" x="294" y="-340.5" font-family="Helvetica,sans-Serif" font-size="10.00">symboltext.h</text>
</a>
</g>
<!-- Node1&#45;&gt;Node3 -->
<g id="edge4" class="edge"><title>Node1&#45;&gt;Node3</title>
<path fill="none" stroke="midnightblue" d="M455.085,-390.457C416.716,-379.153 372.131,-366.018 339.607,-356.436"/>
<polygon fill="midnightblue" stroke="midnightblue" points="340.502,-353.051 329.921,-353.583 338.524,-359.766 340.502,-353.051"/>
</g>
<!-- Node12 -->
<g id="node35" class="node"><title>Node12</title>
<a xlink:href="../../d1/d68/xmldomelement_8h.html" target="_top" xlink:title="librepcbcommon/fileio\l/xmldomelement.h">
<polygon fill="white" stroke="black" points="479.5,-117 479.5,-151 590.5,-151 590.5,-117 479.5,-117"/>
<text text-anchor="start" x="487.5" y="-138" font-family="Helvetica,sans-Serif" font-size="10.00">librepcbcommon/fileio</text>
<text text-anchor="middle" x="535" y="-125" font-family="Helvetica,sans-Serif" font-size="10.00">/xmldomelement.h</text>
</a>
</g>
<!-- Node1&#45;&gt;Node12 -->
<g id="edge46" class="edge"><title>Node1&#45;&gt;Node12</title>
<path fill="none" stroke="midnightblue" d="M535,-390.127C535,-338.41 535,-216.278 535,-161.465"/>
<polygon fill="midnightblue" stroke="midnightblue" points="538.5,-161.14 535,-151.14 531.5,-161.14 538.5,-161.14"/>
</g>
<!-- Node3&#45;&gt;Node2 -->
<g id="edge6" class="edge"><title>Node3&#45;&gt;Node2</title>
<path fill="none" stroke="midnightblue" d="M257.272,-340.21C215.512,-335.757 146.353,-324.413 94,-296 43.1648,-268.411 0,-263.839 0,-206 0,-206 0,-206 0,-134 0,-82.9914 41.2316,-82.4472 86,-58 128.287,-34.908 182.973,-22.2789 217.781,-16.0813"/>
<polygon fill="midnightblue" stroke="midnightblue" points="218.637,-19.4861 227.909,-14.3599 217.464,-12.585 218.637,-19.4861"/>
</g>
<!-- Node4 -->
<g id="node8" class="node"><title>Node4</title>
<a xlink:href="../../d0/d1d/if__xmlserializableobject_8h.html" target="_top" xlink:title="librepcbcommon/fileio\l/if_xmlserializableobject.h">
<polygon fill="white" stroke="black" points="229.5,-189 229.5,-223 358.5,-223 358.5,-189 229.5,-189"/>
<text text-anchor="start" x="237.5" y="-210" font-family="Helvetica,sans-Serif" font-size="10.00">librepcbcommon/fileio</text>
<text text-anchor="middle" x="294" y="-197" font-family="Helvetica,sans-Serif" font-size="10.00">/if_xmlserializableobject.h</text>
</a>
</g>
<!-- Node3&#45;&gt;Node4 -->
<g id="edge8" class="edge"><title>Node3&#45;&gt;Node4</title>
<path fill="none" stroke="midnightblue" d="M294,-332.25C294,-311.239 294,-264.131 294,-233.776"/>
<polygon fill="midnightblue" stroke="midnightblue" points="297.5,-233.429 294,-223.429 290.5,-233.429 297.5,-233.429"/>
</g>
<!-- Node6 -->
<g id="node13" class="node"><title>Node6</title>
<a xlink:href="../../d1/da8/all__length__units_8h.html" target="_top" xlink:title="librepcbcommon/units\l/all_length_units.h">
<polygon fill="white" stroke="black" points="103,-261 103,-295 215,-295 215,-261 103,-261"/>
<text text-anchor="start" x="111" y="-282" font-family="Helvetica,sans-Serif" font-size="10.00">librepcbcommon/units</text>
<text text-anchor="middle" x="159" y="-269" font-family="Helvetica,sans-Serif" font-size="10.00">/all_length_units.h</text>
</a>
</g>
<!-- Node3&#45;&gt;Node6 -->
<g id="edge14" class="edge"><title>Node3&#45;&gt;Node6</title>
<path fill="none" stroke="midnightblue" d="M272.009,-332.412C253.557,-323.527 226.611,-310.554 203.66,-299.503"/>
<polygon fill="midnightblue" stroke="midnightblue" points="204.962,-296.245 194.433,-295.06 201.925,-302.552 204.962,-296.245"/>
</g>
<!-- Node11 -->
<g id="node31" class="node"><title>Node11</title>
<a xlink:href="../../db/dad/alignment_8h.html" target="_top" xlink:title="librepcbcommon/alignment.h">
<polygon fill="white" stroke="black" points="321.5,-123.5 321.5,-144.5 462.5,-144.5 462.5,-123.5 321.5,-123.5"/>
<text text-anchor="middle" x="392" y="-131.5" font-family="Helvetica,sans-Serif" font-size="10.00">librepcbcommon/alignment.h</text>
</a>
</g>
<!-- Node3&#45;&gt;Node11 -->
<g id="edge40" class="edge"><title>Node3&#45;&gt;Node11</title>
<path fill="none" stroke="midnightblue" d="M301.923,-332.406C316.65,-312.271 348.425,-266.668 367,-224 376.964,-201.113 383.984,-173.211 387.998,-154.599"/>
<polygon fill="midnightblue" stroke="midnightblue" points="391.472,-155.081 390.061,-144.581 384.616,-153.669 391.472,-155.081"/>
</g>
<!-- Node5 -->
<g id="node10" class="node"><title>Node5</title>
<a xlink:href="../../d4/d03/exceptions_8h.html" target="_top" xlink:title="../exceptions.h">
<polygon fill="white" stroke="black" points="245.5,-58.5 245.5,-79.5 326.5,-79.5 326.5,-58.5 245.5,-58.5"/>
<text text-anchor="middle" x="286" y="-66.5" font-family="Helvetica,sans-Serif" font-size="10.00">../exceptions.h</text>
</a>
</g>
<!-- Node4&#45;&gt;Node5 -->
<g id="edge10" class="edge"><title>Node4&#45;&gt;Node5</title>
<path fill="none" stroke="midnightblue" d="M293.003,-188.926C291.537,-163.821 288.803,-116.998 287.219,-89.8807"/>
<polygon fill="midnightblue" stroke="midnightblue" points="290.695,-89.3654 286.618,-79.5864 283.707,-89.7735 290.695,-89.3654"/>
</g>
<!-- Node5&#45;&gt;Node2 -->
<g id="edge12" class="edge"><title>Node5&#45;&gt;Node2</title>
<path fill="none" stroke="midnightblue" d="M279.764,-58.3619C275.163,-50.5131 268.775,-39.6159 263.286,-30.2527"/>
<polygon fill="midnightblue" stroke="midnightblue" points="266.273,-28.4276 258.197,-21.5707 260.234,-31.9677 266.273,-28.4276"/>
</g>
<!-- Node7 -->
<g id="node15" class="node"><title>Node7</title>
<a xlink:href="../../d0/d09/lengthunit_8h.html" target="_top" xlink:title="lengthunit.h">
<polygon fill="white" stroke="black" points="199.5,-123.5 199.5,-144.5 266.5,-144.5 266.5,-123.5 199.5,-123.5"/>
<text text-anchor="middle" x="233" y="-131.5" font-family="Helvetica,sans-Serif" font-size="10.00">lengthunit.h</text>
</a>
</g>
<!-- Node6&#45;&gt;Node7 -->
<g id="edge16" class="edge"><title>Node6&#45;&gt;Node7</title>
<path fill="none" stroke="midnightblue" d="M167.779,-260.916C181.615,-233.992 208.413,-181.845 222.981,-153.496"/>
<polygon fill="midnightblue" stroke="midnightblue" points="226.125,-155.035 227.583,-144.541 219.899,-151.836 226.125,-155.035"/>
</g>
<!-- Node8 -->
<g id="node19" class="node"><title>Node8</title>
<a xlink:href="../../dd/db9/length_8h.html" target="_top" xlink:title="length.h">
<polygon fill="white" stroke="black" points="65.5,-123.5 65.5,-144.5 116.5,-144.5 116.5,-123.5 65.5,-123.5"/>
<text text-anchor="middle" x="91" y="-131.5" font-family="Helvetica,sans-Serif" font-size="10.00">length.h</text>
</a>
</g>
<!-- Node6&#45;&gt;Node8 -->
<g id="edge22" class="edge"><title>Node6&#45;&gt;Node8</title>
<path fill="none" stroke="midnightblue" d="M150.932,-260.916C138.274,-234.11 113.808,-182.3 100.382,-153.869"/>
<polygon fill="midnightblue" stroke="midnightblue" points="103.413,-152.089 95.9778,-144.541 97.0831,-155.078 103.413,-152.089"/>
</g>
<!-- Node9 -->
<g id="node23" class="node"><title>Node9</title>
<a xlink:href="../../d2/d91/point_8h.html" target="_top" xlink:title="point.h">
<polygon fill="white" stroke="black" points="47,-195.5 47,-216.5 93,-216.5 93,-195.5 47,-195.5"/>
<text text-anchor="middle" x="70" y="-203.5" font-family="Helvetica,sans-Serif" font-size="10.00">point.h</text>
</a>
</g>
<!-- Node6&#45;&gt;Node9 -->
<g id="edge28" class="edge"><title>Node6&#45;&gt;Node9</title>
<path fill="none" stroke="midnightblue" d="M137.908,-260.937C123.861,-249.573 105.462,-234.689 91.36,-223.28"/>
<polygon fill="midnightblue" stroke="midnightblue" points="93.1874,-220.256 83.2116,-216.688 88.7848,-225.699 93.1874,-220.256"/>
</g>
<!-- Node10 -->
<g id="node27" class="node"><title>Node10</title>
<a xlink:href="../../da/dac/angle_8h.html" target="_top" xlink:title="angle.h">
<polygon fill="white" stroke="black" points="134,-123.5 134,-144.5 182,-144.5 182,-123.5 134,-123.5"/>
<text text-anchor="middle" x="158" y="-131.5" font-family="Helvetica,sans-Serif" font-size="10.00">angle.h</text>
</a>
</g>
<!-- Node6&#45;&gt;Node10 -->
<g id="edge34" class="edge"><title>Node6&#45;&gt;Node10</title>
<path fill="none" stroke="midnightblue" d="M158.881,-260.916C158.697,-234.345 158.342,-183.207 158.143,-154.622"/>
<polygon fill="midnightblue" stroke="midnightblue" points="161.643,-154.517 158.073,-144.541 154.643,-154.565 161.643,-154.517"/>
</g>
<!-- Node7&#45;&gt;Node2 -->
<g id="edge18" class="edge"><title>Node7&#45;&gt;Node2</title>
<path fill="none" stroke="midnightblue" d="M232.703,-123.075C232.497,-108.219 232.819,-80.8755 237,-58 238.646,-48.9951 241.532,-39.3173 244.335,-31.0979"/>
<polygon fill="midnightblue" stroke="midnightblue" points="247.651,-32.2215 247.743,-21.6271 241.064,-29.8514 247.651,-32.2215"/>
</g>
<!-- Node7&#45;&gt;Node5 -->
<g id="edge20" class="edge"><title>Node7&#45;&gt;Node5</title>
<path fill="none" stroke="midnightblue" d="M241.752,-123.267C249.701,-113.517 261.594,-98.9317 271.049,-87.3365"/>
<polygon fill="midnightblue" stroke="midnightblue" points="273.804,-89.4957 277.411,-79.5337 268.379,-85.0721 273.804,-89.4957"/>
</g>
<!-- Node8&#45;&gt;Node2 -->
<g id="edge24" class="edge"><title>Node8&#45;&gt;Node2</title>
<path fill="none" stroke="midnightblue" d="M105.006,-123.3C132.957,-101.946 195.866,-53.8851 229.61,-28.1055"/>
<polygon fill="midnightblue" stroke="midnightblue" points="232.09,-30.6152 237.912,-21.7631 227.84,-25.0528 232.09,-30.6152"/>
</g>
<!-- Node8&#45;&gt;Node5 -->
<g id="edge26" class="edge"><title>Node8&#45;&gt;Node5</title>
<path fill="none" stroke="midnightblue" d="M109.38,-123.399C114.354,-120.773 119.801,-118.109 125,-116 160.911,-101.429 203,-89.3044 235.136,-81.0216"/>
<polygon fill="midnightblue" stroke="midnightblue" points="236.367,-84.3203 245.2,-78.4692 234.646,-77.5351 236.367,-84.3203"/>
</g>
<!-- Node9&#45;&gt;Node2 -->
<g id="edge30" class="edge"><title>Node9&#45;&gt;Node2</title>
<path fill="none" stroke="midnightblue" d="M64.4524,-195.478C55.9635,-177.795 42.2093,-141.55 57,-116 91.2066,-56.911 171.779,-29.2758 217.938,-17.889"/>
<polygon fill="midnightblue" stroke="midnightblue" points="218.85,-21.2701 227.786,-15.5776 217.251,-14.4553 218.85,-21.2701"/>
</g>
<!-- Node9&#45;&gt;Node8 -->
<g id="edge32" class="edge"><title>Node9&#45;&gt;Node8</title>
<path fill="none" stroke="midnightblue" d="M73.0986,-195.376C76.2315,-184.635 81.153,-167.761 85.0435,-154.422"/>
<polygon fill="midnightblue" stroke="midnightblue" points="88.4486,-155.247 87.8887,-144.667 81.7286,-153.287 88.4486,-155.247"/>
</g>
<!-- Node10&#45;&gt;Node2 -->
<g id="edge36" class="edge"><title>Node10&#45;&gt;Node2</title>
<path fill="none" stroke="midnightblue" d="M166.342,-123.085C182.409,-102.061 217.814,-55.7331 237.709,-29.7"/>
<polygon fill="midnightblue" stroke="midnightblue" points="240.52,-31.786 243.811,-21.7153 234.958,-27.5355 240.52,-31.786"/>
</g>
<!-- Node10&#45;&gt;Node5 -->
<g id="edge38" class="edge"><title>Node10&#45;&gt;Node5</title>
<path fill="none" stroke="midnightblue" d="M177.126,-123.4C181.656,-120.936 186.483,-118.348 191,-116 212.133,-105.014 236.182,-93.1223 254.796,-84.0489"/>
<polygon fill="midnightblue" stroke="midnightblue" points="256.526,-87.0997 263.99,-79.5807 253.466,-80.8038 256.526,-87.0997"/>
</g>
<!-- Node11&#45;&gt;Node2 -->
<g id="edge42" class="edge"><title>Node11&#45;&gt;Node2</title>
<path fill="none" stroke="midnightblue" d="M385.962,-123.329C376.63,-107.542 357.418,-77.7127 335,-58 320.238,-45.0199 301.321,-33.9719 285.276,-25.8551"/>
<polygon fill="midnightblue" stroke="midnightblue" points="286.734,-22.6723 276.213,-21.4224 283.658,-28.9604 286.734,-22.6723"/>
</g>
<!-- Node11&#45;&gt;Node5 -->
<g id="edge44" class="edge"><title>Node11&#45;&gt;Node5</title>
<path fill="none" stroke="midnightblue" d="M374.496,-123.267C357.44,-112.807 331.306,-96.782 311.854,-84.8541"/>
<polygon fill="midnightblue" stroke="midnightblue" points="313.533,-81.7776 303.178,-79.5337 309.873,-87.745 313.533,-81.7776"/>
</g>
<!-- Node12&#45;&gt;Node2 -->
<g id="edge48" class="edge"><title>Node12&#45;&gt;Node2</title>
<path fill="none" stroke="midnightblue" d="M543.991,-116.79C551.453,-99.8413 558.813,-74.205 545,-58 528.357,-38.4742 360.204,-20.8775 286.41,-14.0305"/>
<polygon fill="midnightblue" stroke="midnightblue" points="286.513,-10.5255 276.236,-13.0994 285.875,-17.4963 286.513,-10.5255"/>
</g>
<!-- Node12&#45;&gt;Node5 -->
<g id="edge52" class="edge"><title>Node12&#45;&gt;Node5</title>
<path fill="none" stroke="midnightblue" d="M479.175,-118.209C476.413,-117.456 473.676,-116.716 471,-116 425.792,-103.902 374.163,-90.8488 336.955,-81.5759"/>
<polygon fill="midnightblue" stroke="midnightblue" points="337.409,-78.0823 326.86,-79.0646 335.72,-84.8753 337.409,-78.0823"/>
</g>
<!-- Node13 -->
<g id="node38" class="node"><title>Node13</title>
<polygon fill="white" stroke="#bfbfbf" points="455.5,-58.5 455.5,-79.5 536.5,-79.5 536.5,-58.5 455.5,-58.5"/>
<text text-anchor="middle" x="496" y="-66.5" font-family="Helvetica,sans-Serif" font-size="10.00">QDomElement</text>
</g>
<!-- Node12&#45;&gt;Node13 -->
<g id="edge50" class="edge"><title>Node12&#45;&gt;Node13</title>
<path fill="none" stroke="midnightblue" d="M524.753,-116.922C519.527,-108.212 513.147,-97.5782 507.725,-88.5423"/>
<polygon fill="midnightblue" stroke="midnightblue" points="510.657,-86.6263 502.511,-79.8521 504.655,-90.2278 510.657,-86.6263"/>
</g>
<!-- Node14 -->
<g id="node41" class="node"><title>Node14</title>
<a xlink:href="../../dd/dec/filepath_8h.html" target="_top" xlink:title="filepath.h">
<polygon fill="white" stroke="black" points="382,-58.5 382,-79.5 438,-79.5 438,-58.5 382,-58.5"/>
<text text-anchor="middle" x="410" y="-66.5" font-family="Helvetica,sans-Serif" font-size="10.00">filepath.h</text>
</a>
</g>
<!-- Node12&#45;&gt;Node14 -->
<g id="edge54" class="edge"><title>Node12&#45;&gt;Node14</title>
<path fill="none" stroke="midnightblue" d="M502.158,-116.922C482.727,-106.818 458.319,-94.1257 439.503,-84.3418"/>
<polygon fill="midnightblue" stroke="midnightblue" points="440.984,-81.1667 430.497,-79.6584 437.754,-87.3772 440.984,-81.1667"/>
</g>
<!-- Node14&#45;&gt;Node2 -->
<g id="edge56" class="edge"><title>Node14&#45;&gt;Node2</title>
<path fill="none" stroke="midnightblue" d="M381.753,-58.6308C354.836,-48.7499 314.287,-33.8649 285.697,-23.3696"/>
<polygon fill="midnightblue" stroke="midnightblue" points="286.718,-20.0163 276.124,-19.8558 284.306,-26.5875 286.718,-20.0163"/>
</g>
</g>
</svg>
