<?xml version="1.0" encoding="UTF-8" standalone="no"?>
<!DOCTYPE svg PUBLIC "-//W3C//DTD SVG 1.1//EN"
 "http://www.w3.org/Graphics/SVG/1.1/DTD/svg11.dtd">
<!-- Generated by graphviz version 2.26.3 (20100126.1600)
 -->
<!-- Title: setCreated Pages: 1 -->
<svg width="270pt" height="94pt"
 viewBox="0.00 0.00 270.00 94.00" xmlns="http://www.w3.org/2000/svg" xmlns:xlink="http://www.w3.org/1999/xlink">
<g id="graph1" class="graph" transform="scale(1 1) rotate(0) translate(4 90)">
<title>setCreated</title>
<polygon fill="white" stroke="white" points="-4,5 -4,-90 267,-90 267,5 -4,5"/>
<!-- Node1 -->
<g id="node1" class="node"><title>Node1</title>
<polygon fill="#bfbfbf" stroke="black" points="0.5,-32.5 0.5,-53.5 65.5,-53.5 65.5,-32.5 0.5,-32.5"/>
<text text-anchor="middle" x="33" y="-40.5" font-family="Helvetica,sans-Serif" font-size="10.00">setCreated</text>
</g>
<!-- Node2 -->
<g id="node3" class="node"><title>Node2</title>
<a xlink:href="../../dd/d42/classproject_1_1_cmd_project_set_metadata.html#a91ca7652063093da57fc1bd0141dcc95" target="_top" xlink:title="Redo/execute the command (and all child commands in normal order) ">
<polygon fill="white" stroke="black" points="102.5,-52 102.5,-86 261.5,-86 261.5,-52 102.5,-52"/>
<text text-anchor="start" x="110.5" y="-73" font-family="Helvetica,sans-Serif" font-size="10.00">project::CmdProjectSetMetadata</text>
<text text-anchor="middle" x="182" y="-60" font-family="Helvetica,sans-Serif" font-size="10.00">::redo</text>
</a>
</g>
<!-- Node1&#45;&gt;Node2 -->
<g id="edge2" class="edge"><title>Node1&#45;&gt;Node2</title>
<path fill="none" stroke="midnightblue" d="M75.6172,-50.4366C84.0531,-51.9086 93.1613,-53.4979 102.374,-55.1056"/>
<polygon fill="midnightblue" stroke="midnightblue" points="76.1515,-46.977 65.6987,-48.7058 74.9482,-53.8728 76.1515,-46.977"/>
</g>
<!-- Node3 -->
<g id="node5" class="node"><title>Node3</title>
<a xlink:href="../../dd/d42/classproject_1_1_cmd_project_set_metadata.html#a19e8778088bfe76b16745470981bb913" target="_top" xlink:title="Undo the command (and all child commands in reverse order) ">
<polygon fill="white" stroke="black" points="102.5,-0 102.5,-34 261.5,-34 261.5,-0 102.5,-0"/>
<text text-anchor="start" x="110.5" y="-21" font-family="Helvetica,sans-Serif" font-size="10.00">project::CmdProjectSetMetadata</text>
<text text-anchor="middle" x="182" y="-8" font-family="Helvetica,sans-Serif" font-size="10.00">::undo</text>
</a>
</g>
<!-- Node1&#45;&gt;Node3 -->
<g id="edge4" class="edge"><title>Node1&#45;&gt;Node3</title>
<path fill="none" stroke="midnightblue" d="M75.6172,-35.5634C84.0531,-34.0914 93.1613,-32.5021 102.374,-30.8944"/>
<polygon fill="midnightblue" stroke="midnightblue" points="74.9482,-32.1272 65.6987,-37.2942 76.1515,-39.023 74.9482,-32.1272"/>
</g>
</g>
</svg>
