<?xml version="1.0" encoding="UTF-8" standalone="no"?>
<!DOCTYPE svg PUBLIC "-//W3C//DTD SVG 1.1//EN"
 "http://www.w3.org/Graphics/SVG/1.1/DTD/svg11.dtd">
<!-- Generated by graphviz version 2.26.3 (20100126.1600)
 -->
<!-- Title: getPosition Pages: 1 -->
<svg width="602pt" height="101pt"
 viewBox="0.00 0.00 602.00 101.00" xmlns="http://www.w3.org/2000/svg" xmlns:xlink="http://www.w3.org/1999/xlink">
<g id="graph1" class="graph" transform="scale(1 1) rotate(0) translate(4 97)">
<title>getPosition</title>
<polygon fill="white" stroke="white" points="-4,5 -4,-97 599,-97 599,5 -4,5"/>
<!-- Node1 -->
<g id="node1" class="node"><title>Node1</title>
<polygon fill="#bfbfbf" stroke="black" points="0.5,-39.5 0.5,-60.5 65.5,-60.5 65.5,-39.5 0.5,-39.5"/>
<text text-anchor="middle" x="33" y="-47.5" font-family="Helvetica,sans-Serif" font-size="10.00">getPosition</text>
</g>
<!-- Node2 -->
<g id="node3" class="node"><title>Node2</title>
<a xlink:href="../../d9/da8/classlibrary_1_1_symbol_preview_graphics_item.html#abbb5db1b700a86caa85ff4c0c13142f2" target="_top" xlink:title="library::SymbolPreviewGraphics\lItem::updateCacheAndRepaint">
<polygon fill="white" stroke="black" points="102,-59 102,-93 258,-93 258,-59 102,-59"/>
<text text-anchor="start" x="110" y="-80" font-family="Helvetica,sans-Serif" font-size="10.00">library::SymbolPreviewGraphics</text>
<text text-anchor="middle" x="180" y="-67" font-family="Helvetica,sans-Serif" font-size="10.00">Item::updateCacheAndRepaint</text>
</a>
</g>
<!-- Node1&#45;&gt;Node2 -->
<g id="edge2" class="edge"><title>Node1&#45;&gt;Node2</title>
<path fill="none" stroke="midnightblue" d="M75.6851,-57.5497C83.9264,-59.0074 92.7988,-60.5767 101.766,-62.1626"/>
<polygon fill="midnightblue" stroke="midnightblue" points="76.0808,-54.0655 65.6241,-55.7702 74.8616,-60.9585 76.0808,-54.0655"/>
</g>
<!-- Node3 -->
<g id="node5" class="node"><title>Node3</title>
<a xlink:href="../../dd/d00/classproject_1_1_s_g_i___symbol.html#abbb5db1b700a86caa85ff4c0c13142f2" target="_top" xlink:title="project::SGI_Symbol\l::updateCacheAndRepaint">
<polygon fill="white" stroke="black" points="114.5,-7 114.5,-41 245.5,-41 245.5,-7 114.5,-7"/>
<text text-anchor="start" x="122.5" y="-28" font-family="Helvetica,sans-Serif" font-size="10.00">project::SGI_Symbol</text>
<text text-anchor="middle" x="180" y="-15" font-family="Helvetica,sans-Serif" font-size="10.00">::updateCacheAndRepaint</text>
</a>
</g>
<!-- Node1&#45;&gt;Node3 -->
<g id="edge4" class="edge"><title>Node1&#45;&gt;Node3</title>
<path fill="none" stroke="midnightblue" d="M75.8268,-42.4252C87.8773,-40.2938 101.268,-37.9253 114.326,-35.6158"/>
<polygon fill="midnightblue" stroke="midnightblue" points="74.8616,-39.0415 65.6241,-44.2298 76.0808,-45.9345 74.8616,-39.0415"/>
</g>
<!-- Node4 -->
<g id="node7" class="node"><title>Node4</title>
<a xlink:href="../../de/d50/classproject_1_1_s_i___symbol.html#a803d371853cd2d72f4df8a45349d0cb7" target="_top" xlink:title="project::SI_Symbol\l::schematicOrGenCompAttributes\lChanged">
<polygon fill="white" stroke="black" points="294,-0.5 294,-47.5 458,-47.5 458,-0.5 294,-0.5"/>
<text text-anchor="start" x="302" y="-34.5" font-family="Helvetica,sans-Serif" font-size="10.00">project::SI_Symbol</text>
<text text-anchor="start" x="302" y="-21.5" font-family="Helvetica,sans-Serif" font-size="10.00">::schematicOrGenCompAttributes</text>
<text text-anchor="middle" x="376" y="-8.5" font-family="Helvetica,sans-Serif" font-size="10.00">Changed</text>
</a>
</g>
<!-- Node3&#45;&gt;Node4 -->
<g id="edge6" class="edge"><title>Node3&#45;&gt;Node4</title>
<path fill="none" stroke="midnightblue" d="M255.845,-24C268.278,-24 281.214,-24 293.793,-24"/>
<polygon fill="midnightblue" stroke="midnightblue" points="255.538,-20.5001 245.538,-24 255.538,-27.5001 255.538,-20.5001"/>
</g>
<!-- Node5 -->
<g id="node9" class="node"><title>Node5</title>
<a xlink:href="../../de/d50/classproject_1_1_s_i___symbol.html#ae4e286593d2a82f74246f9cba8193605" target="_top" xlink:title="project::SI_Symbol\l::init">
<polygon fill="white" stroke="black" points="494,-7 494,-41 594,-41 594,-7 494,-7"/>
<text text-anchor="start" x="502" y="-28" font-family="Helvetica,sans-Serif" font-size="10.00">project::SI_Symbol</text>
<text text-anchor="middle" x="544" y="-15" font-family="Helvetica,sans-Serif" font-size="10.00">::init</text>
</a>
</g>
<!-- Node4&#45;&gt;Node5 -->
<g id="edge8" class="edge"><title>Node4&#45;&gt;Node5</title>
<path fill="none" stroke="midnightblue" d="M468.282,-24C476.987,-24 485.572,-24 493.658,-24"/>
<polygon fill="midnightblue" stroke="midnightblue" points="468.031,-20.5001 458.031,-24 468.031,-27.5001 468.031,-20.5001"/>
</g>
</g>
</svg>
