<?xml version="1.0" encoding="UTF-8" standalone="no"?>
<!DOCTYPE svg PUBLIC "-//W3C//DTD SVG 1.1//EN"
 "http://www.w3.org/Graphics/SVG/1.1/DTD/svg11.dtd">
<!-- Generated by graphviz version 2.26.3 (20100126.1600)
 -->
<!-- Title: setAngle Pages: 1 -->
<svg width="294pt" height="146pt"
 viewBox="0.00 0.00 294.00 146.00" xmlns="http://www.w3.org/2000/svg" xmlns:xlink="http://www.w3.org/1999/xlink">
<g id="graph1" class="graph" transform="scale(1 1) rotate(0) translate(4 142)">
<title>setAngle</title>
<polygon fill="white" stroke="white" points="-4,5 -4,-142 291,-142 291,5 -4,5"/>
<!-- Node1 -->
<g id="node1" class="node"><title>Node1</title>
<polygon fill="#bfbfbf" stroke="black" points="0.5,-58.5 0.5,-79.5 55.5,-79.5 55.5,-58.5 0.5,-58.5"/>
<text text-anchor="middle" x="28" y="-66.5" font-family="Helvetica,sans-Serif" font-size="10.00">setAngle</text>
</g>
<!-- Node2 -->
<g id="node3" class="node"><title>Node2</title>
<a xlink:href="../../d5/d00/classproject_1_1_cmd_schematic_net_label_edit.html#a90c30c20cef07f0edc7353de12c09555" target="_top" xlink:title="project::CmdSchematicNet\lLabelEdit::~CmdSchematicNetLabelEdit">
<polygon fill="white" stroke="black" points="92.5,-104 92.5,-138 285.5,-138 285.5,-104 92.5,-104"/>
<text text-anchor="start" x="100.5" y="-125" font-family="Helvetica,sans-Serif" font-size="10.00">project::CmdSchematicNet</text>
<text text-anchor="middle" x="189" y="-112" font-family="Helvetica,sans-Serif" font-size="10.00">LabelEdit::~CmdSchematicNetLabelEdit</text>
</a>
</g>
<!-- Node1&#45;&gt;Node2 -->
<g id="edge2" class="edge"><title>Node1&#45;&gt;Node2</title>
<path fill="none" stroke="midnightblue" d="M61.4196,-83.4883C71.1843,-87.4725 81.938,-91.6221 92,-95 101.338,-98.135 111.28,-101.153 121.103,-103.952"/>
<polygon fill="midnightblue" stroke="midnightblue" points="62.6244,-80.1989 52.0468,-79.5941 59.9385,-86.6631 62.6244,-80.1989"/>
</g>
<!-- Node3 -->
<g id="node5" class="node"><title>Node3</title>
<a xlink:href="../../d5/d00/classproject_1_1_cmd_schematic_net_label_edit.html#a91ca7652063093da57fc1bd0141dcc95" target="_top" xlink:title="Redo/execute the command (and all child commands in normal order) ">
<polygon fill="white" stroke="black" points="121.5,-52 121.5,-86 256.5,-86 256.5,-52 121.5,-52"/>
<text text-anchor="start" x="129.5" y="-73" font-family="Helvetica,sans-Serif" font-size="10.00">project::CmdSchematicNet</text>
<text text-anchor="middle" x="189" y="-60" font-family="Helvetica,sans-Serif" font-size="10.00">LabelEdit::redo</text>
</a>
</g>
<!-- Node1&#45;&gt;Node3 -->
<g id="edge4" class="edge"><title>Node1&#45;&gt;Node3</title>
<path fill="none" stroke="midnightblue" d="M65.9892,-69C82.4818,-69 102.313,-69 121.189,-69"/>
<polygon fill="midnightblue" stroke="midnightblue" points="65.6769,-65.5001 55.6769,-69 65.6769,-72.5001 65.6769,-65.5001"/>
</g>
<!-- Node4 -->
<g id="node7" class="node"><title>Node4</title>
<a xlink:href="../../d5/d00/classproject_1_1_cmd_schematic_net_label_edit.html#a19e8778088bfe76b16745470981bb913" target="_top" xlink:title="Undo the command (and all child commands in reverse order) ">
<polygon fill="white" stroke="black" points="121.5,-0 121.5,-34 256.5,-34 256.5,-0 121.5,-0"/>
<text text-anchor="start" x="129.5" y="-21" font-family="Helvetica,sans-Serif" font-size="10.00">project::CmdSchematicNet</text>
<text text-anchor="middle" x="189" y="-8" font-family="Helvetica,sans-Serif" font-size="10.00">LabelEdit::undo</text>
</a>
</g>
<!-- Node1&#45;&gt;Node4 -->
<g id="edge6" class="edge"><title>Node1&#45;&gt;Node4</title>
<path fill="none" stroke="midnightblue" d="M61.4196,-54.5117C71.1843,-50.5275 81.938,-46.3779 92,-43 101.421,-39.8373 111.456,-36.794 121.364,-33.9737"/>
<polygon fill="midnightblue" stroke="midnightblue" points="59.9385,-51.3369 52.0468,-58.4059 62.6244,-57.8011 59.9385,-51.3369"/>
</g>
</g>
</svg>
