<?xml version="1.0" encoding="UTF-8" standalone="no"?>
<!DOCTYPE svg PUBLIC "-//W3C//DTD SVG 1.1//EN"
 "http://www.w3.org/Graphics/SVG/1.1/DTD/svg11.dtd">
<!-- Generated by graphviz version 2.26.3 (20100126.1600)
 -->
<!-- Title: /home/travis/build/LibrePCB/LibrePCB/libs/librepcbworkspace/ui/ui_workspacesettingsdialog.h Pages: 1 -->
<svg width="1614pt" height="128pt"
 viewBox="0.00 0.00 1614.00 128.00" xmlns="http://www.w3.org/2000/svg" xmlns:xlink="http://www.w3.org/1999/xlink">
<g id="graph1" class="graph" transform="scale(1 1) rotate(0) translate(4 124)">
<title>/home/travis/build/LibrePCB/LibrePCB/libs/librepcbworkspace/ui/ui_workspacesettingsdialog.h</title>
<polygon fill="white" stroke="white" points="-4,5 -4,-124 1611,-124 1611,5 -4,5"/>
<!-- Node1 -->
<g id="node1" class="node"><title>Node1</title>
<polygon fill="#bfbfbf" stroke="black" points="708.5,-59 708.5,-119 845.5,-119 845.5,-59 708.5,-59"/>
<text text-anchor="start" x="716.5" y="-106" font-family="Helvetica,sans-Serif" font-size="10.00">/home/travis/build</text>
<text text-anchor="start" x="716.5" y="-93" font-family="Helvetica,sans-Serif" font-size="10.00">/LibrePCB/LibrePCB/libs</text>
<text text-anchor="start" x="716.5" y="-80" font-family="Helvetica,sans-Serif" font-size="10.00">/librepcbworkspace/ui/ui</text>
<text text-anchor="middle" x="777" y="-67" font-family="Helvetica,sans-Serif" font-size="10.00">_workspacesettingsdialog.h</text>
</g>
<!-- Node2 -->
<g id="node3" class="node"><title>Node2</title>
<polygon fill="white" stroke="#bfbfbf" points="-0.5,-0.5 -0.5,-21.5 88.5,-21.5 88.5,-0.5 -0.5,-0.5"/>
<text text-anchor="middle" x="44" y="-8.5" font-family="Helvetica,sans-Serif" font-size="10.00">QtCore/QVariant</text>
</g>
<!-- Node1&#45;&gt;Node2 -->
<g id="edge2" class="edge"><title>Node1&#45;&gt;Node2</title>
<path fill="none" stroke="midnightblue" d="M708.17,-84.6504C586.861,-76.452 326.984,-56.5063 98.909,-22.1793"/>
<polygon fill="midnightblue" stroke="midnightblue" points="99.1709,-18.679 88.7589,-20.6388 98.1204,-25.5998 99.1709,-18.679"/>
</g>
<!-- Node3 -->
<g id="node5" class="node"><title>Node3</title>
<polygon fill="white" stroke="#bfbfbf" points="105.5,-0.5 105.5,-21.5 206.5,-21.5 206.5,-0.5 105.5,-0.5"/>
<text text-anchor="middle" x="156" y="-8.5" font-family="Helvetica,sans-Serif" font-size="10.00">QtWidgets/QAction</text>
</g>
<!-- Node1&#45;&gt;Node3 -->
<g id="edge4" class="edge"><title>Node1&#45;&gt;Node3</title>
<path fill="none" stroke="midnightblue" d="M708.46,-82.295C604.324,-71.7834 399.83,-49.8724 216.888,-22.2245"/>
<polygon fill="midnightblue" stroke="midnightblue" points="217.225,-18.7356 206.813,-20.6926 216.173,-25.6561 217.225,-18.7356"/>
</g>
<!-- Node4 -->
<g id="node7" class="node"><title>Node4</title>
<polygon fill="white" stroke="#bfbfbf" points="224,-0.5 224,-21.5 346,-21.5 346,-0.5 224,-0.5"/>
<text text-anchor="middle" x="285" y="-8.5" font-family="Helvetica,sans-Serif" font-size="10.00">QtWidgets/QApplication</text>
</g>
<!-- Node1&#45;&gt;Node4 -->
<g id="edge6" class="edge"><title>Node1&#45;&gt;Node4</title>
<path fill="none" stroke="midnightblue" d="M708.331,-78.1134C615.397,-63.38 450.4,-37.222 356.186,-22.2856"/>
<polygon fill="midnightblue" stroke="midnightblue" points="356.601,-18.8077 346.176,-20.6987 355.505,-25.7214 356.601,-18.8077"/>
</g>
<!-- Node5 -->
<g id="node9" class="node"><title>Node5</title>
<polygon fill="white" stroke="#bfbfbf" points="364,-0.5 364,-21.5 492,-21.5 492,-0.5 364,-0.5"/>
<text text-anchor="middle" x="428" y="-8.5" font-family="Helvetica,sans-Serif" font-size="10.00">QtWidgets/QButtonGroup</text>
</g>
<!-- Node1&#45;&gt;Node5 -->
<g id="edge8" class="edge"><title>Node1&#45;&gt;Node5</title>
<path fill="none" stroke="midnightblue" d="M708.465,-73.6828C643.214,-59.0994 546.149,-37.4058 485.012,-23.742"/>
<polygon fill="midnightblue" stroke="midnightblue" points="485.67,-20.3028 475.148,-21.5373 484.144,-27.1343 485.67,-20.3028"/>
</g>
<!-- Node6 -->
<g id="node11" class="node"><title>Node6</title>
<polygon fill="white" stroke="#bfbfbf" points="509.5,-0.5 509.5,-21.5 610.5,-21.5 610.5,-0.5 509.5,-0.5"/>
<text text-anchor="middle" x="560" y="-8.5" font-family="Helvetica,sans-Serif" font-size="10.00">QtWidgets/QDialog</text>
</g>
<!-- Node1&#45;&gt;Node6 -->
<g id="edge10" class="edge"><title>Node1&#45;&gt;Node6</title>
<path fill="none" stroke="midnightblue" d="M708.34,-64.3203C672.307,-51.3683 629.466,-35.9693 599.11,-25.058"/>
<polygon fill="midnightblue" stroke="midnightblue" points="599.916,-21.6287 589.322,-21.5397 597.549,-28.216 599.916,-21.6287"/>
</g>
<!-- Node7 -->
<g id="node13" class="node"><title>Node7</title>
<polygon fill="white" stroke="#bfbfbf" points="627.5,-0.5 627.5,-21.5 774.5,-21.5 774.5,-0.5 627.5,-0.5"/>
<text text-anchor="middle" x="701" y="-8.5" font-family="Helvetica,sans-Serif" font-size="10.00">QtWidgets/QDialogButtonBox</text>
</g>
<!-- Node1&#45;&gt;Node7 -->
<g id="edge12" class="edge"><title>Node1&#45;&gt;Node7</title>
<path fill="none" stroke="midnightblue" d="M747.399,-58.6198C737.698,-48.6638 727.229,-37.9189 718.694,-29.1597"/>
<polygon fill="midnightblue" stroke="midnightblue" points="720.963,-26.4732 711.478,-21.7535 715.95,-31.3583 720.963,-26.4732"/>
</g>
<!-- Node8 -->
<g id="node15" class="node"><title>Node8</title>
<polygon fill="white" stroke="#bfbfbf" points="791.5,-0.5 791.5,-21.5 916.5,-21.5 916.5,-0.5 791.5,-0.5"/>
<text text-anchor="middle" x="854" y="-8.5" font-family="Helvetica,sans-Serif" font-size="10.00">QtWidgets/QFormLayout</text>
</g>
<!-- Node1&#45;&gt;Node8 -->
<g id="edge14" class="edge"><title>Node1&#45;&gt;Node8</title>
<path fill="none" stroke="midnightblue" d="M806.991,-58.6198C816.919,-48.5622 827.643,-37.6995 836.337,-28.8922"/>
<polygon fill="midnightblue" stroke="midnightblue" points="838.85,-31.3289 843.384,-21.7535 833.868,-26.4112 838.85,-31.3289"/>
</g>
<!-- Node9 -->
<g id="node17" class="node"><title>Node9</title>
<polygon fill="white" stroke="#bfbfbf" points="933.5,-0.5 933.5,-21.5 1060.5,-21.5 1060.5,-0.5 933.5,-0.5"/>
<text text-anchor="middle" x="997" y="-8.5" font-family="Helvetica,sans-Serif" font-size="10.00">QtWidgets/QHeaderView</text>
</g>
<!-- Node1&#45;&gt;Node9 -->
<g id="edge16" class="edge"><title>Node1&#45;&gt;Node9</title>
<path fill="none" stroke="midnightblue" d="M845.704,-64.6412C882.564,-51.5729 926.66,-35.9388 957.71,-24.9302"/>
<polygon fill="midnightblue" stroke="midnightblue" points="959.051,-28.1682 967.307,-21.5277 956.712,-21.5706 959.051,-28.1682"/>
</g>
<!-- Node10 -->
<g id="node19" class="node"><title>Node10</title>
<polygon fill="white" stroke="#bfbfbf" points="1078,-0.5 1078,-21.5 1202,-21.5 1202,-0.5 1078,-0.5"/>
<text text-anchor="middle" x="1140" y="-8.5" font-family="Helvetica,sans-Serif" font-size="10.00">QtWidgets/QSpacerItem</text>
</g>
<!-- Node1&#45;&gt;Node10 -->
<g id="edge18" class="edge"><title>Node1&#45;&gt;Node10</title>
<path fill="none" stroke="midnightblue" d="M845.704,-74.2371C913.698,-59.6268 1016.68,-37.498 1081.06,-23.665"/>
<polygon fill="midnightblue" stroke="midnightblue" points="1082.01,-27.0413 1091.05,-21.5186 1080.54,-20.1975 1082.01,-27.0413"/>
</g>
<!-- Node11 -->
<g id="node21" class="node"><title>Node11</title>
<polygon fill="white" stroke="#bfbfbf" points="1219.5,-0.5 1219.5,-21.5 1340.5,-21.5 1340.5,-0.5 1219.5,-0.5"/>
<text text-anchor="middle" x="1280" y="-8.5" font-family="Helvetica,sans-Serif" font-size="10.00">QtWidgets/QTabWidget</text>
</g>
<!-- Node1&#45;&gt;Node11 -->
<g id="edge20" class="edge"><title>Node1&#45;&gt;Node11</title>
<path fill="none" stroke="midnightblue" d="M845.794,-78.4866C929.3,-65.7009 1074.7,-43.3612 1209.33,-22.2568"/>
<polygon fill="midnightblue" stroke="midnightblue" points="1210.08,-25.6821 1219.42,-20.6749 1209,-18.7667 1210.08,-25.6821"/>
</g>
<!-- Node12 -->
<g id="node23" class="node"><title>Node12</title>
<polygon fill="white" stroke="#bfbfbf" points="1357.5,-0.5 1357.5,-21.5 1484.5,-21.5 1484.5,-0.5 1357.5,-0.5"/>
<text text-anchor="middle" x="1421" y="-8.5" font-family="Helvetica,sans-Serif" font-size="10.00">QtWidgets/QVBoxLayout</text>
</g>
<!-- Node1&#45;&gt;Node12 -->
<g id="edge22" class="edge"><title>Node1&#45;&gt;Node12</title>
<path fill="none" stroke="midnightblue" d="M845.775,-81.7307C951.403,-70.3919 1160.17,-47.294 1347.39,-22.1875"/>
<polygon fill="midnightblue" stroke="midnightblue" points="1347.97,-25.6405 1357.41,-20.838 1347.04,-18.703 1347.97,-25.6405"/>
</g>
<!-- Node13 -->
<g id="node25" class="node"><title>Node13</title>
<polygon fill="white" stroke="#bfbfbf" points="1502,-0.5 1502,-21.5 1606,-21.5 1606,-0.5 1502,-0.5"/>
<text text-anchor="middle" x="1554" y="-8.5" font-family="Helvetica,sans-Serif" font-size="10.00">QtWidgets/QWidget</text>
</g>
<!-- Node1&#45;&gt;Node13 -->
<g id="edge24" class="edge"><title>Node1&#45;&gt;Node13</title>
<path fill="none" stroke="midnightblue" d="M845.59,-84.5333C971.602,-75.9004 1248.57,-54.9438 1491.71,-22.0872"/>
<polygon fill="midnightblue" stroke="midnightblue" points="1492.37,-25.5305 1501.8,-20.7141 1491.42,-18.5945 1492.37,-25.5305"/>
</g>
</g>
</svg>
