<?xml version="1.0" encoding="UTF-8" standalone="no"?>
<!DOCTYPE svg PUBLIC "-//W3C//DTD SVG 1.1//EN"
 "http://www.w3.org/Graphics/SVG/1.1/DTD/svg11.dtd">
<!-- Generated by graphviz version 2.26.3 (20100126.1600)
 -->
<!-- Title: getRotation Pages: 1 -->
<svg width="880pt" height="214pt"
 viewBox="0.00 0.00 880.00 214.00" xmlns="http://www.w3.org/2000/svg" xmlns:xlink="http://www.w3.org/1999/xlink">
<g id="graph1" class="graph" transform="scale(1 1) rotate(0) translate(4 210)">
<title>getRotation</title>
<polygon fill="white" stroke="white" points="-4,5 -4,-210 877,-210 877,5 -4,5"/>
<!-- Node1 -->
<g id="node1" class="node"><title>Node1</title>
<polygon fill="#bfbfbf" stroke="black" points="0.5,-87.5 0.5,-108.5 67.5,-108.5 67.5,-87.5 0.5,-87.5"/>
<text text-anchor="middle" x="34" y="-95.5" font-family="Helvetica,sans-Serif" font-size="10.00">getRotation</text>
</g>
<!-- Node2 -->
<g id="node3" class="node"><title>Node2</title>
<a xlink:href="../../dd/d00/classproject_1_1_s_g_i___symbol.html#abbb5db1b700a86caa85ff4c0c13142f2" target="_top" xlink:title="project::SGI_Symbol\l::updateCacheAndRepaint">
<polygon fill="white" stroke="black" points="122.5,-154 122.5,-188 253.5,-188 253.5,-154 122.5,-154"/>
<text text-anchor="start" x="130.5" y="-175" font-family="Helvetica,sans-Serif" font-size="10.00">project::SGI_Symbol</text>
<text text-anchor="middle" x="188" y="-162" font-family="Helvetica,sans-Serif" font-size="10.00">::updateCacheAndRepaint</text>
</a>
</g>
<!-- Node1&#45;&gt;Node2 -->
<g id="edge2" class="edge"><title>Node1&#45;&gt;Node2</title>
<path fill="none" stroke="midnightblue" d="M62.2199,-113.587C74.8755,-120.403 90.063,-128.344 104,-135 117.601,-141.496 132.676,-148.128 146.257,-153.901"/>
<polygon fill="midnightblue" stroke="midnightblue" points="63.5565,-110.33 53.0983,-108.634 60.2163,-116.482 63.5565,-110.33"/>
</g>
<!-- Node5 -->
<g id="node9" class="node"><title>Node5</title>
<a xlink:href="../../da/d6f/classproject_1_1_s_g_i___symbol_pin.html#abbb5db1b700a86caa85ff4c0c13142f2" target="_top" xlink:title="project::SGI_SymbolPin\l::updateCacheAndRepaint">
<polygon fill="white" stroke="black" points="122.5,-59 122.5,-93 253.5,-93 253.5,-59 122.5,-59"/>
<text text-anchor="start" x="130.5" y="-80" font-family="Helvetica,sans-Serif" font-size="10.00">project::SGI_SymbolPin</text>
<text text-anchor="middle" x="188" y="-67" font-family="Helvetica,sans-Serif" font-size="10.00">::updateCacheAndRepaint</text>
</a>
</g>
<!-- Node1&#45;&gt;Node5 -->
<g id="edge8" class="edge"><title>Node1&#45;&gt;Node5</title>
<path fill="none" stroke="midnightblue" d="M77.9799,-91.7172C91.7938,-89.7437 107.357,-87.5204 122.335,-85.3807"/>
<polygon fill="midnightblue" stroke="midnightblue" points="77.2004,-88.2929 67.796,-93.172 78.1905,-95.2225 77.2004,-88.2929"/>
</g>
<!-- Node6 -->
<g id="node11" class="node"><title>Node6</title>
<a xlink:href="../../d6/d12/classproject_1_1_s_i___symbol_pin.html#a212e36e19edc323ddeb73387d2f011a5" target="_top" xlink:title="project::SI_SymbolPin\l::updatePosition">
<polygon fill="white" stroke="black" points="335,-98 335,-132 449,-132 449,-98 335,-98"/>
<text text-anchor="start" x="343" y="-119" font-family="Helvetica,sans-Serif" font-size="10.00">project::SI_SymbolPin</text>
<text text-anchor="middle" x="392" y="-106" font-family="Helvetica,sans-Serif" font-size="10.00">::updatePosition</text>
</a>
</g>
<!-- Node1&#45;&gt;Node6 -->
<g id="edge30" class="edge"><title>Node1&#45;&gt;Node6</title>
<path fill="none" stroke="midnightblue" d="M78.0727,-100.599C86.6703,-101.083 95.6166,-101.571 104,-102 184.102,-106.096 276.772,-110.158 334.888,-112.624"/>
<polygon fill="midnightblue" stroke="midnightblue" points="78.0027,-97.0895 67.8197,-100.014 77.6042,-104.078 78.0027,-97.0895"/>
</g>
<!-- Node13 -->
<g id="node29" class="node"><title>Node13</title>
<a xlink:href="../../d9/de8/classproject_1_1_symbol_instance_properties_dialog.html#ac5b9ac3ae6ade6886893179b59302ec1" target="_top" xlink:title="project::SymbolInstanceProperties\lDialog::applyChanges">
<polygon fill="white" stroke="black" points="104.5,-4 104.5,-38 271.5,-38 271.5,-4 104.5,-4"/>
<text text-anchor="start" x="112.5" y="-25" font-family="Helvetica,sans-Serif" font-size="10.00">project::SymbolInstanceProperties</text>
<text text-anchor="middle" x="188" y="-12" font-family="Helvetica,sans-Serif" font-size="10.00">Dialog::applyChanges</text>
</a>
</g>
<!-- Node1&#45;&gt;Node13 -->
<g id="edge32" class="edge"><title>Node1&#45;&gt;Node13</title>
<path fill="none" stroke="midnightblue" d="M55.363,-81.1138C68.767,-71.099 86.7284,-58.7029 104,-50 112.68,-45.6263 122.175,-41.649 131.558,-38.1378"/>
<polygon fill="midnightblue" stroke="midnightblue" points="53.0955,-78.4414 47.2659,-87.2883 57.3401,-84.0077 53.0955,-78.4414"/>
</g>
<!-- Node3 -->
<g id="node5" class="node"><title>Node3</title>
<a xlink:href="../../de/d50/classproject_1_1_s_i___symbol.html#a803d371853cd2d72f4df8a45349d0cb7" target="_top" xlink:title="schematicOrGenCompAttributes\lChanged">
<polygon fill="white" stroke="black" points="313,-164 313,-198 471,-198 471,-164 313,-164"/>
<text text-anchor="start" x="321" y="-185" font-family="Helvetica,sans-Serif" font-size="10.00">schematicOrGenCompAttributes</text>
<text text-anchor="middle" x="392" y="-172" font-family="Helvetica,sans-Serif" font-size="10.00">Changed</text>
</a>
</g>
<!-- Node2&#45;&gt;Node3 -->
<g id="edge4" class="edge"><title>Node2&#45;&gt;Node3</title>
<path fill="none" stroke="midnightblue" d="M264.008,-174.726C279.967,-175.508 296.836,-176.335 312.905,-177.123"/>
<polygon fill="midnightblue" stroke="midnightblue" points="263.829,-171.213 253.67,-174.219 263.486,-178.205 263.829,-171.213"/>
</g>
<!-- Node4 -->
<g id="node7" class="node"><title>Node4</title>
<a xlink:href="../../de/d50/classproject_1_1_s_i___symbol.html#ae4e286593d2a82f74246f9cba8193605" target="_top" xlink:title="init">
<polygon fill="white" stroke="black" points="581.5,-184.5 581.5,-205.5 610.5,-205.5 610.5,-184.5 581.5,-184.5"/>
<text text-anchor="middle" x="596" y="-192.5" font-family="Helvetica,sans-Serif" font-size="10.00">init</text>
</a>
</g>
<!-- Node3&#45;&gt;Node4 -->
<g id="edge6" class="edge"><title>Node3&#45;&gt;Node4</title>
<path fill="none" stroke="midnightblue" d="M481.34,-187.131C519.575,-189.755 560.22,-192.545 581.336,-193.994"/>
<polygon fill="midnightblue" stroke="midnightblue" points="481.38,-183.626 471.164,-186.433 480.901,-190.609 481.38,-183.626"/>
</g>
<!-- Node5&#45;&gt;Node6 -->
<g id="edge10" class="edge"><title>Node5&#45;&gt;Node6</title>
<path fill="none" stroke="midnightblue" d="M263.609,-90.4546C287.124,-94.9502 312.649,-99.83 334.7,-104.046"/>
<polygon fill="midnightblue" stroke="midnightblue" points="264.149,-86.9946 253.67,-88.5545 262.835,-93.8701 264.149,-86.9946"/>
</g>
<!-- Node7 -->
<g id="node13" class="node"><title>Node7</title>
<a xlink:href="../../de/d50/classproject_1_1_s_i___symbol.html#ae4d151fe3fae75cb19c5add958a470a8" target="_top" xlink:title="setPosition">
<polygon fill="white" stroke="black" points="563.5,-104.5 563.5,-125.5 628.5,-125.5 628.5,-104.5 563.5,-104.5"/>
<text text-anchor="middle" x="596" y="-112.5" font-family="Helvetica,sans-Serif" font-size="10.00">setPosition</text>
</a>
</g>
<!-- Node6&#45;&gt;Node7 -->
<g id="edge12" class="edge"><title>Node6&#45;&gt;Node7</title>
<path fill="none" stroke="midnightblue" d="M459.259,-115C494.251,-115 535.437,-115 563.395,-115"/>
<polygon fill="midnightblue" stroke="midnightblue" points="459.097,-111.5 449.097,-115 459.097,-118.5 459.097,-111.5"/>
</g>
<!-- Node11 -->
<g id="node21" class="node"><title>Node11</title>
<a xlink:href="../../de/d50/classproject_1_1_s_i___symbol.html#a92a6c99e0892b13f98c8ec4b5e4823f5" target="_top" xlink:title="setRotation">
<polygon fill="white" stroke="black" points="562.5,-144.5 562.5,-165.5 629.5,-165.5 629.5,-144.5 562.5,-144.5"/>
<text text-anchor="middle" x="596" y="-152.5" font-family="Helvetica,sans-Serif" font-size="10.00">setRotation</text>
</a>
</g>
<!-- Node6&#45;&gt;Node11 -->
<g id="edge20" class="edge"><title>Node6&#45;&gt;Node11</title>
<path fill="none" stroke="midnightblue" d="M459.127,-128.162C493.656,-134.932 534.246,-142.891 562.209,-148.374"/>
<polygon fill="midnightblue" stroke="midnightblue" points="459.583,-124.685 449.097,-126.195 458.236,-131.554 459.583,-124.685"/>
</g>
<!-- Node12 -->
<g id="node26" class="node"><title>Node12</title>
<a xlink:href="../../d6/d12/classproject_1_1_s_i___symbol_pin.html#a2e791a2f0f926f88b6d3a8b6d73a03f0" target="_top" xlink:title="project::SI_SymbolPin\l::SI_SymbolPin">
<polygon fill="white" stroke="black" points="539,-52 539,-86 653,-86 653,-52 539,-52"/>
<text text-anchor="start" x="547" y="-73" font-family="Helvetica,sans-Serif" font-size="10.00">project::SI_SymbolPin</text>
<text text-anchor="middle" x="596" y="-60" font-family="Helvetica,sans-Serif" font-size="10.00">::SI_SymbolPin</text>
</a>
</g>
<!-- Node6&#45;&gt;Node12 -->
<g id="edge28" class="edge"><title>Node6&#45;&gt;Node12</title>
<path fill="none" stroke="midnightblue" d="M459.174,-99.8529C484.974,-94.0352 514.153,-87.4557 538.917,-81.8716"/>
<polygon fill="midnightblue" stroke="midnightblue" points="458.082,-96.5112 449.097,-102.125 459.622,-103.34 458.082,-96.5112"/>
</g>
<!-- Node8 -->
<g id="node15" class="node"><title>Node8</title>
<a xlink:href="../../dd/d49/classproject_1_1_cmd_symbol_instance_edit.html#a6eaf0a56905dd18ebdf240a2229576c6" target="_top" xlink:title="project::CmdSymbolInstance\lEdit::~CmdSymbolInstanceEdit">
<polygon fill="white" stroke="black" points="716.5,-170 716.5,-204 871.5,-204 871.5,-170 716.5,-170"/>
<text text-anchor="start" x="724.5" y="-191" font-family="Helvetica,sans-Serif" font-size="10.00">project::CmdSymbolInstance</text>
<text text-anchor="middle" x="794" y="-178" font-family="Helvetica,sans-Serif" font-size="10.00">Edit::~CmdSymbolInstanceEdit</text>
</a>
</g>
<!-- Node7&#45;&gt;Node8 -->
<g id="edge14" class="edge"><title>Node7&#45;&gt;Node8</title>
<path fill="none" stroke="midnightblue" d="M638.937,-121.836C652.451,-124.872 667.185,-129.129 680,-135 697.943,-143.221 698.436,-151.998 716,-161 722.351,-164.255 729.197,-167.231 736.102,-169.912"/>
<polygon fill="midnightblue" stroke="midnightblue" points="639.396,-118.357 628.892,-119.746 637.97,-125.21 639.396,-118.357"/>
</g>
<!-- Node9 -->
<g id="node17" class="node"><title>Node9</title>
<a xlink:href="../../dd/d49/classproject_1_1_cmd_symbol_instance_edit.html#a91ca7652063093da57fc1bd0141dcc95" target="_top" xlink:title="Redo/execute the command (and all child commands in normal order) ">
<polygon fill="white" stroke="black" points="722.5,-118 722.5,-152 865.5,-152 865.5,-118 722.5,-118"/>
<text text-anchor="start" x="730.5" y="-139" font-family="Helvetica,sans-Serif" font-size="10.00">project::CmdSymbolInstance</text>
<text text-anchor="middle" x="794" y="-126" font-family="Helvetica,sans-Serif" font-size="10.00">Edit::redo</text>
</a>
</g>
<!-- Node7&#45;&gt;Node9 -->
<g id="edge16" class="edge"><title>Node7&#45;&gt;Node9</title>
<path fill="none" stroke="midnightblue" d="M638.686,-119.312C663.036,-121.771 694.196,-124.919 722.207,-127.748"/>
<polygon fill="midnightblue" stroke="midnightblue" points="638.997,-115.825 628.696,-118.303 638.293,-122.79 638.997,-115.825"/>
</g>
<!-- Node10 -->
<g id="node19" class="node"><title>Node10</title>
<a xlink:href="../../dd/d49/classproject_1_1_cmd_symbol_instance_edit.html#a19e8778088bfe76b16745470981bb913" target="_top" xlink:title="Undo the command (and all child commands in reverse order) ">
<polygon fill="white" stroke="black" points="722.5,-66 722.5,-100 865.5,-100 865.5,-66 722.5,-66"/>
<text text-anchor="start" x="730.5" y="-87" font-family="Helvetica,sans-Serif" font-size="10.00">project::CmdSymbolInstance</text>
<text text-anchor="middle" x="794" y="-74" font-family="Helvetica,sans-Serif" font-size="10.00">Edit::undo</text>
</a>
</g>
<!-- Node7&#45;&gt;Node10 -->
<g id="edge18" class="edge"><title>Node7&#45;&gt;Node10</title>
<path fill="none" stroke="midnightblue" d="M638.686,-108.101C663.036,-104.166 694.196,-99.1299 722.207,-94.6029"/>
<polygon fill="midnightblue" stroke="midnightblue" points="638.009,-104.665 628.696,-109.716 639.126,-111.575 638.009,-104.665"/>
</g>
<!-- Node11&#45;&gt;Node8 -->
<g id="edge22" class="edge"><title>Node11&#45;&gt;Node8</title>
<path fill="none" stroke="midnightblue" d="M639.492,-162.029C661.971,-165.662 690.093,-170.207 716.16,-174.42"/>
<polygon fill="midnightblue" stroke="midnightblue" points="640.018,-158.569 629.588,-160.428 638.901,-165.479 640.018,-158.569"/>
</g>
<!-- Node11&#45;&gt;Node9 -->
<g id="edge24" class="edge"><title>Node11&#45;&gt;Node9</title>
<path fill="none" stroke="midnightblue" d="M639.562,-150.6C663.84,-148.147 694.681,-145.032 722.408,-142.232"/>
<polygon fill="midnightblue" stroke="midnightblue" points="639.186,-147.12 629.588,-151.607 639.889,-154.084 639.186,-147.12"/>
</g>
<!-- Node11&#45;&gt;Node10 -->
<g id="edge26" class="edge"><title>Node11&#45;&gt;Node10</title>
<path fill="none" stroke="midnightblue" d="M639.625,-148.008C652.95,-144.983 667.402,-140.772 680,-135 697.943,-126.779 698.436,-118.002 716,-109 722.351,-105.745 729.197,-102.769 736.102,-100.088"/>
<polygon fill="midnightblue" stroke="midnightblue" points="638.769,-144.612 629.705,-150.096 640.211,-151.461 638.769,-144.612"/>
</g>
<!-- Node14 -->
<g id="node31" class="node"><title>Node14</title>
<a xlink:href="../../d9/de8/classproject_1_1_symbol_instance_properties_dialog.html#aadb9f3b844fb4cf98288cd3c60a3af91" target="_top" xlink:title="project::SymbolInstanceProperties\lDialog::accept">
<polygon fill="white" stroke="black" points="308.5,-2 308.5,-36 475.5,-36 475.5,-2 308.5,-2"/>
<text text-anchor="start" x="316.5" y="-23" font-family="Helvetica,sans-Serif" font-size="10.00">project::SymbolInstanceProperties</text>
<text text-anchor="middle" x="392" y="-10" font-family="Helvetica,sans-Serif" font-size="10.00">Dialog::accept</text>
</a>
</g>
<!-- Node13&#45;&gt;Node14 -->
<g id="edge34" class="edge"><title>Node13&#45;&gt;Node14</title>
<path fill="none" stroke="midnightblue" d="M281.845,-20.08C290.649,-19.9936 299.534,-19.9065 308.237,-19.8212"/>
<polygon fill="midnightblue" stroke="midnightblue" points="281.528,-16.5828 271.563,-20.1808 281.597,-23.5825 281.528,-16.5828"/>
</g>
<!-- Node15 -->
<g id="node33" class="node"><title>Node15</title>
<a xlink:href="../../d9/de8/classproject_1_1_symbol_instance_properties_dialog.html#a9e53392568d47bcb31ccbde9917efb0c" target="_top" xlink:title="project::SymbolInstanceProperties\lDialog::keyPressEvent">
<polygon fill="white" stroke="black" points="512.5,-0 512.5,-34 679.5,-34 679.5,-0 512.5,-0"/>
<text text-anchor="start" x="520.5" y="-21" font-family="Helvetica,sans-Serif" font-size="10.00">project::SymbolInstanceProperties</text>
<text text-anchor="middle" x="596" y="-8" font-family="Helvetica,sans-Serif" font-size="10.00">Dialog::keyPressEvent</text>
</a>
</g>
<!-- Node14&#45;&gt;Node15 -->
<g id="edge36" class="edge"><title>Node14&#45;&gt;Node15</title>
<path fill="none" stroke="midnightblue" d="M485.845,-18.08C494.649,-17.9936 503.534,-17.9065 512.237,-17.8212"/>
<polygon fill="midnightblue" stroke="midnightblue" points="485.528,-14.5828 475.563,-18.1808 485.597,-21.5825 485.528,-14.5828"/>
</g>
</g>
</svg>
