<?xml version="1.0" encoding="UTF-8" standalone="no"?>
<!DOCTYPE svg PUBLIC "-//W3C//DTD SVG 1.1//EN"
 "http://www.w3.org/Graphics/SVG/1.1/DTD/svg11.dtd">
<!-- Generated by graphviz version 2.26.3 (20100126.1600)
 -->
<!-- Title: /home/travis/build/LibrePCB/LibrePCB/libs/librepcbworkspace/settings/workspacesettings.cpp Pages: 1 -->
<svg width="1423pt" height="388pt"
 viewBox="0.00 0.00 1422.64 388.00" xmlns="http://www.w3.org/2000/svg" xmlns:xlink="http://www.w3.org/1999/xlink">
<g id="graph1" class="graph" transform="scale(1 1) rotate(0) translate(4 384)">
<title>/home/travis/build/LibrePCB/LibrePCB/libs/librepcbworkspace/settings/workspacesettings.cpp</title>
<polygon fill="white" stroke="white" points="-4,5 -4,-384 1419.64,-384 1419.64,5 -4,5"/>
<!-- Node1 -->
<g id="node1" class="node"><title>Node1</title>
<polygon fill="#bfbfbf" stroke="black" points="657.725,-319 657.725,-379 795.725,-379 795.725,-319 657.725,-319"/>
<text text-anchor="start" x="665.725" y="-366" font-family="Helvetica,sans-Serif" font-size="10.00">/home/travis/build</text>
<text text-anchor="start" x="665.725" y="-353" font-family="Helvetica,sans-Serif" font-size="10.00">/LibrePCB/LibrePCB/libs</text>
<text text-anchor="start" x="665.725" y="-340" font-family="Helvetica,sans-Serif" font-size="10.00">/librepcbworkspace/settings</text>
<text text-anchor="middle" x="726.725" y="-327" font-family="Helvetica,sans-Serif" font-size="10.00">/workspacesettings.cpp</text>
</g>
<!-- Node2 -->
<g id="node3" class="node"><title>Node2</title>
<polygon fill="white" stroke="#bfbfbf" points="331.725,-0.5 331.725,-21.5 379.725,-21.5 379.725,-0.5 331.725,-0.5"/>
<text text-anchor="middle" x="355.725" y="-8.5" font-family="Helvetica,sans-Serif" font-size="10.00">QtCore</text>
</g>
<!-- Node1&#45;&gt;Node2 -->
<g id="edge2" class="edge"><title>Node1&#45;&gt;Node2</title>
<path fill="none" stroke="midnightblue" d="M795.849,-346.661C897.344,-341.78 1091.86,-326.895 1250.73,-282 1322.51,-261.714 1403.73,-287.595 1403.73,-213 1403.73,-213 1403.73,-213 1403.73,-148 1403.73,-112.1 1471.63,-121.107 1264.73,-58 1180.04,-32.1696 546.927,-15.5435 390.562,-11.8033"/>
<polygon fill="midnightblue" stroke="midnightblue" points="390.222,-8.29436 380.142,-11.5563 390.056,-15.2924 390.222,-8.29436"/>
</g>
<!-- Node3 -->
<g id="node5" class="node"><title>Node3</title>
<a xlink:href="../../d4/d03/exceptions_8h.html" target="_top" xlink:title="librepcbcommon/exceptions.h">
<polygon fill="white" stroke="black" points="60.7253,-65.5 60.7253,-86.5 206.725,-86.5 206.725,-65.5 60.7253,-65.5"/>
<text text-anchor="middle" x="133.725" y="-73.5" font-family="Helvetica,sans-Serif" font-size="10.00">librepcbcommon/exceptions.h</text>
</a>
</g>
<!-- Node1&#45;&gt;Node3 -->
<g id="edge4" class="edge"><title>Node1&#45;&gt;Node3</title>
<path fill="none" stroke="midnightblue" d="M657.659,-342.065C486.128,-324.139 51.5537,-274.152 10.7253,-224 -28.9222,-175.298 55.9656,-118.324 103.883,-91.4826"/>
<polygon fill="midnightblue" stroke="midnightblue" points="105.838,-94.4024 112.926,-86.5274 102.474,-88.2636 105.838,-94.4024"/>
</g>
<!-- Node4 -->
<g id="node8" class="node"><title>Node4</title>
<a xlink:href="../../d7/dfd/workspacesettings_8h.html" target="_top" xlink:title="workspacesettings.h">
<polygon fill="white" stroke="black" points="673.225,-260.5 673.225,-281.5 780.225,-281.5 780.225,-260.5 673.225,-260.5"/>
<text text-anchor="middle" x="726.725" y="-268.5" font-family="Helvetica,sans-Serif" font-size="10.00">workspacesettings.h</text>
</a>
</g>
<!-- Node1&#45;&gt;Node4 -->
<g id="edge8" class="edge"><title>Node1&#45;&gt;Node4</title>
<path fill="none" stroke="midnightblue" d="M726.725,-318.62C726.725,-309.68 726.725,-300.103 726.725,-291.9"/>
<polygon fill="midnightblue" stroke="midnightblue" points="730.225,-291.753 726.725,-281.753 723.225,-291.753 730.225,-291.753"/>
</g>
<!-- Node16 -->
<g id="node43" class="node"><title>Node16</title>
<a xlink:href="../../d4/de6/workspace_8h.html" target="_top" xlink:title="../workspace.h">
<polygon fill="white" stroke="black" points="19.2253,-202.5 19.2253,-223.5 100.225,-223.5 100.225,-202.5 19.2253,-202.5"/>
<text text-anchor="middle" x="59.7253" y="-210.5" font-family="Helvetica,sans-Serif" font-size="10.00">../workspace.h</text>
</a>
</g>
<!-- Node1&#45;&gt;Node16 -->
<g id="edge54" class="edge"><title>Node1&#45;&gt;Node16</title>
<path fill="none" stroke="midnightblue" d="M657.577,-335.512C545.066,-313.455 315.142,-267.924 110.392,-224.33"/>
<polygon fill="midnightblue" stroke="midnightblue" points="110.863,-220.852 100.353,-222.19 109.403,-227.698 110.863,-220.852"/>
</g>
<!-- Node18 -->
<g id="node52" class="node"><title>Node18</title>
<a xlink:href="../../db/dec/workspacesettingsdialog_8h.html" target="_top" xlink:title="workspacesettingsdialog.h">
<polygon fill="white" stroke="black" points="1243.73,-137.5 1243.73,-158.5 1375.73,-158.5 1375.73,-137.5 1243.73,-137.5"/>
<text text-anchor="middle" x="1309.73" y="-145.5" font-family="Helvetica,sans-Serif" font-size="10.00">workspacesettingsdialog.h</text>
</a>
</g>
<!-- Node1&#45;&gt;Node18 -->
<g id="edge68" class="edge"><title>Node1&#45;&gt;Node18</title>
<path fill="none" stroke="midnightblue" d="M795.869,-344.834C936.749,-334.753 1249.19,-303.721 1313.73,-224 1326.14,-208.668 1322.71,-185.37 1317.7,-168.613"/>
<polygon fill="midnightblue" stroke="midnightblue" points="1320.86,-167.036 1314.33,-158.694 1314.23,-169.289 1320.86,-167.036"/>
</g>
<!-- Node3&#45;&gt;Node2 -->
<g id="edge6" class="edge"><title>Node3&#45;&gt;Node2</title>
<path fill="none" stroke="midnightblue" d="M169.888,-65.412C211.909,-53.1084 280.715,-32.9625 321.77,-20.9418"/>
<polygon fill="midnightblue" stroke="midnightblue" points="322.964,-24.2394 331.577,-18.0704 320.997,-17.5215 322.964,-24.2394"/>
</g>
<!-- Node4&#45;&gt;Node2 -->
<g id="edge10" class="edge"><title>Node4&#45;&gt;Node2</title>
<path fill="none" stroke="midnightblue" d="M780.426,-270.478C912.954,-268.633 1247.3,-260.384 1280.73,-224 1287.34,-216.8 1285.93,-210.279 1280.73,-202 1261.11,-170.777 1017.34,-67.5467 981.725,-58 868.527,-27.6585 503.724,-15.1259 389.945,-11.8936"/>
<polygon fill="midnightblue" stroke="midnightblue" points="389.829,-8.38907 379.735,-11.6095 389.634,-15.3864 389.829,-8.38907"/>
</g>
<!-- Node5 -->
<g id="node11" class="node"><title>Node5</title>
<a xlink:href="../../dd/dec/filepath_8h.html" target="_top" xlink:title="librepcbcommon/fileio\l/filepath.h">
<polygon fill="white" stroke="black" points="300.225,-59 300.225,-93 411.225,-93 411.225,-59 300.225,-59"/>
<text text-anchor="start" x="308.225" y="-80" font-family="Helvetica,sans-Serif" font-size="10.00">librepcbcommon/fileio</text>
<text text-anchor="middle" x="355.725" y="-67" font-family="Helvetica,sans-Serif" font-size="10.00">/filepath.h</text>
</a>
</g>
<!-- Node4&#45;&gt;Node5 -->
<g id="edge12" class="edge"><title>Node4&#45;&gt;Node5</title>
<path fill="none" stroke="midnightblue" d="M673.042,-267.896C576.441,-261.769 381.397,-246.711 360.725,-224 331.056,-191.404 338.884,-136.088 347.291,-103.104"/>
<polygon fill="midnightblue" stroke="midnightblue" points="350.728,-103.805 349.995,-93.236 343.977,-101.956 350.728,-103.805"/>
</g>
<!-- Node6 -->
<g id="node14" class="node"><title>Node6</title>
<a xlink:href="../../d1/df7/wsi__applocale_8h.html" target="_top" xlink:title="items/wsi_applocale.h">
<polygon fill="white" stroke="black" points="805.225,-202.5 805.225,-223.5 918.225,-223.5 918.225,-202.5 805.225,-202.5"/>
<text text-anchor="middle" x="861.725" y="-210.5" font-family="Helvetica,sans-Serif" font-size="10.00">items/wsi_applocale.h</text>
</a>
</g>
<!-- Node4&#45;&gt;Node6 -->
<g id="edge16" class="edge"><title>Node4&#45;&gt;Node6</title>
<path fill="none" stroke="midnightblue" d="M751.173,-260.497C772.543,-251.315 803.794,-237.889 827.623,-227.652"/>
<polygon fill="midnightblue" stroke="midnightblue" points="829.197,-230.784 837.004,-223.621 826.434,-224.353 829.197,-230.784"/>
</g>
<!-- Node9 -->
<g id="node21" class="node"><title>Node9</title>
<a xlink:href="../../dd/d8d/wsi__appdefaultmeasurementunits_8h.html" target="_top" xlink:title="items/wsi_appdefaultmeasurementunits.h">
<polygon fill="white" stroke="black" points="117.225,-202.5 117.225,-223.5 314.225,-223.5 314.225,-202.5 117.225,-202.5"/>
<text text-anchor="middle" x="215.725" y="-210.5" font-family="Helvetica,sans-Serif" font-size="10.00">items/wsi_appdefaultmeasurementunits.h</text>
</a>
</g>
<!-- Node4&#45;&gt;Node9 -->
<g id="edge24" class="edge"><title>Node4&#45;&gt;Node9</title>
<path fill="none" stroke="midnightblue" d="M673.005,-264.903C589.101,-255.379 425.49,-236.809 318.438,-224.658"/>
<polygon fill="midnightblue" stroke="midnightblue" points="318.59,-221.153 308.259,-223.503 317.8,-228.108 318.59,-221.153"/>
</g>
<!-- Node11 -->
<g id="node28" class="node"><title>Node11</title>
<a xlink:href="../../d8/d1a/wsi__projectautosaveinterval_8h.html" target="_top" xlink:title="items/wsi_projectautosaveinterval.h">
<polygon fill="white" stroke="black" points="935.225,-202.5 935.225,-223.5 1108.23,-223.5 1108.23,-202.5 935.225,-202.5"/>
<text text-anchor="middle" x="1021.73" y="-210.5" font-family="Helvetica,sans-Serif" font-size="10.00">items/wsi_projectautosaveinterval.h</text>
</a>
</g>
<!-- Node4&#45;&gt;Node11 -->
<g id="edge34" class="edge"><title>Node4&#45;&gt;Node11</title>
<path fill="none" stroke="midnightblue" d="M780.148,-260.497C830.218,-250.652 905.113,-235.927 958.219,-225.486"/>
<polygon fill="midnightblue" stroke="midnightblue" points="959.066,-228.887 968.203,-223.523 957.715,-222.018 959.066,-228.887"/>
</g>
<!-- Node12 -->
<g id="node31" class="node"><title>Node12</title>
<a xlink:href="../../d8/d06/wsi__librarylocaleorder_8h.html" target="_top" xlink:title="items/wsi_librarylocaleorder.h">
<polygon fill="white" stroke="black" points="1125.73,-202.5 1125.73,-223.5 1271.73,-223.5 1271.73,-202.5 1125.73,-202.5"/>
<text text-anchor="middle" x="1198.73" y="-210.5" font-family="Helvetica,sans-Serif" font-size="10.00">items/wsi_librarylocaleorder.h</text>
</a>
</g>
<!-- Node4&#45;&gt;Node12 -->
<g id="edge38" class="edge"><title>Node4&#45;&gt;Node12</title>
<path fill="none" stroke="midnightblue" d="M780.375,-264.765C853.606,-256.204 989.25,-240.164 1115.2,-224.182"/>
<polygon fill="midnightblue" stroke="midnightblue" points="1115.94,-227.617 1125.41,-222.884 1115.05,-220.673 1115.94,-227.617"/>
</g>
<!-- Node13 -->
<g id="node34" class="node"><title>Node13</title>
<a xlink:href="../../dd/d39/wsi__librarynormorder_8h.html" target="_top" xlink:title="items/wsi_librarynormorder.h">
<polygon fill="white" stroke="black" points="369.725,-202.5 369.725,-223.5 511.725,-223.5 511.725,-202.5 369.725,-202.5"/>
<text text-anchor="middle" x="440.725" y="-210.5" font-family="Helvetica,sans-Serif" font-size="10.00">items/wsi_librarynormorder.h</text>
</a>
</g>
<!-- Node4&#45;&gt;Node13 -->
<g id="edge42" class="edge"><title>Node4&#45;&gt;Node13</title>
<path fill="none" stroke="midnightblue" d="M674.933,-260.497C626.491,-250.673 554.082,-235.988 502.616,-225.551"/>
<polygon fill="midnightblue" stroke="midnightblue" points="503.111,-222.08 492.615,-223.523 501.72,-228.941 503.111,-222.08"/>
</g>
<!-- Node14 -->
<g id="node37" class="node"><title>Node14</title>
<a xlink:href="../../d4/dc7/wsi__debugtools_8h.html" target="_top" xlink:title="items/wsi_debugtools.h">
<polygon fill="white" stroke="black" points="529.225,-202.5 529.225,-223.5 648.225,-223.5 648.225,-202.5 529.225,-202.5"/>
<text text-anchor="middle" x="588.725" y="-210.5" font-family="Helvetica,sans-Serif" font-size="10.00">items/wsi_debugtools.h</text>
</a>
</g>
<!-- Node4&#45;&gt;Node14 -->
<g id="edge46" class="edge"><title>Node4&#45;&gt;Node14</title>
<path fill="none" stroke="midnightblue" d="M701.735,-260.497C679.792,-251.275 647.66,-237.769 623.262,-227.515"/>
<polygon fill="midnightblue" stroke="midnightblue" points="624.572,-224.269 613.997,-223.621 621.859,-230.722 624.572,-224.269"/>
</g>
<!-- Node15 -->
<g id="node40" class="node"><title>Node15</title>
<a xlink:href="../../db/d31/wsi__appearance_8h.html" target="_top" xlink:title="items/wsi_appearance.h">
<polygon fill="white" stroke="black" points="665.725,-202.5 665.725,-223.5 787.725,-223.5 787.725,-202.5 665.725,-202.5"/>
<text text-anchor="middle" x="726.725" y="-210.5" font-family="Helvetica,sans-Serif" font-size="10.00">items/wsi_appearance.h</text>
</a>
</g>
<!-- Node4&#45;&gt;Node15 -->
<g id="edge50" class="edge"><title>Node4&#45;&gt;Node15</title>
<path fill="none" stroke="midnightblue" d="M726.725,-260.362C726.725,-252.922 726.725,-242.743 726.725,-233.728"/>
<polygon fill="midnightblue" stroke="midnightblue" points="730.225,-233.571 726.725,-223.571 723.225,-233.571 730.225,-233.571"/>
</g>
<!-- Node5&#45;&gt;Node2 -->
<g id="edge14" class="edge"><title>Node5&#45;&gt;Node2</title>
<path fill="none" stroke="midnightblue" d="M355.725,-58.922C355.725,-50.6704 355.725,-40.6922 355.725,-31.9818"/>
<polygon fill="midnightblue" stroke="midnightblue" points="359.225,-31.8521 355.725,-21.8521 352.225,-31.8521 359.225,-31.8521"/>
</g>
<!-- Node7 -->
<g id="node16" class="node"><title>Node7</title>
<a xlink:href="../../dd/d8c/wsi__base_8h.html" target="_top" xlink:title="wsi_base.h">
<polygon fill="white" stroke="black" points="693.725,-137.5 693.725,-158.5 759.725,-158.5 759.725,-137.5 693.725,-137.5"/>
<text text-anchor="middle" x="726.725" y="-145.5" font-family="Helvetica,sans-Serif" font-size="10.00">wsi_base.h</text>
</a>
</g>
<!-- Node6&#45;&gt;Node7 -->
<g id="edge18" class="edge"><title>Node6&#45;&gt;Node7</title>
<path fill="none" stroke="midnightblue" d="M839.735,-202.412C817.475,-191.694 782.854,-175.025 757.796,-162.96"/>
<polygon fill="midnightblue" stroke="midnightblue" points="759.235,-159.768 748.706,-158.584 756.198,-166.075 759.235,-159.768"/>
</g>
<!-- Node7&#45;&gt;Node2 -->
<g id="edge20" class="edge"><title>Node7&#45;&gt;Node2</title>
<path fill="none" stroke="midnightblue" d="M698.23,-137.477C630.815,-112.583 461.78,-50.1629 389.435,-23.4479"/>
<polygon fill="midnightblue" stroke="midnightblue" points="390.482,-20.1038 379.889,-19.9229 388.057,-26.6704 390.482,-20.1038"/>
</g>
<!-- Node8 -->
<g id="node19" class="node"><title>Node8</title>
<polygon fill="white" stroke="#bfbfbf" points="910.225,-65.5 910.225,-86.5 973.225,-86.5 973.225,-65.5 910.225,-65.5"/>
<text text-anchor="middle" x="941.725" y="-73.5" font-family="Helvetica,sans-Serif" font-size="10.00">QtWidgets</text>
</g>
<!-- Node7&#45;&gt;Node8 -->
<g id="edge22" class="edge"><title>Node7&#45;&gt;Node8</title>
<path fill="none" stroke="midnightblue" d="M758.449,-137.376C796.19,-124.737 859.283,-103.609 900.702,-89.738"/>
<polygon fill="midnightblue" stroke="midnightblue" points="901.85,-93.0446 910.221,-86.5501 899.628,-86.4069 901.85,-93.0446"/>
</g>
<!-- Node9&#45;&gt;Node7 -->
<g id="edge26" class="edge"><title>Node9&#45;&gt;Node7</title>
<path fill="none" stroke="midnightblue" d="M298.394,-202.484C408.349,-188.498 598.698,-164.285 683.64,-153.481"/>
<polygon fill="midnightblue" stroke="midnightblue" points="684.226,-156.934 693.705,-152.2 683.343,-149.99 684.226,-156.934"/>
</g>
<!-- Node10 -->
<g id="node24" class="node"><title>Node10</title>
<a xlink:href="../../d0/d09/lengthunit_8h.html" target="_top" xlink:title="librepcbcommon/units\l/lengthunit.h">
<polygon fill="white" stroke="black" points="215.725,-131 215.725,-165 327.725,-165 327.725,-131 215.725,-131"/>
<text text-anchor="start" x="223.725" y="-152" font-family="Helvetica,sans-Serif" font-size="10.00">librepcbcommon/units</text>
<text text-anchor="middle" x="271.725" y="-139" font-family="Helvetica,sans-Serif" font-size="10.00">/lengthunit.h</text>
</a>
</g>
<!-- Node9&#45;&gt;Node10 -->
<g id="edge28" class="edge"><title>Node9&#45;&gt;Node10</title>
<path fill="none" stroke="midnightblue" d="M224.973,-202.267C231.836,-194.3 241.482,-183.104 250.231,-172.949"/>
<polygon fill="midnightblue" stroke="midnightblue" points="253.109,-174.97 256.985,-165.11 247.806,-170.401 253.109,-174.97"/>
</g>
<!-- Node10&#45;&gt;Node2 -->
<g id="edge30" class="edge"><title>Node10&#45;&gt;Node2</title>
<path fill="none" stroke="midnightblue" d="M272.02,-130.702C273.109,-111.49 277.208,-80.2538 291.725,-58 300.089,-45.1786 313.239,-34.6368 325.45,-26.8095"/>
<polygon fill="midnightblue" stroke="midnightblue" points="327.338,-29.7581 334.093,-21.5959 323.722,-23.7642 327.338,-29.7581"/>
</g>
<!-- Node10&#45;&gt;Node3 -->
<g id="edge32" class="edge"><title>Node10&#45;&gt;Node3</title>
<path fill="none" stroke="midnightblue" d="M239.021,-130.937C216.007,-118.929 185.461,-102.992 163.199,-91.3773"/>
<polygon fill="midnightblue" stroke="midnightblue" points="164.696,-88.2107 154.211,-86.688 161.458,-94.4168 164.696,-88.2107"/>
</g>
<!-- Node11&#45;&gt;Node7 -->
<g id="edge36" class="edge"><title>Node11&#45;&gt;Node7</title>
<path fill="none" stroke="midnightblue" d="M974.001,-202.484C917.471,-190.029 824.134,-169.463 769.747,-157.479"/>
<polygon fill="midnightblue" stroke="midnightblue" points="770.255,-154.007 759.736,-155.274 768.749,-160.843 770.255,-154.007"/>
</g>
<!-- Node12&#45;&gt;Node7 -->
<g id="edge40" class="edge"><title>Node12&#45;&gt;Node7</title>
<path fill="none" stroke="midnightblue" d="M1125.49,-202.915C1026,-189.213 851.245,-165.148 770.232,-153.991"/>
<polygon fill="midnightblue" stroke="midnightblue" points="770.287,-150.466 759.903,-152.569 769.332,-157.401 770.287,-150.466"/>
</g>
<!-- Node13&#45;&gt;Node7 -->
<g id="edge44" class="edge"><title>Node13&#45;&gt;Node7</title>
<path fill="none" stroke="midnightblue" d="M486.994,-202.484C541.353,-190.13 630.819,-169.797 683.723,-157.773"/>
<polygon fill="midnightblue" stroke="midnightblue" points="684.502,-161.186 693.477,-155.556 682.95,-154.36 684.502,-161.186"/>
</g>
<!-- Node14&#45;&gt;Node7 -->
<g id="edge48" class="edge"><title>Node14&#45;&gt;Node7</title>
<path fill="none" stroke="midnightblue" d="M611.205,-202.412C633.959,-191.694 669.349,-175.025 694.964,-162.96"/>
<polygon fill="midnightblue" stroke="midnightblue" points="696.7,-166.011 704.256,-158.584 693.718,-159.678 696.7,-166.011"/>
</g>
<!-- Node15&#45;&gt;Node7 -->
<g id="edge52" class="edge"><title>Node15&#45;&gt;Node7</title>
<path fill="none" stroke="midnightblue" d="M726.725,-202.267C726.725,-193.18 726.725,-179.892 726.725,-168.74"/>
<polygon fill="midnightblue" stroke="midnightblue" points="730.225,-168.534 726.725,-158.534 723.225,-168.534 730.225,-168.534"/>
</g>
<!-- Node16&#45;&gt;Node2 -->
<g id="edge56" class="edge"><title>Node16&#45;&gt;Node2</title>
<path fill="none" stroke="midnightblue" d="M54.7946,-202.394C42.7933,-174.828 15.5981,-100.142 51.7253,-58 69.1538,-37.6699 245.872,-20.3463 321.588,-13.7971"/>
<polygon fill="midnightblue" stroke="midnightblue" points="321.908,-17.2827 331.574,-12.9453 321.313,-10.308 321.908,-17.2827"/>
</g>
<!-- Node16&#45;&gt;Node3 -->
<g id="edge66" class="edge"><title>Node16&#45;&gt;Node3</title>
<path fill="none" stroke="midnightblue" d="M60.2587,-202.362C61.4873,-185.879 65.5238,-153.612 78.7253,-130 86.7127,-115.714 99.6228,-102.752 110.928,-93.1105"/>
<polygon fill="midnightblue" stroke="midnightblue" points="113.245,-95.7373 118.784,-86.7051 108.822,-90.3122 113.245,-95.7373"/>
</g>
<!-- Node17 -->
<g id="node46" class="node"><title>Node17</title>
<a xlink:href="../../d5/db9/filelock_8h.html" target="_top" xlink:title="librepcbcommon/fileio\l/filelock.h">
<polygon fill="white" stroke="black" points="87.2253,-131 87.2253,-165 198.225,-165 198.225,-131 87.2253,-131"/>
<text text-anchor="start" x="95.2253" y="-152" font-family="Helvetica,sans-Serif" font-size="10.00">librepcbcommon/fileio</text>
<text text-anchor="middle" x="142.725" y="-139" font-family="Helvetica,sans-Serif" font-size="10.00">/filelock.h</text>
</a>
</g>
<!-- Node16&#45;&gt;Node17 -->
<g id="edge58" class="edge"><title>Node16&#45;&gt;Node17</title>
<path fill="none" stroke="midnightblue" d="M73.4311,-202.267C84.1075,-193.906 99.3259,-181.988 112.783,-171.449"/>
<polygon fill="midnightblue" stroke="midnightblue" points="115.162,-174.031 120.877,-165.11 110.846,-168.52 115.162,-174.031"/>
</g>
<!-- Node17&#45;&gt;Node2 -->
<g id="edge60" class="edge"><title>Node17&#45;&gt;Node2</title>
<path fill="none" stroke="midnightblue" d="M166.252,-130.755C191.965,-112.134 234.593,-81.9283 272.725,-58 290.431,-46.8898 310.855,-35.3092 327.013,-26.4232"/>
<polygon fill="midnightblue" stroke="midnightblue" points="328.881,-29.3911 335.98,-21.5266 325.526,-23.2473 328.881,-29.3911"/>
</g>
<!-- Node17&#45;&gt;Node3 -->
<g id="edge64" class="edge"><title>Node17&#45;&gt;Node3</title>
<path fill="none" stroke="midnightblue" d="M140.592,-130.937C139.327,-120.814 137.713,-107.898 136.367,-97.1329"/>
<polygon fill="midnightblue" stroke="midnightblue" points="139.801,-96.3897 135.088,-86.901 132.855,-97.258 139.801,-96.3897"/>
</g>
<!-- Node17&#45;&gt;Node5 -->
<g id="edge62" class="edge"><title>Node17&#45;&gt;Node5</title>
<path fill="none" stroke="midnightblue" d="M193.203,-130.937C223.863,-120.573 263.181,-107.283 295.465,-96.3697"/>
<polygon fill="midnightblue" stroke="midnightblue" points="296.888,-99.5832 305.241,-93.0651 294.647,-92.9518 296.888,-99.5832"/>
</g>
<!-- Node18&#45;&gt;Node2 -->
<g id="edge70" class="edge"><title>Node18&#45;&gt;Node2</title>
<path fill="none" stroke="midnightblue" d="M1304.01,-137.204C1292.81,-117.335 1265.89,-75.4206 1229.73,-58 1153.1,-21.0882 542.075,-12.7917 389.937,-11.2908"/>
<polygon fill="midnightblue" stroke="midnightblue" points="389.823,-7.78966 379.79,-11.1942 389.756,-14.7893 389.823,-7.78966"/>
</g>
<!-- Node18&#45;&gt;Node8 -->
<g id="edge72" class="edge"><title>Node18&#45;&gt;Node8</title>
<path fill="none" stroke="midnightblue" d="M1255.82,-137.453C1181.92,-122.994 1050.68,-97.317 983.653,-84.2032"/>
<polygon fill="midnightblue" stroke="midnightblue" points="983.951,-80.6953 973.465,-82.21 982.607,-87.5651 983.951,-80.6953"/>
</g>
</g>
</svg>
