<?xml version="1.0" encoding="UTF-8" standalone="no"?>
<!DOCTYPE svg PUBLIC "-//W3C//DTD SVG 1.1//EN"
 "http://www.w3.org/Graphics/SVG/1.1/DTD/svg11.dtd">
<!-- Generated by graphviz version 2.26.3 (20100126.1600)
 -->
<!-- Title: /home/travis/build/LibrePCB/LibrePCB/libs/librepcblibrary/moc/moc_symbol.cpp Pages: 1 -->
<svg width="954pt" height="518pt"
 viewBox="0.00 0.00 953.61 518.00" xmlns="http://www.w3.org/2000/svg" xmlns:xlink="http://www.w3.org/1999/xlink">
<g id="graph1" class="graph" transform="scale(1 1) rotate(0) translate(4 514)">
<title>/home/travis/build/LibrePCB/LibrePCB/libs/librepcblibrary/moc/moc_symbol.cpp</title>
<polygon fill="white" stroke="white" points="-4,5 -4,-514 950.611,-514 950.611,5 -4,5"/>
<!-- Node1 -->
<g id="node1" class="node"><title>Node1</title>
<polygon fill="#bfbfbf" stroke="black" points="440.5,-449 440.5,-509 565.5,-509 565.5,-449 440.5,-449"/>
<text text-anchor="start" x="448.5" y="-496" font-family="Helvetica,sans-Serif" font-size="10.00">/home/travis/build</text>
<text text-anchor="start" x="448.5" y="-483" font-family="Helvetica,sans-Serif" font-size="10.00">/LibrePCB/LibrePCB/libs</text>
<text text-anchor="start" x="448.5" y="-470" font-family="Helvetica,sans-Serif" font-size="10.00">/librepcblibrary/moc/moc</text>
<text text-anchor="middle" x="503" y="-457" font-family="Helvetica,sans-Serif" font-size="10.00">_symbol.cpp</text>
</g>
<!-- Node2 -->
<g id="node3" class="node"><title>Node2</title>
<a xlink:href="../../df/d70/symbol_8h.html" target="_top" xlink:title="../sym/symbol.h">
<polygon fill="white" stroke="black" points="346.5,-390.5 346.5,-411.5 433.5,-411.5 433.5,-390.5 346.5,-390.5"/>
<text text-anchor="middle" x="390" y="-398.5" font-family="Helvetica,sans-Serif" font-size="10.00">../sym/symbol.h</text>
</a>
</g>
<!-- Node1&#45;&gt;Node2 -->
<g id="edge2" class="edge"><title>Node1&#45;&gt;Node2</title>
<path fill="none" stroke="midnightblue" d="M459.311,-448.843C443.87,-438.185 427.082,-426.596 413.895,-417.494"/>
<polygon fill="midnightblue" stroke="midnightblue" points="415.62,-414.432 405.402,-411.632 411.644,-420.193 415.62,-414.432"/>
</g>
<!-- Node22 -->
<g id="node69" class="node"><title>Node22</title>
<polygon fill="white" stroke="#bfbfbf" points="450.5,-390.5 450.5,-411.5 555.5,-411.5 555.5,-390.5 450.5,-390.5"/>
<text text-anchor="middle" x="503" y="-398.5" font-family="Helvetica,sans-Serif" font-size="10.00">QtCore/qbytearray.h</text>
</g>
<!-- Node1&#45;&gt;Node22 -->
<g id="edge94" class="edge"><title>Node1&#45;&gt;Node22</title>
<path fill="none" stroke="midnightblue" d="M503,-448.62C503,-439.68 503,-430.103 503,-421.9"/>
<polygon fill="midnightblue" stroke="midnightblue" points="506.5,-421.753 503,-411.753 499.5,-421.753 506.5,-421.753"/>
</g>
<!-- Node23 -->
<g id="node71" class="node"><title>Node23</title>
<polygon fill="white" stroke="#bfbfbf" points="572.5,-390.5 572.5,-411.5 677.5,-411.5 677.5,-390.5 572.5,-390.5"/>
<text text-anchor="middle" x="625" y="-398.5" font-family="Helvetica,sans-Serif" font-size="10.00">QtCore/qmetatype.h</text>
</g>
<!-- Node1&#45;&gt;Node23 -->
<g id="edge96" class="edge"><title>Node1&#45;&gt;Node23</title>
<path fill="none" stroke="midnightblue" d="M550.168,-448.843C567,-438.082 585.314,-426.373 599.611,-417.232"/>
<polygon fill="midnightblue" stroke="midnightblue" points="601.831,-419.967 608.371,-411.632 598.06,-414.07 601.831,-419.967"/>
</g>
<!-- Node3 -->
<g id="node5" class="node"><title>Node3</title>
<polygon fill="white" stroke="#bfbfbf" points="500,-0.5 500,-21.5 548,-21.5 548,-0.5 500,-0.5"/>
<text text-anchor="middle" x="524" y="-8.5" font-family="Helvetica,sans-Serif" font-size="10.00">QtCore</text>
</g>
<!-- Node2&#45;&gt;Node3 -->
<g id="edge4" class="edge"><title>Node2&#45;&gt;Node3</title>
<path fill="none" stroke="midnightblue" d="M346.397,-396.59C244.628,-385.093 0,-349.972 0,-278 0,-278 0,-278 0,-141 0,-101.136 1.99715,-81.7687 34,-58 70.4811,-30.9052 384.588,-16.3894 489.812,-12.2537"/>
<polygon fill="midnightblue" stroke="midnightblue" points="490.037,-15.7478 499.894,-11.8643 489.766,-8.75298 490.037,-15.7478"/>
</g>
<!-- Node4 -->
<g id="node7" class="node"><title>Node4</title>
<a xlink:href="../../d0/db0/libraryelement_8h.html" target="_top" xlink:title="../libraryelement.h">
<polygon fill="white" stroke="black" points="170.5,-332.5 170.5,-353.5 265.5,-353.5 265.5,-332.5 170.5,-332.5"/>
<text text-anchor="middle" x="218" y="-340.5" font-family="Helvetica,sans-Serif" font-size="10.00">../libraryelement.h</text>
</a>
</g>
<!-- Node2&#45;&gt;Node4 -->
<g id="edge6" class="edge"><title>Node2&#45;&gt;Node4</title>
<path fill="none" stroke="midnightblue" d="M358.852,-390.497C330.811,-381.041 289.418,-367.083 258.755,-356.743"/>
<polygon fill="midnightblue" stroke="midnightblue" points="259.8,-353.402 249.206,-353.523 257.564,-360.035 259.8,-353.402"/>
</g>
<!-- Node11 -->
<g id="node26" class="node"><title>Node11</title>
<a xlink:href="../../da/d16/symbolpin_8h.html" target="_top" xlink:title="symbolpin.h">
<polygon fill="white" stroke="black" points="308.5,-332.5 308.5,-353.5 377.5,-353.5 377.5,-332.5 308.5,-332.5"/>
<text text-anchor="middle" x="343" y="-340.5" font-family="Helvetica,sans-Serif" font-size="10.00">symbolpin.h</text>
</a>
</g>
<!-- Node2&#45;&gt;Node11 -->
<g id="edge30" class="edge"><title>Node2&#45;&gt;Node11</title>
<path fill="none" stroke="midnightblue" d="M381.379,-390.362C374.82,-382.268 365.634,-370.932 357.894,-361.38"/>
<polygon fill="midnightblue" stroke="midnightblue" points="360.581,-359.136 351.566,-353.571 355.142,-363.544 360.581,-359.136"/>
</g>
<!-- Node17 -->
<g id="node48" class="node"><title>Node17</title>
<a xlink:href="../../d0/d3f/symbolpolygon_8h.html" target="_top" xlink:title="symbolpolygon.h">
<polygon fill="white" stroke="black" points="606,-332.5 606,-353.5 696,-353.5 696,-332.5 606,-332.5"/>
<text text-anchor="middle" x="651" y="-340.5" font-family="Helvetica,sans-Serif" font-size="10.00">symbolpolygon.h</text>
</a>
</g>
<!-- Node2&#45;&gt;Node17 -->
<g id="edge62" class="edge"><title>Node2&#45;&gt;Node17</title>
<path fill="none" stroke="midnightblue" d="M433.686,-391.292C478.259,-381.387 547.561,-365.986 595.881,-355.249"/>
<polygon fill="midnightblue" stroke="midnightblue" points="596.855,-358.618 605.857,-353.032 595.336,-351.784 596.855,-358.618"/>
</g>
<!-- Node19 -->
<g id="node55" class="node"><title>Node19</title>
<a xlink:href="../../d4/d32/symboltext_8h.html" target="_top" xlink:title="symboltext.h">
<polygon fill="white" stroke="black" points="400.5,-332.5 400.5,-353.5 473.5,-353.5 473.5,-332.5 400.5,-332.5"/>
<text text-anchor="middle" x="437" y="-340.5" font-family="Helvetica,sans-Serif" font-size="10.00">symboltext.h</text>
</a>
</g>
<!-- Node2&#45;&gt;Node19 -->
<g id="edge72" class="edge"><title>Node2&#45;&gt;Node19</title>
<path fill="none" stroke="midnightblue" d="M398.621,-390.362C405.18,-382.268 414.366,-370.932 422.106,-361.38"/>
<polygon fill="midnightblue" stroke="midnightblue" points="424.858,-363.544 428.434,-353.571 419.419,-359.136 424.858,-363.544"/>
</g>
<!-- Node21 -->
<g id="node64" class="node"><title>Node21</title>
<a xlink:href="../../db/d4a/symbolellipse_8h.html" target="_top" xlink:title="symbolellipse.h">
<polygon fill="white" stroke="black" points="498,-332.5 498,-353.5 582,-353.5 582,-332.5 498,-332.5"/>
<text text-anchor="middle" x="540" y="-340.5" font-family="Helvetica,sans-Serif" font-size="10.00">symbolellipse.h</text>
</a>
</g>
<!-- Node2&#45;&gt;Node21 -->
<g id="edge86" class="edge"><title>Node2&#45;&gt;Node21</title>
<path fill="none" stroke="midnightblue" d="M417.164,-390.497C441.3,-381.164 476.781,-367.445 503.412,-357.147"/>
<polygon fill="midnightblue" stroke="midnightblue" points="504.72,-360.394 512.785,-353.523 502.196,-353.865 504.72,-360.394"/>
</g>
<!-- Node4&#45;&gt;Node3 -->
<g id="edge8" class="edge"><title>Node4&#45;&gt;Node3</title>
<path fill="none" stroke="midnightblue" d="M179.385,-332.495C126.496,-315.485 38,-276.493 38,-206 38,-206 38,-206 38,-141 38,-103.157 28.6251,-83.0393 57,-58 89.3449,-29.4574 387.708,-15.976 489.873,-12.1687"/>
<polygon fill="midnightblue" stroke="midnightblue" points="490.096,-15.663 499.962,-11.8006 489.841,-8.66761 490.096,-15.663"/>
</g>
<!-- Node5 -->
<g id="node10" class="node"><title>Node5</title>
<a xlink:href="../../de/dd7/librarybaseelement_8h.html" target="_top" xlink:title="librarybaseelement.h">
<polygon fill="white" stroke="black" points="164.5,-267.5 164.5,-288.5 271.5,-288.5 271.5,-267.5 164.5,-267.5"/>
<text text-anchor="middle" x="218" y="-275.5" font-family="Helvetica,sans-Serif" font-size="10.00">librarybaseelement.h</text>
</a>
</g>
<!-- Node4&#45;&gt;Node5 -->
<g id="edge10" class="edge"><title>Node4&#45;&gt;Node5</title>
<path fill="none" stroke="midnightblue" d="M218,-332.267C218,-323.18 218,-309.892 218,-298.74"/>
<polygon fill="midnightblue" stroke="midnightblue" points="221.5,-298.534 218,-288.534 214.5,-298.534 221.5,-298.534"/>
</g>
<!-- Node6 -->
<g id="node12" class="node"><title>Node6</title>
<polygon fill="white" stroke="#bfbfbf" points="180.5,-195.5 180.5,-216.5 233.5,-216.5 233.5,-195.5 180.5,-195.5"/>
<text text-anchor="middle" x="207" y="-203.5" font-family="Helvetica,sans-Serif" font-size="10.00">QObject</text>
</g>
<!-- Node5&#45;&gt;Node6 -->
<g id="edge12" class="edge"><title>Node5&#45;&gt;Node6</title>
<path fill="none" stroke="midnightblue" d="M216.377,-267.376C214.752,-256.741 212.209,-240.095 210.181,-226.82"/>
<polygon fill="midnightblue" stroke="midnightblue" points="213.6,-226.024 208.63,-216.667 206.68,-227.081 213.6,-226.024"/>
</g>
<!-- Node7 -->
<g id="node14" class="node"><title>Node7</title>
<a xlink:href="../../d0/d1d/if__xmlserializableobject_8h.html" target="_top" xlink:title="librepcbcommon/fileio\l/if_xmlserializableobject.h">
<polygon fill="white" stroke="black" points="464.5,-189 464.5,-223 593.5,-223 593.5,-189 464.5,-189"/>
<text text-anchor="start" x="472.5" y="-210" font-family="Helvetica,sans-Serif" font-size="10.00">librepcbcommon/fileio</text>
<text text-anchor="middle" x="529" y="-197" font-family="Helvetica,sans-Serif" font-size="10.00">/if_xmlserializableobject.h</text>
</a>
</g>
<!-- Node5&#45;&gt;Node7 -->
<g id="edge14" class="edge"><title>Node5&#45;&gt;Node7</title>
<path fill="none" stroke="midnightblue" d="M263.555,-267.453C313.635,-255.859 394.865,-237.054 454.294,-223.295"/>
<polygon fill="midnightblue" stroke="midnightblue" points="455.426,-226.626 464.379,-220.96 453.847,-219.806 455.426,-226.626"/>
</g>
<!-- Node8 -->
<g id="node16" class="node"><title>Node8</title>
<a xlink:href="../../d4/d03/exceptions_8h.html" target="_top" xlink:title="../exceptions.h">
<polygon fill="white" stroke="black" points="523.5,-65.5 523.5,-86.5 604.5,-86.5 604.5,-65.5 523.5,-65.5"/>
<text text-anchor="middle" x="564" y="-73.5" font-family="Helvetica,sans-Serif" font-size="10.00">../exceptions.h</text>
</a>
</g>
<!-- Node5&#45;&gt;Node8 -->
<g id="edge20" class="edge"><title>Node5&#45;&gt;Node8</title>
<path fill="none" stroke="midnightblue" d="M227.636,-267.419C252.576,-240.635 322.31,-169.48 394,-130 431.65,-109.266 478.448,-95.1413 513.405,-86.554"/>
<polygon fill="midnightblue" stroke="midnightblue" points="514.476,-89.8967 523.391,-84.1718 512.852,-83.0878 514.476,-89.8967"/>
</g>
<!-- Node9 -->
<g id="node20" class="node"><title>Node9</title>
<a xlink:href="../../dd/dec/filepath_8h.html" target="_top" xlink:title="librepcbcommon/fileio\l/filepath.h">
<polygon fill="white" stroke="black" points="213.5,-59 213.5,-93 324.5,-93 324.5,-59 213.5,-59"/>
<text text-anchor="start" x="221.5" y="-80" font-family="Helvetica,sans-Serif" font-size="10.00">librepcbcommon/fileio</text>
<text text-anchor="middle" x="269" y="-67" font-family="Helvetica,sans-Serif" font-size="10.00">/filepath.h</text>
</a>
</g>
<!-- Node5&#45;&gt;Node9 -->
<g id="edge22" class="edge"><title>Node5&#45;&gt;Node9</title>
<path fill="none" stroke="midnightblue" d="M223.757,-267.128C229.198,-256.428 237.22,-239.489 242,-224 254.69,-182.879 262.23,-133.383 265.992,-103.326"/>
<polygon fill="midnightblue" stroke="midnightblue" points="269.492,-103.529 267.21,-93.1834 262.542,-102.695 269.492,-103.529"/>
</g>
<!-- Node10 -->
<g id="node23" class="node"><title>Node10</title>
<a xlink:href="../../df/dfc/version_8h.html" target="_top" xlink:title="librepcbcommon/version.h">
<polygon fill="white" stroke="black" points="65.5,-65.5 65.5,-86.5 196.5,-86.5 196.5,-65.5 65.5,-65.5"/>
<text text-anchor="middle" x="131" y="-73.5" font-family="Helvetica,sans-Serif" font-size="10.00">librepcbcommon/version.h</text>
</a>
</g>
<!-- Node5&#45;&gt;Node10 -->
<g id="edge26" class="edge"><title>Node5&#45;&gt;Node10</title>
<path fill="none" stroke="midnightblue" d="M206.549,-267.486C196.118,-257.31 181.006,-240.97 172,-224 149.613,-181.816 138.482,-126.209 133.815,-96.6141"/>
<polygon fill="midnightblue" stroke="midnightblue" points="137.263,-96.0051 132.333,-86.6272 130.339,-97.0327 137.263,-96.0051"/>
</g>
<!-- Node7&#45;&gt;Node8 -->
<g id="edge16" class="edge"><title>Node7&#45;&gt;Node8</title>
<path fill="none" stroke="midnightblue" d="M537.573,-188.886C542.47,-178.459 548.344,-164.732 552,-152 557.281,-133.61 560.409,-112.007 562.14,-96.5433"/>
<polygon fill="midnightblue" stroke="midnightblue" points="565.631,-96.8057 563.164,-86.5021 558.667,-96.0951 565.631,-96.8057"/>
</g>
<!-- Node8&#45;&gt;Node3 -->
<g id="edge18" class="edge"><title>Node8&#45;&gt;Node3</title>
<path fill="none" stroke="midnightblue" d="M557.395,-65.2666C551.57,-55.8013 542.94,-41.7773 535.912,-30.3571"/>
<polygon fill="midnightblue" stroke="midnightblue" points="538.704,-28.2159 530.482,-21.5337 532.742,-31.8847 538.704,-28.2159"/>
</g>
<!-- Node9&#45;&gt;Node3 -->
<g id="edge24" class="edge"><title>Node9&#45;&gt;Node3</title>
<path fill="none" stroke="midnightblue" d="M324.726,-61.4236C329.216,-60.2611 333.683,-59.1084 338,-58 391.078,-44.3709 452.759,-28.8467 490.061,-19.493"/>
<polygon fill="midnightblue" stroke="midnightblue" points="491.059,-22.8512 499.908,-17.0251 489.357,-16.0612 491.059,-22.8512"/>
</g>
<!-- Node10&#45;&gt;Node3 -->
<g id="edge28" class="edge"><title>Node10&#45;&gt;Node3</title>
<path fill="none" stroke="midnightblue" d="M171.564,-65.4189C182.384,-62.7924 194.099,-60.1242 205,-58 307.936,-37.942 431.049,-22.071 489.682,-15.0006"/>
<polygon fill="midnightblue" stroke="midnightblue" points="490.347,-18.4461 499.861,-13.7837 489.516,-11.4956 490.347,-18.4461"/>
</g>
<!-- Node11&#45;&gt;Node3 -->
<g id="edge32" class="edge"><title>Node11&#45;&gt;Node3</title>
<path fill="none" stroke="midnightblue" d="M342.045,-332.409C338.929,-290.913 333.378,-137.764 412,-58 433.113,-36.5805 465.464,-24.4394 489.979,-17.8866"/>
<polygon fill="midnightblue" stroke="midnightblue" points="491.088,-21.2175 499.949,-15.4097 489.4,-14.424 491.088,-21.2175"/>
</g>
<!-- Node11&#45;&gt;Node7 -->
<g id="edge60" class="edge"><title>Node11&#45;&gt;Node7</title>
<path fill="none" stroke="midnightblue" d="M357.286,-332.477C387.147,-310.483 456.778,-259.196 497.609,-229.121"/>
<polygon fill="midnightblue" stroke="midnightblue" points="499.884,-231.793 505.86,-223.044 495.733,-226.156 499.884,-231.793"/>
</g>
<!-- Node12 -->
<g id="node29" class="node"><title>Node12</title>
<a xlink:href="../../d1/da8/all__length__units_8h.html" target="_top" xlink:title="librepcbcommon/units\l/all_length_units.h">
<polygon fill="white" stroke="black" points="595,-261 595,-295 707,-295 707,-261 595,-261"/>
<text text-anchor="start" x="603" y="-282" font-family="Helvetica,sans-Serif" font-size="10.00">librepcbcommon/units</text>
<text text-anchor="middle" x="651" y="-269" font-family="Helvetica,sans-Serif" font-size="10.00">/all_length_units.h</text>
</a>
</g>
<!-- Node11&#45;&gt;Node12 -->
<g id="edge34" class="edge"><title>Node11&#45;&gt;Node12</title>
<path fill="none" stroke="midnightblue" d="M377.519,-335.181C382.379,-334.101 387.313,-333.015 392,-332 457.581,-317.803 532.655,-302.225 585.032,-291.464"/>
<polygon fill="midnightblue" stroke="midnightblue" points="585.775,-294.885 594.867,-289.446 584.367,-288.028 585.775,-294.885"/>
</g>
<!-- Node13 -->
<g id="node31" class="node"><title>Node13</title>
<a xlink:href="../../d0/d09/lengthunit_8h.html" target="_top" xlink:title="lengthunit.h">
<polygon fill="white" stroke="black" points="598.5,-130.5 598.5,-151.5 665.5,-151.5 665.5,-130.5 598.5,-130.5"/>
<text text-anchor="middle" x="632" y="-138.5" font-family="Helvetica,sans-Serif" font-size="10.00">lengthunit.h</text>
</a>
</g>
<!-- Node12&#45;&gt;Node13 -->
<g id="edge36" class="edge"><title>Node12&#45;&gt;Node13</title>
<path fill="none" stroke="midnightblue" d="M648.632,-260.926C645.135,-235.709 638.599,-188.579 634.846,-161.519"/>
<polygon fill="midnightblue" stroke="midnightblue" points="638.309,-161.011 633.468,-151.586 631.375,-161.972 638.309,-161.011"/>
</g>
<!-- Node14 -->
<g id="node35" class="node"><title>Node14</title>
<a xlink:href="../../dd/db9/length_8h.html" target="_top" xlink:title="length.h">
<polygon fill="white" stroke="black" points="682.5,-130.5 682.5,-151.5 733.5,-151.5 733.5,-130.5 682.5,-130.5"/>
<text text-anchor="middle" x="708" y="-138.5" font-family="Helvetica,sans-Serif" font-size="10.00">length.h</text>
</a>
</g>
<!-- Node12&#45;&gt;Node14 -->
<g id="edge42" class="edge"><title>Node12&#45;&gt;Node14</title>
<path fill="none" stroke="midnightblue" d="M658.104,-260.926C668.642,-235.597 688.379,-188.16 699.613,-161.159"/>
<polygon fill="midnightblue" stroke="midnightblue" points="702.985,-162.164 703.595,-151.586 696.523,-159.475 702.985,-162.164"/>
</g>
<!-- Node15 -->
<g id="node39" class="node"><title>Node15</title>
<a xlink:href="../../d2/d91/point_8h.html" target="_top" xlink:title="point.h">
<polygon fill="white" stroke="black" points="698,-195.5 698,-216.5 744,-216.5 744,-195.5 698,-195.5"/>
<text text-anchor="middle" x="721" y="-203.5" font-family="Helvetica,sans-Serif" font-size="10.00">point.h</text>
</a>
</g>
<!-- Node12&#45;&gt;Node15 -->
<g id="edge48" class="edge"><title>Node12&#45;&gt;Node15</title>
<path fill="none" stroke="midnightblue" d="M667.589,-260.937C678.364,-249.855 692.392,-235.425 703.368,-224.136"/>
<polygon fill="midnightblue" stroke="midnightblue" points="705.94,-226.511 710.402,-216.901 700.921,-221.631 705.94,-226.511"/>
</g>
<!-- Node16 -->
<g id="node43" class="node"><title>Node16</title>
<a xlink:href="../../da/dac/angle_8h.html" target="_top" xlink:title="angle.h">
<polygon fill="white" stroke="black" points="751,-130.5 751,-151.5 799,-151.5 799,-130.5 751,-130.5"/>
<text text-anchor="middle" x="775" y="-138.5" font-family="Helvetica,sans-Serif" font-size="10.00">angle.h</text>
</a>
</g>
<!-- Node12&#45;&gt;Node16 -->
<g id="edge54" class="edge"><title>Node12&#45;&gt;Node16</title>
<path fill="none" stroke="midnightblue" d="M701.936,-260.993C720.399,-252.515 739.911,-240.471 753,-224 767.209,-206.12 772.291,-179.915 774.08,-161.752"/>
<polygon fill="midnightblue" stroke="midnightblue" points="777.582,-161.858 774.821,-151.629 770.6,-161.347 777.582,-161.858"/>
</g>
<!-- Node13&#45;&gt;Node3 -->
<g id="edge38" class="edge"><title>Node13&#45;&gt;Node3</title>
<path fill="none" stroke="midnightblue" d="M632.27,-130.393C632.163,-113.375 629.659,-79.6882 613,-58 599.223,-40.0631 576.625,-28.2492 557.648,-20.9519"/>
<polygon fill="midnightblue" stroke="midnightblue" points="558.715,-17.6164 548.121,-17.5392 556.355,-24.2064 558.715,-17.6164"/>
</g>
<!-- Node13&#45;&gt;Node8 -->
<g id="edge40" class="edge"><title>Node13&#45;&gt;Node8</title>
<path fill="none" stroke="midnightblue" d="M620.771,-130.267C610.374,-120.328 594.719,-105.363 582.48,-93.6645"/>
<polygon fill="midnightblue" stroke="midnightblue" points="584.667,-90.9135 575.02,-86.5337 579.83,-95.9736 584.667,-90.9135"/>
</g>
<!-- Node14&#45;&gt;Node3 -->
<g id="edge44" class="edge"><title>Node14&#45;&gt;Node3</title>
<path fill="none" stroke="midnightblue" d="M700.967,-130.477C689.009,-113.276 663.157,-78.9578 634,-58 610.791,-41.3174 580.743,-28.9878 557.918,-21.1526"/>
<polygon fill="midnightblue" stroke="midnightblue" points="558.898,-17.7904 548.305,-17.97 556.698,-24.4357 558.898,-17.7904"/>
</g>
<!-- Node14&#45;&gt;Node8 -->
<g id="edge46" class="edge"><title>Node14&#45;&gt;Node8</title>
<path fill="none" stroke="midnightblue" d="M684.543,-130.412C660.695,-119.647 623.545,-102.878 596.79,-90.8009"/>
<polygon fill="midnightblue" stroke="midnightblue" points="598.001,-87.5077 587.447,-86.5835 595.121,-93.8878 598.001,-87.5077"/>
</g>
<!-- Node15&#45;&gt;Node3 -->
<g id="edge50" class="edge"><title>Node15&#45;&gt;Node3</title>
<path fill="none" stroke="midnightblue" d="M744.101,-198.259C775.126,-186.468 824.562,-161.964 808,-130 782.471,-80.7314 756.353,-81.3181 706,-58 657.143,-35.3743 595.665,-22.3905 558.128,-16.0183"/>
<polygon fill="midnightblue" stroke="midnightblue" points="558.64,-12.5556 548.206,-14.3938 557.509,-19.4636 558.64,-12.5556"/>
</g>
<!-- Node15&#45;&gt;Node14 -->
<g id="edge52" class="edge"><title>Node15&#45;&gt;Node14</title>
<path fill="none" stroke="midnightblue" d="M718.853,-195.267C717.017,-186.085 714.323,-172.615 712.078,-161.392"/>
<polygon fill="midnightblue" stroke="midnightblue" points="715.5,-160.653 710.107,-151.534 708.636,-162.026 715.5,-160.653"/>
</g>
<!-- Node16&#45;&gt;Node3 -->
<g id="edge56" class="edge"><title>Node16&#45;&gt;Node3</title>
<path fill="none" stroke="midnightblue" d="M763.786,-130.405C744.942,-113.099 705.134,-78.634 666,-58 631.068,-39.5819 587.53,-26.4608 557.937,-18.8426"/>
<polygon fill="midnightblue" stroke="midnightblue" points="558.639,-15.4103 548.088,-16.3778 556.939,-22.2009 558.639,-15.4103"/>
</g>
<!-- Node16&#45;&gt;Node8 -->
<g id="edge58" class="edge"><title>Node16&#45;&gt;Node8</title>
<path fill="none" stroke="midnightblue" d="M750.874,-132.874C747.89,-131.893 744.877,-130.916 742,-130 697.136,-115.72 645.641,-100.191 609.618,-89.4672"/>
<polygon fill="midnightblue" stroke="midnightblue" points="610.47,-86.069 599.887,-86.575 608.475,-92.7789 610.47,-86.069"/>
</g>
<!-- Node17&#45;&gt;Node3 -->
<g id="edge64" class="edge"><title>Node17&#45;&gt;Node3</title>
<path fill="none" stroke="midnightblue" d="M696.075,-341.222C765.042,-337.545 892.131,-326.693 924,-296 953.446,-267.64 943,-246.882 943,-206 943,-206 943,-206 943,-141 943,-60.6245 658.197,-24.4168 558.204,-14.1813"/>
<polygon fill="midnightblue" stroke="midnightblue" points="558.331,-10.6766 548.032,-13.165 557.635,-17.6419 558.331,-10.6766"/>
</g>
<!-- Node17&#45;&gt;Node7 -->
<g id="edge70" class="edge"><title>Node17&#45;&gt;Node7</title>
<path fill="none" stroke="midnightblue" d="M632.738,-332.451C618.848,-323.835 599.833,-310.71 586,-296 568.008,-276.866 552.437,-251.266 542.138,-232.261"/>
<polygon fill="midnightblue" stroke="midnightblue" points="545.148,-230.465 537.383,-223.256 538.958,-233.734 545.148,-230.465"/>
</g>
<!-- Node17&#45;&gt;Node12 -->
<g id="edge68" class="edge"><title>Node17&#45;&gt;Node12</title>
<path fill="none" stroke="midnightblue" d="M651,-332.267C651,-324.931 651,-314.857 651,-305.38"/>
<polygon fill="midnightblue" stroke="midnightblue" points="654.5,-305.11 651,-295.11 647.5,-305.11 654.5,-305.11"/>
</g>
<!-- Node18 -->
<g id="node51" class="node"><title>Node18</title>
<polygon fill="white" stroke="#bfbfbf" points="852.5,-267.5 852.5,-288.5 915.5,-288.5 915.5,-267.5 852.5,-267.5"/>
<text text-anchor="middle" x="884" y="-275.5" font-family="Helvetica,sans-Serif" font-size="10.00">QtWidgets</text>
</g>
<!-- Node17&#45;&gt;Node18 -->
<g id="edge66" class="edge"><title>Node17&#45;&gt;Node18</title>
<path fill="none" stroke="midnightblue" d="M696.307,-333.485C734.691,-324.994 790.983,-311.527 839,-296 842.573,-294.845 846.267,-293.545 849.933,-292.187"/>
<polygon fill="midnightblue" stroke="midnightblue" points="851.391,-295.376 859.463,-288.513 848.873,-288.844 851.391,-295.376"/>
</g>
<!-- Node19&#45;&gt;Node3 -->
<g id="edge74" class="edge"><title>Node19&#45;&gt;Node3</title>
<path fill="none" stroke="midnightblue" d="M430.508,-332.322C411.934,-300.31 361.923,-202.851 394,-130 414.649,-83.1037 463.915,-46.6387 495.52,-27.0263"/>
<polygon fill="midnightblue" stroke="midnightblue" points="497.565,-29.8803 504.319,-21.7171 493.948,-23.8868 497.565,-29.8803"/>
</g>
<!-- Node19&#45;&gt;Node7 -->
<g id="edge76" class="edge"><title>Node19&#45;&gt;Node7</title>
<path fill="none" stroke="midnightblue" d="M444.219,-332.25C458.638,-310.778 491.359,-262.053 511.672,-231.803"/>
<polygon fill="midnightblue" stroke="midnightblue" points="514.626,-233.682 517.296,-223.429 508.815,-229.78 514.626,-233.682"/>
</g>
<!-- Node19&#45;&gt;Node12 -->
<g id="edge78" class="edge"><title>Node19&#45;&gt;Node12</title>
<path fill="none" stroke="midnightblue" d="M471.859,-332.412C502.41,-323.133 547.647,-309.392 585.018,-298.041"/>
<polygon fill="midnightblue" stroke="midnightblue" points="586.281,-301.316 594.832,-295.06 584.246,-294.618 586.281,-301.316"/>
</g>
<!-- Node20 -->
<g id="node60" class="node"><title>Node20</title>
<a xlink:href="../../db/dad/alignment_8h.html" target="_top" xlink:title="librepcbcommon/alignment.h">
<polygon fill="white" stroke="black" points="402.5,-130.5 402.5,-151.5 543.5,-151.5 543.5,-130.5 402.5,-130.5"/>
<text text-anchor="middle" x="473" y="-138.5" font-family="Helvetica,sans-Serif" font-size="10.00">librepcbcommon/alignment.h</text>
</a>
</g>
<!-- Node19&#45;&gt;Node20 -->
<g id="edge80" class="edge"><title>Node19&#45;&gt;Node20</title>
<path fill="none" stroke="midnightblue" d="M437.481,-332.33C438.802,-306.977 443.274,-241.265 456,-188 458.155,-178.98 461.474,-169.3 464.609,-161.083"/>
<polygon fill="midnightblue" stroke="midnightblue" points="467.93,-162.202 468.38,-151.617 461.427,-159.611 467.93,-162.202"/>
</g>
<!-- Node20&#45;&gt;Node3 -->
<g id="edge82" class="edge"><title>Node20&#45;&gt;Node3</title>
<path fill="none" stroke="midnightblue" d="M477.174,-130.362C485.654,-108.746 505.023,-59.3723 516.009,-31.3691"/>
<polygon fill="midnightblue" stroke="midnightblue" points="519.375,-32.373 519.769,-21.7854 512.858,-29.8164 519.375,-32.373"/>
</g>
<!-- Node20&#45;&gt;Node8 -->
<g id="edge84" class="edge"><title>Node20&#45;&gt;Node8</title>
<path fill="none" stroke="midnightblue" d="M488.027,-130.267C502.338,-120.044 524.094,-104.504 540.662,-92.6699"/>
<polygon fill="midnightblue" stroke="midnightblue" points="543.15,-95.1942 549.253,-86.5337 539.081,-89.4981 543.15,-95.1942"/>
</g>
<!-- Node21&#45;&gt;Node3 -->
<g id="edge88" class="edge"><title>Node21&#45;&gt;Node3</title>
<path fill="none" stroke="midnightblue" d="M582.188,-334.848C626.89,-325.669 694.004,-310.181 716,-296 789.774,-248.439 854.821,-211.805 823,-130 807.263,-89.5428 794.802,-79.3413 757,-58 723.41,-39.0364 614.62,-22.7048 558.377,-15.2745"/>
<polygon fill="midnightblue" stroke="midnightblue" points="558.56,-11.7688 548.192,-13.9504 557.657,-18.7104 558.56,-11.7688"/>
</g>
<!-- Node21&#45;&gt;Node7 -->
<g id="edge92" class="edge"><title>Node21&#45;&gt;Node7</title>
<path fill="none" stroke="midnightblue" d="M539.137,-332.25C537.45,-311.239 533.667,-264.131 531.23,-233.776"/>
<polygon fill="midnightblue" stroke="midnightblue" points="534.689,-233.117 530.399,-223.429 527.711,-233.677 534.689,-233.117"/>
</g>
<!-- Node21&#45;&gt;Node12 -->
<g id="edge90" class="edge"><title>Node21&#45;&gt;Node12</title>
<path fill="none" stroke="midnightblue" d="M558.329,-332.267C573.146,-323.59 594.504,-311.083 612.983,-300.262"/>
<polygon fill="midnightblue" stroke="midnightblue" points="614.921,-303.183 621.782,-295.11 611.384,-297.143 614.921,-303.183"/>
</g>
</g>
</svg>
