<?xml version="1.0" encoding="UTF-8" standalone="no"?>
<!DOCTYPE svg PUBLIC "-//W3C//DTD SVG 1.1//EN"
 "http://www.w3.org/Graphics/SVG/1.1/DTD/svg11.dtd">
<!-- Generated by graphviz version 2.26.3 (20100126.1600)
 -->
<!-- Title: getUnitFromString Pages: 1 -->
<svg width="320pt" height="264pt"
 viewBox="0.00 0.00 320.00 264.00" xmlns="http://www.w3.org/2000/svg" xmlns:xlink="http://www.w3.org/1999/xlink">
<g id="graph1" class="graph" transform="scale(1 1) rotate(0) translate(4 260)">
<title>getUnitFromString</title>
<polygon fill="white" stroke="white" points="-4,5 -4,-260 317,-260 317,5 -4,5"/>
<!-- Node1 -->
<g id="node1" class="node"><title>Node1</title>
<polygon fill="#bfbfbf" stroke="black" points="0,-117.5 0,-138.5 96,-138.5 96,-117.5 0,-117.5"/>
<text text-anchor="middle" x="48" y="-125.5" font-family="Helvetica,sans-Serif" font-size="10.00">getUnitFromString</text>
</g>
<!-- Node2 -->
<g id="node3" class="node"><title>Node2</title>
<a xlink:href="../../d5/d40/classlibrary_1_1_library_element_attribute.html#ac4e221bdc91d964218f3b2c1ab3fc826" target="_top" xlink:title="library::LibraryElementAttribute\l::LibraryElementAttribute">
<polygon fill="white" stroke="black" points="146.5,-222 146.5,-256 297.5,-256 297.5,-222 146.5,-222"/>
<text text-anchor="start" x="154.5" y="-243" font-family="Helvetica,sans-Serif" font-size="10.00">library::LibraryElementAttribute</text>
<text text-anchor="middle" x="222" y="-230" font-family="Helvetica,sans-Serif" font-size="10.00">::LibraryElementAttribute</text>
</a>
</g>
<!-- Node1&#45;&gt;Node2 -->
<g id="edge2" class="edge"><title>Node1&#45;&gt;Node2</title>
<path fill="none" stroke="midnightblue" d="M61.6845,-146.651C76.8141,-165.975 102.924,-195.718 132,-213 137.732,-216.407 143.937,-219.39 150.315,-221.996"/>
<polygon fill="midnightblue" stroke="midnightblue" points="64.3821,-144.416 55.5346,-138.588 58.8163,-148.661 64.3821,-144.416"/>
</g>
<!-- Node3 -->
<g id="node5" class="node"><title>Node3</title>
<a xlink:href="../../d7/d77/classproject_1_1_gen_comp_attribute_instance.html#a4a02950902e2cf9b6b972fca7107a86d" target="_top" xlink:title="project::GenCompAttribute\lInstance::GenCompAttributeInstance">
<polygon fill="white" stroke="black" points="132.5,-170 132.5,-204 311.5,-204 311.5,-170 132.5,-170"/>
<text text-anchor="start" x="140.5" y="-191" font-family="Helvetica,sans-Serif" font-size="10.00">project::GenCompAttribute</text>
<text text-anchor="middle" x="222" y="-178" font-family="Helvetica,sans-Serif" font-size="10.00">Instance::GenCompAttributeInstance</text>
</a>
</g>
<!-- Node1&#45;&gt;Node3 -->
<g id="edge4" class="edge"><title>Node1&#45;&gt;Node3</title>
<path fill="none" stroke="midnightblue" d="M82.5756,-142.421C97.6384,-148.485 115.572,-155.414 132,-161 141.085,-164.089 150.763,-167.136 160.277,-169.995"/>
<polygon fill="midnightblue" stroke="midnightblue" points="83.7183,-139.108 73.1364,-138.584 81.082,-145.592 83.7183,-139.108"/>
</g>
<!-- Node4 -->
<g id="node7" class="node"><title>Node4</title>
<a xlink:href="../../d9/de8/classproject_1_1_symbol_instance_properties_dialog.html#a335f2554b0268b74dd2ac89a4f2253e4" target="_top" xlink:title="project::SymbolInstanceProperties\lDialog::on_cbxAttrUnit_currentIndex\lChanged">
<polygon fill="white" stroke="black" points="134.5,-104.5 134.5,-151.5 309.5,-151.5 309.5,-104.5 134.5,-104.5"/>
<text text-anchor="start" x="142.5" y="-138.5" font-family="Helvetica,sans-Serif" font-size="10.00">project::SymbolInstanceProperties</text>
<text text-anchor="start" x="142.5" y="-125.5" font-family="Helvetica,sans-Serif" font-size="10.00">Dialog::on_cbxAttrUnit_currentIndex</text>
<text text-anchor="middle" x="222" y="-112.5" font-family="Helvetica,sans-Serif" font-size="10.00">Changed</text>
</a>
</g>
<!-- Node1&#45;&gt;Node4 -->
<g id="edge6" class="edge"><title>Node1&#45;&gt;Node4</title>
<path fill="none" stroke="midnightblue" d="M106.08,-128C115.204,-128 124.807,-128 134.42,-128"/>
<polygon fill="midnightblue" stroke="midnightblue" points="106.007,-124.5 96.0069,-128 106.007,-131.5 106.007,-124.5"/>
</g>
<!-- Node5 -->
<g id="node9" class="node"><title>Node5</title>
<a xlink:href="../../d9/de8/classproject_1_1_symbol_instance_properties_dialog.html#a92e7065644b40063109564ff3463a038" target="_top" xlink:title="project::SymbolInstanceProperties\lDialog::on_btnAttrApply_clicked">
<polygon fill="white" stroke="black" points="138.5,-52 138.5,-86 305.5,-86 305.5,-52 138.5,-52"/>
<text text-anchor="start" x="146.5" y="-73" font-family="Helvetica,sans-Serif" font-size="10.00">project::SymbolInstanceProperties</text>
<text text-anchor="middle" x="222" y="-60" font-family="Helvetica,sans-Serif" font-size="10.00">Dialog::on_btnAttrApply_clicked</text>
</a>
</g>
<!-- Node1&#45;&gt;Node5 -->
<g id="edge8" class="edge"><title>Node1&#45;&gt;Node5</title>
<path fill="none" stroke="midnightblue" d="M82.5756,-113.579C97.6384,-107.515 115.572,-100.586 132,-95 141.085,-91.9107 150.763,-88.8644 160.277,-86.0053"/>
<polygon fill="midnightblue" stroke="midnightblue" points="81.082,-110.408 73.1364,-117.416 83.7183,-116.892 81.082,-110.408"/>
</g>
<!-- Node6 -->
<g id="node11" class="node"><title>Node6</title>
<a xlink:href="../../d9/de8/classproject_1_1_symbol_instance_properties_dialog.html#a9a515c48bc6c1a086b0bb0bfb531fe1c" target="_top" xlink:title="project::SymbolInstanceProperties\lDialog::on_btnAttrAdd_clicked">
<polygon fill="white" stroke="black" points="138.5,-0 138.5,-34 305.5,-34 305.5,-0 138.5,-0"/>
<text text-anchor="start" x="146.5" y="-21" font-family="Helvetica,sans-Serif" font-size="10.00">project::SymbolInstanceProperties</text>
<text text-anchor="middle" x="222" y="-8" font-family="Helvetica,sans-Serif" font-size="10.00">Dialog::on_btnAttrAdd_clicked</text>
</a>
</g>
<!-- Node1&#45;&gt;Node6 -->
<g id="edge10" class="edge"><title>Node1&#45;&gt;Node6</title>
<path fill="none" stroke="midnightblue" d="M61.6845,-109.349C76.8141,-90.0254 102.924,-60.282 132,-43 137.732,-39.593 143.937,-36.6103 150.315,-34.0036"/>
<polygon fill="midnightblue" stroke="midnightblue" points="58.8163,-107.339 55.5346,-117.412 64.3821,-111.584 58.8163,-107.339"/>
</g>
</g>
</svg>
