<?xml version="1.0" encoding="UTF-8" standalone="no"?>
<!DOCTYPE svg PUBLIC "-//W3C//DTD SVG 1.1//EN"
 "http://www.w3.org/Graphics/SVG/1.1/DTD/svg11.dtd">
<!-- Generated by graphviz version 2.26.3 (20100126.1600)
 -->
<!-- Title: getSuffix Pages: 1 -->
<svg width="1016pt" height="198pt"
 viewBox="0.00 0.00 1016.00 198.00" xmlns="http://www.w3.org/2000/svg" xmlns:xlink="http://www.w3.org/1999/xlink">
<g id="graph1" class="graph" transform="scale(1 1) rotate(0) translate(4 194)">
<title>getSuffix</title>
<polygon fill="white" stroke="white" points="-4,5 -4,-194 1013,-194 1013,5 -4,5"/>
<!-- Node1 -->
<g id="node1" class="node"><title>Node1</title>
<polygon fill="#bfbfbf" stroke="black" points="0,-58.5 0,-79.5 56,-79.5 56,-58.5 0,-58.5"/>
<text text-anchor="middle" x="28" y="-66.5" font-family="Helvetica,sans-Serif" font-size="10.00">getSuffix</text>
</g>
<!-- Node2 -->
<g id="node3" class="node"><title>Node2</title>
<a xlink:href="../../de/d50/classproject_1_1_s_i___symbol.html#a4d55d03995b846c5840a2adf64399e94" target="_top" xlink:title="project::SI_Symbol\l::getName">
<polygon fill="white" stroke="black" points="92,-52 92,-86 192,-86 192,-52 92,-52"/>
<text text-anchor="start" x="100" y="-73" font-family="Helvetica,sans-Serif" font-size="10.00">project::SI_Symbol</text>
<text text-anchor="middle" x="142" y="-60" font-family="Helvetica,sans-Serif" font-size="10.00">::getName</text>
</a>
</g>
<!-- Node1&#45;&gt;Node2 -->
<g id="edge2" class="edge"><title>Node1&#45;&gt;Node2</title>
<path fill="none" stroke="midnightblue" d="M66.2464,-69C74.4902,-69 83.323,-69 91.9409,-69"/>
<polygon fill="midnightblue" stroke="midnightblue" points="66.1798,-65.5001 56.1798,-69 66.1797,-72.5001 66.1798,-65.5001"/>
</g>
<!-- Node3 -->
<g id="node5" class="node"><title>Node3</title>
<a xlink:href="../../d6/d12/classproject_1_1_s_i___symbol_pin.html#a56ae9f28c406912ae4a5a893087a72ca" target="_top" xlink:title="project::SI_SymbolPin\l::updateErcMessages">
<polygon fill="white" stroke="black" points="255,-104 255,-138 369,-138 369,-104 255,-104"/>
<text text-anchor="start" x="263" y="-125" font-family="Helvetica,sans-Serif" font-size="10.00">project::SI_SymbolPin</text>
<text text-anchor="middle" x="312" y="-112" font-family="Helvetica,sans-Serif" font-size="10.00">::updateErcMessages</text>
</a>
</g>
<!-- Node2&#45;&gt;Node3 -->
<g id="edge4" class="edge"><title>Node2&#45;&gt;Node3</title>
<path fill="none" stroke="midnightblue" d="M201.754,-87.2777C219.495,-92.7043 238.85,-98.6246 256.321,-103.969"/>
<polygon fill="midnightblue" stroke="midnightblue" points="202.673,-83.8987 192.086,-84.3205 200.625,-90.5925 202.673,-83.8987"/>
</g>
<!-- Node10 -->
<g id="node19" class="node"><title>Node10</title>
<a xlink:href="../../d8/d8b/classproject_1_1_s_e_s___select.html#abf3d779ad6aed8bf5f55cbb3e20d06e5" target="_top" xlink:title="project::SES_Select\l::proccessIdleSceneRightClick">
<polygon fill="white" stroke="black" points="236,-52 236,-86 388,-86 388,-52 236,-52"/>
<text text-anchor="start" x="244" y="-73" font-family="Helvetica,sans-Serif" font-size="10.00">project::SES_Select</text>
<text text-anchor="middle" x="312" y="-60" font-family="Helvetica,sans-Serif" font-size="10.00">::proccessIdleSceneRightClick</text>
</a>
</g>
<!-- Node2&#45;&gt;Node10 -->
<g id="edge18" class="edge"><title>Node2&#45;&gt;Node10</title>
<path fill="none" stroke="midnightblue" d="M202.281,-69C213.129,-69 224.566,-69 235.795,-69"/>
<polygon fill="midnightblue" stroke="midnightblue" points="202.086,-65.5001 192.086,-69 202.086,-72.5001 202.086,-65.5001"/>
</g>
<!-- Node11 -->
<g id="node21" class="node"><title>Node11</title>
<a xlink:href="../../d9/de8/classproject_1_1_symbol_instance_properties_dialog.html#a4318c392201da0bd17995008e1a26c20" target="_top" xlink:title="project::SymbolInstanceProperties\lDialog::execCmd">
<polygon fill="white" stroke="black" points="228.5,-0 228.5,-34 395.5,-34 395.5,-0 228.5,-0"/>
<text text-anchor="start" x="236.5" y="-21" font-family="Helvetica,sans-Serif" font-size="10.00">project::SymbolInstanceProperties</text>
<text text-anchor="middle" x="312" y="-8" font-family="Helvetica,sans-Serif" font-size="10.00">Dialog::execCmd</text>
</a>
</g>
<!-- Node2&#45;&gt;Node11 -->
<g id="edge20" class="edge"><title>Node2&#45;&gt;Node11</title>
<path fill="none" stroke="midnightblue" d="M201.754,-50.7223C219.495,-45.2957 238.85,-39.3754 256.321,-34.0312"/>
<polygon fill="midnightblue" stroke="midnightblue" points="200.625,-47.4075 192.086,-53.6795 202.673,-54.1013 200.625,-47.4075"/>
</g>
<!-- Node4 -->
<g id="node7" class="node"><title>Node4</title>
<a xlink:href="../../d6/d12/classproject_1_1_s_i___symbol_pin.html#a2e791a2f0f926f88b6d3a8b6d73a03f0" target="_top" xlink:title="project::SI_SymbolPin\l::SI_SymbolPin">
<polygon fill="white" stroke="black" points="459,-156 459,-190 573,-190 573,-156 459,-156"/>
<text text-anchor="start" x="467" y="-177" font-family="Helvetica,sans-Serif" font-size="10.00">project::SI_SymbolPin</text>
<text text-anchor="middle" x="516" y="-164" font-family="Helvetica,sans-Serif" font-size="10.00">::SI_SymbolPin</text>
</a>
</g>
<!-- Node3&#45;&gt;Node4 -->
<g id="edge6" class="edge"><title>Node3&#45;&gt;Node4</title>
<path fill="none" stroke="midnightblue" d="M378.832,-138.036C404.716,-144.634 434.043,-152.109 458.917,-158.449"/>
<polygon fill="midnightblue" stroke="midnightblue" points="379.651,-134.633 369.097,-135.554 377.922,-141.416 379.651,-134.633"/>
</g>
<!-- Node5 -->
<g id="node9" class="node"><title>Node5</title>
<a xlink:href="../../d6/d12/classproject_1_1_s_i___symbol_pin.html#a9b52757f6665371a26408933ad6b514c" target="_top" xlink:title="project::SI_SymbolPin\l::registerNetPoint">
<polygon fill="white" stroke="black" points="459,-104 459,-138 573,-138 573,-104 459,-104"/>
<text text-anchor="start" x="467" y="-125" font-family="Helvetica,sans-Serif" font-size="10.00">project::SI_SymbolPin</text>
<text text-anchor="middle" x="516" y="-112" font-family="Helvetica,sans-Serif" font-size="10.00">::registerNetPoint</text>
</a>
</g>
<!-- Node3&#45;&gt;Node5 -->
<g id="edge8" class="edge"><title>Node3&#45;&gt;Node5</title>
<path fill="none" stroke="midnightblue" d="M379.174,-121C404.974,-121 434.153,-121 458.917,-121"/>
<polygon fill="midnightblue" stroke="midnightblue" points="379.097,-117.5 369.097,-121 379.097,-124.5 379.097,-117.5"/>
</g>
<!-- Node6 -->
<g id="node11" class="node"><title>Node6</title>
<a xlink:href="../../d6/d12/classproject_1_1_s_i___symbol_pin.html#ad82f0f4bea8f69d1b8eef2df60ce508b" target="_top" xlink:title="project::SI_SymbolPin\l::unregisterNetPoint">
<polygon fill="white" stroke="black" points="459,-52 459,-86 573,-86 573,-52 459,-52"/>
<text text-anchor="start" x="467" y="-73" font-family="Helvetica,sans-Serif" font-size="10.00">project::SI_SymbolPin</text>
<text text-anchor="middle" x="516" y="-60" font-family="Helvetica,sans-Serif" font-size="10.00">::unregisterNetPoint</text>
</a>
</g>
<!-- Node3&#45;&gt;Node6 -->
<g id="edge10" class="edge"><title>Node3&#45;&gt;Node6</title>
<path fill="none" stroke="midnightblue" d="M378.832,-103.964C404.716,-97.3665 434.043,-89.8909 458.917,-83.5505"/>
<polygon fill="midnightblue" stroke="midnightblue" points="377.922,-100.584 369.097,-106.446 379.651,-107.367 377.922,-100.584"/>
</g>
<!-- Node7 -->
<g id="node13" class="node"><title>Node7</title>
<a xlink:href="../../d3/d43/classproject_1_1_s_i___net_point.html#a1894cd9c0e70404c048068221df5135d" target="_top" xlink:title="project::SI_NetPoint\l::detachFromPin">
<polygon fill="white" stroke="black" points="667.5,-52 667.5,-86 772.5,-86 772.5,-52 667.5,-52"/>
<text text-anchor="start" x="675.5" y="-73" font-family="Helvetica,sans-Serif" font-size="10.00">project::SI_NetPoint</text>
<text text-anchor="middle" x="720" y="-60" font-family="Helvetica,sans-Serif" font-size="10.00">::detachFromPin</text>
</a>
</g>
<!-- Node6&#45;&gt;Node7 -->
<g id="edge12" class="edge"><title>Node6&#45;&gt;Node7</title>
<path fill="none" stroke="midnightblue" d="M583.374,-69C610.723,-69 641.839,-69 667.461,-69"/>
<polygon fill="midnightblue" stroke="midnightblue" points="583.097,-65.5001 573.097,-69 583.097,-72.5001 583.097,-65.5001"/>
</g>
<!-- Node8 -->
<g id="node15" class="node"><title>Node8</title>
<a xlink:href="../../d1/d92/classproject_1_1_cmd_schematic_net_point_detach.html#a91ca7652063093da57fc1bd0141dcc95" target="_top" xlink:title="Redo/execute the command (and all child commands in normal order) ">
<polygon fill="white" stroke="black" points="856.5,-104 856.5,-138 991.5,-138 991.5,-104 856.5,-104"/>
<text text-anchor="start" x="864.5" y="-125" font-family="Helvetica,sans-Serif" font-size="10.00">project::CmdSchematicNet</text>
<text text-anchor="middle" x="924" y="-112" font-family="Helvetica,sans-Serif" font-size="10.00">PointDetach::redo</text>
</a>
</g>
<!-- Node7&#45;&gt;Node8 -->
<g id="edge14" class="edge"><title>Node7&#45;&gt;Node8</title>
<path fill="none" stroke="midnightblue" d="M782.428,-84.9129C806.031,-90.9294 832.98,-97.7987 856.986,-103.918"/>
<polygon fill="midnightblue" stroke="midnightblue" points="783.09,-81.4699 772.535,-82.3913 781.361,-88.253 783.09,-81.4699"/>
</g>
<!-- Node9 -->
<g id="node17" class="node"><title>Node9</title>
<a xlink:href="../../d1/d92/classproject_1_1_cmd_schematic_net_point_detach.html#a19e8778088bfe76b16745470981bb913" target="_top" xlink:title="Undo the command (and all child commands in reverse order) ">
<polygon fill="white" stroke="black" points="856.5,-52 856.5,-86 991.5,-86 991.5,-52 856.5,-52"/>
<text text-anchor="start" x="864.5" y="-73" font-family="Helvetica,sans-Serif" font-size="10.00">project::CmdSchematicNet</text>
<text text-anchor="middle" x="924" y="-60" font-family="Helvetica,sans-Serif" font-size="10.00">PointDetach::undo</text>
</a>
</g>
<!-- Node7&#45;&gt;Node9 -->
<g id="edge16" class="edge"><title>Node7&#45;&gt;Node9</title>
<path fill="none" stroke="midnightblue" d="M782.648,-69C805.951,-69 832.49,-69 856.23,-69"/>
<polygon fill="midnightblue" stroke="midnightblue" points="782.535,-65.5001 772.535,-69 782.535,-72.5001 782.535,-65.5001"/>
</g>
<!-- Node12 -->
<g id="node23" class="node"><title>Node12</title>
<a xlink:href="../../d9/de8/classproject_1_1_symbol_instance_properties_dialog.html#ac5b9ac3ae6ade6886893179b59302ec1" target="_top" xlink:title="project::SymbolInstanceProperties\lDialog::applyChanges">
<polygon fill="white" stroke="black" points="432.5,-0 432.5,-34 599.5,-34 599.5,-0 432.5,-0"/>
<text text-anchor="start" x="440.5" y="-21" font-family="Helvetica,sans-Serif" font-size="10.00">project::SymbolInstanceProperties</text>
<text text-anchor="middle" x="516" y="-8" font-family="Helvetica,sans-Serif" font-size="10.00">Dialog::applyChanges</text>
</a>
</g>
<!-- Node11&#45;&gt;Node12 -->
<g id="edge22" class="edge"><title>Node11&#45;&gt;Node12</title>
<path fill="none" stroke="midnightblue" d="M405.845,-17C414.649,-17 423.534,-17 432.237,-17"/>
<polygon fill="midnightblue" stroke="midnightblue" points="405.563,-13.5001 395.563,-17 405.563,-20.5001 405.563,-13.5001"/>
</g>
<!-- Node13 -->
<g id="node25" class="node"><title>Node13</title>
<a xlink:href="../../d9/de8/classproject_1_1_symbol_instance_properties_dialog.html#aadb9f3b844fb4cf98288cd3c60a3af91" target="_top" xlink:title="project::SymbolInstanceProperties\lDialog::accept">
<polygon fill="white" stroke="black" points="636.5,-0 636.5,-34 803.5,-34 803.5,-0 636.5,-0"/>
<text text-anchor="start" x="644.5" y="-21" font-family="Helvetica,sans-Serif" font-size="10.00">project::SymbolInstanceProperties</text>
<text text-anchor="middle" x="720" y="-8" font-family="Helvetica,sans-Serif" font-size="10.00">Dialog::accept</text>
</a>
</g>
<!-- Node12&#45;&gt;Node13 -->
<g id="edge24" class="edge"><title>Node12&#45;&gt;Node13</title>
<path fill="none" stroke="midnightblue" d="M609.845,-17C618.649,-17 627.534,-17 636.237,-17"/>
<polygon fill="midnightblue" stroke="midnightblue" points="609.563,-13.5001 599.563,-17 609.563,-20.5001 609.563,-13.5001"/>
</g>
<!-- Node14 -->
<g id="node27" class="node"><title>Node14</title>
<a xlink:href="../../d9/de8/classproject_1_1_symbol_instance_properties_dialog.html#a9e53392568d47bcb31ccbde9917efb0c" target="_top" xlink:title="project::SymbolInstanceProperties\lDialog::keyPressEvent">
<polygon fill="white" stroke="black" points="840.5,-0 840.5,-34 1007.5,-34 1007.5,-0 840.5,-0"/>
<text text-anchor="start" x="848.5" y="-21" font-family="Helvetica,sans-Serif" font-size="10.00">project::SymbolInstanceProperties</text>
<text text-anchor="middle" x="924" y="-8" font-family="Helvetica,sans-Serif" font-size="10.00">Dialog::keyPressEvent</text>
</a>
</g>
<!-- Node13&#45;&gt;Node14 -->
<g id="edge26" class="edge"><title>Node13&#45;&gt;Node14</title>
<path fill="none" stroke="midnightblue" d="M813.845,-17C822.649,-17 831.534,-17 840.237,-17"/>
<polygon fill="midnightblue" stroke="midnightblue" points="813.563,-13.5001 803.563,-17 813.563,-20.5001 813.563,-13.5001"/>
</g>
</g>
</svg>
