<?xml version="1.0" encoding="UTF-8" standalone="no"?>
<!DOCTYPE svg PUBLIC "-//W3C//DTD SVG 1.1//EN"
 "http://www.w3.org/Graphics/SVG/1.1/DTD/svg11.dtd">
<!-- Generated by graphviz version 2.26.3 (20100126.1600)
 -->
<!-- Title: isRequired Pages: 1 -->
<svg width="630pt" height="146pt"
 viewBox="0.00 0.00 630.00 146.00" xmlns="http://www.w3.org/2000/svg" xmlns:xlink="http://www.w3.org/1999/xlink">
<g id="graph1" class="graph" transform="scale(1 1) rotate(0) translate(4 142)">
<title>isRequired</title>
<polygon fill="white" stroke="white" points="-4,5 -4,-142 627,-142 627,5 -4,5"/>
<!-- Node1 -->
<g id="node1" class="node"><title>Node1</title>
<polygon fill="#bfbfbf" stroke="black" points="0.5,-58.5 0.5,-79.5 63.5,-79.5 63.5,-58.5 0.5,-58.5"/>
<text text-anchor="middle" x="32" y="-66.5" font-family="Helvetica,sans-Serif" font-size="10.00">isRequired</text>
</g>
<!-- Node2 -->
<g id="node3" class="node"><title>Node2</title>
<a xlink:href="../../de/d67/classproject_1_1_gen_comp_instance.html#ab56d32f3df77886336513524c2adbf00" target="_top" xlink:title="project::GenCompInstance\l::getUnplacedRequiredSymbolsCount">
<polygon fill="white" stroke="black" points="100.5,-78 100.5,-112 281.5,-112 281.5,-78 100.5,-78"/>
<text text-anchor="start" x="108.5" y="-99" font-family="Helvetica,sans-Serif" font-size="10.00">project::GenCompInstance</text>
<text text-anchor="middle" x="191" y="-86" font-family="Helvetica,sans-Serif" font-size="10.00">::getUnplacedRequiredSymbolsCount</text>
</a>
</g>
<!-- Node1&#45;&gt;Node2 -->
<g id="edge2" class="edge"><title>Node1&#45;&gt;Node2</title>
<path fill="none" stroke="midnightblue" d="M73.8523,-75.8438C82.1214,-77.196 91.0971,-78.6637 100.276,-80.1647"/>
<polygon fill="midnightblue" stroke="midnightblue" points="74.2277,-72.3587 63.7939,-74.199 73.098,-79.267 74.2277,-72.3587"/>
</g>
<!-- Node7 -->
<g id="node13" class="node"><title>Node7</title>
<a xlink:href="../../de/d67/classproject_1_1_gen_comp_instance.html#a590c3eaacaa9f4ce8ed630d7f00f47a4" target="_top" xlink:title="project::GenCompInstance\l::getUnplacedOptionalSymbolsCount">
<polygon fill="white" stroke="black" points="102,-26 102,-60 280,-60 280,-26 102,-26"/>
<text text-anchor="start" x="110" y="-47" font-family="Helvetica,sans-Serif" font-size="10.00">project::GenCompInstance</text>
<text text-anchor="middle" x="191" y="-34" font-family="Helvetica,sans-Serif" font-size="10.00">::getUnplacedOptionalSymbolsCount</text>
</a>
</g>
<!-- Node1&#45;&gt;Node7 -->
<g id="edge12" class="edge"><title>Node1&#45;&gt;Node7</title>
<path fill="none" stroke="midnightblue" d="M73.7181,-62.1782C82.5179,-60.7392 92.1225,-59.1687 101.924,-57.5659"/>
<polygon fill="midnightblue" stroke="midnightblue" points="73.098,-58.733 63.7939,-63.801 74.2277,-65.6413 73.098,-58.733"/>
</g>
<!-- Node3 -->
<g id="node5" class="node"><title>Node3</title>
<a xlink:href="../../de/d67/classproject_1_1_gen_comp_instance.html#a56ae9f28c406912ae4a5a893087a72ca" target="_top" xlink:title="project::GenCompInstance\l::updateErcMessages">
<polygon fill="white" stroke="black" points="318,-52 318,-86 452,-86 452,-52 318,-52"/>
<text text-anchor="start" x="326" y="-73" font-family="Helvetica,sans-Serif" font-size="10.00">project::GenCompInstance</text>
<text text-anchor="middle" x="385" y="-60" font-family="Helvetica,sans-Serif" font-size="10.00">::updateErcMessages</text>
</a>
</g>
<!-- Node2&#45;&gt;Node3 -->
<g id="edge4" class="edge"><title>Node2&#45;&gt;Node3</title>
<path fill="none" stroke="midnightblue" d="M291.716,-81.502C300.539,-80.3195 309.322,-79.1425 317.77,-78.0102"/>
<polygon fill="midnightblue" stroke="midnightblue" points="291.198,-78.04 281.752,-82.8374 292.128,-84.9779 291.198,-78.04"/>
</g>
<!-- Node4 -->
<g id="node7" class="node"><title>Node4</title>
<a xlink:href="../../de/d67/classproject_1_1_gen_comp_instance.html#a02fd73d861ef2e4aabb38c0c9ff82947" target="_top" xlink:title="project::GenCompInstance\l::init">
<polygon fill="white" stroke="black" points="488,-104 488,-138 622,-138 622,-104 488,-104"/>
<text text-anchor="start" x="496" y="-125" font-family="Helvetica,sans-Serif" font-size="10.00">project::GenCompInstance</text>
<text text-anchor="middle" x="555" y="-112" font-family="Helvetica,sans-Serif" font-size="10.00">::init</text>
</a>
</g>
<!-- Node3&#45;&gt;Node4 -->
<g id="edge6" class="edge"><title>Node3&#45;&gt;Node4</title>
<path fill="none" stroke="midnightblue" d="M450.522,-89.042C466.593,-93.9578 483.646,-99.1739 499.211,-103.935"/>
<polygon fill="midnightblue" stroke="midnightblue" points="451.251,-85.6049 440.664,-86.0267 449.203,-92.2988 451.251,-85.6049"/>
</g>
<!-- Node5 -->
<g id="node9" class="node"><title>Node5</title>
<a xlink:href="../../de/d67/classproject_1_1_gen_comp_instance.html#af00f21a639ab7a55e814293e9bd76c0f" target="_top" xlink:title="project::GenCompInstance\l::addToCircuit">
<polygon fill="white" stroke="black" points="488,-52 488,-86 622,-86 622,-52 488,-52"/>
<text text-anchor="start" x="496" y="-73" font-family="Helvetica,sans-Serif" font-size="10.00">project::GenCompInstance</text>
<text text-anchor="middle" x="555" y="-60" font-family="Helvetica,sans-Serif" font-size="10.00">::addToCircuit</text>
</a>
</g>
<!-- Node3&#45;&gt;Node5 -->
<g id="edge8" class="edge"><title>Node3&#45;&gt;Node5</title>
<path fill="none" stroke="midnightblue" d="M462.425,-69C470.876,-69 479.428,-69 487.743,-69"/>
<polygon fill="midnightblue" stroke="midnightblue" points="462.189,-65.5001 452.189,-69 462.188,-72.5001 462.189,-65.5001"/>
</g>
<!-- Node6 -->
<g id="node11" class="node"><title>Node6</title>
<a xlink:href="../../de/d67/classproject_1_1_gen_comp_instance.html#ac295ebdc117f47883b0a7af285b69a5e" target="_top" xlink:title="project::GenCompInstance\l::removeFromCircuit">
<polygon fill="white" stroke="black" points="488,-0 488,-34 622,-34 622,-0 488,-0"/>
<text text-anchor="start" x="496" y="-21" font-family="Helvetica,sans-Serif" font-size="10.00">project::GenCompInstance</text>
<text text-anchor="middle" x="555" y="-8" font-family="Helvetica,sans-Serif" font-size="10.00">::removeFromCircuit</text>
</a>
</g>
<!-- Node3&#45;&gt;Node6 -->
<g id="edge10" class="edge"><title>Node3&#45;&gt;Node6</title>
<path fill="none" stroke="midnightblue" d="M450.522,-48.958C466.593,-44.0422 483.646,-38.8261 499.211,-34.065"/>
<polygon fill="midnightblue" stroke="midnightblue" points="449.203,-45.7012 440.664,-51.9733 451.251,-52.3951 449.203,-45.7012"/>
</g>
<!-- Node7&#45;&gt;Node3 -->
<g id="edge14" class="edge"><title>Node7&#45;&gt;Node3</title>
<path fill="none" stroke="midnightblue" d="M290.233,-56.2993C299.622,-57.5576 308.983,-58.8122 317.965,-60.0159"/>
<polygon fill="midnightblue" stroke="midnightblue" points="290.427,-52.7941 280.051,-54.9347 289.497,-59.7321 290.427,-52.7941"/>
</g>
</g>
</svg>
