<?xml version="1.0" encoding="UTF-8" standalone="no"?>
<!DOCTYPE svg PUBLIC "-//W3C//DTD SVG 1.1//EN"
 "http://www.w3.org/Graphics/SVG/1.1/DTD/svg11.dtd">
<!-- Generated by graphviz version 2.26.3 (20100126.1600)
 -->
<!-- Title: /home/travis/build/LibrePCB/LibrePCB/libs/librepcblibrary/moc/moc_componentcategory.cpp Pages: 1 -->
<svg width="535pt" height="446pt"
 viewBox="0.00 0.00 535.00 446.00" xmlns="http://www.w3.org/2000/svg" xmlns:xlink="http://www.w3.org/1999/xlink">
<g id="graph1" class="graph" transform="scale(1 1) rotate(0) translate(4 442)">
<title>/home/travis/build/LibrePCB/LibrePCB/libs/librepcblibrary/moc/moc_componentcategory.cpp</title>
<polygon fill="white" stroke="white" points="-4,5 -4,-442 532,-442 532,5 -4,5"/>
<!-- Node1 -->
<g id="node1" class="node"><title>Node1</title>
<polygon fill="#bfbfbf" stroke="black" points="143,-377 143,-437 269,-437 269,-377 143,-377"/>
<text text-anchor="start" x="151" y="-424" font-family="Helvetica,sans-Serif" font-size="10.00">/home/travis/build</text>
<text text-anchor="start" x="151" y="-411" font-family="Helvetica,sans-Serif" font-size="10.00">/LibrePCB/LibrePCB/libs</text>
<text text-anchor="start" x="151" y="-398" font-family="Helvetica,sans-Serif" font-size="10.00">/librepcblibrary/moc/moc</text>
<text text-anchor="middle" x="206" y="-385" font-family="Helvetica,sans-Serif" font-size="10.00">_componentcategory.cpp</text>
</g>
<!-- Node2 -->
<g id="node3" class="node"><title>Node2</title>
<a xlink:href="../../df/d01/componentcategory_8h.html" target="_top" xlink:title="../cat/componentcategory.h">
<polygon fill="white" stroke="black" points="0,-318.5 0,-339.5 136,-339.5 136,-318.5 0,-318.5"/>
<text text-anchor="middle" x="68" y="-326.5" font-family="Helvetica,sans-Serif" font-size="10.00">../cat/componentcategory.h</text>
</a>
</g>
<!-- Node1&#45;&gt;Node2 -->
<g id="edge2" class="edge"><title>Node1&#45;&gt;Node2</title>
<path fill="none" stroke="midnightblue" d="M152.646,-376.843C133.244,-365.877 112.101,-353.927 95.7992,-344.713"/>
<polygon fill="midnightblue" stroke="midnightblue" points="97.2379,-341.505 86.81,-339.632 93.7934,-347.599 97.2379,-341.505"/>
</g>
<!-- Node11 -->
<g id="node26" class="node"><title>Node11</title>
<polygon fill="white" stroke="#bfbfbf" points="153.5,-318.5 153.5,-339.5 258.5,-339.5 258.5,-318.5 153.5,-318.5"/>
<text text-anchor="middle" x="206" y="-326.5" font-family="Helvetica,sans-Serif" font-size="10.00">QtCore/qbytearray.h</text>
</g>
<!-- Node1&#45;&gt;Node11 -->
<g id="edge30" class="edge"><title>Node1&#45;&gt;Node11</title>
<path fill="none" stroke="midnightblue" d="M206,-376.62C206,-367.68 206,-358.103 206,-349.9"/>
<polygon fill="midnightblue" stroke="midnightblue" points="209.5,-349.753 206,-339.753 202.5,-349.753 209.5,-349.753"/>
</g>
<!-- Node12 -->
<g id="node28" class="node"><title>Node12</title>
<polygon fill="white" stroke="#bfbfbf" points="275.5,-318.5 275.5,-339.5 380.5,-339.5 380.5,-318.5 275.5,-318.5"/>
<text text-anchor="middle" x="328" y="-326.5" font-family="Helvetica,sans-Serif" font-size="10.00">QtCore/qmetatype.h</text>
</g>
<!-- Node1&#45;&gt;Node12 -->
<g id="edge32" class="edge"><title>Node1&#45;&gt;Node12</title>
<path fill="none" stroke="midnightblue" d="M253.168,-376.843C270,-366.082 288.314,-354.373 302.611,-345.232"/>
<polygon fill="midnightblue" stroke="midnightblue" points="304.831,-347.967 311.371,-339.632 301.06,-342.07 304.831,-347.967"/>
</g>
<!-- Node3 -->
<g id="node5" class="node"><title>Node3</title>
<polygon fill="white" stroke="#bfbfbf" points="187,-0.5 187,-21.5 235,-21.5 235,-0.5 187,-0.5"/>
<text text-anchor="middle" x="211" y="-8.5" font-family="Helvetica,sans-Serif" font-size="10.00">QtCore</text>
</g>
<!-- Node2&#45;&gt;Node3 -->
<g id="edge4" class="edge"><title>Node2&#45;&gt;Node3</title>
<path fill="none" stroke="midnightblue" d="M62.375,-318.466C52.25,-298.493 32,-253.486 32,-213 32,-213 32,-213 32,-148 32,-75.7247 125.164,-36.4291 177.068,-20.1448"/>
<polygon fill="midnightblue" stroke="midnightblue" points="178.296,-23.4303 186.859,-17.1918 176.275,-16.7285 178.296,-23.4303"/>
</g>
<!-- Node4 -->
<g id="node7" class="node"><title>Node4</title>
<a xlink:href="../../d1/db7/librarycategory_8h.html" target="_top" xlink:title="librarycategory.h">
<polygon fill="white" stroke="black" points="59.5,-260.5 59.5,-281.5 148.5,-281.5 148.5,-260.5 59.5,-260.5"/>
<text text-anchor="middle" x="104" y="-268.5" font-family="Helvetica,sans-Serif" font-size="10.00">librarycategory.h</text>
</a>
</g>
<!-- Node2&#45;&gt;Node4 -->
<g id="edge6" class="edge"><title>Node2&#45;&gt;Node4</title>
<path fill="none" stroke="midnightblue" d="M74.603,-318.362C79.4746,-310.513 86.2384,-299.616 92.05,-290.253"/>
<polygon fill="midnightblue" stroke="midnightblue" points="95.139,-291.913 97.4389,-281.571 89.1915,-288.221 95.139,-291.913"/>
</g>
<!-- Node4&#45;&gt;Node3 -->
<g id="edge8" class="edge"><title>Node4&#45;&gt;Node3</title>
<path fill="none" stroke="midnightblue" d="M99.4335,-260.231C89.8436,-235.932 70.002,-175.422 89,-130 108.141,-84.2359 154.537,-47.3748 184.28,-27.3837"/>
<polygon fill="midnightblue" stroke="midnightblue" points="186.472,-30.1319 192.927,-21.7301 182.642,-24.273 186.472,-30.1319"/>
</g>
<!-- Node5 -->
<g id="node10" class="node"><title>Node5</title>
<a xlink:href="../../de/dd7/librarybaseelement_8h.html" target="_top" xlink:title="../librarybaseelement.h">
<polygon fill="white" stroke="black" points="220,-202.5 220,-223.5 336,-223.5 336,-202.5 220,-202.5"/>
<text text-anchor="middle" x="278" y="-210.5" font-family="Helvetica,sans-Serif" font-size="10.00">../librarybaseelement.h</text>
</a>
</g>
<!-- Node4&#45;&gt;Node5 -->
<g id="edge10" class="edge"><title>Node4&#45;&gt;Node5</title>
<path fill="none" stroke="midnightblue" d="M135.51,-260.497C163.877,-251.041 205.751,-237.083 236.772,-226.743"/>
<polygon fill="midnightblue" stroke="midnightblue" points="238.051,-230.006 246.431,-223.523 235.837,-223.365 238.051,-230.006"/>
</g>
<!-- Node6 -->
<g id="node12" class="node"><title>Node6</title>
<polygon fill="white" stroke="#bfbfbf" points="97.5,-137.5 97.5,-158.5 150.5,-158.5 150.5,-137.5 97.5,-137.5"/>
<text text-anchor="middle" x="124" y="-145.5" font-family="Helvetica,sans-Serif" font-size="10.00">QObject</text>
</g>
<!-- Node5&#45;&gt;Node6 -->
<g id="edge12" class="edge"><title>Node5&#45;&gt;Node6</title>
<path fill="none" stroke="midnightblue" d="M248.81,-202.393C224.512,-193.344 189.145,-179.664 159,-166 156.977,-165.083 154.904,-164.109 152.826,-163.107"/>
<polygon fill="midnightblue" stroke="midnightblue" points="154.335,-159.948 143.823,-158.625 151.215,-166.215 154.335,-159.948"/>
</g>
<!-- Node7 -->
<g id="node14" class="node"><title>Node7</title>
<a xlink:href="../../d0/d1d/if__xmlserializableobject_8h.html" target="_top" xlink:title="librepcbcommon/fileio\l/if_xmlserializableobject.h">
<polygon fill="white" stroke="black" points="167.5,-131 167.5,-165 296.5,-165 296.5,-131 167.5,-131"/>
<text text-anchor="start" x="175.5" y="-152" font-family="Helvetica,sans-Serif" font-size="10.00">librepcbcommon/fileio</text>
<text text-anchor="middle" x="232" y="-139" font-family="Helvetica,sans-Serif" font-size="10.00">/if_xmlserializableobject.h</text>
</a>
</g>
<!-- Node5&#45;&gt;Node7 -->
<g id="edge14" class="edge"><title>Node5&#45;&gt;Node7</title>
<path fill="none" stroke="midnightblue" d="M270.404,-202.267C264.878,-194.458 257.156,-183.546 250.084,-173.554"/>
<polygon fill="midnightblue" stroke="midnightblue" points="252.742,-171.251 244.109,-165.11 247.028,-175.294 252.742,-171.251"/>
</g>
<!-- Node8 -->
<g id="node16" class="node"><title>Node8</title>
<a xlink:href="../../d4/d03/exceptions_8h.html" target="_top" xlink:title="../exceptions.h">
<polygon fill="white" stroke="black" points="170.5,-65.5 170.5,-86.5 251.5,-86.5 251.5,-65.5 170.5,-65.5"/>
<text text-anchor="middle" x="211" y="-73.5" font-family="Helvetica,sans-Serif" font-size="10.00">../exceptions.h</text>
</a>
</g>
<!-- Node5&#45;&gt;Node8 -->
<g id="edge20" class="edge"><title>Node5&#45;&gt;Node8</title>
<path fill="none" stroke="midnightblue" d="M286.723,-202.456C299.125,-186.101 318.891,-154 305,-130 298.133,-118.136 268.647,-102.291 244.506,-90.8351"/>
<polygon fill="midnightblue" stroke="midnightblue" points="245.783,-87.5692 235.24,-86.5249 242.831,-93.9161 245.783,-87.5692"/>
</g>
<!-- Node9 -->
<g id="node20" class="node"><title>Node9</title>
<a xlink:href="../../dd/dec/filepath_8h.html" target="_top" xlink:title="librepcbcommon/fileio\l/filepath.h">
<polygon fill="white" stroke="black" points="268.5,-59 268.5,-93 379.5,-93 379.5,-59 268.5,-59"/>
<text text-anchor="start" x="276.5" y="-80" font-family="Helvetica,sans-Serif" font-size="10.00">librepcbcommon/fileio</text>
<text text-anchor="middle" x="324" y="-67" font-family="Helvetica,sans-Serif" font-size="10.00">/filepath.h</text>
</a>
</g>
<!-- Node5&#45;&gt;Node9 -->
<g id="edge22" class="edge"><title>Node5&#45;&gt;Node9</title>
<path fill="none" stroke="midnightblue" d="M299.998,-202.365C313.68,-194.433 330.122,-182.179 338,-166 347.683,-146.116 342.606,-121.095 336.008,-102.485"/>
<polygon fill="midnightblue" stroke="midnightblue" points="339.262,-101.195 332.379,-93.1394 332.736,-103.728 339.262,-101.195"/>
</g>
<!-- Node10 -->
<g id="node23" class="node"><title>Node10</title>
<a xlink:href="../../df/dfc/version_8h.html" target="_top" xlink:title="librepcbcommon/version.h">
<polygon fill="white" stroke="black" points="396.5,-65.5 396.5,-86.5 527.5,-86.5 527.5,-65.5 396.5,-65.5"/>
<text text-anchor="middle" x="462" y="-73.5" font-family="Helvetica,sans-Serif" font-size="10.00">librepcbcommon/version.h</text>
</a>
</g>
<!-- Node5&#45;&gt;Node10 -->
<g id="edge26" class="edge"><title>Node5&#45;&gt;Node10</title>
<path fill="none" stroke="midnightblue" d="M296.588,-202.495C312.272,-193.401 335.119,-179.602 354,-166 386.518,-142.574 421.753,-112.172 442.842,-93.3811"/>
<polygon fill="midnightblue" stroke="midnightblue" points="445.345,-95.8376 450.453,-86.5553 440.672,-90.6264 445.345,-95.8376"/>
</g>
<!-- Node7&#45;&gt;Node8 -->
<g id="edge16" class="edge"><title>Node7&#45;&gt;Node8</title>
<path fill="none" stroke="midnightblue" d="M227.023,-130.937C224.04,-120.707 220.224,-107.625 217.065,-96.7937"/>
<polygon fill="midnightblue" stroke="midnightblue" points="220.34,-95.521 214.179,-86.901 213.62,-97.4811 220.34,-95.521"/>
</g>
<!-- Node8&#45;&gt;Node3 -->
<g id="edge18" class="edge"><title>Node8&#45;&gt;Node3</title>
<path fill="none" stroke="midnightblue" d="M211,-65.2666C211,-56.1799 211,-42.8919 211,-31.7395"/>
<polygon fill="midnightblue" stroke="midnightblue" points="214.5,-31.5337 211,-21.5337 207.5,-31.5337 214.5,-31.5337"/>
</g>
<!-- Node9&#45;&gt;Node3 -->
<g id="edge24" class="edge"><title>Node9&#45;&gt;Node3</title>
<path fill="none" stroke="midnightblue" d="M294.311,-58.922C276.986,-48.9566 255.284,-36.4729 238.373,-26.7455"/>
<polygon fill="midnightblue" stroke="midnightblue" points="239.943,-23.6107 229.529,-21.6584 236.452,-29.6785 239.943,-23.6107"/>
</g>
<!-- Node10&#45;&gt;Node3 -->
<g id="edge28" class="edge"><title>Node10&#45;&gt;Node3</title>
<path fill="none" stroke="midnightblue" d="M421.394,-65.4844C372.377,-52.7908 290.834,-31.6742 244.989,-19.8019"/>
<polygon fill="midnightblue" stroke="midnightblue" points="245.787,-16.3932 235.229,-17.2744 244.032,-23.1697 245.787,-16.3932"/>
</g>
</g>
</svg>
