<?xml version="1.0" encoding="UTF-8" standalone="no"?>
<!DOCTYPE svg PUBLIC "-//W3C//DTD SVG 1.1//EN"
 "http://www.w3.org/Graphics/SVG/1.1/DTD/svg11.dtd">
<!-- Generated by graphviz version 2.26.3 (20100126.1600)
 -->
<!-- Title: WSI_LibraryNormOrder Pages: 1 -->
<svg width="432pt" height="280pt"
 viewBox="0.00 0.00 432.00 280.00" xmlns="http://www.w3.org/2000/svg" xmlns:xlink="http://www.w3.org/1999/xlink">
<g id="graph1" class="graph" transform="scale(1 1) rotate(0) translate(4 276)">
<title>WSI_LibraryNormOrder</title>
<polygon fill="white" stroke="white" points="-4,5 -4,-276 429,-276 429,5 -4,5"/>
<!-- Node1 -->
<g id="node1" class="node"><title>Node1</title>
<polygon fill="#bfbfbf" stroke="black" points="0.5,-100.5 0.5,-121.5 119.5,-121.5 119.5,-100.5 0.5,-100.5"/>
<text text-anchor="middle" x="60" y="-108.5" font-family="Helvetica,sans-Serif" font-size="10.00">WSI_LibraryNormOrder</text>
</g>
<!-- Node2 -->
<g id="node3" class="node"><title>Node2</title>
<a xlink:href="../../d4/dda/class_w_s_i___base.html#a5605b64c01b2ac306d1291d437d47f82" target="_top" xlink:title="WSI_Base::loadValue">
<polygon fill="white" stroke="black" points="156.5,-198.5 156.5,-219.5 269.5,-219.5 269.5,-198.5 156.5,-198.5"/>
<text text-anchor="middle" x="213" y="-206.5" font-family="Helvetica,sans-Serif" font-size="10.00">WSI_Base::loadValue</text>
</a>
</g>
<!-- Node1&#45;&gt;Node2 -->
<g id="edge2" class="edge"><title>Node1&#45;&gt;Node2</title>
<path fill="none" stroke="midnightblue" d="M72.0629,-121.682C89.6319,-136.878 123.696,-164.997 156,-184 162.339,-187.729 169.337,-191.242 176.194,-194.391"/>
<polygon fill="midnightblue" stroke="midnightblue" points="174.822,-197.611 185.384,-198.445 177.647,-191.207 174.822,-197.611"/>
</g>
<!-- Node6 -->
<g id="node11" class="node"><title>Node6</title>
<a xlink:href="../../d5/da3/class_w_s_i___library_norm_order.html#a05414f9b7bc2a0330ec9b991f06bf1aa" target="_top" xlink:title="updateListWidgetItems">
<polygon fill="white" stroke="black" points="306.5,-79.5 306.5,-100.5 423.5,-100.5 423.5,-79.5 306.5,-79.5"/>
<text text-anchor="middle" x="365" y="-87.5" font-family="Helvetica,sans-Serif" font-size="10.00">updateListWidgetItems</text>
</a>
</g>
<!-- Node1&#45;&gt;Node6 -->
<g id="edge10" class="edge"><title>Node1&#45;&gt;Node6</title>
<path fill="none" stroke="midnightblue" d="M79.1357,-121.638C98.0142,-131.48 128.026,-145.405 156,-151 205.683,-160.937 221.383,-165.265 270,-151 298.931,-142.511 327.395,-122.199 345.507,-107.337"/>
<polygon fill="midnightblue" stroke="midnightblue" points="348.15,-109.686 353.523,-100.555 343.629,-104.342 348.15,-109.686"/>
</g>
<!-- Node7 -->
<g id="node13" class="node"><title>Node7</title>
<a xlink:href="../../d5/da3/class_w_s_i___library_norm_order.html#a0f983b7794d303b29725faa592d329e4" target="_top" xlink:title="btnUpClicked">
<polygon fill="white" stroke="black" points="175,-120.5 175,-141.5 251,-141.5 251,-120.5 175,-120.5"/>
<text text-anchor="middle" x="213" y="-128.5" font-family="Helvetica,sans-Serif" font-size="10.00">btnUpClicked</text>
</a>
</g>
<!-- Node1&#45;&gt;Node7 -->
<g id="edge12" class="edge"><title>Node1&#45;&gt;Node7</title>
<path fill="none" stroke="midnightblue" d="M119.592,-118.79C134.581,-120.749 150.482,-122.828 164.833,-124.704"/>
<polygon fill="midnightblue" stroke="midnightblue" points="164.605,-128.204 174.974,-126.029 165.512,-121.263 164.605,-128.204"/>
</g>
<!-- Node8 -->
<g id="node15" class="node"><title>Node8</title>
<a xlink:href="../../d5/da3/class_w_s_i___library_norm_order.html#ac4fcad768731e2f3f91ed0c5b6c6d972" target="_top" xlink:title="btnDownClicked">
<polygon fill="white" stroke="black" points="168.5,-80.5 168.5,-101.5 257.5,-101.5 257.5,-80.5 168.5,-80.5"/>
<text text-anchor="middle" x="213" y="-88.5" font-family="Helvetica,sans-Serif" font-size="10.00">btnDownClicked</text>
</a>
</g>
<!-- Node1&#45;&gt;Node8 -->
<g id="edge14" class="edge"><title>Node1&#45;&gt;Node8</title>
<path fill="none" stroke="midnightblue" d="M119.592,-103.21C132.309,-101.548 145.682,-99.7997 158.209,-98.1623"/>
<polygon fill="midnightblue" stroke="midnightblue" points="159.037,-101.584 168.499,-96.8172 158.129,-94.6429 159.037,-101.584"/>
</g>
<!-- Node9 -->
<g id="node17" class="node"><title>Node9</title>
<a xlink:href="../../d5/da3/class_w_s_i___library_norm_order.html#a82df9f2dcb2915e6b09567f34c7934a9" target="_top" xlink:title="btnAddClicked">
<polygon fill="white" stroke="black" points="173,-40.5 173,-61.5 253,-61.5 253,-40.5 173,-40.5"/>
<text text-anchor="middle" x="213" y="-48.5" font-family="Helvetica,sans-Serif" font-size="10.00">btnAddClicked</text>
</a>
</g>
<!-- Node1&#45;&gt;Node9 -->
<g id="edge16" class="edge"><title>Node1&#45;&gt;Node9</title>
<path fill="none" stroke="midnightblue" d="M84.3082,-100.418C103.623,-92.1204 131.386,-80.4372 156,-71 161.202,-69.0055 166.7,-66.9774 172.146,-65.0157"/>
<polygon fill="midnightblue" stroke="midnightblue" points="173.57,-68.2245 181.82,-61.5778 171.225,-61.6286 173.57,-68.2245"/>
</g>
<!-- Node10 -->
<g id="node20" class="node"><title>Node10</title>
<a xlink:href="../../d5/da3/class_w_s_i___library_norm_order.html#ace1b0727c8ba6853fe6ab96d05ee467d" target="_top" xlink:title="btnRemoveClicked">
<polygon fill="white" stroke="black" points="163,-0.5 163,-21.5 263,-21.5 263,-0.5 163,-0.5"/>
<text text-anchor="middle" x="213" y="-8.5" font-family="Helvetica,sans-Serif" font-size="10.00">btnRemoveClicked</text>
</a>
</g>
<!-- Node1&#45;&gt;Node10 -->
<g id="edge20" class="edge"><title>Node1&#45;&gt;Node10</title>
<path fill="none" stroke="midnightblue" d="M70.2706,-100.25C86.8764,-83.4092 121.28,-50.6996 156,-31 159.492,-29.0188 163.214,-27.1829 167.019,-25.4931"/>
<polygon fill="midnightblue" stroke="midnightblue" points="168.632,-28.6153 176.566,-21.5944 165.985,-22.1348 168.632,-28.6153"/>
</g>
<!-- Node3 -->
<g id="node5" class="node"><title>Node3</title>
<a xlink:href="../../de/d52/class_workspace_settings.html#ad1d507e6e68d4b8bd40982b78da7c5bd" target="_top" xlink:title="WorkspaceSettings::\lgetMetadataPath">
<polygon fill="white" stroke="black" points="311,-238 311,-272 419,-272 419,-238 311,-238"/>
<text text-anchor="start" x="319" y="-259" font-family="Helvetica,sans-Serif" font-size="10.00">WorkspaceSettings::</text>
<text text-anchor="middle" x="365" y="-246" font-family="Helvetica,sans-Serif" font-size="10.00">getMetadataPath</text>
</a>
</g>
<!-- Node2&#45;&gt;Node3 -->
<g id="edge4" class="edge"><title>Node2&#45;&gt;Node3</title>
<path fill="none" stroke="midnightblue" d="M247.872,-219.553C263.697,-224.342 282.926,-230.162 301.191,-235.689"/>
<polygon fill="midnightblue" stroke="midnightblue" points="300.335,-239.087 310.92,-238.634 302.362,-232.387 300.335,-239.087"/>
</g>
<!-- Node4 -->
<g id="node7" class="node"><title>Node4</title>
<a xlink:href="../../d4/d1c/class_file_path.html#a2c6594f7da9797cf10468c08338cbefd" target="_top" xlink:title="Get the filepath to a file or directory which is relative to this filepath. ">
<polygon fill="white" stroke="black" points="313,-198.5 313,-219.5 417,-219.5 417,-198.5 313,-198.5"/>
<text text-anchor="middle" x="365" y="-206.5" font-family="Helvetica,sans-Serif" font-size="10.00">FilePath::getPathTo</text>
</a>
</g>
<!-- Node2&#45;&gt;Node4 -->
<g id="edge6" class="edge"><title>Node2&#45;&gt;Node4</title>
<path fill="none" stroke="midnightblue" d="M269.599,-209C280.345,-209 291.646,-209 302.56,-209"/>
<polygon fill="midnightblue" stroke="midnightblue" points="302.876,-212.5 312.876,-209 302.876,-205.5 302.876,-212.5"/>
</g>
<!-- Node5 -->
<g id="node9" class="node"><title>Node5</title>
<a xlink:href="../../d4/d1c/class_file_path.html#a39a0bbf3901de18041fb5c324ecf412a" target="_top" xlink:title="Get the absolute and well&#45;formatted filepath as a QString. ">
<polygon fill="white" stroke="black" points="325,-158.5 325,-179.5 405,-179.5 405,-158.5 325,-158.5"/>
<text text-anchor="middle" x="365" y="-166.5" font-family="Helvetica,sans-Serif" font-size="10.00">FilePath::toStr</text>
</a>
</g>
<!-- Node2&#45;&gt;Node5 -->
<g id="edge8" class="edge"><title>Node2&#45;&gt;Node5</title>
<path fill="none" stroke="midnightblue" d="M252.936,-198.49C272.06,-193.458 295.151,-187.381 315.39,-182.055"/>
<polygon fill="midnightblue" stroke="midnightblue" points="316.287,-185.438 325.067,-179.509 314.505,-178.669 316.287,-185.438"/>
</g>
<!-- Node9&#45;&gt;Node6 -->
<g id="edge18" class="edge"><title>Node9&#45;&gt;Node6</title>
<path fill="none" stroke="midnightblue" d="M253.334,-61.3489C271.993,-66.1365 294.362,-71.8758 314.162,-76.9562"/>
<polygon fill="midnightblue" stroke="midnightblue" points="313.392,-80.3717 323.948,-79.4669 315.132,-73.5914 313.392,-80.3717"/>
</g>
</g>
</svg>
