<?xml version="1.0" encoding="UTF-8" standalone="no"?>
<!DOCTYPE svg PUBLIC "-//W3C//DTD SVG 1.1//EN"
 "http://www.w3.org/Graphics/SVG/1.1/DTD/svg11.dtd">
<!-- Generated by graphviz version 2.26.3 (20100126.1600)
 -->
<!-- Title: shape Pages: 1 -->
<svg width="536pt" height="153pt"
 viewBox="0.00 0.00 536.00 153.00" xmlns="http://www.w3.org/2000/svg" xmlns:xlink="http://www.w3.org/1999/xlink">
<g id="graph1" class="graph" transform="scale(1 1) rotate(0) translate(4 149)">
<title>shape</title>
<polygon fill="white" stroke="white" points="-4,5 -4,-149 533,-149 533,5 -4,5"/>
<!-- Node1 -->
<g id="node1" class="node"><title>Node1</title>
<polygon fill="#bfbfbf" stroke="black" points="0.5,-65.5 0.5,-86.5 43.5,-86.5 43.5,-65.5 0.5,-65.5"/>
<text text-anchor="middle" x="22" y="-73.5" font-family="Helvetica,sans-Serif" font-size="10.00">shape</text>
</g>
<!-- Node2 -->
<g id="node3" class="node"><title>Node2</title>
<a xlink:href="../../d6/d12/classproject_1_1_s_i___symbol_pin.html#af90fb11b274fda88ef94e9f685a6ab35" target="_top" xlink:title="project::SI_SymbolPin\l::getGrabAreaScenePx">
<polygon fill="white" stroke="black" points="80.5,-59 80.5,-93 197.5,-93 197.5,-59 80.5,-59"/>
<text text-anchor="start" x="88.5" y="-80" font-family="Helvetica,sans-Serif" font-size="10.00">project::SI_SymbolPin</text>
<text text-anchor="middle" x="139" y="-67" font-family="Helvetica,sans-Serif" font-size="10.00">::getGrabAreaScenePx</text>
</a>
</g>
<!-- Node1&#45;&gt;Node2 -->
<g id="edge2" class="edge"><title>Node1&#45;&gt;Node2</title>
<path fill="none" stroke="midnightblue" d="M53.9346,-76C62.1393,-76 71.2291,-76 80.3246,-76"/>
<polygon fill="midnightblue" stroke="midnightblue" points="53.7326,-72.5001 43.7326,-76 53.7326,-79.5001 53.7326,-72.5001"/>
</g>
<!-- Node3 -->
<g id="node5" class="node"><title>Node3</title>
<a xlink:href="../../dd/d2d/classproject_1_1_schematic.html#ac6709a9f69bbe2647444abaccbc8403e" target="_top" xlink:title="project::Schematic\l::getItemsAtScenePos">
<polygon fill="white" stroke="black" points="234,-111 234,-145 350,-145 350,-111 234,-111"/>
<text text-anchor="start" x="242" y="-132" font-family="Helvetica,sans-Serif" font-size="10.00">project::Schematic</text>
<text text-anchor="middle" x="292" y="-119" font-family="Helvetica,sans-Serif" font-size="10.00">::getItemsAtScenePos</text>
</a>
</g>
<!-- Node2&#45;&gt;Node3 -->
<g id="edge4" class="edge"><title>Node2&#45;&gt;Node3</title>
<path fill="none" stroke="midnightblue" d="M198.789,-96.3205C213.012,-101.154 228.045,-106.264 241.79,-110.935"/>
<polygon fill="midnightblue" stroke="midnightblue" points="199.692,-92.9309 189.098,-93.0267 197.44,-99.5586 199.692,-92.9309"/>
</g>
<!-- Node4 -->
<g id="node7" class="node"><title>Node4</title>
<a xlink:href="../../dd/d2d/classproject_1_1_schematic.html#af74dab3072b8fc7894549c35ac90a050" target="_top" xlink:title="project::Schematic\l::getPinsAtScenePos">
<polygon fill="white" stroke="black" points="237,-59 237,-93 347,-93 347,-59 237,-59"/>
<text text-anchor="start" x="245" y="-80" font-family="Helvetica,sans-Serif" font-size="10.00">project::Schematic</text>
<text text-anchor="middle" x="292" y="-67" font-family="Helvetica,sans-Serif" font-size="10.00">::getPinsAtScenePos</text>
</a>
</g>
<!-- Node2&#45;&gt;Node4 -->
<g id="edge6" class="edge"><title>Node2&#45;&gt;Node4</title>
<path fill="none" stroke="midnightblue" d="M207.737,-76C217.437,-76 227.305,-76 236.709,-76"/>
<polygon fill="midnightblue" stroke="midnightblue" points="207.716,-72.5001 197.716,-76 207.716,-79.5001 207.716,-72.5001"/>
</g>
<!-- Node5 -->
<g id="node9" class="node"><title>Node5</title>
<a xlink:href="../../dd/d2d/classproject_1_1_schematic.html#a1e81bd3e07987e2b02f760b3d6d75c21" target="_top" xlink:title="project::Schematic\l::setSelectionRect">
<polygon fill="white" stroke="black" points="243,-7 243,-41 341,-41 341,-7 243,-7"/>
<text text-anchor="start" x="251" y="-28" font-family="Helvetica,sans-Serif" font-size="10.00">project::Schematic</text>
<text text-anchor="middle" x="292" y="-15" font-family="Helvetica,sans-Serif" font-size="10.00">::setSelectionRect</text>
</a>
</g>
<!-- Node2&#45;&gt;Node5 -->
<g id="edge8" class="edge"><title>Node2&#45;&gt;Node5</title>
<path fill="none" stroke="midnightblue" d="M198.574,-55.7527C213.221,-50.7746 228.74,-45.5002 242.833,-40.7102"/>
<polygon fill="midnightblue" stroke="midnightblue" points="197.44,-52.4414 189.098,-58.9733 199.692,-59.0691 197.44,-52.4414"/>
</g>
<!-- Node6 -->
<g id="node11" class="node"><title>Node6</title>
<a xlink:href="../../d8/d8b/classproject_1_1_s_e_s___select.html#ae7b1d9775f8e164e825c0cdecf27eff5" target="_top" xlink:title="project::SES_Select\l::processSubStateIdleScene\lEvent">
<polygon fill="white" stroke="black" points="386.5,-0.5 386.5,-47.5 527.5,-47.5 527.5,-0.5 386.5,-0.5"/>
<text text-anchor="start" x="394.5" y="-34.5" font-family="Helvetica,sans-Serif" font-size="10.00">project::SES_Select</text>
<text text-anchor="start" x="394.5" y="-21.5" font-family="Helvetica,sans-Serif" font-size="10.00">::processSubStateIdleScene</text>
<text text-anchor="middle" x="457" y="-8.5" font-family="Helvetica,sans-Serif" font-size="10.00">Event</text>
</a>
</g>
<!-- Node5&#45;&gt;Node6 -->
<g id="edge10" class="edge"><title>Node5&#45;&gt;Node6</title>
<path fill="none" stroke="midnightblue" d="M351.314,-24C362.708,-24 374.743,-24 386.451,-24"/>
<polygon fill="midnightblue" stroke="midnightblue" points="351.059,-20.5001 341.059,-24 351.059,-27.5001 351.059,-20.5001"/>
</g>
</g>
</svg>
