<?xml version="1.0" encoding="UTF-8" standalone="no"?>
<!DOCTYPE svg PUBLIC "-//W3C//DTD SVG 1.1//EN"
 "http://www.w3.org/Graphics/SVG/1.1/DTD/svg11.dtd">
<!-- Generated by graphviz version 2.26.3 (20100126.1600)
 -->
<!-- Title: /home/travis/build/LibrePCB/LibrePCB/libs/librepcbproject/schematics/cmd/cmdschematicnetpointedit.h Pages: 1 -->
<svg width="355pt" height="316pt"
 viewBox="0.00 0.00 355.40 316.00" xmlns="http://www.w3.org/2000/svg" xmlns:xlink="http://www.w3.org/1999/xlink">
<g id="graph1" class="graph" transform="scale(1 1) rotate(0) translate(4 312)">
<title>/home/travis/build/LibrePCB/LibrePCB/libs/librepcbproject/schematics/cmd/cmdschematicnetpointedit.h</title>
<polygon fill="white" stroke="white" points="-4,5 -4,-312 352.397,-312 352.397,5 -4,5"/>
<!-- Node1 -->
<g id="node1" class="node"><title>Node1</title>
<polygon fill="#bfbfbf" stroke="black" points="88.3965,-247 88.3965,-307 252.397,-307 252.397,-247 88.3965,-247"/>
<text text-anchor="start" x="96.3965" y="-294" font-family="Helvetica,sans-Serif" font-size="10.00">/home/travis/build</text>
<text text-anchor="start" x="96.3965" y="-281" font-family="Helvetica,sans-Serif" font-size="10.00">/LibrePCB/LibrePCB/libs</text>
<text text-anchor="start" x="96.3965" y="-268" font-family="Helvetica,sans-Serif" font-size="10.00">/librepcbproject/schematics</text>
<text text-anchor="middle" x="170.397" y="-255" font-family="Helvetica,sans-Serif" font-size="10.00">/cmd/cmdschematicnetpointedit.h</text>
</g>
<!-- Node2 -->
<g id="node3" class="node"><title>Node2</title>
<polygon fill="white" stroke="#bfbfbf" points="172.397,-0.5 172.397,-21.5 220.397,-21.5 220.397,-0.5 172.397,-0.5"/>
<text text-anchor="middle" x="196.397" y="-8.5" font-family="Helvetica,sans-Serif" font-size="10.00">QtCore</text>
</g>
<!-- Node1&#45;&gt;Node2 -->
<g id="edge2" class="edge"><title>Node1&#45;&gt;Node2</title>
<path fill="none" stroke="midnightblue" d="M101.218,-246.914C44.0927,-217.464 -22.913,-169.348 8.3965,-116 41.6631,-59.3168 117.902,-30.9676 162.402,-18.7687"/>
<polygon fill="midnightblue" stroke="midnightblue" points="163.401,-22.1252 172.188,-16.2062 161.628,-15.3535 163.401,-22.1252"/>
</g>
<!-- Node3 -->
<g id="node5" class="node"><title>Node3</title>
<a xlink:href="../../dc/da0/undocommand_8h.html" target="_top" xlink:title="librepcbcommon/undocommand.h">
<polygon fill="white" stroke="black" points="16.8965,-116.5 16.8965,-137.5 179.897,-137.5 179.897,-116.5 16.8965,-116.5"/>
<text text-anchor="middle" x="98.3965" y="-124.5" font-family="Helvetica,sans-Serif" font-size="10.00">librepcbcommon/undocommand.h</text>
</a>
</g>
<!-- Node1&#45;&gt;Node3 -->
<g id="edge4" class="edge"><title>Node1&#45;&gt;Node3</title>
<path fill="none" stroke="midnightblue" d="M155.826,-246.645C141.534,-216.869 120.156,-172.331 107.915,-146.831"/>
<polygon fill="midnightblue" stroke="midnightblue" points="111.045,-145.262 103.562,-137.761 104.734,-148.291 111.045,-145.262"/>
</g>
<!-- Node4 -->
<g id="node8" class="node"><title>Node4</title>
<a xlink:href="../../d4/d03/exceptions_8h.html" target="_top" xlink:title="exceptions.h">
<polygon fill="white" stroke="black" points="160.397,-58.5 160.397,-79.5 232.397,-79.5 232.397,-58.5 160.397,-58.5"/>
<text text-anchor="middle" x="196.397" y="-66.5" font-family="Helvetica,sans-Serif" font-size="10.00">exceptions.h</text>
</a>
</g>
<!-- Node1&#45;&gt;Node4 -->
<g id="edge12" class="edge"><title>Node1&#45;&gt;Node4</title>
<path fill="none" stroke="midnightblue" d="M174.41,-246.917C178.137,-218.774 183.788,-175.557 188.397,-138 190.37,-121.916 192.476,-103.706 194.032,-90.0333"/>
<polygon fill="midnightblue" stroke="midnightblue" points="197.547,-90.0919 195.194,-79.7618 190.592,-89.3049 197.547,-90.0919"/>
</g>
<!-- Node5 -->
<g id="node12" class="node"><title>Node5</title>
<a xlink:href="../../d2/d91/point_8h.html" target="_top" xlink:title="librepcbcommon/units\l/point.h">
<polygon fill="white" stroke="black" points="235.397,-175 235.397,-209 347.397,-209 347.397,-175 235.397,-175"/>
<text text-anchor="start" x="243.397" y="-196" font-family="Helvetica,sans-Serif" font-size="10.00">librepcbcommon/units</text>
<text text-anchor="middle" x="291.397" y="-183" font-family="Helvetica,sans-Serif" font-size="10.00">/point.h</text>
</a>
</g>
<!-- Node1&#45;&gt;Node5 -->
<g id="edge14" class="edge"><title>Node1&#45;&gt;Node5</title>
<path fill="none" stroke="midnightblue" d="M213.397,-246.793C228.36,-236.282 244.886,-224.673 258.86,-214.856"/>
<polygon fill="midnightblue" stroke="midnightblue" points="261.023,-217.614 267.194,-209.002 257,-211.886 261.023,-217.614"/>
</g>
<!-- Node3&#45;&gt;Node2 -->
<g id="edge6" class="edge"><title>Node3&#45;&gt;Node2</title>
<path fill="none" stroke="midnightblue" d="M105.957,-116.436C115.945,-102.653 134.278,-77.9435 151.397,-58 159.959,-48.0244 170.036,-37.4058 178.481,-28.7902"/>
<polygon fill="midnightblue" stroke="midnightblue" points="181.136,-31.084 185.688,-21.517 176.163,-26.1571 181.136,-31.084"/>
</g>
<!-- Node3&#45;&gt;Node4 -->
<g id="edge8" class="edge"><title>Node3&#45;&gt;Node4</title>
<path fill="none" stroke="midnightblue" d="M116.371,-116.362C131.291,-107.532 152.729,-94.844 169.662,-84.8224"/>
<polygon fill="midnightblue" stroke="midnightblue" points="171.713,-87.6759 178.536,-79.5707 168.147,-81.6519 171.713,-87.6759"/>
</g>
<!-- Node4&#45;&gt;Node2 -->
<g id="edge10" class="edge"><title>Node4&#45;&gt;Node2</title>
<path fill="none" stroke="midnightblue" d="M196.397,-58.3619C196.397,-50.9219 196.397,-40.7427 196.397,-31.7276"/>
<polygon fill="midnightblue" stroke="midnightblue" points="199.897,-31.5706 196.397,-21.5707 192.897,-31.5707 199.897,-31.5706"/>
</g>
<!-- Node5&#45;&gt;Node2 -->
<g id="edge16" class="edge"><title>Node5&#45;&gt;Node2</title>
<path fill="none" stroke="midnightblue" d="M295.043,-174.749C297.656,-159.114 299.849,-135.591 294.397,-116 286.323,-86.995 279.617,-80.3066 259.397,-58 248.703,-46.2035 234.67,-35.3967 222.563,-27.1279"/>
<polygon fill="midnightblue" stroke="midnightblue" points="224.436,-24.1703 214.163,-21.5776 220.577,-30.0105 224.436,-24.1703"/>
</g>
<!-- Node6 -->
<g id="node15" class="node"><title>Node6</title>
<a xlink:href="../../dd/db9/length_8h.html" target="_top" xlink:title="length.h">
<polygon fill="white" stroke="black" points="234.897,-116.5 234.897,-137.5 285.897,-137.5 285.897,-116.5 234.897,-116.5"/>
<text text-anchor="middle" x="260.397" y="-124.5" font-family="Helvetica,sans-Serif" font-size="10.00">length.h</text>
</a>
</g>
<!-- Node5&#45;&gt;Node6 -->
<g id="edge18" class="edge"><title>Node5&#45;&gt;Node6</title>
<path fill="none" stroke="midnightblue" d="M283.252,-174.922C279.185,-166.395 274.239,-156.025 269.99,-147.115"/>
<polygon fill="midnightblue" stroke="midnightblue" points="273.036,-145.371 265.572,-137.852 266.718,-148.385 273.036,-145.371"/>
</g>
<!-- Node6&#45;&gt;Node2 -->
<g id="edge20" class="edge"><title>Node6&#45;&gt;Node2</title>
<path fill="none" stroke="midnightblue" d="M259.082,-116.085C257.01,-101.922 252.067,-76.8027 241.397,-58 235.164,-47.0176 225.795,-36.6651 217.216,-28.4862"/>
<polygon fill="midnightblue" stroke="midnightblue" points="219.427,-25.7662 209.673,-21.6304 214.719,-30.9463 219.427,-25.7662"/>
</g>
<!-- Node6&#45;&gt;Node4 -->
<g id="edge22" class="edge"><title>Node6&#45;&gt;Node4</title>
<path fill="none" stroke="midnightblue" d="M248.658,-116.362C239.456,-108.023 226.456,-96.2418 215.725,-86.5162"/>
<polygon fill="midnightblue" stroke="midnightblue" points="217.821,-83.6924 208.061,-79.5707 213.12,-88.8793 217.821,-83.6924"/>
</g>
</g>
</svg>
