<?xml version="1.0" encoding="UTF-8" standalone="no"?>
<!DOCTYPE svg PUBLIC "-//W3C//DTD SVG 1.1//EN"
 "http://www.w3.org/Graphics/SVG/1.1/DTD/svg11.dtd">
<!-- Generated by graphviz version 2.26.3 (20100126.1600)
 -->
<!-- Title: /home/travis/build/LibrePCB/LibrePCB/libs/librepcblibrary/cat/componentcategory.h Pages: 1 -->
<svg width="1026pt" height="252pt"
 viewBox="0.00 0.00 1026.00 252.00" xmlns="http://www.w3.org/2000/svg" xmlns:xlink="http://www.w3.org/1999/xlink">
<g id="graph1" class="graph" transform="scale(1 1) rotate(0) translate(4 248)">
<title>/home/travis/build/LibrePCB/LibrePCB/libs/librepcblibrary/cat/componentcategory.h</title>
<polygon fill="white" stroke="white" points="-4,5 -4,-248 1023,-248 1023,5 -4,5"/>
<!-- Node1 -->
<g id="node1" class="node"><title>Node1</title>
<polygon fill="#bfbfbf" stroke="black" points="469.5,-196.5 469.5,-243.5 662.5,-243.5 662.5,-196.5 469.5,-196.5"/>
<text text-anchor="start" x="477.5" y="-230.5" font-family="Helvetica,sans-Serif" font-size="10.00">/home/travis/build</text>
<text text-anchor="start" x="477.5" y="-217.5" font-family="Helvetica,sans-Serif" font-size="10.00">/LibrePCB/LibrePCB/libs</text>
<text text-anchor="middle" x="566" y="-204.5" font-family="Helvetica,sans-Serif" font-size="10.00">/librepcblibrary/cat/componentcategory.h</text>
</g>
<!-- Node2 -->
<g id="node3" class="node"><title>Node2</title>
<a xlink:href="../../d3/dca/categorytreeitem_8cpp.html" target="_top" xlink:title="/home/travis/build\l/LibrePCB/LibrePCB/libs\l/librepcblibrary/cat/categorytreeitem.cpp">
<polygon fill="white" stroke="black" points="-0.5,-105.5 -0.5,-152.5 190.5,-152.5 190.5,-105.5 -0.5,-105.5"/>
<text text-anchor="start" x="7.5" y="-139.5" font-family="Helvetica,sans-Serif" font-size="10.00">/home/travis/build</text>
<text text-anchor="start" x="7.5" y="-126.5" font-family="Helvetica,sans-Serif" font-size="10.00">/LibrePCB/LibrePCB/libs</text>
<text text-anchor="middle" x="95" y="-113.5" font-family="Helvetica,sans-Serif" font-size="10.00">/librepcblibrary/cat/categorytreeitem.cpp</text>
</a>
</g>
<!-- Node1&#45;&gt;Node2 -->
<g id="edge2" class="edge"><title>Node1&#45;&gt;Node2</title>
<path fill="none" stroke="midnightblue" d="M458.937,-206.174C385.361,-195.777 285.687,-179.92 199,-160 189.452,-157.806 179.491,-155.224 169.68,-152.503"/>
<polygon fill="midnightblue" stroke="midnightblue" points="458.753,-209.683 469.142,-207.605 459.725,-202.751 458.753,-209.683"/>
</g>
<!-- Node3 -->
<g id="node5" class="node"><title>Node3</title>
<a xlink:href="../../d2/d5d/componentcategory_8cpp.html" target="_top" xlink:title="/home/travis/build\l/LibrePCB/LibrePCB/libs\l/librepcblibrary/cat/componentcategory.cpp">
<polygon fill="white" stroke="black" points="207.5,-105.5 207.5,-152.5 410.5,-152.5 410.5,-105.5 207.5,-105.5"/>
<text text-anchor="start" x="215.5" y="-139.5" font-family="Helvetica,sans-Serif" font-size="10.00">/home/travis/build</text>
<text text-anchor="start" x="215.5" y="-126.5" font-family="Helvetica,sans-Serif" font-size="10.00">/LibrePCB/LibrePCB/libs</text>
<text text-anchor="middle" x="309" y="-113.5" font-family="Helvetica,sans-Serif" font-size="10.00">/librepcblibrary/cat/componentcategory.cpp</text>
</a>
</g>
<!-- Node1&#45;&gt;Node3 -->
<g id="edge4" class="edge"><title>Node1&#45;&gt;Node3</title>
<path fill="none" stroke="midnightblue" d="M489.93,-193.065C453.659,-180.222 410.662,-164.997 375.685,-152.612"/>
<polygon fill="midnightblue" stroke="midnightblue" points="488.887,-196.408 499.482,-196.447 491.224,-189.81 488.887,-196.408"/>
</g>
<!-- Node4 -->
<g id="node7" class="node"><title>Node4</title>
<a xlink:href="../../de/d98/elements_8h.html" target="_top" xlink:title="/home/travis/build\l/LibrePCB/LibrePCB/libs\l/librepcblibrary/elements.h">
<polygon fill="white" stroke="black" points="427.5,-105.5 427.5,-152.5 558.5,-152.5 558.5,-105.5 427.5,-105.5"/>
<text text-anchor="start" x="435.5" y="-139.5" font-family="Helvetica,sans-Serif" font-size="10.00">/home/travis/build</text>
<text text-anchor="start" x="435.5" y="-126.5" font-family="Helvetica,sans-Serif" font-size="10.00">/LibrePCB/LibrePCB/libs</text>
<text text-anchor="middle" x="493" y="-113.5" font-family="Helvetica,sans-Serif" font-size="10.00">/librepcblibrary/elements.h</text>
</a>
</g>
<!-- Node1&#45;&gt;Node4 -->
<g id="edge6" class="edge"><title>Node1&#45;&gt;Node4</title>
<path fill="none" stroke="midnightblue" d="M540.545,-188.268C531.184,-176.599 520.753,-163.596 512.052,-152.749"/>
<polygon fill="midnightblue" stroke="midnightblue" points="537.833,-190.481 546.82,-196.091 543.293,-186.1 537.833,-190.481"/>
</g>
<!-- Node6 -->
<g id="node11" class="node"><title>Node6</title>
<a xlink:href="../../d7/d7d/library_8cpp.html" target="_top" xlink:title="/home/travis/build\l/LibrePCB/LibrePCB/libs\l/librepcblibrary/library.cpp">
<polygon fill="white" stroke="black" points="576,-105.5 576,-152.5 704,-152.5 704,-105.5 576,-105.5"/>
<text text-anchor="start" x="584" y="-139.5" font-family="Helvetica,sans-Serif" font-size="10.00">/home/travis/build</text>
<text text-anchor="start" x="584" y="-126.5" font-family="Helvetica,sans-Serif" font-size="10.00">/LibrePCB/LibrePCB/libs</text>
<text text-anchor="middle" x="640" y="-113.5" font-family="Helvetica,sans-Serif" font-size="10.00">/librepcblibrary/library.cpp</text>
</a>
</g>
<!-- Node1&#45;&gt;Node6 -->
<g id="edge10" class="edge"><title>Node1&#45;&gt;Node6</title>
<path fill="none" stroke="midnightblue" d="M591.804,-188.268C601.293,-176.599 611.867,-163.596 620.687,-152.749"/>
<polygon fill="midnightblue" stroke="midnightblue" points="589.036,-186.124 585.443,-196.091 594.467,-190.54 589.036,-186.124"/>
</g>
<!-- Node7 -->
<g id="node13" class="node"><title>Node7</title>
<a xlink:href="../../d7/dc8/moc__componentcategory_8cpp.html" target="_top" xlink:title="/home/travis/build\l/LibrePCB/LibrePCB/libs\l/librepcblibrary/moc/moc\l_componentcategory.cpp">
<polygon fill="white" stroke="black" points="722,-99 722,-159 848,-159 848,-99 722,-99"/>
<text text-anchor="start" x="730" y="-146" font-family="Helvetica,sans-Serif" font-size="10.00">/home/travis/build</text>
<text text-anchor="start" x="730" y="-133" font-family="Helvetica,sans-Serif" font-size="10.00">/LibrePCB/LibrePCB/libs</text>
<text text-anchor="start" x="730" y="-120" font-family="Helvetica,sans-Serif" font-size="10.00">/librepcblibrary/moc/moc</text>
<text text-anchor="middle" x="785" y="-107" font-family="Helvetica,sans-Serif" font-size="10.00">_componentcategory.cpp</text>
</a>
</g>
<!-- Node1&#45;&gt;Node7 -->
<g id="edge12" class="edge"><title>Node1&#45;&gt;Node7</title>
<path fill="none" stroke="midnightblue" d="M633.784,-192.647C658.732,-182.498 687.191,-170.822 713,-160 715.887,-158.79 718.836,-157.546 721.813,-156.286"/>
<polygon fill="midnightblue" stroke="midnightblue" points="632.354,-189.45 624.407,-196.458 634.989,-195.936 632.354,-189.45"/>
</g>
<!-- Node8 -->
<g id="node15" class="node"><title>Node8</title>
<a xlink:href="../../da/d64/addgencompdialog_8cpp.html" target="_top" xlink:title="/home/travis/build\l/LibrePCB/LibrePCB/libs\l/librepcbprojecteditor\l/dialogs/addgencompdialog.cpp">
<polygon fill="white" stroke="black" points="865.5,-99 865.5,-159 1018.5,-159 1018.5,-99 865.5,-99"/>
<text text-anchor="start" x="873.5" y="-146" font-family="Helvetica,sans-Serif" font-size="10.00">/home/travis/build</text>
<text text-anchor="start" x="873.5" y="-133" font-family="Helvetica,sans-Serif" font-size="10.00">/LibrePCB/LibrePCB/libs</text>
<text text-anchor="start" x="873.5" y="-120" font-family="Helvetica,sans-Serif" font-size="10.00">/librepcbprojecteditor</text>
<text text-anchor="middle" x="942" y="-107" font-family="Helvetica,sans-Serif" font-size="10.00">/dialogs/addgencompdialog.cpp</text>
</a>
</g>
<!-- Node1&#45;&gt;Node8 -->
<g id="edge14" class="edge"><title>Node1&#45;&gt;Node8</title>
<path fill="none" stroke="midnightblue" d="M672.38,-201.936C727.878,-191.541 796.611,-177.138 857,-160 859.72,-159.228 862.478,-158.411 865.254,-157.56"/>
<polygon fill="midnightblue" stroke="midnightblue" points="671.724,-198.498 662.531,-203.765 673.002,-205.38 671.724,-198.498"/>
</g>
<!-- Node5 -->
<g id="node9" class="node"><title>Node5</title>
<a xlink:href="../../da/d6c/cmdprojectlibraryaddelement_8cpp.html" target="_top" xlink:title="/home/travis/build\l/LibrePCB/LibrePCB/libs\l/librepcbproject/library\l/cmd/cmdprojectlibraryaddelement.cpp">
<polygon fill="white" stroke="black" points="400.5,-1 400.5,-61 585.5,-61 585.5,-1 400.5,-1"/>
<text text-anchor="start" x="408.5" y="-48" font-family="Helvetica,sans-Serif" font-size="10.00">/home/travis/build</text>
<text text-anchor="start" x="408.5" y="-35" font-family="Helvetica,sans-Serif" font-size="10.00">/LibrePCB/LibrePCB/libs</text>
<text text-anchor="start" x="408.5" y="-22" font-family="Helvetica,sans-Serif" font-size="10.00">/librepcbproject/library</text>
<text text-anchor="middle" x="493" y="-9" font-family="Helvetica,sans-Serif" font-size="10.00">/cmd/cmdprojectlibraryaddelement.cpp</text>
</a>
</g>
<!-- Node4&#45;&gt;Node5 -->
<g id="edge8" class="edge"><title>Node4&#45;&gt;Node5</title>
<path fill="none" stroke="midnightblue" d="M493,-95.1315C493,-84.1 493,-71.934 493,-61.1903"/>
<polygon fill="midnightblue" stroke="midnightblue" points="489.5,-95.2769 493,-105.277 496.5,-95.277 489.5,-95.2769"/>
</g>
</g>
</svg>
