<?xml version="1.0" encoding="UTF-8" standalone="no"?>
<!DOCTYPE svg PUBLIC "-//W3C//DTD SVG 1.1//EN"
 "http://www.w3.org/Graphics/SVG/1.1/DTD/svg11.dtd">
<!-- Generated by graphviz version 2.26.3 (20100126.1600)
 -->
<!-- Title: /home/travis/build/LibrePCB/LibrePCB/libs/librepcbcommon/attributes/attrtypestring.cpp Pages: 1 -->
<svg width="225pt" height="302pt"
 viewBox="0.00 0.00 225.00 302.00" xmlns="http://www.w3.org/2000/svg" xmlns:xlink="http://www.w3.org/1999/xlink">
<g id="graph1" class="graph" transform="scale(1 1) rotate(0) translate(4 298)">
<title>/home/travis/build/LibrePCB/LibrePCB/libs/librepcbcommon/attributes/attrtypestring.cpp</title>
<polygon fill="white" stroke="white" points="-4,5 -4,-298 222,-298 222,5 -4,5"/>
<!-- Node1 -->
<g id="node1" class="node"><title>Node1</title>
<polygon fill="#bfbfbf" stroke="black" points="0,-233 0,-293 134,-293 134,-233 0,-233"/>
<text text-anchor="start" x="8" y="-280" font-family="Helvetica,sans-Serif" font-size="10.00">/home/travis/build</text>
<text text-anchor="start" x="8" y="-267" font-family="Helvetica,sans-Serif" font-size="10.00">/LibrePCB/LibrePCB/libs</text>
<text text-anchor="start" x="8" y="-254" font-family="Helvetica,sans-Serif" font-size="10.00">/librepcbcommon/attributes</text>
<text text-anchor="middle" x="67" y="-241" font-family="Helvetica,sans-Serif" font-size="10.00">/attrtypestring.cpp</text>
</g>
<!-- Node2 -->
<g id="node3" class="node"><title>Node2</title>
<polygon fill="white" stroke="#bfbfbf" points="66,-0.5 66,-21.5 114,-21.5 114,-0.5 66,-0.5"/>
<text text-anchor="middle" x="90" y="-8.5" font-family="Helvetica,sans-Serif" font-size="10.00">QtCore</text>
</g>
<!-- Node1&#45;&gt;Node2 -->
<g id="edge2" class="edge"><title>Node1&#45;&gt;Node2</title>
<path fill="none" stroke="midnightblue" d="M58.7766,-232.887C56.0411,-221.433 53.3493,-208.203 52,-196 45.3017,-135.421 68.3654,-65.2781 81.502,-31.3992"/>
<polygon fill="midnightblue" stroke="midnightblue" points="84.9046,-32.3165 85.368,-21.7318 78.405,-29.7173 84.9046,-32.3165"/>
</g>
<!-- Node3 -->
<g id="node5" class="node"><title>Node3</title>
<a xlink:href="../../d9/d64/attrtypestring_8h.html" target="_top" xlink:title="attrtypestring.h">
<polygon fill="white" stroke="black" points="61,-174.5 61,-195.5 143,-195.5 143,-174.5 61,-174.5"/>
<text text-anchor="middle" x="102" y="-182.5" font-family="Helvetica,sans-Serif" font-size="10.00">attrtypestring.h</text>
</a>
</g>
<!-- Node1&#45;&gt;Node3 -->
<g id="edge4" class="edge"><title>Node1&#45;&gt;Node3</title>
<path fill="none" stroke="midnightblue" d="M80.6321,-232.62C84.7805,-223.375 89.2341,-213.45 92.996,-205.066"/>
<polygon fill="midnightblue" stroke="midnightblue" points="96.274,-206.31 97.1747,-195.753 89.8875,-203.444 96.274,-206.31"/>
</g>
<!-- Node3&#45;&gt;Node2 -->
<g id="edge6" class="edge"><title>Node3&#45;&gt;Node2</title>
<path fill="none" stroke="midnightblue" d="M98.4578,-174.32C95.527,-164.889 91.5958,-150.701 90,-138 85.3281,-100.817 86.8599,-57.0246 88.4171,-31.7905"/>
<polygon fill="midnightblue" stroke="midnightblue" points="91.924,-31.8076 89.1122,-21.5927 84.9402,-31.3315 91.924,-31.8076"/>
</g>
<!-- Node4 -->
<g id="node8" class="node"><title>Node4</title>
<a xlink:href="../../dd/d10/attributetype_8h.html" target="_top" xlink:title="attributetype.h">
<polygon fill="white" stroke="black" points="98.5,-116.5 98.5,-137.5 177.5,-137.5 177.5,-116.5 98.5,-116.5"/>
<text text-anchor="middle" x="138" y="-124.5" font-family="Helvetica,sans-Serif" font-size="10.00">attributetype.h</text>
</a>
</g>
<!-- Node3&#45;&gt;Node4 -->
<g id="edge8" class="edge"><title>Node3&#45;&gt;Node4</title>
<path fill="none" stroke="midnightblue" d="M108.603,-174.362C113.475,-166.513 120.238,-155.616 126.05,-146.253"/>
<polygon fill="midnightblue" stroke="midnightblue" points="129.139,-147.913 131.439,-137.571 123.191,-144.221 129.139,-147.913"/>
</g>
<!-- Node4&#45;&gt;Node2 -->
<g id="edge10" class="edge"><title>Node4&#45;&gt;Node2</title>
<path fill="none" stroke="midnightblue" d="M133.57,-116.295C125.569,-96.9588 108.589,-55.9229 98.349,-31.1767"/>
<polygon fill="midnightblue" stroke="midnightblue" points="101.477,-29.5811 94.419,-21.6792 95.0085,-32.2576 101.477,-29.5811"/>
</g>
<!-- Node5 -->
<g id="node11" class="node"><title>Node5</title>
<a xlink:href="../../d4/d03/exceptions_8h.html" target="_top" xlink:title="../exceptions.h">
<polygon fill="white" stroke="black" points="136.5,-58.5 136.5,-79.5 217.5,-79.5 217.5,-58.5 136.5,-58.5"/>
<text text-anchor="middle" x="177" y="-66.5" font-family="Helvetica,sans-Serif" font-size="10.00">../exceptions.h</text>
</a>
</g>
<!-- Node4&#45;&gt;Node5 -->
<g id="edge12" class="edge"><title>Node4&#45;&gt;Node5</title>
<path fill="none" stroke="midnightblue" d="M145.153,-116.362C150.486,-108.431 157.911,-97.3885 164.251,-87.9606"/>
<polygon fill="midnightblue" stroke="midnightblue" points="167.217,-89.8221 169.892,-79.5707 161.408,-85.9161 167.217,-89.8221"/>
</g>
<!-- Node5&#45;&gt;Node2 -->
<g id="edge14" class="edge"><title>Node5&#45;&gt;Node2</title>
<path fill="none" stroke="midnightblue" d="M161.043,-58.3619C148.043,-49.6955 129.469,-37.3126 114.573,-27.3819"/>
<polygon fill="midnightblue" stroke="midnightblue" points="116.118,-24.2055 105.856,-21.5707 112.235,-30.0299 116.118,-24.2055"/>
</g>
</g>
</svg>
