<?xml version="1.0" encoding="UTF-8" standalone="no"?>
<!DOCTYPE svg PUBLIC "-//W3C//DTD SVG 1.1//EN"
 "http://www.w3.org/Graphics/SVG/1.1/DTD/svg11.dtd">
<!-- Generated by graphviz version 2.26.3 (20100126.1600)
 -->
<!-- Title: /home/travis/build/LibrePCB/LibrePCB/libs/librepcbproject/erc/ercmsg.h Pages: 1 -->
<svg width="1662pt" height="154pt"
 viewBox="0.00 0.00 1662.00 154.00" xmlns="http://www.w3.org/2000/svg" xmlns:xlink="http://www.w3.org/1999/xlink">
<g id="graph1" class="graph" transform="scale(1 1) rotate(0) translate(4 150)">
<title>/home/travis/build/LibrePCB/LibrePCB/libs/librepcbproject/erc/ercmsg.h</title>
<polygon fill="white" stroke="white" points="-4,5 -4,-150 1659,-150 1659,5 -4,5"/>
<!-- Node1 -->
<g id="node1" class="node"><title>Node1</title>
<polygon fill="#bfbfbf" stroke="black" points="716.5,-98.5 716.5,-145.5 859.5,-145.5 859.5,-98.5 716.5,-98.5"/>
<text text-anchor="start" x="724.5" y="-132.5" font-family="Helvetica,sans-Serif" font-size="10.00">/home/travis/build</text>
<text text-anchor="start" x="724.5" y="-119.5" font-family="Helvetica,sans-Serif" font-size="10.00">/LibrePCB/LibrePCB/libs</text>
<text text-anchor="middle" x="788" y="-106.5" font-family="Helvetica,sans-Serif" font-size="10.00">/librepcbproject/erc/ercmsg.h</text>
</g>
<!-- Node2 -->
<g id="node3" class="node"><title>Node2</title>
<a xlink:href="../../df/d6e/board_8cpp.html" target="_top" xlink:title="/home/travis/build\l/LibrePCB/LibrePCB/libs\l/librepcbproject/boards\l/board.cpp">
<polygon fill="white" stroke="black" points="-0.5,-1 -0.5,-61 124.5,-61 124.5,-1 -0.5,-1"/>
<text text-anchor="start" x="7.5" y="-48" font-family="Helvetica,sans-Serif" font-size="10.00">/home/travis/build</text>
<text text-anchor="start" x="7.5" y="-35" font-family="Helvetica,sans-Serif" font-size="10.00">/LibrePCB/LibrePCB/libs</text>
<text text-anchor="start" x="7.5" y="-22" font-family="Helvetica,sans-Serif" font-size="10.00">/librepcbproject/boards</text>
<text text-anchor="middle" x="62" y="-9" font-family="Helvetica,sans-Serif" font-size="10.00">/board.cpp</text>
</a>
</g>
<!-- Node1&#45;&gt;Node2 -->
<g id="edge2" class="edge"><title>Node1&#45;&gt;Node2</title>
<path fill="none" stroke="midnightblue" d="M706.343,-117.783C555.612,-109.46 239.358,-89.3287 133,-62 130.264,-61.2971 127.5,-60.5009 124.729,-59.6314"/>
<polygon fill="midnightblue" stroke="midnightblue" points="706.29,-121.286 716.467,-118.338 706.673,-114.296 706.29,-121.286"/>
</g>
<!-- Node3 -->
<g id="node5" class="node"><title>Node3</title>
<a xlink:href="../../d6/d55/componentinstance_8cpp.html" target="_top" xlink:title="/home/travis/build\l/LibrePCB/LibrePCB/libs\l/librepcbproject/boards\l/componentinstance.cpp">
<polygon fill="white" stroke="black" points="141.5,-1 141.5,-61 266.5,-61 266.5,-1 141.5,-1"/>
<text text-anchor="start" x="149.5" y="-48" font-family="Helvetica,sans-Serif" font-size="10.00">/home/travis/build</text>
<text text-anchor="start" x="149.5" y="-35" font-family="Helvetica,sans-Serif" font-size="10.00">/LibrePCB/LibrePCB/libs</text>
<text text-anchor="start" x="149.5" y="-22" font-family="Helvetica,sans-Serif" font-size="10.00">/librepcbproject/boards</text>
<text text-anchor="middle" x="204" y="-9" font-family="Helvetica,sans-Serif" font-size="10.00">/componentinstance.cpp</text>
</a>
</g>
<!-- Node1&#45;&gt;Node3 -->
<g id="edge4" class="edge"><title>Node1&#45;&gt;Node3</title>
<path fill="none" stroke="midnightblue" d="M705.935,-119.831C603.458,-115.44 423.545,-102.161 275,-62 272.273,-61.2628 269.516,-60.438 266.752,-59.5448"/>
<polygon fill="midnightblue" stroke="midnightblue" points="706.079,-123.34 716.214,-120.253 706.366,-116.346 706.079,-123.34"/>
</g>
<!-- Node4 -->
<g id="node7" class="node"><title>Node4</title>
<a xlink:href="../../de/de8/gencompinstance_8cpp.html" target="_top" xlink:title="/home/travis/build\l/LibrePCB/LibrePCB/libs\l/librepcbproject/circuit\l/gencompinstance.cpp">
<polygon fill="white" stroke="black" points="283.5,-1 283.5,-61 408.5,-61 408.5,-1 283.5,-1"/>
<text text-anchor="start" x="291.5" y="-48" font-family="Helvetica,sans-Serif" font-size="10.00">/home/travis/build</text>
<text text-anchor="start" x="291.5" y="-35" font-family="Helvetica,sans-Serif" font-size="10.00">/LibrePCB/LibrePCB/libs</text>
<text text-anchor="start" x="291.5" y="-22" font-family="Helvetica,sans-Serif" font-size="10.00">/librepcbproject/circuit</text>
<text text-anchor="middle" x="346" y="-9" font-family="Helvetica,sans-Serif" font-size="10.00">/gencompinstance.cpp</text>
</a>
</g>
<!-- Node1&#45;&gt;Node4 -->
<g id="edge6" class="edge"><title>Node1&#45;&gt;Node4</title>
<path fill="none" stroke="midnightblue" d="M706.39,-114.756C630.336,-106.615 514.348,-90.6268 417,-62 414.29,-61.2031 411.547,-60.3284 408.795,-59.394"/>
<polygon fill="midnightblue" stroke="midnightblue" points="706.077,-118.242 716.388,-115.806 706.808,-111.281 706.077,-118.242"/>
</g>
<!-- Node5 -->
<g id="node9" class="node"><title>Node5</title>
<a xlink:href="../../d2/d38/gencompsignalinstance_8cpp.html" target="_top" xlink:title="/home/travis/build\l/LibrePCB/LibrePCB/libs\l/librepcbproject/circuit\l/gencompsignalinstance.cpp">
<polygon fill="white" stroke="black" points="426,-1 426,-61 566,-61 566,-1 426,-1"/>
<text text-anchor="start" x="434" y="-48" font-family="Helvetica,sans-Serif" font-size="10.00">/home/travis/build</text>
<text text-anchor="start" x="434" y="-35" font-family="Helvetica,sans-Serif" font-size="10.00">/LibrePCB/LibrePCB/libs</text>
<text text-anchor="start" x="434" y="-22" font-family="Helvetica,sans-Serif" font-size="10.00">/librepcbproject/circuit</text>
<text text-anchor="middle" x="496" y="-9" font-family="Helvetica,sans-Serif" font-size="10.00">/gencompsignalinstance.cpp</text>
</a>
</g>
<!-- Node1&#45;&gt;Node5 -->
<g id="edge8" class="edge"><title>Node1&#45;&gt;Node5</title>
<path fill="none" stroke="midnightblue" d="M706.759,-101.151C666.789,-90.3786 618.062,-76.4742 575,-62 572.067,-61.0142 569.084,-59.9816 566.078,-58.9164"/>
<polygon fill="midnightblue" stroke="midnightblue" points="705.894,-104.543 716.46,-103.751 707.706,-97.7815 705.894,-104.543"/>
</g>
<!-- Node6 -->
<g id="node11" class="node"><title>Node6</title>
<a xlink:href="../../d0/d21/netclass_8cpp.html" target="_top" xlink:title="/home/travis/build\l/LibrePCB/LibrePCB/libs\l/librepcbproject/circuit\l/netclass.cpp">
<polygon fill="white" stroke="black" points="583.5,-1 583.5,-61 708.5,-61 708.5,-1 583.5,-1"/>
<text text-anchor="start" x="591.5" y="-48" font-family="Helvetica,sans-Serif" font-size="10.00">/home/travis/build</text>
<text text-anchor="start" x="591.5" y="-35" font-family="Helvetica,sans-Serif" font-size="10.00">/LibrePCB/LibrePCB/libs</text>
<text text-anchor="start" x="591.5" y="-22" font-family="Helvetica,sans-Serif" font-size="10.00">/librepcbproject/circuit</text>
<text text-anchor="middle" x="646" y="-9" font-family="Helvetica,sans-Serif" font-size="10.00">/netclass.cpp</text>
</a>
</g>
<!-- Node1&#45;&gt;Node6 -->
<g id="edge10" class="edge"><title>Node1&#45;&gt;Node6</title>
<path fill="none" stroke="midnightblue" d="M742.493,-92.8371C726.665,-82.6936 708.887,-71.3011 692.945,-61.0845"/>
<polygon fill="midnightblue" stroke="midnightblue" points="740.754,-95.8796 751.062,-98.3284 744.531,-89.9859 740.754,-95.8796"/>
</g>
<!-- Node7 -->
<g id="node13" class="node"><title>Node7</title>
<a xlink:href="../../df/d3c/netsignal_8cpp.html" target="_top" xlink:title="/home/travis/build\l/LibrePCB/LibrePCB/libs\l/librepcbproject/circuit\l/netsignal.cpp">
<polygon fill="white" stroke="black" points="725.5,-1 725.5,-61 850.5,-61 850.5,-1 725.5,-1"/>
<text text-anchor="start" x="733.5" y="-48" font-family="Helvetica,sans-Serif" font-size="10.00">/home/travis/build</text>
<text text-anchor="start" x="733.5" y="-35" font-family="Helvetica,sans-Serif" font-size="10.00">/LibrePCB/LibrePCB/libs</text>
<text text-anchor="start" x="733.5" y="-22" font-family="Helvetica,sans-Serif" font-size="10.00">/librepcbproject/circuit</text>
<text text-anchor="middle" x="788" y="-9" font-family="Helvetica,sans-Serif" font-size="10.00">/netsignal.cpp</text>
</a>
</g>
<!-- Node1&#45;&gt;Node7 -->
<g id="edge12" class="edge"><title>Node1&#45;&gt;Node7</title>
<path fill="none" stroke="midnightblue" d="M788,-87.8357C788,-79.1098 788,-69.7898 788,-61.274"/>
<polygon fill="midnightblue" stroke="midnightblue" points="784.5,-88.0908 788,-98.0908 791.5,-88.0909 784.5,-88.0908"/>
</g>
<!-- Node8 -->
<g id="node15" class="node"><title>Node8</title>
<a xlink:href="../../d7/d59/ercmsg_8cpp.html" target="_top" xlink:title="/home/travis/build\l/LibrePCB/LibrePCB/libs\l/librepcbproject/erc/ercmsg.cpp">
<polygon fill="white" stroke="black" points="867.5,-7.5 867.5,-54.5 1020.5,-54.5 1020.5,-7.5 867.5,-7.5"/>
<text text-anchor="start" x="875.5" y="-41.5" font-family="Helvetica,sans-Serif" font-size="10.00">/home/travis/build</text>
<text text-anchor="start" x="875.5" y="-28.5" font-family="Helvetica,sans-Serif" font-size="10.00">/LibrePCB/LibrePCB/libs</text>
<text text-anchor="middle" x="944" y="-15.5" font-family="Helvetica,sans-Serif" font-size="10.00">/librepcbproject/erc/ercmsg.cpp</text>
</a>
</g>
<!-- Node1&#45;&gt;Node8 -->
<g id="edge14" class="edge"><title>Node1&#45;&gt;Node8</title>
<path fill="none" stroke="midnightblue" d="M837.493,-93.1289C858.814,-80.6916 883.431,-66.3321 903.623,-54.5531"/>
<polygon fill="midnightblue" stroke="midnightblue" points="835.454,-90.2664 828.58,-98.3284 838.981,-96.3128 835.454,-90.2664"/>
</g>
<!-- Node9 -->
<g id="node17" class="node"><title>Node9</title>
<a xlink:href="../../d0/d69/ercmsglist_8cpp.html" target="_top" xlink:title="/home/travis/build\l/LibrePCB/LibrePCB/libs\l/librepcbproject/erc/ercmsglist.cpp">
<polygon fill="white" stroke="black" points="1038,-7.5 1038,-54.5 1204,-54.5 1204,-7.5 1038,-7.5"/>
<text text-anchor="start" x="1046" y="-41.5" font-family="Helvetica,sans-Serif" font-size="10.00">/home/travis/build</text>
<text text-anchor="start" x="1046" y="-28.5" font-family="Helvetica,sans-Serif" font-size="10.00">/LibrePCB/LibrePCB/libs</text>
<text text-anchor="middle" x="1121" y="-15.5" font-family="Helvetica,sans-Serif" font-size="10.00">/librepcbproject/erc/ercmsglist.cpp</text>
</a>
</g>
<!-- Node1&#45;&gt;Node9 -->
<g id="edge16" class="edge"><title>Node1&#45;&gt;Node9</title>
<path fill="none" stroke="midnightblue" d="M869.394,-103.471C916.309,-92.3587 976.262,-77.4226 1029,-62 1036.85,-59.7056 1045.02,-57.1678 1053.12,-54.5614"/>
<polygon fill="midnightblue" stroke="midnightblue" points="868.518,-100.081 859.588,-105.783 870.124,-106.895 868.518,-100.081"/>
</g>
<!-- Node10 -->
<g id="node19" class="node"><title>Node10</title>
<a xlink:href="../../d9/d0a/si__netpoint_8cpp.html" target="_top" xlink:title="/home/travis/build\l/LibrePCB/LibrePCB/libs\l/librepcbproject/schematics\l/items/si_netpoint.cpp">
<polygon fill="white" stroke="black" points="1222,-1 1222,-61 1358,-61 1358,-1 1222,-1"/>
<text text-anchor="start" x="1230" y="-48" font-family="Helvetica,sans-Serif" font-size="10.00">/home/travis/build</text>
<text text-anchor="start" x="1230" y="-35" font-family="Helvetica,sans-Serif" font-size="10.00">/LibrePCB/LibrePCB/libs</text>
<text text-anchor="start" x="1230" y="-22" font-family="Helvetica,sans-Serif" font-size="10.00">/librepcbproject/schematics</text>
<text text-anchor="middle" x="1290" y="-9" font-family="Helvetica,sans-Serif" font-size="10.00">/items/si_netpoint.cpp</text>
</a>
</g>
<!-- Node1&#45;&gt;Node10 -->
<g id="edge18" class="edge"><title>Node1&#45;&gt;Node10</title>
<path fill="none" stroke="midnightblue" d="M869.755,-116.372C956.202,-109.055 1095.98,-93.317 1213,-62 1215.92,-61.2176 1218.89,-60.355 1221.86,-59.4306"/>
<polygon fill="midnightblue" stroke="midnightblue" points="869.419,-112.887 859.742,-117.201 869.997,-119.863 869.419,-112.887"/>
</g>
<!-- Node11 -->
<g id="node21" class="node"><title>Node11</title>
<a xlink:href="../../d5/d35/si__symbolpin_8cpp.html" target="_top" xlink:title="/home/travis/build\l/LibrePCB/LibrePCB/libs\l/librepcbproject/schematics\l/items/si_symbolpin.cpp">
<polygon fill="white" stroke="black" points="1376,-1 1376,-61 1512,-61 1512,-1 1376,-1"/>
<text text-anchor="start" x="1384" y="-48" font-family="Helvetica,sans-Serif" font-size="10.00">/home/travis/build</text>
<text text-anchor="start" x="1384" y="-35" font-family="Helvetica,sans-Serif" font-size="10.00">/LibrePCB/LibrePCB/libs</text>
<text text-anchor="start" x="1384" y="-22" font-family="Helvetica,sans-Serif" font-size="10.00">/librepcbproject/schematics</text>
<text text-anchor="middle" x="1444" y="-9" font-family="Helvetica,sans-Serif" font-size="10.00">/items/si_symbolpin.cpp</text>
</a>
</g>
<!-- Node1&#45;&gt;Node11 -->
<g id="edge20" class="edge"><title>Node1&#45;&gt;Node11</title>
<path fill="none" stroke="midnightblue" d="M869.507,-116.375C1005.98,-106.484 1274.83,-84.848 1367,-62 1369.94,-61.2718 1372.91,-60.4545 1375.9,-59.5676"/>
<polygon fill="midnightblue" stroke="midnightblue" points="869.237,-112.885 859.514,-117.095 869.74,-119.867 869.237,-112.885"/>
</g>
<!-- Node12 -->
<g id="node23" class="node"><title>Node12</title>
<a xlink:href="../../d5/da3/ercmsgdock_8cpp.html" target="_top" xlink:title="/home/travis/build\l/LibrePCB/LibrePCB/libs\l/librepcbprojecteditor\l/docks/ercmsgdock.cpp">
<polygon fill="white" stroke="black" points="1529.5,-1 1529.5,-61 1654.5,-61 1654.5,-1 1529.5,-1"/>
<text text-anchor="start" x="1537.5" y="-48" font-family="Helvetica,sans-Serif" font-size="10.00">/home/travis/build</text>
<text text-anchor="start" x="1537.5" y="-35" font-family="Helvetica,sans-Serif" font-size="10.00">/LibrePCB/LibrePCB/libs</text>
<text text-anchor="start" x="1537.5" y="-22" font-family="Helvetica,sans-Serif" font-size="10.00">/librepcbprojecteditor</text>
<text text-anchor="middle" x="1592" y="-9" font-family="Helvetica,sans-Serif" font-size="10.00">/docks/ercmsgdock.cpp</text>
</a>
</g>
<!-- Node1&#45;&gt;Node12 -->
<g id="edge22" class="edge"><title>Node1&#45;&gt;Node12</title>
<path fill="none" stroke="midnightblue" d="M869.564,-118.708C1033.92,-111.521 1399.57,-92.5761 1521,-62 1523.74,-61.3103 1526.51,-60.5252 1529.28,-59.6649"/>
<polygon fill="midnightblue" stroke="midnightblue" points="869.348,-115.214 859.509,-119.144 869.651,-122.208 869.348,-115.214"/>
</g>
</g>
</svg>
