<?xml version="1.0" encoding="UTF-8" standalone="no"?>
<!DOCTYPE svg PUBLIC "-//W3C//DTD SVG 1.1//EN"
 "http://www.w3.org/Graphics/SVG/1.1/DTD/svg11.dtd">
<!-- Generated by graphviz version 2.26.3 (20100126.1600)
 -->
<!-- Title: on_actionRescanLibrary_triggered Pages: 1 -->
<svg width="878pt" height="790pt"
 viewBox="0.00 0.00 878.00 790.00" xmlns="http://www.w3.org/2000/svg" xmlns:xlink="http://www.w3.org/1999/xlink">
<g id="graph1" class="graph" transform="scale(1 1) rotate(0) translate(4 786)">
<title>on_actionRescanLibrary_triggered</title>
<polygon fill="white" stroke="white" points="-4,5 -4,-786 875,-786 875,5 -4,5"/>
<!-- Node1 -->
<g id="node1" class="node"><title>Node1</title>
<polygon fill="#bfbfbf" stroke="black" points="0,-451 0,-485 122,-485 122,-451 0,-451"/>
<text text-anchor="start" x="8" y="-472" font-family="Helvetica,sans-Serif" font-size="10.00">on_actionRescanLibrary</text>
<text text-anchor="middle" x="61" y="-459" font-family="Helvetica,sans-Serif" font-size="10.00">_triggered</text>
</g>
<!-- Node2 -->
<g id="node3" class="node"><title>Node2</title>
<a xlink:href="../../d5/d56/class_workspace.html#a0aaab7f8db4623adc7227460a859db51" target="_top" xlink:title="Get the workspace library. ">
<polygon fill="white" stroke="black" points="160.5,-497.5 160.5,-518.5 275.5,-518.5 275.5,-497.5 160.5,-497.5"/>
<text text-anchor="middle" x="218" y="-505.5" font-family="Helvetica,sans-Serif" font-size="10.00">Workspace::getLibrary</text>
</a>
</g>
<!-- Node1&#45;&gt;Node2 -->
<g id="edge2" class="edge"><title>Node1&#45;&gt;Node2</title>
<path fill="none" stroke="midnightblue" d="M122.15,-483.58C136.838,-487.322 152.379,-491.281 166.574,-494.898"/>
<polygon fill="midnightblue" stroke="midnightblue" points="166.086,-498.385 176.641,-497.463 167.815,-491.602 166.086,-498.385"/>
</g>
<!-- Node3 -->
<g id="node5" class="node"><title>Node3</title>
<a xlink:href="../../de/d02/classlibrary_1_1_library.html#abf6f5a1b41bdc95e7b0602fbab2219a7" target="_top" xlink:title="Rescan the whole library directory and update the SQLite database. ">
<polygon fill="white" stroke="black" points="161.5,-457.5 161.5,-478.5 274.5,-478.5 274.5,-457.5 161.5,-457.5"/>
<text text-anchor="middle" x="218" y="-465.5" font-family="Helvetica,sans-Serif" font-size="10.00">library::Library::rescan</text>
</a>
</g>
<!-- Node1&#45;&gt;Node3 -->
<g id="edge4" class="edge"><title>Node1&#45;&gt;Node3</title>
<path fill="none" stroke="midnightblue" d="M122.15,-468C131.634,-468 141.474,-468 151.078,-468"/>
<polygon fill="midnightblue" stroke="midnightblue" points="151.378,-471.5 161.378,-468 151.378,-464.5 151.378,-471.5"/>
</g>
<!-- Node28 -->
<g id="node67" class="node"><title>Node28</title>
<a xlink:href="../../df/d70/class_exception.html#aa530ab8cc747843c76a435c3075ed094" target="_top" xlink:title="Get the user error message (translated) ">
<polygon fill="white" stroke="black" points="158.5,-417.5 158.5,-438.5 277.5,-438.5 277.5,-417.5 158.5,-417.5"/>
<text text-anchor="middle" x="218" y="-425.5" font-family="Helvetica,sans-Serif" font-size="10.00">Exception::getUserMsg</text>
</a>
</g>
<!-- Node1&#45;&gt;Node28 -->
<g id="edge78" class="edge"><title>Node1&#45;&gt;Node28</title>
<path fill="none" stroke="midnightblue" d="M122.15,-452.42C136.838,-448.678 152.379,-444.719 166.574,-441.102"/>
<polygon fill="midnightblue" stroke="midnightblue" points="167.815,-444.398 176.641,-438.537 166.086,-437.615 167.815,-444.398"/>
</g>
<!-- Node4 -->
<g id="node7" class="node"><title>Node4</title>
<a xlink:href="../../de/d02/classlibrary_1_1_library.html#a7252d2908c652122452d1f47b8c7bb16" target="_top" xlink:title="library::Library::clearDatabase\lAndCreateTables">
<polygon fill="white" stroke="black" points="330.5,-708 330.5,-742 477.5,-742 477.5,-708 330.5,-708"/>
<text text-anchor="start" x="338.5" y="-729" font-family="Helvetica,sans-Serif" font-size="10.00">library::Library::clearDatabase</text>
<text text-anchor="middle" x="404" y="-716" font-family="Helvetica,sans-Serif" font-size="10.00">AndCreateTables</text>
</a>
</g>
<!-- Node3&#45;&gt;Node4 -->
<g id="edge6" class="edge"><title>Node3&#45;&gt;Node4</title>
<path fill="none" stroke="midnightblue" d="M263.967,-478.545C269.093,-481.054 273.926,-484.158 278,-488 309.345,-517.555 294.684,-539.492 314,-578 336.155,-622.168 367.175,-670.519 386.405,-699.279"/>
<polygon fill="midnightblue" stroke="midnightblue" points="383.72,-701.558 392.208,-707.898 389.527,-697.648 383.72,-701.558"/>
</g>
<!-- Node7 -->
<g id="node13" class="node"><title>Node7</title>
<a xlink:href="../../de/d02/classlibrary_1_1_library.html#af2169476bf038e2de29eb968e25c561e" target="_top" xlink:title="library::Library::getAll\lXmlFilesInLibDir">
<polygon fill="white" stroke="black" points="349.5,-535 349.5,-569 458.5,-569 458.5,-535 349.5,-535"/>
<text text-anchor="start" x="357.5" y="-556" font-family="Helvetica,sans-Serif" font-size="10.00">library::Library::getAll</text>
<text text-anchor="middle" x="404" y="-543" font-family="Helvetica,sans-Serif" font-size="10.00">XmlFilesInLibDir</text>
</a>
</g>
<!-- Node3&#45;&gt;Node7 -->
<g id="edge12" class="edge"><title>Node3&#45;&gt;Node7</title>
<path fill="none" stroke="midnightblue" d="M252.592,-478.558C260.997,-481.389 269.895,-484.613 278,-488 307.708,-500.416 340.07,-516.921 364.557,-530.06"/>
<polygon fill="midnightblue" stroke="midnightblue" points="363.073,-533.237 373.534,-534.915 366.403,-527.079 363.073,-533.237"/>
</g>
<!-- Node9 -->
<g id="node17" class="node"><title>Node9</title>
<a xlink:href="../../de/d02/classlibrary_1_1_library.html#a186f36ac4cac0a49367b5bf9923e4680" target="_top" xlink:title="library::Library::addPackagesToDb">
<polygon fill="white" stroke="black" points="320.5,-270.5 320.5,-291.5 487.5,-291.5 487.5,-270.5 320.5,-270.5"/>
<text text-anchor="middle" x="404" y="-278.5" font-family="Helvetica,sans-Serif" font-size="10.00">library::Library::addPackagesToDb</text>
</a>
</g>
<!-- Node3&#45;&gt;Node9 -->
<g id="edge16" class="edge"><title>Node3&#45;&gt;Node9</title>
<path fill="none" stroke="midnightblue" d="M263.559,-457.488C268.815,-454.972 273.79,-451.857 278,-448 307.649,-420.838 290.815,-397.852 314,-365 332.871,-338.26 361.366,-313.456 381.222,-297.838"/>
<polygon fill="midnightblue" stroke="midnightblue" points="383.365,-300.605 389.149,-291.729 379.091,-295.061 383.365,-300.605"/>
</g>
<!-- Node25 -->
<g id="node51" class="node"><title>Node25</title>
<a xlink:href="../../de/d02/classlibrary_1_1_library.html#aec416b88c369dd6f94af6e524b46df0e" target="_top" xlink:title="library::Library::addComponentsToDb">
<polygon fill="white" stroke="black" points="314.5,-374.5 314.5,-395.5 493.5,-395.5 493.5,-374.5 314.5,-374.5"/>
<text text-anchor="middle" x="404" y="-382.5" font-family="Helvetica,sans-Serif" font-size="10.00">library::Library::addComponentsToDb</text>
</a>
</g>
<!-- Node3&#45;&gt;Node25 -->
<g id="edge52" class="edge"><title>Node3&#45;&gt;Node25</title>
<path fill="none" stroke="midnightblue" d="M252.577,-457.405C260.982,-454.575 269.885,-451.362 278,-448 312.461,-433.726 350.583,-414.099 375.772,-400.563"/>
<polygon fill="midnightblue" stroke="midnightblue" points="377.631,-403.537 384.758,-395.698 374.298,-397.381 377.631,-403.537"/>
</g>
<!-- Node5 -->
<g id="node9" class="node"><title>Node5</title>
<a xlink:href="../../de/d02/classlibrary_1_1_library.html#a4e341ac749738a97962a224277794303" target="_top" xlink:title="library::Library::prepare\lQuery">
<polygon fill="white" stroke="black" points="555,-708 555,-742 671,-742 671,-708 555,-708"/>
<text text-anchor="start" x="563" y="-729" font-family="Helvetica,sans-Serif" font-size="10.00">library::Library::prepare</text>
<text text-anchor="middle" x="613" y="-716" font-family="Helvetica,sans-Serif" font-size="10.00">Query</text>
</a>
</g>
<!-- Node4&#45;&gt;Node5 -->
<g id="edge8" class="edge"><title>Node4&#45;&gt;Node5</title>
<path fill="none" stroke="midnightblue" d="M477.686,-725C499.499,-725 523.279,-725 544.734,-725"/>
<polygon fill="midnightblue" stroke="midnightblue" points="544.735,-728.5 554.735,-725 544.735,-721.5 544.735,-728.5"/>
</g>
<!-- Node6 -->
<g id="node11" class="node"><title>Node6</title>
<a xlink:href="../../de/d02/classlibrary_1_1_library.html#aa3f504ec425bb6a3578ffd34ccc51cb7" target="_top" xlink:title="library::Library::execQuery">
<polygon fill="white" stroke="black" points="547.5,-760.5 547.5,-781.5 678.5,-781.5 678.5,-760.5 547.5,-760.5"/>
<text text-anchor="middle" x="613" y="-768.5" font-family="Helvetica,sans-Serif" font-size="10.00">library::Library::execQuery</text>
</a>
</g>
<!-- Node4&#45;&gt;Node6 -->
<g id="edge10" class="edge"><title>Node4&#45;&gt;Node6</title>
<path fill="none" stroke="midnightblue" d="M477.686,-741.218C503.085,-746.808 531.153,-752.986 555.11,-758.259"/>
<polygon fill="midnightblue" stroke="midnightblue" points="554.587,-761.727 565.105,-760.459 556.092,-754.891 554.587,-761.727"/>
</g>
<!-- Node8 -->
<g id="node15" class="node"><title>Node8</title>
<a xlink:href="../../d4/d1c/class_file_path.html#a39a0bbf3901de18041fb5c324ecf412a" target="_top" xlink:title="Get the absolute and well&#45;formatted filepath as a QString. ">
<polygon fill="white" stroke="black" points="573,-668.5 573,-689.5 653,-689.5 653,-668.5 573,-668.5"/>
<text text-anchor="middle" x="613" y="-676.5" font-family="Helvetica,sans-Serif" font-size="10.00">FilePath::toStr</text>
</a>
</g>
<!-- Node7&#45;&gt;Node8 -->
<g id="edge14" class="edge"><title>Node7&#45;&gt;Node8</title>
<path fill="none" stroke="midnightblue" d="M419.281,-569.301C441.334,-593.165 484.462,-635.854 530,-659 540.22,-664.194 551.84,-668.076 563.082,-670.963"/>
<polygon fill="midnightblue" stroke="midnightblue" points="562.284,-674.371 572.82,-673.253 563.887,-667.557 562.284,-674.371"/>
</g>
<!-- Node10 -->
<g id="node19" class="node"><title>Node10</title>
<a xlink:href="../../d4/d1c/class_file_path.html#ab03554821fd99cccf6f55a6686bcdc0d" target="_top" xlink:title="Get the filepath of the parent directory of the file or directory. ">
<polygon fill="white" stroke="black" points="556.5,-172.5 556.5,-193.5 669.5,-193.5 669.5,-172.5 556.5,-172.5"/>
<text text-anchor="middle" x="613" y="-180.5" font-family="Helvetica,sans-Serif" font-size="10.00">FilePath::getParentDir</text>
</a>
</g>
<!-- Node9&#45;&gt;Node10 -->
<g id="edge18" class="edge"><title>Node9&#45;&gt;Node10</title>
<path fill="none" stroke="midnightblue" d="M417.927,-270.288C440.335,-253.551 486.314,-221.233 530,-203 535.835,-200.565 542.03,-198.386 548.302,-196.445"/>
<polygon fill="midnightblue" stroke="midnightblue" points="549.548,-199.729 558.183,-193.59 547.605,-193.004 549.548,-199.729"/>
</g>
<!-- Node13 -->
<g id="node25" class="node"><title>Node13</title>
<a xlink:href="../../d4/d1c/class_file_path.html#a6b8813b995eae08609c56e147fb14b2c" target="_top" xlink:title="Convert an absolute filepath to a relative filepath (relative to another filepath) ...">
<polygon fill="white" stroke="black" points="561.5,-132.5 561.5,-153.5 664.5,-153.5 664.5,-132.5 561.5,-132.5"/>
<text text-anchor="middle" x="613" y="-140.5" font-family="Helvetica,sans-Serif" font-size="10.00">FilePath::toRelative</text>
</a>
</g>
<!-- Node9&#45;&gt;Node13 -->
<g id="edge24" class="edge"><title>Node9&#45;&gt;Node13</title>
<path fill="none" stroke="midnightblue" d="M412.151,-270.265C430.486,-246.908 477.505,-191.307 530,-163 536.788,-159.34 544.246,-156.341 551.82,-153.886"/>
<polygon fill="midnightblue" stroke="midnightblue" points="552.829,-157.238 561.435,-151.059 550.854,-150.522 552.829,-157.238"/>
</g>
<!-- Node14 -->
<g id="node27" class="node"><title>Node14</title>
<a xlink:href="../../dd/d8a/classlibrary_1_1_library_base_element.html#ada9b237a8629c03e16491a72730b456b" target="_top" xlink:title="library::LibraryBaseElement\l::getUuid">
<polygon fill="white" stroke="black" points="544.5,-80 544.5,-114 681.5,-114 681.5,-80 544.5,-80"/>
<text text-anchor="start" x="552.5" y="-101" font-family="Helvetica,sans-Serif" font-size="10.00">library::LibraryBaseElement</text>
<text text-anchor="middle" x="613" y="-88" font-family="Helvetica,sans-Serif" font-size="10.00">::getUuid</text>
</a>
</g>
<!-- Node9&#45;&gt;Node14 -->
<g id="edge26" class="edge"><title>Node9&#45;&gt;Node14</title>
<path fill="none" stroke="midnightblue" d="M409.496,-270.361C424.681,-242.016 470.083,-164.043 530,-123 532.258,-121.453 534.612,-119.995 537.038,-118.621"/>
<polygon fill="midnightblue" stroke="midnightblue" points="538.771,-121.666 546.088,-114.004 535.59,-115.431 538.771,-121.666"/>
</g>
<!-- Node15 -->
<g id="node29" class="node"><title>Node15</title>
<a xlink:href="../../dd/d8a/classlibrary_1_1_library_base_element.html#aca4dbb3f44caf7609755d9b9b1bd97e9" target="_top" xlink:title="library::LibraryBaseElement\l::getVersion">
<polygon fill="white" stroke="black" points="544.5,-512 544.5,-546 681.5,-546 681.5,-512 544.5,-512"/>
<text text-anchor="start" x="552.5" y="-533" font-family="Helvetica,sans-Serif" font-size="10.00">library::LibraryBaseElement</text>
<text text-anchor="middle" x="613" y="-520" font-family="Helvetica,sans-Serif" font-size="10.00">::getVersion</text>
</a>
</g>
<!-- Node9&#45;&gt;Node15 -->
<g id="edge28" class="edge"><title>Node9&#45;&gt;Node15</title>
<path fill="none" stroke="midnightblue" d="M419.926,-291.501C440.224,-305.729 474.959,-333.055 494,-365 526.454,-419.447 486.277,-457.108 530,-503 531.823,-504.913 533.784,-506.686 535.857,-508.33"/>
<polygon fill="midnightblue" stroke="midnightblue" points="534.095,-511.363 544.344,-514.046 538.005,-505.557 534.095,-511.363"/>
</g>
<!-- Node16 -->
<g id="node31" class="node"><title>Node16</title>
<a xlink:href="../../de/d34/class_version.html#a39a0bbf3901de18041fb5c324ecf412a" target="_top" xlink:title="Get the version as a string in the format &quot;1.2.3&quot;. ">
<polygon fill="white" stroke="black" points="574.5,-472.5 574.5,-493.5 651.5,-493.5 651.5,-472.5 574.5,-472.5"/>
<text text-anchor="middle" x="613" y="-480.5" font-family="Helvetica,sans-Serif" font-size="10.00">Version::toStr</text>
</a>
</g>
<!-- Node9&#45;&gt;Node16 -->
<g id="edge30" class="edge"><title>Node9&#45;&gt;Node16</title>
<path fill="none" stroke="midnightblue" d="M419.117,-291.547C438.854,-306.026 473.316,-333.836 494,-365 519.66,-403.661 495.349,-432.139 530,-463 539.52,-471.479 552.012,-476.518 564.404,-479.471"/>
<polygon fill="midnightblue" stroke="midnightblue" points="563.773,-482.914 574.262,-481.419 565.13,-476.047 563.773,-482.914"/>
</g>
<!-- Node17 -->
<g id="node33" class="node"><title>Node17</title>
<a xlink:href="../../d1/dcf/classlibrary_1_1_package.html#a2f56ac0d7791d53afa6b21e426b59428" target="_top" xlink:title="library::Package::getFootprintUuid">
<polygon fill="white" stroke="black" points="530.5,-0.5 530.5,-21.5 695.5,-21.5 695.5,-0.5 530.5,-0.5"/>
<text text-anchor="middle" x="613" y="-8.5" font-family="Helvetica,sans-Serif" font-size="10.00">library::Package::getFootprintUuid</text>
</a>
</g>
<!-- Node9&#45;&gt;Node17 -->
<g id="edge32" class="edge"><title>Node9&#45;&gt;Node17</title>
<path fill="none" stroke="midnightblue" d="M406.016,-270.46C413.978,-231.828 446.963,-96.8142 530,-31 532.084,-29.3485 534.283,-27.8303 536.571,-26.4348"/>
<polygon fill="midnightblue" stroke="midnightblue" points="538.53,-29.361 545.783,-21.6379 535.297,-23.1523 538.53,-29.361"/>
</g>
<!-- Node18 -->
<g id="node35" class="node"><title>Node18</title>
<a xlink:href="../../d1/dcf/classlibrary_1_1_package.html#a5fbb69612a8272e02bd5d9eb1cbe58cc" target="_top" xlink:title="library::Package::getModel3dUuid">
<polygon fill="white" stroke="black" points="531,-40.5 531,-61.5 695,-61.5 695,-40.5 531,-40.5"/>
<text text-anchor="middle" x="613" y="-48.5" font-family="Helvetica,sans-Serif" font-size="10.00">library::Package::getModel3dUuid</text>
</a>
</g>
<!-- Node9&#45;&gt;Node18 -->
<g id="edge34" class="edge"><title>Node9&#45;&gt;Node18</title>
<path fill="none" stroke="midnightblue" d="M407.14,-270.246C417.889,-235.418 456.663,-124.855 530,-71 532.488,-69.1727 535.121,-67.5103 537.858,-65.9982"/>
<polygon fill="midnightblue" stroke="midnightblue" points="539.402,-69.1397 546.907,-61.6619 536.377,-62.8271 539.402,-69.1397"/>
</g>
<!-- Node19 -->
<g id="node37" class="node"><title>Node19</title>
<a xlink:href="../../dd/d8a/classlibrary_1_1_library_base_element.html#a30ba02075765b27b4215a8b5347ea8dd" target="_top" xlink:title="library::LibraryBaseElement\l::getAllAvailableLocales">
<polygon fill="white" stroke="black" points="544.5,-420 544.5,-454 681.5,-454 681.5,-420 544.5,-420"/>
<text text-anchor="start" x="552.5" y="-441" font-family="Helvetica,sans-Serif" font-size="10.00">library::LibraryBaseElement</text>
<text text-anchor="middle" x="613" y="-428" font-family="Helvetica,sans-Serif" font-size="10.00">::getAllAvailableLocales</text>
</a>
</g>
<!-- Node9&#45;&gt;Node19 -->
<g id="edge36" class="edge"><title>Node9&#45;&gt;Node19</title>
<path fill="none" stroke="midnightblue" d="M416.512,-291.573C434.447,-306.967 468.148,-336.798 494,-365 511.543,-384.137 508.649,-396.231 530,-411 532.119,-412.466 534.324,-413.852 536.595,-415.162"/>
<polygon fill="midnightblue" stroke="midnightblue" points="535.143,-418.352 545.632,-419.848 538.366,-412.137 535.143,-418.352"/>
</g>
<!-- Node20 -->
<g id="node39" class="node"><title>Node20</title>
<a xlink:href="../../dd/d8a/classlibrary_1_1_library_base_element.html#a01f0309d43de518f4e94c724d22f4502" target="_top" xlink:title="library::LibraryBaseElement\l::getName">
<polygon fill="white" stroke="black" points="544.5,-368 544.5,-402 681.5,-402 681.5,-368 544.5,-368"/>
<text text-anchor="start" x="552.5" y="-389" font-family="Helvetica,sans-Serif" font-size="10.00">library::LibraryBaseElement</text>
<text text-anchor="middle" x="613" y="-376" font-family="Helvetica,sans-Serif" font-size="10.00">::getName</text>
</a>
</g>
<!-- Node9&#45;&gt;Node20 -->
<g id="edge38" class="edge"><title>Node9&#45;&gt;Node20</title>
<path fill="none" stroke="midnightblue" d="M418.449,-291.634C441.195,-307.974 487.184,-339.419 530,-359 534.049,-360.852 538.266,-362.622 542.559,-364.304"/>
<polygon fill="midnightblue" stroke="midnightblue" points="541.45,-367.626 552.043,-367.846 543.899,-361.069 541.45,-367.626"/>
</g>
<!-- Node22 -->
<g id="node43" class="node"><title>Node22</title>
<a xlink:href="../../dd/d8a/classlibrary_1_1_library_base_element.html#a0e5b7dc7eca3c6468aa85375bf2c3dde" target="_top" xlink:title="library::LibraryBaseElement\l::getDescription">
<polygon fill="white" stroke="black" points="544.5,-316 544.5,-350 681.5,-350 681.5,-316 544.5,-316"/>
<text text-anchor="start" x="552.5" y="-337" font-family="Helvetica,sans-Serif" font-size="10.00">library::LibraryBaseElement</text>
<text text-anchor="middle" x="613" y="-324" font-family="Helvetica,sans-Serif" font-size="10.00">::getDescription</text>
</a>
</g>
<!-- Node9&#45;&gt;Node22 -->
<g id="edge42" class="edge"><title>Node9&#45;&gt;Node22</title>
<path fill="none" stroke="midnightblue" d="M446.294,-291.523C471.585,-297.815 504.518,-306.009 534.427,-313.451"/>
<polygon fill="midnightblue" stroke="midnightblue" points="533.89,-316.924 544.439,-315.942 535.58,-310.131 533.89,-316.924"/>
</g>
<!-- Node23 -->
<g id="node46" class="node"><title>Node23</title>
<a xlink:href="../../dd/d8a/classlibrary_1_1_library_base_element.html#aa727a7c7c573ac31926f21ec507aec76" target="_top" xlink:title="library::LibraryBaseElement\l::getKeywords">
<polygon fill="white" stroke="black" points="544.5,-264 544.5,-298 681.5,-298 681.5,-264 544.5,-264"/>
<text text-anchor="start" x="552.5" y="-285" font-family="Helvetica,sans-Serif" font-size="10.00">library::LibraryBaseElement</text>
<text text-anchor="middle" x="613" y="-272" font-family="Helvetica,sans-Serif" font-size="10.00">::getKeywords</text>
</a>
</g>
<!-- Node9&#45;&gt;Node23 -->
<g id="edge46" class="edge"><title>Node9&#45;&gt;Node23</title>
<path fill="none" stroke="midnightblue" d="M487.503,-281C502.839,-281 518.803,-281 534.001,-281"/>
<polygon fill="midnightblue" stroke="midnightblue" points="534.384,-284.5 544.384,-281 534.384,-277.5 534.384,-284.5"/>
</g>
<!-- Node24 -->
<g id="node49" class="node"><title>Node24</title>
<a xlink:href="../../d8/dff/classlibrary_1_1_library_element.html#a241430479fd91d5097b16cf9752673d8" target="_top" xlink:title="library::LibraryElement\l::getCategories">
<polygon fill="white" stroke="black" points="556,-212 556,-246 670,-246 670,-212 556,-212"/>
<text text-anchor="start" x="564" y="-233" font-family="Helvetica,sans-Serif" font-size="10.00">library::LibraryElement</text>
<text text-anchor="middle" x="613" y="-220" font-family="Helvetica,sans-Serif" font-size="10.00">::getCategories</text>
</a>
</g>
<!-- Node9&#45;&gt;Node24 -->
<g id="edge50" class="edge"><title>Node9&#45;&gt;Node24</title>
<path fill="none" stroke="midnightblue" d="M446.294,-270.477C474.832,-263.377 513.1,-253.856 545.774,-245.726"/>
<polygon fill="midnightblue" stroke="midnightblue" points="546.858,-249.063 555.717,-243.252 545.168,-242.27 546.858,-249.063"/>
</g>
<!-- Node11 -->
<g id="node21" class="node"><title>Node11</title>
<a xlink:href="../../d4/d1c/class_file_path.html#a329a3fd87c1339c347833a8026e24c80" target="_top" xlink:title="Check if the specified filepath is the root directory. ">
<polygon fill="white" stroke="black" points="757.5,-192.5 757.5,-213.5 844.5,-213.5 844.5,-192.5 757.5,-192.5"/>
<text text-anchor="middle" x="801" y="-200.5" font-family="Helvetica,sans-Serif" font-size="10.00">FilePath::isRoot</text>
</a>
</g>
<!-- Node10&#45;&gt;Node11 -->
<g id="edge20" class="edge"><title>Node10&#45;&gt;Node11</title>
<path fill="none" stroke="midnightblue" d="M669.661,-189.028C694.257,-191.644 722.927,-194.694 747.193,-197.276"/>
<polygon fill="midnightblue" stroke="midnightblue" points="746.984,-200.773 757.298,-198.351 747.725,-193.813 746.984,-200.773"/>
</g>
<!-- Node12 -->
<g id="node23" class="node"><title>Node12</title>
<a xlink:href="../../d4/d1c/class_file_path.html#abad2142d090ea829d85560b03d47d98f" target="_top" xlink:title="The default constructor (this will create an invalid object!) ">
<polygon fill="white" stroke="black" points="753.5,-152.5 753.5,-173.5 848.5,-173.5 848.5,-152.5 753.5,-152.5"/>
<text text-anchor="middle" x="801" y="-160.5" font-family="Helvetica,sans-Serif" font-size="10.00">FilePath::FilePath</text>
</a>
</g>
<!-- Node10&#45;&gt;Node12 -->
<g id="edge22" class="edge"><title>Node10&#45;&gt;Node12</title>
<path fill="none" stroke="midnightblue" d="M669.661,-176.972C692.923,-174.498 719.828,-171.635 743.207,-169.148"/>
<polygon fill="midnightblue" stroke="midnightblue" points="743.757,-172.61 753.33,-168.071 743.016,-165.649 743.757,-172.61"/>
</g>
<!-- Node21 -->
<g id="node41" class="node"><title>Node21</title>
<a xlink:href="../../dd/d8a/classlibrary_1_1_library_base_element.html#a3de489fd5ff14ef1709e7ba41628ab3e" target="_top" xlink:title="Get the string of a specific locale from a QMap. ">
<polygon fill="white" stroke="black" points="732.5,-316 732.5,-350 869.5,-350 869.5,-316 732.5,-316"/>
<text text-anchor="start" x="740.5" y="-337" font-family="Helvetica,sans-Serif" font-size="10.00">library::LibraryBaseElement</text>
<text text-anchor="middle" x="801" y="-324" font-family="Helvetica,sans-Serif" font-size="10.00">::localeStringFromList</text>
</a>
</g>
<!-- Node20&#45;&gt;Node21 -->
<g id="edge40" class="edge"><title>Node20&#45;&gt;Node21</title>
<path fill="none" stroke="midnightblue" d="M674.558,-367.973C692.168,-363.102 711.51,-357.753 729.654,-352.734"/>
<polygon fill="midnightblue" stroke="midnightblue" points="730.598,-356.104 739.303,-350.065 728.732,-349.358 730.598,-356.104"/>
</g>
<!-- Node22&#45;&gt;Node21 -->
<g id="edge44" class="edge"><title>Node22&#45;&gt;Node21</title>
<path fill="none" stroke="midnightblue" d="M681.67,-333C694.793,-333 708.628,-333 722.043,-333"/>
<polygon fill="midnightblue" stroke="midnightblue" points="722.201,-336.5 732.201,-333 722.201,-329.5 722.201,-336.5"/>
</g>
<!-- Node23&#45;&gt;Node21 -->
<g id="edge48" class="edge"><title>Node23&#45;&gt;Node21</title>
<path fill="none" stroke="midnightblue" d="M674.558,-298.027C692.168,-302.898 711.51,-308.247 729.654,-313.266"/>
<polygon fill="midnightblue" stroke="midnightblue" points="728.732,-316.642 739.303,-315.935 730.598,-309.896 728.732,-316.642"/>
</g>
<!-- Node25&#45;&gt;Node10 -->
<g id="edge54" class="edge"><title>Node25&#45;&gt;Node10</title>
<path fill="none" stroke="midnightblue" d="M419.117,-374.453C438.854,-359.974 473.316,-332.164 494,-301 519.66,-262.339 495.349,-233.861 530,-203 534.867,-198.666 540.51,-195.23 546.52,-192.513"/>
<polygon fill="midnightblue" stroke="midnightblue" points="548.117,-195.649 556.206,-188.807 545.616,-189.111 548.117,-195.649"/>
</g>
<!-- Node25&#45;&gt;Node13 -->
<g id="edge56" class="edge"><title>Node25&#45;&gt;Node13</title>
<path fill="none" stroke="midnightblue" d="M419.926,-374.499C440.224,-360.271 474.959,-332.945 494,-301 526.454,-246.553 484.762,-207.399 530,-163 536.083,-157.03 543.62,-152.733 551.652,-149.659"/>
<polygon fill="midnightblue" stroke="midnightblue" points="552.795,-152.968 561.25,-146.584 550.659,-146.301 552.795,-152.968"/>
</g>
<!-- Node25&#45;&gt;Node14 -->
<g id="edge58" class="edge"><title>Node25&#45;&gt;Node14</title>
<path fill="none" stroke="midnightblue" d="M420.558,-374.414C441.2,-360.29 475.959,-333.276 494,-301 533.382,-230.547 475.971,-182.962 530,-123 531.813,-120.988 533.78,-119.13 535.869,-117.415"/>
<polygon fill="midnightblue" stroke="midnightblue" points="538.229,-120.039 544.474,-111.481 534.255,-114.276 538.229,-120.039"/>
</g>
<!-- Node25&#45;&gt;Node15 -->
<g id="edge60" class="edge"><title>Node25&#45;&gt;Node15</title>
<path fill="none" stroke="midnightblue" d="M412.579,-395.822C431.401,-418.863 478.744,-473.099 530,-503 532.869,-504.674 535.859,-506.252 538.926,-507.739"/>
<polygon fill="midnightblue" stroke="midnightblue" points="537.761,-511.052 548.32,-511.928 540.612,-504.659 537.761,-511.052"/>
</g>
<!-- Node25&#45;&gt;Node16 -->
<g id="edge62" class="edge"><title>Node25&#45;&gt;Node16</title>
<path fill="none" stroke="midnightblue" d="M417.927,-395.712C440.335,-412.449 486.314,-444.767 530,-463 540.791,-467.504 552.814,-471.131 564.284,-473.994"/>
<polygon fill="midnightblue" stroke="midnightblue" points="563.641,-477.439 574.176,-476.317 565.241,-470.624 563.641,-477.439"/>
</g>
<!-- Node25&#45;&gt;Node19 -->
<g id="edge68" class="edge"><title>Node25&#45;&gt;Node19</title>
<path fill="none" stroke="midnightblue" d="M446.294,-395.523C471.585,-401.815 504.518,-410.009 534.427,-417.451"/>
<polygon fill="midnightblue" stroke="midnightblue" points="533.89,-420.924 544.439,-419.942 535.58,-414.131 533.89,-420.924"/>
</g>
<!-- Node25&#45;&gt;Node20 -->
<g id="edge70" class="edge"><title>Node25&#45;&gt;Node20</title>
<path fill="none" stroke="midnightblue" d="M493.544,-385C507.141,-385 521.082,-385 534.422,-385"/>
<polygon fill="midnightblue" stroke="midnightblue" points="534.49,-388.5 544.49,-385 534.49,-381.5 534.49,-388.5"/>
</g>
<!-- Node25&#45;&gt;Node22 -->
<g id="edge72" class="edge"><title>Node25&#45;&gt;Node22</title>
<path fill="none" stroke="midnightblue" d="M446.294,-374.477C471.585,-368.185 504.518,-359.991 534.427,-352.549"/>
<polygon fill="midnightblue" stroke="midnightblue" points="535.58,-355.869 544.439,-350.058 533.89,-349.076 535.58,-355.869"/>
</g>
<!-- Node25&#45;&gt;Node23 -->
<g id="edge74" class="edge"><title>Node25&#45;&gt;Node23</title>
<path fill="none" stroke="midnightblue" d="M418.449,-374.366C441.195,-358.026 487.184,-326.581 530,-307 534.049,-305.148 538.266,-303.378 542.559,-301.696"/>
<polygon fill="midnightblue" stroke="midnightblue" points="543.899,-304.931 552.043,-298.154 541.45,-298.374 543.899,-304.931"/>
</g>
<!-- Node25&#45;&gt;Node24 -->
<g id="edge76" class="edge"><title>Node25&#45;&gt;Node24</title>
<path fill="none" stroke="midnightblue" d="M416.512,-374.427C434.447,-359.033 468.148,-329.202 494,-301 511.543,-281.863 508.649,-269.769 530,-255 535.134,-251.448 540.775,-248.366 546.625,-245.693"/>
<polygon fill="midnightblue" stroke="midnightblue" points="548.053,-248.89 555.946,-241.823 545.369,-242.425 548.053,-248.89"/>
</g>
<!-- Node26 -->
<g id="node58" class="node"><title>Node26</title>
<a xlink:href="../../d3/dad/classlibrary_1_1_component.html#a88f1a973e2036997bc17ce0782c36587" target="_top" xlink:title="library::Component\l::getGenCompUuid">
<polygon fill="white" stroke="black" points="562.5,-564 562.5,-598 663.5,-598 663.5,-564 562.5,-564"/>
<text text-anchor="start" x="570.5" y="-585" font-family="Helvetica,sans-Serif" font-size="10.00">library::Component</text>
<text text-anchor="middle" x="613" y="-572" font-family="Helvetica,sans-Serif" font-size="10.00">::getGenCompUuid</text>
</a>
</g>
<!-- Node25&#45;&gt;Node26 -->
<g id="edge64" class="edge"><title>Node25&#45;&gt;Node26</title>
<path fill="none" stroke="midnightblue" d="M408.855,-395.586C423.045,-425.351 467.433,-510.497 530,-555 536.898,-559.907 544.756,-563.911 552.822,-567.174"/>
<polygon fill="midnightblue" stroke="midnightblue" points="551.747,-570.508 562.341,-570.672 554.162,-563.937 551.747,-570.508"/>
</g>
<!-- Node27 -->
<g id="node60" class="node"><title>Node27</title>
<a xlink:href="../../d3/dad/classlibrary_1_1_component.html#a2497cc4820790247b6ac9a1cdc00317d" target="_top" xlink:title="library::Component\l::getPackageUuid">
<polygon fill="white" stroke="black" points="563.5,-616 563.5,-650 662.5,-650 662.5,-616 563.5,-616"/>
<text text-anchor="start" x="571.5" y="-637" font-family="Helvetica,sans-Serif" font-size="10.00">library::Component</text>
<text text-anchor="middle" x="613" y="-624" font-family="Helvetica,sans-Serif" font-size="10.00">::getPackageUuid</text>
</a>
</g>
<!-- Node25&#45;&gt;Node27 -->
<g id="edge66" class="edge"><title>Node25&#45;&gt;Node27</title>
<path fill="none" stroke="midnightblue" d="M411.574,-395.634C427.827,-418.703 466.778,-475.351 494,-526 512.65,-560.701 500.593,-580.785 530,-607 536.87,-613.125 545.175,-617.807 553.84,-621.386"/>
<polygon fill="midnightblue" stroke="midnightblue" points="552.74,-624.71 563.334,-624.853 555.142,-618.135 552.74,-624.71"/>
</g>
</g>
</svg>
