<?xml version="1.0" encoding="UTF-8" standalone="no"?>
<!DOCTYPE svg PUBLIC "-//W3C//DTD SVG 1.1//EN"
 "http://www.w3.org/Graphics/SVG/1.1/DTD/svg11.dtd">
<!-- Generated by graphviz version 2.26.3 (20100126.1600)
 -->
<!-- Title: removeNetSignal Pages: 1 -->
<svg width="288pt" height="238pt"
 viewBox="0.00 0.00 288.00 238.00" xmlns="http://www.w3.org/2000/svg" xmlns:xlink="http://www.w3.org/1999/xlink">
<g id="graph1" class="graph" transform="scale(1 1) rotate(0) translate(4 234)">
<title>removeNetSignal</title>
<polygon fill="white" stroke="white" points="-4,5 -4,-234 285,-234 285,5 -4,5"/>
<!-- Node1 -->
<g id="node1" class="node"><title>Node1</title>
<polygon fill="#bfbfbf" stroke="black" points="0,-110.5 0,-131.5 92,-131.5 92,-110.5 0,-110.5"/>
<text text-anchor="middle" x="46" y="-118.5" font-family="Helvetica,sans-Serif" font-size="10.00">removeNetSignal</text>
</g>
<!-- Node2 -->
<g id="node3" class="node"><title>Node2</title>
<a xlink:href="../../d1/d03/classproject_1_1_circuit.html#a226cc7570bf533c9946775c2fc5b361e" target="_top" xlink:title="~Circuit">
<polygon fill="white" stroke="black" points="178.5,-208.5 178.5,-229.5 229.5,-229.5 229.5,-208.5 178.5,-208.5"/>
<text text-anchor="middle" x="204" y="-216.5" font-family="Helvetica,sans-Serif" font-size="10.00">~Circuit</text>
</a>
</g>
<!-- Node1&#45;&gt;Node2 -->
<g id="edge2" class="edge"><title>Node1&#45;&gt;Node2</title>
<path fill="none" stroke="midnightblue" d="M60.6504,-139.559C75.6981,-157.382 100.721,-183.782 128,-199 143.609,-207.708 163.144,-212.741 178.5,-215.58"/>
<polygon fill="midnightblue" stroke="midnightblue" points="63.1512,-137.089 54.0985,-131.585 57.7427,-141.533 63.1512,-137.089"/>
</g>
<!-- Node3 -->
<g id="node5" class="node"><title>Node3</title>
<a xlink:href="../../db/dd7/classproject_1_1_cmd_net_signal_add.html#a91ca7652063093da57fc1bd0141dcc95" target="_top" xlink:title="Redo/execute the command (and all child commands in normal order) ">
<polygon fill="white" stroke="black" points="137.5,-156 137.5,-190 270.5,-190 270.5,-156 137.5,-156"/>
<text text-anchor="start" x="145.5" y="-177" font-family="Helvetica,sans-Serif" font-size="10.00">project::CmdNetSignalAdd</text>
<text text-anchor="middle" x="204" y="-164" font-family="Helvetica,sans-Serif" font-size="10.00">::redo</text>
</a>
</g>
<!-- Node1&#45;&gt;Node3 -->
<g id="edge4" class="edge"><title>Node1&#45;&gt;Node3</title>
<path fill="none" stroke="midnightblue" d="M87.6158,-134.696C107.392,-141.205 131.23,-149.051 152.169,-155.942"/>
<polygon fill="midnightblue" stroke="midnightblue" points="88.5666,-131.325 77.9737,-131.523 86.3783,-137.974 88.5666,-131.325"/>
</g>
<!-- Node4 -->
<g id="node7" class="node"><title>Node4</title>
<a xlink:href="../../db/dd7/classproject_1_1_cmd_net_signal_add.html#a19e8778088bfe76b16745470981bb913" target="_top" xlink:title="Undo the command (and all child commands in reverse order) ">
<polygon fill="white" stroke="black" points="137.5,-104 137.5,-138 270.5,-138 270.5,-104 137.5,-104"/>
<text text-anchor="start" x="145.5" y="-125" font-family="Helvetica,sans-Serif" font-size="10.00">project::CmdNetSignalAdd</text>
<text text-anchor="middle" x="204" y="-112" font-family="Helvetica,sans-Serif" font-size="10.00">::undo</text>
</a>
</g>
<!-- Node1&#45;&gt;Node4 -->
<g id="edge6" class="edge"><title>Node1&#45;&gt;Node4</title>
<path fill="none" stroke="midnightblue" d="M102.303,-121C113.626,-121 125.629,-121 137.268,-121"/>
<polygon fill="midnightblue" stroke="midnightblue" points="102.125,-117.5 92.1249,-121 102.125,-124.5 102.125,-117.5"/>
</g>
<!-- Node5 -->
<g id="node9" class="node"><title>Node5</title>
<a xlink:href="../../de/d5c/classproject_1_1_cmd_net_signal_remove.html#a91ca7652063093da57fc1bd0141dcc95" target="_top" xlink:title="Redo/execute the command (and all child commands in normal order) ">
<polygon fill="white" stroke="black" points="128,-52 128,-86 280,-86 280,-52 128,-52"/>
<text text-anchor="start" x="136" y="-73" font-family="Helvetica,sans-Serif" font-size="10.00">project::CmdNetSignalRemove</text>
<text text-anchor="middle" x="204" y="-60" font-family="Helvetica,sans-Serif" font-size="10.00">::redo</text>
</a>
</g>
<!-- Node1&#45;&gt;Node5 -->
<g id="edge8" class="edge"><title>Node1&#45;&gt;Node5</title>
<path fill="none" stroke="midnightblue" d="M87.6158,-107.304C107.392,-100.795 131.23,-92.9495 152.169,-86.0582"/>
<polygon fill="midnightblue" stroke="midnightblue" points="86.3783,-104.026 77.9737,-110.477 88.5666,-110.675 86.3783,-104.026"/>
</g>
<!-- Node6 -->
<g id="node11" class="node"><title>Node6</title>
<a xlink:href="../../de/d5c/classproject_1_1_cmd_net_signal_remove.html#a19e8778088bfe76b16745470981bb913" target="_top" xlink:title="Undo the command (and all child commands in reverse order) ">
<polygon fill="white" stroke="black" points="128,-0 128,-34 280,-34 280,-0 128,-0"/>
<text text-anchor="start" x="136" y="-21" font-family="Helvetica,sans-Serif" font-size="10.00">project::CmdNetSignalRemove</text>
<text text-anchor="middle" x="204" y="-8" font-family="Helvetica,sans-Serif" font-size="10.00">::undo</text>
</a>
</g>
<!-- Node1&#45;&gt;Node6 -->
<g id="edge10" class="edge"><title>Node1&#45;&gt;Node6</title>
<path fill="none" stroke="midnightblue" d="M61.143,-102.577C76.4005,-85.0748 101.433,-59.1068 128,-43 133.485,-39.6744 139.453,-36.7044 145.553,-34.0697"/>
<polygon fill="midnightblue" stroke="midnightblue" points="58.2927,-100.526 54.4743,-110.408 63.6223,-105.064 58.2927,-100.526"/>
</g>
</g>
</svg>
