<?xml version="1.0" encoding="UTF-8" standalone="no"?>
<!DOCTYPE svg PUBLIC "-//W3C//DTD SVG 1.1//EN"
 "http://www.w3.org/Graphics/SVG/1.1/DTD/svg11.dtd">
<!-- Generated by graphviz version 2.26.3 (20100126.1600)
 -->
<!-- Title: updateCacheAndRepaint Pages: 1 -->
<svg width="414pt" height="94pt"
 viewBox="0.00 0.00 414.00 94.00" xmlns="http://www.w3.org/2000/svg" xmlns:xlink="http://www.w3.org/1999/xlink">
<g id="graph1" class="graph" transform="scale(1 1) rotate(0) translate(4 90)">
<title>updateCacheAndRepaint</title>
<polygon fill="white" stroke="white" points="-4,5 -4,-90 411,-90 411,5 -4,5"/>
<!-- Node1 -->
<g id="node1" class="node"><title>Node1</title>
<polygon fill="#bfbfbf" stroke="black" points="0.5,-32.5 0.5,-53.5 125.5,-53.5 125.5,-32.5 0.5,-32.5"/>
<text text-anchor="middle" x="63" y="-40.5" font-family="Helvetica,sans-Serif" font-size="10.00">updateCacheAndRepaint</text>
</g>
<!-- Node2 -->
<g id="node3" class="node"><title>Node2</title>
<a xlink:href="../../d3/d7c/classproject_1_1_s_i___net_line.html#a47af38f5c88a1613e220affee2fd2203" target="_top" xlink:title="project::SI_NetLine\l::updateLine">
<polygon fill="white" stroke="black" points="162.5,-26 162.5,-60 263.5,-60 263.5,-26 162.5,-26"/>
<text text-anchor="start" x="170.5" y="-47" font-family="Helvetica,sans-Serif" font-size="10.00">project::SI_NetLine</text>
<text text-anchor="middle" x="213" y="-34" font-family="Helvetica,sans-Serif" font-size="10.00">::updateLine</text>
</a>
</g>
<!-- Node1&#45;&gt;Node2 -->
<g id="edge2" class="edge"><title>Node1&#45;&gt;Node2</title>
<path fill="none" stroke="midnightblue" d="M135.827,-43C144.797,-43 153.808,-43 162.348,-43"/>
<polygon fill="midnightblue" stroke="midnightblue" points="135.744,-39.5001 125.744,-43 135.744,-46.5001 135.744,-39.5001"/>
</g>
<!-- Node3 -->
<g id="node5" class="node"><title>Node3</title>
<a xlink:href="../../d3/d7c/classproject_1_1_s_i___net_line.html#a02fd73d861ef2e4aabb38c0c9ff82947" target="_top" xlink:title="project::SI_NetLine\l::init">
<polygon fill="white" stroke="black" points="302.5,-52 302.5,-86 403.5,-86 403.5,-52 302.5,-52"/>
<text text-anchor="start" x="310.5" y="-73" font-family="Helvetica,sans-Serif" font-size="10.00">project::SI_NetLine</text>
<text text-anchor="middle" x="353" y="-60" font-family="Helvetica,sans-Serif" font-size="10.00">::init</text>
</a>
</g>
<!-- Node2&#45;&gt;Node3 -->
<g id="edge4" class="edge"><title>Node2&#45;&gt;Node3</title>
<path fill="none" stroke="midnightblue" d="M273.385,-54.2144C282.944,-55.9895 292.746,-57.81 302.061,-59.5399"/>
<polygon fill="midnightblue" stroke="midnightblue" points="274.014,-50.7714 263.543,-52.3866 272.736,-57.6538 274.014,-50.7714"/>
</g>
<!-- Node4 -->
<g id="node7" class="node"><title>Node4</title>
<a xlink:href="../../d3/d43/classproject_1_1_s_i___net_point.html#adc3ecff9d47a4b35383fb20ac506ea32" target="_top" xlink:title="project::SI_NetPoint\l::updateLines">
<polygon fill="white" stroke="black" points="300.5,-0 300.5,-34 405.5,-34 405.5,-0 300.5,-0"/>
<text text-anchor="start" x="308.5" y="-21" font-family="Helvetica,sans-Serif" font-size="10.00">project::SI_NetPoint</text>
<text text-anchor="middle" x="353" y="-8" font-family="Helvetica,sans-Serif" font-size="10.00">::updateLines</text>
</a>
</g>
<!-- Node2&#45;&gt;Node4 -->
<g id="edge6" class="edge"><title>Node2&#45;&gt;Node4</title>
<path fill="none" stroke="midnightblue" d="M273.461,-31.7716C282.351,-30.1205 291.451,-28.4305 300.172,-26.811"/>
<polygon fill="midnightblue" stroke="midnightblue" points="272.736,-28.3462 263.543,-33.6134 274.014,-35.2286 272.736,-28.3462"/>
</g>
</g>
</svg>
