<?xml version="1.0" encoding="UTF-8" standalone="no"?>
<!DOCTYPE svg PUBLIC "-//W3C//DTD SVG 1.1//EN"
 "http://www.w3.org/Graphics/SVG/1.1/DTD/svg11.dtd">
<!-- Generated by graphviz version 2.26.3 (20100126.1600)
 -->
<!-- Title: undo Pages: 1 -->
<svg width="544pt" height="134pt"
 viewBox="0.00 0.00 544.00 134.00" xmlns="http://www.w3.org/2000/svg" xmlns:xlink="http://www.w3.org/1999/xlink">
<g id="graph1" class="graph" transform="scale(1 1) rotate(0) translate(4 130)">
<title>undo</title>
<polygon fill="white" stroke="white" points="-4,5 -4,-130 541,-130 541,5 -4,5"/>
<!-- Node1 -->
<g id="node1" class="node"><title>Node1</title>
<polygon fill="#bfbfbf" stroke="black" points="0,-46.5 0,-67.5 38,-67.5 38,-46.5 0,-46.5"/>
<text text-anchor="middle" x="19" y="-54.5" font-family="Helvetica,sans-Serif" font-size="10.00">undo</text>
</g>
<!-- Node2 -->
<g id="node3" class="node"><title>Node2</title>
<a xlink:href="../../d0/d7d/classproject_1_1_component_instance.html#aec8f6fd3fb6f466ea97563621f5dccf9" target="_top" xlink:title="project::ComponentInstance\l::setPosition">
<polygon fill="white" stroke="black" points="74,-92 74,-126 214,-126 214,-92 74,-92"/>
<text text-anchor="start" x="82" y="-113" font-family="Helvetica,sans-Serif" font-size="10.00">project::ComponentInstance</text>
<text text-anchor="middle" x="144" y="-100" font-family="Helvetica,sans-Serif" font-size="10.00">::setPosition</text>
</a>
</g>
<!-- Node1&#45;&gt;Node2 -->
<g id="edge2" class="edge"><title>Node1&#45;&gt;Node2</title>
<path fill="none" stroke="midnightblue" d="M38.1617,-66.5547C48.6489,-71.6577 61.9302,-77.9167 74,-83 78.1443,-84.7454 82.4507,-86.4952 86.7992,-88.2161"/>
<polygon fill="midnightblue" stroke="midnightblue" points="85.7508,-91.5636 96.3395,-91.9244 88.2869,-85.0392 85.7508,-91.5636"/>
</g>
<!-- Node3 -->
<g id="node5" class="node"><title>Node3</title>
<a xlink:href="../../d0/d7d/classproject_1_1_component_instance.html#abe3686cf5581829dce0c2a619207915f" target="_top" xlink:title="project::ComponentInstance\l::setRotation">
<polygon fill="white" stroke="black" points="74,-40 74,-74 214,-74 214,-40 74,-40"/>
<text text-anchor="start" x="82" y="-61" font-family="Helvetica,sans-Serif" font-size="10.00">project::ComponentInstance</text>
<text text-anchor="middle" x="144" y="-48" font-family="Helvetica,sans-Serif" font-size="10.00">::setRotation</text>
</a>
</g>
<!-- Node1&#45;&gt;Node3 -->
<g id="edge4" class="edge"><title>Node1&#45;&gt;Node3</title>
<path fill="none" stroke="midnightblue" d="M38.2573,-57C45.5765,-57 54.4475,-57 63.9036,-57"/>
<polygon fill="midnightblue" stroke="midnightblue" points="63.9292,-60.5001 73.9291,-57 63.9291,-53.5001 63.9292,-60.5001"/>
</g>
<!-- Node4 -->
<g id="node7" class="node"><title>Node4</title>
<a xlink:href="../../d3/d26/class_undo_command.html#a0e1e7804a53f6d62efc72c9bdbec8571" target="_top" xlink:title="Undo the command (and all child commands in reverse order) ">
<polygon fill="white" stroke="black" points="88,-0.5 88,-21.5 200,-21.5 200,-0.5 88,-0.5"/>
<text text-anchor="middle" x="144" y="-8.5" font-family="Helvetica,sans-Serif" font-size="10.00">UndoCommand::undo</text>
</a>
</g>
<!-- Node1&#45;&gt;Node4 -->
<g id="edge6" class="edge"><title>Node1&#45;&gt;Node4</title>
<path fill="none" stroke="midnightblue" d="M38.0121,-47.0701C48.4556,-41.8572 61.7427,-35.6129 74,-31 80.055,-28.7212 86.4873,-26.5542 92.9038,-24.5452"/>
<polygon fill="midnightblue" stroke="midnightblue" points="94.3541,-27.7636 102.917,-21.5251 92.3328,-21.0617 94.3541,-27.7636"/>
</g>
<!-- Node5 -->
<g id="node9" class="node"><title>Node5</title>
<a xlink:href="../../d3/d26/class_undo_command.html#ae57d776a4010cbabb44c03d9ac6514eb" target="_top" xlink:title="This method shows whether that command is executed (redo() called one time more than undo()) ...">
<polygon fill="white" stroke="black" points="396,-19.5 396,-40.5 536,-40.5 536,-19.5 396,-19.5"/>
<text text-anchor="middle" x="466" y="-27.5" font-family="Helvetica,sans-Serif" font-size="10.00">UndoCommand::isExecuted</text>
</a>
</g>
<!-- Node4&#45;&gt;Node5 -->
<g id="edge8" class="edge"><title>Node4&#45;&gt;Node5</title>
<path fill="none" stroke="midnightblue" d="M189.65,-21.5427C208.257,-25.3342 230.049,-29.1343 250,-31 294.747,-35.1845 344.935,-35.2319 385.664,-34.0988"/>
<polygon fill="midnightblue" stroke="midnightblue" points="385.919,-37.5927 395.806,-33.787 385.704,-30.596 385.919,-37.5927"/>
</g>
<!-- Node6 -->
<g id="node11" class="node"><title>Node6</title>
<a xlink:href="../../d3/d26/class_undo_command.html#a93c48d6ed036e1a381be53ac67643284" target="_top" xlink:title="Redo/execute the command (and all child commands in normal order) ">
<polygon fill="white" stroke="black" points="250,-0.5 250,-21.5 360,-21.5 360,-0.5 250,-0.5"/>
<text text-anchor="middle" x="305" y="-8.5" font-family="Helvetica,sans-Serif" font-size="10.00">UndoCommand::redo</text>
</a>
</g>
<!-- Node4&#45;&gt;Node6 -->
<g id="edge10" class="edge"><title>Node4&#45;&gt;Node6</title>
<path fill="none" stroke="midnightblue" d="M200.31,-4.5285C212.975,-4.22852 226.52,-4.17088 239.523,-4.35558"/>
<polygon fill="midnightblue" stroke="midnightblue" points="239.741,-7.8604 249.808,-4.55566 239.878,-0.861722 239.741,-7.8604"/>
</g>
<!-- Node6&#45;&gt;Node4 -->
<g id="edge14" class="edge"><title>Node6&#45;&gt;Node4</title>
<path fill="none" stroke="midnightblue" d="M249.808,-17.4443C237.196,-17.7586 223.662,-17.8305 210.628,-17.6601"/>
<polygon fill="midnightblue" stroke="midnightblue" points="210.372,-14.155 200.31,-17.4715 210.244,-21.1538 210.372,-14.155"/>
</g>
<!-- Node6&#45;&gt;Node5 -->
<g id="edge12" class="edge"><title>Node6&#45;&gt;Node5</title>
<path fill="none" stroke="midnightblue" d="M360.407,-17.5387C368.645,-18.5109 377.272,-19.529 385.893,-20.5464"/>
<polygon fill="midnightblue" stroke="midnightblue" points="385.645,-24.0414 395.987,-21.7376 386.466,-17.0896 385.645,-24.0414"/>
</g>
</g>
</svg>
