<?xml version="1.0" encoding="UTF-8" standalone="no"?>
<!DOCTYPE svg PUBLIC "-//W3C//DTD SVG 1.1//EN"
 "http://www.w3.org/Graphics/SVG/1.1/DTD/svg11.dtd">
<!-- Generated by graphviz version 2.26.3 (20100126.1600)
 -->
<!-- Title: setRotation Pages: 1 -->
<svg width="306pt" height="146pt"
 viewBox="0.00 0.00 306.00 146.00" xmlns="http://www.w3.org/2000/svg" xmlns:xlink="http://www.w3.org/1999/xlink">
<g id="graph1" class="graph" transform="scale(1 1) rotate(0) translate(4 142)">
<title>setRotation</title>
<polygon fill="white" stroke="white" points="-4,5 -4,-142 303,-142 303,5 -4,5"/>
<!-- Node1 -->
<g id="node1" class="node"><title>Node1</title>
<polygon fill="#bfbfbf" stroke="black" points="0.5,-58.5 0.5,-79.5 67.5,-79.5 67.5,-58.5 0.5,-58.5"/>
<text text-anchor="middle" x="34" y="-66.5" font-family="Helvetica,sans-Serif" font-size="10.00">setRotation</text>
</g>
<!-- Node2 -->
<g id="node3" class="node"><title>Node2</title>
<a xlink:href="../../d5/d00/classproject_1_1_cmd_schematic_net_label_edit.html#a90c30c20cef07f0edc7353de12c09555" target="_top" xlink:title="project::CmdSchematicNet\lLabelEdit::~CmdSchematicNetLabelEdit">
<polygon fill="white" stroke="black" points="104.5,-104 104.5,-138 297.5,-138 297.5,-104 104.5,-104"/>
<text text-anchor="start" x="112.5" y="-125" font-family="Helvetica,sans-Serif" font-size="10.00">project::CmdSchematicNet</text>
<text text-anchor="middle" x="201" y="-112" font-family="Helvetica,sans-Serif" font-size="10.00">LabelEdit::~CmdSchematicNetLabelEdit</text>
</a>
</g>
<!-- Node1&#45;&gt;Node2 -->
<g id="edge2" class="edge"><title>Node1&#45;&gt;Node2</title>
<path fill="none" stroke="midnightblue" d="M70.2587,-83.2035C81.0444,-87.2284 92.9363,-91.4711 104,-95 113.717,-98.0994 124.058,-101.14 134.231,-103.987"/>
<polygon fill="midnightblue" stroke="midnightblue" points="71.3114,-79.8597 60.7198,-79.5951 68.8346,-86.4069 71.3114,-79.8597"/>
</g>
<!-- Node3 -->
<g id="node5" class="node"><title>Node3</title>
<a xlink:href="../../d5/d00/classproject_1_1_cmd_schematic_net_label_edit.html#a91ca7652063093da57fc1bd0141dcc95" target="_top" xlink:title="Redo/execute the command (and all child commands in normal order) ">
<polygon fill="white" stroke="black" points="133.5,-52 133.5,-86 268.5,-86 268.5,-52 133.5,-52"/>
<text text-anchor="start" x="141.5" y="-73" font-family="Helvetica,sans-Serif" font-size="10.00">project::CmdSchematicNet</text>
<text text-anchor="middle" x="201" y="-60" font-family="Helvetica,sans-Serif" font-size="10.00">LabelEdit::redo</text>
</a>
</g>
<!-- Node1&#45;&gt;Node3 -->
<g id="edge4" class="edge"><title>Node1&#45;&gt;Node3</title>
<path fill="none" stroke="midnightblue" d="M77.962,-69C94.9358,-69 114.744,-69 133.443,-69"/>
<polygon fill="midnightblue" stroke="midnightblue" points="77.795,-65.5001 67.7949,-69 77.7949,-72.5001 77.795,-65.5001"/>
</g>
<!-- Node4 -->
<g id="node7" class="node"><title>Node4</title>
<a xlink:href="../../d5/d00/classproject_1_1_cmd_schematic_net_label_edit.html#a19e8778088bfe76b16745470981bb913" target="_top" xlink:title="Undo the command (and all child commands in reverse order) ">
<polygon fill="white" stroke="black" points="133.5,-0 133.5,-34 268.5,-34 268.5,-0 133.5,-0"/>
<text text-anchor="start" x="141.5" y="-21" font-family="Helvetica,sans-Serif" font-size="10.00">project::CmdSchematicNet</text>
<text text-anchor="middle" x="201" y="-8" font-family="Helvetica,sans-Serif" font-size="10.00">LabelEdit::undo</text>
</a>
</g>
<!-- Node1&#45;&gt;Node4 -->
<g id="edge6" class="edge"><title>Node1&#45;&gt;Node4</title>
<path fill="none" stroke="midnightblue" d="M70.2587,-54.7965C81.0444,-50.7716 92.9363,-46.5289 104,-43 113.717,-39.9006 124.058,-36.8601 134.231,-34.0133"/>
<polygon fill="midnightblue" stroke="midnightblue" points="68.8346,-51.5931 60.7198,-58.4049 71.3114,-58.1403 68.8346,-51.5931"/>
</g>
</g>
</svg>
