<?xml version="1.0" encoding="UTF-8" standalone="no"?>
<!DOCTYPE svg PUBLIC "-//W3C//DTD SVG 1.1//EN"
 "http://www.w3.org/Graphics/SVG/1.1/DTD/svg11.dtd">
<!-- Generated by graphviz version 2.26.3 (20100126.1600)
 -->
<!-- Title: mapToScene Pages: 1 -->
<svg width="480pt" height="122pt"
 viewBox="0.00 0.00 480.00 122.00" xmlns="http://www.w3.org/2000/svg" xmlns:xlink="http://www.w3.org/1999/xlink">
<g id="graph1" class="graph" transform="scale(1 1) rotate(0) translate(4 118)">
<title>mapToScene</title>
<polygon fill="white" stroke="white" points="-4,5 -4,-118 477,-118 477,5 -4,5"/>
<!-- Node1 -->
<g id="node1" class="node"><title>Node1</title>
<polygon fill="#bfbfbf" stroke="black" points="0,-52.5 0,-73.5 74,-73.5 74,-52.5 0,-52.5"/>
<text text-anchor="middle" x="37" y="-60.5" font-family="Helvetica,sans-Serif" font-size="10.00">mapToScene</text>
</g>
<!-- Node2 -->
<g id="node3" class="node"><title>Node2</title>
<a xlink:href="../../d4/ddd/classproject_1_1_b_i___footprint_pad.html#a212e36e19edc323ddeb73387d2f011a5" target="_top" xlink:title="project::BI_FootprintPad\l::updatePosition">
<polygon fill="white" stroke="black" points="110,-46 110,-80 232,-80 232,-46 110,-46"/>
<text text-anchor="start" x="118" y="-67" font-family="Helvetica,sans-Serif" font-size="10.00">project::BI_FootprintPad</text>
<text text-anchor="middle" x="171" y="-54" font-family="Helvetica,sans-Serif" font-size="10.00">::updatePosition</text>
</a>
</g>
<!-- Node1&#45;&gt;Node2 -->
<g id="edge2" class="edge"><title>Node1&#45;&gt;Node2</title>
<path fill="none" stroke="midnightblue" d="M84.5052,-63C92.757,-63 101.441,-63 109.993,-63"/>
<polygon fill="midnightblue" stroke="midnightblue" points="84.3265,-59.5001 74.3265,-63 84.3264,-66.5001 84.3265,-59.5001"/>
</g>
<!-- Node3 -->
<g id="node5" class="node"><title>Node3</title>
<a xlink:href="../../da/d96/classproject_1_1_b_i___footprint.html#a271c63e12acd19bccc27bf6861938df2" target="_top" xlink:title="componentInstanceMoved">
<polygon fill="white" stroke="black" points="271.5,-92.5 271.5,-113.5 402.5,-113.5 402.5,-92.5 271.5,-92.5"/>
<text text-anchor="middle" x="337" y="-100.5" font-family="Helvetica,sans-Serif" font-size="10.00">componentInstanceMoved</text>
</a>
</g>
<!-- Node2&#45;&gt;Node3 -->
<g id="edge4" class="edge"><title>Node2&#45;&gt;Node3</title>
<path fill="none" stroke="midnightblue" d="M242.421,-80.21C259.717,-84.3775 277.696,-88.7099 293.276,-92.4641"/>
<polygon fill="midnightblue" stroke="midnightblue" points="242.882,-76.7209 232.341,-77.7809 241.242,-83.5262 242.882,-76.7209"/>
</g>
<!-- Node5 -->
<g id="node9" class="node"><title>Node5</title>
<a xlink:href="../../da/d96/classproject_1_1_b_i___footprint.html#ab6c0fcabcb9d5a38a27ed7aeb34f0958" target="_top" xlink:title="componentInstanceRotated">
<polygon fill="white" stroke="black" points="268.5,-52.5 268.5,-73.5 405.5,-73.5 405.5,-52.5 268.5,-52.5"/>
<text text-anchor="middle" x="337" y="-60.5" font-family="Helvetica,sans-Serif" font-size="10.00">componentInstanceRotated</text>
</a>
</g>
<!-- Node2&#45;&gt;Node5 -->
<g id="edge8" class="edge"><title>Node2&#45;&gt;Node5</title>
<path fill="none" stroke="midnightblue" d="M242.362,-63C250.985,-63 259.778,-63 268.361,-63"/>
<polygon fill="midnightblue" stroke="midnightblue" points="242.341,-59.5001 232.341,-63 242.341,-66.5001 242.341,-59.5001"/>
</g>
<!-- Node6 -->
<g id="node12" class="node"><title>Node6</title>
<a xlink:href="../../d4/ddd/classproject_1_1_b_i___footprint_pad.html#ac81e6cd36593d731c5e2e23048ed6754" target="_top" xlink:title="project::BI_FootprintPad\l::BI_FootprintPad">
<polygon fill="white" stroke="black" points="276,-0 276,-34 398,-34 398,-0 276,-0"/>
<text text-anchor="start" x="284" y="-21" font-family="Helvetica,sans-Serif" font-size="10.00">project::BI_FootprintPad</text>
<text text-anchor="middle" x="337" y="-8" font-family="Helvetica,sans-Serif" font-size="10.00">::BI_FootprintPad</text>
</a>
</g>
<!-- Node2&#45;&gt;Node6 -->
<g id="edge12" class="edge"><title>Node2&#45;&gt;Node6</title>
<path fill="none" stroke="midnightblue" d="M242.127,-43.2901C253.375,-40.1733 264.919,-36.9742 275.911,-33.9281"/>
<polygon fill="midnightblue" stroke="midnightblue" points="241.043,-39.9586 232.341,-46.002 242.912,-46.7044 241.043,-39.9586"/>
</g>
<!-- Node4 -->
<g id="node7" class="node"><title>Node4</title>
<a xlink:href="../../da/d96/classproject_1_1_b_i___footprint.html#a02fd73d861ef2e4aabb38c0c9ff82947" target="_top" xlink:title="init">
<polygon fill="white" stroke="black" points="442.5,-72.5 442.5,-93.5 471.5,-93.5 471.5,-72.5 442.5,-72.5"/>
<text text-anchor="middle" x="457" y="-80.5" font-family="Helvetica,sans-Serif" font-size="10.00">init</text>
</a>
</g>
<!-- Node3&#45;&gt;Node4 -->
<g id="edge6" class="edge"><title>Node3&#45;&gt;Node4</title>
<path fill="none" stroke="midnightblue" d="M410.087,-90.8188C422.309,-88.7818 433.77,-86.8716 442.304,-85.4493"/>
<polygon fill="midnightblue" stroke="midnightblue" points="409.451,-87.3764 400.163,-92.4729 410.602,-94.2812 409.451,-87.3764"/>
</g>
<!-- Node5&#45;&gt;Node4 -->
<g id="edge10" class="edge"><title>Node5&#45;&gt;Node4</title>
<path fill="none" stroke="midnightblue" d="M410.087,-75.1812C422.309,-77.2182 433.77,-79.1284 442.304,-80.5507"/>
<polygon fill="midnightblue" stroke="midnightblue" points="410.602,-71.7188 400.163,-73.5271 409.451,-78.6236 410.602,-71.7188"/>
</g>
</g>
</svg>
