<?xml version="1.0" encoding="UTF-8" standalone="no"?>
<!DOCTYPE svg PUBLIC "-//W3C//DTD SVG 1.1//EN"
 "http://www.w3.org/Graphics/SVG/1.1/DTD/svg11.dtd">
<!-- Generated by graphviz version 2.26.3 (20100126.1600)
 -->
<!-- Title: calcMiddlePointPos Pages: 1 -->
<svg width="346pt" height="110pt"
 viewBox="0.00 0.00 346.00 110.00" xmlns="http://www.w3.org/2000/svg" xmlns:xlink="http://www.w3.org/1999/xlink">
<g id="graph1" class="graph" transform="scale(1 1) rotate(0) translate(4 106)">
<title>calcMiddlePointPos</title>
<polygon fill="white" stroke="white" points="-4,5 -4,-106 343,-106 343,5 -4,5"/>
<!-- Node1 -->
<g id="node1" class="node"><title>Node1</title>
<polygon fill="#bfbfbf" stroke="black" points="0.5,-40.5 0.5,-61.5 103.5,-61.5 103.5,-40.5 0.5,-40.5"/>
<text text-anchor="middle" x="52" y="-48.5" font-family="Helvetica,sans-Serif" font-size="10.00">calcMiddlePointPos</text>
</g>
<!-- Node2 -->
<g id="node3" class="node"><title>Node2</title>
<a xlink:href="../../d0/d69/class_point.html#ab309781a48eeee3e6857c85535c220ea" target="_top" xlink:title="Get the X coordinate. ">
<polygon fill="white" stroke="black" points="141.5,-80.5 141.5,-101.5 206.5,-101.5 206.5,-80.5 141.5,-80.5"/>
<text text-anchor="middle" x="174" y="-88.5" font-family="Helvetica,sans-Serif" font-size="10.00">Point::getX</text>
</a>
</g>
<!-- Node1&#45;&gt;Node2 -->
<g id="edge2" class="edge"><title>Node1&#45;&gt;Node2</title>
<path fill="none" stroke="midnightblue" d="M84.0541,-61.5095C98.7871,-66.34 116.453,-72.1321 132.213,-77.2994"/>
<polygon fill="midnightblue" stroke="midnightblue" points="131.144,-80.632 141.736,-80.4218 133.325,-73.9804 131.144,-80.632"/>
</g>
<!-- Node3 -->
<g id="node5" class="node"><title>Node3</title>
<a xlink:href="../../df/df0/class_length.html#a370bc52b15b47b82bcf6b40fa58ff2c3" target="_top" xlink:title="Get a Length object with absolute value (mNanometers &gt;= 0) ">
<polygon fill="white" stroke="black" points="140,-40.5 140,-61.5 208,-61.5 208,-40.5 140,-40.5"/>
<text text-anchor="middle" x="174" y="-48.5" font-family="Helvetica,sans-Serif" font-size="10.00">Length::abs</text>
</a>
</g>
<!-- Node1&#45;&gt;Node3 -->
<g id="edge4" class="edge"><title>Node1&#45;&gt;Node3</title>
<path fill="none" stroke="midnightblue" d="M103.739,-51C112.419,-51 121.355,-51 129.823,-51"/>
<polygon fill="midnightblue" stroke="midnightblue" points="129.869,-54.5001 139.869,-51 129.869,-47.5001 129.869,-54.5001"/>
</g>
<!-- Node5 -->
<g id="node9" class="node"><title>Node5</title>
<a xlink:href="../../d0/d69/class_point.html#ab51b367c2bbc227c892a7d2840c0babe" target="_top" xlink:title="Get the Y coordinate. ">
<polygon fill="white" stroke="black" points="141.5,-0.5 141.5,-21.5 206.5,-21.5 206.5,-0.5 141.5,-0.5"/>
<text text-anchor="middle" x="174" y="-8.5" font-family="Helvetica,sans-Serif" font-size="10.00">Point::getY</text>
</a>
</g>
<!-- Node1&#45;&gt;Node5 -->
<g id="edge8" class="edge"><title>Node1&#45;&gt;Node5</title>
<path fill="none" stroke="midnightblue" d="M84.0541,-40.4905C98.7871,-35.66 116.453,-29.8679 132.213,-24.7006"/>
<polygon fill="midnightblue" stroke="midnightblue" points="133.325,-28.0196 141.736,-21.5782 131.144,-21.368 133.325,-28.0196"/>
</g>
<!-- Node4 -->
<g id="node7" class="node"><title>Node4</title>
<a xlink:href="../../df/df0/class_length.html#a13f4bb7adbb486ded36fe6a8204b81e6" target="_top" xlink:title="Make the length absolute (mNanometers &gt;= 0) ">
<polygon fill="white" stroke="black" points="244.5,-40.5 244.5,-61.5 337.5,-61.5 337.5,-40.5 244.5,-40.5"/>
<text text-anchor="middle" x="291" y="-48.5" font-family="Helvetica,sans-Serif" font-size="10.00">Length::makeAbs</text>
</a>
</g>
<!-- Node3&#45;&gt;Node4 -->
<g id="edge6" class="edge"><title>Node3&#45;&gt;Node4</title>
<path fill="none" stroke="midnightblue" d="M208.156,-51C216.389,-51 225.405,-51 234.363,-51"/>
<polygon fill="midnightblue" stroke="midnightblue" points="234.407,-54.5001 244.407,-51 234.407,-47.5001 234.407,-54.5001"/>
</g>
</g>
</svg>
