<?xml version="1.0" encoding="UTF-8" standalone="no"?>
<!DOCTYPE svg PUBLIC "-//W3C//DTD SVG 1.1//EN"
 "http://www.w3.org/Graphics/SVG/1.1/DTD/svg11.dtd">
<!-- Generated by graphviz version 2.26.3 (20100126.1600)
 -->
<!-- Title: /home/travis/build/LibrePCB/LibrePCB/libs/librepcbprojecteditor/dialogs/editnetclassesdialog.cpp Pages: 1 -->
<svg width="3182pt" height="344pt"
 viewBox="0.00 0.00 3182.02 344.00" xmlns="http://www.w3.org/2000/svg" xmlns:xlink="http://www.w3.org/1999/xlink">
<g id="graph1" class="graph" transform="scale(1 1) rotate(0) translate(4 340)">
<title>/home/travis/build/LibrePCB/LibrePCB/libs/librepcbprojecteditor/dialogs/editnetclassesdialog.cpp</title>
<polygon fill="white" stroke="white" points="-4,5 -4,-340 3179.02,-340 3179.02,5 -4,5"/>
<!-- Node1 -->
<g id="node1" class="node"><title>Node1</title>
<polygon fill="#bfbfbf" stroke="black" points="774.517,-275 774.517,-335 935.517,-335 935.517,-275 774.517,-275"/>
<text text-anchor="start" x="782.517" y="-322" font-family="Helvetica,sans-Serif" font-size="10.00">/home/travis/build</text>
<text text-anchor="start" x="782.517" y="-309" font-family="Helvetica,sans-Serif" font-size="10.00">/LibrePCB/LibrePCB/libs</text>
<text text-anchor="start" x="782.517" y="-296" font-family="Helvetica,sans-Serif" font-size="10.00">/librepcbprojecteditor</text>
<text text-anchor="middle" x="855.017" y="-283" font-family="Helvetica,sans-Serif" font-size="10.00">/dialogs/editnetclassesdialog.cpp</text>
</g>
<!-- Node2 -->
<g id="node3" class="node"><title>Node2</title>
<polygon fill="white" stroke="#bfbfbf" points="827.017,-0.5 827.017,-21.5 875.017,-21.5 875.017,-0.5 827.017,-0.5"/>
<text text-anchor="middle" x="851.017" y="-8.5" font-family="Helvetica,sans-Serif" font-size="10.00">QtCore</text>
</g>
<!-- Node1&#45;&gt;Node2 -->
<g id="edge2" class="edge"><title>Node1&#45;&gt;Node2</title>
<path fill="none" stroke="midnightblue" d="M774.42,-304.107C603.345,-301.224 209.552,-289.072 87.0166,-238 30.6347,-214.5 -9.24622,-190.036 2.01658,-130 8.34735,-96.2541 2.24388,-78.1877 30.0166,-58 62.2988,-34.5345 664.699,-16.1998 816.511,-11.9387"/>
<polygon fill="midnightblue" stroke="midnightblue" points="816.75,-15.4334 826.649,-11.6563 816.555,-8.43616 816.75,-15.4334"/>
</g>
<!-- Node3 -->
<g id="node5" class="node"><title>Node3</title>
<polygon fill="white" stroke="#bfbfbf" points="10.5166,-137.5 10.5166,-158.5 73.5166,-158.5 73.5166,-137.5 10.5166,-137.5"/>
<text text-anchor="middle" x="42.0166" y="-145.5" font-family="Helvetica,sans-Serif" font-size="10.00">QtWidgets</text>
</g>
<!-- Node1&#45;&gt;Node3 -->
<g id="edge4" class="edge"><title>Node1&#45;&gt;Node3</title>
<path fill="none" stroke="midnightblue" d="M774.266,-303.748C612.27,-300.211 253.603,-286.931 142.017,-238 105.92,-222.171 73.9597,-188.104 56.3674,-166.721"/>
<polygon fill="midnightblue" stroke="midnightblue" points="58.9203,-164.309 49.9409,-158.686 53.4536,-168.681 58.9203,-164.309"/>
</g>
<!-- Node4 -->
<g id="node7" class="node"><title>Node4</title>
<a xlink:href="../../da/d95/editnetclassesdialog_8h.html" target="_top" xlink:title="editnetclassesdialog.h">
<polygon fill="white" stroke="black" points="150.517,-209.5 150.517,-230.5 263.517,-230.5 263.517,-209.5 150.517,-209.5"/>
<text text-anchor="middle" x="207.017" y="-217.5" font-family="Helvetica,sans-Serif" font-size="10.00">editnetclassesdialog.h</text>
</a>
</g>
<!-- Node1&#45;&gt;Node4 -->
<g id="edge6" class="edge"><title>Node1&#45;&gt;Node4</title>
<path fill="none" stroke="midnightblue" d="M774.257,-294.407C644.864,-277.434 393.498,-244.461 273.667,-228.743"/>
<polygon fill="midnightblue" stroke="midnightblue" points="273.901,-225.244 263.531,-227.413 272.991,-232.184 273.901,-225.244"/>
</g>
<!-- Node6 -->
<g id="node14" class="node"><title>Node6</title>
<a xlink:href="../../db/ded/ui__editnetclassesdialog_8h.html" target="_top" xlink:title="ui_editnetclassesdialog.h">
<polygon fill="white" stroke="black" points="2321.02,-209.5 2321.02,-230.5 2447.02,-230.5 2447.02,-209.5 2321.02,-209.5"/>
<text text-anchor="middle" x="2384.02" y="-217.5" font-family="Helvetica,sans-Serif" font-size="10.00">ui_editnetclassesdialog.h</text>
</a>
</g>
<!-- Node1&#45;&gt;Node6 -->
<g id="edge16" class="edge"><title>Node1&#45;&gt;Node6</title>
<path fill="none" stroke="midnightblue" d="M935.605,-300.52C1202.45,-285.685 2054.79,-238.302 2310.69,-224.076"/>
<polygon fill="midnightblue" stroke="midnightblue" points="2311.19,-227.554 2320.99,-223.504 2310.81,-220.565 2311.19,-227.554"/>
</g>
<!-- Node18 -->
<g id="node38" class="node"><title>Node18</title>
<a xlink:href="../../d3/ddf/circuit_8h.html" target="_top" xlink:title="librepcbproject/circuit\l/circuit.h">
<polygon fill="white" stroke="black" points="800.517,-203 800.517,-237 909.517,-237 909.517,-203 800.517,-203"/>
<text text-anchor="start" x="808.517" y="-224" font-family="Helvetica,sans-Serif" font-size="10.00">librepcbproject/circuit</text>
<text text-anchor="middle" x="855.017" y="-211" font-family="Helvetica,sans-Serif" font-size="10.00">/circuit.h</text>
</a>
</g>
<!-- Node1&#45;&gt;Node18 -->
<g id="edge40" class="edge"><title>Node1&#45;&gt;Node18</title>
<path fill="none" stroke="midnightblue" d="M855.017,-274.793C855.017,-265.837 855.017,-256.084 855.017,-247.322"/>
<polygon fill="midnightblue" stroke="midnightblue" points="858.517,-247.246 855.017,-237.246 851.517,-247.246 858.517,-247.246"/>
</g>
<!-- Node21 -->
<g id="node48" class="node"><title>Node21</title>
<a xlink:href="../../dc/d8d/project_8h.html" target="_top" xlink:title="librepcbproject/project.h">
<polygon fill="white" stroke="black" points="375.017,-209.5 375.017,-230.5 495.017,-230.5 495.017,-209.5 375.017,-209.5"/>
<text text-anchor="middle" x="435.017" y="-217.5" font-family="Helvetica,sans-Serif" font-size="10.00">librepcbproject/project.h</text>
</a>
</g>
<!-- Node1&#45;&gt;Node21 -->
<g id="edge54" class="edge"><title>Node1&#45;&gt;Node21</title>
<path fill="none" stroke="midnightblue" d="M774.036,-288.611C693.101,-272.231 570.422,-247.403 496.955,-232.535"/>
<polygon fill="midnightblue" stroke="midnightblue" points="497.42,-229.058 486.925,-230.505 496.032,-235.919 497.42,-229.058"/>
</g>
<!-- Node26 -->
<g id="node67" class="node"><title>Node26</title>
<a xlink:href="../../d9/d4b/undostack_8h.html" target="_top" xlink:title="librepcbcommon/undostack.h">
<polygon fill="white" stroke="black" points="664.017,-137.5 664.017,-158.5 808.017,-158.5 808.017,-137.5 664.017,-137.5"/>
<text text-anchor="middle" x="736.017" y="-145.5" font-family="Helvetica,sans-Serif" font-size="10.00">librepcbcommon/undostack.h</text>
</a>
</g>
<!-- Node1&#45;&gt;Node26 -->
<g id="edge82" class="edge"><title>Node1&#45;&gt;Node26</title>
<path fill="none" stroke="midnightblue" d="M824.189,-274.782C813.493,-263.648 801.751,-250.656 792.017,-238 774.342,-215.019 757.213,-186.239 746.652,-167.501"/>
<polygon fill="midnightblue" stroke="midnightblue" points="749.678,-165.74 741.76,-158.701 743.56,-169.142 749.678,-165.74"/>
</g>
<!-- Node27 -->
<g id="node71" class="node"><title>Node27</title>
<a xlink:href="../../da/d1c/netclass_8h.html" target="_top" xlink:title="librepcbproject/circuit\l/netclass.h">
<polygon fill="white" stroke="black" points="1003.52,-203 1003.52,-237 1112.52,-237 1112.52,-203 1003.52,-203"/>
<text text-anchor="start" x="1011.52" y="-224" font-family="Helvetica,sans-Serif" font-size="10.00">librepcbproject/circuit</text>
<text text-anchor="middle" x="1058.02" y="-211" font-family="Helvetica,sans-Serif" font-size="10.00">/netclass.h</text>
</a>
</g>
<!-- Node1&#45;&gt;Node27 -->
<g id="edge88" class="edge"><title>Node1&#45;&gt;Node27</title>
<path fill="none" stroke="midnightblue" d="M926.872,-274.913C953.656,-263.698 983.458,-251.219 1007.88,-240.995"/>
<polygon fill="midnightblue" stroke="midnightblue" points="1009.42,-244.141 1017.3,-237.051 1006.72,-237.684 1009.42,-244.141"/>
</g>
<!-- Node29 -->
<g id="node78" class="node"><title>Node29</title>
<a xlink:href="../../d7/d45/cmdnetclassedit_8h.html" target="_top" xlink:title="librepcbproject/circuit\l/cmd/cmdnetclassedit.h">
<polygon fill="white" stroke="black" points="1225.52,-203 1225.52,-237 1346.52,-237 1346.52,-203 1225.52,-203"/>
<text text-anchor="start" x="1233.52" y="-224" font-family="Helvetica,sans-Serif" font-size="10.00">librepcbproject/circuit</text>
<text text-anchor="middle" x="1286.02" y="-211" font-family="Helvetica,sans-Serif" font-size="10.00">/cmd/cmdnetclassedit.h</text>
</a>
</g>
<!-- Node1&#45;&gt;Node29 -->
<g id="edge98" class="edge"><title>Node1&#45;&gt;Node29</title>
<path fill="none" stroke="midnightblue" d="M935.579,-289.112C1016.02,-273.247 1138.45,-249.102 1215.26,-233.955"/>
<polygon fill="midnightblue" stroke="midnightblue" points="1216.18,-237.339 1225.32,-231.971 1214.83,-230.472 1216.18,-237.339"/>
</g>
<!-- Node31 -->
<g id="node86" class="node"><title>Node31</title>
<a xlink:href="../../d5/df4/cmdnetclassadd_8h.html" target="_top" xlink:title="librepcbproject/circuit\l/cmd/cmdnetclassadd.h">
<polygon fill="white" stroke="black" points="1375.52,-203 1375.52,-237 1496.52,-237 1496.52,-203 1375.52,-203"/>
<text text-anchor="start" x="1383.52" y="-224" font-family="Helvetica,sans-Serif" font-size="10.00">librepcbproject/circuit</text>
<text text-anchor="middle" x="1436.02" y="-211" font-family="Helvetica,sans-Serif" font-size="10.00">/cmd/cmdnetclassadd.h</text>
</a>
</g>
<!-- Node1&#45;&gt;Node31 -->
<g id="edge110" class="edge"><title>Node1&#45;&gt;Node31</title>
<path fill="none" stroke="midnightblue" d="M935.882,-296.318C1035.02,-285.178 1208,-264.137 1355.02,-238 1358.38,-237.402 1361.82,-236.76 1365.28,-236.088"/>
<polygon fill="midnightblue" stroke="midnightblue" points="1365.97,-239.519 1375.09,-234.124 1364.6,-232.655 1365.97,-239.519"/>
</g>
<!-- Node32 -->
<g id="node91" class="node"><title>Node32</title>
<a xlink:href="../../d2/d1d/cmdnetclassremove_8h.html" target="_top" xlink:title="librepcbproject/circuit\l/cmd/cmdnetclassremove.h">
<polygon fill="white" stroke="black" points="1537.52,-203 1537.52,-237 1674.52,-237 1674.52,-203 1537.52,-203"/>
<text text-anchor="start" x="1545.52" y="-224" font-family="Helvetica,sans-Serif" font-size="10.00">librepcbproject/circuit</text>
<text text-anchor="middle" x="1606.02" y="-211" font-family="Helvetica,sans-Serif" font-size="10.00">/cmd/cmdnetclassremove.h</text>
</a>
</g>
<!-- Node1&#45;&gt;Node32 -->
<g id="edge118" class="edge"><title>Node1&#45;&gt;Node32</title>
<path fill="none" stroke="midnightblue" d="M935.554,-298.619C1058.61,-288.436 1300.69,-266.698 1505.02,-238 1512.31,-236.975 1519.89,-235.811 1527.46,-234.58"/>
<polygon fill="midnightblue" stroke="midnightblue" points="1528.11,-238.022 1537.4,-232.93 1526.96,-231.117 1528.11,-238.022"/>
</g>
<!-- Node4&#45;&gt;Node2 -->
<g id="edge8" class="edge"><title>Node4&#45;&gt;Node2</title>
<path fill="none" stroke="midnightblue" d="M192.338,-209.471C152.36,-180.724 44.2377,-102.473 40.0166,-94 32.8817,-79.6789 29.035,-69.6364 40.0166,-58 67.0758,-29.3272 665.747,-14.883 816.699,-11.6889"/>
<polygon fill="midnightblue" stroke="midnightblue" points="816.856,-15.1865 826.78,-11.4784 816.709,-8.18806 816.856,-15.1865"/>
</g>
<!-- Node4&#45;&gt;Node3 -->
<g id="edge10" class="edge"><title>Node4&#45;&gt;Node3</title>
<path fill="none" stroke="midnightblue" d="M182.67,-209.376C154.318,-197.004 107.321,-176.496 75.5333,-162.625"/>
<polygon fill="midnightblue" stroke="midnightblue" points="76.7592,-159.342 66.194,-158.55 73.9596,-165.758 76.7592,-159.342"/>
</g>
<!-- Node5 -->
<g id="node11" class="node"><title>Node5</title>
<a xlink:href="../../d4/d03/exceptions_8h.html" target="_top" xlink:title="librepcbcommon/exceptions.h">
<polygon fill="white" stroke="black" points="959.017,-65.5 959.017,-86.5 1105.02,-86.5 1105.02,-65.5 959.017,-65.5"/>
<text text-anchor="middle" x="1032.02" y="-73.5" font-family="Helvetica,sans-Serif" font-size="10.00">librepcbcommon/exceptions.h</text>
</a>
</g>
<!-- Node4&#45;&gt;Node5 -->
<g id="edge12" class="edge"><title>Node4&#45;&gt;Node5</title>
<path fill="none" stroke="midnightblue" d="M263.602,-212.911C352.441,-201.475 517.04,-178.93 541.017,-166 560.121,-155.698 554.696,-139.89 574.017,-130 576.09,-128.939 817.314,-100.869 948.796,-85.6297"/>
<polygon fill="midnightblue" stroke="midnightblue" points="949.312,-89.0934 958.842,-84.4655 948.506,-82.1399 949.312,-89.0934"/>
</g>
<!-- Node5&#45;&gt;Node2 -->
<g id="edge14" class="edge"><title>Node5&#45;&gt;Node2</title>
<path fill="none" stroke="midnightblue" d="M1002.53,-65.412C970.258,-53.8214 918.602,-35.2711 884.739,-23.1104"/>
<polygon fill="midnightblue" stroke="midnightblue" points="885.862,-19.7946 875.267,-19.7087 883.496,-26.3827 885.862,-19.7946"/>
</g>
<!-- Node7 -->
<g id="node16" class="node"><title>Node7</title>
<polygon fill="white" stroke="#bfbfbf" points="2681.52,-137.5 2681.52,-158.5 2770.52,-158.5 2770.52,-137.5 2681.52,-137.5"/>
<text text-anchor="middle" x="2726.02" y="-145.5" font-family="Helvetica,sans-Serif" font-size="10.00">QtCore/QVariant</text>
</g>
<!-- Node6&#45;&gt;Node7 -->
<g id="edge18" class="edge"><title>Node6&#45;&gt;Node7</title>
<path fill="none" stroke="midnightblue" d="M2447.17,-210.862C2506.1,-201.707 2596.23,-186.102 2673.02,-166 2677.76,-164.758 2682.69,-163.306 2687.56,-161.775"/>
<polygon fill="midnightblue" stroke="midnightblue" points="2688.95,-165.003 2697.36,-158.564 2686.77,-158.351 2688.95,-165.003"/>
</g>
<!-- Node8 -->
<g id="node18" class="node"><title>Node8</title>
<polygon fill="white" stroke="#bfbfbf" points="2787.52,-137.5 2787.52,-158.5 2888.52,-158.5 2888.52,-137.5 2787.52,-137.5"/>
<text text-anchor="middle" x="2838.02" y="-145.5" font-family="Helvetica,sans-Serif" font-size="10.00">QtWidgets/QAction</text>
</g>
<!-- Node6&#45;&gt;Node8 -->
<g id="edge20" class="edge"><title>Node6&#45;&gt;Node8</title>
<path fill="none" stroke="midnightblue" d="M2447.16,-214.516C2525.6,-206.984 2663.24,-191.403 2779.02,-166 2784.85,-164.721 2790.93,-163.145 2796.89,-161.463"/>
<polygon fill="midnightblue" stroke="midnightblue" points="2798.12,-164.75 2806.73,-158.566 2796.14,-158.035 2798.12,-164.75"/>
</g>
<!-- Node9 -->
<g id="node20" class="node"><title>Node9</title>
<polygon fill="white" stroke="#bfbfbf" points="2906.02,-137.5 2906.02,-158.5 3028.02,-158.5 3028.02,-137.5 2906.02,-137.5"/>
<text text-anchor="middle" x="2967.02" y="-145.5" font-family="Helvetica,sans-Serif" font-size="10.00">QtWidgets/QApplication</text>
</g>
<!-- Node6&#45;&gt;Node9 -->
<g id="edge22" class="edge"><title>Node6&#45;&gt;Node9</title>
<path fill="none" stroke="midnightblue" d="M2447.22,-216.344C2544.47,-210.045 2736.39,-194.944 2897.02,-166 2904.57,-164.638 2912.52,-162.899 2920.23,-161.041"/>
<polygon fill="midnightblue" stroke="midnightblue" points="2921.33,-164.373 2930.18,-158.551 2919.63,-157.582 2921.33,-164.373"/>
</g>
<!-- Node10 -->
<g id="node22" class="node"><title>Node10</title>
<polygon fill="white" stroke="#bfbfbf" points="3046.02,-137.5 3046.02,-158.5 3174.02,-158.5 3174.02,-137.5 3046.02,-137.5"/>
<text text-anchor="middle" x="3110.02" y="-145.5" font-family="Helvetica,sans-Serif" font-size="10.00">QtWidgets/QButtonGroup</text>
</g>
<!-- Node6&#45;&gt;Node10 -->
<g id="edge24" class="edge"><title>Node6&#45;&gt;Node10</title>
<path fill="none" stroke="midnightblue" d="M2447.46,-218.107C2564.63,-213.87 2822.59,-201.072 3037.02,-166 3045.17,-164.667 3053.75,-162.893 3062.05,-160.978"/>
<polygon fill="midnightblue" stroke="midnightblue" points="3063.08,-164.33 3071.99,-158.592 3061.45,-157.523 3063.08,-164.33"/>
</g>
<!-- Node11 -->
<g id="node24" class="node"><title>Node11</title>
<polygon fill="white" stroke="#bfbfbf" points="1677.52,-137.5 1677.52,-158.5 1778.52,-158.5 1778.52,-137.5 1677.52,-137.5"/>
<text text-anchor="middle" x="1728.02" y="-145.5" font-family="Helvetica,sans-Serif" font-size="10.00">QtWidgets/QDialog</text>
</g>
<!-- Node6&#45;&gt;Node11 -->
<g id="edge26" class="edge"><title>Node6&#45;&gt;Node11</title>
<path fill="none" stroke="midnightblue" d="M2320.67,-218.544C2210.99,-215.075 1979.03,-203.557 1787.02,-166 1780.81,-164.786 1774.33,-163.174 1768.02,-161.412"/>
<polygon fill="midnightblue" stroke="midnightblue" points="1768.92,-158.027 1758.34,-158.556 1766.94,-164.741 1768.92,-158.027"/>
</g>
<!-- Node12 -->
<g id="node26" class="node"><title>Node12</title>
<polygon fill="white" stroke="#bfbfbf" points="1795.52,-137.5 1795.52,-158.5 1942.52,-158.5 1942.52,-137.5 1795.52,-137.5"/>
<text text-anchor="middle" x="1869.02" y="-145.5" font-family="Helvetica,sans-Serif" font-size="10.00">QtWidgets/QDialogButtonBox</text>
</g>
<!-- Node6&#45;&gt;Node12 -->
<g id="edge28" class="edge"><title>Node6&#45;&gt;Node12</title>
<path fill="none" stroke="midnightblue" d="M2321.01,-213.979C2236.48,-205.483 2081.86,-188.471 1951.02,-166 1942.05,-164.46 1932.58,-162.601 1923.39,-160.67"/>
<polygon fill="midnightblue" stroke="midnightblue" points="1924.07,-157.236 1913.56,-158.558 1922.6,-164.08 1924.07,-157.236"/>
</g>
<!-- Node13 -->
<g id="node28" class="node"><title>Node13</title>
<polygon fill="white" stroke="#bfbfbf" points="1960.02,-137.5 1960.02,-158.5 2088.02,-158.5 2088.02,-137.5 1960.02,-137.5"/>
<text text-anchor="middle" x="2024.02" y="-145.5" font-family="Helvetica,sans-Serif" font-size="10.00">QtWidgets/QHBoxLayout</text>
</g>
<!-- Node6&#45;&gt;Node13 -->
<g id="edge30" class="edge"><title>Node6&#45;&gt;Node13</title>
<path fill="none" stroke="midnightblue" d="M2322.51,-209.452C2264.26,-199.219 2174.43,-182.814 2097.02,-166 2089.91,-164.457 2082.45,-162.734 2075.11,-160.982"/>
<polygon fill="midnightblue" stroke="midnightblue" points="2075.77,-157.542 2065.23,-158.588 2074.13,-164.345 2075.77,-157.542"/>
</g>
<!-- Node14 -->
<g id="node30" class="node"><title>Node14</title>
<polygon fill="white" stroke="#bfbfbf" points="2105.52,-137.5 2105.52,-158.5 2232.52,-158.5 2232.52,-137.5 2105.52,-137.5"/>
<text text-anchor="middle" x="2169.02" y="-145.5" font-family="Helvetica,sans-Serif" font-size="10.00">QtWidgets/QHeaderView</text>
</g>
<!-- Node6&#45;&gt;Node14 -->
<g id="edge32" class="edge"><title>Node6&#45;&gt;Node14</title>
<path fill="none" stroke="midnightblue" d="M2352.29,-209.376C2314.55,-196.737 2251.46,-175.609 2210.04,-161.738"/>
<polygon fill="midnightblue" stroke="midnightblue" points="2211.11,-158.407 2200.52,-158.55 2208.89,-165.045 2211.11,-158.407"/>
</g>
<!-- Node15 -->
<g id="node32" class="node"><title>Node15</title>
<polygon fill="white" stroke="#bfbfbf" points="2249.52,-137.5 2249.52,-158.5 2374.52,-158.5 2374.52,-137.5 2249.52,-137.5"/>
<text text-anchor="middle" x="2312.02" y="-145.5" font-family="Helvetica,sans-Serif" font-size="10.00">QtWidgets/QPushButton</text>
</g>
<!-- Node6&#45;&gt;Node15 -->
<g id="edge34" class="edge"><title>Node6&#45;&gt;Node15</title>
<path fill="none" stroke="midnightblue" d="M2373.39,-209.376C2362.01,-197.997 2343.75,-179.735 2330.1,-166.085"/>
<polygon fill="midnightblue" stroke="midnightblue" points="2332.23,-163.264 2322.68,-158.667 2327.28,-168.213 2332.23,-163.264"/>
</g>
<!-- Node16 -->
<g id="node34" class="node"><title>Node16</title>
<polygon fill="white" stroke="#bfbfbf" points="2392.02,-137.5 2392.02,-158.5 2520.02,-158.5 2520.02,-137.5 2392.02,-137.5"/>
<text text-anchor="middle" x="2456.02" y="-145.5" font-family="Helvetica,sans-Serif" font-size="10.00">QtWidgets/QTableWidget</text>
</g>
<!-- Node6&#45;&gt;Node16 -->
<g id="edge36" class="edge"><title>Node6&#45;&gt;Node16</title>
<path fill="none" stroke="midnightblue" d="M2394.64,-209.376C2406.02,-197.997 2424.28,-179.735 2437.93,-166.085"/>
<polygon fill="midnightblue" stroke="midnightblue" points="2440.75,-168.213 2445.35,-158.667 2435.8,-163.264 2440.75,-168.213"/>
</g>
<!-- Node17 -->
<g id="node36" class="node"><title>Node17</title>
<polygon fill="white" stroke="#bfbfbf" points="2537.52,-137.5 2537.52,-158.5 2664.52,-158.5 2664.52,-137.5 2537.52,-137.5"/>
<text text-anchor="middle" x="2601.02" y="-145.5" font-family="Helvetica,sans-Serif" font-size="10.00">QtWidgets/QVBoxLayout</text>
</g>
<!-- Node6&#45;&gt;Node17 -->
<g id="edge38" class="edge"><title>Node6&#45;&gt;Node17</title>
<path fill="none" stroke="midnightblue" d="M2416.04,-209.376C2454.13,-196.737 2517.81,-175.609 2559.61,-161.738"/>
<polygon fill="midnightblue" stroke="midnightblue" points="2560.83,-165.021 2569.22,-158.55 2558.63,-158.377 2560.83,-165.021"/>
</g>
<!-- Node18&#45;&gt;Node2 -->
<g id="edge42" class="edge"><title>Node18&#45;&gt;Node2</title>
<path fill="none" stroke="midnightblue" d="M854.694,-202.83C854.891,-184.273 856.818,-154.121 866.017,-130 872.957,-111.799 885.195,-112.589 891.017,-94 895.798,-78.7312 896.541,-73.0159 891.017,-58 887.021,-47.1398 879.277,-37.0779 871.659,-29.0736"/>
<polygon fill="midnightblue" stroke="midnightblue" points="873.823,-26.2934 864.227,-21.8019 868.927,-31.297 873.823,-26.2934"/>
</g>
<!-- Node18&#45;&gt;Node5 -->
<g id="edge48" class="edge"><title>Node18&#45;&gt;Node5</title>
<path fill="none" stroke="midnightblue" d="M858.076,-202.802C862.482,-182.798 872.457,-149.972 893.017,-130 913.352,-110.245 941.725,-97.5102 967.538,-89.404"/>
<polygon fill="midnightblue" stroke="midnightblue" points="968.689,-92.7137 977.284,-86.5189 966.702,-86.0016 968.689,-92.7137"/>
</g>
<!-- Node19 -->
<g id="node41" class="node"><title>Node19</title>
<a xlink:href="../../d0/d1d/if__xmlserializableobject_8h.html" target="_top" xlink:title="librepcbcommon/fileio\l/if_xmlserializableobject.h">
<polygon fill="white" stroke="black" points="901.517,-131 901.517,-165 1030.52,-165 1030.52,-131 901.517,-131"/>
<text text-anchor="start" x="909.517" y="-152" font-family="Helvetica,sans-Serif" font-size="10.00">librepcbcommon/fileio</text>
<text text-anchor="middle" x="966.017" y="-139" font-family="Helvetica,sans-Serif" font-size="10.00">/if_xmlserializableobject.h</text>
</a>
</g>
<!-- Node18&#45;&gt;Node19 -->
<g id="edge44" class="edge"><title>Node18&#45;&gt;Node19</title>
<path fill="none" stroke="midnightblue" d="M881.322,-202.937C896.143,-193.323 914.848,-181.19 930.907,-170.774"/>
<polygon fill="midnightblue" stroke="midnightblue" points="933.03,-173.568 939.515,-165.19 929.221,-167.696 933.03,-173.568"/>
</g>
<!-- Node20 -->
<g id="node45" class="node"><title>Node20</title>
<a xlink:href="../../dd/dec/filepath_8h.html" target="_top" xlink:title="librepcbcommon/fileio\l/filepath.h">
<polygon fill="white" stroke="black" points="754.517,-59 754.517,-93 865.517,-93 865.517,-59 754.517,-59"/>
<text text-anchor="start" x="762.517" y="-80" font-family="Helvetica,sans-Serif" font-size="10.00">librepcbcommon/fileio</text>
<text text-anchor="middle" x="810.017" y="-67" font-family="Helvetica,sans-Serif" font-size="10.00">/filepath.h</text>
</a>
</g>
<!-- Node18&#45;&gt;Node20 -->
<g id="edge50" class="edge"><title>Node18&#45;&gt;Node20</title>
<path fill="none" stroke="midnightblue" d="M800.104,-212.706C747.186,-204.418 672.62,-188.986 655.017,-166 645.289,-153.297 645.749,-143.043 655.017,-130 660.678,-122.033 704.784,-107.097 744.505,-94.9496"/>
<polygon fill="midnightblue" stroke="midnightblue" points="745.662,-98.2564 754.217,-92.0071 743.632,-91.5572 745.662,-98.2564"/>
</g>
<!-- Node19&#45;&gt;Node5 -->
<g id="edge46" class="edge"><title>Node19&#45;&gt;Node5</title>
<path fill="none" stroke="midnightblue" d="M981.658,-130.937C991.719,-119.961 1004.79,-105.702 1015.09,-94.4621"/>
<polygon fill="midnightblue" stroke="midnightblue" points="1017.85,-96.6376 1022.02,-86.901 1012.69,-91.9075 1017.85,-96.6376"/>
</g>
<!-- Node20&#45;&gt;Node2 -->
<g id="edge52" class="edge"><title>Node20&#45;&gt;Node2</title>
<path fill="none" stroke="midnightblue" d="M820.789,-58.922C826.283,-50.212 832.99,-39.5782 838.69,-30.5423"/>
<polygon fill="midnightblue" stroke="midnightblue" points="841.797,-32.1774 844.171,-21.8521 835.876,-28.4428 841.797,-32.1774"/>
</g>
<!-- Node21&#45;&gt;Node2 -->
<g id="edge56" class="edge"><title>Node21&#45;&gt;Node2</title>
<path fill="none" stroke="midnightblue" d="M411.483,-209.428C357.078,-183.643 231.156,-115.424 284.017,-58 320.142,-18.7558 698.984,-12.2762 816.471,-11.2095"/>
<polygon fill="midnightblue" stroke="midnightblue" points="816.721,-14.7076 826.692,-11.1245 816.663,-7.70784 816.721,-14.7076"/>
</g>
<!-- Node21&#45;&gt;Node5 -->
<g id="edge72" class="edge"><title>Node21&#45;&gt;Node5</title>
<path fill="none" stroke="midnightblue" d="M463.394,-209.429C491.597,-198.817 536.013,-181.817 574.017,-166 610.388,-150.863 617.158,-140.896 655.017,-130 708.583,-114.583 855.124,-96.0495 948.934,-85.1926"/>
<polygon fill="midnightblue" stroke="midnightblue" points="949.438,-88.6578 958.972,-84.0369 948.637,-81.7038 949.438,-88.6578"/>
</g>
<!-- Node21&#45;&gt;Node19 -->
<g id="edge58" class="edge"><title>Node21&#45;&gt;Node19</title>
<path fill="none" stroke="midnightblue" d="M495.154,-211.846C592.743,-198.613 785.344,-172.498 891.479,-158.107"/>
<polygon fill="midnightblue" stroke="midnightblue" points="892.035,-161.563 901.474,-156.752 891.095,-154.627 892.035,-161.563"/>
</g>
<!-- Node22 -->
<g id="node52" class="node"><title>Node22</title>
<a xlink:href="../../da/d81/if__attributeprovider_8h.html" target="_top" xlink:title="librepcbcommon/if_attributeprovider.h">
<polygon fill="white" stroke="black" points="292.517,-65.5 292.517,-86.5 471.517,-86.5 471.517,-65.5 292.517,-65.5"/>
<text text-anchor="middle" x="382.017" y="-73.5" font-family="Helvetica,sans-Serif" font-size="10.00">librepcbcommon/if_attributeprovider.h</text>
</a>
</g>
<!-- Node21&#45;&gt;Node22 -->
<g id="edge60" class="edge"><title>Node21&#45;&gt;Node22</title>
<path fill="none" stroke="midnightblue" d="M418.531,-209.412C405.331,-199.867 387.783,-184.509 380.017,-166 370.665,-143.713 373.342,-115.509 376.927,-96.6702"/>
<polygon fill="midnightblue" stroke="midnightblue" points="380.374,-97.2888 379.059,-86.776 373.531,-95.8144 380.374,-97.2888"/>
</g>
<!-- Node23 -->
<g id="node55" class="node"><title>Node23</title>
<a xlink:href="../../d4/d45/if__schematiclayerprovider_8h.html" target="_top" xlink:title="librepcbcommon/if_schematiclayerprovider.h">
<polygon fill="white" stroke="black" points="489.017,-65.5 489.017,-86.5 699.017,-86.5 699.017,-65.5 489.017,-65.5"/>
<text text-anchor="middle" x="594.017" y="-73.5" font-family="Helvetica,sans-Serif" font-size="10.00">librepcbcommon/if_schematiclayerprovider.h</text>
</a>
</g>
<!-- Node21&#45;&gt;Node23 -->
<g id="edge64" class="edge"><title>Node21&#45;&gt;Node23</title>
<path fill="none" stroke="midnightblue" d="M427.36,-209.456C415.282,-191.419 394.947,-154.248 413.017,-130 426.406,-112.033 477.083,-97.8594 521.42,-88.5499"/>
<polygon fill="midnightblue" stroke="midnightblue" points="522.254,-91.9517 531.352,-86.5215 520.854,-85.0933 522.254,-91.9517"/>
</g>
<!-- Node24 -->
<g id="node58" class="node"><title>Node24</title>
<a xlink:href="../../d4/dba/if__boardlayerprovider_8h.html" target="_top" xlink:title="librepcbcommon/if_boardlayerprovider.h">
<polygon fill="white" stroke="black" points="48.5166,-65.5 48.5166,-86.5 237.517,-86.5 237.517,-65.5 48.5166,-65.5"/>
<text text-anchor="middle" x="143.017" y="-73.5" font-family="Helvetica,sans-Serif" font-size="10.00">librepcbcommon/if_boardlayerprovider.h</text>
</a>
</g>
<!-- Node21&#45;&gt;Node24 -->
<g id="edge68" class="edge"><title>Node21&#45;&gt;Node24</title>
<path fill="none" stroke="midnightblue" d="M377.548,-209.484C340.033,-201.118 290.817,-187.234 251.017,-166 214.897,-146.729 179.744,-114.074 159.798,-93.8468"/>
<polygon fill="midnightblue" stroke="midnightblue" points="162.163,-91.2578 152.692,-86.509 157.135,-96.1275 162.163,-91.2578"/>
</g>
<!-- Node25 -->
<g id="node62" class="node"><title>Node25</title>
<a xlink:href="../../d5/db9/filelock_8h.html" target="_top" xlink:title="librepcbcommon/fileio\l/filelock.h">
<polygon fill="white" stroke="black" points="421.517,-131 421.517,-165 532.517,-165 532.517,-131 421.517,-131"/>
<text text-anchor="start" x="429.517" y="-152" font-family="Helvetica,sans-Serif" font-size="10.00">librepcbcommon/fileio</text>
<text text-anchor="middle" x="477.017" y="-139" font-family="Helvetica,sans-Serif" font-size="10.00">/filelock.h</text>
</a>
</g>
<!-- Node21&#45;&gt;Node25 -->
<g id="edge74" class="edge"><title>Node21&#45;&gt;Node25</title>
<path fill="none" stroke="midnightblue" d="M441.214,-209.376C446.632,-200.087 454.726,-186.212 461.848,-174.002"/>
<polygon fill="midnightblue" stroke="midnightblue" points="465.029,-175.496 467.045,-165.094 458.983,-171.969 465.029,-175.496"/>
</g>
<!-- Node22&#45;&gt;Node2 -->
<g id="edge62" class="edge"><title>Node22&#45;&gt;Node2</title>
<path fill="none" stroke="midnightblue" d="M436.353,-65.4635C450.539,-62.8655 465.828,-60.2 480.017,-58 603.389,-38.8704 750.748,-21.9605 816.448,-14.7291"/>
<polygon fill="midnightblue" stroke="midnightblue" points="817.083,-18.1805 826.643,-13.6127 816.321,-11.2221 817.083,-18.1805"/>
</g>
<!-- Node23&#45;&gt;Node2 -->
<g id="edge66" class="edge"><title>Node23&#45;&gt;Node2</title>
<path fill="none" stroke="midnightblue" d="M635.594,-65.4844C686.046,-52.724 770.154,-31.4517 816.953,-19.6152"/>
<polygon fill="midnightblue" stroke="midnightblue" points="818.064,-22.9445 826.901,-17.0993 816.348,-16.1582 818.064,-22.9445"/>
</g>
<!-- Node24&#45;&gt;Node2 -->
<g id="edge70" class="edge"><title>Node24&#45;&gt;Node2</title>
<path fill="none" stroke="midnightblue" d="M200.333,-65.4946C216.666,-62.7601 234.507,-60.0185 251.017,-58 465.508,-31.7752 725.023,-17.2484 816.831,-12.6342"/>
<polygon fill="midnightblue" stroke="midnightblue" points="817.121,-16.1242 826.935,-12.1326 816.774,-9.13284 817.121,-16.1242"/>
</g>
<!-- Node25&#45;&gt;Node2 -->
<g id="edge76" class="edge"><title>Node25&#45;&gt;Node2</title>
<path fill="none" stroke="midnightblue" d="M532.708,-133.285C537.206,-132.154 541.684,-131.046 546.017,-130 617.712,-112.688 642.888,-128.616 708.017,-94 728.56,-83.0815 726.68,-70.9362 746.017,-58 768.229,-43.1399 795.907,-30.9737 817.269,-22.745"/>
<polygon fill="midnightblue" stroke="midnightblue" points="818.761,-25.9237 826.896,-19.1367 816.304,-19.369 818.761,-25.9237"/>
</g>
<!-- Node25&#45;&gt;Node5 -->
<g id="edge80" class="edge"><title>Node25&#45;&gt;Node5</title>
<path fill="none" stroke="midnightblue" d="M532.596,-132.757C537.119,-131.744 541.634,-130.808 546.017,-130 690.241,-103.42 728.272,-110.3 874.017,-94 898.264,-91.2882 924.6,-88.3036 948.692,-85.5577"/>
<polygon fill="midnightblue" stroke="midnightblue" points="949.329,-89.0079 958.867,-84.397 948.535,-82.053 949.329,-89.0079"/>
</g>
<!-- Node25&#45;&gt;Node20 -->
<g id="edge78" class="edge"><title>Node25&#45;&gt;Node20</title>
<path fill="none" stroke="midnightblue" d="M532.668,-133.112C537.175,-132.019 541.666,-130.968 546.017,-130 632.045,-110.864 654.988,-113.136 741.017,-94 742.104,-93.7581 743.201,-93.5109 744.304,-93.2592"/>
<polygon fill="midnightblue" stroke="midnightblue" points="745.435,-96.5887 754.365,-90.8882 743.829,-89.7753 745.435,-96.5887"/>
</g>
<!-- Node26&#45;&gt;Node2 -->
<g id="edge84" class="edge"><title>Node26&#45;&gt;Node2</title>
<path fill="none" stroke="midnightblue" d="M777.209,-137.404C813.621,-127.106 862.668,-110.628 874.017,-94 887.224,-74.6487 875.648,-47.8924 864.678,-30.0451"/>
<polygon fill="midnightblue" stroke="midnightblue" points="867.551,-28.0428 859.132,-21.6106 861.702,-31.889 867.551,-28.0428"/>
</g>
<!-- Node26&#45;&gt;Node5 -->
<g id="edge86" class="edge"><title>Node26&#45;&gt;Node5</title>
<path fill="none" stroke="midnightblue" d="M779.375,-137.453C832.243,-124.594 921.584,-102.862 978.631,-88.9856"/>
<polygon fill="midnightblue" stroke="midnightblue" points="979.653,-92.3392 988.543,-86.5747 977.999,-85.5375 979.653,-92.3392"/>
</g>
<!-- Node27&#45;&gt;Node2 -->
<g id="edge90" class="edge"><title>Node27&#45;&gt;Node2</title>
<path fill="none" stroke="midnightblue" d="M1112.63,-209.306C1155.38,-199.696 1209.75,-184.303 1223.02,-166 1232.41,-153.046 1230.6,-144.091 1223.02,-130 1195.51,-78.869 1167.93,-79.5514 1114.02,-58 1036.01,-26.8165 936.739,-16.2316 885.338,-12.7073"/>
<polygon fill="midnightblue" stroke="midnightblue" points="885.323,-9.19934 875.121,-12.0575 884.878,-16.1852 885.323,-9.19934"/>
</g>
<!-- Node27&#45;&gt;Node5 -->
<g id="edge96" class="edge"><title>Node27&#45;&gt;Node5</title>
<path fill="none" stroke="midnightblue" d="M1054.93,-202.916C1050.13,-176.345 1040.9,-125.207 1035.74,-96.6222"/>
<polygon fill="midnightblue" stroke="midnightblue" points="1039.14,-95.7602 1033.92,-86.5413 1032.25,-97.004 1039.14,-95.7602"/>
</g>
<!-- Node27&#45;&gt;Node19 -->
<g id="edge94" class="edge"><title>Node27&#45;&gt;Node19</title>
<path fill="none" stroke="midnightblue" d="M1036.21,-202.937C1024.16,-193.501 1009,-181.639 995.858,-171.354"/>
<polygon fill="midnightblue" stroke="midnightblue" points="998.014,-168.597 987.982,-165.19 993.7,-174.109 998.014,-168.597"/>
</g>
<!-- Node28 -->
<g id="node74" class="node"><title>Node28</title>
<a xlink:href="../../da/dfb/if__ercmsgprovider_8h.html" target="_top" xlink:title="../erc/if_ercmsgprovider.h">
<polygon fill="white" stroke="black" points="1086.02,-137.5 1086.02,-158.5 1214.02,-158.5 1214.02,-137.5 1086.02,-137.5"/>
<text text-anchor="middle" x="1150.02" y="-145.5" font-family="Helvetica,sans-Serif" font-size="10.00">../erc/if_ercmsgprovider.h</text>
</a>
</g>
<!-- Node27&#45;&gt;Node28 -->
<g id="edge92" class="edge"><title>Node27&#45;&gt;Node28</title>
<path fill="none" stroke="midnightblue" d="M1079.82,-202.937C1094.48,-191.465 1113.72,-176.408 1128.35,-164.958"/>
<polygon fill="midnightblue" stroke="midnightblue" points="1130.64,-167.607 1136.36,-158.688 1126.33,-162.095 1130.64,-167.607"/>
</g>
<!-- Node29&#45;&gt;Node2 -->
<g id="edge100" class="edge"><title>Node29&#45;&gt;Node2</title>
<path fill="none" stroke="midnightblue" d="M1282.74,-202.847C1278.48,-183.765 1269.67,-152.645 1254.02,-130 1225.87,-89.2733 1214.13,-78.4029 1169.02,-58 1118.84,-35.304 957.014,-19.6673 885.521,-13.6953"/>
<polygon fill="midnightblue" stroke="midnightblue" points="885.506,-10.1823 875.253,-12.8523 884.933,-17.1588 885.506,-10.1823"/>
</g>
<!-- Node29&#45;&gt;Node5 -->
<g id="edge108" class="edge"><title>Node29&#45;&gt;Node5</title>
<path fill="none" stroke="midnightblue" d="M1278.41,-202.712C1268.56,-182.307 1249.45,-148.781 1223.02,-130 1191.44,-107.559 1150.75,-94.4133 1115.06,-86.7273"/>
<polygon fill="midnightblue" stroke="midnightblue" points="1115.63,-83.2723 1105.13,-84.701 1114.23,-90.1308 1115.63,-83.2723"/>
</g>
<!-- Node30 -->
<g id="node81" class="node"><title>Node30</title>
<a xlink:href="../../dc/da0/undocommand_8h.html" target="_top" xlink:title="librepcbcommon/undocommand.h">
<polygon fill="white" stroke="black" points="1383.52,-137.5 1383.52,-158.5 1546.52,-158.5 1546.52,-137.5 1383.52,-137.5"/>
<text text-anchor="middle" x="1465.02" y="-145.5" font-family="Helvetica,sans-Serif" font-size="10.00">librepcbcommon/undocommand.h</text>
</a>
</g>
<!-- Node29&#45;&gt;Node30 -->
<g id="edge102" class="edge"><title>Node29&#45;&gt;Node30</title>
<path fill="none" stroke="midnightblue" d="M1328.44,-202.937C1359.18,-190.57 1400.29,-174.036 1429.35,-162.347"/>
<polygon fill="midnightblue" stroke="midnightblue" points="1430.74,-165.561 1438.71,-158.582 1428.12,-159.067 1430.74,-165.561"/>
</g>
<!-- Node30&#45;&gt;Node2 -->
<g id="edge104" class="edge"><title>Node30&#45;&gt;Node2</title>
<path fill="none" stroke="midnightblue" d="M1453.68,-137.343C1432.01,-117.706 1382.37,-76.1619 1332.02,-58 1249.47,-28.2287 980.726,-15.7312 885.143,-12.1546"/>
<polygon fill="midnightblue" stroke="midnightblue" points="885.264,-8.65673 875.143,-11.7895 885.008,-15.6521 885.264,-8.65673"/>
</g>
<!-- Node30&#45;&gt;Node5 -->
<g id="edge106" class="edge"><title>Node30&#45;&gt;Node5</title>
<path fill="none" stroke="midnightblue" d="M1410.81,-137.45C1397.48,-134.933 1383.25,-132.31 1370.02,-130 1281.9,-114.617 1180.55,-98.6547 1112,-88.1128"/>
<polygon fill="midnightblue" stroke="midnightblue" points="1112.12,-84.5907 1101.7,-86.5329 1111.06,-91.5096 1112.12,-84.5907"/>
</g>
<!-- Node31&#45;&gt;Node2 -->
<g id="edge112" class="edge"><title>Node31&#45;&gt;Node2</title>
<path fill="none" stroke="midnightblue" d="M1496.66,-207.153C1518.92,-199.188 1541.87,-186.406 1555.02,-166 1563.68,-152.55 1563.95,-143.275 1555.02,-130 1507.61,-59.537 1460.56,-77.9927 1378.02,-58 1283.81,-35.1801 986.727,-18.0412 885.327,-12.727"/>
<polygon fill="midnightblue" stroke="midnightblue" points="885.209,-9.21625 875.041,-12.1935 884.846,-16.2069 885.209,-9.21625"/>
</g>
<!-- Node31&#45;&gt;Node5 -->
<g id="edge116" class="edge"><title>Node31&#45;&gt;Node5</title>
<path fill="none" stroke="midnightblue" d="M1406.64,-202.938C1371.38,-183.066 1310,-150.367 1254.02,-130 1203.77,-111.719 1144.88,-97.7172 1100.39,-88.5572"/>
<polygon fill="midnightblue" stroke="midnightblue" points="1101.05,-85.1194 1090.55,-86.5622 1099.65,-91.9798 1101.05,-85.1194"/>
</g>
<!-- Node31&#45;&gt;Node30 -->
<g id="edge114" class="edge"><title>Node31&#45;&gt;Node30</title>
<path fill="none" stroke="midnightblue" d="M1442.89,-202.937C1447.05,-192.601 1452.39,-179.352 1456.78,-168.456"/>
<polygon fill="midnightblue" stroke="midnightblue" points="1460.14,-169.485 1460.63,-158.901 1453.64,-166.869 1460.14,-169.485"/>
</g>
<!-- Node32&#45;&gt;Node2 -->
<g id="edge120" class="edge"><title>Node32&#45;&gt;Node2</title>
<path fill="none" stroke="midnightblue" d="M1605.68,-202.76C1604.49,-183.316 1599.99,-151.596 1584.02,-130 1546.8,-79.6901 1522.67,-76.8937 1463.02,-58 1354.02,-23.4814 997.771,-13.8086 885.338,-11.5821"/>
<polygon fill="midnightblue" stroke="midnightblue" points="885.301,-8.08085 875.236,-11.3893 885.167,-15.0796 885.301,-8.08085"/>
</g>
<!-- Node32&#45;&gt;Node5 -->
<g id="edge124" class="edge"><title>Node32&#45;&gt;Node5</title>
<path fill="none" stroke="midnightblue" d="M1601.5,-202.749C1595.01,-181.721 1580.87,-146.904 1555.02,-130 1519.1,-106.517 1253.76,-88.3963 1115.42,-80.4309"/>
<polygon fill="midnightblue" stroke="midnightblue" points="1115.46,-76.9277 1105.28,-79.852 1115.06,-83.9163 1115.46,-76.9277"/>
</g>
<!-- Node32&#45;&gt;Node30 -->
<g id="edge122" class="edge"><title>Node32&#45;&gt;Node30</title>
<path fill="none" stroke="midnightblue" d="M1572.6,-202.937C1549.09,-190.929 1517.88,-174.992 1495.13,-163.377"/>
<polygon fill="midnightblue" stroke="midnightblue" points="1496.45,-160.119 1485.95,-158.688 1493.26,-166.353 1496.45,-160.119"/>
</g>
</g>
</svg>
