<?xml version="1.0" encoding="UTF-8" standalone="no"?>
<!DOCTYPE svg PUBLIC "-//W3C//DTD SVG 1.1//EN"
 "http://www.w3.org/Graphics/SVG/1.1/DTD/svg11.dtd">
<!-- Generated by graphviz version 2.26.3 (20100126.1600)
 -->
<!-- Title: /home/travis/build/LibrePCB/LibrePCB/libs/librepcbproject/library/cmd/cmdprojectlibraryaddelement.h Pages: 1 -->
<svg width="269pt" height="258pt"
 viewBox="0.00 0.00 268.58 258.00" xmlns="http://www.w3.org/2000/svg" xmlns:xlink="http://www.w3.org/1999/xlink">
<g id="graph1" class="graph" transform="scale(1 1) rotate(0) translate(4 254)">
<title>/home/travis/build/LibrePCB/LibrePCB/libs/librepcbproject/library/cmd/cmdprojectlibraryaddelement.h</title>
<polygon fill="white" stroke="white" points="-4,5 -4,-254 265.585,-254 265.585,5 -4,5"/>
<!-- Node1 -->
<g id="node1" class="node"><title>Node1</title>
<polygon fill="#bfbfbf" stroke="black" points="9.58496,-189 9.58496,-249 183.585,-249 183.585,-189 9.58496,-189"/>
<text text-anchor="start" x="17.585" y="-236" font-family="Helvetica,sans-Serif" font-size="10.00">/home/travis/build</text>
<text text-anchor="start" x="17.585" y="-223" font-family="Helvetica,sans-Serif" font-size="10.00">/LibrePCB/LibrePCB/libs</text>
<text text-anchor="start" x="17.585" y="-210" font-family="Helvetica,sans-Serif" font-size="10.00">/librepcbproject/library</text>
<text text-anchor="middle" x="96.585" y="-197" font-family="Helvetica,sans-Serif" font-size="10.00">/cmd/cmdprojectlibraryaddelement.h</text>
</g>
<!-- Node2 -->
<g id="node3" class="node"><title>Node2</title>
<polygon fill="white" stroke="#bfbfbf" points="40.585,-0.5 40.585,-21.5 88.585,-21.5 88.585,-0.5 40.585,-0.5"/>
<text text-anchor="middle" x="64.585" y="-8.5" font-family="Helvetica,sans-Serif" font-size="10.00">QtCore</text>
</g>
<!-- Node1&#45;&gt;Node2 -->
<g id="edge2" class="edge"><title>Node1&#45;&gt;Node2</title>
<path fill="none" stroke="midnightblue" d="M39.2409,-188.709C26.1429,-178.862 13.9286,-166.622 6.58496,-152 -14.8392,-109.342 22.7059,-56.8116 46.7686,-29.4885"/>
<polygon fill="midnightblue" stroke="midnightblue" points="49.5744,-31.6058 53.7232,-21.857 44.4006,-26.8907 49.5744,-31.6058"/>
</g>
<!-- Node3 -->
<g id="node5" class="node"><title>Node3</title>
<a xlink:href="../../dc/da0/undocommand_8h.html" target="_top" xlink:title="librepcbcommon/undocommand.h">
<polygon fill="white" stroke="black" points="15.085,-130.5 15.085,-151.5 178.085,-151.5 178.085,-130.5 15.085,-130.5"/>
<text text-anchor="middle" x="96.585" y="-138.5" font-family="Helvetica,sans-Serif" font-size="10.00">librepcbcommon/undocommand.h</text>
</a>
</g>
<!-- Node1&#45;&gt;Node3 -->
<g id="edge4" class="edge"><title>Node1&#45;&gt;Node3</title>
<path fill="none" stroke="midnightblue" d="M96.585,-188.62C96.585,-179.68 96.585,-170.103 96.585,-161.9"/>
<polygon fill="midnightblue" stroke="midnightblue" points="100.085,-161.753 96.585,-151.753 93.0851,-161.753 100.085,-161.753"/>
</g>
<!-- Node5 -->
<g id="node11" class="node"><title>Node5</title>
<a xlink:href="../../dd/dec/filepath_8h.html" target="_top" xlink:title="librepcbcommon/fileio\l/filepath.h">
<polygon fill="white" stroke="black" points="150.085,-59 150.085,-93 261.085,-93 261.085,-59 150.085,-59"/>
<text text-anchor="start" x="158.085" y="-80" font-family="Helvetica,sans-Serif" font-size="10.00">librepcbcommon/fileio</text>
<text text-anchor="middle" x="205.585" y="-67" font-family="Helvetica,sans-Serif" font-size="10.00">/filepath.h</text>
</a>
</g>
<!-- Node1&#45;&gt;Node5 -->
<g id="edge12" class="edge"><title>Node1&#45;&gt;Node5</title>
<path fill="none" stroke="midnightblue" d="M149.709,-188.737C163.472,-178.638 177.078,-166.264 186.585,-152 196.269,-137.472 201.018,-118.403 203.347,-103.001"/>
<polygon fill="midnightblue" stroke="midnightblue" points="206.826,-103.383 204.603,-93.0242 199.881,-102.508 206.826,-103.383"/>
</g>
<!-- Node3&#45;&gt;Node2 -->
<g id="edge6" class="edge"><title>Node3&#45;&gt;Node2</title>
<path fill="none" stroke="midnightblue" d="M81.3176,-130.196C70.7541,-121.719 57.5623,-108.886 51.585,-94 43.3937,-73.6002 49.3536,-48.4514 55.6411,-31.2166"/>
<polygon fill="midnightblue" stroke="midnightblue" points="59.0147,-32.2062 59.4747,-21.6213 52.5143,-29.609 59.0147,-32.2062"/>
</g>
<!-- Node4 -->
<g id="node8" class="node"><title>Node4</title>
<a xlink:href="../../d4/d03/exceptions_8h.html" target="_top" xlink:title="exceptions.h">
<polygon fill="white" stroke="black" points="60.585,-65.5 60.585,-86.5 132.585,-86.5 132.585,-65.5 60.585,-65.5"/>
<text text-anchor="middle" x="96.585" y="-73.5" font-family="Helvetica,sans-Serif" font-size="10.00">exceptions.h</text>
</a>
</g>
<!-- Node3&#45;&gt;Node4 -->
<g id="edge8" class="edge"><title>Node3&#45;&gt;Node4</title>
<path fill="none" stroke="midnightblue" d="M96.585,-130.267C96.585,-121.18 96.585,-107.892 96.585,-96.7395"/>
<polygon fill="midnightblue" stroke="midnightblue" points="100.085,-96.5337 96.585,-86.5337 93.0851,-96.5337 100.085,-96.5337"/>
</g>
<!-- Node4&#45;&gt;Node2 -->
<g id="edge10" class="edge"><title>Node4&#45;&gt;Node2</title>
<path fill="none" stroke="midnightblue" d="M91.3008,-65.2666C86.6876,-55.8959 79.8747,-42.0573 74.2836,-30.7004"/>
<polygon fill="midnightblue" stroke="midnightblue" points="77.3278,-28.9595 69.7708,-21.5337 71.0476,-32.0513 77.3278,-28.9595"/>
</g>
<!-- Node5&#45;&gt;Node2 -->
<g id="edge14" class="edge"><title>Node5&#45;&gt;Node2</title>
<path fill="none" stroke="midnightblue" d="M168.539,-58.922C146.321,-48.6798 118.333,-35.7774 96.9962,-25.9413"/>
<polygon fill="midnightblue" stroke="midnightblue" points="98.2522,-22.6664 87.7054,-21.6584 95.3216,-29.0234 98.2522,-22.6664"/>
</g>
</g>
</svg>
