<?xml version="1.0" encoding="UTF-8" standalone="no"?>
<!DOCTYPE svg PUBLIC "-//W3C//DTD SVG 1.1//EN"
 "http://www.w3.org/Graphics/SVG/1.1/DTD/svg11.dtd">
<!-- Generated by graphviz version 2.26.3 (20100126.1600)
 -->
<!-- Title: isSelected Pages: 1 -->
<svg width="388pt" height="146pt"
 viewBox="0.00 0.00 388.00 146.00" xmlns="http://www.w3.org/2000/svg" xmlns:xlink="http://www.w3.org/1999/xlink">
<g id="graph1" class="graph" transform="scale(1 1) rotate(0) translate(4 142)">
<title>isSelected</title>
<polygon fill="white" stroke="white" points="-4,5 -4,-142 385,-142 385,5 -4,5"/>
<!-- Node1 -->
<g id="node1" class="node"><title>Node1</title>
<polygon fill="#bfbfbf" stroke="black" points="0,-58.5 0,-79.5 62,-79.5 62,-58.5 0,-58.5"/>
<text text-anchor="middle" x="31" y="-66.5" font-family="Helvetica,sans-Serif" font-size="10.00">isSelected</text>
</g>
<!-- Node2 -->
<g id="node3" class="node"><title>Node2</title>
<a xlink:href="../../d5/d07/classproject_1_1_board.html#a262639fc1207769d33095d092cc2e068" target="_top" xlink:title="project::Board::getSelected\lItems">
<polygon fill="white" stroke="black" points="98.5,-104 98.5,-138 233.5,-138 233.5,-104 98.5,-104"/>
<text text-anchor="start" x="106.5" y="-125" font-family="Helvetica,sans-Serif" font-size="10.00">project::Board::getSelected</text>
<text text-anchor="middle" x="166" y="-112" font-family="Helvetica,sans-Serif" font-size="10.00">Items</text>
</a>
</g>
<!-- Node1&#45;&gt;Node2 -->
<g id="edge2" class="edge"><title>Node1&#45;&gt;Node2</title>
<path fill="none" stroke="midnightblue" d="M67.586,-83.2354C77.4553,-87.0651 88.1325,-91.199 98,-95 105.548,-97.9077 113.573,-100.986 121.363,-103.969"/>
<polygon fill="midnightblue" stroke="midnightblue" points="68.6348,-79.8881 58.046,-79.5306 66.1007,-86.4133 68.6348,-79.8881"/>
</g>
<!-- Node4 -->
<g id="node7" class="node"><title>Node4</title>
<a xlink:href="../../dc/d87/classproject_1_1_b_g_i___footprint.html#aa77fc5d2da89e1f09b09f7c6724ed721" target="_top" xlink:title="project::BGI_Footprint\l::paint">
<polygon fill="white" stroke="black" points="109.5,-52 109.5,-86 222.5,-86 222.5,-52 109.5,-52"/>
<text text-anchor="start" x="117.5" y="-73" font-family="Helvetica,sans-Serif" font-size="10.00">project::BGI_Footprint</text>
<text text-anchor="middle" x="166" y="-60" font-family="Helvetica,sans-Serif" font-size="10.00">::paint</text>
</a>
</g>
<!-- Node1&#45;&gt;Node4 -->
<g id="edge6" class="edge"><title>Node1&#45;&gt;Node4</title>
<path fill="none" stroke="midnightblue" d="M72.6074,-69C84.2429,-69 97.0882,-69 109.432,-69"/>
<polygon fill="midnightblue" stroke="midnightblue" points="72.3111,-65.5001 62.311,-69 72.311,-72.5001 72.3111,-65.5001"/>
</g>
<!-- Node5 -->
<g id="node9" class="node"><title>Node5</title>
<a xlink:href="../../d9/d13/classproject_1_1_b_g_i___footprint_pad.html#aa77fc5d2da89e1f09b09f7c6724ed721" target="_top" xlink:title="project::BGI_FootprintPad\l::paint">
<polygon fill="white" stroke="black" points="101,-0 101,-34 231,-34 231,-0 101,-0"/>
<text text-anchor="start" x="109" y="-21" font-family="Helvetica,sans-Serif" font-size="10.00">project::BGI_FootprintPad</text>
<text text-anchor="middle" x="166" y="-8" font-family="Helvetica,sans-Serif" font-size="10.00">::paint</text>
</a>
</g>
<!-- Node1&#45;&gt;Node5 -->
<g id="edge8" class="edge"><title>Node1&#45;&gt;Node5</title>
<path fill="none" stroke="midnightblue" d="M67.586,-54.7646C77.4553,-50.9349 88.1325,-46.801 98,-43 105.548,-40.0923 113.573,-37.0135 121.363,-34.0308"/>
<polygon fill="midnightblue" stroke="midnightblue" points="66.1007,-51.5867 58.046,-58.4694 68.6348,-58.1119 66.1007,-51.5867"/>
</g>
<!-- Node3 -->
<g id="node5" class="node"><title>Node3</title>
<a xlink:href="../../db/dd3/classproject_1_1_b_e_s___select.html#a1f262c8e6a4c3d45093729fa34ec01e8" target="_top" xlink:title="project::BES_Select\l::rotateSelectedItems">
<polygon fill="white" stroke="black" points="270,-104 270,-138 380,-138 380,-104 270,-104"/>
<text text-anchor="start" x="278" y="-125" font-family="Helvetica,sans-Serif" font-size="10.00">project::BES_Select</text>
<text text-anchor="middle" x="325" y="-112" font-family="Helvetica,sans-Serif" font-size="10.00">::rotateSelectedItems</text>
</a>
</g>
<!-- Node2&#45;&gt;Node3 -->
<g id="edge4" class="edge"><title>Node2&#45;&gt;Node3</title>
<path fill="none" stroke="midnightblue" d="M244.065,-121C252.761,-121 261.48,-121 269.806,-121"/>
<polygon fill="midnightblue" stroke="midnightblue" points="243.892,-117.5 233.892,-121 243.891,-124.5 243.892,-117.5"/>
</g>
</g>
</svg>
