<?xml version="1.0" encoding="UTF-8" standalone="no"?>
<!DOCTYPE svg PUBLIC "-//W3C//DTD SVG 1.1//EN"
 "http://www.w3.org/Graphics/SVG/1.1/DTD/svg11.dtd">
<!-- Generated by graphviz version 2.26.3 (20100126.1600)
 -->
<!-- Title: /home/travis/build/LibrePCB/LibrePCB/libs/librepcbproject/boards/board.h Pages: 1 -->
<svg width="1910pt" height="462pt"
 viewBox="0.00 0.00 1910.00 462.00" xmlns="http://www.w3.org/2000/svg" xmlns:xlink="http://www.w3.org/1999/xlink">
<g id="graph1" class="graph" transform="scale(1 1) rotate(0) translate(4 458)">
<title>/home/travis/build/LibrePCB/LibrePCB/libs/librepcbproject/boards/board.h</title>
<polygon fill="white" stroke="white" points="-4,5 -4,-458 1907,-458 1907,5 -4,5"/>
<!-- Node1 -->
<g id="node1" class="node"><title>Node1</title>
<polygon fill="#bfbfbf" stroke="black" points="732.5,-393 732.5,-453 857.5,-453 857.5,-393 732.5,-393"/>
<text text-anchor="start" x="740.5" y="-440" font-family="Helvetica,sans-Serif" font-size="10.00">/home/travis/build</text>
<text text-anchor="start" x="740.5" y="-427" font-family="Helvetica,sans-Serif" font-size="10.00">/LibrePCB/LibrePCB/libs</text>
<text text-anchor="start" x="740.5" y="-414" font-family="Helvetica,sans-Serif" font-size="10.00">/librepcbproject/boards</text>
<text text-anchor="middle" x="795" y="-401" font-family="Helvetica,sans-Serif" font-size="10.00">/board.h</text>
</g>
<!-- Node2 -->
<g id="node3" class="node"><title>Node2</title>
<a xlink:href="../../df/d6e/board_8cpp.html" target="_top" xlink:title="/home/travis/build\l/LibrePCB/LibrePCB/libs\l/librepcbproject/boards\l/board.cpp">
<polygon fill="white" stroke="black" points="187.5,-1 187.5,-61 312.5,-61 312.5,-1 187.5,-1"/>
<text text-anchor="start" x="195.5" y="-48" font-family="Helvetica,sans-Serif" font-size="10.00">/home/travis/build</text>
<text text-anchor="start" x="195.5" y="-35" font-family="Helvetica,sans-Serif" font-size="10.00">/LibrePCB/LibrePCB/libs</text>
<text text-anchor="start" x="195.5" y="-22" font-family="Helvetica,sans-Serif" font-size="10.00">/librepcbproject/boards</text>
<text text-anchor="middle" x="250" y="-9" font-family="Helvetica,sans-Serif" font-size="10.00">/board.cpp</text>
</a>
</g>
<!-- Node1&#45;&gt;Node2 -->
<g id="edge2" class="edge"><title>Node1&#45;&gt;Node2</title>
<path fill="none" stroke="midnightblue" d="M721.918,-420.608C627.897,-415.734 460.548,-400.932 325,-356 238.538,-327.339 191.528,-336.309 145,-258 104.966,-190.62 173.585,-105.407 217.542,-61.0048"/>
<polygon fill="midnightblue" stroke="midnightblue" points="722.017,-424.117 732.178,-421.116 722.363,-417.126 722.017,-424.117"/>
</g>
<!-- Node3 -->
<g id="node5" class="node"><title>Node3</title>
<a xlink:href="../../de/dca/bgi__base_8h.html" target="_top" xlink:title="/home/travis/build\l/LibrePCB/LibrePCB/libs\l/librepcbproject/boards\l/graphicsitems/bgi_base.h">
<polygon fill="white" stroke="black" points="333.5,-295 333.5,-355 464.5,-355 464.5,-295 333.5,-295"/>
<text text-anchor="start" x="341.5" y="-342" font-family="Helvetica,sans-Serif" font-size="10.00">/home/travis/build</text>
<text text-anchor="start" x="341.5" y="-329" font-family="Helvetica,sans-Serif" font-size="10.00">/LibrePCB/LibrePCB/libs</text>
<text text-anchor="start" x="341.5" y="-316" font-family="Helvetica,sans-Serif" font-size="10.00">/librepcbproject/boards</text>
<text text-anchor="middle" x="399" y="-303" font-family="Helvetica,sans-Serif" font-size="10.00">/graphicsitems/bgi_base.h</text>
</a>
</g>
<!-- Node1&#45;&gt;Node3 -->
<g id="edge4" class="edge"><title>Node1&#45;&gt;Node3</title>
<path fill="none" stroke="midnightblue" d="M722.422,-410.003C659.385,-398.066 565.919,-378.8 486,-356 479.061,-354.02 471.874,-351.779 464.739,-349.429"/>
<polygon fill="midnightblue" stroke="midnightblue" points="721.797,-413.447 732.271,-411.856 723.09,-406.568 721.797,-413.447"/>
</g>
<!-- Node6 -->
<g id="node12" class="node"><title>Node6</title>
<a xlink:href="../../d6/d55/componentinstance_8cpp.html" target="_top" xlink:title="/home/travis/build\l/LibrePCB/LibrePCB/libs\l/librepcbproject/boards\l/componentinstance.cpp">
<polygon fill="white" stroke="black" points="963.5,-1 963.5,-61 1088.5,-61 1088.5,-1 963.5,-1"/>
<text text-anchor="start" x="971.5" y="-48" font-family="Helvetica,sans-Serif" font-size="10.00">/home/travis/build</text>
<text text-anchor="start" x="971.5" y="-35" font-family="Helvetica,sans-Serif" font-size="10.00">/LibrePCB/LibrePCB/libs</text>
<text text-anchor="start" x="971.5" y="-22" font-family="Helvetica,sans-Serif" font-size="10.00">/librepcbproject/boards</text>
<text text-anchor="middle" x="1026" y="-9" font-family="Helvetica,sans-Serif" font-size="10.00">/componentinstance.cpp</text>
</a>
</g>
<!-- Node1&#45;&gt;Node6 -->
<g id="edge50" class="edge"><title>Node1&#45;&gt;Node6</title>
<path fill="none" stroke="midnightblue" d="M802.999,-383.013C809.137,-356.835 818.961,-322.353 833,-294 878.739,-201.628 956.992,-107.669 998.409,-61.0671"/>
<polygon fill="midnightblue" stroke="midnightblue" points="799.541,-382.44 800.749,-392.965 806.368,-383.984 799.541,-382.44"/>
</g>
<!-- Node7 -->
<g id="node14" class="node"><title>Node7</title>
<a xlink:href="../../dc/d8a/bgi__footprint_8cpp.html" target="_top" xlink:title="/home/travis/build\l/LibrePCB/LibrePCB/libs\l/librepcbproject/boards\l/graphicsitems/bgi_footprint.cpp">
<polygon fill="white" stroke="black" points="791.5,-1 791.5,-61 946.5,-61 946.5,-1 791.5,-1"/>
<text text-anchor="start" x="799.5" y="-48" font-family="Helvetica,sans-Serif" font-size="10.00">/home/travis/build</text>
<text text-anchor="start" x="799.5" y="-35" font-family="Helvetica,sans-Serif" font-size="10.00">/LibrePCB/LibrePCB/libs</text>
<text text-anchor="start" x="799.5" y="-22" font-family="Helvetica,sans-Serif" font-size="10.00">/librepcbproject/boards</text>
<text text-anchor="middle" x="869" y="-9" font-family="Helvetica,sans-Serif" font-size="10.00">/graphicsitems/bgi_footprint.cpp</text>
</a>
</g>
<!-- Node1&#45;&gt;Node7 -->
<g id="edge52" class="edge"><title>Node1&#45;&gt;Node7</title>
<path fill="none" stroke="midnightblue" d="M786.149,-382.718C774.218,-319.197 758.878,-193.2 800,-98 806.025,-84.0511 816.486,-71.553 827.467,-61.2368"/>
<polygon fill="midnightblue" stroke="midnightblue" points="782.751,-383.583 788.099,-392.73 789.622,-382.245 782.751,-383.583"/>
</g>
<!-- Node8 -->
<g id="node16" class="node"><title>Node8</title>
<a xlink:href="../../dd/d3c/bgi__footprintpad_8cpp.html" target="_top" xlink:title="/home/travis/build\l/LibrePCB/LibrePCB/libs\l/librepcbproject/boards\l/graphicsitems/bgi_footprintpad.cpp">
<polygon fill="white" stroke="black" points="-0.5,-1 -0.5,-61 170.5,-61 170.5,-1 -0.5,-1"/>
<text text-anchor="start" x="7.5" y="-48" font-family="Helvetica,sans-Serif" font-size="10.00">/home/travis/build</text>
<text text-anchor="start" x="7.5" y="-35" font-family="Helvetica,sans-Serif" font-size="10.00">/LibrePCB/LibrePCB/libs</text>
<text text-anchor="start" x="7.5" y="-22" font-family="Helvetica,sans-Serif" font-size="10.00">/librepcbproject/boards</text>
<text text-anchor="middle" x="85" y="-9" font-family="Helvetica,sans-Serif" font-size="10.00">/graphicsitems/bgi_footprintpad.cpp</text>
</a>
</g>
<!-- Node1&#45;&gt;Node8 -->
<g id="edge54" class="edge"><title>Node1&#45;&gt;Node8</title>
<path fill="none" stroke="midnightblue" d="M721.864,-419.316C566.361,-410.893 213.483,-388.421 170,-356 76.6051,-286.365 77.2071,-127.53 81.9807,-61.0915"/>
<polygon fill="midnightblue" stroke="midnightblue" points="722.091,-422.834 732.265,-419.875 722.467,-415.844 722.091,-422.834"/>
</g>
<!-- Node9 -->
<g id="node18" class="node"><title>Node9</title>
<a xlink:href="../../de/d33/bi__footprint_8cpp.html" target="_top" xlink:title="/home/travis/build\l/LibrePCB/LibrePCB/libs\l/librepcbproject/boards\l/items/bi_footprint.cpp">
<polygon fill="white" stroke="black" points="329.5,-1 329.5,-61 454.5,-61 454.5,-1 329.5,-1"/>
<text text-anchor="start" x="337.5" y="-48" font-family="Helvetica,sans-Serif" font-size="10.00">/home/travis/build</text>
<text text-anchor="start" x="337.5" y="-35" font-family="Helvetica,sans-Serif" font-size="10.00">/LibrePCB/LibrePCB/libs</text>
<text text-anchor="start" x="337.5" y="-22" font-family="Helvetica,sans-Serif" font-size="10.00">/librepcbproject/boards</text>
<text text-anchor="middle" x="392" y="-9" font-family="Helvetica,sans-Serif" font-size="10.00">/items/bi_footprint.cpp</text>
</a>
</g>
<!-- Node1&#45;&gt;Node9 -->
<g id="edge56" class="edge"><title>Node1&#45;&gt;Node9</title>
<path fill="none" stroke="midnightblue" d="M723.017,-396.453C660.92,-370.134 572.96,-324.14 519,-258 471.373,-199.622 504.006,-161.204 463,-98 454.237,-84.4929 442.2,-71.784 430.526,-61.141"/>
<polygon fill="midnightblue" stroke="midnightblue" points="721.791,-399.733 732.368,-400.35 724.484,-393.272 721.791,-399.733"/>
</g>
<!-- Node10 -->
<g id="node20" class="node"><title>Node10</title>
<a xlink:href="../../d7/d56/bi__footprintpad_8cpp.html" target="_top" xlink:title="/home/travis/build\l/LibrePCB/LibrePCB/libs\l/librepcbproject/boards\l/items/bi_footprintpad.cpp">
<polygon fill="white" stroke="black" points="471.5,-1 471.5,-61 600.5,-61 600.5,-1 471.5,-1"/>
<text text-anchor="start" x="479.5" y="-48" font-family="Helvetica,sans-Serif" font-size="10.00">/home/travis/build</text>
<text text-anchor="start" x="479.5" y="-35" font-family="Helvetica,sans-Serif" font-size="10.00">/LibrePCB/LibrePCB/libs</text>
<text text-anchor="start" x="479.5" y="-22" font-family="Helvetica,sans-Serif" font-size="10.00">/librepcbproject/boards</text>
<text text-anchor="middle" x="536" y="-9" font-family="Helvetica,sans-Serif" font-size="10.00">/items/bi_footprintpad.cpp</text>
</a>
</g>
<!-- Node1&#45;&gt;Node10 -->
<g id="edge58" class="edge"><title>Node1&#45;&gt;Node10</title>
<path fill="none" stroke="midnightblue" d="M766.45,-384.391C760.314,-375.307 754.137,-365.499 749,-356 690.031,-246.956 722.918,-192.768 643,-98 630.778,-83.5068 614.599,-71.1584 598.533,-61.1601"/>
<polygon fill="midnightblue" stroke="midnightblue" points="763.724,-386.602 772.286,-392.843 769.485,-382.626 763.724,-386.602"/>
</g>
<!-- Node11 -->
<g id="node22" class="node"><title>Node11</title>
<a xlink:href="../../d7/d20/bes__select_8cpp.html" target="_top" xlink:title="/home/travis/build\l/LibrePCB/LibrePCB/libs\l/librepcbprojecteditor\l/boardeditor/fsm/bes_select.cpp">
<polygon fill="white" stroke="black" points="618,-1 618,-61 774,-61 774,-1 618,-1"/>
<text text-anchor="start" x="626" y="-48" font-family="Helvetica,sans-Serif" font-size="10.00">/home/travis/build</text>
<text text-anchor="start" x="626" y="-35" font-family="Helvetica,sans-Serif" font-size="10.00">/LibrePCB/LibrePCB/libs</text>
<text text-anchor="start" x="626" y="-22" font-family="Helvetica,sans-Serif" font-size="10.00">/librepcbprojecteditor</text>
<text text-anchor="middle" x="696" y="-9" font-family="Helvetica,sans-Serif" font-size="10.00">/boardeditor/fsm/bes_select.cpp</text>
</a>
</g>
<!-- Node1&#45;&gt;Node11 -->
<g id="edge64" class="edge"><title>Node1&#45;&gt;Node11</title>
<path fill="none" stroke="midnightblue" d="M779.196,-383.51C775.909,-374.546 772.644,-365.011 770,-356 736.961,-243.411 741.675,-212.026 714,-98 711.074,-85.9443 707.589,-72.7436 704.468,-61.271"/>
<polygon fill="midnightblue" stroke="midnightblue" points="775.952,-384.827 782.743,-392.959 782.505,-382.367 775.952,-384.827"/>
</g>
<!-- Node15 -->
<g id="node37" class="node"><title>Node15</title>
<a xlink:href="../../df/dda/cmdboardadd_8cpp.html" target="_top" xlink:title="/home/travis/build\l/LibrePCB/LibrePCB/libs\l/librepcbproject/boards\l/cmd/cmdboardadd.cpp">
<polygon fill="white" stroke="black" points="841.5,-295 841.5,-355 966.5,-355 966.5,-295 841.5,-295"/>
<text text-anchor="start" x="849.5" y="-342" font-family="Helvetica,sans-Serif" font-size="10.00">/home/travis/build</text>
<text text-anchor="start" x="849.5" y="-329" font-family="Helvetica,sans-Serif" font-size="10.00">/LibrePCB/LibrePCB/libs</text>
<text text-anchor="start" x="849.5" y="-316" font-family="Helvetica,sans-Serif" font-size="10.00">/librepcbproject/boards</text>
<text text-anchor="middle" x="904" y="-303" font-family="Helvetica,sans-Serif" font-size="10.00">/cmd/cmdboardadd.cpp</text>
</a>
</g>
<!-- Node1&#45;&gt;Node15 -->
<g id="edge44" class="edge"><title>Node1&#45;&gt;Node15</title>
<path fill="none" stroke="midnightblue" d="M836.232,-385.929C847.489,-375.808 859.55,-364.965 870.33,-355.272"/>
<polygon fill="midnightblue" stroke="midnightblue" points="833.689,-383.508 828.593,-392.797 838.369,-388.714 833.689,-383.508"/>
</g>
<!-- Node16 -->
<g id="node39" class="node"><title>Node16</title>
<a xlink:href="../../d5/d56/cmdcomponentinstanceadd_8cpp.html" target="_top" xlink:title="/home/travis/build\l/LibrePCB/LibrePCB/libs\l/librepcbproject/boards\l/cmd/cmdcomponentinstanceadd.cpp">
<polygon fill="white" stroke="black" points="983.5,-295 983.5,-355 1162.5,-355 1162.5,-295 983.5,-295"/>
<text text-anchor="start" x="991.5" y="-342" font-family="Helvetica,sans-Serif" font-size="10.00">/home/travis/build</text>
<text text-anchor="start" x="991.5" y="-329" font-family="Helvetica,sans-Serif" font-size="10.00">/LibrePCB/LibrePCB/libs</text>
<text text-anchor="start" x="991.5" y="-316" font-family="Helvetica,sans-Serif" font-size="10.00">/librepcbproject/boards</text>
<text text-anchor="middle" x="1073" y="-303" font-family="Helvetica,sans-Serif" font-size="10.00">/cmd/cmdcomponentinstanceadd.cpp</text>
</a>
</g>
<!-- Node1&#45;&gt;Node16 -->
<g id="edge46" class="edge"><title>Node1&#45;&gt;Node16</title>
<path fill="none" stroke="midnightblue" d="M867.411,-397.474C904.272,-384.48 949.313,-368.602 987.832,-355.023"/>
<polygon fill="midnightblue" stroke="midnightblue" points="866.003,-394.259 857.735,-400.885 868.33,-400.861 866.003,-394.259"/>
</g>
<!-- Node17 -->
<g id="node41" class="node"><title>Node17</title>
<a xlink:href="../../df/d83/cmdcomponentinstanceremove_8cpp.html" target="_top" xlink:title="/home/travis/build\l/LibrePCB/LibrePCB/libs\l/librepcbproject/boards\l/cmd/cmdcomponentinstanceremove.cpp">
<polygon fill="white" stroke="black" points="1180,-295 1180,-355 1376,-355 1376,-295 1180,-295"/>
<text text-anchor="start" x="1188" y="-342" font-family="Helvetica,sans-Serif" font-size="10.00">/home/travis/build</text>
<text text-anchor="start" x="1188" y="-329" font-family="Helvetica,sans-Serif" font-size="10.00">/LibrePCB/LibrePCB/libs</text>
<text text-anchor="start" x="1188" y="-316" font-family="Helvetica,sans-Serif" font-size="10.00">/librepcbproject/boards</text>
<text text-anchor="middle" x="1278" y="-303" font-family="Helvetica,sans-Serif" font-size="10.00">/cmd/cmdcomponentinstanceremove.cpp</text>
</a>
</g>
<!-- Node1&#45;&gt;Node17 -->
<g id="edge48" class="edge"><title>Node1&#45;&gt;Node17</title>
<path fill="none" stroke="midnightblue" d="M867.575,-412.399C943.643,-400.744 1066.41,-380.398 1171,-356 1173.92,-355.319 1176.88,-354.607 1179.86,-353.87"/>
<polygon fill="midnightblue" stroke="midnightblue" points="866.977,-408.95 857.618,-413.916 868.031,-415.87 866.977,-408.95"/>
</g>
<!-- Node18 -->
<g id="node48" class="node"><title>Node18</title>
<a xlink:href="../../df/d18/project_8cpp.html" target="_top" xlink:title="/home/travis/build\l/LibrePCB/LibrePCB/libs\l/librepcbproject/project.cpp">
<polygon fill="white" stroke="black" points="1394,-301.5 1394,-348.5 1528,-348.5 1528,-301.5 1394,-301.5"/>
<text text-anchor="start" x="1402" y="-335.5" font-family="Helvetica,sans-Serif" font-size="10.00">/home/travis/build</text>
<text text-anchor="start" x="1402" y="-322.5" font-family="Helvetica,sans-Serif" font-size="10.00">/LibrePCB/LibrePCB/libs</text>
<text text-anchor="middle" x="1461" y="-309.5" font-family="Helvetica,sans-Serif" font-size="10.00">/librepcbproject/project.cpp</text>
</a>
</g>
<!-- Node1&#45;&gt;Node18 -->
<g id="edge60" class="edge"><title>Node1&#45;&gt;Node18</title>
<path fill="none" stroke="midnightblue" d="M867.806,-421.125C980.361,-416.805 1202.67,-402.593 1385,-356 1392.73,-354.024 1400.72,-351.43 1408.48,-348.581"/>
<polygon fill="midnightblue" stroke="midnightblue" points="867.454,-417.636 857.59,-421.501 867.712,-424.631 867.454,-417.636"/>
</g>
<!-- Node19 -->
<g id="node50" class="node"><title>Node19</title>
<a xlink:href="../../de/de5/boardeditor_8cpp.html" target="_top" xlink:title="/home/travis/build\l/LibrePCB/LibrePCB/libs\l/librepcbprojecteditor\l/boardeditor/boardeditor.cpp">
<polygon fill="white" stroke="black" points="1545.5,-295 1545.5,-355 1682.5,-355 1682.5,-295 1545.5,-295"/>
<text text-anchor="start" x="1553.5" y="-342" font-family="Helvetica,sans-Serif" font-size="10.00">/home/travis/build</text>
<text text-anchor="start" x="1553.5" y="-329" font-family="Helvetica,sans-Serif" font-size="10.00">/LibrePCB/LibrePCB/libs</text>
<text text-anchor="start" x="1553.5" y="-316" font-family="Helvetica,sans-Serif" font-size="10.00">/librepcbprojecteditor</text>
<text text-anchor="middle" x="1614" y="-303" font-family="Helvetica,sans-Serif" font-size="10.00">/boardeditor/boardeditor.cpp</text>
</a>
</g>
<!-- Node1&#45;&gt;Node19 -->
<g id="edge62" class="edge"><title>Node1&#45;&gt;Node19</title>
<path fill="none" stroke="midnightblue" d="M867.971,-419.131C1029.17,-410.143 1411.26,-386.29 1537,-356 1539.8,-355.325 1542.64,-354.566 1545.48,-353.741"/>
<polygon fill="midnightblue" stroke="midnightblue" points="867.469,-415.653 857.678,-419.701 867.856,-422.643 867.469,-415.653"/>
</g>
<!-- Node20 -->
<g id="node53" class="node"><title>Node20</title>
<a xlink:href="../../de/dd2/unplacedcomponentsdock_8cpp.html" target="_top" xlink:title="/home/travis/build\l/LibrePCB/LibrePCB/libs\l/librepcbprojecteditor\l/boardeditor/unplacedcomponentsdock.cpp">
<polygon fill="white" stroke="black" points="1699.5,-295 1699.5,-355 1902.5,-355 1902.5,-295 1699.5,-295"/>
<text text-anchor="start" x="1707.5" y="-342" font-family="Helvetica,sans-Serif" font-size="10.00">/home/travis/build</text>
<text text-anchor="start" x="1707.5" y="-329" font-family="Helvetica,sans-Serif" font-size="10.00">/LibrePCB/LibrePCB/libs</text>
<text text-anchor="start" x="1707.5" y="-316" font-family="Helvetica,sans-Serif" font-size="10.00">/librepcbprojecteditor</text>
<text text-anchor="middle" x="1801" y="-303" font-family="Helvetica,sans-Serif" font-size="10.00">/boardeditor/unplacedcomponentsdock.cpp</text>
</a>
</g>
<!-- Node1&#45;&gt;Node20 -->
<g id="edge66" class="edge"><title>Node1&#45;&gt;Node20</title>
<path fill="none" stroke="midnightblue" d="M867.774,-419.441C1051.98,-410.129 1533.26,-383.835 1691,-356 1693.74,-355.517 1696.5,-354.995 1699.28,-354.438"/>
<polygon fill="midnightblue" stroke="midnightblue" points="867.46,-415.952 857.649,-419.95 867.812,-422.943 867.46,-415.952"/>
</g>
<!-- Node4 -->
<g id="node7" class="node"><title>Node4</title>
<a xlink:href="../../d7/dad/bgi__footprint_8h.html" target="_top" xlink:title="/home/travis/build\l/LibrePCB/LibrePCB/libs\l/librepcbproject/boards\l/graphicsitems/bgi_footprint.h">
<polygon fill="white" stroke="black" points="527.5,-197 527.5,-257 672.5,-257 672.5,-197 527.5,-197"/>
<text text-anchor="start" x="535.5" y="-244" font-family="Helvetica,sans-Serif" font-size="10.00">/home/travis/build</text>
<text text-anchor="start" x="535.5" y="-231" font-family="Helvetica,sans-Serif" font-size="10.00">/LibrePCB/LibrePCB/libs</text>
<text text-anchor="start" x="535.5" y="-218" font-family="Helvetica,sans-Serif" font-size="10.00">/librepcbproject/boards</text>
<text text-anchor="middle" x="600" y="-205" font-family="Helvetica,sans-Serif" font-size="10.00">/graphicsitems/bgi_footprint.h</text>
</a>
</g>
<!-- Node3&#45;&gt;Node4 -->
<g id="edge6" class="edge"><title>Node3&#45;&gt;Node4</title>
<path fill="none" stroke="midnightblue" d="M469.794,-290.484C492.19,-279.564 516.749,-267.59 538.444,-257.012"/>
<polygon fill="midnightblue" stroke="midnightblue" points="468.127,-287.402 460.673,-294.931 471.195,-293.694 468.127,-287.402"/>
</g>
<!-- Node12 -->
<g id="node25" class="node"><title>Node12</title>
<a xlink:href="../../d2/d00/bgi__footprintpad_8h.html" target="_top" xlink:title="/home/travis/build\l/LibrePCB/LibrePCB/libs\l/librepcbproject/boards\l/graphicsitems/bgi_footprintpad.h">
<polygon fill="white" stroke="black" points="311.5,-197 311.5,-257 472.5,-257 472.5,-197 311.5,-197"/>
<text text-anchor="start" x="319.5" y="-244" font-family="Helvetica,sans-Serif" font-size="10.00">/home/travis/build</text>
<text text-anchor="start" x="319.5" y="-231" font-family="Helvetica,sans-Serif" font-size="10.00">/LibrePCB/LibrePCB/libs</text>
<text text-anchor="start" x="319.5" y="-218" font-family="Helvetica,sans-Serif" font-size="10.00">/librepcbproject/boards</text>
<text text-anchor="middle" x="392" y="-205" font-family="Helvetica,sans-Serif" font-size="10.00">/graphicsitems/bgi_footprintpad.h</text>
</a>
</g>
<!-- Node3&#45;&gt;Node12 -->
<g id="edge26" class="edge"><title>Node3&#45;&gt;Node12</title>
<path fill="none" stroke="midnightblue" d="M396.121,-284.696C395.466,-275.527 394.781,-265.939 394.162,-257.272"/>
<polygon fill="midnightblue" stroke="midnightblue" points="392.639,-285.072 396.843,-294.797 399.621,-284.573 392.639,-285.072"/>
</g>
<!-- Node14 -->
<g id="node35" class="node"><title>Node14</title>
<a xlink:href="../../dc/ddd/bgi__base_8cpp.html" target="_top" xlink:title="/home/travis/build\l/LibrePCB/LibrePCB/libs\l/librepcbproject/boards\l/graphicsitems/bgi_base.cpp">
<polygon fill="white" stroke="black" points="153.5,-197 153.5,-257 294.5,-257 294.5,-197 153.5,-197"/>
<text text-anchor="start" x="161.5" y="-244" font-family="Helvetica,sans-Serif" font-size="10.00">/home/travis/build</text>
<text text-anchor="start" x="161.5" y="-231" font-family="Helvetica,sans-Serif" font-size="10.00">/LibrePCB/LibrePCB/libs</text>
<text text-anchor="start" x="161.5" y="-218" font-family="Helvetica,sans-Serif" font-size="10.00">/librepcbproject/boards</text>
<text text-anchor="middle" x="224" y="-205" font-family="Helvetica,sans-Serif" font-size="10.00">/graphicsitems/bgi_base.cpp</text>
</a>
</g>
<!-- Node3&#45;&gt;Node14 -->
<g id="edge42" class="edge"><title>Node3&#45;&gt;Node14</title>
<path fill="none" stroke="midnightblue" d="M336.132,-289.794C317.023,-279.093 296.207,-267.436 277.756,-257.103"/>
<polygon fill="midnightblue" stroke="midnightblue" points="334.631,-292.965 345.066,-294.797 338.051,-286.857 334.631,-292.965"/>
</g>
<!-- Node5 -->
<g id="node9" class="node"><title>Node5</title>
<a xlink:href="../../d7/dce/bi__footprint_8h.html" target="_top" xlink:title="/home/travis/build\l/LibrePCB/LibrePCB/libs\l/librepcbproject/boards\l/items/bi_footprint.h">
<polygon fill="white" stroke="black" points="509.5,-99 509.5,-159 634.5,-159 634.5,-99 509.5,-99"/>
<text text-anchor="start" x="517.5" y="-146" font-family="Helvetica,sans-Serif" font-size="10.00">/home/travis/build</text>
<text text-anchor="start" x="517.5" y="-133" font-family="Helvetica,sans-Serif" font-size="10.00">/LibrePCB/LibrePCB/libs</text>
<text text-anchor="start" x="517.5" y="-120" font-family="Helvetica,sans-Serif" font-size="10.00">/librepcbproject/boards</text>
<text text-anchor="middle" x="572" y="-107" font-family="Helvetica,sans-Serif" font-size="10.00">/items/bi_footprint.h</text>
</a>
</g>
<!-- Node4&#45;&gt;Node5 -->
<g id="edge8" class="edge"><title>Node4&#45;&gt;Node5</title>
<path fill="none" stroke="midnightblue" d="M588.569,-186.991C585.924,-177.734 583.152,-168.033 580.649,-159.272"/>
<polygon fill="midnightblue" stroke="midnightblue" points="585.258,-188.143 591.371,-196.797 591.989,-186.22 585.258,-188.143"/>
</g>
<!-- Node4&#45;&gt;Node7 -->
<g id="edge24" class="edge"><title>Node4&#45;&gt;Node7</title>
<path fill="none" stroke="midnightblue" d="M643.308,-190.31C675.357,-163.707 720.474,-127.393 762,-98 779.979,-85.2739 800.332,-72.2139 818.425,-61.0435"/>
<polygon fill="midnightblue" stroke="midnightblue" points="640.895,-187.764 635.451,-196.854 645.375,-193.143 640.895,-187.764"/>
</g>
<!-- Node5&#45;&gt;Node2 -->
<g id="edge10" class="edge"><title>Node5&#45;&gt;Node2</title>
<path fill="none" stroke="midnightblue" d="M499.575,-108.087C487.382,-104.656 474.843,-101.185 463,-98 400.126,-81.093 382.595,-83.0965 321,-62 318.201,-61.0412 315.358,-60.0183 312.5,-58.9493"/>
<polygon fill="midnightblue" stroke="midnightblue" points="498.684,-111.472 509.259,-110.823 500.587,-104.736 498.684,-111.472"/>
</g>
<!-- Node5&#45;&gt;Node6 -->
<g id="edge12" class="edge"><title>Node5&#45;&gt;Node6</title>
<path fill="none" stroke="midnightblue" d="M644.807,-118.381C739.145,-104.256 898.248,-79.0856 955,-62 957.705,-61.1858 960.443,-60.2965 963.192,-59.35"/>
<polygon fill="midnightblue" stroke="midnightblue" points="644.135,-114.943 634.761,-119.88 645.168,-121.866 644.135,-114.943"/>
</g>
<!-- Node5&#45;&gt;Node7 -->
<g id="edge14" class="edge"><title>Node5&#45;&gt;Node7</title>
<path fill="none" stroke="midnightblue" d="M644.329,-99.2523C645.56,-98.8261 646.784,-98.4082 648,-98 706.867,-78.2339 723.737,-80.5456 783,-62 785.726,-61.1468 788.495,-60.2603 791.285,-59.3495"/>
<polygon fill="midnightblue" stroke="midnightblue" points="643.038,-95.9971 634.805,-102.666 645.4,-102.587 643.038,-95.9971"/>
</g>
<!-- Node5&#45;&gt;Node8 -->
<g id="edge16" class="edge"><title>Node5&#45;&gt;Node8</title>
<path fill="none" stroke="midnightblue" d="M499.638,-106.773C487.483,-103.514 474.94,-100.44 463,-98 338.344,-72.5249 303.101,-90.0541 179,-62 176.234,-61.3748 173.435,-60.7014 170.617,-59.9887"/>
<polygon fill="midnightblue" stroke="midnightblue" points="498.715,-110.149 509.285,-109.417 500.566,-103.398 498.715,-110.149"/>
</g>
<!-- Node5&#45;&gt;Node9 -->
<g id="edge18" class="edge"><title>Node5&#45;&gt;Node9</title>
<path fill="none" stroke="midnightblue" d="M507.602,-93.939C487.874,-83.1982 466.356,-71.4827 447.292,-61.1032"/>
<polygon fill="midnightblue" stroke="midnightblue" points="506.069,-97.0893 516.525,-98.7971 509.416,-90.9414 506.069,-97.0893"/>
</g>
<!-- Node5&#45;&gt;Node10 -->
<g id="edge20" class="edge"><title>Node5&#45;&gt;Node10</title>
<path fill="none" stroke="midnightblue" d="M557.411,-89.2865C553.978,-79.9401 550.373,-70.1258 547.12,-61.2718"/>
<polygon fill="midnightblue" stroke="midnightblue" points="554.171,-90.6173 560.905,-98.7971 560.742,-88.2035 554.171,-90.6173"/>
</g>
<!-- Node5&#45;&gt;Node11 -->
<g id="edge22" class="edge"><title>Node5&#45;&gt;Node11</title>
<path fill="none" stroke="midnightblue" d="M618.168,-92.5121C631.184,-82.2257 645.197,-71.151 657.697,-61.2718"/>
<polygon fill="midnightblue" stroke="midnightblue" points="615.891,-89.8506 610.216,-98.7971 620.232,-95.3425 615.891,-89.8506"/>
</g>
<!-- Node12&#45;&gt;Node8 -->
<g id="edge40" class="edge"><title>Node12&#45;&gt;Node8</title>
<path fill="none" stroke="midnightblue" d="M335.968,-191.227C277.536,-153.922 186.966,-96.0986 132.098,-61.0688"/>
<polygon fill="midnightblue" stroke="midnightblue" points="334.392,-194.373 344.704,-196.805 338.159,-188.473 334.392,-194.373"/>
</g>
<!-- Node13 -->
<g id="node27" class="node"><title>Node13</title>
<a xlink:href="../../d7/d4c/bi__footprintpad_8h.html" target="_top" xlink:title="/home/travis/build\l/LibrePCB/LibrePCB/libs\l/librepcbproject/boards\l/items/bi_footprintpad.h">
<polygon fill="white" stroke="black" points="329.5,-99 329.5,-159 454.5,-159 454.5,-99 329.5,-99"/>
<text text-anchor="start" x="337.5" y="-146" font-family="Helvetica,sans-Serif" font-size="10.00">/home/travis/build</text>
<text text-anchor="start" x="337.5" y="-133" font-family="Helvetica,sans-Serif" font-size="10.00">/LibrePCB/LibrePCB/libs</text>
<text text-anchor="start" x="337.5" y="-120" font-family="Helvetica,sans-Serif" font-size="10.00">/librepcbproject/boards</text>
<text text-anchor="middle" x="392" y="-107" font-family="Helvetica,sans-Serif" font-size="10.00">/items/bi_footprintpad.h</text>
</a>
</g>
<!-- Node12&#45;&gt;Node13 -->
<g id="edge28" class="edge"><title>Node12&#45;&gt;Node13</title>
<path fill="none" stroke="midnightblue" d="M392,-186.696C392,-177.527 392,-167.939 392,-159.272"/>
<polygon fill="midnightblue" stroke="midnightblue" points="388.5,-186.797 392,-196.797 395.5,-186.797 388.5,-186.797"/>
</g>
<!-- Node13&#45;&gt;Node2 -->
<g id="edge30" class="edge"><title>Node13&#45;&gt;Node2</title>
<path fill="none" stroke="midnightblue" d="M339.972,-93.0934C324.831,-82.6441 308.448,-71.3374 293.863,-61.2718"/>
<polygon fill="midnightblue" stroke="midnightblue" points="338.018,-95.9976 348.237,-98.7971 341.994,-90.2364 338.018,-95.9976"/>
</g>
<!-- Node13&#45;&gt;Node8 -->
<g id="edge32" class="edge"><title>Node13&#45;&gt;Node8</title>
<path fill="none" stroke="midnightblue" d="M319.785,-106.556C278.508,-93.6596 225.799,-77.0763 179,-62 176.219,-61.1042 173.394,-60.1907 170.541,-59.2658"/>
<polygon fill="midnightblue" stroke="midnightblue" points="318.894,-109.944 329.483,-109.584 320.98,-103.263 318.894,-109.944"/>
</g>
<!-- Node13&#45;&gt;Node9 -->
<g id="edge34" class="edge"><title>Node13&#45;&gt;Node9</title>
<path fill="none" stroke="midnightblue" d="M392,-88.6956C392,-79.5273 392,-69.9394 392,-61.2718"/>
<polygon fill="midnightblue" stroke="midnightblue" points="388.5,-88.7971 392,-98.7971 395.5,-88.7972 388.5,-88.7971"/>
</g>
<!-- Node13&#45;&gt;Node10 -->
<g id="edge36" class="edge"><title>Node13&#45;&gt;Node10</title>
<path fill="none" stroke="midnightblue" d="M444.761,-93.0934C460.115,-82.6441 476.729,-71.3374 491.519,-61.2718"/>
<polygon fill="midnightblue" stroke="midnightblue" points="442.678,-90.2773 436.38,-98.7971 446.616,-96.0643 442.678,-90.2773"/>
</g>
<!-- Node13&#45;&gt;Node11 -->
<g id="edge38" class="edge"><title>Node13&#45;&gt;Node11</title>
<path fill="none" stroke="midnightblue" d="M464.554,-107.447C506.834,-94.6751 561.097,-77.9214 609,-62 611.891,-61.0391 614.832,-60.0501 617.8,-59.0424"/>
<polygon fill="midnightblue" stroke="midnightblue" points="463.464,-104.119 454.9,-110.356 465.485,-110.822 463.464,-104.119"/>
</g>
</g>
</svg>
