<?xml version="1.0" encoding="UTF-8" standalone="no"?>
<!DOCTYPE svg PUBLIC "-//W3C//DTD SVG 1.1//EN"
 "http://www.w3.org/Graphics/SVG/1.1/DTD/svg11.dtd">
<!-- Generated by graphviz version 2.26.3 (20100126.1600)
 -->
<!-- Title: setAngleDeg Pages: 1 -->
<svg width="806pt" height="146pt"
 viewBox="0.00 0.00 806.00 146.00" xmlns="http://www.w3.org/2000/svg" xmlns:xlink="http://www.w3.org/1999/xlink">
<g id="graph1" class="graph" transform="scale(1 1) rotate(0) translate(4 142)">
<title>setAngleDeg</title>
<polygon fill="white" stroke="white" points="-4,5 -4,-142 803,-142 803,5 -4,5"/>
<!-- Node1 -->
<g id="node1" class="node"><title>Node1</title>
<polygon fill="#bfbfbf" stroke="black" points="0.5,-58.5 0.5,-79.5 73.5,-79.5 73.5,-58.5 0.5,-58.5"/>
<text text-anchor="middle" x="37" y="-66.5" font-family="Helvetica,sans-Serif" font-size="10.00">setAngleDeg</text>
</g>
<!-- Node2 -->
<g id="node3" class="node"><title>Node2</title>
<a xlink:href="../../d2/d39/class_angle.html#a0f80113e23a69620a2d810b933e12a8d" target="_top" xlink:title="Get an Angle object with a specific angle. ">
<polygon fill="white" stroke="black" points="110,-58.5 110,-79.5 164,-79.5 164,-58.5 110,-58.5"/>
<text text-anchor="middle" x="137" y="-66.5" font-family="Helvetica,sans-Serif" font-size="10.00">fromDeg</text>
</a>
</g>
<!-- Node1&#45;&gt;Node2 -->
<g id="edge2" class="edge"><title>Node1&#45;&gt;Node2</title>
<path fill="none" stroke="midnightblue" d="M83.9259,-69C92.7709,-69 101.745,-69 109.734,-69"/>
<polygon fill="midnightblue" stroke="midnightblue" points="83.6685,-65.5001 73.6685,-69 83.6684,-72.5001 83.6685,-65.5001"/>
</g>
<!-- Node3 -->
<g id="node5" class="node"><title>Node3</title>
<a xlink:href="../../da/d20/classlibrary_1_1_symbol_pin_preview_graphics_item.html#abbb5db1b700a86caa85ff4c0c13142f2" target="_top" xlink:title="library::SymbolPinPreview\lGraphicsItem::updateCacheAndRepaint">
<polygon fill="white" stroke="black" points="200,-104 200,-138 390,-138 390,-104 200,-104"/>
<text text-anchor="start" x="208" y="-125" font-family="Helvetica,sans-Serif" font-size="10.00">library::SymbolPinPreview</text>
<text text-anchor="middle" x="295" y="-112" font-family="Helvetica,sans-Serif" font-size="10.00">GraphicsItem::updateCacheAndRepaint</text>
</a>
</g>
<!-- Node2&#45;&gt;Node3 -->
<g id="edge4" class="edge"><title>Node2&#45;&gt;Node3</title>
<path fill="none" stroke="midnightblue" d="M169.892,-83.4778C179.504,-87.4617 190.091,-91.6139 200,-95 209.142,-98.124 218.876,-101.136 228.496,-103.932"/>
<polygon fill="midnightblue" stroke="midnightblue" points="171.24,-80.2479 160.666,-79.5845 168.519,-86.6972 171.24,-80.2479"/>
</g>
<!-- Node4 -->
<g id="node7" class="node"><title>Node4</title>
<a xlink:href="../../d9/da8/classlibrary_1_1_symbol_preview_graphics_item.html#abbb5db1b700a86caa85ff4c0c13142f2" target="_top" xlink:title="library::SymbolPreviewGraphics\lItem::updateCacheAndRepaint">
<polygon fill="white" stroke="black" points="217,-52 217,-86 373,-86 373,-52 217,-52"/>
<text text-anchor="start" x="225" y="-73" font-family="Helvetica,sans-Serif" font-size="10.00">library::SymbolPreviewGraphics</text>
<text text-anchor="middle" x="295" y="-60" font-family="Helvetica,sans-Serif" font-size="10.00">Item::updateCacheAndRepaint</text>
</a>
</g>
<!-- Node2&#45;&gt;Node4 -->
<g id="edge6" class="edge"><title>Node2&#45;&gt;Node4</title>
<path fill="none" stroke="midnightblue" d="M174.403,-69C187.223,-69 202.088,-69 216.91,-69"/>
<polygon fill="midnightblue" stroke="midnightblue" points="174.161,-65.5001 164.161,-69 174.161,-72.5001 174.161,-65.5001"/>
</g>
<!-- Node5 -->
<g id="node9" class="node"><title>Node5</title>
<a xlink:href="../../d9/de8/classproject_1_1_symbol_instance_properties_dialog.html#ac5b9ac3ae6ade6886893179b59302ec1" target="_top" xlink:title="project::SymbolInstanceProperties\lDialog::applyChanges">
<polygon fill="white" stroke="black" points="211.5,-0 211.5,-34 378.5,-34 378.5,-0 211.5,-0"/>
<text text-anchor="start" x="219.5" y="-21" font-family="Helvetica,sans-Serif" font-size="10.00">project::SymbolInstanceProperties</text>
<text text-anchor="middle" x="295" y="-8" font-family="Helvetica,sans-Serif" font-size="10.00">Dialog::applyChanges</text>
</a>
</g>
<!-- Node2&#45;&gt;Node5 -->
<g id="edge8" class="edge"><title>Node2&#45;&gt;Node5</title>
<path fill="none" stroke="midnightblue" d="M169.892,-54.5222C179.504,-50.5383 190.091,-46.3861 200,-43 209.142,-39.876 218.876,-36.8645 228.496,-34.0679"/>
<polygon fill="midnightblue" stroke="midnightblue" points="168.519,-51.3028 160.666,-58.4155 171.24,-57.7521 168.519,-51.3028"/>
</g>
<!-- Node6 -->
<g id="node11" class="node"><title>Node6</title>
<a xlink:href="../../d9/de8/classproject_1_1_symbol_instance_properties_dialog.html#aadb9f3b844fb4cf98288cd3c60a3af91" target="_top" xlink:title="project::SymbolInstanceProperties\lDialog::accept">
<polygon fill="white" stroke="black" points="426.5,-0 426.5,-34 593.5,-34 593.5,-0 426.5,-0"/>
<text text-anchor="start" x="434.5" y="-21" font-family="Helvetica,sans-Serif" font-size="10.00">project::SymbolInstanceProperties</text>
<text text-anchor="middle" x="510" y="-8" font-family="Helvetica,sans-Serif" font-size="10.00">Dialog::accept</text>
</a>
</g>
<!-- Node5&#45;&gt;Node6 -->
<g id="edge10" class="edge"><title>Node5&#45;&gt;Node6</title>
<path fill="none" stroke="midnightblue" d="M388.745,-17C401.305,-17 414.12,-17 426.488,-17"/>
<polygon fill="midnightblue" stroke="midnightblue" points="388.74,-13.5001 378.74,-17 388.74,-20.5001 388.74,-13.5001"/>
</g>
<!-- Node7 -->
<g id="node13" class="node"><title>Node7</title>
<a xlink:href="../../d9/de8/classproject_1_1_symbol_instance_properties_dialog.html#a9e53392568d47bcb31ccbde9917efb0c" target="_top" xlink:title="project::SymbolInstanceProperties\lDialog::keyPressEvent">
<polygon fill="white" stroke="black" points="630.5,-0 630.5,-34 797.5,-34 797.5,-0 630.5,-0"/>
<text text-anchor="start" x="638.5" y="-21" font-family="Helvetica,sans-Serif" font-size="10.00">project::SymbolInstanceProperties</text>
<text text-anchor="middle" x="714" y="-8" font-family="Helvetica,sans-Serif" font-size="10.00">Dialog::keyPressEvent</text>
</a>
</g>
<!-- Node6&#45;&gt;Node7 -->
<g id="edge12" class="edge"><title>Node6&#45;&gt;Node7</title>
<path fill="none" stroke="midnightblue" d="M603.845,-17C612.649,-17 621.534,-17 630.237,-17"/>
<polygon fill="midnightblue" stroke="midnightblue" points="603.563,-13.5001 593.563,-17 603.563,-20.5001 603.563,-13.5001"/>
</g>
</g>
</svg>
