<?xml version="1.0" encoding="UTF-8" standalone="no"?>
<!DOCTYPE svg PUBLIC "-//W3C//DTD SVG 1.1//EN"
 "http://www.w3.org/Graphics/SVG/1.1/DTD/svg11.dtd">
<!-- Generated by graphviz version 2.26.3 (20100126.1600)
 -->
<!-- Title: WSI_DebugTools Pages: 1 -->
<svg width="1241pt" height="1534pt"
 viewBox="0.00 0.00 1241.00 1534.00" xmlns="http://www.w3.org/2000/svg" xmlns:xlink="http://www.w3.org/1999/xlink">
<g id="graph1" class="graph" transform="scale(1 1) rotate(0) translate(4 1530)">
<title>WSI_DebugTools</title>
<polygon fill="white" stroke="white" points="-4,5 -4,-1530 1238,-1530 1238,5 -4,5"/>
<!-- Node1 -->
<g id="node1" class="node"><title>Node1</title>
<polygon fill="#bfbfbf" stroke="black" points="241.5,-1241.5 241.5,-1408.5 356.5,-1408.5 356.5,-1241.5 241.5,-1241.5"/>
<text text-anchor="middle" x="299" y="-1395.5" font-family="Helvetica,sans-Serif" font-size="10.00">WSI_DebugTools</text>
<polyline fill="none" stroke="black" points="241.5,-1387.5 356.5,-1387.5 "/>
<text text-anchor="start" x="249.5" y="-1374.5" font-family="Helvetica,sans-Serif" font-size="10.00">&#45; mWidget</text>
<polyline fill="none" stroke="black" points="241.5,-1366.5 356.5,-1366.5 "/>
<text text-anchor="start" x="249.5" y="-1353.5" font-family="Helvetica,sans-Serif" font-size="10.00">+ WSI_DebugTools()</text>
<text text-anchor="start" x="249.5" y="-1340.5" font-family="Helvetica,sans-Serif" font-size="10.00">+ ~WSI_DebugTools()</text>
<text text-anchor="start" x="249.5" y="-1327.5" font-family="Helvetica,sans-Serif" font-size="10.00">+ getWidget()</text>
<text text-anchor="start" x="249.5" y="-1314.5" font-family="Helvetica,sans-Serif" font-size="10.00">+ restoreDefault()</text>
<text text-anchor="start" x="249.5" y="-1301.5" font-family="Helvetica,sans-Serif" font-size="10.00">+ apply()</text>
<text text-anchor="start" x="249.5" y="-1288.5" font-family="Helvetica,sans-Serif" font-size="10.00">+ revert()</text>
<text text-anchor="start" x="249.5" y="-1275.5" font-family="Helvetica,sans-Serif" font-size="10.00">&#45; WSI_DebugTools()</text>
<text text-anchor="start" x="249.5" y="-1262.5" font-family="Helvetica,sans-Serif" font-size="10.00">&#45; WSI_DebugTools()</text>
<text text-anchor="start" x="249.5" y="-1249.5" font-family="Helvetica,sans-Serif" font-size="10.00">&#45; operator=()</text>
</g>
<!-- Node3 -->
<g id="node4" class="node"><title>Node3</title>
<a xlink:href="../../de/d52/class_workspace_settings.html" target="_top" xlink:title="The WorkspaceSettings class manages all workspace related settings (and more) ">
<polygon fill="white" stroke="black" points="394.5,-815 394.5,-1073 543.5,-1073 543.5,-815 394.5,-815"/>
<text text-anchor="middle" x="469" y="-1060" font-family="Helvetica,sans-Serif" font-size="10.00">WorkspaceSettings</text>
<polyline fill="none" stroke="black" points="394.5,-1052 543.5,-1052 "/>
<text text-anchor="start" x="402.5" y="-1039" font-family="Helvetica,sans-Serif" font-size="10.00">&#45; mItems</text>
<polyline fill="none" stroke="black" points="394.5,-1031 543.5,-1031 "/>
<text text-anchor="start" x="402.5" y="-1018" font-family="Helvetica,sans-Serif" font-size="10.00">+ WorkspaceSettings()</text>
<text text-anchor="start" x="402.5" y="-1005" font-family="Helvetica,sans-Serif" font-size="10.00">+ ~WorkspaceSettings()</text>
<text text-anchor="start" x="402.5" y="-992" font-family="Helvetica,sans-Serif" font-size="10.00">+ getMetadataPath()</text>
<text text-anchor="start" x="402.5" y="-979" font-family="Helvetica,sans-Serif" font-size="10.00">+ getAppLocale()</text>
<text text-anchor="start" x="402.5" y="-966" font-family="Helvetica,sans-Serif" font-size="10.00">+ getAppDefMeasUnits()</text>
<text text-anchor="start" x="402.5" y="-953" font-family="Helvetica,sans-Serif" font-size="10.00">+ getProjectAutosaveInterval()</text>
<text text-anchor="start" x="402.5" y="-940" font-family="Helvetica,sans-Serif" font-size="10.00">+ getLibLocaleOrder()</text>
<text text-anchor="start" x="402.5" y="-927" font-family="Helvetica,sans-Serif" font-size="10.00">+ getLibNormOrder()</text>
<text text-anchor="start" x="402.5" y="-914" font-family="Helvetica,sans-Serif" font-size="10.00">+ getDebugTools()</text>
<text text-anchor="start" x="402.5" y="-901" font-family="Helvetica,sans-Serif" font-size="10.00">+ getAppearance()</text>
<text text-anchor="start" x="402.5" y="-888" font-family="Helvetica,sans-Serif" font-size="10.00">+ restoreDefaults()</text>
<text text-anchor="start" x="402.5" y="-875" font-family="Helvetica,sans-Serif" font-size="10.00">+ applyAll()</text>
<text text-anchor="start" x="402.5" y="-862" font-family="Helvetica,sans-Serif" font-size="10.00">+ revertAll()</text>
<text text-anchor="start" x="402.5" y="-849" font-family="Helvetica,sans-Serif" font-size="10.00">+ showSettingsDialog()</text>
<text text-anchor="start" x="402.5" y="-836" font-family="Helvetica,sans-Serif" font-size="10.00">&#45; WorkspaceSettings()</text>
<text text-anchor="start" x="402.5" y="-823" font-family="Helvetica,sans-Serif" font-size="10.00">&#45; operator=()</text>
</a>
</g>
<!-- Node1&#45;&gt;Node3 -->
<g id="edge28" class="edge"><title>Node1&#45;&gt;Node3</title>
<path fill="none" stroke="#404040" d="M333.482,-1241.29C352.105,-1196.75 375.778,-1141.16 398,-1092 399.121,-1089.52 400.256,-1087.02 401.405,-1084.5"/>
<polygon fill="none" stroke="#404040" points="401.503,-1084.29 400.372,-1077.17 406.511,-1073.39 407.642,-1080.51 401.503,-1084.29"/>
<text text-anchor="middle" x="431.5" y="-1096.5" font-family="Helvetica,sans-Serif" font-size="10.00"> &#45;mDebugTools</text>
</g>
<!-- Node2 -->
<g id="node2" class="node"><title>Node2</title>
<a xlink:href="../../d4/dda/class_w_s_i___base.html" target="_top" xlink:title="The WSI_Base class is the base class of all workspace settings items. ">
<polygon fill="white" stroke="black" points="312.5,-505 312.5,-685 405.5,-685 405.5,-505 312.5,-505"/>
<text text-anchor="middle" x="359" y="-672" font-family="Helvetica,sans-Serif" font-size="10.00">WSI_Base</text>
<polyline fill="none" stroke="black" points="312.5,-664 405.5,-664 "/>
<text text-anchor="middle" x="359" y="-651" font-family="Helvetica,sans-Serif" font-size="10.00"> </text>
<polyline fill="none" stroke="black" points="312.5,-643 405.5,-643 "/>
<text text-anchor="start" x="320.5" y="-630" font-family="Helvetica,sans-Serif" font-size="10.00">+ WSI_Base()</text>
<text text-anchor="start" x="320.5" y="-617" font-family="Helvetica,sans-Serif" font-size="10.00">+ ~WSI_Base()</text>
<text text-anchor="start" x="320.5" y="-604" font-family="Helvetica,sans-Serif" font-size="10.00">+ restoreDefault()</text>
<text text-anchor="start" x="320.5" y="-591" font-family="Helvetica,sans-Serif" font-size="10.00">+ apply()</text>
<text text-anchor="start" x="320.5" y="-578" font-family="Helvetica,sans-Serif" font-size="10.00">+ revert()</text>
<text text-anchor="start" x="320.5" y="-565" font-family="Helvetica,sans-Serif" font-size="10.00"># saveValue()</text>
<text text-anchor="start" x="320.5" y="-552" font-family="Helvetica,sans-Serif" font-size="10.00"># loadValue()</text>
<text text-anchor="start" x="320.5" y="-539" font-family="Helvetica,sans-Serif" font-size="10.00">&#45; WSI_Base()</text>
<text text-anchor="start" x="320.5" y="-526" font-family="Helvetica,sans-Serif" font-size="10.00">&#45; WSI_Base()</text>
<text text-anchor="start" x="320.5" y="-513" font-family="Helvetica,sans-Serif" font-size="10.00">&#45; operator=()</text>
</a>
</g>
<!-- Node2&#45;&gt;Node1 -->
<g id="edge2" class="edge"><title>Node2&#45;&gt;Node1</title>
<path fill="none" stroke="midnightblue" d="M350.749,-695.392C338.824,-840.472 316.99,-1106.12 305.883,-1241.26"/>
<polygon fill="none" stroke="midnightblue" points="354.259,-695.412 351.59,-685.159 347.282,-694.838 354.259,-695.412"/>
</g>
<!-- Node5 -->
<g id="node10" class="node"><title>Node5</title>
<a xlink:href="../../db/d82/class_w_s_i___app_locale.html" target="_top" xlink:title="The WSI_AppLocale class represents the application&#39;s locale settings (for translation and localizatio...">
<polygon fill="white" stroke="black" points="191.5,-46.5 191.5,-317.5 332.5,-317.5 332.5,-46.5 191.5,-46.5"/>
<text text-anchor="middle" x="262" y="-304.5" font-family="Helvetica,sans-Serif" font-size="10.00">WSI_AppLocale</text>
<polyline fill="none" stroke="black" points="191.5,-296.5 332.5,-296.5 "/>
<text text-anchor="start" x="199.5" y="-283.5" font-family="Helvetica,sans-Serif" font-size="10.00">&#45; mAppLocale</text>
<text text-anchor="start" x="199.5" y="-270.5" font-family="Helvetica,sans-Serif" font-size="10.00">&#45; mAppLocaleTmp</text>
<text text-anchor="start" x="199.5" y="-257.5" font-family="Helvetica,sans-Serif" font-size="10.00">&#45; mInstalledTranslators</text>
<text text-anchor="start" x="199.5" y="-244.5" font-family="Helvetica,sans-Serif" font-size="10.00">&#45; mWidget</text>
<text text-anchor="start" x="199.5" y="-231.5" font-family="Helvetica,sans-Serif" font-size="10.00">&#45; mComboBox</text>
<polyline fill="none" stroke="black" points="191.5,-223.5 332.5,-223.5 "/>
<text text-anchor="start" x="199.5" y="-210.5" font-family="Helvetica,sans-Serif" font-size="10.00">+ WSI_AppLocale()</text>
<text text-anchor="start" x="199.5" y="-197.5" font-family="Helvetica,sans-Serif" font-size="10.00">+ ~WSI_AppLocale()</text>
<text text-anchor="start" x="199.5" y="-184.5" font-family="Helvetica,sans-Serif" font-size="10.00">+ getAppLocaleName()</text>
<text text-anchor="start" x="199.5" y="-171.5" font-family="Helvetica,sans-Serif" font-size="10.00">+ getLabelText()</text>
<text text-anchor="start" x="199.5" y="-158.5" font-family="Helvetica,sans-Serif" font-size="10.00">+ getWidget()</text>
<text text-anchor="start" x="199.5" y="-145.5" font-family="Helvetica,sans-Serif" font-size="10.00">+ restoreDefault()</text>
<text text-anchor="start" x="199.5" y="-132.5" font-family="Helvetica,sans-Serif" font-size="10.00">+ apply()</text>
<text text-anchor="start" x="199.5" y="-119.5" font-family="Helvetica,sans-Serif" font-size="10.00">+ revert()</text>
<text text-anchor="start" x="199.5" y="-106.5" font-family="Helvetica,sans-Serif" font-size="10.00">+ comboBoxIndexChanged()</text>
<text text-anchor="start" x="199.5" y="-93.5" font-family="Helvetica,sans-Serif" font-size="10.00">&#45; WSI_AppLocale()</text>
<text text-anchor="start" x="199.5" y="-80.5" font-family="Helvetica,sans-Serif" font-size="10.00">&#45; WSI_AppLocale()</text>
<text text-anchor="start" x="199.5" y="-67.5" font-family="Helvetica,sans-Serif" font-size="10.00">&#45; operator=()</text>
<text text-anchor="start" x="199.5" y="-54.5" font-family="Helvetica,sans-Serif" font-size="10.00">&#45; updateComboBoxIndex()</text>
</a>
</g>
<!-- Node2&#45;&gt;Node5 -->
<g id="edge14" class="edge"><title>Node2&#45;&gt;Node5</title>
<path fill="none" stroke="midnightblue" d="M335.536,-495.098C323.04,-441.893 307.489,-375.681 293.911,-317.867"/>
<polygon fill="none" stroke="midnightblue" points="332.139,-495.941 337.833,-504.876 338.954,-494.34 332.139,-495.941"/>
</g>
<!-- Node6 -->
<g id="node13" class="node"><title>Node6</title>
<a xlink:href="../../d8/dcb/class_w_s_i___appearance.html" target="_top" xlink:title="The WSI_Appearance class. ">
<polygon fill="white" stroke="black" points="742.5,-79 742.5,-285 881.5,-285 881.5,-79 742.5,-79"/>
<text text-anchor="middle" x="812" y="-272" font-family="Helvetica,sans-Serif" font-size="10.00">WSI_Appearance</text>
<polyline fill="none" stroke="black" points="742.5,-264 881.5,-264 "/>
<text text-anchor="start" x="750.5" y="-251" font-family="Helvetica,sans-Serif" font-size="10.00">&#45; mUseOpenGlWidget</text>
<text text-anchor="start" x="750.5" y="-238" font-family="Helvetica,sans-Serif" font-size="10.00">&#45; mUseOpenGlCheckBox</text>
<polyline fill="none" stroke="black" points="742.5,-230 881.5,-230 "/>
<text text-anchor="start" x="750.5" y="-217" font-family="Helvetica,sans-Serif" font-size="10.00">+ WSI_Appearance()</text>
<text text-anchor="start" x="750.5" y="-204" font-family="Helvetica,sans-Serif" font-size="10.00">+ ~WSI_Appearance()</text>
<text text-anchor="start" x="750.5" y="-191" font-family="Helvetica,sans-Serif" font-size="10.00">+ getUseOpenGl()</text>
<text text-anchor="start" x="750.5" y="-178" font-family="Helvetica,sans-Serif" font-size="10.00">+ getUseOpenGlLabelText()</text>
<text text-anchor="start" x="750.5" y="-165" font-family="Helvetica,sans-Serif" font-size="10.00">+ getUseOpenGlWidget()</text>
<text text-anchor="start" x="750.5" y="-152" font-family="Helvetica,sans-Serif" font-size="10.00">+ restoreDefault()</text>
<text text-anchor="start" x="750.5" y="-139" font-family="Helvetica,sans-Serif" font-size="10.00">+ apply()</text>
<text text-anchor="start" x="750.5" y="-126" font-family="Helvetica,sans-Serif" font-size="10.00">+ revert()</text>
<text text-anchor="start" x="750.5" y="-113" font-family="Helvetica,sans-Serif" font-size="10.00">&#45; WSI_Appearance()</text>
<text text-anchor="start" x="750.5" y="-100" font-family="Helvetica,sans-Serif" font-size="10.00">&#45; WSI_Appearance()</text>
<text text-anchor="start" x="750.5" y="-87" font-family="Helvetica,sans-Serif" font-size="10.00">&#45; operator=()</text>
</a>
</g>
<!-- Node2&#45;&gt;Node6 -->
<g id="edge18" class="edge"><title>Node2&#45;&gt;Node6</title>
<path fill="none" stroke="midnightblue" d="M376.382,-495.156C385.27,-469.516 398.701,-444.096 419,-426 441.895,-405.589 662.678,-381.309 688,-364 717.197,-344.042 741.483,-314.745 760.596,-285.464"/>
<polygon fill="none" stroke="midnightblue" points="372.952,-494.387 373.193,-504.979 379.61,-496.548 372.952,-494.387"/>
</g>
<!-- Node7 -->
<g id="node16" class="node"><title>Node7</title>
<a xlink:href="../../d5/da3/class_w_s_i___library_norm_order.html" target="_top" xlink:title="The WSI_LibraryNormOrder class contains a list of norms which should be used for all library elements...">
<polygon fill="white" stroke="black" points="539,-1 539,-363 679,-363 679,-1 539,-1"/>
<text text-anchor="middle" x="609" y="-350" font-family="Helvetica,sans-Serif" font-size="10.00">WSI_LibraryNormOrder</text>
<polyline fill="none" stroke="black" points="539,-342 679,-342 "/>
<text text-anchor="start" x="547" y="-329" font-family="Helvetica,sans-Serif" font-size="10.00">&#45; mList</text>
<text text-anchor="start" x="547" y="-316" font-family="Helvetica,sans-Serif" font-size="10.00">&#45; mListTmp</text>
<text text-anchor="start" x="547" y="-303" font-family="Helvetica,sans-Serif" font-size="10.00">&#45; mWidget</text>
<text text-anchor="start" x="547" y="-290" font-family="Helvetica,sans-Serif" font-size="10.00">&#45; mListWidget</text>
<text text-anchor="start" x="547" y="-277" font-family="Helvetica,sans-Serif" font-size="10.00">&#45; mComboBox</text>
<text text-anchor="start" x="547" y="-264" font-family="Helvetica,sans-Serif" font-size="10.00">&#45; mBtnUp</text>
<text text-anchor="start" x="547" y="-251" font-family="Helvetica,sans-Serif" font-size="10.00">&#45; mBtnDown</text>
<text text-anchor="start" x="547" y="-238" font-family="Helvetica,sans-Serif" font-size="10.00">&#45; mBtnAdd</text>
<text text-anchor="start" x="547" y="-225" font-family="Helvetica,sans-Serif" font-size="10.00">&#45; mBtnRemove</text>
<polyline fill="none" stroke="black" points="539,-217 679,-217 "/>
<text text-anchor="start" x="547" y="-204" font-family="Helvetica,sans-Serif" font-size="10.00">+ WSI_LibraryNormOrder()</text>
<text text-anchor="start" x="547" y="-191" font-family="Helvetica,sans-Serif" font-size="10.00">+ ~WSI_LibraryNormOrder()</text>
<text text-anchor="start" x="547" y="-178" font-family="Helvetica,sans-Serif" font-size="10.00">+ getNormOrder()</text>
<text text-anchor="start" x="547" y="-165" font-family="Helvetica,sans-Serif" font-size="10.00">+ getLabelText()</text>
<text text-anchor="start" x="547" y="-152" font-family="Helvetica,sans-Serif" font-size="10.00">+ getWidget()</text>
<text text-anchor="start" x="547" y="-139" font-family="Helvetica,sans-Serif" font-size="10.00">+ restoreDefault()</text>
<text text-anchor="start" x="547" y="-126" font-family="Helvetica,sans-Serif" font-size="10.00">+ apply()</text>
<text text-anchor="start" x="547" y="-113" font-family="Helvetica,sans-Serif" font-size="10.00">+ revert()</text>
<text text-anchor="start" x="547" y="-100" font-family="Helvetica,sans-Serif" font-size="10.00">+ btnUpClicked()</text>
<text text-anchor="start" x="547" y="-87" font-family="Helvetica,sans-Serif" font-size="10.00">+ btnDownClicked()</text>
<text text-anchor="start" x="547" y="-74" font-family="Helvetica,sans-Serif" font-size="10.00">+ btnAddClicked()</text>
<text text-anchor="start" x="547" y="-61" font-family="Helvetica,sans-Serif" font-size="10.00">+ btnRemoveClicked()</text>
<text text-anchor="start" x="547" y="-48" font-family="Helvetica,sans-Serif" font-size="10.00">&#45; WSI_LibraryNormOrder()</text>
<text text-anchor="start" x="547" y="-35" font-family="Helvetica,sans-Serif" font-size="10.00">&#45; WSI_LibraryNormOrder()</text>
<text text-anchor="start" x="547" y="-22" font-family="Helvetica,sans-Serif" font-size="10.00">&#45; operator=()</text>
<text text-anchor="start" x="547" y="-9" font-family="Helvetica,sans-Serif" font-size="10.00">&#45; updateListWidgetItems()</text>
</a>
</g>
<!-- Node2&#45;&gt;Node7 -->
<g id="edge22" class="edge"><title>Node2&#45;&gt;Node7</title>
<path fill="none" stroke="midnightblue" d="M383.055,-495.187C391.837,-471.048 403.549,-446.364 419,-426 447.919,-387.886 474.955,-399.526 507,-364 518.402,-351.359 529.056,-337.225 538.852,-322.572"/>
<polygon fill="none" stroke="midnightblue" points="379.705,-494.165 379.711,-504.76 386.313,-496.474 379.705,-494.165"/>
</g>
<!-- Node8 -->
<g id="node19" class="node"><title>Node8</title>
<a xlink:href="../../de/ded/class_w_s_i___library_locale_order.html" target="_top" xlink:title="The WSI_LibraryLocaleOrder class contains a list of locales which should be used for all (translatabl...">
<polygon fill="white" stroke="black" points="354,-1 354,-363 498,-363 498,-1 354,-1"/>
<text text-anchor="middle" x="426" y="-350" font-family="Helvetica,sans-Serif" font-size="10.00">WSI_LibraryLocaleOrder</text>
<polyline fill="none" stroke="black" points="354,-342 498,-342 "/>
<text text-anchor="start" x="362" y="-329" font-family="Helvetica,sans-Serif" font-size="10.00">&#45; mList</text>
<text text-anchor="start" x="362" y="-316" font-family="Helvetica,sans-Serif" font-size="10.00">&#45; mListTmp</text>
<text text-anchor="start" x="362" y="-303" font-family="Helvetica,sans-Serif" font-size="10.00">&#45; mWidget</text>
<text text-anchor="start" x="362" y="-290" font-family="Helvetica,sans-Serif" font-size="10.00">&#45; mListWidget</text>
<text text-anchor="start" x="362" y="-277" font-family="Helvetica,sans-Serif" font-size="10.00">&#45; mComboBox</text>
<text text-anchor="start" x="362" y="-264" font-family="Helvetica,sans-Serif" font-size="10.00">&#45; mBtnUp</text>
<text text-anchor="start" x="362" y="-251" font-family="Helvetica,sans-Serif" font-size="10.00">&#45; mBtnDown</text>
<text text-anchor="start" x="362" y="-238" font-family="Helvetica,sans-Serif" font-size="10.00">&#45; mBtnAdd</text>
<text text-anchor="start" x="362" y="-225" font-family="Helvetica,sans-Serif" font-size="10.00">&#45; mBtnRemove</text>
<polyline fill="none" stroke="black" points="354,-217 498,-217 "/>
<text text-anchor="start" x="362" y="-204" font-family="Helvetica,sans-Serif" font-size="10.00">+ WSI_LibraryLocaleOrder()</text>
<text text-anchor="start" x="362" y="-191" font-family="Helvetica,sans-Serif" font-size="10.00">+ ~WSI_LibraryLocaleOrder()</text>
<text text-anchor="start" x="362" y="-178" font-family="Helvetica,sans-Serif" font-size="10.00">+ getLocaleOrder()</text>
<text text-anchor="start" x="362" y="-165" font-family="Helvetica,sans-Serif" font-size="10.00">+ getLabelText()</text>
<text text-anchor="start" x="362" y="-152" font-family="Helvetica,sans-Serif" font-size="10.00">+ getWidget()</text>
<text text-anchor="start" x="362" y="-139" font-family="Helvetica,sans-Serif" font-size="10.00">+ restoreDefault()</text>
<text text-anchor="start" x="362" y="-126" font-family="Helvetica,sans-Serif" font-size="10.00">+ apply()</text>
<text text-anchor="start" x="362" y="-113" font-family="Helvetica,sans-Serif" font-size="10.00">+ revert()</text>
<text text-anchor="start" x="362" y="-100" font-family="Helvetica,sans-Serif" font-size="10.00">+ btnUpClicked()</text>
<text text-anchor="start" x="362" y="-87" font-family="Helvetica,sans-Serif" font-size="10.00">+ btnDownClicked()</text>
<text text-anchor="start" x="362" y="-74" font-family="Helvetica,sans-Serif" font-size="10.00">+ btnAddClicked()</text>
<text text-anchor="start" x="362" y="-61" font-family="Helvetica,sans-Serif" font-size="10.00">+ btnRemoveClicked()</text>
<text text-anchor="start" x="362" y="-48" font-family="Helvetica,sans-Serif" font-size="10.00">&#45; WSI_LibraryLocaleOrder()</text>
<text text-anchor="start" x="362" y="-35" font-family="Helvetica,sans-Serif" font-size="10.00">&#45; WSI_LibraryLocaleOrder()</text>
<text text-anchor="start" x="362" y="-22" font-family="Helvetica,sans-Serif" font-size="10.00">&#45; operator=()</text>
<text text-anchor="start" x="362" y="-9" font-family="Helvetica,sans-Serif" font-size="10.00">&#45; updateListWidgetItems()</text>
</a>
</g>
<!-- Node2&#45;&gt;Node8 -->
<g id="edge26" class="edge"><title>Node2&#45;&gt;Node8</title>
<path fill="none" stroke="midnightblue" d="M370.19,-494.946C374.579,-459.225 380.006,-418.738 386,-382 387.012,-375.797 388.076,-369.492 389.18,-363.13"/>
<polygon fill="none" stroke="midnightblue" points="366.714,-494.538 368.98,-504.888 373.663,-495.384 366.714,-494.538"/>
</g>
<!-- Node9 -->
<g id="node23" class="node"><title>Node9</title>
<a xlink:href="../../d6/d31/class_w_s_i___project_autosave_interval.html" target="_top" xlink:title="The WSI_ProjectAutosaveInterval class represents the project autosave interval setting. ">
<polygon fill="white" stroke="black" points="-0.5,-59.5 -0.5,-304.5 166.5,-304.5 166.5,-59.5 -0.5,-59.5"/>
<text text-anchor="middle" x="83" y="-291.5" font-family="Helvetica,sans-Serif" font-size="10.00">WSI_ProjectAutosaveInterval</text>
<polyline fill="none" stroke="black" points="-0.5,-283.5 166.5,-283.5 "/>
<text text-anchor="start" x="7.5" y="-270.5" font-family="Helvetica,sans-Serif" font-size="10.00">&#45; mInterval</text>
<text text-anchor="start" x="7.5" y="-257.5" font-family="Helvetica,sans-Serif" font-size="10.00">&#45; mIntervalTmp</text>
<text text-anchor="start" x="7.5" y="-244.5" font-family="Helvetica,sans-Serif" font-size="10.00">&#45; mWidget</text>
<text text-anchor="start" x="7.5" y="-231.5" font-family="Helvetica,sans-Serif" font-size="10.00">&#45; mSpinBox</text>
<polyline fill="none" stroke="black" points="-0.5,-223.5 166.5,-223.5 "/>
<text text-anchor="start" x="7.5" y="-210.5" font-family="Helvetica,sans-Serif" font-size="10.00">+ WSI_ProjectAutosaveInterval()</text>
<text text-anchor="start" x="7.5" y="-197.5" font-family="Helvetica,sans-Serif" font-size="10.00">+ ~WSI_ProjectAutosaveInterval()</text>
<text text-anchor="start" x="7.5" y="-184.5" font-family="Helvetica,sans-Serif" font-size="10.00">+ getInterval()</text>
<text text-anchor="start" x="7.5" y="-171.5" font-family="Helvetica,sans-Serif" font-size="10.00">+ getLabelText()</text>
<text text-anchor="start" x="7.5" y="-158.5" font-family="Helvetica,sans-Serif" font-size="10.00">+ getWidget()</text>
<text text-anchor="start" x="7.5" y="-145.5" font-family="Helvetica,sans-Serif" font-size="10.00">+ restoreDefault()</text>
<text text-anchor="start" x="7.5" y="-132.5" font-family="Helvetica,sans-Serif" font-size="10.00">+ apply()</text>
<text text-anchor="start" x="7.5" y="-119.5" font-family="Helvetica,sans-Serif" font-size="10.00">+ revert()</text>
<text text-anchor="start" x="7.5" y="-106.5" font-family="Helvetica,sans-Serif" font-size="10.00">+ spinBoxValueChanged()</text>
<text text-anchor="start" x="7.5" y="-93.5" font-family="Helvetica,sans-Serif" font-size="10.00">&#45; WSI_ProjectAutosaveInterval()</text>
<text text-anchor="start" x="7.5" y="-80.5" font-family="Helvetica,sans-Serif" font-size="10.00">&#45; WSI_ProjectAutosaveInterval()</text>
<text text-anchor="start" x="7.5" y="-67.5" font-family="Helvetica,sans-Serif" font-size="10.00">&#45; operator=()</text>
</a>
</g>
<!-- Node2&#45;&gt;Node9 -->
<g id="edge32" class="edge"><title>Node2&#45;&gt;Node9</title>
<path fill="none" stroke="midnightblue" d="M337.059,-494.987C328.213,-470.493 315.942,-445.689 299,-426 260.871,-381.689 224.574,-405.096 183,-364 165.693,-346.892 150.56,-326.153 137.659,-304.886"/>
<polygon fill="none" stroke="midnightblue" points="333.842,-496.394 340.404,-504.712 340.462,-494.118 333.842,-496.394"/>
</g>
<!-- Node11 -->
<g id="node28" class="node"><title>Node11</title>
<a xlink:href="../../d3/d01/class_w_s_i___app_default_measurement_units.html" target="_top" xlink:title="The WSI_AppDefaultMeasurementUnits class represents the application&#39;s default measurement units (for ...">
<polygon fill="white" stroke="black" points="922,-33.5 922,-330.5 1110,-330.5 1110,-33.5 922,-33.5"/>
<text text-anchor="start" x="930" y="-317.5" font-family="Helvetica,sans-Serif" font-size="10.00">WSI_AppDefaultMeasurement</text>
<text text-anchor="middle" x="1016" y="-304.5" font-family="Helvetica,sans-Serif" font-size="10.00">Units</text>
<polyline fill="none" stroke="black" points="922,-296.5 1110,-296.5 "/>
<text text-anchor="start" x="930" y="-283.5" font-family="Helvetica,sans-Serif" font-size="10.00">&#45; mLengthUnitComboBox</text>
<polyline fill="none" stroke="black" points="922,-275.5 1110,-275.5 "/>
<text text-anchor="start" x="930" y="-262.5" font-family="Helvetica,sans-Serif" font-size="10.00">+ WSI_AppDefaultMeasurement</text>
<text text-anchor="start" x="930" y="-249.5" font-family="Helvetica,sans-Serif" font-size="10.00">Units()</text>
<text text-anchor="start" x="930" y="-236.5" font-family="Helvetica,sans-Serif" font-size="10.00">+ ~WSI_AppDefaultMeasurement</text>
<text text-anchor="start" x="930" y="-223.5" font-family="Helvetica,sans-Serif" font-size="10.00">Units()</text>
<text text-anchor="start" x="930" y="-210.5" font-family="Helvetica,sans-Serif" font-size="10.00">+ getLengthUnit()</text>
<text text-anchor="start" x="930" y="-197.5" font-family="Helvetica,sans-Serif" font-size="10.00">+ getLengthUnitLabelText()</text>
<text text-anchor="start" x="930" y="-184.5" font-family="Helvetica,sans-Serif" font-size="10.00">+ getLengthUnitComboBox()</text>
<text text-anchor="start" x="930" y="-171.5" font-family="Helvetica,sans-Serif" font-size="10.00">+ restoreDefault()</text>
<text text-anchor="start" x="930" y="-158.5" font-family="Helvetica,sans-Serif" font-size="10.00">+ apply()</text>
<text text-anchor="start" x="930" y="-145.5" font-family="Helvetica,sans-Serif" font-size="10.00">+ revert()</text>
<text text-anchor="start" x="930" y="-132.5" font-family="Helvetica,sans-Serif" font-size="10.00">+ lengthUnitComboBoxIndexChanged()</text>
<text text-anchor="start" x="930" y="-119.5" font-family="Helvetica,sans-Serif" font-size="10.00">&#45; WSI_AppDefaultMeasurement</text>
<text text-anchor="start" x="930" y="-106.5" font-family="Helvetica,sans-Serif" font-size="10.00">Units()</text>
<text text-anchor="start" x="930" y="-93.5" font-family="Helvetica,sans-Serif" font-size="10.00">&#45; WSI_AppDefaultMeasurement</text>
<text text-anchor="start" x="930" y="-80.5" font-family="Helvetica,sans-Serif" font-size="10.00">Units()</text>
<text text-anchor="start" x="930" y="-67.5" font-family="Helvetica,sans-Serif" font-size="10.00">&#45; operator=()</text>
<text text-anchor="start" x="930" y="-54.5" font-family="Helvetica,sans-Serif" font-size="10.00">&#45; updateLengthUnitComboBox</text>
<text text-anchor="start" x="930" y="-41.5" font-family="Helvetica,sans-Serif" font-size="10.00">Index()</text>
</a>
</g>
<!-- Node2&#45;&gt;Node11 -->
<g id="edge38" class="edge"><title>Node2&#45;&gt;Node11</title>
<path fill="none" stroke="midnightblue" d="M374.694,-495.293C383.549,-469.11 397.386,-443.371 419,-426 444.137,-405.797 531.019,-412.15 563,-408 708.424,-389.128 764.945,-440.586 890,-364 904.748,-354.968 918.204,-343.488 930.367,-330.699"/>
<polygon fill="none" stroke="midnightblue" points="371.32,-494.354 371.652,-504.944 377.996,-496.459 371.32,-494.354"/>
</g>
<!-- Node3&#45;&gt;Node2 -->
<g id="edge4" class="edge"><title>Node3&#45;&gt;Node2</title>
<path fill="none" stroke="#404040" d="M394.433,-841.771C386.341,-826.973 379.178,-811.492 374,-796 363.598,-764.879 358.804,-729.589 356.905,-697.359"/>
<polygon fill="none" stroke="#404040" points="356.895,-697.158 352.609,-691.359 356.313,-685.172 360.599,-690.971 356.895,-697.158"/>
<text text-anchor="middle" x="400.5" y="-786.5" font-family="Helvetica,sans-Serif" font-size="10.00"> #mSettings</text>
</g>
<!-- Node4 -->
<g id="node6" class="node"><title>Node4</title>
<a xlink:href="../../d1/d5c/class_workspace_settings_dialog.html" target="_top" xlink:title="The WorkspaceSettingsDialog class. ">
<polygon fill="white" stroke="black" points="555.5,-518 555.5,-672 706.5,-672 706.5,-518 555.5,-518"/>
<text text-anchor="middle" x="631" y="-659" font-family="Helvetica,sans-Serif" font-size="10.00">WorkspaceSettingsDialog</text>
<polyline fill="none" stroke="black" points="555.5,-651 706.5,-651 "/>
<text text-anchor="middle" x="631" y="-638" font-family="Helvetica,sans-Serif" font-size="10.00"> </text>
<polyline fill="none" stroke="black" points="555.5,-630 706.5,-630 "/>
<text text-anchor="start" x="563.5" y="-617" font-family="Helvetica,sans-Serif" font-size="10.00">+ WorkspaceSettingsDialog()</text>
<text text-anchor="start" x="563.5" y="-604" font-family="Helvetica,sans-Serif" font-size="10.00">+ ~WorkspaceSettingsDialog()</text>
<text text-anchor="start" x="563.5" y="-591" font-family="Helvetica,sans-Serif" font-size="10.00"># accept()</text>
<text text-anchor="start" x="563.5" y="-578" font-family="Helvetica,sans-Serif" font-size="10.00"># reject()</text>
<text text-anchor="start" x="563.5" y="-565" font-family="Helvetica,sans-Serif" font-size="10.00">&#45; WorkspaceSettingsDialog()</text>
<text text-anchor="start" x="563.5" y="-552" font-family="Helvetica,sans-Serif" font-size="10.00">&#45; WorkspaceSettingsDialog()</text>
<text text-anchor="start" x="563.5" y="-539" font-family="Helvetica,sans-Serif" font-size="10.00">&#45; operator=()</text>
<text text-anchor="start" x="563.5" y="-526" font-family="Helvetica,sans-Serif" font-size="10.00">&#45; on_buttonBox_clicked()</text>
</a>
</g>
<!-- Node3&#45;&gt;Node4 -->
<g id="edge10" class="edge"><title>Node3&#45;&gt;Node4</title>
<path fill="none" stroke="#404040" d="M543.665,-834.195C550.989,-821.565 557.939,-808.67 564,-796 580.971,-760.524 595.453,-719.622 606.564,-684.014"/>
<polygon fill="none" stroke="#404040" points="606.682,-683.628 604.618,-676.719 610.202,-672.156 612.266,-679.065 606.682,-683.628"/>
<text text-anchor="middle" x="593.5" y="-786.5" font-family="Helvetica,sans-Serif" font-size="10.00"> &#45;mSettings</text>
</g>
<!-- Node4&#45;&gt;Node3 -->
<g id="edge6" class="edge"><title>Node4&#45;&gt;Node3</title>
<path fill="none" stroke="#404040" d="M597.928,-672.346C583.129,-702.509 564.026,-736.395 542,-764 534.333,-773.609 527.802,-771.761 521,-782 516.39,-788.94 512.164,-796.317 508.294,-803.952"/>
<polygon fill="none" stroke="#404040" points="508.236,-804.072 509.255,-811.211 503.057,-814.897 502.038,-807.758 508.236,-804.072"/>
<text text-anchor="middle" x="542.5" y="-786.5" font-family="Helvetica,sans-Serif" font-size="10.00"> &#45;mDialog</text>
</g>
<!-- Node4&#45;&gt;Node4 -->
<g id="edge8" class="edge"><title>Node4&#45;&gt;Node4</title>
<path fill="none" stroke="#404040" d="M706.535,-627.459C717.003,-622.113 724,-611.293 724,-595 724,-584.308 720.987,-575.973 715.956,-569.995"/>
<polygon fill="none" stroke="#404040" points="715.946,-569.987 708.759,-569.401 706.535,-562.541 713.722,-563.127 715.946,-569.987"/>
<text text-anchor="middle" x="736.5" y="-592.5" font-family="Helvetica,sans-Serif" font-size="10.00"> &#45;mUi</text>
</g>
<!-- Node5&#45;&gt;Node3 -->
<g id="edge12" class="edge"><title>Node5&#45;&gt;Node3</title>
<path fill="none" stroke="#404040" d="M243.298,-317.537C225.516,-464.462 206.433,-688.127 243,-764 272.186,-824.557 332.751,-871.04 383.842,-901.589"/>
<polygon fill="none" stroke="#404040" points="383.893,-901.62 391.092,-901.195 394.253,-907.676 387.055,-908.101 383.893,-901.62"/>
<text text-anchor="middle" x="273.5" y="-592.5" font-family="Helvetica,sans-Serif" font-size="10.00"> &#45;mAppLocale</text>
</g>
<!-- Node6&#45;&gt;Node3 -->
<g id="edge16" class="edge"><title>Node6&#45;&gt;Node3</title>
<path fill="none" stroke="#404040" d="M860.118,-285.06C910.258,-409.122 969.421,-618.854 875,-764 804.542,-872.31 652.348,-915.951 555.624,-933.177"/>
<polygon fill="none" stroke="#404040" points="555.357,-933.222 550.117,-938.176 543.528,-935.245 548.768,-930.291 555.357,-933.222"/>
<text text-anchor="middle" x="958.5" y="-592.5" font-family="Helvetica,sans-Serif" font-size="10.00"> &#45;mAppearance</text>
</g>
<!-- Node7&#45;&gt;Node3 -->
<g id="edge20" class="edge"><title>Node7&#45;&gt;Node3</title>
<path fill="none" stroke="#404040" d="M679.11,-284.199C713.595,-336.791 749.569,-396.017 758,-426 778.332,-498.307 794.463,-698.333 758,-764 715.053,-841.345 623.542,-889.777 554.931,-916.666"/>
<polygon fill="none" stroke="#404040" points="554.907,-916.675 550.73,-922.553 543.697,-920.958 547.875,-915.08 554.907,-916.675"/>
<text text-anchor="middle" x="825" y="-592.5" font-family="Helvetica,sans-Serif" font-size="10.00"> &#45;mLibraryNormOrder</text>
</g>
<!-- Node8&#45;&gt;Node3 -->
<g id="edge24" class="edge"><title>Node8&#45;&gt;Node3</title>
<path fill="none" stroke="#404040" d="M430.486,-363.059C434.071,-478.011 440.165,-629.86 450,-764 450.924,-776.597 452.026,-789.676 453.227,-802.774"/>
<polygon fill="none" stroke="#404040" points="453.234,-802.849 457.778,-808.448 454.356,-814.796 449.813,-809.197 453.234,-802.849"/>
<text text-anchor="middle" x="498.5" y="-592.5" font-family="Helvetica,sans-Serif" font-size="10.00"> &#45;mLibraryLocaleOrder</text>
</g>
<!-- Node9&#45;&gt;Node3 -->
<g id="edge30" class="edge"><title>Node9&#45;&gt;Node3</title>
<path fill="none" stroke="#404040" d="M52.1657,-304.71C27.9338,-430.497 11.3446,-626.617 100,-764 162.815,-861.34 294.604,-907.634 382.467,-928.464"/>
<polygon fill="none" stroke="#404040" points="382.598,-928.494 389.34,-925.937 394.294,-931.177 387.551,-933.734 382.598,-928.494"/>
<text text-anchor="middle" x="159.5" y="-592.5" font-family="Helvetica,sans-Serif" font-size="10.00"> &#45;mProjectAutosaveInterval</text>
</g>
<!-- Node10 -->
<g id="node26" class="node"><title>Node10</title>
<a xlink:href="../../d4/d1c/class_file_path.html" target="_top" xlink:title="This class represents absolute, well&#45;formatted paths to files or directories. ">
<polygon fill="white" stroke="black" points="402,-1124.5 402,-1525.5 536,-1525.5 536,-1124.5 402,-1124.5"/>
<text text-anchor="middle" x="469" y="-1512.5" font-family="Helvetica,sans-Serif" font-size="10.00">FilePath</text>
<polyline fill="none" stroke="black" points="402,-1504.5 536,-1504.5 "/>
<text text-anchor="start" x="410" y="-1491.5" font-family="Helvetica,sans-Serif" font-size="10.00">&#45; mIsValid</text>
<text text-anchor="start" x="410" y="-1478.5" font-family="Helvetica,sans-Serif" font-size="10.00">&#45; mFileInfo</text>
<polyline fill="none" stroke="black" points="402,-1470.5 536,-1470.5 "/>
<text text-anchor="start" x="410" y="-1457.5" font-family="Helvetica,sans-Serif" font-size="10.00">+ FilePath()</text>
<text text-anchor="start" x="410" y="-1444.5" font-family="Helvetica,sans-Serif" font-size="10.00">+ FilePath()</text>
<text text-anchor="start" x="410" y="-1431.5" font-family="Helvetica,sans-Serif" font-size="10.00">+ FilePath()</text>
<text text-anchor="start" x="410" y="-1418.5" font-family="Helvetica,sans-Serif" font-size="10.00">+ setPath()</text>
<text text-anchor="start" x="410" y="-1405.5" font-family="Helvetica,sans-Serif" font-size="10.00">+ isValid()</text>
<text text-anchor="start" x="410" y="-1392.5" font-family="Helvetica,sans-Serif" font-size="10.00">+ isExistingFile()</text>
<text text-anchor="start" x="410" y="-1379.5" font-family="Helvetica,sans-Serif" font-size="10.00">+ isExistingDir()</text>
<text text-anchor="start" x="410" y="-1366.5" font-family="Helvetica,sans-Serif" font-size="10.00">+ isEmptyDir()</text>
<text text-anchor="start" x="410" y="-1353.5" font-family="Helvetica,sans-Serif" font-size="10.00">+ isRoot()</text>
<text text-anchor="start" x="410" y="-1340.5" font-family="Helvetica,sans-Serif" font-size="10.00">+ toStr()</text>
<text text-anchor="start" x="410" y="-1327.5" font-family="Helvetica,sans-Serif" font-size="10.00">+ toNative()</text>
<text text-anchor="start" x="410" y="-1314.5" font-family="Helvetica,sans-Serif" font-size="10.00">+ toUnique()</text>
<text text-anchor="start" x="410" y="-1301.5" font-family="Helvetica,sans-Serif" font-size="10.00">+ toRelative()</text>
<text text-anchor="start" x="410" y="-1288.5" font-family="Helvetica,sans-Serif" font-size="10.00">+ toQUrl()</text>
<text text-anchor="start" x="410" y="-1275.5" font-family="Helvetica,sans-Serif" font-size="10.00">+ getBasename()</text>
<text text-anchor="start" x="410" y="-1262.5" font-family="Helvetica,sans-Serif" font-size="10.00">+ getCompleteBasename()</text>
<text text-anchor="start" x="410" y="-1249.5" font-family="Helvetica,sans-Serif" font-size="10.00">+ getSuffix()</text>
<text text-anchor="start" x="410" y="-1236.5" font-family="Helvetica,sans-Serif" font-size="10.00">+ getCompleteSuffix()</text>
<text text-anchor="start" x="410" y="-1223.5" font-family="Helvetica,sans-Serif" font-size="10.00">+ getFilename()</text>
<text text-anchor="start" x="410" y="-1210.5" font-family="Helvetica,sans-Serif" font-size="10.00">+ getParentDir()</text>
<text text-anchor="start" x="410" y="-1197.5" font-family="Helvetica,sans-Serif" font-size="10.00">+ getPathTo()</text>
<text text-anchor="start" x="410" y="-1184.5" font-family="Helvetica,sans-Serif" font-size="10.00">+ mkPath()</text>
<text text-anchor="start" x="410" y="-1171.5" font-family="Helvetica,sans-Serif" font-size="10.00">+ operator=()</text>
<text text-anchor="start" x="410" y="-1158.5" font-family="Helvetica,sans-Serif" font-size="10.00">+ operator==()</text>
<text text-anchor="start" x="410" y="-1145.5" font-family="Helvetica,sans-Serif" font-size="10.00">+ fromRelative()</text>
<text text-anchor="start" x="410" y="-1132.5" font-family="Helvetica,sans-Serif" font-size="10.00">&#45; makeWellFormatted()</text>
</a>
</g>
<!-- Node10&#45;&gt;Node3 -->
<g id="edge34" class="edge"><title>Node10&#45;&gt;Node3</title>
<path fill="none" stroke="#404040" d="M469,-1124.46C469,-1111.28 469,-1098.17 469,-1085.37"/>
<polygon fill="none" stroke="#404040" points="469,-1085.21 465,-1079.21 469,-1073.21 473,-1079.21 469,-1085.21"/>
<text text-anchor="middle" x="507" y="-1096.5" font-family="Helvetica,sans-Serif" font-size="10.00"> &#45;mMetadataPath</text>
</g>
<!-- Node11&#45;&gt;Node3 -->
<g id="edge36" class="edge"><title>Node11&#45;&gt;Node3</title>
<path fill="none" stroke="#404040" d="M1018.99,-330.751C1020.88,-491.703 1019.24,-730.042 994,-764 940.823,-835.55 690.229,-897.708 555.392,-926.67"/>
<polygon fill="none" stroke="#404040" points="555.245,-926.701 550.21,-931.863 543.508,-929.2 548.544,-924.038 555.245,-926.701"/>
<text text-anchor="middle" x="1066.5" y="-592.5" font-family="Helvetica,sans-Serif" font-size="10.00"> &#45;mAppDefMeasUnits</text>
</g>
<!-- Node12 -->
<g id="node31" class="node"><title>Node12</title>
<a xlink:href="../../dd/d55/class_length_unit.html" target="_top" xlink:title="The LengthUnit class represents a length unit (millimeters, inches,...) and provides some useful meth...">
<polygon fill="white" stroke="black" points="1129,-427 1129,-763 1233,-763 1233,-427 1129,-427"/>
<text text-anchor="middle" x="1181" y="-750" font-family="Helvetica,sans-Serif" font-size="10.00">LengthUnit</text>
<polyline fill="none" stroke="black" points="1129,-742 1233,-742 "/>
<text text-anchor="start" x="1137" y="-729" font-family="Helvetica,sans-Serif" font-size="10.00">&#45; mUnit</text>
<polyline fill="none" stroke="black" points="1129,-721 1233,-721 "/>
<text text-anchor="start" x="1137" y="-708" font-family="Helvetica,sans-Serif" font-size="10.00">+ LengthUnit()</text>
<text text-anchor="start" x="1137" y="-695" font-family="Helvetica,sans-Serif" font-size="10.00">+ LengthUnit()</text>
<text text-anchor="start" x="1137" y="-682" font-family="Helvetica,sans-Serif" font-size="10.00">+ ~LengthUnit()</text>
<text text-anchor="start" x="1137" y="-669" font-family="Helvetica,sans-Serif" font-size="10.00">+ getIndex()</text>
<text text-anchor="start" x="1137" y="-656" font-family="Helvetica,sans-Serif" font-size="10.00">+ toString()</text>
<text text-anchor="start" x="1137" y="-643" font-family="Helvetica,sans-Serif" font-size="10.00">+ toStringTr()</text>
<text text-anchor="start" x="1137" y="-630" font-family="Helvetica,sans-Serif" font-size="10.00">+ toShortStringTr()</text>
<text text-anchor="start" x="1137" y="-617" font-family="Helvetica,sans-Serif" font-size="10.00">+ convertToUnit()</text>
<text text-anchor="start" x="1137" y="-604" font-family="Helvetica,sans-Serif" font-size="10.00">+ convertToUnit()</text>
<text text-anchor="start" x="1137" y="-591" font-family="Helvetica,sans-Serif" font-size="10.00">+ convertFromUnit()</text>
<text text-anchor="start" x="1137" y="-578" font-family="Helvetica,sans-Serif" font-size="10.00">+ convertFromUnit()</text>
<text text-anchor="start" x="1137" y="-565" font-family="Helvetica,sans-Serif" font-size="10.00">+ operator=()</text>
<text text-anchor="start" x="1137" y="-552" font-family="Helvetica,sans-Serif" font-size="10.00">+ operator==()</text>
<text text-anchor="start" x="1137" y="-539" font-family="Helvetica,sans-Serif" font-size="10.00">+ fromIndex()</text>
<text text-anchor="start" x="1137" y="-526" font-family="Helvetica,sans-Serif" font-size="10.00">+ fromString()</text>
<text text-anchor="start" x="1137" y="-513" font-family="Helvetica,sans-Serif" font-size="10.00">+ getAllUnits()</text>
<text text-anchor="start" x="1137" y="-500" font-family="Helvetica,sans-Serif" font-size="10.00">+ millimeters()</text>
<text text-anchor="start" x="1137" y="-487" font-family="Helvetica,sans-Serif" font-size="10.00">+ micrometers()</text>
<text text-anchor="start" x="1137" y="-474" font-family="Helvetica,sans-Serif" font-size="10.00">+ nanometers()</text>
<text text-anchor="start" x="1137" y="-461" font-family="Helvetica,sans-Serif" font-size="10.00">+ inches()</text>
<text text-anchor="start" x="1137" y="-448" font-family="Helvetica,sans-Serif" font-size="10.00">+ mils()</text>
<text text-anchor="start" x="1137" y="-435" font-family="Helvetica,sans-Serif" font-size="10.00">&#45; LengthUnit()</text>
</a>
</g>
<!-- Node12&#45;&gt;Node11 -->
<g id="edge40" class="edge"><title>Node12&#45;&gt;Node11</title>
<path fill="none" stroke="#404040" d="M1128.92,-461.173C1124.23,-449.271 1119.54,-437.413 1115,-426 1104.19,-398.843 1092.6,-370.03 1081.3,-342.082"/>
<polygon fill="none" stroke="#404040" points="1081.15,-341.71 1075.19,-337.649 1076.65,-330.587 1082.61,-334.648 1081.15,-341.71"/>
<text text-anchor="middle" x="1148" y="-399" font-family="Helvetica,sans-Serif" font-size="10.00"> &#45;mLengthUnitTmp</text>
<text text-anchor="middle" x="1148" y="-386" font-family="Helvetica,sans-Serif" font-size="10.00">&#45;mLengthUnit</text>
</g>
</g>
</svg>
