<?xml version="1.0" encoding="UTF-8" standalone="no"?>
<!DOCTYPE svg PUBLIC "-//W3C//DTD SVG 1.1//EN"
 "http://www.w3.org/Graphics/SVG/1.1/DTD/svg11.dtd">
<!-- Generated by graphviz version 2.26.3 (20100126.1600)
 -->
<!-- Title: getPosition Pages: 1 -->
<svg width="404pt" height="117pt"
 viewBox="0.00 0.00 404.00 117.00" xmlns="http://www.w3.org/2000/svg" xmlns:xlink="http://www.w3.org/1999/xlink">
<g id="graph1" class="graph" transform="scale(1 1) rotate(0) translate(4 113)">
<title>getPosition</title>
<polygon fill="white" stroke="white" points="-4,5 -4,-113 401,-113 401,5 -4,5"/>
<!-- Node1 -->
<g id="node1" class="node"><title>Node1</title>
<polygon fill="#bfbfbf" stroke="black" points="0.5,-29.5 0.5,-50.5 65.5,-50.5 65.5,-29.5 0.5,-29.5"/>
<text text-anchor="middle" x="33" y="-37.5" font-family="Helvetica,sans-Serif" font-size="10.00">getPosition</text>
</g>
<!-- Node2 -->
<g id="node3" class="node"><title>Node2</title>
<a xlink:href="../../da/d96/classproject_1_1_b_i___footprint.html#a02fd73d861ef2e4aabb38c0c9ff82947" target="_top" xlink:title="project::BI_Footprint\l::init">
<polygon fill="white" stroke="black" points="102.5,-75 102.5,-109 207.5,-109 207.5,-75 102.5,-75"/>
<text text-anchor="start" x="110.5" y="-96" font-family="Helvetica,sans-Serif" font-size="10.00">project::BI_Footprint</text>
<text text-anchor="middle" x="155" y="-83" font-family="Helvetica,sans-Serif" font-size="10.00">::init</text>
</a>
</g>
<!-- Node1&#45;&gt;Node2 -->
<g id="edge2" class="edge"><title>Node1&#45;&gt;Node2</title>
<path fill="none" stroke="midnightblue" d="M67.0319,-54.5054C81.9131,-60.8482 99.4752,-68.3337 114.979,-74.9418"/>
<polygon fill="midnightblue" stroke="midnightblue" points="68.2601,-51.2243 57.6885,-50.523 65.5154,-57.6638 68.2601,-51.2243"/>
</g>
<!-- Node3 -->
<g id="node5" class="node"><title>Node3</title>
<a xlink:href="../../da/d96/classproject_1_1_b_i___footprint.html#a5286d941e95a9eb4ca9aff66c02b25fe" target="_top" xlink:title="project::BI_Footprint\l::getPosition">
<polygon fill="white" stroke="black" points="102.5,-23 102.5,-57 207.5,-57 207.5,-23 102.5,-23"/>
<text text-anchor="start" x="110.5" y="-44" font-family="Helvetica,sans-Serif" font-size="10.00">project::BI_Footprint</text>
<text text-anchor="middle" x="155" y="-31" font-family="Helvetica,sans-Serif" font-size="10.00">::getPosition</text>
</a>
</g>
<!-- Node1&#45;&gt;Node3 -->
<g id="edge4" class="edge"><title>Node1&#45;&gt;Node3</title>
<path fill="none" stroke="midnightblue" d="M75.8521,-40C84.4371,-40 93.5497,-40 102.42,-40"/>
<polygon fill="midnightblue" stroke="midnightblue" points="75.6938,-36.5001 65.6938,-40 75.6937,-43.5001 75.6938,-36.5001"/>
</g>
<!-- Node4 -->
<g id="node7" class="node"><title>Node4</title>
<a xlink:href="../../db/dd3/classproject_1_1_b_e_s___select.html#a4a1156d123edf8ab83919f7bd13b4afa" target="_top" xlink:title="project::BES_Select\l::proccessIdleSceneRightClick">
<polygon fill="white" stroke="black" points="244,-0 244,-34 396,-34 396,-0 244,-0"/>
<text text-anchor="start" x="252" y="-21" font-family="Helvetica,sans-Serif" font-size="10.00">project::BES_Select</text>
<text text-anchor="middle" x="320" y="-8" font-family="Helvetica,sans-Serif" font-size="10.00">::proccessIdleSceneRightClick</text>
</a>
</g>
<!-- Node1&#45;&gt;Node4 -->
<g id="edge8" class="edge"><title>Node1&#45;&gt;Node4</title>
<path fill="none" stroke="midnightblue" d="M64.0713,-25.5735C75.707,-20.9034 89.2091,-16.3299 102,-14 148.641,-5.50419 201.826,-6.03979 243.988,-8.80308"/>
<polygon fill="midnightblue" stroke="midnightblue" points="62.6564,-22.3716 54.7929,-29.472 65.368,-28.8251 62.6564,-22.3716"/>
</g>
<!-- Node3&#45;&gt;Node4 -->
<g id="edge6" class="edge"><title>Node3&#45;&gt;Node4</title>
<path fill="none" stroke="midnightblue" d="M217.837,-31.2409C226.321,-30.0583 235.099,-28.8346 243.784,-27.624"/>
<polygon fill="midnightblue" stroke="midnightblue" points="217.082,-27.8123 207.661,-32.6594 218.048,-34.7452 217.082,-27.8123"/>
</g>
</g>
</svg>
