<?xml version="1.0" encoding="UTF-8" standalone="no"?>
<!DOCTYPE svg PUBLIC "-//W3C//DTD SVG 1.1//EN"
 "http://www.w3.org/Graphics/SVG/1.1/DTD/svg11.dtd">
<!-- Generated by graphviz version 2.26.3 (20100126.1600)
 -->
<!-- Title: getFootprint Pages: 1 -->
<svg width="448pt" height="174pt"
 viewBox="0.00 0.00 448.00 174.00" xmlns="http://www.w3.org/2000/svg" xmlns:xlink="http://www.w3.org/1999/xlink">
<g id="graph1" class="graph" transform="scale(1 1) rotate(0) translate(4 170)">
<title>getFootprint</title>
<polygon fill="white" stroke="white" points="-4,5 -4,-170 445,-170 445,5 -4,5"/>
<!-- Node1 -->
<g id="node1" class="node"><title>Node1</title>
<polygon fill="#bfbfbf" stroke="black" points="0,-63.5 0,-84.5 68,-84.5 68,-63.5 0,-63.5"/>
<text text-anchor="middle" x="34" y="-71.5" font-family="Helvetica,sans-Serif" font-size="10.00">getFootprint</text>
</g>
<!-- Node2 -->
<g id="node3" class="node"><title>Node2</title>
<a xlink:href="../../d5/d07/classproject_1_1_board.html#a262639fc1207769d33095d092cc2e068" target="_top" xlink:title="project::Board::getSelected\lItems">
<polygon fill="white" stroke="black" points="115.5,-132 115.5,-166 250.5,-166 250.5,-132 115.5,-132"/>
<text text-anchor="start" x="123.5" y="-153" font-family="Helvetica,sans-Serif" font-size="10.00">project::Board::getSelected</text>
<text text-anchor="middle" x="183" y="-140" font-family="Helvetica,sans-Serif" font-size="10.00">Items</text>
</a>
</g>
<!-- Node1&#45;&gt;Node2 -->
<g id="edge2" class="edge"><title>Node1&#45;&gt;Node2</title>
<path fill="none" stroke="midnightblue" d="M54.7663,-90.9716C68.1845,-101.305 86.3738,-114.172 104,-123 110.455,-126.233 117.402,-129.195 124.403,-131.869"/>
<polygon fill="midnightblue" stroke="midnightblue" points="56.7139,-88.0504 46.6915,-84.6148 52.3839,-93.5506 56.7139,-88.0504"/>
</g>
<!-- Node4 -->
<g id="node7" class="node"><title>Node4</title>
<a xlink:href="../../d5/d07/classproject_1_1_board.html#ae5be3f46f5e311d7c5c3b950ce60e3b1" target="_top" xlink:title="project::Board::getItems\lAtScenePos">
<polygon fill="white" stroke="black" points="122,-80 122,-114 244,-114 244,-80 122,-80"/>
<text text-anchor="start" x="130" y="-101" font-family="Helvetica,sans-Serif" font-size="10.00">project::Board::getItems</text>
<text text-anchor="middle" x="183" y="-88" font-family="Helvetica,sans-Serif" font-size="10.00">AtScenePos</text>
</a>
</g>
<!-- Node1&#45;&gt;Node4 -->
<g id="edge6" class="edge"><title>Node1&#45;&gt;Node4</title>
<path fill="none" stroke="midnightblue" d="M78.2646,-80.8328C91.9135,-82.9397 107.193,-85.2983 121.772,-87.5487"/>
<polygon fill="midnightblue" stroke="midnightblue" points="78.6005,-77.3433 68.1836,-79.2767 77.5326,-84.2613 78.6005,-77.3433"/>
</g>
<!-- Node5 -->
<g id="node9" class="node"><title>Node5</title>
<a xlink:href="../../d5/d07/classproject_1_1_board.html#a1e81bd3e07987e2b02f760b3d6d75c21" target="_top" xlink:title="project::Board::setSelectionRect">
<polygon fill="white" stroke="black" points="104,-40.5 104,-61.5 262,-61.5 262,-40.5 104,-40.5"/>
<text text-anchor="middle" x="183" y="-48.5" font-family="Helvetica,sans-Serif" font-size="10.00">project::Board::setSelectionRect</text>
</a>
</g>
<!-- Node1&#45;&gt;Node5 -->
<g id="edge8" class="edge"><title>Node1&#45;&gt;Node5</title>
<path fill="none" stroke="midnightblue" d="M78.3731,-67.1505C89.8637,-65.3767 102.504,-63.4255 114.906,-61.5111"/>
<polygon fill="midnightblue" stroke="midnightblue" points="77.5326,-63.7387 68.1836,-68.7233 78.6005,-70.6567 77.5326,-63.7387"/>
</g>
<!-- Node7 -->
<g id="node13" class="node"><title>Node7</title>
<a xlink:href="../../d5/d07/classproject_1_1_board.html#a8dd1dc788ad5d6d55d3833b0a0d31fbe" target="_top" xlink:title="project::Board::clearSelection">
<polygon fill="white" stroke="black" points="110.5,-0.5 110.5,-21.5 255.5,-21.5 255.5,-0.5 110.5,-0.5"/>
<text text-anchor="middle" x="183" y="-8.5" font-family="Helvetica,sans-Serif" font-size="10.00">project::Board::clearSelection</text>
</a>
</g>
<!-- Node1&#45;&gt;Node7 -->
<g id="edge12" class="edge"><title>Node1&#45;&gt;Node7</title>
<path fill="none" stroke="midnightblue" d="M56.7763,-57.561C70.0226,-48.6396 87.3451,-38.0299 104,-31 112.733,-27.3138 122.306,-24.1872 131.681,-21.5797"/>
<polygon fill="midnightblue" stroke="midnightblue" points="54.5559,-54.8409 48.3154,-63.4028 58.5331,-60.6012 54.5559,-54.8409"/>
</g>
<!-- Node3 -->
<g id="node5" class="node"><title>Node3</title>
<a xlink:href="../../db/dd3/classproject_1_1_b_e_s___select.html#a1f262c8e6a4c3d45093729fa34ec01e8" target="_top" xlink:title="project::BES_Select\l::rotateSelectedItems">
<polygon fill="white" stroke="black" points="314,-132 314,-166 424,-166 424,-132 314,-132"/>
<text text-anchor="start" x="322" y="-153" font-family="Helvetica,sans-Serif" font-size="10.00">project::BES_Select</text>
<text text-anchor="middle" x="369" y="-140" font-family="Helvetica,sans-Serif" font-size="10.00">::rotateSelectedItems</text>
</a>
</g>
<!-- Node2&#45;&gt;Node3 -->
<g id="edge4" class="edge"><title>Node2&#45;&gt;Node3</title>
<path fill="none" stroke="midnightblue" d="M261.028,-149C278.791,-149 297.303,-149 313.878,-149"/>
<polygon fill="midnightblue" stroke="midnightblue" points="260.676,-145.5 250.676,-149 260.676,-152.5 260.676,-145.5"/>
</g>
<!-- Node6 -->
<g id="node11" class="node"><title>Node6</title>
<a xlink:href="../../db/dd3/classproject_1_1_b_e_s___select.html#ab12d84cb06f265f00f6130fc5e801000" target="_top" xlink:title="project::BES_Select\l::processSubStateIdleScene\lEvent">
<polygon fill="white" stroke="black" points="298.5,-27.5 298.5,-74.5 439.5,-74.5 439.5,-27.5 298.5,-27.5"/>
<text text-anchor="start" x="306.5" y="-61.5" font-family="Helvetica,sans-Serif" font-size="10.00">project::BES_Select</text>
<text text-anchor="start" x="306.5" y="-48.5" font-family="Helvetica,sans-Serif" font-size="10.00">::processSubStateIdleScene</text>
<text text-anchor="middle" x="369" y="-35.5" font-family="Helvetica,sans-Serif" font-size="10.00">Event</text>
</a>
</g>
<!-- Node5&#45;&gt;Node6 -->
<g id="edge10" class="edge"><title>Node5&#45;&gt;Node6</title>
<path fill="none" stroke="midnightblue" d="M272.385,-51C281.137,-51 289.93,-51 298.457,-51"/>
<polygon fill="midnightblue" stroke="midnightblue" points="272.15,-47.5001 262.15,-51 272.15,-54.5001 272.15,-47.5001"/>
</g>
</g>
</svg>
