<?xml version="1.0" encoding="UTF-8" standalone="no"?>
<!DOCTYPE svg PUBLIC "-//W3C//DTD SVG 1.1//EN"
 "http://www.w3.org/Graphics/SVG/1.1/DTD/svg11.dtd">
<!-- Generated by graphviz version 2.26.3 (20100126.1600)
 -->
<!-- Title: /home/travis/build/LibrePCB/LibrePCB/libs/librepcbproject/schematics/cmd/cmdschematicnetpointedit.cpp Pages: 1 -->
<svg width="1003pt" height="662pt"
 viewBox="0.00 0.00 1003.00 662.00" xmlns="http://www.w3.org/2000/svg" xmlns:xlink="http://www.w3.org/1999/xlink">
<g id="graph1" class="graph" transform="scale(1 1) rotate(0) translate(4 658)">
<title>/home/travis/build/LibrePCB/LibrePCB/libs/librepcbproject/schematics/cmd/cmdschematicnetpointedit.cpp</title>
<polygon fill="white" stroke="white" points="-4,5 -4,-658 1000,-658 1000,5 -4,5"/>
<!-- Node1 -->
<g id="node1" class="node"><title>Node1</title>
<polygon fill="#bfbfbf" stroke="black" points="0,-593 0,-653 174,-653 174,-593 0,-593"/>
<text text-anchor="start" x="8" y="-640" font-family="Helvetica,sans-Serif" font-size="10.00">/home/travis/build</text>
<text text-anchor="start" x="8" y="-627" font-family="Helvetica,sans-Serif" font-size="10.00">/LibrePCB/LibrePCB/libs</text>
<text text-anchor="start" x="8" y="-614" font-family="Helvetica,sans-Serif" font-size="10.00">/librepcbproject/schematics</text>
<text text-anchor="middle" x="87" y="-601" font-family="Helvetica,sans-Serif" font-size="10.00">/cmd/cmdschematicnetpointedit.cpp</text>
</g>
<!-- Node2 -->
<g id="node3" class="node"><title>Node2</title>
<polygon fill="white" stroke="#bfbfbf" points="478,-0.5 478,-21.5 526,-21.5 526,-0.5 478,-0.5"/>
<text text-anchor="middle" x="502" y="-8.5" font-family="Helvetica,sans-Serif" font-size="10.00">QtCore</text>
</g>
<!-- Node1&#45;&gt;Node2 -->
<g id="edge2" class="edge"><title>Node1&#45;&gt;Node2</title>
<path fill="none" stroke="midnightblue" d="M59.7769,-592.802C37.9695,-565.414 11,-522.875 11,-480 11,-480 11,-480 11,-141 11,-99.8559 18.2298,-81.5034 52,-58 85.9409,-34.3778 368.522,-17.8163 467.732,-12.6829"/>
<polygon fill="midnightblue" stroke="midnightblue" points="468.017,-16.173 477.825,-12.1675 467.66,-9.18209 468.017,-16.173"/>
</g>
<!-- Node3 -->
<g id="node5" class="node"><title>Node3</title>
<a xlink:href="../../d9/d76/cmdschematicnetpointedit_8h.html" target="_top" xlink:title="cmdschematicnetpointedit.h">
<polygon fill="white" stroke="black" points="164.5,-267.5 164.5,-288.5 303.5,-288.5 303.5,-267.5 164.5,-267.5"/>
<text text-anchor="middle" x="234" y="-275.5" font-family="Helvetica,sans-Serif" font-size="10.00">cmdschematicnetpointedit.h</text>
</a>
</g>
<!-- Node1&#45;&gt;Node3 -->
<g id="edge4" class="edge"><title>Node1&#45;&gt;Node3</title>
<path fill="none" stroke="midnightblue" d="M87,-592.87C87,-563.931 87,-518.977 87,-480 87,-480 87,-480 87,-415 87,-354.548 154.353,-313.164 197.878,-292.732"/>
<polygon fill="midnightblue" stroke="midnightblue" points="199.379,-295.894 207.038,-288.573 196.485,-289.52 199.379,-295.894"/>
</g>
<!-- Node8 -->
<g id="node22" class="node"><title>Node8</title>
<a xlink:href="../../df/d11/si__netpoint_8h.html" target="_top" xlink:title="../items/si_netpoint.h">
<polygon fill="white" stroke="black" points="358,-534.5 358,-555.5 466,-555.5 466,-534.5 358,-534.5"/>
<text text-anchor="middle" x="412" y="-542.5" font-family="Helvetica,sans-Serif" font-size="10.00">../items/si_netpoint.h</text>
</a>
</g>
<!-- Node1&#45;&gt;Node8 -->
<g id="edge28" class="edge"><title>Node1&#45;&gt;Node8</title>
<path fill="none" stroke="midnightblue" d="M174.094,-602.097C232.671,-588.039 308.045,-569.949 358.087,-557.939"/>
<polygon fill="midnightblue" stroke="midnightblue" points="359.148,-561.284 368.056,-555.547 357.515,-554.477 359.148,-561.284"/>
</g>
<!-- Node3&#45;&gt;Node2 -->
<g id="edge6" class="edge"><title>Node3&#45;&gt;Node2</title>
<path fill="none" stroke="midnightblue" d="M219.52,-267.366C175.373,-233.725 49.1513,-127.728 111,-58 134.539,-31.4623 376.876,-17.0634 467.793,-12.5624"/>
<polygon fill="midnightblue" stroke="midnightblue" points="468.039,-16.0547 477.857,-12.0742 467.699,-9.06296 468.039,-16.0547"/>
</g>
<!-- Node4 -->
<g id="node8" class="node"><title>Node4</title>
<a xlink:href="../../dc/da0/undocommand_8h.html" target="_top" xlink:title="librepcbcommon/undocommand.h">
<polygon fill="white" stroke="black" points="152.5,-130.5 152.5,-151.5 315.5,-151.5 315.5,-130.5 152.5,-130.5"/>
<text text-anchor="middle" x="234" y="-138.5" font-family="Helvetica,sans-Serif" font-size="10.00">librepcbcommon/undocommand.h</text>
</a>
</g>
<!-- Node3&#45;&gt;Node4 -->
<g id="edge8" class="edge"><title>Node3&#45;&gt;Node4</title>
<path fill="none" stroke="midnightblue" d="M234,-267.25C234,-244.541 234,-191.348 234,-161.768"/>
<polygon fill="midnightblue" stroke="midnightblue" points="237.5,-161.7 234,-151.7 230.5,-161.7 237.5,-161.7"/>
</g>
<!-- Node5 -->
<g id="node11" class="node"><title>Node5</title>
<a xlink:href="../../d4/d03/exceptions_8h.html" target="_top" xlink:title="exceptions.h">
<polygon fill="white" stroke="black" points="498,-65.5 498,-86.5 570,-86.5 570,-65.5 498,-65.5"/>
<text text-anchor="middle" x="534" y="-73.5" font-family="Helvetica,sans-Serif" font-size="10.00">exceptions.h</text>
</a>
</g>
<!-- Node3&#45;&gt;Node5 -->
<g id="edge16" class="edge"><title>Node3&#45;&gt;Node5</title>
<path fill="none" stroke="midnightblue" d="M276.027,-267.454C310.261,-258.131 359.399,-243.06 400,-224 454.246,-198.534 478.579,-200.337 514,-152 525.86,-135.816 530.694,-113.145 532.66,-96.7819"/>
<polygon fill="midnightblue" stroke="midnightblue" points="536.164,-96.9016 533.615,-86.6182 529.195,-96.2472 536.164,-96.9016"/>
</g>
<!-- Node6 -->
<g id="node15" class="node"><title>Node6</title>
<a xlink:href="../../d2/d91/point_8h.html" target="_top" xlink:title="librepcbcommon/units\l/point.h">
<polygon fill="white" stroke="black" points="279,-189 279,-223 391,-223 391,-189 279,-189"/>
<text text-anchor="start" x="287" y="-210" font-family="Helvetica,sans-Serif" font-size="10.00">librepcbcommon/units</text>
<text text-anchor="middle" x="335" y="-197" font-family="Helvetica,sans-Serif" font-size="10.00">/point.h</text>
</a>
</g>
<!-- Node3&#45;&gt;Node6 -->
<g id="edge18" class="edge"><title>Node3&#45;&gt;Node6</title>
<path fill="none" stroke="midnightblue" d="M248.903,-267.376C262.955,-257.358 284.49,-242.007 302.507,-229.163"/>
<polygon fill="midnightblue" stroke="midnightblue" points="304.909,-231.749 311.02,-223.094 300.846,-226.049 304.909,-231.749"/>
</g>
<!-- Node4&#45;&gt;Node2 -->
<g id="edge10" class="edge"><title>Node4&#45;&gt;Node2</title>
<path fill="none" stroke="midnightblue" d="M243.116,-130.375C258.847,-112.71 292.896,-77.3352 329,-58 373.699,-34.0616 431.571,-21.5567 467.746,-15.628"/>
<polygon fill="midnightblue" stroke="midnightblue" points="468.45,-19.0605 477.791,-14.0599 467.371,-12.1443 468.45,-19.0605"/>
</g>
<!-- Node4&#45;&gt;Node5 -->
<g id="edge12" class="edge"><title>Node4&#45;&gt;Node5</title>
<path fill="none" stroke="midnightblue" d="M282.534,-130.484C339.204,-118.206 432.249,-98.0461 487.867,-85.9954"/>
<polygon fill="midnightblue" stroke="midnightblue" points="488.768,-89.3817 497.8,-83.8434 487.285,-82.5404 488.768,-89.3817"/>
</g>
<!-- Node5&#45;&gt;Node2 -->
<g id="edge14" class="edge"><title>Node5&#45;&gt;Node2</title>
<path fill="none" stroke="midnightblue" d="M528.716,-65.2666C524.103,-55.8959 517.29,-42.0573 511.699,-30.7004"/>
<polygon fill="midnightblue" stroke="midnightblue" points="514.743,-28.9595 507.186,-21.5337 508.463,-32.0513 514.743,-28.9595"/>
</g>
<!-- Node6&#45;&gt;Node2 -->
<g id="edge20" class="edge"><title>Node6&#45;&gt;Node2</title>
<path fill="none" stroke="midnightblue" d="M338.861,-188.761C342.962,-172.714 350.465,-148.55 362,-130 390.518,-84.1413 442.54,-46.8954 474.51,-26.9253"/>
<polygon fill="midnightblue" stroke="midnightblue" points="476.641,-29.7251 483.35,-21.5247 472.992,-23.7517 476.641,-29.7251"/>
</g>
<!-- Node7 -->
<g id="node18" class="node"><title>Node7</title>
<a xlink:href="../../dd/db9/length_8h.html" target="_top" xlink:title="length.h">
<polygon fill="white" stroke="black" points="370.5,-130.5 370.5,-151.5 421.5,-151.5 421.5,-130.5 370.5,-130.5"/>
<text text-anchor="middle" x="396" y="-138.5" font-family="Helvetica,sans-Serif" font-size="10.00">length.h</text>
</a>
</g>
<!-- Node6&#45;&gt;Node7 -->
<g id="edge22" class="edge"><title>Node6&#45;&gt;Node7</title>
<path fill="none" stroke="midnightblue" d="M351.027,-188.922C359.545,-179.845 370.024,-168.679 378.723,-159.41"/>
<polygon fill="midnightblue" stroke="midnightblue" points="381.525,-161.539 385.816,-151.852 376.42,-156.749 381.525,-161.539"/>
</g>
<!-- Node7&#45;&gt;Node2 -->
<g id="edge24" class="edge"><title>Node7&#45;&gt;Node2</title>
<path fill="none" stroke="midnightblue" d="M404.674,-130.362C422.688,-108.27 464.342,-57.1838 486.874,-29.5503"/>
<polygon fill="midnightblue" stroke="midnightblue" points="489.599,-31.7474 493.206,-21.7854 484.174,-27.3239 489.599,-31.7474"/>
</g>
<!-- Node7&#45;&gt;Node5 -->
<g id="edge26" class="edge"><title>Node7&#45;&gt;Node5</title>
<path fill="none" stroke="midnightblue" d="M418.479,-130.412C441.234,-119.694 476.624,-103.025 502.239,-90.9601"/>
<polygon fill="midnightblue" stroke="midnightblue" points="503.975,-94.011 511.53,-86.5835 500.992,-87.6783 503.975,-94.011"/>
</g>
<!-- Node8&#45;&gt;Node2 -->
<g id="edge30" class="edge"><title>Node8&#45;&gt;Node2</title>
<path fill="none" stroke="midnightblue" d="M357.655,-540.559C256.39,-528.999 49,-488.427 49,-350 49,-350 49,-350 49,-141 49,-99.8559 56.342,-81.6639 90,-58 120.693,-36.4208 374.602,-18.8199 467.836,-13.0275"/>
<polygon fill="midnightblue" stroke="midnightblue" points="468.111,-16.5174 477.877,-12.4109 467.682,-9.53051 468.111,-16.5174"/>
</g>
<!-- Node9 -->
<g id="node25" class="node"><title>Node9</title>
<a xlink:href="../../d6/d1f/si__base_8h.html" target="_top" xlink:title="si_base.h">
<polygon fill="white" stroke="black" points="349.5,-339.5 349.5,-360.5 408.5,-360.5 408.5,-339.5 349.5,-339.5"/>
<text text-anchor="middle" x="379" y="-347.5" font-family="Helvetica,sans-Serif" font-size="10.00">si_base.h</text>
</a>
</g>
<!-- Node8&#45;&gt;Node9 -->
<g id="edge32" class="edge"><title>Node8&#45;&gt;Node9</title>
<path fill="none" stroke="midnightblue" d="M410.179,-534.238C404.906,-503.082 389.56,-412.397 382.558,-371.022"/>
<polygon fill="midnightblue" stroke="midnightblue" points="385.976,-370.245 380.856,-360.969 379.074,-371.413 385.976,-370.245"/>
</g>
<!-- Node14 -->
<g id="node42" class="node"><title>Node14</title>
<a xlink:href="../../d0/d1d/if__xmlserializableobject_8h.html" target="_top" xlink:title="librepcbcommon/fileio\l/if_xmlserializableobject.h">
<polygon fill="white" stroke="black" points="452.5,-261 452.5,-295 581.5,-295 581.5,-261 452.5,-261"/>
<text text-anchor="start" x="460.5" y="-282" font-family="Helvetica,sans-Serif" font-size="10.00">librepcbcommon/fileio</text>
<text text-anchor="middle" x="517" y="-269" font-family="Helvetica,sans-Serif" font-size="10.00">/if_xmlserializableobject.h</text>
</a>
</g>
<!-- Node8&#45;&gt;Node14 -->
<g id="edge56" class="edge"><title>Node8&#45;&gt;Node14</title>
<path fill="none" stroke="midnightblue" d="M416.246,-534.203C431.52,-495.364 483.954,-362.032 506.527,-304.631"/>
<polygon fill="midnightblue" stroke="midnightblue" points="509.853,-305.737 510.256,-295.15 503.339,-303.175 509.853,-305.737"/>
</g>
<!-- Node15 -->
<g id="node45" class="node"><title>Node15</title>
<a xlink:href="../../da/dfb/if__ercmsgprovider_8h.html" target="_top" xlink:title="../../erc/if_ercmsgprovider.h">
<polygon fill="white" stroke="black" points="463.5,-469.5 463.5,-490.5 600.5,-490.5 600.5,-469.5 463.5,-469.5"/>
<text text-anchor="middle" x="532" y="-477.5" font-family="Helvetica,sans-Serif" font-size="10.00">../../erc/if_ercmsgprovider.h</text>
</a>
</g>
<!-- Node8&#45;&gt;Node15 -->
<g id="edge60" class="edge"><title>Node8&#45;&gt;Node15</title>
<path fill="none" stroke="midnightblue" d="M431.547,-534.412C451.073,-523.836 481.296,-507.465 503.494,-495.441"/>
<polygon fill="midnightblue" stroke="midnightblue" points="505.335,-498.424 512.461,-490.584 502.001,-492.269 505.335,-498.424"/>
</g>
<!-- Node16 -->
<g id="node47" class="node"><title>Node16</title>
<a xlink:href="../../d4/d34/sgi__netpoint_8h.html" target="_top" xlink:title="../graphicsitems/sgi\l_netpoint.h">
<polygon fill="white" stroke="black" points="714,-463 714,-497 816,-497 816,-463 714,-463"/>
<text text-anchor="start" x="722" y="-484" font-family="Helvetica,sans-Serif" font-size="10.00">../graphicsitems/sgi</text>
<text text-anchor="middle" x="765" y="-471" font-family="Helvetica,sans-Serif" font-size="10.00">_netpoint.h</text>
</a>
</g>
<!-- Node8&#45;&gt;Node16 -->
<g id="edge62" class="edge"><title>Node8&#45;&gt;Node16</title>
<path fill="none" stroke="midnightblue" d="M466.383,-534.986C530.583,-523.165 637.062,-503.558 704.01,-491.231"/>
<polygon fill="midnightblue" stroke="midnightblue" points="704.795,-494.645 713.996,-489.392 703.528,-487.76 704.795,-494.645"/>
</g>
<!-- Node9&#45;&gt;Node2 -->
<g id="edge34" class="edge"><title>Node9&#45;&gt;Node2</title>
<path fill="none" stroke="midnightblue" d="M349.459,-346.388C295.579,-339.244 184.283,-321.738 156,-296 124.71,-267.526 125,-248.306 125,-206 125,-206 125,-206 125,-141 125,-68.836 374.995,-27.996 467.833,-15.3176"/>
<polygon fill="midnightblue" stroke="midnightblue" points="468.397,-18.7735 477.843,-13.9771 467.467,-11.8355 468.397,-18.7735"/>
</g>
<!-- Node10 -->
<g id="node28" class="node"><title>Node10</title>
<polygon fill="white" stroke="#bfbfbf" points="809.5,-267.5 809.5,-288.5 872.5,-288.5 872.5,-267.5 809.5,-267.5"/>
<text text-anchor="middle" x="841" y="-275.5" font-family="Helvetica,sans-Serif" font-size="10.00">QtWidgets</text>
</g>
<!-- Node9&#45;&gt;Node10 -->
<g id="edge36" class="edge"><title>Node9&#45;&gt;Node10</title>
<path fill="none" stroke="midnightblue" d="M408.603,-345.387C488.186,-332.984 706.931,-298.894 799.139,-284.524"/>
<polygon fill="midnightblue" stroke="midnightblue" points="799.879,-287.951 809.221,-282.953 798.801,-281.034 799.879,-287.951"/>
</g>
<!-- Node11 -->
<g id="node30" class="node"><title>Node11</title>
<a xlink:href="../../d1/da8/all__length__units_8h.html" target="_top" xlink:title="librepcbcommon/units\l/all_length_units.h">
<polygon fill="white" stroke="black" points="323,-261 323,-295 435,-295 435,-261 323,-261"/>
<text text-anchor="start" x="331" y="-282" font-family="Helvetica,sans-Serif" font-size="10.00">librepcbcommon/units</text>
<text text-anchor="middle" x="379" y="-269" font-family="Helvetica,sans-Serif" font-size="10.00">/all_length_units.h</text>
</a>
</g>
<!-- Node9&#45;&gt;Node11 -->
<g id="edge38" class="edge"><title>Node9&#45;&gt;Node11</title>
<path fill="none" stroke="midnightblue" d="M379,-339.376C379,-330.451 379,-317.293 379,-305.446"/>
<polygon fill="midnightblue" stroke="midnightblue" points="382.5,-305.094 379,-295.094 375.5,-305.094 382.5,-305.094"/>
</g>
<!-- Node11&#45;&gt;Node6 -->
<g id="edge48" class="edge"><title>Node11&#45;&gt;Node6</title>
<path fill="none" stroke="midnightblue" d="M368.573,-260.937C363.334,-252.365 356.873,-241.791 351.021,-232.217"/>
<polygon fill="midnightblue" stroke="midnightblue" points="353.859,-230.148 345.658,-223.441 347.886,-233.799 353.859,-230.148"/>
</g>
<!-- Node11&#45;&gt;Node7 -->
<g id="edge46" class="edge"><title>Node11&#45;&gt;Node7</title>
<path fill="none" stroke="midnightblue" d="M387.502,-260.973C392.211,-250.577 397.589,-236.852 400,-224 403.949,-202.947 401.972,-178.395 399.614,-161.485"/>
<polygon fill="midnightblue" stroke="midnightblue" points="403.07,-160.929 398.069,-151.589 396.154,-162.01 403.07,-160.929"/>
</g>
<!-- Node12 -->
<g id="node32" class="node"><title>Node12</title>
<a xlink:href="../../d0/d09/lengthunit_8h.html" target="_top" xlink:title="lengthunit.h">
<polygon fill="white" stroke="black" points="438.5,-130.5 438.5,-151.5 505.5,-151.5 505.5,-130.5 438.5,-130.5"/>
<text text-anchor="middle" x="472" y="-138.5" font-family="Helvetica,sans-Serif" font-size="10.00">lengthunit.h</text>
</a>
</g>
<!-- Node11&#45;&gt;Node12 -->
<g id="edge40" class="edge"><title>Node11&#45;&gt;Node12</title>
<path fill="none" stroke="midnightblue" d="M390.59,-260.926C408.013,-235.26 440.844,-186.896 459.038,-160.095"/>
<polygon fill="midnightblue" stroke="midnightblue" points="462.093,-161.826 464.814,-151.586 456.301,-157.894 462.093,-161.826"/>
</g>
<!-- Node13 -->
<g id="node38" class="node"><title>Node13</title>
<a xlink:href="../../da/dac/angle_8h.html" target="_top" xlink:title="angle.h">
<polygon fill="white" stroke="black" points="637,-130.5 637,-151.5 685,-151.5 685,-130.5 637,-130.5"/>
<text text-anchor="middle" x="661" y="-138.5" font-family="Helvetica,sans-Serif" font-size="10.00">angle.h</text>
</a>
</g>
<!-- Node11&#45;&gt;Node13 -->
<g id="edge50" class="edge"><title>Node11&#45;&gt;Node13</title>
<path fill="none" stroke="midnightblue" d="M414.145,-260.926C469.743,-233.915 577.089,-181.765 629.99,-156.065"/>
<polygon fill="midnightblue" stroke="midnightblue" points="631.744,-159.104 639.209,-151.586 628.685,-152.808 631.744,-159.104"/>
</g>
<!-- Node12&#45;&gt;Node2 -->
<g id="edge42" class="edge"><title>Node12&#45;&gt;Node2</title>
<path fill="none" stroke="midnightblue" d="M473.92,-130.468C476.855,-114.658 482.777,-83.8855 489,-58 491.092,-49.3003 493.672,-39.7732 495.981,-31.5846"/>
<polygon fill="midnightblue" stroke="midnightblue" points="499.402,-32.3507 498.796,-21.7732 492.674,-30.42 499.402,-32.3507"/>
</g>
<!-- Node12&#45;&gt;Node5 -->
<g id="edge44" class="edge"><title>Node12&#45;&gt;Node5</title>
<path fill="none" stroke="midnightblue" d="M482.238,-130.267C491.628,-120.423 505.72,-105.648 516.831,-93.9996"/>
<polygon fill="midnightblue" stroke="midnightblue" points="519.583,-96.1856 523.952,-86.5337 514.518,-91.3541 519.583,-96.1856"/>
</g>
<!-- Node13&#45;&gt;Node2 -->
<g id="edge52" class="edge"><title>Node13&#45;&gt;Node2</title>
<path fill="none" stroke="midnightblue" d="M652.124,-130.487C637.798,-113.893 608.22,-81.1373 579,-58 564.053,-46.1644 545.91,-34.9572 530.99,-26.4571"/>
<polygon fill="midnightblue" stroke="midnightblue" points="532.611,-23.3539 522.174,-21.533 529.198,-29.4652 532.611,-23.3539"/>
</g>
<!-- Node13&#45;&gt;Node5 -->
<g id="edge54" class="edge"><title>Node13&#45;&gt;Node5</title>
<path fill="none" stroke="midnightblue" d="M640.313,-130.412C619.556,-119.788 587.376,-103.318 563.855,-91.28"/>
<polygon fill="midnightblue" stroke="midnightblue" points="565.175,-88.024 554.679,-86.5835 561.986,-94.2552 565.175,-88.024"/>
</g>
<!-- Node14&#45;&gt;Node5 -->
<g id="edge58" class="edge"><title>Node14&#45;&gt;Node5</title>
<path fill="none" stroke="midnightblue" d="M524.133,-260.832C534.7,-233.403 552.685,-177.903 547,-130 545.665,-118.749 542.817,-106.45 540.126,-96.435"/>
<polygon fill="midnightblue" stroke="midnightblue" points="543.439,-95.2901 537.346,-86.6224 536.704,-97.1977 543.439,-95.2901"/>
</g>
<!-- Node16&#45;&gt;Node2 -->
<g id="edge64" class="edge"><title>Node16&#45;&gt;Node2</title>
<path fill="none" stroke="midnightblue" d="M816.044,-473.887C883.804,-462.602 995,-431.644 995,-350 995,-350 995,-350 995,-141 995,-99.2482 985.604,-81.3614 951,-58 916.802,-34.9131 635.064,-18.0063 536.161,-12.7334"/>
<polygon fill="midnightblue" stroke="midnightblue" points="536.269,-9.23437 526.099,-12.2037 535.901,-16.2247 536.269,-9.23437"/>
</g>
<!-- Node16&#45;&gt;Node10 -->
<g id="edge66" class="edge"><title>Node16&#45;&gt;Node10</title>
<path fill="none" stroke="midnightblue" d="M759.264,-462.727C754.903,-447.279 750.239,-424.048 754,-404 760.331,-370.254 762.606,-360.333 782,-332 791.75,-317.756 805.944,-304.612 817.966,-294.859"/>
<polygon fill="midnightblue" stroke="midnightblue" points="820.145,-297.598 825.861,-288.677 815.829,-292.086 820.145,-297.598"/>
</g>
<!-- Node17 -->
<g id="node51" class="node"><title>Node17</title>
<a xlink:href="../../d4/d91/sgi__base_8h.html" target="_top" xlink:title="sgi_base.h">
<polygon fill="white" stroke="black" points="763,-404.5 763,-425.5 827,-425.5 827,-404.5 763,-404.5"/>
<text text-anchor="middle" x="795" y="-412.5" font-family="Helvetica,sans-Serif" font-size="10.00">sgi_base.h</text>
</a>
</g>
<!-- Node16&#45;&gt;Node17 -->
<g id="edge68" class="edge"><title>Node16&#45;&gt;Node17</title>
<path fill="none" stroke="midnightblue" d="M772.882,-462.922C776.818,-454.395 781.604,-444.025 785.716,-435.115"/>
<polygon fill="midnightblue" stroke="midnightblue" points="788.979,-436.398 789.991,-425.852 782.623,-433.465 788.979,-436.398"/>
</g>
<!-- Node17&#45;&gt;Node2 -->
<g id="edge70" class="edge"><title>Node17&#45;&gt;Node2</title>
<path fill="none" stroke="midnightblue" d="M827.223,-408.326C864.637,-399.931 923.132,-384.592 938,-368 965.283,-337.554 957,-318.882 957,-278 957,-278 957,-278 957,-141 957,-101.136 954.817,-82.0169 923,-58 892.338,-34.8547 631.266,-18.1812 536.331,-12.8339"/>
<polygon fill="midnightblue" stroke="midnightblue" points="536.297,-9.32673 526.118,-12.2664 535.909,-16.3159 536.297,-9.32673"/>
</g>
<!-- Node17&#45;&gt;Node10 -->
<g id="edge72" class="edge"><title>Node17&#45;&gt;Node10</title>
<path fill="none" stroke="midnightblue" d="M792.024,-404.341C788.052,-388.104 782.548,-356.482 792,-332 797.523,-317.695 808.789,-304.838 819.127,-295.261"/>
<polygon fill="midnightblue" stroke="midnightblue" points="821.514,-297.823 826.741,-288.607 816.908,-292.552 821.514,-297.823"/>
</g>
<!-- Node18 -->
<g id="node55" class="node"><title>Node18</title>
<a xlink:href="../../de/dd6/graphicsitem_8h.html" target="_top" xlink:title="librepcbcommon/graphics\l/graphicsitem.h">
<polygon fill="white" stroke="black" points="801,-333 801,-367 929,-367 929,-333 801,-333"/>
<text text-anchor="start" x="809" y="-354" font-family="Helvetica,sans-Serif" font-size="10.00">librepcbcommon/graphics</text>
<text text-anchor="middle" x="865" y="-341" font-family="Helvetica,sans-Serif" font-size="10.00">/graphicsitem.h</text>
</a>
</g>
<!-- Node17&#45;&gt;Node18 -->
<g id="edge74" class="edge"><title>Node17&#45;&gt;Node18</title>
<path fill="none" stroke="midnightblue" d="M806.559,-404.267C815.393,-396.063 827.915,-384.436 839.103,-374.047"/>
<polygon fill="midnightblue" stroke="midnightblue" points="841.628,-376.479 846.574,-367.11 836.864,-371.35 841.628,-376.479"/>
</g>
<!-- Node19 -->
<g id="node59" class="node"><title>Node19</title>
<a xlink:href="../../d1/d8d/schematic_8h.html" target="_top" xlink:title="../schematic.h">
<polygon fill="white" stroke="black" points="618.5,-339.5 618.5,-360.5 697.5,-360.5 697.5,-339.5 618.5,-339.5"/>
<text text-anchor="middle" x="658" y="-347.5" font-family="Helvetica,sans-Serif" font-size="10.00">../schematic.h</text>
</a>
</g>
<!-- Node17&#45;&gt;Node19 -->
<g id="edge80" class="edge"><title>Node17&#45;&gt;Node19</title>
<path fill="none" stroke="midnightblue" d="M772.684,-404.412C750.094,-393.694 714.96,-377.025 689.531,-364.96"/>
<polygon fill="midnightblue" stroke="midnightblue" points="690.842,-361.708 680.307,-360.584 687.841,-368.032 690.842,-361.708"/>
</g>
<!-- Node18&#45;&gt;Node2 -->
<g id="edge76" class="edge"><title>Node18&#45;&gt;Node2</title>
<path fill="none" stroke="midnightblue" d="M876.189,-332.607C892.006,-306.301 919,-254.327 919,-206 919,-206 919,-206 919,-141 919,-103.157 928.158,-83.283 900,-58 873.109,-33.8543 627.698,-17.9428 536.189,-12.8048"/>
<polygon fill="midnightblue" stroke="midnightblue" points="536.244,-9.30259 526.066,-12.2453 535.858,-16.2919 536.244,-9.30259"/>
</g>
<!-- Node18&#45;&gt;Node10 -->
<g id="edge78" class="edge"><title>Node18&#45;&gt;Node10</title>
<path fill="none" stroke="midnightblue" d="M859.312,-332.937C855.867,-322.601 851.451,-309.352 847.819,-298.456"/>
<polygon fill="midnightblue" stroke="midnightblue" points="851.116,-297.281 844.634,-288.901 844.476,-299.495 851.116,-297.281"/>
</g>
<!-- Node19&#45;&gt;Node2 -->
<g id="edge82" class="edge"><title>Node19&#45;&gt;Node2</title>
<path fill="none" stroke="midnightblue" d="M656.383,-339.33C652.804,-312.752 646.022,-241.859 666,-188 673.049,-168.995 687.422,-171.173 694,-152 697.173,-142.751 698.059,-138.895 694,-130 664.877,-66.1826 582.713,-33.4488 535.85,-19.5177"/>
<polygon fill="midnightblue" stroke="midnightblue" points="536.715,-16.1251 526.139,-16.75 534.796,-22.857 536.715,-16.1251"/>
</g>
<!-- Node19&#45;&gt;Node5 -->
<g id="edge98" class="edge"><title>Node19&#45;&gt;Node5</title>
<path fill="none" stroke="midnightblue" d="M652.942,-339.277C647.837,-328.406 639.761,-311.083 633,-296 600.105,-222.617 594.995,-202.88 561,-130 555.683,-118.601 549.418,-106.024 544.262,-95.8768"/>
<polygon fill="midnightblue" stroke="midnightblue" points="547.224,-93.9813 539.552,-86.6741 540.993,-97.1706 547.224,-93.9813"/>
</g>
<!-- Node19&#45;&gt;Node10 -->
<g id="edge84" class="edge"><title>Node19&#45;&gt;Node10</title>
<path fill="none" stroke="midnightblue" d="M685.255,-339.404C713.109,-328.56 757.604,-311.191 796,-296 799.051,-294.793 802.218,-293.536 805.393,-292.272"/>
<polygon fill="midnightblue" stroke="midnightblue" points="806.847,-295.46 814.838,-288.503 804.253,-288.958 806.847,-295.46"/>
</g>
<!-- Node19&#45;&gt;Node11 -->
<g id="edge92" class="edge"><title>Node19&#45;&gt;Node11</title>
<path fill="none" stroke="midnightblue" d="M618.488,-340.318C577.505,-330.212 511.321,-313.712 445.114,-296.269"/>
<polygon fill="midnightblue" stroke="midnightblue" points="445.911,-292.86 435.349,-293.689 444.123,-299.628 445.911,-292.86"/>
</g>
<!-- Node19&#45;&gt;Node14 -->
<g id="edge90" class="edge"><title>Node19&#45;&gt;Node14</title>
<path fill="none" stroke="midnightblue" d="M637.195,-339.376C616.864,-328.994 585.313,-312.883 559.638,-299.773"/>
<polygon fill="midnightblue" stroke="midnightblue" points="560.974,-296.525 550.476,-295.094 557.791,-302.759 560.974,-296.525"/>
</g>
<!-- Node20 -->
<g id="node63" class="node"><title>Node20</title>
<a xlink:href="../../da/d81/if__attributeprovider_8h.html" target="_top" xlink:title="librepcbcommon/if_attributeprovider.h">
<polygon fill="white" stroke="black" points="674.5,-195.5 674.5,-216.5 853.5,-216.5 853.5,-195.5 674.5,-195.5"/>
<text text-anchor="middle" x="764" y="-203.5" font-family="Helvetica,sans-Serif" font-size="10.00">librepcbcommon/if_attributeprovider.h</text>
</a>
</g>
<!-- Node19&#45;&gt;Node20 -->
<g id="edge86" class="edge"><title>Node19&#45;&gt;Node20</title>
<path fill="none" stroke="midnightblue" d="M665.967,-339.177C683.934,-314.769 727.786,-255.196 750.248,-224.683"/>
<polygon fill="midnightblue" stroke="midnightblue" points="753.119,-226.686 756.228,-216.558 747.481,-222.536 753.119,-226.686"/>
</g>
<!-- Node21 -->
<g id="node68" class="node"><title>Node21</title>
<a xlink:href="../../dd/dec/filepath_8h.html" target="_top" xlink:title="librepcbcommon/fileio\l/filepath.h">
<polygon fill="white" stroke="black" points="780.5,-59 780.5,-93 891.5,-93 891.5,-59 780.5,-59"/>
<text text-anchor="start" x="788.5" y="-80" font-family="Helvetica,sans-Serif" font-size="10.00">librepcbcommon/fileio</text>
<text text-anchor="middle" x="836" y="-67" font-family="Helvetica,sans-Serif" font-size="10.00">/filepath.h</text>
</a>
</g>
<!-- Node19&#45;&gt;Node21 -->
<g id="edge94" class="edge"><title>Node19&#45;&gt;Node21</title>
<path fill="none" stroke="midnightblue" d="M674.635,-339.314C701.202,-322.297 754.913,-288.094 801,-260 827.88,-243.614 846.39,-251.338 862,-224 883.828,-185.773 865.585,-133.639 850.612,-102.54"/>
<polygon fill="midnightblue" stroke="midnightblue" points="853.545,-100.583 845.92,-93.2264 847.293,-103.732 853.545,-100.583"/>
</g>
<!-- Node20&#45;&gt;Node2 -->
<g id="edge88" class="edge"><title>Node20&#45;&gt;Node2</title>
<path fill="none" stroke="midnightblue" d="M764.839,-195.2C766.319,-167.9 766.134,-95.6353 727,-58 700.114,-32.1435 592.502,-18.9865 536.408,-13.7701"/>
<polygon fill="midnightblue" stroke="midnightblue" points="536.512,-10.2655 526.24,-12.8592 535.888,-17.2376 536.512,-10.2655"/>
</g>
<!-- Node21&#45;&gt;Node2 -->
<g id="edge96" class="edge"><title>Node21&#45;&gt;Node2</title>
<path fill="none" stroke="midnightblue" d="M780.306,-61.2744C775.478,-60.1208 770.66,-59.0124 766,-58 684.03,-40.191 586.664,-24.1679 536.182,-16.2392"/>
<polygon fill="midnightblue" stroke="midnightblue" points="536.564,-12.7566 526.144,-14.6725 535.484,-19.6728 536.564,-12.7566"/>
</g>
</g>
</svg>
