<?xml version="1.0" encoding="UTF-8" standalone="no"?>
<!DOCTYPE svg PUBLIC "-//W3C//DTD SVG 1.1//EN"
 "http://www.w3.org/Graphics/SVG/1.1/DTD/svg11.dtd">
<!-- Generated by graphviz version 2.26.3 (20100126.1600)
 -->
<!-- Title: /home/travis/build/LibrePCB/LibrePCB/libs/librepcbcommon/moc/moc_schematiclayer.cpp Pages: 1 -->
<svg width="362pt" height="186pt"
 viewBox="0.00 0.00 362.00 186.00" xmlns="http://www.w3.org/2000/svg" xmlns:xlink="http://www.w3.org/1999/xlink">
<g id="graph1" class="graph" transform="scale(1 1) rotate(0) translate(4 182)">
<title>/home/travis/build/LibrePCB/LibrePCB/libs/librepcbcommon/moc/moc_schematiclayer.cpp</title>
<polygon fill="white" stroke="white" points="-4,5 -4,-182 359,-182 359,5 -4,5"/>
<!-- Node1 -->
<g id="node1" class="node"><title>Node1</title>
<polygon fill="#bfbfbf" stroke="black" points="113,-117 113,-177 247,-177 247,-117 113,-117"/>
<text text-anchor="start" x="121" y="-164" font-family="Helvetica,sans-Serif" font-size="10.00">/home/travis/build</text>
<text text-anchor="start" x="121" y="-151" font-family="Helvetica,sans-Serif" font-size="10.00">/LibrePCB/LibrePCB/libs</text>
<text text-anchor="start" x="121" y="-138" font-family="Helvetica,sans-Serif" font-size="10.00">/librepcbcommon/moc/moc</text>
<text text-anchor="middle" x="180" y="-125" font-family="Helvetica,sans-Serif" font-size="10.00">_schematiclayer.cpp</text>
</g>
<!-- Node2 -->
<g id="node3" class="node"><title>Node2</title>
<a xlink:href="../../d7/da2/schematiclayer_8h.html" target="_top" xlink:title="../schematiclayer.h">
<polygon fill="white" stroke="black" points="10,-58.5 10,-79.5 110,-79.5 110,-58.5 10,-58.5"/>
<text text-anchor="middle" x="60" y="-66.5" font-family="Helvetica,sans-Serif" font-size="10.00">../schematiclayer.h</text>
</a>
</g>
<!-- Node1&#45;&gt;Node2 -->
<g id="edge2" class="edge"><title>Node1&#45;&gt;Node2</title>
<path fill="none" stroke="midnightblue" d="M133.605,-116.843C117.05,-106.082 99.0356,-94.3732 84.9725,-85.2321"/>
<polygon fill="midnightblue" stroke="midnightblue" points="86.6485,-82.1471 76.3565,-79.6317 82.8335,-88.0162 86.6485,-82.1471"/>
</g>
<!-- Node5 -->
<g id="node9" class="node"><title>Node5</title>
<polygon fill="white" stroke="#bfbfbf" points="127.5,-58.5 127.5,-79.5 232.5,-79.5 232.5,-58.5 127.5,-58.5"/>
<text text-anchor="middle" x="180" y="-66.5" font-family="Helvetica,sans-Serif" font-size="10.00">QtCore/qbytearray.h</text>
</g>
<!-- Node1&#45;&gt;Node5 -->
<g id="edge8" class="edge"><title>Node1&#45;&gt;Node5</title>
<path fill="none" stroke="midnightblue" d="M180,-116.62C180,-107.68 180,-98.1035 180,-89.9002"/>
<polygon fill="midnightblue" stroke="midnightblue" points="183.5,-89.7534 180,-79.7535 176.5,-89.7535 183.5,-89.7534"/>
</g>
<!-- Node6 -->
<g id="node11" class="node"><title>Node6</title>
<polygon fill="white" stroke="#bfbfbf" points="249.5,-58.5 249.5,-79.5 354.5,-79.5 354.5,-58.5 249.5,-58.5"/>
<text text-anchor="middle" x="302" y="-66.5" font-family="Helvetica,sans-Serif" font-size="10.00">QtCore/qmetatype.h</text>
</g>
<!-- Node1&#45;&gt;Node6 -->
<g id="edge10" class="edge"><title>Node1&#45;&gt;Node6</title>
<path fill="none" stroke="midnightblue" d="M227.168,-116.843C244,-106.082 262.314,-94.3732 276.611,-85.2321"/>
<polygon fill="midnightblue" stroke="midnightblue" points="278.831,-87.9672 285.371,-79.6317 275.06,-82.0696 278.831,-87.9672"/>
</g>
<!-- Node3 -->
<g id="node5" class="node"><title>Node3</title>
<polygon fill="white" stroke="#bfbfbf" points="0,-0.5 0,-21.5 48,-21.5 48,-0.5 0,-0.5"/>
<text text-anchor="middle" x="24" y="-8.5" font-family="Helvetica,sans-Serif" font-size="10.00">QtCore</text>
</g>
<!-- Node2&#45;&gt;Node3 -->
<g id="edge4" class="edge"><title>Node2&#45;&gt;Node3</title>
<path fill="none" stroke="midnightblue" d="M53.397,-58.3619C48.5254,-50.5131 41.7616,-39.6159 35.95,-30.2527"/>
<polygon fill="midnightblue" stroke="midnightblue" points="38.8085,-28.2213 30.5611,-21.5707 32.861,-31.9129 38.8085,-28.2213"/>
</g>
<!-- Node4 -->
<g id="node7" class="node"><title>Node4</title>
<polygon fill="white" stroke="#bfbfbf" points="65.5,-0.5 65.5,-21.5 128.5,-21.5 128.5,-0.5 65.5,-0.5"/>
<text text-anchor="middle" x="97" y="-8.5" font-family="Helvetica,sans-Serif" font-size="10.00">QtWidgets</text>
</g>
<!-- Node2&#45;&gt;Node4 -->
<g id="edge6" class="edge"><title>Node2&#45;&gt;Node4</title>
<path fill="none" stroke="midnightblue" d="M66.7864,-58.3619C71.7934,-50.5131 78.745,-39.6159 84.7181,-30.2527"/>
<polygon fill="midnightblue" stroke="midnightblue" points="87.8292,-31.8837 90.2567,-21.5707 81.9277,-28.1189 87.8292,-31.8837"/>
</g>
</g>
</svg>
