<?xml version="1.0" encoding="UTF-8" standalone="no"?>
<!DOCTYPE svg PUBLIC "-//W3C//DTD SVG 1.1//EN"
 "http://www.w3.org/Graphics/SVG/1.1/DTD/svg11.dtd">
<!-- Generated by graphviz version 2.26.3 (20100126.1600)
 -->
<!-- Title: redo Pages: 1 -->
<svg width="534pt" height="204pt"
 viewBox="0.00 0.00 534.00 204.00" xmlns="http://www.w3.org/2000/svg" xmlns:xlink="http://www.w3.org/1999/xlink">
<g id="graph1" class="graph" transform="scale(1 1) rotate(0) translate(4 200)">
<title>redo</title>
<polygon fill="white" stroke="white" points="-4,5 -4,-200 531,-200 531,5 -4,5"/>
<!-- Node1 -->
<g id="node1" class="node"><title>Node1</title>
<polygon fill="#bfbfbf" stroke="black" points="0.5,-72.5 0.5,-93.5 35.5,-93.5 35.5,-72.5 0.5,-72.5"/>
<text text-anchor="middle" x="18" y="-80.5" font-family="Helvetica,sans-Serif" font-size="10.00">redo</text>
</g>
<!-- Node2 -->
<g id="node3" class="node"><title>Node2</title>
<a xlink:href="../../d2/d05/classproject_1_1_project.html#abb42aca60475f475ac2f0cd2ccbc5cb0" target="_top" xlink:title="Create a new board. ">
<polygon fill="white" stroke="black" points="79,-132 79,-166 195,-166 195,-132 79,-132"/>
<text text-anchor="start" x="87" y="-153" font-family="Helvetica,sans-Serif" font-size="10.00">project::Project::create</text>
<text text-anchor="middle" x="137" y="-140" font-family="Helvetica,sans-Serif" font-size="10.00">Board</text>
</a>
</g>
<!-- Node1&#45;&gt;Node2 -->
<g id="edge2" class="edge"><title>Node1&#45;&gt;Node2</title>
<path fill="none" stroke="midnightblue" d="M30.2476,-93.508C40.8055,-102.205 56.7184,-114.472 72,-123 74.8655,-124.599 77.8497,-126.15 80.8955,-127.646"/>
<polygon fill="midnightblue" stroke="midnightblue" points="79.618,-130.912 90.1612,-131.957 82.571,-124.565 79.618,-130.912"/>
</g>
<!-- Node5 -->
<g id="node9" class="node"><title>Node5</title>
<a xlink:href="../../d2/d05/classproject_1_1_project.html#aa39cf6c93724b2ef314b1f05dd48d3d0" target="_top" xlink:title="Add an existing board to this project. ">
<polygon fill="white" stroke="black" points="72,-92.5 72,-113.5 202,-113.5 202,-92.5 72,-92.5"/>
<text text-anchor="middle" x="137" y="-100.5" font-family="Helvetica,sans-Serif" font-size="10.00">project::Project::addBoard</text>
</a>
</g>
<!-- Node1&#45;&gt;Node5 -->
<g id="edge8" class="edge"><title>Node1&#45;&gt;Node5</title>
<path fill="none" stroke="midnightblue" d="M35.5589,-85.9511C43.5777,-87.2988 53.6645,-88.994 64.3467,-90.7894"/>
<polygon fill="midnightblue" stroke="midnightblue" points="63.8402,-94.2532 74.282,-92.4592 65.0004,-87.3501 63.8402,-94.2532"/>
</g>
<!-- Node6 -->
<g id="node11" class="node"><title>Node6</title>
<a xlink:href="../../d3/d26/class_undo_command.html#a93c48d6ed036e1a381be53ac67643284" target="_top" xlink:title="Redo/execute the command (and all child commands in normal order) ">
<polygon fill="white" stroke="black" points="82,-52.5 82,-73.5 192,-73.5 192,-52.5 82,-52.5"/>
<text text-anchor="middle" x="137" y="-60.5" font-family="Helvetica,sans-Serif" font-size="10.00">UndoCommand::redo</text>
</a>
</g>
<!-- Node1&#45;&gt;Node6 -->
<g id="edge10" class="edge"><title>Node1&#45;&gt;Node6</title>
<path fill="none" stroke="midnightblue" d="M35.5589,-80.0489C45.3991,-78.3951 58.3533,-76.2179 71.7005,-73.9747"/>
<polygon fill="midnightblue" stroke="midnightblue" points="72.6571,-77.3631 81.9387,-72.254 71.4969,-70.4599 72.6571,-77.3631"/>
</g>
<!-- Node9 -->
<g id="node19" class="node"><title>Node9</title>
<a xlink:href="../../d2/d05/classproject_1_1_project.html#a8db71351b6b822ce717872fb84dff1eb" target="_top" xlink:title="Remove a board from this project. ">
<polygon fill="white" stroke="black" points="76.5,-0 76.5,-34 197.5,-34 197.5,-0 76.5,-0"/>
<text text-anchor="start" x="84.5" y="-21" font-family="Helvetica,sans-Serif" font-size="10.00">project::Project::remove</text>
<text text-anchor="middle" x="137" y="-8" font-family="Helvetica,sans-Serif" font-size="10.00">Board</text>
</a>
</g>
<!-- Node1&#45;&gt;Node9 -->
<g id="edge20" class="edge"><title>Node1&#45;&gt;Node9</title>
<path fill="none" stroke="midnightblue" d="M30.2476,-72.492C40.8055,-63.7955 56.7184,-51.5284 72,-43 74.8655,-41.4008 77.8497,-39.8497 80.8955,-38.3544"/>
<polygon fill="midnightblue" stroke="midnightblue" points="82.571,-41.4352 90.1612,-34.0433 79.618,-35.0885 82.571,-41.4352"/>
</g>
<!-- Node3 -->
<g id="node5" class="node"><title>Node3</title>
<a xlink:href="../../d4/d1c/class_file_path.html#a2c6594f7da9797cf10468c08338cbefd" target="_top" xlink:title="Get the filepath to a file or directory which is relative to this filepath. ">
<polygon fill="white" stroke="black" points="242,-174.5 242,-195.5 346,-195.5 346,-174.5 242,-174.5"/>
<text text-anchor="middle" x="294" y="-182.5" font-family="Helvetica,sans-Serif" font-size="10.00">FilePath::getPathTo</text>
</a>
</g>
<!-- Node2&#45;&gt;Node3 -->
<g id="edge4" class="edge"><title>Node2&#45;&gt;Node3</title>
<path fill="none" stroke="midnightblue" d="M195.015,-162.303C209.073,-165.526 224.073,-168.966 238.035,-172.167"/>
<polygon fill="midnightblue" stroke="midnightblue" points="237.459,-175.626 247.989,-174.45 239.024,-168.803 237.459,-175.626"/>
</g>
<!-- Node4 -->
<g id="node7" class="node"><title>Node4</title>
<a xlink:href="../../d5/d07/classproject_1_1_board.html#a7379f6fc841e4fb650bca7e58c0b5e1e" target="_top" xlink:title="project::Board::create">
<polygon fill="white" stroke="black" points="239,-134.5 239,-155.5 349,-155.5 349,-134.5 239,-134.5"/>
<text text-anchor="middle" x="294" y="-142.5" font-family="Helvetica,sans-Serif" font-size="10.00">project::Board::create</text>
</a>
</g>
<!-- Node2&#45;&gt;Node4 -->
<g id="edge6" class="edge"><title>Node2&#45;&gt;Node4</title>
<path fill="none" stroke="midnightblue" d="M195.015,-147.522C205.983,-147.242 217.524,-146.948 228.699,-146.664"/>
<polygon fill="midnightblue" stroke="midnightblue" points="228.923,-150.159 238.831,-146.406 228.745,-143.162 228.923,-150.159"/>
</g>
<!-- Node7 -->
<g id="node13" class="node"><title>Node7</title>
<a xlink:href="../../d3/d26/class_undo_command.html#ae57d776a4010cbabb44c03d9ac6514eb" target="_top" xlink:title="This method shows whether that command is executed (redo() called one time more than undo()) ...">
<polygon fill="white" stroke="black" points="386,-71.5 386,-92.5 526,-92.5 526,-71.5 386,-71.5"/>
<text text-anchor="middle" x="456" y="-79.5" font-family="Helvetica,sans-Serif" font-size="10.00">UndoCommand::isExecuted</text>
</a>
</g>
<!-- Node6&#45;&gt;Node7 -->
<g id="edge12" class="edge"><title>Node6&#45;&gt;Node7</title>
<path fill="none" stroke="midnightblue" d="M180.471,-73.5419C198.197,-77.3333 218.965,-81.1335 238,-83 283.315,-87.4435 334.183,-87.4898 375.378,-86.2904"/>
<polygon fill="midnightblue" stroke="midnightblue" points="375.751,-89.7803 385.633,-85.9606 375.526,-82.7839 375.751,-89.7803"/>
</g>
<!-- Node8 -->
<g id="node15" class="node"><title>Node8</title>
<a xlink:href="../../d3/d26/class_undo_command.html#a0e1e7804a53f6d62efc72c9bdbec8571" target="_top" xlink:title="Undo the command (and all child commands in reverse order) ">
<polygon fill="white" stroke="black" points="238,-52.5 238,-73.5 350,-73.5 350,-52.5 238,-52.5"/>
<text text-anchor="middle" x="294" y="-60.5" font-family="Helvetica,sans-Serif" font-size="10.00">UndoCommand::undo</text>
</a>
</g>
<!-- Node6&#45;&gt;Node8 -->
<g id="edge14" class="edge"><title>Node6&#45;&gt;Node8</title>
<path fill="none" stroke="midnightblue" d="M192.352,-56.5179C203.755,-56.2467 215.874,-56.1814 227.622,-56.322"/>
<polygon fill="midnightblue" stroke="midnightblue" points="227.763,-59.8249 237.823,-56.4987 227.885,-52.826 227.763,-59.8249"/>
</g>
<!-- Node8&#45;&gt;Node6 -->
<g id="edge18" class="edge"><title>Node8&#45;&gt;Node6</title>
<path fill="none" stroke="midnightblue" d="M237.823,-69.5013C226.386,-69.7626 214.259,-69.818 202.53,-69.6674"/>
<polygon fill="midnightblue" stroke="midnightblue" points="202.414,-66.1648 192.352,-69.4821 202.287,-73.1637 202.414,-66.1648"/>
</g>
<!-- Node8&#45;&gt;Node7 -->
<g id="edge16" class="edge"><title>Node8&#45;&gt;Node7</title>
<path fill="none" stroke="midnightblue" d="M350.205,-69.592C358.481,-70.5626 367.14,-71.5781 375.786,-72.5922"/>
<polygon fill="midnightblue" stroke="midnightblue" points="375.567,-76.0904 385.907,-73.7792 376.383,-69.1381 375.567,-76.0904"/>
</g>
</g>
</svg>
