<?xml version="1.0" encoding="UTF-8" standalone="no"?>
<!DOCTYPE svg PUBLIC "-//W3C//DTD SVG 1.1//EN"
 "http://www.w3.org/Graphics/SVG/1.1/DTD/svg11.dtd">
<!-- Generated by graphviz version 2.26.3 (20100126.1600)
 -->
<!-- Title: getDescription Pages: 1 -->
<svg width="1068pt" height="123pt"
 viewBox="0.00 0.00 1068.00 123.00" xmlns="http://www.w3.org/2000/svg" xmlns:xlink="http://www.w3.org/1999/xlink">
<g id="graph1" class="graph" transform="scale(1 1) rotate(0) translate(4 119)">
<title>getDescription</title>
<polygon fill="white" stroke="white" points="-4,5 -4,-119 1065,-119 1065,5 -4,5"/>
<!-- Node1 -->
<g id="node1" class="node"><title>Node1</title>
<polygon fill="#bfbfbf" stroke="black" points="0,-61.5 0,-82.5 80,-82.5 80,-61.5 0,-61.5"/>
<text text-anchor="middle" x="40" y="-69.5" font-family="Helvetica,sans-Serif" font-size="10.00">getDescription</text>
</g>
<!-- Node2 -->
<g id="node3" class="node"><title>Node2</title>
<a xlink:href="../../d1/d92/classproject_1_1_add_gen_comp_dialog.html#adfcb4e9c07721bf39ddcb34d2e39e61c" target="_top" xlink:title="project::AddGenCompDialog\l::setSelectedSymbVar">
<polygon fill="white" stroke="black" points="116.5,-55 116.5,-89 257.5,-89 257.5,-55 116.5,-55"/>
<text text-anchor="start" x="124.5" y="-76" font-family="Helvetica,sans-Serif" font-size="10.00">project::AddGenCompDialog</text>
<text text-anchor="middle" x="187" y="-63" font-family="Helvetica,sans-Serif" font-size="10.00">::setSelectedSymbVar</text>
</a>
</g>
<!-- Node1&#45;&gt;Node2 -->
<g id="edge2" class="edge"><title>Node1&#45;&gt;Node2</title>
<path fill="none" stroke="midnightblue" d="M90.1944,-72C98.6277,-72 107.518,-72 116.353,-72"/>
<polygon fill="midnightblue" stroke="midnightblue" points="90.1684,-68.5001 80.1684,-72 90.1684,-75.5001 90.1684,-68.5001"/>
</g>
<!-- Node3 -->
<g id="node5" class="node"><title>Node3</title>
<a xlink:href="../../d1/d92/classproject_1_1_add_gen_comp_dialog.html#a59cdf065c69c12551c2043dfe0891ff1" target="_top" xlink:title="project::AddGenCompDialog\l::on_cbxSymbVar_currentIndexChanged">
<polygon fill="white" stroke="black" points="294.5,-81 294.5,-115 487.5,-115 487.5,-81 294.5,-81"/>
<text text-anchor="start" x="302.5" y="-102" font-family="Helvetica,sans-Serif" font-size="10.00">project::AddGenCompDialog</text>
<text text-anchor="middle" x="391" y="-89" font-family="Helvetica,sans-Serif" font-size="10.00">::on_cbxSymbVar_currentIndexChanged</text>
</a>
</g>
<!-- Node2&#45;&gt;Node3 -->
<g id="edge4" class="edge"><title>Node2&#45;&gt;Node3</title>
<path fill="none" stroke="midnightblue" d="M267.909,-82.312C276.639,-83.4246 285.584,-84.5646 294.473,-85.6976"/>
<polygon fill="midnightblue" stroke="midnightblue" points="268.139,-78.813 257.777,-81.0206 267.254,-85.7569 268.139,-78.813"/>
</g>
<!-- Node4 -->
<g id="node7" class="node"><title>Node4</title>
<a xlink:href="../../d1/d92/classproject_1_1_add_gen_comp_dialog.html#abf6af5dc67073d848d5cf561412d4b27" target="_top" xlink:title="project::AddGenCompDialog\l::setSelectedGenComp">
<polygon fill="white" stroke="black" points="320.5,-29 320.5,-63 461.5,-63 461.5,-29 320.5,-29"/>
<text text-anchor="start" x="328.5" y="-50" font-family="Helvetica,sans-Serif" font-size="10.00">project::AddGenCompDialog</text>
<text text-anchor="middle" x="391" y="-37" font-family="Helvetica,sans-Serif" font-size="10.00">::setSelectedGenComp</text>
</a>
</g>
<!-- Node2&#45;&gt;Node4 -->
<g id="edge6" class="edge"><title>Node2&#45;&gt;Node4</title>
<path fill="none" stroke="midnightblue" d="M267.876,-61.6923C285.224,-59.4813 303.424,-57.1617 320.348,-55.0046"/>
<polygon fill="midnightblue" stroke="midnightblue" points="267.254,-58.2431 257.777,-62.9794 268.139,-65.187 267.254,-58.2431"/>
</g>
<!-- Node5 -->
<g id="node9" class="node"><title>Node5</title>
<a xlink:href="../../d1/d92/classproject_1_1_add_gen_comp_dialog.html#a5951d1d20ef2d9675b3b1690d6799fa7" target="_top" xlink:title="project::AddGenCompDialog\l::on_listGenericComponents\l_currentItemChanged">
<polygon fill="white" stroke="black" points="524.5,-52.5 524.5,-99.5 665.5,-99.5 665.5,-52.5 524.5,-52.5"/>
<text text-anchor="start" x="532.5" y="-86.5" font-family="Helvetica,sans-Serif" font-size="10.00">project::AddGenCompDialog</text>
<text text-anchor="start" x="532.5" y="-73.5" font-family="Helvetica,sans-Serif" font-size="10.00">::on_listGenericComponents</text>
<text text-anchor="middle" x="595" y="-60.5" font-family="Helvetica,sans-Serif" font-size="10.00">_currentItemChanged</text>
</a>
</g>
<!-- Node4&#45;&gt;Node5 -->
<g id="edge8" class="edge"><title>Node4&#45;&gt;Node5</title>
<path fill="none" stroke="midnightblue" d="M471.876,-57.8935C489.224,-60.4447 507.424,-63.1211 524.348,-65.61"/>
<polygon fill="midnightblue" stroke="midnightblue" points="472.18,-54.4006 461.777,-56.4084 471.161,-61.3261 472.18,-54.4006"/>
</g>
<!-- Node6 -->
<g id="node11" class="node"><title>Node6</title>
<a xlink:href="../../d1/d92/classproject_1_1_add_gen_comp_dialog.html#ae968bf4d25607bdad3eb848014d999da" target="_top" xlink:title="project::AddGenCompDialog\l::setSelectedCategory">
<polygon fill="white" stroke="black" points="524.5,-0 524.5,-34 665.5,-34 665.5,-0 524.5,-0"/>
<text text-anchor="start" x="532.5" y="-21" font-family="Helvetica,sans-Serif" font-size="10.00">project::AddGenCompDialog</text>
<text text-anchor="middle" x="595" y="-8" font-family="Helvetica,sans-Serif" font-size="10.00">::setSelectedCategory</text>
</a>
</g>
<!-- Node4&#45;&gt;Node6 -->
<g id="edge10" class="edge"><title>Node4&#45;&gt;Node6</title>
<path fill="none" stroke="midnightblue" d="M471.876,-34.5029C489.224,-32.0368 507.424,-29.4496 524.348,-27.0436"/>
<polygon fill="midnightblue" stroke="midnightblue" points="471.185,-31.0659 461.777,-35.9386 472.17,-37.9963 471.185,-31.0659"/>
</g>
<!-- Node7 -->
<g id="node13" class="node"><title>Node7</title>
<a xlink:href="../../d1/d92/classproject_1_1_add_gen_comp_dialog.html#ab30df3fcf42614694068294b48161b00" target="_top" xlink:title="project::AddGenCompDialog\l::treeCategories_currentItemChanged">
<polygon fill="white" stroke="black" points="702,-0 702,-34 882,-34 882,-0 702,-0"/>
<text text-anchor="start" x="710" y="-21" font-family="Helvetica,sans-Serif" font-size="10.00">project::AddGenCompDialog</text>
<text text-anchor="middle" x="792" y="-8" font-family="Helvetica,sans-Serif" font-size="10.00">::treeCategories_currentItemChanged</text>
</a>
</g>
<!-- Node6&#45;&gt;Node7 -->
<g id="edge12" class="edge"><title>Node6&#45;&gt;Node7</title>
<path fill="none" stroke="midnightblue" d="M675.654,-17C684.338,-17 693.213,-17 701.998,-17"/>
<polygon fill="midnightblue" stroke="midnightblue" points="675.565,-13.5001 665.565,-17 675.565,-20.5001 675.565,-13.5001"/>
</g>
<!-- Node8 -->
<g id="node15" class="node"><title>Node8</title>
<a xlink:href="../../d1/d92/classproject_1_1_add_gen_comp_dialog.html#a158bc6ffa6ab14d062e57c57929a197f" target="_top" xlink:title="project::AddGenCompDialog\l::AddGenCompDialog">
<polygon fill="white" stroke="black" points="918.5,-0 918.5,-34 1059.5,-34 1059.5,-0 918.5,-0"/>
<text text-anchor="start" x="926.5" y="-21" font-family="Helvetica,sans-Serif" font-size="10.00">project::AddGenCompDialog</text>
<text text-anchor="middle" x="989" y="-8" font-family="Helvetica,sans-Serif" font-size="10.00">::AddGenCompDialog</text>
</a>
</g>
<!-- Node7&#45;&gt;Node8 -->
<g id="edge14" class="edge"><title>Node7&#45;&gt;Node8</title>
<path fill="none" stroke="midnightblue" d="M892.422,-17C901.187,-17 909.932,-17 918.378,-17"/>
<polygon fill="midnightblue" stroke="midnightblue" points="892.14,-13.5001 882.14,-17 892.14,-20.5001 892.14,-13.5001"/>
</g>
</g>
</svg>
