<?xml version="1.0" encoding="UTF-8" standalone="no"?>
<!DOCTYPE svg PUBLIC "-//W3C//DTD SVG 1.1//EN"
 "http://www.w3.org/Graphics/SVG/1.1/DTD/svg11.dtd">
<!-- Generated by graphviz version 2.26.3 (20100126.1600)
 -->
<!-- Title: /home/travis/build/LibrePCB/LibrePCB/libs/librepcblibraryeditor/libraryeditor.h Pages: 1 -->
<svg width="265pt" height="186pt"
 viewBox="0.00 0.00 265.00 186.00" xmlns="http://www.w3.org/2000/svg" xmlns:xlink="http://www.w3.org/1999/xlink">
<g id="graph1" class="graph" transform="scale(1 1) rotate(0) translate(4 182)">
<title>/home/travis/build/LibrePCB/LibrePCB/libs/librepcblibraryeditor/libraryeditor.h</title>
<polygon fill="white" stroke="white" points="-4,5 -4,-182 262,-182 262,5 -4,5"/>
<!-- Node1 -->
<g id="node1" class="node"><title>Node1</title>
<polygon fill="#bfbfbf" stroke="black" points="-0.5,-117 -0.5,-177 124.5,-177 124.5,-117 -0.5,-117"/>
<text text-anchor="start" x="7.5" y="-164" font-family="Helvetica,sans-Serif" font-size="10.00">/home/travis/build</text>
<text text-anchor="start" x="7.5" y="-151" font-family="Helvetica,sans-Serif" font-size="10.00">/LibrePCB/LibrePCB/libs</text>
<text text-anchor="start" x="7.5" y="-138" font-family="Helvetica,sans-Serif" font-size="10.00">/librepcblibraryeditor</text>
<text text-anchor="middle" x="62" y="-125" font-family="Helvetica,sans-Serif" font-size="10.00">/libraryeditor.h</text>
</g>
<!-- Node2 -->
<g id="node3" class="node"><title>Node2</title>
<polygon fill="white" stroke="#bfbfbf" points="69,-0.5 69,-21.5 117,-21.5 117,-0.5 69,-0.5"/>
<text text-anchor="middle" x="93" y="-8.5" font-family="Helvetica,sans-Serif" font-size="10.00">QtCore</text>
</g>
<!-- Node1&#45;&gt;Node2 -->
<g id="edge2" class="edge"><title>Node1&#45;&gt;Node2</title>
<path fill="none" stroke="midnightblue" d="M34.303,-116.826C21.7374,-99.3511 11.7374,-77.1011 22,-58 30.0924,-42.9383 45.3658,-31.8924 59.6794,-24.3081"/>
<polygon fill="midnightblue" stroke="midnightblue" points="61.4167,-27.3547 68.8618,-19.8167 58.3409,-21.0666 61.4167,-27.3547"/>
</g>
<!-- Node3 -->
<g id="node5" class="node"><title>Node3</title>
<polygon fill="white" stroke="#bfbfbf" points="30.5,-58.5 30.5,-79.5 93.5,-79.5 93.5,-58.5 30.5,-58.5"/>
<text text-anchor="middle" x="62" y="-66.5" font-family="Helvetica,sans-Serif" font-size="10.00">QtWidgets</text>
</g>
<!-- Node1&#45;&gt;Node3 -->
<g id="edge4" class="edge"><title>Node1&#45;&gt;Node3</title>
<path fill="none" stroke="midnightblue" d="M62,-116.62C62,-107.68 62,-98.1035 62,-89.9002"/>
<polygon fill="midnightblue" stroke="midnightblue" points="65.5001,-89.7534 62,-79.7535 58.5001,-89.7535 65.5001,-89.7534"/>
</g>
<!-- Node4 -->
<g id="node7" class="node"><title>Node4</title>
<a xlink:href="../../d4/d03/exceptions_8h.html" target="_top" xlink:title="librepcbcommon/exceptions.h">
<polygon fill="white" stroke="black" points="111,-58.5 111,-79.5 257,-79.5 257,-58.5 111,-58.5"/>
<text text-anchor="middle" x="184" y="-66.5" font-family="Helvetica,sans-Serif" font-size="10.00">librepcbcommon/exceptions.h</text>
</a>
</g>
<!-- Node1&#45;&gt;Node4 -->
<g id="edge6" class="edge"><title>Node1&#45;&gt;Node4</title>
<path fill="none" stroke="midnightblue" d="M109.168,-116.843C126,-106.082 144.314,-94.3732 158.611,-85.2321"/>
<polygon fill="midnightblue" stroke="midnightblue" points="160.831,-87.9672 167.371,-79.6317 157.06,-82.0696 160.831,-87.9672"/>
</g>
<!-- Node4&#45;&gt;Node2 -->
<g id="edge8" class="edge"><title>Node4&#45;&gt;Node2</title>
<path fill="none" stroke="midnightblue" d="M167.309,-58.3619C153.584,-49.6138 133.916,-37.0786 118.263,-27.1015"/>
<polygon fill="midnightblue" stroke="midnightblue" points="119.899,-23.994 109.585,-21.5707 116.137,-29.8969 119.899,-23.994"/>
</g>
</g>
</svg>
