<?xml version="1.0" encoding="UTF-8" standalone="no"?>
<!DOCTYPE svg PUBLIC "-//W3C//DTD SVG 1.1//EN"
 "http://www.w3.org/Graphics/SVG/1.1/DTD/svg11.dtd">
<!-- Generated by graphviz version 2.26.3 (20100126.1600)
 -->
<!-- Title: updateCacheAndRepaint Pages: 1 -->
<svg width="650pt" height="976pt"
 viewBox="0.00 0.00 650.00 976.00" xmlns="http://www.w3.org/2000/svg" xmlns:xlink="http://www.w3.org/1999/xlink">
<g id="graph1" class="graph" transform="scale(1 1) rotate(0) translate(4 972)">
<title>updateCacheAndRepaint</title>
<polygon fill="white" stroke="white" points="-4,5 -4,-972 647,-972 647,5 -4,5"/>
<!-- Node1 -->
<g id="node1" class="node"><title>Node1</title>
<polygon fill="#bfbfbf" stroke="black" points="0.5,-412.5 0.5,-433.5 125.5,-433.5 125.5,-412.5 0.5,-412.5"/>
<text text-anchor="middle" x="63" y="-420.5" font-family="Helvetica,sans-Serif" font-size="10.00">updateCacheAndRepaint</text>
</g>
<!-- Node2 -->
<g id="node3" class="node"><title>Node2</title>
<a xlink:href="../../d8/dea/classlibrary_1_1_footprint.html#a9c943945df1aedef5ac24c7d41605c1d" target="_top" xlink:title="library::Footprint\l::getPolygons">
<polygon fill="white" stroke="black" points="197.5,-934 197.5,-968 284.5,-968 284.5,-934 197.5,-934"/>
<text text-anchor="start" x="205.5" y="-955" font-family="Helvetica,sans-Serif" font-size="10.00">library::Footprint</text>
<text text-anchor="middle" x="241" y="-942" font-family="Helvetica,sans-Serif" font-size="10.00">::getPolygons</text>
</a>
</g>
<!-- Node1&#45;&gt;Node2 -->
<g id="edge2" class="edge"><title>Node1&#45;&gt;Node2</title>
<path fill="none" stroke="midnightblue" d="M63.751,-433.639C68.534,-498.628 96.6494,-841.897 162,-920 168.807,-928.135 178.033,-934.146 187.779,-938.584"/>
<polygon fill="midnightblue" stroke="midnightblue" points="186.637,-941.897 197.221,-942.376 189.245,-935.402 186.637,-941.897"/>
</g>
<!-- Node3 -->
<g id="node5" class="node"><title>Node3</title>
<a xlink:href="../../d2/d28/classlibrary_1_1_footprint_polygon.html#a0c155e27c8e6d8f1cd3a8443b7bad250" target="_top" xlink:title="library::FootprintPolygon\l::toQPainterPathPx">
<polygon fill="white" stroke="black" points="180,-724 180,-758 302,-758 302,-724 180,-724"/>
<text text-anchor="start" x="188" y="-745" font-family="Helvetica,sans-Serif" font-size="10.00">library::FootprintPolygon</text>
<text text-anchor="middle" x="241" y="-732" font-family="Helvetica,sans-Serif" font-size="10.00">::toQPainterPathPx</text>
</a>
</g>
<!-- Node1&#45;&gt;Node3 -->
<g id="edge4" class="edge"><title>Node1&#45;&gt;Node3</title>
<path fill="none" stroke="midnightblue" d="M65.7452,-433.855C75.0432,-469.27 107.824,-583.782 162,-664 175.633,-684.187 195.22,-703.321 211.479,-717.466"/>
<polygon fill="midnightblue" stroke="midnightblue" points="209.268,-720.18 219.153,-723.992 213.802,-714.848 209.268,-720.18"/>
</g>
<!-- Node4 -->
<g id="node7" class="node"><title>Node4</title>
<a xlink:href="../../d0/d69/class_point.html#a3fb0d1120536f2a889eac1e5e88b9ac5" target="_top" xlink:title="Get the point as a QPointF object in pixels (for QGraphics* objects) ">
<polygon fill="white" stroke="black" points="375.5,-856.5 375.5,-877.5 476.5,-877.5 476.5,-856.5 375.5,-856.5"/>
<text text-anchor="middle" x="426" y="-864.5" font-family="Helvetica,sans-Serif" font-size="10.00">Point::toPxQPointF</text>
</a>
</g>
<!-- Node1&#45;&gt;Node4 -->
<g id="edge58" class="edge"><title>Node1&#45;&gt;Node4</title>
<path fill="none" stroke="midnightblue" d="M64.7713,-433.562C73.6855,-485.626 115.068,-714.552 162,-767 214.521,-825.695 305.136,-850.105 365.321,-860.146"/>
<polygon fill="midnightblue" stroke="midnightblue" points="365.023,-863.642 375.447,-861.748 366.117,-856.728 365.023,-863.642"/>
</g>
<!-- Node5 -->
<g id="node9" class="node"><title>Node5</title>
<a xlink:href="../../df/df0/class_length.html#abf9a817a583f3939aea7bffdeeb7b235" target="_top" xlink:title="Get the length in pixels (for QGraphics* objects) ">
<polygon fill="white" stroke="black" points="551,-875.5 551,-896.5 623,-896.5 623,-875.5 551,-875.5"/>
<text text-anchor="middle" x="587" y="-883.5" font-family="Helvetica,sans-Serif" font-size="10.00">Length::toPx</text>
</a>
</g>
<!-- Node1&#45;&gt;Node5 -->
<g id="edge24" class="edge"><title>Node1&#45;&gt;Node5</title>
<path fill="none" stroke="midnightblue" d="M64.2672,-433.749C71.2454,-491.245 106.696,-762.079 162,-822 259.968,-928.146 452.797,-910.356 541,-895.371"/>
<polygon fill="midnightblue" stroke="midnightblue" points="541.733,-898.796 550.973,-893.612 540.517,-891.902 541.733,-898.796"/>
</g>
<!-- Node10 -->
<g id="node19" class="node"><title>Node10</title>
<a xlink:href="../../d2/d39/class_angle.html#a74e05120ac11f78df41f0a0304990f9f" target="_top" xlink:title="Map this Angle object to [&#45;180..+180[ degrees. ">
<polygon fill="white" stroke="black" points="532.5,-613.5 532.5,-634.5 641.5,-634.5 641.5,-613.5 532.5,-613.5"/>
<text text-anchor="middle" x="587" y="-621.5" font-family="Helvetica,sans-Serif" font-size="10.00">Angle::mapTo180deg</text>
</a>
</g>
<!-- Node1&#45;&gt;Node10 -->
<g id="edge50" class="edge"><title>Node1&#45;&gt;Node10</title>
<path fill="none" stroke="midnightblue" d="M64.178,-433.515C68.79,-469.046 89.1304,-584.981 162,-631 221.373,-668.496 250.197,-638.662 320,-631 336.292,-629.212 339.708,-624.788 356,-623 417.851,-616.211 433.779,-622.658 496,-623 504.403,-623.046 513.243,-623.116 521.975,-623.198"/>
<polygon fill="midnightblue" stroke="midnightblue" points="522.109,-626.7 532.143,-623.3 522.178,-619.7 522.109,-626.7"/>
</g>
<!-- Node12 -->
<g id="node23" class="node"><title>Node12</title>
<a xlink:href="../../d2/d28/classlibrary_1_1_footprint_polygon.html#a69af915a70be9a59f27a36ef42fe7606" target="_top" xlink:title="library::FootprintPolygon\l::getWidth">
<polygon fill="white" stroke="black" points="180,-588 180,-622 302,-622 302,-588 180,-588"/>
<text text-anchor="start" x="188" y="-609" font-family="Helvetica,sans-Serif" font-size="10.00">library::FootprintPolygon</text>
<text text-anchor="middle" x="241" y="-596" font-family="Helvetica,sans-Serif" font-size="10.00">::getWidth</text>
</a>
</g>
<!-- Node1&#45;&gt;Node12 -->
<g id="edge22" class="edge"><title>Node1&#45;&gt;Node12</title>
<path fill="none" stroke="midnightblue" d="M66.8881,-433.882C77.5301,-462.128 109.865,-538.401 162,-579 164.761,-581.15 167.707,-583.126 170.778,-584.941"/>
<polygon fill="midnightblue" stroke="midnightblue" points="169.238,-588.085 179.717,-589.645 172.497,-581.891 169.238,-588.085"/>
</g>
<!-- Node13 -->
<g id="node26" class="node"><title>Node13</title>
<a xlink:href="../../d2/d28/classlibrary_1_1_footprint_polygon.html#afb5593c9c44f491b400edfa695fea7dc" target="_top" xlink:title="library::FootprintPolygon\l::isGrabArea">
<polygon fill="white" stroke="black" points="180,-536 180,-570 302,-570 302,-536 180,-536"/>
<text text-anchor="start" x="188" y="-557" font-family="Helvetica,sans-Serif" font-size="10.00">library::FootprintPolygon</text>
<text text-anchor="middle" x="241" y="-544" font-family="Helvetica,sans-Serif" font-size="10.00">::isGrabArea</text>
</a>
</g>
<!-- Node1&#45;&gt;Node13 -->
<g id="edge26" class="edge"><title>Node1&#45;&gt;Node13</title>
<path fill="none" stroke="midnightblue" d="M70.4159,-433.797C85.3494,-454.753 121.129,-501.148 162,-527 164.746,-528.737 167.619,-530.369 170.576,-531.902"/>
<polygon fill="midnightblue" stroke="midnightblue" points="169.121,-535.085 179.656,-536.206 172.12,-528.76 169.121,-535.085"/>
</g>
<!-- Node14 -->
<g id="node28" class="node"><title>Node14</title>
<a xlink:href="../../d8/dea/classlibrary_1_1_footprint.html#ae95a0911ef4861dfe1b2f56d08d3169f" target="_top" xlink:title="library::Footprint\l::getTexts">
<polygon fill="white" stroke="black" points="197.5,-484 197.5,-518 284.5,-518 284.5,-484 197.5,-484"/>
<text text-anchor="start" x="205.5" y="-505" font-family="Helvetica,sans-Serif" font-size="10.00">library::Footprint</text>
<text text-anchor="middle" x="241" y="-492" font-family="Helvetica,sans-Serif" font-size="10.00">::getTexts</text>
</a>
</g>
<!-- Node1&#45;&gt;Node14 -->
<g id="edge28" class="edge"><title>Node1&#45;&gt;Node14</title>
<path fill="none" stroke="midnightblue" d="M80.8093,-433.507C100.299,-444.731 132.684,-462.578 162,-475 170.211,-478.479 179.057,-481.793 187.755,-484.818"/>
<polygon fill="midnightblue" stroke="midnightblue" points="186.876,-488.216 197.471,-488.105 189.12,-481.585 186.876,-488.216"/>
</g>
<!-- Node15 -->
<g id="node30" class="node"><title>Node15</title>
<a xlink:href="../../db/d86/classlibrary_1_1_footprint_text.html#ab42d5f674bbe33d8d5a601bedfd7921e" target="_top" xlink:title="library::FootprintText\l::getText">
<polygon fill="white" stroke="black" points="187.5,-432 187.5,-466 294.5,-466 294.5,-432 187.5,-432"/>
<text text-anchor="start" x="195.5" y="-453" font-family="Helvetica,sans-Serif" font-size="10.00">library::FootprintText</text>
<text text-anchor="middle" x="241" y="-440" font-family="Helvetica,sans-Serif" font-size="10.00">::getText</text>
</a>
</g>
<!-- Node1&#45;&gt;Node15 -->
<g id="edge30" class="edge"><title>Node1&#45;&gt;Node15</title>
<path fill="none" stroke="midnightblue" d="M125.506,-432.13C142.18,-434.566 160.219,-437.201 176.974,-439.648"/>
<polygon fill="midnightblue" stroke="midnightblue" points="176.815,-443.162 187.216,-441.144 177.827,-436.235 176.815,-443.162"/>
</g>
<!-- Node16 -->
<g id="node32" class="node"><title>Node16</title>
<a xlink:href="../../d9/d41/class_i_f___attribute_provider.html#a64e9824168a64622ace994d0ce6dd8ba" target="_top" xlink:title="Replace all variables in a text with their attribute values. ">
<polygon fill="white" stroke="black" points="162.5,-380 162.5,-414 319.5,-414 319.5,-380 162.5,-380"/>
<text text-anchor="start" x="170.5" y="-401" font-family="Helvetica,sans-Serif" font-size="10.00">IF_AttributeProvider</text>
<text text-anchor="middle" x="241" y="-388" font-family="Helvetica,sans-Serif" font-size="10.00">::replaceVariablesWithAttributes</text>
</a>
</g>
<!-- Node1&#45;&gt;Node16 -->
<g id="edge32" class="edge"><title>Node1&#45;&gt;Node16</title>
<path fill="none" stroke="midnightblue" d="M125.506,-413.87C134.167,-412.605 143.196,-411.286 152.223,-409.967"/>
<polygon fill="midnightblue" stroke="midnightblue" points="153.004,-413.391 162.393,-408.482 151.992,-406.464 153.004,-413.391"/>
</g>
<!-- Node17 -->
<g id="node34" class="node"><title>Node17</title>
<a xlink:href="../../db/d86/classlibrary_1_1_footprint_text.html#a0956fb9eaa66799447596d95c6f1e46d" target="_top" xlink:title="library::FootprintText\l::getHeight">
<polygon fill="white" stroke="black" points="187.5,-328 187.5,-362 294.5,-362 294.5,-328 187.5,-328"/>
<text text-anchor="start" x="195.5" y="-349" font-family="Helvetica,sans-Serif" font-size="10.00">library::FootprintText</text>
<text text-anchor="middle" x="241" y="-336" font-family="Helvetica,sans-Serif" font-size="10.00">::getHeight</text>
</a>
</g>
<!-- Node1&#45;&gt;Node17 -->
<g id="edge34" class="edge"><title>Node1&#45;&gt;Node17</title>
<path fill="none" stroke="midnightblue" d="M80.8093,-412.493C100.299,-401.269 132.684,-383.422 162,-371 167.069,-368.852 172.38,-366.768 177.749,-364.775"/>
<polygon fill="midnightblue" stroke="midnightblue" points="179.208,-367.969 187.435,-361.293 176.841,-361.382 179.208,-367.969"/>
</g>
<!-- Node18 -->
<g id="node36" class="node"><title>Node18</title>
<a xlink:href="../../db/d86/classlibrary_1_1_footprint_text.html#a8c33abf636eed65eeeccb22558ba0880" target="_top" xlink:title="library::FootprintText\l::getAlign">
<polygon fill="white" stroke="black" points="187.5,-276 187.5,-310 294.5,-310 294.5,-276 187.5,-276"/>
<text text-anchor="start" x="195.5" y="-297" font-family="Helvetica,sans-Serif" font-size="10.00">library::FootprintText</text>
<text text-anchor="middle" x="241" y="-284" font-family="Helvetica,sans-Serif" font-size="10.00">::getAlign</text>
</a>
</g>
<!-- Node1&#45;&gt;Node18 -->
<g id="edge36" class="edge"><title>Node1&#45;&gt;Node18</title>
<path fill="none" stroke="midnightblue" d="M70.4159,-412.203C85.3494,-391.247 121.129,-344.852 162,-319 166.925,-315.885 172.261,-313.106 177.755,-310.634"/>
<polygon fill="midnightblue" stroke="midnightblue" points="179.208,-313.821 187.107,-306.76 176.529,-307.354 179.208,-313.821"/>
</g>
<!-- Node19 -->
<g id="node38" class="node"><title>Node19</title>
<a xlink:href="../../df/de9/class_alignment.html#a4fbb4767912b1fed45bc601018994247" target="_top" xlink:title="Alignment::toQtAlign">
<polygon fill="white" stroke="black" points="187.5,-236.5 187.5,-257.5 294.5,-257.5 294.5,-236.5 187.5,-236.5"/>
<text text-anchor="middle" x="241" y="-244.5" font-family="Helvetica,sans-Serif" font-size="10.00">Alignment::toQtAlign</text>
</a>
</g>
<!-- Node1&#45;&gt;Node19 -->
<g id="edge38" class="edge"><title>Node1&#45;&gt;Node19</title>
<path fill="none" stroke="midnightblue" d="M66.5812,-412.322C76.6825,-383.902 108.217,-305.938 162,-267 166.772,-263.545 172.082,-260.685 177.628,-258.318"/>
<polygon fill="midnightblue" stroke="midnightblue" points="178.981,-261.549 187.132,-254.781 176.539,-254.988 178.981,-261.549"/>
</g>
<!-- Node22 -->
<g id="node44" class="node"><title>Node22</title>
<a xlink:href="../../db/d86/classlibrary_1_1_footprint_text.html#a01f0e165edb023b0c50cdbfd70f36021" target="_top" xlink:title="library::FootprintText\l::getRotation">
<polygon fill="white" stroke="black" points="187.5,-184 187.5,-218 294.5,-218 294.5,-184 187.5,-184"/>
<text text-anchor="start" x="195.5" y="-205" font-family="Helvetica,sans-Serif" font-size="10.00">library::FootprintText</text>
<text text-anchor="middle" x="241" y="-192" font-family="Helvetica,sans-Serif" font-size="10.00">::getRotation</text>
</a>
</g>
<!-- Node1&#45;&gt;Node22 -->
<g id="edge44" class="edge"><title>Node1&#45;&gt;Node22</title>
<path fill="none" stroke="midnightblue" d="M65.339,-412.292C73.0475,-379.535 100.737,-279.712 162,-227 166.812,-222.859 172.302,-219.374 178.095,-216.441"/>
<polygon fill="midnightblue" stroke="midnightblue" points="179.7,-219.557 187.392,-212.272 176.836,-213.17 179.7,-219.557"/>
</g>
<!-- Node23 -->
<g id="node46" class="node"><title>Node23</title>
<a xlink:href="../../da/d96/classproject_1_1_b_i___footprint.html#a1220d662c6088cae7ec3f1a2427bc6c5" target="_top" xlink:title="project::BI_Footprint\l::getRotation">
<polygon fill="white" stroke="black" points="188.5,-132 188.5,-166 293.5,-166 293.5,-132 188.5,-132"/>
<text text-anchor="start" x="196.5" y="-153" font-family="Helvetica,sans-Serif" font-size="10.00">project::BI_Footprint</text>
<text text-anchor="middle" x="241" y="-140" font-family="Helvetica,sans-Serif" font-size="10.00">::getRotation</text>
</a>
</g>
<!-- Node1&#45;&gt;Node23 -->
<g id="edge46" class="edge"><title>Node1&#45;&gt;Node23</title>
<path fill="none" stroke="midnightblue" d="M64.0893,-412.284C68.5326,-374.186 88.6993,-243.901 162,-175 166.948,-170.349 172.744,-166.529 178.91,-163.393"/>
<polygon fill="midnightblue" stroke="midnightblue" points="180.447,-166.54 188.153,-159.268 177.595,-160.147 180.447,-166.54"/>
</g>
<!-- Node25 -->
<g id="node51" class="node"><title>Node25</title>
<a xlink:href="../../d2/d39/class_angle.html#a7f29e0cf68871bab5b01569d78de4504" target="_top" xlink:title="90 degrees ">
<polygon fill="white" stroke="black" points="204,-92.5 204,-113.5 278,-113.5 278,-92.5 204,-92.5"/>
<text text-anchor="middle" x="241" y="-100.5" font-family="Helvetica,sans-Serif" font-size="10.00">Angle::deg90</text>
</a>
</g>
<!-- Node1&#45;&gt;Node25 -->
<g id="edge52" class="edge"><title>Node1&#45;&gt;Node25</title>
<path fill="none" stroke="midnightblue" d="M65.0818,-412.397C74.7788,-364.041 116.954,-164.965 162,-123 170.727,-114.87 182.274,-109.925 193.836,-106.95"/>
<polygon fill="midnightblue" stroke="midnightblue" points="194.873,-110.308 203.931,-104.812 193.423,-103.46 194.873,-110.308"/>
</g>
<!-- Node27 -->
<g id="node55" class="node"><title>Node27</title>
<a xlink:href="../../db/d86/classlibrary_1_1_footprint_text.html#ae23dd3ab799e9f70a4037eea91f69a82" target="_top" xlink:title="library::FootprintText\l::getPosition">
<polygon fill="white" stroke="black" points="187.5,-40 187.5,-74 294.5,-74 294.5,-40 187.5,-40"/>
<text text-anchor="start" x="195.5" y="-61" font-family="Helvetica,sans-Serif" font-size="10.00">library::FootprintText</text>
<text text-anchor="middle" x="241" y="-48" font-family="Helvetica,sans-Serif" font-size="10.00">::getPosition</text>
</a>
</g>
<!-- Node1&#45;&gt;Node27 -->
<g id="edge56" class="edge"><title>Node1&#45;&gt;Node27</title>
<path fill="none" stroke="midnightblue" d="M64.7138,-412.491C73.3533,-360.697 113.627,-133.077 162,-83 166.542,-78.2975 171.95,-74.4452 177.774,-71.2893"/>
<polygon fill="midnightblue" stroke="midnightblue" points="179.627,-74.2866 187.204,-66.8813 176.663,-67.9451 179.627,-74.2866"/>
</g>
<!-- Node28 -->
<g id="node58" class="node"><title>Node28</title>
<a xlink:href="../../df/de9/class_alignment.html#a5e73aa1977269073f3ce5f2af38443a0" target="_top" xlink:title="Alignment::mirrored">
<polygon fill="white" stroke="black" points="190.5,-0.5 190.5,-21.5 291.5,-21.5 291.5,-0.5 190.5,-0.5"/>
<text text-anchor="middle" x="241" y="-8.5" font-family="Helvetica,sans-Serif" font-size="10.00">Alignment::mirrored</text>
</a>
</g>
<!-- Node1&#45;&gt;Node28 -->
<g id="edge60" class="edge"><title>Node1&#45;&gt;Node28</title>
<path fill="none" stroke="midnightblue" d="M64.2193,-412.365C70.9476,-355.491 105.31,-87.7226 162,-31 167.294,-25.7025 173.777,-21.7408 180.731,-18.7888"/>
<polygon fill="midnightblue" stroke="midnightblue" points="182.175,-21.9907 190.437,-15.3586 179.842,-15.3907 182.175,-21.9907"/>
</g>
<!-- Node3&#45;&gt;Node4 -->
<g id="edge6" class="edge"><title>Node3&#45;&gt;Node4</title>
<path fill="none" stroke="midnightblue" d="M259.921,-758.073C275.979,-772.603 299.594,-794.068 320,-813 336.134,-827.968 336.875,-836.111 356,-847 359.707,-849.111 363.653,-851.012 367.711,-852.723"/>
<polygon fill="midnightblue" stroke="midnightblue" points="366.731,-856.095 377.322,-856.379 369.22,-849.553 366.731,-856.095"/>
</g>
<!-- Node6 -->
<g id="node11" class="node"><title>Node6</title>
<a xlink:href="../../da/d46/classlibrary_1_1_footprint_polygon_segment.html#a894842161e505b56d67b0cf5b0f50087" target="_top" xlink:title="library::FootprintPolygon\lSegment::getAngle">
<polygon fill="white" stroke="black" points="365,-724 365,-758 487,-758 487,-724 365,-724"/>
<text text-anchor="start" x="373" y="-745" font-family="Helvetica,sans-Serif" font-size="10.00">library::FootprintPolygon</text>
<text text-anchor="middle" x="426" y="-732" font-family="Helvetica,sans-Serif" font-size="10.00">Segment::getAngle</text>
</a>
</g>
<!-- Node3&#45;&gt;Node6 -->
<g id="edge10" class="edge"><title>Node3&#45;&gt;Node6</title>
<path fill="none" stroke="midnightblue" d="M302.089,-741C318.981,-741 337.459,-741 354.868,-741"/>
<polygon fill="midnightblue" stroke="midnightblue" points="354.976,-744.5 364.976,-741 354.975,-737.5 354.976,-744.5"/>
</g>
<!-- Node7 -->
<g id="node13" class="node"><title>Node7</title>
<a xlink:href="../../da/d46/classlibrary_1_1_footprint_polygon_segment.html#af89771a9eb5882eaee9f298f663f89dc" target="_top" xlink:title="library::FootprintPolygon\lSegment::getEndPos">
<polygon fill="white" stroke="black" points="365,-672 365,-706 487,-706 487,-672 365,-672"/>
<text text-anchor="start" x="373" y="-693" font-family="Helvetica,sans-Serif" font-size="10.00">library::FootprintPolygon</text>
<text text-anchor="middle" x="426" y="-680" font-family="Helvetica,sans-Serif" font-size="10.00">Segment::getEndPos</text>
</a>
</g>
<!-- Node3&#45;&gt;Node7 -->
<g id="edge12" class="edge"><title>Node3&#45;&gt;Node7</title>
<path fill="none" stroke="midnightblue" d="M301.576,-723.973C318.825,-719.125 337.762,-713.802 355.545,-708.803"/>
<polygon fill="midnightblue" stroke="midnightblue" points="356.608,-712.14 365.288,-706.065 354.714,-705.402 356.608,-712.14"/>
</g>
<!-- Node8 -->
<g id="node15" class="node"><title>Node8</title>
<a xlink:href="../../d2/d39/class_angle.html#a70d223e0c1188606f971188d6f23b66f" target="_top" xlink:title="Get the angle in radians. ">
<polygon fill="white" stroke="black" points="389,-816.5 389,-837.5 463,-837.5 463,-816.5 389,-816.5"/>
<text text-anchor="middle" x="426" y="-824.5" font-family="Helvetica,sans-Serif" font-size="10.00">Angle::toRad</text>
</a>
</g>
<!-- Node3&#45;&gt;Node8 -->
<g id="edge14" class="edge"><title>Node3&#45;&gt;Node8</title>
<path fill="none" stroke="midnightblue" d="M266.559,-758.087C289.269,-772.67 323.768,-793.385 356,-807 363.286,-810.078 371.193,-812.846 378.981,-815.272"/>
<polygon fill="midnightblue" stroke="midnightblue" points="378.146,-818.674 388.728,-818.159 380.134,-811.963 378.146,-818.674"/>
</g>
<!-- Node9 -->
<g id="node17" class="node"><title>Node9</title>
<a xlink:href="../../d2/d39/class_angle.html#ae76e6384199e1c899025c103affd862f" target="_top" xlink:title="Get an Angle object which is mapped to [&#45;180..+180[ degrees. ">
<polygon fill="white" stroke="black" points="363.5,-632.5 363.5,-653.5 488.5,-653.5 488.5,-632.5 363.5,-632.5"/>
<text text-anchor="middle" x="426" y="-640.5" font-family="Helvetica,sans-Serif" font-size="10.00">Angle::mappedTo180deg</text>
</a>
</g>
<!-- Node3&#45;&gt;Node9 -->
<g id="edge16" class="edge"><title>Node3&#45;&gt;Node9</title>
<path fill="none" stroke="midnightblue" d="M261.807,-723.866C283.946,-706.386 320.593,-679.545 356,-663 360.938,-660.692 366.199,-658.595 371.534,-656.702"/>
<polygon fill="midnightblue" stroke="midnightblue" points="372.769,-659.98 381.162,-653.514 370.569,-653.335 372.769,-659.98"/>
</g>
<!-- Node11 -->
<g id="node21" class="node"><title>Node11</title>
<a xlink:href="../../d2/d39/class_angle.html#ad2926beabd4d66cc5bc1ac4c622540ea" target="_top" xlink:title="Get the Angle in degrees. ">
<polygon fill="white" stroke="black" points="389,-776.5 389,-797.5 463,-797.5 463,-776.5 389,-776.5"/>
<text text-anchor="middle" x="426" y="-784.5" font-family="Helvetica,sans-Serif" font-size="10.00">Angle::toDeg</text>
</a>
</g>
<!-- Node3&#45;&gt;Node11 -->
<g id="edge20" class="edge"><title>Node3&#45;&gt;Node11</title>
<path fill="none" stroke="midnightblue" d="M302.089,-756.19C327.117,-762.413 355.627,-769.502 378.986,-775.31"/>
<polygon fill="midnightblue" stroke="midnightblue" points="378.44,-778.781 388.989,-777.797 380.129,-771.988 378.44,-778.781"/>
</g>
<!-- Node4&#45;&gt;Node5 -->
<g id="edge8" class="edge"><title>Node4&#45;&gt;Node5</title>
<path fill="none" stroke="midnightblue" d="M476.941,-873.012C497.417,-875.428 520.855,-878.194 540.826,-880.551"/>
<polygon fill="midnightblue" stroke="midnightblue" points="540.577,-884.046 550.919,-881.742 541.398,-877.094 540.577,-884.046"/>
</g>
<!-- Node9&#45;&gt;Node10 -->
<g id="edge18" class="edge"><title>Node9&#45;&gt;Node10</title>
<path fill="none" stroke="midnightblue" d="M488.708,-635.6C499.727,-634.299 511.213,-632.944 522.286,-631.637"/>
<polygon fill="midnightblue" stroke="midnightblue" points="522.791,-635.102 532.312,-630.454 521.971,-628.15 522.791,-635.102"/>
</g>
<!-- Node20 -->
<g id="node40" class="node"><title>Node20</title>
<a xlink:href="../../d7/d39/class_h_align.html#a5947e6026a6c38886e5598e032fa7317" target="_top" xlink:title="HAlign::toQtAlignFlag">
<polygon fill="white" stroke="black" points="370.5,-216.5 370.5,-237.5 481.5,-237.5 481.5,-216.5 370.5,-216.5"/>
<text text-anchor="middle" x="426" y="-224.5" font-family="Helvetica,sans-Serif" font-size="10.00">HAlign::toQtAlignFlag</text>
</a>
</g>
<!-- Node19&#45;&gt;Node20 -->
<g id="edge40" class="edge"><title>Node19&#45;&gt;Node20</title>
<path fill="none" stroke="midnightblue" d="M294.51,-241.215C315.053,-238.994 338.738,-236.434 360.297,-234.103"/>
<polygon fill="midnightblue" stroke="midnightblue" points="360.793,-237.57 370.359,-233.015 360.04,-230.61 360.793,-237.57"/>
</g>
<!-- Node21 -->
<g id="node42" class="node"><title>Node21</title>
<a xlink:href="../../d9/dbc/class_v_align.html#a5947e6026a6c38886e5598e032fa7317" target="_top" xlink:title="VAlign::toQtAlignFlag">
<polygon fill="white" stroke="black" points="371,-256.5 371,-277.5 481,-277.5 481,-256.5 371,-256.5"/>
<text text-anchor="middle" x="426" y="-264.5" font-family="Helvetica,sans-Serif" font-size="10.00">VAlign::toQtAlignFlag</text>
</a>
</g>
<!-- Node19&#45;&gt;Node21 -->
<g id="edge42" class="edge"><title>Node19&#45;&gt;Node21</title>
<path fill="none" stroke="midnightblue" d="M294.51,-252.785C315.145,-255.016 338.95,-257.589 360.587,-259.928"/>
<polygon fill="midnightblue" stroke="midnightblue" points="360.364,-263.424 370.682,-261.02 361.116,-256.465 360.364,-263.424"/>
</g>
<!-- Node24 -->
<g id="node48" class="node"><title>Node24</title>
<a xlink:href="../../d0/d7d/classproject_1_1_component_instance.html#a01f0e165edb023b0c50cdbfd70f36021" target="_top" xlink:title="project::ComponentInstance\l::getRotation">
<polygon fill="white" stroke="black" points="356,-132 356,-166 496,-166 496,-132 356,-132"/>
<text text-anchor="start" x="364" y="-153" font-family="Helvetica,sans-Serif" font-size="10.00">project::ComponentInstance</text>
<text text-anchor="middle" x="426" y="-140" font-family="Helvetica,sans-Serif" font-size="10.00">::getRotation</text>
</a>
</g>
<!-- Node23&#45;&gt;Node24 -->
<g id="edge48" class="edge"><title>Node23&#45;&gt;Node24</title>
<path fill="none" stroke="midnightblue" d="M293.519,-149C309.682,-149 327.862,-149 345.455,-149"/>
<polygon fill="midnightblue" stroke="midnightblue" points="345.726,-152.5 355.726,-149 345.726,-145.5 345.726,-152.5"/>
</g>
<!-- Node26 -->
<g id="node53" class="node"><title>Node26</title>
<a xlink:href="../../d2/d39/class_angle.html#ae0cfbf0d84fd0eab0f9dfc1b365b8667" target="_top" xlink:title="Default Constructor. ">
<polygon fill="white" stroke="black" points="390,-92.5 390,-113.5 462,-113.5 462,-92.5 390,-92.5"/>
<text text-anchor="middle" x="426" y="-100.5" font-family="Helvetica,sans-Serif" font-size="10.00">Angle::Angle</text>
</a>
</g>
<!-- Node25&#45;&gt;Node26 -->
<g id="edge54" class="edge"><title>Node25&#45;&gt;Node26</title>
<path fill="none" stroke="midnightblue" d="M278.438,-103C307.654,-103 348.393,-103 379.665,-103"/>
<polygon fill="midnightblue" stroke="midnightblue" points="379.877,-106.5 389.877,-103 379.877,-99.5001 379.877,-106.5"/>
</g>
<!-- Node29 -->
<g id="node60" class="node"><title>Node29</title>
<a xlink:href="../../df/de9/class_alignment.html#ac2a03de30f0ea7f185b8ae3625c8b076" target="_top" xlink:title="Alignment::Alignment">
<polygon fill="white" stroke="black" points="371,-0.5 371,-21.5 481,-21.5 481,-0.5 371,-0.5"/>
<text text-anchor="middle" x="426" y="-8.5" font-family="Helvetica,sans-Serif" font-size="10.00">Alignment::Alignment</text>
</a>
</g>
<!-- Node28&#45;&gt;Node29 -->
<g id="edge62" class="edge"><title>Node28&#45;&gt;Node29</title>
<path fill="none" stroke="midnightblue" d="M291.552,-11C312.89,-11 338.006,-11 360.719,-11"/>
<polygon fill="midnightblue" stroke="midnightblue" points="360.964,-14.5001 370.964,-11 360.963,-7.5001 360.964,-14.5001"/>
</g>
</g>
</svg>
