<?xml version="1.0" encoding="UTF-8" standalone="no"?>
<!DOCTYPE svg PUBLIC "-//W3C//DTD SVG 1.1//EN"
 "http://www.w3.org/Graphics/SVG/1.1/DTD/svg11.dtd">
<!-- Generated by graphviz version 2.26.3 (20100126.1600)
 -->
<!-- Title: SymbolInstancePropertiesDialog Pages: 1 -->
<svg width="476pt" height="442pt"
 viewBox="0.00 0.00 476.00 442.00" xmlns="http://www.w3.org/2000/svg" xmlns:xlink="http://www.w3.org/1999/xlink">
<g id="graph1" class="graph" transform="scale(1 1) rotate(0) translate(4 438)">
<title>SymbolInstancePropertiesDialog</title>
<polygon fill="white" stroke="white" points="-4,5 -4,-438 473,-438 473,5 -4,5"/>
<!-- Node1 -->
<g id="node1" class="node"><title>Node1</title>
<polygon fill="#bfbfbf" stroke="black" points="0.5,-156 0.5,-190 131.5,-190 131.5,-156 0.5,-156"/>
<text text-anchor="start" x="8.5" y="-177" font-family="Helvetica,sans-Serif" font-size="10.00">SymbolInstanceProperties</text>
<text text-anchor="middle" x="66" y="-164" font-family="Helvetica,sans-Serif" font-size="10.00">Dialog</text>
</g>
<!-- Node2 -->
<g id="node3" class="node"><title>Node2</title>
<a xlink:href="../../d8/d57/class_attribute_type.html#a48b699aff5041b901600e1181a391677" target="_top" xlink:title="AttributeType::getAllTypes">
<polygon fill="white" stroke="black" points="168.5,-288.5 168.5,-309.5 301.5,-309.5 301.5,-288.5 168.5,-288.5"/>
<text text-anchor="middle" x="235" y="-296.5" font-family="Helvetica,sans-Serif" font-size="10.00">AttributeType::getAllTypes</text>
</a>
</g>
<!-- Node1&#45;&gt;Node2 -->
<g id="edge2" class="edge"><title>Node1&#45;&gt;Node2</title>
<path fill="none" stroke="midnightblue" d="M78.1177,-190.332C95.4162,-213.808 129.4,-255.474 168,-279 171.401,-281.073 175.031,-282.943 178.776,-284.628"/>
<polygon fill="midnightblue" stroke="midnightblue" points="177.67,-287.956 188.253,-288.447 180.286,-281.463 177.67,-287.956"/>
</g>
<!-- Node9 -->
<g id="node17" class="node"><title>Node9</title>
<a xlink:href="../../d8/d57/class_attribute_type.html#a87138eeff3b10affc5a91df6ec82821c" target="_top" xlink:title="AttributeType::getNameTr">
<polygon fill="white" stroke="black" points="170,-248.5 170,-269.5 300,-269.5 300,-248.5 170,-248.5"/>
<text text-anchor="middle" x="235" y="-256.5" font-family="Helvetica,sans-Serif" font-size="10.00">AttributeType::getNameTr</text>
</a>
</g>
<!-- Node1&#45;&gt;Node9 -->
<g id="edge16" class="edge"><title>Node1&#45;&gt;Node9</title>
<path fill="none" stroke="midnightblue" d="M88.4105,-190.179C108.387,-204.821 138.888,-225.571 168,-239 172.891,-241.256 178.1,-243.331 183.369,-245.22"/>
<polygon fill="midnightblue" stroke="midnightblue" points="182.269,-248.543 192.864,-248.418 184.504,-241.909 182.269,-248.543"/>
</g>
<!-- Node10 -->
<g id="node19" class="node"><title>Node10</title>
<a xlink:href="../../d8/d57/class_attribute_type.html#ab0c96f485564e41206ce9a4ce42ba389" target="_top" xlink:title="AttributeType::getName">
<polygon fill="white" stroke="black" points="174.5,-208.5 174.5,-229.5 295.5,-229.5 295.5,-208.5 174.5,-208.5"/>
<text text-anchor="middle" x="235" y="-216.5" font-family="Helvetica,sans-Serif" font-size="10.00">AttributeType::getName</text>
</a>
</g>
<!-- Node1&#45;&gt;Node10 -->
<g id="edge18" class="edge"><title>Node1&#45;&gt;Node10</title>
<path fill="none" stroke="midnightblue" d="M128.929,-190.129C147.933,-195.301 168.497,-200.899 186.414,-205.775"/>
<polygon fill="midnightblue" stroke="midnightblue" points="185.501,-209.154 196.069,-208.403 187.339,-202.4 185.501,-209.154"/>
</g>
<!-- Node11 -->
<g id="node21" class="node"><title>Node11</title>
<a xlink:href="../../d7/d77/classproject_1_1_gen_comp_attribute_instance.html#aa966546cdb8297bfa36dc77b3e7e2b37" target="_top" xlink:title="project::GenCompAttribute\lInstance::getKey">
<polygon fill="white" stroke="black" points="168.5,-156 168.5,-190 301.5,-190 301.5,-156 168.5,-156"/>
<text text-anchor="start" x="176.5" y="-177" font-family="Helvetica,sans-Serif" font-size="10.00">project::GenCompAttribute</text>
<text text-anchor="middle" x="235" y="-164" font-family="Helvetica,sans-Serif" font-size="10.00">Instance::getKey</text>
</a>
</g>
<!-- Node1&#45;&gt;Node11 -->
<g id="edge20" class="edge"><title>Node1&#45;&gt;Node11</title>
<path fill="none" stroke="midnightblue" d="M131.824,-173C140.417,-173 149.281,-173 158.037,-173"/>
<polygon fill="midnightblue" stroke="midnightblue" points="158.243,-176.5 168.243,-173 158.243,-169.5 158.243,-176.5"/>
</g>
<!-- Node12 -->
<g id="node23" class="node"><title>Node12</title>
<a xlink:href="../../d7/d77/classproject_1_1_gen_comp_attribute_instance.html#a95050215b0ac033847249953a2eaeb2a" target="_top" xlink:title="project::GenCompAttribute\lInstance::getType">
<polygon fill="white" stroke="black" points="168.5,-104 168.5,-138 301.5,-138 301.5,-104 168.5,-104"/>
<text text-anchor="start" x="176.5" y="-125" font-family="Helvetica,sans-Serif" font-size="10.00">project::GenCompAttribute</text>
<text text-anchor="middle" x="235" y="-112" font-family="Helvetica,sans-Serif" font-size="10.00">Instance::getType</text>
</a>
</g>
<!-- Node1&#45;&gt;Node12 -->
<g id="edge22" class="edge"><title>Node1&#45;&gt;Node12</title>
<path fill="none" stroke="midnightblue" d="M121.337,-155.973C136.802,-151.215 153.754,-145.999 169.735,-141.081"/>
<polygon fill="midnightblue" stroke="midnightblue" points="171.01,-144.351 179.539,-138.065 168.952,-137.661 171.01,-144.351"/>
</g>
<!-- Node13 -->
<g id="node25" class="node"><title>Node13</title>
<a xlink:href="../../d7/d77/classproject_1_1_gen_comp_attribute_instance.html#afcf39593b13cca481314b91c522e1779" target="_top" xlink:title="project::GenCompAttribute\lInstance::getValue">
<polygon fill="white" stroke="black" points="168.5,-52 168.5,-86 301.5,-86 301.5,-52 168.5,-52"/>
<text text-anchor="start" x="176.5" y="-73" font-family="Helvetica,sans-Serif" font-size="10.00">project::GenCompAttribute</text>
<text text-anchor="middle" x="235" y="-60" font-family="Helvetica,sans-Serif" font-size="10.00">Instance::getValue</text>
</a>
</g>
<!-- Node1&#45;&gt;Node13 -->
<g id="edge24" class="edge"><title>Node1&#45;&gt;Node13</title>
<path fill="none" stroke="midnightblue" d="M85.1519,-155.686C104.829,-138.563 136.897,-112.459 168,-95 170.883,-93.3815 173.887,-91.8195 176.957,-90.3196"/>
<polygon fill="midnightblue" stroke="midnightblue" points="178.687,-93.3762 186.304,-86.012 175.757,-87.0188 178.687,-93.3762"/>
</g>
<!-- Node14 -->
<g id="node27" class="node"><title>Node14</title>
<a xlink:href="../../d7/d77/classproject_1_1_gen_comp_attribute_instance.html#a38581c15047e8f8f6678966fe27d57d7" target="_top" xlink:title="project::GenCompAttribute\lInstance::getUnit">
<polygon fill="white" stroke="black" points="168.5,-0 168.5,-34 301.5,-34 301.5,-0 168.5,-0"/>
<text text-anchor="start" x="176.5" y="-21" font-family="Helvetica,sans-Serif" font-size="10.00">project::GenCompAttribute</text>
<text text-anchor="middle" x="235" y="-8" font-family="Helvetica,sans-Serif" font-size="10.00">Instance::getUnit</text>
</a>
</g>
<!-- Node1&#45;&gt;Node14 -->
<g id="edge26" class="edge"><title>Node1&#45;&gt;Node14</title>
<path fill="none" stroke="midnightblue" d="M75.3466,-155.84C91.0822,-128.419 125.363,-74.6021 168,-43 169.832,-41.6418 171.745,-40.3449 173.717,-39.1077"/>
<polygon fill="midnightblue" stroke="midnightblue" points="175.682,-42.0174 182.676,-34.0586 172.246,-35.9191 175.682,-42.0174"/>
</g>
<!-- Node3 -->
<g id="node5" class="node"><title>Node3</title>
<a xlink:href="../../dc/d13/class_attr_type_string.html#a88d8e23a17e2cbcb9ea71bd1ebff35f3" target="_top" xlink:title="AttrTypeString::instance">
<polygon fill="white" stroke="black" points="342,-412.5 342,-433.5 464,-433.5 464,-412.5 342,-412.5"/>
<text text-anchor="middle" x="403" y="-420.5" font-family="Helvetica,sans-Serif" font-size="10.00">AttrTypeString::instance</text>
</a>
</g>
<!-- Node2&#45;&gt;Node3 -->
<g id="edge4" class="edge"><title>Node2&#45;&gt;Node3</title>
<path fill="none" stroke="midnightblue" d="M242.537,-309.529C258.036,-330.428 295.609,-377.338 338,-403 341.425,-405.073 345.082,-406.948 348.851,-408.641"/>
<polygon fill="midnightblue" stroke="midnightblue" points="347.796,-411.989 358.38,-412.482 350.414,-405.497 347.796,-411.989"/>
</g>
<!-- Node4 -->
<g id="node7" class="node"><title>Node4</title>
<a xlink:href="../../d6/dc0/class_attr_type_resistance.html#abc01acd4762ffef6f61e7be45dbca07d" target="_top" xlink:title="AttrTypeResistance\l::instance">
<polygon fill="white" stroke="black" points="351,-360 351,-394 455,-394 455,-360 351,-360"/>
<text text-anchor="start" x="359" y="-381" font-family="Helvetica,sans-Serif" font-size="10.00">AttrTypeResistance</text>
<text text-anchor="middle" x="403" y="-368" font-family="Helvetica,sans-Serif" font-size="10.00">::instance</text>
</a>
</g>
<!-- Node2&#45;&gt;Node4 -->
<g id="edge6" class="edge"><title>Node2&#45;&gt;Node4</title>
<path fill="none" stroke="midnightblue" d="M254.881,-309.686C275.445,-320.585 308.605,-337.731 338,-351 341.635,-352.641 345.406,-354.288 349.218,-355.913"/>
<polygon fill="midnightblue" stroke="midnightblue" points="348.15,-359.26 358.726,-359.891 350.852,-352.803 348.15,-359.26"/>
</g>
<!-- Node5 -->
<g id="node9" class="node"><title>Node5</title>
<a xlink:href="../../d0/d14/class_attr_type_capacitance.html#a60437b97dbb198bbea5920cebc2c2059" target="_top" xlink:title="AttrTypeCapacitance\l::instance">
<polygon fill="white" stroke="black" points="348.5,-308 348.5,-342 457.5,-342 457.5,-308 348.5,-308"/>
<text text-anchor="start" x="356.5" y="-329" font-family="Helvetica,sans-Serif" font-size="10.00">AttrTypeCapacitance</text>
<text text-anchor="middle" x="403" y="-316" font-family="Helvetica,sans-Serif" font-size="10.00">::instance</text>
</a>
</g>
<!-- Node2&#45;&gt;Node5 -->
<g id="edge8" class="edge"><title>Node2&#45;&gt;Node5</title>
<path fill="none" stroke="midnightblue" d="M301.881,-309.351C313.962,-311.22 326.537,-313.166 338.547,-315.025"/>
<polygon fill="midnightblue" stroke="midnightblue" points="338.062,-318.492 348.48,-316.562 339.133,-311.574 338.062,-318.492"/>
</g>
<!-- Node6 -->
<g id="node11" class="node"><title>Node6</title>
<a xlink:href="../../d0/d9c/class_attr_type_inductance.html#a521fc12589f03f9ff502c53c765354b3" target="_top" xlink:title="AttrTypeInductance\l::instance">
<polygon fill="white" stroke="black" points="352,-256 352,-290 454,-290 454,-256 352,-256"/>
<text text-anchor="start" x="360" y="-277" font-family="Helvetica,sans-Serif" font-size="10.00">AttrTypeInductance</text>
<text text-anchor="middle" x="403" y="-264" font-family="Helvetica,sans-Serif" font-size="10.00">::instance</text>
</a>
</g>
<!-- Node2&#45;&gt;Node6 -->
<g id="edge10" class="edge"><title>Node2&#45;&gt;Node6</title>
<path fill="none" stroke="midnightblue" d="M301.881,-288.649C315.022,-286.616 328.746,-284.492 341.693,-282.488"/>
<polygon fill="midnightblue" stroke="midnightblue" points="342.536,-285.899 351.883,-280.911 341.466,-278.982 342.536,-285.899"/>
</g>
<!-- Node7 -->
<g id="node13" class="node"><title>Node7</title>
<a xlink:href="../../d9/d21/class_attr_type_voltage.html#ac987bea2d7c06eca15ab204116606c88" target="_top" xlink:title="AttrTypeVoltage::instance">
<polygon fill="white" stroke="black" points="338,-216.5 338,-237.5 468,-237.5 468,-216.5 338,-216.5"/>
<text text-anchor="middle" x="403" y="-224.5" font-family="Helvetica,sans-Serif" font-size="10.00">AttrTypeVoltage::instance</text>
</a>
</g>
<!-- Node2&#45;&gt;Node7 -->
<g id="edge12" class="edge"><title>Node2&#45;&gt;Node7</title>
<path fill="none" stroke="midnightblue" d="M280.433,-288.385C287.869,-285.824 295.319,-282.722 302,-279 320.7,-268.58 319.344,-257.499 338,-247 341.867,-244.824 345.999,-242.856 350.235,-241.082"/>
<polygon fill="midnightblue" stroke="midnightblue" points="351.519,-244.338 359.612,-237.501 349.022,-237.799 351.519,-244.338"/>
</g>
<!-- Node8 -->
<g id="node15" class="node"><title>Node8</title>
<a xlink:href="../../df/da7/class_attr_type_frequency.html#a64d71743271995904885f235c0cbdb9c" target="_top" xlink:title="AttrTypeFrequency::\linstance">
<polygon fill="white" stroke="black" points="350,-164 350,-198 456,-198 456,-164 350,-164"/>
<text text-anchor="start" x="358" y="-185" font-family="Helvetica,sans-Serif" font-size="10.00">AttrTypeFrequency::</text>
<text text-anchor="middle" x="403" y="-172" font-family="Helvetica,sans-Serif" font-size="10.00">instance</text>
</a>
</g>
<!-- Node2&#45;&gt;Node8 -->
<g id="edge14" class="edge"><title>Node2&#45;&gt;Node8</title>
<path fill="none" stroke="midnightblue" d="M286.642,-288.422C292.18,-285.919 297.445,-282.826 302,-279 329.396,-255.99 311.672,-231.225 338,-207 339.146,-205.946 340.34,-204.932 341.574,-203.957"/>
<polygon fill="midnightblue" stroke="midnightblue" points="343.926,-206.59 350.227,-198.073 339.99,-200.802 343.926,-206.59"/>
</g>
</g>
</svg>
