<?xml version="1.0" encoding="UTF-8" standalone="no"?>
<!DOCTYPE svg PUBLIC "-//W3C//DTD SVG 1.1//EN"
 "http://www.w3.org/Graphics/SVG/1.1/DTD/svg11.dtd">
<!-- Generated by graphviz version 2.26.3 (20100126.1600)
 -->
<!-- Title: getSymbolVariants Pages: 1 -->
<svg width="858pt" height="108pt"
 viewBox="0.00 0.00 858.00 108.00" xmlns="http://www.w3.org/2000/svg" xmlns:xlink="http://www.w3.org/1999/xlink">
<g id="graph1" class="graph" transform="scale(1 1) rotate(0) translate(4 104)">
<title>getSymbolVariants</title>
<polygon fill="white" stroke="white" points="-4,5 -4,-104 855,-104 855,5 -4,5"/>
<!-- Node1 -->
<g id="node1" class="node"><title>Node1</title>
<polygon fill="#bfbfbf" stroke="black" points="0.5,-35.5 0.5,-56.5 99.5,-56.5 99.5,-35.5 0.5,-35.5"/>
<text text-anchor="middle" x="50" y="-43.5" font-family="Helvetica,sans-Serif" font-size="10.00">getSymbolVariants</text>
</g>
<!-- Node2 -->
<g id="node3" class="node"><title>Node2</title>
<a xlink:href="../../d1/d92/classproject_1_1_add_gen_comp_dialog.html#abf6af5dc67073d848d5cf561412d4b27" target="_top" xlink:title="project::AddGenCompDialog\l::setSelectedGenComp">
<polygon fill="white" stroke="black" points="136.5,-29 136.5,-63 277.5,-63 277.5,-29 136.5,-29"/>
<text text-anchor="start" x="144.5" y="-50" font-family="Helvetica,sans-Serif" font-size="10.00">project::AddGenCompDialog</text>
<text text-anchor="middle" x="207" y="-37" font-family="Helvetica,sans-Serif" font-size="10.00">::setSelectedGenComp</text>
</a>
</g>
<!-- Node1&#45;&gt;Node2 -->
<g id="edge2" class="edge"><title>Node1&#45;&gt;Node2</title>
<path fill="none" stroke="midnightblue" d="M109.736,-46C118.459,-46 127.509,-46 136.422,-46"/>
<polygon fill="midnightblue" stroke="midnightblue" points="109.676,-42.5001 99.6758,-46 109.676,-49.5001 109.676,-42.5001"/>
</g>
<!-- Node3 -->
<g id="node5" class="node"><title>Node3</title>
<a xlink:href="../../d1/d92/classproject_1_1_add_gen_comp_dialog.html#a5951d1d20ef2d9675b3b1690d6799fa7" target="_top" xlink:title="project::AddGenCompDialog\l::on_listGenericComponents\l_currentItemChanged">
<polygon fill="white" stroke="black" points="314.5,-52.5 314.5,-99.5 455.5,-99.5 455.5,-52.5 314.5,-52.5"/>
<text text-anchor="start" x="322.5" y="-86.5" font-family="Helvetica,sans-Serif" font-size="10.00">project::AddGenCompDialog</text>
<text text-anchor="start" x="322.5" y="-73.5" font-family="Helvetica,sans-Serif" font-size="10.00">::on_listGenericComponents</text>
<text text-anchor="middle" x="385" y="-60.5" font-family="Helvetica,sans-Serif" font-size="10.00">_currentItemChanged</text>
</a>
</g>
<!-- Node2&#45;&gt;Node3 -->
<g id="edge4" class="edge"><title>Node2&#45;&gt;Node3</title>
<path fill="none" stroke="midnightblue" d="M287.646,-59.5921C296.599,-61.101 305.666,-62.6291 314.479,-64.1145"/>
<polygon fill="midnightblue" stroke="midnightblue" points="288.049,-56.1106 277.606,-57.8999 286.885,-63.0132 288.049,-56.1106"/>
</g>
<!-- Node4 -->
<g id="node7" class="node"><title>Node4</title>
<a xlink:href="../../d1/d92/classproject_1_1_add_gen_comp_dialog.html#ae968bf4d25607bdad3eb848014d999da" target="_top" xlink:title="project::AddGenCompDialog\l::setSelectedCategory">
<polygon fill="white" stroke="black" points="314.5,-0 314.5,-34 455.5,-34 455.5,-0 314.5,-0"/>
<text text-anchor="start" x="322.5" y="-21" font-family="Helvetica,sans-Serif" font-size="10.00">project::AddGenCompDialog</text>
<text text-anchor="middle" x="385" y="-8" font-family="Helvetica,sans-Serif" font-size="10.00">::setSelectedCategory</text>
</a>
</g>
<!-- Node2&#45;&gt;Node4 -->
<g id="edge6" class="edge"><title>Node2&#45;&gt;Node4</title>
<path fill="none" stroke="midnightblue" d="M287.646,-32.861C296.599,-31.4024 305.666,-29.9252 314.479,-28.4893"/>
<polygon fill="midnightblue" stroke="midnightblue" points="286.913,-29.4342 277.606,-34.4968 288.039,-36.3431 286.913,-29.4342"/>
</g>
<!-- Node5 -->
<g id="node9" class="node"><title>Node5</title>
<a xlink:href="../../d1/d92/classproject_1_1_add_gen_comp_dialog.html#ab30df3fcf42614694068294b48161b00" target="_top" xlink:title="project::AddGenCompDialog\l::treeCategories_currentItemChanged">
<polygon fill="white" stroke="black" points="492,-0 492,-34 672,-34 672,-0 492,-0"/>
<text text-anchor="start" x="500" y="-21" font-family="Helvetica,sans-Serif" font-size="10.00">project::AddGenCompDialog</text>
<text text-anchor="middle" x="582" y="-8" font-family="Helvetica,sans-Serif" font-size="10.00">::treeCategories_currentItemChanged</text>
</a>
</g>
<!-- Node4&#45;&gt;Node5 -->
<g id="edge8" class="edge"><title>Node4&#45;&gt;Node5</title>
<path fill="none" stroke="midnightblue" d="M465.654,-17C474.338,-17 483.213,-17 491.998,-17"/>
<polygon fill="midnightblue" stroke="midnightblue" points="465.565,-13.5001 455.565,-17 465.565,-20.5001 465.565,-13.5001"/>
</g>
<!-- Node6 -->
<g id="node11" class="node"><title>Node6</title>
<a xlink:href="../../d1/d92/classproject_1_1_add_gen_comp_dialog.html#a158bc6ffa6ab14d062e57c57929a197f" target="_top" xlink:title="project::AddGenCompDialog\l::AddGenCompDialog">
<polygon fill="white" stroke="black" points="708.5,-0 708.5,-34 849.5,-34 849.5,-0 708.5,-0"/>
<text text-anchor="start" x="716.5" y="-21" font-family="Helvetica,sans-Serif" font-size="10.00">project::AddGenCompDialog</text>
<text text-anchor="middle" x="779" y="-8" font-family="Helvetica,sans-Serif" font-size="10.00">::AddGenCompDialog</text>
</a>
</g>
<!-- Node5&#45;&gt;Node6 -->
<g id="edge10" class="edge"><title>Node5&#45;&gt;Node6</title>
<path fill="none" stroke="midnightblue" d="M682.422,-17C691.187,-17 699.932,-17 708.378,-17"/>
<polygon fill="midnightblue" stroke="midnightblue" points="682.14,-13.5001 672.14,-17 682.14,-20.5001 682.14,-13.5001"/>
</g>
</g>
</svg>
