<?xml version="1.0" encoding="UTF-8" standalone="no"?>
<!DOCTYPE svg PUBLIC "-//W3C//DTD SVG 1.1//EN"
 "http://www.w3.org/Graphics/SVG/1.1/DTD/svg11.dtd">
<!-- Generated by graphviz version 2.26.3 (20100126.1600)
 -->
<!-- Title: /home/travis/build/LibrePCB/LibrePCB/libs/librepcbproject/moc/moc_si_symbol.cpp Pages: 1 -->
<svg width="837pt" height="662pt"
 viewBox="0.00 0.00 837.00 662.00" xmlns="http://www.w3.org/2000/svg" xmlns:xlink="http://www.w3.org/1999/xlink">
<g id="graph1" class="graph" transform="scale(1 1) rotate(0) translate(4 658)">
<title>/home/travis/build/LibrePCB/LibrePCB/libs/librepcbproject/moc/moc_si_symbol.cpp</title>
<polygon fill="white" stroke="white" points="-4,5 -4,-658 834,-658 834,5 -4,5"/>
<!-- Node1 -->
<g id="node1" class="node"><title>Node1</title>
<polygon fill="#bfbfbf" stroke="black" points="363,-593 363,-653 489,-653 489,-593 363,-593"/>
<text text-anchor="start" x="371" y="-640" font-family="Helvetica,sans-Serif" font-size="10.00">/home/travis/build</text>
<text text-anchor="start" x="371" y="-627" font-family="Helvetica,sans-Serif" font-size="10.00">/LibrePCB/LibrePCB/libs</text>
<text text-anchor="start" x="371" y="-614" font-family="Helvetica,sans-Serif" font-size="10.00">/librepcbproject/moc/moc</text>
<text text-anchor="middle" x="426" y="-601" font-family="Helvetica,sans-Serif" font-size="10.00">_si_symbol.cpp</text>
</g>
<!-- Node2 -->
<g id="node3" class="node"><title>Node2</title>
<a xlink:href="../../df/dc0/si__symbol_8h.html" target="_top" xlink:title="../schematics/items\l/si_symbol.h">
<polygon fill="white" stroke="black" points="253.5,-521 253.5,-555 356.5,-555 356.5,-521 253.5,-521"/>
<text text-anchor="start" x="261.5" y="-542" font-family="Helvetica,sans-Serif" font-size="10.00">../schematics/items</text>
<text text-anchor="middle" x="305" y="-529" font-family="Helvetica,sans-Serif" font-size="10.00">/si_symbol.h</text>
</a>
</g>
<!-- Node1&#45;&gt;Node2 -->
<g id="edge2" class="edge"><title>Node1&#45;&gt;Node2</title>
<path fill="none" stroke="midnightblue" d="M382.999,-592.793C368.036,-582.282 351.51,-570.673 337.536,-560.856"/>
<polygon fill="midnightblue" stroke="midnightblue" points="339.397,-557.886 329.202,-555.002 335.373,-563.614 339.397,-557.886"/>
</g>
<!-- Node19 -->
<g id="node61" class="node"><title>Node19</title>
<polygon fill="white" stroke="#bfbfbf" points="373.5,-527.5 373.5,-548.5 478.5,-548.5 478.5,-527.5 373.5,-527.5"/>
<text text-anchor="middle" x="426" y="-535.5" font-family="Helvetica,sans-Serif" font-size="10.00">QtCore/qbytearray.h</text>
</g>
<!-- Node1&#45;&gt;Node19 -->
<g id="edge84" class="edge"><title>Node1&#45;&gt;Node19</title>
<path fill="none" stroke="midnightblue" d="M426,-592.793C426,-581.579 426,-569.116 426,-558.913"/>
<polygon fill="midnightblue" stroke="midnightblue" points="429.5,-558.895 426,-548.895 422.5,-558.895 429.5,-558.895"/>
</g>
<!-- Node20 -->
<g id="node63" class="node"><title>Node20</title>
<polygon fill="white" stroke="#bfbfbf" points="495.5,-527.5 495.5,-548.5 600.5,-548.5 600.5,-527.5 495.5,-527.5"/>
<text text-anchor="middle" x="548" y="-535.5" font-family="Helvetica,sans-Serif" font-size="10.00">QtCore/qmetatype.h</text>
</g>
<!-- Node1&#45;&gt;Node20 -->
<g id="edge86" class="edge"><title>Node1&#45;&gt;Node20</title>
<path fill="none" stroke="midnightblue" d="M469.356,-592.793C487.791,-579.949 508.579,-565.465 524.15,-554.616"/>
<polygon fill="midnightblue" stroke="midnightblue" points="526.455,-557.277 532.659,-548.689 522.453,-551.534 526.455,-557.277"/>
</g>
<!-- Node3 -->
<g id="node5" class="node"><title>Node3</title>
<polygon fill="white" stroke="#bfbfbf" points="281,-0.5 281,-21.5 329,-21.5 329,-0.5 281,-0.5"/>
<text text-anchor="middle" x="305" y="-8.5" font-family="Helvetica,sans-Serif" font-size="10.00">QtCore</text>
</g>
<!-- Node2&#45;&gt;Node3 -->
<g id="edge4" class="edge"><title>Node2&#45;&gt;Node3</title>
<path fill="none" stroke="midnightblue" d="M253.261,-526.032C166.243,-504.386 0,-455.855 0,-401 0,-401 0,-401 0,-127 3.55271e-15,-80.7159 36.6138,-78.722 78,-58 141.267,-26.3225 224.694,-15.9876 270.754,-12.6212"/>
<polygon fill="midnightblue" stroke="midnightblue" points="271.064,-16.1085 280.81,-11.9546 270.601,-9.12381 271.064,-16.1085"/>
</g>
<!-- Node4 -->
<g id="node7" class="node"><title>Node4</title>
<a xlink:href="../../d6/d1f/si__base_8h.html" target="_top" xlink:title="si_base.h">
<polygon fill="white" stroke="black" points="27.5,-325.5 27.5,-346.5 86.5,-346.5 86.5,-325.5 27.5,-325.5"/>
<text text-anchor="middle" x="57" y="-333.5" font-family="Helvetica,sans-Serif" font-size="10.00">si_base.h</text>
</a>
</g>
<!-- Node2&#45;&gt;Node4 -->
<g id="edge6" class="edge"><title>Node2&#45;&gt;Node4</title>
<path fill="none" stroke="midnightblue" d="M283.856,-520.778C236.99,-482.605 124.841,-391.257 78.0566,-353.151"/>
<polygon fill="midnightblue" stroke="midnightblue" points="80.076,-350.282 70.1121,-346.68 75.6552,-355.709 80.076,-350.282"/>
</g>
<!-- Node12 -->
<g id="node32" class="node"><title>Node12</title>
<a xlink:href="../../d0/d1d/if__xmlserializableobject_8h.html" target="_top" xlink:title="librepcbcommon/fileio\l/if_xmlserializableobject.h">
<polygon fill="white" stroke="black" points="428.5,-247 428.5,-281 557.5,-281 557.5,-247 428.5,-247"/>
<text text-anchor="start" x="436.5" y="-268" font-family="Helvetica,sans-Serif" font-size="10.00">librepcbcommon/fileio</text>
<text text-anchor="middle" x="493" y="-255" font-family="Helvetica,sans-Serif" font-size="10.00">/if_xmlserializableobject.h</text>
</a>
</g>
<!-- Node2&#45;&gt;Node12 -->
<g id="edge40" class="edge"><title>Node2&#45;&gt;Node12</title>
<path fill="none" stroke="midnightblue" d="M327.087,-520.968C339.154,-510.998 353.863,-497.703 365,-484 416.712,-420.373 460.705,-333.408 481.002,-290.359"/>
<polygon fill="midnightblue" stroke="midnightblue" points="484.251,-291.673 485.306,-281.131 477.907,-288.714 484.251,-291.673"/>
</g>
<!-- Node13 -->
<g id="node35" class="node"><title>Node13</title>
<a xlink:href="../../da/d81/if__attributeprovider_8h.html" target="_top" xlink:title="librepcbcommon/if_attributeprovider.h">
<polygon fill="white" stroke="black" points="650.5,-253.5 650.5,-274.5 829.5,-274.5 829.5,-253.5 650.5,-253.5"/>
<text text-anchor="middle" x="740" y="-261.5" font-family="Helvetica,sans-Serif" font-size="10.00">librepcbcommon/if_attributeprovider.h</text>
</a>
</g>
<!-- Node2&#45;&gt;Node13 -->
<g id="edge44" class="edge"><title>Node2&#45;&gt;Node13</title>
<path fill="none" stroke="midnightblue" d="M332.121,-520.988C349.053,-510.362 371.303,-496.392 391,-484 512.171,-407.767 656.875,-316.465 714.502,-280.095"/>
<polygon fill="midnightblue" stroke="midnightblue" points="716.709,-282.841 723.297,-274.544 712.973,-276.921 716.709,-282.841"/>
</g>
<!-- Node14 -->
<g id="node38" class="node"><title>Node14</title>
<a xlink:href="../../da/d9e/sgi__symbol_8h.html" target="_top" xlink:title="../graphicsitems/sgi\l_symbol.h">
<polygon fill="white" stroke="black" points="254,-449 254,-483 356,-483 356,-449 254,-449"/>
<text text-anchor="start" x="262" y="-470" font-family="Helvetica,sans-Serif" font-size="10.00">../graphicsitems/sgi</text>
<text text-anchor="middle" x="305" y="-457" font-family="Helvetica,sans-Serif" font-size="10.00">_symbol.h</text>
</a>
</g>
<!-- Node2&#45;&gt;Node14 -->
<g id="edge48" class="edge"><title>Node2&#45;&gt;Node14</title>
<path fill="none" stroke="midnightblue" d="M305,-520.937C305,-512.807 305,-502.876 305,-493.705"/>
<polygon fill="midnightblue" stroke="midnightblue" points="308.5,-493.441 305,-483.441 301.5,-493.441 308.5,-493.441"/>
</g>
<!-- Node4&#45;&gt;Node3 -->
<g id="edge8" class="edge"><title>Node4&#45;&gt;Node3</title>
<path fill="none" stroke="midnightblue" d="M54.5936,-325.226C49.481,-301.36 38,-242.181 38,-192 38,-192 38,-192 38,-127 38,-76.7819 198.895,-34.6279 270.888,-18.2797"/>
<polygon fill="midnightblue" stroke="midnightblue" points="271.839,-21.6536 280.835,-16.0571 270.312,-14.8221 271.839,-21.6536"/>
</g>
<!-- Node5 -->
<g id="node10" class="node"><title>Node5</title>
<polygon fill="white" stroke="#bfbfbf" points="65.5,-253.5 65.5,-274.5 128.5,-274.5 128.5,-253.5 65.5,-253.5"/>
<text text-anchor="middle" x="97" y="-261.5" font-family="Helvetica,sans-Serif" font-size="10.00">QtWidgets</text>
</g>
<!-- Node4&#45;&gt;Node5 -->
<g id="edge10" class="edge"><title>Node4&#45;&gt;Node5</title>
<path fill="none" stroke="midnightblue" d="M62.9021,-325.376C68.9877,-314.422 78.6165,-297.09 86.0921,-283.634"/>
<polygon fill="midnightblue" stroke="midnightblue" points="89.2767,-285.109 91.0736,-274.667 83.1576,-281.709 89.2767,-285.109"/>
</g>
<!-- Node6 -->
<g id="node12" class="node"><title>Node6</title>
<a xlink:href="../../d1/da8/all__length__units_8h.html" target="_top" xlink:title="librepcbcommon/units\l/all_length_units.h">
<polygon fill="white" stroke="black" points="184,-247 184,-281 296,-281 296,-247 184,-247"/>
<text text-anchor="start" x="192" y="-268" font-family="Helvetica,sans-Serif" font-size="10.00">librepcbcommon/units</text>
<text text-anchor="middle" x="240" y="-255" font-family="Helvetica,sans-Serif" font-size="10.00">/all_length_units.h</text>
</a>
</g>
<!-- Node4&#45;&gt;Node6 -->
<g id="edge12" class="edge"><title>Node4&#45;&gt;Node6</title>
<path fill="none" stroke="midnightblue" d="M84.0023,-325.376C110.968,-314.767 153.141,-298.174 186.842,-284.915"/>
<polygon fill="midnightblue" stroke="midnightblue" points="188.528,-288.013 196.552,-281.094 185.965,-281.499 188.528,-288.013"/>
</g>
<!-- Node7 -->
<g id="node14" class="node"><title>Node7</title>
<a xlink:href="../../d0/d09/lengthunit_8h.html" target="_top" xlink:title="lengthunit.h">
<polygon fill="white" stroke="black" points="332.5,-116.5 332.5,-137.5 399.5,-137.5 399.5,-116.5 332.5,-116.5"/>
<text text-anchor="middle" x="366" y="-124.5" font-family="Helvetica,sans-Serif" font-size="10.00">lengthunit.h</text>
</a>
</g>
<!-- Node6&#45;&gt;Node7 -->
<g id="edge14" class="edge"><title>Node6&#45;&gt;Node7</title>
<path fill="none" stroke="midnightblue" d="M255.703,-246.926C279.617,-220.924 324.958,-171.625 349.397,-145.053"/>
<polygon fill="midnightblue" stroke="midnightblue" points="352.07,-147.316 356.264,-137.586 346.918,-142.578 352.07,-147.316"/>
</g>
<!-- Node9 -->
<g id="node20" class="node"><title>Node9</title>
<a xlink:href="../../dd/db9/length_8h.html" target="_top" xlink:title="length.h">
<polygon fill="white" stroke="black" points="160.5,-116.5 160.5,-137.5 211.5,-137.5 211.5,-116.5 160.5,-116.5"/>
<text text-anchor="middle" x="186" y="-124.5" font-family="Helvetica,sans-Serif" font-size="10.00">length.h</text>
</a>
</g>
<!-- Node6&#45;&gt;Node9 -->
<g id="edge22" class="edge"><title>Node6&#45;&gt;Node9</title>
<path fill="none" stroke="midnightblue" d="M233.27,-246.926C223.286,-221.597 204.589,-174.16 193.946,-147.159"/>
<polygon fill="midnightblue" stroke="midnightblue" points="197.096,-145.606 190.173,-137.586 190.584,-148.173 197.096,-145.606"/>
</g>
<!-- Node10 -->
<g id="node24" class="node"><title>Node10</title>
<a xlink:href="../../d2/d91/point_8h.html" target="_top" xlink:title="point.h">
<polygon fill="white" stroke="black" points="141,-181.5 141,-202.5 187,-202.5 187,-181.5 141,-181.5"/>
<text text-anchor="middle" x="164" y="-189.5" font-family="Helvetica,sans-Serif" font-size="10.00">point.h</text>
</a>
</g>
<!-- Node6&#45;&gt;Node10 -->
<g id="edge28" class="edge"><title>Node6&#45;&gt;Node10</title>
<path fill="none" stroke="midnightblue" d="M221.989,-246.937C210.179,-235.748 194.767,-221.147 182.8,-209.811"/>
<polygon fill="midnightblue" stroke="midnightblue" points="185.173,-207.238 175.507,-202.901 180.359,-212.319 185.173,-207.238"/>
</g>
<!-- Node11 -->
<g id="node28" class="node"><title>Node11</title>
<a xlink:href="../../da/dac/angle_8h.html" target="_top" xlink:title="angle.h">
<polygon fill="white" stroke="black" points="229,-116.5 229,-137.5 277,-137.5 277,-116.5 229,-116.5"/>
<text text-anchor="middle" x="253" y="-124.5" font-family="Helvetica,sans-Serif" font-size="10.00">angle.h</text>
</a>
</g>
<!-- Node6&#45;&gt;Node11 -->
<g id="edge34" class="edge"><title>Node6&#45;&gt;Node11</title>
<path fill="none" stroke="midnightblue" d="M241.62,-246.926C244.002,-221.821 248.445,-174.998 251.019,-147.881"/>
<polygon fill="midnightblue" stroke="midnightblue" points="254.535,-147.872 251.995,-137.586 247.566,-147.211 254.535,-147.872"/>
</g>
<!-- Node7&#45;&gt;Node3 -->
<g id="edge16" class="edge"><title>Node7&#45;&gt;Node3</title>
<path fill="none" stroke="midnightblue" d="M366.155,-116.045C365.913,-101.84 363.942,-76.675 354,-58 347.831,-46.4114 337.755,-36.0103 328.339,-27.9568"/>
<polygon fill="midnightblue" stroke="midnightblue" points="330.331,-25.0667 320.35,-21.513 325.936,-30.5153 330.331,-25.0667"/>
</g>
<!-- Node8 -->
<g id="node17" class="node"><title>Node8</title>
<a xlink:href="../../d4/d03/exceptions_8h.html" target="_top" xlink:title="../exceptions.h">
<polygon fill="white" stroke="black" points="264.5,-58.5 264.5,-79.5 345.5,-79.5 345.5,-58.5 264.5,-58.5"/>
<text text-anchor="middle" x="305" y="-66.5" font-family="Helvetica,sans-Serif" font-size="10.00">../exceptions.h</text>
</a>
</g>
<!-- Node7&#45;&gt;Node8 -->
<g id="edge18" class="edge"><title>Node7&#45;&gt;Node8</title>
<path fill="none" stroke="midnightblue" d="M354.812,-116.362C346.041,-108.023 333.651,-96.2418 323.422,-86.5162"/>
<polygon fill="midnightblue" stroke="midnightblue" points="325.776,-83.9248 316.117,-79.5707 320.953,-88.9978 325.776,-83.9248"/>
</g>
<!-- Node8&#45;&gt;Node3 -->
<g id="edge20" class="edge"><title>Node8&#45;&gt;Node3</title>
<path fill="none" stroke="midnightblue" d="M305,-58.3619C305,-50.9219 305,-40.7427 305,-31.7276"/>
<polygon fill="midnightblue" stroke="midnightblue" points="308.5,-31.5706 305,-21.5707 301.5,-31.5707 308.5,-31.5706"/>
</g>
<!-- Node9&#45;&gt;Node3 -->
<g id="edge24" class="edge"><title>Node9&#45;&gt;Node3</title>
<path fill="none" stroke="midnightblue" d="M194.384,-116.178C205.502,-102.116 226.052,-77.1066 246,-58 257.305,-47.1721 270.915,-36.2091 282.214,-27.5978"/>
<polygon fill="midnightblue" stroke="midnightblue" points="284.428,-30.3126 290.327,-21.5122 280.227,-24.7129 284.428,-30.3126"/>
</g>
<!-- Node9&#45;&gt;Node8 -->
<g id="edge26" class="edge"><title>Node9&#45;&gt;Node8</title>
<path fill="none" stroke="midnightblue" d="M207.55,-116.497C226.136,-107.438 253.202,-94.2462 274.095,-84.0628"/>
<polygon fill="midnightblue" stroke="midnightblue" points="275.753,-87.1487 283.208,-79.6212 272.686,-80.8563 275.753,-87.1487"/>
</g>
<!-- Node10&#45;&gt;Node3 -->
<g id="edge30" class="edge"><title>Node10&#45;&gt;Node3</title>
<path fill="none" stroke="midnightblue" d="M158.656,-181.392C151.794,-166.196 141.904,-137.675 152,-116 174.85,-66.9416 233.594,-37.0544 271.285,-22.3027"/>
<polygon fill="midnightblue" stroke="midnightblue" points="272.716,-25.5038 280.844,-18.7078 270.252,-18.9518 272.716,-25.5038"/>
</g>
<!-- Node10&#45;&gt;Node9 -->
<g id="edge32" class="edge"><title>Node10&#45;&gt;Node9</title>
<path fill="none" stroke="midnightblue" d="M167.633,-181.267C170.772,-171.991 175.394,-158.336 179.215,-147.045"/>
<polygon fill="midnightblue" stroke="midnightblue" points="182.544,-148.128 182.435,-137.534 175.913,-145.884 182.544,-148.128"/>
</g>
<!-- Node11&#45;&gt;Node3 -->
<g id="edge36" class="edge"><title>Node11&#45;&gt;Node3</title>
<path fill="none" stroke="midnightblue" d="M251.079,-116.148C249.105,-102.054 247.401,-77.0088 256,-58 261.336,-46.2047 271.112,-35.8795 280.537,-27.9341"/>
<polygon fill="midnightblue" stroke="midnightblue" points="282.911,-30.5199 288.608,-21.5872 278.584,-25.0174 282.911,-30.5199"/>
</g>
<!-- Node11&#45;&gt;Node8 -->
<g id="edge38" class="edge"><title>Node11&#45;&gt;Node8</title>
<path fill="none" stroke="midnightblue" d="M262.538,-116.362C269.868,-108.186 280.163,-96.7025 288.781,-87.0907"/>
<polygon fill="midnightblue" stroke="midnightblue" points="291.453,-89.3528 295.523,-79.5707 286.241,-84.68 291.453,-89.3528"/>
</g>
<!-- Node12&#45;&gt;Node8 -->
<g id="edge42" class="edge"><title>Node12&#45;&gt;Node8</title>
<path fill="none" stroke="midnightblue" d="M508.696,-246.851C523.911,-228.047 542.7,-197.433 528,-174 490.613,-114.404 409.275,-88.0491 355.857,-76.8188"/>
<polygon fill="midnightblue" stroke="midnightblue" points="356.387,-73.3557 345.895,-74.8311 355.017,-80.2204 356.387,-73.3557"/>
</g>
<!-- Node13&#45;&gt;Node3 -->
<g id="edge46" class="edge"><title>Node13&#45;&gt;Node3</title>
<path fill="none" stroke="midnightblue" d="M738.2,-253.222C731.763,-218.354 706.448,-107.989 637,-58 589.941,-24.1273 415.094,-14.5114 339.826,-11.9119"/>
<polygon fill="midnightblue" stroke="midnightblue" points="339.578,-8.40221 329.47,-11.5773 339.352,-15.3986 339.578,-8.40221"/>
</g>
<!-- Node14&#45;&gt;Node3 -->
<g id="edge50" class="edge"><title>Node14&#45;&gt;Node3</title>
<path fill="none" stroke="midnightblue" d="M352.952,-448.994C441.788,-417.143 623,-350.408 623,-336 623,-336 623,-336 623,-127 623,-75.5326 576.95,-79.0861 530,-58 466.305,-29.3932 384.57,-17.9349 339.21,-13.5473"/>
<polygon fill="midnightblue" stroke="midnightblue" points="339.306,-10.0417 329.03,-12.6232 338.673,-17.013 339.306,-10.0417"/>
</g>
<!-- Node14&#45;&gt;Node5 -->
<g id="edge52" class="edge"><title>Node14&#45;&gt;Node5</title>
<path fill="none" stroke="midnightblue" d="M263.385,-448.866C223.978,-430.689 165.68,-398.443 130,-354 113.55,-333.51 104.838,-304.059 100.577,-284.496"/>
<polygon fill="midnightblue" stroke="midnightblue" points="103.976,-283.643 98.6022,-274.513 97.1096,-285.002 103.976,-283.643"/>
</g>
<!-- Node15 -->
<g id="node42" class="node"><title>Node15</title>
<a xlink:href="../../d4/d91/sgi__base_8h.html" target="_top" xlink:title="sgi_base.h">
<polygon fill="white" stroke="black" points="273,-390.5 273,-411.5 337,-411.5 337,-390.5 273,-390.5"/>
<text text-anchor="middle" x="305" y="-398.5" font-family="Helvetica,sans-Serif" font-size="10.00">sgi_base.h</text>
</a>
</g>
<!-- Node14&#45;&gt;Node15 -->
<g id="edge54" class="edge"><title>Node14&#45;&gt;Node15</title>
<path fill="none" stroke="midnightblue" d="M305,-448.922C305,-440.67 305,-430.692 305,-421.982"/>
<polygon fill="midnightblue" stroke="midnightblue" points="308.5,-421.852 305,-411.852 301.5,-421.852 308.5,-421.852"/>
</g>
<!-- Node15&#45;&gt;Node3 -->
<g id="edge56" class="edge"><title>Node15&#45;&gt;Node3</title>
<path fill="none" stroke="midnightblue" d="M337.12,-392.58C410.667,-372.358 585,-318.659 585,-264 585,-264 585,-264 585,-127 585,-74.359 413.95,-33.1424 339.234,-17.6497"/>
<polygon fill="midnightblue" stroke="midnightblue" points="339.856,-14.2046 329.358,-15.6358 338.457,-21.0635 339.856,-14.2046"/>
</g>
<!-- Node15&#45;&gt;Node5 -->
<g id="edge58" class="edge"><title>Node15&#45;&gt;Node5</title>
<path fill="none" stroke="midnightblue" d="M272.954,-394.92C244.29,-388.34 202.119,-375.749 171,-354 143.948,-335.093 121.319,-303.728 108.464,-283.465"/>
<polygon fill="midnightblue" stroke="midnightblue" points="111.334,-281.45 103.114,-274.767 105.372,-285.118 111.334,-281.45"/>
</g>
<!-- Node16 -->
<g id="node46" class="node"><title>Node16</title>
<a xlink:href="../../de/dd6/graphicsitem_8h.html" target="_top" xlink:title="librepcbcommon/graphics\l/graphicsitem.h">
<polygon fill="white" stroke="black" points="180,-319 180,-353 308,-353 308,-319 180,-319"/>
<text text-anchor="start" x="188" y="-340" font-family="Helvetica,sans-Serif" font-size="10.00">librepcbcommon/graphics</text>
<text text-anchor="middle" x="244" y="-327" font-family="Helvetica,sans-Serif" font-size="10.00">/graphicsitem.h</text>
</a>
</g>
<!-- Node15&#45;&gt;Node16 -->
<g id="edge60" class="edge"><title>Node15&#45;&gt;Node16</title>
<path fill="none" stroke="midnightblue" d="M294.927,-390.267C287.377,-382.221 276.735,-370.882 267.131,-360.648"/>
<polygon fill="midnightblue" stroke="midnightblue" points="269.452,-358.007 260.057,-353.11 264.348,-362.797 269.452,-358.007"/>
</g>
<!-- Node17 -->
<g id="node50" class="node"><title>Node17</title>
<a xlink:href="../../d1/d8d/schematic_8h.html" target="_top" xlink:title="../schematic.h">
<polygon fill="white" stroke="black" points="325.5,-325.5 325.5,-346.5 404.5,-346.5 404.5,-325.5 325.5,-325.5"/>
<text text-anchor="middle" x="365" y="-333.5" font-family="Helvetica,sans-Serif" font-size="10.00">../schematic.h</text>
</a>
</g>
<!-- Node15&#45;&gt;Node17 -->
<g id="edge66" class="edge"><title>Node15&#45;&gt;Node17</title>
<path fill="none" stroke="midnightblue" d="M314.908,-390.267C323.994,-380.423 337.633,-365.648 348.385,-354"/>
<polygon fill="midnightblue" stroke="midnightblue" points="351.066,-356.256 355.277,-346.534 345.922,-351.508 351.066,-356.256"/>
</g>
<!-- Node16&#45;&gt;Node3 -->
<g id="edge62" class="edge"><title>Node16&#45;&gt;Node3</title>
<path fill="none" stroke="midnightblue" d="M217.499,-318.783C203.785,-309.049 187.373,-296.035 175,-282 150.351,-254.041 141.913,-245.93 132,-210 127.745,-194.576 130.503,-189.93 132,-174 137.131,-119.41 132.497,-93.8324 174,-58 201.609,-34.1627 242.21,-22.0951 270.88,-16.2053"/>
<polygon fill="midnightblue" stroke="midnightblue" points="271.688,-19.6144 280.856,-14.3046 270.378,-12.7381 271.688,-19.6144"/>
</g>
<!-- Node16&#45;&gt;Node5 -->
<g id="edge64" class="edge"><title>Node16&#45;&gt;Node5</title>
<path fill="none" stroke="midnightblue" d="M209.163,-318.937C184.538,-306.876 151.819,-290.85 128.078,-279.222"/>
<polygon fill="midnightblue" stroke="midnightblue" points="129.342,-275.944 118.821,-274.688 126.262,-282.23 129.342,-275.944"/>
</g>
<!-- Node17&#45;&gt;Node3 -->
<g id="edge68" class="edge"><title>Node17&#45;&gt;Node3</title>
<path fill="none" stroke="midnightblue" d="M367.272,-325.381C372.815,-299.491 387.497,-231.057 400,-174 405.57,-148.581 415.289,-140.98 408,-116 399.435,-86.6478 392.063,-80.1647 371,-58 359.694,-46.1022 344.983,-35.2864 332.32,-27.0379"/>
<polygon fill="midnightblue" stroke="midnightblue" points="333.866,-23.8753 323.54,-21.5067 330.135,-29.7981 333.866,-23.8753"/>
</g>
<!-- Node17&#45;&gt;Node5 -->
<g id="edge70" class="edge"><title>Node17&#45;&gt;Node5</title>
<path fill="none" stroke="midnightblue" d="M338.534,-325.438C331.585,-322.84 324.058,-320.181 317,-318 283.995,-307.8 192.685,-286.169 138.635,-273.6"/>
<polygon fill="midnightblue" stroke="midnightblue" points="139.207,-270.139 128.675,-271.288 137.624,-276.958 139.207,-270.139"/>
</g>
<!-- Node17&#45;&gt;Node6 -->
<g id="edge76" class="edge"><title>Node17&#45;&gt;Node6</title>
<path fill="none" stroke="midnightblue" d="M346.556,-325.376C328.69,-315.085 301.051,-299.166 278.4,-286.118"/>
<polygon fill="midnightblue" stroke="midnightblue" points="280.09,-283.053 269.678,-281.094 276.596,-289.119 280.09,-283.053"/>
</g>
<!-- Node17&#45;&gt;Node8 -->
<g id="edge82" class="edge"><title>Node17&#45;&gt;Node8</title>
<path fill="none" stroke="midnightblue" d="M361.544,-325.316C358.106,-314.474 352.808,-297.174 349,-282 331.433,-211.999 315.57,-127.793 308.66,-89.6134"/>
<polygon fill="midnightblue" stroke="midnightblue" points="312.094,-88.9346 306.882,-79.7105 305.204,-90.1716 312.094,-88.9346"/>
</g>
<!-- Node17&#45;&gt;Node12 -->
<g id="edge74" class="edge"><title>Node17&#45;&gt;Node12</title>
<path fill="none" stroke="midnightblue" d="M383.887,-325.376C402.182,-315.085 430.483,-299.166 453.678,-286.118"/>
<polygon fill="midnightblue" stroke="midnightblue" points="455.61,-289.048 462.61,-281.094 452.178,-282.947 455.61,-289.048"/>
</g>
<!-- Node17&#45;&gt;Node13 -->
<g id="edge72" class="edge"><title>Node17&#45;&gt;Node13</title>
<path fill="none" stroke="midnightblue" d="M404.777,-328.363C469.269,-315.98 597.261,-291.406 675.087,-276.463"/>
<polygon fill="midnightblue" stroke="midnightblue" points="676.096,-279.834 685.257,-274.511 674.776,-272.959 676.096,-279.834"/>
</g>
<!-- Node18 -->
<g id="node57" class="node"><title>Node18</title>
<a xlink:href="../../dd/dec/filepath_8h.html" target="_top" xlink:title="librepcbcommon/fileio\l/filepath.h">
<polygon fill="white" stroke="black" points="408.5,-175 408.5,-209 519.5,-209 519.5,-175 408.5,-175"/>
<text text-anchor="start" x="416.5" y="-196" font-family="Helvetica,sans-Serif" font-size="10.00">librepcbcommon/fileio</text>
<text text-anchor="middle" x="464" y="-183" font-family="Helvetica,sans-Serif" font-size="10.00">/filepath.h</text>
</a>
</g>
<!-- Node17&#45;&gt;Node18 -->
<g id="edge78" class="edge"><title>Node17&#45;&gt;Node18</title>
<path fill="none" stroke="midnightblue" d="M370.828,-325.452C380.418,-308.337 400.423,-273.647 420,-246 426.956,-236.177 435.154,-225.829 442.577,-216.85"/>
<polygon fill="midnightblue" stroke="midnightblue" points="445.379,-218.956 449.118,-209.043 440.013,-214.46 445.379,-218.956"/>
</g>
<!-- Node18&#45;&gt;Node3 -->
<g id="edge80" class="edge"><title>Node18&#45;&gt;Node3</title>
<path fill="none" stroke="midnightblue" d="M466.156,-174.929C468.683,-147.039 469.418,-91.4653 441,-58 427.644,-42.272 374.895,-27.2716 339.154,-18.6088"/>
<polygon fill="midnightblue" stroke="midnightblue" points="339.659,-15.1316 329.121,-16.2341 338.046,-21.9434 339.659,-15.1316"/>
</g>
</g>
</svg>
