<?xml version="1.0" encoding="UTF-8" standalone="no"?>
<!DOCTYPE svg PUBLIC "-//W3C//DTD SVG 1.1//EN"
 "http://www.w3.org/Graphics/SVG/1.1/DTD/svg11.dtd">
<!-- Generated by graphviz version 2.26.3 (20100126.1600)
 -->
<!-- Title: getUndoText Pages: 1 -->
<svg width="1222pt" height="328pt"
 viewBox="0.00 0.00 1222.00 328.00" xmlns="http://www.w3.org/2000/svg" xmlns:xlink="http://www.w3.org/1999/xlink">
<g id="graph1" class="graph" transform="scale(1 1) rotate(0) translate(4 324)">
<title>getUndoText</title>
<polygon fill="white" stroke="white" points="-4,5 -4,-324 1219,-324 1219,5 -4,5"/>
<!-- Node1 -->
<g id="node1" class="node"><title>Node1</title>
<polygon fill="#bfbfbf" stroke="black" points="0.5,-127.5 0.5,-148.5 73.5,-148.5 73.5,-127.5 0.5,-127.5"/>
<text text-anchor="middle" x="37" y="-135.5" font-family="Helvetica,sans-Serif" font-size="10.00">getUndoText</text>
</g>
<!-- Node2 -->
<g id="node3" class="node"><title>Node2</title>
<a xlink:href="../../d4/d90/class_undo_stack.html#a4569aea2e8254c626ce894aac55866e9" target="_top" xlink:title="End the currently active command and revert the changes. ">
<polygon fill="white" stroke="black" points="110.5,-167.5 110.5,-188.5 193.5,-188.5 193.5,-167.5 110.5,-167.5"/>
<text text-anchor="middle" x="152" y="-175.5" font-family="Helvetica,sans-Serif" font-size="10.00">abortCommand</text>
</a>
</g>
<!-- Node1&#45;&gt;Node2 -->
<g id="edge2" class="edge"><title>Node1&#45;&gt;Node2</title>
<path fill="none" stroke="midnightblue" d="M77.0203,-151.92C91.6448,-157.007 107.936,-162.674 121.588,-167.422"/>
<polygon fill="midnightblue" stroke="midnightblue" points="77.8097,-148.489 67.2149,-148.51 75.51,-155.101 77.8097,-148.489"/>
</g>
<!-- Node17 -->
<g id="node37" class="node"><title>Node17</title>
<a xlink:href="../../d4/d90/class_undo_stack.html#a0e1e7804a53f6d62efc72c9bdbec8571" target="_top" xlink:title="Undo the last command. ">
<polygon fill="white" stroke="black" points="133,-127.5 133,-148.5 171,-148.5 171,-127.5 133,-127.5"/>
<text text-anchor="middle" x="152" y="-135.5" font-family="Helvetica,sans-Serif" font-size="10.00">undo</text>
</a>
</g>
<!-- Node1&#45;&gt;Node17 -->
<g id="edge40" class="edge"><title>Node1&#45;&gt;Node17</title>
<path fill="none" stroke="midnightblue" d="M84.1485,-138C101.279,-138 119.677,-138 132.988,-138"/>
<polygon fill="midnightblue" stroke="midnightblue" points="83.7029,-134.5 73.7029,-138 83.7029,-141.5 83.7029,-134.5"/>
</g>
<!-- Node18 -->
<g id="node39" class="node"><title>Node18</title>
<a xlink:href="../../d4/d90/class_undo_stack.html#a93c48d6ed036e1a381be53ac67643284" target="_top" xlink:title="Redo the last undoed command. ">
<polygon fill="white" stroke="black" points="134.5,-87.5 134.5,-108.5 169.5,-108.5 169.5,-87.5 134.5,-87.5"/>
<text text-anchor="middle" x="152" y="-95.5" font-family="Helvetica,sans-Serif" font-size="10.00">redo</text>
</a>
</g>
<!-- Node1&#45;&gt;Node18 -->
<g id="edge42" class="edge"><title>Node1&#45;&gt;Node18</title>
<path fill="none" stroke="midnightblue" d="M76.868,-124.133C96.5275,-117.295 119.231,-109.398 134.491,-104.09"/>
<polygon fill="midnightblue" stroke="midnightblue" points="75.51,-120.899 67.2149,-127.49 77.8097,-127.511 75.51,-120.899"/>
</g>
<!-- Node3 -->
<g id="node5" class="node"><title>Node3</title>
<a xlink:href="../../d4/d90/class_undo_stack.html#a82aa679ad2c2cc3c5a2ad82d7564b0b6" target="_top" xlink:title="End the currently active command and keep the changes. ">
<polygon fill="white" stroke="black" points="275.5,-188.5 275.5,-209.5 352.5,-209.5 352.5,-188.5 275.5,-188.5"/>
<text text-anchor="middle" x="314" y="-196.5" font-family="Helvetica,sans-Serif" font-size="10.00">endCommand</text>
</a>
</g>
<!-- Node2&#45;&gt;Node3 -->
<g id="edge4" class="edge"><title>Node2&#45;&gt;Node3</title>
<path fill="none" stroke="midnightblue" d="M203.776,-184.712C227.046,-187.728 254.032,-191.226 275.478,-194.006"/>
<polygon fill="midnightblue" stroke="midnightblue" points="204.086,-181.223 193.719,-183.408 203.186,-188.165 204.086,-181.223"/>
</g>
<!-- Node4 -->
<g id="node7" class="node"><title>Node4</title>
<a xlink:href="../../d3/d8f/classproject_1_1_edit_net_classes_dialog.html#a38d29d574ff2e50d278b577e11300366" target="_top" xlink:title="project::EditNetClassesDialog\l::~EditNetClassesDialog">
<polygon fill="white" stroke="black" points="443.5,-286 443.5,-320 592.5,-320 592.5,-286 443.5,-286"/>
<text text-anchor="start" x="451.5" y="-307" font-family="Helvetica,sans-Serif" font-size="10.00">project::EditNetClassesDialog</text>
<text text-anchor="middle" x="518" y="-294" font-family="Helvetica,sans-Serif" font-size="10.00">::~EditNetClassesDialog</text>
</a>
</g>
<!-- Node2&#45;&gt;Node4 -->
<g id="edge30" class="edge"><title>Node2&#45;&gt;Node4</title>
<path fill="none" stroke="midnightblue" d="M167.35,-196.227C181.834,-212.179 205.007,-234.675 230,-247 297.497,-280.286 383.016,-293.804 443.27,-299.284"/>
<polygon fill="midnightblue" stroke="midnightblue" points="169.841,-193.759 160.604,-188.57 164.589,-198.387 169.841,-193.759"/>
</g>
<!-- Node5 -->
<g id="node9" class="node"><title>Node5</title>
<a xlink:href="../../dd/db6/classproject_1_1_project_properties_editor_dialog.html#ac5b9ac3ae6ade6886893179b59302ec1" target="_top" xlink:title="project::ProjectProperties\lEditorDialog::applyChanges">
<polygon fill="white" stroke="black" points="449,-234 449,-268 587,-268 587,-234 449,-234"/>
<text text-anchor="start" x="457" y="-255" font-family="Helvetica,sans-Serif" font-size="10.00">project::ProjectProperties</text>
<text text-anchor="middle" x="518" y="-242" font-family="Helvetica,sans-Serif" font-size="10.00">EditorDialog::applyChanges</text>
</a>
</g>
<!-- Node2&#45;&gt;Node5 -->
<g id="edge32" class="edge"><title>Node2&#45;&gt;Node5</title>
<path fill="none" stroke="midnightblue" d="M176.547,-193.953C191.415,-202.823 211.103,-213.21 230,-219 302.512,-241.216 389.492,-248.364 448.756,-250.486"/>
<polygon fill="midnightblue" stroke="midnightblue" points="178.315,-190.931 167.962,-188.68 174.651,-196.896 178.315,-190.931"/>
</g>
<!-- Node8 -->
<g id="node15" class="node"><title>Node8</title>
<a xlink:href="../../d8/d8b/classproject_1_1_s_e_s___select.html#a75183dd285ebb13d41213f4dfe420907" target="_top" xlink:title="project::SES_Select\l::removeSelectedItems">
<polygon fill="white" stroke="black" points="459,-130 459,-164 577,-164 577,-130 459,-130"/>
<text text-anchor="start" x="467" y="-151" font-family="Helvetica,sans-Serif" font-size="10.00">project::SES_Select</text>
<text text-anchor="middle" x="518" y="-138" font-family="Helvetica,sans-Serif" font-size="10.00">::removeSelectedItems</text>
</a>
</g>
<!-- Node2&#45;&gt;Node8 -->
<g id="edge34" class="edge"><title>Node2&#45;&gt;Node8</title>
<path fill="none" stroke="midnightblue" d="M203.989,-173.597C271.294,-167.896 388.301,-157.985 458.906,-152.005"/>
<polygon fill="midnightblue" stroke="midnightblue" points="203.297,-170.143 193.629,-174.474 203.888,-177.118 203.297,-170.143"/>
</g>
<!-- Node13 -->
<g id="node25" class="node"><title>Node13</title>
<a xlink:href="../../d4/d90/class_undo_stack.html#a03bfacfaaba9195e4498375659f43531" target="_top" xlink:title="Clear the whole stack (delete all UndoCommand objects) ">
<polygon fill="white" stroke="black" points="295,-46.5 295,-67.5 333,-67.5 333,-46.5 295,-46.5"/>
<text text-anchor="middle" x="314" y="-54.5" font-family="Helvetica,sans-Serif" font-size="10.00">clear</text>
</a>
</g>
<!-- Node2&#45;&gt;Node13 -->
<g id="edge24" class="edge"><title>Node2&#45;&gt;Node13</title>
<path fill="none" stroke="midnightblue" d="M189.993,-161.586C191.407,-160.458 192.751,-159.264 194,-158 220.835,-130.84 200.867,-104.679 230,-80 248.344,-64.4605 276.305,-59.3516 294.86,-57.7109"/>
<polygon fill="midnightblue" stroke="midnightblue" points="187.718,-158.894 181.307,-167.33 191.579,-164.733 187.718,-158.894"/>
</g>
<!-- Node16 -->
<g id="node34" class="node"><title>Node16</title>
<a xlink:href="../../d9/de8/classproject_1_1_symbol_instance_properties_dialog.html#afc217cc9d5f5bd26ab99f2af1b932668" target="_top" xlink:title="project::SymbolInstanceProperties\lDialog::abortCmd">
<polygon fill="white" stroke="black" points="230.5,-89 230.5,-123 397.5,-123 397.5,-89 230.5,-89"/>
<text text-anchor="start" x="238.5" y="-110" font-family="Helvetica,sans-Serif" font-size="10.00">project::SymbolInstanceProperties</text>
<text text-anchor="middle" x="314" y="-97" font-family="Helvetica,sans-Serif" font-size="10.00">Dialog::abortCmd</text>
</a>
</g>
<!-- Node2&#45;&gt;Node16 -->
<g id="edge36" class="edge"><title>Node2&#45;&gt;Node16</title>
<path fill="none" stroke="midnightblue" d="M184.734,-163.251C198.676,-156.986 215.124,-149.614 230,-143 244.707,-136.462 260.884,-129.323 275.082,-123.076"/>
<polygon fill="midnightblue" stroke="midnightblue" points="183.217,-160.096 175.533,-167.39 186.089,-166.48 183.217,-160.096"/>
</g>
<!-- Node3&#45;&gt;Node4 -->
<g id="edge6" class="edge"><title>Node3&#45;&gt;Node4</title>
<path fill="none" stroke="midnightblue" d="M335.797,-215.831C359.051,-233.131 397.491,-259.889 434,-277 440.912,-280.239 448.328,-283.205 455.787,-285.88"/>
<polygon fill="midnightblue" stroke="midnightblue" points="337.757,-212.925 327.664,-209.703 333.545,-218.516 337.757,-212.925"/>
</g>
<!-- Node3&#45;&gt;Node5 -->
<g id="edge8" class="edge"><title>Node3&#45;&gt;Node5</title>
<path fill="none" stroke="midnightblue" d="M362.653,-211.402C389.14,-218.153 422.307,-226.608 451.185,-233.969"/>
<polygon fill="midnightblue" stroke="midnightblue" points="363.406,-207.982 352.851,-208.903 361.677,-214.765 363.406,-207.982"/>
</g>
<!-- Node3&#45;&gt;Node8 -->
<g id="edge14" class="edge"><title>Node3&#45;&gt;Node8</title>
<path fill="none" stroke="midnightblue" d="M362.701,-186.586C391.546,-179.233 428.299,-169.865 458.81,-162.088"/>
<polygon fill="midnightblue" stroke="midnightblue" points="361.677,-183.235 352.851,-189.097 363.406,-190.018 361.677,-183.235"/>
</g>
<!-- Node9 -->
<g id="node17" class="node"><title>Node9</title>
<a xlink:href="../../d9/de8/classproject_1_1_symbol_instance_properties_dialog.html#afd1bce071dc634026d41b91abd1498ba" target="_top" xlink:title="project::SymbolInstanceProperties\lDialog::endCmd">
<polygon fill="white" stroke="black" points="434.5,-182 434.5,-216 601.5,-216 601.5,-182 434.5,-182"/>
<text text-anchor="start" x="442.5" y="-203" font-family="Helvetica,sans-Serif" font-size="10.00">project::SymbolInstanceProperties</text>
<text text-anchor="middle" x="518" y="-190" font-family="Helvetica,sans-Serif" font-size="10.00">Dialog::endCmd</text>
</a>
</g>
<!-- Node3&#45;&gt;Node9 -->
<g id="edge16" class="edge"><title>Node3&#45;&gt;Node9</title>
<path fill="none" stroke="midnightblue" d="M362.95,-199C384.276,-199 409.888,-199 434.095,-199"/>
<polygon fill="midnightblue" stroke="midnightblue" points="362.851,-195.5 352.851,-199 362.851,-202.5 362.851,-195.5"/>
</g>
<!-- Node6 -->
<g id="node11" class="node"><title>Node6</title>
<a xlink:href="../../dd/db6/classproject_1_1_project_properties_editor_dialog.html#aadb9f3b844fb4cf98288cd3c60a3af91" target="_top" xlink:title="project::ProjectProperties\lEditorDialog::accept">
<polygon fill="white" stroke="black" points="658.5,-234 658.5,-268 785.5,-268 785.5,-234 658.5,-234"/>
<text text-anchor="start" x="666.5" y="-255" font-family="Helvetica,sans-Serif" font-size="10.00">project::ProjectProperties</text>
<text text-anchor="middle" x="722" y="-242" font-family="Helvetica,sans-Serif" font-size="10.00">EditorDialog::accept</text>
</a>
</g>
<!-- Node5&#45;&gt;Node6 -->
<g id="edge10" class="edge"><title>Node5&#45;&gt;Node6</title>
<path fill="none" stroke="midnightblue" d="M597.179,-251C617.379,-251 638.838,-251 658.161,-251"/>
<polygon fill="midnightblue" stroke="midnightblue" points="597.065,-247.5 587.065,-251 597.065,-254.5 597.065,-247.5"/>
</g>
<!-- Node7 -->
<g id="node13" class="node"><title>Node7</title>
<a xlink:href="../../dd/db6/classproject_1_1_project_properties_editor_dialog.html#a9e53392568d47bcb31ccbde9917efb0c" target="_top" xlink:title="project::ProjectProperties\lEditorDialog::keyPressEvent">
<polygon fill="white" stroke="black" points="854.5,-234 854.5,-268 997.5,-268 997.5,-234 854.5,-234"/>
<text text-anchor="start" x="862.5" y="-255" font-family="Helvetica,sans-Serif" font-size="10.00">project::ProjectProperties</text>
<text text-anchor="middle" x="926" y="-242" font-family="Helvetica,sans-Serif" font-size="10.00">EditorDialog::keyPressEvent</text>
</a>
</g>
<!-- Node6&#45;&gt;Node7 -->
<g id="edge12" class="edge"><title>Node6&#45;&gt;Node7</title>
<path fill="none" stroke="midnightblue" d="M795.818,-251C814.856,-251 835.315,-251 854.246,-251"/>
<polygon fill="midnightblue" stroke="midnightblue" points="795.708,-247.5 785.708,-251 795.708,-254.5 795.708,-247.5"/>
</g>
<!-- Node10 -->
<g id="node19" class="node"><title>Node10</title>
<a xlink:href="../../d9/de8/classproject_1_1_symbol_instance_properties_dialog.html#ac5b9ac3ae6ade6886893179b59302ec1" target="_top" xlink:title="project::SymbolInstanceProperties\lDialog::applyChanges">
<polygon fill="white" stroke="black" points="638.5,-134 638.5,-168 805.5,-168 805.5,-134 638.5,-134"/>
<text text-anchor="start" x="646.5" y="-155" font-family="Helvetica,sans-Serif" font-size="10.00">project::SymbolInstanceProperties</text>
<text text-anchor="middle" x="722" y="-142" font-family="Helvetica,sans-Serif" font-size="10.00">Dialog::applyChanges</text>
</a>
</g>
<!-- Node9&#45;&gt;Node10 -->
<g id="edge18" class="edge"><title>Node9&#45;&gt;Node10</title>
<path fill="none" stroke="midnightblue" d="M600.538,-179.579C616.832,-175.745 633.814,-171.75 649.736,-168.003"/>
<polygon fill="midnightblue" stroke="midnightblue" points="599.43,-176.244 590.497,-181.942 601.033,-183.058 599.43,-176.244"/>
</g>
<!-- Node11 -->
<g id="node21" class="node"><title>Node11</title>
<a xlink:href="../../d9/de8/classproject_1_1_symbol_instance_properties_dialog.html#aadb9f3b844fb4cf98288cd3c60a3af91" target="_top" xlink:title="project::SymbolInstanceProperties\lDialog::accept">
<polygon fill="white" stroke="black" points="842.5,-134 842.5,-168 1009.5,-168 1009.5,-134 842.5,-134"/>
<text text-anchor="start" x="850.5" y="-155" font-family="Helvetica,sans-Serif" font-size="10.00">project::SymbolInstanceProperties</text>
<text text-anchor="middle" x="926" y="-142" font-family="Helvetica,sans-Serif" font-size="10.00">Dialog::accept</text>
</a>
</g>
<!-- Node10&#45;&gt;Node11 -->
<g id="edge20" class="edge"><title>Node10&#45;&gt;Node11</title>
<path fill="none" stroke="midnightblue" d="M815.845,-151C824.649,-151 833.534,-151 842.237,-151"/>
<polygon fill="midnightblue" stroke="midnightblue" points="815.563,-147.5 805.563,-151 815.563,-154.5 815.563,-147.5"/>
</g>
<!-- Node12 -->
<g id="node23" class="node"><title>Node12</title>
<a xlink:href="../../d9/de8/classproject_1_1_symbol_instance_properties_dialog.html#a9e53392568d47bcb31ccbde9917efb0c" target="_top" xlink:title="project::SymbolInstanceProperties\lDialog::keyPressEvent">
<polygon fill="white" stroke="black" points="1046.5,-134 1046.5,-168 1213.5,-168 1213.5,-134 1046.5,-134"/>
<text text-anchor="start" x="1054.5" y="-155" font-family="Helvetica,sans-Serif" font-size="10.00">project::SymbolInstanceProperties</text>
<text text-anchor="middle" x="1130" y="-142" font-family="Helvetica,sans-Serif" font-size="10.00">Dialog::keyPressEvent</text>
</a>
</g>
<!-- Node11&#45;&gt;Node12 -->
<g id="edge22" class="edge"><title>Node11&#45;&gt;Node12</title>
<path fill="none" stroke="midnightblue" d="M1019.84,-151C1028.65,-151 1037.53,-151 1046.24,-151"/>
<polygon fill="midnightblue" stroke="midnightblue" points="1019.56,-147.5 1009.56,-151 1019.56,-154.5 1019.56,-147.5"/>
</g>
<!-- Node14 -->
<g id="node27" class="node"><title>Node14</title>
<a xlink:href="../../d4/d90/class_undo_stack.html#a630bb7c7b154364cfccb2638ab80ff49" target="_top" xlink:title="The destructor (will also call clear()) ">
<polygon fill="white" stroke="black" points="482.5,-0.5 482.5,-21.5 553.5,-21.5 553.5,-0.5 482.5,-0.5"/>
<text text-anchor="middle" x="518" y="-8.5" font-family="Helvetica,sans-Serif" font-size="10.00">~UndoStack</text>
</a>
</g>
<!-- Node13&#45;&gt;Node14 -->
<g id="edge26" class="edge"><title>Node13&#45;&gt;Node14</title>
<path fill="none" stroke="midnightblue" d="M343.25,-50.4043C379.966,-42.1253 442.906,-27.9331 482.386,-19.0307"/>
<polygon fill="midnightblue" stroke="midnightblue" points="342.177,-47.0584 333.192,-52.6724 343.717,-53.887 342.177,-47.0584"/>
</g>
<!-- Node15 -->
<g id="node29" class="node"><title>Node15</title>
<a xlink:href="../../d3/dd6/classproject_1_1_project_editor.html#ae01fee4b95fd8ed359ca04a547055bec" target="_top" xlink:title="The destructor. ">
<polygon fill="white" stroke="black" points="464,-40 464,-74 572,-74 572,-40 464,-40"/>
<text text-anchor="start" x="472" y="-61" font-family="Helvetica,sans-Serif" font-size="10.00">project::ProjectEditor</text>
<text text-anchor="middle" x="518" y="-48" font-family="Helvetica,sans-Serif" font-size="10.00">::~ProjectEditor</text>
</a>
</g>
<!-- Node13&#45;&gt;Node15 -->
<g id="edge28" class="edge"><title>Node13&#45;&gt;Node15</title>
<path fill="none" stroke="midnightblue" d="M343.435,-57C374.769,-57 425.053,-57 463.623,-57"/>
<polygon fill="midnightblue" stroke="midnightblue" points="343.192,-53.5001 333.192,-57 343.192,-60.5001 343.192,-53.5001"/>
</g>
<!-- Node16&#45;&gt;Node10 -->
<g id="edge38" class="edge"><title>Node16&#45;&gt;Node10</title>
<path fill="none" stroke="midnightblue" d="M407.604,-106.32C464.16,-107.641 537.537,-111.356 602,-121 622.282,-124.034 644.132,-128.98 663.557,-133.988"/>
<polygon fill="midnightblue" stroke="midnightblue" points="407.677,-102.82 397.605,-106.107 407.528,-109.819 407.677,-102.82"/>
</g>
</g>
</svg>
