<?xml version="1.0" encoding="UTF-8" standalone="no"?>
<!DOCTYPE svg PUBLIC "-//W3C//DTD SVG 1.1//EN"
 "http://www.w3.org/Graphics/SVG/1.1/DTD/svg11.dtd">
<!-- Generated by graphviz version 2.26.3 (20100126.1600)
 -->
<!-- Title: canRedo Pages: 1 -->
<svg width="248pt" height="79pt"
 viewBox="0.00 0.00 248.00 79.00" xmlns="http://www.w3.org/2000/svg" xmlns:xlink="http://www.w3.org/1999/xlink">
<g id="graph1" class="graph" transform="scale(1 1) rotate(0) translate(4 75)">
<title>canRedo</title>
<polygon fill="white" stroke="white" points="-4,5 -4,-75 245,-75 245,5 -4,5"/>
<!-- Node1 -->
<g id="node1" class="node"><title>Node1</title>
<polygon fill="#bfbfbf" stroke="black" points="0,-20.5 0,-41.5 56,-41.5 56,-20.5 0,-20.5"/>
<text text-anchor="middle" x="28" y="-28.5" font-family="Helvetica,sans-Serif" font-size="10.00">canRedo</text>
</g>
<!-- Node2 -->
<g id="node3" class="node"><title>Node2</title>
<a xlink:href="../../d4/d90/class_undo_stack.html#a9482dad85e92eb354629b5c47e8b57f5" target="_top" xlink:title="Get the text for the redo action. ">
<polygon fill="white" stroke="black" points="92.5,-20.5 92.5,-41.5 165.5,-41.5 165.5,-20.5 92.5,-20.5"/>
<text text-anchor="middle" x="129" y="-28.5" font-family="Helvetica,sans-Serif" font-size="10.00">getRedoText</text>
</a>
</g>
<!-- Node1&#45;&gt;Node2 -->
<g id="edge2" class="edge"><title>Node1&#45;&gt;Node2</title>
<path fill="none" stroke="midnightblue" d="M66.2428,-31C74.7915,-31 83.8389,-31 92.3224,-31"/>
<polygon fill="midnightblue" stroke="midnightblue" points="66.1342,-27.5001 56.1341,-31 66.1341,-34.5001 66.1342,-27.5001"/>
</g>
<!-- Node3 -->
<g id="node5" class="node"><title>Node3</title>
<a xlink:href="../../d4/d90/class_undo_stack.html#a0e1e7804a53f6d62efc72c9bdbec8571" target="_top" xlink:title="Undo the last command. ">
<polygon fill="white" stroke="black" points="202,-49.5 202,-70.5 240,-70.5 240,-49.5 202,-49.5"/>
<text text-anchor="middle" x="221" y="-57.5" font-family="Helvetica,sans-Serif" font-size="10.00">undo</text>
</a>
</g>
<!-- Node1&#45;&gt;Node3 -->
<g id="edge8" class="edge"><title>Node1&#45;&gt;Node3</title>
<path fill="none" stroke="midnightblue" d="M65.9574,-44.4568C74.4349,-47.0129 83.4489,-49.3885 92,-51 130.388,-58.2343 176.187,-59.7923 201.588,-60.0481"/>
<polygon fill="midnightblue" stroke="midnightblue" points="66.9017,-41.0847 56.3118,-41.4083 64.7921,-47.7593 66.9017,-41.0847"/>
</g>
<!-- Node4 -->
<g id="node7" class="node"><title>Node4</title>
<a xlink:href="../../d4/d90/class_undo_stack.html#a93c48d6ed036e1a381be53ac67643284" target="_top" xlink:title="Redo the last undoed command. ">
<polygon fill="white" stroke="black" points="203.5,-0.5 203.5,-21.5 238.5,-21.5 238.5,-0.5 203.5,-0.5"/>
<text text-anchor="middle" x="221" y="-8.5" font-family="Helvetica,sans-Serif" font-size="10.00">redo</text>
</a>
</g>
<!-- Node1&#45;&gt;Node4 -->
<g id="edge10" class="edge"><title>Node1&#45;&gt;Node4</title>
<path fill="none" stroke="midnightblue" d="M64.8649,-17.399C73.6387,-14.7458 83.0536,-12.3653 92,-11 131.408,-4.98586 178.381,-7.33513 203.346,-9.32504"/>
<polygon fill="midnightblue" stroke="midnightblue" points="63.7432,-14.0831 55.2906,-20.4709 65.8818,-20.7485 63.7432,-14.0831"/>
</g>
<!-- Node2&#45;&gt;Node3 -->
<g id="edge4" class="edge"><title>Node2&#45;&gt;Node3</title>
<path fill="none" stroke="midnightblue" d="M172.3,-44.649C182.68,-47.9208 193.243,-51.2505 201.867,-53.9689"/>
<polygon fill="midnightblue" stroke="midnightblue" points="173.064,-41.22 162.474,-41.5517 170.96,-47.8962 173.064,-41.22"/>
</g>
<!-- Node2&#45;&gt;Node4 -->
<g id="edge6" class="edge"><title>Node2&#45;&gt;Node4</title>
<path fill="none" stroke="midnightblue" d="M175.524,-20.8861C185.481,-18.7216 195.405,-16.5642 203.43,-14.8196"/>
<polygon fill="midnightblue" stroke="midnightblue" points="174.653,-17.4935 165.625,-23.038 176.14,-24.3337 174.653,-17.4935"/>
</g>
</g>
</svg>
