<?xml version="1.0" encoding="UTF-8" standalone="no"?>
<!DOCTYPE svg PUBLIC "-//W3C//DTD SVG 1.1//EN"
 "http://www.w3.org/Graphics/SVG/1.1/DTD/svg11.dtd">
<!-- Generated by graphviz version 2.26.3 (20100126.1600)
 -->
<!-- Title: setSelectedCategory Pages: 1 -->
<svg width="1014pt" height="871pt"
 viewBox="0.00 0.00 1014.00 871.00" xmlns="http://www.w3.org/2000/svg" xmlns:xlink="http://www.w3.org/1999/xlink">
<g id="graph1" class="graph" transform="scale(1 1) rotate(0) translate(4 867)">
<title>setSelectedCategory</title>
<polygon fill="white" stroke="white" points="-4,5 -4,-867 1011,-867 1011,5 -4,5"/>
<!-- Node1 -->
<g id="node1" class="node"><title>Node1</title>
<polygon fill="#bfbfbf" stroke="black" points="0,-248.5 0,-269.5 108,-269.5 108,-248.5 0,-248.5"/>
<text text-anchor="middle" x="54" y="-256.5" font-family="Helvetica,sans-Serif" font-size="10.00">setSelectedCategory</text>
</g>
<!-- Node2 -->
<g id="node3" class="node"><title>Node2</title>
<a xlink:href="../../d1/d92/classproject_1_1_add_gen_comp_dialog.html#abf6af5dc67073d848d5cf561412d4b27" target="_top" xlink:title="setSelectedGenComp">
<polygon fill="white" stroke="black" points="153.5,-528.5 153.5,-549.5 266.5,-549.5 266.5,-528.5 153.5,-528.5"/>
<text text-anchor="middle" x="210" y="-536.5" font-family="Helvetica,sans-Serif" font-size="10.00">setSelectedGenComp</text>
</a>
</g>
<!-- Node1&#45;&gt;Node2 -->
<g id="edge2" class="edge"><title>Node1&#45;&gt;Node2</title>
<path fill="none" stroke="midnightblue" d="M59.9249,-269.634C83.1877,-311.388 168.489,-464.492 199.031,-519.312"/>
<polygon fill="midnightblue" stroke="midnightblue" points="196.145,-521.323 204.069,-528.355 202.26,-517.916 196.145,-521.323"/>
</g>
<!-- Node4 -->
<g id="node7" class="node"><title>Node4</title>
<a xlink:href="../../d2/d05/classproject_1_1_project.html#a6054e079a2e370148fce27b138686ba3" target="_top" xlink:title="Get the ProjectSettings object which contains all project settings. ">
<polygon fill="white" stroke="black" points="509,-706.5 509,-727.5 647,-727.5 647,-706.5 509,-706.5"/>
<text text-anchor="middle" x="578" y="-714.5" font-family="Helvetica,sans-Serif" font-size="10.00">project::Project::getSettings</text>
</a>
</g>
<!-- Node1&#45;&gt;Node4 -->
<g id="edge74" class="edge"><title>Node1&#45;&gt;Node4</title>
<path fill="none" stroke="midnightblue" d="M54.8734,-269.58C60.872,-334.295 102.248,-677.406 312,-782 372.456,-812.147 400.291,-804.469 464,-782 483.376,-775.167 482.541,-763.831 500,-753 512.952,-744.965 527.993,-737.608 541.392,-731.669"/>
<polygon fill="midnightblue" stroke="midnightblue" points="543.011,-734.782 550.804,-727.605 540.236,-728.355 543.011,-734.782"/>
</g>
<!-- Node5 -->
<g id="node9" class="node"><title>Node5</title>
<a xlink:href="../../d7/d04/classproject_1_1_project_settings.html#a4e1f38901d0cab44a6bdae922a877b22" target="_top" xlink:title="project::ProjectSettings\l::getLocaleOrder">
<polygon fill="white" stroke="black" points="518.5,-616 518.5,-650 637.5,-650 637.5,-616 518.5,-616"/>
<text text-anchor="start" x="526.5" y="-637" font-family="Helvetica,sans-Serif" font-size="10.00">project::ProjectSettings</text>
<text text-anchor="middle" x="578" y="-624" font-family="Helvetica,sans-Serif" font-size="10.00">::getLocaleOrder</text>
</a>
</g>
<!-- Node1&#45;&gt;Node5 -->
<g id="edge76" class="edge"><title>Node1&#45;&gt;Node5</title>
<path fill="none" stroke="midnightblue" d="M79.2959,-269.62C125.128,-288.611 225.203,-328.932 312,-356 378.477,-376.731 416.707,-342.889 464,-394 529.206,-464.469 437.546,-534.08 500,-607 502.82,-610.293 506.07,-613.171 509.606,-615.685"/>
<polygon fill="midnightblue" stroke="midnightblue" points="507.939,-618.767 518.313,-620.918 511.545,-612.767 507.939,-618.767"/>
</g>
<!-- Node11 -->
<g id="node21" class="node"><title>Node11</title>
<a xlink:href="../../d5/d56/class_workspace.html#a0aaab7f8db4623adc7227460a859db51" target="_top" xlink:title="Get the workspace library. ">
<polygon fill="white" stroke="black" points="520.5,-40.5 520.5,-61.5 635.5,-61.5 635.5,-40.5 520.5,-40.5"/>
<text text-anchor="middle" x="578" y="-48.5" font-family="Helvetica,sans-Serif" font-size="10.00">Workspace::getLibrary</text>
</a>
</g>
<!-- Node1&#45;&gt;Node11 -->
<g id="edge78" class="edge"><title>Node1&#45;&gt;Node11</title>
<path fill="none" stroke="midnightblue" d="M108.301,-263.583C207.344,-270.72 411.938,-279.441 464,-235 520.758,-186.551 448.162,-124.681 500,-71 503.256,-67.628 506.998,-64.7962 511.041,-62.421"/>
<polygon fill="midnightblue" stroke="midnightblue" points="512.841,-65.4376 520.305,-57.918 509.781,-59.1419 512.841,-65.4376"/>
</g>
<!-- Node14 -->
<g id="node27" class="node"><title>Node14</title>
<a xlink:href="../../d4/d1c/class_file_path.html#a0a886a9edf5bf682f5245159661bfc94" target="_top" xlink:title="Check whether this object contains a valid filepath or not. ">
<polygon fill="white" stroke="black" points="534,-0.5 534,-21.5 622,-21.5 622,-0.5 534,-0.5"/>
<text text-anchor="middle" x="578" y="-8.5" font-family="Helvetica,sans-Serif" font-size="10.00">FilePath::isValid</text>
</a>
</g>
<!-- Node1&#45;&gt;Node14 -->
<g id="edge84" class="edge"><title>Node1&#45;&gt;Node14</title>
<path fill="none" stroke="midnightblue" d="M108.121,-251.335C154.417,-243.344 221.94,-228.226 276,-202 388.689,-147.332 387.302,-85.6492 500,-31 507.594,-27.3173 515.945,-24.2592 524.273,-21.736"/>
<polygon fill="midnightblue" stroke="midnightblue" points="525.306,-25.0814 533.992,-19.0143 523.419,-18.3407 525.306,-25.0814"/>
</g>
<!-- Node25 -->
<g id="node52" class="node"><title>Node25</title>
<a xlink:href="../../dd/d8a/classlibrary_1_1_library_base_element.html#a01f0309d43de518f4e94c724d22f4502" target="_top" xlink:title="library::LibraryBaseElement\l::getName">
<polygon fill="white" stroke="black" points="319.5,-829 319.5,-863 456.5,-863 456.5,-829 319.5,-829"/>
<text text-anchor="start" x="327.5" y="-850" font-family="Helvetica,sans-Serif" font-size="10.00">library::LibraryBaseElement</text>
<text text-anchor="middle" x="388" y="-837" font-family="Helvetica,sans-Serif" font-size="10.00">::getName</text>
</a>
</g>
<!-- Node1&#45;&gt;Node25 -->
<g id="edge86" class="edge"><title>Node1&#45;&gt;Node25</title>
<path fill="none" stroke="midnightblue" d="M54.9684,-269.732C61.7343,-343.624 102.867,-775.246 144,-815 186.908,-856.469 255.678,-861.902 309.29,-858.284"/>
<polygon fill="midnightblue" stroke="midnightblue" points="309.763,-861.757 319.456,-857.479 309.21,-854.779 309.763,-861.757"/>
</g>
<!-- Node31 -->
<g id="node71" class="node"><title>Node31</title>
<a xlink:href="../../de/d02/classlibrary_1_1_library.html#a3ced65a4208c679dfdda963d848aae9b" target="_top" xlink:title="library::Library::getGeneric\lComponentsByCategory">
<polygon fill="white" stroke="black" points="144.5,-159 144.5,-193 275.5,-193 275.5,-159 144.5,-159"/>
<text text-anchor="start" x="152.5" y="-180" font-family="Helvetica,sans-Serif" font-size="10.00">library::Library::getGeneric</text>
<text text-anchor="middle" x="210" y="-167" font-family="Helvetica,sans-Serif" font-size="10.00">ComponentsByCategory</text>
</a>
</g>
<!-- Node1&#45;&gt;Node31 -->
<g id="edge80" class="edge"><title>Node1&#45;&gt;Node31</title>
<path fill="none" stroke="midnightblue" d="M71.3452,-248.391C89.2918,-237.554 118.25,-220.455 144,-207 150.031,-203.849 156.438,-200.654 162.799,-197.573"/>
<polygon fill="midnightblue" stroke="midnightblue" points="164.522,-200.629 172.035,-193.159 161.503,-194.314 164.522,-200.629"/>
</g>
<!-- Node32 -->
<g id="node73" class="node"><title>Node32</title>
<a xlink:href="../../de/d02/classlibrary_1_1_library.html#a7b2e96907b8ffdb28f7fd9621486975e" target="_top" xlink:title="library::Library::getLatest\lGenericComponent">
<polygon fill="white" stroke="black" points="147.5,-107 147.5,-141 272.5,-141 272.5,-107 147.5,-107"/>
<text text-anchor="start" x="155.5" y="-128" font-family="Helvetica,sans-Serif" font-size="10.00">library::Library::getLatest</text>
<text text-anchor="middle" x="210" y="-115" font-family="Helvetica,sans-Serif" font-size="10.00">GenericComponent</text>
</a>
</g>
<!-- Node1&#45;&gt;Node32 -->
<g id="edge82" class="edge"><title>Node1&#45;&gt;Node32</title>
<path fill="none" stroke="midnightblue" d="M60.2985,-248.172C73.3253,-226.641 105.274,-178.113 144,-150 145.862,-148.648 147.805,-147.355 149.805,-146.119"/>
<polygon fill="midnightblue" stroke="midnightblue" points="151.848,-148.988 158.882,-141.065 148.442,-142.872 151.848,-148.988"/>
</g>
<!-- Node33 -->
<g id="node77" class="node"><title>Node33</title>
<a xlink:href="../../d4/d1c/class_file_path.html#a39a0bbf3901de18041fb5c324ecf412a" target="_top" xlink:title="Get the absolute and well&#45;formatted filepath as a QString. ">
<polygon fill="white" stroke="black" points="170,-67.5 170,-88.5 250,-88.5 250,-67.5 170,-67.5"/>
<text text-anchor="middle" x="210" y="-75.5" font-family="Helvetica,sans-Serif" font-size="10.00">FilePath::toStr</text>
</a>
</g>
<!-- Node1&#45;&gt;Node33 -->
<g id="edge88" class="edge"><title>Node1&#45;&gt;Node33</title>
<path fill="none" stroke="midnightblue" d="M56.9539,-248.13C65.3874,-219.175 92.36,-139.559 144,-98 148.897,-94.0591 154.561,-90.8934 160.472,-88.3507"/>
<polygon fill="midnightblue" stroke="midnightblue" points="161.737,-91.6144 169.888,-84.8461 159.296,-85.054 161.737,-91.6144"/>
</g>
<!-- Node3 -->
<g id="node5" class="node"><title>Node3</title>
<a xlink:href="../../d1/d92/classproject_1_1_add_gen_comp_dialog.html#adfcb4e9c07721bf39ddcb34d2e39e61c" target="_top" xlink:title="setSelectedSymbVar">
<polygon fill="white" stroke="black" points="333.5,-325.5 333.5,-346.5 442.5,-346.5 442.5,-325.5 333.5,-325.5"/>
<text text-anchor="middle" x="388" y="-333.5" font-family="Helvetica,sans-Serif" font-size="10.00">setSelectedSymbVar</text>
</a>
</g>
<!-- Node2&#45;&gt;Node3 -->
<g id="edge4" class="edge"><title>Node2&#45;&gt;Node3</title>
<path fill="none" stroke="midnightblue" d="M215.947,-528.348C230.31,-503.183 268.9,-438.807 312,-394 327.197,-378.201 346.943,-363.265 362.499,-352.508"/>
<polygon fill="midnightblue" stroke="midnightblue" points="364.787,-355.186 371.107,-346.682 360.864,-349.388 364.787,-355.186"/>
</g>
<!-- Node2&#45;&gt;Node4 -->
<g id="edge48" class="edge"><title>Node2&#45;&gt;Node4</title>
<path fill="none" stroke="midnightblue" d="M213.4,-549.529C223.284,-578.231 254.987,-657.96 312,-692 367.957,-725.409 442.618,-729.676 498.596,-726.726"/>
<polygon fill="midnightblue" stroke="midnightblue" points="499.056,-730.205 508.822,-726.097 498.626,-723.218 499.056,-730.205"/>
</g>
<!-- Node2&#45;&gt;Node5 -->
<g id="edge50" class="edge"><title>Node2&#45;&gt;Node5</title>
<path fill="none" stroke="midnightblue" d="M242.148,-528.464C293.34,-513.772 394.667,-493.418 464,-536 494.148,-554.516 473.207,-583.894 500,-607 502.871,-609.476 505.987,-611.718 509.264,-613.749"/>
<polygon fill="midnightblue" stroke="midnightblue" points="507.806,-616.94 518.263,-618.642 511.15,-610.79 507.806,-616.94"/>
</g>
<!-- Node6 -->
<g id="node11" class="node"><title>Node6</title>
<a xlink:href="../../d7/dff/classlibrary_1_1_gen_comp_symb_var.html#ada9b237a8629c03e16491a72730b456b" target="_top" xlink:title="library::GenCompSymbVar\l::getUuid">
<polygon fill="white" stroke="black" points="511,-80 511,-114 645,-114 645,-80 511,-80"/>
<text text-anchor="start" x="519" y="-101" font-family="Helvetica,sans-Serif" font-size="10.00">library::GenCompSymbVar</text>
<text text-anchor="middle" x="578" y="-88" font-family="Helvetica,sans-Serif" font-size="10.00">::getUuid</text>
</a>
</g>
<!-- Node2&#45;&gt;Node6 -->
<g id="edge70" class="edge"><title>Node2&#45;&gt;Node6</title>
<path fill="none" stroke="midnightblue" d="M211.664,-528.257C217.797,-492.373 242.511,-375.577 312,-316 365.299,-270.304 415.363,-323.63 464,-273 511.496,-223.558 453.655,-173.523 500,-123 500.896,-122.024 501.829,-121.084 502.796,-120.18"/>
<polygon fill="midnightblue" stroke="midnightblue" points="505.085,-122.833 510.803,-113.913 500.771,-117.32 505.085,-122.833"/>
</g>
<!-- Node24 -->
<g id="node50" class="node"><title>Node24</title>
<a xlink:href="../../dd/d8a/classlibrary_1_1_library_base_element.html#ada9b237a8629c03e16491a72730b456b" target="_top" xlink:title="library::LibraryBaseElement\l::getUuid">
<polygon fill="white" stroke="black" points="319.5,-455 319.5,-489 456.5,-489 456.5,-455 319.5,-455"/>
<text text-anchor="start" x="327.5" y="-476" font-family="Helvetica,sans-Serif" font-size="10.00">library::LibraryBaseElement</text>
<text text-anchor="middle" x="388" y="-463" font-family="Helvetica,sans-Serif" font-size="10.00">::getUuid</text>
</a>
</g>
<!-- Node2&#45;&gt;Node24 -->
<g id="edge52" class="edge"><title>Node2&#45;&gt;Node24</title>
<path fill="none" stroke="midnightblue" d="M238.205,-528.384C263.613,-518.82 301.684,-504.49 333.086,-492.67"/>
<polygon fill="midnightblue" stroke="midnightblue" points="334.47,-495.889 342.595,-489.09 332.004,-489.338 334.47,-495.889"/>
</g>
<!-- Node2&#45;&gt;Node25 -->
<g id="edge54" class="edge"><title>Node2&#45;&gt;Node25</title>
<path fill="none" stroke="midnightblue" d="M212.526,-549.605C221.386,-585.22 253.716,-702.756 312,-782 323.448,-797.565 339.429,-811.763 353.784,-822.809"/>
<polygon fill="midnightblue" stroke="midnightblue" points="351.892,-825.764 362.001,-828.935 356.076,-820.152 351.892,-825.764"/>
</g>
<!-- Node26 -->
<g id="node55" class="node"><title>Node26</title>
<a xlink:href="../../dd/d8a/classlibrary_1_1_library_base_element.html#a0e5b7dc7eca3c6468aa85375bf2c3dde" target="_top" xlink:title="library::LibraryBaseElement\l::getDescription">
<polygon fill="white" stroke="black" points="319.5,-739 319.5,-773 456.5,-773 456.5,-739 319.5,-739"/>
<text text-anchor="start" x="327.5" y="-760" font-family="Helvetica,sans-Serif" font-size="10.00">library::LibraryBaseElement</text>
<text text-anchor="middle" x="388" y="-747" font-family="Helvetica,sans-Serif" font-size="10.00">::getDescription</text>
</a>
</g>
<!-- Node2&#45;&gt;Node26 -->
<g id="edge58" class="edge"><title>Node2&#45;&gt;Node26</title>
<path fill="none" stroke="midnightblue" d="M213.105,-549.872C222.619,-581.34 254.278,-673.526 312,-725 315.663,-728.266 319.715,-731.214 323.986,-733.871"/>
<polygon fill="midnightblue" stroke="midnightblue" points="322.571,-737.09 333.006,-738.925 325.992,-730.983 322.571,-737.09"/>
</g>
<!-- Node27 -->
<g id="node58" class="node"><title>Node27</title>
<a xlink:href="../../d7/d7c/classlibrary_1_1_generic_component.html#abc945674e34471b63d0db571ba1d88b1" target="_top" xlink:title="library::GenericComponent\l::getSymbolVariants">
<polygon fill="white" stroke="black" points="321.5,-403 321.5,-437 454.5,-437 454.5,-403 321.5,-403"/>
<text text-anchor="start" x="329.5" y="-424" font-family="Helvetica,sans-Serif" font-size="10.00">library::GenericComponent</text>
<text text-anchor="middle" x="388" y="-411" font-family="Helvetica,sans-Serif" font-size="10.00">::getSymbolVariants</text>
</a>
</g>
<!-- Node2&#45;&gt;Node27 -->
<g id="edge62" class="edge"><title>Node2&#45;&gt;Node27</title>
<path fill="none" stroke="midnightblue" d="M219.03,-528.268C235.611,-509.187 272.818,-469.192 312,-446 314.82,-444.331 317.763,-442.749 320.782,-441.252"/>
<polygon fill="midnightblue" stroke="midnightblue" points="322.39,-444.365 330.022,-437.017 319.474,-438.002 322.39,-444.365"/>
</g>
<!-- Node28 -->
<g id="node60" class="node"><title>Node28</title>
<a xlink:href="../../d7/dff/classlibrary_1_1_gen_comp_symb_var.html#a01f0309d43de518f4e94c724d22f4502" target="_top" xlink:title="library::GenCompSymbVar\l::getName">
<polygon fill="white" stroke="black" points="321,-545 321,-579 455,-579 455,-545 321,-545"/>
<text text-anchor="start" x="329" y="-566" font-family="Helvetica,sans-Serif" font-size="10.00">library::GenCompSymbVar</text>
<text text-anchor="middle" x="388" y="-553" font-family="Helvetica,sans-Serif" font-size="10.00">::getName</text>
</a>
</g>
<!-- Node2&#45;&gt;Node28 -->
<g id="edge64" class="edge"><title>Node2&#45;&gt;Node28</title>
<path fill="none" stroke="midnightblue" d="M266.81,-546.341C280.78,-548.146 295.974,-550.109 310.73,-552.016"/>
<polygon fill="midnightblue" stroke="midnightblue" points="310.489,-555.514 320.855,-553.324 311.386,-548.571 310.489,-555.514"/>
</g>
<!-- Node29 -->
<g id="node63" class="node"><title>Node29</title>
<a xlink:href="../../d7/dff/classlibrary_1_1_gen_comp_symb_var.html#a8e3b6104c3fd62f36ce94537b91d4be7" target="_top" xlink:title="library::GenCompSymbVar\l::isDefault">
<polygon fill="white" stroke="black" points="321,-649 321,-683 455,-683 455,-649 321,-649"/>
<text text-anchor="start" x="329" y="-670" font-family="Helvetica,sans-Serif" font-size="10.00">library::GenCompSymbVar</text>
<text text-anchor="middle" x="388" y="-657" font-family="Helvetica,sans-Serif" font-size="10.00">::isDefault</text>
</a>
</g>
<!-- Node2&#45;&gt;Node29 -->
<g id="edge68" class="edge"><title>Node2&#45;&gt;Node29</title>
<path fill="none" stroke="midnightblue" d="M218.065,-549.735C233.907,-570.119 271.123,-614.653 312,-640 314.583,-641.602 317.278,-643.119 320.045,-644.555"/>
<polygon fill="midnightblue" stroke="midnightblue" points="318.556,-647.723 329.089,-648.867 321.569,-641.404 318.556,-647.723"/>
</g>
<!-- Node30 -->
<g id="node66" class="node"><title>Node30</title>
<a xlink:href="../../d7/d7c/classlibrary_1_1_generic_component.html#ae3f730c7ba15a0ece18176677c262367" target="_top" xlink:title="library::GenericComponent\l::getDefaultSymbolVariantUuid">
<polygon fill="white" stroke="black" points="312,-597 312,-631 464,-631 464,-597 312,-597"/>
<text text-anchor="start" x="320" y="-618" font-family="Helvetica,sans-Serif" font-size="10.00">library::GenericComponent</text>
<text text-anchor="middle" x="388" y="-605" font-family="Helvetica,sans-Serif" font-size="10.00">::getDefaultSymbolVariantUuid</text>
</a>
</g>
<!-- Node2&#45;&gt;Node30 -->
<g id="edge72" class="edge"><title>Node2&#45;&gt;Node30</title>
<path fill="none" stroke="midnightblue" d="M230.385,-549.674C250.747,-560.126 283.094,-576.161 312,-588 316.444,-589.82 321.068,-591.621 325.742,-593.375"/>
<polygon fill="midnightblue" stroke="midnightblue" points="324.774,-596.748 335.368,-596.901 327.182,-590.175 324.774,-596.748"/>
</g>
<!-- Node3&#45;&gt;Node4 -->
<g id="edge6" class="edge"><title>Node3&#45;&gt;Node4</title>
<path fill="none" stroke="midnightblue" d="M409.859,-346.529C427.538,-356.267 451.479,-372.481 464,-394 523.777,-496.734 439.583,-556.641 500,-659 510.784,-677.27 529.787,-691.583 546.336,-701.42"/>
<polygon fill="midnightblue" stroke="midnightblue" points="544.78,-704.56 555.21,-706.421 548.217,-698.462 544.78,-704.56"/>
</g>
<!-- Node3&#45;&gt;Node5 -->
<g id="edge8" class="edge"><title>Node3&#45;&gt;Node5</title>
<path fill="none" stroke="midnightblue" d="M442.855,-345.783C450.906,-349.387 458.368,-354.302 464,-361 535.113,-445.574 429.054,-522.286 500,-607 502.784,-610.324 506.005,-613.225 509.521,-615.757"/>
<polygon fill="midnightblue" stroke="midnightblue" points="507.827,-618.824 518.192,-621.021 511.459,-612.84 507.827,-618.824"/>
</g>
<!-- Node3&#45;&gt;Node6 -->
<g id="edge10" class="edge"><title>Node3&#45;&gt;Node6</title>
<path fill="none" stroke="midnightblue" d="M442.606,-326.004C450.686,-322.424 458.223,-317.572 464,-311 520.167,-247.103 443.96,-187.008 500,-123 500.899,-121.973 501.84,-120.986 502.818,-120.039"/>
<polygon fill="midnightblue" stroke="midnightblue" points="505.356,-122.49 510.975,-113.508 500.981,-117.026 505.356,-122.49"/>
</g>
<!-- Node7 -->
<g id="node13" class="node"><title>Node7</title>
<a xlink:href="../../d7/dff/classlibrary_1_1_gen_comp_symb_var.html#a07748d2329ba6f3667d423c7662dffe1" target="_top" xlink:title="library::GenCompSymbVar\l::getNorm">
<polygon fill="white" stroke="black" points="511,-368 511,-402 645,-402 645,-368 511,-368"/>
<text text-anchor="start" x="519" y="-389" font-family="Helvetica,sans-Serif" font-size="10.00">library::GenCompSymbVar</text>
<text text-anchor="middle" x="578" y="-376" font-family="Helvetica,sans-Serif" font-size="10.00">::getNorm</text>
</a>
</g>
<!-- Node3&#45;&gt;Node7 -->
<g id="edge12" class="edge"><title>Node3&#45;&gt;Node7</title>
<path fill="none" stroke="midnightblue" d="M428.76,-346.512C450.13,-352.023 477.007,-358.954 502.043,-365.411"/>
<polygon fill="midnightblue" stroke="midnightblue" points="501.342,-368.845 511.899,-367.953 503.09,-362.067 501.342,-368.845"/>
</g>
<!-- Node8 -->
<g id="node15" class="node"><title>Node8</title>
<a xlink:href="../../d7/dff/classlibrary_1_1_gen_comp_symb_var.html#a0e5b7dc7eca3c6468aa85375bf2c3dde" target="_top" xlink:title="library::GenCompSymbVar\l::getDescription">
<polygon fill="white" stroke="black" points="511,-564 511,-598 645,-598 645,-564 511,-564"/>
<text text-anchor="start" x="519" y="-585" font-family="Helvetica,sans-Serif" font-size="10.00">library::GenCompSymbVar</text>
<text text-anchor="middle" x="578" y="-572" font-family="Helvetica,sans-Serif" font-size="10.00">::getDescription</text>
</a>
</g>
<!-- Node3&#45;&gt;Node8 -->
<g id="edge14" class="edge"><title>Node3&#45;&gt;Node8</title>
<path fill="none" stroke="midnightblue" d="M442.638,-345.968C450.715,-349.551 458.242,-354.411 464,-361 521.708,-427.031 442.423,-488.855 500,-555 500.896,-556.03 501.834,-557.018 502.81,-557.968"/>
<polygon fill="midnightblue" stroke="midnightblue" points="500.964,-560.975 510.951,-564.513 505.35,-555.519 500.964,-560.975"/>
</g>
<!-- Node10 -->
<g id="node19" class="node"><title>Node10</title>
<a xlink:href="../../d7/dff/classlibrary_1_1_gen_comp_symb_var.html#a95be340ed5134b5b4fc05ab47e4c9c34" target="_top" xlink:title="library::GenCompSymbVar\l::getItems">
<polygon fill="white" stroke="black" points="511,-236 511,-270 645,-270 645,-236 511,-236"/>
<text text-anchor="start" x="519" y="-257" font-family="Helvetica,sans-Serif" font-size="10.00">library::GenCompSymbVar</text>
<text text-anchor="middle" x="578" y="-244" font-family="Helvetica,sans-Serif" font-size="10.00">::getItems</text>
</a>
</g>
<!-- Node3&#45;&gt;Node10 -->
<g id="edge18" class="edge"><title>Node3&#45;&gt;Node10</title>
<path fill="none" stroke="midnightblue" d="M430.335,-325.451C441.673,-321.735 453.647,-316.958 464,-311 482.554,-300.322 481.467,-289.715 500,-279 502.842,-277.357 505.803,-275.799 508.839,-274.324"/>
<polygon fill="midnightblue" stroke="midnightblue" points="510.441,-277.442 518.126,-270.149 507.57,-271.058 510.441,-277.442"/>
</g>
<!-- Node3&#45;&gt;Node11 -->
<g id="edge20" class="edge"><title>Node3&#45;&gt;Node11</title>
<path fill="none" stroke="midnightblue" d="M407.23,-325.453C424.939,-314.677 450.455,-296.25 464,-273 509.905,-194.204 437.968,-137.844 500,-71 503.331,-67.4103 507.211,-64.4286 511.428,-61.9556"/>
<polygon fill="midnightblue" stroke="midnightblue" points="513.016,-65.0751 520.487,-57.5622 509.962,-58.7767 513.016,-65.0751"/>
</g>
<!-- Node12 -->
<g id="node23" class="node"><title>Node12</title>
<a xlink:href="../../de/d02/classlibrary_1_1_library.html#a1a4160a82ae91b932467f00350c415e0" target="_top" xlink:title="library::Library::getLatest\lSymbol">
<polygon fill="white" stroke="black" points="515.5,-184 515.5,-218 640.5,-218 640.5,-184 515.5,-184"/>
<text text-anchor="start" x="523.5" y="-205" font-family="Helvetica,sans-Serif" font-size="10.00">library::Library::getLatest</text>
<text text-anchor="middle" x="578" y="-192" font-family="Helvetica,sans-Serif" font-size="10.00">Symbol</text>
</a>
</g>
<!-- Node3&#45;&gt;Node12 -->
<g id="edge22" class="edge"><title>Node3&#45;&gt;Node12</title>
<path fill="none" stroke="midnightblue" d="M440.282,-325.364C448.917,-321.856 457.242,-317.194 464,-311 493.944,-283.557 470.11,-254.502 500,-227 501.976,-225.182 504.083,-223.49 506.291,-221.917"/>
<polygon fill="midnightblue" stroke="midnightblue" points="508.556,-224.633 515.243,-216.414 504.891,-218.669 508.556,-224.633"/>
</g>
<!-- Node13 -->
<g id="node25" class="node"><title>Node13</title>
<a xlink:href="../../d5/d1e/classlibrary_1_1_gen_comp_symb_var_item.html#ae244026d0acdc7d950b6752f4ad00e4e" target="_top" xlink:title="library::GenCompSymbVarItem\l::getSymbolUuid">
<polygon fill="white" stroke="black" points="501.5,-132 501.5,-166 654.5,-166 654.5,-132 501.5,-132"/>
<text text-anchor="start" x="509.5" y="-153" font-family="Helvetica,sans-Serif" font-size="10.00">library::GenCompSymbVarItem</text>
<text text-anchor="middle" x="578" y="-140" font-family="Helvetica,sans-Serif" font-size="10.00">::getSymbolUuid</text>
</a>
</g>
<!-- Node3&#45;&gt;Node13 -->
<g id="edge24" class="edge"><title>Node3&#45;&gt;Node13</title>
<path fill="none" stroke="midnightblue" d="M442.609,-325.485C450.589,-321.964 458.093,-317.266 464,-311 506.889,-265.502 457.201,-220.583 500,-175 500.782,-174.168 501.591,-173.362 502.424,-172.582"/>
<polygon fill="midnightblue" stroke="midnightblue" points="504.816,-175.154 510.533,-166.234 500.501,-169.642 504.816,-175.154"/>
</g>
<!-- Node3&#45;&gt;Node14 -->
<g id="edge26" class="edge"><title>Node3&#45;&gt;Node14</title>
<path fill="none" stroke="midnightblue" d="M398.835,-325.314C415.687,-308.008 447.91,-272.033 464,-235 500.689,-150.558 437.43,-98.5382 500,-31 506.419,-24.0714 514.883,-19.4069 523.865,-16.294"/>
<polygon fill="midnightblue" stroke="midnightblue" points="525.077,-19.5881 533.742,-13.4915 523.167,-12.8539 525.077,-19.5881"/>
</g>
<!-- Node15 -->
<g id="node29" class="node"><title>Node15</title>
<a xlink:href="../../d5/d1e/classlibrary_1_1_gen_comp_symb_var_item.html#ada9b237a8629c03e16491a72730b456b" target="_top" xlink:title="library::GenCompSymbVarItem\l::getUuid">
<polygon fill="white" stroke="black" points="501.5,-512 501.5,-546 654.5,-546 654.5,-512 501.5,-512"/>
<text text-anchor="start" x="509.5" y="-533" font-family="Helvetica,sans-Serif" font-size="10.00">library::GenCompSymbVarItem</text>
<text text-anchor="middle" x="578" y="-520" font-family="Helvetica,sans-Serif" font-size="10.00">::getUuid</text>
</a>
</g>
<!-- Node3&#45;&gt;Node15 -->
<g id="edge28" class="edge"><title>Node3&#45;&gt;Node15</title>
<path fill="none" stroke="midnightblue" d="M442.666,-346.462C450.639,-349.989 458.126,-354.703 464,-361 508.411,-408.61 455.684,-455.302 500,-503 500.777,-503.837 501.582,-504.646 502.412,-505.43"/>
<polygon fill="midnightblue" stroke="midnightblue" points="500.474,-508.359 510.493,-511.803 504.808,-502.862 500.474,-508.359"/>
</g>
<!-- Node16 -->
<g id="node31" class="node"><title>Node16</title>
<a xlink:href="../../d0/d69/class_point.html#a3da9ee2bc3910d0f0c43c30798906fdd" target="_top" xlink:title="Point::fromPx">
<polygon fill="white" stroke="black" points="539.5,-328.5 539.5,-349.5 616.5,-349.5 616.5,-328.5 539.5,-328.5"/>
<text text-anchor="middle" x="578" y="-336.5" font-family="Helvetica,sans-Serif" font-size="10.00">Point::fromPx</text>
</a>
</g>
<!-- Node3&#45;&gt;Node16 -->
<g id="edge30" class="edge"><title>Node3&#45;&gt;Node16</title>
<path fill="none" stroke="midnightblue" d="M442.701,-336.864C469.993,-337.295 502.733,-337.812 529.17,-338.229"/>
<polygon fill="midnightblue" stroke="midnightblue" points="529.283,-341.731 539.337,-338.39 529.393,-334.732 529.283,-341.731"/>
</g>
<!-- Node20 -->
<g id="node40" class="node"><title>Node20</title>
<a xlink:href="../../d9/da8/classlibrary_1_1_symbol_preview_graphics_item.html#a5a5c94b564322784dd2aa1486fa7901a" target="_top" xlink:title="library::SymbolPreviewGraphics\lItem::boundingRect">
<polygon fill="white" stroke="black" points="500,-460 500,-494 656,-494 656,-460 500,-460"/>
<text text-anchor="start" x="508" y="-481" font-family="Helvetica,sans-Serif" font-size="10.00">library::SymbolPreviewGraphics</text>
<text text-anchor="middle" x="578" y="-468" font-family="Helvetica,sans-Serif" font-size="10.00">Item::boundingRect</text>
</a>
</g>
<!-- Node3&#45;&gt;Node20 -->
<g id="edge40" class="edge"><title>Node3&#45;&gt;Node20</title>
<path fill="none" stroke="midnightblue" d="M440.407,-346.501C449.029,-350.023 457.318,-354.724 464,-361 495.403,-390.493 468.655,-421.445 500,-451 501.136,-452.071 502.317,-453.098 503.538,-454.083"/>
<polygon fill="midnightblue" stroke="midnightblue" points="501.883,-457.193 512.102,-459.988 505.856,-451.43 501.883,-457.193"/>
</g>
<!-- Node21 -->
<g id="node42" class="node"><title>Node21</title>
<a xlink:href="../../d0/d69/class_point.html#a3fb0d1120536f2a889eac1e5e88b9ac5" target="_top" xlink:title="Get the point as a QPointF object in pixels (for QGraphics* objects) ">
<polygon fill="white" stroke="black" points="527.5,-288.5 527.5,-309.5 628.5,-309.5 628.5,-288.5 527.5,-288.5"/>
<text text-anchor="middle" x="578" y="-296.5" font-family="Helvetica,sans-Serif" font-size="10.00">Point::toPxQPointF</text>
</a>
</g>
<!-- Node3&#45;&gt;Node21 -->
<g id="edge42" class="edge"><title>Node3&#45;&gt;Node21</title>
<path fill="none" stroke="midnightblue" d="M441.938,-325.496C465.362,-320.935 492.909,-315.57 517.068,-310.866"/>
<polygon fill="midnightblue" stroke="midnightblue" points="518.046,-314.241 527.193,-308.894 516.708,-307.37 518.046,-314.241"/>
</g>
<!-- Node23 -->
<g id="node46" class="node"><title>Node23</title>
<a xlink:href="../../dc/dcc/class_graphics_scene.html#ad4900f3543f03cac6482cdbe7368291f" target="_top" xlink:title="GraphicsScene::addItem">
<polygon fill="white" stroke="black" points="515.5,-420.5 515.5,-441.5 640.5,-441.5 640.5,-420.5 515.5,-420.5"/>
<text text-anchor="middle" x="578" y="-428.5" font-family="Helvetica,sans-Serif" font-size="10.00">GraphicsScene::addItem</text>
</a>
</g>
<!-- Node3&#45;&gt;Node23 -->
<g id="edge46" class="edge"><title>Node3&#45;&gt;Node23</title>
<path fill="none" stroke="midnightblue" d="M435.65,-346.587C445.594,-350.148 455.596,-354.843 464,-361 486.089,-377.183 477.383,-395.564 500,-411 502.917,-412.991 506.019,-414.784 509.239,-416.398"/>
<polygon fill="midnightblue" stroke="midnightblue" points="508.013,-419.682 518.577,-420.492 510.823,-413.271 508.013,-419.682"/>
</g>
<!-- Node9 -->
<g id="node17" class="node"><title>Node9</title>
<a xlink:href="../../dd/d8a/classlibrary_1_1_library_base_element.html#a3de489fd5ff14ef1709e7ba41628ab3e" target="_top" xlink:title="Get the string of a specific locale from a QMap. ">
<polygon fill="white" stroke="black" points="692.5,-700 692.5,-734 829.5,-734 829.5,-700 692.5,-700"/>
<text text-anchor="start" x="700.5" y="-721" font-family="Helvetica,sans-Serif" font-size="10.00">library::LibraryBaseElement</text>
<text text-anchor="middle" x="761" y="-708" font-family="Helvetica,sans-Serif" font-size="10.00">::localeStringFromList</text>
</a>
</g>
<!-- Node8&#45;&gt;Node9 -->
<g id="edge16" class="edge"><title>Node8&#45;&gt;Node9</title>
<path fill="none" stroke="midnightblue" d="M638.967,-598.039C644.911,-600.661 650.696,-603.636 656,-607 691.5,-629.514 723.459,-666.576 742.549,-691.379"/>
<polygon fill="midnightblue" stroke="midnightblue" points="739.933,-693.722 748.75,-699.597 745.521,-689.506 739.933,-693.722"/>
</g>
<!-- Node17 -->
<g id="node33" class="node"><title>Node17</title>
<a xlink:href="../../df/df0/class_length.html#a5aef66a62c626dea314f1a1e1716534b" target="_top" xlink:title="Set the length in pixels (from QGraphics* objects) ">
<polygon fill="white" stroke="black" points="707.5,-328.5 707.5,-349.5 814.5,-349.5 814.5,-328.5 707.5,-328.5"/>
<text text-anchor="middle" x="761" y="-336.5" font-family="Helvetica,sans-Serif" font-size="10.00">Length::setLengthPx</text>
</a>
</g>
<!-- Node16&#45;&gt;Node17 -->
<g id="edge32" class="edge"><title>Node16&#45;&gt;Node17</title>
<path fill="none" stroke="midnightblue" d="M616.81,-339C640.161,-339 670.457,-339 697.248,-339"/>
<polygon fill="midnightblue" stroke="midnightblue" points="697.323,-342.5 707.323,-339 697.323,-335.5 697.323,-342.5"/>
</g>
<!-- Node19 -->
<g id="node37" class="node"><title>Node19</title>
<a xlink:href="../../d0/d69/class_point.html#aaf8d7a6826dcd72e03dc632960106b90" target="_top" xlink:title="Map this Point object to a specific grid interval. ">
<polygon fill="white" stroke="black" points="714.5,-368.5 714.5,-389.5 807.5,-389.5 807.5,-368.5 714.5,-368.5"/>
<text text-anchor="middle" x="761" y="-376.5" font-family="Helvetica,sans-Serif" font-size="10.00">Point::mapToGrid</text>
</a>
</g>
<!-- Node16&#45;&gt;Node19 -->
<g id="edge36" class="edge"><title>Node16&#45;&gt;Node19</title>
<path fill="none" stroke="midnightblue" d="M616.81,-347.483C642.337,-353.063 676.166,-360.457 704.64,-366.681"/>
<polygon fill="midnightblue" stroke="midnightblue" points="703.95,-370.113 714.466,-368.829 705.444,-363.274 703.95,-370.113"/>
</g>
<!-- Node18 -->
<g id="node35" class="node"><title>Node18</title>
<a xlink:href="../../df/df0/class_length.html#a73dbcae99cc78c7f7e737d5211154527" target="_top" xlink:title="Set the length from a floating point number in nanometers. ">
<polygon fill="white" stroke="black" points="866.5,-328.5 866.5,-349.5 1005.5,-349.5 1005.5,-328.5 866.5,-328.5"/>
<text text-anchor="middle" x="936" y="-336.5" font-family="Helvetica,sans-Serif" font-size="10.00">Length::setLengthFromFloat</text>
</a>
</g>
<!-- Node17&#45;&gt;Node18 -->
<g id="edge34" class="edge"><title>Node17&#45;&gt;Node18</title>
<path fill="none" stroke="midnightblue" d="M814.934,-339C828.025,-339 842.299,-339 856.303,-339"/>
<polygon fill="midnightblue" stroke="midnightblue" points="856.433,-342.5 866.433,-339 856.433,-335.5 856.433,-342.5"/>
</g>
<!-- Node19&#45;&gt;Node19 -->
<g id="edge38" class="edge"><title>Node19&#45;&gt;Node19</title>
<path fill="none" stroke="midnightblue" d="M733.353,-389.708C721.538,-398.653 730.754,-408 761,-408 780.849,-408 791.641,-403.975 793.376,-398.679"/>
<polygon fill="midnightblue" stroke="midnightblue" points="796.406,-396.922 788.647,-389.708 790.214,-400.186 796.406,-396.922"/>
</g>
<!-- Node22 -->
<g id="node44" class="node"><title>Node22</title>
<a xlink:href="../../df/df0/class_length.html#abf9a817a583f3939aea7bffdeeb7b235" target="_top" xlink:title="Get the length in pixels (for QGraphics* objects) ">
<polygon fill="white" stroke="black" points="725,-288.5 725,-309.5 797,-309.5 797,-288.5 725,-288.5"/>
<text text-anchor="middle" x="761" y="-296.5" font-family="Helvetica,sans-Serif" font-size="10.00">Length::toPx</text>
</a>
</g>
<!-- Node21&#45;&gt;Node22 -->
<g id="edge44" class="edge"><title>Node21&#45;&gt;Node22</title>
<path fill="none" stroke="midnightblue" d="M628.976,-299C655.865,-299 688.605,-299 714.754,-299"/>
<polygon fill="midnightblue" stroke="midnightblue" points="714.79,-302.5 724.79,-299 714.79,-295.5 714.79,-302.5"/>
</g>
<!-- Node25&#45;&gt;Node9 -->
<g id="edge56" class="edge"><title>Node25&#45;&gt;Node9</title>
<path fill="none" stroke="midnightblue" d="M441.624,-828.948C495.894,-811.513 582.109,-783.33 656,-757 672.974,-750.952 691.369,-744.06 707.949,-737.722"/>
<polygon fill="midnightblue" stroke="midnightblue" points="709.396,-740.916 717.478,-734.064 706.888,-734.381 709.396,-740.916"/>
</g>
<!-- Node26&#45;&gt;Node9 -->
<g id="edge60" class="edge"><title>Node26&#45;&gt;Node9</title>
<path fill="none" stroke="midnightblue" d="M456.516,-753.362C510.797,-750.738 588.469,-745.794 656,-737 664.557,-735.886 673.469,-734.516 682.326,-733.021"/>
<polygon fill="midnightblue" stroke="midnightblue" points="683.029,-736.452 692.28,-731.287 681.828,-729.555 683.029,-736.452"/>
</g>
<!-- Node28&#45;&gt;Node9 -->
<g id="edge66" class="edge"><title>Node28&#45;&gt;Node9</title>
<path fill="none" stroke="midnightblue" d="M451.147,-579.096C455.75,-581.665 460.106,-584.615 464,-588 490.702,-611.211 472.052,-637.305 500,-659 507.369,-664.72 608.433,-686.133 682.595,-701.271"/>
<polygon fill="midnightblue" stroke="midnightblue" points="681.913,-704.704 692.41,-703.27 683.31,-697.845 681.913,-704.704"/>
</g>
</g>
</svg>
