<?xml version="1.0" encoding="UTF-8" standalone="no"?>
<!DOCTYPE svg PUBLIC "-//W3C//DTD SVG 1.1//EN"
 "http://www.w3.org/Graphics/SVG/1.1/DTD/svg11.dtd">
<!-- Generated by graphviz version 2.26.3 (20100126.1600)
 -->
<!-- Title: undo Pages: 1 -->
<svg width="516pt" height="49pt"
 viewBox="0.00 0.00 516.00 49.00" xmlns="http://www.w3.org/2000/svg" xmlns:xlink="http://www.w3.org/1999/xlink">
<g id="graph1" class="graph" transform="scale(1 1) rotate(0) translate(4 45)">
<title>undo</title>
<polygon fill="white" stroke="white" points="-4,5 -4,-45 513,-45 513,5 -4,5"/>
<!-- Node1 -->
<g id="node1" class="node"><title>Node1</title>
<polygon fill="#bfbfbf" stroke="black" points="0,-0.5 0,-21.5 38,-21.5 38,-0.5 0,-0.5"/>
<text text-anchor="middle" x="19" y="-8.5" font-family="Helvetica,sans-Serif" font-size="10.00">undo</text>
</g>
<!-- Node2 -->
<g id="node3" class="node"><title>Node2</title>
<a xlink:href="../../d3/d26/class_undo_command.html#a0e1e7804a53f6d62efc72c9bdbec8571" target="_top" xlink:title="Undo the command (and all child commands in reverse order) ">
<polygon fill="white" stroke="black" points="74,-0.5 74,-21.5 186,-21.5 186,-0.5 74,-0.5"/>
<text text-anchor="middle" x="130" y="-8.5" font-family="Helvetica,sans-Serif" font-size="10.00">UndoCommand::undo</text>
</a>
</g>
<!-- Node1&#45;&gt;Node2 -->
<g id="edge2" class="edge"><title>Node1&#45;&gt;Node2</title>
<path fill="none" stroke="midnightblue" d="M38.0816,-11C45.4559,-11 54.366,-11 63.7001,-11"/>
<polygon fill="midnightblue" stroke="midnightblue" points="63.9424,-14.5001 73.9423,-11 63.9423,-7.5001 63.9424,-14.5001"/>
</g>
<!-- Node3 -->
<g id="node5" class="node"><title>Node3</title>
<a xlink:href="../../d3/d26/class_undo_command.html#ae57d776a4010cbabb44c03d9ac6514eb" target="_top" xlink:title="This method shows whether that command is executed (redo() called one time more than undo()) ...">
<polygon fill="white" stroke="black" points="368,-19.5 368,-40.5 508,-40.5 508,-19.5 368,-19.5"/>
<text text-anchor="middle" x="438" y="-27.5" font-family="Helvetica,sans-Serif" font-size="10.00">UndoCommand::isExecuted</text>
</a>
</g>
<!-- Node2&#45;&gt;Node3 -->
<g id="edge4" class="edge"><title>Node2&#45;&gt;Node3</title>
<path fill="none" stroke="midnightblue" d="M169.546,-21.5401C185.685,-25.3312 204.611,-29.1317 222,-31 266.685,-35.801 316.869,-35.8877 357.612,-34.622"/>
<polygon fill="midnightblue" stroke="midnightblue" points="357.884,-38.1148 367.758,-34.273 357.643,-31.1189 357.884,-38.1148"/>
</g>
<!-- Node4 -->
<g id="node7" class="node"><title>Node4</title>
<a xlink:href="../../d3/d26/class_undo_command.html#a93c48d6ed036e1a381be53ac67643284" target="_top" xlink:title="Redo/execute the command (and all child commands in normal order) ">
<polygon fill="white" stroke="black" points="222,-0.5 222,-21.5 332,-21.5 332,-0.5 222,-0.5"/>
<text text-anchor="middle" x="277" y="-8.5" font-family="Helvetica,sans-Serif" font-size="10.00">UndoCommand::redo</text>
</a>
</g>
<!-- Node2&#45;&gt;Node4 -->
<g id="edge6" class="edge"><title>Node2&#45;&gt;Node4</title>
<path fill="none" stroke="midnightblue" d="M186.414,-4.41479C194.703,-4.25224 203.298,-4.20994 211.747,-4.28791"/>
<polygon fill="midnightblue" stroke="midnightblue" points="211.897,-7.79049 221.949,-4.44266 212.003,-0.791298 211.897,-7.79049"/>
</g>
<!-- Node4&#45;&gt;Node2 -->
<g id="edge10" class="edge"><title>Node4&#45;&gt;Node2</title>
<path fill="none" stroke="midnightblue" d="M221.949,-17.5573C213.695,-17.7331 205.109,-17.7886 196.646,-17.7238"/>
<polygon fill="midnightblue" stroke="midnightblue" points="196.46,-14.2211 186.414,-17.5852 196.365,-21.2205 196.46,-14.2211"/>
</g>
<!-- Node4&#45;&gt;Node3 -->
<g id="edge8" class="edge"><title>Node4&#45;&gt;Node3</title>
<path fill="none" stroke="midnightblue" d="M332.407,-17.5387C340.645,-18.5109 349.272,-19.529 357.893,-20.5464"/>
<polygon fill="midnightblue" stroke="midnightblue" points="357.645,-24.0414 367.987,-21.7376 358.466,-17.0896 357.645,-24.0414"/>
</g>
</g>
</svg>
