<?xml version="1.0" encoding="UTF-8" standalone="no"?>
<!DOCTYPE svg PUBLIC "-//W3C//DTD SVG 1.1//EN"
 "http://www.w3.org/Graphics/SVG/1.1/DTD/svg11.dtd">
<!-- Generated by graphviz version 2.26.3 (20100126.1600)
 -->
<!-- Title: revertAll Pages: 1 -->
<svg width="228pt" height="94pt"
 viewBox="0.00 0.00 228.00 94.00" xmlns="http://www.w3.org/2000/svg" xmlns:xlink="http://www.w3.org/1999/xlink">
<g id="graph1" class="graph" transform="scale(1 1) rotate(0) translate(4 90)">
<title>revertAll</title>
<polygon fill="white" stroke="white" points="-4,5 -4,-90 225,-90 225,5 -4,5"/>
<!-- Node1 -->
<g id="node1" class="node"><title>Node1</title>
<polygon fill="#bfbfbf" stroke="black" points="0.5,-32.5 0.5,-53.5 53.5,-53.5 53.5,-32.5 0.5,-32.5"/>
<text text-anchor="middle" x="27" y="-40.5" font-family="Helvetica,sans-Serif" font-size="10.00">revertAll</text>
</g>
<!-- Node2 -->
<g id="node3" class="node"><title>Node2</title>
<a xlink:href="../../d1/d5c/class_workspace_settings_dialog.html#a84e832c2421763b25e1ae0d9a76f519c" target="_top" xlink:title="WorkspaceSettingsDialog\l::reject">
<polygon fill="white" stroke="black" points="90,-52 90,-86 220,-86 220,-52 90,-52"/>
<text text-anchor="start" x="98" y="-73" font-family="Helvetica,sans-Serif" font-size="10.00">WorkspaceSettingsDialog</text>
<text text-anchor="middle" x="155" y="-60" font-family="Helvetica,sans-Serif" font-size="10.00">::reject</text>
</a>
</g>
<!-- Node1&#45;&gt;Node2 -->
<g id="edge2" class="edge"><title>Node1&#45;&gt;Node2</title>
<path fill="none" stroke="midnightblue" d="M63.5582,-50.4259C71.8447,-52.1091 80.8884,-53.9461 89.96,-55.7888"/>
<polygon fill="midnightblue" stroke="midnightblue" points="64.0183,-46.9479 53.5217,-48.3872 62.6248,-53.8079 64.0183,-46.9479"/>
</g>
<!-- Node3 -->
<g id="node5" class="node"><title>Node3</title>
<a xlink:href="../../d1/d5c/class_workspace_settings_dialog.html#a33cf9470d5b33d9dd5027715e5b58801" target="_top" xlink:title="WorkspaceSettingsDialog\l::on_buttonBox_clicked">
<polygon fill="white" stroke="black" points="90,-0 90,-34 220,-34 220,-0 90,-0"/>
<text text-anchor="start" x="98" y="-21" font-family="Helvetica,sans-Serif" font-size="10.00">WorkspaceSettingsDialog</text>
<text text-anchor="middle" x="155" y="-8" font-family="Helvetica,sans-Serif" font-size="10.00">::on_buttonBox_clicked</text>
</a>
</g>
<!-- Node1&#45;&gt;Node3 -->
<g id="edge4" class="edge"><title>Node1&#45;&gt;Node3</title>
<path fill="none" stroke="midnightblue" d="M63.5582,-35.5741C71.8447,-33.8909 80.8884,-32.0539 89.96,-30.2112"/>
<polygon fill="midnightblue" stroke="midnightblue" points="62.6248,-32.1921 53.5217,-37.6128 64.0183,-39.0521 62.6248,-32.1921"/>
</g>
</g>
</svg>
