<?xml version="1.0" encoding="UTF-8" standalone="no"?>
<!DOCTYPE svg PUBLIC "-//W3C//DTD SVG 1.1//EN"
 "http://www.w3.org/Graphics/SVG/1.1/DTD/svg11.dtd">
<!-- Generated by graphviz version 2.26.3 (20100126.1600)
 -->
<!-- Title: applyAll Pages: 1 -->
<svg width="226pt" height="94pt"
 viewBox="0.00 0.00 226.00 94.00" xmlns="http://www.w3.org/2000/svg" xmlns:xlink="http://www.w3.org/1999/xlink">
<g id="graph1" class="graph" transform="scale(1 1) rotate(0) translate(4 90)">
<title>applyAll</title>
<polygon fill="white" stroke="white" points="-4,5 -4,-90 223,-90 223,5 -4,5"/>
<!-- Node1 -->
<g id="node1" class="node"><title>Node1</title>
<polygon fill="#bfbfbf" stroke="black" points="0.5,-32.5 0.5,-53.5 51.5,-53.5 51.5,-32.5 0.5,-32.5"/>
<text text-anchor="middle" x="26" y="-40.5" font-family="Helvetica,sans-Serif" font-size="10.00">applyAll</text>
</g>
<!-- Node2 -->
<g id="node3" class="node"><title>Node2</title>
<a xlink:href="../../d1/d5c/class_workspace_settings_dialog.html#aadb9f3b844fb4cf98288cd3c60a3af91" target="_top" xlink:title="WorkspaceSettingsDialog\l::accept">
<polygon fill="white" stroke="black" points="88,-52 88,-86 218,-86 218,-52 88,-52"/>
<text text-anchor="start" x="96" y="-73" font-family="Helvetica,sans-Serif" font-size="10.00">WorkspaceSettingsDialog</text>
<text text-anchor="middle" x="153" y="-60" font-family="Helvetica,sans-Serif" font-size="10.00">::accept</text>
</a>
</g>
<!-- Node1&#45;&gt;Node2 -->
<g id="edge2" class="edge"><title>Node1&#45;&gt;Node2</title>
<path fill="none" stroke="midnightblue" d="M61.6519,-50.2988C69.8805,-51.9834 78.8872,-53.8273 87.9363,-55.6799"/>
<polygon fill="midnightblue" stroke="midnightblue" points="62.1992,-46.8383 51.7003,-48.2615 60.7951,-53.6961 62.1992,-46.8383"/>
</g>
<!-- Node3 -->
<g id="node5" class="node"><title>Node3</title>
<a xlink:href="../../d1/d5c/class_workspace_settings_dialog.html#a33cf9470d5b33d9dd5027715e5b58801" target="_top" xlink:title="WorkspaceSettingsDialog\l::on_buttonBox_clicked">
<polygon fill="white" stroke="black" points="88,-0 88,-34 218,-34 218,-0 88,-0"/>
<text text-anchor="start" x="96" y="-21" font-family="Helvetica,sans-Serif" font-size="10.00">WorkspaceSettingsDialog</text>
<text text-anchor="middle" x="153" y="-8" font-family="Helvetica,sans-Serif" font-size="10.00">::on_buttonBox_clicked</text>
</a>
</g>
<!-- Node1&#45;&gt;Node3 -->
<g id="edge4" class="edge"><title>Node1&#45;&gt;Node3</title>
<path fill="none" stroke="midnightblue" d="M61.6519,-35.7012C69.8805,-34.0166 78.8872,-32.1727 87.9363,-30.3201"/>
<polygon fill="midnightblue" stroke="midnightblue" points="60.7951,-32.3039 51.7003,-37.7385 62.1992,-39.1617 60.7951,-32.3039"/>
</g>
</g>
</svg>
