<?xml version="1.0" encoding="UTF-8" standalone="no"?>
<!DOCTYPE svg PUBLIC "-//W3C//DTD SVG 1.1//EN"
 "http://www.w3.org/Graphics/SVG/1.1/DTD/svg11.dtd">
<!-- Generated by graphviz version 2.26.3 (20100126.1600)
 -->
<!-- Title: getNameTr Pages: 1 -->
<svg width="508pt" height="212pt"
 viewBox="0.00 0.00 508.00 212.00" xmlns="http://www.w3.org/2000/svg" xmlns:xlink="http://www.w3.org/1999/xlink">
<g id="graph1" class="graph" transform="scale(1 1) rotate(0) translate(4 208)">
<title>getNameTr</title>
<polygon fill="white" stroke="white" points="-4,5 -4,-208 505,-208 505,5 -4,5"/>
<!-- Node1 -->
<g id="node1" class="node"><title>Node1</title>
<polygon fill="#bfbfbf" stroke="black" points="0.5,-117.5 0.5,-138.5 65.5,-138.5 65.5,-117.5 0.5,-117.5"/>
<text text-anchor="middle" x="33" y="-125.5" font-family="Helvetica,sans-Serif" font-size="10.00">getNameTr</text>
</g>
<!-- Node2 -->
<g id="node3" class="node"><title>Node2</title>
<a xlink:href="../../d9/de8/classproject_1_1_symbol_instance_properties_dialog.html#ac495f51c75d32d809bd19d4b2f9afc1b" target="_top" xlink:title="project::SymbolInstanceProperties\lDialog::SymbolInstancePropertiesDialog">
<polygon fill="white" stroke="black" points="102.5,-170 102.5,-204 295.5,-204 295.5,-170 102.5,-170"/>
<text text-anchor="start" x="110.5" y="-191" font-family="Helvetica,sans-Serif" font-size="10.00">project::SymbolInstanceProperties</text>
<text text-anchor="middle" x="199" y="-178" font-family="Helvetica,sans-Serif" font-size="10.00">Dialog::SymbolInstancePropertiesDialog</text>
</a>
</g>
<!-- Node1&#45;&gt;Node2 -->
<g id="edge2" class="edge"><title>Node1&#45;&gt;Node2</title>
<path fill="none" stroke="midnightblue" d="M61.7325,-143.202C73.9286,-149.269 88.4373,-155.988 102,-161 110.667,-164.203 119.904,-167.194 129.102,-169.924"/>
<polygon fill="midnightblue" stroke="midnightblue" points="63.0109,-139.926 52.5095,-138.522 59.843,-146.168 63.0109,-139.926"/>
</g>
<!-- Node3 -->
<g id="node5" class="node"><title>Node3</title>
<a xlink:href="../../d9/de8/classproject_1_1_symbol_instance_properties_dialog.html#a66bcae3418c36d116472548236be0183" target="_top" xlink:title="project::SymbolInstanceProperties\lDialog::on_tblGenCompInstAttributes\l_currentCellChanged">
<polygon fill="white" stroke="black" points="109.5,-104.5 109.5,-151.5 288.5,-151.5 288.5,-104.5 109.5,-104.5"/>
<text text-anchor="start" x="117.5" y="-138.5" font-family="Helvetica,sans-Serif" font-size="10.00">project::SymbolInstanceProperties</text>
<text text-anchor="start" x="117.5" y="-125.5" font-family="Helvetica,sans-Serif" font-size="10.00">Dialog::on_tblGenCompInstAttributes</text>
<text text-anchor="middle" x="199" y="-112.5" font-family="Helvetica,sans-Serif" font-size="10.00">_currentCellChanged</text>
</a>
</g>
<!-- Node1&#45;&gt;Node3 -->
<g id="edge4" class="edge"><title>Node1&#45;&gt;Node3</title>
<path fill="none" stroke="midnightblue" d="M75.8035,-128C86.2164,-128 97.742,-128 109.443,-128"/>
<polygon fill="midnightblue" stroke="midnightblue" points="75.7963,-124.5 65.7963,-128 75.7962,-131.5 75.7963,-124.5"/>
</g>
<!-- Node4 -->
<g id="node7" class="node"><title>Node4</title>
<a xlink:href="../../d9/de8/classproject_1_1_symbol_instance_properties_dialog.html#ae6a75261c3020ffe8f8ca62ad94f443e" target="_top" xlink:title="project::SymbolInstanceProperties\lDialog::updateAttrTable">
<polygon fill="white" stroke="black" points="115.5,-52 115.5,-86 282.5,-86 282.5,-52 115.5,-52"/>
<text text-anchor="start" x="123.5" y="-73" font-family="Helvetica,sans-Serif" font-size="10.00">project::SymbolInstanceProperties</text>
<text text-anchor="middle" x="199" y="-60" font-family="Helvetica,sans-Serif" font-size="10.00">Dialog::updateAttrTable</text>
</a>
</g>
<!-- Node1&#45;&gt;Node4 -->
<g id="edge6" class="edge"><title>Node1&#45;&gt;Node4</title>
<path fill="none" stroke="midnightblue" d="M61.7325,-112.798C73.9286,-106.731 88.4373,-100.012 102,-95 110.667,-91.7968 119.904,-88.8056 129.102,-86.0757"/>
<polygon fill="midnightblue" stroke="midnightblue" points="59.843,-109.832 52.5095,-117.478 63.0109,-116.074 59.843,-109.832"/>
</g>
<!-- Node5 -->
<g id="node9" class="node"><title>Node5</title>
<a xlink:href="../../d9/de8/classproject_1_1_symbol_instance_properties_dialog.html#a92e7065644b40063109564ff3463a038" target="_top" xlink:title="project::SymbolInstanceProperties\lDialog::on_btnAttrApply_clicked">
<polygon fill="white" stroke="black" points="332.5,-104 332.5,-138 499.5,-138 499.5,-104 332.5,-104"/>
<text text-anchor="start" x="340.5" y="-125" font-family="Helvetica,sans-Serif" font-size="10.00">project::SymbolInstanceProperties</text>
<text text-anchor="middle" x="416" y="-112" font-family="Helvetica,sans-Serif" font-size="10.00">Dialog::on_btnAttrApply_clicked</text>
</a>
</g>
<!-- Node4&#45;&gt;Node5 -->
<g id="edge8" class="edge"><title>Node4&#45;&gt;Node5</title>
<path fill="none" stroke="midnightblue" d="M280.031,-88.4176C301.299,-93.5141 324.075,-98.9718 344.786,-103.935"/>
<polygon fill="midnightblue" stroke="midnightblue" points="280.594,-84.9535 270.054,-86.0267 278.963,-91.7608 280.594,-84.9535"/>
</g>
<!-- Node6 -->
<g id="node11" class="node"><title>Node6</title>
<a xlink:href="../../d9/de8/classproject_1_1_symbol_instance_properties_dialog.html#a9a515c48bc6c1a086b0bb0bfb531fe1c" target="_top" xlink:title="project::SymbolInstanceProperties\lDialog::on_btnAttrAdd_clicked">
<polygon fill="white" stroke="black" points="332.5,-52 332.5,-86 499.5,-86 499.5,-52 332.5,-52"/>
<text text-anchor="start" x="340.5" y="-73" font-family="Helvetica,sans-Serif" font-size="10.00">project::SymbolInstanceProperties</text>
<text text-anchor="middle" x="416" y="-60" font-family="Helvetica,sans-Serif" font-size="10.00">Dialog::on_btnAttrAdd_clicked</text>
</a>
</g>
<!-- Node4&#45;&gt;Node6 -->
<g id="edge10" class="edge"><title>Node4&#45;&gt;Node6</title>
<path fill="none" stroke="midnightblue" d="M292.64,-69C305.881,-69 319.422,-69 332.456,-69"/>
<polygon fill="midnightblue" stroke="midnightblue" points="292.588,-65.5001 282.587,-69 292.587,-72.5001 292.588,-65.5001"/>
</g>
<!-- Node7 -->
<g id="node13" class="node"><title>Node7</title>
<a xlink:href="../../d9/de8/classproject_1_1_symbol_instance_properties_dialog.html#a604544ff0a4c009d49d8e680700ee06c" target="_top" xlink:title="project::SymbolInstanceProperties\lDialog::on_btnAttrRemove_clicked">
<polygon fill="white" stroke="black" points="332,-0 332,-34 500,-34 500,-0 332,-0"/>
<text text-anchor="start" x="340" y="-21" font-family="Helvetica,sans-Serif" font-size="10.00">project::SymbolInstanceProperties</text>
<text text-anchor="middle" x="416" y="-8" font-family="Helvetica,sans-Serif" font-size="10.00">Dialog::on_btnAttrRemove_clicked</text>
</a>
</g>
<!-- Node4&#45;&gt;Node7 -->
<g id="edge12" class="edge"><title>Node4&#45;&gt;Node7</title>
<path fill="none" stroke="midnightblue" d="M280.031,-49.5824C301.299,-44.4859 324.075,-39.0282 344.786,-34.065"/>
<polygon fill="midnightblue" stroke="midnightblue" points="278.963,-46.2392 270.054,-51.9733 280.594,-53.0465 278.963,-46.2392"/>
</g>
</g>
</svg>
