<?xml version="1.0" encoding="UTF-8" standalone="no"?>
<!DOCTYPE svg PUBLIC "-//W3C//DTD SVG 1.1//EN"
 "http://www.w3.org/Graphics/SVG/1.1/DTD/svg11.dtd">
<!-- Generated by graphviz version 2.26.3 (20100126.1600)
 -->
<!-- Title: ~SmartFile Pages: 1 -->
<svg width="228pt" height="70pt"
 viewBox="0.00 0.00 228.00 70.00" xmlns="http://www.w3.org/2000/svg" xmlns:xlink="http://www.w3.org/1999/xlink">
<g id="graph1" class="graph" transform="scale(1 1) rotate(0) translate(4 66)">
<title>~SmartFile</title>
<polygon fill="white" stroke="white" points="-4,5 -4,-66 225,-66 225,5 -4,5"/>
<!-- Node1 -->
<g id="node1" class="node"><title>Node1</title>
<polygon fill="#bfbfbf" stroke="black" points="0.5,-20.5 0.5,-41.5 65.5,-41.5 65.5,-20.5 0.5,-20.5"/>
<text text-anchor="middle" x="33" y="-28.5" font-family="Helvetica,sans-Serif" font-size="10.00">~SmartFile</text>
</g>
<!-- Node2 -->
<g id="node3" class="node"><title>Node2</title>
<a xlink:href="../../d4/d1c/class_file_path.html#af7ebe5b84330753a4d61b36199f3da48" target="_top" xlink:title="Check if the specified filepath is an existing file. ">
<polygon fill="white" stroke="black" points="102.5,-40.5 102.5,-61.5 219.5,-61.5 219.5,-40.5 102.5,-40.5"/>
<text text-anchor="middle" x="161" y="-48.5" font-family="Helvetica,sans-Serif" font-size="10.00">FilePath::isExistingFile</text>
</a>
</g>
<!-- Node1&#45;&gt;Node2 -->
<g id="edge2" class="edge"><title>Node1&#45;&gt;Node2</title>
<path fill="none" stroke="midnightblue" d="M65.631,-36.0986C73.8445,-37.382 82.9738,-38.8084 92.2369,-40.2558"/>
<polygon fill="midnightblue" stroke="midnightblue" points="91.8834,-43.7429 102.304,-41.8287 92.9641,-36.8268 91.8834,-43.7429"/>
</g>
<!-- Node3 -->
<g id="node5" class="node"><title>Node3</title>
<a xlink:href="../../d4/d1c/class_file_path.html#a39a0bbf3901de18041fb5c324ecf412a" target="_top" xlink:title="Get the absolute and well&#45;formatted filepath as a QString. ">
<polygon fill="white" stroke="black" points="121,-0.5 121,-21.5 201,-21.5 201,-0.5 121,-0.5"/>
<text text-anchor="middle" x="161" y="-8.5" font-family="Helvetica,sans-Serif" font-size="10.00">FilePath::toStr</text>
</a>
</g>
<!-- Node1&#45;&gt;Node3 -->
<g id="edge4" class="edge"><title>Node1&#45;&gt;Node3</title>
<path fill="none" stroke="midnightblue" d="M65.631,-25.9014C79.2319,-23.7763 95.3438,-21.2588 110.416,-18.9037"/>
<polygon fill="midnightblue" stroke="midnightblue" points="111.302,-22.3079 120.641,-17.306 110.221,-15.3918 111.302,-22.3079"/>
</g>
</g>
</svg>
