<?xml version="1.0" encoding="UTF-8" standalone="no"?>
<!DOCTYPE svg PUBLIC "-//W3C//DTD SVG 1.1//EN"
 "http://www.w3.org/Graphics/SVG/1.1/DTD/svg11.dtd">
<!-- Generated by graphviz version 2.26.3 (20100126.1600)
 -->
<!-- Title: /home/travis/build/LibrePCB/LibrePCB/libs/librepcbcommon/graphics/graphicsview.cpp Pages: 1 -->
<svg width="747pt" height="418pt"
 viewBox="0.00 0.00 746.68 418.00" xmlns="http://www.w3.org/2000/svg" xmlns:xlink="http://www.w3.org/1999/xlink">
<g id="graph1" class="graph" transform="scale(1 1) rotate(0) translate(4 414)">
<title>/home/travis/build/LibrePCB/LibrePCB/libs/librepcbcommon/graphics/graphicsview.cpp</title>
<polygon fill="white" stroke="white" points="-4,5 -4,-414 743.677,-414 743.677,5 -4,5"/>
<!-- Node1 -->
<g id="node1" class="node"><title>Node1</title>
<polygon fill="#bfbfbf" stroke="black" points="145.177,-349 145.177,-409 276.177,-409 276.177,-349 145.177,-349"/>
<text text-anchor="start" x="153.177" y="-396" font-family="Helvetica,sans-Serif" font-size="10.00">/home/travis/build</text>
<text text-anchor="start" x="153.177" y="-383" font-family="Helvetica,sans-Serif" font-size="10.00">/LibrePCB/LibrePCB/libs</text>
<text text-anchor="start" x="153.177" y="-370" font-family="Helvetica,sans-Serif" font-size="10.00">/librepcbcommon/graphics</text>
<text text-anchor="middle" x="210.677" y="-357" font-family="Helvetica,sans-Serif" font-size="10.00">/graphicsview.cpp</text>
</g>
<!-- Node2 -->
<g id="node3" class="node"><title>Node2</title>
<polygon fill="white" stroke="#bfbfbf" points="363.677,-0.5 363.677,-21.5 411.677,-21.5 411.677,-0.5 363.677,-0.5"/>
<text text-anchor="middle" x="387.677" y="-8.5" font-family="Helvetica,sans-Serif" font-size="10.00">QtCore</text>
</g>
<!-- Node1&#45;&gt;Node2 -->
<g id="edge2" class="edge"><title>Node1&#45;&gt;Node2</title>
<path fill="none" stroke="midnightblue" d="M145.159,-371.576C103.776,-363.536 52.1703,-346.805 19.6766,-312 -2.02975,-288.749 0.676582,-274.808 0.676582,-243 0.676582,-243 0.676582,-243 0.676582,-127 0.676582,-53.7213 258.489,-22.7856 353.261,-13.8891"/>
<polygon fill="midnightblue" stroke="midnightblue" points="353.828,-17.3521 363.468,-12.9576 353.191,-10.3811 353.828,-17.3521"/>
</g>
<!-- Node3 -->
<g id="node5" class="node"><title>Node3</title>
<polygon fill="white" stroke="#bfbfbf" points="94.1766,-232.5 94.1766,-253.5 157.177,-253.5 157.177,-232.5 94.1766,-232.5"/>
<text text-anchor="middle" x="125.677" y="-240.5" font-family="Helvetica,sans-Serif" font-size="10.00">QtWidgets</text>
</g>
<!-- Node1&#45;&gt;Node3 -->
<g id="edge4" class="edge"><title>Node1&#45;&gt;Node3</title>
<path fill="none" stroke="midnightblue" d="M184.281,-348.754C175.239,-337.617 165.451,-324.63 157.677,-312 147.985,-296.255 139.323,-277.092 133.462,-262.961"/>
<polygon fill="midnightblue" stroke="midnightblue" points="136.705,-261.643 129.716,-253.68 130.214,-264.263 136.705,-261.643"/>
</g>
<!-- Node4 -->
<g id="node7" class="node"><title>Node4</title>
<polygon fill="white" stroke="#bfbfbf" points="448.177,-290.5 448.177,-311.5 511.177,-311.5 511.177,-290.5 448.177,-290.5"/>
<text text-anchor="middle" x="479.677" y="-298.5" font-family="Helvetica,sans-Serif" font-size="10.00">QtOpenGL</text>
</g>
<!-- Node1&#45;&gt;Node4 -->
<g id="edge6" class="edge"><title>Node1&#45;&gt;Node4</title>
<path fill="none" stroke="midnightblue" d="M276.481,-359.919C326.88,-345.305 394.87,-325.591 438,-313.085"/>
<polygon fill="midnightblue" stroke="midnightblue" points="439.243,-316.369 447.872,-310.222 437.293,-309.645 439.243,-316.369"/>
</g>
<!-- Node5 -->
<g id="node9" class="node"><title>Node5</title>
<a xlink:href="../../df/dfc/graphicsview_8h.html" target="_top" xlink:title="graphicsview.h">
<polygon fill="white" stroke="black" points="28.6766,-290.5 28.6766,-311.5 110.677,-311.5 110.677,-290.5 28.6766,-290.5"/>
<text text-anchor="middle" x="69.6766" y="-298.5" font-family="Helvetica,sans-Serif" font-size="10.00">graphicsview.h</text>
</a>
</g>
<!-- Node1&#45;&gt;Node5 -->
<g id="edge8" class="edge"><title>Node1&#45;&gt;Node5</title>
<path fill="none" stroke="midnightblue" d="M156.162,-348.843C136.339,-337.877 114.736,-325.927 98.0801,-316.713"/>
<polygon fill="midnightblue" stroke="midnightblue" points="99.3401,-313.41 88.8955,-311.632 95.9516,-319.535 99.3401,-313.41"/>
</g>
<!-- Node6 -->
<g id="node13" class="node"><title>Node6</title>
<a xlink:href="../../d2/d7d/graphicsscene_8h.html" target="_top" xlink:title="graphicsscene.h">
<polygon fill="white" stroke="black" points="166.677,-290.5 166.677,-311.5 254.677,-311.5 254.677,-290.5 166.677,-290.5"/>
<text text-anchor="middle" x="210.677" y="-298.5" font-family="Helvetica,sans-Serif" font-size="10.00">graphicsscene.h</text>
</a>
</g>
<!-- Node1&#45;&gt;Node6 -->
<g id="edge14" class="edge"><title>Node1&#45;&gt;Node6</title>
<path fill="none" stroke="midnightblue" d="M210.677,-348.62C210.677,-339.68 210.677,-330.103 210.677,-321.9"/>
<polygon fill="midnightblue" stroke="midnightblue" points="214.177,-321.753 210.677,-311.753 207.177,-321.753 214.177,-321.753"/>
</g>
<!-- Node7 -->
<g id="node17" class="node"><title>Node7</title>
<a xlink:href="../../df/df9/if__graphicsvieweventhandler_8h.html" target="_top" xlink:title="if_graphicsvieweventhandler.h">
<polygon fill="white" stroke="black" points="208.677,-174.5 208.677,-195.5 356.677,-195.5 356.677,-174.5 208.677,-174.5"/>
<text text-anchor="middle" x="282.677" y="-182.5" font-family="Helvetica,sans-Serif" font-size="10.00">if_graphicsvieweventhandler.h</text>
</a>
</g>
<!-- Node1&#45;&gt;Node7 -->
<g id="edge20" class="edge"><title>Node1&#45;&gt;Node7</title>
<path fill="none" stroke="midnightblue" d="M239.996,-348.845C248.962,-338.017 257.957,-325.2 263.677,-312 278.887,-276.896 282.243,-231.788 282.803,-205.861"/>
<polygon fill="midnightblue" stroke="midnightblue" points="286.304,-205.738 282.897,-195.706 279.304,-205.673 286.304,-205.738"/>
</g>
<!-- Node8 -->
<g id="node20" class="node"><title>Node8</title>
<a xlink:href="../../d4/d8d/gridproperties_8h.html" target="_top" xlink:title="../gridproperties.h">
<polygon fill="white" stroke="black" points="338.677,-290.5 338.677,-311.5 430.677,-311.5 430.677,-290.5 338.677,-290.5"/>
<text text-anchor="middle" x="384.677" y="-298.5" font-family="Helvetica,sans-Serif" font-size="10.00">../gridproperties.h</text>
</a>
</g>
<!-- Node1&#45;&gt;Node8 -->
<g id="edge24" class="edge"><title>Node1&#45;&gt;Node8</title>
<path fill="none" stroke="midnightblue" d="M276.459,-349.512C302.163,-337.989 330.499,-325.286 351.726,-315.771"/>
<polygon fill="midnightblue" stroke="midnightblue" points="353.251,-318.923 360.944,-311.639 350.387,-312.536 353.251,-318.923"/>
</g>
<!-- Node5&#45;&gt;Node2 -->
<g id="edge10" class="edge"><title>Node5&#45;&gt;Node2</title>
<path fill="none" stroke="midnightblue" d="M69.2209,-290.446C68.3817,-270.068 66.6766,-223.881 66.6766,-185 66.6766,-185 66.6766,-185 66.6766,-127 66.6766,-66.4804 271.042,-28.6869 353.644,-15.8829"/>
<polygon fill="midnightblue" stroke="midnightblue" points="354.189,-19.3404 363.549,-14.3774 353.137,-12.4199 354.189,-19.3404"/>
</g>
<!-- Node5&#45;&gt;Node3 -->
<g id="edge12" class="edge"><title>Node5&#45;&gt;Node3</title>
<path fill="none" stroke="midnightblue" d="M79.9478,-290.362C87.9207,-282.104 99.1514,-270.472 108.488,-260.803"/>
<polygon fill="midnightblue" stroke="midnightblue" points="111.042,-263.196 115.47,-253.571 106.007,-258.334 111.042,-263.196"/>
</g>
<!-- Node6&#45;&gt;Node2 -->
<g id="edge16" class="edge"><title>Node6&#45;&gt;Node2</title>
<path fill="none" stroke="midnightblue" d="M206.308,-290.192C197.845,-267.488 181.571,-213.661 199.677,-174 232.168,-102.826 312.786,-50.7733 357.17,-26.4114"/>
<polygon fill="midnightblue" stroke="midnightblue" points="358.907,-29.4514 366.061,-21.6362 355.595,-23.2846 358.907,-29.4514"/>
</g>
<!-- Node6&#45;&gt;Node3 -->
<g id="edge18" class="edge"><title>Node6&#45;&gt;Node3</title>
<path fill="none" stroke="midnightblue" d="M195.086,-290.362C182.386,-281.696 164.238,-269.313 149.684,-259.382"/>
<polygon fill="midnightblue" stroke="midnightblue" points="151.401,-256.316 141.168,-253.571 147.456,-262.098 151.401,-256.316"/>
</g>
<!-- Node7&#45;&gt;Node2 -->
<g id="edge22" class="edge"><title>Node7&#45;&gt;Node2</title>
<path fill="none" stroke="midnightblue" d="M288.312,-174.26C300.024,-152.125 328.123,-99.9846 354.677,-58 360.689,-48.4941 367.81,-38.2391 373.896,-29.7412"/>
<polygon fill="midnightblue" stroke="midnightblue" points="376.742,-31.7786 379.774,-21.6266 371.073,-27.6725 376.742,-31.7786"/>
</g>
<!-- Node8&#45;&gt;Node2 -->
<g id="edge26" class="edge"><title>Node8&#45;&gt;Node2</title>
<path fill="none" stroke="midnightblue" d="M384.787,-290.335C385.228,-247.704 386.869,-89.0869 387.461,-31.8034"/>
<polygon fill="midnightblue" stroke="midnightblue" points="390.962,-31.7979 387.565,-21.7622 383.962,-31.7254 390.962,-31.7979"/>
</g>
<!-- Node9 -->
<g id="node23" class="node"><title>Node9</title>
<a xlink:href="../../d0/d1d/if__xmlserializableobject_8h.html" target="_top" xlink:title="fileio/if_xmlserializableobject.h">
<polygon fill="white" stroke="black" points="590.177,-174.5 590.177,-195.5 739.177,-195.5 739.177,-174.5 590.177,-174.5"/>
<text text-anchor="middle" x="664.677" y="-182.5" font-family="Helvetica,sans-Serif" font-size="10.00">fileio/if_xmlserializableobject.h</text>
</a>
</g>
<!-- Node8&#45;&gt;Node9 -->
<g id="edge28" class="edge"><title>Node8&#45;&gt;Node9</title>
<path fill="none" stroke="midnightblue" d="M430.72,-291.926C465.406,-284.209 513.662,-271.568 553.677,-254 586.363,-239.649 620.796,-216.878 642.484,-201.455"/>
<polygon fill="midnightblue" stroke="midnightblue" points="644.622,-204.229 650.685,-195.54 640.527,-198.552 644.622,-204.229"/>
</g>
<!-- Node11 -->
<g id="node28" class="node"><title>Node11</title>
<a xlink:href="../../d1/da8/all__length__units_8h.html" target="_top" xlink:title="units/all_length_units.h">
<polygon fill="white" stroke="black" points="428.677,-232.5 428.677,-253.5 544.677,-253.5 544.677,-232.5 428.677,-232.5"/>
<text text-anchor="middle" x="486.677" y="-240.5" font-family="Helvetica,sans-Serif" font-size="10.00">units/all_length_units.h</text>
</a>
</g>
<!-- Node8&#45;&gt;Node11 -->
<g id="edge34" class="edge"><title>Node8&#45;&gt;Node11</title>
<path fill="none" stroke="midnightblue" d="M403.385,-290.362C419.057,-281.45 441.641,-268.609 459.339,-258.545"/>
<polygon fill="midnightblue" stroke="midnightblue" points="461.124,-261.556 468.087,-253.571 457.664,-255.471 461.124,-261.556"/>
</g>
<!-- Node10 -->
<g id="node25" class="node"><title>Node10</title>
<a xlink:href="../../d4/d03/exceptions_8h.html" target="_top" xlink:title="../exceptions.h">
<polygon fill="white" stroke="black" points="510.177,-58.5 510.177,-79.5 591.177,-79.5 591.177,-58.5 510.177,-58.5"/>
<text text-anchor="middle" x="550.677" y="-66.5" font-family="Helvetica,sans-Serif" font-size="10.00">../exceptions.h</text>
</a>
</g>
<!-- Node9&#45;&gt;Node10 -->
<g id="edge30" class="edge"><title>Node9&#45;&gt;Node10</title>
<path fill="none" stroke="midnightblue" d="M664.011,-174.438C662.57,-159.754 658.021,-133.059 643.677,-116 631.299,-101.28 613.163,-90.6798 596.186,-83.3169"/>
<polygon fill="midnightblue" stroke="midnightblue" points="597.5,-80.0728 586.918,-79.5538 594.866,-86.5587 597.5,-80.0728"/>
</g>
<!-- Node10&#45;&gt;Node2 -->
<g id="edge32" class="edge"><title>Node10&#45;&gt;Node2</title>
<path fill="none" stroke="midnightblue" d="M521.159,-58.4966C493.052,-48.4954 450.788,-33.4569 421.374,-22.9904"/>
<polygon fill="midnightblue" stroke="midnightblue" points="422.525,-19.6851 411.93,-19.6301 420.178,-26.28 422.525,-19.6851"/>
</g>
<!-- Node12 -->
<g id="node30" class="node"><title>Node12</title>
<a xlink:href="../../d0/d09/lengthunit_8h.html" target="_top" xlink:title="lengthunit.h">
<polygon fill="white" stroke="black" points="568.177,-116.5 568.177,-137.5 635.177,-137.5 635.177,-116.5 568.177,-116.5"/>
<text text-anchor="middle" x="601.677" y="-124.5" font-family="Helvetica,sans-Serif" font-size="10.00">lengthunit.h</text>
</a>
</g>
<!-- Node11&#45;&gt;Node12 -->
<g id="edge36" class="edge"><title>Node11&#45;&gt;Node12</title>
<path fill="none" stroke="midnightblue" d="M497.289,-232.295C517.058,-212.355 559.705,-169.337 583.925,-144.906"/>
<polygon fill="midnightblue" stroke="midnightblue" points="586.535,-147.245 591.089,-137.679 581.563,-142.317 586.535,-147.245"/>
</g>
<!-- Node13 -->
<g id="node34" class="node"><title>Node13</title>
<a xlink:href="../../dd/db9/length_8h.html" target="_top" xlink:title="length.h">
<polygon fill="white" stroke="black" points="500.177,-116.5 500.177,-137.5 551.177,-137.5 551.177,-116.5 500.177,-116.5"/>
<text text-anchor="middle" x="525.677" y="-124.5" font-family="Helvetica,sans-Serif" font-size="10.00">length.h</text>
</a>
</g>
<!-- Node11&#45;&gt;Node13 -->
<g id="edge42" class="edge"><title>Node11&#45;&gt;Node13</title>
<path fill="none" stroke="midnightblue" d="M490.276,-232.295C496.777,-212.959 510.573,-171.923 518.893,-147.177"/>
<polygon fill="midnightblue" stroke="midnightblue" points="522.217,-148.273 522.086,-137.679 515.582,-146.042 522.217,-148.273"/>
</g>
<!-- Node14 -->
<g id="node38" class="node"><title>Node14</title>
<a xlink:href="../../d2/d91/point_8h.html" target="_top" xlink:title="point.h">
<polygon fill="white" stroke="black" points="412.677,-174.5 412.677,-195.5 458.677,-195.5 458.677,-174.5 412.677,-174.5"/>
<text text-anchor="middle" x="435.677" y="-182.5" font-family="Helvetica,sans-Serif" font-size="10.00">point.h</text>
</a>
</g>
<!-- Node11&#45;&gt;Node14 -->
<g id="edge48" class="edge"><title>Node11&#45;&gt;Node14</title>
<path fill="none" stroke="midnightblue" d="M477.322,-232.362C470.133,-224.186 460.036,-212.702 451.584,-203.091"/>
<polygon fill="midnightblue" stroke="midnightblue" points="454.203,-200.769 444.971,-195.571 448.946,-205.392 454.203,-200.769"/>
</g>
<!-- Node15 -->
<g id="node42" class="node"><title>Node15</title>
<a xlink:href="../../da/dac/angle_8h.html" target="_top" xlink:title="angle.h">
<polygon fill="white" stroke="black" points="434.677,-116.5 434.677,-137.5 482.677,-137.5 482.677,-116.5 434.677,-116.5"/>
<text text-anchor="middle" x="458.677" y="-124.5" font-family="Helvetica,sans-Serif" font-size="10.00">angle.h</text>
</a>
</g>
<!-- Node11&#45;&gt;Node15 -->
<g id="edge54" class="edge"><title>Node11&#45;&gt;Node15</title>
<path fill="none" stroke="midnightblue" d="M484.093,-232.295C479.446,-213.045 469.608,-172.289 463.627,-147.509"/>
<polygon fill="midnightblue" stroke="midnightblue" points="467.003,-146.579 461.254,-137.679 460.199,-148.221 467.003,-146.579"/>
</g>
<!-- Node12&#45;&gt;Node2 -->
<g id="edge38" class="edge"><title>Node12&#45;&gt;Node2</title>
<path fill="none" stroke="midnightblue" d="M605.018,-116.266C608.926,-101.378 613.268,-74.4412 599.677,-58 577.383,-31.0323 475.957,-18.462 421.877,-13.5888"/>
<polygon fill="midnightblue" stroke="midnightblue" points="421.993,-10.0859 411.73,-12.7148 421.393,-17.0601 421.993,-10.0859"/>
</g>
<!-- Node12&#45;&gt;Node10 -->
<g id="edge40" class="edge"><title>Node12&#45;&gt;Node10</title>
<path fill="none" stroke="midnightblue" d="M592.322,-116.362C585.133,-108.186 575.036,-96.7025 566.584,-87.0907"/>
<polygon fill="midnightblue" stroke="midnightblue" points="569.203,-84.7692 559.971,-79.5707 563.946,-89.3916 569.203,-84.7692"/>
</g>
<!-- Node13&#45;&gt;Node2 -->
<g id="edge44" class="edge"><title>Node13&#45;&gt;Node2</title>
<path fill="none" stroke="midnightblue" d="M512.941,-116.295C489.014,-96.1819 437.155,-52.5904 408.228,-28.2752"/>
<polygon fill="midnightblue" stroke="midnightblue" points="410.288,-25.4346 400.381,-21.6792 405.784,-30.793 410.288,-25.4346"/>
</g>
<!-- Node13&#45;&gt;Node10 -->
<g id="edge46" class="edge"><title>Node13&#45;&gt;Node10</title>
<path fill="none" stroke="midnightblue" d="M530.262,-116.362C533.575,-108.677 538.147,-98.0686 542.125,-88.8399"/>
<polygon fill="midnightblue" stroke="midnightblue" points="545.376,-90.1393 546.12,-79.5707 538.948,-87.3685 545.376,-90.1393"/>
</g>
<!-- Node14&#45;&gt;Node2 -->
<g id="edge50" class="edge"><title>Node14&#45;&gt;Node2</title>
<path fill="none" stroke="midnightblue" d="M432.746,-174.377C424.965,-146.172 403.68,-69.0121 393.393,-31.7203"/>
<polygon fill="midnightblue" stroke="midnightblue" points="396.724,-30.6369 390.691,-21.9277 389.977,-32.4984 396.724,-30.6369"/>
</g>
<!-- Node14&#45;&gt;Node13 -->
<g id="edge52" class="edge"><title>Node14&#45;&gt;Node13</title>
<path fill="none" stroke="midnightblue" d="M452.184,-174.362C465.759,-165.614 485.21,-153.079 500.692,-143.101"/>
<polygon fill="midnightblue" stroke="midnightblue" points="502.764,-145.93 509.274,-137.571 498.972,-140.046 502.764,-145.93"/>
</g>
<!-- Node15&#45;&gt;Node2 -->
<g id="edge56" class="edge"><title>Node15&#45;&gt;Node2</title>
<path fill="none" stroke="midnightblue" d="M453.109,-116.034C446.001,-102.244 433.127,-77.957 420.677,-58 414.723,-48.4571 407.608,-38.1978 401.512,-29.7065"/>
<polygon fill="midnightblue" stroke="midnightblue" points="404.331,-27.6315 395.619,-21.602 398.669,-31.7482 404.331,-27.6315"/>
</g>
<!-- Node15&#45;&gt;Node10 -->
<g id="edge58" class="edge"><title>Node15&#45;&gt;Node10</title>
<path fill="none" stroke="midnightblue" d="M475.551,-116.362C489.427,-107.614 509.311,-95.0786 525.136,-85.1015"/>
<polygon fill="midnightblue" stroke="midnightblue" points="527.317,-87.8645 533.909,-79.5707 523.583,-81.943 527.317,-87.8645"/>
</g>
</g>
</svg>
