<?xml version="1.0" encoding="UTF-8" standalone="no"?>
<!DOCTYPE svg PUBLIC "-//W3C//DTD SVG 1.1//EN"
 "http://www.w3.org/Graphics/SVG/1.1/DTD/svg11.dtd">
<!-- Generated by graphviz version 2.26.3 (20100126.1600)
 -->
<!-- Title: /home/travis/build/LibrePCB/LibrePCB/libs/librepcblibrary/library.h Pages: 1 -->
<svg width="1620pt" height="166pt"
 viewBox="0.00 0.00 1620.00 166.00" xmlns="http://www.w3.org/2000/svg" xmlns:xlink="http://www.w3.org/1999/xlink">
<g id="graph1" class="graph" transform="scale(1 1) rotate(0) translate(4 162)">
<title>/home/travis/build/LibrePCB/LibrePCB/libs/librepcblibrary/library.h</title>
<polygon fill="white" stroke="white" points="-4,5 -4,-162 1617,-162 1617,5 -4,5"/>
<!-- Node1 -->
<g id="node1" class="node"><title>Node1</title>
<polygon fill="#bfbfbf" stroke="black" points="782.5,-110.5 782.5,-157.5 907.5,-157.5 907.5,-110.5 782.5,-110.5"/>
<text text-anchor="start" x="790.5" y="-144.5" font-family="Helvetica,sans-Serif" font-size="10.00">/home/travis/build</text>
<text text-anchor="start" x="790.5" y="-131.5" font-family="Helvetica,sans-Serif" font-size="10.00">/LibrePCB/LibrePCB/libs</text>
<text text-anchor="middle" x="845" y="-118.5" font-family="Helvetica,sans-Serif" font-size="10.00">/librepcblibrary/library.h</text>
</g>
<!-- Node2 -->
<g id="node3" class="node"><title>Node2</title>
<a xlink:href="../../d3/dca/categorytreeitem_8cpp.html" target="_top" xlink:title="/home/travis/build\l/LibrePCB/LibrePCB/libs\l/librepcblibrary/cat/categorytreeitem.cpp">
<polygon fill="white" stroke="black" points="-0.5,-13.5 -0.5,-60.5 190.5,-60.5 190.5,-13.5 -0.5,-13.5"/>
<text text-anchor="start" x="7.5" y="-47.5" font-family="Helvetica,sans-Serif" font-size="10.00">/home/travis/build</text>
<text text-anchor="start" x="7.5" y="-34.5" font-family="Helvetica,sans-Serif" font-size="10.00">/LibrePCB/LibrePCB/libs</text>
<text text-anchor="middle" x="95" y="-21.5" font-family="Helvetica,sans-Serif" font-size="10.00">/librepcblibrary/cat/categorytreeitem.cpp</text>
</a>
</g>
<!-- Node1&#45;&gt;Node2 -->
<g id="edge2" class="edge"><title>Node1&#45;&gt;Node2</title>
<path fill="none" stroke="midnightblue" d="M772.226,-129.532C627.146,-120.248 306.612,-97.7491 199,-74 183.842,-70.6547 167.864,-65.7222 153.103,-60.5418"/>
<polygon fill="midnightblue" stroke="midnightblue" points="772.161,-133.035 782.364,-130.177 772.606,-126.049 772.161,-133.035"/>
</g>
<!-- Node3 -->
<g id="node5" class="node"><title>Node3</title>
<a xlink:href="../../df/d1d/categorytreemodel_8cpp.html" target="_top" xlink:title="/home/travis/build\l/LibrePCB/LibrePCB/libs\l/librepcblibrary/cat/categorytreemodel.cpp">
<polygon fill="white" stroke="black" points="208,-13.5 208,-60.5 406,-60.5 406,-13.5 208,-13.5"/>
<text text-anchor="start" x="216" y="-47.5" font-family="Helvetica,sans-Serif" font-size="10.00">/home/travis/build</text>
<text text-anchor="start" x="216" y="-34.5" font-family="Helvetica,sans-Serif" font-size="10.00">/LibrePCB/LibrePCB/libs</text>
<text text-anchor="middle" x="307" y="-21.5" font-family="Helvetica,sans-Serif" font-size="10.00">/librepcblibrary/cat/categorytreemodel.cpp</text>
</a>
</g>
<!-- Node1&#45;&gt;Node3 -->
<g id="edge4" class="edge"><title>Node1&#45;&gt;Node3</title>
<path fill="none" stroke="midnightblue" d="M772.154,-128.12C685.991,-120.184 538.643,-103.518 415,-74 399.963,-70.4101 384.063,-65.573 369.222,-60.5819"/>
<polygon fill="midnightblue" stroke="midnightblue" points="772.077,-131.627 782.353,-129.045 772.71,-124.656 772.077,-131.627"/>
</g>
<!-- Node4 -->
<g id="node7" class="node"><title>Node4</title>
<a xlink:href="../../d7/d7d/library_8cpp.html" target="_top" xlink:title="/home/travis/build\l/LibrePCB/LibrePCB/libs\l/librepcblibrary/library.cpp">
<polygon fill="white" stroke="black" points="424,-13.5 424,-60.5 552,-60.5 552,-13.5 424,-13.5"/>
<text text-anchor="start" x="432" y="-47.5" font-family="Helvetica,sans-Serif" font-size="10.00">/home/travis/build</text>
<text text-anchor="start" x="432" y="-34.5" font-family="Helvetica,sans-Serif" font-size="10.00">/LibrePCB/LibrePCB/libs</text>
<text text-anchor="middle" x="488" y="-21.5" font-family="Helvetica,sans-Serif" font-size="10.00">/librepcblibrary/library.cpp</text>
</a>
</g>
<!-- Node1&#45;&gt;Node4 -->
<g id="edge6" class="edge"><title>Node1&#45;&gt;Node4</title>
<path fill="none" stroke="midnightblue" d="M772.02,-123.957C713.794,-114.674 630.725,-98.5592 561,-74 550.681,-70.3653 539.965,-65.5697 530.025,-60.6404"/>
<polygon fill="midnightblue" stroke="midnightblue" points="771.81,-127.467 782.231,-125.556 772.893,-120.551 771.81,-127.467"/>
</g>
<!-- Node5 -->
<g id="node9" class="node"><title>Node5</title>
<a xlink:href="../../d7/d20/bes__select_8cpp.html" target="_top" xlink:title="/home/travis/build\l/LibrePCB/LibrePCB/libs\l/librepcbprojecteditor\l/boardeditor/fsm/bes_select.cpp">
<polygon fill="white" stroke="black" points="570,-7 570,-67 726,-67 726,-7 570,-7"/>
<text text-anchor="start" x="578" y="-54" font-family="Helvetica,sans-Serif" font-size="10.00">/home/travis/build</text>
<text text-anchor="start" x="578" y="-41" font-family="Helvetica,sans-Serif" font-size="10.00">/LibrePCB/LibrePCB/libs</text>
<text text-anchor="start" x="578" y="-28" font-family="Helvetica,sans-Serif" font-size="10.00">/librepcbprojecteditor</text>
<text text-anchor="middle" x="648" y="-15" font-family="Helvetica,sans-Serif" font-size="10.00">/boardeditor/fsm/bes_select.cpp</text>
</a>
</g>
<!-- Node1&#45;&gt;Node5 -->
<g id="edge8" class="edge"><title>Node1&#45;&gt;Node5</title>
<path fill="none" stroke="midnightblue" d="M787.841,-105.856C763.204,-93.7247 734.351,-79.5181 709.273,-67.1701"/>
<polygon fill="midnightblue" stroke="midnightblue" points="786.543,-109.118 797.06,-110.395 789.635,-102.838 786.543,-109.118"/>
</g>
<!-- Node6 -->
<g id="node11" class="node"><title>Node6</title>
<a xlink:href="../../de/dd2/unplacedcomponentsdock_8cpp.html" target="_top" xlink:title="/home/travis/build\l/LibrePCB/LibrePCB/libs\l/librepcbprojecteditor\l/boardeditor/unplacedcomponentsdock.cpp">
<polygon fill="white" stroke="black" points="743.5,-7 743.5,-67 946.5,-67 946.5,-7 743.5,-7"/>
<text text-anchor="start" x="751.5" y="-54" font-family="Helvetica,sans-Serif" font-size="10.00">/home/travis/build</text>
<text text-anchor="start" x="751.5" y="-41" font-family="Helvetica,sans-Serif" font-size="10.00">/LibrePCB/LibrePCB/libs</text>
<text text-anchor="start" x="751.5" y="-28" font-family="Helvetica,sans-Serif" font-size="10.00">/librepcbprojecteditor</text>
<text text-anchor="middle" x="845" y="-15" font-family="Helvetica,sans-Serif" font-size="10.00">/boardeditor/unplacedcomponentsdock.cpp</text>
</a>
</g>
<!-- Node1&#45;&gt;Node6 -->
<g id="edge10" class="edge"><title>Node1&#45;&gt;Node6</title>
<path fill="none" stroke="midnightblue" d="M845,-99.8403C845,-89.2386 845,-77.6322 845,-67.3111"/>
<polygon fill="midnightblue" stroke="midnightblue" points="841.5,-100.022 845,-110.022 848.5,-100.023 841.5,-100.022"/>
</g>
<!-- Node7 -->
<g id="node13" class="node"><title>Node7</title>
<a xlink:href="../../da/d64/addgencompdialog_8cpp.html" target="_top" xlink:title="/home/travis/build\l/LibrePCB/LibrePCB/libs\l/librepcbprojecteditor\l/dialogs/addgencompdialog.cpp">
<polygon fill="white" stroke="black" points="963.5,-7 963.5,-67 1116.5,-67 1116.5,-7 963.5,-7"/>
<text text-anchor="start" x="971.5" y="-54" font-family="Helvetica,sans-Serif" font-size="10.00">/home/travis/build</text>
<text text-anchor="start" x="971.5" y="-41" font-family="Helvetica,sans-Serif" font-size="10.00">/LibrePCB/LibrePCB/libs</text>
<text text-anchor="start" x="971.5" y="-28" font-family="Helvetica,sans-Serif" font-size="10.00">/librepcbprojecteditor</text>
<text text-anchor="middle" x="1040" y="-15" font-family="Helvetica,sans-Serif" font-size="10.00">/dialogs/addgencompdialog.cpp</text>
</a>
</g>
<!-- Node1&#45;&gt;Node7 -->
<g id="edge12" class="edge"><title>Node1&#45;&gt;Node7</title>
<path fill="none" stroke="midnightblue" d="M901.827,-105.732C926.208,-93.6044 954.722,-79.4205 979.495,-67.0975"/>
<polygon fill="midnightblue" stroke="midnightblue" points="900.097,-102.684 892.702,-110.271 903.215,-108.951 900.097,-102.684"/>
</g>
<!-- Node8 -->
<g id="node15" class="node"><title>Node8</title>
<a xlink:href="../../d8/df2/ses__addcomponents_8cpp.html" target="_top" xlink:title="/home/travis/build\l/LibrePCB/LibrePCB/libs\l/librepcbprojecteditor\l/schematiceditor/fsm/ses\l_addcomponents.cpp">
<polygon fill="white" stroke="black" points="1133.5,-0.5 1133.5,-73.5 1260.5,-73.5 1260.5,-0.5 1133.5,-0.5"/>
<text text-anchor="start" x="1141.5" y="-60.5" font-family="Helvetica,sans-Serif" font-size="10.00">/home/travis/build</text>
<text text-anchor="start" x="1141.5" y="-47.5" font-family="Helvetica,sans-Serif" font-size="10.00">/LibrePCB/LibrePCB/libs</text>
<text text-anchor="start" x="1141.5" y="-34.5" font-family="Helvetica,sans-Serif" font-size="10.00">/librepcbprojecteditor</text>
<text text-anchor="start" x="1141.5" y="-21.5" font-family="Helvetica,sans-Serif" font-size="10.00">/schematiceditor/fsm/ses</text>
<text text-anchor="middle" x="1197" y="-8.5" font-family="Helvetica,sans-Serif" font-size="10.00">_addcomponents.cpp</text>
</a>
</g>
<!-- Node1&#45;&gt;Node8 -->
<g id="edge14" class="edge"><title>Node1&#45;&gt;Node8</title>
<path fill="none" stroke="midnightblue" d="M917.818,-123.801C975.2,-114.484 1056.65,-98.4011 1125,-74 1127.78,-73.0077 1130.59,-71.9293 1133.4,-70.7854"/>
<polygon fill="midnightblue" stroke="midnightblue" points="917.075,-120.375 907.751,-125.406 918.177,-127.287 917.075,-120.375"/>
</g>
<!-- Node9 -->
<g id="node17" class="node"><title>Node9</title>
<a xlink:href="../../d8/dad/workspace_8cpp.html" target="_top" xlink:title="/home/travis/build\l/LibrePCB/LibrePCB/libs\l/librepcbworkspace/workspace.cpp">
<polygon fill="white" stroke="black" points="1278,-13.5 1278,-60.5 1448,-60.5 1448,-13.5 1278,-13.5"/>
<text text-anchor="start" x="1286" y="-47.5" font-family="Helvetica,sans-Serif" font-size="10.00">/home/travis/build</text>
<text text-anchor="start" x="1286" y="-34.5" font-family="Helvetica,sans-Serif" font-size="10.00">/LibrePCB/LibrePCB/libs</text>
<text text-anchor="middle" x="1363" y="-21.5" font-family="Helvetica,sans-Serif" font-size="10.00">/librepcbworkspace/workspace.cpp</text>
</a>
</g>
<!-- Node1&#45;&gt;Node9 -->
<g id="edge16" class="edge"><title>Node1&#45;&gt;Node9</title>
<path fill="none" stroke="midnightblue" d="M917.797,-128.913C1003.08,-121.762 1148.11,-105.873 1269,-74 1282.4,-70.4678 1296.48,-65.5921 1309.54,-60.5385"/>
<polygon fill="midnightblue" stroke="midnightblue" points="917.378,-125.436 907.698,-129.743 917.951,-132.412 917.378,-125.436"/>
</g>
<!-- Node10 -->
<g id="node19" class="node"><title>Node10</title>
<a xlink:href="../../d1/d4e/controlpanel_8cpp.html" target="_top" xlink:title="/home/travis/build\l/LibrePCB/LibrePCB/librepcb\l/controlpanel/controlpanel.cpp">
<polygon fill="white" stroke="black" points="1466,-13.5 1466,-60.5 1612,-60.5 1612,-13.5 1466,-13.5"/>
<text text-anchor="start" x="1474" y="-47.5" font-family="Helvetica,sans-Serif" font-size="10.00">/home/travis/build</text>
<text text-anchor="start" x="1474" y="-34.5" font-family="Helvetica,sans-Serif" font-size="10.00">/LibrePCB/LibrePCB/librepcb</text>
<text text-anchor="middle" x="1539" y="-21.5" font-family="Helvetica,sans-Serif" font-size="10.00">/controlpanel/controlpanel.cpp</text>
</a>
</g>
<!-- Node1&#45;&gt;Node10 -->
<g id="edge18" class="edge"><title>Node1&#45;&gt;Node10</title>
<path fill="none" stroke="midnightblue" d="M917.917,-129.832C1057.39,-121.369 1357,-100.688 1457,-74 1469.22,-70.738 1481.92,-65.836 1493.57,-60.6585"/>
<polygon fill="midnightblue" stroke="midnightblue" points="917.524,-126.349 907.753,-130.444 917.945,-133.337 917.524,-126.349"/>
</g>
</g>
</svg>
