<?xml version="1.0" encoding="UTF-8" standalone="no"?>
<!DOCTYPE svg PUBLIC "-//W3C//DTD SVG 1.1//EN"
 "http://www.w3.org/Graphics/SVG/1.1/DTD/svg11.dtd">
<!-- Generated by graphviz version 2.26.3 (20100126.1600)
 -->
<!-- Title: getUuid Pages: 1 -->
<svg width="216pt" height="94pt"
 viewBox="0.00 0.00 216.00 94.00" xmlns="http://www.w3.org/2000/svg" xmlns:xlink="http://www.w3.org/1999/xlink">
<g id="graph1" class="graph" transform="scale(1 1) rotate(0) translate(4 90)">
<title>getUuid</title>
<polygon fill="white" stroke="white" points="-4,5 -4,-90 213,-90 213,5 -4,5"/>
<!-- Node1 -->
<g id="node1" class="node"><title>Node1</title>
<polygon fill="#bfbfbf" stroke="black" points="0,-32.5 0,-53.5 50,-53.5 50,-32.5 0,-32.5"/>
<text text-anchor="middle" x="25" y="-40.5" font-family="Helvetica,sans-Serif" font-size="10.00">getUuid</text>
</g>
<!-- Node2 -->
<g id="node3" class="node"><title>Node2</title>
<a xlink:href="../../df/d64/classproject_1_1_s_e_s___draw_wire.html#aa1259e09f2c3e2f9bd5c45dd139c1275" target="_top" xlink:title="project::SES_DrawWire\l::entry">
<polygon fill="white" stroke="black" points="86.5,-52 86.5,-86 207.5,-86 207.5,-52 86.5,-52"/>
<text text-anchor="start" x="94.5" y="-73" font-family="Helvetica,sans-Serif" font-size="10.00">project::SES_DrawWire</text>
<text text-anchor="middle" x="147" y="-60" font-family="Helvetica,sans-Serif" font-size="10.00">::entry</text>
</a>
</g>
<!-- Node1&#45;&gt;Node2 -->
<g id="edge2" class="edge"><title>Node1&#45;&gt;Node2</title>
<path fill="none" stroke="midnightblue" d="M60.1876,-50.499C68.3776,-52.2444 77.3288,-54.152 86.2723,-56.058"/>
<polygon fill="midnightblue" stroke="midnightblue" points="60.7884,-47.0485 50.2785,-48.3872 59.3293,-53.8948 60.7884,-47.0485"/>
</g>
<!-- Node3 -->
<g id="node5" class="node"><title>Node3</title>
<a xlink:href="../../df/d64/classproject_1_1_s_e_s___draw_wire.html#ac0d67255f68a55c37b5a1e2a661ab69c" target="_top" xlink:title="project::SES_DrawWire\l::startPositioning">
<polygon fill="white" stroke="black" points="86.5,-0 86.5,-34 207.5,-34 207.5,-0 86.5,-0"/>
<text text-anchor="start" x="94.5" y="-21" font-family="Helvetica,sans-Serif" font-size="10.00">project::SES_DrawWire</text>
<text text-anchor="middle" x="147" y="-8" font-family="Helvetica,sans-Serif" font-size="10.00">::startPositioning</text>
</a>
</g>
<!-- Node1&#45;&gt;Node3 -->
<g id="edge4" class="edge"><title>Node1&#45;&gt;Node3</title>
<path fill="none" stroke="midnightblue" d="M60.1876,-35.501C68.3776,-33.7556 77.3288,-31.848 86.2723,-29.942"/>
<polygon fill="midnightblue" stroke="midnightblue" points="59.3293,-32.1052 50.2785,-37.6128 60.7884,-38.9515 59.3293,-32.1052"/>
</g>
</g>
</svg>
