<?xml version="1.0" encoding="UTF-8" standalone="no"?>
<!DOCTYPE svg PUBLIC "-//W3C//DTD SVG 1.1//EN"
 "http://www.w3.org/Graphics/SVG/1.1/DTD/svg11.dtd">
<!-- Generated by graphviz version 2.26.3 (20100126.1600)
 -->
<!-- Title: /home/travis/build/LibrePCB/LibrePCB/libs/librepcbproject/circuit/cmd/cmdgencompinstedit.cpp Pages: 1 -->
<svg width="762pt" height="330pt"
 viewBox="0.00 0.00 761.80 330.00" xmlns="http://www.w3.org/2000/svg" xmlns:xlink="http://www.w3.org/1999/xlink">
<g id="graph1" class="graph" transform="scale(1 1) rotate(0) translate(4 326)">
<title>/home/travis/build/LibrePCB/LibrePCB/libs/librepcbproject/circuit/cmd/cmdgencompinstedit.cpp</title>
<polygon fill="white" stroke="white" points="-4,5 -4,-326 758.8,-326 758.8,5 -4,5"/>
<!-- Node1 -->
<g id="node1" class="node"><title>Node1</title>
<polygon fill="#bfbfbf" stroke="black" points="139.8,-261 139.8,-321 289.8,-321 289.8,-261 139.8,-261"/>
<text text-anchor="start" x="147.8" y="-308" font-family="Helvetica,sans-Serif" font-size="10.00">/home/travis/build</text>
<text text-anchor="start" x="147.8" y="-295" font-family="Helvetica,sans-Serif" font-size="10.00">/LibrePCB/LibrePCB/libs</text>
<text text-anchor="start" x="147.8" y="-282" font-family="Helvetica,sans-Serif" font-size="10.00">/librepcbproject/circuit</text>
<text text-anchor="middle" x="214.8" y="-269" font-family="Helvetica,sans-Serif" font-size="10.00">/cmd/cmdgencompinstedit.cpp</text>
</g>
<!-- Node2 -->
<g id="node3" class="node"><title>Node2</title>
<polygon fill="white" stroke="#bfbfbf" points="242.8,-0.5 242.8,-21.5 290.8,-21.5 290.8,-0.5 242.8,-0.5"/>
<text text-anchor="middle" x="266.8" y="-8.5" font-family="Helvetica,sans-Serif" font-size="10.00">QtCore</text>
</g>
<!-- Node1&#45;&gt;Node2 -->
<g id="edge2" class="edge"><title>Node1&#45;&gt;Node2</title>
<path fill="none" stroke="midnightblue" d="M139.584,-270.117C71.7339,-246.442 -14.9235,-201.552 2.7999,-130 11.4995,-94.8781 11.8881,-79.7565 40.7999,-58 70.6573,-35.5319 176.938,-20.8577 232.459,-14.5448"/>
<polygon fill="midnightblue" stroke="midnightblue" points="232.974,-18.0092 242.527,-13.4285 232.202,-11.0519 232.974,-18.0092"/>
</g>
<!-- Node3 -->
<g id="node5" class="node"><title>Node3</title>
<a xlink:href="../../d9/db1/cmdgencompinstedit_8h.html" target="_top" xlink:title="cmdgencompinstedit.h">
<polygon fill="white" stroke="black" points="85.2999,-202.5 85.2999,-223.5 200.3,-223.5 200.3,-202.5 85.2999,-202.5"/>
<text text-anchor="middle" x="142.8" y="-210.5" font-family="Helvetica,sans-Serif" font-size="10.00">cmdgencompinstedit.h</text>
</a>
</g>
<!-- Node1&#45;&gt;Node3 -->
<g id="edge4" class="edge"><title>Node1&#45;&gt;Node3</title>
<path fill="none" stroke="midnightblue" d="M186.757,-260.62C177.566,-250.664 167.648,-239.919 159.563,-231.16"/>
<polygon fill="midnightblue" stroke="midnightblue" points="162.081,-228.728 152.726,-223.753 156.937,-233.476 162.081,-228.728"/>
</g>
<!-- Node6 -->
<g id="node15" class="node"><title>Node6</title>
<a xlink:href="../../d3/ddf/circuit_8h.html" target="_top" xlink:title="../circuit.h">
<polygon fill="white" stroke="black" points="257.8,-202.5 257.8,-223.5 317.8,-223.5 317.8,-202.5 257.8,-202.5"/>
<text text-anchor="middle" x="287.8" y="-210.5" font-family="Helvetica,sans-Serif" font-size="10.00">../circuit.h</text>
</a>
</g>
<!-- Node1&#45;&gt;Node6 -->
<g id="edge18" class="edge"><title>Node1&#45;&gt;Node6</title>
<path fill="none" stroke="midnightblue" d="M243.233,-260.62C252.55,-250.664 262.607,-239.919 270.804,-231.16"/>
<polygon fill="midnightblue" stroke="midnightblue" points="273.458,-233.446 277.736,-223.753 268.347,-228.663 273.458,-233.446"/>
</g>
<!-- Node9 -->
<g id="node25" class="node"><title>Node9</title>
<a xlink:href="../../da/def/gencompinstance_8h.html" target="_top" xlink:title="../gencompinstance.h">
<polygon fill="white" stroke="black" points="473.8,-202.5 473.8,-223.5 583.8,-223.5 583.8,-202.5 473.8,-202.5"/>
<text text-anchor="middle" x="528.8" y="-210.5" font-family="Helvetica,sans-Serif" font-size="10.00">../gencompinstance.h</text>
</a>
</g>
<!-- Node1&#45;&gt;Node9 -->
<g id="edge32" class="edge"><title>Node1&#45;&gt;Node9</title>
<path fill="none" stroke="midnightblue" d="M290.011,-272.317C347.673,-257.993 425.756,-238.597 476.691,-225.944"/>
<polygon fill="midnightblue" stroke="midnightblue" points="477.641,-229.315 486.502,-223.507 475.953,-222.521 477.641,-229.315"/>
</g>
<!-- Node3&#45;&gt;Node2 -->
<g id="edge6" class="edge"><title>Node3&#45;&gt;Node2</title>
<path fill="none" stroke="midnightblue" d="M97.3364,-202.457C64.0124,-193.702 22.8985,-180.389 12.7999,-166 3.6086,-152.903 4.21527,-143.502 12.7999,-130 61.8707,-52.8209 175.649,-24.8362 232.781,-15.4037"/>
<polygon fill="midnightblue" stroke="midnightblue" points="233.418,-18.8468 242.761,-13.8507 232.342,-11.93 233.418,-18.8468"/>
</g>
<!-- Node4 -->
<g id="node8" class="node"><title>Node4</title>
<a xlink:href="../../dc/da0/undocommand_8h.html" target="_top" xlink:title="librepcbcommon/undocommand.h">
<polygon fill="white" stroke="black" points="21.2999,-137.5 21.2999,-158.5 184.3,-158.5 184.3,-137.5 21.2999,-137.5"/>
<text text-anchor="middle" x="102.8" y="-145.5" font-family="Helvetica,sans-Serif" font-size="10.00">librepcbcommon/undocommand.h</text>
</a>
</g>
<!-- Node3&#45;&gt;Node4 -->
<g id="edge8" class="edge"><title>Node3&#45;&gt;Node4</title>
<path fill="none" stroke="midnightblue" d="M136.195,-202.267C130.37,-192.801 121.74,-178.777 114.712,-167.357"/>
<polygon fill="midnightblue" stroke="midnightblue" points="117.504,-165.216 109.282,-158.534 111.542,-168.885 117.504,-165.216"/>
</g>
<!-- Node5 -->
<g id="node11" class="node"><title>Node5</title>
<a xlink:href="../../d4/d03/exceptions_8h.html" target="_top" xlink:title="exceptions.h">
<polygon fill="white" stroke="black" points="381.8,-65.5 381.8,-86.5 453.8,-86.5 453.8,-65.5 381.8,-65.5"/>
<text text-anchor="middle" x="417.8" y="-73.5" font-family="Helvetica,sans-Serif" font-size="10.00">exceptions.h</text>
</a>
</g>
<!-- Node3&#45;&gt;Node5 -->
<g id="edge16" class="edge"><title>Node3&#45;&gt;Node5</title>
<path fill="none" stroke="midnightblue" d="M163.922,-202.477C212.311,-178.371 331.335,-119.075 387.513,-91.0885"/>
<polygon fill="midnightblue" stroke="midnightblue" points="389.216,-94.1505 396.606,-86.5585 386.094,-87.8849 389.216,-94.1505"/>
</g>
<!-- Node4&#45;&gt;Node2 -->
<g id="edge10" class="edge"><title>Node4&#45;&gt;Node2</title>
<path fill="none" stroke="midnightblue" d="M115.396,-137.477C143.469,-114.026 211.407,-57.2735 245.924,-28.4394"/>
<polygon fill="midnightblue" stroke="midnightblue" points="248.504,-30.8447 253.934,-21.7475 244.016,-25.4725 248.504,-30.8447"/>
</g>
<!-- Node4&#45;&gt;Node5 -->
<g id="edge12" class="edge"><title>Node4&#45;&gt;Node5</title>
<path fill="none" stroke="midnightblue" d="M158.274,-137.469C231.214,-123.534 352.524,-100.027 372.8,-94 376.593,-92.8724 380.512,-91.5515 384.381,-90.1465"/>
<polygon fill="midnightblue" stroke="midnightblue" points="385.71,-93.3854 393.799,-86.5429 383.209,-86.8476 385.71,-93.3854"/>
</g>
<!-- Node5&#45;&gt;Node2 -->
<g id="edge14" class="edge"><title>Node5&#45;&gt;Node2</title>
<path fill="none" stroke="midnightblue" d="M393.203,-65.412C367.936,-54.5353 328.431,-37.5297 300.315,-25.4269"/>
<polygon fill="midnightblue" stroke="midnightblue" points="301.456,-22.1076 290.887,-21.3685 298.688,-28.5372 301.456,-22.1076"/>
</g>
<!-- Node6&#45;&gt;Node2 -->
<g id="edge20" class="edge"><title>Node6&#45;&gt;Node2</title>
<path fill="none" stroke="midnightblue" d="M282.445,-202.196C272.625,-181.71 252.076,-135.545 244.8,-94 242.04,-78.2399 241.325,-73.6182 244.8,-58 246.886,-48.6216 251.052,-38.9009 255.203,-30.7504"/>
<polygon fill="midnightblue" stroke="midnightblue" points="258.413,-32.1729 260.117,-21.716 252.264,-28.8278 258.413,-32.1729"/>
</g>
<!-- Node6&#45;&gt;Node5 -->
<g id="edge26" class="edge"><title>Node6&#45;&gt;Node5</title>
<path fill="none" stroke="midnightblue" d="M293.489,-202.488C302.787,-185.894 322.459,-153.139 344.8,-130 358.764,-115.537 376.932,-102.082 391.649,-92.2212"/>
<polygon fill="midnightblue" stroke="midnightblue" points="393.843,-94.9691 400.299,-86.5687 390.013,-89.1094 393.843,-94.9691"/>
</g>
<!-- Node7 -->
<g id="node18" class="node"><title>Node7</title>
<a xlink:href="../../d0/d1d/if__xmlserializableobject_8h.html" target="_top" xlink:title="librepcbcommon/fileio\l/if_xmlserializableobject.h">
<polygon fill="white" stroke="black" points="353.3,-131 353.3,-165 482.3,-165 482.3,-131 353.3,-131"/>
<text text-anchor="start" x="361.3" y="-152" font-family="Helvetica,sans-Serif" font-size="10.00">librepcbcommon/fileio</text>
<text text-anchor="middle" x="417.8" y="-139" font-family="Helvetica,sans-Serif" font-size="10.00">/if_xmlserializableobject.h</text>
</a>
</g>
<!-- Node6&#45;&gt;Node7 -->
<g id="edge22" class="edge"><title>Node6&#45;&gt;Node7</title>
<path fill="none" stroke="midnightblue" d="M308.976,-202.412C326.666,-193.567 352.462,-180.669 374.499,-169.65"/>
<polygon fill="midnightblue" stroke="midnightblue" points="376.3,-172.663 383.679,-165.06 373.17,-166.402 376.3,-172.663"/>
</g>
<!-- Node8 -->
<g id="node22" class="node"><title>Node8</title>
<a xlink:href="../../dd/dec/filepath_8h.html" target="_top" xlink:title="librepcbcommon/fileio\l/filepath.h">
<polygon fill="white" stroke="black" points="253.3,-59 253.3,-93 364.3,-93 364.3,-59 253.3,-59"/>
<text text-anchor="start" x="261.3" y="-80" font-family="Helvetica,sans-Serif" font-size="10.00">librepcbcommon/fileio</text>
<text text-anchor="middle" x="308.8" y="-67" font-family="Helvetica,sans-Serif" font-size="10.00">/filepath.h</text>
</a>
</g>
<!-- Node6&#45;&gt;Node8 -->
<g id="edge28" class="edge"><title>Node6&#45;&gt;Node8</title>
<path fill="none" stroke="midnightblue" d="M289.448,-202.25C292.683,-181.146 299.953,-133.718 304.603,-103.377"/>
<polygon fill="midnightblue" stroke="midnightblue" points="308.073,-103.844 306.128,-93.4294 301.153,-102.784 308.073,-103.844"/>
</g>
<!-- Node7&#45;&gt;Node5 -->
<g id="edge24" class="edge"><title>Node7&#45;&gt;Node5</title>
<path fill="none" stroke="midnightblue" d="M417.8,-130.937C417.8,-120.814 417.8,-107.898 417.8,-97.1329"/>
<polygon fill="midnightblue" stroke="midnightblue" points="421.3,-96.901 417.8,-86.901 414.3,-96.9011 421.3,-96.901"/>
</g>
<!-- Node8&#45;&gt;Node2 -->
<g id="edge30" class="edge"><title>Node8&#45;&gt;Node2</title>
<path fill="none" stroke="midnightblue" d="M297.765,-58.922C292.078,-50.1203 285.121,-39.3541 279.243,-30.2575"/>
<polygon fill="midnightblue" stroke="midnightblue" points="282.179,-28.3518 273.812,-21.8521 276.3,-32.1508 282.179,-28.3518"/>
</g>
<!-- Node9&#45;&gt;Node2 -->
<g id="edge34" class="edge"><title>Node9&#45;&gt;Node2</title>
<path fill="none" stroke="midnightblue" d="M528.54,-202.354C527.811,-186.135 525.066,-154.535 514.8,-130 499.563,-93.5862 495.592,-79.9722 462.8,-58 436.597,-40.4432 350.105,-24.3065 301.227,-16.296"/>
<polygon fill="midnightblue" stroke="midnightblue" points="301.543,-12.802 291.114,-14.6666 300.43,-19.7128 301.543,-12.802"/>
</g>
<!-- Node9&#45;&gt;Node5 -->
<g id="edge44" class="edge"><title>Node9&#45;&gt;Node5</title>
<path fill="none" stroke="midnightblue" d="M525.833,-202.37C520.765,-185.616 509.173,-152.645 490.8,-130 478.462,-114.793 460.91,-101.63 446.109,-92.1074"/>
<polygon fill="midnightblue" stroke="midnightblue" points="447.664,-88.9536 437.319,-86.6629 443.977,-94.9044 447.664,-88.9536"/>
</g>
<!-- Node9&#45;&gt;Node7 -->
<g id="edge42" class="edge"><title>Node9&#45;&gt;Node7</title>
<path fill="none" stroke="midnightblue" d="M510.471,-202.267C495.654,-193.59 474.295,-181.083 455.817,-170.262"/>
<polygon fill="midnightblue" stroke="midnightblue" points="457.416,-167.143 447.018,-165.11 453.879,-173.183 457.416,-167.143"/>
</g>
<!-- Node10 -->
<g id="node28" class="node"><title>Node10</title>
<a xlink:href="../../da/d81/if__attributeprovider_8h.html" target="_top" xlink:title="librepcbcommon/if_attributeprovider.h">
<polygon fill="white" stroke="black" points="575.3,-65.5 575.3,-86.5 754.3,-86.5 754.3,-65.5 575.3,-65.5"/>
<text text-anchor="middle" x="664.8" y="-73.5" font-family="Helvetica,sans-Serif" font-size="10.00">librepcbcommon/if_attributeprovider.h</text>
</a>
</g>
<!-- Node9&#45;&gt;Node10 -->
<g id="edge36" class="edge"><title>Node9&#45;&gt;Node10</title>
<path fill="none" stroke="midnightblue" d="M537.85,-202.48C551.788,-186.425 579.548,-155.036 604.8,-130 617.576,-117.333 632.626,-103.791 644.458,-93.437"/>
<polygon fill="midnightblue" stroke="midnightblue" points="646.812,-96.0279 652.067,-86.8278 642.222,-90.7431 646.812,-96.0279"/>
</g>
<!-- Node11 -->
<g id="node31" class="node"><title>Node11</title>
<a xlink:href="../../da/dfb/if__ercmsgprovider_8h.html" target="_top" xlink:title="../erc/if_ercmsgprovider.h">
<polygon fill="white" stroke="black" points="613.8,-137.5 613.8,-158.5 741.8,-158.5 741.8,-137.5 613.8,-137.5"/>
<text text-anchor="middle" x="677.8" y="-145.5" font-family="Helvetica,sans-Serif" font-size="10.00">../erc/if_ercmsgprovider.h</text>
</a>
</g>
<!-- Node9&#45;&gt;Node11 -->
<g id="edge40" class="edge"><title>Node9&#45;&gt;Node11</title>
<path fill="none" stroke="midnightblue" d="M553.071,-202.412C577.856,-191.6 616.525,-174.731 644.235,-162.642"/>
<polygon fill="midnightblue" stroke="midnightblue" points="645.773,-165.79 653.539,-158.584 642.974,-159.374 645.773,-165.79"/>
</g>
<!-- Node10&#45;&gt;Node2 -->
<g id="edge38" class="edge"><title>Node10&#45;&gt;Node2</title>
<path fill="none" stroke="midnightblue" d="M605.458,-65.4728C591.168,-62.9812 575.945,-60.3626 561.8,-58 467.371,-42.2275 355.731,-24.7627 300.804,-16.2477"/>
<polygon fill="midnightblue" stroke="midnightblue" points="301.328,-12.7873 290.91,-14.7158 300.257,-19.7049 301.328,-12.7873"/>
</g>
</g>
</svg>
