<?xml version="1.0" encoding="UTF-8" standalone="no"?>
<!DOCTYPE svg PUBLIC "-//W3C//DTD SVG 1.1//EN"
 "http://www.w3.org/Graphics/SVG/1.1/DTD/svg11.dtd">
<!-- Generated by graphviz version 2.26.3 (20100126.1600)
 -->
<!-- Title: parent Pages: 1 -->
<svg width="222pt" height="122pt"
 viewBox="0.00 0.00 222.00 122.00" xmlns="http://www.w3.org/2000/svg" xmlns:xlink="http://www.w3.org/1999/xlink">
<g id="graph1" class="graph" transform="scale(1 1) rotate(0) translate(4 118)">
<title>parent</title>
<polygon fill="white" stroke="white" points="-4,5 -4,-118 219,-118 219,5 -4,5"/>
<!-- Node1 -->
<g id="node1" class="node"><title>Node1</title>
<polygon fill="#bfbfbf" stroke="black" points="0,-52.5 0,-73.5 44,-73.5 44,-52.5 0,-52.5"/>
<text text-anchor="middle" x="22" y="-60.5" font-family="Helvetica,sans-Serif" font-size="10.00">parent</text>
</g>
<!-- Node2 -->
<g id="node3" class="node"><title>Node2</title>
<a xlink:href="../../db/d76/class_project_tree_model.html#a097d5cab45248ecb3614b1d427e05369" target="_top" xlink:title="getItem">
<polygon fill="white" stroke="black" points="122,-92.5 122,-113.5 172,-113.5 172,-92.5 122,-92.5"/>
<text text-anchor="middle" x="147" y="-100.5" font-family="Helvetica,sans-Serif" font-size="10.00">getItem</text>
</a>
</g>
<!-- Node1&#45;&gt;Node2 -->
<g id="edge2" class="edge"><title>Node1&#45;&gt;Node2</title>
<path fill="none" stroke="midnightblue" d="M44.2361,-70.9123C55.0016,-74.6803 68.1361,-79.1856 80,-83 90.3142,-86.3161 101.58,-89.7509 111.881,-92.8186"/>
<polygon fill="midnightblue" stroke="midnightblue" points="111.206,-96.2689 121.788,-95.7459 113.19,-89.5558 111.206,-96.2689"/>
</g>
<!-- Node3 -->
<g id="node5" class="node"><title>Node3</title>
<a xlink:href="../../db/d9c/class_project_tree_item.html#a2897772b6b74059c9adc35b72a8da469" target="_top" xlink:title="ProjectTreeItem::getParent">
<polygon fill="white" stroke="black" points="80,-52.5 80,-73.5 214,-73.5 214,-52.5 80,-52.5"/>
<text text-anchor="middle" x="147" y="-60.5" font-family="Helvetica,sans-Serif" font-size="10.00">ProjectTreeItem::getParent</text>
</a>
</g>
<!-- Node1&#45;&gt;Node3 -->
<g id="edge4" class="edge"><title>Node1&#45;&gt;Node3</title>
<path fill="none" stroke="midnightblue" d="M44.0598,-63C51.523,-63 60.3345,-63 69.6107,-63"/>
<polygon fill="midnightblue" stroke="midnightblue" points="69.8169,-66.5001 79.8168,-63 69.8168,-59.5001 69.8169,-66.5001"/>
</g>
<!-- Node4 -->
<g id="node7" class="node"><title>Node4</title>
<a xlink:href="../../db/d9c/class_project_tree_item.html#a69887298ac9b77099f531f79ee49fa71" target="_top" xlink:title="ProjectTreeItem::getChild\lNumber">
<polygon fill="white" stroke="black" points="83,-0 83,-34 211,-34 211,-0 83,-0"/>
<text text-anchor="start" x="91" y="-21" font-family="Helvetica,sans-Serif" font-size="10.00">ProjectTreeItem::getChild</text>
<text text-anchor="middle" x="147" y="-8" font-family="Helvetica,sans-Serif" font-size="10.00">Number</text>
</a>
</g>
<!-- Node1&#45;&gt;Node4 -->
<g id="edge6" class="edge"><title>Node1&#45;&gt;Node4</title>
<path fill="none" stroke="midnightblue" d="M44.0598,-54.882C57.1251,-50.074 74.3225,-43.7453 90.911,-37.6407"/>
<polygon fill="midnightblue" stroke="midnightblue" points="92.3959,-40.8238 100.572,-34.0855 89.9784,-34.2545 92.3959,-40.8238"/>
</g>
</g>
</svg>
