<?xml version="1.0" encoding="UTF-8" standalone="no"?>
<!DOCTYPE svg PUBLIC "-//W3C//DTD SVG 1.1//EN"
 "http://www.w3.org/Graphics/SVG/1.1/DTD/svg11.dtd">
<!-- Generated by graphviz version 2.26.3 (20100126.1600)
 -->
<!-- Title: updateCacheAndRepaint Pages: 1 -->
<svg width="442pt" height="226pt"
 viewBox="0.00 0.00 442.00 226.00" xmlns="http://www.w3.org/2000/svg" xmlns:xlink="http://www.w3.org/1999/xlink">
<g id="graph1" class="graph" transform="scale(1 1) rotate(0) translate(4 222)">
<title>updateCacheAndRepaint</title>
<polygon fill="white" stroke="white" points="-4,5 -4,-222 439,-222 439,5 -4,5"/>
<!-- Node1 -->
<g id="node1" class="node"><title>Node1</title>
<polygon fill="#bfbfbf" stroke="black" points="0.5,-104.5 0.5,-125.5 125.5,-125.5 125.5,-104.5 0.5,-104.5"/>
<text text-anchor="middle" x="63" y="-112.5" font-family="Helvetica,sans-Serif" font-size="10.00">updateCacheAndRepaint</text>
</g>
<!-- Node2 -->
<g id="node3" class="node"><title>Node2</title>
<a xlink:href="../../d1/d7b/classproject_1_1_s_i___net_label.html#a01f0e165edb023b0c50cdbfd70f36021" target="_top" xlink:title="project::SI_NetLabel\l::getRotation">
<polygon fill="white" stroke="black" points="172,-184 172,-218 278,-218 278,-184 172,-184"/>
<text text-anchor="start" x="180" y="-205" font-family="Helvetica,sans-Serif" font-size="10.00">project::SI_NetLabel</text>
<text text-anchor="middle" x="225" y="-192" font-family="Helvetica,sans-Serif" font-size="10.00">::getRotation</text>
</a>
</g>
<!-- Node1&#45;&gt;Node2 -->
<g id="edge2" class="edge"><title>Node1&#45;&gt;Node2</title>
<path fill="none" stroke="midnightblue" d="M78.6883,-125.545C97.8575,-138.183 131.51,-159.584 162,-175 165.254,-176.645 168.637,-178.271 172.071,-179.858"/>
<polygon fill="midnightblue" stroke="midnightblue" points="170.67,-183.065 181.227,-183.956 173.53,-176.676 170.67,-183.065"/>
</g>
<!-- Node3 -->
<g id="node5" class="node"><title>Node3</title>
<a xlink:href="../../d2/d39/class_angle.html#ae76e6384199e1c899025c103affd862f" target="_top" xlink:title="Get an Angle object which is mapped to [&#45;180..+180[ degrees. ">
<polygon fill="white" stroke="black" points="162.5,-144.5 162.5,-165.5 287.5,-165.5 287.5,-144.5 162.5,-144.5"/>
<text text-anchor="middle" x="225" y="-152.5" font-family="Helvetica,sans-Serif" font-size="10.00">Angle::mappedTo180deg</text>
</a>
</g>
<!-- Node1&#45;&gt;Node3 -->
<g id="edge4" class="edge"><title>Node1&#45;&gt;Node3</title>
<path fill="none" stroke="midnightblue" d="M105.564,-125.51C126.131,-130.588 151.003,-136.729 172.714,-142.09"/>
<polygon fill="midnightblue" stroke="midnightblue" points="171.892,-145.492 182.44,-144.491 173.57,-138.696 171.892,-145.492"/>
</g>
<!-- Node5 -->
<g id="node9" class="node"><title>Node5</title>
<a xlink:href="../../d2/d39/class_angle.html#a7f29e0cf68871bab5b01569d78de4504" target="_top" xlink:title="90 degrees ">
<polygon fill="white" stroke="black" points="188,-104.5 188,-125.5 262,-125.5 262,-104.5 188,-104.5"/>
<text text-anchor="middle" x="225" y="-112.5" font-family="Helvetica,sans-Serif" font-size="10.00">Angle::deg90</text>
</a>
</g>
<!-- Node1&#45;&gt;Node5 -->
<g id="edge8" class="edge"><title>Node1&#45;&gt;Node5</title>
<path fill="none" stroke="midnightblue" d="M125.633,-115C142.87,-115 161.279,-115 177.508,-115"/>
<polygon fill="midnightblue" stroke="midnightblue" points="177.824,-118.5 187.824,-115 177.824,-111.5 177.824,-118.5"/>
</g>
<!-- Node7 -->
<g id="node13" class="node"><title>Node7</title>
<a xlink:href="../../d1/d7b/classproject_1_1_s_i___net_label.html#a030988c000034a9099850531546baaa9" target="_top" xlink:title="project::SI_NetLabel\l::getNetSignal">
<polygon fill="white" stroke="black" points="172,-52 172,-86 278,-86 278,-52 172,-52"/>
<text text-anchor="start" x="180" y="-73" font-family="Helvetica,sans-Serif" font-size="10.00">project::SI_NetLabel</text>
<text text-anchor="middle" x="225" y="-60" font-family="Helvetica,sans-Serif" font-size="10.00">::getNetSignal</text>
</a>
</g>
<!-- Node1&#45;&gt;Node7 -->
<g id="edge12" class="edge"><title>Node1&#45;&gt;Node7</title>
<path fill="none" stroke="midnightblue" d="M100.166,-104.447C118.472,-99.2487 141.052,-92.837 161.953,-86.9022"/>
<polygon fill="midnightblue" stroke="midnightblue" points="163.07,-90.2236 171.733,-84.1251 161.158,-83.4898 163.07,-90.2236"/>
</g>
<!-- Node8 -->
<g id="node15" class="node"><title>Node8</title>
<a xlink:href="../../d3/d93/classproject_1_1_net_signal.html#ab0c96f485564e41206ce9a4ce42ba389" target="_top" xlink:title="project::NetSignal\l::getName">
<polygon fill="white" stroke="black" points="177.5,-0 177.5,-34 272.5,-34 272.5,-0 177.5,-0"/>
<text text-anchor="start" x="185.5" y="-21" font-family="Helvetica,sans-Serif" font-size="10.00">project::NetSignal</text>
<text text-anchor="middle" x="225" y="-8" font-family="Helvetica,sans-Serif" font-size="10.00">::getName</text>
</a>
</g>
<!-- Node1&#45;&gt;Node8 -->
<g id="edge14" class="edge"><title>Node1&#45;&gt;Node8</title>
<path fill="none" stroke="midnightblue" d="M75.4711,-104.418C93.6271,-89.375 128.801,-61.5744 162,-43 164.84,-41.4112 167.796,-39.8638 170.812,-38.3671"/>
<polygon fill="midnightblue" stroke="midnightblue" points="172.43,-41.4738 179.978,-34.0388 169.441,-35.144 172.43,-41.4738"/>
</g>
<!-- Node4 -->
<g id="node7" class="node"><title>Node4</title>
<a xlink:href="../../d2/d39/class_angle.html#a74e05120ac11f78df41f0a0304990f9f" target="_top" xlink:title="Map this Angle object to [&#45;180..+180[ degrees. ">
<polygon fill="white" stroke="black" points="324.5,-144.5 324.5,-165.5 433.5,-165.5 433.5,-144.5 324.5,-144.5"/>
<text text-anchor="middle" x="379" y="-152.5" font-family="Helvetica,sans-Serif" font-size="10.00">Angle::mapTo180deg</text>
</a>
</g>
<!-- Node3&#45;&gt;Node4 -->
<g id="edge6" class="edge"><title>Node3&#45;&gt;Node4</title>
<path fill="none" stroke="midnightblue" d="M287.638,-155C296.376,-155 305.37,-155 314.149,-155"/>
<polygon fill="midnightblue" stroke="midnightblue" points="314.326,-158.5 324.326,-155 314.326,-151.5 314.326,-158.5"/>
</g>
<!-- Node6 -->
<g id="node11" class="node"><title>Node6</title>
<a xlink:href="../../d2/d39/class_angle.html#ae0cfbf0d84fd0eab0f9dfc1b365b8667" target="_top" xlink:title="Default Constructor. ">
<polygon fill="white" stroke="black" points="343,-104.5 343,-125.5 415,-125.5 415,-104.5 343,-104.5"/>
<text text-anchor="middle" x="379" y="-112.5" font-family="Helvetica,sans-Serif" font-size="10.00">Angle::Angle</text>
</a>
</g>
<!-- Node5&#45;&gt;Node6 -->
<g id="edge10" class="edge"><title>Node5&#45;&gt;Node6</title>
<path fill="none" stroke="midnightblue" d="M262.279,-115C283.508,-115 310.283,-115 332.832,-115"/>
<polygon fill="midnightblue" stroke="midnightblue" points="332.86,-118.5 342.86,-115 332.86,-111.5 332.86,-118.5"/>
</g>
</g>
</svg>
