<?xml version="1.0" encoding="UTF-8" standalone="no"?>
<!DOCTYPE svg PUBLIC "-//W3C//DTD SVG 1.1//EN"
 "http://www.w3.org/Graphics/SVG/1.1/DTD/svg11.dtd">
<!-- Generated by graphviz version 2.26.3 (20100126.1600)
 -->
<!-- Title: /home/travis/build/LibrePCB/LibrePCB/libs/librepcbproject/library/projectlibrary.h Pages: 1 -->
<svg width="296pt" height="200pt"
 viewBox="0.00 0.00 296.06 200.00" xmlns="http://www.w3.org/2000/svg" xmlns:xlink="http://www.w3.org/1999/xlink">
<g id="graph1" class="graph" transform="scale(1 1) rotate(0) translate(4 196)">
<title>/home/travis/build/LibrePCB/LibrePCB/libs/librepcbproject/library/projectlibrary.h</title>
<polygon fill="white" stroke="white" points="-4,5 -4,-196 293.059,-196 293.059,5 -4,5"/>
<!-- Node1 -->
<g id="node1" class="node"><title>Node1</title>
<polygon fill="#bfbfbf" stroke="black" points="24.5588,-131 24.5588,-191 149.559,-191 149.559,-131 24.5588,-131"/>
<text text-anchor="start" x="32.5588" y="-178" font-family="Helvetica,sans-Serif" font-size="10.00">/home/travis/build</text>
<text text-anchor="start" x="32.5588" y="-165" font-family="Helvetica,sans-Serif" font-size="10.00">/LibrePCB/LibrePCB/libs</text>
<text text-anchor="start" x="32.5588" y="-152" font-family="Helvetica,sans-Serif" font-size="10.00">/librepcbproject/library</text>
<text text-anchor="middle" x="87.0588" y="-139" font-family="Helvetica,sans-Serif" font-size="10.00">/projectlibrary.h</text>
</g>
<!-- Node2 -->
<g id="node3" class="node"><title>Node2</title>
<polygon fill="white" stroke="#bfbfbf" points="63.0588,-0.5 63.0588,-21.5 111.059,-21.5 111.059,-0.5 63.0588,-0.5"/>
<text text-anchor="middle" x="87.0588" y="-8.5" font-family="Helvetica,sans-Serif" font-size="10.00">QtCore</text>
</g>
<!-- Node1&#45;&gt;Node2 -->
<g id="edge2" class="edge"><title>Node1&#45;&gt;Node2</title>
<path fill="none" stroke="midnightblue" d="M38.1908,-130.953C12.7173,-111.278 -10.2396,-84.4017 5.05877,-58 15.4707,-40.0313 35.6297,-28.3419 53.3534,-21.1149"/>
<polygon fill="midnightblue" stroke="midnightblue" points="54.7364,-24.3344 62.872,-17.5475 52.2797,-17.7796 54.7364,-24.3344"/>
</g>
<!-- Node3 -->
<g id="node5" class="node"><title>Node3</title>
<a xlink:href="../../d4/d03/exceptions_8h.html" target="_top" xlink:title="librepcbcommon/exceptions.h">
<polygon fill="white" stroke="black" points="14.0588,-65.5 14.0588,-86.5 160.059,-86.5 160.059,-65.5 14.0588,-65.5"/>
<text text-anchor="middle" x="87.0588" y="-73.5" font-family="Helvetica,sans-Serif" font-size="10.00">librepcbcommon/exceptions.h</text>
</a>
</g>
<!-- Node1&#45;&gt;Node3 -->
<g id="edge4" class="edge"><title>Node1&#45;&gt;Node3</title>
<path fill="none" stroke="midnightblue" d="M87.0588,-130.793C87.0588,-119.579 87.0588,-107.116 87.0588,-96.9133"/>
<polygon fill="midnightblue" stroke="midnightblue" points="90.5589,-96.8949 87.0588,-86.8949 83.5589,-96.8949 90.5589,-96.8949"/>
</g>
<!-- Node4 -->
<g id="node8" class="node"><title>Node4</title>
<a xlink:href="../../dd/dec/filepath_8h.html" target="_top" xlink:title="librepcbcommon/fileio\l/filepath.h">
<polygon fill="white" stroke="black" points="177.559,-59 177.559,-93 288.559,-93 288.559,-59 177.559,-59"/>
<text text-anchor="start" x="185.559" y="-80" font-family="Helvetica,sans-Serif" font-size="10.00">librepcbcommon/fileio</text>
<text text-anchor="middle" x="233.059" y="-67" font-family="Helvetica,sans-Serif" font-size="10.00">/filepath.h</text>
</a>
</g>
<!-- Node1&#45;&gt;Node4 -->
<g id="edge8" class="edge"><title>Node1&#45;&gt;Node4</title>
<path fill="none" stroke="midnightblue" d="M138.944,-130.793C157.339,-120.083 177.692,-108.234 194.751,-98.3024"/>
<polygon fill="midnightblue" stroke="midnightblue" points="196.975,-101.058 203.856,-93.0015 193.453,-95.0082 196.975,-101.058"/>
</g>
<!-- Node3&#45;&gt;Node2 -->
<g id="edge6" class="edge"><title>Node3&#45;&gt;Node2</title>
<path fill="none" stroke="midnightblue" d="M87.0588,-65.2666C87.0588,-56.1799 87.0588,-42.8919 87.0588,-31.7395"/>
<polygon fill="midnightblue" stroke="midnightblue" points="90.5589,-31.5337 87.0588,-21.5337 83.5589,-31.5337 90.5589,-31.5337"/>
</g>
<!-- Node4&#45;&gt;Node2 -->
<g id="edge10" class="edge"><title>Node4&#45;&gt;Node2</title>
<path fill="none" stroke="midnightblue" d="M194.699,-58.922C171.59,-48.6337 142.452,-35.6612 120.321,-25.8086"/>
<polygon fill="midnightblue" stroke="midnightblue" points="121.558,-22.5282 110.999,-21.6584 118.711,-28.9231 121.558,-22.5282"/>
</g>
</g>
</svg>
