<?xml version="1.0" encoding="UTF-8" standalone="no"?>
<!DOCTYPE svg PUBLIC "-//W3C//DTD SVG 1.1//EN"
 "http://www.w3.org/Graphics/SVG/1.1/DTD/svg11.dtd">
<!-- Generated by graphviz version 2.26.3 (20100126.1600)
 -->
<!-- Title: /home/travis/build/LibrePCB/LibrePCB/libs/librepcblibrary/library.h Pages: 1 -->
<svg width="1446pt" height="166pt"
 viewBox="0.00 0.00 1446.00 166.00" xmlns="http://www.w3.org/2000/svg" xmlns:xlink="http://www.w3.org/1999/xlink">
<g id="graph1" class="graph" transform="scale(1 1) rotate(0) translate(4 162)">
<title>/home/travis/build/LibrePCB/LibrePCB/libs/librepcblibrary/library.h</title>
<polygon fill="white" stroke="white" points="-4,5 -4,-162 1443,-162 1443,5 -4,5"/>
<!-- Node1 -->
<g id="node1" class="node"><title>Node1</title>
<polygon fill="#bfbfbf" stroke="black" points="705.5,-110.5 705.5,-157.5 830.5,-157.5 830.5,-110.5 705.5,-110.5"/>
<text text-anchor="start" x="713.5" y="-144.5" font-family="Helvetica,sans-Serif" font-size="10.00">/home/travis/build</text>
<text text-anchor="start" x="713.5" y="-131.5" font-family="Helvetica,sans-Serif" font-size="10.00">/LibrePCB/LibrePCB/libs</text>
<text text-anchor="middle" x="768" y="-118.5" font-family="Helvetica,sans-Serif" font-size="10.00">/librepcblibrary/library.h</text>
</g>
<!-- Node2 -->
<g id="node3" class="node"><title>Node2</title>
<a xlink:href="../../d3/dca/categorytreeitem_8cpp.html" target="_top" xlink:title="/home/travis/build\l/LibrePCB/LibrePCB/libs\l/librepcblibrary/cat/categorytreeitem.cpp">
<polygon fill="white" stroke="black" points="-0.5,-13.5 -0.5,-60.5 190.5,-60.5 190.5,-13.5 -0.5,-13.5"/>
<text text-anchor="start" x="7.5" y="-47.5" font-family="Helvetica,sans-Serif" font-size="10.00">/home/travis/build</text>
<text text-anchor="start" x="7.5" y="-34.5" font-family="Helvetica,sans-Serif" font-size="10.00">/LibrePCB/LibrePCB/libs</text>
<text text-anchor="middle" x="95" y="-21.5" font-family="Helvetica,sans-Serif" font-size="10.00">/librepcblibrary/cat/categorytreeitem.cpp</text>
</a>
</g>
<!-- Node1&#45;&gt;Node2 -->
<g id="edge2" class="edge"><title>Node1&#45;&gt;Node2</title>
<path fill="none" stroke="midnightblue" d="M695.092,-131.82C585.966,-127.323 374.239,-113.819 199,-74 183.956,-70.5817 168.09,-65.6546 153.406,-60.5056"/>
<polygon fill="midnightblue" stroke="midnightblue" points="695.196,-135.326 705.327,-132.227 695.474,-128.332 695.196,-135.326"/>
</g>
<!-- Node3 -->
<g id="node5" class="node"><title>Node3</title>
<a xlink:href="../../df/d1d/categorytreemodel_8cpp.html" target="_top" xlink:title="/home/travis/build\l/LibrePCB/LibrePCB/libs\l/librepcblibrary/cat/categorytreemodel.cpp">
<polygon fill="white" stroke="black" points="208,-13.5 208,-60.5 406,-60.5 406,-13.5 208,-13.5"/>
<text text-anchor="start" x="216" y="-47.5" font-family="Helvetica,sans-Serif" font-size="10.00">/home/travis/build</text>
<text text-anchor="start" x="216" y="-34.5" font-family="Helvetica,sans-Serif" font-size="10.00">/LibrePCB/LibrePCB/libs</text>
<text text-anchor="middle" x="307" y="-21.5" font-family="Helvetica,sans-Serif" font-size="10.00">/librepcblibrary/cat/categorytreemodel.cpp</text>
</a>
</g>
<!-- Node1&#45;&gt;Node3 -->
<g id="edge4" class="edge"><title>Node1&#45;&gt;Node3</title>
<path fill="none" stroke="midnightblue" d="M694.884,-125.087C622.989,-115.502 510.46,-98.2947 415,-74 400.306,-70.2604 384.75,-65.4518 370.159,-60.5469"/>
<polygon fill="midnightblue" stroke="midnightblue" points="694.818,-128.608 705.19,-126.446 695.733,-121.668 694.818,-128.608"/>
</g>
<!-- Node4 -->
<g id="node7" class="node"><title>Node4</title>
<a xlink:href="../../d7/d7d/library_8cpp.html" target="_top" xlink:title="/home/travis/build\l/LibrePCB/LibrePCB/libs\l/librepcblibrary/library.cpp">
<polygon fill="white" stroke="black" points="424,-13.5 424,-60.5 552,-60.5 552,-13.5 424,-13.5"/>
<text text-anchor="start" x="432" y="-47.5" font-family="Helvetica,sans-Serif" font-size="10.00">/home/travis/build</text>
<text text-anchor="start" x="432" y="-34.5" font-family="Helvetica,sans-Serif" font-size="10.00">/LibrePCB/LibrePCB/libs</text>
<text text-anchor="middle" x="488" y="-21.5" font-family="Helvetica,sans-Serif" font-size="10.00">/librepcblibrary/library.cpp</text>
</a>
</g>
<!-- Node1&#45;&gt;Node4 -->
<g id="edge6" class="edge"><title>Node1&#45;&gt;Node4</title>
<path fill="none" stroke="midnightblue" d="M695.659,-116.586C655.399,-106.016 604.733,-91.2457 561,-74 551.219,-70.1428 540.993,-65.424 531.396,-60.6639"/>
<polygon fill="midnightblue" stroke="midnightblue" points="694.837,-119.989 705.395,-119.114 696.596,-113.213 694.837,-119.989"/>
</g>
<!-- Node5 -->
<g id="node9" class="node"><title>Node5</title>
<a xlink:href="../../de/dd2/unplacedcomponentsdock_8cpp.html" target="_top" xlink:title="/home/travis/build\l/LibrePCB/LibrePCB/libs\l/librepcbprojecteditor\l/boardeditor/unplacedcomponentsdock.cpp">
<polygon fill="white" stroke="black" points="569.5,-7 569.5,-67 772.5,-67 772.5,-7 569.5,-7"/>
<text text-anchor="start" x="577.5" y="-54" font-family="Helvetica,sans-Serif" font-size="10.00">/home/travis/build</text>
<text text-anchor="start" x="577.5" y="-41" font-family="Helvetica,sans-Serif" font-size="10.00">/LibrePCB/LibrePCB/libs</text>
<text text-anchor="start" x="577.5" y="-28" font-family="Helvetica,sans-Serif" font-size="10.00">/librepcbprojecteditor</text>
<text text-anchor="middle" x="671" y="-15" font-family="Helvetica,sans-Serif" font-size="10.00">/boardeditor/unplacedcomponentsdock.cpp</text>
</a>
</g>
<!-- Node1&#45;&gt;Node5 -->
<g id="edge8" class="edge"><title>Node1&#45;&gt;Node5</title>
<path fill="none" stroke="midnightblue" d="M736.794,-102.794C725.426,-91.426 712.6,-78.5998 701.311,-67.3111"/>
<polygon fill="midnightblue" stroke="midnightblue" points="734.476,-105.426 744.022,-110.022 739.426,-100.476 734.476,-105.426"/>
</g>
<!-- Node6 -->
<g id="node11" class="node"><title>Node6</title>
<a xlink:href="../../da/d64/addgencompdialog_8cpp.html" target="_top" xlink:title="/home/travis/build\l/LibrePCB/LibrePCB/libs\l/librepcbprojecteditor\l/dialogs/addgencompdialog.cpp">
<polygon fill="white" stroke="black" points="789.5,-7 789.5,-67 942.5,-67 942.5,-7 789.5,-7"/>
<text text-anchor="start" x="797.5" y="-54" font-family="Helvetica,sans-Serif" font-size="10.00">/home/travis/build</text>
<text text-anchor="start" x="797.5" y="-41" font-family="Helvetica,sans-Serif" font-size="10.00">/LibrePCB/LibrePCB/libs</text>
<text text-anchor="start" x="797.5" y="-28" font-family="Helvetica,sans-Serif" font-size="10.00">/librepcbprojecteditor</text>
<text text-anchor="middle" x="866" y="-15" font-family="Helvetica,sans-Serif" font-size="10.00">/dialogs/addgencompdialog.cpp</text>
</a>
</g>
<!-- Node1&#45;&gt;Node6 -->
<g id="edge10" class="edge"><title>Node1&#45;&gt;Node6</title>
<path fill="none" stroke="midnightblue" d="M799.346,-102.974C810.948,-91.4904 824.075,-78.4976 835.592,-67.0975"/>
<polygon fill="midnightblue" stroke="midnightblue" points="796.619,-100.749 791.973,-110.271 801.543,-105.724 796.619,-100.749"/>
</g>
<!-- Node7 -->
<g id="node13" class="node"><title>Node7</title>
<a xlink:href="../../d8/df2/ses__addcomponents_8cpp.html" target="_top" xlink:title="/home/travis/build\l/LibrePCB/LibrePCB/libs\l/librepcbprojecteditor\l/schematiceditor/fsm/ses\l_addcomponents.cpp">
<polygon fill="white" stroke="black" points="959.5,-0.5 959.5,-73.5 1086.5,-73.5 1086.5,-0.5 959.5,-0.5"/>
<text text-anchor="start" x="967.5" y="-60.5" font-family="Helvetica,sans-Serif" font-size="10.00">/home/travis/build</text>
<text text-anchor="start" x="967.5" y="-47.5" font-family="Helvetica,sans-Serif" font-size="10.00">/LibrePCB/LibrePCB/libs</text>
<text text-anchor="start" x="967.5" y="-34.5" font-family="Helvetica,sans-Serif" font-size="10.00">/librepcbprojecteditor</text>
<text text-anchor="start" x="967.5" y="-21.5" font-family="Helvetica,sans-Serif" font-size="10.00">/schematiceditor/fsm/ses</text>
<text text-anchor="middle" x="1023" y="-8.5" font-family="Helvetica,sans-Serif" font-size="10.00">_addcomponents.cpp</text>
</a>
</g>
<!-- Node1&#45;&gt;Node7 -->
<g id="edge12" class="edge"><title>Node1&#45;&gt;Node7</title>
<path fill="none" stroke="midnightblue" d="M840.583,-113.097C874.574,-102.576 915.34,-88.8989 951,-74 953.723,-72.8622 956.484,-71.6622 959.258,-70.4176"/>
<polygon fill="midnightblue" stroke="midnightblue" points="839.261,-109.841 830.726,-116.118 841.313,-116.534 839.261,-109.841"/>
</g>
<!-- Node8 -->
<g id="node15" class="node"><title>Node8</title>
<a xlink:href="../../d8/dad/workspace_8cpp.html" target="_top" xlink:title="/home/travis/build\l/LibrePCB/LibrePCB/libs\l/librepcbworkspace/workspace.cpp">
<polygon fill="white" stroke="black" points="1104,-13.5 1104,-60.5 1274,-60.5 1274,-13.5 1104,-13.5"/>
<text text-anchor="start" x="1112" y="-47.5" font-family="Helvetica,sans-Serif" font-size="10.00">/home/travis/build</text>
<text text-anchor="start" x="1112" y="-34.5" font-family="Helvetica,sans-Serif" font-size="10.00">/LibrePCB/LibrePCB/libs</text>
<text text-anchor="middle" x="1189" y="-21.5" font-family="Helvetica,sans-Serif" font-size="10.00">/librepcbworkspace/workspace.cpp</text>
</a>
</g>
<!-- Node1&#45;&gt;Node8 -->
<g id="edge14" class="edge"><title>Node1&#45;&gt;Node8</title>
<path fill="none" stroke="midnightblue" d="M840.62,-124.789C907.505,-115.341 1009.09,-98.5404 1095,-74 1107.99,-70.291 1121.66,-65.4658 1134.44,-60.5314"/>
<polygon fill="midnightblue" stroke="midnightblue" points="840.021,-121.339 830.6,-126.186 840.988,-128.272 840.021,-121.339"/>
</g>
<!-- Node9 -->
<g id="node17" class="node"><title>Node9</title>
<a xlink:href="../../d1/d4e/controlpanel_8cpp.html" target="_top" xlink:title="/home/travis/build\l/LibrePCB/LibrePCB/librepcb\l/controlpanel/controlpanel.cpp">
<polygon fill="white" stroke="black" points="1292,-13.5 1292,-60.5 1438,-60.5 1438,-13.5 1292,-13.5"/>
<text text-anchor="start" x="1300" y="-47.5" font-family="Helvetica,sans-Serif" font-size="10.00">/home/travis/build</text>
<text text-anchor="start" x="1300" y="-34.5" font-family="Helvetica,sans-Serif" font-size="10.00">/LibrePCB/LibrePCB/librepcb</text>
<text text-anchor="middle" x="1365" y="-21.5" font-family="Helvetica,sans-Serif" font-size="10.00">/controlpanel/controlpanel.cpp</text>
</a>
</g>
<!-- Node1&#45;&gt;Node9 -->
<g id="edge16" class="edge"><title>Node1&#45;&gt;Node9</title>
<path fill="none" stroke="midnightblue" d="M840.877,-128.289C962.501,-118.293 1201.55,-96.5362 1283,-74 1295.19,-70.6266 1307.88,-65.6837 1319.53,-60.5023"/>
<polygon fill="midnightblue" stroke="midnightblue" points="840.23,-124.83 830.549,-129.133 840.8,-131.807 840.23,-124.83"/>
</g>
</g>
</svg>
