<?xml version="1.0" encoding="UTF-8" standalone="no"?>
<!DOCTYPE svg PUBLIC "-//W3C//DTD SVG 1.1//EN"
 "http://www.w3.org/Graphics/SVG/1.1/DTD/svg11.dtd">
<!-- Generated by graphviz version 2.26.3 (20100126.1600)
 -->
<!-- Title: getFilePath Pages: 1 -->
<svg width="312pt" height="146pt"
 viewBox="0.00 0.00 312.00 146.00" xmlns="http://www.w3.org/2000/svg" xmlns:xlink="http://www.w3.org/1999/xlink">
<g id="graph1" class="graph" transform="scale(1 1) rotate(0) translate(4 142)">
<title>getFilePath</title>
<polygon fill="white" stroke="white" points="-4,5 -4,-142 309,-142 309,5 -4,5"/>
<!-- Node1 -->
<g id="node1" class="node"><title>Node1</title>
<polygon fill="#bfbfbf" stroke="black" points="0,-58.5 0,-79.5 66,-79.5 66,-58.5 0,-58.5"/>
<text text-anchor="middle" x="33" y="-66.5" font-family="Helvetica,sans-Serif" font-size="10.00">getFilePath</text>
</g>
<!-- Node2 -->
<g id="node3" class="node"><title>Node2</title>
<a xlink:href="../../d1/def/class_control_panel.html#ac1e15520ed755e001af244cbac783e45" target="_top" xlink:title="ControlPanel::on_project\lTreeView_clicked">
<polygon fill="white" stroke="black" points="141,-104 141,-138 265,-138 265,-104 141,-104"/>
<text text-anchor="start" x="149" y="-125" font-family="Helvetica,sans-Serif" font-size="10.00">ControlPanel::on_project</text>
<text text-anchor="middle" x="203" y="-112" font-family="Helvetica,sans-Serif" font-size="10.00">TreeView_clicked</text>
</a>
</g>
<!-- Node1&#45;&gt;Node2 -->
<g id="edge2" class="edge"><title>Node1&#45;&gt;Node2</title>
<path fill="none" stroke="midnightblue" d="M68.4325,-83.1924C79.135,-87.2507 90.9725,-91.5143 102,-95 114.43,-98.9292 127.858,-102.705 140.738,-106.103"/>
<polygon fill="midnightblue" stroke="midnightblue" points="69.5683,-79.8793 58.9785,-79.5514 67.0524,-86.4116 69.5683,-79.8793"/>
</g>
<!-- Node3 -->
<g id="node5" class="node"><title>Node3</title>
<a xlink:href="../../d1/def/class_control_panel.html#aa9b5edbaaad9ac1ff6416a5656c36d5e" target="_top" xlink:title="ControlPanel::on_project\lTreeView_doubleClicked">
<polygon fill="white" stroke="black" points="140.5,-52 140.5,-86 265.5,-86 265.5,-52 140.5,-52"/>
<text text-anchor="start" x="148.5" y="-73" font-family="Helvetica,sans-Serif" font-size="10.00">ControlPanel::on_project</text>
<text text-anchor="middle" x="203" y="-60" font-family="Helvetica,sans-Serif" font-size="10.00">TreeView_doubleClicked</text>
</a>
</g>
<!-- Node1&#45;&gt;Node3 -->
<g id="edge4" class="edge"><title>Node1&#45;&gt;Node3</title>
<path fill="none" stroke="midnightblue" d="M76.2524,-69C95.6911,-69 119.005,-69 140.308,-69"/>
<polygon fill="midnightblue" stroke="midnightblue" points="76.1813,-65.5001 66.1813,-69 76.1812,-72.5001 76.1813,-65.5001"/>
</g>
<!-- Node4 -->
<g id="node7" class="node"><title>Node4</title>
<a xlink:href="../../d1/def/class_control_panel.html#af48b18b1f3edf33ae8c178b192a0641c" target="_top" xlink:title="ControlPanel::on_project\lTreeView_customContextMenuRequested">
<polygon fill="white" stroke="black" points="102.5,-0 102.5,-34 303.5,-34 303.5,-0 102.5,-0"/>
<text text-anchor="start" x="110.5" y="-21" font-family="Helvetica,sans-Serif" font-size="10.00">ControlPanel::on_project</text>
<text text-anchor="middle" x="203" y="-8" font-family="Helvetica,sans-Serif" font-size="10.00">TreeView_customContextMenuRequested</text>
</a>
</g>
<!-- Node1&#45;&gt;Node4 -->
<g id="edge6" class="edge"><title>Node1&#45;&gt;Node4</title>
<path fill="none" stroke="midnightblue" d="M68.4325,-54.8076C79.135,-50.7493 90.9725,-46.4857 102,-43 111.841,-39.8894 122.306,-36.875 132.631,-34.0682"/>
<polygon fill="midnightblue" stroke="midnightblue" points="67.0524,-51.5884 58.9785,-58.4486 69.5683,-58.1207 67.0524,-51.5884"/>
</g>
</g>
</svg>
