<?xml version="1.0" encoding="UTF-8" standalone="no"?>
<!DOCTYPE svg PUBLIC "-//W3C//DTD SVG 1.1//EN"
 "http://www.w3.org/Graphics/SVG/1.1/DTD/svg11.dtd">
<!-- Generated by graphviz version 2.26.3 (20100126.1600)
 -->
<!-- Title: /home/travis/build/LibrePCB/LibrePCB/libs/librepcbproject/moc/moc_circuit.cpp Pages: 1 -->
<svg width="425pt" height="330pt"
 viewBox="0.00 0.00 424.71 330.00" xmlns="http://www.w3.org/2000/svg" xmlns:xlink="http://www.w3.org/1999/xlink">
<g id="graph1" class="graph" transform="scale(1 1) rotate(0) translate(4 326)">
<title>/home/travis/build/LibrePCB/LibrePCB/libs/librepcbproject/moc/moc_circuit.cpp</title>
<polygon fill="white" stroke="white" points="-4,5 -4,-326 421.709,-326 421.709,5 -4,5"/>
<!-- Node1 -->
<g id="node1" class="node"><title>Node1</title>
<polygon fill="#bfbfbf" stroke="black" points="179.709,-261 179.709,-321 305.709,-321 305.709,-261 179.709,-261"/>
<text text-anchor="start" x="187.709" y="-308" font-family="Helvetica,sans-Serif" font-size="10.00">/home/travis/build</text>
<text text-anchor="start" x="187.709" y="-295" font-family="Helvetica,sans-Serif" font-size="10.00">/LibrePCB/LibrePCB/libs</text>
<text text-anchor="start" x="187.709" y="-282" font-family="Helvetica,sans-Serif" font-size="10.00">/librepcbproject/moc/moc</text>
<text text-anchor="middle" x="242.709" y="-269" font-family="Helvetica,sans-Serif" font-size="10.00">_circuit.cpp</text>
</g>
<!-- Node2 -->
<g id="node3" class="node"><title>Node2</title>
<a xlink:href="../../d3/ddf/circuit_8h.html" target="_top" xlink:title="../circuit/circuit.h">
<polygon fill="white" stroke="black" points="84.209,-202.5 84.209,-223.5 173.209,-223.5 173.209,-202.5 84.209,-202.5"/>
<text text-anchor="middle" x="128.709" y="-210.5" font-family="Helvetica,sans-Serif" font-size="10.00">../circuit/circuit.h</text>
</a>
</g>
<!-- Node1&#45;&gt;Node2 -->
<g id="edge2" class="edge"><title>Node1&#45;&gt;Node2</title>
<path fill="none" stroke="midnightblue" d="M198.634,-260.843C183.056,-250.185 166.119,-238.596 152.816,-229.494"/>
<polygon fill="midnightblue" stroke="midnightblue" points="154.477,-226.39 144.248,-223.632 150.524,-232.167 154.477,-226.39"/>
</g>
<!-- Node7 -->
<g id="node16" class="node"><title>Node7</title>
<polygon fill="white" stroke="#bfbfbf" points="190.209,-202.5 190.209,-223.5 295.209,-223.5 295.209,-202.5 190.209,-202.5"/>
<text text-anchor="middle" x="242.709" y="-210.5" font-family="Helvetica,sans-Serif" font-size="10.00">QtCore/qbytearray.h</text>
</g>
<!-- Node1&#45;&gt;Node7 -->
<g id="edge18" class="edge"><title>Node1&#45;&gt;Node7</title>
<path fill="none" stroke="midnightblue" d="M242.709,-260.62C242.709,-251.68 242.709,-242.103 242.709,-233.9"/>
<polygon fill="midnightblue" stroke="midnightblue" points="246.209,-233.753 242.709,-223.753 239.209,-233.753 246.209,-233.753"/>
</g>
<!-- Node8 -->
<g id="node18" class="node"><title>Node8</title>
<polygon fill="white" stroke="#bfbfbf" points="312.209,-202.5 312.209,-223.5 417.209,-223.5 417.209,-202.5 312.209,-202.5"/>
<text text-anchor="middle" x="364.709" y="-210.5" font-family="Helvetica,sans-Serif" font-size="10.00">QtCore/qmetatype.h</text>
</g>
<!-- Node1&#45;&gt;Node8 -->
<g id="edge20" class="edge"><title>Node1&#45;&gt;Node8</title>
<path fill="none" stroke="midnightblue" d="M289.877,-260.843C306.709,-250.082 325.023,-238.373 339.32,-229.232"/>
<polygon fill="midnightblue" stroke="midnightblue" points="341.54,-231.967 348.08,-223.632 337.769,-226.07 341.54,-231.967"/>
</g>
<!-- Node3 -->
<g id="node5" class="node"><title>Node3</title>
<polygon fill="white" stroke="#bfbfbf" points="62.709,-0.5 62.709,-21.5 110.709,-21.5 110.709,-0.5 62.709,-0.5"/>
<text text-anchor="middle" x="86.709" y="-8.5" font-family="Helvetica,sans-Serif" font-size="10.00">QtCore</text>
</g>
<!-- Node2&#45;&gt;Node3 -->
<g id="edge4" class="edge"><title>Node2&#45;&gt;Node3</title>
<path fill="none" stroke="midnightblue" d="M88.9079,-202.493C58.0625,-193.452 19.0476,-179.729 9.70899,-166 -21.9168,-119.506 33.8433,-58.1579 66.1284,-28.5187"/>
<polygon fill="midnightblue" stroke="midnightblue" points="68.6396,-30.9684 73.7632,-21.6948 63.9748,-25.7492 68.6396,-30.9684"/>
</g>
<!-- Node4 -->
<g id="node7" class="node"><title>Node4</title>
<a xlink:href="../../d0/d1d/if__xmlserializableobject_8h.html" target="_top" xlink:title="librepcbcommon/fileio\l/if_xmlserializableobject.h">
<polygon fill="white" stroke="black" points="18.209,-131 18.209,-165 147.209,-165 147.209,-131 18.209,-131"/>
<text text-anchor="start" x="26.209" y="-152" font-family="Helvetica,sans-Serif" font-size="10.00">librepcbcommon/fileio</text>
<text text-anchor="middle" x="82.709" y="-139" font-family="Helvetica,sans-Serif" font-size="10.00">/if_xmlserializableobject.h</text>
</a>
</g>
<!-- Node2&#45;&gt;Node4 -->
<g id="edge6" class="edge"><title>Node2&#45;&gt;Node4</title>
<path fill="none" stroke="midnightblue" d="M121.113,-202.267C115.587,-194.458 107.865,-183.546 100.793,-173.554"/>
<polygon fill="midnightblue" stroke="midnightblue" points="103.451,-171.251 94.8175,-165.11 97.7373,-175.294 103.451,-171.251"/>
</g>
<!-- Node5 -->
<g id="node9" class="node"><title>Node5</title>
<a xlink:href="../../d4/d03/exceptions_8h.html" target="_top" xlink:title="../exceptions.h">
<polygon fill="white" stroke="black" points="46.209,-65.5 46.209,-86.5 127.209,-86.5 127.209,-65.5 46.209,-65.5"/>
<text text-anchor="middle" x="86.709" y="-73.5" font-family="Helvetica,sans-Serif" font-size="10.00">../exceptions.h</text>
</a>
</g>
<!-- Node2&#45;&gt;Node5 -->
<g id="edge12" class="edge"><title>Node2&#45;&gt;Node5</title>
<path fill="none" stroke="midnightblue" d="M137.201,-202.418C149.046,-186.284 167.788,-154.792 155.709,-130 147.764,-113.693 132.248,-100.861 117.94,-91.8046"/>
<polygon fill="midnightblue" stroke="midnightblue" points="119.651,-88.7501 109.265,-86.6565 116.078,-94.7699 119.651,-88.7501"/>
</g>
<!-- Node6 -->
<g id="node13" class="node"><title>Node6</title>
<a xlink:href="../../dd/dec/filepath_8h.html" target="_top" xlink:title="librepcbcommon/fileio\l/filepath.h">
<polygon fill="white" stroke="black" points="152.209,-59 152.209,-93 263.209,-93 263.209,-59 152.209,-59"/>
<text text-anchor="start" x="160.209" y="-80" font-family="Helvetica,sans-Serif" font-size="10.00">librepcbcommon/fileio</text>
<text text-anchor="middle" x="207.709" y="-67" font-family="Helvetica,sans-Serif" font-size="10.00">/filepath.h</text>
</a>
</g>
<!-- Node2&#45;&gt;Node6 -->
<g id="edge14" class="edge"><title>Node2&#45;&gt;Node6</title>
<path fill="none" stroke="midnightblue" d="M140.236,-202.291C149.417,-193.289 162.111,-179.725 170.709,-166 183.195,-146.069 193.044,-121.199 199.43,-102.656"/>
<polygon fill="midnightblue" stroke="midnightblue" points="202.781,-103.671 202.617,-93.0772 196.139,-101.461 202.781,-103.671"/>
</g>
<!-- Node4&#45;&gt;Node5 -->
<g id="edge8" class="edge"><title>Node4&#45;&gt;Node5</title>
<path fill="none" stroke="midnightblue" d="M83.6569,-130.937C84.2193,-120.814 84.9369,-107.898 85.5349,-97.1329"/>
<polygon fill="midnightblue" stroke="midnightblue" points="89.0432,-97.0798 86.1034,-86.901 82.054,-96.6915 89.0432,-97.0798"/>
</g>
<!-- Node5&#45;&gt;Node3 -->
<g id="edge10" class="edge"><title>Node5&#45;&gt;Node3</title>
<path fill="none" stroke="midnightblue" d="M86.709,-65.2666C86.709,-56.1799 86.709,-42.8919 86.709,-31.7395"/>
<polygon fill="midnightblue" stroke="midnightblue" points="90.2091,-31.5337 86.709,-21.5337 83.2091,-31.5337 90.2091,-31.5337"/>
</g>
<!-- Node6&#45;&gt;Node3 -->
<g id="edge16" class="edge"><title>Node6&#45;&gt;Node3</title>
<path fill="none" stroke="midnightblue" d="M175.918,-58.922C157.195,-48.8644 133.697,-36.2415 115.518,-26.476"/>
<polygon fill="midnightblue" stroke="midnightblue" points="117.016,-23.3074 106.55,-21.6584 113.703,-29.474 117.016,-23.3074"/>
</g>
</g>
</svg>
