<?xml version="1.0" encoding="UTF-8" standalone="no"?>
<!DOCTYPE svg PUBLIC "-//W3C//DTD SVG 1.1//EN"
 "http://www.w3.org/Graphics/SVG/1.1/DTD/svg11.dtd">
<!-- Generated by graphviz version 2.26.3 (20100126.1600)
 -->
<!-- Title: /home/travis/build/LibrePCB/LibrePCB/libs/librepcbworkspace/settings/workspacesettingsdialog.cpp Pages: 1 -->
<svg width="1575pt" height="374pt"
 viewBox="0.00 0.00 1575.00 374.00" xmlns="http://www.w3.org/2000/svg" xmlns:xlink="http://www.w3.org/1999/xlink">
<g id="graph1" class="graph" transform="scale(1 1) rotate(0) translate(4 370)">
<title>/home/travis/build/LibrePCB/LibrePCB/libs/librepcbworkspace/settings/workspacesettingsdialog.cpp</title>
<polygon fill="white" stroke="white" points="-4,5 -4,-370 1572,-370 1572,5 -4,5"/>
<!-- Node1 -->
<g id="node1" class="node"><title>Node1</title>
<polygon fill="#bfbfbf" stroke="black" points="897,-305 897,-365 1043,-365 1043,-305 897,-305"/>
<text text-anchor="start" x="905" y="-352" font-family="Helvetica,sans-Serif" font-size="10.00">/home/travis/build</text>
<text text-anchor="start" x="905" y="-339" font-family="Helvetica,sans-Serif" font-size="10.00">/LibrePCB/LibrePCB/libs</text>
<text text-anchor="start" x="905" y="-326" font-family="Helvetica,sans-Serif" font-size="10.00">/librepcbworkspace/settings</text>
<text text-anchor="middle" x="970" y="-313" font-family="Helvetica,sans-Serif" font-size="10.00">/workspacesettingsdialog.cpp</text>
</g>
<!-- Node2 -->
<g id="node3" class="node"><title>Node2</title>
<polygon fill="white" stroke="#bfbfbf" points="1282,-0.5 1282,-21.5 1330,-21.5 1330,-0.5 1282,-0.5"/>
<text text-anchor="middle" x="1306" y="-8.5" font-family="Helvetica,sans-Serif" font-size="10.00">QtCore</text>
</g>
<!-- Node1&#45;&gt;Node2 -->
<g id="edge2" class="edge"><title>Node1&#45;&gt;Node2</title>
<path fill="none" stroke="midnightblue" d="M1043.2,-325.954C1202.62,-305.261 1567,-252.151 1567,-199 1567,-199 1567,-199 1567,-134 1567,-84.3096 1528.56,-81.9147 1485,-58 1438.73,-32.5965 1378.13,-20.4419 1340.65,-14.9935"/>
<polygon fill="midnightblue" stroke="midnightblue" points="1340.64,-11.46 1330.26,-13.5697 1339.69,-18.3952 1340.64,-11.46"/>
</g>
<!-- Node3 -->
<g id="node5" class="node"><title>Node3</title>
<polygon fill="white" stroke="#bfbfbf" points="128.5,-58.5 128.5,-79.5 191.5,-79.5 191.5,-58.5 128.5,-58.5"/>
<text text-anchor="middle" x="160" y="-66.5" font-family="Helvetica,sans-Serif" font-size="10.00">QtWidgets</text>
</g>
<!-- Node1&#45;&gt;Node3 -->
<g id="edge4" class="edge"><title>Node1&#45;&gt;Node3</title>
<path fill="none" stroke="midnightblue" d="M896.992,-328.417C710.74,-310.941 229.049,-261.203 179,-210 147.63,-177.907 151.218,-120.347 155.944,-89.6331"/>
<polygon fill="midnightblue" stroke="midnightblue" points="159.418,-90.0794 157.674,-79.6292 152.521,-88.8865 159.418,-90.0794"/>
</g>
<!-- Node4 -->
<g id="node7" class="node"><title>Node4</title>
<a xlink:href="../../db/dec/workspacesettingsdialog_8h.html" target="_top" xlink:title="workspacesettingsdialog.h">
<polygon fill="white" stroke="black" points="0,-123.5 0,-144.5 132,-144.5 132,-123.5 0,-123.5"/>
<text text-anchor="middle" x="66" y="-131.5" font-family="Helvetica,sans-Serif" font-size="10.00">workspacesettingsdialog.h</text>
</a>
</g>
<!-- Node1&#45;&gt;Node4 -->
<g id="edge6" class="edge"><title>Node1&#45;&gt;Node4</title>
<path fill="none" stroke="midnightblue" d="M896.891,-332.857C707.079,-326.763 208.94,-307.185 146,-268 104.027,-241.868 81.2429,-184.903 71.6187,-154.34"/>
<polygon fill="midnightblue" stroke="midnightblue" points="74.9635,-153.308 68.7534,-144.724 68.255,-155.308 74.9635,-153.308"/>
</g>
<!-- Node5 -->
<g id="node11" class="node"><title>Node5</title>
<polygon fill="white" stroke="#bfbfbf" points="969.5,-246.5 969.5,-267.5 1114.5,-267.5 1114.5,-246.5 969.5,-246.5"/>
<text text-anchor="middle" x="1042" y="-254.5" font-family="Helvetica,sans-Serif" font-size="10.00">ui_workspacesettingsdialog.h</text>
</g>
<!-- Node1&#45;&gt;Node5 -->
<g id="edge12" class="edge"><title>Node1&#45;&gt;Node5</title>
<path fill="none" stroke="midnightblue" d="M998.043,-304.62C1007.23,-294.664 1017.15,-283.919 1025.24,-275.16"/>
<polygon fill="midnightblue" stroke="midnightblue" points="1027.86,-277.476 1032.07,-267.753 1022.72,-272.728 1027.86,-277.476"/>
</g>
<!-- Node6 -->
<g id="node13" class="node"><title>Node6</title>
<a xlink:href="../../d4/de6/workspace_8h.html" target="_top" xlink:title="../workspace.h">
<polygon fill="white" stroke="black" points="1402.5,-188.5 1402.5,-209.5 1483.5,-209.5 1483.5,-188.5 1402.5,-188.5"/>
<text text-anchor="middle" x="1443" y="-196.5" font-family="Helvetica,sans-Serif" font-size="10.00">../workspace.h</text>
</a>
</g>
<!-- Node1&#45;&gt;Node6 -->
<g id="edge14" class="edge"><title>Node1&#45;&gt;Node6</title>
<path fill="none" stroke="midnightblue" d="M1043.13,-313.974C1141.58,-285.666 1313.9,-236.12 1396.4,-212.399"/>
<polygon fill="midnightblue" stroke="midnightblue" points="1397.6,-215.696 1406.24,-209.569 1395.66,-208.968 1397.6,-215.696"/>
</g>
<!-- Node10 -->
<g id="node26" class="node"><title>Node10</title>
<a xlink:href="../../d7/dfd/workspacesettings_8h.html" target="_top" xlink:title="workspacesettings.h">
<polygon fill="white" stroke="black" points="845.5,-246.5 845.5,-267.5 952.5,-267.5 952.5,-246.5 845.5,-246.5"/>
<text text-anchor="middle" x="899" y="-254.5" font-family="Helvetica,sans-Serif" font-size="10.00">workspacesettings.h</text>
</a>
</g>
<!-- Node1&#45;&gt;Node10 -->
<g id="edge32" class="edge"><title>Node1&#45;&gt;Node10</title>
<path fill="none" stroke="midnightblue" d="M942.346,-304.62C933.284,-294.664 923.503,-283.919 915.53,-275.16"/>
<polygon fill="midnightblue" stroke="midnightblue" points="918.108,-272.793 908.788,-267.753 912.932,-277.505 918.108,-272.793"/>
</g>
<!-- Node4&#45;&gt;Node2 -->
<g id="edge8" class="edge"><title>Node4&#45;&gt;Node2</title>
<path fill="none" stroke="midnightblue" d="M69.9664,-123.276C77.0162,-105.96 93.5268,-72.3363 120,-58 171.936,-29.8745 1082.33,-14.426 1271.68,-11.5093"/>
<polygon fill="midnightblue" stroke="midnightblue" points="1271.93,-15.006 1281.88,-11.3536 1271.83,-8.00677 1271.93,-15.006"/>
</g>
<!-- Node4&#45;&gt;Node3 -->
<g id="edge10" class="edge"><title>Node4&#45;&gt;Node3</title>
<path fill="none" stroke="midnightblue" d="M81.5222,-123.267C96.4424,-112.949 119.195,-97.216 136.367,-85.3421"/>
<polygon fill="midnightblue" stroke="midnightblue" points="138.532,-88.1001 144.767,-79.5337 134.551,-82.3425 138.532,-88.1001"/>
</g>
<!-- Node6&#45;&gt;Node2 -->
<g id="edge16" class="edge"><title>Node6&#45;&gt;Node2</title>
<path fill="none" stroke="midnightblue" d="M1468.5,-188.488C1483.54,-180.797 1501.28,-168.766 1510,-152 1517.38,-137.805 1516.37,-130.678 1510,-116 1481.21,-49.6464 1390.63,-24.5956 1340.39,-15.6386"/>
<polygon fill="midnightblue" stroke="midnightblue" points="1340.76,-12.152 1330.32,-13.9624 1339.61,-19.057 1340.76,-12.152"/>
</g>
<!-- Node7 -->
<g id="node16" class="node"><title>Node7</title>
<a xlink:href="../../d5/db9/filelock_8h.html" target="_top" xlink:title="librepcbcommon/fileio\l/filelock.h">
<polygon fill="white" stroke="black" points="1390.5,-117 1390.5,-151 1501.5,-151 1501.5,-117 1390.5,-117"/>
<text text-anchor="start" x="1398.5" y="-138" font-family="Helvetica,sans-Serif" font-size="10.00">librepcbcommon/fileio</text>
<text text-anchor="middle" x="1446" y="-125" font-family="Helvetica,sans-Serif" font-size="10.00">/filelock.h</text>
</a>
</g>
<!-- Node6&#45;&gt;Node7 -->
<g id="edge18" class="edge"><title>Node6&#45;&gt;Node7</title>
<path fill="none" stroke="midnightblue" d="M1443.5,-188.267C1443.83,-180.931 1444.3,-170.857 1444.74,-161.38"/>
<polygon fill="midnightblue" stroke="midnightblue" points="1448.25,-161.261 1445.21,-151.11 1441.25,-160.938 1448.25,-161.261"/>
</g>
<!-- Node9 -->
<g id="node22" class="node"><title>Node9</title>
<a xlink:href="../../d4/d03/exceptions_8h.html" target="_top" xlink:title="../exceptions.h">
<polygon fill="white" stroke="black" points="1265.5,-58.5 1265.5,-79.5 1346.5,-79.5 1346.5,-58.5 1265.5,-58.5"/>
<text text-anchor="middle" x="1306" y="-66.5" font-family="Helvetica,sans-Serif" font-size="10.00">../exceptions.h</text>
</a>
</g>
<!-- Node6&#45;&gt;Node9 -->
<g id="edge30" class="edge"><title>Node6&#45;&gt;Node9</title>
<path fill="none" stroke="midnightblue" d="M1427.88,-188.476C1415.17,-179.37 1396.77,-165.566 1382,-152 1359.49,-131.328 1336.12,-104.934 1321.34,-87.526"/>
<polygon fill="midnightblue" stroke="midnightblue" points="1323.93,-85.1682 1314.81,-79.7666 1318.57,-89.6731 1323.93,-85.1682"/>
</g>
<!-- Node7&#45;&gt;Node2 -->
<g id="edge20" class="edge"><title>Node7&#45;&gt;Node2</title>
<path fill="none" stroke="midnightblue" d="M1446.59,-116.857C1446.25,-99.9606 1443.15,-74.3641 1429,-58 1406.59,-32.0864 1368.27,-20.4059 1340.35,-15.1748"/>
<polygon fill="midnightblue" stroke="midnightblue" points="1340.65,-11.6767 1330.21,-13.4695 1339.49,-18.5797 1340.65,-11.6767"/>
</g>
<!-- Node8 -->
<g id="node19" class="node"><title>Node8</title>
<a xlink:href="../../dd/dec/filepath_8h.html" target="_top" xlink:title="filepath.h">
<polygon fill="white" stroke="black" points="1364,-58.5 1364,-79.5 1420,-79.5 1420,-58.5 1364,-58.5"/>
<text text-anchor="middle" x="1392" y="-66.5" font-family="Helvetica,sans-Serif" font-size="10.00">filepath.h</text>
</a>
</g>
<!-- Node7&#45;&gt;Node8 -->
<g id="edge22" class="edge"><title>Node7&#45;&gt;Node8</title>
<path fill="none" stroke="midnightblue" d="M1431.81,-116.922C1424.35,-107.937 1415.18,-96.9047 1407.53,-87.6912"/>
<polygon fill="midnightblue" stroke="midnightblue" points="1410.1,-85.3074 1401.02,-79.8521 1404.71,-89.7806 1410.1,-85.3074"/>
</g>
<!-- Node7&#45;&gt;Node9 -->
<g id="edge26" class="edge"><title>Node7&#45;&gt;Node9</title>
<path fill="none" stroke="midnightblue" d="M1409.22,-116.922C1387.16,-106.68 1359.37,-93.7774 1338.18,-83.9413"/>
<polygon fill="midnightblue" stroke="midnightblue" points="1339.5,-80.695 1328.96,-79.6584 1336.55,-87.0441 1339.5,-80.695"/>
</g>
<!-- Node8&#45;&gt;Node2 -->
<g id="edge24" class="edge"><title>Node8&#45;&gt;Node2</title>
<path fill="none" stroke="midnightblue" d="M1376.23,-58.3619C1363.38,-49.6955 1345.02,-37.3126 1330.29,-27.3819"/>
<polygon fill="midnightblue" stroke="midnightblue" points="1331.92,-24.2604 1321.67,-21.5707 1328.01,-30.0639 1331.92,-24.2604"/>
</g>
<!-- Node9&#45;&gt;Node2 -->
<g id="edge28" class="edge"><title>Node9&#45;&gt;Node2</title>
<path fill="none" stroke="midnightblue" d="M1306,-58.3619C1306,-50.9219 1306,-40.7427 1306,-31.7276"/>
<polygon fill="midnightblue" stroke="midnightblue" points="1309.5,-31.5706 1306,-21.5707 1302.5,-31.5707 1309.5,-31.5706"/>
</g>
<!-- Node10&#45;&gt;Node2 -->
<g id="edge34" class="edge"><title>Node10&#45;&gt;Node2</title>
<path fill="none" stroke="midnightblue" d="M951.617,-246.46C1006.56,-235.165 1086.48,-217.81 1099,-210 1144.82,-181.421 1138.19,-154.565 1176,-116 1203.81,-87.634 1213.05,-82.8975 1244,-58 1256.87,-47.6449 1271.6,-36.4558 1283.47,-27.5935"/>
<polygon fill="midnightblue" stroke="midnightblue" points="1285.6,-30.3704 1291.54,-21.5967 1281.42,-24.7518 1285.6,-30.3704"/>
</g>
<!-- Node10&#45;&gt;Node8 -->
<g id="edge36" class="edge"><title>Node10&#45;&gt;Node8</title>
<path fill="none" stroke="midnightblue" d="M952.726,-247.185C955.521,-246.763 958.291,-246.365 961,-246 1047.26,-234.388 1283.87,-265.397 1351,-210 1360.44,-202.21 1378.79,-126.76 1387.37,-89.5459"/>
<polygon fill="midnightblue" stroke="midnightblue" points="1390.79,-90.2734 1389.61,-79.7452 1383.97,-88.7156 1390.79,-90.2734"/>
</g>
<!-- Node11 -->
<g id="node30" class="node"><title>Node11</title>
<a xlink:href="../../d1/df7/wsi__applocale_8h.html" target="_top" xlink:title="items/wsi_applocale.h">
<polygon fill="white" stroke="black" points="977.5,-188.5 977.5,-209.5 1090.5,-209.5 1090.5,-188.5 977.5,-188.5"/>
<text text-anchor="middle" x="1034" y="-196.5" font-family="Helvetica,sans-Serif" font-size="10.00">items/wsi_applocale.h</text>
</a>
</g>
<!-- Node10&#45;&gt;Node11 -->
<g id="edge38" class="edge"><title>Node10&#45;&gt;Node11</title>
<path fill="none" stroke="midnightblue" d="M923.447,-246.497C944.818,-237.315 976.069,-223.889 999.897,-213.652"/>
<polygon fill="midnightblue" stroke="midnightblue" points="1001.47,-216.784 1009.28,-209.621 998.709,-210.353 1001.47,-216.784"/>
</g>
<!-- Node13 -->
<g id="node36" class="node"><title>Node13</title>
<a xlink:href="../../dd/d8d/wsi__appdefaultmeasurementunits_8h.html" target="_top" xlink:title="items/wsi_appdefaultmeasurementunits.h">
<polygon fill="white" stroke="black" points="1145.5,-188.5 1145.5,-209.5 1342.5,-209.5 1342.5,-188.5 1145.5,-188.5"/>
<text text-anchor="middle" x="1244" y="-196.5" font-family="Helvetica,sans-Serif" font-size="10.00">items/wsi_appdefaultmeasurementunits.h</text>
</a>
</g>
<!-- Node10&#45;&gt;Node13 -->
<g id="edge46" class="edge"><title>Node10&#45;&gt;Node13</title>
<path fill="none" stroke="midnightblue" d="M952.762,-247.424C955.548,-246.94 958.306,-246.463 961,-246 1031.62,-233.872 1112.24,-220.532 1169.32,-211.173"/>
<polygon fill="midnightblue" stroke="midnightblue" points="1170.03,-214.602 1179.34,-209.531 1168.9,-207.694 1170.03,-214.602"/>
</g>
<!-- Node15 -->
<g id="node43" class="node"><title>Node15</title>
<a xlink:href="../../d8/d1a/wsi__projectautosaveinterval_8h.html" target="_top" xlink:title="items/wsi_projectautosaveinterval.h">
<polygon fill="white" stroke="black" points="187.5,-188.5 187.5,-209.5 360.5,-209.5 360.5,-188.5 187.5,-188.5"/>
<text text-anchor="middle" x="274" y="-196.5" font-family="Helvetica,sans-Serif" font-size="10.00">items/wsi_projectautosaveinterval.h</text>
</a>
</g>
<!-- Node10&#45;&gt;Node15 -->
<g id="edge56" class="edge"><title>Node10&#45;&gt;Node15</title>
<path fill="none" stroke="midnightblue" d="M845.163,-252.706C751.117,-245.1 550.536,-228.411 370.877,-210.173"/>
<polygon fill="midnightblue" stroke="midnightblue" points="371.014,-206.669 360.711,-209.137 370.305,-213.633 371.014,-206.669"/>
</g>
<!-- Node16 -->
<g id="node46" class="node"><title>Node16</title>
<a xlink:href="../../d8/d06/wsi__librarylocaleorder_8h.html" target="_top" xlink:title="items/wsi_librarylocaleorder.h">
<polygon fill="white" stroke="black" points="378,-188.5 378,-209.5 524,-209.5 524,-188.5 378,-188.5"/>
<text text-anchor="middle" x="451" y="-196.5" font-family="Helvetica,sans-Serif" font-size="10.00">items/wsi_librarylocaleorder.h</text>
</a>
</g>
<!-- Node10&#45;&gt;Node16 -->
<g id="edge60" class="edge"><title>Node10&#45;&gt;Node16</title>
<path fill="none" stroke="midnightblue" d="M845.342,-250.206C776.022,-241.407 651.315,-225.505 534.507,-210.193"/>
<polygon fill="midnightblue" stroke="midnightblue" points="534.685,-206.686 524.315,-208.856 533.775,-213.627 534.685,-206.686"/>
</g>
<!-- Node17 -->
<g id="node49" class="node"><title>Node17</title>
<a xlink:href="../../dd/d39/wsi__librarynormorder_8h.html" target="_top" xlink:title="items/wsi_librarynormorder.h">
<polygon fill="white" stroke="black" points="542,-188.5 542,-209.5 684,-209.5 684,-188.5 542,-188.5"/>
<text text-anchor="middle" x="613" y="-196.5" font-family="Helvetica,sans-Serif" font-size="10.00">items/wsi_librarynormorder.h</text>
</a>
</g>
<!-- Node10&#45;&gt;Node17 -->
<g id="edge64" class="edge"><title>Node10&#45;&gt;Node17</title>
<path fill="none" stroke="midnightblue" d="M847.208,-246.497C798.765,-236.673 726.357,-221.988 674.89,-211.551"/>
<polygon fill="midnightblue" stroke="midnightblue" points="675.386,-208.08 664.89,-209.523 673.994,-214.941 675.386,-208.08"/>
</g>
<!-- Node18 -->
<g id="node52" class="node"><title>Node18</title>
<a xlink:href="../../d4/dc7/wsi__debugtools_8h.html" target="_top" xlink:title="items/wsi_debugtools.h">
<polygon fill="white" stroke="black" points="701.5,-188.5 701.5,-209.5 820.5,-209.5 820.5,-188.5 701.5,-188.5"/>
<text text-anchor="middle" x="761" y="-196.5" font-family="Helvetica,sans-Serif" font-size="10.00">items/wsi_debugtools.h</text>
</a>
</g>
<!-- Node10&#45;&gt;Node18 -->
<g id="edge68" class="edge"><title>Node10&#45;&gt;Node18</title>
<path fill="none" stroke="midnightblue" d="M874.009,-246.497C852.067,-237.275 819.934,-223.769 795.536,-213.515"/>
<polygon fill="midnightblue" stroke="midnightblue" points="796.846,-210.269 786.271,-209.621 794.134,-216.722 796.846,-210.269"/>
</g>
<!-- Node19 -->
<g id="node55" class="node"><title>Node19</title>
<a xlink:href="../../db/d31/wsi__appearance_8h.html" target="_top" xlink:title="items/wsi_appearance.h">
<polygon fill="white" stroke="black" points="838,-188.5 838,-209.5 960,-209.5 960,-188.5 838,-188.5"/>
<text text-anchor="middle" x="899" y="-196.5" font-family="Helvetica,sans-Serif" font-size="10.00">items/wsi_appearance.h</text>
</a>
</g>
<!-- Node10&#45;&gt;Node19 -->
<g id="edge72" class="edge"><title>Node10&#45;&gt;Node19</title>
<path fill="none" stroke="midnightblue" d="M899,-246.362C899,-238.922 899,-228.743 899,-219.728"/>
<polygon fill="midnightblue" stroke="midnightblue" points="902.5,-219.571 899,-209.571 895.5,-219.571 902.5,-219.571"/>
</g>
<!-- Node12 -->
<g id="node32" class="node"><title>Node12</title>
<a xlink:href="../../dd/d8c/wsi__base_8h.html" target="_top" xlink:title="wsi_base.h">
<polygon fill="white" stroke="black" points="728,-123.5 728,-144.5 794,-144.5 794,-123.5 728,-123.5"/>
<text text-anchor="middle" x="761" y="-131.5" font-family="Helvetica,sans-Serif" font-size="10.00">wsi_base.h</text>
</a>
</g>
<!-- Node11&#45;&gt;Node12 -->
<g id="edge40" class="edge"><title>Node11&#45;&gt;Node12</title>
<path fill="none" stroke="midnightblue" d="M989.834,-188.484C938.727,-176.316 855.108,-156.407 804.35,-144.321"/>
<polygon fill="midnightblue" stroke="midnightblue" points="804.887,-140.851 794.348,-141.94 803.266,-147.661 804.887,-140.851"/>
</g>
<!-- Node12&#45;&gt;Node2 -->
<g id="edge42" class="edge"><title>Node12&#45;&gt;Node2</title>
<path fill="none" stroke="midnightblue" d="M794.272,-126.491C891.381,-104.575 1173.76,-40.8455 1271.91,-18.6948"/>
<polygon fill="midnightblue" stroke="midnightblue" points="1272.9,-22.0588 1281.88,-16.4431 1271.36,-15.2305 1272.9,-22.0588"/>
</g>
<!-- Node12&#45;&gt;Node3 -->
<g id="edge44" class="edge"><title>Node12&#45;&gt;Node3</title>
<path fill="none" stroke="midnightblue" d="M727.832,-130.413C625.459,-119.341 314.567,-85.7168 201.595,-73.4987"/>
<polygon fill="midnightblue" stroke="midnightblue" points="201.924,-70.0139 191.606,-72.4183 201.172,-76.9733 201.924,-70.0139"/>
</g>
<!-- Node13&#45;&gt;Node12 -->
<g id="edge48" class="edge"><title>Node13&#45;&gt;Node12</title>
<path fill="none" stroke="midnightblue" d="M1165.86,-188.484C1063.14,-174.661 886.196,-150.848 804.573,-139.864"/>
<polygon fill="midnightblue" stroke="midnightblue" points="804.548,-136.329 794.17,-138.464 803.614,-143.266 804.548,-136.329"/>
</g>
<!-- Node14 -->
<g id="node39" class="node"><title>Node14</title>
<a xlink:href="../../d0/d09/lengthunit_8h.html" target="_top" xlink:title="librepcbcommon/units\l/lengthunit.h">
<polygon fill="white" stroke="black" points="1185,-117 1185,-151 1297,-151 1297,-117 1185,-117"/>
<text text-anchor="start" x="1193" y="-138" font-family="Helvetica,sans-Serif" font-size="10.00">librepcbcommon/units</text>
<text text-anchor="middle" x="1241" y="-125" font-family="Helvetica,sans-Serif" font-size="10.00">/lengthunit.h</text>
</a>
</g>
<!-- Node13&#45;&gt;Node14 -->
<g id="edge50" class="edge"><title>Node13&#45;&gt;Node14</title>
<path fill="none" stroke="midnightblue" d="M1243.5,-188.267C1243.17,-180.931 1242.7,-170.857 1242.26,-161.38"/>
<polygon fill="midnightblue" stroke="midnightblue" points="1245.75,-160.938 1241.79,-151.11 1238.75,-161.261 1245.75,-160.938"/>
</g>
<!-- Node14&#45;&gt;Node2 -->
<g id="edge52" class="edge"><title>Node14&#45;&gt;Node2</title>
<path fill="none" stroke="midnightblue" d="M1241.72,-116.997C1243.03,-100.899 1246.72,-76.5078 1257,-58 1263.37,-46.5221 1273.48,-36.1354 1282.86,-28.0628"/>
<polygon fill="midnightblue" stroke="midnightblue" points="1285.26,-30.6225 1290.8,-21.5952 1280.84,-25.1937 1285.26,-30.6225"/>
</g>
<!-- Node14&#45;&gt;Node9 -->
<g id="edge54" class="edge"><title>Node14&#45;&gt;Node9</title>
<path fill="none" stroke="midnightblue" d="M1258.08,-116.922C1267.25,-107.754 1278.55,-96.4535 1287.87,-87.1294"/>
<polygon fill="midnightblue" stroke="midnightblue" points="1290.55,-89.3981 1295.15,-79.8521 1285.6,-84.4483 1290.55,-89.3981"/>
</g>
<!-- Node15&#45;&gt;Node12 -->
<g id="edge58" class="edge"><title>Node15&#45;&gt;Node12</title>
<path fill="none" stroke="midnightblue" d="M352.786,-188.484C456.696,-174.616 635.941,-150.692 717.875,-139.756"/>
<polygon fill="midnightblue" stroke="midnightblue" points="718.391,-143.218 727.84,-138.426 717.465,-136.28 718.391,-143.218"/>
</g>
<!-- Node16&#45;&gt;Node12 -->
<g id="edge62" class="edge"><title>Node16&#45;&gt;Node12</title>
<path fill="none" stroke="midnightblue" d="M501.151,-188.484C561.162,-175.901 660.648,-155.042 717.532,-143.114"/>
<polygon fill="midnightblue" stroke="midnightblue" points="718.569,-146.473 727.638,-140.995 717.133,-139.622 718.569,-146.473"/>
</g>
<!-- Node17&#45;&gt;Node12 -->
<g id="edge66" class="edge"><title>Node17&#45;&gt;Node12</title>
<path fill="none" stroke="midnightblue" d="M637.108,-188.412C661.727,-177.6 700.136,-160.731 727.661,-148.642"/>
<polygon fill="midnightblue" stroke="midnightblue" points="729.154,-151.809 736.902,-144.584 726.339,-145.4 729.154,-151.809"/>
</g>
<!-- Node18&#45;&gt;Node12 -->
<g id="edge70" class="edge"><title>Node18&#45;&gt;Node12</title>
<path fill="none" stroke="midnightblue" d="M761,-188.267C761,-179.18 761,-165.892 761,-154.74"/>
<polygon fill="midnightblue" stroke="midnightblue" points="764.5,-154.534 761,-144.534 757.5,-154.534 764.5,-154.534"/>
</g>
<!-- Node19&#45;&gt;Node12 -->
<g id="edge74" class="edge"><title>Node19&#45;&gt;Node12</title>
<path fill="none" stroke="midnightblue" d="M876.521,-188.412C853.766,-177.694 818.376,-161.025 792.761,-148.96"/>
<polygon fill="midnightblue" stroke="midnightblue" points="794.008,-145.678 783.47,-144.584 791.025,-152.011 794.008,-145.678"/>
</g>
</g>
</svg>
