<?xml version="1.0" encoding="UTF-8" standalone="no"?>
<!DOCTYPE svg PUBLIC "-//W3C//DTD SVG 1.1//EN"
 "http://www.w3.org/Graphics/SVG/1.1/DTD/svg11.dtd">
<!-- Generated by graphviz version 2.26.3 (20100126.1600)
 -->
<!-- Title: isDefault Pages: 1 -->
<svg width="814pt" height="175pt"
 viewBox="0.00 0.00 814.00 175.00" xmlns="http://www.w3.org/2000/svg" xmlns:xlink="http://www.w3.org/1999/xlink">
<g id="graph1" class="graph" transform="scale(1 1) rotate(0) translate(4 171)">
<title>isDefault</title>
<polygon fill="white" stroke="white" points="-4,5 -4,-171 811,-171 811,5 -4,5"/>
<!-- Node1 -->
<g id="node1" class="node"><title>Node1</title>
<polygon fill="#bfbfbf" stroke="black" points="0,-87.5 0,-108.5 56,-108.5 56,-87.5 0,-87.5"/>
<text text-anchor="middle" x="28" y="-95.5" font-family="Helvetica,sans-Serif" font-size="10.00">isDefault</text>
</g>
<!-- Node2 -->
<g id="node3" class="node"><title>Node2</title>
<a xlink:href="../../d7/d7c/classlibrary_1_1_generic_component.html#ad6c2bb438fe200b1224b2d8e05d3eca0" target="_top" xlink:title="library::GenericComponent\l::parseDomTree">
<polygon fill="white" stroke="black" points="96.5,-133 96.5,-167 229.5,-167 229.5,-133 96.5,-133"/>
<text text-anchor="start" x="104.5" y="-154" font-family="Helvetica,sans-Serif" font-size="10.00">library::GenericComponent</text>
<text text-anchor="middle" x="163" y="-141" font-family="Helvetica,sans-Serif" font-size="10.00">::parseDomTree</text>
</a>
</g>
<!-- Node1&#45;&gt;Node2 -->
<g id="edge2" class="edge"><title>Node1&#45;&gt;Node2</title>
<path fill="none" stroke="midnightblue" d="M62.9194,-112.443C72.3339,-116.266 82.5338,-120.345 92,-124 99.5924,-126.931 107.672,-129.968 115.557,-132.887"/>
<polygon fill="midnightblue" stroke="midnightblue" points="64.0374,-109.119 53.4563,-108.579 61.3914,-115.599 64.0374,-109.119"/>
</g>
<!-- Node3 -->
<g id="node5" class="node"><title>Node3</title>
<a xlink:href="../../d7/d7c/classlibrary_1_1_generic_component.html#a524ed0dd8a5522b754411728dfe5c752" target="_top" xlink:title="Check the validity of all attributes of the object. ">
<polygon fill="white" stroke="black" points="96.5,-81 96.5,-115 229.5,-115 229.5,-81 96.5,-81"/>
<text text-anchor="start" x="104.5" y="-102" font-family="Helvetica,sans-Serif" font-size="10.00">library::GenericComponent</text>
<text text-anchor="middle" x="163" y="-89" font-family="Helvetica,sans-Serif" font-size="10.00">::checkAttributesValidity</text>
</a>
</g>
<!-- Node1&#45;&gt;Node3 -->
<g id="edge4" class="edge"><title>Node1&#45;&gt;Node3</title>
<path fill="none" stroke="midnightblue" d="M66.4344,-98C75.8026,-98 86.094,-98 96.359,-98"/>
<polygon fill="midnightblue" stroke="midnightblue" points="66.3005,-94.5001 56.3004,-98 66.3004,-101.5 66.3005,-94.5001"/>
</g>
<!-- Node4 -->
<g id="node7" class="node"><title>Node4</title>
<a xlink:href="../../d1/d92/classproject_1_1_add_gen_comp_dialog.html#abf6af5dc67073d848d5cf561412d4b27" target="_top" xlink:title="project::AddGenCompDialog\l::setSelectedGenComp">
<polygon fill="white" stroke="black" points="92.5,-29 92.5,-63 233.5,-63 233.5,-29 92.5,-29"/>
<text text-anchor="start" x="100.5" y="-50" font-family="Helvetica,sans-Serif" font-size="10.00">project::AddGenCompDialog</text>
<text text-anchor="middle" x="163" y="-37" font-family="Helvetica,sans-Serif" font-size="10.00">::setSelectedGenComp</text>
</a>
</g>
<!-- Node1&#45;&gt;Node4 -->
<g id="edge6" class="edge"><title>Node1&#45;&gt;Node4</title>
<path fill="none" stroke="midnightblue" d="M62.9194,-83.5574C72.3339,-79.7338 82.5338,-75.6548 92,-72 99.5924,-69.0686 107.672,-66.0321 115.557,-63.1134"/>
<polygon fill="midnightblue" stroke="midnightblue" points="61.3914,-80.4007 53.4563,-87.421 64.0374,-86.8813 61.3914,-80.4007"/>
</g>
<!-- Node5 -->
<g id="node9" class="node"><title>Node5</title>
<a xlink:href="../../d1/d92/classproject_1_1_add_gen_comp_dialog.html#a5951d1d20ef2d9675b3b1690d6799fa7" target="_top" xlink:title="project::AddGenCompDialog\l::on_listGenericComponents\l_currentItemChanged">
<polygon fill="white" stroke="black" points="270.5,-52.5 270.5,-99.5 411.5,-99.5 411.5,-52.5 270.5,-52.5"/>
<text text-anchor="start" x="278.5" y="-86.5" font-family="Helvetica,sans-Serif" font-size="10.00">project::AddGenCompDialog</text>
<text text-anchor="start" x="278.5" y="-73.5" font-family="Helvetica,sans-Serif" font-size="10.00">::on_listGenericComponents</text>
<text text-anchor="middle" x="341" y="-60.5" font-family="Helvetica,sans-Serif" font-size="10.00">_currentItemChanged</text>
</a>
</g>
<!-- Node4&#45;&gt;Node5 -->
<g id="edge8" class="edge"><title>Node4&#45;&gt;Node5</title>
<path fill="none" stroke="midnightblue" d="M243.646,-59.5921C252.599,-61.101 261.666,-62.6291 270.479,-64.1145"/>
<polygon fill="midnightblue" stroke="midnightblue" points="244.049,-56.1106 233.606,-57.8999 242.885,-63.0132 244.049,-56.1106"/>
</g>
<!-- Node6 -->
<g id="node11" class="node"><title>Node6</title>
<a xlink:href="../../d1/d92/classproject_1_1_add_gen_comp_dialog.html#ae968bf4d25607bdad3eb848014d999da" target="_top" xlink:title="project::AddGenCompDialog\l::setSelectedCategory">
<polygon fill="white" stroke="black" points="270.5,-0 270.5,-34 411.5,-34 411.5,-0 270.5,-0"/>
<text text-anchor="start" x="278.5" y="-21" font-family="Helvetica,sans-Serif" font-size="10.00">project::AddGenCompDialog</text>
<text text-anchor="middle" x="341" y="-8" font-family="Helvetica,sans-Serif" font-size="10.00">::setSelectedCategory</text>
</a>
</g>
<!-- Node4&#45;&gt;Node6 -->
<g id="edge10" class="edge"><title>Node4&#45;&gt;Node6</title>
<path fill="none" stroke="midnightblue" d="M243.646,-32.861C252.599,-31.4024 261.666,-29.9252 270.479,-28.4893"/>
<polygon fill="midnightblue" stroke="midnightblue" points="242.913,-29.4342 233.606,-34.4968 244.039,-36.3431 242.913,-29.4342"/>
</g>
<!-- Node7 -->
<g id="node13" class="node"><title>Node7</title>
<a xlink:href="../../d1/d92/classproject_1_1_add_gen_comp_dialog.html#ab30df3fcf42614694068294b48161b00" target="_top" xlink:title="project::AddGenCompDialog\l::treeCategories_currentItemChanged">
<polygon fill="white" stroke="black" points="448,-0 448,-34 628,-34 628,-0 448,-0"/>
<text text-anchor="start" x="456" y="-21" font-family="Helvetica,sans-Serif" font-size="10.00">project::AddGenCompDialog</text>
<text text-anchor="middle" x="538" y="-8" font-family="Helvetica,sans-Serif" font-size="10.00">::treeCategories_currentItemChanged</text>
</a>
</g>
<!-- Node6&#45;&gt;Node7 -->
<g id="edge12" class="edge"><title>Node6&#45;&gt;Node7</title>
<path fill="none" stroke="midnightblue" d="M421.654,-17C430.338,-17 439.213,-17 447.998,-17"/>
<polygon fill="midnightblue" stroke="midnightblue" points="421.565,-13.5001 411.565,-17 421.565,-20.5001 421.565,-13.5001"/>
</g>
<!-- Node8 -->
<g id="node15" class="node"><title>Node8</title>
<a xlink:href="../../d1/d92/classproject_1_1_add_gen_comp_dialog.html#a158bc6ffa6ab14d062e57c57929a197f" target="_top" xlink:title="project::AddGenCompDialog\l::AddGenCompDialog">
<polygon fill="white" stroke="black" points="664.5,-0 664.5,-34 805.5,-34 805.5,-0 664.5,-0"/>
<text text-anchor="start" x="672.5" y="-21" font-family="Helvetica,sans-Serif" font-size="10.00">project::AddGenCompDialog</text>
<text text-anchor="middle" x="735" y="-8" font-family="Helvetica,sans-Serif" font-size="10.00">::AddGenCompDialog</text>
</a>
</g>
<!-- Node7&#45;&gt;Node8 -->
<g id="edge14" class="edge"><title>Node7&#45;&gt;Node8</title>
<path fill="none" stroke="midnightblue" d="M638.422,-17C647.187,-17 655.932,-17 664.378,-17"/>
<polygon fill="midnightblue" stroke="midnightblue" points="638.14,-13.5001 628.14,-17 638.14,-20.5001 638.14,-13.5001"/>
</g>
</g>
</svg>
