<?xml version="1.0" encoding="UTF-8" standalone="no"?>
<!DOCTYPE svg PUBLIC "-//W3C//DTD SVG 1.1//EN"
 "http://www.w3.org/Graphics/SVG/1.1/DTD/svg11.dtd">
<!-- Generated by graphviz version 2.26.3 (20100126.1600)
 -->
<!-- Title: updateCacheAndRepaint Pages: 1 -->
<svg width="628pt" height="920pt"
 viewBox="0.00 0.00 628.00 920.00" xmlns="http://www.w3.org/2000/svg" xmlns:xlink="http://www.w3.org/1999/xlink">
<g id="graph1" class="graph" transform="scale(1 1) rotate(0) translate(4 916)">
<title>updateCacheAndRepaint</title>
<polygon fill="white" stroke="white" points="-4,5 -4,-916 625,-916 625,5 -4,5"/>
<!-- Node1 -->
<g id="node1" class="node"><title>Node1</title>
<polygon fill="#bfbfbf" stroke="black" points="0.5,-400.5 0.5,-421.5 125.5,-421.5 125.5,-400.5 0.5,-400.5"/>
<text text-anchor="middle" x="63" y="-408.5" font-family="Helvetica,sans-Serif" font-size="10.00">updateCacheAndRepaint</text>
</g>
<!-- Node2 -->
<g id="node3" class="node"><title>Node2</title>
<a xlink:href="../../d9/db9/classlibrary_1_1_symbol.html#aa8dd7ebe32db86a2f2124e341482d48c" target="_top" xlink:title="library::Symbol::getPolygons">
<polygon fill="white" stroke="black" points="170,-830.5 170,-851.5 312,-851.5 312,-830.5 170,-830.5"/>
<text text-anchor="middle" x="241" y="-838.5" font-family="Helvetica,sans-Serif" font-size="10.00">library::Symbol::getPolygons</text>
</a>
</g>
<!-- Node1&#45;&gt;Node2 -->
<g id="edge2" class="edge"><title>Node1&#45;&gt;Node2</title>
<path fill="none" stroke="midnightblue" d="M64.1821,-421.545C70.8392,-479.157 105.384,-755.474 162,-816 165.533,-819.777 169.632,-822.987 174.068,-825.713"/>
<polygon fill="midnightblue" stroke="midnightblue" points="172.474,-828.829 182.955,-830.383 175.731,-822.633 172.474,-828.829"/>
</g>
<!-- Node3 -->
<g id="node5" class="node"><title>Node3</title>
<a xlink:href="../../d1/d7f/classlibrary_1_1_symbol_polygon.html#a0c155e27c8e6d8f1cd3a8443b7bad250" target="_top" xlink:title="library::SymbolPolygon\l::toQPainterPathPx">
<polygon fill="white" stroke="black" points="182.5,-740 182.5,-774 299.5,-774 299.5,-740 182.5,-740"/>
<text text-anchor="start" x="190.5" y="-761" font-family="Helvetica,sans-Serif" font-size="10.00">library::SymbolPolygon</text>
<text text-anchor="middle" x="241" y="-748" font-family="Helvetica,sans-Serif" font-size="10.00">::toQPainterPathPx</text>
</a>
</g>
<!-- Node1&#45;&gt;Node3 -->
<g id="edge4" class="edge"><title>Node1&#45;&gt;Node3</title>
<path fill="none" stroke="midnightblue" d="M64.6234,-421.629C71.0181,-460.803 97.3561,-599.612 162,-692 173.427,-708.331 190.016,-722.834 205.045,-733.974"/>
<polygon fill="midnightblue" stroke="midnightblue" points="203.024,-736.831 213.192,-739.807 207.099,-731.14 203.024,-736.831"/>
</g>
<!-- Node4 -->
<g id="node7" class="node"><title>Node4</title>
<a xlink:href="../../d0/d69/class_point.html#a3fb0d1120536f2a889eac1e5e88b9ac5" target="_top" xlink:title="Get the point as a QPointF object in pixels (for QGraphics* objects) ">
<polygon fill="white" stroke="black" points="383.5,-890.5 383.5,-911.5 484.5,-911.5 484.5,-890.5 383.5,-890.5"/>
<text text-anchor="middle" x="434" y="-898.5" font-family="Helvetica,sans-Serif" font-size="10.00">Point::toPxQPointF</text>
</a>
</g>
<!-- Node1&#45;&gt;Node4 -->
<g id="edge52" class="edge"><title>Node1&#45;&gt;Node4</title>
<path fill="none" stroke="midnightblue" d="M64.3852,-421.831C71.7039,-477.394 107.602,-729.896 162,-783 213.682,-833.452 261.777,-778.263 320,-821 345.07,-839.402 331.069,-862.411 356,-881 361.222,-884.894 367.127,-888.032 373.293,-890.562"/>
<polygon fill="midnightblue" stroke="midnightblue" points="372.543,-894.01 383.138,-894.057 374.885,-887.413 372.543,-894.01"/>
</g>
<!-- Node5 -->
<g id="node9" class="node"><title>Node5</title>
<a xlink:href="../../df/df0/class_length.html#abf9a817a583f3939aea7bffdeeb7b235" target="_top" xlink:title="Get the length in pixels (for QGraphics* objects) ">
<polygon fill="white" stroke="black" points="548,-778.5 548,-799.5 620,-799.5 620,-778.5 548,-778.5"/>
<text text-anchor="middle" x="584" y="-786.5" font-family="Helvetica,sans-Serif" font-size="10.00">Length::toPx</text>
</a>
</g>
<!-- Node1&#45;&gt;Node5 -->
<g id="edge20" class="edge"><title>Node1&#45;&gt;Node5</title>
<path fill="none" stroke="midnightblue" d="M63.5765,-421.73C66.3164,-461.013 81.5185,-597.873 162,-659 286.604,-753.639 375.248,-620.964 512,-697 541.668,-713.496 563.318,-747.746 574.753,-769.484"/>
<polygon fill="midnightblue" stroke="midnightblue" points="571.66,-771.123 579.281,-778.483 577.913,-767.977 571.66,-771.123"/>
</g>
<!-- Node10 -->
<g id="node19" class="node"><title>Node10</title>
<a xlink:href="../../d1/d7f/classlibrary_1_1_symbol_polygon.html#a69af915a70be9a59f27a36ef42fe7606" target="_top" xlink:title="library::SymbolPolygon\l::getWidth">
<polygon fill="white" stroke="black" points="182.5,-616 182.5,-650 299.5,-650 299.5,-616 182.5,-616"/>
<text text-anchor="start" x="190.5" y="-637" font-family="Helvetica,sans-Serif" font-size="10.00">library::SymbolPolygon</text>
<text text-anchor="middle" x="241" y="-624" font-family="Helvetica,sans-Serif" font-size="10.00">::getWidth</text>
</a>
</g>
<!-- Node1&#45;&gt;Node10 -->
<g id="edge18" class="edge"><title>Node1&#45;&gt;Node10</title>
<path fill="none" stroke="midnightblue" d="M65.339,-421.708C73.0475,-454.465 100.737,-554.288 162,-607 165.417,-609.94 169.175,-612.55 173.141,-614.866"/>
<polygon fill="midnightblue" stroke="midnightblue" points="171.609,-618.014 182.102,-619.481 174.815,-611.791 171.609,-618.014"/>
</g>
<!-- Node11 -->
<g id="node22" class="node"><title>Node11</title>
<a xlink:href="../../d1/d7f/classlibrary_1_1_symbol_polygon.html#afb5593c9c44f491b400edfa695fea7dc" target="_top" xlink:title="library::SymbolPolygon\l::isGrabArea">
<polygon fill="white" stroke="black" points="182.5,-564 182.5,-598 299.5,-598 299.5,-564 182.5,-564"/>
<text text-anchor="start" x="190.5" y="-585" font-family="Helvetica,sans-Serif" font-size="10.00">library::SymbolPolygon</text>
<text text-anchor="middle" x="241" y="-572" font-family="Helvetica,sans-Serif" font-size="10.00">::isGrabArea</text>
</a>
</g>
<!-- Node1&#45;&gt;Node11 -->
<g id="edge22" class="edge"><title>Node1&#45;&gt;Node11</title>
<path fill="none" stroke="midnightblue" d="M67.4649,-421.816C79.0157,-448.478 112.478,-517.879 162,-555 165.444,-557.582 169.158,-559.915 173.031,-562.022"/>
<polygon fill="midnightblue" stroke="midnightblue" points="171.784,-565.308 182.307,-566.54 174.85,-559.015 171.784,-565.308"/>
</g>
<!-- Node12 -->
<g id="node24" class="node"><title>Node12</title>
<a xlink:href="../../d9/db9/classlibrary_1_1_symbol.html#af3e51c69f130dab1acd01d41105c4ea3" target="_top" xlink:title="library::Symbol::getTexts">
<polygon fill="white" stroke="black" points="178,-524.5 178,-545.5 304,-545.5 304,-524.5 178,-524.5"/>
<text text-anchor="middle" x="241" y="-532.5" font-family="Helvetica,sans-Serif" font-size="10.00">library::Symbol::getTexts</text>
</a>
</g>
<!-- Node1&#45;&gt;Node12 -->
<g id="edge24" class="edge"><title>Node1&#45;&gt;Node12</title>
<path fill="none" stroke="midnightblue" d="M70.0361,-421.722C84.5593,-442.967 120.034,-490.468 162,-515 165.71,-517.169 169.652,-519.104 173.718,-520.832"/>
<polygon fill="midnightblue" stroke="midnightblue" points="172.791,-524.223 183.382,-524.496 175.273,-517.678 172.791,-524.223"/>
</g>
<!-- Node13 -->
<g id="node26" class="node"><title>Node13</title>
<a xlink:href="../../db/df7/classlibrary_1_1_symbol_text.html#ab42d5f674bbe33d8d5a601bedfd7921e" target="_top" xlink:title="library::SymbolText\l::getText">
<polygon fill="white" stroke="black" points="190.5,-472 190.5,-506 291.5,-506 291.5,-472 190.5,-472"/>
<text text-anchor="start" x="198.5" y="-493" font-family="Helvetica,sans-Serif" font-size="10.00">library::SymbolText</text>
<text text-anchor="middle" x="241" y="-480" font-family="Helvetica,sans-Serif" font-size="10.00">::getText</text>
</a>
</g>
<!-- Node1&#45;&gt;Node13 -->
<g id="edge26" class="edge"><title>Node1&#45;&gt;Node13</title>
<path fill="none" stroke="midnightblue" d="M80.8093,-421.507C100.299,-432.731 132.684,-450.578 162,-463 168.074,-465.574 174.496,-468.057 180.949,-470.4"/>
<polygon fill="midnightblue" stroke="midnightblue" points="179.793,-473.703 190.387,-473.727 182.119,-467.101 179.793,-473.703"/>
</g>
<!-- Node14 -->
<g id="node28" class="node"><title>Node14</title>
<a xlink:href="../../d9/d41/class_i_f___attribute_provider.html#a64e9824168a64622ace994d0ce6dd8ba" target="_top" xlink:title="Replace all variables in a text with their attribute values. ">
<polygon fill="white" stroke="black" points="162.5,-420 162.5,-454 319.5,-454 319.5,-420 162.5,-420"/>
<text text-anchor="start" x="170.5" y="-441" font-family="Helvetica,sans-Serif" font-size="10.00">IF_AttributeProvider</text>
<text text-anchor="middle" x="241" y="-428" font-family="Helvetica,sans-Serif" font-size="10.00">::replaceVariablesWithAttributes</text>
</a>
</g>
<!-- Node1&#45;&gt;Node14 -->
<g id="edge28" class="edge"><title>Node1&#45;&gt;Node14</title>
<path fill="none" stroke="midnightblue" d="M125.506,-420.13C134.167,-421.395 143.196,-422.714 152.223,-424.033"/>
<polygon fill="midnightblue" stroke="midnightblue" points="151.992,-427.536 162.393,-425.518 153.004,-420.609 151.992,-427.536"/>
</g>
<!-- Node15 -->
<g id="node30" class="node"><title>Node15</title>
<a xlink:href="../../db/df7/classlibrary_1_1_symbol_text.html#a0956fb9eaa66799447596d95c6f1e46d" target="_top" xlink:title="library::SymbolText\l::getHeight">
<polygon fill="white" stroke="black" points="190.5,-368 190.5,-402 291.5,-402 291.5,-368 190.5,-368"/>
<text text-anchor="start" x="198.5" y="-389" font-family="Helvetica,sans-Serif" font-size="10.00">library::SymbolText</text>
<text text-anchor="middle" x="241" y="-376" font-family="Helvetica,sans-Serif" font-size="10.00">::getHeight</text>
</a>
</g>
<!-- Node1&#45;&gt;Node15 -->
<g id="edge30" class="edge"><title>Node1&#45;&gt;Node15</title>
<path fill="none" stroke="midnightblue" d="M125.506,-401.87C143.259,-399.277 162.559,-396.458 180.208,-393.88"/>
<polygon fill="midnightblue" stroke="midnightblue" points="180.996,-397.302 190.385,-392.393 179.984,-390.375 180.996,-397.302"/>
</g>
<!-- Node16 -->
<g id="node32" class="node"><title>Node16</title>
<a xlink:href="../../db/df7/classlibrary_1_1_symbol_text.html#a8c33abf636eed65eeeccb22558ba0880" target="_top" xlink:title="library::SymbolText\l::getAlign">
<polygon fill="white" stroke="black" points="190.5,-316 190.5,-350 291.5,-350 291.5,-316 190.5,-316"/>
<text text-anchor="start" x="198.5" y="-337" font-family="Helvetica,sans-Serif" font-size="10.00">library::SymbolText</text>
<text text-anchor="middle" x="241" y="-324" font-family="Helvetica,sans-Serif" font-size="10.00">::getAlign</text>
</a>
</g>
<!-- Node1&#45;&gt;Node16 -->
<g id="edge32" class="edge"><title>Node1&#45;&gt;Node16</title>
<path fill="none" stroke="midnightblue" d="M80.8093,-400.493C100.299,-389.269 132.684,-371.422 162,-359 168.074,-356.426 174.496,-353.943 180.949,-351.6"/>
<polygon fill="midnightblue" stroke="midnightblue" points="182.119,-354.899 190.387,-348.273 179.793,-348.297 182.119,-354.899"/>
</g>
<!-- Node17 -->
<g id="node34" class="node"><title>Node17</title>
<a xlink:href="../../df/de9/class_alignment.html#a4fbb4767912b1fed45bc601018994247" target="_top" xlink:title="Alignment::toQtAlign">
<polygon fill="white" stroke="black" points="187.5,-276.5 187.5,-297.5 294.5,-297.5 294.5,-276.5 187.5,-276.5"/>
<text text-anchor="middle" x="241" y="-284.5" font-family="Helvetica,sans-Serif" font-size="10.00">Alignment::toQtAlign</text>
</a>
</g>
<!-- Node1&#45;&gt;Node17 -->
<g id="edge34" class="edge"><title>Node1&#45;&gt;Node17</title>
<path fill="none" stroke="midnightblue" d="M70.0361,-400.278C84.5593,-379.033 120.034,-331.532 162,-307 166.809,-304.189 172.008,-301.769 177.363,-299.687"/>
<polygon fill="midnightblue" stroke="midnightblue" points="178.825,-302.884 187.119,-296.293 176.524,-296.273 178.825,-302.884"/>
</g>
<!-- Node20 -->
<g id="node40" class="node"><title>Node20</title>
<a xlink:href="../../db/df7/classlibrary_1_1_symbol_text.html#a894842161e505b56d67b0cf5b0f50087" target="_top" xlink:title="library::SymbolText\l::getAngle">
<polygon fill="white" stroke="black" points="190.5,-224 190.5,-258 291.5,-258 291.5,-224 190.5,-224"/>
<text text-anchor="start" x="198.5" y="-245" font-family="Helvetica,sans-Serif" font-size="10.00">library::SymbolText</text>
<text text-anchor="middle" x="241" y="-232" font-family="Helvetica,sans-Serif" font-size="10.00">::getAngle</text>
</a>
</g>
<!-- Node1&#45;&gt;Node20 -->
<g id="edge40" class="edge"><title>Node1&#45;&gt;Node20</title>
<path fill="none" stroke="midnightblue" d="M67.4649,-400.184C79.0157,-373.522 112.478,-304.121 162,-267 167.589,-262.811 173.887,-259.276 180.426,-256.299"/>
<polygon fill="midnightblue" stroke="midnightblue" points="182.199,-259.355 190.124,-252.323 179.544,-252.878 182.199,-259.355"/>
</g>
<!-- Node21 -->
<g id="node42" class="node"><title>Node21</title>
<a xlink:href="../../de/d50/classproject_1_1_s_i___symbol.html#a894842161e505b56d67b0cf5b0f50087" target="_top" xlink:title="project::SI_Symbol\l::getAngle">
<polygon fill="white" stroke="black" points="191,-172 191,-206 291,-206 291,-172 191,-172"/>
<text text-anchor="start" x="199" y="-193" font-family="Helvetica,sans-Serif" font-size="10.00">project::SI_Symbol</text>
<text text-anchor="middle" x="241" y="-180" font-family="Helvetica,sans-Serif" font-size="10.00">::getAngle</text>
</a>
</g>
<!-- Node1&#45;&gt;Node21 -->
<g id="edge42" class="edge"><title>Node1&#45;&gt;Node21</title>
<path fill="none" stroke="midnightblue" d="M65.339,-400.292C73.0475,-367.535 100.737,-267.712 162,-215 167.644,-210.144 174.219,-206.19 181.121,-202.97"/>
<polygon fill="midnightblue" stroke="midnightblue" points="182.774,-206.074 190.68,-199.02 180.101,-199.605 182.774,-206.074"/>
</g>
<!-- Node22 -->
<g id="node44" class="node"><title>Node22</title>
<a xlink:href="../../d2/d39/class_angle.html#a74e05120ac11f78df41f0a0304990f9f" target="_top" xlink:title="Map this Angle object to [&#45;180..+180[ degrees. ">
<polygon fill="white" stroke="black" points="186.5,-132.5 186.5,-153.5 295.5,-153.5 295.5,-132.5 186.5,-132.5"/>
<text text-anchor="middle" x="241" y="-140.5" font-family="Helvetica,sans-Serif" font-size="10.00">Angle::mapTo180deg</text>
</a>
</g>
<!-- Node1&#45;&gt;Node22 -->
<g id="edge44" class="edge"><title>Node1&#45;&gt;Node22</title>
<path fill="none" stroke="midnightblue" d="M63.8979,-400.368C67.7267,-362.001 86.159,-229.447 162,-163 166.431,-159.118 171.511,-155.969 176.911,-153.419"/>
<polygon fill="midnightblue" stroke="midnightblue" points="178.271,-156.644 186.244,-149.666 175.66,-150.149 178.271,-156.644"/>
</g>
<!-- Node23 -->
<g id="node46" class="node"><title>Node23</title>
<a xlink:href="../../d2/d39/class_angle.html#a7f29e0cf68871bab5b01569d78de4504" target="_top" xlink:title="90 degrees ">
<polygon fill="white" stroke="black" points="204,-92.5 204,-113.5 278,-113.5 278,-92.5 204,-92.5"/>
<text text-anchor="middle" x="241" y="-100.5" font-family="Helvetica,sans-Serif" font-size="10.00">Angle::deg90</text>
</a>
</g>
<!-- Node1&#45;&gt;Node23 -->
<g id="edge46" class="edge"><title>Node1&#45;&gt;Node23</title>
<path fill="none" stroke="midnightblue" d="M65.2794,-400.188C75.5016,-352.675 118.521,-163.006 162,-123 170.777,-114.924 182.341,-109.998 193.904,-107.023"/>
<polygon fill="midnightblue" stroke="midnightblue" points="194.94,-110.381 203.995,-104.881 193.486,-103.534 194.94,-110.381"/>
</g>
<!-- Node25 -->
<g id="node50" class="node"><title>Node25</title>
<a xlink:href="../../db/df7/classlibrary_1_1_symbol_text.html#ae23dd3ab799e9f70a4037eea91f69a82" target="_top" xlink:title="library::SymbolText\l::getPosition">
<polygon fill="white" stroke="black" points="190.5,-40 190.5,-74 291.5,-74 291.5,-40 190.5,-40"/>
<text text-anchor="start" x="198.5" y="-61" font-family="Helvetica,sans-Serif" font-size="10.00">library::SymbolText</text>
<text text-anchor="middle" x="241" y="-48" font-family="Helvetica,sans-Serif" font-size="10.00">::getPosition</text>
</a>
</g>
<!-- Node1&#45;&gt;Node25 -->
<g id="edge50" class="edge"><title>Node1&#45;&gt;Node25</title>
<path fill="none" stroke="midnightblue" d="M64.8867,-400.186C74.0257,-348.939 115.169,-131.007 162,-83 167.268,-77.5996 173.677,-73.3205 180.541,-69.93"/>
<polygon fill="midnightblue" stroke="midnightblue" points="182.299,-72.9847 190.119,-65.8356 179.548,-66.5481 182.299,-72.9847"/>
</g>
<!-- Node26 -->
<g id="node53" class="node"><title>Node26</title>
<a xlink:href="../../df/de9/class_alignment.html#a5e73aa1977269073f3ce5f2af38443a0" target="_top" xlink:title="Alignment::mirrored">
<polygon fill="white" stroke="black" points="190.5,-0.5 190.5,-21.5 291.5,-21.5 291.5,-0.5 190.5,-0.5"/>
<text text-anchor="middle" x="241" y="-8.5" font-family="Helvetica,sans-Serif" font-size="10.00">Alignment::mirrored</text>
</a>
</g>
<!-- Node1&#45;&gt;Node26 -->
<g id="edge54" class="edge"><title>Node1&#45;&gt;Node26</title>
<path fill="none" stroke="midnightblue" d="M64.3148,-400.322C71.409,-344.401 106.855,-85.7654 162,-31 167.314,-25.7224 173.809,-21.7722 180.768,-18.8262"/>
<polygon fill="midnightblue" stroke="midnightblue" points="182.213,-22.028 190.479,-15.401 179.884,-15.4266 182.213,-22.028"/>
</g>
<!-- Node3&#45;&gt;Node4 -->
<g id="edge6" class="edge"><title>Node3&#45;&gt;Node4</title>
<path fill="none" stroke="midnightblue" d="M299.655,-773.492C307.125,-777.38 314.179,-782.152 320,-788 351.268,-819.413 322.861,-851.568 356,-881 361.127,-885.553 367.152,-889.096 373.543,-891.848"/>
<polygon fill="midnightblue" stroke="midnightblue" points="372.514,-895.198 383.107,-895.34 374.915,-888.623 372.514,-895.198"/>
</g>
<!-- Node6 -->
<g id="node11" class="node"><title>Node6</title>
<a xlink:href="../../d9/d94/classlibrary_1_1_symbol_polygon_segment.html#a894842161e505b56d67b0cf5b0f50087" target="_top" xlink:title="library::SymbolPolygonSegment\l::getAngle">
<polygon fill="white" stroke="black" points="356,-838 356,-872 512,-872 512,-838 356,-838"/>
<text text-anchor="start" x="364" y="-859" font-family="Helvetica,sans-Serif" font-size="10.00">library::SymbolPolygonSegment</text>
<text text-anchor="middle" x="434" y="-846" font-family="Helvetica,sans-Serif" font-size="10.00">::getAngle</text>
</a>
</g>
<!-- Node3&#45;&gt;Node6 -->
<g id="edge10" class="edge"><title>Node3&#45;&gt;Node6</title>
<path fill="none" stroke="midnightblue" d="M294.633,-774.013C303.486,-777.936 312.283,-782.582 320,-788 339.847,-801.933 335.796,-815.589 356,-829 358.263,-830.502 360.621,-831.925 363.047,-833.272"/>
<polygon fill="midnightblue" stroke="midnightblue" points="361.575,-836.449 372.081,-837.82 364.723,-830.197 361.575,-836.449"/>
</g>
<!-- Node7 -->
<g id="node13" class="node"><title>Node7</title>
<a xlink:href="../../d9/d94/classlibrary_1_1_symbol_polygon_segment.html#af89771a9eb5882eaee9f298f663f89dc" target="_top" xlink:title="library::SymbolPolygonSegment\l::getEndPos">
<polygon fill="white" stroke="black" points="356,-786 356,-820 512,-820 512,-786 356,-786"/>
<text text-anchor="start" x="364" y="-807" font-family="Helvetica,sans-Serif" font-size="10.00">library::SymbolPolygonSegment</text>
<text text-anchor="middle" x="434" y="-794" font-family="Helvetica,sans-Serif" font-size="10.00">::getEndPos</text>
</a>
</g>
<!-- Node3&#45;&gt;Node7 -->
<g id="edge12" class="edge"><title>Node3&#45;&gt;Node7</title>
<path fill="none" stroke="midnightblue" d="M299.692,-770.989C316.442,-774.981 334.997,-779.403 352.834,-783.655"/>
<polygon fill="midnightblue" stroke="midnightblue" points="352.115,-787.081 362.654,-785.995 353.738,-780.272 352.115,-787.081"/>
</g>
<!-- Node8 -->
<g id="node15" class="node"><title>Node8</title>
<a xlink:href="../../d2/d39/class_angle.html#a70d223e0c1188606f971188d6f23b66f" target="_top" xlink:title="Get the angle in radians. ">
<polygon fill="white" stroke="black" points="397,-746.5 397,-767.5 471,-767.5 471,-746.5 397,-746.5"/>
<text text-anchor="middle" x="434" y="-754.5" font-family="Helvetica,sans-Serif" font-size="10.00">Angle::toRad</text>
</a>
</g>
<!-- Node3&#45;&gt;Node8 -->
<g id="edge14" class="edge"><title>Node3&#45;&gt;Node8</title>
<path fill="none" stroke="midnightblue" d="M299.692,-757C327.595,-757 360.508,-757 386.768,-757"/>
<polygon fill="midnightblue" stroke="midnightblue" points="386.847,-760.5 396.847,-757 386.847,-753.5 386.847,-760.5"/>
</g>
<!-- Node9 -->
<g id="node17" class="node"><title>Node9</title>
<a xlink:href="../../d2/d39/class_angle.html#ad2926beabd4d66cc5bc1ac4c622540ea" target="_top" xlink:title="Get the Angle in degrees. ">
<polygon fill="white" stroke="black" points="397,-706.5 397,-727.5 471,-727.5 471,-706.5 397,-706.5"/>
<text text-anchor="middle" x="434" y="-714.5" font-family="Helvetica,sans-Serif" font-size="10.00">Angle::toDeg</text>
</a>
</g>
<!-- Node3&#45;&gt;Node9 -->
<g id="edge16" class="edge"><title>Node3&#45;&gt;Node9</title>
<path fill="none" stroke="midnightblue" d="M299.692,-744.836C327.595,-739.053 360.508,-732.232 386.768,-726.789"/>
<polygon fill="midnightblue" stroke="midnightblue" points="387.765,-730.157 396.847,-724.7 386.345,-723.302 387.765,-730.157"/>
</g>
<!-- Node4&#45;&gt;Node5 -->
<g id="edge8" class="edge"><title>Node4&#45;&gt;Node5</title>
<path fill="none" stroke="midnightblue" d="M484.721,-893.147C494.265,-890.275 503.809,-886.354 512,-881 539.994,-862.704 561.796,-829.81 573.769,-808.713"/>
<polygon fill="midnightblue" stroke="midnightblue" points="576.98,-810.136 578.704,-799.682 570.837,-806.78 576.98,-810.136"/>
</g>
<!-- Node18 -->
<g id="node36" class="node"><title>Node18</title>
<a xlink:href="../../d7/d39/class_h_align.html#a5947e6026a6c38886e5598e032fa7317" target="_top" xlink:title="HAlign::toQtAlignFlag">
<polygon fill="white" stroke="black" points="378.5,-296.5 378.5,-317.5 489.5,-317.5 489.5,-296.5 378.5,-296.5"/>
<text text-anchor="middle" x="434" y="-304.5" font-family="Helvetica,sans-Serif" font-size="10.00">HAlign::toQtAlignFlag</text>
</a>
</g>
<!-- Node17&#45;&gt;Node18 -->
<g id="edge36" class="edge"><title>Node17&#45;&gt;Node18</title>
<path fill="none" stroke="midnightblue" d="M294.505,-292.545C317.346,-294.912 344.227,-297.697 368.264,-300.188"/>
<polygon fill="midnightblue" stroke="midnightblue" points="368.064,-303.686 378.372,-301.235 368.786,-296.723 368.064,-303.686"/>
</g>
<!-- Node19 -->
<g id="node38" class="node"><title>Node19</title>
<a xlink:href="../../d9/dbc/class_v_align.html#a5947e6026a6c38886e5598e032fa7317" target="_top" xlink:title="VAlign::toQtAlignFlag">
<polygon fill="white" stroke="black" points="379,-256.5 379,-277.5 489,-277.5 489,-256.5 379,-256.5"/>
<text text-anchor="middle" x="434" y="-264.5" font-family="Helvetica,sans-Serif" font-size="10.00">VAlign::toQtAlignFlag</text>
</a>
</g>
<!-- Node17&#45;&gt;Node19 -->
<g id="edge38" class="edge"><title>Node17&#45;&gt;Node19</title>
<path fill="none" stroke="midnightblue" d="M294.505,-281.455C317.444,-279.078 344.457,-276.279 368.572,-273.78"/>
<polygon fill="midnightblue" stroke="midnightblue" points="369.124,-277.242 378.71,-272.73 368.402,-270.279 369.124,-277.242"/>
</g>
<!-- Node24 -->
<g id="node48" class="node"><title>Node24</title>
<a xlink:href="../../d2/d39/class_angle.html#ae0cfbf0d84fd0eab0f9dfc1b365b8667" target="_top" xlink:title="Default Constructor. ">
<polygon fill="white" stroke="black" points="398,-92.5 398,-113.5 470,-113.5 470,-92.5 398,-92.5"/>
<text text-anchor="middle" x="434" y="-100.5" font-family="Helvetica,sans-Serif" font-size="10.00">Angle::Angle</text>
</a>
</g>
<!-- Node23&#45;&gt;Node24 -->
<g id="edge48" class="edge"><title>Node23&#45;&gt;Node24</title>
<path fill="none" stroke="midnightblue" d="M278.212,-103C309.482,-103 354.312,-103 387.86,-103"/>
<polygon fill="midnightblue" stroke="midnightblue" points="387.882,-106.5 397.882,-103 387.882,-99.5001 387.882,-106.5"/>
</g>
<!-- Node27 -->
<g id="node55" class="node"><title>Node27</title>
<a xlink:href="../../df/de9/class_alignment.html#ac2a03de30f0ea7f185b8ae3625c8b076" target="_top" xlink:title="Alignment::Alignment">
<polygon fill="white" stroke="black" points="379,-0.5 379,-21.5 489,-21.5 489,-0.5 379,-0.5"/>
<text text-anchor="middle" x="434" y="-8.5" font-family="Helvetica,sans-Serif" font-size="10.00">Alignment::Alignment</text>
</a>
</g>
<!-- Node26&#45;&gt;Node27 -->
<g id="edge56" class="edge"><title>Node26&#45;&gt;Node27</title>
<path fill="none" stroke="midnightblue" d="M291.708,-11C315.267,-11 343.566,-11 368.7,-11"/>
<polygon fill="midnightblue" stroke="midnightblue" points="368.888,-14.5001 378.888,-11 368.888,-7.5001 368.888,-14.5001"/>
</g>
</g>
</svg>
