<?xml version="1.0" encoding="UTF-8" standalone="no"?>
<!DOCTYPE svg PUBLIC "-//W3C//DTD SVG 1.1//EN"
 "http://www.w3.org/Graphics/SVG/1.1/DTD/svg11.dtd">
<!-- Generated by graphviz version 2.26.3 (20100126.1600)
 -->
<!-- Title: removeNetClass Pages: 1 -->
<svg width="286pt" height="238pt"
 viewBox="0.00 0.00 286.00 238.00" xmlns="http://www.w3.org/2000/svg" xmlns:xlink="http://www.w3.org/1999/xlink">
<g id="graph1" class="graph" transform="scale(1 1) rotate(0) translate(4 234)">
<title>removeNetClass</title>
<polygon fill="white" stroke="white" points="-4,5 -4,-234 283,-234 283,5 -4,5"/>
<!-- Node1 -->
<g id="node1" class="node"><title>Node1</title>
<polygon fill="#bfbfbf" stroke="black" points="0,-110.5 0,-131.5 90,-131.5 90,-110.5 0,-110.5"/>
<text text-anchor="middle" x="45" y="-118.5" font-family="Helvetica,sans-Serif" font-size="10.00">removeNetClass</text>
</g>
<!-- Node2 -->
<g id="node3" class="node"><title>Node2</title>
<a xlink:href="../../d1/d03/classproject_1_1_circuit.html#a226cc7570bf533c9946775c2fc5b361e" target="_top" xlink:title="~Circuit">
<polygon fill="white" stroke="black" points="176.5,-208.5 176.5,-229.5 227.5,-229.5 227.5,-208.5 176.5,-208.5"/>
<text text-anchor="middle" x="202" y="-216.5" font-family="Helvetica,sans-Serif" font-size="10.00">~Circuit</text>
</a>
</g>
<!-- Node1&#45;&gt;Node2 -->
<g id="edge2" class="edge"><title>Node1&#45;&gt;Node2</title>
<path fill="none" stroke="midnightblue" d="M59.4235,-139.565C74.251,-157.393 98.9412,-183.796 126,-199 141.582,-207.755 161.118,-212.787 176.481,-215.614"/>
<polygon fill="midnightblue" stroke="midnightblue" points="61.9806,-137.161 52.9697,-131.589 56.5388,-141.564 61.9806,-137.161"/>
</g>
<!-- Node3 -->
<g id="node5" class="node"><title>Node3</title>
<a xlink:href="../../d9/d07/classproject_1_1_cmd_net_class_add.html#a91ca7652063093da57fc1bd0141dcc95" target="_top" xlink:title="Redo/execute the command (and all child commands in normal order) ">
<polygon fill="white" stroke="black" points="136.5,-156 136.5,-190 267.5,-190 267.5,-156 136.5,-156"/>
<text text-anchor="start" x="144.5" y="-177" font-family="Helvetica,sans-Serif" font-size="10.00">project::CmdNetClassAdd</text>
<text text-anchor="middle" x="202" y="-164" font-family="Helvetica,sans-Serif" font-size="10.00">::redo</text>
</a>
</g>
<!-- Node1&#45;&gt;Node3 -->
<g id="edge4" class="edge"><title>Node1&#45;&gt;Node3</title>
<path fill="none" stroke="midnightblue" d="M86.3524,-134.696C106.003,-141.205 129.691,-149.051 150.497,-155.942"/>
<polygon fill="midnightblue" stroke="midnightblue" points="87.3646,-131.345 76.7713,-131.523 85.1637,-137.99 87.3646,-131.345"/>
</g>
<!-- Node4 -->
<g id="node7" class="node"><title>Node4</title>
<a xlink:href="../../d9/d07/classproject_1_1_cmd_net_class_add.html#a19e8778088bfe76b16745470981bb913" target="_top" xlink:title="Undo the command (and all child commands in reverse order) ">
<polygon fill="white" stroke="black" points="136.5,-104 136.5,-138 267.5,-138 267.5,-104 136.5,-104"/>
<text text-anchor="start" x="144.5" y="-125" font-family="Helvetica,sans-Serif" font-size="10.00">project::CmdNetClassAdd</text>
<text text-anchor="middle" x="202" y="-112" font-family="Helvetica,sans-Serif" font-size="10.00">::undo</text>
</a>
</g>
<!-- Node1&#45;&gt;Node4 -->
<g id="edge6" class="edge"><title>Node1&#45;&gt;Node4</title>
<path fill="none" stroke="midnightblue" d="M100.736,-121C112.232,-121 124.44,-121 136.253,-121"/>
<polygon fill="midnightblue" stroke="midnightblue" points="100.411,-117.5 90.4109,-121 100.411,-124.5 100.411,-117.5"/>
</g>
<!-- Node5 -->
<g id="node9" class="node"><title>Node5</title>
<a xlink:href="../../d9/d68/classproject_1_1_cmd_net_class_remove.html#a91ca7652063093da57fc1bd0141dcc95" target="_top" xlink:title="Redo/execute the command (and all child commands in normal order) ">
<polygon fill="white" stroke="black" points="126.5,-52 126.5,-86 277.5,-86 277.5,-52 126.5,-52"/>
<text text-anchor="start" x="134.5" y="-73" font-family="Helvetica,sans-Serif" font-size="10.00">project::CmdNetClassRemove</text>
<text text-anchor="middle" x="202" y="-60" font-family="Helvetica,sans-Serif" font-size="10.00">::redo</text>
</a>
</g>
<!-- Node1&#45;&gt;Node5 -->
<g id="edge8" class="edge"><title>Node1&#45;&gt;Node5</title>
<path fill="none" stroke="midnightblue" d="M86.3524,-107.304C106.003,-100.795 129.691,-92.9495 150.497,-86.0582"/>
<polygon fill="midnightblue" stroke="midnightblue" points="85.1637,-104.01 76.7713,-110.477 87.3646,-110.655 85.1637,-104.01"/>
</g>
<!-- Node6 -->
<g id="node11" class="node"><title>Node6</title>
<a xlink:href="../../d9/d68/classproject_1_1_cmd_net_class_remove.html#a19e8778088bfe76b16745470981bb913" target="_top" xlink:title="Undo the command (and all child commands in reverse order) ">
<polygon fill="white" stroke="black" points="126.5,-0 126.5,-34 277.5,-34 277.5,-0 126.5,-0"/>
<text text-anchor="start" x="134.5" y="-21" font-family="Helvetica,sans-Serif" font-size="10.00">project::CmdNetClassRemove</text>
<text text-anchor="middle" x="202" y="-8" font-family="Helvetica,sans-Serif" font-size="10.00">::undo</text>
</a>
</g>
<!-- Node1&#45;&gt;Node6 -->
<g id="edge10" class="edge"><title>Node1&#45;&gt;Node6</title>
<path fill="none" stroke="midnightblue" d="M59.9122,-102.567C74.9493,-85.058 99.6516,-59.0848 126,-43 131.475,-39.6576 137.437,-36.6769 143.533,-34.0358"/>
<polygon fill="midnightblue" stroke="midnightblue" points="57.0855,-100.491 53.3419,-110.402 62.4493,-104.989 57.0855,-100.491"/>
</g>
</g>
</svg>
