<?xml version="1.0" encoding="UTF-8" standalone="no"?>
<!DOCTYPE svg PUBLIC "-//W3C//DTD SVG 1.1//EN"
 "http://www.w3.org/Graphics/SVG/1.1/DTD/svg11.dtd">
<!-- Generated by graphviz version 2.26.3 (20100126.1600)
 -->
<!-- Title: /home/travis/build/LibrePCB/LibrePCB/libs/librepcbproject/circuit/gencompinstance.h Pages: 1 -->
<svg width="3752pt" height="180pt"
 viewBox="0.00 0.00 3752.00 180.00" xmlns="http://www.w3.org/2000/svg" xmlns:xlink="http://www.w3.org/1999/xlink">
<g id="graph1" class="graph" transform="scale(1 1) rotate(0) translate(4 176)">
<title>/home/travis/build/LibrePCB/LibrePCB/libs/librepcbproject/circuit/gencompinstance.h</title>
<polygon fill="white" stroke="white" points="-4,5 -4,-176 3749,-176 3749,5 -4,5"/>
<!-- Node1 -->
<g id="node1" class="node"><title>Node1</title>
<polygon fill="#bfbfbf" stroke="black" points="1750.5,-111 1750.5,-171 1875.5,-171 1875.5,-111 1750.5,-111"/>
<text text-anchor="start" x="1758.5" y="-158" font-family="Helvetica,sans-Serif" font-size="10.00">/home/travis/build</text>
<text text-anchor="start" x="1758.5" y="-145" font-family="Helvetica,sans-Serif" font-size="10.00">/LibrePCB/LibrePCB/libs</text>
<text text-anchor="start" x="1758.5" y="-132" font-family="Helvetica,sans-Serif" font-size="10.00">/librepcbproject/circuit</text>
<text text-anchor="middle" x="1813" y="-119" font-family="Helvetica,sans-Serif" font-size="10.00">/gencompinstance.h</text>
</g>
<!-- Node2 -->
<g id="node3" class="node"><title>Node2</title>
<a xlink:href="../../df/d6e/board_8cpp.html" target="_top" xlink:title="/home/travis/build\l/LibrePCB/LibrePCB/libs\l/librepcbproject/boards\l/board.cpp">
<polygon fill="white" stroke="black" points="-0.5,-7 -0.5,-67 124.5,-67 124.5,-7 -0.5,-7"/>
<text text-anchor="start" x="7.5" y="-54" font-family="Helvetica,sans-Serif" font-size="10.00">/home/travis/build</text>
<text text-anchor="start" x="7.5" y="-41" font-family="Helvetica,sans-Serif" font-size="10.00">/LibrePCB/LibrePCB/libs</text>
<text text-anchor="start" x="7.5" y="-28" font-family="Helvetica,sans-Serif" font-size="10.00">/librepcbproject/boards</text>
<text text-anchor="middle" x="62" y="-15" font-family="Helvetica,sans-Serif" font-size="10.00">/board.cpp</text>
</a>
</g>
<!-- Node1&#45;&gt;Node2 -->
<g id="edge2" class="edge"><title>Node1&#45;&gt;Node2</title>
<path fill="none" stroke="midnightblue" d="M1739.72,-139.965C1436.61,-135.43 289.461,-115.644 133,-74 126.418,-72.2482 119.755,-69.8114 113.282,-67.0161"/>
<polygon fill="midnightblue" stroke="midnightblue" points="1740.09,-143.471 1750.14,-140.12 1740.2,-136.472 1740.09,-143.471"/>
</g>
<!-- Node3 -->
<g id="node5" class="node"><title>Node3</title>
<a xlink:href="../../d6/d55/componentinstance_8cpp.html" target="_top" xlink:title="/home/travis/build\l/LibrePCB/LibrePCB/libs\l/librepcbproject/boards\l/componentinstance.cpp">
<polygon fill="white" stroke="black" points="141.5,-7 141.5,-67 266.5,-67 266.5,-7 141.5,-7"/>
<text text-anchor="start" x="149.5" y="-54" font-family="Helvetica,sans-Serif" font-size="10.00">/home/travis/build</text>
<text text-anchor="start" x="149.5" y="-41" font-family="Helvetica,sans-Serif" font-size="10.00">/LibrePCB/LibrePCB/libs</text>
<text text-anchor="start" x="149.5" y="-28" font-family="Helvetica,sans-Serif" font-size="10.00">/librepcbproject/boards</text>
<text text-anchor="middle" x="204" y="-15" font-family="Helvetica,sans-Serif" font-size="10.00">/componentinstance.cpp</text>
</a>
</g>
<!-- Node1&#45;&gt;Node3 -->
<g id="edge4" class="edge"><title>Node1&#45;&gt;Node3</title>
<path fill="none" stroke="midnightblue" d="M1739.82,-139.677C1453.4,-134.244 417.161,-112.118 275,-74 268.556,-72.2721 262.032,-69.8914 255.685,-67.1634"/>
<polygon fill="midnightblue" stroke="midnightblue" points="1740.03,-143.181 1750.09,-139.871 1740.16,-136.183 1740.03,-143.181"/>
</g>
<!-- Node4 -->
<g id="node7" class="node"><title>Node4</title>
<a xlink:href="../../d4/d6f/circuit_8cpp.html" target="_top" xlink:title="/home/travis/build\l/LibrePCB/LibrePCB/libs\l/librepcbproject/circuit\l/circuit.cpp">
<polygon fill="white" stroke="black" points="283.5,-7 283.5,-67 408.5,-67 408.5,-7 283.5,-7"/>
<text text-anchor="start" x="291.5" y="-54" font-family="Helvetica,sans-Serif" font-size="10.00">/home/travis/build</text>
<text text-anchor="start" x="291.5" y="-41" font-family="Helvetica,sans-Serif" font-size="10.00">/LibrePCB/LibrePCB/libs</text>
<text text-anchor="start" x="291.5" y="-28" font-family="Helvetica,sans-Serif" font-size="10.00">/librepcbproject/circuit</text>
<text text-anchor="middle" x="346" y="-15" font-family="Helvetica,sans-Serif" font-size="10.00">/circuit.cpp</text>
</a>
</g>
<!-- Node1&#45;&gt;Node4 -->
<g id="edge6" class="edge"><title>Node1&#45;&gt;Node4</title>
<path fill="none" stroke="midnightblue" d="M1740.39,-139.342C1472,-132.963 544.982,-108.62 417,-74 410.56,-72.2578 404.038,-69.8682 397.693,-67.1352"/>
<polygon fill="midnightblue" stroke="midnightblue" points="1740.33,-142.841 1750.41,-139.579 1740.49,-135.843 1740.33,-142.841"/>
</g>
<!-- Node5 -->
<g id="node9" class="node"><title>Node5</title>
<a xlink:href="../../d2/d3c/cmdgencompattrinstadd_8cpp.html" target="_top" xlink:title="/home/travis/build\l/LibrePCB/LibrePCB/libs\l/librepcbproject/circuit\l/cmd/cmdgencompattrinstadd.cpp">
<polygon fill="white" stroke="black" points="426,-7 426,-67 590,-67 590,-7 426,-7"/>
<text text-anchor="start" x="434" y="-54" font-family="Helvetica,sans-Serif" font-size="10.00">/home/travis/build</text>
<text text-anchor="start" x="434" y="-41" font-family="Helvetica,sans-Serif" font-size="10.00">/LibrePCB/LibrePCB/libs</text>
<text text-anchor="start" x="434" y="-28" font-family="Helvetica,sans-Serif" font-size="10.00">/librepcbproject/circuit</text>
<text text-anchor="middle" x="508" y="-15" font-family="Helvetica,sans-Serif" font-size="10.00">/cmd/cmdgencompattrinstadd.cpp</text>
</a>
</g>
<!-- Node1&#45;&gt;Node5 -->
<g id="edge8" class="edge"><title>Node1&#45;&gt;Node5</title>
<path fill="none" stroke="midnightblue" d="M1740.24,-140.128C1512.96,-136.909 818.331,-123.198 599,-74 591.012,-72.2083 582.821,-69.7877 574.783,-67.037"/>
<polygon fill="midnightblue" stroke="midnightblue" points="1740.34,-143.629 1750.39,-140.269 1740.44,-136.63 1740.34,-143.629"/>
</g>
<!-- Node6 -->
<g id="node11" class="node"><title>Node6</title>
<a xlink:href="../../d4/dff/cmdgencompattrinstedit_8cpp.html" target="_top" xlink:title="/home/travis/build\l/LibrePCB/LibrePCB/libs\l/librepcbproject/circuit\l/cmd/cmdgencompattrinstedit.cpp">
<polygon fill="white" stroke="black" points="608,-7 608,-67 772,-67 772,-7 608,-7"/>
<text text-anchor="start" x="616" y="-54" font-family="Helvetica,sans-Serif" font-size="10.00">/home/travis/build</text>
<text text-anchor="start" x="616" y="-41" font-family="Helvetica,sans-Serif" font-size="10.00">/LibrePCB/LibrePCB/libs</text>
<text text-anchor="start" x="616" y="-28" font-family="Helvetica,sans-Serif" font-size="10.00">/librepcbproject/circuit</text>
<text text-anchor="middle" x="690" y="-15" font-family="Helvetica,sans-Serif" font-size="10.00">/cmd/cmdgencompattrinstedit.cpp</text>
</a>
</g>
<!-- Node1&#45;&gt;Node6 -->
<g id="edge10" class="edge"><title>Node1&#45;&gt;Node6</title>
<path fill="none" stroke="midnightblue" d="M1739.88,-139.296C1535.95,-134.06 963.865,-115.95 781,-74 773.104,-72.1886 765.006,-69.7757 757.051,-67.0466"/>
<polygon fill="midnightblue" stroke="midnightblue" points="1740.1,-142.802 1750.18,-139.557 1740.28,-135.804 1740.1,-142.802"/>
</g>
<!-- Node7 -->
<g id="node13" class="node"><title>Node7</title>
<a xlink:href="../../d1/ddf/cmdgencompattrinstremove_8cpp.html" target="_top" xlink:title="/home/travis/build\l/LibrePCB/LibrePCB/libs\l/librepcbproject/circuit\l/cmd/cmdgencompattrinstremove.cpp">
<polygon fill="white" stroke="black" points="789.5,-7 789.5,-67 970.5,-67 970.5,-7 789.5,-7"/>
<text text-anchor="start" x="797.5" y="-54" font-family="Helvetica,sans-Serif" font-size="10.00">/home/travis/build</text>
<text text-anchor="start" x="797.5" y="-41" font-family="Helvetica,sans-Serif" font-size="10.00">/LibrePCB/LibrePCB/libs</text>
<text text-anchor="start" x="797.5" y="-28" font-family="Helvetica,sans-Serif" font-size="10.00">/librepcbproject/circuit</text>
<text text-anchor="middle" x="880" y="-15" font-family="Helvetica,sans-Serif" font-size="10.00">/cmd/cmdgencompattrinstremove.cpp</text>
</a>
</g>
<!-- Node1&#45;&gt;Node7 -->
<g id="edge12" class="edge"><title>Node1&#45;&gt;Node7</title>
<path fill="none" stroke="midnightblue" d="M1740.23,-137.746C1564.95,-129.49 1123.24,-106.089 979,-74 970.672,-72.1471 962.102,-69.7465 953.655,-67.0585"/>
<polygon fill="midnightblue" stroke="midnightblue" points="1740.23,-141.249 1750.38,-138.221 1740.55,-134.257 1740.23,-141.249"/>
</g>
<!-- Node8 -->
<g id="node15" class="node"><title>Node8</title>
<a xlink:href="../../d3/d7e/cmdgencompinstadd_8cpp.html" target="_top" xlink:title="/home/travis/build\l/LibrePCB/LibrePCB/libs\l/librepcbproject/circuit\l/cmd/cmdgencompinstadd.cpp">
<polygon fill="white" stroke="black" points="988,-7 988,-67 1138,-67 1138,-7 988,-7"/>
<text text-anchor="start" x="996" y="-54" font-family="Helvetica,sans-Serif" font-size="10.00">/home/travis/build</text>
<text text-anchor="start" x="996" y="-41" font-family="Helvetica,sans-Serif" font-size="10.00">/LibrePCB/LibrePCB/libs</text>
<text text-anchor="start" x="996" y="-28" font-family="Helvetica,sans-Serif" font-size="10.00">/librepcbproject/circuit</text>
<text text-anchor="middle" x="1063" y="-15" font-family="Helvetica,sans-Serif" font-size="10.00">/cmd/cmdgencompinstadd.cpp</text>
</a>
</g>
<!-- Node1&#45;&gt;Node8 -->
<g id="edge14" class="edge"><title>Node1&#45;&gt;Node8</title>
<path fill="none" stroke="midnightblue" d="M1740.04,-136.561C1591.24,-127.033 1257.5,-103.109 1147,-74 1139.91,-72.1326 1132.66,-69.7417 1125.53,-67.0757"/>
<polygon fill="midnightblue" stroke="midnightblue" points="1740.22,-140.079 1750.43,-137.222 1740.67,-133.094 1740.22,-140.079"/>
</g>
<!-- Node9 -->
<g id="node17" class="node"><title>Node9</title>
<a xlink:href="../../d7/d60/cmdgencompinstedit_8cpp.html" target="_top" xlink:title="/home/travis/build\l/LibrePCB/LibrePCB/libs\l/librepcbproject/circuit\l/cmd/cmdgencompinstedit.cpp">
<polygon fill="white" stroke="black" points="1156,-7 1156,-67 1306,-67 1306,-7 1156,-7"/>
<text text-anchor="start" x="1164" y="-54" font-family="Helvetica,sans-Serif" font-size="10.00">/home/travis/build</text>
<text text-anchor="start" x="1164" y="-41" font-family="Helvetica,sans-Serif" font-size="10.00">/LibrePCB/LibrePCB/libs</text>
<text text-anchor="start" x="1164" y="-28" font-family="Helvetica,sans-Serif" font-size="10.00">/librepcbproject/circuit</text>
<text text-anchor="middle" x="1231" y="-15" font-family="Helvetica,sans-Serif" font-size="10.00">/cmd/cmdgencompinstedit.cpp</text>
</a>
</g>
<!-- Node1&#45;&gt;Node9 -->
<g id="edge16" class="edge"><title>Node1&#45;&gt;Node9</title>
<path fill="none" stroke="midnightblue" d="M1740.02,-137.598C1641.81,-131.579 1462.41,-115.483 1315,-74 1308.1,-72.0574 1301.03,-69.6546 1294.06,-67.0132"/>
<polygon fill="midnightblue" stroke="midnightblue" points="1739.95,-141.1 1750.14,-138.2 1740.37,-134.112 1739.95,-141.1"/>
</g>
<!-- Node10 -->
<g id="node19" class="node"><title>Node10</title>
<a xlink:href="../../d9/d60/cmdgencompinstremove_8cpp.html" target="_top" xlink:title="/home/travis/build\l/LibrePCB/LibrePCB/libs\l/librepcbproject/circuit\l/cmd/cmdgencompinstremove.cpp">
<polygon fill="white" stroke="black" points="1323.5,-7 1323.5,-67 1490.5,-67 1490.5,-7 1323.5,-7"/>
<text text-anchor="start" x="1331.5" y="-54" font-family="Helvetica,sans-Serif" font-size="10.00">/home/travis/build</text>
<text text-anchor="start" x="1331.5" y="-41" font-family="Helvetica,sans-Serif" font-size="10.00">/LibrePCB/LibrePCB/libs</text>
<text text-anchor="start" x="1331.5" y="-28" font-family="Helvetica,sans-Serif" font-size="10.00">/librepcbproject/circuit</text>
<text text-anchor="middle" x="1407" y="-15" font-family="Helvetica,sans-Serif" font-size="10.00">/cmd/cmdgencompinstremove.cpp</text>
</a>
</g>
<!-- Node1&#45;&gt;Node10 -->
<g id="edge18" class="edge"><title>Node1&#45;&gt;Node10</title>
<path fill="none" stroke="midnightblue" d="M1740.2,-129.138C1675.98,-117.808 1580.22,-98.7957 1499,-74 1492.17,-71.9139 1485.13,-69.5319 1478.14,-67.0046"/>
<polygon fill="midnightblue" stroke="midnightblue" points="1739.78,-132.617 1750.23,-130.89 1740.98,-125.722 1739.78,-132.617"/>
</g>
<!-- Node11 -->
<g id="node21" class="node"><title>Node11</title>
<a xlink:href="../../da/d9c/gencompattributeinstance_8cpp.html" target="_top" xlink:title="/home/travis/build\l/LibrePCB/LibrePCB/libs\l/librepcbproject/circuit\l/gencompattributeinstance.cpp">
<polygon fill="white" stroke="black" points="1508,-7 1508,-67 1658,-67 1658,-7 1508,-7"/>
<text text-anchor="start" x="1516" y="-54" font-family="Helvetica,sans-Serif" font-size="10.00">/home/travis/build</text>
<text text-anchor="start" x="1516" y="-41" font-family="Helvetica,sans-Serif" font-size="10.00">/LibrePCB/LibrePCB/libs</text>
<text text-anchor="start" x="1516" y="-28" font-family="Helvetica,sans-Serif" font-size="10.00">/librepcbproject/circuit</text>
<text text-anchor="middle" x="1583" y="-15" font-family="Helvetica,sans-Serif" font-size="10.00">/gencompattributeinstance.cpp</text>
</a>
</g>
<!-- Node1&#45;&gt;Node11 -->
<g id="edge20" class="edge"><title>Node1&#45;&gt;Node11</title>
<path fill="none" stroke="midnightblue" d="M1741.12,-108.498C1711.86,-95.2679 1678.25,-80.0688 1649.56,-67.0956"/>
<polygon fill="midnightblue" stroke="midnightblue" points="1739.9,-111.788 1750.46,-112.719 1742.79,-105.41 1739.9,-111.788"/>
</g>
<!-- Node12 -->
<g id="node23" class="node"><title>Node12</title>
<a xlink:href="../../de/de8/gencompinstance_8cpp.html" target="_top" xlink:title="/home/travis/build\l/LibrePCB/LibrePCB/libs\l/librepcbproject/circuit\l/gencompinstance.cpp">
<polygon fill="white" stroke="black" points="1675.5,-7 1675.5,-67 1800.5,-67 1800.5,-7 1675.5,-7"/>
<text text-anchor="start" x="1683.5" y="-54" font-family="Helvetica,sans-Serif" font-size="10.00">/home/travis/build</text>
<text text-anchor="start" x="1683.5" y="-41" font-family="Helvetica,sans-Serif" font-size="10.00">/LibrePCB/LibrePCB/libs</text>
<text text-anchor="start" x="1683.5" y="-28" font-family="Helvetica,sans-Serif" font-size="10.00">/librepcbproject/circuit</text>
<text text-anchor="middle" x="1738" y="-15" font-family="Helvetica,sans-Serif" font-size="10.00">/gencompinstance.cpp</text>
</a>
</g>
<!-- Node1&#45;&gt;Node12 -->
<g id="edge22" class="edge"><title>Node1&#45;&gt;Node12</title>
<path fill="none" stroke="midnightblue" d="M1785.3,-102.583C1776.83,-90.8433 1767.65,-78.1098 1759.64,-67.0135"/>
<polygon fill="midnightblue" stroke="midnightblue" points="1782.62,-104.855 1791.31,-110.919 1788.3,-100.761 1782.62,-104.855"/>
</g>
<!-- Node13 -->
<g id="node25" class="node"><title>Node13</title>
<a xlink:href="../../d2/d38/gencompsignalinstance_8cpp.html" target="_top" xlink:title="/home/travis/build\l/LibrePCB/LibrePCB/libs\l/librepcbproject/circuit\l/gencompsignalinstance.cpp">
<polygon fill="white" stroke="black" points="1818,-7 1818,-67 1958,-67 1958,-7 1818,-7"/>
<text text-anchor="start" x="1826" y="-54" font-family="Helvetica,sans-Serif" font-size="10.00">/home/travis/build</text>
<text text-anchor="start" x="1826" y="-41" font-family="Helvetica,sans-Serif" font-size="10.00">/LibrePCB/LibrePCB/libs</text>
<text text-anchor="start" x="1826" y="-28" font-family="Helvetica,sans-Serif" font-size="10.00">/librepcbproject/circuit</text>
<text text-anchor="middle" x="1888" y="-15" font-family="Helvetica,sans-Serif" font-size="10.00">/gencompsignalinstance.cpp</text>
</a>
</g>
<!-- Node1&#45;&gt;Node13 -->
<g id="edge24" class="edge"><title>Node1&#45;&gt;Node13</title>
<path fill="none" stroke="midnightblue" d="M1840.7,-102.583C1849.17,-90.8433 1858.35,-78.1098 1866.36,-67.0135"/>
<polygon fill="midnightblue" stroke="midnightblue" points="1837.7,-100.761 1834.69,-110.919 1843.38,-104.855 1837.7,-100.761"/>
</g>
<!-- Node14 -->
<g id="node27" class="node"><title>Node14</title>
<a xlink:href="../../dc/db5/cmdsymbolinstanceadd_8cpp.html" target="_top" xlink:title="/home/travis/build\l/LibrePCB/LibrePCB/libs\l/librepcbproject/schematics\l/cmd/cmdsymbolinstanceadd.cpp">
<polygon fill="white" stroke="black" points="1975.5,-7 1975.5,-67 2138.5,-67 2138.5,-7 1975.5,-7"/>
<text text-anchor="start" x="1983.5" y="-54" font-family="Helvetica,sans-Serif" font-size="10.00">/home/travis/build</text>
<text text-anchor="start" x="1983.5" y="-41" font-family="Helvetica,sans-Serif" font-size="10.00">/LibrePCB/LibrePCB/libs</text>
<text text-anchor="start" x="1983.5" y="-28" font-family="Helvetica,sans-Serif" font-size="10.00">/librepcbproject/schematics</text>
<text text-anchor="middle" x="2057" y="-15" font-family="Helvetica,sans-Serif" font-size="10.00">/cmd/cmdsymbolinstanceadd.cpp</text>
</a>
</g>
<!-- Node1&#45;&gt;Node14 -->
<g id="edge26" class="edge"><title>Node1&#45;&gt;Node14</title>
<path fill="none" stroke="midnightblue" d="M1884.84,-110.38C1916.9,-96.7162 1954.55,-80.667 1986.46,-67.068"/>
<polygon fill="midnightblue" stroke="midnightblue" points="1883.35,-107.212 1875.52,-114.352 1886.09,-113.651 1883.35,-107.212"/>
</g>
<!-- Node15 -->
<g id="node29" class="node"><title>Node15</title>
<a xlink:href="../../de/dd8/sgi__symbol_8cpp.html" target="_top" xlink:title="/home/travis/build\l/LibrePCB/LibrePCB/libs\l/librepcbproject/schematics\l/graphicsitems/sgi_symbol.cpp">
<polygon fill="white" stroke="black" points="2156,-7 2156,-67 2308,-67 2308,-7 2156,-7"/>
<text text-anchor="start" x="2164" y="-54" font-family="Helvetica,sans-Serif" font-size="10.00">/home/travis/build</text>
<text text-anchor="start" x="2164" y="-41" font-family="Helvetica,sans-Serif" font-size="10.00">/LibrePCB/LibrePCB/libs</text>
<text text-anchor="start" x="2164" y="-28" font-family="Helvetica,sans-Serif" font-size="10.00">/librepcbproject/schematics</text>
<text text-anchor="middle" x="2232" y="-15" font-family="Helvetica,sans-Serif" font-size="10.00">/graphicsitems/sgi_symbol.cpp</text>
</a>
</g>
<!-- Node1&#45;&gt;Node15 -->
<g id="edge28" class="edge"><title>Node1&#45;&gt;Node15</title>
<path fill="none" stroke="midnightblue" d="M1885.79,-130.968C1954.22,-120.472 2058.98,-101.639 2147,-74 2153.45,-71.9749 2160.07,-69.6183 2166.63,-67.0936"/>
<polygon fill="midnightblue" stroke="midnightblue" points="1884.91,-127.561 1875.55,-132.519 1885.96,-134.482 1884.91,-127.561"/>
</g>
<!-- Node16 -->
<g id="node31" class="node"><title>Node16</title>
<a xlink:href="../../d9/d24/sgi__symbolpin_8cpp.html" target="_top" xlink:title="/home/travis/build\l/LibrePCB/LibrePCB/libs\l/librepcbproject/schematics\l/graphicsitems/sgi_symbolpin.cpp">
<polygon fill="white" stroke="black" points="2326,-7 2326,-67 2490,-67 2490,-7 2326,-7"/>
<text text-anchor="start" x="2334" y="-54" font-family="Helvetica,sans-Serif" font-size="10.00">/home/travis/build</text>
<text text-anchor="start" x="2334" y="-41" font-family="Helvetica,sans-Serif" font-size="10.00">/LibrePCB/LibrePCB/libs</text>
<text text-anchor="start" x="2334" y="-28" font-family="Helvetica,sans-Serif" font-size="10.00">/librepcbproject/schematics</text>
<text text-anchor="middle" x="2408" y="-15" font-family="Helvetica,sans-Serif" font-size="10.00">/graphicsitems/sgi_symbolpin.cpp</text>
</a>
</g>
<!-- Node1&#45;&gt;Node16 -->
<g id="edge30" class="edge"><title>Node1&#45;&gt;Node16</title>
<path fill="none" stroke="midnightblue" d="M1885.87,-137.127C1984.88,-130.556 2166.82,-113.819 2317,-74 2324.34,-72.055 2331.87,-69.6682 2339.31,-67.052"/>
<polygon fill="midnightblue" stroke="midnightblue" points="1885.42,-133.648 1875.67,-137.787 1885.87,-140.634 1885.42,-133.648"/>
</g>
<!-- Node17 -->
<g id="node33" class="node"><title>Node17</title>
<a xlink:href="../../d0/da6/si__symbol_8cpp.html" target="_top" xlink:title="/home/travis/build\l/LibrePCB/LibrePCB/libs\l/librepcbproject/schematics\l/items/si_symbol.cpp">
<polygon fill="white" stroke="black" points="2508,-7 2508,-67 2644,-67 2644,-7 2508,-7"/>
<text text-anchor="start" x="2516" y="-54" font-family="Helvetica,sans-Serif" font-size="10.00">/home/travis/build</text>
<text text-anchor="start" x="2516" y="-41" font-family="Helvetica,sans-Serif" font-size="10.00">/LibrePCB/LibrePCB/libs</text>
<text text-anchor="start" x="2516" y="-28" font-family="Helvetica,sans-Serif" font-size="10.00">/librepcbproject/schematics</text>
<text text-anchor="middle" x="2576" y="-15" font-family="Helvetica,sans-Serif" font-size="10.00">/items/si_symbol.cpp</text>
</a>
</g>
<!-- Node1&#45;&gt;Node17 -->
<g id="edge32" class="edge"><title>Node1&#45;&gt;Node17</title>
<path fill="none" stroke="midnightblue" d="M1885.79,-137.115C2037.96,-128.468 2385.08,-105.854 2499,-74 2505.57,-72.1628 2512.27,-69.7913 2518.83,-67.1366"/>
<polygon fill="midnightblue" stroke="midnightblue" points="1885.4,-133.631 1875.61,-137.689 1885.79,-140.62 1885.4,-133.631"/>
</g>
<!-- Node18 -->
<g id="node35" class="node"><title>Node18</title>
<a xlink:href="../../d5/d35/si__symbolpin_8cpp.html" target="_top" xlink:title="/home/travis/build\l/LibrePCB/LibrePCB/libs\l/librepcbproject/schematics\l/items/si_symbolpin.cpp">
<polygon fill="white" stroke="black" points="2662,-7 2662,-67 2798,-67 2798,-7 2662,-7"/>
<text text-anchor="start" x="2670" y="-54" font-family="Helvetica,sans-Serif" font-size="10.00">/home/travis/build</text>
<text text-anchor="start" x="2670" y="-41" font-family="Helvetica,sans-Serif" font-size="10.00">/LibrePCB/LibrePCB/libs</text>
<text text-anchor="start" x="2670" y="-28" font-family="Helvetica,sans-Serif" font-size="10.00">/librepcbproject/schematics</text>
<text text-anchor="middle" x="2730" y="-15" font-family="Helvetica,sans-Serif" font-size="10.00">/items/si_symbolpin.cpp</text>
</a>
</g>
<!-- Node1&#45;&gt;Node18 -->
<g id="edge34" class="edge"><title>Node1&#45;&gt;Node18</title>
<path fill="none" stroke="midnightblue" d="M1885.86,-138.617C2062.42,-132.292 2509.16,-112.847 2653,-74 2659.73,-72.1826 2666.58,-69.7854 2673.29,-67.0825"/>
<polygon fill="midnightblue" stroke="midnightblue" points="1885.51,-135.127 1875.64,-138.979 1885.75,-142.123 1885.51,-135.127"/>
</g>
<!-- Node19 -->
<g id="node37" class="node"><title>Node19</title>
<a xlink:href="../../d7/d20/bes__select_8cpp.html" target="_top" xlink:title="/home/travis/build\l/LibrePCB/LibrePCB/libs\l/librepcbprojecteditor\l/boardeditor/fsm/bes_select.cpp">
<polygon fill="white" stroke="black" points="2816,-7 2816,-67 2972,-67 2972,-7 2816,-7"/>
<text text-anchor="start" x="2824" y="-54" font-family="Helvetica,sans-Serif" font-size="10.00">/home/travis/build</text>
<text text-anchor="start" x="2824" y="-41" font-family="Helvetica,sans-Serif" font-size="10.00">/LibrePCB/LibrePCB/libs</text>
<text text-anchor="start" x="2824" y="-28" font-family="Helvetica,sans-Serif" font-size="10.00">/librepcbprojecteditor</text>
<text text-anchor="middle" x="2894" y="-15" font-family="Helvetica,sans-Serif" font-size="10.00">/boardeditor/fsm/bes_select.cpp</text>
</a>
</g>
<!-- Node1&#45;&gt;Node19 -->
<g id="edge36" class="edge"><title>Node1&#45;&gt;Node19</title>
<path fill="none" stroke="midnightblue" d="M1885.55,-139.248C2083.86,-133.962 2631.84,-115.884 2807,-74 2814.5,-72.206 2822.18,-69.8235 2829.72,-67.1292"/>
<polygon fill="midnightblue" stroke="midnightblue" points="1885.43,-135.75 1875.53,-139.513 1885.62,-142.748 1885.43,-135.75"/>
</g>
<!-- Node20 -->
<g id="node39" class="node"><title>Node20</title>
<a xlink:href="../../de/dd2/unplacedcomponentsdock_8cpp.html" target="_top" xlink:title="/home/travis/build\l/LibrePCB/LibrePCB/libs\l/librepcbprojecteditor\l/boardeditor/unplacedcomponentsdock.cpp">
<polygon fill="white" stroke="black" points="2989.5,-7 2989.5,-67 3192.5,-67 3192.5,-7 2989.5,-7"/>
<text text-anchor="start" x="2997.5" y="-54" font-family="Helvetica,sans-Serif" font-size="10.00">/home/travis/build</text>
<text text-anchor="start" x="2997.5" y="-41" font-family="Helvetica,sans-Serif" font-size="10.00">/LibrePCB/LibrePCB/libs</text>
<text text-anchor="start" x="2997.5" y="-28" font-family="Helvetica,sans-Serif" font-size="10.00">/librepcbprojecteditor</text>
<text text-anchor="middle" x="3091" y="-15" font-family="Helvetica,sans-Serif" font-size="10.00">/boardeditor/unplacedcomponentsdock.cpp</text>
</a>
</g>
<!-- Node1&#45;&gt;Node20 -->
<g id="edge38" class="edge"><title>Node1&#45;&gt;Node20</title>
<path fill="none" stroke="midnightblue" d="M1885.89,-139.363C2107.27,-133.991 2769.6,-114.85 2981,-74 2990.4,-72.1842 3000.09,-69.7684 3009.66,-67.0377"/>
<polygon fill="midnightblue" stroke="midnightblue" points="1885.59,-135.869 1875.68,-139.609 1885.76,-142.867 1885.59,-135.869"/>
</g>
<!-- Node21 -->
<g id="node41" class="node"><title>Node21</title>
<a xlink:href="../../d8/df2/ses__addcomponents_8cpp.html" target="_top" xlink:title="/home/travis/build\l/LibrePCB/LibrePCB/libs\l/librepcbprojecteditor\l/schematiceditor/fsm/ses\l_addcomponents.cpp">
<polygon fill="white" stroke="black" points="3209.5,-0.5 3209.5,-73.5 3336.5,-73.5 3336.5,-0.5 3209.5,-0.5"/>
<text text-anchor="start" x="3217.5" y="-60.5" font-family="Helvetica,sans-Serif" font-size="10.00">/home/travis/build</text>
<text text-anchor="start" x="3217.5" y="-47.5" font-family="Helvetica,sans-Serif" font-size="10.00">/LibrePCB/LibrePCB/libs</text>
<text text-anchor="start" x="3217.5" y="-34.5" font-family="Helvetica,sans-Serif" font-size="10.00">/librepcbprojecteditor</text>
<text text-anchor="start" x="3217.5" y="-21.5" font-family="Helvetica,sans-Serif" font-size="10.00">/schematiceditor/fsm/ses</text>
<text text-anchor="middle" x="3273" y="-8.5" font-family="Helvetica,sans-Serif" font-size="10.00">_addcomponents.cpp</text>
</a>
</g>
<!-- Node1&#45;&gt;Node21 -->
<g id="edge40" class="edge"><title>Node1&#45;&gt;Node21</title>
<path fill="none" stroke="midnightblue" d="M1886.04,-139.286C2153.97,-132.751 3073.79,-108.04 3201,-74 3203.72,-73.2734 3206.45,-72.4345 3209.17,-71.5053"/>
<polygon fill="midnightblue" stroke="midnightblue" points="1885.57,-135.797 1875.66,-139.538 1885.74,-142.794 1885.57,-135.797"/>
</g>
<!-- Node22 -->
<g id="node43" class="node"><title>Node22</title>
<a xlink:href="../../d5/d03/ses__select_8cpp.html" target="_top" xlink:title="/home/travis/build\l/LibrePCB/LibrePCB/libs\l/librepcbprojecteditor\l/schematiceditor/fsm/ses\l_select.cpp">
<polygon fill="white" stroke="black" points="3353.5,-0.5 3353.5,-73.5 3480.5,-73.5 3480.5,-0.5 3353.5,-0.5"/>
<text text-anchor="start" x="3361.5" y="-60.5" font-family="Helvetica,sans-Serif" font-size="10.00">/home/travis/build</text>
<text text-anchor="start" x="3361.5" y="-47.5" font-family="Helvetica,sans-Serif" font-size="10.00">/LibrePCB/LibrePCB/libs</text>
<text text-anchor="start" x="3361.5" y="-34.5" font-family="Helvetica,sans-Serif" font-size="10.00">/librepcbprojecteditor</text>
<text text-anchor="start" x="3361.5" y="-21.5" font-family="Helvetica,sans-Serif" font-size="10.00">/schematiceditor/fsm/ses</text>
<text text-anchor="middle" x="3417" y="-8.5" font-family="Helvetica,sans-Serif" font-size="10.00">_select.cpp</text>
</a>
</g>
<!-- Node1&#45;&gt;Node22 -->
<g id="edge42" class="edge"><title>Node1&#45;&gt;Node22</title>
<path fill="none" stroke="midnightblue" d="M1885.89,-139.645C2171.17,-134.093 3203.29,-111.577 3345,-74 3347.72,-73.2796 3350.45,-72.4459 3353.18,-71.521"/>
<polygon fill="midnightblue" stroke="midnightblue" points="1885.59,-136.15 1875.66,-139.843 1885.72,-143.149 1885.59,-136.15"/>
</g>
<!-- Node23 -->
<g id="node45" class="node"><title>Node23</title>
<a xlink:href="../../da/d89/symbolinstancepropertiesdialog_8cpp.html" target="_top" xlink:title="/home/travis/build\l/LibrePCB/LibrePCB/libs\l/librepcbprojecteditor\l/schematiceditor/symbolinstancepropertiesdialog.cpp">
<polygon fill="white" stroke="black" points="3497.5,-7 3497.5,-67 3744.5,-67 3744.5,-7 3497.5,-7"/>
<text text-anchor="start" x="3505.5" y="-54" font-family="Helvetica,sans-Serif" font-size="10.00">/home/travis/build</text>
<text text-anchor="start" x="3505.5" y="-41" font-family="Helvetica,sans-Serif" font-size="10.00">/LibrePCB/LibrePCB/libs</text>
<text text-anchor="start" x="3505.5" y="-28" font-family="Helvetica,sans-Serif" font-size="10.00">/librepcbprojecteditor</text>
<text text-anchor="middle" x="3621" y="-15" font-family="Helvetica,sans-Serif" font-size="10.00">/schematiceditor/symbolinstancepropertiesdialog.cpp</text>
</a>
</g>
<!-- Node1&#45;&gt;Node23 -->
<g id="edge44" class="edge"><title>Node1&#45;&gt;Node23</title>
<path fill="none" stroke="midnightblue" d="M1885.63,-140.349C2165.36,-137.492 3173.08,-123.888 3489,-74 3500.28,-72.2181 3511.98,-69.8036 3523.53,-67.0564"/>
<polygon fill="midnightblue" stroke="midnightblue" points="1885.56,-136.849 1875.6,-140.45 1885.63,-143.849 1885.56,-136.849"/>
</g>
</g>
</svg>
