<?xml version="1.0" encoding="UTF-8" standalone="no"?>
<!DOCTYPE svg PUBLIC "-//W3C//DTD SVG 1.1//EN"
 "http://www.w3.org/Graphics/SVG/1.1/DTD/svg11.dtd">
<!-- Generated by graphviz version 2.26.3 (20100126.1600)
 -->
<!-- Title: /home/travis/build/LibrePCB/LibrePCB/libs/librepcbworkspace/recentprojectsmodel.h Pages: 1 -->
<svg width="574pt" height="154pt"
 viewBox="0.00 0.00 574.00 154.00" xmlns="http://www.w3.org/2000/svg" xmlns:xlink="http://www.w3.org/1999/xlink">
<g id="graph1" class="graph" transform="scale(1 1) rotate(0) translate(4 150)">
<title>/home/travis/build/LibrePCB/LibrePCB/libs/librepcbworkspace/recentprojectsmodel.h</title>
<polygon fill="white" stroke="white" points="-4,5 -4,-150 571,-150 571,5 -4,5"/>
<!-- Node1 -->
<g id="node1" class="node"><title>Node1</title>
<polygon fill="#bfbfbf" stroke="black" points="173,-98.5 173,-145.5 373,-145.5 373,-98.5 173,-98.5"/>
<text text-anchor="start" x="181" y="-132.5" font-family="Helvetica,sans-Serif" font-size="10.00">/home/travis/build</text>
<text text-anchor="start" x="181" y="-119.5" font-family="Helvetica,sans-Serif" font-size="10.00">/LibrePCB/LibrePCB/libs</text>
<text text-anchor="middle" x="273" y="-106.5" font-family="Helvetica,sans-Serif" font-size="10.00">/librepcbworkspace/recentprojectsmodel.h</text>
</g>
<!-- Node2 -->
<g id="node3" class="node"><title>Node2</title>
<a xlink:href="../../dc/db2/moc__recentprojectsmodel_8cpp.html" target="_top" xlink:title="/home/travis/build\l/LibrePCB/LibrePCB/libs\l/librepcbworkspace/moc\l/moc_recentprojectsmodel.cpp">
<polygon fill="white" stroke="black" points="0,-1 0,-61 150,-61 150,-1 0,-1"/>
<text text-anchor="start" x="8" y="-48" font-family="Helvetica,sans-Serif" font-size="10.00">/home/travis/build</text>
<text text-anchor="start" x="8" y="-35" font-family="Helvetica,sans-Serif" font-size="10.00">/LibrePCB/LibrePCB/libs</text>
<text text-anchor="start" x="8" y="-22" font-family="Helvetica,sans-Serif" font-size="10.00">/librepcbworkspace/moc</text>
<text text-anchor="middle" x="75" y="-9" font-family="Helvetica,sans-Serif" font-size="10.00">/moc_recentprojectsmodel.cpp</text>
</a>
</g>
<!-- Node1&#45;&gt;Node2 -->
<g id="edge2" class="edge"><title>Node1&#45;&gt;Node2</title>
<path fill="none" stroke="midnightblue" d="M212.547,-94.2159C189.793,-83.7584 163.82,-71.8212 140.617,-61.1575"/>
<polygon fill="midnightblue" stroke="midnightblue" points="211.205,-97.451 221.753,-98.4469 214.128,-91.0906 211.205,-97.451"/>
</g>
<!-- Node3 -->
<g id="node5" class="node"><title>Node3</title>
<a xlink:href="../../d8/da7/recentprojectsmodel_8cpp.html" target="_top" xlink:title="/home/travis/build\l/LibrePCB/LibrePCB/libs\l/librepcbworkspace/recentprojectsmodel.cpp">
<polygon fill="white" stroke="black" points="168,-7.5 168,-54.5 378,-54.5 378,-7.5 168,-7.5"/>
<text text-anchor="start" x="176" y="-41.5" font-family="Helvetica,sans-Serif" font-size="10.00">/home/travis/build</text>
<text text-anchor="start" x="176" y="-28.5" font-family="Helvetica,sans-Serif" font-size="10.00">/LibrePCB/LibrePCB/libs</text>
<text text-anchor="middle" x="273" y="-15.5" font-family="Helvetica,sans-Serif" font-size="10.00">/librepcbworkspace/recentprojectsmodel.cpp</text>
</a>
</g>
<!-- Node1&#45;&gt;Node3 -->
<g id="edge4" class="edge"><title>Node1&#45;&gt;Node3</title>
<path fill="none" stroke="midnightblue" d="M273,-87.8949C273,-76.8584 273,-64.866 273,-54.7495"/>
<polygon fill="midnightblue" stroke="midnightblue" points="269.5,-88.0908 273,-98.0908 276.5,-88.0909 269.5,-88.0908"/>
</g>
<!-- Node4 -->
<g id="node7" class="node"><title>Node4</title>
<a xlink:href="../../d8/dad/workspace_8cpp.html" target="_top" xlink:title="/home/travis/build\l/LibrePCB/LibrePCB/libs\l/librepcbworkspace/workspace.cpp">
<polygon fill="white" stroke="black" points="396,-7.5 396,-54.5 566,-54.5 566,-7.5 396,-7.5"/>
<text text-anchor="start" x="404" y="-41.5" font-family="Helvetica,sans-Serif" font-size="10.00">/home/travis/build</text>
<text text-anchor="start" x="404" y="-28.5" font-family="Helvetica,sans-Serif" font-size="10.00">/LibrePCB/LibrePCB/libs</text>
<text text-anchor="middle" x="481" y="-15.5" font-family="Helvetica,sans-Serif" font-size="10.00">/librepcbworkspace/workspace.cpp</text>
</a>
</g>
<!-- Node1&#45;&gt;Node4 -->
<g id="edge6" class="edge"><title>Node1&#45;&gt;Node4</title>
<path fill="none" stroke="midnightblue" d="M336.07,-94.4068C365.105,-81.7043 399.203,-66.7862 427.029,-54.6123"/>
<polygon fill="midnightblue" stroke="midnightblue" points="334.594,-91.2321 326.836,-98.4469 337.4,-97.6452 334.594,-91.2321"/>
</g>
</g>
</svg>
