<?xml version="1.0" encoding="UTF-8" standalone="no"?>
<!DOCTYPE svg PUBLIC "-//W3C//DTD SVG 1.1//EN"
 "http://www.w3.org/Graphics/SVG/1.1/DTD/svg11.dtd">
<!-- Generated by graphviz version 2.26.3 (20100126.1600)
 -->
<!-- Title: setSelectedGenCompInstance Pages: 1 -->
<svg width="688pt" height="190pt"
 viewBox="0.00 0.00 688.00 190.00" xmlns="http://www.w3.org/2000/svg" xmlns:xlink="http://www.w3.org/1999/xlink">
<g id="graph1" class="graph" transform="scale(1 1) rotate(0) translate(4 186)">
<title>setSelectedGenCompInstance</title>
<polygon fill="white" stroke="white" points="-4,5 -4,-186 685,-186 685,5 -4,5"/>
<!-- Node1 -->
<g id="node1" class="node"><title>Node1</title>
<polygon fill="#bfbfbf" stroke="black" points="0,-103.5 0,-124.5 150,-124.5 150,-103.5 0,-103.5"/>
<text text-anchor="middle" x="75" y="-111.5" font-family="Helvetica,sans-Serif" font-size="10.00">setSelectedGenCompInstance</text>
</g>
<!-- Node2 -->
<g id="node3" class="node"><title>Node2</title>
<a xlink:href="../../dc/dbb/classproject_1_1_unplaced_components_dock.html#a16ecdddbb51afe3714d940236b9c6d48" target="_top" xlink:title="on_lstUnplacedComponents\l_currentItemChanged">
<polygon fill="white" stroke="black" points="186,-120 186,-154 326,-154 326,-120 186,-120"/>
<text text-anchor="start" x="194" y="-141" font-family="Helvetica,sans-Serif" font-size="10.00">on_lstUnplacedComponents</text>
<text text-anchor="middle" x="256" y="-128" font-family="Helvetica,sans-Serif" font-size="10.00">_currentItemChanged</text>
</a>
</g>
<!-- Node1&#45;&gt;Node2 -->
<g id="edge2" class="edge"><title>Node1&#45;&gt;Node2</title>
<path fill="none" stroke="midnightblue" d="M160.253,-124.833C168.867,-125.928 177.546,-127.031 185.974,-128.102"/>
<polygon fill="midnightblue" stroke="midnightblue" points="160.549,-121.343 150.188,-123.554 159.667,-128.287 160.549,-121.343"/>
</g>
<!-- Node3 -->
<g id="node5" class="node"><title>Node3</title>
<a xlink:href="../../dc/dbb/classproject_1_1_unplaced_components_dock.html#ad000d7056be9060e68ab7f2548d12946" target="_top" xlink:title="updateComponentsList">
<polygon fill="white" stroke="black" points="197.5,-80.5 197.5,-101.5 314.5,-101.5 314.5,-80.5 197.5,-80.5"/>
<text text-anchor="middle" x="256" y="-88.5" font-family="Helvetica,sans-Serif" font-size="10.00">updateComponentsList</text>
</a>
</g>
<!-- Node1&#45;&gt;Node3 -->
<g id="edge4" class="edge"><title>Node1&#45;&gt;Node3</title>
<path fill="none" stroke="midnightblue" d="M160.211,-103.172C172.769,-101.576 185.464,-99.9632 197.322,-98.4563"/>
<polygon fill="midnightblue" stroke="midnightblue" points="159.667,-99.713 150.188,-104.446 160.549,-106.657 159.667,-99.713"/>
</g>
<!-- Node4 -->
<g id="node7" class="node"><title>Node4</title>
<a xlink:href="../../dc/dbb/classproject_1_1_unplaced_components_dock.html#abda2283f458f0fc17a0ccd8f61df7528" target="_top" xlink:title="UnplacedComponentsDock">
<polygon fill="white" stroke="black" points="362.5,-160.5 362.5,-181.5 499.5,-181.5 499.5,-160.5 362.5,-160.5"/>
<text text-anchor="middle" x="431" y="-168.5" font-family="Helvetica,sans-Serif" font-size="10.00">UnplacedComponentsDock</text>
</a>
</g>
<!-- Node3&#45;&gt;Node4 -->
<g id="edge6" class="edge"><title>Node3&#45;&gt;Node4</title>
<path fill="none" stroke="midnightblue" d="M315.406,-105.355C319.092,-107.038 322.658,-108.913 326,-111 346.288,-123.667 341.736,-138.294 362,-151 368.023,-154.777 374.785,-157.863 381.657,-160.379"/>
<polygon fill="midnightblue" stroke="midnightblue" points="316.638,-102.077 306.057,-101.55 314,-108.561 316.638,-102.077"/>
</g>
<!-- Node5 -->
<g id="node9" class="node"><title>Node5</title>
<a xlink:href="../../dc/dbb/classproject_1_1_unplaced_components_dock.html#a5c8f1dac9d4bbb3d9985ca4d9d3c99bb" target="_top" xlink:title="setBoard">
<polygon fill="white" stroke="black" points="403,-120.5 403,-141.5 459,-141.5 459,-120.5 403,-120.5"/>
<text text-anchor="middle" x="431" y="-128.5" font-family="Helvetica,sans-Serif" font-size="10.00">setBoard</text>
</a>
</g>
<!-- Node3&#45;&gt;Node5 -->
<g id="edge8" class="edge"><title>Node3&#45;&gt;Node5</title>
<path fill="none" stroke="midnightblue" d="M312.003,-103.801C342.29,-110.724 378.389,-118.975 402.822,-124.559"/>
<polygon fill="midnightblue" stroke="midnightblue" points="312.508,-100.326 301.979,-101.51 310.948,-107.15 312.508,-100.326"/>
</g>
<!-- Node7 -->
<g id="node13" class="node"><title>Node7</title>
<a xlink:href="../../dc/dbb/classproject_1_1_unplaced_components_dock.html#accd0a903591840efc04eae995ba9518a" target="_top" xlink:title="on_btnAdd_clicked">
<polygon fill="white" stroke="black" points="381.5,-80.5 381.5,-101.5 480.5,-101.5 480.5,-80.5 381.5,-80.5"/>
<text text-anchor="middle" x="431" y="-88.5" font-family="Helvetica,sans-Serif" font-size="10.00">on_btnAdd_clicked</text>
</a>
</g>
<!-- Node3&#45;&gt;Node7 -->
<g id="edge12" class="edge"><title>Node3&#45;&gt;Node7</title>
<path fill="none" stroke="midnightblue" d="M324.814,-91C343.724,-91 363.854,-91 381.446,-91"/>
<polygon fill="midnightblue" stroke="midnightblue" points="324.759,-87.5001 314.759,-91 324.759,-94.5001 324.759,-87.5001"/>
</g>
<!-- Node8 -->
<g id="node15" class="node"><title>Node8</title>
<a xlink:href="../../dc/dbb/classproject_1_1_unplaced_components_dock.html#af175cf3f7948ac944834cad09819b753" target="_top" xlink:title="on_pushButton_clicked">
<polygon fill="white" stroke="black" points="372,-40.5 372,-61.5 490,-61.5 490,-40.5 372,-40.5"/>
<text text-anchor="middle" x="431" y="-48.5" font-family="Helvetica,sans-Serif" font-size="10.00">on_pushButton_clicked</text>
</a>
</g>
<!-- Node3&#45;&gt;Node8 -->
<g id="edge14" class="edge"><title>Node3&#45;&gt;Node8</title>
<path fill="none" stroke="midnightblue" d="M311.853,-78.2337C335.454,-72.839 362.607,-66.6328 385.024,-61.5087"/>
<polygon fill="midnightblue" stroke="midnightblue" points="310.948,-74.8501 301.979,-80.4905 312.508,-81.6742 310.948,-74.8501"/>
</g>
<!-- Node9 -->
<g id="node17" class="node"><title>Node9</title>
<a xlink:href="../../dc/dbb/classproject_1_1_unplaced_components_dock.html#ae18908ab5cceaf70614eaf307a041e8a" target="_top" xlink:title="on_btnAddAll_clicked">
<polygon fill="white" stroke="black" points="376,-0.5 376,-21.5 486,-21.5 486,-0.5 376,-0.5"/>
<text text-anchor="middle" x="431" y="-8.5" font-family="Helvetica,sans-Serif" font-size="10.00">on_btnAddAll_clicked</text>
</a>
</g>
<!-- Node3&#45;&gt;Node9 -->
<g id="edge16" class="edge"><title>Node3&#45;&gt;Node9</title>
<path fill="none" stroke="midnightblue" d="M280.507,-74.945C301.471,-61.7522 332.801,-43.2971 362,-31 370.506,-27.4178 379.86,-24.2354 388.861,-21.521"/>
<polygon fill="midnightblue" stroke="midnightblue" points="278.471,-72.0918 271.921,-80.4192 282.235,-77.9941 278.471,-72.0918"/>
</g>
<!-- Node6 -->
<g id="node11" class="node"><title>Node6</title>
<a xlink:href="../../dc/dbb/classproject_1_1_unplaced_components_dock.html#a538074349f49cbac4a031289b9a96e49" target="_top" xlink:title="~UnplacedComponentsDock">
<polygon fill="white" stroke="black" points="536.5,-120.5 536.5,-141.5 679.5,-141.5 679.5,-120.5 536.5,-120.5"/>
<text text-anchor="middle" x="608" y="-128.5" font-family="Helvetica,sans-Serif" font-size="10.00">~UnplacedComponentsDock</text>
</a>
</g>
<!-- Node5&#45;&gt;Node6 -->
<g id="edge10" class="edge"><title>Node5&#45;&gt;Node6</title>
<path fill="none" stroke="midnightblue" d="M469.09,-131C488.676,-131 513.205,-131 536.178,-131"/>
<polygon fill="midnightblue" stroke="midnightblue" points="469.046,-127.5 459.046,-131 469.046,-134.5 469.046,-127.5"/>
</g>
</g>
</svg>
