<?xml version="1.0" encoding="UTF-8" standalone="no"?>
<!DOCTYPE svg PUBLIC "-//W3C//DTD SVG 1.1//EN"
 "http://www.w3.org/Graphics/SVG/1.1/DTD/svg11.dtd">
<!-- Generated by graphviz version 2.26.3 (20100126.1600)
 -->
<!-- Title: on_btnAdd_clicked Pages: 1 -->
<svg width="798pt" height="878pt"
 viewBox="0.00 0.00 798.00 878.20" xmlns="http://www.w3.org/2000/svg" xmlns:xlink="http://www.w3.org/1999/xlink">
<g id="graph1" class="graph" transform="scale(1 1) rotate(0) translate(4 874.195)">
<title>on_btnAdd_clicked</title>
<polygon fill="white" stroke="white" points="-4,5 -4,-874.195 795,-874.195 795,5 -4,5"/>
<!-- Node1 -->
<g id="node1" class="node"><title>Node1</title>
<polygon fill="#bfbfbf" stroke="black" points="0.5,-381.695 0.5,-402.695 99.5,-402.695 99.5,-381.695 0.5,-381.695"/>
<text text-anchor="middle" x="50" y="-389.695" font-family="Helvetica,sans-Serif" font-size="10.00">on_btnAdd_clicked</text>
</g>
<!-- Node2 -->
<g id="node3" class="node"><title>Node2</title>
<a xlink:href="../../dc/dbb/classproject_1_1_unplaced_components_dock.html#a41c3c33dc2c3c5545110b742d536cc76" target="_top" xlink:title="addComponent">
<polygon fill="white" stroke="black" points="153.5,-759.695 153.5,-780.695 236.5,-780.695 236.5,-759.695 153.5,-759.695"/>
<text text-anchor="middle" x="195" y="-767.695" font-family="Helvetica,sans-Serif" font-size="10.00">addComponent</text>
</a>
</g>
<!-- Node1&#45;&gt;Node2 -->
<g id="edge2" class="edge"><title>Node1&#45;&gt;Node2</title>
<path fill="none" stroke="midnightblue" d="M54.0295,-402.7C73.7841,-454.198 160.521,-680.312 187.178,-749.805"/>
<polygon fill="midnightblue" stroke="midnightblue" points="184.072,-751.48 190.921,-759.563 190.608,-748.972 184.072,-751.48"/>
</g>
<!-- Node10 -->
<g id="node21" class="node"><title>Node10</title>
<a xlink:href="../../dd/d8a/classlibrary_1_1_library_base_element.html#ada9b237a8629c03e16491a72730b456b" target="_top" xlink:title="library::LibraryBaseElement\l::getUuid">
<polygon fill="white" stroke="black" points="476.5,-280.195 476.5,-314.195 613.5,-314.195 613.5,-280.195 476.5,-280.195"/>
<text text-anchor="start" x="484.5" y="-301.195" font-family="Helvetica,sans-Serif" font-size="10.00">library::LibraryBaseElement</text>
<text text-anchor="middle" x="545" y="-288.195" font-family="Helvetica,sans-Serif" font-size="10.00">::getUuid</text>
</a>
</g>
<!-- Node1&#45;&gt;Node10 -->
<g id="edge22" class="edge"><title>Node1&#45;&gt;Node10</title>
<path fill="none" stroke="midnightblue" d="M52.8902,-381.657C67.5409,-330.567 138.904,-107.8 290,-26.1954 348.658,5.48502 384.999,11.4791 440,-26.1954 461.288,-40.7772 515.596,-205.084 536.563,-270.53"/>
<polygon fill="midnightblue" stroke="midnightblue" points="533.257,-271.684 539.632,-280.147 539.926,-269.556 533.257,-271.684"/>
</g>
<!-- Node11 -->
<g id="node23" class="node"><title>Node11</title>
<a xlink:href="../../dc/dbb/classproject_1_1_unplaced_components_dock.html#ad000d7056be9060e68ab7f2548d12946" target="_top" xlink:title="updateComponentsList">
<polygon fill="white" stroke="black" points="136.5,-381.695 136.5,-402.695 253.5,-402.695 253.5,-381.695 136.5,-381.695"/>
<text text-anchor="middle" x="195" y="-389.695" font-family="Helvetica,sans-Serif" font-size="10.00">updateComponentsList</text>
</a>
</g>
<!-- Node1&#45;&gt;Node11 -->
<g id="edge24" class="edge"><title>Node1&#45;&gt;Node11</title>
<path fill="none" stroke="midnightblue" d="M99.9008,-392.195C108.321,-392.195 117.192,-392.195 125.995,-392.195"/>
<polygon fill="midnightblue" stroke="midnightblue" points="126.266,-395.696 136.266,-392.195 126.266,-388.696 126.266,-395.696"/>
</g>
<!-- Node3 -->
<g id="node5" class="node"><title>Node3</title>
<a xlink:href="../../df/df0/class_length.html#a796af485ddae7b24093b8b70f790c42b" target="_top" xlink:title="Get a Length object with a specific length and map it to a specific grid. ">
<polygon fill="white" stroke="black" points="321,-779.695 321,-800.695 409,-800.695 409,-779.695 321,-779.695"/>
<text text-anchor="middle" x="365" y="-787.695" font-family="Helvetica,sans-Serif" font-size="10.00">Length::fromMm</text>
</a>
</g>
<!-- Node2&#45;&gt;Node3 -->
<g id="edge4" class="edge"><title>Node2&#45;&gt;Node3</title>
<path fill="none" stroke="midnightblue" d="M236.587,-775.088C258.949,-777.719 286.792,-780.995 310.83,-783.822"/>
<polygon fill="midnightblue" stroke="midnightblue" points="310.531,-787.311 320.872,-785.004 311.349,-780.359 310.531,-787.311"/>
</g>
<!-- Node7 -->
<g id="node13" class="node"><title>Node7</title>
<a xlink:href="../../d0/d69/class_point.html#adb9043980e8c2b8b1f2289cd48a3e168" target="_top" xlink:title="Point::fromMm">
<polygon fill="white" stroke="black" points="324.5,-819.695 324.5,-840.695 405.5,-840.695 405.5,-819.695 324.5,-819.695"/>
<text text-anchor="middle" x="365" y="-827.695" font-family="Helvetica,sans-Serif" font-size="10.00">Point::fromMm</text>
</a>
</g>
<!-- Node2&#45;&gt;Node7 -->
<g id="edge12" class="edge"><title>Node2&#45;&gt;Node7</title>
<path fill="none" stroke="midnightblue" d="M217.693,-780.795C236.728,-789.431 264.771,-801.566 290,-810.195 297.796,-812.862 306.146,-815.395 314.341,-817.708"/>
<polygon fill="midnightblue" stroke="midnightblue" points="313.643,-821.145 324.212,-820.412 315.492,-814.394 313.643,-821.145"/>
</g>
<!-- Node9 -->
<g id="node19" class="node"><title>Node9</title>
<a xlink:href="../../df/d70/class_exception.html#aa530ab8cc747843c76a435c3075ed094" target="_top" xlink:title="Get the user error message (translated) ">
<polygon fill="white" stroke="black" points="305.5,-739.695 305.5,-760.695 424.5,-760.695 424.5,-739.695 305.5,-739.695"/>
<text text-anchor="middle" x="365" y="-747.695" font-family="Helvetica,sans-Serif" font-size="10.00">Exception::getUserMsg</text>
</a>
</g>
<!-- Node2&#45;&gt;Node9 -->
<g id="edge20" class="edge"><title>Node2&#45;&gt;Node9</title>
<path fill="none" stroke="midnightblue" d="M236.587,-765.303C254.246,-763.225 275.322,-760.746 295.243,-758.402"/>
<polygon fill="midnightblue" stroke="midnightblue" points="295.697,-761.873 305.219,-757.228 294.879,-754.921 295.697,-761.873"/>
</g>
<!-- Node4 -->
<g id="node7" class="node"><title>Node4</title>
<a xlink:href="../../df/df0/class_length.html#ad9d64077c16d3a2631a87b69cea3426d" target="_top" xlink:title="Set the length in millimeters. ">
<polygon fill="white" stroke="black" points="489.5,-790.695 489.5,-811.695 600.5,-811.695 600.5,-790.695 489.5,-790.695"/>
<text text-anchor="middle" x="545" y="-798.695" font-family="Helvetica,sans-Serif" font-size="10.00">Length::setLengthMm</text>
</a>
</g>
<!-- Node3&#45;&gt;Node4 -->
<g id="edge6" class="edge"><title>Node3&#45;&gt;Node4</title>
<path fill="none" stroke="midnightblue" d="M409.033,-792.886C430.157,-794.177 455.9,-795.75 479.28,-797.179"/>
<polygon fill="midnightblue" stroke="midnightblue" points="479.287,-800.686 489.482,-797.803 479.714,-793.699 479.287,-800.686"/>
</g>
<!-- Node6 -->
<g id="node11" class="node"><title>Node6</title>
<a xlink:href="../../df/df0/class_length.html#a12aaddfb6cccff89e294f502574fe869" target="_top" xlink:title="Map this Length object to a specific grid interval. ">
<polygon fill="white" stroke="black" points="495,-750.695 495,-771.695 595,-771.695 595,-750.695 495,-750.695"/>
<text text-anchor="middle" x="545" y="-758.695" font-family="Helvetica,sans-Serif" font-size="10.00">Length::mapToGrid</text>
</a>
</g>
<!-- Node3&#45;&gt;Node6 -->
<g id="edge10" class="edge"><title>Node3&#45;&gt;Node6</title>
<path fill="none" stroke="midnightblue" d="M409.033,-783.101C431.811,-779.432 459.958,-774.897 484.722,-770.907"/>
<polygon fill="midnightblue" stroke="midnightblue" points="485.427,-774.338 494.743,-769.292 484.314,-767.428 485.427,-774.338"/>
</g>
<!-- Node5 -->
<g id="node9" class="node"><title>Node5</title>
<a xlink:href="../../df/df0/class_length.html#a73dbcae99cc78c7f7e737d5211154527" target="_top" xlink:title="Set the length from a floating point number in nanometers. ">
<polygon fill="white" stroke="black" points="650.5,-790.695 650.5,-811.695 789.5,-811.695 789.5,-790.695 650.5,-790.695"/>
<text text-anchor="middle" x="720" y="-798.695" font-family="Helvetica,sans-Serif" font-size="10.00">Length::setLengthFromFloat</text>
</a>
</g>
<!-- Node4&#45;&gt;Node5 -->
<g id="edge8" class="edge"><title>Node4&#45;&gt;Node5</title>
<path fill="none" stroke="midnightblue" d="M600.852,-801.195C613.367,-801.195 626.88,-801.195 640.156,-801.195"/>
<polygon fill="midnightblue" stroke="midnightblue" points="640.241,-804.696 650.241,-801.195 640.241,-797.696 640.241,-804.696"/>
</g>
<!-- Node7&#45;&gt;Node4 -->
<g id="edge14" class="edge"><title>Node7&#45;&gt;Node4</title>
<path fill="none" stroke="midnightblue" d="M405.845,-823.615C427.542,-820.119 454.738,-815.738 479.317,-811.778"/>
<polygon fill="midnightblue" stroke="midnightblue" points="479.991,-815.214 489.306,-810.168 478.877,-808.304 479.991,-815.214"/>
</g>
<!-- Node8 -->
<g id="node16" class="node"><title>Node8</title>
<a xlink:href="../../d0/d69/class_point.html#aaf8d7a6826dcd72e03dc632960106b90" target="_top" xlink:title="Map this Point object to a specific grid interval. ">
<polygon fill="white" stroke="black" points="498.5,-830.695 498.5,-851.695 591.5,-851.695 591.5,-830.695 498.5,-830.695"/>
<text text-anchor="middle" x="545" y="-838.695" font-family="Helvetica,sans-Serif" font-size="10.00">Point::mapToGrid</text>
</a>
</g>
<!-- Node7&#45;&gt;Node8 -->
<g id="edge16" class="edge"><title>Node7&#45;&gt;Node8</title>
<path fill="none" stroke="midnightblue" d="M405.845,-832.692C430.218,-834.181 461.53,-836.094 488.278,-837.729"/>
<polygon fill="midnightblue" stroke="midnightblue" points="488.087,-841.224 498.281,-838.34 488.514,-834.237 488.087,-841.224"/>
</g>
<!-- Node8&#45;&gt;Node8 -->
<g id="edge18" class="edge"><title>Node8&#45;&gt;Node8</title>
<path fill="none" stroke="midnightblue" d="M517.353,-851.903C505.538,-860.849 514.754,-870.195 545,-870.195 564.849,-870.195 575.641,-866.17 577.376,-860.874"/>
<polygon fill="midnightblue" stroke="midnightblue" points="580.406,-859.117 572.647,-851.903 574.214,-862.382 580.406,-859.117"/>
</g>
<!-- Node11&#45;&gt;Node10 -->
<g id="edge54" class="edge"><title>Node11&#45;&gt;Node10</title>
<path fill="none" stroke="midnightblue" d="M203.552,-402.92C218.699,-420.947 252.227,-456.675 290,-470.195 352.767,-492.662 381.903,-502.894 440,-470.195 495.909,-438.728 525.482,-364.13 537.843,-323.942"/>
<polygon fill="midnightblue" stroke="midnightblue" points="541.221,-324.862 540.686,-314.281 534.506,-322.886 541.221,-324.862"/>
</g>
<!-- Node12 -->
<g id="node25" class="node"><title>Node12</title>
<a xlink:href="../../dc/dbb/classproject_1_1_unplaced_components_dock.html#a8b27105b4d0e8500f6c177ab8bde0b65" target="_top" xlink:title="setSelectedGenCompInstance">
<polygon fill="white" stroke="black" points="290,-661.695 290,-682.695 440,-682.695 440,-661.695 290,-661.695"/>
<text text-anchor="middle" x="365" y="-669.695" font-family="Helvetica,sans-Serif" font-size="10.00">setSelectedGenCompInstance</text>
</a>
</g>
<!-- Node11&#45;&gt;Node12 -->
<g id="edge26" class="edge"><title>Node11&#45;&gt;Node12</title>
<path fill="none" stroke="midnightblue" d="M195.529,-402.737C198.087,-442.033 212.495,-581.349 290,-652.195 291.697,-653.747 293.501,-655.18 295.39,-656.504"/>
<polygon fill="midnightblue" stroke="midnightblue" points="293.754,-659.602 304.152,-661.639 297.294,-653.563 293.754,-659.602"/>
</g>
<!-- Node13 -->
<g id="node27" class="node"><title>Node13</title>
<a xlink:href="../../dd/d8a/classlibrary_1_1_library_base_element.html#a01f0309d43de518f4e94c724d22f4502" target="_top" xlink:title="library::LibraryBaseElement\l::getName">
<polygon fill="white" stroke="black" points="476.5,-682.195 476.5,-716.195 613.5,-716.195 613.5,-682.195 476.5,-682.195"/>
<text text-anchor="start" x="484.5" y="-703.195" font-family="Helvetica,sans-Serif" font-size="10.00">library::LibraryBaseElement</text>
<text text-anchor="middle" x="545" y="-690.195" font-family="Helvetica,sans-Serif" font-size="10.00">::getName</text>
</a>
</g>
<!-- Node11&#45;&gt;Node13 -->
<g id="edge60" class="edge"><title>Node11&#45;&gt;Node13</title>
<path fill="none" stroke="midnightblue" d="M196.682,-402.7C204.727,-451.494 240.915,-655.207 290,-692.195 341.36,-730.899 416.501,-727.947 471.919,-718.143"/>
<polygon fill="midnightblue" stroke="midnightblue" points="472.847,-721.53 482.027,-716.241 471.553,-714.651 472.847,-721.53"/>
</g>
<!-- Node15 -->
<g id="node32" class="node"><title>Node15</title>
<a xlink:href="../../d2/d05/classproject_1_1_project.html#a8fac03aa9a740943b9193a49a31bd6ae" target="_top" xlink:title="Get the Circuit object. ">
<polygon fill="white" stroke="black" points="299.5,-621.695 299.5,-642.695 430.5,-642.695 430.5,-621.695 299.5,-621.695"/>
<text text-anchor="middle" x="365" y="-629.695" font-family="Helvetica,sans-Serif" font-size="10.00">project::Project::getCircuit</text>
</a>
</g>
<!-- Node11&#45;&gt;Node15 -->
<g id="edge34" class="edge"><title>Node11&#45;&gt;Node15</title>
<path fill="none" stroke="midnightblue" d="M196.318,-402.821C201.3,-438.305 222.277,-553.763 290,-612.195 291.782,-613.733 293.671,-615.154 295.642,-616.467"/>
<polygon fill="midnightblue" stroke="midnightblue" points="294.313,-619.734 304.749,-621.56 297.729,-613.624 294.313,-619.734"/>
</g>
<!-- Node16 -->
<g id="node34" class="node"><title>Node16</title>
<a xlink:href="../../d1/d03/classproject_1_1_circuit.html#af9d9d6ca29e9ad4c4591eeae0197ff08" target="_top" xlink:title="project::Circuit::getGen\lCompInstances">
<polygon fill="white" stroke="black" points="306,-569.195 306,-603.195 424,-603.195 424,-569.195 306,-569.195"/>
<text text-anchor="start" x="314" y="-590.195" font-family="Helvetica,sans-Serif" font-size="10.00">project::Circuit::getGen</text>
<text text-anchor="middle" x="365" y="-577.195" font-family="Helvetica,sans-Serif" font-size="10.00">CompInstances</text>
</a>
</g>
<!-- Node11&#45;&gt;Node16 -->
<g id="edge36" class="edge"><title>Node11&#45;&gt;Node16</title>
<path fill="none" stroke="midnightblue" d="M198.121,-402.993C207.211,-432.554 236.468,-515.568 290,-560.195 292.233,-562.057 294.607,-563.788 297.084,-565.398"/>
<polygon fill="midnightblue" stroke="midnightblue" points="295.428,-568.483 305.845,-570.416 298.907,-562.409 295.428,-568.483"/>
</g>
<!-- Node17 -->
<g id="node36" class="node"><title>Node17</title>
<a xlink:href="../../d5/d07/classproject_1_1_board.html#a392a41a5ac250cc2a623dbb2df12dfac" target="_top" xlink:title="project::Board::getComponent\lInstances">
<polygon fill="white" stroke="black" points="291.5,-517.195 291.5,-551.195 438.5,-551.195 438.5,-517.195 291.5,-517.195"/>
<text text-anchor="start" x="299.5" y="-538.195" font-family="Helvetica,sans-Serif" font-size="10.00">project::Board::getComponent</text>
<text text-anchor="middle" x="365" y="-525.195" font-family="Helvetica,sans-Serif" font-size="10.00">Instances</text>
</a>
</g>
<!-- Node11&#45;&gt;Node17 -->
<g id="edge38" class="edge"><title>Node11&#45;&gt;Node17</title>
<path fill="none" stroke="midnightblue" d="M201.577,-402.82C215.447,-424.448 249.753,-474.009 290,-503.195 294.749,-506.64 299.938,-509.784 305.298,-512.634"/>
<polygon fill="midnightblue" stroke="midnightblue" points="303.916,-515.855 314.431,-517.154 307.021,-509.582 303.916,-515.855"/>
</g>
<!-- Node18 -->
<g id="node38" class="node"><title>Node18</title>
<a xlink:href="../../de/d67/classproject_1_1_gen_comp_instance.html#ada9b237a8629c03e16491a72730b456b" target="_top" xlink:title="project::GenCompInstance\l::getUuid">
<polygon fill="white" stroke="black" points="298,-427.195 298,-461.195 432,-461.195 432,-427.195 298,-427.195"/>
<text text-anchor="start" x="306" y="-448.195" font-family="Helvetica,sans-Serif" font-size="10.00">project::GenCompInstance</text>
<text text-anchor="middle" x="365" y="-435.195" font-family="Helvetica,sans-Serif" font-size="10.00">::getUuid</text>
</a>
</g>
<!-- Node11&#45;&gt;Node18 -->
<g id="edge40" class="edge"><title>Node11&#45;&gt;Node18</title>
<path fill="none" stroke="midnightblue" d="M229.402,-402.718C249.526,-408.874 275.6,-416.849 299.499,-424.16"/>
<polygon fill="midnightblue" stroke="midnightblue" points="298.646,-427.559 309.233,-427.137 300.694,-420.865 298.646,-427.559"/>
</g>
<!-- Node19 -->
<g id="node40" class="node"><title>Node19</title>
<a xlink:href="../../de/d67/classproject_1_1_gen_comp_instance.html#abcd40fa7fd6f8d3d8e6f9630daa8b861" target="_top" xlink:title="project::GenCompInstance\l::getGenComp">
<polygon fill="white" stroke="black" points="298,-375.195 298,-409.195 432,-409.195 432,-375.195 298,-375.195"/>
<text text-anchor="start" x="306" y="-396.195" font-family="Helvetica,sans-Serif" font-size="10.00">project::GenCompInstance</text>
<text text-anchor="middle" x="365" y="-383.195" font-family="Helvetica,sans-Serif" font-size="10.00">::getGenComp</text>
</a>
</g>
<!-- Node11&#45;&gt;Node19 -->
<g id="edge42" class="edge"><title>Node11&#45;&gt;Node19</title>
<path fill="none" stroke="midnightblue" d="M253.504,-392.195C264.573,-392.195 276.307,-392.195 287.847,-392.195"/>
<polygon fill="midnightblue" stroke="midnightblue" points="287.916,-395.696 297.916,-392.195 287.916,-388.696 287.916,-395.696"/>
</g>
<!-- Node20 -->
<g id="node42" class="node"><title>Node20</title>
<a xlink:href="../../d7/d7c/classlibrary_1_1_generic_component.html#a9f78a2a936ffbbb66f8865343e93aed7" target="_top" xlink:title="library::GenericComponent\l::isSchematicOnly">
<polygon fill="white" stroke="black" points="298.5,-323.195 298.5,-357.195 431.5,-357.195 431.5,-323.195 298.5,-323.195"/>
<text text-anchor="start" x="306.5" y="-344.195" font-family="Helvetica,sans-Serif" font-size="10.00">library::GenericComponent</text>
<text text-anchor="middle" x="365" y="-331.195" font-family="Helvetica,sans-Serif" font-size="10.00">::isSchematicOnly</text>
</a>
</g>
<!-- Node11&#45;&gt;Node20 -->
<g id="edge44" class="edge"><title>Node11&#45;&gt;Node20</title>
<path fill="none" stroke="midnightblue" d="M229.402,-381.672C249.526,-375.517 275.6,-367.541 299.499,-360.231"/>
<polygon fill="midnightblue" stroke="midnightblue" points="300.694,-363.526 309.233,-357.254 298.646,-356.832 300.694,-363.526"/>
</g>
<!-- Node21 -->
<g id="node44" class="node"><title>Node21</title>
<a xlink:href="../../d2/d05/classproject_1_1_project.html#a1ce83ab861173e235c7a651243d02937" target="_top" xlink:title="Get the ProjectLibrary object which contains all library elements used in this project. ">
<polygon fill="white" stroke="black" points="299.5,-283.695 299.5,-304.695 430.5,-304.695 430.5,-283.695 299.5,-283.695"/>
<text text-anchor="middle" x="365" y="-291.695" font-family="Helvetica,sans-Serif" font-size="10.00">project::Project::getLibrary</text>
</a>
</g>
<!-- Node11&#45;&gt;Node21 -->
<g id="edge46" class="edge"><title>Node11&#45;&gt;Node21</title>
<path fill="none" stroke="midnightblue" d="M204.763,-381.683C220.904,-364.926 254.874,-332.216 290,-314.195 294.343,-311.967 298.958,-309.97 303.681,-308.181"/>
<polygon fill="midnightblue" stroke="midnightblue" points="305.167,-311.371 313.477,-304.798 302.882,-304.755 305.167,-311.371"/>
</g>
<!-- Node22 -->
<g id="node46" class="node"><title>Node22</title>
<a xlink:href="../../d9/d30/classproject_1_1_project_library.html#acc16ec02378a1c17f0b883ff8002e402" target="_top" xlink:title="project::ProjectLibrary\l::getComponentsOfGenComp">
<polygon fill="white" stroke="black" points="292,-35.1954 292,-69.1954 438,-69.1954 438,-35.1954 292,-35.1954"/>
<text text-anchor="start" x="300" y="-56.1954" font-family="Helvetica,sans-Serif" font-size="10.00">project::ProjectLibrary</text>
<text text-anchor="middle" x="365" y="-43.1954" font-family="Helvetica,sans-Serif" font-size="10.00">::getComponentsOfGenComp</text>
</a>
</g>
<!-- Node11&#45;&gt;Node22 -->
<g id="edge48" class="edge"><title>Node11&#45;&gt;Node22</title>
<path fill="none" stroke="midnightblue" d="M196.889,-381.53C205.863,-331.942 245.606,-124.397 290,-78.1954 290.913,-77.2452 291.863,-76.3297 292.844,-75.4476"/>
<polygon fill="midnightblue" stroke="midnightblue" points="295.08,-78.1449 300.941,-69.319 290.856,-72.5634 295.08,-78.1449"/>
</g>
<!-- Node24 -->
<g id="node52" class="node"><title>Node24</title>
<a xlink:href="../../de/d67/classproject_1_1_gen_comp_instance.html#ab0c96f485564e41206ce9a4ce42ba389" target="_top" xlink:title="project::GenCompInstance\l::getName">
<polygon fill="white" stroke="black" points="298,-231.195 298,-265.195 432,-265.195 432,-231.195 298,-231.195"/>
<text text-anchor="start" x="306" y="-252.195" font-family="Helvetica,sans-Serif" font-size="10.00">project::GenCompInstance</text>
<text text-anchor="middle" x="365" y="-239.195" font-family="Helvetica,sans-Serif" font-size="10.00">::getName</text>
</a>
</g>
<!-- Node11&#45;&gt;Node24 -->
<g id="edge56" class="edge"><title>Node11&#45;&gt;Node24</title>
<path fill="none" stroke="midnightblue" d="M200.862,-381.385C213.875,-358.366 247.417,-304.169 290,-274.195 292.071,-272.738 294.231,-271.356 296.456,-270.045"/>
<polygon fill="midnightblue" stroke="midnightblue" points="298.125,-273.122 305.316,-265.341 294.842,-266.939 298.125,-273.122"/>
</g>
<!-- Node25 -->
<g id="node54" class="node"><title>Node25</title>
<a xlink:href="../../de/d67/classproject_1_1_gen_comp_instance.html#a1dbc1371a264fd73efc4b08a38f115da" target="_top" xlink:title="project::GenCompInstance\l::getValue">
<polygon fill="white" stroke="black" points="298,-179.195 298,-213.195 432,-213.195 432,-179.195 298,-179.195"/>
<text text-anchor="start" x="306" y="-200.195" font-family="Helvetica,sans-Serif" font-size="10.00">project::GenCompInstance</text>
<text text-anchor="middle" x="365" y="-187.195" font-family="Helvetica,sans-Serif" font-size="10.00">::getValue</text>
</a>
</g>
<!-- Node11&#45;&gt;Node25 -->
<g id="edge58" class="edge"><title>Node11&#45;&gt;Node25</title>
<path fill="none" stroke="midnightblue" d="M198.082,-381.271C207.072,-351.36 236.098,-267.362 290,-222.195 291.38,-221.039 292.814,-219.933 294.294,-218.876"/>
<polygon fill="midnightblue" stroke="midnightblue" points="296.561,-221.587 303.199,-213.33 292.86,-215.645 296.561,-221.587"/>
</g>
<!-- Node26 -->
<g id="node57" class="node"><title>Node26</title>
<a xlink:href="../../d2/d05/classproject_1_1_project.html#a6054e079a2e370148fce27b138686ba3" target="_top" xlink:title="Get the ProjectSettings object which contains all project settings. ">
<polygon fill="white" stroke="black" points="296,-139.695 296,-160.695 434,-160.695 434,-139.695 296,-139.695"/>
<text text-anchor="middle" x="365" y="-147.695" font-family="Helvetica,sans-Serif" font-size="10.00">project::Project::getSettings</text>
</a>
</g>
<!-- Node11&#45;&gt;Node26 -->
<g id="edge62" class="edge"><title>Node11&#45;&gt;Node26</title>
<path fill="none" stroke="midnightblue" d="M196.286,-381.476C201.165,-345.676 221.854,-229.188 290,-170.195 291.78,-168.655 293.666,-167.231 295.636,-165.916"/>
<polygon fill="midnightblue" stroke="midnightblue" points="297.724,-168.758 304.736,-160.816 294.301,-162.651 297.724,-168.758"/>
</g>
<!-- Node27 -->
<g id="node59" class="node"><title>Node27</title>
<a xlink:href="../../d7/d04/classproject_1_1_project_settings.html#a4e1f38901d0cab44a6bdae922a877b22" target="_top" xlink:title="project::ProjectSettings\l::getLocaleOrder">
<polygon fill="white" stroke="black" points="305.5,-87.1954 305.5,-121.195 424.5,-121.195 424.5,-87.1954 305.5,-87.1954"/>
<text text-anchor="start" x="313.5" y="-108.195" font-family="Helvetica,sans-Serif" font-size="10.00">project::ProjectSettings</text>
<text text-anchor="middle" x="365" y="-95.1954" font-family="Helvetica,sans-Serif" font-size="10.00">::getLocaleOrder</text>
</a>
</g>
<!-- Node11&#45;&gt;Node27 -->
<g id="edge64" class="edge"><title>Node11&#45;&gt;Node27</title>
<path fill="none" stroke="midnightblue" d="M195.693,-381.486C198.812,-342.172 214.891,-204.249 290,-130.195 292.07,-128.155 294.308,-126.273 296.672,-124.54"/>
<polygon fill="midnightblue" stroke="midnightblue" points="298.551,-127.493 305.137,-119.194 294.813,-121.574 298.551,-127.493"/>
</g>
<!-- Node12&#45;&gt;Node10 -->
<g id="edge32" class="edge"><title>Node12&#45;&gt;Node10</title>
<path fill="none" stroke="midnightblue" d="M426.83,-661.538C431.651,-659.028 436.137,-655.955 440,-652.195 488.067,-605.408 527.556,-398.905 540.499,-324.247"/>
<polygon fill="midnightblue" stroke="midnightblue" points="543.978,-324.67 542.214,-314.223 537.078,-323.489 543.978,-324.67"/>
</g>
<!-- Node12&#45;&gt;Node13 -->
<g id="edge28" class="edge"><title>Node12&#45;&gt;Node13</title>
<path fill="none" stroke="midnightblue" d="M435.108,-682.712C445.357,-684.249 455.967,-685.841 466.372,-687.401"/>
<polygon fill="midnightblue" stroke="midnightblue" points="465.857,-690.863 476.266,-688.885 466.895,-683.941 465.857,-690.863"/>
</g>
<!-- Node14 -->
<g id="node29" class="node"><title>Node14</title>
<a xlink:href="../../dd/d8a/classlibrary_1_1_library_base_element.html#a3de489fd5ff14ef1709e7ba41628ab3e" target="_top" xlink:title="Get the string of a specific locale from a QMap. ">
<polygon fill="white" stroke="black" points="651.5,-682.195 651.5,-716.195 788.5,-716.195 788.5,-682.195 651.5,-682.195"/>
<text text-anchor="start" x="659.5" y="-703.195" font-family="Helvetica,sans-Serif" font-size="10.00">library::LibraryBaseElement</text>
<text text-anchor="middle" x="720" y="-690.195" font-family="Helvetica,sans-Serif" font-size="10.00">::localeStringFromList</text>
</a>
</g>
<!-- Node13&#45;&gt;Node14 -->
<g id="edge30" class="edge"><title>Node13&#45;&gt;Node14</title>
<path fill="none" stroke="midnightblue" d="M613.662,-699.195C622.637,-699.195 631.89,-699.195 641.017,-699.195"/>
<polygon fill="midnightblue" stroke="midnightblue" points="641.248,-702.696 651.248,-699.195 641.248,-695.696 641.248,-702.696"/>
</g>
<!-- Node22&#45;&gt;Node10 -->
<g id="edge52" class="edge"><title>Node22&#45;&gt;Node10</title>
<path fill="none" stroke="midnightblue" d="M427.401,-69.2684C431.925,-71.8429 436.196,-74.8 440,-78.1954 499.096,-130.945 528.003,-224.214 539.204,-270.124"/>
<polygon fill="midnightblue" stroke="midnightblue" points="535.817,-271.01 541.505,-279.949 542.633,-269.414 535.817,-271.01"/>
</g>
<!-- Node23 -->
<g id="node48" class="node"><title>Node23</title>
<a xlink:href="../../d3/dad/classlibrary_1_1_component.html#a88f1a973e2036997bc17ce0782c36587" target="_top" xlink:title="library::Component\l::getGenCompUuid">
<polygon fill="white" stroke="black" points="494.5,-35.1954 494.5,-69.1954 595.5,-69.1954 595.5,-35.1954 494.5,-35.1954"/>
<text text-anchor="start" x="502.5" y="-56.1954" font-family="Helvetica,sans-Serif" font-size="10.00">library::Component</text>
<text text-anchor="middle" x="545" y="-43.1954" font-family="Helvetica,sans-Serif" font-size="10.00">::getGenCompUuid</text>
</a>
</g>
<!-- Node22&#45;&gt;Node23 -->
<g id="edge50" class="edge"><title>Node22&#45;&gt;Node23</title>
<path fill="none" stroke="midnightblue" d="M438.213,-52.1954C453.555,-52.1954 469.572,-52.1954 484.393,-52.1954"/>
<polygon fill="midnightblue" stroke="midnightblue" points="484.441,-55.6955 494.441,-52.1954 484.441,-48.6955 484.441,-55.6955"/>
</g>
</g>
</svg>
