<?xml version="1.0" encoding="UTF-8" standalone="no"?>
<!DOCTYPE svg PUBLIC "-//W3C//DTD SVG 1.1//EN"
 "http://www.w3.org/Graphics/SVG/1.1/DTD/svg11.dtd">
<!-- Generated by graphviz version 2.26.3 (20100126.1600)
 -->
<!-- Title: /home/travis/build/LibrePCB/LibrePCB/libs/librepcblibrary/sym/symbolellipse.cpp Pages: 1 -->
<svg width="576pt" height="446pt"
 viewBox="0.00 0.00 576.00 446.00" xmlns="http://www.w3.org/2000/svg" xmlns:xlink="http://www.w3.org/1999/xlink">
<g id="graph1" class="graph" transform="scale(1 1) rotate(0) translate(4 442)">
<title>/home/travis/build/LibrePCB/LibrePCB/libs/librepcblibrary/sym/symbolellipse.cpp</title>
<polygon fill="white" stroke="white" points="-4,5 -4,-442 573,-442 573,5 -4,5"/>
<!-- Node1 -->
<g id="node1" class="node"><title>Node1</title>
<polygon fill="#bfbfbf" stroke="black" points="72,-390.5 72,-437.5 254,-437.5 254,-390.5 72,-390.5"/>
<text text-anchor="start" x="80" y="-424.5" font-family="Helvetica,sans-Serif" font-size="10.00">/home/travis/build</text>
<text text-anchor="start" x="80" y="-411.5" font-family="Helvetica,sans-Serif" font-size="10.00">/LibrePCB/LibrePCB/libs</text>
<text text-anchor="middle" x="163" y="-398.5" font-family="Helvetica,sans-Serif" font-size="10.00">/librepcblibrary/sym/symbolellipse.cpp</text>
</g>
<!-- Node2 -->
<g id="node3" class="node"><title>Node2</title>
<polygon fill="white" stroke="#bfbfbf" points="188,-0.5 188,-21.5 236,-21.5 236,-0.5 188,-0.5"/>
<text text-anchor="middle" x="212" y="-8.5" font-family="Helvetica,sans-Serif" font-size="10.00">QtCore</text>
</g>
<!-- Node1&#45;&gt;Node2 -->
<g id="edge2" class="edge"><title>Node1&#45;&gt;Node2</title>
<path fill="none" stroke="midnightblue" d="M99.5132,-390.495C53.7455,-368.978 0,-332.177 0,-278 0,-278 0,-278 0,-134 0,-52.914 117.466,-24.3913 177.522,-15.1075"/>
<polygon fill="midnightblue" stroke="midnightblue" points="178.286,-18.5335 187.681,-13.6361 177.282,-11.6058 178.286,-18.5335"/>
</g>
<!-- Node3 -->
<g id="node5" class="node"><title>Node3</title>
<a xlink:href="../../db/d4a/symbolellipse_8h.html" target="_top" xlink:title="symbolellipse.h">
<polygon fill="white" stroke="black" points="121,-332.5 121,-353.5 205,-353.5 205,-332.5 121,-332.5"/>
<text text-anchor="middle" x="163" y="-340.5" font-family="Helvetica,sans-Serif" font-size="10.00">symbolellipse.h</text>
</a>
</g>
<!-- Node1&#45;&gt;Node3 -->
<g id="edge4" class="edge"><title>Node1&#45;&gt;Node3</title>
<path fill="none" stroke="midnightblue" d="M163,-390.358C163,-381.719 163,-372.022 163,-363.662"/>
<polygon fill="midnightblue" stroke="midnightblue" points="166.5,-363.646 163,-353.646 159.5,-363.646 166.5,-363.646"/>
</g>
<!-- Node11 -->
<g id="node31" class="node"><title>Node11</title>
<a xlink:href="../../d1/d68/xmldomelement_8h.html" target="_top" xlink:title="librepcbcommon/fileio\l/xmldomelement.h">
<polygon fill="white" stroke="black" points="368.5,-117 368.5,-151 479.5,-151 479.5,-117 368.5,-117"/>
<text text-anchor="start" x="376.5" y="-138" font-family="Helvetica,sans-Serif" font-size="10.00">librepcbcommon/fileio</text>
<text text-anchor="middle" x="424" y="-125" font-family="Helvetica,sans-Serif" font-size="10.00">/xmldomelement.h</text>
</a>
</g>
<!-- Node1&#45;&gt;Node11 -->
<g id="edge40" class="edge"><title>Node1&#45;&gt;Node11</title>
<path fill="none" stroke="midnightblue" d="M209.849,-390.452C265.514,-359.931 356.884,-301.326 405,-224 416.762,-205.097 421.348,-180.091 423.086,-161.235"/>
<polygon fill="midnightblue" stroke="midnightblue" points="426.581,-161.427 423.799,-151.204 419.599,-160.931 426.581,-161.427"/>
</g>
<!-- Node3&#45;&gt;Node2 -->
<g id="edge6" class="edge"><title>Node3&#45;&gt;Node2</title>
<path fill="none" stroke="midnightblue" d="M142.078,-332.421C106.493,-312.767 38,-267.014 38,-206 38,-206 38,-206 38,-134 38,-66.1654 127.271,-32.402 177.928,-18.7037"/>
<polygon fill="midnightblue" stroke="midnightblue" points="178.998,-22.0422 187.806,-16.1537 177.249,-15.2644 178.998,-22.0422"/>
</g>
<!-- Node4 -->
<g id="node8" class="node"><title>Node4</title>
<a xlink:href="../../d1/da8/all__length__units_8h.html" target="_top" xlink:title="librepcbcommon/units\l/all_length_units.h">
<polygon fill="white" stroke="black" points="107,-261 107,-295 219,-295 219,-261 107,-261"/>
<text text-anchor="start" x="115" y="-282" font-family="Helvetica,sans-Serif" font-size="10.00">librepcbcommon/units</text>
<text text-anchor="middle" x="163" y="-269" font-family="Helvetica,sans-Serif" font-size="10.00">/all_length_units.h</text>
</a>
</g>
<!-- Node3&#45;&gt;Node4 -->
<g id="edge8" class="edge"><title>Node3&#45;&gt;Node4</title>
<path fill="none" stroke="midnightblue" d="M163,-332.267C163,-324.931 163,-314.857 163,-305.38"/>
<polygon fill="midnightblue" stroke="midnightblue" points="166.5,-305.11 163,-295.11 159.5,-305.11 166.5,-305.11"/>
</g>
<!-- Node10 -->
<g id="node28" class="node"><title>Node10</title>
<a xlink:href="../../d0/d1d/if__xmlserializableobject_8h.html" target="_top" xlink:title="librepcbcommon/fileio\l/if_xmlserializableobject.h">
<polygon fill="white" stroke="black" points="267.5,-189 267.5,-223 396.5,-223 396.5,-189 267.5,-189"/>
<text text-anchor="start" x="275.5" y="-210" font-family="Helvetica,sans-Serif" font-size="10.00">librepcbcommon/fileio</text>
<text text-anchor="middle" x="332" y="-197" font-family="Helvetica,sans-Serif" font-size="10.00">/if_xmlserializableobject.h</text>
</a>
</g>
<!-- Node3&#45;&gt;Node10 -->
<g id="edge36" class="edge"><title>Node3&#45;&gt;Node10</title>
<path fill="none" stroke="midnightblue" d="M178.514,-332.354C191.862,-323.06 211.514,-309.053 228,-296 255.223,-274.445 285.077,-248.337 305.789,-229.805"/>
<polygon fill="midnightblue" stroke="midnightblue" points="308.154,-232.384 313.254,-223.098 303.476,-227.177 308.154,-232.384"/>
</g>
<!-- Node5 -->
<g id="node10" class="node"><title>Node5</title>
<a xlink:href="../../d0/d09/lengthunit_8h.html" target="_top" xlink:title="lengthunit.h">
<polygon fill="white" stroke="black" points="65.5,-123.5 65.5,-144.5 132.5,-144.5 132.5,-123.5 65.5,-123.5"/>
<text text-anchor="middle" x="99" y="-131.5" font-family="Helvetica,sans-Serif" font-size="10.00">lengthunit.h</text>
</a>
</g>
<!-- Node4&#45;&gt;Node5 -->
<g id="edge10" class="edge"><title>Node4&#45;&gt;Node5</title>
<path fill="none" stroke="midnightblue" d="M155.407,-260.916C143.493,-234.11 120.467,-182.3 107.831,-153.869"/>
<polygon fill="midnightblue" stroke="midnightblue" points="110.945,-152.258 103.685,-144.541 104.548,-155.101 110.945,-152.258"/>
</g>
<!-- Node7 -->
<g id="node16" class="node"><title>Node7</title>
<a xlink:href="../../dd/db9/length_8h.html" target="_top" xlink:title="length.h">
<polygon fill="white" stroke="black" points="149.5,-123.5 149.5,-144.5 200.5,-144.5 200.5,-123.5 149.5,-123.5"/>
<text text-anchor="middle" x="175" y="-131.5" font-family="Helvetica,sans-Serif" font-size="10.00">length.h</text>
</a>
</g>
<!-- Node4&#45;&gt;Node7 -->
<g id="edge18" class="edge"><title>Node4&#45;&gt;Node7</title>
<path fill="none" stroke="midnightblue" d="M159.581,-260.973C156.462,-242.793 152.911,-213.196 157,-188 158.88,-176.417 162.889,-163.96 166.647,-153.933"/>
<polygon fill="midnightblue" stroke="midnightblue" points="169.954,-155.088 170.373,-144.502 163.444,-152.516 169.954,-155.088"/>
</g>
<!-- Node8 -->
<g id="node20" class="node"><title>Node8</title>
<a xlink:href="../../d2/d91/point_8h.html" target="_top" xlink:title="point.h">
<polygon fill="white" stroke="black" points="166,-195.5 166,-216.5 212,-216.5 212,-195.5 166,-195.5"/>
<text text-anchor="middle" x="189" y="-203.5" font-family="Helvetica,sans-Serif" font-size="10.00">point.h</text>
</a>
</g>
<!-- Node4&#45;&gt;Node8 -->
<g id="edge24" class="edge"><title>Node4&#45;&gt;Node8</title>
<path fill="none" stroke="midnightblue" d="M169.162,-260.937C172.894,-250.601 177.678,-237.352 181.613,-226.456"/>
<polygon fill="midnightblue" stroke="midnightblue" points="184.959,-227.495 185.064,-216.901 178.375,-225.118 184.959,-227.495"/>
</g>
<!-- Node9 -->
<g id="node24" class="node"><title>Node9</title>
<a xlink:href="../../da/dac/angle_8h.html" target="_top" xlink:title="angle.h">
<polygon fill="white" stroke="black" points="256,-123.5 256,-144.5 304,-144.5 304,-123.5 256,-123.5"/>
<text text-anchor="middle" x="280" y="-131.5" font-family="Helvetica,sans-Serif" font-size="10.00">angle.h</text>
</a>
</g>
<!-- Node4&#45;&gt;Node9 -->
<g id="edge30" class="edge"><title>Node4&#45;&gt;Node9</title>
<path fill="none" stroke="midnightblue" d="M183.758,-260.858C195.372,-250.75 209.735,-237.356 221,-224 240.079,-201.38 258.135,-172.298 269.13,-153.409"/>
<polygon fill="midnightblue" stroke="midnightblue" points="272.272,-154.966 274.204,-144.549 266.197,-151.487 272.272,-154.966"/>
</g>
<!-- Node5&#45;&gt;Node2 -->
<g id="edge12" class="edge"><title>Node5&#45;&gt;Node2</title>
<path fill="none" stroke="midnightblue" d="M109.028,-123.085C128.426,-101.97 171.274,-55.3298 195.131,-29.3616"/>
<polygon fill="midnightblue" stroke="midnightblue" points="197.968,-31.4473 202.156,-21.7153 192.813,-26.7116 197.968,-31.4473"/>
</g>
<!-- Node6 -->
<g id="node13" class="node"><title>Node6</title>
<a xlink:href="../../d4/d03/exceptions_8h.html" target="_top" xlink:title="../exceptions.h">
<polygon fill="white" stroke="black" points="239.5,-58.5 239.5,-79.5 320.5,-79.5 320.5,-58.5 239.5,-58.5"/>
<text text-anchor="middle" x="280" y="-66.5" font-family="Helvetica,sans-Serif" font-size="10.00">../exceptions.h</text>
</a>
</g>
<!-- Node5&#45;&gt;Node6 -->
<g id="edge14" class="edge"><title>Node5&#45;&gt;Node6</title>
<path fill="none" stroke="midnightblue" d="M122.854,-123.391C128.748,-120.877 135.073,-118.268 141,-116 172.678,-103.878 209.006,-91.6511 236.577,-82.7079"/>
<polygon fill="midnightblue" stroke="midnightblue" points="237.87,-85.9683 246.313,-79.5679 235.722,-79.3062 237.87,-85.9683"/>
</g>
<!-- Node6&#45;&gt;Node2 -->
<g id="edge16" class="edge"><title>Node6&#45;&gt;Node2</title>
<path fill="none" stroke="midnightblue" d="M267.528,-58.3619C257.655,-49.9408 243.667,-38.0105 232.202,-28.2308"/>
<polygon fill="midnightblue" stroke="midnightblue" points="234.273,-25.3972 224.393,-21.5707 229.73,-30.7231 234.273,-25.3972"/>
</g>
<!-- Node7&#45;&gt;Node2 -->
<g id="edge20" class="edge"><title>Node7&#45;&gt;Node2</title>
<path fill="none" stroke="midnightblue" d="M178.284,-123.085C184.47,-102.518 197.941,-57.7354 205.856,-31.4262"/>
<polygon fill="midnightblue" stroke="midnightblue" points="209.248,-32.2997 208.777,-21.7153 202.544,-30.2832 209.248,-32.2997"/>
</g>
<!-- Node7&#45;&gt;Node6 -->
<g id="edge22" class="edge"><title>Node7&#45;&gt;Node6</title>
<path fill="none" stroke="midnightblue" d="M192.339,-123.267C209.234,-112.807 235.121,-96.782 254.39,-84.8541"/>
<polygon fill="midnightblue" stroke="midnightblue" points="256.324,-87.7732 262.984,-79.5337 252.639,-81.8214 256.324,-87.7732"/>
</g>
<!-- Node8&#45;&gt;Node2 -->
<g id="edge26" class="edge"><title>Node8&#45;&gt;Node2</title>
<path fill="none" stroke="midnightblue" d="M194.251,-195.14C199.121,-184.45 206.048,-167.518 209,-152 217.003,-109.93 215.471,-59.5297 213.697,-31.8192"/>
<polygon fill="midnightblue" stroke="midnightblue" points="217.181,-31.4628 212.974,-21.7387 210.198,-31.9635 217.181,-31.4628"/>
</g>
<!-- Node8&#45;&gt;Node7 -->
<g id="edge28" class="edge"><title>Node8&#45;&gt;Node7</title>
<path fill="none" stroke="midnightblue" d="M186.934,-195.376C184.866,-184.741 181.63,-168.095 179.048,-154.82"/>
<polygon fill="midnightblue" stroke="midnightblue" points="182.419,-153.816 177.074,-144.667 175.547,-155.152 182.419,-153.816"/>
</g>
<!-- Node9&#45;&gt;Node2 -->
<g id="edge32" class="edge"><title>Node9&#45;&gt;Node2</title>
<path fill="none" stroke="midnightblue" d="M295.565,-123.331C315.18,-108.54 344.561,-81.0213 329,-58 310.629,-30.8229 273.675,-19.3582 246.188,-14.5232"/>
<polygon fill="midnightblue" stroke="midnightblue" points="246.593,-11.0443 236.176,-12.9758 245.524,-17.9622 246.593,-11.0443"/>
</g>
<!-- Node9&#45;&gt;Node6 -->
<g id="edge34" class="edge"><title>Node9&#45;&gt;Node6</title>
<path fill="none" stroke="midnightblue" d="M280,-123.267C280,-114.18 280,-100.892 280,-89.7395"/>
<polygon fill="midnightblue" stroke="midnightblue" points="283.5,-89.5337 280,-79.5337 276.5,-89.5337 283.5,-89.5337"/>
</g>
<!-- Node10&#45;&gt;Node6 -->
<g id="edge38" class="edge"><title>Node10&#45;&gt;Node6</title>
<path fill="none" stroke="midnightblue" d="M330.448,-188.79C328.303,-170.199 323.442,-140.018 313,-116 308.679,-106.062 302.079,-96.091 295.914,-87.906"/>
<polygon fill="midnightblue" stroke="midnightblue" points="298.467,-85.4913 289.523,-79.8116 292.973,-89.8291 298.467,-85.4913"/>
</g>
<!-- Node11&#45;&gt;Node2 -->
<g id="edge42" class="edge"><title>Node11&#45;&gt;Node2</title>
<path fill="none" stroke="midnightblue" d="M409.936,-116.699C395.295,-99.6803 370.914,-73.9905 345,-58 313.909,-38.8152 273.89,-26.0295 245.906,-18.6997"/>
<polygon fill="midnightblue" stroke="midnightblue" points="246.731,-15.2984 236.179,-16.2443 245.018,-22.0855 246.731,-15.2984"/>
</g>
<!-- Node11&#45;&gt;Node6 -->
<g id="edge46" class="edge"><title>Node11&#45;&gt;Node6</title>
<path fill="none" stroke="midnightblue" d="M386.166,-116.922C363.373,-106.634 334.634,-93.6612 312.807,-83.8086"/>
<polygon fill="midnightblue" stroke="midnightblue" points="314.167,-80.5825 303.612,-79.6584 311.287,-86.9627 314.167,-80.5825"/>
</g>
<!-- Node12 -->
<g id="node34" class="node"><title>Node12</title>
<polygon fill="white" stroke="#bfbfbf" points="413.5,-58.5 413.5,-79.5 494.5,-79.5 494.5,-58.5 413.5,-58.5"/>
<text text-anchor="middle" x="454" y="-66.5" font-family="Helvetica,sans-Serif" font-size="10.00">QDomElement</text>
</g>
<!-- Node11&#45;&gt;Node12 -->
<g id="edge44" class="edge"><title>Node11&#45;&gt;Node12</title>
<path fill="none" stroke="midnightblue" d="M431.882,-116.922C435.818,-108.395 440.604,-98.0251 444.716,-89.1151"/>
<polygon fill="midnightblue" stroke="midnightblue" points="447.979,-90.3984 448.991,-79.8521 441.623,-87.465 447.979,-90.3984"/>
</g>
<!-- Node13 -->
<g id="node37" class="node"><title>Node13</title>
<a xlink:href="../../dd/dec/filepath_8h.html" target="_top" xlink:title="filepath.h">
<polygon fill="white" stroke="black" points="512,-58.5 512,-79.5 568,-79.5 568,-58.5 512,-58.5"/>
<text text-anchor="middle" x="540" y="-66.5" font-family="Helvetica,sans-Serif" font-size="10.00">filepath.h</text>
</a>
</g>
<!-- Node11&#45;&gt;Node13 -->
<g id="edge48" class="edge"><title>Node11&#45;&gt;Node13</title>
<path fill="none" stroke="midnightblue" d="M454.478,-116.922C472.262,-106.957 494.541,-94.4729 511.9,-84.7455"/>
<polygon fill="midnightblue" stroke="midnightblue" points="513.966,-87.6001 520.979,-79.6584 510.544,-81.4934 513.966,-87.6001"/>
</g>
<!-- Node13&#45;&gt;Node2 -->
<g id="edge50" class="edge"><title>Node13&#45;&gt;Node2</title>
<path fill="none" stroke="midnightblue" d="M511.817,-60.214C508.854,-59.4124 505.875,-58.6566 503,-58 411.326,-37.0612 301.331,-21.9667 246.547,-15.1144"/>
<polygon fill="midnightblue" stroke="midnightblue" points="246.701,-11.6069 236.348,-13.8545 245.843,-18.5541 246.701,-11.6069"/>
</g>
</g>
</svg>
