<?xml version="1.0" encoding="UTF-8" standalone="no"?>
<!DOCTYPE svg PUBLIC "-//W3C//DTD SVG 1.1//EN"
 "http://www.w3.org/Graphics/SVG/1.1/DTD/svg11.dtd">
<!-- Generated by graphviz version 2.26.3 (20100126.1600)
 -->
<!-- Title: processSubStateIdle Pages: 1 -->
<svg width="334pt" height="30pt"
 viewBox="0.00 0.00 334.00 30.00" xmlns="http://www.w3.org/2000/svg" xmlns:xlink="http://www.w3.org/1999/xlink">
<g id="graph1" class="graph" transform="scale(1 1) rotate(0) translate(4 26)">
<title>processSubStateIdle</title>
<polygon fill="white" stroke="white" points="-4,5 -4,-26 331,-26 331,5 -4,5"/>
<!-- Node1 -->
<g id="node1" class="node"><title>Node1</title>
<polygon fill="#bfbfbf" stroke="black" points="0.5,-0.5 0.5,-21.5 107.5,-21.5 107.5,-0.5 0.5,-0.5"/>
<text text-anchor="middle" x="54" y="-8.5" font-family="Helvetica,sans-Serif" font-size="10.00">processSubStateIdle</text>
</g>
<!-- Node2 -->
<g id="node3" class="node"><title>Node2</title>
<a xlink:href="../../d2/d39/class_angle.html#a7f29e0cf68871bab5b01569d78de4504" target="_top" xlink:title="90 degrees ">
<polygon fill="white" stroke="black" points="144,-0.5 144,-21.5 218,-21.5 218,-0.5 144,-0.5"/>
<text text-anchor="middle" x="181" y="-8.5" font-family="Helvetica,sans-Serif" font-size="10.00">Angle::deg90</text>
</a>
</g>
<!-- Node1&#45;&gt;Node2 -->
<g id="edge2" class="edge"><title>Node1&#45;&gt;Node2</title>
<path fill="none" stroke="midnightblue" d="M107.859,-11C116.511,-11 125.407,-11 133.884,-11"/>
<polygon fill="midnightblue" stroke="midnightblue" points="133.973,-14.5001 143.973,-11 133.973,-7.5001 133.973,-14.5001"/>
</g>
<!-- Node3 -->
<g id="node5" class="node"><title>Node3</title>
<a xlink:href="../../d2/d39/class_angle.html#ae0cfbf0d84fd0eab0f9dfc1b365b8667" target="_top" xlink:title="Default Constructor. ">
<polygon fill="white" stroke="black" points="254,-0.5 254,-21.5 326,-21.5 326,-0.5 254,-0.5"/>
<text text-anchor="middle" x="290" y="-8.5" font-family="Helvetica,sans-Serif" font-size="10.00">Angle::Angle</text>
</a>
</g>
<!-- Node2&#45;&gt;Node3 -->
<g id="edge4" class="edge"><title>Node2&#45;&gt;Node3</title>
<path fill="none" stroke="midnightblue" d="M218.207,-11C226.362,-11 235.094,-11 243.56,-11"/>
<polygon fill="midnightblue" stroke="midnightblue" points="243.699,-14.5001 253.699,-11 243.699,-7.5001 243.699,-14.5001"/>
</g>
</g>
</svg>
