<?xml version="1.0" encoding="UTF-8" standalone="no"?>
<!DOCTYPE svg PUBLIC "-//W3C//DTD SVG 1.1//EN"
 "http://www.w3.org/Graphics/SVG/1.1/DTD/svg11.dtd">
<!-- Generated by graphviz version 2.26.3 (20100126.1600)
 -->
<!-- Title: undo Pages: 1 -->
<svg width="520pt" height="82pt"
 viewBox="0.00 0.00 520.00 82.00" xmlns="http://www.w3.org/2000/svg" xmlns:xlink="http://www.w3.org/1999/xlink">
<g id="graph1" class="graph" transform="scale(1 1) rotate(0) translate(4 78)">
<title>undo</title>
<polygon fill="white" stroke="white" points="-4,5 -4,-78 517,-78 517,5 -4,5"/>
<!-- Node1 -->
<g id="node1" class="node"><title>Node1</title>
<polygon fill="#bfbfbf" stroke="black" points="0,-23.5 0,-44.5 38,-44.5 38,-23.5 0,-23.5"/>
<text text-anchor="middle" x="19" y="-31.5" font-family="Helvetica,sans-Serif" font-size="10.00">undo</text>
</g>
<!-- Node2 -->
<g id="node3" class="node"><title>Node2</title>
<a xlink:href="../../d1/d03/classproject_1_1_circuit.html#a46c386323e7a40208247ac314530925b" target="_top" xlink:title="project::Circuit::setNet\lSignalName">
<polygon fill="white" stroke="black" points="74,-40 74,-74 190,-74 190,-40 74,-40"/>
<text text-anchor="start" x="82" y="-61" font-family="Helvetica,sans-Serif" font-size="10.00">project::Circuit::setNet</text>
<text text-anchor="middle" x="132" y="-48" font-family="Helvetica,sans-Serif" font-size="10.00">SignalName</text>
</a>
</g>
<!-- Node1&#45;&gt;Node2 -->
<g id="edge2" class="edge"><title>Node1&#45;&gt;Node2</title>
<path fill="none" stroke="midnightblue" d="M38.1689,-37.9016C45.5528,-39.4046 54.4765,-41.2209 63.8472,-43.1282"/>
<polygon fill="midnightblue" stroke="midnightblue" points="63.2314,-46.5745 73.7286,-45.1394 64.6276,-39.7152 63.2314,-46.5745"/>
</g>
<!-- Node3 -->
<g id="node5" class="node"><title>Node3</title>
<a xlink:href="../../d3/d26/class_undo_command.html#a0e1e7804a53f6d62efc72c9bdbec8571" target="_top" xlink:title="Undo the command (and all child commands in reverse order) ">
<polygon fill="white" stroke="black" points="76,-0.5 76,-21.5 188,-21.5 188,-0.5 76,-0.5"/>
<text text-anchor="middle" x="132" y="-8.5" font-family="Helvetica,sans-Serif" font-size="10.00">UndoCommand::undo</text>
</a>
</g>
<!-- Node1&#45;&gt;Node3 -->
<g id="edge4" class="edge"><title>Node1&#45;&gt;Node3</title>
<path fill="none" stroke="midnightblue" d="M38.1689,-30.0984C47.2205,-28.256 58.5858,-25.9427 70.2522,-23.5681"/>
<polygon fill="midnightblue" stroke="midnightblue" points="70.9776,-26.9923 80.0786,-21.5681 69.5814,-20.133 70.9776,-26.9923"/>
</g>
<!-- Node4 -->
<g id="node7" class="node"><title>Node4</title>
<a xlink:href="../../d3/d26/class_undo_command.html#ae57d776a4010cbabb44c03d9ac6514eb" target="_top" xlink:title="This method shows whether that command is executed (redo() called one time more than undo()) ...">
<polygon fill="white" stroke="black" points="372,-19.5 372,-40.5 512,-40.5 512,-19.5 372,-19.5"/>
<text text-anchor="middle" x="442" y="-27.5" font-family="Helvetica,sans-Serif" font-size="10.00">UndoCommand::isExecuted</text>
</a>
</g>
<!-- Node3&#45;&gt;Node4 -->
<g id="edge6" class="edge"><title>Node3&#45;&gt;Node4</title>
<path fill="none" stroke="midnightblue" d="M172.419,-21.5406C188.911,-25.3317 208.245,-29.1321 226,-31 270.695,-35.7022 320.881,-35.7827 361.621,-34.5381"/>
<polygon fill="midnightblue" stroke="midnightblue" points="361.89,-38.0311 371.766,-34.1952 361.653,-31.0351 361.89,-38.0311"/>
</g>
<!-- Node5 -->
<g id="node9" class="node"><title>Node5</title>
<a xlink:href="../../d3/d26/class_undo_command.html#a93c48d6ed036e1a381be53ac67643284" target="_top" xlink:title="Redo/execute the command (and all child commands in normal order) ">
<polygon fill="white" stroke="black" points="226,-0.5 226,-21.5 336,-21.5 336,-0.5 226,-0.5"/>
<text text-anchor="middle" x="281" y="-8.5" font-family="Helvetica,sans-Serif" font-size="10.00">UndoCommand::redo</text>
</a>
</g>
<!-- Node3&#45;&gt;Node5 -->
<g id="edge8" class="edge"><title>Node3&#45;&gt;Node5</title>
<path fill="none" stroke="midnightblue" d="M188.331,-4.43169C197.192,-4.25119 206.419,-4.20518 215.467,-4.29365"/>
<polygon fill="midnightblue" stroke="midnightblue" points="215.524,-7.79486 225.577,-4.45068 215.633,-0.795708 215.524,-7.79486"/>
</g>
<!-- Node5&#45;&gt;Node3 -->
<g id="edge12" class="edge"><title>Node5&#45;&gt;Node3</title>
<path fill="none" stroke="midnightblue" d="M225.577,-17.5493C216.741,-17.739 207.521,-17.7942 198.462,-17.715"/>
<polygon fill="midnightblue" stroke="midnightblue" points="198.38,-14.2135 188.331,-17.5683 198.279,-21.2128 198.38,-14.2135"/>
</g>
<!-- Node5&#45;&gt;Node4 -->
<g id="edge10" class="edge"><title>Node5&#45;&gt;Node4</title>
<path fill="none" stroke="midnightblue" d="M336.407,-17.5387C344.645,-18.5109 353.272,-19.529 361.893,-20.5464"/>
<polygon fill="midnightblue" stroke="midnightblue" points="361.645,-24.0414 371.987,-21.7376 362.466,-17.0896 361.645,-24.0414"/>
</g>
</g>
</svg>
