<?xml version="1.0" encoding="UTF-8" standalone="no"?>
<!DOCTYPE svg PUBLIC "-//W3C//DTD SVG 1.1//EN"
 "http://www.w3.org/Graphics/SVG/1.1/DTD/svg11.dtd">
<!-- Generated by graphviz version 2.26.3 (20100126.1600)
 -->
<!-- Title: updateCacheAndRepaint Pages: 1 -->
<svg width="468pt" height="186pt"
 viewBox="0.00 0.00 468.00 186.00" xmlns="http://www.w3.org/2000/svg" xmlns:xlink="http://www.w3.org/1999/xlink">
<g id="graph1" class="graph" transform="scale(1 1) rotate(0) translate(4 182)">
<title>updateCacheAndRepaint</title>
<polygon fill="white" stroke="white" points="-4,5 -4,-182 465,-182 465,5 -4,5"/>
<!-- Node1 -->
<g id="node1" class="node"><title>Node1</title>
<polygon fill="#bfbfbf" stroke="black" points="0.5,-72.5 0.5,-93.5 125.5,-93.5 125.5,-72.5 0.5,-72.5"/>
<text text-anchor="middle" x="63" y="-80.5" font-family="Helvetica,sans-Serif" font-size="10.00">updateCacheAndRepaint</text>
</g>
<!-- Node2 -->
<g id="node3" class="node"><title>Node2</title>
<a xlink:href="../../d2/d4e/classlibrary_1_1_footprint_pad.html#a01f0e165edb023b0c50cdbfd70f36021" target="_top" xlink:title="library::FootprintPad\l::getRotation">
<polygon fill="white" stroke="black" points="171,-144 171,-178 275,-178 275,-144 171,-144"/>
<text text-anchor="start" x="179" y="-165" font-family="Helvetica,sans-Serif" font-size="10.00">library::FootprintPad</text>
<text text-anchor="middle" x="223" y="-152" font-family="Helvetica,sans-Serif" font-size="10.00">::getRotation</text>
</a>
</g>
<!-- Node1&#45;&gt;Node2 -->
<g id="edge2" class="edge"><title>Node1&#45;&gt;Node2</title>
<path fill="none" stroke="midnightblue" d="M82.1164,-93.6296C101.887,-104.483 133.764,-121.594 162,-135 165.37,-136.6 168.864,-138.212 172.398,-139.806"/>
<polygon fill="midnightblue" stroke="midnightblue" points="171.222,-143.113 181.782,-143.968 174.059,-136.714 171.222,-143.113"/>
</g>
<!-- Node3 -->
<g id="node5" class="node"><title>Node3</title>
<a xlink:href="../../d4/ddd/classproject_1_1_b_i___footprint_pad.html#a43009465a74e4ea29421f269c876916d" target="_top" xlink:title="project::BI_FootprintPad\l::getFootprint">
<polygon fill="white" stroke="black" points="162,-92 162,-126 284,-126 284,-92 162,-92"/>
<text text-anchor="start" x="170" y="-113" font-family="Helvetica,sans-Serif" font-size="10.00">project::BI_FootprintPad</text>
<text text-anchor="middle" x="223" y="-100" font-family="Helvetica,sans-Serif" font-size="10.00">::getFootprint</text>
</a>
</g>
<!-- Node1&#45;&gt;Node3 -->
<g id="edge4" class="edge"><title>Node1&#45;&gt;Node3</title>
<path fill="none" stroke="midnightblue" d="M125.777,-93.2013C134.335,-94.5919 143.169,-96.0274 151.861,-97.44"/>
<polygon fill="midnightblue" stroke="midnightblue" points="151.544,-100.934 161.976,-99.0836 152.667,-94.0249 151.544,-100.934"/>
</g>
<!-- Node4 -->
<g id="node7" class="node"><title>Node4</title>
<a xlink:href="../../da/d96/classproject_1_1_b_i___footprint.html#a1220d662c6088cae7ec3f1a2427bc6c5" target="_top" xlink:title="project::BI_Footprint\l::getRotation">
<polygon fill="white" stroke="black" points="170.5,-40 170.5,-74 275.5,-74 275.5,-40 170.5,-40"/>
<text text-anchor="start" x="178.5" y="-61" font-family="Helvetica,sans-Serif" font-size="10.00">project::BI_Footprint</text>
<text text-anchor="middle" x="223" y="-48" font-family="Helvetica,sans-Serif" font-size="10.00">::getRotation</text>
</a>
</g>
<!-- Node1&#45;&gt;Node4 -->
<g id="edge6" class="edge"><title>Node1&#45;&gt;Node4</title>
<path fill="none" stroke="midnightblue" d="M125.777,-72.7987C137.221,-70.9392 149.158,-68.9994 160.591,-67.1415"/>
<polygon fill="midnightblue" stroke="midnightblue" points="161.174,-70.5928 170.483,-65.534 160.051,-63.6834 161.174,-70.5928"/>
</g>
<!-- Node6 -->
<g id="node11" class="node"><title>Node6</title>
<a xlink:href="../../d2/d39/class_angle.html#a7f29e0cf68871bab5b01569d78de4504" target="_top" xlink:title="90 degrees ">
<polygon fill="white" stroke="black" points="186,-0.5 186,-21.5 260,-21.5 260,-0.5 186,-0.5"/>
<text text-anchor="middle" x="223" y="-8.5" font-family="Helvetica,sans-Serif" font-size="10.00">Angle::deg90</text>
</a>
</g>
<!-- Node1&#45;&gt;Node6 -->
<g id="edge10" class="edge"><title>Node1&#45;&gt;Node6</title>
<path fill="none" stroke="midnightblue" d="M80.8066,-72.4861C100.294,-61.2574 132.677,-43.4057 162,-31 167.068,-28.8559 172.45,-26.7949 177.837,-24.8647"/>
<polygon fill="midnightblue" stroke="midnightblue" points="179.158,-28.1112 187.471,-21.5418 176.876,-21.4938 179.158,-28.1112"/>
</g>
<!-- Node5 -->
<g id="node9" class="node"><title>Node5</title>
<a xlink:href="../../d0/d7d/classproject_1_1_component_instance.html#a01f0e165edb023b0c50cdbfd70f36021" target="_top" xlink:title="project::ComponentInstance\l::getRotation">
<polygon fill="white" stroke="black" points="320,-40 320,-74 460,-74 460,-40 320,-40"/>
<text text-anchor="start" x="328" y="-61" font-family="Helvetica,sans-Serif" font-size="10.00">project::ComponentInstance</text>
<text text-anchor="middle" x="390" y="-48" font-family="Helvetica,sans-Serif" font-size="10.00">::getRotation</text>
</a>
</g>
<!-- Node4&#45;&gt;Node5 -->
<g id="edge8" class="edge"><title>Node4&#45;&gt;Node5</title>
<path fill="none" stroke="midnightblue" d="M275.84,-57C286.63,-57 298.214,-57 309.717,-57"/>
<polygon fill="midnightblue" stroke="midnightblue" points="309.782,-60.5001 319.782,-57 309.782,-53.5001 309.782,-60.5001"/>
</g>
<!-- Node7 -->
<g id="node13" class="node"><title>Node7</title>
<a xlink:href="../../d2/d39/class_angle.html#ae0cfbf0d84fd0eab0f9dfc1b365b8667" target="_top" xlink:title="Default Constructor. ">
<polygon fill="white" stroke="black" points="354,-0.5 354,-21.5 426,-21.5 426,-0.5 354,-0.5"/>
<text text-anchor="middle" x="390" y="-8.5" font-family="Helvetica,sans-Serif" font-size="10.00">Angle::Angle</text>
</a>
</g>
<!-- Node6&#45;&gt;Node7 -->
<g id="edge12" class="edge"><title>Node6&#45;&gt;Node7</title>
<path fill="none" stroke="midnightblue" d="M260.063,-11C284.749,-11 317.375,-11 343.758,-11"/>
<polygon fill="midnightblue" stroke="midnightblue" points="343.902,-14.5001 353.902,-11 343.902,-7.5001 343.902,-14.5001"/>
</g>
</g>
</svg>
