<?xml version="1.0" encoding="UTF-8" standalone="no"?>
<!DOCTYPE svg PUBLIC "-//W3C//DTD SVG 1.1//EN"
 "http://www.w3.org/Graphics/SVG/1.1/DTD/svg11.dtd">
<!-- Generated by graphviz version 2.26.3 (20100126.1600)
 -->
<!-- Title: setTypeValueUnit Pages: 1 -->
<svg width="290pt" height="94pt"
 viewBox="0.00 0.00 290.00 94.00" xmlns="http://www.w3.org/2000/svg" xmlns:xlink="http://www.w3.org/1999/xlink">
<g id="graph1" class="graph" transform="scale(1 1) rotate(0) translate(4 90)">
<title>setTypeValueUnit</title>
<polygon fill="white" stroke="white" points="-4,5 -4,-90 287,-90 287,5 -4,5"/>
<!-- Node1 -->
<g id="node1" class="node"><title>Node1</title>
<polygon fill="#bfbfbf" stroke="black" points="0.5,-32.5 0.5,-53.5 95.5,-53.5 95.5,-32.5 0.5,-32.5"/>
<text text-anchor="middle" x="48" y="-40.5" font-family="Helvetica,sans-Serif" font-size="10.00">setTypeValueUnit</text>
</g>
<!-- Node2 -->
<g id="node3" class="node"><title>Node2</title>
<a xlink:href="../../d9/d07/classproject_1_1_cmd_gen_comp_attr_inst_edit.html#a91ca7652063093da57fc1bd0141dcc95" target="_top" xlink:title="Redo/execute the command (and all child commands in normal order) ">
<polygon fill="white" stroke="black" points="132.5,-52 132.5,-86 281.5,-86 281.5,-52 132.5,-52"/>
<text text-anchor="start" x="140.5" y="-73" font-family="Helvetica,sans-Serif" font-size="10.00">project::CmdGenCompAttrInst</text>
<text text-anchor="middle" x="207" y="-60" font-family="Helvetica,sans-Serif" font-size="10.00">Edit::redo</text>
</a>
</g>
<!-- Node1&#45;&gt;Node2 -->
<g id="edge2" class="edge"><title>Node1&#45;&gt;Node2</title>
<path fill="none" stroke="midnightblue" d="M105.656,-52.428C114.302,-53.8419 123.322,-55.3168 132.261,-56.7786"/>
<polygon fill="midnightblue" stroke="midnightblue" points="106.139,-48.9606 95.7052,-50.8009 105.009,-55.8689 106.139,-48.9606"/>
</g>
<!-- Node3 -->
<g id="node5" class="node"><title>Node3</title>
<a xlink:href="../../d9/d07/classproject_1_1_cmd_gen_comp_attr_inst_edit.html#a19e8778088bfe76b16745470981bb913" target="_top" xlink:title="Undo the command (and all child commands in reverse order) ">
<polygon fill="white" stroke="black" points="132.5,-0 132.5,-34 281.5,-34 281.5,-0 132.5,-0"/>
<text text-anchor="start" x="140.5" y="-21" font-family="Helvetica,sans-Serif" font-size="10.00">project::CmdGenCompAttrInst</text>
<text text-anchor="middle" x="207" y="-8" font-family="Helvetica,sans-Serif" font-size="10.00">Edit::undo</text>
</a>
</g>
<!-- Node1&#45;&gt;Node3 -->
<g id="edge4" class="edge"><title>Node1&#45;&gt;Node3</title>
<path fill="none" stroke="midnightblue" d="M105.656,-33.572C114.302,-32.1581 123.322,-30.6832 132.261,-29.2214"/>
<polygon fill="midnightblue" stroke="midnightblue" points="105.009,-30.1311 95.7052,-35.1991 106.139,-37.0394 105.009,-30.1311"/>
</g>
</g>
</svg>
