<?xml version="1.0" encoding="UTF-8" standalone="no"?>
<!DOCTYPE svg PUBLIC "-//W3C//DTD SVG 1.1//EN"
 "http://www.w3.org/Graphics/SVG/1.1/DTD/svg11.dtd">
<!-- Generated by graphviz version 2.26.3 (20100126.1600)
 -->
<!-- Title: processEventFromChild Pages: 1 -->
<svg width="518pt" height="42pt"
 viewBox="0.00 0.00 518.00 42.00" xmlns="http://www.w3.org/2000/svg" xmlns:xlink="http://www.w3.org/1999/xlink">
<g id="graph1" class="graph" transform="scale(1 1) rotate(0) translate(4 38)">
<title>processEventFromChild</title>
<polygon fill="white" stroke="white" points="-4,5 -4,-38 515,-38 515,5 -4,5"/>
<!-- Node1 -->
<g id="node1" class="node"><title>Node1</title>
<polygon fill="#bfbfbf" stroke="black" points="0,-6.5 0,-27.5 122,-27.5 122,-6.5 0,-6.5"/>
<text text-anchor="middle" x="61" y="-14.5" font-family="Helvetica,sans-Serif" font-size="10.00">processEventFromChild</text>
</g>
<!-- Node2 -->
<g id="node3" class="node"><title>Node2</title>
<a xlink:href="../../d7/dba/classproject_1_1_b_e_e___redirected_q_event.html#a2d8e381d0fd9704724b630194af390f3" target="_top" xlink:title="Helper method to get the QEvent from a pointer to BEE_Base. ">
<polygon fill="white" stroke="black" points="158,-0 158,-34 316,-34 316,-0 158,-0"/>
<text text-anchor="start" x="166" y="-21" font-family="Helvetica,sans-Serif" font-size="10.00">project::BEE_RedirectedQEvent</text>
<text text-anchor="middle" x="237" y="-8" font-family="Helvetica,sans-Serif" font-size="10.00">::getQEventFromBEE</text>
</a>
</g>
<!-- Node1&#45;&gt;Node2 -->
<g id="edge2" class="edge"><title>Node1&#45;&gt;Node2</title>
<path fill="none" stroke="midnightblue" d="M122.062,-17C130.34,-17 138.97,-17 147.617,-17"/>
<polygon fill="midnightblue" stroke="midnightblue" points="147.757,-20.5001 157.757,-17 147.757,-13.5001 147.757,-20.5001"/>
</g>
<!-- Node3 -->
<g id="node5" class="node"><title>Node3</title>
<a xlink:href="../../d7/dba/classproject_1_1_b_e_e___redirected_q_event.html#a8bc969fd921aeabce5720e8a51c97eb3" target="_top" xlink:title="project::BEE_RedirectedQEvent\l::getQEvent">
<polygon fill="white" stroke="black" points="352,-0 352,-34 510,-34 510,-0 352,-0"/>
<text text-anchor="start" x="360" y="-21" font-family="Helvetica,sans-Serif" font-size="10.00">project::BEE_RedirectedQEvent</text>
<text text-anchor="middle" x="431" y="-8" font-family="Helvetica,sans-Serif" font-size="10.00">::getQEvent</text>
</a>
</g>
<!-- Node2&#45;&gt;Node3 -->
<g id="edge4" class="edge"><title>Node2&#45;&gt;Node3</title>
<path fill="none" stroke="midnightblue" d="M316.187,-17C324.529,-17 333.054,-17 341.502,-17"/>
<polygon fill="midnightblue" stroke="midnightblue" points="341.752,-20.5001 351.752,-17 341.752,-13.5001 341.752,-20.5001"/>
</g>
</g>
</svg>
