<?xml version="1.0" encoding="UTF-8" standalone="no"?>
<!DOCTYPE svg PUBLIC "-//W3C//DTD SVG 1.1//EN"
 "http://www.w3.org/Graphics/SVG/1.1/DTD/svg11.dtd">
<!-- Generated by graphviz version 2.26.3 (20100126.1600)
 -->
<!-- Title: /home/travis/build/LibrePCB/LibrePCB/libs/librepcbproject/moc/moc_projectlibrary.cpp Pages: 1 -->
<svg width="399pt" height="258pt"
 viewBox="0.00 0.00 399.02 258.00" xmlns="http://www.w3.org/2000/svg" xmlns:xlink="http://www.w3.org/1999/xlink">
<g id="graph1" class="graph" transform="scale(1 1) rotate(0) translate(4 254)">
<title>/home/travis/build/LibrePCB/LibrePCB/libs/librepcbproject/moc/moc_projectlibrary.cpp</title>
<polygon fill="white" stroke="white" points="-4,5 -4,-254 396.016,-254 396.016,5 -4,5"/>
<!-- Node1 -->
<g id="node1" class="node"><title>Node1</title>
<polygon fill="#bfbfbf" stroke="black" points="154.016,-189 154.016,-249 280.016,-249 280.016,-189 154.016,-189"/>
<text text-anchor="start" x="162.016" y="-236" font-family="Helvetica,sans-Serif" font-size="10.00">/home/travis/build</text>
<text text-anchor="start" x="162.016" y="-223" font-family="Helvetica,sans-Serif" font-size="10.00">/LibrePCB/LibrePCB/libs</text>
<text text-anchor="start" x="162.016" y="-210" font-family="Helvetica,sans-Serif" font-size="10.00">/librepcbproject/moc/moc</text>
<text text-anchor="middle" x="217.016" y="-197" font-family="Helvetica,sans-Serif" font-size="10.00">_projectlibrary.cpp</text>
</g>
<!-- Node2 -->
<g id="node3" class="node"><title>Node2</title>
<a xlink:href="../../d6/dcb/projectlibrary_8h.html" target="_top" xlink:title="../library/projectlibrary.h">
<polygon fill="white" stroke="black" points="28.5163,-130.5 28.5163,-151.5 147.516,-151.5 147.516,-130.5 28.5163,-130.5"/>
<text text-anchor="middle" x="88.0163" y="-138.5" font-family="Helvetica,sans-Serif" font-size="10.00">../library/projectlibrary.h</text>
</a>
</g>
<!-- Node1&#45;&gt;Node2 -->
<g id="edge2" class="edge"><title>Node1&#45;&gt;Node2</title>
<path fill="none" stroke="midnightblue" d="M167.142,-188.843C149.175,-177.98 129.611,-166.15 114.431,-156.972"/>
<polygon fill="midnightblue" stroke="midnightblue" points="115.968,-153.811 105.6,-151.632 112.346,-159.801 115.968,-153.811"/>
</g>
<!-- Node6 -->
<g id="node13" class="node"><title>Node6</title>
<polygon fill="white" stroke="#bfbfbf" points="164.516,-130.5 164.516,-151.5 269.516,-151.5 269.516,-130.5 164.516,-130.5"/>
<text text-anchor="middle" x="217.016" y="-138.5" font-family="Helvetica,sans-Serif" font-size="10.00">QtCore/qbytearray.h</text>
</g>
<!-- Node1&#45;&gt;Node6 -->
<g id="edge14" class="edge"><title>Node1&#45;&gt;Node6</title>
<path fill="none" stroke="midnightblue" d="M217.016,-188.62C217.016,-179.68 217.016,-170.103 217.016,-161.9"/>
<polygon fill="midnightblue" stroke="midnightblue" points="220.516,-161.753 217.016,-151.753 213.516,-161.753 220.516,-161.753"/>
</g>
<!-- Node7 -->
<g id="node15" class="node"><title>Node7</title>
<polygon fill="white" stroke="#bfbfbf" points="286.516,-130.5 286.516,-151.5 391.516,-151.5 391.516,-130.5 286.516,-130.5"/>
<text text-anchor="middle" x="339.016" y="-138.5" font-family="Helvetica,sans-Serif" font-size="10.00">QtCore/qmetatype.h</text>
</g>
<!-- Node1&#45;&gt;Node7 -->
<g id="edge16" class="edge"><title>Node1&#45;&gt;Node7</title>
<path fill="none" stroke="midnightblue" d="M264.185,-188.843C281.016,-178.082 299.33,-166.373 313.628,-157.232"/>
<polygon fill="midnightblue" stroke="midnightblue" points="315.847,-159.967 322.387,-151.632 312.077,-154.07 315.847,-159.967"/>
</g>
<!-- Node3 -->
<g id="node5" class="node"><title>Node3</title>
<polygon fill="white" stroke="#bfbfbf" points="64.0163,-0.5 64.0163,-21.5 112.016,-21.5 112.016,-0.5 64.0163,-0.5"/>
<text text-anchor="middle" x="88.0163" y="-8.5" font-family="Helvetica,sans-Serif" font-size="10.00">QtCore</text>
</g>
<!-- Node2&#45;&gt;Node3 -->
<g id="edge4" class="edge"><title>Node2&#45;&gt;Node3</title>
<path fill="none" stroke="midnightblue" d="M53.2315,-130.441C35.775,-123.182 16.2174,-111.605 6.01631,-94 -2.00544,-80.1562 -2.00544,-71.8438 6.01631,-58 16.4282,-40.0313 36.5873,-28.3419 54.311,-21.1149"/>
<polygon fill="midnightblue" stroke="midnightblue" points="55.6939,-24.3344 63.8296,-17.5475 53.2373,-17.7796 55.6939,-24.3344"/>
</g>
<!-- Node4 -->
<g id="node7" class="node"><title>Node4</title>
<a xlink:href="../../d4/d03/exceptions_8h.html" target="_top" xlink:title="librepcbcommon/exceptions.h">
<polygon fill="white" stroke="black" points="15.0163,-65.5 15.0163,-86.5 161.016,-86.5 161.016,-65.5 15.0163,-65.5"/>
<text text-anchor="middle" x="88.0163" y="-73.5" font-family="Helvetica,sans-Serif" font-size="10.00">librepcbcommon/exceptions.h</text>
</a>
</g>
<!-- Node2&#45;&gt;Node4 -->
<g id="edge6" class="edge"><title>Node2&#45;&gt;Node4</title>
<path fill="none" stroke="midnightblue" d="M88.0163,-130.267C88.0163,-121.18 88.0163,-107.892 88.0163,-96.7395"/>
<polygon fill="midnightblue" stroke="midnightblue" points="91.5164,-96.5337 88.0163,-86.5337 84.5164,-96.5337 91.5164,-96.5337"/>
</g>
<!-- Node5 -->
<g id="node10" class="node"><title>Node5</title>
<a xlink:href="../../dd/dec/filepath_8h.html" target="_top" xlink:title="librepcbcommon/fileio\l/filepath.h">
<polygon fill="white" stroke="black" points="178.516,-59 178.516,-93 289.516,-93 289.516,-59 178.516,-59"/>
<text text-anchor="start" x="186.516" y="-80" font-family="Helvetica,sans-Serif" font-size="10.00">librepcbcommon/fileio</text>
<text text-anchor="middle" x="234.016" y="-67" font-family="Helvetica,sans-Serif" font-size="10.00">/filepath.h</text>
</a>
</g>
<!-- Node2&#45;&gt;Node5 -->
<g id="edge10" class="edge"><title>Node2&#45;&gt;Node5</title>
<path fill="none" stroke="midnightblue" d="M111.799,-130.412C131.932,-121.448 161.415,-108.323 186.379,-97.2086"/>
<polygon fill="midnightblue" stroke="midnightblue" points="187.984,-100.325 195.696,-93.0604 185.137,-93.9302 187.984,-100.325"/>
</g>
<!-- Node4&#45;&gt;Node3 -->
<g id="edge8" class="edge"><title>Node4&#45;&gt;Node3</title>
<path fill="none" stroke="midnightblue" d="M88.0163,-65.2666C88.0163,-56.1799 88.0163,-42.8919 88.0163,-31.7395"/>
<polygon fill="midnightblue" stroke="midnightblue" points="91.5164,-31.5337 88.0163,-21.5337 84.5164,-31.5337 91.5164,-31.5337"/>
</g>
<!-- Node5&#45;&gt;Node3 -->
<g id="edge12" class="edge"><title>Node5&#45;&gt;Node3</title>
<path fill="none" stroke="midnightblue" d="M195.657,-58.922C172.547,-48.6337 143.409,-35.6612 121.279,-25.8086"/>
<polygon fill="midnightblue" stroke="midnightblue" points="122.516,-22.5282 111.957,-21.6584 119.669,-28.9231 122.516,-22.5282"/>
</g>
</g>
</svg>
