<?xml version="1.0" encoding="UTF-8" standalone="no"?>
<!DOCTYPE svg PUBLIC "-//W3C//DTD SVG 1.1//EN"
 "http://www.w3.org/Graphics/SVG/1.1/DTD/svg11.dtd">
<!-- Generated by graphviz version 2.26.3 (20100126.1600)
 -->
<!-- Title: /home/travis/build/LibrePCB/LibrePCB/libs/librepcbproject/boards/items Pages: 1 -->
<svg width="336pt" height="369pt"
 viewBox="0.00 0.00 336.23 369.00" xmlns="http://www.w3.org/2000/svg" xmlns:xlink="http://www.w3.org/1999/xlink">
<g id="graph1" class="graph" transform="scale(1 1) rotate(0) translate(4 365)">
<title>/home/travis/build/LibrePCB/LibrePCB/libs/librepcbproject/boards/items</title>
<polygon fill="white" stroke="white" points="-4,5 -4,-365 333.233,-365 333.233,5 -4,5"/>
<g id="graph2" class="cluster"><title>clusterdir_bfc0836b8dfba2d01c57a335b4e27ed3</title>
<a xlink:href="dir_bfc0836b8dfba2d01c57a335b4e27ed3.html" target="_top" xlink:title="boards">
<polygon fill="#ddddee" stroke="black" points="102.233,-280 102.233,-353 172.233,-353 172.233,-280 102.233,-280"/>
<text text-anchor="middle" x="137.233" y="-340" font-family="Helvetica,sans-Serif" font-size="10.00">boards</text>
</a>
</g>
<!-- dir_0110be00bf7253264d9d26b59fd0735d -->
<g id="node2" class="node"><title>dir_0110be00bf7253264d9d26b59fd0735d</title>
<a xlink:href="dir_0110be00bf7253264d9d26b59fd0735d.html" target="_top" xlink:title="items">
<polygon fill="#eeeeff" stroke="black" points="164.233,-324 110.233,-324 110.233,-288 164.233,-288 164.233,-324"/>
<text text-anchor="middle" x="137.233" y="-303.5" font-family="Helvetica,sans-Serif" font-size="10.00">items</text>
</a>
</g>
<!-- dir_efc38cef2ea58e90050d02dbad2a4ede -->
<g id="node3" class="node"><title>dir_efc38cef2ea58e90050d02dbad2a4ede</title>
<a xlink:href="dir_efc38cef2ea58e90050d02dbad2a4ede.html" target="_top" xlink:title="settings">
<polygon fill="white" stroke="red" points="66.2329,-180 12.2329,-180 12.2329,-144 66.2329,-144 66.2329,-180"/>
<text text-anchor="middle" x="39.2329" y="-159.5" font-family="Helvetica,sans-Serif" font-size="10.00">settings</text>
</a>
</g>
<!-- dir_0110be00bf7253264d9d26b59fd0735d&#45;&gt;dir_efc38cef2ea58e90050d02dbad2a4ede -->
<g id="edge3" class="edge"><title>dir_0110be00bf7253264d9d26b59fd0735d&#45;&gt;dir_efc38cef2ea58e90050d02dbad2a4ede</title>
<path fill="none" stroke="black" d="M110.077,-294.428C92.2911,-285.439 70.045,-271.251 57.2329,-252 45.073,-233.729 40.7873,-209.066 39.4227,-190.178"/>
<polygon fill="black" stroke="black" points="42.9135,-189.903 38.9263,-180.087 35.9219,-190.247 42.9135,-189.903"/>
<a xlink:href="dir_000023_000034.html" target="_top" xlink:title="1">
<text text-anchor="middle" x="45.9258" y="-190.854" font-family="Helvetica,sans-Serif" font-size="10.00">1</text>
</a>
</g>
<!-- dir_e4b5788b4743299939946b625dbdd9d2 -->
<g id="node4" class="node"><title>dir_e4b5788b4743299939946b625dbdd9d2</title>
<a xlink:href="dir_e4b5788b4743299939946b625dbdd9d2.html" target="_top" xlink:title="graphicsitems">
<polygon fill="none" stroke="black" points="142.233,-252 66.2329,-252 66.2329,-216 142.233,-216 142.233,-252"/>
<text text-anchor="middle" x="104.233" y="-231.5" font-family="Helvetica,sans-Serif" font-size="10.00">graphicsitems</text>
</a>
</g>
<!-- dir_0110be00bf7253264d9d26b59fd0735d&#45;&gt;dir_e4b5788b4743299939946b625dbdd9d2 -->
<g id="edge5" class="edge"><title>dir_0110be00bf7253264d9d26b59fd0735d&#45;&gt;dir_e4b5788b4743299939946b625dbdd9d2</title>
<path fill="none" stroke="black" d="M122.953,-287.831C118.579,-279.962 114.061,-270.571 110.405,-261.853"/>
<polygon fill="black" stroke="black" points="113.611,-260.441 106.696,-252.413 107.095,-263.001 113.611,-260.441"/>
<a xlink:href="dir_000023_000022.html" target="_top" xlink:title="2">
<text text-anchor="middle" x="117.568" y="-260.248" font-family="Helvetica,sans-Serif" font-size="10.00">2</text>
</a>
</g>
<!-- dir_55c01538f0a6d4fce22a43840cf48722 -->
<g id="node5" class="node"><title>dir_55c01538f0a6d4fce22a43840cf48722</title>
<a xlink:href="dir_55c01538f0a6d4fce22a43840cf48722.html" target="_top" xlink:title="librepcblibrary">
<polygon fill="white" stroke="red" points="208.233,-108 132.233,-108 132.233,-72 208.233,-72 208.233,-108"/>
<text text-anchor="middle" x="170.233" y="-87.5" font-family="Helvetica,sans-Serif" font-size="10.00">librepcblibrary</text>
</a>
</g>
<!-- dir_0110be00bf7253264d9d26b59fd0735d&#45;&gt;dir_55c01538f0a6d4fce22a43840cf48722 -->
<g id="edge7" class="edge"><title>dir_0110be00bf7253264d9d26b59fd0735d&#45;&gt;dir_55c01538f0a6d4fce22a43840cf48722</title>
<path fill="none" stroke="black" d="M142.658,-287.646C145.559,-277.263 148.986,-263.994 151.233,-252 159.947,-205.488 165.381,-150.669 168.103,-118.208"/>
<polygon fill="black" stroke="black" points="171.603,-118.351 168.924,-108.101 164.626,-117.785 171.603,-118.351"/>
<a xlink:href="dir_000023_000009.html" target="_top" xlink:title="5">
<text text-anchor="middle" x="174.143" y="-119.664" font-family="Helvetica,sans-Serif" font-size="10.00">5</text>
</a>
</g>
<!-- dir_2093dc0e773f0ae75a86b05835aba5e8 -->
<g id="node6" class="node"><title>dir_2093dc0e773f0ae75a86b05835aba5e8</title>
<a xlink:href="dir_2093dc0e773f0ae75a86b05835aba5e8.html" target="_top" xlink:title="librepcbcommon">
<polygon fill="white" stroke="red" points="176.233,-36 88.2329,-36 88.2329,-1.77636e-14 176.233,-3.55271e-15 176.233,-36"/>
<text text-anchor="middle" x="132.233" y="-15.5" font-family="Helvetica,sans-Serif" font-size="10.00">librepcbcommon</text>
</a>
</g>
<!-- dir_0110be00bf7253264d9d26b59fd0735d&#45;&gt;dir_2093dc0e773f0ae75a86b05835aba5e8 -->
<g id="edge9" class="edge"><title>dir_0110be00bf7253264d9d26b59fd0735d&#45;&gt;dir_2093dc0e773f0ae75a86b05835aba5e8</title>
<path fill="none" stroke="black" d="M110.166,-296.043C88.9906,-287.147 59.931,-272.365 40.2329,-252 15.2193,-226.14 11.6922,-214.969 3.23286,-180 -9.38534,-127.839 18.9178,-109.576 57.2329,-72 68.4018,-61.0466 81.9421,-50.6037 94.4275,-41.8712"/>
<polygon fill="black" stroke="black" points="96.5753,-44.6429 102.861,-36.1137 92.6283,-38.8617 96.5753,-44.6429"/>
<a xlink:href="dir_000023_000003.html" target="_top" xlink:title="6">
<text text-anchor="middle" x="95.2075" y="-46.5145" font-family="Helvetica,sans-Serif" font-size="10.00">6</text>
</a>
</g>
<!-- dir_5acbb45df591e524946b8a37e2396587 -->
<g id="node7" class="node"><title>dir_5acbb45df591e524946b8a37e2396587</title>
<a xlink:href="dir_5acbb45df591e524946b8a37e2396587.html" target="_top" xlink:title="circuit">
<polygon fill="white" stroke="red" points="252.233,-252 198.233,-252 198.233,-216 252.233,-216 252.233,-252"/>
<text text-anchor="middle" x="225.233" y="-231.5" font-family="Helvetica,sans-Serif" font-size="10.00">circuit</text>
</a>
</g>
<!-- dir_0110be00bf7253264d9d26b59fd0735d&#45;&gt;dir_5acbb45df591e524946b8a37e2396587 -->
<g id="edge11" class="edge"><title>dir_0110be00bf7253264d9d26b59fd0735d&#45;&gt;dir_5acbb45df591e524946b8a37e2396587</title>
<path fill="none" stroke="black" d="M159.439,-287.831C170.278,-278.963 183.477,-268.164 195.201,-258.572"/>
<polygon fill="black" stroke="black" points="197.511,-261.204 203.034,-252.163 193.078,-255.786 197.511,-261.204"/>
<a xlink:href="dir_000023_000024.html" target="_top" xlink:title="2">
<text text-anchor="middle" x="196.526" y="-263.178" font-family="Helvetica,sans-Serif" font-size="10.00">2</text>
</a>
</g>
<!-- dir_a742f6d487168d8b5b2b0c4e1e29a6c2 -->
<g id="node8" class="node"><title>dir_a742f6d487168d8b5b2b0c4e1e29a6c2</title>
<a xlink:href="dir_a742f6d487168d8b5b2b0c4e1e29a6c2.html" target="_top" xlink:title="library">
<polygon fill="white" stroke="red" points="328.233,-180 274.233,-180 274.233,-144 328.233,-144 328.233,-180"/>
<text text-anchor="middle" x="301.233" y="-159.5" font-family="Helvetica,sans-Serif" font-size="10.00">library</text>
</a>
</g>
<!-- dir_0110be00bf7253264d9d26b59fd0735d&#45;&gt;dir_a742f6d487168d8b5b2b0c4e1e29a6c2 -->
<g id="edge13" class="edge"><title>dir_0110be00bf7253264d9d26b59fd0735d&#45;&gt;dir_a742f6d487168d8b5b2b0c4e1e29a6c2</title>
<path fill="none" stroke="black" d="M164.446,-300.278C192.012,-293.213 234.318,-278.713 261.233,-252 278.309,-235.051 288.698,-209.544 294.592,-190.007"/>
<polygon fill="black" stroke="black" points="298.03,-190.709 297.347,-180.136 291.288,-188.827 298.03,-190.709"/>
<a xlink:href="dir_000023_000028.html" target="_top" xlink:title="1">
<text text-anchor="middle" x="299.799" y="-192.434" font-family="Helvetica,sans-Serif" font-size="10.00">1</text>
</a>
</g>
<!-- dir_efc38cef2ea58e90050d02dbad2a4ede&#45;&gt;dir_2093dc0e773f0ae75a86b05835aba5e8 -->
<g id="edge15" class="edge"><title>dir_efc38cef2ea58e90050d02dbad2a4ede&#45;&gt;dir_2093dc0e773f0ae75a86b05835aba5e8</title>
<path fill="none" stroke="black" d="M45.4322,-143.813C52.3311,-124.934 64.5961,-95.004 80.2329,-72 87.1367,-61.8434 96.0159,-51.8376 104.476,-43.2514"/>
<polygon fill="black" stroke="black" points="107.068,-45.611 111.743,-36.1032 102.16,-40.6207 107.068,-45.611"/>
<a xlink:href="dir_000034_000003.html" target="_top" xlink:title="6">
<text text-anchor="middle" x="106.497" y="-47.6559" font-family="Helvetica,sans-Serif" font-size="10.00">6</text>
</a>
</g>
<!-- dir_e4b5788b4743299939946b625dbdd9d2&#45;&gt;dir_0110be00bf7253264d9d26b59fd0735d -->
<g id="edge17" class="edge"><title>dir_e4b5788b4743299939946b625dbdd9d2&#45;&gt;dir_0110be00bf7253264d9d26b59fd0735d</title>
<path fill="none" stroke="black" d="M118.648,-252.413C123.025,-260.314 127.535,-269.713 131.174,-278.417"/>
<polygon fill="black" stroke="black" points="127.954,-279.794 134.858,-287.831 134.473,-277.244 127.954,-279.794"/>
<a xlink:href="dir_000022_000023.html" target="_top" xlink:title="3">
<text text-anchor="middle" x="124.001" y="-274.982" font-family="Helvetica,sans-Serif" font-size="10.00">3</text>
</a>
</g>
<!-- dir_e4b5788b4743299939946b625dbdd9d2&#45;&gt;dir_efc38cef2ea58e90050d02dbad2a4ede -->
<g id="edge19" class="edge"><title>dir_e4b5788b4743299939946b625dbdd9d2&#45;&gt;dir_efc38cef2ea58e90050d02dbad2a4ede</title>
<path fill="none" stroke="black" d="M87.8306,-215.831C80.1913,-207.369 70.9645,-197.149 62.6122,-187.897"/>
<polygon fill="black" stroke="black" points="65.155,-185.491 55.8559,-180.413 59.9591,-190.181 65.155,-185.491"/>
<a xlink:href="dir_000022_000034.html" target="_top" xlink:title="1">
<text text-anchor="middle" x="69.6712" y="-183.756" font-family="Helvetica,sans-Serif" font-size="10.00">1</text>
</a>
</g>
<!-- dir_e4b5788b4743299939946b625dbdd9d2&#45;&gt;dir_55c01538f0a6d4fce22a43840cf48722 -->
<g id="edge21" class="edge"><title>dir_e4b5788b4743299939946b625dbdd9d2&#45;&gt;dir_55c01538f0a6d4fce22a43840cf48722</title>
<path fill="none" stroke="black" d="M112.592,-215.762C123.998,-190.876 144.528,-146.082 157.759,-117.216"/>
<polygon fill="black" stroke="black" points="160.957,-118.639 161.942,-108.09 154.593,-115.722 160.957,-118.639"/>
<a xlink:href="dir_000022_000009.html" target="_top" xlink:title="2">
<text text-anchor="middle" x="162.04" y="-120.589" font-family="Helvetica,sans-Serif" font-size="10.00">2</text>
</a>
</g>
<!-- dir_e4b5788b4743299939946b625dbdd9d2&#45;&gt;dir_2093dc0e773f0ae75a86b05835aba5e8 -->
<g id="edge23" class="edge"><title>dir_e4b5788b4743299939946b625dbdd9d2&#45;&gt;dir_2093dc0e773f0ae75a86b05835aba5e8</title>
<path fill="none" stroke="black" d="M106.058,-215.984C109.156,-186.038 115.833,-124.149 123.233,-72 124.416,-63.6633 125.858,-54.6295 127.238,-46.3795"/>
<polygon fill="black" stroke="black" points="130.699,-46.9062 128.929,-36.4602 123.798,-45.7298 130.699,-46.9062"/>
<a xlink:href="dir_000022_000003.html" target="_top" xlink:title="3">
<text text-anchor="middle" x="132.894" y="-48.4268" font-family="Helvetica,sans-Serif" font-size="10.00">3</text>
</a>
</g>
<!-- dir_55c01538f0a6d4fce22a43840cf48722&#45;&gt;dir_2093dc0e773f0ae75a86b05835aba5e8 -->
<g id="edge25" class="edge"><title>dir_55c01538f0a6d4fce22a43840cf48722&#45;&gt;dir_2093dc0e773f0ae75a86b05835aba5e8</title>
<path fill="none" stroke="black" d="M160.644,-71.8314C156.401,-63.7925 151.321,-54.1666 146.637,-45.2918"/>
<polygon fill="black" stroke="black" points="149.714,-43.6235 141.951,-36.4133 143.523,-46.8908 149.714,-43.6235"/>
<a xlink:href="dir_000009_000003.html" target="_top" xlink:title="66">
<text text-anchor="middle" x="153.903" y="-42.9772" font-family="Helvetica,sans-Serif" font-size="10.00">66</text>
</a>
</g>
<!-- dir_5acbb45df591e524946b8a37e2396587&#45;&gt;dir_efc38cef2ea58e90050d02dbad2a4ede -->
<g id="edge27" class="edge"><title>dir_5acbb45df591e524946b8a37e2396587&#45;&gt;dir_efc38cef2ea58e90050d02dbad2a4ede</title>
<path fill="none" stroke="black" d="M198.187,-223.531C165.953,-211.053 111.941,-190.145 75.9513,-176.214"/>
<polygon fill="black" stroke="black" points="76.9007,-172.828 66.3115,-172.482 74.3737,-179.356 76.9007,-172.828"/>
<a xlink:href="dir_000024_000034.html" target="_top" xlink:title="3">
<text text-anchor="middle" x="81.2778" y="-168.978" font-family="Helvetica,sans-Serif" font-size="10.00">3</text>
</a>
</g>
<!-- dir_5acbb45df591e524946b8a37e2396587&#45;&gt;dir_55c01538f0a6d4fce22a43840cf48722 -->
<g id="edge29" class="edge"><title>dir_5acbb45df591e524946b8a37e2396587&#45;&gt;dir_55c01538f0a6d4fce22a43840cf48722</title>
<path fill="none" stroke="black" d="M218.267,-215.762C208.803,-190.985 191.802,-146.471 180.772,-117.594"/>
<polygon fill="black" stroke="black" points="183.98,-116.183 177.142,-108.09 177.441,-118.68 183.98,-116.183"/>
<a xlink:href="dir_000024_000009.html" target="_top" xlink:title="3">
<text text-anchor="middle" x="187.915" y="-116.028" font-family="Helvetica,sans-Serif" font-size="10.00">3</text>
</a>
</g>
<!-- dir_5acbb45df591e524946b8a37e2396587&#45;&gt;dir_2093dc0e773f0ae75a86b05835aba5e8 -->
<g id="edge31" class="edge"><title>dir_5acbb45df591e524946b8a37e2396587&#45;&gt;dir_2093dc0e773f0ae75a86b05835aba5e8</title>
<path fill="none" stroke="black" d="M229.377,-215.971C235.606,-184.377 244.004,-117.998 217.233,-72 209.73,-59.1091 197.788,-48.813 185.199,-40.8138"/>
<polygon fill="black" stroke="black" points="186.818,-37.7053 176.427,-35.6392 183.262,-43.7345 186.818,-37.7053"/>
<a xlink:href="dir_000024_000003.html" target="_top" xlink:title="51">
<text text-anchor="middle" x="191.357" y="-34.586" font-family="Helvetica,sans-Serif" font-size="10.00">51</text>
</a>
</g>
<!-- dir_5acbb45df591e524946b8a37e2396587&#45;&gt;dir_a742f6d487168d8b5b2b0c4e1e29a6c2 -->
<g id="edge33" class="edge"><title>dir_5acbb45df591e524946b8a37e2396587&#45;&gt;dir_a742f6d487168d8b5b2b0c4e1e29a6c2</title>
<path fill="none" stroke="black" d="M244.411,-215.831C253.592,-207.134 264.734,-196.578 274.71,-187.127"/>
<polygon fill="black" stroke="black" points="277.209,-189.581 282.061,-180.163 272.394,-184.499 277.209,-189.581"/>
<a xlink:href="dir_000024_000028.html" target="_top" xlink:title="1">
<text text-anchor="middle" x="276.552" y="-191.614" font-family="Helvetica,sans-Serif" font-size="10.00">1</text>
</a>
</g>
<!-- dir_a742f6d487168d8b5b2b0c4e1e29a6c2&#45;&gt;dir_55c01538f0a6d4fce22a43840cf48722 -->
<g id="edge35" class="edge"><title>dir_a742f6d487168d8b5b2b0c4e1e29a6c2&#45;&gt;dir_55c01538f0a6d4fce22a43840cf48722</title>
<path fill="none" stroke="black" d="M274.09,-147.082C256.282,-137.294 232.636,-124.298 212.404,-113.178"/>
<polygon fill="black" stroke="black" points="213.832,-109.969 203.382,-108.22 210.46,-116.103 213.832,-109.969"/>
<a xlink:href="dir_000028_000009.html" target="_top" xlink:title="8">
<text text-anchor="middle" x="218.349" y="-106.712" font-family="Helvetica,sans-Serif" font-size="10.00">8</text>
</a>
</g>
<!-- dir_a742f6d487168d8b5b2b0c4e1e29a6c2&#45;&gt;dir_2093dc0e773f0ae75a86b05835aba5e8 -->
<g id="edge37" class="edge"><title>dir_a742f6d487168d8b5b2b0c4e1e29a6c2&#45;&gt;dir_2093dc0e773f0ae75a86b05835aba5e8</title>
<path fill="none" stroke="black" d="M297.171,-143.817C291.842,-123.812 280.669,-91.8674 260.233,-72 239.851,-52.1861 211.107,-39.1708 186.02,-30.8938"/>
<polygon fill="black" stroke="black" points="186.84,-27.4831 176.251,-27.8433 184.753,-34.165 186.84,-27.4831"/>
<a xlink:href="dir_000028_000003.html" target="_top" xlink:title="7">
<text text-anchor="middle" x="191.117" y="-23.3443" font-family="Helvetica,sans-Serif" font-size="10.00">7</text>
</a>
</g>
</g>
</svg>
