<?xml version="1.0" encoding="UTF-8" standalone="no"?>
<!DOCTYPE svg PUBLIC "-//W3C//DTD SVG 1.1//EN"
 "http://www.w3.org/Graphics/SVG/1.1/DTD/svg11.dtd">
<!-- Generated by graphviz version 2.26.3 (20100126.1600)
 -->
<!-- Title: /home/travis/build/LibrePCB/LibrePCB/libs/librepcbprojecteditor Pages: 1 -->
<svg width="456pt" height="449pt"
 viewBox="0.00 0.00 456.17 449.00" xmlns="http://www.w3.org/2000/svg" xmlns:xlink="http://www.w3.org/1999/xlink">
<g id="graph1" class="graph" transform="scale(1 1) rotate(0) translate(4 445)">
<title>/home/travis/build/LibrePCB/LibrePCB/libs/librepcbprojecteditor</title>
<polygon fill="white" stroke="white" points="-4,5 -4,-445 453.175,-445 453.175,5 -4,5"/>
<g id="graph2" class="cluster"><title>clusterdir_6719ab1f1f7655efc2fa43f7eb574fd1</title>
<a xlink:href="dir_6719ab1f1f7655efc2fa43f7eb574fd1.html" target="_top" xlink:title="libs">
<polygon fill="#ddddee" stroke="black" points="54.8667,-200 54.8667,-433 254.867,-433 254.867,-200 54.8667,-200"/>
<text text-anchor="middle" x="154.867" y="-420" font-family="Helvetica,sans-Serif" font-size="10.00">libs</text>
</a>
</g>
<g id="graph3" class="cluster"><title>clusterdir_c9cfeac3c53dca536daac88123922f35</title>
<a xlink:href="dir_c9cfeac3c53dca536daac88123922f35.html" target="_top">
<polygon fill="#eeeeff" stroke="black" points="62.8667,-208 62.8667,-404 246.867,-404 246.867,-208 62.8667,-208"/>
</a>
</g>
<!-- dir_c9cfeac3c53dca536daac88123922f35 -->
<g id="node3" class="node"><title>dir_c9cfeac3c53dca536daac88123922f35</title>
<text text-anchor="middle" x="186.867" y="-375.5" font-family="Helvetica,sans-Serif" font-size="10.00">librepcbprojecteditor</text>
</g>
<!-- dir_b2dc0b43800b7ae3d27294802965dcfc -->
<g id="node7" class="node"><title>dir_b2dc0b43800b7ae3d27294802965dcfc</title>
<a xlink:href="dir_b2dc0b43800b7ae3d27294802965dcfc.html" target="_top" xlink:title="schematiceditor">
<polygon fill="white" stroke="red" points="238.867,-324 152.867,-324 152.867,-288 238.867,-288 238.867,-324"/>
<text text-anchor="middle" x="195.867" y="-303.5" font-family="Helvetica,sans-Serif" font-size="10.00">schematiceditor</text>
</a>
</g>
<!-- dir_c9cfeac3c53dca536daac88123922f35&#45;&gt;dir_b2dc0b43800b7ae3d27294802965dcfc -->
<g id="edge38" class="edge"><title>dir_c9cfeac3c53dca536daac88123922f35&#45;&gt;dir_b2dc0b43800b7ae3d27294802965dcfc</title>
<path fill="none" stroke="black" d="M189.138,-359.831C190.1,-352.131 191.245,-342.974 192.315,-334.417"/>
<polygon fill="black" stroke="black" points="195.798,-334.77 193.565,-324.413 188.852,-333.902 195.798,-334.77"/>
<a xlink:href="dir_000036_000041.html" target="_top" xlink:title="2">
<text text-anchor="middle" x="198.169" y="-336.189" font-family="Helvetica,sans-Serif" font-size="10.00">2</text>
</a>
</g>
<!-- dir_51f83135e64b6697d0b4f8046fd11526 -->
<g id="node4" class="node"><title>dir_51f83135e64b6697d0b4f8046fd11526</title>
<a xlink:href="dir_51f83135e64b6697d0b4f8046fd11526.html" target="_top" xlink:title="boardeditor">
<polygon fill="white" stroke="red" points="134.867,-324 70.8667,-324 70.8667,-288 134.867,-288 134.867,-324"/>
<text text-anchor="middle" x="102.867" y="-303.5" font-family="Helvetica,sans-Serif" font-size="10.00">boardeditor</text>
</a>
</g>
<!-- dir_7e7dd9e18acbdcefd5ba44d1a89eebf4 -->
<g id="node5" class="node"><title>dir_7e7dd9e18acbdcefd5ba44d1a89eebf4</title>
<a xlink:href="dir_7e7dd9e18acbdcefd5ba44d1a89eebf4.html" target="_top" xlink:title="dialogs">
<polygon fill="white" stroke="black" points="124.867,-252 70.8667,-252 70.8667,-216 124.867,-216 124.867,-252"/>
<text text-anchor="middle" x="97.8667" y="-231.5" font-family="Helvetica,sans-Serif" font-size="10.00">dialogs</text>
</a>
</g>
<!-- dir_51f83135e64b6697d0b4f8046fd11526&#45;&gt;dir_7e7dd9e18acbdcefd5ba44d1a89eebf4 -->
<g id="edge44" class="edge"><title>dir_51f83135e64b6697d0b4f8046fd11526&#45;&gt;dir_7e7dd9e18acbdcefd5ba44d1a89eebf4</title>
<path fill="none" stroke="black" d="M101.605,-287.831C101.07,-280.131 100.434,-270.974 99.8401,-262.417"/>
<polygon fill="black" stroke="black" points="103.33,-262.147 99.1454,-252.413 96.3467,-262.632 103.33,-262.147"/>
<a xlink:href="dir_000037_000039.html" target="_top" xlink:title="1">
<text text-anchor="middle" x="106.411" y="-263.036" font-family="Helvetica,sans-Serif" font-size="10.00">1</text>
</a>
</g>
<!-- dir_208e671a8d0e32210ffd1eca0f068421 -->
<g id="node6" class="node"><title>dir_208e671a8d0e32210ffd1eca0f068421</title>
<a xlink:href="dir_208e671a8d0e32210ffd1eca0f068421.html" target="_top" xlink:title="docks">
<polygon fill="white" stroke="black" points="196.867,-252 142.867,-252 142.867,-216 196.867,-216 196.867,-252"/>
<text text-anchor="middle" x="169.867" y="-231.5" font-family="Helvetica,sans-Serif" font-size="10.00">docks</text>
</a>
</g>
<!-- dir_51f83135e64b6697d0b4f8046fd11526&#45;&gt;dir_208e671a8d0e32210ffd1eca0f068421 -->
<g id="edge40" class="edge"><title>dir_51f83135e64b6697d0b4f8046fd11526&#45;&gt;dir_208e671a8d0e32210ffd1eca0f068421</title>
<path fill="none" stroke="black" d="M119.774,-287.831C127.648,-279.369 137.159,-269.149 145.768,-259.897"/>
<polygon fill="black" stroke="black" points="148.482,-262.118 152.732,-252.413 143.358,-257.35 148.482,-262.118"/>
<a xlink:href="dir_000037_000040.html" target="_top" xlink:title="1">
<text text-anchor="middle" x="148.112" y="-264.184" font-family="Helvetica,sans-Serif" font-size="10.00">1</text>
</a>
</g>
<!-- dir_c16b2c78bfcfda89e8740b01cde8ab67 -->
<g id="node8" class="node"><title>dir_c16b2c78bfcfda89e8740b01cde8ab67</title>
<a xlink:href="dir_c16b2c78bfcfda89e8740b01cde8ab67.html" target="_top" xlink:title="librepcbproject">
<polygon fill="white" stroke="red" points="234.867,-180 154.867,-180 154.867,-144 234.867,-144 234.867,-180"/>
<text text-anchor="middle" x="194.867" y="-159.5" font-family="Helvetica,sans-Serif" font-size="10.00">librepcbproject</text>
</a>
</g>
<!-- dir_51f83135e64b6697d0b4f8046fd11526&#45;&gt;dir_c16b2c78bfcfda89e8740b01cde8ab67 -->
<g id="edge42" class="edge"><title>dir_51f83135e64b6697d0b4f8046fd11526&#45;&gt;dir_c16b2c78bfcfda89e8740b01cde8ab67</title>
<path fill="none" stroke="black" d="M135.051,-291.19C163.714,-277.674 201.752,-258.803 205.867,-252 217.123,-233.39 213.024,-208.651 206.867,-189.821"/>
<polygon fill="black" stroke="black" points="210.119,-188.522 203.424,-180.311 203.537,-190.905 210.119,-188.522"/>
<a xlink:href="dir_000037_000019.html" target="_top" xlink:title="25">
<text text-anchor="middle" x="214.012" y="-188.436" font-family="Helvetica,sans-Serif" font-size="10.00">25</text>
</a>
</g>
<!-- dir_55c01538f0a6d4fce22a43840cf48722 -->
<g id="node9" class="node"><title>dir_55c01538f0a6d4fce22a43840cf48722</title>
<a xlink:href="dir_55c01538f0a6d4fce22a43840cf48722.html" target="_top" xlink:title="librepcblibrary">
<polygon fill="white" stroke="red" points="265.867,-108 189.867,-108 189.867,-72 265.867,-72 265.867,-108"/>
<text text-anchor="middle" x="227.867" y="-87.5" font-family="Helvetica,sans-Serif" font-size="10.00">librepcblibrary</text>
</a>
</g>
<!-- dir_51f83135e64b6697d0b4f8046fd11526&#45;&gt;dir_55c01538f0a6d4fce22a43840cf48722 -->
<g id="edge46" class="edge"><title>dir_51f83135e64b6697d0b4f8046fd11526&#45;&gt;dir_55c01538f0a6d4fce22a43840cf48722</title>
<path fill="none" stroke="black" d="M135.018,-291.848C170.595,-276.159 223.074,-252.921 223.867,-252 255.723,-215.011 250.873,-192.311 243.867,-144 242.61,-135.332 240.273,-126.118 237.767,-117.802"/>
<polygon fill="black" stroke="black" points="241.074,-116.653 234.686,-108.2 234.409,-118.792 241.074,-116.653"/>
<a xlink:href="dir_000037_000009.html" target="_top" xlink:title="4">
<text text-anchor="middle" x="244.875" y="-116.708" font-family="Helvetica,sans-Serif" font-size="10.00">4</text>
</a>
</g>
<!-- dir_54de9d902354a0845f7f0690122ba168 -->
<g id="node10" class="node"><title>dir_54de9d902354a0845f7f0690122ba168</title>
<a xlink:href="dir_54de9d902354a0845f7f0690122ba168.html" target="_top" xlink:title="librepcbworkspace">
<polygon fill="white" stroke="red" points="426.867,-252 328.867,-252 328.867,-216 426.867,-216 426.867,-252"/>
<text text-anchor="middle" x="377.867" y="-231.5" font-family="Helvetica,sans-Serif" font-size="10.00">librepcbworkspace</text>
</a>
</g>
<!-- dir_51f83135e64b6697d0b4f8046fd11526&#45;&gt;dir_54de9d902354a0845f7f0690122ba168 -->
<g id="edge48" class="edge"><title>dir_51f83135e64b6697d0b4f8046fd11526&#45;&gt;dir_54de9d902354a0845f7f0690122ba168</title>
<path fill="none" stroke="black" d="M134.873,-291.272C137.885,-290.091 140.915,-288.979 143.867,-288 202.24,-268.64 271.034,-253.662 318.859,-244.444"/>
<polygon fill="black" stroke="black" points="319.565,-247.872 328.735,-242.565 318.257,-240.996 319.565,-247.872"/>
<a xlink:href="dir_000037_000043.html" target="_top" xlink:title="4">
<text text-anchor="middle" x="316.565" y="-248.833" font-family="Helvetica,sans-Serif" font-size="10.00">4</text>
</a>
</g>
<!-- dir_2093dc0e773f0ae75a86b05835aba5e8 -->
<g id="node11" class="node"><title>dir_2093dc0e773f0ae75a86b05835aba5e8</title>
<a xlink:href="dir_2093dc0e773f0ae75a86b05835aba5e8.html" target="_top" xlink:title="librepcbcommon">
<polygon fill="white" stroke="red" points="168.867,-36 80.8667,-36 80.8667,-1.77636e-14 168.867,-3.55271e-15 168.867,-36"/>
<text text-anchor="middle" x="124.867" y="-15.5" font-family="Helvetica,sans-Serif" font-size="10.00">librepcbcommon</text>
</a>
</g>
<!-- dir_51f83135e64b6697d0b4f8046fd11526&#45;&gt;dir_2093dc0e773f0ae75a86b05835aba5e8 -->
<g id="edge50" class="edge"><title>dir_51f83135e64b6697d0b4f8046fd11526&#45;&gt;dir_2093dc0e773f0ae75a86b05835aba5e8</title>
<path fill="none" stroke="black" d="M70.4927,-291.321C54.8758,-282.372 37.6575,-269.297 28.8667,-252 -7.37828,-180.682 -11.521,-141.057 28.8667,-72 38.3969,-55.7048 54.8525,-43.9472 71.4752,-35.6507"/>
<polygon fill="black" stroke="black" points="73.0777,-38.7658 80.6843,-31.3908 70.1388,-32.4126 73.0777,-38.7658"/>
<a xlink:href="dir_000037_000003.html" target="_top" xlink:title="14">
<text text-anchor="middle" x="71.0073" y="-40.3518" font-family="Helvetica,sans-Serif" font-size="10.00">14</text>
</a>
</g>
<!-- dir_7e7dd9e18acbdcefd5ba44d1a89eebf4&#45;&gt;dir_c16b2c78bfcfda89e8740b01cde8ab67 -->
<g id="edge22" class="edge"><title>dir_7e7dd9e18acbdcefd5ba44d1a89eebf4&#45;&gt;dir_c16b2c78bfcfda89e8740b01cde8ab67</title>
<path fill="none" stroke="black" d="M115.55,-215.964C121.193,-210.58 127.604,-204.83 133.867,-200 140.258,-195.071 147.314,-190.206 154.291,-185.689"/>
<polygon fill="black" stroke="black" points="156.441,-188.47 163.03,-180.173 152.705,-182.551 156.441,-188.47"/>
<a xlink:href="dir_000039_000019.html" target="_top" xlink:title="14">
<text text-anchor="middle" x="154.917" y="-190.29" font-family="Helvetica,sans-Serif" font-size="10.00">14</text>
</a>
</g>
<!-- dir_7e7dd9e18acbdcefd5ba44d1a89eebf4&#45;&gt;dir_55c01538f0a6d4fce22a43840cf48722 -->
<g id="edge24" class="edge"><title>dir_7e7dd9e18acbdcefd5ba44d1a89eebf4&#45;&gt;dir_55c01538f0a6d4fce22a43840cf48722</title>
<path fill="none" stroke="black" d="M104.428,-215.799C112.105,-196.362 126.301,-165.462 145.867,-144 156.606,-132.22 170.441,-121.84 183.678,-113.41"/>
<polygon fill="black" stroke="black" points="185.553,-116.366 192.251,-108.157 181.896,-110.397 185.553,-116.366"/>
<a xlink:href="dir_000039_000009.html" target="_top" xlink:title="7">
<text text-anchor="middle" x="183.971" y="-118.165" font-family="Helvetica,sans-Serif" font-size="10.00">7</text>
</a>
</g>
<!-- dir_7e7dd9e18acbdcefd5ba44d1a89eebf4&#45;&gt;dir_54de9d902354a0845f7f0690122ba168 -->
<g id="edge26" class="edge"><title>dir_7e7dd9e18acbdcefd5ba44d1a89eebf4&#45;&gt;dir_54de9d902354a0845f7f0690122ba168</title>
<path fill="none" stroke="black" d="M114.948,-252.217C122.713,-259.198 132.482,-266.357 142.867,-270 211.227,-293.98 235.36,-286.644 305.867,-270 317.544,-267.243 329.486,-262.287 340.203,-256.916"/>
<polygon fill="black" stroke="black" points="342.056,-259.896 349.268,-252.135 338.79,-253.705 342.056,-259.896"/>
<a xlink:href="dir_000039_000043.html" target="_top" xlink:title="2">
<text text-anchor="middle" x="340.201" y="-261.584" font-family="Helvetica,sans-Serif" font-size="10.00">2</text>
</a>
</g>
<!-- dir_7e7dd9e18acbdcefd5ba44d1a89eebf4&#45;&gt;dir_2093dc0e773f0ae75a86b05835aba5e8 -->
<g id="edge28" class="edge"><title>dir_7e7dd9e18acbdcefd5ba44d1a89eebf4&#45;&gt;dir_2093dc0e773f0ae75a86b05835aba5e8</title>
<path fill="none" stroke="black" d="M100.122,-215.955C104.827,-178.314 115.718,-91.1867 121.351,-46.1246"/>
<polygon fill="black" stroke="black" points="124.831,-46.502 122.599,-36.1451 117.885,-45.6337 124.831,-46.502"/>
<a xlink:href="dir_000039_000003.html" target="_top" xlink:title="9">
<text text-anchor="middle" x="127.203" y="-47.921" font-family="Helvetica,sans-Serif" font-size="10.00">9</text>
</a>
</g>
<!-- dir_208e671a8d0e32210ffd1eca0f068421&#45;&gt;dir_c16b2c78bfcfda89e8740b01cde8ab67 -->
<g id="edge4" class="edge"><title>dir_208e671a8d0e32210ffd1eca0f068421&#45;&gt;dir_c16b2c78bfcfda89e8740b01cde8ab67</title>
<path fill="none" stroke="black" d="M176.175,-215.831C178.878,-208.046 182.098,-198.773 185.098,-190.135"/>
<polygon fill="black" stroke="black" points="188.499,-191.008 188.473,-180.413 181.887,-188.712 188.499,-191.008"/>
<a xlink:href="dir_000040_000019.html" target="_top" xlink:title="4">
<text text-anchor="middle" x="190.003" y="-192.835" font-family="Helvetica,sans-Serif" font-size="10.00">4</text>
</a>
</g>
<!-- dir_b2dc0b43800b7ae3d27294802965dcfc&#45;&gt;dir_7e7dd9e18acbdcefd5ba44d1a89eebf4 -->
<g id="edge14" class="edge"><title>dir_b2dc0b43800b7ae3d27294802965dcfc&#45;&gt;dir_7e7dd9e18acbdcefd5ba44d1a89eebf4</title>
<path fill="none" stroke="black" d="M171.137,-287.831C158.951,-278.878 144.084,-267.956 130.936,-258.295"/>
<polygon fill="black" stroke="black" points="132.719,-255.263 122.588,-252.163 128.575,-260.904 132.719,-255.263"/>
<a xlink:href="dir_000041_000039.html" target="_top" xlink:title="2">
<text text-anchor="middle" x="137.297" y="-252.603" font-family="Helvetica,sans-Serif" font-size="10.00">2</text>
</a>
</g>
<!-- dir_b2dc0b43800b7ae3d27294802965dcfc&#45;&gt;dir_208e671a8d0e32210ffd1eca0f068421 -->
<g id="edge10" class="edge"><title>dir_b2dc0b43800b7ae3d27294802965dcfc&#45;&gt;dir_208e671a8d0e32210ffd1eca0f068421</title>
<path fill="none" stroke="black" d="M189.306,-287.831C186.464,-279.962 183.073,-270.571 179.925,-261.853"/>
<polygon fill="black" stroke="black" points="183.204,-260.63 176.516,-252.413 176.621,-263.008 183.204,-260.63"/>
<a xlink:href="dir_000041_000040.html" target="_top" xlink:title="1">
<text text-anchor="middle" x="187.096" y="-260.547" font-family="Helvetica,sans-Serif" font-size="10.00">1</text>
</a>
</g>
<!-- dir_b2dc0b43800b7ae3d27294802965dcfc&#45;&gt;dir_c16b2c78bfcfda89e8740b01cde8ab67 -->
<g id="edge12" class="edge"><title>dir_b2dc0b43800b7ae3d27294802965dcfc&#45;&gt;dir_c16b2c78bfcfda89e8740b01cde8ab67</title>
<path fill="none" stroke="black" d="M215.362,-287.966C224.377,-278.289 234.122,-265.576 238.867,-252 246.492,-230.183 248.485,-221.015 238.867,-200 236.822,-195.532 233.963,-191.388 230.674,-187.608"/>
<polygon fill="black" stroke="black" points="232.986,-184.971 223.442,-180.371 228.035,-189.919 232.986,-184.971"/>
<a xlink:href="dir_000041_000019.html" target="_top" xlink:title="80">
<text text-anchor="middle" x="237.536" y="-183.006" font-family="Helvetica,sans-Serif" font-size="10.00">80</text>
</a>
</g>
<!-- dir_b2dc0b43800b7ae3d27294802965dcfc&#45;&gt;dir_55c01538f0a6d4fce22a43840cf48722 -->
<g id="edge16" class="edge"><title>dir_b2dc0b43800b7ae3d27294802965dcfc&#45;&gt;dir_55c01538f0a6d4fce22a43840cf48722</title>
<path fill="none" stroke="black" d="M239.12,-302.607C301.441,-296.719 411.688,-282.223 435.867,-252 489.501,-184.957 352.864,-129.186 275.994,-104.164"/>
<polygon fill="black" stroke="black" points="276.615,-100.688 266.024,-100.981 274.486,-107.356 276.615,-100.688"/>
<a xlink:href="dir_000041_000009.html" target="_top" xlink:title="6">
<text text-anchor="middle" x="280.902" y="-96.5762" font-family="Helvetica,sans-Serif" font-size="10.00">6</text>
</a>
</g>
<!-- dir_b2dc0b43800b7ae3d27294802965dcfc&#45;&gt;dir_54de9d902354a0845f7f0690122ba168 -->
<g id="edge18" class="edge"><title>dir_b2dc0b43800b7ae3d27294802965dcfc&#45;&gt;dir_54de9d902354a0845f7f0690122ba168</title>
<path fill="none" stroke="black" d="M238.998,-288.937C263.995,-279.048 295.728,-266.495 322.547,-255.885"/>
<polygon fill="black" stroke="black" points="324.173,-259.005 332.185,-252.072 321.598,-252.496 324.173,-259.005"/>
<a xlink:href="dir_000041_000043.html" target="_top" xlink:title="3">
<text text-anchor="middle" x="321.875" y="-260.468" font-family="Helvetica,sans-Serif" font-size="10.00">3</text>
</a>
</g>
<!-- dir_b2dc0b43800b7ae3d27294802965dcfc&#45;&gt;dir_2093dc0e773f0ae75a86b05835aba5e8 -->
<g id="edge20" class="edge"><title>dir_b2dc0b43800b7ae3d27294802965dcfc&#45;&gt;dir_2093dc0e773f0ae75a86b05835aba5e8</title>
<path fill="none" stroke="black" d="M152.846,-289.986C114.714,-275.589 64.6298,-256.093 61.8667,-252 17.4128,-186.158 72.8159,-90.1338 104.95,-44.2765"/>
<polygon fill="black" stroke="black" points="107.86,-46.224 110.84,-36.0568 102.17,-42.1466 107.86,-46.224"/>
<a xlink:href="dir_000041_000003.html" target="_top" xlink:title="22">
<text text-anchor="middle" x="108.074" y="-48.2996" font-family="Helvetica,sans-Serif" font-size="10.00">22</text>
</a>
</g>
<!-- dir_c16b2c78bfcfda89e8740b01cde8ab67&#45;&gt;dir_55c01538f0a6d4fce22a43840cf48722 -->
<g id="edge6" class="edge"><title>dir_c16b2c78bfcfda89e8740b01cde8ab67&#45;&gt;dir_55c01538f0a6d4fce22a43840cf48722</title>
<path fill="none" stroke="black" d="M203.194,-143.831C206.84,-135.877 211.198,-126.369 215.229,-117.572"/>
<polygon fill="black" stroke="black" points="218.442,-118.962 219.427,-108.413 212.079,-116.046 218.442,-118.962"/>
<a xlink:href="dir_000019_000009.html" target="_top" xlink:title="32">
<text text-anchor="middle" x="219.526" y="-120.913" font-family="Helvetica,sans-Serif" font-size="10.00">32</text>
</a>
</g>
<!-- dir_c16b2c78bfcfda89e8740b01cde8ab67&#45;&gt;dir_2093dc0e773f0ae75a86b05835aba5e8 -->
<g id="edge8" class="edge"><title>dir_c16b2c78bfcfda89e8740b01cde8ab67&#45;&gt;dir_2093dc0e773f0ae75a86b05835aba5e8</title>
<path fill="none" stroke="black" d="M186.001,-143.762C173.904,-118.876 152.129,-74.0822 138.097,-45.2165"/>
<polygon fill="black" stroke="black" points="141.18,-43.5531 133.66,-36.0896 134.884,-46.6135 141.18,-43.5531"/>
<a xlink:href="dir_000019_000003.html" target="_top" xlink:title="191">
<text text-anchor="middle" x="145.305" y="-43.0447" font-family="Helvetica,sans-Serif" font-size="10.00">191</text>
</a>
</g>
<!-- dir_55c01538f0a6d4fce22a43840cf48722&#45;&gt;dir_2093dc0e773f0ae75a86b05835aba5e8 -->
<g id="edge30" class="edge"><title>dir_55c01538f0a6d4fce22a43840cf48722&#45;&gt;dir_2093dc0e773f0ae75a86b05835aba5e8</title>
<path fill="none" stroke="black" d="M201.875,-71.8314C188.945,-62.7927 173.145,-51.7476 159.228,-42.0198"/>
<polygon fill="black" stroke="black" points="161.051,-39.0235 150.85,-36.1628 157.04,-44.7608 161.051,-39.0235"/>
<a xlink:href="dir_000009_000003.html" target="_top" xlink:title="66">
<text text-anchor="middle" x="165.624" y="-36.2559" font-family="Helvetica,sans-Serif" font-size="10.00">66</text>
</a>
</g>
<!-- dir_54de9d902354a0845f7f0690122ba168&#45;&gt;dir_c16b2c78bfcfda89e8740b01cde8ab67 -->
<g id="edge32" class="edge"><title>dir_54de9d902354a0845f7f0690122ba168&#45;&gt;dir_c16b2c78bfcfda89e8740b01cde8ab67</title>
<path fill="none" stroke="black" d="M347.034,-215.862C336.975,-210.353 325.624,-204.558 314.867,-200 292.358,-190.463 266.606,-182.004 244.745,-175.503"/>
<polygon fill="black" stroke="black" points="245.58,-172.101 234.999,-172.657 243.617,-178.82 245.58,-172.101"/>
<a xlink:href="dir_000043_000019.html" target="_top" xlink:title="1">
<text text-anchor="middle" x="249.826" y="-167.883" font-family="Helvetica,sans-Serif" font-size="10.00">1</text>
</a>
</g>
<!-- dir_54de9d902354a0845f7f0690122ba168&#45;&gt;dir_55c01538f0a6d4fce22a43840cf48722 -->
<g id="edge34" class="edge"><title>dir_54de9d902354a0845f7f0690122ba168&#45;&gt;dir_55c01538f0a6d4fce22a43840cf48722</title>
<path fill="none" stroke="black" d="M358.869,-215.762C332.383,-190.335 284.247,-144.125 254.28,-115.357"/>
<polygon fill="black" stroke="black" points="256.348,-112.49 246.71,-108.09 251.5,-117.54 256.348,-112.49"/>
<a xlink:href="dir_000043_000009.html" target="_top" xlink:title="1">
<text text-anchor="middle" x="260.907" y="-110.431" font-family="Helvetica,sans-Serif" font-size="10.00">1</text>
</a>
</g>
<!-- dir_54de9d902354a0845f7f0690122ba168&#45;&gt;dir_2093dc0e773f0ae75a86b05835aba5e8 -->
<g id="edge36" class="edge"><title>dir_54de9d902354a0845f7f0690122ba168&#45;&gt;dir_2093dc0e773f0ae75a86b05835aba5e8</title>
<path fill="none" stroke="black" d="M371.035,-215.926C357.611,-182.749 324.694,-111.884 274.867,-72 247.203,-49.8564 209.692,-36.3553 179.103,-28.3907"/>
<polygon fill="black" stroke="black" points="179.567,-24.9 169.019,-25.8974 177.887,-31.6954 179.567,-24.9"/>
<a xlink:href="dir_000043_000003.html" target="_top" xlink:title="12">
<text text-anchor="middle" x="183.738" y="-20.5065" font-family="Helvetica,sans-Serif" font-size="10.00">12</text>
</a>
</g>
</g>
</svg>
