<?xml version="1.0" encoding="UTF-8" standalone="no"?>
<!DOCTYPE svg PUBLIC "-//W3C//DTD SVG 1.1//EN"
 "http://www.w3.org/Graphics/SVG/1.1/DTD/svg11.dtd">
<!-- Generated by graphviz version 2.26.3 (20100126.1600)
 -->
<!-- Title: getNetLinesAtScenePos Pages: 1 -->
<svg width="430pt" height="42pt"
 viewBox="0.00 0.00 430.00 42.00" xmlns="http://www.w3.org/2000/svg" xmlns:xlink="http://www.w3.org/1999/xlink">
<g id="graph1" class="graph" transform="scale(1 1) rotate(0) translate(4 38)">
<title>getNetLinesAtScenePos</title>
<polygon fill="white" stroke="white" points="-4,5 -4,-38 427,-38 427,5 -4,5"/>
<!-- Node1 -->
<g id="node1" class="node"><title>Node1</title>
<polygon fill="#bfbfbf" stroke="black" points="0,-6.5 0,-27.5 124,-27.5 124,-6.5 0,-6.5"/>
<text text-anchor="middle" x="62" y="-14.5" font-family="Helvetica,sans-Serif" font-size="10.00">getNetLinesAtScenePos</text>
</g>
<!-- Node2 -->
<g id="node3" class="node"><title>Node2</title>
<a xlink:href="../../d3/d7c/classproject_1_1_s_i___net_line.html#af90fb11b274fda88ef94e9f685a6ab35" target="_top" xlink:title="project::SI_NetLine\l::getGrabAreaScenePx">
<polygon fill="white" stroke="black" points="160.5,-0 160.5,-34 277.5,-34 277.5,-0 160.5,-0"/>
<text text-anchor="start" x="168.5" y="-21" font-family="Helvetica,sans-Serif" font-size="10.00">project::SI_NetLine</text>
<text text-anchor="middle" x="219" y="-8" font-family="Helvetica,sans-Serif" font-size="10.00">::getGrabAreaScenePx</text>
</a>
</g>
<!-- Node1&#45;&gt;Node2 -->
<g id="edge2" class="edge"><title>Node1&#45;&gt;Node2</title>
<path fill="none" stroke="midnightblue" d="M124.051,-17C132.675,-17 141.577,-17 150.315,-17"/>
<polygon fill="midnightblue" stroke="midnightblue" points="150.469,-20.5001 160.469,-17 150.469,-13.5001 150.469,-20.5001"/>
</g>
<!-- Node3 -->
<g id="node5" class="node"><title>Node3</title>
<a xlink:href="../../df/dd1/classproject_1_1_s_g_i___net_line.html#a6e4b5bc28b84f0ec515bb76daba69390" target="_top" xlink:title="project::SGI_NetLine\l::shape">
<polygon fill="white" stroke="black" points="314,-0 314,-34 422,-34 422,-0 314,-0"/>
<text text-anchor="start" x="322" y="-21" font-family="Helvetica,sans-Serif" font-size="10.00">project::SGI_NetLine</text>
<text text-anchor="middle" x="368" y="-8" font-family="Helvetica,sans-Serif" font-size="10.00">::shape</text>
</a>
</g>
<!-- Node2&#45;&gt;Node3 -->
<g id="edge4" class="edge"><title>Node2&#45;&gt;Node3</title>
<path fill="none" stroke="midnightblue" d="M277.889,-17C286.425,-17 295.247,-17 303.88,-17"/>
<polygon fill="midnightblue" stroke="midnightblue" points="303.898,-20.5001 313.898,-17 303.898,-13.5001 303.898,-20.5001"/>
</g>
</g>
</svg>
