<?xml version="1.0" encoding="UTF-8" standalone="no"?>
<!DOCTYPE svg PUBLIC "-//W3C//DTD SVG 1.1//EN"
 "http://www.w3.org/Graphics/SVG/1.1/DTD/svg11.dtd">
<!-- Generated by graphviz version 2.26.3 (20100126.1600)
 -->
<!-- Title: /home/travis/build/LibrePCB/LibrePCB/libs/librepcbworkspace/recentprojectsmodel.cpp Pages: 1 -->
<svg width="1507pt" height="374pt"
 viewBox="0.00 0.00 1507.38 374.00" xmlns="http://www.w3.org/2000/svg" xmlns:xlink="http://www.w3.org/1999/xlink">
<g id="graph1" class="graph" transform="scale(1 1) rotate(0) translate(4 370)">
<title>/home/travis/build/LibrePCB/LibrePCB/libs/librepcbworkspace/recentprojectsmodel.cpp</title>
<polygon fill="white" stroke="white" points="-4,5 -4,-370 1504.38,-370 1504.38,5 -4,5"/>
<!-- Node1 -->
<g id="node1" class="node"><title>Node1</title>
<polygon fill="#bfbfbf" stroke="black" points="157,-318.5 157,-365.5 367,-365.5 367,-318.5 157,-318.5"/>
<text text-anchor="start" x="165" y="-352.5" font-family="Helvetica,sans-Serif" font-size="10.00">/home/travis/build</text>
<text text-anchor="start" x="165" y="-339.5" font-family="Helvetica,sans-Serif" font-size="10.00">/LibrePCB/LibrePCB/libs</text>
<text text-anchor="middle" x="262" y="-326.5" font-family="Helvetica,sans-Serif" font-size="10.00">/librepcbworkspace/recentprojectsmodel.cpp</text>
</g>
<!-- Node2 -->
<g id="node3" class="node"><title>Node2</title>
<polygon fill="white" stroke="#bfbfbf" points="265,-0.5 265,-21.5 313,-21.5 313,-0.5 265,-0.5"/>
<text text-anchor="middle" x="289" y="-8.5" font-family="Helvetica,sans-Serif" font-size="10.00">QtCore</text>
</g>
<!-- Node1&#45;&gt;Node2 -->
<g id="edge2" class="edge"><title>Node1&#45;&gt;Node2</title>
<path fill="none" stroke="midnightblue" d="M179.461,-318.41C102.664,-293.937 0,-253.624 0,-213 0,-213 0,-213 0,-148 0,-94.1855 34.5713,-85.2099 81,-58 110.209,-40.8815 203.853,-24.233 254.951,-16.1209"/>
<polygon fill="midnightblue" stroke="midnightblue" points="255.533,-19.5725 264.871,-14.5684 254.45,-12.6567 255.533,-19.5725"/>
</g>
<!-- Node3 -->
<g id="node5" class="node"><title>Node3</title>
<polygon fill="white" stroke="#bfbfbf" points="1039.5,-65.5 1039.5,-86.5 1102.5,-86.5 1102.5,-65.5 1039.5,-65.5"/>
<text text-anchor="middle" x="1071" y="-73.5" font-family="Helvetica,sans-Serif" font-size="10.00">QtWidgets</text>
</g>
<!-- Node1&#45;&gt;Node3 -->
<g id="edge4" class="edge"><title>Node1&#45;&gt;Node3</title>
<path fill="none" stroke="midnightblue" d="M367.248,-339.711C649.133,-332.5 1404.88,-305.659 1479,-224 1586.28,-105.818 1236.68,-81.8837 1112.83,-77.1427"/>
<polygon fill="midnightblue" stroke="midnightblue" points="1112.72,-73.6363 1102.6,-76.7752 1112.47,-80.6318 1112.72,-73.6363"/>
</g>
<!-- Node4 -->
<g id="node7" class="node"><title>Node4</title>
<a xlink:href="../../df/d24/recentprojectsmodel_8h.html" target="_top" xlink:title="recentprojectsmodel.h">
<polygon fill="white" stroke="black" points="27.5,-137.5 27.5,-158.5 140.5,-158.5 140.5,-137.5 27.5,-137.5"/>
<text text-anchor="middle" x="84" y="-145.5" font-family="Helvetica,sans-Serif" font-size="10.00">recentprojectsmodel.h</text>
</a>
</g>
<!-- Node1&#45;&gt;Node4 -->
<g id="edge6" class="edge"><title>Node1&#45;&gt;Node4</title>
<path fill="none" stroke="midnightblue" d="M240.174,-318.212C204.249,-279.058 133.414,-201.856 100.962,-166.487"/>
<polygon fill="midnightblue" stroke="midnightblue" points="103.275,-163.831 93.9354,-158.829 98.1172,-168.563 103.275,-163.831"/>
</g>
<!-- Node6 -->
<g id="node13" class="node"><title>Node6</title>
<a xlink:href="../../d4/de6/workspace_8h.html" target="_top" xlink:title="workspace.h">
<polygon fill="white" stroke="black" points="226,-202.5 226,-223.5 298,-223.5 298,-202.5 226,-202.5"/>
<text text-anchor="middle" x="262" y="-210.5" font-family="Helvetica,sans-Serif" font-size="10.00">workspace.h</text>
</a>
</g>
<!-- Node1&#45;&gt;Node6 -->
<g id="edge14" class="edge"><title>Node1&#45;&gt;Node6</title>
<path fill="none" stroke="midnightblue" d="M262,-318.339C262,-294.086 262,-256.746 262,-233.651"/>
<polygon fill="midnightblue" stroke="midnightblue" points="265.5,-233.577 262,-223.577 258.5,-233.577 265.5,-233.577"/>
</g>
<!-- Node9 -->
<g id="node24" class="node"><title>Node9</title>
<a xlink:href="../../d7/dfd/workspacesettings_8h.html" target="_top" xlink:title="settings/workspacesettings.h">
<polygon fill="white" stroke="black" points="632,-260.5 632,-281.5 776,-281.5 776,-260.5 632,-260.5"/>
<text text-anchor="middle" x="704" y="-268.5" font-family="Helvetica,sans-Serif" font-size="10.00">settings/workspacesettings.h</text>
</a>
</g>
<!-- Node1&#45;&gt;Node9 -->
<g id="edge30" class="edge"><title>Node1&#45;&gt;Node9</title>
<path fill="none" stroke="midnightblue" d="M367.028,-325.129C447.496,-312.203 556.587,-294.68 628.568,-283.117"/>
<polygon fill="midnightblue" stroke="midnightblue" points="629.154,-286.568 638.472,-281.526 628.043,-279.656 629.154,-286.568"/>
</g>
<!-- Node4&#45;&gt;Node2 -->
<g id="edge8" class="edge"><title>Node4&#45;&gt;Node2</title>
<path fill="none" stroke="midnightblue" d="M82.9249,-137.204C81.6952,-118.445 82.0831,-79.7588 103,-58 123.708,-36.4583 206.762,-22.0246 254.592,-15.3174"/>
<polygon fill="midnightblue" stroke="midnightblue" points="255.361,-18.7451 264.798,-13.9284 254.417,-11.809 255.361,-18.7451"/>
</g>
<!-- Node5 -->
<g id="node10" class="node"><title>Node5</title>
<a xlink:href="../../dd/dec/filepath_8h.html" target="_top" xlink:title="librepcbcommon/fileio\l/filepath.h">
<polygon fill="white" stroke="black" points="111.5,-59 111.5,-93 222.5,-93 222.5,-59 111.5,-59"/>
<text text-anchor="start" x="119.5" y="-80" font-family="Helvetica,sans-Serif" font-size="10.00">librepcbcommon/fileio</text>
<text text-anchor="middle" x="167" y="-67" font-family="Helvetica,sans-Serif" font-size="10.00">/filepath.h</text>
</a>
</g>
<!-- Node4&#45;&gt;Node5 -->
<g id="edge10" class="edge"><title>Node4&#45;&gt;Node5</title>
<path fill="none" stroke="midnightblue" d="M96.2469,-137.376C107.585,-127.541 124.851,-112.563 139.487,-99.8665"/>
<polygon fill="midnightblue" stroke="midnightblue" points="142.034,-102.291 147.294,-93.0944 137.447,-97.0033 142.034,-102.291"/>
</g>
<!-- Node5&#45;&gt;Node2 -->
<g id="edge12" class="edge"><title>Node5&#45;&gt;Node2</title>
<path fill="none" stroke="midnightblue" d="M199.054,-58.922C217.931,-48.8644 241.624,-36.2415 259.953,-26.476"/>
<polygon fill="midnightblue" stroke="midnightblue" points="261.815,-29.4495 268.995,-21.6584 258.524,-23.2716 261.815,-29.4495"/>
</g>
<!-- Node6&#45;&gt;Node2 -->
<g id="edge16" class="edge"><title>Node6&#45;&gt;Node2</title>
<path fill="none" stroke="midnightblue" d="M250.125,-202.36C241.299,-193.599 229.963,-180.327 225,-166 219.763,-150.881 221.092,-145.515 225,-130 234.617,-91.8131 259.142,-52.5377 274.887,-30.0218"/>
<polygon fill="midnightblue" stroke="midnightblue" points="277.858,-31.8848 280.834,-21.7163 272.166,-27.8098 277.858,-31.8848"/>
</g>
<!-- Node7 -->
<g id="node16" class="node"><title>Node7</title>
<a xlink:href="../../d5/db9/filelock_8h.html" target="_top" xlink:title="librepcbcommon/fileio\l/filelock.h">
<polygon fill="white" stroke="black" points="233.5,-131 233.5,-165 344.5,-165 344.5,-131 233.5,-131"/>
<text text-anchor="start" x="241.5" y="-152" font-family="Helvetica,sans-Serif" font-size="10.00">librepcbcommon/fileio</text>
<text text-anchor="middle" x="289" y="-139" font-family="Helvetica,sans-Serif" font-size="10.00">/filelock.h</text>
</a>
</g>
<!-- Node6&#45;&gt;Node7 -->
<g id="edge18" class="edge"><title>Node6&#45;&gt;Node7</title>
<path fill="none" stroke="midnightblue" d="M266.459,-202.267C269.604,-194.694 273.961,-184.205 278.007,-174.464"/>
<polygon fill="midnightblue" stroke="midnightblue" points="281.289,-175.687 281.893,-165.11 274.824,-173.002 281.289,-175.687"/>
</g>
<!-- Node8 -->
<g id="node20" class="node"><title>Node8</title>
<a xlink:href="../../d4/d03/exceptions_8h.html" target="_top" xlink:title="../exceptions.h">
<polygon fill="white" stroke="black" points="324.5,-65.5 324.5,-86.5 405.5,-86.5 405.5,-65.5 324.5,-65.5"/>
<text text-anchor="middle" x="365" y="-73.5" font-family="Helvetica,sans-Serif" font-size="10.00">../exceptions.h</text>
</a>
</g>
<!-- Node6&#45;&gt;Node8 -->
<g id="edge28" class="edge"><title>Node6&#45;&gt;Node8</title>
<path fill="none" stroke="midnightblue" d="M298.132,-203.292C317.505,-196.178 340.002,-184.467 353,-166 367.325,-145.647 368.545,-116.165 367.375,-96.5561"/>
<polygon fill="midnightblue" stroke="midnightblue" points="370.859,-96.2129 366.52,-86.5472 363.884,-96.8089 370.859,-96.2129"/>
</g>
<!-- Node7&#45;&gt;Node2 -->
<g id="edge20" class="edge"><title>Node7&#45;&gt;Node2</title>
<path fill="none" stroke="midnightblue" d="M289,-130.926C289,-105.821 289,-58.9976 289,-31.8807"/>
<polygon fill="midnightblue" stroke="midnightblue" points="292.5,-31.5864 289,-21.5864 285.5,-31.5865 292.5,-31.5864"/>
</g>
<!-- Node7&#45;&gt;Node5 -->
<g id="edge22" class="edge"><title>Node7&#45;&gt;Node5</title>
<path fill="none" stroke="midnightblue" d="M260.088,-130.937C243.647,-121.234 222.858,-108.966 205.099,-98.4848"/>
<polygon fill="midnightblue" stroke="midnightblue" points="206.519,-95.2584 196.128,-93.19 202.961,-101.287 206.519,-95.2584"/>
</g>
<!-- Node7&#45;&gt;Node8 -->
<g id="edge24" class="edge"><title>Node7&#45;&gt;Node8</title>
<path fill="none" stroke="midnightblue" d="M307.011,-130.937C318.821,-119.748 334.233,-105.147 346.2,-93.8108"/>
<polygon fill="midnightblue" stroke="midnightblue" points="348.641,-96.3193 353.493,-86.901 343.827,-91.2377 348.641,-96.3193"/>
</g>
<!-- Node8&#45;&gt;Node2 -->
<g id="edge26" class="edge"><title>Node8&#45;&gt;Node2</title>
<path fill="none" stroke="midnightblue" d="M352.45,-65.2666C340.719,-55.2334 322.999,-40.078 309.264,-28.3311"/>
<polygon fill="midnightblue" stroke="midnightblue" points="311.191,-25.3735 301.316,-21.5337 306.641,-30.6933 311.191,-25.3735"/>
</g>
<!-- Node9&#45;&gt;Node2 -->
<g id="edge32" class="edge"><title>Node9&#45;&gt;Node2</title>
<path fill="none" stroke="midnightblue" d="M631.9,-260.613C606.311,-253.817 578.943,-242.58 559,-224 526.03,-193.282 546.968,-166.828 521,-130 493.243,-90.6357 481.938,-81.69 440,-58 402.736,-36.9505 354.868,-24.1093 323.125,-17.2848"/>
<polygon fill="midnightblue" stroke="midnightblue" points="323.517,-13.7921 313.016,-15.1978 322.102,-20.6476 323.517,-13.7921"/>
</g>
<!-- Node9&#45;&gt;Node5 -->
<g id="edge34" class="edge"><title>Node9&#45;&gt;Node5</title>
<path fill="none" stroke="midnightblue" d="M631.901,-268.324C504.228,-262.963 248.776,-249.206 217,-224 180.188,-194.799 170.302,-137.338 167.756,-103.241"/>
<polygon fill="midnightblue" stroke="midnightblue" points="171.239,-102.837 167.163,-93.0573 164.251,-103.244 171.239,-102.837"/>
</g>
<!-- Node10 -->
<g id="node28" class="node"><title>Node10</title>
<a xlink:href="../../d1/df7/wsi__applocale_8h.html" target="_top" xlink:title="items/wsi_applocale.h">
<polygon fill="white" stroke="black" points="567.5,-202.5 567.5,-223.5 680.5,-223.5 680.5,-202.5 567.5,-202.5"/>
<text text-anchor="middle" x="624" y="-210.5" font-family="Helvetica,sans-Serif" font-size="10.00">items/wsi_applocale.h</text>
</a>
</g>
<!-- Node9&#45;&gt;Node10 -->
<g id="edge36" class="edge"><title>Node9&#45;&gt;Node10</title>
<path fill="none" stroke="midnightblue" d="M689.327,-260.362C677.486,-251.777 660.615,-239.546 646.984,-229.664"/>
<polygon fill="midnightblue" stroke="midnightblue" points="648.731,-226.607 638.58,-223.571 644.622,-232.274 648.731,-226.607"/>
</g>
<!-- Node12 -->
<g id="node34" class="node"><title>Node12</title>
<a xlink:href="../../dd/d8d/wsi__appdefaultmeasurementunits_8h.html" target="_top" xlink:title="items/wsi_appdefaultmeasurementunits.h">
<polygon fill="white" stroke="black" points="315.5,-202.5 315.5,-223.5 512.5,-223.5 512.5,-202.5 315.5,-202.5"/>
<text text-anchor="middle" x="414" y="-210.5" font-family="Helvetica,sans-Serif" font-size="10.00">items/wsi_appdefaultmeasurementunits.h</text>
</a>
</g>
<!-- Node9&#45;&gt;Node12 -->
<g id="edge44" class="edge"><title>Node9&#45;&gt;Node12</title>
<path fill="none" stroke="midnightblue" d="M651.483,-260.497C602.261,-250.652 528.636,-235.927 476.43,-225.486"/>
<polygon fill="midnightblue" stroke="midnightblue" points="477.108,-222.052 466.615,-223.523 475.735,-228.916 477.108,-222.052"/>
</g>
<!-- Node14 -->
<g id="node41" class="node"><title>Node14</title>
<a xlink:href="../../d8/d1a/wsi__projectautosaveinterval_8h.html" target="_top" xlink:title="items/wsi_projectautosaveinterval.h">
<polygon fill="white" stroke="black" points="697.5,-202.5 697.5,-223.5 870.5,-223.5 870.5,-202.5 697.5,-202.5"/>
<text text-anchor="middle" x="784" y="-210.5" font-family="Helvetica,sans-Serif" font-size="10.00">items/wsi_projectautosaveinterval.h</text>
</a>
</g>
<!-- Node9&#45;&gt;Node14 -->
<g id="edge54" class="edge"><title>Node9&#45;&gt;Node14</title>
<path fill="none" stroke="midnightblue" d="M718.673,-260.362C730.514,-251.777 747.385,-239.546 761.016,-229.664"/>
<polygon fill="midnightblue" stroke="midnightblue" points="763.378,-232.274 769.42,-223.571 759.269,-226.607 763.378,-232.274"/>
</g>
<!-- Node15 -->
<g id="node44" class="node"><title>Node15</title>
<a xlink:href="../../d8/d06/wsi__librarylocaleorder_8h.html" target="_top" xlink:title="items/wsi_librarylocaleorder.h">
<polygon fill="white" stroke="black" points="888,-202.5 888,-223.5 1034,-223.5 1034,-202.5 888,-202.5"/>
<text text-anchor="middle" x="961" y="-210.5" font-family="Helvetica,sans-Serif" font-size="10.00">items/wsi_librarylocaleorder.h</text>
</a>
</g>
<!-- Node9&#45;&gt;Node15 -->
<g id="edge58" class="edge"><title>Node9&#45;&gt;Node15</title>
<path fill="none" stroke="midnightblue" d="M750.541,-260.497C793.799,-250.734 858.325,-236.172 904.516,-225.747"/>
<polygon fill="midnightblue" stroke="midnightblue" points="905.388,-229.139 914.372,-223.523 903.847,-222.31 905.388,-229.139"/>
</g>
<!-- Node16 -->
<g id="node47" class="node"><title>Node16</title>
<a xlink:href="../../dd/d39/wsi__librarynormorder_8h.html" target="_top" xlink:title="items/wsi_librarynormorder.h">
<polygon fill="white" stroke="black" points="1052,-202.5 1052,-223.5 1194,-223.5 1194,-202.5 1052,-202.5"/>
<text text-anchor="middle" x="1123" y="-210.5" font-family="Helvetica,sans-Serif" font-size="10.00">items/wsi_librarynormorder.h</text>
</a>
</g>
<!-- Node9&#45;&gt;Node16 -->
<g id="edge62" class="edge"><title>Node9&#45;&gt;Node16</title>
<path fill="none" stroke="midnightblue" d="M776.029,-261.029C849.925,-250.8 964.675,-234.916 1041.76,-224.245"/>
<polygon fill="midnightblue" stroke="midnightblue" points="1042.49,-227.679 1051.91,-222.84 1041.53,-220.745 1042.49,-227.679"/>
</g>
<!-- Node17 -->
<g id="node50" class="node"><title>Node17</title>
<a xlink:href="../../d4/dc7/wsi__debugtools_8h.html" target="_top" xlink:title="items/wsi_debugtools.h">
<polygon fill="white" stroke="black" points="1211.5,-202.5 1211.5,-223.5 1330.5,-223.5 1330.5,-202.5 1211.5,-202.5"/>
<text text-anchor="middle" x="1271" y="-210.5" font-family="Helvetica,sans-Serif" font-size="10.00">items/wsi_debugtools.h</text>
</a>
</g>
<!-- Node9&#45;&gt;Node17 -->
<g id="edge66" class="edge"><title>Node9&#45;&gt;Node17</title>
<path fill="none" stroke="midnightblue" d="M776.058,-265.725C871.129,-258.427 1043.9,-244.001 1201,-224.195"/>
<polygon fill="midnightblue" stroke="midnightblue" points="1201.85,-227.616 1211.33,-222.883 1200.97,-220.672 1201.85,-227.616"/>
</g>
<!-- Node18 -->
<g id="node53" class="node"><title>Node18</title>
<a xlink:href="../../db/d31/wsi__appearance_8h.html" target="_top" xlink:title="items/wsi_appearance.h">
<polygon fill="white" stroke="black" points="1348,-202.5 1348,-223.5 1470,-223.5 1470,-202.5 1348,-202.5"/>
<text text-anchor="middle" x="1409" y="-210.5" font-family="Helvetica,sans-Serif" font-size="10.00">items/wsi_appearance.h</text>
</a>
</g>
<!-- Node9&#45;&gt;Node18 -->
<g id="edge70" class="edge"><title>Node9&#45;&gt;Node18</title>
<path fill="none" stroke="midnightblue" d="M776.08,-267.593C892.198,-261.679 1128.05,-247.912 1337.98,-224.039"/>
<polygon fill="midnightblue" stroke="midnightblue" points="1338.42,-227.511 1347.96,-222.894 1337.62,-220.557 1338.42,-227.511"/>
</g>
<!-- Node11 -->
<g id="node30" class="node"><title>Node11</title>
<a xlink:href="../../dd/d8c/wsi__base_8h.html" target="_top" xlink:title="wsi_base.h">
<polygon fill="white" stroke="black" points="928,-137.5 928,-158.5 994,-158.5 994,-137.5 928,-137.5"/>
<text text-anchor="middle" x="961" y="-145.5" font-family="Helvetica,sans-Serif" font-size="10.00">wsi_base.h</text>
</a>
</g>
<!-- Node10&#45;&gt;Node11 -->
<g id="edge38" class="edge"><title>Node10&#45;&gt;Node11</title>
<path fill="none" stroke="midnightblue" d="M678.519,-202.484C745.085,-189.645 856.326,-168.189 917.462,-156.398"/>
<polygon fill="midnightblue" stroke="midnightblue" points="918.395,-159.782 927.551,-154.452 917.069,-152.909 918.395,-159.782"/>
</g>
<!-- Node11&#45;&gt;Node2 -->
<g id="edge40" class="edge"><title>Node11&#45;&gt;Node2</title>
<path fill="none" stroke="midnightblue" d="M927.863,-140.176C858.623,-123.937 693.462,-85.7742 554,-58 471.431,-41.5561 373.814,-24.9765 323.236,-16.5985"/>
<polygon fill="midnightblue" stroke="midnightblue" points="323.616,-13.1139 313.179,-14.9382 322.475,-20.0204 323.616,-13.1139"/>
</g>
<!-- Node11&#45;&gt;Node3 -->
<g id="edge42" class="edge"><title>Node11&#45;&gt;Node3</title>
<path fill="none" stroke="midnightblue" d="M977.231,-137.376C995.429,-125.465 1025.15,-106.013 1046.25,-92.2024"/>
<polygon fill="midnightblue" stroke="midnightblue" points="1048.25,-95.0725 1054.7,-86.6674 1044.42,-89.2156 1048.25,-95.0725"/>
</g>
<!-- Node12&#45;&gt;Node11 -->
<g id="edge46" class="edge"><title>Node12&#45;&gt;Node11</title>
<path fill="none" stroke="midnightblue" d="M502.493,-202.484C621.452,-188.349 828.317,-163.767 917.754,-153.139"/>
<polygon fill="midnightblue" stroke="midnightblue" points="918.296,-156.599 927.813,-151.944 917.47,-149.648 918.296,-156.599"/>
</g>
<!-- Node13 -->
<g id="node37" class="node"><title>Node13</title>
<a xlink:href="../../d0/d09/lengthunit_8h.html" target="_top" xlink:title="librepcbcommon/units\l/lengthunit.h">
<polygon fill="white" stroke="black" points="400,-131 400,-165 512,-165 512,-131 400,-131"/>
<text text-anchor="start" x="408" y="-152" font-family="Helvetica,sans-Serif" font-size="10.00">librepcbcommon/units</text>
<text text-anchor="middle" x="456" y="-139" font-family="Helvetica,sans-Serif" font-size="10.00">/lengthunit.h</text>
</a>
</g>
<!-- Node12&#45;&gt;Node13 -->
<g id="edge48" class="edge"><title>Node12&#45;&gt;Node13</title>
<path fill="none" stroke="midnightblue" d="M420.935,-202.267C425.981,-194.458 433.032,-183.546 439.488,-173.554"/>
<polygon fill="midnightblue" stroke="midnightblue" points="442.457,-175.409 444.944,-165.11 436.577,-171.61 442.457,-175.409"/>
</g>
<!-- Node13&#45;&gt;Node2 -->
<g id="edge50" class="edge"><title>Node13&#45;&gt;Node2</title>
<path fill="none" stroke="midnightblue" d="M452.154,-130.741C446.837,-110.678 435.383,-77.797 414,-58 388.656,-34.5358 350.481,-22.4646 322.989,-16.4724"/>
<polygon fill="midnightblue" stroke="midnightblue" points="323.52,-13.009 313.025,-14.4625 322.135,-19.8708 323.52,-13.009"/>
</g>
<!-- Node13&#45;&gt;Node8 -->
<g id="edge52" class="edge"><title>Node13&#45;&gt;Node8</title>
<path fill="none" stroke="midnightblue" d="M434.434,-130.937C419.936,-119.465 400.904,-104.408 386.433,-92.958"/>
<polygon fill="midnightblue" stroke="midnightblue" points="388.522,-90.1481 378.508,-86.688 384.179,-95.6377 388.522,-90.1481"/>
</g>
<!-- Node14&#45;&gt;Node11 -->
<g id="edge56" class="edge"><title>Node14&#45;&gt;Node11</title>
<path fill="none" stroke="midnightblue" d="M812.832,-202.412C842.661,-191.458 889.416,-174.288 922.415,-162.17"/>
<polygon fill="midnightblue" stroke="midnightblue" points="924,-165.316 932.18,-158.584 921.587,-158.745 924,-165.316"/>
</g>
<!-- Node15&#45;&gt;Node11 -->
<g id="edge60" class="edge"><title>Node15&#45;&gt;Node11</title>
<path fill="none" stroke="midnightblue" d="M961,-202.267C961,-193.18 961,-179.892 961,-168.74"/>
<polygon fill="midnightblue" stroke="midnightblue" points="964.5,-168.534 961,-158.534 957.5,-168.534 964.5,-168.534"/>
</g>
<!-- Node16&#45;&gt;Node11 -->
<g id="edge64" class="edge"><title>Node16&#45;&gt;Node11</title>
<path fill="none" stroke="midnightblue" d="M1096.61,-202.412C1069.43,-191.505 1026.89,-174.436 996.706,-162.327"/>
<polygon fill="midnightblue" stroke="midnightblue" points="997.962,-159.059 987.377,-158.584 995.355,-165.556 997.962,-159.059"/>
</g>
<!-- Node17&#45;&gt;Node11 -->
<g id="edge68" class="edge"><title>Node17&#45;&gt;Node11</title>
<path fill="none" stroke="midnightblue" d="M1220.85,-202.484C1160.84,-189.901 1061.35,-169.042 1004.47,-157.114"/>
<polygon fill="midnightblue" stroke="midnightblue" points="1004.87,-153.622 994.362,-154.995 1003.43,-160.473 1004.87,-153.622"/>
</g>
<!-- Node18&#45;&gt;Node11 -->
<g id="edge72" class="edge"><title>Node18&#45;&gt;Node11</title>
<path fill="none" stroke="midnightblue" d="M1347.92,-203.351C1344.91,-202.89 1341.92,-202.438 1339,-202 1217.87,-183.832 1074.69,-163.76 1004.38,-153.996"/>
<polygon fill="midnightblue" stroke="midnightblue" points="1004.53,-150.483 994.141,-152.576 1003.57,-157.417 1004.53,-150.483"/>
</g>
</g>
</svg>
