<?xml version="1.0" encoding="UTF-8" standalone="no"?>
<!DOCTYPE svg PUBLIC "-//W3C//DTD SVG 1.1//EN"
 "http://www.w3.org/Graphics/SVG/1.1/DTD/svg11.dtd">
<!-- Generated by graphviz version 2.26.3 (20100126.1600)
 -->
<!-- Title: mapTo0_360deg Pages: 1 -->
<svg width="1094pt" height="172pt"
 viewBox="0.00 0.00 1094.00 172.00" xmlns="http://www.w3.org/2000/svg" xmlns:xlink="http://www.w3.org/1999/xlink">
<g id="graph1" class="graph" transform="scale(1 1) rotate(0) translate(4 168)">
<title>mapTo0_360deg</title>
<polygon fill="white" stroke="white" points="-4,5 -4,-168 1091,-168 1091,5 -4,5"/>
<!-- Node1 -->
<g id="node1" class="node"><title>Node1</title>
<polygon fill="#bfbfbf" stroke="black" points="0.5,-32.5 0.5,-53.5 89.5,-53.5 89.5,-32.5 0.5,-32.5"/>
<text text-anchor="middle" x="45" y="-40.5" font-family="Helvetica,sans-Serif" font-size="10.00">mapTo0_360deg</text>
</g>
<!-- Node2 -->
<g id="node3" class="node"><title>Node2</title>
<a xlink:href="../../d2/d39/class_angle.html#afba236b33bef9614cb43142b02c79187" target="_top" xlink:title="Get an Angle object which is mapped to [0..360[ degrees. ">
<polygon fill="white" stroke="black" points="126,-32.5 126,-53.5 230,-53.5 230,-32.5 126,-32.5"/>
<text text-anchor="middle" x="178" y="-40.5" font-family="Helvetica,sans-Serif" font-size="10.00">mappedTo0_360deg</text>
</a>
</g>
<!-- Node1&#45;&gt;Node2 -->
<g id="edge2" class="edge"><title>Node1&#45;&gt;Node2</title>
<path fill="none" stroke="midnightblue" d="M99.6636,-43C108.327,-43 117.268,-43 125.872,-43"/>
<polygon fill="midnightblue" stroke="midnightblue" points="99.6571,-39.5001 89.6571,-43 99.657,-46.5001 99.6571,-39.5001"/>
</g>
<!-- Node3 -->
<g id="node5" class="node"><title>Node3</title>
<a xlink:href="../../d0/d69/class_point.html#af8998fd1f88de65f9467a5d2012710a4" target="_top" xlink:title="Rotate the point by a specific angle with respect to a specific center. ">
<polygon fill="white" stroke="black" points="266,-32.5 266,-53.5 336,-53.5 336,-32.5 266,-32.5"/>
<text text-anchor="middle" x="301" y="-40.5" font-family="Helvetica,sans-Serif" font-size="10.00">Point::rotate</text>
</a>
</g>
<!-- Node2&#45;&gt;Node3 -->
<g id="edge4" class="edge"><title>Node2&#45;&gt;Node3</title>
<path fill="none" stroke="midnightblue" d="M240.402,-43C249.151,-43 257.875,-43 265.866,-43"/>
<polygon fill="midnightblue" stroke="midnightblue" points="240.163,-39.5001 230.163,-43 240.163,-46.5001 240.163,-39.5001"/>
</g>
<!-- Node4 -->
<g id="node7" class="node"><title>Node4</title>
<a xlink:href="../../d0/d69/class_point.html#a5234cfe8b9f31ba928745912067f90b4" target="_top" xlink:title="Get the point rotated by a specific angle with respect to a specific center. ">
<polygon fill="white" stroke="black" points="372.5,-32.5 372.5,-53.5 447.5,-53.5 447.5,-32.5 372.5,-32.5"/>
<text text-anchor="middle" x="410" y="-40.5" font-family="Helvetica,sans-Serif" font-size="10.00">Point::rotated</text>
</a>
</g>
<!-- Node3&#45;&gt;Node4 -->
<g id="edge6" class="edge"><title>Node3&#45;&gt;Node4</title>
<path fill="none" stroke="midnightblue" d="M346.118,-43C354.839,-43 363.891,-43 372.343,-43"/>
<polygon fill="midnightblue" stroke="midnightblue" points="346.088,-39.5001 336.088,-43 346.088,-46.5001 346.088,-39.5001"/>
</g>
<!-- Node5 -->
<g id="node9" class="node"><title>Node5</title>
<a xlink:href="../../de/d50/classproject_1_1_s_i___symbol.html#a56e275d18632ae7d863b45e405563e26" target="_top" xlink:title="project::SI_Symbol\l::mapToScene">
<polygon fill="white" stroke="black" points="489,-52 489,-86 589,-86 589,-52 489,-52"/>
<text text-anchor="start" x="497" y="-73" font-family="Helvetica,sans-Serif" font-size="10.00">project::SI_Symbol</text>
<text text-anchor="middle" x="539" y="-60" font-family="Helvetica,sans-Serif" font-size="10.00">::mapToScene</text>
</a>
</g>
<!-- Node4&#45;&gt;Node5 -->
<g id="edge8" class="edge"><title>Node4&#45;&gt;Node5</title>
<path fill="none" stroke="midnightblue" d="M457.533,-52.5803C467.648,-54.6189 478.361,-56.7783 488.58,-58.8378"/>
<polygon fill="midnightblue" stroke="midnightblue" points="458.153,-49.135 447.659,-50.5902 456.77,-55.997 458.153,-49.135"/>
</g>
<!-- Node13 -->
<g id="node28" class="node"><title>Node13</title>
<a xlink:href="../../d8/d8b/classproject_1_1_s_e_s___select.html#a1f262c8e6a4c3d45093729fa34ec01e8" target="_top" xlink:title="project::SES_Select\l::rotateSelectedItems">
<polygon fill="white" stroke="black" points="484,-0 484,-34 594,-34 594,-0 484,-0"/>
<text text-anchor="start" x="492" y="-21" font-family="Helvetica,sans-Serif" font-size="10.00">project::SES_Select</text>
<text text-anchor="middle" x="539" y="-8" font-family="Helvetica,sans-Serif" font-size="10.00">::rotateSelectedItems</text>
</a>
</g>
<!-- Node4&#45;&gt;Node13 -->
<g id="edge30" class="edge"><title>Node4&#45;&gt;Node13</title>
<path fill="none" stroke="midnightblue" d="M457.474,-33.4315C466.038,-31.7054 475.034,-29.8924 483.795,-28.1265"/>
<polygon fill="midnightblue" stroke="midnightblue" points="456.77,-30.003 447.659,-35.4098 458.153,-36.865 456.77,-30.003"/>
</g>
<!-- Node6 -->
<g id="node11" class="node"><title>Node6</title>
<a xlink:href="../../d6/d12/classproject_1_1_s_i___symbol_pin.html#a212e36e19edc323ddeb73387d2f011a5" target="_top" xlink:title="project::SI_SymbolPin\l::updatePosition">
<polygon fill="white" stroke="black" points="630,-52 630,-86 744,-86 744,-52 630,-52"/>
<text text-anchor="start" x="638" y="-73" font-family="Helvetica,sans-Serif" font-size="10.00">project::SI_SymbolPin</text>
<text text-anchor="middle" x="687" y="-60" font-family="Helvetica,sans-Serif" font-size="10.00">::updatePosition</text>
</a>
</g>
<!-- Node5&#45;&gt;Node6 -->
<g id="edge10" class="edge"><title>Node5&#45;&gt;Node6</title>
<path fill="none" stroke="midnightblue" d="M599.414,-69C609.457,-69 619.846,-69 629.806,-69"/>
<polygon fill="midnightblue" stroke="midnightblue" points="599.106,-65.5001 589.106,-69 599.106,-72.5001 599.106,-65.5001"/>
</g>
<!-- Node7 -->
<g id="node13" class="node"><title>Node7</title>
<a xlink:href="../../de/d50/classproject_1_1_s_i___symbol.html#ae4d151fe3fae75cb19c5add958a470a8" target="_top" xlink:title="project::SI_Symbol\l::setPosition">
<polygon fill="white" stroke="black" points="787,-52 787,-86 887,-86 887,-52 787,-52"/>
<text text-anchor="start" x="795" y="-73" font-family="Helvetica,sans-Serif" font-size="10.00">project::SI_Symbol</text>
<text text-anchor="middle" x="837" y="-60" font-family="Helvetica,sans-Serif" font-size="10.00">::setPosition</text>
</a>
</g>
<!-- Node6&#45;&gt;Node7 -->
<g id="edge12" class="edge"><title>Node6&#45;&gt;Node7</title>
<path fill="none" stroke="midnightblue" d="M754.152,-69C765.158,-69 776.391,-69 786.891,-69"/>
<polygon fill="midnightblue" stroke="midnightblue" points="754.137,-65.5001 744.136,-69 754.136,-72.5001 754.137,-65.5001"/>
</g>
<!-- Node11 -->
<g id="node21" class="node"><title>Node11</title>
<a xlink:href="../../de/d50/classproject_1_1_s_i___symbol.html#a92a6c99e0892b13f98c8ec4b5e4823f5" target="_top" xlink:title="project::SI_Symbol\l::setRotation">
<polygon fill="white" stroke="black" points="787,-104 787,-138 887,-138 887,-104 787,-104"/>
<text text-anchor="start" x="795" y="-125" font-family="Helvetica,sans-Serif" font-size="10.00">project::SI_Symbol</text>
<text text-anchor="middle" x="837" y="-112" font-family="Helvetica,sans-Serif" font-size="10.00">::setRotation</text>
</a>
</g>
<!-- Node6&#45;&gt;Node11 -->
<g id="edge20" class="edge"><title>Node6&#45;&gt;Node11</title>
<path fill="none" stroke="midnightblue" d="M745.617,-89.3205C759.561,-94.1545 774.299,-99.2638 787.774,-103.935"/>
<polygon fill="midnightblue" stroke="midnightblue" points="746.71,-85.9953 736.116,-86.0267 744.418,-92.6092 746.71,-85.9953"/>
</g>
<!-- Node12 -->
<g id="node26" class="node"><title>Node12</title>
<a xlink:href="../../d6/d12/classproject_1_1_s_i___symbol_pin.html#a2e791a2f0f926f88b6d3a8b6d73a03f0" target="_top" xlink:title="project::SI_SymbolPin\l::SI_SymbolPin">
<polygon fill="white" stroke="black" points="780,-0 780,-34 894,-34 894,-0 780,-0"/>
<text text-anchor="start" x="788" y="-21" font-family="Helvetica,sans-Serif" font-size="10.00">project::SI_SymbolPin</text>
<text text-anchor="middle" x="837" y="-8" font-family="Helvetica,sans-Serif" font-size="10.00">::SI_SymbolPin</text>
</a>
</g>
<!-- Node6&#45;&gt;Node12 -->
<g id="edge28" class="edge"><title>Node6&#45;&gt;Node12</title>
<path fill="none" stroke="midnightblue" d="M745.617,-48.6795C759.561,-43.8455 774.299,-38.7362 787.774,-34.065"/>
<polygon fill="midnightblue" stroke="midnightblue" points="744.418,-45.3908 736.116,-51.9733 746.71,-52.0047 744.418,-45.3908"/>
</g>
<!-- Node8 -->
<g id="node15" class="node"><title>Node8</title>
<a xlink:href="../../dd/d49/classproject_1_1_cmd_symbol_instance_edit.html#a6eaf0a56905dd18ebdf240a2229576c6" target="_top" xlink:title="project::CmdSymbolInstance\lEdit::~CmdSymbolInstanceEdit">
<polygon fill="white" stroke="black" points="930.5,-130 930.5,-164 1085.5,-164 1085.5,-130 930.5,-130"/>
<text text-anchor="start" x="938.5" y="-151" font-family="Helvetica,sans-Serif" font-size="10.00">project::CmdSymbolInstance</text>
<text text-anchor="middle" x="1008" y="-138" font-family="Helvetica,sans-Serif" font-size="10.00">Edit::~CmdSymbolInstanceEdit</text>
</a>
</g>
<!-- Node7&#45;&gt;Node8 -->
<g id="edge14" class="edge"><title>Node7&#45;&gt;Node8</title>
<path fill="none" stroke="midnightblue" d="M886.221,-90.6939C888.879,-92.0999 891.488,-93.5391 894,-95 911.061,-104.922 912.436,-111.998 930,-121 936.351,-124.255 943.197,-127.231 950.102,-129.912"/>
<polygon fill="midnightblue" stroke="midnightblue" points="887.568,-87.4527 877.065,-86.0574 884.406,-93.6976 887.568,-87.4527"/>
</g>
<!-- Node9 -->
<g id="node17" class="node"><title>Node9</title>
<a xlink:href="../../dd/d49/classproject_1_1_cmd_symbol_instance_edit.html#a91ca7652063093da57fc1bd0141dcc95" target="_top" xlink:title="Redo/execute the command (and all child commands in normal order) ">
<polygon fill="white" stroke="black" points="936.5,-78 936.5,-112 1079.5,-112 1079.5,-78 936.5,-78"/>
<text text-anchor="start" x="944.5" y="-99" font-family="Helvetica,sans-Serif" font-size="10.00">project::CmdSymbolInstance</text>
<text text-anchor="middle" x="1008" y="-86" font-family="Helvetica,sans-Serif" font-size="10.00">Edit::redo</text>
</a>
</g>
<!-- Node7&#45;&gt;Node9 -->
<g id="edge16" class="edge"><title>Node7&#45;&gt;Node9</title>
<path fill="none" stroke="midnightblue" d="M897.327,-78.1725C909.974,-80.0955 923.429,-82.1412 936.44,-84.1196"/>
<polygon fill="midnightblue" stroke="midnightblue" points="897.793,-74.7033 887.381,-76.6602 896.741,-81.6237 897.793,-74.7033"/>
</g>
<!-- Node10 -->
<g id="node19" class="node"><title>Node10</title>
<a xlink:href="../../dd/d49/classproject_1_1_cmd_symbol_instance_edit.html#a19e8778088bfe76b16745470981bb913" target="_top" xlink:title="Undo the command (and all child commands in reverse order) ">
<polygon fill="white" stroke="black" points="936.5,-26 936.5,-60 1079.5,-60 1079.5,-26 936.5,-26"/>
<text text-anchor="start" x="944.5" y="-47" font-family="Helvetica,sans-Serif" font-size="10.00">project::CmdSymbolInstance</text>
<text text-anchor="middle" x="1008" y="-34" font-family="Helvetica,sans-Serif" font-size="10.00">Edit::undo</text>
</a>
</g>
<!-- Node7&#45;&gt;Node10 -->
<g id="edge18" class="edge"><title>Node7&#45;&gt;Node10</title>
<path fill="none" stroke="midnightblue" d="M897.327,-59.8275C909.974,-57.9045 923.429,-55.8588 936.44,-53.8804"/>
<polygon fill="midnightblue" stroke="midnightblue" points="896.741,-56.3763 887.381,-61.3398 897.793,-63.2967 896.741,-56.3763"/>
</g>
<!-- Node11&#45;&gt;Node8 -->
<g id="edge22" class="edge"><title>Node11&#45;&gt;Node8</title>
<path fill="none" stroke="midnightblue" d="M897.411,-130.185C908.082,-131.808 919.324,-133.517 930.388,-135.199"/>
<polygon fill="midnightblue" stroke="midnightblue" points="897.793,-126.703 887.381,-128.66 896.741,-133.624 897.793,-126.703"/>
</g>
<!-- Node11&#45;&gt;Node9 -->
<g id="edge24" class="edge"><title>Node11&#45;&gt;Node9</title>
<path fill="none" stroke="midnightblue" d="M897.327,-111.827C909.974,-109.904 923.429,-107.859 936.44,-105.88"/>
<polygon fill="midnightblue" stroke="midnightblue" points="896.741,-108.376 887.381,-113.34 897.793,-115.297 896.741,-108.376"/>
</g>
<!-- Node11&#45;&gt;Node10 -->
<g id="edge26" class="edge"><title>Node11&#45;&gt;Node10</title>
<path fill="none" stroke="midnightblue" d="M886.221,-99.3061C888.879,-97.9001 891.488,-96.4609 894,-95 911.061,-85.0785 912.436,-78.002 930,-69 936.351,-65.7447 943.197,-62.7692 950.102,-60.0884"/>
<polygon fill="midnightblue" stroke="midnightblue" points="884.406,-96.3024 877.065,-103.943 887.568,-102.547 884.406,-96.3024"/>
</g>
</g>
</svg>
