<?xml version="1.0" encoding="UTF-8" standalone="no"?>
<!DOCTYPE svg PUBLIC "-//W3C//DTD SVG 1.1//EN"
 "http://www.w3.org/Graphics/SVG/1.1/DTD/svg11.dtd">
<!-- Generated by graphviz version 2.26.3 (20100126.1600)
 -->
<!-- Title: toRad Pages: 1 -->
<svg width="744pt" height="394pt"
 viewBox="0.00 0.00 744.00 394.00" xmlns="http://www.w3.org/2000/svg" xmlns:xlink="http://www.w3.org/1999/xlink">
<g id="graph1" class="graph" transform="scale(1 1) rotate(0) translate(4 390)">
<title>toRad</title>
<polygon fill="white" stroke="white" points="-4,5 -4,-390 741,-390 741,5 -4,5"/>
<!-- Node1 -->
<g id="node1" class="node"><title>Node1</title>
<polygon fill="#bfbfbf" stroke="black" points="0.5,-162.5 0.5,-183.5 43.5,-183.5 43.5,-162.5 0.5,-162.5"/>
<text text-anchor="middle" x="22" y="-170.5" font-family="Helvetica,sans-Serif" font-size="10.00">toRad</text>
</g>
<!-- Node2 -->
<g id="node3" class="node"><title>Node2</title>
<a xlink:href="../../d2/d28/classlibrary_1_1_footprint_polygon.html#a0c155e27c8e6d8f1cd3a8443b7bad250" target="_top" xlink:title="library::FootprintPolygon\l::toQPainterPathPx">
<polygon fill="white" stroke="black" points="80,-208 80,-242 202,-242 202,-208 80,-208"/>
<text text-anchor="start" x="88" y="-229" font-family="Helvetica,sans-Serif" font-size="10.00">library::FootprintPolygon</text>
<text text-anchor="middle" x="141" y="-216" font-family="Helvetica,sans-Serif" font-size="10.00">::toQPainterPathPx</text>
</a>
</g>
<!-- Node1&#45;&gt;Node2 -->
<g id="edge2" class="edge"><title>Node1&#45;&gt;Node2</title>
<path fill="none" stroke="midnightblue" d="M52.8557,-186.483C67.7955,-193.011 85.8996,-200.923 101.804,-207.873"/>
<polygon fill="midnightblue" stroke="midnightblue" points="54.1148,-183.214 43.55,-182.417 51.3119,-189.628 54.1148,-183.214"/>
</g>
<!-- Node10 -->
<g id="node22" class="node"><title>Node10</title>
<a xlink:href="../../d1/d7f/classlibrary_1_1_symbol_polygon.html#a0c155e27c8e6d8f1cd3a8443b7bad250" target="_top" xlink:title="library::SymbolPolygon\l::toQPainterPathPx">
<polygon fill="white" stroke="black" points="82.5,-104 82.5,-138 199.5,-138 199.5,-104 82.5,-104"/>
<text text-anchor="start" x="90.5" y="-125" font-family="Helvetica,sans-Serif" font-size="10.00">library::SymbolPolygon</text>
<text text-anchor="middle" x="141" y="-112" font-family="Helvetica,sans-Serif" font-size="10.00">::toQPainterPathPx</text>
</a>
</g>
<!-- Node1&#45;&gt;Node10 -->
<g id="edge24" class="edge"><title>Node1&#45;&gt;Node10</title>
<path fill="none" stroke="midnightblue" d="M52.8557,-159.517C67.7955,-152.989 85.8996,-145.077 101.804,-138.127"/>
<polygon fill="midnightblue" stroke="midnightblue" points="51.3119,-156.372 43.55,-163.583 54.1148,-162.786 51.3119,-156.372"/>
</g>
<!-- Node3 -->
<g id="node5" class="node"><title>Node3</title>
<a xlink:href="../../dc/d87/classproject_1_1_b_g_i___footprint.html#abbb5db1b700a86caa85ff4c0c13142f2" target="_top" xlink:title="project::BGI_Footprint\l::updateCacheAndRepaint">
<polygon fill="white" stroke="black" points="250.5,-260 250.5,-294 381.5,-294 381.5,-260 250.5,-260"/>
<text text-anchor="start" x="258.5" y="-281" font-family="Helvetica,sans-Serif" font-size="10.00">project::BGI_Footprint</text>
<text text-anchor="middle" x="316" y="-268" font-family="Helvetica,sans-Serif" font-size="10.00">::updateCacheAndRepaint</text>
</a>
</g>
<!-- Node2&#45;&gt;Node3 -->
<g id="edge4" class="edge"><title>Node2&#45;&gt;Node3</title>
<path fill="none" stroke="midnightblue" d="M207.981,-244.903C224.661,-249.859 242.396,-255.129 258.57,-259.935"/>
<polygon fill="midnightblue" stroke="midnightblue" points="208.884,-241.52 198.302,-242.027 206.89,-248.23 208.884,-241.52"/>
</g>
<!-- Node9 -->
<g id="node20" class="node"><title>Node9</title>
<a xlink:href="../../dc/d87/classproject_1_1_b_g_i___footprint.html#aa77fc5d2da89e1f09b09f7c6724ed721" target="_top" xlink:title="project::BGI_Footprint\l::paint">
<polygon fill="white" stroke="black" points="259.5,-208 259.5,-242 372.5,-242 372.5,-208 259.5,-208"/>
<text text-anchor="start" x="267.5" y="-229" font-family="Helvetica,sans-Serif" font-size="10.00">project::BGI_Footprint</text>
<text text-anchor="middle" x="316" y="-216" font-family="Helvetica,sans-Serif" font-size="10.00">::paint</text>
</a>
</g>
<!-- Node2&#45;&gt;Node9 -->
<g id="edge22" class="edge"><title>Node2&#45;&gt;Node9</title>
<path fill="none" stroke="midnightblue" d="M212.341,-225C227.953,-225 244.276,-225 259.228,-225"/>
<polygon fill="midnightblue" stroke="midnightblue" points="212.207,-221.5 202.207,-225 212.206,-228.5 212.207,-221.5"/>
</g>
<!-- Node4 -->
<g id="node7" class="node"><title>Node4</title>
<a xlink:href="../../da/d96/classproject_1_1_b_i___footprint.html#a80db668afe30ac6b6c9e5eb061b61cfc" target="_top" xlink:title="project::BI_Footprint\l::componentInstanceAttributes\lChanged">
<polygon fill="white" stroke="black" points="437,-338.5 437,-385.5 587,-385.5 587,-338.5 437,-338.5"/>
<text text-anchor="start" x="445" y="-372.5" font-family="Helvetica,sans-Serif" font-size="10.00">project::BI_Footprint</text>
<text text-anchor="start" x="445" y="-359.5" font-family="Helvetica,sans-Serif" font-size="10.00">::componentInstanceAttributes</text>
<text text-anchor="middle" x="512" y="-346.5" font-family="Helvetica,sans-Serif" font-size="10.00">Changed</text>
</a>
</g>
<!-- Node3&#45;&gt;Node4 -->
<g id="edge6" class="edge"><title>Node3&#45;&gt;Node4</title>
<path fill="none" stroke="midnightblue" d="M361.497,-298.324C382.286,-307.921 407.29,-319.257 430,-329 437.192,-332.086 444.773,-335.252 452.303,-338.343"/>
<polygon fill="midnightblue" stroke="midnightblue" points="362.81,-295.076 352.265,-294.05 359.869,-301.428 362.81,-295.076"/>
</g>
<!-- Node6 -->
<g id="node11" class="node"><title>Node6</title>
<a xlink:href="../../da/d96/classproject_1_1_b_i___footprint.html#a271c63e12acd19bccc27bf6861938df2" target="_top" xlink:title="project::BI_Footprint\l::componentInstanceMoved">
<polygon fill="white" stroke="black" points="443.5,-286 443.5,-320 580.5,-320 580.5,-286 443.5,-286"/>
<text text-anchor="start" x="451.5" y="-307" font-family="Helvetica,sans-Serif" font-size="10.00">project::BI_Footprint</text>
<text text-anchor="middle" x="512" y="-294" font-family="Helvetica,sans-Serif" font-size="10.00">::componentInstanceMoved</text>
</a>
</g>
<!-- Node3&#45;&gt;Node6 -->
<g id="edge10" class="edge"><title>Node3&#45;&gt;Node6</title>
<path fill="none" stroke="midnightblue" d="M391.909,-287.07C408.789,-289.309 426.591,-291.67 443.168,-293.869"/>
<polygon fill="midnightblue" stroke="midnightblue" points="391.911,-283.539 381.538,-285.694 390.991,-290.478 391.911,-283.539"/>
</g>
<!-- Node7 -->
<g id="node14" class="node"><title>Node7</title>
<a xlink:href="../../da/d96/classproject_1_1_b_i___footprint.html#ab6c0fcabcb9d5a38a27ed7aeb34f0958" target="_top" xlink:title="project::BI_Footprint\l::componentInstanceRotated">
<polygon fill="white" stroke="black" points="440.5,-234 440.5,-268 583.5,-268 583.5,-234 440.5,-234"/>
<text text-anchor="start" x="448.5" y="-255" font-family="Helvetica,sans-Serif" font-size="10.00">project::BI_Footprint</text>
<text text-anchor="middle" x="512" y="-242" font-family="Helvetica,sans-Serif" font-size="10.00">::componentInstanceRotated</text>
</a>
</g>
<!-- Node3&#45;&gt;Node7 -->
<g id="edge14" class="edge"><title>Node3&#45;&gt;Node7</title>
<path fill="none" stroke="midnightblue" d="M391.893,-266.933C407.862,-264.814 424.656,-262.586 440.458,-260.49"/>
<polygon fill="midnightblue" stroke="midnightblue" points="390.991,-263.522 381.538,-268.306 391.911,-270.461 390.991,-263.522"/>
</g>
<!-- Node8 -->
<g id="node17" class="node"><title>Node8</title>
<a xlink:href="../../da/d96/classproject_1_1_b_i___footprint.html#ae00c60cb068f7bb3703a6c84450afeaf" target="_top" xlink:title="project::BI_Footprint\l::componentInstanceMirrored">
<polygon fill="white" stroke="black" points="440.5,-182 440.5,-216 583.5,-216 583.5,-182 440.5,-182"/>
<text text-anchor="start" x="448.5" y="-203" font-family="Helvetica,sans-Serif" font-size="10.00">project::BI_Footprint</text>
<text text-anchor="middle" x="512" y="-190" font-family="Helvetica,sans-Serif" font-size="10.00">::componentInstanceMirrored</text>
</a>
</g>
<!-- Node3&#45;&gt;Node8 -->
<g id="edge18" class="edge"><title>Node3&#45;&gt;Node8</title>
<path fill="none" stroke="midnightblue" d="M383.207,-256.087C386.905,-254.477 390.527,-252.78 394,-251 411.564,-241.998 412.37,-233.873 430,-225 436.537,-221.71 443.575,-218.727 450.684,-216.054"/>
<polygon fill="midnightblue" stroke="midnightblue" points="381.818,-252.874 373.898,-259.912 384.478,-259.349 381.818,-252.874"/>
</g>
<!-- Node5 -->
<g id="node9" class="node"><title>Node5</title>
<a xlink:href="../../da/d96/classproject_1_1_b_i___footprint.html#a02fd73d861ef2e4aabb38c0c9ff82947" target="_top" xlink:title="project::BI_Footprint\l::init">
<polygon fill="white" stroke="black" points="630.5,-260 630.5,-294 735.5,-294 735.5,-260 630.5,-260"/>
<text text-anchor="start" x="638.5" y="-281" font-family="Helvetica,sans-Serif" font-size="10.00">project::BI_Footprint</text>
<text text-anchor="middle" x="683" y="-268" font-family="Helvetica,sans-Serif" font-size="10.00">::init</text>
</a>
</g>
<!-- Node4&#45;&gt;Node5 -->
<g id="edge8" class="edge"><title>Node4&#45;&gt;Node5</title>
<path fill="none" stroke="midnightblue" d="M582.525,-334.401C586.432,-332.629 590.279,-330.823 594,-329 615.372,-318.526 638.56,-304.899 655.907,-294.223"/>
<polygon fill="midnightblue" stroke="midnightblue" points="581.064,-331.22 573.333,-338.465 583.894,-337.622 581.064,-331.22"/>
</g>
<!-- Node6&#45;&gt;Node5 -->
<g id="edge12" class="edge"><title>Node6&#45;&gt;Node5</title>
<path fill="none" stroke="midnightblue" d="M590.79,-291.02C604.245,-288.974 617.923,-286.895 630.479,-284.986"/>
<polygon fill="midnightblue" stroke="midnightblue" points="589.927,-287.611 580.567,-292.575 590.979,-294.532 589.927,-287.611"/>
</g>
<!-- Node7&#45;&gt;Node5 -->
<g id="edge16" class="edge"><title>Node7&#45;&gt;Node5</title>
<path fill="none" stroke="midnightblue" d="M593.556,-263.4C606.115,-265.31 618.789,-267.237 630.489,-269.016"/>
<polygon fill="midnightblue" stroke="midnightblue" points="593.941,-259.919 583.529,-261.876 592.889,-266.839 593.941,-259.919"/>
</g>
<!-- Node8&#45;&gt;Node5 -->
<g id="edge20" class="edge"><title>Node8&#45;&gt;Node5</title>
<path fill="none" stroke="midnightblue" d="M580.675,-219.516C585.226,-221.261 589.705,-223.093 594,-225 616.243,-234.877 639.971,-248.936 657.329,-259.945"/>
<polygon fill="midnightblue" stroke="midnightblue" points="581.858,-216.222 571.265,-216.058 579.444,-222.793 581.858,-216.222"/>
</g>
<!-- Node11 -->
<g id="node24" class="node"><title>Node11</title>
<a xlink:href="../../d9/da8/classlibrary_1_1_symbol_preview_graphics_item.html#abbb5db1b700a86caa85ff4c0c13142f2" target="_top" xlink:title="library::SymbolPreviewGraphics\lItem::updateCacheAndRepaint">
<polygon fill="white" stroke="black" points="238,-156 238,-190 394,-190 394,-156 238,-156"/>
<text text-anchor="start" x="246" y="-177" font-family="Helvetica,sans-Serif" font-size="10.00">library::SymbolPreviewGraphics</text>
<text text-anchor="middle" x="316" y="-164" font-family="Helvetica,sans-Serif" font-size="10.00">Item::updateCacheAndRepaint</text>
</a>
</g>
<!-- Node10&#45;&gt;Node11 -->
<g id="edge26" class="edge"><title>Node10&#45;&gt;Node11</title>
<path fill="none" stroke="midnightblue" d="M207.981,-140.903C224.661,-145.859 242.396,-151.129 258.57,-155.935"/>
<polygon fill="midnightblue" stroke="midnightblue" points="208.884,-137.52 198.302,-138.027 206.89,-144.23 208.884,-137.52"/>
</g>
<!-- Node12 -->
<g id="node26" class="node"><title>Node12</title>
<a xlink:href="../../d9/da8/classlibrary_1_1_symbol_preview_graphics_item.html#aa77fc5d2da89e1f09b09f7c6724ed721" target="_top" xlink:title="library::SymbolPreviewGraphics\lItem::paint">
<polygon fill="white" stroke="black" points="238,-104 238,-138 394,-138 394,-104 238,-104"/>
<text text-anchor="start" x="246" y="-125" font-family="Helvetica,sans-Serif" font-size="10.00">library::SymbolPreviewGraphics</text>
<text text-anchor="middle" x="316" y="-112" font-family="Helvetica,sans-Serif" font-size="10.00">Item::paint</text>
</a>
</g>
<!-- Node10&#45;&gt;Node12 -->
<g id="edge28" class="edge"><title>Node10&#45;&gt;Node12</title>
<path fill="none" stroke="midnightblue" d="M209.944,-121C219.091,-121 228.522,-121 237.812,-121"/>
<polygon fill="midnightblue" stroke="midnightblue" points="209.759,-117.5 199.759,-121 209.759,-124.5 209.759,-117.5"/>
</g>
<!-- Node13 -->
<g id="node28" class="node"><title>Node13</title>
<a xlink:href="../../dd/d00/classproject_1_1_s_g_i___symbol.html#abbb5db1b700a86caa85ff4c0c13142f2" target="_top" xlink:title="project::SGI_Symbol\l::updateCacheAndRepaint">
<polygon fill="white" stroke="black" points="250.5,-52 250.5,-86 381.5,-86 381.5,-52 250.5,-52"/>
<text text-anchor="start" x="258.5" y="-73" font-family="Helvetica,sans-Serif" font-size="10.00">project::SGI_Symbol</text>
<text text-anchor="middle" x="316" y="-60" font-family="Helvetica,sans-Serif" font-size="10.00">::updateCacheAndRepaint</text>
</a>
</g>
<!-- Node10&#45;&gt;Node13 -->
<g id="edge30" class="edge"><title>Node10&#45;&gt;Node13</title>
<path fill="none" stroke="midnightblue" d="M207.981,-101.097C224.661,-96.1407 242.396,-90.871 258.57,-86.065"/>
<polygon fill="midnightblue" stroke="midnightblue" points="206.89,-97.7698 198.302,-103.973 208.884,-104.48 206.89,-97.7698"/>
</g>
<!-- Node16 -->
<g id="node34" class="node"><title>Node16</title>
<a xlink:href="../../dd/d00/classproject_1_1_s_g_i___symbol.html#aa77fc5d2da89e1f09b09f7c6724ed721" target="_top" xlink:title="project::SGI_Symbol\l::paint">
<polygon fill="white" stroke="black" points="262.5,-0 262.5,-34 369.5,-34 369.5,-0 262.5,-0"/>
<text text-anchor="start" x="270.5" y="-21" font-family="Helvetica,sans-Serif" font-size="10.00">project::SGI_Symbol</text>
<text text-anchor="middle" x="316" y="-8" font-family="Helvetica,sans-Serif" font-size="10.00">::paint</text>
</a>
</g>
<!-- Node10&#45;&gt;Node16 -->
<g id="edge36" class="edge"><title>Node10&#45;&gt;Node16</title>
<path fill="none" stroke="midnightblue" d="M165.648,-97.0269C184.26,-80.0105 211.111,-57.6721 238,-43 245.643,-38.8293 254.073,-35.17 262.48,-32.0152"/>
<polygon fill="midnightblue" stroke="midnightblue" points="163.138,-94.5819 158.2,-103.956 167.906,-99.707 163.138,-94.5819"/>
</g>
<!-- Node14 -->
<g id="node30" class="node"><title>Node14</title>
<a xlink:href="../../de/d50/classproject_1_1_s_i___symbol.html#a803d371853cd2d72f4df8a45349d0cb7" target="_top" xlink:title="project::SI_Symbol\l::schematicOrGenCompAttributes\lChanged">
<polygon fill="white" stroke="black" points="430,-45.5 430,-92.5 594,-92.5 594,-45.5 430,-45.5"/>
<text text-anchor="start" x="438" y="-79.5" font-family="Helvetica,sans-Serif" font-size="10.00">project::SI_Symbol</text>
<text text-anchor="start" x="438" y="-66.5" font-family="Helvetica,sans-Serif" font-size="10.00">::schematicOrGenCompAttributes</text>
<text text-anchor="middle" x="512" y="-53.5" font-family="Helvetica,sans-Serif" font-size="10.00">Changed</text>
</a>
</g>
<!-- Node13&#45;&gt;Node14 -->
<g id="edge32" class="edge"><title>Node13&#45;&gt;Node14</title>
<path fill="none" stroke="midnightblue" d="M391.845,-69C404.278,-69 417.214,-69 429.793,-69"/>
<polygon fill="midnightblue" stroke="midnightblue" points="391.538,-65.5001 381.538,-69 391.538,-72.5001 391.538,-65.5001"/>
</g>
<!-- Node15 -->
<g id="node32" class="node"><title>Node15</title>
<a xlink:href="../../de/d50/classproject_1_1_s_i___symbol.html#ae4e286593d2a82f74246f9cba8193605" target="_top" xlink:title="project::SI_Symbol\l::init">
<polygon fill="white" stroke="black" points="633,-52 633,-86 733,-86 733,-52 633,-52"/>
<text text-anchor="start" x="641" y="-73" font-family="Helvetica,sans-Serif" font-size="10.00">project::SI_Symbol</text>
<text text-anchor="middle" x="683" y="-60" font-family="Helvetica,sans-Serif" font-size="10.00">::init</text>
</a>
</g>
<!-- Node14&#45;&gt;Node15 -->
<g id="edge34" class="edge"><title>Node14&#45;&gt;Node15</title>
<path fill="none" stroke="midnightblue" d="M604.435,-69C614.192,-69 623.827,-69 632.829,-69"/>
<polygon fill="midnightblue" stroke="midnightblue" points="604.244,-65.5001 594.244,-69 604.244,-72.5001 604.244,-65.5001"/>
</g>
</g>
</svg>
