<?xml version="1.0" encoding="UTF-8" standalone="no"?>
<!DOCTYPE svg PUBLIC "-//W3C//DTD SVG 1.1//EN"
 "http://www.w3.org/Graphics/SVG/1.1/DTD/svg11.dtd">
<!-- Generated by graphviz version 2.26.3 (20100126.1600)
 -->
<!-- Title: Angle Pages: 1 -->
<svg width="1252pt" height="741pt"
 viewBox="0.00 0.00 1252.00 741.00" xmlns="http://www.w3.org/2000/svg" xmlns:xlink="http://www.w3.org/1999/xlink">
<g id="graph1" class="graph" transform="scale(1 1) rotate(0) translate(4 737)">
<title>Angle</title>
<polygon fill="white" stroke="white" points="-4,5 -4,-737 1249,-737 1249,5 -4,5"/>
<!-- Node1 -->
<g id="node1" class="node"><title>Node1</title>
<polygon fill="#bfbfbf" stroke="black" points="0.5,-288.5 0.5,-309.5 41.5,-309.5 41.5,-288.5 0.5,-288.5"/>
<text text-anchor="middle" x="21" y="-296.5" font-family="Helvetica,sans-Serif" font-size="10.00">Angle</text>
</g>
<!-- Node2 -->
<g id="node3" class="node"><title>Node2</title>
<a xlink:href="../../d2/d39/class_angle.html#a0bb104c9f39ddaeb30f14b4320e34f2a" target="_top" xlink:title="0 degrees ">
<polygon fill="white" stroke="black" points="90,-633.5 90,-654.5 128,-654.5 128,-633.5 90,-633.5"/>
<text text-anchor="middle" x="109" y="-641.5" font-family="Helvetica,sans-Serif" font-size="10.00">deg0</text>
</a>
</g>
<!-- Node1&#45;&gt;Node2 -->
<g id="edge2" class="edge"><title>Node1&#45;&gt;Node2</title>
<path fill="none" stroke="midnightblue" d="M22.3999,-319.563C26.2823,-368.621 39.5625,-495.755 78,-594 83.7308,-608.648 93.7849,-623.766 100.887,-633.489"/>
<polygon fill="midnightblue" stroke="midnightblue" points="25.8888,-319.283 21.6562,-309.57 18.9081,-319.802 25.8888,-319.283"/>
</g>
<!-- Node14 -->
<g id="node30" class="node"><title>Node14</title>
<a xlink:href="../../d2/d39/class_angle.html#a66e0cf88e393d15519c275f9823b6201" target="_top" xlink:title="45 degrees ">
<polygon fill="white" stroke="black" points="87.5,-368.5 87.5,-389.5 130.5,-389.5 130.5,-368.5 87.5,-368.5"/>
<text text-anchor="middle" x="109" y="-376.5" font-family="Helvetica,sans-Serif" font-size="10.00">deg45</text>
</a>
</g>
<!-- Node1&#45;&gt;Node14 -->
<g id="edge32" class="edge"><title>Node1&#45;&gt;Node14</title>
<path fill="none" stroke="midnightblue" d="M36.794,-317.836C47.6966,-330.259 62.8993,-346.486 78,-359 82.0439,-362.351 86.6777,-365.607 91.1087,-368.486"/>
<polygon fill="midnightblue" stroke="midnightblue" points="39.166,-315.227 29.9871,-309.935 33.8629,-319.796 39.166,-315.227"/>
</g>
<!-- Node15 -->
<g id="node32" class="node"><title>Node15</title>
<a xlink:href="../../d2/d39/class_angle.html#a7f29e0cf68871bab5b01569d78de4504" target="_top" xlink:title="90 degrees ">
<polygon fill="white" stroke="black" points="87.5,-408.5 87.5,-429.5 130.5,-429.5 130.5,-408.5 87.5,-408.5"/>
<text text-anchor="middle" x="109" y="-416.5" font-family="Helvetica,sans-Serif" font-size="10.00">deg90</text>
</a>
</g>
<!-- Node1&#45;&gt;Node15 -->
<g id="edge34" class="edge"><title>Node1&#45;&gt;Node15</title>
<path fill="none" stroke="midnightblue" d="M29.0406,-319.185C38.3851,-340.794 55.4516,-375.178 78,-399 81.3462,-402.535 85.4378,-405.734 89.5372,-408.485"/>
<polygon fill="midnightblue" stroke="midnightblue" points="32.1657,-317.586 25.0834,-309.706 25.7059,-320.282 32.1657,-317.586"/>
</g>
<!-- Node39 -->
<g id="node86" class="node"><title>Node39</title>
<a xlink:href="../../d2/d39/class_angle.html#a7182035a59e5764d55fdc037b586c76e" target="_top" xlink:title="135 degrees ">
<polygon fill="white" stroke="black" points="85,-328.5 85,-349.5 133,-349.5 133,-328.5 85,-328.5"/>
<text text-anchor="middle" x="109" y="-336.5" font-family="Helvetica,sans-Serif" font-size="10.00">deg135</text>
</a>
</g>
<!-- Node1&#45;&gt;Node39 -->
<g id="edge94" class="edge"><title>Node1&#45;&gt;Node39</title>
<path fill="none" stroke="midnightblue" d="M51.0088,-312.64C62.3885,-317.813 75.1617,-323.619 85.8179,-328.463"/>
<polygon fill="midnightblue" stroke="midnightblue" points="52.4068,-309.431 41.8548,-308.479 49.5101,-315.804 52.4068,-309.431"/>
</g>
<!-- Node40 -->
<g id="node88" class="node"><title>Node40</title>
<a xlink:href="../../d2/d39/class_angle.html#a1cb5c1054de209f807098188714339d8" target="_top" xlink:title="180 degrees ">
<polygon fill="white" stroke="black" points="85,-563.5 85,-584.5 133,-584.5 133,-563.5 85,-563.5"/>
<text text-anchor="middle" x="109" y="-571.5" font-family="Helvetica,sans-Serif" font-size="10.00">deg180</text>
</a>
</g>
<!-- Node1&#45;&gt;Node40 -->
<g id="edge96" class="edge"><title>Node1&#45;&gt;Node40</title>
<path fill="none" stroke="midnightblue" d="M26.3441,-319.39C35.833,-355.073 56.6424,-431.038 78,-494 86.5649,-519.249 98.3084,-548.302 104.598,-563.494"/>
<polygon fill="midnightblue" stroke="midnightblue" points="29.7138,-318.442 23.7747,-309.668 22.9462,-320.231 29.7138,-318.442"/>
</g>
<!-- Node41 -->
<g id="node91" class="node"><title>Node41</title>
<a xlink:href="../../d2/d39/class_angle.html#aedbd951c616edbeb5ec9c29b85afd7d0" target="_top" xlink:title="225 degrees ">
<polygon fill="white" stroke="black" points="85,-288.5 85,-309.5 133,-309.5 133,-288.5 85,-288.5"/>
<text text-anchor="middle" x="109" y="-296.5" font-family="Helvetica,sans-Serif" font-size="10.00">deg225</text>
</a>
</g>
<!-- Node1&#45;&gt;Node41 -->
<g id="edge100" class="edge"><title>Node1&#45;&gt;Node41</title>
<path fill="none" stroke="midnightblue" d="M52.1266,-299C62.8807,-299 74.7599,-299 84.8682,-299"/>
<polygon fill="midnightblue" stroke="midnightblue" points="51.8548,-295.5 41.8548,-299 51.8547,-302.5 51.8548,-295.5"/>
</g>
<!-- Node42 -->
<g id="node93" class="node"><title>Node42</title>
<a xlink:href="../../d2/d39/class_angle.html#a7600a8b34a9d1abb484a7d459cc45bba" target="_top" xlink:title="270 degrees ">
<polygon fill="white" stroke="black" points="85,-463.5 85,-484.5 133,-484.5 133,-463.5 85,-463.5"/>
<text text-anchor="middle" x="109" y="-471.5" font-family="Helvetica,sans-Serif" font-size="10.00">deg270</text>
</a>
</g>
<!-- Node1&#45;&gt;Node42 -->
<g id="edge102" class="edge"><title>Node1&#45;&gt;Node42</title>
<path fill="none" stroke="midnightblue" d="M26.9976,-319.705C35.7149,-347.976 53.5542,-399.638 78,-439 83.5672,-447.964 91.4743,-456.85 97.9092,-463.425"/>
<polygon fill="midnightblue" stroke="midnightblue" points="30.2416,-318.338 24.0142,-309.766 23.5371,-320.35 30.2416,-318.338"/>
</g>
<!-- Node43 -->
<g id="node96" class="node"><title>Node43</title>
<a xlink:href="../../d2/d39/class_angle.html#a3e9ff83b3b3002c2fb82b51d71dc7866" target="_top" xlink:title="315 degrees ">
<polygon fill="white" stroke="black" points="85,-248.5 85,-269.5 133,-269.5 133,-248.5 85,-248.5"/>
<text text-anchor="middle" x="109" y="-256.5" font-family="Helvetica,sans-Serif" font-size="10.00">deg315</text>
</a>
</g>
<!-- Node1&#45;&gt;Node43 -->
<g id="edge106" class="edge"><title>Node1&#45;&gt;Node43</title>
<path fill="none" stroke="midnightblue" d="M51.0088,-285.36C62.3885,-280.187 75.1617,-274.381 85.8179,-269.537"/>
<polygon fill="midnightblue" stroke="midnightblue" points="49.5101,-282.196 41.8548,-289.521 52.4068,-288.569 49.5101,-282.196"/>
</g>
<!-- Node44 -->
<g id="node98" class="node"><title>Node44</title>
<a xlink:href="../../d2/d39/class_angle.html#aa61cdf999bf21d0e8c88a2a7912ed0b9" target="_top" xlink:title="operator+">
<polygon fill="white" stroke="black" points="80,-208.5 80,-229.5 138,-229.5 138,-208.5 80,-208.5"/>
<text text-anchor="middle" x="109" y="-216.5" font-family="Helvetica,sans-Serif" font-size="10.00">operator+</text>
</a>
</g>
<!-- Node1&#45;&gt;Node44 -->
<g id="edge108" class="edge"><title>Node1&#45;&gt;Node44</title>
<path fill="none" stroke="midnightblue" d="M36.794,-280.164C47.6966,-267.741 62.8993,-251.514 78,-239 82.0439,-235.649 86.6777,-232.393 91.1087,-229.514"/>
<polygon fill="midnightblue" stroke="midnightblue" points="33.8629,-278.204 29.9871,-288.065 39.166,-282.773 33.8629,-278.204"/>
</g>
<!-- Node45 -->
<g id="node100" class="node"><title>Node45</title>
<a xlink:href="../../d2/d39/class_angle.html#a7905be8894d323272f06ea4943e0029a" target="_top" xlink:title="operator&#45;">
<polygon fill="white" stroke="black" points="81.5,-168.5 81.5,-189.5 136.5,-189.5 136.5,-168.5 81.5,-168.5"/>
<text text-anchor="middle" x="109" y="-176.5" font-family="Helvetica,sans-Serif" font-size="10.00">operator&#45;</text>
</a>
</g>
<!-- Node1&#45;&gt;Node45 -->
<g id="edge110" class="edge"><title>Node1&#45;&gt;Node45</title>
<path fill="none" stroke="midnightblue" d="M29.0406,-278.815C38.3851,-257.206 55.4516,-222.822 78,-199 81.3462,-195.465 85.4378,-192.266 89.5372,-189.515"/>
<polygon fill="midnightblue" stroke="midnightblue" points="25.7059,-277.718 25.0834,-288.294 32.1657,-280.414 25.7059,-277.718"/>
</g>
<!-- Node46 -->
<g id="node102" class="node"><title>Node46</title>
<a xlink:href="../../d2/d39/class_angle.html#a0ab92c9151f7f8bf542747a0ac2ad98b" target="_top" xlink:title="operator*">
<polygon fill="white" stroke="black" points="81,-128.5 81,-149.5 137,-149.5 137,-128.5 81,-128.5"/>
<text text-anchor="middle" x="109" y="-136.5" font-family="Helvetica,sans-Serif" font-size="10.00">operator*</text>
</a>
</g>
<!-- Node1&#45;&gt;Node46 -->
<g id="edge112" class="edge"><title>Node1&#45;&gt;Node46</title>
<path fill="none" stroke="midnightblue" d="M25.2173,-278.494C32.0753,-249.271 47.9982,-195.186 78,-159 80.9433,-155.45 84.6832,-152.315 88.5387,-149.642"/>
<polygon fill="midnightblue" stroke="midnightblue" points="21.7714,-277.867 23.0222,-288.387 28.6052,-279.383 21.7714,-277.867"/>
</g>
<!-- Node47 -->
<g id="node104" class="node"><title>Node47</title>
<a xlink:href="../../d2/d39/class_angle.html#ab8495c64e617573920e745ac803d6e8a" target="_top" xlink:title="operator/">
<polygon fill="white" stroke="black" points="81.5,-88.5 81.5,-109.5 136.5,-109.5 136.5,-88.5 81.5,-88.5"/>
<text text-anchor="middle" x="109" y="-96.5" font-family="Helvetica,sans-Serif" font-size="10.00">operator/</text>
</a>
</g>
<!-- Node1&#45;&gt;Node47 -->
<g id="edge114" class="edge"><title>Node1&#45;&gt;Node47</title>
<path fill="none" stroke="midnightblue" d="M23.033,-277.833C27.432,-241.847 40.6569,-167.893 78,-119 80.7213,-115.437 84.2722,-112.327 87.9956,-109.689"/>
<polygon fill="midnightblue" stroke="midnightblue" points="19.5177,-277.779 21.8955,-288.103 26.4751,-278.55 19.5177,-277.779"/>
</g>
<!-- Node48 -->
<g id="node106" class="node"><title>Node48</title>
<a xlink:href="../../d2/d39/class_angle.html#ac7bbd742fedc209340dec3a2c6f4abeb" target="_top" xlink:title="operator%">
<polygon fill="white" stroke="black" points="78.5,-48.5 78.5,-69.5 139.5,-69.5 139.5,-48.5 78.5,-48.5"/>
<text text-anchor="middle" x="109" y="-56.5" font-family="Helvetica,sans-Serif" font-size="10.00">operator%</text>
</a>
</g>
<!-- Node1&#45;&gt;Node48 -->
<g id="edge116" class="edge"><title>Node1&#45;&gt;Node48</title>
<path fill="none" stroke="midnightblue" d="M24.337,-278.583C32.5104,-230.436 54.58,-111.415 78,-79 80.6257,-75.3659 84.1332,-72.2239 87.8441,-69.5765"/>
<polygon fill="midnightblue" stroke="midnightblue" points="20.881,-278.03 22.6859,-288.47 27.7854,-279.183 20.881,-278.03"/>
</g>
<!-- Node3 -->
<g id="node5" class="node"><title>Node3</title>
<a xlink:href="../../d0/d69/class_point.html#af8998fd1f88de65f9467a5d2012710a4" target="_top" xlink:title="Rotate the point by a specific angle with respect to a specific center. ">
<polygon fill="white" stroke="black" points="236,-648.5 236,-669.5 306,-669.5 306,-648.5 236,-648.5"/>
<text text-anchor="middle" x="271" y="-656.5" font-family="Helvetica,sans-Serif" font-size="10.00">Point::rotate</text>
</a>
</g>
<!-- Node2&#45;&gt;Node3 -->
<g id="edge4" class="edge"><title>Node2&#45;&gt;Node3</title>
<path fill="none" stroke="midnightblue" d="M138.365,-646.719C165.788,-649.258 206.753,-653.051 235.892,-655.749"/>
<polygon fill="midnightblue" stroke="midnightblue" points="138.5,-643.217 128.22,-645.78 137.854,-650.187 138.5,-643.217"/>
</g>
<!-- Node4 -->
<g id="node7" class="node"><title>Node4</title>
<a xlink:href="../../d0/d69/class_point.html#a5234cfe8b9f31ba928745912067f90b4" target="_top" xlink:title="Get the point rotated by a specific angle with respect to a specific center. ">
<polygon fill="white" stroke="black" points="446.5,-651.5 446.5,-672.5 521.5,-672.5 521.5,-651.5 446.5,-651.5"/>
<text text-anchor="middle" x="484" y="-659.5" font-family="Helvetica,sans-Serif" font-size="10.00">Point::rotated</text>
</a>
</g>
<!-- Node3&#45;&gt;Node4 -->
<g id="edge6" class="edge"><title>Node3&#45;&gt;Node4</title>
<path fill="none" stroke="midnightblue" d="M316.619,-659.643C355.272,-660.187 410.037,-660.958 446.261,-661.468"/>
<polygon fill="midnightblue" stroke="midnightblue" points="316.221,-656.137 306.173,-659.495 316.122,-663.136 316.221,-656.137"/>
</g>
<!-- Node5 -->
<g id="node9" class="node"><title>Node5</title>
<a xlink:href="../../de/d50/classproject_1_1_s_i___symbol.html#a56e275d18632ae7d863b45e405563e26" target="_top" xlink:title="project::SI_Symbol\l::mapToScene">
<polygon fill="white" stroke="black" points="627,-644 627,-678 727,-678 727,-644 627,-644"/>
<text text-anchor="start" x="635" y="-665" font-family="Helvetica,sans-Serif" font-size="10.00">project::SI_Symbol</text>
<text text-anchor="middle" x="677" y="-652" font-family="Helvetica,sans-Serif" font-size="10.00">::mapToScene</text>
</a>
</g>
<!-- Node4&#45;&gt;Node5 -->
<g id="edge8" class="edge"><title>Node4&#45;&gt;Node5</title>
<path fill="none" stroke="midnightblue" d="M531.947,-661.752C560.884,-661.602 597.698,-661.411 626.998,-661.259"/>
<polygon fill="midnightblue" stroke="midnightblue" points="531.652,-658.253 521.671,-661.805 531.689,-665.253 531.652,-658.253"/>
</g>
<!-- Node13 -->
<g id="node28" class="node"><title>Node13</title>
<a xlink:href="../../d8/d8b/classproject_1_1_s_e_s___select.html#a1f262c8e6a4c3d45093729fa34ec01e8" target="_top" xlink:title="project::SES_Select\l::rotateSelectedItems">
<polygon fill="white" stroke="black" points="622,-696 622,-730 732,-730 732,-696 622,-696"/>
<text text-anchor="start" x="630" y="-717" font-family="Helvetica,sans-Serif" font-size="10.00">project::SES_Select</text>
<text text-anchor="middle" x="677" y="-704" font-family="Helvetica,sans-Serif" font-size="10.00">::rotateSelectedItems</text>
</a>
</g>
<!-- Node4&#45;&gt;Node13 -->
<g id="edge30" class="edge"><title>Node4&#45;&gt;Node13</title>
<path fill="none" stroke="midnightblue" d="M531.403,-674.526C558.767,-681.757 593.311,-690.885 621.884,-698.436"/>
<polygon fill="midnightblue" stroke="midnightblue" points="532.233,-671.125 521.671,-671.954 530.444,-677.893 532.233,-671.125"/>
</g>
<!-- Node6 -->
<g id="node11" class="node"><title>Node6</title>
<a xlink:href="../../d6/d12/classproject_1_1_s_i___symbol_pin.html#a212e36e19edc323ddeb73387d2f011a5" target="_top" xlink:title="project::SI_SymbolPin\l::updatePosition">
<polygon fill="white" stroke="black" points="788,-621 788,-655 902,-655 902,-621 788,-621"/>
<text text-anchor="start" x="796" y="-642" font-family="Helvetica,sans-Serif" font-size="10.00">project::SI_SymbolPin</text>
<text text-anchor="middle" x="845" y="-629" font-family="Helvetica,sans-Serif" font-size="10.00">::updatePosition</text>
</a>
</g>
<!-- Node5&#45;&gt;Node6 -->
<g id="edge10" class="edge"><title>Node5&#45;&gt;Node6</title>
<path fill="none" stroke="midnightblue" d="M737.442,-652.725C753.874,-650.476 771.614,-648.047 787.857,-645.823"/>
<polygon fill="midnightblue" stroke="midnightblue" points="736.838,-649.275 727.406,-654.099 737.788,-656.21 736.838,-649.275"/>
</g>
<!-- Node7 -->
<g id="node13" class="node"><title>Node7</title>
<a xlink:href="../../de/d50/classproject_1_1_s_i___symbol.html#ae4d151fe3fae75cb19c5add958a470a8" target="_top" xlink:title="project::SI_Symbol\l::setPosition">
<polygon fill="white" stroke="black" points="945,-621 945,-655 1045,-655 1045,-621 945,-621"/>
<text text-anchor="start" x="953" y="-642" font-family="Helvetica,sans-Serif" font-size="10.00">project::SI_Symbol</text>
<text text-anchor="middle" x="995" y="-629" font-family="Helvetica,sans-Serif" font-size="10.00">::setPosition</text>
</a>
</g>
<!-- Node6&#45;&gt;Node7 -->
<g id="edge12" class="edge"><title>Node6&#45;&gt;Node7</title>
<path fill="none" stroke="midnightblue" d="M912.152,-638C923.158,-638 934.391,-638 944.891,-638"/>
<polygon fill="midnightblue" stroke="midnightblue" points="912.137,-634.5 902.136,-638 912.136,-641.5 912.137,-634.5"/>
</g>
<!-- Node11 -->
<g id="node21" class="node"><title>Node11</title>
<a xlink:href="../../de/d50/classproject_1_1_s_i___symbol.html#a92a6c99e0892b13f98c8ec4b5e4823f5" target="_top" xlink:title="project::SI_Symbol\l::setRotation">
<polygon fill="white" stroke="black" points="945,-673 945,-707 1045,-707 1045,-673 945,-673"/>
<text text-anchor="start" x="953" y="-694" font-family="Helvetica,sans-Serif" font-size="10.00">project::SI_Symbol</text>
<text text-anchor="middle" x="995" y="-681" font-family="Helvetica,sans-Serif" font-size="10.00">::setRotation</text>
</a>
</g>
<!-- Node6&#45;&gt;Node11 -->
<g id="edge20" class="edge"><title>Node6&#45;&gt;Node11</title>
<path fill="none" stroke="midnightblue" d="M903.617,-658.321C917.561,-663.154 932.299,-668.264 945.774,-672.935"/>
<polygon fill="midnightblue" stroke="midnightblue" points="904.71,-654.995 894.116,-655.027 902.418,-661.609 904.71,-654.995"/>
</g>
<!-- Node12 -->
<g id="node26" class="node"><title>Node12</title>
<a xlink:href="../../d6/d12/classproject_1_1_s_i___symbol_pin.html#a2e791a2f0f926f88b6d3a8b6d73a03f0" target="_top" xlink:title="project::SI_SymbolPin\l::SI_SymbolPin">
<polygon fill="white" stroke="black" points="938,-569 938,-603 1052,-603 1052,-569 938,-569"/>
<text text-anchor="start" x="946" y="-590" font-family="Helvetica,sans-Serif" font-size="10.00">project::SI_SymbolPin</text>
<text text-anchor="middle" x="995" y="-577" font-family="Helvetica,sans-Serif" font-size="10.00">::SI_SymbolPin</text>
</a>
</g>
<!-- Node6&#45;&gt;Node12 -->
<g id="edge28" class="edge"><title>Node6&#45;&gt;Node12</title>
<path fill="none" stroke="midnightblue" d="M903.617,-617.679C917.561,-612.846 932.299,-607.736 945.774,-603.065"/>
<polygon fill="midnightblue" stroke="midnightblue" points="902.418,-614.391 894.116,-620.973 904.71,-621.005 902.418,-614.391"/>
</g>
<!-- Node8 -->
<g id="node15" class="node"><title>Node8</title>
<a xlink:href="../../dd/d49/classproject_1_1_cmd_symbol_instance_edit.html#a6eaf0a56905dd18ebdf240a2229576c6" target="_top" xlink:title="project::CmdSymbolInstance\lEdit::~CmdSymbolInstanceEdit">
<polygon fill="white" stroke="black" points="1088.5,-699 1088.5,-733 1243.5,-733 1243.5,-699 1088.5,-699"/>
<text text-anchor="start" x="1096.5" y="-720" font-family="Helvetica,sans-Serif" font-size="10.00">project::CmdSymbolInstance</text>
<text text-anchor="middle" x="1166" y="-707" font-family="Helvetica,sans-Serif" font-size="10.00">Edit::~CmdSymbolInstanceEdit</text>
</a>
</g>
<!-- Node7&#45;&gt;Node8 -->
<g id="edge14" class="edge"><title>Node7&#45;&gt;Node8</title>
<path fill="none" stroke="midnightblue" d="M1044.22,-659.694C1046.88,-661.1 1049.49,-662.539 1052,-664 1069.06,-673.922 1070.44,-680.998 1088,-690 1094.35,-693.255 1101.2,-696.231 1108.1,-698.912"/>
<polygon fill="midnightblue" stroke="midnightblue" points="1045.57,-656.453 1035.07,-655.057 1042.41,-662.698 1045.57,-656.453"/>
</g>
<!-- Node9 -->
<g id="node17" class="node"><title>Node9</title>
<a xlink:href="../../dd/d49/classproject_1_1_cmd_symbol_instance_edit.html#a91ca7652063093da57fc1bd0141dcc95" target="_top" xlink:title="Redo/execute the command (and all child commands in normal order) ">
<polygon fill="white" stroke="black" points="1094.5,-647 1094.5,-681 1237.5,-681 1237.5,-647 1094.5,-647"/>
<text text-anchor="start" x="1102.5" y="-668" font-family="Helvetica,sans-Serif" font-size="10.00">project::CmdSymbolInstance</text>
<text text-anchor="middle" x="1166" y="-655" font-family="Helvetica,sans-Serif" font-size="10.00">Edit::redo</text>
</a>
</g>
<!-- Node7&#45;&gt;Node9 -->
<g id="edge16" class="edge"><title>Node7&#45;&gt;Node9</title>
<path fill="none" stroke="midnightblue" d="M1055.33,-647.173C1067.97,-649.096 1081.43,-651.141 1094.44,-653.12"/>
<polygon fill="midnightblue" stroke="midnightblue" points="1055.79,-643.703 1045.38,-645.66 1054.74,-650.624 1055.79,-643.703"/>
</g>
<!-- Node10 -->
<g id="node19" class="node"><title>Node10</title>
<a xlink:href="../../dd/d49/classproject_1_1_cmd_symbol_instance_edit.html#a19e8778088bfe76b16745470981bb913" target="_top" xlink:title="Undo the command (and all child commands in reverse order) ">
<polygon fill="white" stroke="black" points="1094.5,-595 1094.5,-629 1237.5,-629 1237.5,-595 1094.5,-595"/>
<text text-anchor="start" x="1102.5" y="-616" font-family="Helvetica,sans-Serif" font-size="10.00">project::CmdSymbolInstance</text>
<text text-anchor="middle" x="1166" y="-603" font-family="Helvetica,sans-Serif" font-size="10.00">Edit::undo</text>
</a>
</g>
<!-- Node7&#45;&gt;Node10 -->
<g id="edge18" class="edge"><title>Node7&#45;&gt;Node10</title>
<path fill="none" stroke="midnightblue" d="M1055.33,-628.827C1067.97,-626.904 1081.43,-624.859 1094.44,-622.88"/>
<polygon fill="midnightblue" stroke="midnightblue" points="1054.74,-625.376 1045.38,-630.34 1055.79,-632.297 1054.74,-625.376"/>
</g>
<!-- Node11&#45;&gt;Node8 -->
<g id="edge22" class="edge"><title>Node11&#45;&gt;Node8</title>
<path fill="none" stroke="midnightblue" d="M1055.41,-699.185C1066.08,-700.808 1077.32,-702.517 1088.39,-704.199"/>
<polygon fill="midnightblue" stroke="midnightblue" points="1055.79,-695.703 1045.38,-697.66 1054.74,-702.624 1055.79,-695.703"/>
</g>
<!-- Node11&#45;&gt;Node9 -->
<g id="edge24" class="edge"><title>Node11&#45;&gt;Node9</title>
<path fill="none" stroke="midnightblue" d="M1055.33,-680.827C1067.97,-678.904 1081.43,-676.859 1094.44,-674.88"/>
<polygon fill="midnightblue" stroke="midnightblue" points="1054.74,-677.376 1045.38,-682.34 1055.79,-684.297 1054.74,-677.376"/>
</g>
<!-- Node11&#45;&gt;Node10 -->
<g id="edge26" class="edge"><title>Node11&#45;&gt;Node10</title>
<path fill="none" stroke="midnightblue" d="M1044.22,-668.306C1046.88,-666.9 1049.49,-665.461 1052,-664 1069.06,-654.078 1070.44,-647.002 1088,-638 1094.35,-634.745 1101.2,-631.769 1108.1,-629.088"/>
<polygon fill="midnightblue" stroke="midnightblue" points="1042.41,-665.302 1035.07,-672.943 1045.57,-671.547 1042.41,-665.302"/>
</g>
<!-- Node15&#45;&gt;Node3 -->
<g id="edge36" class="edge"><title>Node15&#45;&gt;Node3</title>
<path fill="none" stroke="midnightblue" d="M128.069,-436.899C132.586,-442.026 136.966,-447.894 140,-454 176.302,-527.063 120.065,-574.609 176,-634 191.201,-650.14 215.461,-656.335 235.66,-658.523"/>
<polygon fill="midnightblue" stroke="midnightblue" points="130.467,-434.342 121.033,-429.521 125.402,-439.174 130.467,-434.342"/>
</g>
<!-- Node16 -->
<g id="node35" class="node"><title>Node16</title>
<a xlink:href="../../da/d20/classlibrary_1_1_symbol_pin_preview_graphics_item.html#abbb5db1b700a86caa85ff4c0c13142f2" target="_top" xlink:title="library::SymbolPinPreview\lGraphicsItem::updateCacheAndRepaint">
<polygon fill="white" stroke="black" points="176,-402 176,-436 366,-436 366,-402 176,-402"/>
<text text-anchor="start" x="184" y="-423" font-family="Helvetica,sans-Serif" font-size="10.00">library::SymbolPinPreview</text>
<text text-anchor="middle" x="271" y="-410" font-family="Helvetica,sans-Serif" font-size="10.00">GraphicsItem::updateCacheAndRepaint</text>
</a>
</g>
<!-- Node15&#45;&gt;Node16 -->
<g id="edge38" class="edge"><title>Node15&#45;&gt;Node16</title>
<path fill="none" stroke="midnightblue" d="M140.637,-419C151.01,-419 163.129,-419 175.724,-419"/>
<polygon fill="midnightblue" stroke="midnightblue" points="140.512,-415.5 130.512,-419 140.512,-422.5 140.512,-415.5"/>
</g>
<!-- Node17 -->
<g id="node37" class="node"><title>Node17</title>
<a xlink:href="../../d9/da8/classlibrary_1_1_symbol_preview_graphics_item.html#abbb5db1b700a86caa85ff4c0c13142f2" target="_top" xlink:title="library::SymbolPreviewGraphics\lItem::updateCacheAndRepaint">
<polygon fill="white" stroke="black" points="193,-350 193,-384 349,-384 349,-350 193,-350"/>
<text text-anchor="start" x="201" y="-371" font-family="Helvetica,sans-Serif" font-size="10.00">library::SymbolPreviewGraphics</text>
<text text-anchor="middle" x="271" y="-358" font-family="Helvetica,sans-Serif" font-size="10.00">Item::updateCacheAndRepaint</text>
</a>
</g>
<!-- Node15&#45;&gt;Node17 -->
<g id="edge40" class="edge"><title>Node15&#45;&gt;Node17</title>
<path fill="none" stroke="midnightblue" d="M139.933,-406.23C151.196,-401.784 164.086,-396.93 176,-393 185.418,-389.893 195.446,-386.859 205.322,-384.025"/>
<polygon fill="midnightblue" stroke="midnightblue" points="138.503,-403.032 130.52,-409.998 141.105,-409.53 138.503,-403.032"/>
</g>
<!-- Node18 -->
<g id="node39" class="node"><title>Node18</title>
<a xlink:href="../../dc/d87/classproject_1_1_b_g_i___footprint.html#abbb5db1b700a86caa85ff4c0c13142f2" target="_top" xlink:title="project::BGI_Footprint\l::updateCacheAndRepaint">
<polygon fill="white" stroke="black" points="418.5,-324 418.5,-358 549.5,-358 549.5,-324 418.5,-324"/>
<text text-anchor="start" x="426.5" y="-345" font-family="Helvetica,sans-Serif" font-size="10.00">project::BGI_Footprint</text>
<text text-anchor="middle" x="484" y="-332" font-family="Helvetica,sans-Serif" font-size="10.00">::updateCacheAndRepaint</text>
</a>
</g>
<!-- Node15&#45;&gt;Node18 -->
<g id="edge42" class="edge"><title>Node15&#45;&gt;Node18</title>
<path fill="none" stroke="midnightblue" d="M136.616,-402.163C137.799,-401.141 138.934,-400.085 140,-399 161.265,-377.36 149.487,-355.749 176,-341 251.701,-298.889 354.932,-310.075 420.536,-323.967"/>
<polygon fill="midnightblue" stroke="midnightblue" points="134.239,-399.573 128.366,-408.391 138.456,-405.16 134.239,-399.573"/>
</g>
<!-- Node23 -->
<g id="node51" class="node"><title>Node23</title>
<a xlink:href="../../d9/d13/classproject_1_1_b_g_i___footprint_pad.html#abbb5db1b700a86caa85ff4c0c13142f2" target="_top" xlink:title="project::BGI_FootprintPad\l::updateCacheAndRepaint">
<polygon fill="white" stroke="black" points="205.5,-260 205.5,-294 336.5,-294 336.5,-260 205.5,-260"/>
<text text-anchor="start" x="213.5" y="-281" font-family="Helvetica,sans-Serif" font-size="10.00">project::BGI_FootprintPad</text>
<text text-anchor="middle" x="271" y="-268" font-family="Helvetica,sans-Serif" font-size="10.00">::updateCacheAndRepaint</text>
</a>
</g>
<!-- Node15&#45;&gt;Node23 -->
<g id="edge56" class="edge"><title>Node15&#45;&gt;Node23</title>
<path fill="none" stroke="midnightblue" d="M137.355,-401.906C138.291,-400.972 139.177,-400.003 140,-399 167.594,-365.38 144.317,-337.798 176,-308 184.341,-300.155 194.695,-294.295 205.471,-289.917"/>
<polygon fill="midnightblue" stroke="midnightblue" points="134.986,-399.323 129.489,-408.381 139.434,-404.728 134.986,-399.323"/>
</g>
<!-- Node26 -->
<g id="node59" class="node"><title>Node26</title>
<a xlink:href="../../d1/d60/classproject_1_1_s_g_i___net_label.html#abbb5db1b700a86caa85ff4c0c13142f2" target="_top" xlink:title="project::SGI_NetLabel\l::updateCacheAndRepaint">
<polygon fill="white" stroke="black" points="205.5,-208 205.5,-242 336.5,-242 336.5,-208 205.5,-208"/>
<text text-anchor="start" x="213.5" y="-229" font-family="Helvetica,sans-Serif" font-size="10.00">project::SGI_NetLabel</text>
<text text-anchor="middle" x="271" y="-216" font-family="Helvetica,sans-Serif" font-size="10.00">::updateCacheAndRepaint</text>
</a>
</g>
<!-- Node15&#45;&gt;Node26 -->
<g id="edge66" class="edge"><title>Node15&#45;&gt;Node26</title>
<path fill="none" stroke="midnightblue" d="M137.894,-401.646C138.645,-400.795 139.35,-399.913 140,-399 179.235,-343.834 128.82,-299.546 176,-251 183.985,-242.784 194.297,-237.088 205.172,-233.155"/>
<polygon fill="midnightblue" stroke="midnightblue" points="135.369,-399.207 130.199,-408.454 140.008,-404.449 135.369,-399.207"/>
</g>
<!-- Node29 -->
<g id="node65" class="node"><title>Node29</title>
<a xlink:href="../../dd/d00/classproject_1_1_s_g_i___symbol.html#abbb5db1b700a86caa85ff4c0c13142f2" target="_top" xlink:title="project::SGI_Symbol\l::updateCacheAndRepaint">
<polygon fill="white" stroke="black" points="205.5,-156 205.5,-190 336.5,-190 336.5,-156 205.5,-156"/>
<text text-anchor="start" x="213.5" y="-177" font-family="Helvetica,sans-Serif" font-size="10.00">project::SGI_Symbol</text>
<text text-anchor="middle" x="271" y="-164" font-family="Helvetica,sans-Serif" font-size="10.00">::updateCacheAndRepaint</text>
</a>
</g>
<!-- Node15&#45;&gt;Node29 -->
<g id="edge72" class="edge"><title>Node15&#45;&gt;Node29</title>
<path fill="none" stroke="midnightblue" d="M138.292,-401.305C138.9,-400.561 139.472,-399.793 140,-399 190.096,-323.849 115.042,-265.643 176,-199 183.848,-190.42 194.23,-184.564 205.245,-180.59"/>
<polygon fill="midnightblue" stroke="midnightblue" points="135.648,-398.983 130.692,-408.347 140.406,-404.117 135.648,-398.983"/>
</g>
<!-- Node32 -->
<g id="node71" class="node"><title>Node32</title>
<a xlink:href="../../da/d6f/classproject_1_1_s_g_i___symbol_pin.html#abbb5db1b700a86caa85ff4c0c13142f2" target="_top" xlink:title="project::SGI_SymbolPin\l::updateCacheAndRepaint">
<polygon fill="white" stroke="black" points="418.5,-599 418.5,-633 549.5,-633 549.5,-599 418.5,-599"/>
<text text-anchor="start" x="426.5" y="-620" font-family="Helvetica,sans-Serif" font-size="10.00">project::SGI_SymbolPin</text>
<text text-anchor="middle" x="484" y="-607" font-family="Helvetica,sans-Serif" font-size="10.00">::updateCacheAndRepaint</text>
</a>
</g>
<!-- Node15&#45;&gt;Node32 -->
<g id="edge78" class="edge"><title>Node15&#45;&gt;Node32</title>
<path fill="none" stroke="midnightblue" d="M127.893,-436.988C132.411,-442.116 136.836,-447.96 140,-454 171.211,-513.584 124.108,-558.202 176,-601 211.622,-630.379 339.084,-626.976 418.442,-621.63"/>
<polygon fill="midnightblue" stroke="midnightblue" points="130.305,-434.445 120.884,-429.597 125.225,-439.262 130.305,-434.445"/>
</g>
<!-- Node33 -->
<g id="node74" class="node"><title>Node33</title>
<a xlink:href="../../db/dd3/classproject_1_1_b_e_s___select.html#a419f72d93a6cb28bc6ee2b8710b84cdd" target="_top" xlink:title="project::BES_Select\l::processSubStateIdle">
<polygon fill="white" stroke="black" points="214.5,-104 214.5,-138 327.5,-138 327.5,-104 214.5,-104"/>
<text text-anchor="start" x="222.5" y="-125" font-family="Helvetica,sans-Serif" font-size="10.00">project::BES_Select</text>
<text text-anchor="middle" x="271" y="-112" font-family="Helvetica,sans-Serif" font-size="10.00">::processSubStateIdle</text>
</a>
</g>
<!-- Node15&#45;&gt;Node33 -->
<g id="edge82" class="edge"><title>Node15&#45;&gt;Node33</title>
<path fill="none" stroke="midnightblue" d="M138.33,-401.33C138.927,-400.579 139.486,-399.802 140,-399 201.039,-303.741 101.163,-231.85 176,-147 185.84,-135.843 199.964,-129.266 214.324,-125.446"/>
<polygon fill="midnightblue" stroke="midnightblue" points="135.683,-399.015 130.799,-408.417 140.48,-404.113 135.683,-399.015"/>
</g>
<!-- Node34 -->
<g id="node76" class="node"><title>Node34</title>
<a xlink:href="../../d4/d07/classproject_1_1_s_e_s___add_components.html#a3b9ee41683706e488c9a65c500558b76" target="_top" xlink:title="project::SES_AddComponents\l::process">
<polygon fill="white" stroke="black" points="196,-52 196,-86 346,-86 346,-52 196,-52"/>
<text text-anchor="start" x="204" y="-73" font-family="Helvetica,sans-Serif" font-size="10.00">project::SES_AddComponents</text>
<text text-anchor="middle" x="271" y="-60" font-family="Helvetica,sans-Serif" font-size="10.00">::process</text>
</a>
</g>
<!-- Node15&#45;&gt;Node34 -->
<g id="edge84" class="edge"><title>Node15&#45;&gt;Node34</title>
<path fill="none" stroke="midnightblue" d="M138.04,-401.744C138.75,-400.865 139.407,-399.951 140,-399 212.023,-283.572 87.2359,-198.111 176,-95 181.466,-88.65 188.321,-83.7783 195.831,-80.0517"/>
<polygon fill="midnightblue" stroke="midnightblue" points="135.503,-399.323 130.556,-408.692 140.266,-404.454 135.503,-399.323"/>
</g>
<!-- Node35 -->
<g id="node78" class="node"><title>Node35</title>
<a xlink:href="../../d4/d07/classproject_1_1_s_e_s___add_components.html#a900b064d2a187546b16944379527b0a9" target="_top" xlink:title="project::SES_AddComponents\l::processSceneEvent">
<polygon fill="white" stroke="black" points="196,-0 196,-34 346,-34 346,-0 196,-0"/>
<text text-anchor="start" x="204" y="-21" font-family="Helvetica,sans-Serif" font-size="10.00">project::SES_AddComponents</text>
<text text-anchor="middle" x="271" y="-8" font-family="Helvetica,sans-Serif" font-size="10.00">::processSceneEvent</text>
</a>
</g>
<!-- Node15&#45;&gt;Node35 -->
<g id="edge86" class="edge"><title>Node15&#45;&gt;Node35</title>
<path fill="none" stroke="midnightblue" d="M138.061,-401.757C138.765,-400.875 139.415,-399.956 140,-399 181.514,-331.183 124.641,-103.702 176,-43 181.412,-36.6035 188.233,-31.7032 195.724,-27.9605"/>
<polygon fill="midnightblue" stroke="midnightblue" points="135.523,-399.339 130.607,-408.724 140.303,-404.453 135.523,-399.339"/>
</g>
<!-- Node36 -->
<g id="node80" class="node"><title>Node36</title>
<a xlink:href="../../d5/d33/classproject_1_1_s_e_s___add_net_label.html#a900b064d2a187546b16944379527b0a9" target="_top" xlink:title="project::SES_AddNetLabel\l::processSceneEvent">
<polygon fill="white" stroke="black" points="204,-558 204,-592 338,-592 338,-558 204,-558"/>
<text text-anchor="start" x="212" y="-579" font-family="Helvetica,sans-Serif" font-size="10.00">project::SES_AddNetLabel</text>
<text text-anchor="middle" x="271" y="-566" font-family="Helvetica,sans-Serif" font-size="10.00">::processSceneEvent</text>
</a>
</g>
<!-- Node15&#45;&gt;Node36 -->
<g id="edge88" class="edge"><title>Node15&#45;&gt;Node36</title>
<path fill="none" stroke="midnightblue" d="M127.19,-437.025C131.781,-442.21 136.419,-448.073 140,-454 163.352,-492.645 142.591,-518.626 176,-549 183.844,-556.132 193.461,-561.334 203.532,-565.123"/>
<polygon fill="midnightblue" stroke="midnightblue" points="129.56,-434.435 120.171,-429.526 124.449,-439.219 129.56,-434.435"/>
</g>
<!-- Node37 -->
<g id="node82" class="node"><title>Node37</title>
<a xlink:href="../../d8/d8b/classproject_1_1_s_e_s___select.html#a058e178be2165cf47e16745d82b59452" target="_top" xlink:title="project::SES_Select\l::processSubStateIdle">
<polygon fill="white" stroke="black" points="214.5,-506 214.5,-540 327.5,-540 327.5,-506 214.5,-506"/>
<text text-anchor="start" x="222.5" y="-527" font-family="Helvetica,sans-Serif" font-size="10.00">project::SES_Select</text>
<text text-anchor="middle" x="271" y="-514" font-family="Helvetica,sans-Serif" font-size="10.00">::processSubStateIdle</text>
</a>
</g>
<!-- Node15&#45;&gt;Node37 -->
<g id="edge90" class="edge"><title>Node15&#45;&gt;Node37</title>
<path fill="none" stroke="midnightblue" d="M125.517,-437.454C130.226,-442.768 135.342,-448.591 140,-454 156.265,-472.887 155.022,-483.54 176,-497 187.514,-504.387 201.108,-509.697 214.36,-513.505"/>
<polygon fill="midnightblue" stroke="midnightblue" points="127.838,-434.798 118.575,-429.655 122.609,-439.452 127.838,-434.798"/>
</g>
<!-- Node38 -->
<g id="node84" class="node"><title>Node38</title>
<a xlink:href="../../d8/d8b/classproject_1_1_s_e_s___select.html#abf3d779ad6aed8bf5f55cbb3e20d06e5" target="_top" xlink:title="project::SES_Select\l::proccessIdleSceneRightClick">
<polygon fill="white" stroke="black" points="195,-454 195,-488 347,-488 347,-454 195,-454"/>
<text text-anchor="start" x="203" y="-475" font-family="Helvetica,sans-Serif" font-size="10.00">project::SES_Select</text>
<text text-anchor="middle" x="271" y="-462" font-family="Helvetica,sans-Serif" font-size="10.00">::proccessIdleSceneRightClick</text>
</a>
</g>
<!-- Node15&#45;&gt;Node38 -->
<g id="edge92" class="edge"><title>Node15&#45;&gt;Node38</title>
<path fill="none" stroke="midnightblue" d="M139.933,-431.77C151.196,-436.216 164.086,-441.07 176,-445 185.418,-448.107 195.446,-451.141 205.322,-453.975"/>
<polygon fill="midnightblue" stroke="midnightblue" points="141.105,-428.47 130.52,-428.002 138.503,-434.968 141.105,-428.47"/>
</g>
<!-- Node19 -->
<g id="node41" class="node"><title>Node19</title>
<a xlink:href="../../da/d96/classproject_1_1_b_i___footprint.html#a80db668afe30ac6b6c9e5eb061b61cfc" target="_top" xlink:title="project::BI_Footprint\l::componentInstanceAttributes\lChanged">
<polygon fill="white" stroke="black" points="602,-378.5 602,-425.5 752,-425.5 752,-378.5 602,-378.5"/>
<text text-anchor="start" x="610" y="-412.5" font-family="Helvetica,sans-Serif" font-size="10.00">project::BI_Footprint</text>
<text text-anchor="start" x="610" y="-399.5" font-family="Helvetica,sans-Serif" font-size="10.00">::componentInstanceAttributes</text>
<text text-anchor="middle" x="677" y="-386.5" font-family="Helvetica,sans-Serif" font-size="10.00">Changed</text>
</a>
</g>
<!-- Node18&#45;&gt;Node19 -->
<g id="edge44" class="edge"><title>Node18&#45;&gt;Node19</title>
<path fill="none" stroke="midnightblue" d="M547.579,-361.095C565.127,-366.641 584.324,-372.709 602.433,-378.432"/>
<polygon fill="midnightblue" stroke="midnightblue" points="548.608,-357.749 538.018,-358.073 546.498,-364.424 548.608,-357.749"/>
</g>
<!-- Node21 -->
<g id="node45" class="node"><title>Node21</title>
<a xlink:href="../../da/d96/classproject_1_1_b_i___footprint.html#a271c63e12acd19bccc27bf6861938df2" target="_top" xlink:title="project::BI_Footprint\l::componentInstanceMoved">
<polygon fill="white" stroke="black" points="608.5,-274 608.5,-308 745.5,-308 745.5,-274 608.5,-274"/>
<text text-anchor="start" x="616.5" y="-295" font-family="Helvetica,sans-Serif" font-size="10.00">project::BI_Footprint</text>
<text text-anchor="middle" x="677" y="-282" font-family="Helvetica,sans-Serif" font-size="10.00">::componentInstanceMoved</text>
</a>
</g>
<!-- Node18&#45;&gt;Node21 -->
<g id="edge48" class="edge"><title>Node18&#45;&gt;Node21</title>
<path fill="none" stroke="midnightblue" d="M559.54,-321.43C576.615,-317.007 594.61,-312.345 611.243,-308.035"/>
<polygon fill="midnightblue" stroke="midnightblue" points="558.413,-318.106 549.61,-324.003 560.169,-324.883 558.413,-318.106"/>
</g>
<!-- Node22 -->
<g id="node48" class="node"><title>Node22</title>
<a xlink:href="../../da/d96/classproject_1_1_b_i___footprint.html#ab6c0fcabcb9d5a38a27ed7aeb34f0958" target="_top" xlink:title="project::BI_Footprint\l::componentInstanceRotated">
<polygon fill="white" stroke="black" points="605.5,-326 605.5,-360 748.5,-360 748.5,-326 605.5,-326"/>
<text text-anchor="start" x="613.5" y="-347" font-family="Helvetica,sans-Serif" font-size="10.00">project::BI_Footprint</text>
<text text-anchor="middle" x="677" y="-334" font-family="Helvetica,sans-Serif" font-size="10.00">::componentInstanceRotated</text>
</a>
</g>
<!-- Node18&#45;&gt;Node22 -->
<g id="edge52" class="edge"><title>Node18&#45;&gt;Node22</title>
<path fill="none" stroke="midnightblue" d="M559.84,-341.786C574.804,-341.941 590.464,-342.103 605.286,-342.257"/>
<polygon fill="midnightblue" stroke="midnightblue" points="559.646,-338.284 549.61,-341.68 559.573,-345.283 559.646,-338.284"/>
</g>
<!-- Node20 -->
<g id="node43" class="node"><title>Node20</title>
<a xlink:href="../../da/d96/classproject_1_1_b_i___footprint.html#a02fd73d861ef2e4aabb38c0c9ff82947" target="_top" xlink:title="project::BI_Footprint\l::init">
<polygon fill="white" stroke="black" points="792.5,-326 792.5,-360 897.5,-360 897.5,-326 792.5,-326"/>
<text text-anchor="start" x="800.5" y="-347" font-family="Helvetica,sans-Serif" font-size="10.00">project::BI_Footprint</text>
<text text-anchor="middle" x="845" y="-334" font-family="Helvetica,sans-Serif" font-size="10.00">::init</text>
</a>
</g>
<!-- Node19&#45;&gt;Node20 -->
<g id="edge46" class="edge"><title>Node19&#45;&gt;Node20</title>
<path fill="none" stroke="midnightblue" d="M753.841,-375.014C768.354,-369.917 783.153,-364.72 796.49,-360.036"/>
<polygon fill="midnightblue" stroke="midnightblue" points="752.639,-371.727 744.364,-378.342 754.959,-378.331 752.639,-371.727"/>
</g>
<!-- Node21&#45;&gt;Node20 -->
<g id="edge50" class="edge"><title>Node21&#45;&gt;Node20</title>
<path fill="none" stroke="midnightblue" d="M741.739,-311.038C758.514,-316.231 776.372,-321.758 792.438,-326.731"/>
<polygon fill="midnightblue" stroke="midnightblue" points="742.597,-307.64 732.009,-308.027 740.527,-314.327 742.597,-307.64"/>
</g>
<!-- Node22&#45;&gt;Node20 -->
<g id="edge54" class="edge"><title>Node22&#45;&gt;Node20</title>
<path fill="none" stroke="midnightblue" d="M759.078,-343C770.382,-343 781.731,-343 792.308,-343"/>
<polygon fill="midnightblue" stroke="midnightblue" points="758.734,-339.5 748.734,-343 758.734,-346.5 758.734,-339.5"/>
</g>
<!-- Node24 -->
<g id="node53" class="node"><title>Node24</title>
<a xlink:href="../../d4/ddd/classproject_1_1_b_i___footprint_pad.html#a212e36e19edc323ddeb73387d2f011a5" target="_top" xlink:title="project::BI_FootprintPad\l::updatePosition">
<polygon fill="white" stroke="black" points="423,-261 423,-295 545,-295 545,-261 423,-261"/>
<text text-anchor="start" x="431" y="-282" font-family="Helvetica,sans-Serif" font-size="10.00">project::BI_FootprintPad</text>
<text text-anchor="middle" x="484" y="-269" font-family="Helvetica,sans-Serif" font-size="10.00">::updatePosition</text>
</a>
</g>
<!-- Node23&#45;&gt;Node24 -->
<g id="edge58" class="edge"><title>Node23&#45;&gt;Node24</title>
<path fill="none" stroke="midnightblue" d="M346.809,-277.356C371.776,-277.473 399.204,-277.602 422.93,-277.713"/>
<polygon fill="midnightblue" stroke="midnightblue" points="346.661,-273.855 336.645,-277.308 346.628,-280.855 346.661,-273.855"/>
</g>
<!-- Node24&#45;&gt;Node21 -->
<g id="edge60" class="edge"><title>Node24&#45;&gt;Node21</title>
<path fill="none" stroke="midnightblue" d="M555.133,-282.791C572.492,-283.961 591.031,-285.209 608.276,-286.371"/>
<polygon fill="midnightblue" stroke="midnightblue" points="555.279,-279.293 545.066,-282.113 554.809,-286.278 555.279,-279.293"/>
</g>
<!-- Node24&#45;&gt;Node22 -->
<g id="edge62" class="edge"><title>Node24&#45;&gt;Node22</title>
<path fill="none" stroke="midnightblue" d="M544.207,-298.277C570.556,-307.151 601.13,-317.448 626.295,-325.923"/>
<polygon fill="midnightblue" stroke="midnightblue" points="545.303,-294.953 534.708,-295.078 543.068,-301.587 545.303,-294.953"/>
</g>
<!-- Node25 -->
<g id="node57" class="node"><title>Node25</title>
<a xlink:href="../../d4/ddd/classproject_1_1_b_i___footprint_pad.html#ac81e6cd36593d731c5e2e23048ed6754" target="_top" xlink:title="project::BI_FootprintPad\l::BI_FootprintPad">
<polygon fill="white" stroke="black" points="616,-222 616,-256 738,-256 738,-222 616,-222"/>
<text text-anchor="start" x="624" y="-243" font-family="Helvetica,sans-Serif" font-size="10.00">project::BI_FootprintPad</text>
<text text-anchor="middle" x="677" y="-230" font-family="Helvetica,sans-Serif" font-size="10.00">::BI_FootprintPad</text>
</a>
</g>
<!-- Node24&#45;&gt;Node25 -->
<g id="edge64" class="edge"><title>Node24&#45;&gt;Node25</title>
<path fill="none" stroke="midnightblue" d="M555.054,-263.642C575.06,-259.599 596.638,-255.239 616,-251.326"/>
<polygon fill="midnightblue" stroke="midnightblue" points="554.175,-260.249 545.066,-265.66 555.562,-267.11 554.175,-260.249"/>
</g>
<!-- Node27 -->
<g id="node61" class="node"><title>Node27</title>
<a xlink:href="../../d1/d7b/classproject_1_1_s_i___net_label.html#a185915e00afcfe0b1e4adf43adad873c" target="_top" xlink:title="project::SI_NetLabel\l::updateText">
<polygon fill="white" stroke="black" points="431,-186 431,-220 537,-220 537,-186 431,-186"/>
<text text-anchor="start" x="439" y="-207" font-family="Helvetica,sans-Serif" font-size="10.00">project::SI_NetLabel</text>
<text text-anchor="middle" x="484" y="-194" font-family="Helvetica,sans-Serif" font-size="10.00">::updateText</text>
</a>
</g>
<!-- Node26&#45;&gt;Node27 -->
<g id="edge68" class="edge"><title>Node26&#45;&gt;Node27</title>
<path fill="none" stroke="midnightblue" d="M346.721,-217.179C374.489,-214.311 405.311,-211.128 430.703,-208.505"/>
<polygon fill="midnightblue" stroke="midnightblue" points="346.232,-213.711 336.645,-218.22 346.952,-220.674 346.232,-213.711"/>
</g>
<!-- Node28 -->
<g id="node63" class="node"><title>Node28</title>
<a xlink:href="../../d3/d93/classproject_1_1_net_signal.html#a8f5e5ef232fd487e10ae0684bbf73ebf" target="_top" xlink:title="project::NetSignal\l::setName">
<polygon fill="white" stroke="black" points="629.5,-170 629.5,-204 724.5,-204 724.5,-170 629.5,-170"/>
<text text-anchor="start" x="637.5" y="-191" font-family="Helvetica,sans-Serif" font-size="10.00">project::NetSignal</text>
<text text-anchor="middle" x="677" y="-178" font-family="Helvetica,sans-Serif" font-size="10.00">::setName</text>
</a>
</g>
<!-- Node27&#45;&gt;Node28 -->
<g id="edge70" class="edge"><title>Node27&#45;&gt;Node28</title>
<path fill="none" stroke="midnightblue" d="M547.261,-197.756C573.93,-195.545 604.457,-193.014 629.197,-190.963"/>
<polygon fill="midnightblue" stroke="midnightblue" points="546.926,-194.271 537.249,-198.586 547.504,-201.247 546.926,-194.271"/>
</g>
<!-- Node30 -->
<g id="node67" class="node"><title>Node30</title>
<a xlink:href="../../de/d50/classproject_1_1_s_i___symbol.html#a803d371853cd2d72f4df8a45349d0cb7" target="_top" xlink:title="project::SI_Symbol\l::schematicOrGenCompAttributes\lChanged">
<polygon fill="white" stroke="black" points="402,-114.5 402,-161.5 566,-161.5 566,-114.5 402,-114.5"/>
<text text-anchor="start" x="410" y="-148.5" font-family="Helvetica,sans-Serif" font-size="10.00">project::SI_Symbol</text>
<text text-anchor="start" x="410" y="-135.5" font-family="Helvetica,sans-Serif" font-size="10.00">::schematicOrGenCompAttributes</text>
<text text-anchor="middle" x="484" y="-122.5" font-family="Helvetica,sans-Serif" font-size="10.00">Changed</text>
</a>
</g>
<!-- Node29&#45;&gt;Node30 -->
<g id="edge74" class="edge"><title>Node29&#45;&gt;Node30</title>
<path fill="none" stroke="midnightblue" d="M346.929,-160.523C364.665,-157.609 383.638,-154.491 401.639,-151.533"/>
<polygon fill="midnightblue" stroke="midnightblue" points="345.945,-157.138 336.645,-162.213 347.08,-164.045 345.945,-157.138"/>
</g>
<!-- Node31 -->
<g id="node69" class="node"><title>Node31</title>
<a xlink:href="../../de/d50/classproject_1_1_s_i___symbol.html#ae4e286593d2a82f74246f9cba8193605" target="_top" xlink:title="project::SI_Symbol\l::init">
<polygon fill="white" stroke="black" points="627,-118 627,-152 727,-152 727,-118 627,-118"/>
<text text-anchor="start" x="635" y="-139" font-family="Helvetica,sans-Serif" font-size="10.00">project::SI_Symbol</text>
<text text-anchor="middle" x="677" y="-126" font-family="Helvetica,sans-Serif" font-size="10.00">::init</text>
</a>
</g>
<!-- Node30&#45;&gt;Node31 -->
<g id="edge76" class="edge"><title>Node30&#45;&gt;Node31</title>
<path fill="none" stroke="midnightblue" d="M576.334,-136.565C593.731,-136.294 611.309,-136.021 626.801,-135.78"/>
<polygon fill="midnightblue" stroke="midnightblue" points="576.074,-133.068 566.129,-136.723 576.182,-140.067 576.074,-133.068"/>
</g>
<!-- Node32&#45;&gt;Node6 -->
<g id="edge80" class="edge"><title>Node32&#45;&gt;Node6</title>
<path fill="none" stroke="midnightblue" d="M560.03,-620.633C628.113,-624.783 726.436,-630.775 787.978,-634.525"/>
<polygon fill="midnightblue" stroke="midnightblue" points="559.988,-617.124 549.793,-620.01 559.562,-624.111 559.988,-617.124"/>
</g>
<!-- Node40&#45;&gt;Node3 -->
<g id="edge98" class="edge"><title>Node40&#45;&gt;Node3</title>
<path fill="none" stroke="midnightblue" d="M124.858,-592.258C137.453,-605.667 156.189,-623.335 176,-634 194.471,-643.943 217.123,-650.103 235.675,-653.819"/>
<polygon fill="midnightblue" stroke="midnightblue" points="127.174,-589.602 117.855,-584.56 121.996,-594.313 127.174,-589.602"/>
</g>
<!-- Node42&#45;&gt;Node3 -->
<g id="edge104" class="edge"><title>Node42&#45;&gt;Node3</title>
<path fill="none" stroke="midnightblue" d="M116.842,-494.035C133.296,-535.88 170.37,-629.104 176,-634 192.472,-648.325 216.222,-654.575 235.854,-657.244"/>
<polygon fill="midnightblue" stroke="midnightblue" points="120.047,-492.619 113.135,-484.589 113.53,-495.176 120.047,-492.619"/>
</g>
</g>
</svg>
