<?xml version="1.0" encoding="UTF-8" standalone="no"?>
<!DOCTYPE svg PUBLIC "-//W3C//DTD SVG 1.1//EN"
 "http://www.w3.org/Graphics/SVG/1.1/DTD/svg11.dtd">
<!-- Generated by graphviz version 2.26.3 (20100126.1600)
 -->
<!-- Title: deg90 Pages: 1 -->
<svg width="1156pt" height="780pt"
 viewBox="0.00 0.00 1156.00 780.00" xmlns="http://www.w3.org/2000/svg" xmlns:xlink="http://www.w3.org/1999/xlink">
<g id="graph1" class="graph" transform="scale(1 1) rotate(0) translate(4 776)">
<title>deg90</title>
<polygon fill="white" stroke="white" points="-4,5 -4,-776 1153,-776 1153,5 -4,5"/>
<!-- Node1 -->
<g id="node1" class="node"><title>Node1</title>
<polygon fill="#bfbfbf" stroke="black" points="0.5,-344.5 0.5,-365.5 43.5,-365.5 43.5,-344.5 0.5,-344.5"/>
<text text-anchor="middle" x="22" y="-352.5" font-family="Helvetica,sans-Serif" font-size="10.00">deg90</text>
</g>
<!-- Node2 -->
<g id="node3" class="node"><title>Node2</title>
<a xlink:href="../../d0/d69/class_point.html#af8998fd1f88de65f9467a5d2012710a4" target="_top" xlink:title="Rotate the point by a specific angle with respect to a specific center. ">
<polygon fill="white" stroke="black" points="140,-610.5 140,-631.5 210,-631.5 210,-610.5 140,-610.5"/>
<text text-anchor="middle" x="175" y="-618.5" font-family="Helvetica,sans-Serif" font-size="10.00">Point::rotate</text>
</a>
</g>
<!-- Node1&#45;&gt;Node2 -->
<g id="edge2" class="edge"><title>Node1&#45;&gt;Node2</title>
<path fill="none" stroke="midnightblue" d="M24.0453,-375.622C29.7547,-428.936 47.609,-569.379 80,-601 95.558,-616.188 119.559,-621.148 139.543,-622.331"/>
<polygon fill="midnightblue" stroke="midnightblue" points="27.5229,-375.224 23.0104,-365.638 20.5602,-375.946 27.5229,-375.224"/>
</g>
<!-- Node13 -->
<g id="node28" class="node"><title>Node13</title>
<a xlink:href="../../da/d20/classlibrary_1_1_symbol_pin_preview_graphics_item.html#abbb5db1b700a86caa85ff4c0c13142f2" target="_top" xlink:title="library::SymbolPinPreview\lGraphicsItem::updateCacheAndRepaint">
<polygon fill="white" stroke="black" points="80,-558 80,-592 270,-592 270,-558 80,-558"/>
<text text-anchor="start" x="88" y="-579" font-family="Helvetica,sans-Serif" font-size="10.00">library::SymbolPinPreview</text>
<text text-anchor="middle" x="175" y="-566" font-family="Helvetica,sans-Serif" font-size="10.00">GraphicsItem::updateCacheAndRepaint</text>
</a>
</g>
<!-- Node1&#45;&gt;Node13 -->
<g id="edge30" class="edge"><title>Node1&#45;&gt;Node13</title>
<path fill="none" stroke="midnightblue" d="M25.6091,-375.85C33.7843,-420.758 54.964,-524.542 80,-549 83.4249,-552.346 87.237,-555.271 91.3108,-557.827"/>
<polygon fill="midnightblue" stroke="midnightblue" points="29.0159,-375.017 23.8164,-365.786 22.1243,-376.245 29.0159,-375.017"/>
</g>
<!-- Node14 -->
<g id="node30" class="node"><title>Node14</title>
<a xlink:href="../../d9/da8/classlibrary_1_1_symbol_preview_graphics_item.html#abbb5db1b700a86caa85ff4c0c13142f2" target="_top" xlink:title="library::SymbolPreviewGraphics\lItem::updateCacheAndRepaint">
<polygon fill="white" stroke="black" points="97,-506 97,-540 253,-540 253,-506 97,-506"/>
<text text-anchor="start" x="105" y="-527" font-family="Helvetica,sans-Serif" font-size="10.00">library::SymbolPreviewGraphics</text>
<text text-anchor="middle" x="175" y="-514" font-family="Helvetica,sans-Serif" font-size="10.00">Item::updateCacheAndRepaint</text>
</a>
</g>
<!-- Node1&#45;&gt;Node14 -->
<g id="edge32" class="edge"><title>Node1&#45;&gt;Node14</title>
<path fill="none" stroke="midnightblue" d="M25.2462,-375.738C30.9938,-405.595 45.7571,-460.553 80,-492 86.0057,-497.515 93.0083,-502.051 100.439,-505.779"/>
<polygon fill="midnightblue" stroke="midnightblue" points="28.6464,-374.865 23.463,-365.625 21.7527,-376.08 28.6464,-374.865"/>
</g>
<!-- Node15 -->
<g id="node32" class="node"><title>Node15</title>
<a xlink:href="../../dc/d87/classproject_1_1_b_g_i___footprint.html#abbb5db1b700a86caa85ff4c0c13142f2" target="_top" xlink:title="project::BGI_Footprint\l::updateCacheAndRepaint">
<polygon fill="white" stroke="black" points="322.5,-468 322.5,-502 453.5,-502 453.5,-468 322.5,-468"/>
<text text-anchor="start" x="330.5" y="-489" font-family="Helvetica,sans-Serif" font-size="10.00">project::BGI_Footprint</text>
<text text-anchor="middle" x="388" y="-476" font-family="Helvetica,sans-Serif" font-size="10.00">::updateCacheAndRepaint</text>
</a>
</g>
<!-- Node1&#45;&gt;Node15 -->
<g id="edge34" class="edge"><title>Node1&#45;&gt;Node15</title>
<path fill="none" stroke="midnightblue" d="M27.0357,-375.183C34.2846,-399.583 50.1922,-439.762 80,-459 118.719,-483.989 244.117,-487.151 322.461,-486.525"/>
<polygon fill="midnightblue" stroke="midnightblue" points="30.4001,-374.218 24.3694,-365.507 23.6516,-376.077 30.4001,-374.218"/>
</g>
<!-- Node20 -->
<g id="node44" class="node"><title>Node20</title>
<a xlink:href="../../d9/d13/classproject_1_1_b_g_i___footprint_pad.html#abbb5db1b700a86caa85ff4c0c13142f2" target="_top" xlink:title="project::BGI_FootprintPad\l::updateCacheAndRepaint">
<polygon fill="white" stroke="black" points="109.5,-416 109.5,-450 240.5,-450 240.5,-416 109.5,-416"/>
<text text-anchor="start" x="117.5" y="-437" font-family="Helvetica,sans-Serif" font-size="10.00">project::BGI_FootprintPad</text>
<text text-anchor="middle" x="175" y="-424" font-family="Helvetica,sans-Serif" font-size="10.00">::updateCacheAndRepaint</text>
</a>
</g>
<!-- Node1&#45;&gt;Node20 -->
<g id="edge48" class="edge"><title>Node1&#45;&gt;Node20</title>
<path fill="none" stroke="midnightblue" d="M38.2234,-373.37C49.038,-384.574 64.1381,-398.355 80,-407 89.0836,-411.951 99.1797,-416.014 109.302,-419.332"/>
<polygon fill="midnightblue" stroke="midnightblue" points="40.5318,-370.713 31.1564,-365.778 35.408,-375.483 40.5318,-370.713"/>
</g>
<!-- Node23 -->
<g id="node52" class="node"><title>Node23</title>
<a xlink:href="../../d1/d60/classproject_1_1_s_g_i___net_label.html#abbb5db1b700a86caa85ff4c0c13142f2" target="_top" xlink:title="project::SGI_NetLabel\l::updateCacheAndRepaint">
<polygon fill="white" stroke="black" points="109.5,-364 109.5,-398 240.5,-398 240.5,-364 109.5,-364"/>
<text text-anchor="start" x="117.5" y="-385" font-family="Helvetica,sans-Serif" font-size="10.00">project::SGI_NetLabel</text>
<text text-anchor="middle" x="175" y="-372" font-family="Helvetica,sans-Serif" font-size="10.00">::updateCacheAndRepaint</text>
</a>
</g>
<!-- Node1&#45;&gt;Node23 -->
<g id="edge58" class="edge"><title>Node1&#45;&gt;Node23</title>
<path fill="none" stroke="midnightblue" d="M53.5827,-360.367C69.7709,-363.118 90.1144,-366.575 109.496,-369.869"/>
<polygon fill="midnightblue" stroke="midnightblue" points="54.0417,-356.895 43.5967,-358.67 52.8689,-363.796 54.0417,-356.895"/>
</g>
<!-- Node26 -->
<g id="node58" class="node"><title>Node26</title>
<a xlink:href="../../dd/d00/classproject_1_1_s_g_i___symbol.html#abbb5db1b700a86caa85ff4c0c13142f2" target="_top" xlink:title="project::SGI_Symbol\l::updateCacheAndRepaint">
<polygon fill="white" stroke="black" points="109.5,-312 109.5,-346 240.5,-346 240.5,-312 109.5,-312"/>
<text text-anchor="start" x="117.5" y="-333" font-family="Helvetica,sans-Serif" font-size="10.00">project::SGI_Symbol</text>
<text text-anchor="middle" x="175" y="-320" font-family="Helvetica,sans-Serif" font-size="10.00">::updateCacheAndRepaint</text>
</a>
</g>
<!-- Node1&#45;&gt;Node26 -->
<g id="edge64" class="edge"><title>Node1&#45;&gt;Node26</title>
<path fill="none" stroke="midnightblue" d="M53.5827,-349.633C69.7709,-346.882 90.1144,-343.425 109.496,-340.131"/>
<polygon fill="midnightblue" stroke="midnightblue" points="52.8689,-346.204 43.5967,-351.33 54.0417,-353.105 52.8689,-346.204"/>
</g>
<!-- Node29 -->
<g id="node64" class="node"><title>Node29</title>
<a xlink:href="../../da/d6f/classproject_1_1_s_g_i___symbol_pin.html#abbb5db1b700a86caa85ff4c0c13142f2" target="_top" xlink:title="project::SGI_SymbolPin\l::updateCacheAndRepaint">
<polygon fill="white" stroke="black" points="322.5,-666 322.5,-700 453.5,-700 453.5,-666 322.5,-666"/>
<text text-anchor="start" x="330.5" y="-687" font-family="Helvetica,sans-Serif" font-size="10.00">project::SGI_SymbolPin</text>
<text text-anchor="middle" x="388" y="-674" font-family="Helvetica,sans-Serif" font-size="10.00">::updateCacheAndRepaint</text>
</a>
</g>
<!-- Node1&#45;&gt;Node29 -->
<g id="edge70" class="edge"><title>Node1&#45;&gt;Node29</title>
<path fill="none" stroke="midnightblue" d="M23.1876,-375.888C27.028,-435.524 41.1959,-604.623 80,-641 144.57,-701.531 252.813,-701.743 322.274,-694.079"/>
<polygon fill="midnightblue" stroke="midnightblue" points="26.6738,-375.554 22.5699,-365.786 19.6868,-375.981 26.6738,-375.554"/>
</g>
<!-- Node30 -->
<g id="node67" class="node"><title>Node30</title>
<a xlink:href="../../db/dd3/classproject_1_1_b_e_s___select.html#a419f72d93a6cb28bc6ee2b8710b84cdd" target="_top" xlink:title="project::BES_Select\l::processSubStateIdle">
<polygon fill="white" stroke="black" points="118.5,-260 118.5,-294 231.5,-294 231.5,-260 118.5,-260"/>
<text text-anchor="start" x="126.5" y="-281" font-family="Helvetica,sans-Serif" font-size="10.00">project::BES_Select</text>
<text text-anchor="middle" x="175" y="-268" font-family="Helvetica,sans-Serif" font-size="10.00">::processSubStateIdle</text>
</a>
</g>
<!-- Node1&#45;&gt;Node30 -->
<g id="edge74" class="edge"><title>Node1&#45;&gt;Node30</title>
<path fill="none" stroke="midnightblue" d="M38.2234,-336.63C49.038,-325.426 64.1381,-311.645 80,-303 91.7111,-296.617 105.105,-291.71 118.069,-287.972"/>
<polygon fill="midnightblue" stroke="midnightblue" points="35.408,-334.517 31.1564,-344.222 40.5318,-339.287 35.408,-334.517"/>
</g>
<!-- Node31 -->
<g id="node69" class="node"><title>Node31</title>
<a xlink:href="../../d4/d07/classproject_1_1_s_e_s___add_components.html#a3b9ee41683706e488c9a65c500558b76" target="_top" xlink:title="project::SES_AddComponents\l::process">
<polygon fill="white" stroke="black" points="100,-208 100,-242 250,-242 250,-208 100,-208"/>
<text text-anchor="start" x="108" y="-229" font-family="Helvetica,sans-Serif" font-size="10.00">project::SES_AddComponents</text>
<text text-anchor="middle" x="175" y="-216" font-family="Helvetica,sans-Serif" font-size="10.00">::process</text>
</a>
</g>
<!-- Node1&#45;&gt;Node31 -->
<g id="edge76" class="edge"><title>Node1&#45;&gt;Node31</title>
<path fill="none" stroke="midnightblue" d="M27.9995,-334.639C36.0106,-311.016 52.4814,-272.561 80,-251 85.9225,-246.36 92.6155,-242.546 99.6392,-239.413"/>
<polygon fill="midnightblue" stroke="midnightblue" points="24.6113,-333.744 24.9047,-344.334 31.2798,-335.872 24.6113,-333.744"/>
</g>
<!-- Node32 -->
<g id="node71" class="node"><title>Node32</title>
<a xlink:href="../../d4/d07/classproject_1_1_s_e_s___add_components.html#a900b064d2a187546b16944379527b0a9" target="_top" xlink:title="project::SES_AddComponents\l::processSceneEvent">
<polygon fill="white" stroke="black" points="100,-156 100,-190 250,-190 250,-156 100,-156"/>
<text text-anchor="start" x="108" y="-177" font-family="Helvetica,sans-Serif" font-size="10.00">project::SES_AddComponents</text>
<text text-anchor="middle" x="175" y="-164" font-family="Helvetica,sans-Serif" font-size="10.00">::processSceneEvent</text>
</a>
</g>
<!-- Node1&#45;&gt;Node32 -->
<g id="edge78" class="edge"><title>Node1&#45;&gt;Node32</title>
<path fill="none" stroke="midnightblue" d="M23.7454,-334.512C27.7005,-301.174 40.3526,-235.274 80,-199 85.8034,-193.69 92.5885,-189.45 99.8152,-186.065"/>
<polygon fill="midnightblue" stroke="midnightblue" points="20.262,-334.172 22.7111,-344.48 27.2246,-334.894 20.262,-334.172"/>
</g>
<!-- Node33 -->
<g id="node73" class="node"><title>Node33</title>
<a xlink:href="../../d5/d33/classproject_1_1_s_e_s___add_net_label.html#a900b064d2a187546b16944379527b0a9" target="_top" xlink:title="project::SES_AddNetLabel\l::processSceneEvent">
<polygon fill="white" stroke="black" points="108,-104 108,-138 242,-138 242,-104 108,-104"/>
<text text-anchor="start" x="116" y="-125" font-family="Helvetica,sans-Serif" font-size="10.00">project::SES_AddNetLabel</text>
<text text-anchor="middle" x="175" y="-112" font-family="Helvetica,sans-Serif" font-size="10.00">::processSceneEvent</text>
</a>
</g>
<!-- Node1&#45;&gt;Node33 -->
<g id="edge80" class="edge"><title>Node1&#45;&gt;Node33</title>
<path fill="none" stroke="midnightblue" d="M25.1429,-334.255C32.697,-287.048 53.2476,-173.624 80,-147 87.7569,-139.28 97.5729,-133.795 107.934,-129.91"/>
<polygon fill="midnightblue" stroke="midnightblue" points="21.6665,-333.833 23.5801,-344.253 28.5825,-334.914 21.6665,-333.833"/>
</g>
<!-- Node34 -->
<g id="node75" class="node"><title>Node34</title>
<a xlink:href="../../d8/d8b/classproject_1_1_s_e_s___select.html#a058e178be2165cf47e16745d82b59452" target="_top" xlink:title="project::SES_Select\l::processSubStateIdle">
<polygon fill="white" stroke="black" points="118.5,-52 118.5,-86 231.5,-86 231.5,-52 118.5,-52"/>
<text text-anchor="start" x="126.5" y="-73" font-family="Helvetica,sans-Serif" font-size="10.00">project::SES_Select</text>
<text text-anchor="middle" x="175" y="-60" font-family="Helvetica,sans-Serif" font-size="10.00">::processSubStateIdle</text>
</a>
</g>
<!-- Node1&#45;&gt;Node34 -->
<g id="edge82" class="edge"><title>Node1&#45;&gt;Node34</title>
<path fill="none" stroke="midnightblue" d="M23.8761,-334.432C29.3166,-279.25 46.8586,-129.76 80,-95 90.1477,-84.3567 104.199,-77.9302 118.385,-74.0884"/>
<polygon fill="midnightblue" stroke="midnightblue" points="20.3883,-334.139 22.9229,-344.426 27.3567,-334.803 20.3883,-334.139"/>
</g>
<!-- Node35 -->
<g id="node77" class="node"><title>Node35</title>
<a xlink:href="../../d8/d8b/classproject_1_1_s_e_s___select.html#abf3d779ad6aed8bf5f55cbb3e20d06e5" target="_top" xlink:title="project::SES_Select\l::proccessIdleSceneRightClick">
<polygon fill="white" stroke="black" points="99,-0 99,-34 251,-34 251,-0 99,-0"/>
<text text-anchor="start" x="107" y="-21" font-family="Helvetica,sans-Serif" font-size="10.00">project::SES_Select</text>
<text text-anchor="middle" x="175" y="-8" font-family="Helvetica,sans-Serif" font-size="10.00">::proccessIdleSceneRightClick</text>
</a>
</g>
<!-- Node1&#45;&gt;Node35 -->
<g id="edge84" class="edge"><title>Node1&#45;&gt;Node35</title>
<path fill="none" stroke="midnightblue" d="M23.0564,-334.164C26.6565,-271.419 40.4952,-85.9425 80,-43 85.3254,-37.2112 91.8044,-32.6632 98.8503,-29.0971"/>
<polygon fill="midnightblue" stroke="midnightblue" points="19.5486,-334.214 22.4995,-344.389 26.5383,-334.595 19.5486,-334.214"/>
</g>
<!-- Node3 -->
<g id="node5" class="node"><title>Node3</title>
<a xlink:href="../../d0/d69/class_point.html#a5234cfe8b9f31ba928745912067f90b4" target="_top" xlink:title="Get the point rotated by a specific angle with respect to a specific center. ">
<polygon fill="white" stroke="black" points="350.5,-610.5 350.5,-631.5 425.5,-631.5 425.5,-610.5 350.5,-610.5"/>
<text text-anchor="middle" x="388" y="-618.5" font-family="Helvetica,sans-Serif" font-size="10.00">Point::rotated</text>
</a>
</g>
<!-- Node2&#45;&gt;Node3 -->
<g id="edge4" class="edge"><title>Node2&#45;&gt;Node3</title>
<path fill="none" stroke="midnightblue" d="M220.619,-621C259.272,-621 314.037,-621 350.261,-621"/>
<polygon fill="midnightblue" stroke="midnightblue" points="220.173,-617.5 210.173,-621 220.173,-624.5 220.173,-617.5"/>
</g>
<!-- Node4 -->
<g id="node7" class="node"><title>Node4</title>
<a xlink:href="../../de/d50/classproject_1_1_s_i___symbol.html#a56e275d18632ae7d863b45e405563e26" target="_top" xlink:title="project::SI_Symbol\l::mapToScene">
<polygon fill="white" stroke="black" points="531,-638 531,-672 631,-672 631,-638 531,-638"/>
<text text-anchor="start" x="539" y="-659" font-family="Helvetica,sans-Serif" font-size="10.00">project::SI_Symbol</text>
<text text-anchor="middle" x="581" y="-646" font-family="Helvetica,sans-Serif" font-size="10.00">::mapToScene</text>
</a>
</g>
<!-- Node3&#45;&gt;Node4 -->
<g id="edge6" class="edge"><title>Node3&#45;&gt;Node4</title>
<path fill="none" stroke="midnightblue" d="M435.566,-629.38C464.561,-634.487 501.57,-641.007 530.998,-646.191"/>
<polygon fill="midnightblue" stroke="midnightblue" points="436.126,-625.924 425.671,-627.636 434.912,-632.818 436.126,-625.924"/>
</g>
<!-- Node12 -->
<g id="node26" class="node"><title>Node12</title>
<a xlink:href="../../d8/d8b/classproject_1_1_s_e_s___select.html#a1f262c8e6a4c3d45093729fa34ec01e8" target="_top" xlink:title="project::SES_Select\l::rotateSelectedItems">
<polygon fill="white" stroke="black" points="526,-586 526,-620 636,-620 636,-586 526,-586"/>
<text text-anchor="start" x="534" y="-607" font-family="Helvetica,sans-Serif" font-size="10.00">project::SES_Select</text>
<text text-anchor="middle" x="581" y="-594" font-family="Helvetica,sans-Serif" font-size="10.00">::rotateSelectedItems</text>
</a>
</g>
<!-- Node3&#45;&gt;Node12 -->
<g id="edge28" class="edge"><title>Node3&#45;&gt;Node12</title>
<path fill="none" stroke="midnightblue" d="M435.763,-616.545C463.07,-613.999 497.436,-610.793 525.884,-608.14"/>
<polygon fill="midnightblue" stroke="midnightblue" points="435.302,-613.073 425.671,-617.487 435.952,-620.043 435.302,-613.073"/>
</g>
<!-- Node5 -->
<g id="node9" class="node"><title>Node5</title>
<a xlink:href="../../d6/d12/classproject_1_1_s_i___symbol_pin.html#a212e36e19edc323ddeb73387d2f011a5" target="_top" xlink:title="project::SI_SymbolPin\l::updatePosition">
<polygon fill="white" stroke="black" points="692,-660 692,-694 806,-694 806,-660 692,-660"/>
<text text-anchor="start" x="700" y="-681" font-family="Helvetica,sans-Serif" font-size="10.00">project::SI_SymbolPin</text>
<text text-anchor="middle" x="749" y="-668" font-family="Helvetica,sans-Serif" font-size="10.00">::updatePosition</text>
</a>
</g>
<!-- Node4&#45;&gt;Node5 -->
<g id="edge8" class="edge"><title>Node4&#45;&gt;Node5</title>
<path fill="none" stroke="midnightblue" d="M641.442,-662.915C657.874,-665.067 675.614,-667.39 691.857,-669.517"/>
<polygon fill="midnightblue" stroke="midnightblue" points="641.775,-659.429 631.406,-661.601 640.866,-666.37 641.775,-659.429"/>
</g>
<!-- Node6 -->
<g id="node11" class="node"><title>Node6</title>
<a xlink:href="../../de/d50/classproject_1_1_s_i___symbol.html#ae4d151fe3fae75cb19c5add958a470a8" target="_top" xlink:title="project::SI_Symbol\l::setPosition">
<polygon fill="white" stroke="black" points="849,-660 849,-694 949,-694 949,-660 849,-660"/>
<text text-anchor="start" x="857" y="-681" font-family="Helvetica,sans-Serif" font-size="10.00">project::SI_Symbol</text>
<text text-anchor="middle" x="899" y="-668" font-family="Helvetica,sans-Serif" font-size="10.00">::setPosition</text>
</a>
</g>
<!-- Node5&#45;&gt;Node6 -->
<g id="edge10" class="edge"><title>Node5&#45;&gt;Node6</title>
<path fill="none" stroke="midnightblue" d="M816.152,-677C827.158,-677 838.391,-677 848.891,-677"/>
<polygon fill="midnightblue" stroke="midnightblue" points="816.137,-673.5 806.136,-677 816.136,-680.5 816.137,-673.5"/>
</g>
<!-- Node10 -->
<g id="node19" class="node"><title>Node10</title>
<a xlink:href="../../de/d50/classproject_1_1_s_i___symbol.html#a92a6c99e0892b13f98c8ec4b5e4823f5" target="_top" xlink:title="project::SI_Symbol\l::setRotation">
<polygon fill="white" stroke="black" points="849,-712 849,-746 949,-746 949,-712 849,-712"/>
<text text-anchor="start" x="857" y="-733" font-family="Helvetica,sans-Serif" font-size="10.00">project::SI_Symbol</text>
<text text-anchor="middle" x="899" y="-720" font-family="Helvetica,sans-Serif" font-size="10.00">::setRotation</text>
</a>
</g>
<!-- Node5&#45;&gt;Node10 -->
<g id="edge18" class="edge"><title>Node5&#45;&gt;Node10</title>
<path fill="none" stroke="midnightblue" d="M807.617,-697.321C821.561,-702.154 836.299,-707.264 849.774,-711.935"/>
<polygon fill="midnightblue" stroke="midnightblue" points="808.71,-693.995 798.116,-694.027 806.418,-700.609 808.71,-693.995"/>
</g>
<!-- Node11 -->
<g id="node24" class="node"><title>Node11</title>
<a xlink:href="../../d6/d12/classproject_1_1_s_i___symbol_pin.html#a2e791a2f0f926f88b6d3a8b6d73a03f0" target="_top" xlink:title="project::SI_SymbolPin\l::SI_SymbolPin">
<polygon fill="white" stroke="black" points="842,-608 842,-642 956,-642 956,-608 842,-608"/>
<text text-anchor="start" x="850" y="-629" font-family="Helvetica,sans-Serif" font-size="10.00">project::SI_SymbolPin</text>
<text text-anchor="middle" x="899" y="-616" font-family="Helvetica,sans-Serif" font-size="10.00">::SI_SymbolPin</text>
</a>
</g>
<!-- Node5&#45;&gt;Node11 -->
<g id="edge26" class="edge"><title>Node5&#45;&gt;Node11</title>
<path fill="none" stroke="midnightblue" d="M807.617,-656.679C821.561,-651.846 836.299,-646.736 849.774,-642.065"/>
<polygon fill="midnightblue" stroke="midnightblue" points="806.418,-653.391 798.116,-659.973 808.71,-660.005 806.418,-653.391"/>
</g>
<!-- Node7 -->
<g id="node13" class="node"><title>Node7</title>
<a xlink:href="../../dd/d49/classproject_1_1_cmd_symbol_instance_edit.html#a6eaf0a56905dd18ebdf240a2229576c6" target="_top" xlink:title="project::CmdSymbolInstance\lEdit::~CmdSymbolInstanceEdit">
<polygon fill="white" stroke="black" points="992.5,-738 992.5,-772 1147.5,-772 1147.5,-738 992.5,-738"/>
<text text-anchor="start" x="1000.5" y="-759" font-family="Helvetica,sans-Serif" font-size="10.00">project::CmdSymbolInstance</text>
<text text-anchor="middle" x="1070" y="-746" font-family="Helvetica,sans-Serif" font-size="10.00">Edit::~CmdSymbolInstanceEdit</text>
</a>
</g>
<!-- Node6&#45;&gt;Node7 -->
<g id="edge12" class="edge"><title>Node6&#45;&gt;Node7</title>
<path fill="none" stroke="midnightblue" d="M948.221,-698.694C950.879,-700.1 953.488,-701.539 956,-703 973.061,-712.922 974.436,-719.998 992,-729 998.351,-732.255 1005.2,-735.231 1012.1,-737.912"/>
<polygon fill="midnightblue" stroke="midnightblue" points="949.568,-695.453 939.065,-694.057 946.406,-701.698 949.568,-695.453"/>
</g>
<!-- Node8 -->
<g id="node15" class="node"><title>Node8</title>
<a xlink:href="../../dd/d49/classproject_1_1_cmd_symbol_instance_edit.html#a91ca7652063093da57fc1bd0141dcc95" target="_top" xlink:title="Redo/execute the command (and all child commands in normal order) ">
<polygon fill="white" stroke="black" points="998.5,-686 998.5,-720 1141.5,-720 1141.5,-686 998.5,-686"/>
<text text-anchor="start" x="1006.5" y="-707" font-family="Helvetica,sans-Serif" font-size="10.00">project::CmdSymbolInstance</text>
<text text-anchor="middle" x="1070" y="-694" font-family="Helvetica,sans-Serif" font-size="10.00">Edit::redo</text>
</a>
</g>
<!-- Node6&#45;&gt;Node8 -->
<g id="edge14" class="edge"><title>Node6&#45;&gt;Node8</title>
<path fill="none" stroke="midnightblue" d="M959.327,-686.173C971.974,-688.096 985.429,-690.141 998.44,-692.12"/>
<polygon fill="midnightblue" stroke="midnightblue" points="959.793,-682.703 949.381,-684.66 958.741,-689.624 959.793,-682.703"/>
</g>
<!-- Node9 -->
<g id="node17" class="node"><title>Node9</title>
<a xlink:href="../../dd/d49/classproject_1_1_cmd_symbol_instance_edit.html#a19e8778088bfe76b16745470981bb913" target="_top" xlink:title="Undo the command (and all child commands in reverse order) ">
<polygon fill="white" stroke="black" points="998.5,-634 998.5,-668 1141.5,-668 1141.5,-634 998.5,-634"/>
<text text-anchor="start" x="1006.5" y="-655" font-family="Helvetica,sans-Serif" font-size="10.00">project::CmdSymbolInstance</text>
<text text-anchor="middle" x="1070" y="-642" font-family="Helvetica,sans-Serif" font-size="10.00">Edit::undo</text>
</a>
</g>
<!-- Node6&#45;&gt;Node9 -->
<g id="edge16" class="edge"><title>Node6&#45;&gt;Node9</title>
<path fill="none" stroke="midnightblue" d="M959.327,-667.827C971.974,-665.904 985.429,-663.859 998.44,-661.88"/>
<polygon fill="midnightblue" stroke="midnightblue" points="958.741,-664.376 949.381,-669.34 959.793,-671.297 958.741,-664.376"/>
</g>
<!-- Node10&#45;&gt;Node7 -->
<g id="edge20" class="edge"><title>Node10&#45;&gt;Node7</title>
<path fill="none" stroke="midnightblue" d="M959.411,-738.185C970.082,-739.808 981.324,-741.517 992.388,-743.199"/>
<polygon fill="midnightblue" stroke="midnightblue" points="959.793,-734.703 949.381,-736.66 958.741,-741.624 959.793,-734.703"/>
</g>
<!-- Node10&#45;&gt;Node8 -->
<g id="edge22" class="edge"><title>Node10&#45;&gt;Node8</title>
<path fill="none" stroke="midnightblue" d="M959.327,-719.827C971.974,-717.904 985.429,-715.859 998.44,-713.88"/>
<polygon fill="midnightblue" stroke="midnightblue" points="958.741,-716.376 949.381,-721.34 959.793,-723.297 958.741,-716.376"/>
</g>
<!-- Node10&#45;&gt;Node9 -->
<g id="edge24" class="edge"><title>Node10&#45;&gt;Node9</title>
<path fill="none" stroke="midnightblue" d="M948.221,-707.306C950.879,-705.9 953.488,-704.461 956,-703 973.061,-693.078 974.436,-686.002 992,-677 998.351,-673.745 1005.2,-670.769 1012.1,-668.088"/>
<polygon fill="midnightblue" stroke="midnightblue" points="946.406,-704.302 939.065,-711.943 949.568,-710.547 946.406,-704.302"/>
</g>
<!-- Node16 -->
<g id="node34" class="node"><title>Node16</title>
<a xlink:href="../../da/d96/classproject_1_1_b_i___footprint.html#a80db668afe30ac6b6c9e5eb061b61cfc" target="_top" xlink:title="project::BI_Footprint\l::componentInstanceAttributes\lChanged">
<polygon fill="white" stroke="black" points="506,-520.5 506,-567.5 656,-567.5 656,-520.5 506,-520.5"/>
<text text-anchor="start" x="514" y="-554.5" font-family="Helvetica,sans-Serif" font-size="10.00">project::BI_Footprint</text>
<text text-anchor="start" x="514" y="-541.5" font-family="Helvetica,sans-Serif" font-size="10.00">::componentInstanceAttributes</text>
<text text-anchor="middle" x="581" y="-528.5" font-family="Helvetica,sans-Serif" font-size="10.00">Changed</text>
</a>
</g>
<!-- Node15&#45;&gt;Node16 -->
<g id="edge36" class="edge"><title>Node15&#45;&gt;Node16</title>
<path fill="none" stroke="midnightblue" d="M453.556,-505.04C470.392,-510.187 488.633,-515.764 505.911,-521.045"/>
<polygon fill="midnightblue" stroke="midnightblue" points="454.41,-501.642 443.824,-502.065 452.364,-508.336 454.41,-501.642"/>
</g>
<!-- Node18 -->
<g id="node38" class="node"><title>Node18</title>
<a xlink:href="../../da/d96/classproject_1_1_b_i___footprint.html#a271c63e12acd19bccc27bf6861938df2" target="_top" xlink:title="project::BI_Footprint\l::componentInstanceMoved">
<polygon fill="white" stroke="black" points="512.5,-416 512.5,-450 649.5,-450 649.5,-416 512.5,-416"/>
<text text-anchor="start" x="520.5" y="-437" font-family="Helvetica,sans-Serif" font-size="10.00">project::BI_Footprint</text>
<text text-anchor="middle" x="581" y="-424" font-family="Helvetica,sans-Serif" font-size="10.00">::componentInstanceMoved</text>
</a>
</g>
<!-- Node15&#45;&gt;Node18 -->
<g id="edge40" class="edge"><title>Node15&#45;&gt;Node18</title>
<path fill="none" stroke="midnightblue" d="M461.098,-465.305C479.718,-460.288 499.575,-454.938 517.663,-450.065"/>
<polygon fill="midnightblue" stroke="midnightblue" points="459.941,-461.992 451.195,-467.973 461.762,-468.751 459.941,-461.992"/>
</g>
<!-- Node19 -->
<g id="node41" class="node"><title>Node19</title>
<a xlink:href="../../da/d96/classproject_1_1_b_i___footprint.html#ab6c0fcabcb9d5a38a27ed7aeb34f0958" target="_top" xlink:title="project::BI_Footprint\l::componentInstanceRotated">
<polygon fill="white" stroke="black" points="509.5,-468 509.5,-502 652.5,-502 652.5,-468 509.5,-468"/>
<text text-anchor="start" x="517.5" y="-489" font-family="Helvetica,sans-Serif" font-size="10.00">project::BI_Footprint</text>
<text text-anchor="middle" x="581" y="-476" font-family="Helvetica,sans-Serif" font-size="10.00">::componentInstanceRotated</text>
</a>
</g>
<!-- Node15&#45;&gt;Node19 -->
<g id="edge44" class="edge"><title>Node15&#45;&gt;Node19</title>
<path fill="none" stroke="midnightblue" d="M463.84,-485C478.804,-485 494.464,-485 509.286,-485"/>
<polygon fill="midnightblue" stroke="midnightblue" points="463.61,-481.5 453.61,-485 463.61,-488.5 463.61,-481.5"/>
</g>
<!-- Node17 -->
<g id="node36" class="node"><title>Node17</title>
<a xlink:href="../../da/d96/classproject_1_1_b_i___footprint.html#a02fd73d861ef2e4aabb38c0c9ff82947" target="_top" xlink:title="project::BI_Footprint\l::init">
<polygon fill="white" stroke="black" points="696.5,-468 696.5,-502 801.5,-502 801.5,-468 696.5,-468"/>
<text text-anchor="start" x="704.5" y="-489" font-family="Helvetica,sans-Serif" font-size="10.00">project::BI_Footprint</text>
<text text-anchor="middle" x="749" y="-476" font-family="Helvetica,sans-Serif" font-size="10.00">::init</text>
</a>
</g>
<!-- Node16&#45;&gt;Node17 -->
<g id="edge38" class="edge"><title>Node16&#45;&gt;Node17</title>
<path fill="none" stroke="midnightblue" d="M657.841,-517.014C672.354,-511.917 687.153,-506.72 700.49,-502.036"/>
<polygon fill="midnightblue" stroke="midnightblue" points="656.639,-513.727 648.364,-520.342 658.959,-520.331 656.639,-513.727"/>
</g>
<!-- Node18&#45;&gt;Node17 -->
<g id="edge42" class="edge"><title>Node18&#45;&gt;Node17</title>
<path fill="none" stroke="midnightblue" d="M645.739,-453.038C662.514,-458.231 680.372,-463.758 696.438,-468.731"/>
<polygon fill="midnightblue" stroke="midnightblue" points="646.597,-449.64 636.009,-450.027 644.527,-456.327 646.597,-449.64"/>
</g>
<!-- Node19&#45;&gt;Node17 -->
<g id="edge46" class="edge"><title>Node19&#45;&gt;Node17</title>
<path fill="none" stroke="midnightblue" d="M663.078,-485C674.382,-485 685.731,-485 696.308,-485"/>
<polygon fill="midnightblue" stroke="midnightblue" points="662.734,-481.5 652.734,-485 662.734,-488.5 662.734,-481.5"/>
</g>
<!-- Node21 -->
<g id="node46" class="node"><title>Node21</title>
<a xlink:href="../../d4/ddd/classproject_1_1_b_i___footprint_pad.html#a212e36e19edc323ddeb73387d2f011a5" target="_top" xlink:title="project::BI_FootprintPad\l::updatePosition">
<polygon fill="white" stroke="black" points="327,-416 327,-450 449,-450 449,-416 327,-416"/>
<text text-anchor="start" x="335" y="-437" font-family="Helvetica,sans-Serif" font-size="10.00">project::BI_FootprintPad</text>
<text text-anchor="middle" x="388" y="-424" font-family="Helvetica,sans-Serif" font-size="10.00">::updatePosition</text>
</a>
</g>
<!-- Node20&#45;&gt;Node21 -->
<g id="edge50" class="edge"><title>Node20&#45;&gt;Node21</title>
<path fill="none" stroke="midnightblue" d="M250.809,-433C275.776,-433 303.204,-433 326.93,-433"/>
<polygon fill="midnightblue" stroke="midnightblue" points="250.645,-429.5 240.645,-433 250.645,-436.5 250.645,-429.5"/>
</g>
<!-- Node21&#45;&gt;Node18 -->
<g id="edge52" class="edge"><title>Node21&#45;&gt;Node18</title>
<path fill="none" stroke="midnightblue" d="M459.133,-433C476.492,-433 495.031,-433 512.276,-433"/>
<polygon fill="midnightblue" stroke="midnightblue" points="459.066,-429.5 449.066,-433 459.066,-436.5 459.066,-429.5"/>
</g>
<!-- Node21&#45;&gt;Node19 -->
<g id="edge54" class="edge"><title>Node21&#45;&gt;Node19</title>
<path fill="none" stroke="midnightblue" d="M458.972,-452.122C478.203,-457.303 498.891,-462.877 517.671,-467.937"/>
<polygon fill="midnightblue" stroke="midnightblue" points="459.633,-448.675 449.066,-449.453 457.812,-455.434 459.633,-448.675"/>
</g>
<!-- Node22 -->
<g id="node50" class="node"><title>Node22</title>
<a xlink:href="../../d4/ddd/classproject_1_1_b_i___footprint_pad.html#ac81e6cd36593d731c5e2e23048ed6754" target="_top" xlink:title="project::BI_FootprintPad\l::BI_FootprintPad">
<polygon fill="white" stroke="black" points="520,-364 520,-398 642,-398 642,-364 520,-364"/>
<text text-anchor="start" x="528" y="-385" font-family="Helvetica,sans-Serif" font-size="10.00">project::BI_FootprintPad</text>
<text text-anchor="middle" x="581" y="-372" font-family="Helvetica,sans-Serif" font-size="10.00">::BI_FootprintPad</text>
</a>
</g>
<!-- Node21&#45;&gt;Node22 -->
<g id="edge56" class="edge"><title>Node21&#45;&gt;Node22</title>
<path fill="none" stroke="midnightblue" d="M458.78,-413.93C478.863,-408.519 500.549,-402.676 520,-397.435"/>
<polygon fill="midnightblue" stroke="midnightblue" points="457.812,-410.566 449.066,-416.547 459.633,-417.325 457.812,-410.566"/>
</g>
<!-- Node24 -->
<g id="node54" class="node"><title>Node24</title>
<a xlink:href="../../d1/d7b/classproject_1_1_s_i___net_label.html#a185915e00afcfe0b1e4adf43adad873c" target="_top" xlink:title="project::SI_NetLabel\l::updateText">
<polygon fill="white" stroke="black" points="335,-353 335,-387 441,-387 441,-353 335,-353"/>
<text text-anchor="start" x="343" y="-374" font-family="Helvetica,sans-Serif" font-size="10.00">project::SI_NetLabel</text>
<text text-anchor="middle" x="388" y="-361" font-family="Helvetica,sans-Serif" font-size="10.00">::updateText</text>
</a>
</g>
<!-- Node23&#45;&gt;Node24 -->
<g id="edge60" class="edge"><title>Node23&#45;&gt;Node24</title>
<path fill="none" stroke="midnightblue" d="M250.721,-377.09C278.489,-375.655 309.311,-374.064 334.703,-372.752"/>
<polygon fill="midnightblue" stroke="midnightblue" points="250.451,-373.599 240.645,-377.61 250.812,-380.589 250.451,-373.599"/>
</g>
<!-- Node25 -->
<g id="node56" class="node"><title>Node25</title>
<a xlink:href="../../d3/d93/classproject_1_1_net_signal.html#a8f5e5ef232fd487e10ae0684bbf73ebf" target="_top" xlink:title="project::NetSignal\l::setName">
<polygon fill="white" stroke="black" points="533.5,-312 533.5,-346 628.5,-346 628.5,-312 533.5,-312"/>
<text text-anchor="start" x="541.5" y="-333" font-family="Helvetica,sans-Serif" font-size="10.00">project::NetSignal</text>
<text text-anchor="middle" x="581" y="-320" font-family="Helvetica,sans-Serif" font-size="10.00">::setName</text>
</a>
</g>
<!-- Node24&#45;&gt;Node25 -->
<g id="edge62" class="edge"><title>Node24&#45;&gt;Node25</title>
<path fill="none" stroke="midnightblue" d="M451.261,-356.561C477.93,-350.896 508.457,-344.411 533.197,-339.155"/>
<polygon fill="midnightblue" stroke="midnightblue" points="450.303,-353.186 441.249,-358.688 451.758,-360.034 450.303,-353.186"/>
</g>
<!-- Node27 -->
<g id="node60" class="node"><title>Node27</title>
<a xlink:href="../../de/d50/classproject_1_1_s_i___symbol.html#a803d371853cd2d72f4df8a45349d0cb7" target="_top" xlink:title="project::SI_Symbol\l::schematicOrGenCompAttributes\lChanged">
<polygon fill="white" stroke="black" points="306,-265.5 306,-312.5 470,-312.5 470,-265.5 306,-265.5"/>
<text text-anchor="start" x="314" y="-299.5" font-family="Helvetica,sans-Serif" font-size="10.00">project::SI_Symbol</text>
<text text-anchor="start" x="314" y="-286.5" font-family="Helvetica,sans-Serif" font-size="10.00">::schematicOrGenCompAttributes</text>
<text text-anchor="middle" x="388" y="-273.5" font-family="Helvetica,sans-Serif" font-size="10.00">Changed</text>
</a>
</g>
<!-- Node26&#45;&gt;Node27 -->
<g id="edge66" class="edge"><title>Node26&#45;&gt;Node27</title>
<path fill="none" stroke="midnightblue" d="M250.929,-314.741C268.665,-311.41 287.638,-307.847 305.639,-304.467"/>
<polygon fill="midnightblue" stroke="midnightblue" points="249.827,-311.387 240.645,-316.672 251.119,-318.266 249.827,-311.387"/>
</g>
<!-- Node28 -->
<g id="node62" class="node"><title>Node28</title>
<a xlink:href="../../de/d50/classproject_1_1_s_i___symbol.html#ae4e286593d2a82f74246f9cba8193605" target="_top" xlink:title="project::SI_Symbol\l::init">
<polygon fill="white" stroke="black" points="531,-260 531,-294 631,-294 631,-260 531,-260"/>
<text text-anchor="start" x="539" y="-281" font-family="Helvetica,sans-Serif" font-size="10.00">project::SI_Symbol</text>
<text text-anchor="middle" x="581" y="-268" font-family="Helvetica,sans-Serif" font-size="10.00">::init</text>
</a>
</g>
<!-- Node27&#45;&gt;Node28 -->
<g id="edge68" class="edge"><title>Node27&#45;&gt;Node28</title>
<path fill="none" stroke="midnightblue" d="M480.334,-283.259C497.731,-282.177 515.309,-281.084 530.801,-280.121"/>
<polygon fill="midnightblue" stroke="midnightblue" points="479.893,-279.78 470.129,-283.894 480.327,-286.766 479.893,-279.78"/>
</g>
<!-- Node29&#45;&gt;Node5 -->
<g id="edge72" class="edge"><title>Node29&#45;&gt;Node5</title>
<path fill="none" stroke="midnightblue" d="M463.666,-683.151C517.353,-683.084 591.109,-682.637 656,-681 667.632,-680.707 680.078,-680.262 691.959,-679.774"/>
<polygon fill="midnightblue" stroke="midnightblue" points="463.541,-679.651 453.544,-683.16 463.547,-686.651 463.541,-679.651"/>
</g>
</g>
</svg>
