<?xml version="1.0" encoding="UTF-8" standalone="no"?>
<!DOCTYPE svg PUBLIC "-//W3C//DTD SVG 1.1//EN"
 "http://www.w3.org/Graphics/SVG/1.1/DTD/svg11.dtd">
<!-- Generated by graphviz version 2.26.3 (20100126.1600)
 -->
<!-- Title: /home/travis/build/LibrePCB/LibrePCB/libs/librepcbworkspace/ui/ui_workspacesettingsdialog.h Pages: 1 -->
<svg width="154pt" height="168pt"
 viewBox="0.00 0.00 154.00 168.00" xmlns="http://www.w3.org/2000/svg" xmlns:xlink="http://www.w3.org/1999/xlink">
<g id="graph1" class="graph" transform="scale(1 1) rotate(0) translate(4 164)">
<title>/home/travis/build/LibrePCB/LibrePCB/libs/librepcbworkspace/ui/ui_workspacesettingsdialog.h</title>
<polygon fill="white" stroke="white" points="-4,5 -4,-164 151,-164 151,5 -4,5"/>
<!-- Node1 -->
<g id="node1" class="node"><title>Node1</title>
<polygon fill="#bfbfbf" stroke="black" points="4.5,-99 4.5,-159 141.5,-159 141.5,-99 4.5,-99"/>
<text text-anchor="start" x="12.5" y="-146" font-family="Helvetica,sans-Serif" font-size="10.00">/home/travis/build</text>
<text text-anchor="start" x="12.5" y="-133" font-family="Helvetica,sans-Serif" font-size="10.00">/LibrePCB/LibrePCB/libs</text>
<text text-anchor="start" x="12.5" y="-120" font-family="Helvetica,sans-Serif" font-size="10.00">/librepcbworkspace/ui/ui</text>
<text text-anchor="middle" x="73" y="-107" font-family="Helvetica,sans-Serif" font-size="10.00">_workspacesettingsdialog.h</text>
</g>
<!-- Node2 -->
<g id="node3" class="node"><title>Node2</title>
<a xlink:href="../../d3/d42/workspacesettingsdialog_8cpp.html" target="_top" xlink:title="/home/travis/build\l/LibrePCB/LibrePCB/libs\l/librepcbworkspace/settings\l/workspacesettingsdialog.cpp">
<polygon fill="white" stroke="black" points="0,-1 0,-61 146,-61 146,-1 0,-1"/>
<text text-anchor="start" x="8" y="-48" font-family="Helvetica,sans-Serif" font-size="10.00">/home/travis/build</text>
<text text-anchor="start" x="8" y="-35" font-family="Helvetica,sans-Serif" font-size="10.00">/LibrePCB/LibrePCB/libs</text>
<text text-anchor="start" x="8" y="-22" font-family="Helvetica,sans-Serif" font-size="10.00">/librepcbworkspace/settings</text>
<text text-anchor="middle" x="73" y="-9" font-family="Helvetica,sans-Serif" font-size="10.00">/workspacesettingsdialog.cpp</text>
</a>
</g>
<!-- Node1&#45;&gt;Node2 -->
<g id="edge2" class="edge"><title>Node1&#45;&gt;Node2</title>
<path fill="none" stroke="midnightblue" d="M73,-88.6956C73,-79.5273 73,-69.9394 73,-61.2718"/>
<polygon fill="midnightblue" stroke="midnightblue" points="69.5001,-88.7971 73,-98.7971 76.5001,-88.7972 69.5001,-88.7971"/>
</g>
</g>
</svg>
