<?xml version="1.0" encoding="UTF-8" standalone="no"?>
<!DOCTYPE svg PUBLIC "-//W3C//DTD SVG 1.1//EN"
 "http://www.w3.org/Graphics/SVG/1.1/DTD/svg11.dtd">
<!-- Generated by graphviz version 2.26.3 (20100126.1600)
 -->
<!-- Title: getErcMsgOwnerClassName Pages: 1 -->
<svg width="332pt" height="94pt"
 viewBox="0.00 0.00 332.00 94.00" xmlns="http://www.w3.org/2000/svg" xmlns:xlink="http://www.w3.org/1999/xlink">
<g id="graph1" class="graph" transform="scale(1 1) rotate(0) translate(4 90)">
<title>getErcMsgOwnerClassName</title>
<polygon fill="white" stroke="white" points="-4,5 -4,-90 329,-90 329,5 -4,5"/>
<!-- Node1 -->
<g id="node1" class="node"><title>Node1</title>
<polygon fill="#bfbfbf" stroke="black" points="0,-32.5 0,-53.5 144,-53.5 144,-32.5 0,-32.5"/>
<text text-anchor="middle" x="72" y="-40.5" font-family="Helvetica,sans-Serif" font-size="10.00">getErcMsgOwnerClassName</text>
</g>
<!-- Node2 -->
<g id="node3" class="node"><title>Node2</title>
<a xlink:href="../../d1/dd6/classproject_1_1_erc_msg_list.html#a5d9cb0a79e8e14d8d02c3b1388935eb2" target="_top" xlink:title="project::ErcMsgList\l::restoreIgnoreState">
<polygon fill="white" stroke="black" points="200.5,-52 200.5,-86 303.5,-86 303.5,-52 200.5,-52"/>
<text text-anchor="start" x="208.5" y="-73" font-family="Helvetica,sans-Serif" font-size="10.00">project::ErcMsgList</text>
<text text-anchor="middle" x="252" y="-60" font-family="Helvetica,sans-Serif" font-size="10.00">::restoreIgnoreState</text>
</a>
</g>
<!-- Node1&#45;&gt;Node2 -->
<g id="edge2" class="edge"><title>Node1&#45;&gt;Node2</title>
<path fill="none" stroke="midnightblue" d="M154.383,-54.8998C170.014,-57.1576 185.954,-59.4601 200.299,-61.532"/>
<polygon fill="midnightblue" stroke="midnightblue" points="154.573,-51.391 144.176,-53.4254 153.573,-58.3191 154.573,-51.391"/>
</g>
<!-- Node3 -->
<g id="node5" class="node"><title>Node3</title>
<a xlink:href="../../d1/dd6/classproject_1_1_erc_msg_list.html#a8747acbd54e52d4fcb3bb74f1bb2a88a" target="_top" xlink:title="Serialize the object to a XML DOM element. ">
<polygon fill="white" stroke="black" points="180,-0 180,-34 324,-34 324,-0 180,-0"/>
<text text-anchor="start" x="188" y="-21" font-family="Helvetica,sans-Serif" font-size="10.00">project::ErcMsgList</text>
<text text-anchor="middle" x="252" y="-8" font-family="Helvetica,sans-Serif" font-size="10.00">::serializeToXmlDomElement</text>
</a>
</g>
<!-- Node1&#45;&gt;Node3 -->
<g id="edge4" class="edge"><title>Node1&#45;&gt;Node3</title>
<path fill="none" stroke="midnightblue" d="M154.16,-31.1324C162.718,-29.8962 171.372,-28.6463 179.808,-27.4277"/>
<polygon fill="midnightblue" stroke="midnightblue" points="153.573,-27.6809 144.176,-32.5746 154.573,-34.609 153.573,-27.6809"/>
</g>
</g>
</svg>
