<?xml version="1.0" encoding="UTF-8" standalone="no"?>
<!DOCTYPE svg PUBLIC "-//W3C//DTD SVG 1.1//EN"
 "http://www.w3.org/Graphics/SVG/1.1/DTD/svg11.dtd">
<!-- Generated by graphviz version 2.26.3 (20100126.1600)
 -->
<!-- Title: Model3D Pages: 1 -->
<svg width="536pt" height="346pt"
 viewBox="0.00 0.00 536.00 346.00" xmlns="http://www.w3.org/2000/svg" xmlns:xlink="http://www.w3.org/1999/xlink">
<g id="graph1" class="graph" transform="scale(1 1) rotate(0) translate(4 342)">
<title>Model3D</title>
<polygon fill="white" stroke="white" points="-4,5 -4,-342 533,-342 533,5 -4,5"/>
<!-- Node1 -->
<g id="node1" class="node"><title>Node1</title>
<polygon fill="#bfbfbf" stroke="black" points="0,-176.5 0,-197.5 56,-197.5 56,-176.5 0,-176.5"/>
<text text-anchor="middle" x="28" y="-184.5" font-family="Helvetica,sans-Serif" font-size="10.00">Model3D</text>
</g>
<!-- Node2 -->
<g id="node3" class="node"><title>Node2</title>
<a xlink:href="../../dd/d8a/classlibrary_1_1_library_base_element.html#ab6b2b9128217f98c13508797ed0a6080" target="_top" xlink:title="library::LibraryBaseElement\l::readFromFile">
<polygon fill="white" stroke="black" points="92.5,-170 92.5,-204 229.5,-204 229.5,-170 92.5,-170"/>
<text text-anchor="start" x="100.5" y="-191" font-family="Helvetica,sans-Serif" font-size="10.00">library::LibraryBaseElement</text>
<text text-anchor="middle" x="161" y="-178" font-family="Helvetica,sans-Serif" font-size="10.00">::readFromFile</text>
</a>
</g>
<!-- Node1&#45;&gt;Node2 -->
<g id="edge2" class="edge"><title>Node1&#45;&gt;Node2</title>
<path fill="none" stroke="midnightblue" d="M56.2059,-187C64.0455,-187 72.9623,-187 82.2075,-187"/>
<polygon fill="midnightblue" stroke="midnightblue" points="82.333,-190.5 92.3329,-187 82.3329,-183.5 82.333,-190.5"/>
</g>
<!-- Node3 -->
<g id="node5" class="node"><title>Node3</title>
<a xlink:href="../../d4/d1c/class_file_path.html#a2cc965936000d08100b8b2e503d975a4" target="_top" xlink:title="Get the whole filename (without the path) of the file or directory. ">
<polygon fill="white" stroke="black" points="280,-316.5 280,-337.5 392,-337.5 392,-316.5 280,-316.5"/>
<text text-anchor="middle" x="336" y="-324.5" font-family="Helvetica,sans-Serif" font-size="10.00">FilePath::getFilename</text>
</a>
</g>
<!-- Node2&#45;&gt;Node3 -->
<g id="edge4" class="edge"><title>Node2&#45;&gt;Node3</title>
<path fill="none" stroke="midnightblue" d="M171.308,-204.09C187.945,-230.208 223.217,-279.871 266,-307 269.175,-309.014 272.558,-310.829 276.057,-312.466"/>
<polygon fill="midnightblue" stroke="midnightblue" points="274.95,-315.796 285.528,-316.393 277.631,-309.33 274.95,-315.796"/>
</g>
<!-- Node4 -->
<g id="node7" class="node"><title>Node4</title>
<a xlink:href="../../d4/d1c/class_file_path.html#aed11b2f2b9590d9ac21e452b8ad11c46" target="_top" xlink:title="Check if the specified filepath is an existing directory. ">
<polygon fill="white" stroke="black" points="279,-276.5 279,-297.5 393,-297.5 393,-276.5 279,-276.5"/>
<text text-anchor="middle" x="336" y="-284.5" font-family="Helvetica,sans-Serif" font-size="10.00">FilePath::isExistingDir</text>
</a>
</g>
<!-- Node2&#45;&gt;Node4 -->
<g id="edge6" class="edge"><title>Node2&#45;&gt;Node4</title>
<path fill="none" stroke="midnightblue" d="M178.918,-204.044C198.759,-222.062 232.401,-250.157 266,-267 270.544,-269.278 275.388,-271.334 280.326,-273.181"/>
<polygon fill="midnightblue" stroke="midnightblue" points="279.288,-276.525 289.882,-276.48 281.572,-269.909 279.288,-276.525"/>
</g>
<!-- Node5 -->
<g id="node9" class="node"><title>Node5</title>
<a xlink:href="../../d4/d1c/class_file_path.html#af27e4f117ace775ab38ae937c12cd37a" target="_top" xlink:title="Get the absolute filepath with native directory separators (&quot;/&quot; resp. &quot;\&quot;) ">
<polygon fill="white" stroke="black" points="288.5,-236.5 288.5,-257.5 383.5,-257.5 383.5,-236.5 288.5,-236.5"/>
<text text-anchor="middle" x="336" y="-244.5" font-family="Helvetica,sans-Serif" font-size="10.00">FilePath::toNative</text>
</a>
</g>
<!-- Node2&#45;&gt;Node5 -->
<g id="edge8" class="edge"><title>Node2&#45;&gt;Node5</title>
<path fill="none" stroke="midnightblue" d="M203.36,-204.085C222.377,-211.509 245.176,-220.073 266,-227 272.843,-229.277 280.114,-231.532 287.281,-233.662"/>
<polygon fill="midnightblue" stroke="midnightblue" points="286.361,-237.04 296.941,-236.48 288.321,-230.32 286.361,-237.04"/>
</g>
<!-- Node6 -->
<g id="node11" class="node"><title>Node6</title>
<a xlink:href="../../d4/d1c/class_file_path.html#a2c6594f7da9797cf10468c08338cbefd" target="_top" xlink:title="Get the filepath to a file or directory which is relative to this filepath. ">
<polygon fill="white" stroke="black" points="284,-196.5 284,-217.5 388,-217.5 388,-196.5 284,-196.5"/>
<text text-anchor="middle" x="336" y="-204.5" font-family="Helvetica,sans-Serif" font-size="10.00">FilePath::getPathTo</text>
</a>
</g>
<!-- Node2&#45;&gt;Node6 -->
<g id="edge10" class="edge"><title>Node2&#45;&gt;Node6</title>
<path fill="none" stroke="midnightblue" d="M229.662,-194.847C244.149,-196.503 259.358,-198.241 273.598,-199.868"/>
<polygon fill="midnightblue" stroke="midnightblue" points="273.439,-203.373 283.772,-201.031 274.234,-196.418 273.439,-203.373"/>
</g>
<!-- Node7 -->
<g id="node13" class="node"><title>Node7</title>
<a xlink:href="../../d4/d1c/class_file_path.html#af7ebe5b84330753a4d61b36199f3da48" target="_top" xlink:title="Check if the specified filepath is an existing file. ">
<polygon fill="white" stroke="black" points="277.5,-156.5 277.5,-177.5 394.5,-177.5 394.5,-156.5 277.5,-156.5"/>
<text text-anchor="middle" x="336" y="-164.5" font-family="Helvetica,sans-Serif" font-size="10.00">FilePath::isExistingFile</text>
</a>
</g>
<!-- Node2&#45;&gt;Node7 -->
<g id="edge12" class="edge"><title>Node2&#45;&gt;Node7</title>
<path fill="none" stroke="midnightblue" d="M229.662,-179.153C242.006,-177.742 254.875,-176.271 267.221,-174.86"/>
<polygon fill="midnightblue" stroke="midnightblue" points="267.909,-178.305 277.447,-173.692 267.114,-171.35 267.909,-178.305"/>
</g>
<!-- Node8 -->
<g id="node15" class="node"><title>Node8</title>
<a xlink:href="../../da/db0/class_smart_xml_file.html#a6685c26dd2c2668f47d5fae96c4c319f" target="_top" xlink:title="Open and parse the XML file and build the whole DOM tree. ">
<polygon fill="white" stroke="black" points="266.5,-104 266.5,-138 405.5,-138 405.5,-104 266.5,-104"/>
<text text-anchor="start" x="274.5" y="-125" font-family="Helvetica,sans-Serif" font-size="10.00">SmartXmlFile::parseFileAnd</text>
<text text-anchor="middle" x="336" y="-112" font-family="Helvetica,sans-Serif" font-size="10.00">BuildDomTree</text>
</a>
</g>
<!-- Node2&#45;&gt;Node8 -->
<g id="edge14" class="edge"><title>Node2&#45;&gt;Node8</title>
<path fill="none" stroke="midnightblue" d="M205.418,-169.985C224.109,-162.849 246.099,-154.486 266,-147 270.732,-145.22 275.647,-143.379 280.579,-141.536"/>
<polygon fill="midnightblue" stroke="midnightblue" points="281.895,-144.781 290.042,-138.008 279.449,-138.222 281.895,-144.781"/>
</g>
<!-- Node9 -->
<g id="node17" class="node"><title>Node9</title>
<a xlink:href="../../dd/d8a/classlibrary_1_1_library_base_element.html#ad6c2bb438fe200b1224b2d8e05d3eca0" target="_top" xlink:title="library::LibraryBaseElement\l::parseDomTree">
<polygon fill="white" stroke="black" points="267.5,-52 267.5,-86 404.5,-86 404.5,-52 267.5,-52"/>
<text text-anchor="start" x="275.5" y="-73" font-family="Helvetica,sans-Serif" font-size="10.00">library::LibraryBaseElement</text>
<text text-anchor="middle" x="336" y="-60" font-family="Helvetica,sans-Serif" font-size="10.00">::parseDomTree</text>
</a>
</g>
<!-- Node2&#45;&gt;Node9 -->
<g id="edge16" class="edge"><title>Node2&#45;&gt;Node9</title>
<path fill="none" stroke="midnightblue" d="M176.605,-169.971C195.919,-149.745 230.609,-116.098 266,-95 268.643,-93.4245 271.398,-91.9176 274.22,-90.4802"/>
<polygon fill="midnightblue" stroke="midnightblue" points="275.874,-93.5697 283.414,-86.1269 272.879,-87.243 275.874,-93.5697"/>
</g>
<!-- Node10 -->
<g id="node19" class="node"><title>Node10</title>
<a xlink:href="../../dd/d8a/classlibrary_1_1_library_base_element.html#a524ed0dd8a5522b754411728dfe5c752" target="_top" xlink:title="Check the validity of all attributes of the object. ">
<polygon fill="white" stroke="black" points="267.5,-0 267.5,-34 404.5,-34 404.5,-0 267.5,-0"/>
<text text-anchor="start" x="275.5" y="-21" font-family="Helvetica,sans-Serif" font-size="10.00">library::LibraryBaseElement</text>
<text text-anchor="middle" x="336" y="-8" font-family="Helvetica,sans-Serif" font-size="10.00">::checkAttributesValidity</text>
</a>
</g>
<!-- Node2&#45;&gt;Node10 -->
<g id="edge18" class="edge"><title>Node2&#45;&gt;Node10</title>
<path fill="none" stroke="midnightblue" d="M169.233,-169.827C184.368,-139.969 219.384,-78.3057 266,-43 267.805,-41.6327 269.69,-40.331 271.635,-39.0922"/>
<polygon fill="midnightblue" stroke="midnightblue" points="273.528,-42.0421 280.49,-34.0559 270.068,-35.9574 273.528,-42.0421"/>
</g>
<!-- Node11 -->
<g id="node21" class="node"><title>Node11</title>
<a xlink:href="../../de/d34/class_version.html#a0a886a9edf5bf682f5245159661bfc94" target="_top" xlink:title="Check if the object represents a valid version number. ">
<polygon fill="white" stroke="black" points="442.5,-6.5 442.5,-27.5 527.5,-27.5 527.5,-6.5 442.5,-6.5"/>
<text text-anchor="middle" x="485" y="-14.5" font-family="Helvetica,sans-Serif" font-size="10.00">Version::isValid</text>
</a>
</g>
<!-- Node10&#45;&gt;Node11 -->
<g id="edge20" class="edge"><title>Node10&#45;&gt;Node11</title>
<path fill="none" stroke="midnightblue" d="M404.83,-17C414.037,-17 423.361,-17 432.234,-17"/>
<polygon fill="midnightblue" stroke="midnightblue" points="432.409,-20.5001 442.409,-17 432.409,-13.5001 432.409,-20.5001"/>
</g>
</g>
</svg>
