<?xml version="1.0" encoding="UTF-8" standalone="no"?>
<!DOCTYPE svg PUBLIC "-//W3C//DTD SVG 1.1//EN"
 "http://www.w3.org/Graphics/SVG/1.1/DTD/svg11.dtd">
<!-- Generated by graphviz version 2.26.3 (20100126.1600)
 -->
<!-- Title: getStatus Pages: 1 -->
<svg width="252pt" height="230pt"
 viewBox="0.00 0.00 252.00 230.00" xmlns="http://www.w3.org/2000/svg" xmlns:xlink="http://www.w3.org/1999/xlink">
<g id="graph1" class="graph" transform="scale(1 1) rotate(0) translate(4 226)">
<title>getStatus</title>
<polygon fill="white" stroke="white" points="-4,5 -4,-226 249,-226 249,5 -4,5"/>
<!-- Node1 -->
<g id="node1" class="node"><title>Node1</title>
<polygon fill="#bfbfbf" stroke="black" points="0.5,-100.5 0.5,-121.5 59.5,-121.5 59.5,-100.5 0.5,-100.5"/>
<text text-anchor="middle" x="30" y="-108.5" font-family="Helvetica,sans-Serif" font-size="10.00">getStatus</text>
</g>
<!-- Node2 -->
<g id="node3" class="node"><title>Node2</title>
<a xlink:href="../../d4/d1c/class_file_path.html#a0a886a9edf5bf682f5245159661bfc94" target="_top" xlink:title="Check whether this object contains a valid filepath or not. ">
<polygon fill="white" stroke="black" points="126,-200.5 126,-221.5 214,-221.5 214,-200.5 126,-200.5"/>
<text text-anchor="middle" x="170" y="-208.5" font-family="Helvetica,sans-Serif" font-size="10.00">FilePath::isValid</text>
</a>
</g>
<!-- Node1&#45;&gt;Node2 -->
<g id="edge2" class="edge"><title>Node1&#45;&gt;Node2</title>
<path fill="none" stroke="midnightblue" d="M35.7912,-121.604C45.7643,-138.847 67.8496,-172.858 96,-191 102.152,-194.965 109.077,-198.15 116.158,-200.706"/>
<polygon fill="midnightblue" stroke="midnightblue" points="115.261,-204.094 125.853,-203.817 117.4,-197.429 115.261,-204.094"/>
</g>
<!-- Node3 -->
<g id="node5" class="node"><title>Node3</title>
<a xlink:href="../../d4/d1c/class_file_path.html#a39a0bbf3901de18041fb5c324ecf412a" target="_top" xlink:title="Get the absolute and well&#45;formatted filepath as a QString. ">
<polygon fill="white" stroke="black" points="130,-160.5 130,-181.5 210,-181.5 210,-160.5 130,-160.5"/>
<text text-anchor="middle" x="170" y="-168.5" font-family="Helvetica,sans-Serif" font-size="10.00">FilePath::toStr</text>
</a>
</g>
<!-- Node1&#45;&gt;Node3 -->
<g id="edge4" class="edge"><title>Node1&#45;&gt;Node3</title>
<path fill="none" stroke="midnightblue" d="M44.8142,-121.65C57.78,-130.553 77.4004,-143.039 96,-151 103.567,-154.239 111.798,-157.08 119.929,-159.527"/>
<polygon fill="midnightblue" stroke="midnightblue" points="119.171,-162.95 129.747,-162.316 121.084,-156.216 119.171,-162.95"/>
</g>
<!-- Node4 -->
<g id="node7" class="node"><title>Node4</title>
<a xlink:href="../../d4/d1c/class_file_path.html#af27e4f117ace775ab38ae937c12cd37a" target="_top" xlink:title="Get the absolute filepath with native directory separators (&quot;/&quot; resp. &quot;\&quot;) ">
<polygon fill="white" stroke="black" points="122.5,-120.5 122.5,-141.5 217.5,-141.5 217.5,-120.5 122.5,-120.5"/>
<text text-anchor="middle" x="170" y="-128.5" font-family="Helvetica,sans-Serif" font-size="10.00">FilePath::toNative</text>
</a>
</g>
<!-- Node1&#45;&gt;Node4 -->
<g id="edge6" class="edge"><title>Node1&#45;&gt;Node4</title>
<path fill="none" stroke="midnightblue" d="M59.6904,-115.241C75.0637,-117.438 94.3718,-120.196 112.519,-122.788"/>
<polygon fill="midnightblue" stroke="midnightblue" points="112.055,-126.258 122.45,-124.207 113.045,-119.328 112.055,-126.258"/>
</g>
<!-- Node5 -->
<g id="node9" class="node"><title>Node5</title>
<a xlink:href="../../d7/deb/class_system_info.html#a527387b438f668d7805b2874994de02a" target="_top" xlink:title="Get the full name of the user which is logged in (like &quot;Homer Simpson&quot;) ">
<polygon fill="white" stroke="black" points="96.5,-80.5 96.5,-101.5 243.5,-101.5 243.5,-80.5 96.5,-80.5"/>
<text text-anchor="middle" x="170" y="-88.5" font-family="Helvetica,sans-Serif" font-size="10.00">SystemInfo::getFullUsername</text>
</a>
</g>
<!-- Node1&#45;&gt;Node5 -->
<g id="edge8" class="edge"><title>Node1&#45;&gt;Node5</title>
<path fill="none" stroke="midnightblue" d="M59.6904,-106.759C67.7326,-105.61 76.8516,-104.307 86.318,-102.955"/>
<polygon fill="midnightblue" stroke="midnightblue" points="86.8736,-106.411 96.2781,-101.532 85.8836,-99.4812 86.8736,-106.411"/>
</g>
<!-- Node6 -->
<g id="node11" class="node"><title>Node6</title>
<a xlink:href="../../d7/deb/class_system_info.html#ab01a34f1c172b83ed814c86189078347" target="_top" xlink:title="Get the name of the user which is logged in (like &quot;homer&quot;) ">
<polygon fill="white" stroke="black" points="104.5,-40.5 104.5,-61.5 235.5,-61.5 235.5,-40.5 104.5,-40.5"/>
<text text-anchor="middle" x="170" y="-48.5" font-family="Helvetica,sans-Serif" font-size="10.00">SystemInfo::getUsername</text>
</a>
</g>
<!-- Node1&#45;&gt;Node6 -->
<g id="edge10" class="edge"><title>Node1&#45;&gt;Node6</title>
<path fill="none" stroke="midnightblue" d="M44.8142,-100.35C57.78,-91.4469 77.4004,-78.9608 96,-71 101.486,-68.6518 107.321,-66.5125 113.215,-64.5811"/>
<polygon fill="midnightblue" stroke="midnightblue" points="114.608,-67.8142 123.136,-61.5266 112.549,-61.1241 114.608,-67.8142"/>
</g>
<!-- Node7 -->
<g id="node13" class="node"><title>Node7</title>
<a xlink:href="../../d7/deb/class_system_info.html#a522af149c6385195104ab143e74c3466" target="_top" xlink:title="Get the hostname of the computer (like &quot;homer&#45;workstation&quot;) ">
<polygon fill="white" stroke="black" points="104.5,-0.5 104.5,-21.5 235.5,-21.5 235.5,-0.5 104.5,-0.5"/>
<text text-anchor="middle" x="170" y="-8.5" font-family="Helvetica,sans-Serif" font-size="10.00">SystemInfo::getHostname</text>
</a>
</g>
<!-- Node1&#45;&gt;Node7 -->
<g id="edge12" class="edge"><title>Node1&#45;&gt;Node7</title>
<path fill="none" stroke="midnightblue" d="M35.7912,-100.396C45.7643,-83.1529 67.8496,-49.1422 96,-31 99.1496,-28.9701 102.502,-27.1448 105.973,-25.5037"/>
<polygon fill="midnightblue" stroke="midnightblue" points="107.505,-28.6569 115.386,-21.5755 104.809,-22.1969 107.505,-28.6569"/>
</g>
</g>
</svg>
