<?xml version="1.0" encoding="UTF-8" standalone="no"?>
<!DOCTYPE svg PUBLIC "-//W3C//DTD SVG 1.1//EN"
 "http://www.w3.org/Graphics/SVG/1.1/DTD/svg11.dtd">
<!-- Generated by graphviz version 2.26.3 (20100126.1600)
 -->
<!-- Title: NetClass Pages: 1 -->
<svg width="336pt" height="486pt"
 viewBox="0.00 0.00 336.00 486.00" xmlns="http://www.w3.org/2000/svg" xmlns:xlink="http://www.w3.org/1999/xlink">
<g id="graph1" class="graph" transform="scale(1 1) rotate(0) translate(4 482)">
<title>NetClass</title>
<polygon fill="white" stroke="white" points="-4,5 -4,-482 333,-482 333,5 -4,5"/>
<!-- Node1 -->
<g id="node1" class="node"><title>Node1</title>
<polygon fill="#bfbfbf" stroke="black" points="88.5,-1 88.5,-337 241.5,-337 241.5,-1 88.5,-1"/>
<text text-anchor="middle" x="165" y="-324" font-family="Helvetica,sans-Serif" font-size="10.00">NetClass</text>
<polyline fill="none" stroke="black" points="88.5,-316 241.5,-316 "/>
<text text-anchor="start" x="96.5" y="-303" font-family="Helvetica,sans-Serif" font-size="10.00">&#45; mCircuit</text>
<text text-anchor="start" x="96.5" y="-290" font-family="Helvetica,sans-Serif" font-size="10.00">&#45; mAddedToCircuit</text>
<text text-anchor="start" x="96.5" y="-277" font-family="Helvetica,sans-Serif" font-size="10.00">&#45; mErcMsgUnusedNetClass</text>
<text text-anchor="start" x="96.5" y="-264" font-family="Helvetica,sans-Serif" font-size="10.00">&#45; mNetSignals</text>
<text text-anchor="start" x="96.5" y="-251" font-family="Helvetica,sans-Serif" font-size="10.00">&#45; mUuid</text>
<text text-anchor="start" x="96.5" y="-238" font-family="Helvetica,sans-Serif" font-size="10.00">&#45; mName</text>
<polyline fill="none" stroke="black" points="88.5,-230 241.5,-230 "/>
<text text-anchor="start" x="96.5" y="-217" font-family="Helvetica,sans-Serif" font-size="10.00">+ NetClass()</text>
<text text-anchor="start" x="96.5" y="-204" font-family="Helvetica,sans-Serif" font-size="10.00">+ NetClass()</text>
<text text-anchor="start" x="96.5" y="-191" font-family="Helvetica,sans-Serif" font-size="10.00">+ ~NetClass()</text>
<text text-anchor="start" x="96.5" y="-178" font-family="Helvetica,sans-Serif" font-size="10.00">+ getUuid()</text>
<text text-anchor="start" x="96.5" y="-165" font-family="Helvetica,sans-Serif" font-size="10.00">+ getName()</text>
<text text-anchor="start" x="96.5" y="-152" font-family="Helvetica,sans-Serif" font-size="10.00">+ getNetSignalCount()</text>
<text text-anchor="start" x="96.5" y="-139" font-family="Helvetica,sans-Serif" font-size="10.00">+ setName()</text>
<text text-anchor="start" x="96.5" y="-126" font-family="Helvetica,sans-Serif" font-size="10.00">+ registerNetSignal()</text>
<text text-anchor="start" x="96.5" y="-113" font-family="Helvetica,sans-Serif" font-size="10.00">+ unregisterNetSignal()</text>
<text text-anchor="start" x="96.5" y="-100" font-family="Helvetica,sans-Serif" font-size="10.00">+ addToCircuit()</text>
<text text-anchor="start" x="96.5" y="-87" font-family="Helvetica,sans-Serif" font-size="10.00">+ removeFromCircuit()</text>
<text text-anchor="start" x="96.5" y="-74" font-family="Helvetica,sans-Serif" font-size="10.00">+ serializeToXmlDomElement()</text>
<text text-anchor="start" x="96.5" y="-61" font-family="Helvetica,sans-Serif" font-size="10.00">&#45; NetClass()</text>
<text text-anchor="start" x="96.5" y="-48" font-family="Helvetica,sans-Serif" font-size="10.00">&#45; NetClass()</text>
<text text-anchor="start" x="96.5" y="-35" font-family="Helvetica,sans-Serif" font-size="10.00">&#45; operator=()</text>
<text text-anchor="start" x="96.5" y="-22" font-family="Helvetica,sans-Serif" font-size="10.00">&#45; checkAttributesValidity()</text>
<text text-anchor="start" x="96.5" y="-9" font-family="Helvetica,sans-Serif" font-size="10.00">&#45; updateErcMessages()</text>
</g>
<!-- Node2 -->
<g id="node2" class="node"><title>Node2</title>
<a xlink:href="../../d7/d3c/classproject_1_1_i_f___erc_msg_provider.html" target="_top" xlink:title="The IF_ErcMsgProvider class. ">
<polygon fill="white" stroke="black" points="-0.5,-381.5 -0.5,-470.5 158.5,-470.5 158.5,-381.5 -0.5,-381.5"/>
<text text-anchor="middle" x="79" y="-457.5" font-family="Helvetica,sans-Serif" font-size="10.00">IF_ErcMsgProvider</text>
<polyline fill="none" stroke="black" points="-0.5,-449.5 158.5,-449.5 "/>
<text text-anchor="middle" x="79" y="-436.5" font-family="Helvetica,sans-Serif" font-size="10.00"> </text>
<polyline fill="none" stroke="black" points="-0.5,-428.5 158.5,-428.5 "/>
<text text-anchor="start" x="7.5" y="-415.5" font-family="Helvetica,sans-Serif" font-size="10.00">+ IF_ErcMsgProvider()</text>
<text text-anchor="start" x="7.5" y="-402.5" font-family="Helvetica,sans-Serif" font-size="10.00">+ ~IF_ErcMsgProvider()</text>
<text text-anchor="start" x="7.5" y="-389.5" font-family="Helvetica,sans-Serif" font-size="10.00">+ getErcMsgOwnerClassName()</text>
</a>
</g>
<!-- Node2&#45;&gt;Node1 -->
<g id="edge2" class="edge"><title>Node2&#45;&gt;Node1</title>
<path fill="none" stroke="midnightblue" d="M97.2586,-371.437C100.792,-360.878 104.662,-349.311 108.707,-337.223"/>
<polygon fill="none" stroke="midnightblue" points="93.8344,-370.64 93.9801,-381.234 100.473,-372.862 93.8344,-370.64"/>
</g>
<!-- Node3 -->
<g id="node4" class="node"><title>Node3</title>
<a xlink:href="../../d9/d3d/class_i_f___xml_serializable_object.html" target="_top" xlink:title="The IF_XmlSerializableObject class provides an interface for classes which are serializable/deseriali...">
<polygon fill="white" stroke="black" points="175.5,-375 175.5,-477 328.5,-477 328.5,-375 175.5,-375"/>
<text text-anchor="middle" x="252" y="-464" font-family="Helvetica,sans-Serif" font-size="10.00">IF_XmlSerializableObject</text>
<polyline fill="none" stroke="black" points="175.5,-456 328.5,-456 "/>
<text text-anchor="middle" x="252" y="-443" font-family="Helvetica,sans-Serif" font-size="10.00"> </text>
<polyline fill="none" stroke="black" points="175.5,-435 328.5,-435 "/>
<text text-anchor="start" x="183.5" y="-422" font-family="Helvetica,sans-Serif" font-size="10.00">+ IF_XmlSerializableObject()</text>
<text text-anchor="start" x="183.5" y="-409" font-family="Helvetica,sans-Serif" font-size="10.00">+ ~IF_XmlSerializableObject()</text>
<text text-anchor="start" x="183.5" y="-396" font-family="Helvetica,sans-Serif" font-size="10.00">+ serializeToXmlDomElement()</text>
<text text-anchor="start" x="183.5" y="-383" font-family="Helvetica,sans-Serif" font-size="10.00"># checkAttributesValidity()</text>
</a>
</g>
<!-- Node3&#45;&gt;Node1 -->
<g id="edge4" class="edge"><title>Node3&#45;&gt;Node1</title>
<path fill="none" stroke="midnightblue" d="M231.421,-365.21C228.43,-356.374 225.237,-346.941 221.928,-337.168"/>
<polygon fill="none" stroke="midnightblue" points="228.186,-366.568 234.708,-374.918 234.816,-364.324 228.186,-366.568"/>
</g>
</g>
</svg>
