<?xml version="1.0" encoding="UTF-8" standalone="no"?>
<!DOCTYPE svg PUBLIC "-//W3C//DTD SVG 1.1//EN"
 "http://www.w3.org/Graphics/SVG/1.1/DTD/svg11.dtd">
<!-- Generated by graphviz version 2.26.3 (20100126.1600)
 -->
<!-- Title: serializeToXmlDomElement Pages: 1 -->
<svg width="334pt" height="322pt"
 viewBox="0.00 0.00 334.00 322.00" xmlns="http://www.w3.org/2000/svg" xmlns:xlink="http://www.w3.org/1999/xlink">
<g id="graph1" class="graph" transform="scale(1 1) rotate(0) translate(4 318)">
<title>serializeToXmlDomElement</title>
<polygon fill="white" stroke="white" points="-4,5 -4,-318 331,-318 331,5 -4,5"/>
<!-- Node1 -->
<g id="node1" class="node"><title>Node1</title>
<polygon fill="#bfbfbf" stroke="black" points="0,-152.5 0,-173.5 138,-173.5 138,-152.5 0,-152.5"/>
<text text-anchor="middle" x="69" y="-160.5" font-family="Helvetica,sans-Serif" font-size="10.00">serializeToXmlDomElement</text>
</g>
<!-- Node2 -->
<g id="node3" class="node"><title>Node2</title>
<a xlink:href="../../d1/dd6/classproject_1_1_erc_msg_list.html#a524ed0dd8a5522b754411728dfe5c752" target="_top" xlink:title="Check the validity of all attributes of the object. ">
<polygon fill="white" stroke="black" points="191.5,-292.5 191.5,-313.5 308.5,-313.5 308.5,-292.5 191.5,-292.5"/>
<text text-anchor="middle" x="250" y="-300.5" font-family="Helvetica,sans-Serif" font-size="10.00">checkAttributesValidity</text>
</a>
</g>
<!-- Node1&#45;&gt;Node2 -->
<g id="edge2" class="edge"><title>Node1&#45;&gt;Node2</title>
<path fill="none" stroke="midnightblue" d="M75.1186,-173.529C89.322,-197.001 126.935,-253.842 174,-283 177.362,-285.083 180.936,-286.95 184.633,-288.624"/>
<polygon fill="midnightblue" stroke="midnightblue" points="183.436,-291.915 194.02,-292.401 186.049,-285.421 183.436,-291.915"/>
</g>
<!-- Node3 -->
<g id="node5" class="node"><title>Node3</title>
<a xlink:href="../../d1/d1f/class_xml_dom_element.html#af2ee1b74300d31ca889b32ddd96d51ac" target="_top" xlink:title="Append a child to the end of the child list of this element. ">
<polygon fill="white" stroke="black" points="174.5,-252.5 174.5,-273.5 325.5,-273.5 325.5,-252.5 174.5,-252.5"/>
<text text-anchor="middle" x="250" y="-260.5" font-family="Helvetica,sans-Serif" font-size="10.00">XmlDomElement::appendChild</text>
</a>
</g>
<!-- Node1&#45;&gt;Node3 -->
<g id="edge4" class="edge"><title>Node1&#45;&gt;Node3</title>
<path fill="none" stroke="midnightblue" d="M79.9581,-173.755C98.0329,-190.903 135.901,-224.399 174,-243 178.828,-245.357 183.968,-247.462 189.211,-249.337"/>
<polygon fill="midnightblue" stroke="midnightblue" points="188.12,-252.663 198.713,-252.468 190.311,-246.014 188.12,-252.663"/>
</g>
<!-- Node4 -->
<g id="node7" class="node"><title>Node4</title>
<a xlink:href="../../dc/d67/classproject_1_1_erc_msg.html#afc260e01381f9c91d58aede69b7d980d" target="_top" xlink:title="project::ErcMsg::isIgnored">
<polygon fill="white" stroke="black" points="184.5,-212.5 184.5,-233.5 315.5,-233.5 315.5,-212.5 184.5,-212.5"/>
<text text-anchor="middle" x="250" y="-220.5" font-family="Helvetica,sans-Serif" font-size="10.00">project::ErcMsg::isIgnored</text>
</a>
</g>
<!-- Node1&#45;&gt;Node4 -->
<g id="edge6" class="edge"><title>Node1&#45;&gt;Node4</title>
<path fill="none" stroke="midnightblue" d="M94.6183,-173.639C115.712,-182.185 146.511,-194.175 174,-203 181.399,-205.375 189.267,-207.684 197.029,-209.837"/>
<polygon fill="midnightblue" stroke="midnightblue" points="196.195,-213.237 206.762,-212.476 198.026,-206.481 196.195,-213.237"/>
</g>
<!-- Node5 -->
<g id="node9" class="node"><title>Node5</title>
<a xlink:href="../../d1/d1f/class_xml_dom_element.html#a7dbc10bec6de11bf7a444b8bf048f296" target="_top" xlink:title="Set or add an attribute to this element. ">
<polygon fill="white" stroke="black" points="176.5,-172.5 176.5,-193.5 323.5,-193.5 323.5,-172.5 176.5,-172.5"/>
<text text-anchor="middle" x="250" y="-180.5" font-family="Helvetica,sans-Serif" font-size="10.00">XmlDomElement::setAttribute</text>
</a>
</g>
<!-- Node1&#45;&gt;Node5 -->
<g id="edge8" class="edge"><title>Node1&#45;&gt;Node5</title>
<path fill="none" stroke="midnightblue" d="M138.203,-170.647C147.364,-171.659 156.834,-172.705 166.208,-173.741"/>
<polygon fill="midnightblue" stroke="midnightblue" points="165.998,-177.239 176.322,-174.859 166.767,-170.282 165.998,-177.239"/>
</g>
<!-- Node6 -->
<g id="node11" class="node"><title>Node6</title>
<a xlink:href="../../dc/d67/classproject_1_1_erc_msg.html#ae397d38221e5dc7aed6e563829750367" target="_top" xlink:title="project::ErcMsg::getOwner">
<polygon fill="white" stroke="black" points="183,-132.5 183,-153.5 317,-153.5 317,-132.5 183,-132.5"/>
<text text-anchor="middle" x="250" y="-140.5" font-family="Helvetica,sans-Serif" font-size="10.00">project::ErcMsg::getOwner</text>
</a>
</g>
<!-- Node1&#45;&gt;Node6 -->
<g id="edge10" class="edge"><title>Node1&#45;&gt;Node6</title>
<path fill="none" stroke="midnightblue" d="M138.203,-155.353C149.55,-154.099 161.37,-152.793 172.894,-151.52"/>
<polygon fill="midnightblue" stroke="midnightblue" points="173.37,-154.989 182.925,-150.412 172.601,-148.031 173.37,-154.989"/>
</g>
<!-- Node7 -->
<g id="node13" class="node"><title>Node7</title>
<a xlink:href="../../d7/d3c/classproject_1_1_i_f___erc_msg_provider.html#a57d33ba67895488b2b30dd1abe2ebc13" target="_top" xlink:title="project::IF_ErcMsgProvider\l::getErcMsgOwnerClassName">
<polygon fill="white" stroke="black" points="175,-80 175,-114 325,-114 325,-80 175,-80"/>
<text text-anchor="start" x="183" y="-101" font-family="Helvetica,sans-Serif" font-size="10.00">project::IF_ErcMsgProvider</text>
<text text-anchor="middle" x="250" y="-88" font-family="Helvetica,sans-Serif" font-size="10.00">::getErcMsgOwnerClassName</text>
</a>
</g>
<!-- Node1&#45;&gt;Node7 -->
<g id="edge12" class="edge"><title>Node1&#45;&gt;Node7</title>
<path fill="none" stroke="midnightblue" d="M96.0991,-152.383C117.246,-144.17 147.399,-132.614 174,-123 179.082,-121.163 184.367,-119.287 189.677,-117.425"/>
<polygon fill="midnightblue" stroke="midnightblue" points="190.93,-120.695 199.223,-114.101 188.628,-114.084 190.93,-120.695"/>
</g>
<!-- Node8 -->
<g id="node15" class="node"><title>Node8</title>
<a xlink:href="../../dc/d67/classproject_1_1_erc_msg.html#a9a65cd645004a1a53ef4293400bdd957" target="_top" xlink:title="project::ErcMsg::getOwnerKey">
<polygon fill="white" stroke="black" points="174.5,-40.5 174.5,-61.5 325.5,-61.5 325.5,-40.5 174.5,-40.5"/>
<text text-anchor="middle" x="250" y="-48.5" font-family="Helvetica,sans-Serif" font-size="10.00">project::ErcMsg::getOwnerKey</text>
</a>
</g>
<!-- Node1&#45;&gt;Node8 -->
<g id="edge14" class="edge"><title>Node1&#45;&gt;Node8</title>
<path fill="none" stroke="midnightblue" d="M77.9638,-152.42C94.792,-133.243 133.121,-92.7214 174,-71 178.221,-68.7573 182.709,-66.7539 187.314,-64.9663"/>
<polygon fill="midnightblue" stroke="midnightblue" points="188.612,-68.2197 196.878,-61.5925 186.284,-61.6184 188.612,-68.2197"/>
</g>
<!-- Node9 -->
<g id="node17" class="node"><title>Node9</title>
<a xlink:href="../../dc/d67/classproject_1_1_erc_msg.html#aa3e6c0eb39bf1418512b0c50a17b0f8f" target="_top" xlink:title="project::ErcMsg::getMsgKey">
<polygon fill="white" stroke="black" points="179.5,-0.5 179.5,-21.5 320.5,-21.5 320.5,-0.5 179.5,-0.5"/>
<text text-anchor="middle" x="250" y="-8.5" font-family="Helvetica,sans-Serif" font-size="10.00">project::ErcMsg::getMsgKey</text>
</a>
</g>
<!-- Node1&#45;&gt;Node9 -->
<g id="edge16" class="edge"><title>Node1&#45;&gt;Node9</title>
<path fill="none" stroke="midnightblue" d="M74.4321,-152.172C87.7253,-126.821 124.46,-63.3211 174,-31 177.096,-28.9801 180.388,-27.1638 183.8,-25.5305"/>
<polygon fill="midnightblue" stroke="midnightblue" points="185.207,-28.7353 193.058,-21.6207 182.484,-22.2868 185.207,-28.7353"/>
</g>
</g>
</svg>
