<?xml version="1.0" encoding="UTF-8" standalone="no"?>
<!DOCTYPE svg PUBLIC "-//W3C//DTD SVG 1.1//EN"
 "http://www.w3.org/Graphics/SVG/1.1/DTD/svg11.dtd">
<!-- Generated by graphviz version 2.26.3 (20100126.1600)
 -->
<!-- Title: serializeToXmlDomElement Pages: 1 -->
<svg width="414pt" height="150pt"
 viewBox="0.00 0.00 414.00 150.00" xmlns="http://www.w3.org/2000/svg" xmlns:xlink="http://www.w3.org/1999/xlink">
<g id="graph1" class="graph" transform="scale(1 1) rotate(0) translate(4 146)">
<title>serializeToXmlDomElement</title>
<polygon fill="white" stroke="white" points="-4,5 -4,-146 411,-146 411,5 -4,5"/>
<!-- Node1 -->
<g id="node1" class="node"><title>Node1</title>
<polygon fill="#bfbfbf" stroke="black" points="0,-60.5 0,-81.5 138,-81.5 138,-60.5 0,-60.5"/>
<text text-anchor="middle" x="69" y="-68.5" font-family="Helvetica,sans-Serif" font-size="10.00">serializeToXmlDomElement</text>
</g>
<!-- Node2 -->
<g id="node3" class="node"><title>Node2</title>
<a xlink:href="../../d8/dbf/class_grid_properties.html#a524ed0dd8a5522b754411728dfe5c752" target="_top" xlink:title="Check the validity of all attributes of the object. ">
<polygon fill="white" stroke="black" points="174.5,-120.5 174.5,-141.5 291.5,-141.5 291.5,-120.5 174.5,-120.5"/>
<text text-anchor="middle" x="233" y="-128.5" font-family="Helvetica,sans-Serif" font-size="10.00">checkAttributesValidity</text>
</a>
</g>
<!-- Node1&#45;&gt;Node2 -->
<g id="edge2" class="edge"><title>Node1&#45;&gt;Node2</title>
<path fill="none" stroke="midnightblue" d="M96.0915,-81.6377C117.234,-89.8625 147.385,-101.423 174,-111 179.607,-113.017 185.533,-115.093 191.381,-117.108"/>
<polygon fill="midnightblue" stroke="midnightblue" points="190.485,-120.5 201.08,-120.421 192.748,-113.876 190.485,-120.5"/>
</g>
<!-- Node3 -->
<g id="node5" class="node"><title>Node3</title>
<a xlink:href="../../d8/dbf/class_grid_properties.html#a3dcdcca43bb6f3330ced039c3afd5f7e" target="_top" xlink:title="typeToString">
<polygon fill="white" stroke="black" points="197,-80.5 197,-101.5 269,-101.5 269,-80.5 197,-80.5"/>
<text text-anchor="middle" x="233" y="-88.5" font-family="Helvetica,sans-Serif" font-size="10.00">typeToString</text>
</a>
</g>
<!-- Node1&#45;&gt;Node3 -->
<g id="edge4" class="edge"><title>Node1&#45;&gt;Node3</title>
<path fill="none" stroke="midnightblue" d="M138.075,-79.4238C154.434,-81.4188 171.497,-83.4997 186.571,-85.3379"/>
<polygon fill="midnightblue" stroke="midnightblue" points="186.305,-88.8314 196.656,-86.5678 187.153,-81.8829 186.305,-88.8314"/>
</g>
<!-- Node4 -->
<g id="node7" class="node"><title>Node4</title>
<a xlink:href="../../df/df0/class_length.html#a5bd5292fcf66a49fad586500fa6038a0" target="_top" xlink:title="Get the length in millimeters as a QString. ">
<polygon fill="white" stroke="black" points="182,-40.5 182,-61.5 284,-61.5 284,-40.5 182,-40.5"/>
<text text-anchor="middle" x="233" y="-48.5" font-family="Helvetica,sans-Serif" font-size="10.00">Length::toMmString</text>
</a>
</g>
<!-- Node1&#45;&gt;Node4 -->
<g id="edge6" class="edge"><title>Node1&#45;&gt;Node4</title>
<path fill="none" stroke="midnightblue" d="M138.075,-62.5762C149.335,-61.203 160.928,-59.7892 171.977,-58.4418"/>
<polygon fill="midnightblue" stroke="midnightblue" points="172.443,-61.9111 181.945,-57.2262 171.595,-54.9626 172.443,-61.9111"/>
</g>
<!-- Node6 -->
<g id="node11" class="node"><title>Node6</title>
<a xlink:href="../../dd/d55/class_length_unit.html#a3a7fb28174c7ae0928bc6fc4133303d0" target="_top" xlink:title="Convert the length unit to a string (for example to save it in files) ">
<polygon fill="white" stroke="black" points="181,-0.5 181,-21.5 285,-21.5 285,-0.5 181,-0.5"/>
<text text-anchor="middle" x="233" y="-8.5" font-family="Helvetica,sans-Serif" font-size="10.00">LengthUnit::toString</text>
</a>
</g>
<!-- Node1&#45;&gt;Node6 -->
<g id="edge10" class="edge"><title>Node1&#45;&gt;Node6</title>
<path fill="none" stroke="midnightblue" d="M96.0915,-60.3623C117.234,-52.1375 147.385,-40.5767 174,-31 179.607,-28.9825 185.533,-26.9071 191.381,-24.8921"/>
<polygon fill="midnightblue" stroke="midnightblue" points="192.748,-28.1238 201.08,-21.579 190.485,-21.4996 192.748,-28.1238"/>
</g>
<!-- Node5 -->
<g id="node9" class="node"><title>Node5</title>
<a xlink:href="../../df/df0/class_length.html#a69ee36729eae0511280f89e3efa240ae" target="_top" xlink:title="Get the length in millimeters. ">
<polygon fill="white" stroke="black" points="328.5,-40.5 328.5,-61.5 405.5,-61.5 405.5,-40.5 328.5,-40.5"/>
<text text-anchor="middle" x="367" y="-48.5" font-family="Helvetica,sans-Serif" font-size="10.00">Length::toMm</text>
</a>
</g>
<!-- Node4&#45;&gt;Node5 -->
<g id="edge8" class="edge"><title>Node4&#45;&gt;Node5</title>
<path fill="none" stroke="midnightblue" d="M284.042,-51C295.14,-51 306.858,-51 317.879,-51"/>
<polygon fill="midnightblue" stroke="midnightblue" points="318.19,-54.5001 328.19,-51 318.19,-47.5001 318.19,-54.5001"/>
</g>
</g>
</svg>
