<?xml version="1.0" encoding="UTF-8" standalone="no"?>
<!DOCTYPE svg PUBLIC "-//W3C//DTD SVG 1.1//EN"
 "http://www.w3.org/Graphics/SVG/1.1/DTD/svg11.dtd">
<!-- Generated by graphviz version 2.26.3 (20100126.1600)
 -->
<!-- Title: parseDomTree Pages: 1 -->
<svg width="266pt" height="94pt"
 viewBox="0.00 0.00 266.00 94.00" xmlns="http://www.w3.org/2000/svg" xmlns:xlink="http://www.w3.org/1999/xlink">
<g id="graph1" class="graph" transform="scale(1 1) rotate(0) translate(4 90)">
<title>parseDomTree</title>
<polygon fill="white" stroke="white" points="-4,5 -4,-90 263,-90 263,5 -4,5"/>
<!-- Node1 -->
<g id="node1" class="node"><title>Node1</title>
<polygon fill="#bfbfbf" stroke="black" points="0.5,-32.5 0.5,-53.5 81.5,-53.5 81.5,-32.5 0.5,-32.5"/>
<text text-anchor="middle" x="41" y="-40.5" font-family="Helvetica,sans-Serif" font-size="10.00">parseDomTree</text>
</g>
<!-- Node2 -->
<g id="node3" class="node"><title>Node2</title>
<a xlink:href="../../da/dc5/classlibrary_1_1_component_category.html#ad6c2bb438fe200b1224b2d8e05d3eca0" target="_top" xlink:title="library::ComponentCategory\l::parseDomTree">
<polygon fill="white" stroke="black" points="118.5,-52 118.5,-86 257.5,-86 257.5,-52 118.5,-52"/>
<text text-anchor="start" x="126.5" y="-73" font-family="Helvetica,sans-Serif" font-size="10.00">library::ComponentCategory</text>
<text text-anchor="middle" x="188" y="-60" font-family="Helvetica,sans-Serif" font-size="10.00">::parseDomTree</text>
</a>
</g>
<!-- Node1&#45;&gt;Node2 -->
<g id="edge2" class="edge"><title>Node1&#45;&gt;Node2</title>
<path fill="none" stroke="midnightblue" d="M91.4487,-51.9229C100.087,-53.4508 109.199,-55.0624 118.235,-56.6606"/>
<polygon fill="midnightblue" stroke="midnightblue" points="92.0143,-48.4687 81.5575,-50.1734 90.7951,-55.3617 92.0143,-48.4687"/>
</g>
<!-- Node3 -->
<g id="node5" class="node"><title>Node3</title>
<a xlink:href="../../df/d5f/classlibrary_1_1_package_category.html#ad6c2bb438fe200b1224b2d8e05d3eca0" target="_top" xlink:title="library::PackageCategory\l::parseDomTree">
<polygon fill="white" stroke="black" points="124.5,-0 124.5,-34 251.5,-34 251.5,-0 124.5,-0"/>
<text text-anchor="start" x="132.5" y="-21" font-family="Helvetica,sans-Serif" font-size="10.00">library::PackageCategory</text>
<text text-anchor="middle" x="188" y="-8" font-family="Helvetica,sans-Serif" font-size="10.00">::parseDomTree</text>
</a>
</g>
<!-- Node1&#45;&gt;Node3 -->
<g id="edge4" class="edge"><title>Node1&#45;&gt;Node3</title>
<path fill="none" stroke="midnightblue" d="M91.4739,-34.0726C102.079,-32.197 113.395,-30.1955 124.409,-28.2474"/>
<polygon fill="midnightblue" stroke="midnightblue" points="90.7951,-30.6383 81.5575,-35.8266 92.0143,-37.5313 90.7951,-30.6383"/>
</g>
</g>
</svg>
