<?xml version="1.0" encoding="UTF-8" standalone="no"?>
<!DOCTYPE svg PUBLIC "-//W3C//DTD SVG 1.1//EN"
 "http://www.w3.org/Graphics/SVG/1.1/DTD/svg11.dtd">
<!-- Generated by graphviz version 2.26.3 (20100126.1600)
 -->
<!-- Title: /home/travis/build/LibrePCB/LibrePCB/libs/librepcbproject/schematics/graphicsitems/sgi_base.cpp Pages: 1 -->
<svg width="726pt" height="532pt"
 viewBox="0.00 0.00 726.00 532.00" xmlns="http://www.w3.org/2000/svg" xmlns:xlink="http://www.w3.org/1999/xlink">
<g id="graph1" class="graph" transform="scale(1 1) rotate(0) translate(4 528)">
<title>/home/travis/build/LibrePCB/LibrePCB/libs/librepcbproject/schematics/graphicsitems/sgi_base.cpp</title>
<polygon fill="white" stroke="white" points="-4,5 -4,-528 723,-528 723,5 -4,5"/>
<!-- Node1 -->
<g id="node1" class="node"><title>Node1</title>
<polygon fill="#bfbfbf" stroke="black" points="188.5,-463 188.5,-523 329.5,-523 329.5,-463 188.5,-463"/>
<text text-anchor="start" x="196.5" y="-510" font-family="Helvetica,sans-Serif" font-size="10.00">/home/travis/build</text>
<text text-anchor="start" x="196.5" y="-497" font-family="Helvetica,sans-Serif" font-size="10.00">/LibrePCB/LibrePCB/libs</text>
<text text-anchor="start" x="196.5" y="-484" font-family="Helvetica,sans-Serif" font-size="10.00">/librepcbproject/schematics</text>
<text text-anchor="middle" x="259" y="-471" font-family="Helvetica,sans-Serif" font-size="10.00">/graphicsitems/sgi_base.cpp</text>
</g>
<!-- Node2 -->
<g id="node3" class="node"><title>Node2</title>
<polygon fill="white" stroke="#bfbfbf" points="226,-0.5 226,-21.5 274,-21.5 274,-0.5 226,-0.5"/>
<text text-anchor="middle" x="250" y="-8.5" font-family="Helvetica,sans-Serif" font-size="10.00">QtCore</text>
</g>
<!-- Node1&#45;&gt;Node2 -->
<g id="edge2" class="edge"><title>Node1&#45;&gt;Node2</title>
<path fill="none" stroke="midnightblue" d="M188.227,-484.514C111.542,-470.91 0,-436.291 0,-350 0,-350 0,-350 0,-141 0,-45.1098 146.566,-19.8475 215.253,-13.2735"/>
<polygon fill="midnightblue" stroke="midnightblue" points="215.917,-16.7289 225.574,-12.3709 215.307,-9.75547 215.917,-16.7289"/>
</g>
<!-- Node3 -->
<g id="node5" class="node"><title>Node3</title>
<a xlink:href="../../d4/d91/sgi__base_8h.html" target="_top" xlink:title="sgi_base.h">
<polygon fill="white" stroke="black" points="487,-404.5 487,-425.5 551,-425.5 551,-404.5 487,-404.5"/>
<text text-anchor="middle" x="519" y="-412.5" font-family="Helvetica,sans-Serif" font-size="10.00">sgi_base.h</text>
</a>
</g>
<!-- Node1&#45;&gt;Node3 -->
<g id="edge4" class="edge"><title>Node1&#45;&gt;Node3</title>
<path fill="none" stroke="midnightblue" d="M329.703,-471.789C376.974,-457.608 437.558,-439.433 477.287,-427.514"/>
<polygon fill="midnightblue" stroke="midnightblue" points="478.345,-430.851 486.918,-424.625 476.334,-424.146 478.345,-430.851"/>
</g>
<!-- Node3&#45;&gt;Node2 -->
<g id="edge6" class="edge"><title>Node3&#45;&gt;Node2</title>
<path fill="none" stroke="midnightblue" d="M551.257,-409.365C593.551,-401.392 664.652,-385.793 684,-368 715.474,-339.056 718,-320.759 718,-278 718,-278 718,-278 718,-141 718,-81.1648 667.188,-81.1193 612,-58 553.172,-33.3561 363.062,-18.4096 284.481,-13.1461"/>
<polygon fill="midnightblue" stroke="midnightblue" points="284.367,-9.63112 274.159,-12.4677 283.908,-16.616 284.367,-9.63112"/>
</g>
<!-- Node4 -->
<g id="node8" class="node"><title>Node4</title>
<polygon fill="white" stroke="#bfbfbf" points="511.5,-267.5 511.5,-288.5 574.5,-288.5 574.5,-267.5 511.5,-267.5"/>
<text text-anchor="middle" x="543" y="-275.5" font-family="Helvetica,sans-Serif" font-size="10.00">QtWidgets</text>
</g>
<!-- Node3&#45;&gt;Node4 -->
<g id="edge8" class="edge"><title>Node3&#45;&gt;Node4</title>
<path fill="none" stroke="midnightblue" d="M520.883,-404.25C524.861,-381.541 534.18,-328.348 539.362,-298.768"/>
<polygon fill="midnightblue" stroke="midnightblue" points="542.847,-299.154 541.126,-288.7 535.952,-297.946 542.847,-299.154"/>
</g>
<!-- Node5 -->
<g id="node10" class="node"><title>Node5</title>
<a xlink:href="../../de/dd6/graphicsitem_8h.html" target="_top" xlink:title="librepcbcommon/graphics\l/graphicsitem.h">
<polygon fill="white" stroke="black" points="547,-333 547,-367 675,-367 675,-333 547,-333"/>
<text text-anchor="start" x="555" y="-354" font-family="Helvetica,sans-Serif" font-size="10.00">librepcbcommon/graphics</text>
<text text-anchor="middle" x="611" y="-341" font-family="Helvetica,sans-Serif" font-size="10.00">/graphicsitem.h</text>
</a>
</g>
<!-- Node3&#45;&gt;Node5 -->
<g id="edge10" class="edge"><title>Node3&#45;&gt;Node5</title>
<path fill="none" stroke="midnightblue" d="M534.192,-404.267C546.138,-395.827 563.213,-383.762 578.232,-373.151"/>
<polygon fill="midnightblue" stroke="midnightblue" points="580.635,-375.739 586.783,-367.11 576.596,-370.022 580.635,-375.739"/>
</g>
<!-- Node6 -->
<g id="node14" class="node"><title>Node6</title>
<a xlink:href="../../d1/d8d/schematic_8h.html" target="_top" xlink:title="../schematic.h">
<polygon fill="white" stroke="black" points="383.5,-339.5 383.5,-360.5 462.5,-360.5 462.5,-339.5 383.5,-339.5"/>
<text text-anchor="middle" x="423" y="-347.5" font-family="Helvetica,sans-Serif" font-size="10.00">../schematic.h</text>
</a>
</g>
<!-- Node3&#45;&gt;Node6 -->
<g id="edge16" class="edge"><title>Node3&#45;&gt;Node6</title>
<path fill="none" stroke="midnightblue" d="M503.148,-404.267C487.91,-393.949 464.673,-378.216 447.136,-366.342"/>
<polygon fill="midnightblue" stroke="midnightblue" points="448.8,-363.242 438.557,-360.534 444.876,-369.038 448.8,-363.242"/>
</g>
<!-- Node5&#45;&gt;Node2 -->
<g id="edge12" class="edge"><title>Node5&#45;&gt;Node2</title>
<path fill="none" stroke="midnightblue" d="M625.633,-332.655C645.887,-306.819 680,-255.899 680,-206 680,-206 680,-206 680,-141 680,-58.4259 385.788,-23.51 284.092,-13.9076"/>
<polygon fill="midnightblue" stroke="midnightblue" points="284.319,-10.4137 274.04,-12.9822 283.677,-17.3843 284.319,-10.4137"/>
</g>
<!-- Node5&#45;&gt;Node4 -->
<g id="edge14" class="edge"><title>Node5&#45;&gt;Node4</title>
<path fill="none" stroke="midnightblue" d="M594.885,-332.937C584.519,-321.961 571.052,-307.702 560.436,-296.462"/>
<polygon fill="midnightblue" stroke="midnightblue" points="562.706,-293.768 553.295,-288.901 557.617,-298.574 562.706,-293.768"/>
</g>
<!-- Node6&#45;&gt;Node2 -->
<g id="edge18" class="edge"><title>Node6&#45;&gt;Node2</title>
<path fill="none" stroke="midnightblue" d="M425.913,-339.255C432.102,-315.449 446,-256.381 446,-206 446,-206 446,-206 446,-141 446,-103.157 453.293,-85.2168 427,-58 407.377,-37.6877 329.743,-22.9323 284.068,-15.8037"/>
<polygon fill="midnightblue" stroke="midnightblue" points="284.43,-12.3187 274.018,-14.2777 283.379,-19.2394 284.43,-12.3187"/>
</g>
<!-- Node6&#45;&gt;Node4 -->
<g id="edge20" class="edge"><title>Node6&#45;&gt;Node4</title>
<path fill="none" stroke="midnightblue" d="M440.706,-339.376C460.736,-327.359 493.559,-307.665 516.61,-293.834"/>
<polygon fill="midnightblue" stroke="midnightblue" points="518.447,-296.814 525.221,-288.667 514.845,-290.811 518.447,-296.814"/>
</g>
<!-- Node7 -->
<g id="node18" class="node"><title>Node7</title>
<a xlink:href="../../da/d81/if__attributeprovider_8h.html" target="_top" xlink:title="librepcbcommon/if_attributeprovider.h">
<polygon fill="white" stroke="black" points="473.5,-195.5 473.5,-216.5 652.5,-216.5 652.5,-195.5 473.5,-195.5"/>
<text text-anchor="middle" x="563" y="-203.5" font-family="Helvetica,sans-Serif" font-size="10.00">librepcbcommon/if_attributeprovider.h</text>
</a>
</g>
<!-- Node6&#45;&gt;Node7 -->
<g id="edge22" class="edge"><title>Node6&#45;&gt;Node7</title>
<path fill="none" stroke="midnightblue" d="M431.756,-339.402C446.099,-322.217 475.737,-287.432 503,-260 515.682,-247.239 530.733,-233.698 542.588,-223.367"/>
<polygon fill="midnightblue" stroke="midnightblue" points="544.937,-225.963 550.216,-216.777 540.361,-220.666 544.937,-225.963"/>
</g>
<!-- Node8 -->
<g id="node21" class="node"><title>Node8</title>
<a xlink:href="../../d0/d1d/if__xmlserializableobject_8h.html" target="_top" xlink:title="librepcbcommon/fileio\l/if_xmlserializableobject.h">
<polygon fill="white" stroke="black" points="213.5,-189 213.5,-223 342.5,-223 342.5,-189 213.5,-189"/>
<text text-anchor="start" x="221.5" y="-210" font-family="Helvetica,sans-Serif" font-size="10.00">librepcbcommon/fileio</text>
<text text-anchor="middle" x="278" y="-197" font-family="Helvetica,sans-Serif" font-size="10.00">/if_xmlserializableobject.h</text>
</a>
</g>
<!-- Node6&#45;&gt;Node8 -->
<g id="edge26" class="edge"><title>Node6&#45;&gt;Node8</title>
<path fill="none" stroke="midnightblue" d="M408.263,-339.326C394.254,-328.907 372.879,-312.287 356,-296 334.71,-275.457 312.852,-249.762 297.712,-231.092"/>
<polygon fill="midnightblue" stroke="midnightblue" points="300.245,-228.657 291.254,-223.052 294.787,-233.04 300.245,-228.657"/>
</g>
<!-- Node9 -->
<g id="node23" class="node"><title>Node9</title>
<a xlink:href="../../d4/d03/exceptions_8h.html" target="_top" xlink:title="../exceptions.h">
<polygon fill="white" stroke="black" points="209.5,-65.5 209.5,-86.5 290.5,-86.5 290.5,-65.5 209.5,-65.5"/>
<text text-anchor="middle" x="250" y="-73.5" font-family="Helvetica,sans-Serif" font-size="10.00">../exceptions.h</text>
</a>
</g>
<!-- Node6&#45;&gt;Node9 -->
<g id="edge62" class="edge"><title>Node6&#45;&gt;Node9</title>
<path fill="none" stroke="midnightblue" d="M419.528,-339.181C410.614,-312.263 385.199,-240.655 351,-188 327.121,-151.234 291.272,-114.65 269.326,-93.7376"/>
<polygon fill="midnightblue" stroke="midnightblue" points="271.6,-91.0718 261.918,-86.7709 266.805,-96.1712 271.6,-91.0718"/>
</g>
<!-- Node10 -->
<g id="node26" class="node"><title>Node10</title>
<a xlink:href="../../d1/da8/all__length__units_8h.html" target="_top" xlink:title="librepcbcommon/units\l/all_length_units.h">
<polygon fill="white" stroke="black" points="92,-261 92,-295 204,-295 204,-261 92,-261"/>
<text text-anchor="start" x="100" y="-282" font-family="Helvetica,sans-Serif" font-size="10.00">librepcbcommon/units</text>
<text text-anchor="middle" x="148" y="-269" font-family="Helvetica,sans-Serif" font-size="10.00">/all_length_units.h</text>
</a>
</g>
<!-- Node6&#45;&gt;Node10 -->
<g id="edge32" class="edge"><title>Node6&#45;&gt;Node10</title>
<path fill="none" stroke="midnightblue" d="M383.306,-339.607C339.08,-328.028 266.863,-309.121 214.082,-295.301"/>
<polygon fill="midnightblue" stroke="midnightblue" points="214.692,-291.843 204.131,-292.696 212.919,-298.615 214.692,-291.843"/>
</g>
<!-- Node15 -->
<g id="node44" class="node"><title>Node15</title>
<a xlink:href="../../dd/dec/filepath_8h.html" target="_top" xlink:title="librepcbcommon/fileio\l/filepath.h">
<polygon fill="white" stroke="black" points="307.5,-59 307.5,-93 418.5,-93 418.5,-59 307.5,-59"/>
<text text-anchor="start" x="315.5" y="-80" font-family="Helvetica,sans-Serif" font-size="10.00">librepcbcommon/fileio</text>
<text text-anchor="middle" x="363" y="-67" font-family="Helvetica,sans-Serif" font-size="10.00">/filepath.h</text>
</a>
</g>
<!-- Node6&#45;&gt;Node15 -->
<g id="edge58" class="edge"><title>Node6&#45;&gt;Node15</title>
<path fill="none" stroke="midnightblue" d="M421.855,-339.302C418.257,-307.161 406.081,-208.812 384,-130 381.464,-120.95 377.982,-111.312 374.582,-102.722"/>
<polygon fill="midnightblue" stroke="midnightblue" points="377.718,-101.144 370.69,-93.2162 371.24,-103.797 377.718,-101.144"/>
</g>
<!-- Node7&#45;&gt;Node2 -->
<g id="edge24" class="edge"><title>Node7&#45;&gt;Node2</title>
<path fill="none" stroke="midnightblue" d="M558.874,-195.383C547.606,-167.879 513.532,-93.9579 460,-58 431.566,-38.9005 336.124,-23.0485 284.255,-15.5909"/>
<polygon fill="midnightblue" stroke="midnightblue" points="284.582,-12.1025 274.191,-14.1708 283.604,-19.0338 284.582,-12.1025"/>
</g>
<!-- Node8&#45;&gt;Node9 -->
<g id="edge28" class="edge"><title>Node8&#45;&gt;Node9</title>
<path fill="none" stroke="midnightblue" d="M279.22,-188.834C279.883,-173.256 279.765,-149.769 275,-130 272.131,-118.099 266.562,-105.645 261.406,-95.7002"/>
<polygon fill="midnightblue" stroke="midnightblue" points="264.363,-93.8112 256.504,-86.7053 258.216,-97.1609 264.363,-93.8112"/>
</g>
<!-- Node9&#45;&gt;Node2 -->
<g id="edge30" class="edge"><title>Node9&#45;&gt;Node2</title>
<path fill="none" stroke="midnightblue" d="M250,-65.2666C250,-56.1799 250,-42.8919 250,-31.7395"/>
<polygon fill="midnightblue" stroke="midnightblue" points="253.5,-31.5337 250,-21.5337 246.5,-31.5337 253.5,-31.5337"/>
</g>
<!-- Node11 -->
<g id="node28" class="node"><title>Node11</title>
<a xlink:href="../../d0/d09/lengthunit_8h.html" target="_top" xlink:title="lengthunit.h">
<polygon fill="white" stroke="black" points="199.5,-130.5 199.5,-151.5 266.5,-151.5 266.5,-130.5 199.5,-130.5"/>
<text text-anchor="middle" x="233" y="-138.5" font-family="Helvetica,sans-Serif" font-size="10.00">lengthunit.h</text>
</a>
</g>
<!-- Node10&#45;&gt;Node11 -->
<g id="edge34" class="edge"><title>Node10&#45;&gt;Node11</title>
<path fill="none" stroke="midnightblue" d="M158.593,-260.926C174.517,-235.26 204.524,-186.896 221.153,-160.095"/>
<polygon fill="midnightblue" stroke="midnightblue" points="224.134,-161.929 226.432,-151.586 218.186,-158.239 224.134,-161.929"/>
</g>
<!-- Node12 -->
<g id="node32" class="node"><title>Node12</title>
<a xlink:href="../../dd/db9/length_8h.html" target="_top" xlink:title="length.h">
<polygon fill="white" stroke="black" points="131.5,-130.5 131.5,-151.5 182.5,-151.5 182.5,-130.5 131.5,-130.5"/>
<text text-anchor="middle" x="157" y="-138.5" font-family="Helvetica,sans-Serif" font-size="10.00">length.h</text>
</a>
</g>
<!-- Node10&#45;&gt;Node12 -->
<g id="edge40" class="edge"><title>Node10&#45;&gt;Node12</title>
<path fill="none" stroke="midnightblue" d="M149.122,-260.926C150.771,-235.821 153.847,-188.998 155.628,-161.881"/>
<polygon fill="midnightblue" stroke="midnightblue" points="159.141,-161.794 156.305,-151.586 152.156,-161.335 159.141,-161.794"/>
</g>
<!-- Node13 -->
<g id="node36" class="node"><title>Node13</title>
<a xlink:href="../../d2/d91/point_8h.html" target="_top" xlink:title="point.h">
<polygon fill="white" stroke="black" points="74,-195.5 74,-216.5 120,-216.5 120,-195.5 74,-195.5"/>
<text text-anchor="middle" x="97" y="-203.5" font-family="Helvetica,sans-Serif" font-size="10.00">point.h</text>
</a>
</g>
<!-- Node10&#45;&gt;Node13 -->
<g id="edge46" class="edge"><title>Node10&#45;&gt;Node13</title>
<path fill="none" stroke="midnightblue" d="M135.914,-260.937C128.29,-250.174 118.431,-236.255 110.544,-225.12"/>
<polygon fill="midnightblue" stroke="midnightblue" points="113.358,-223.038 104.722,-216.901 107.646,-227.084 113.358,-223.038"/>
</g>
<!-- Node14 -->
<g id="node40" class="node"><title>Node14</title>
<a xlink:href="../../da/dac/angle_8h.html" target="_top" xlink:title="angle.h">
<polygon fill="white" stroke="black" points="66,-130.5 66,-151.5 114,-151.5 114,-130.5 66,-130.5"/>
<text text-anchor="middle" x="90" y="-138.5" font-family="Helvetica,sans-Serif" font-size="10.00">angle.h</text>
</a>
</g>
<!-- Node10&#45;&gt;Node14 -->
<g id="edge52" class="edge"><title>Node10&#45;&gt;Node14</title>
<path fill="none" stroke="midnightblue" d="M105.292,-260.847C89.709,-252.255 73.7702,-240.169 65,-224 53.9814,-203.686 65.1775,-177.877 75.9019,-160.476"/>
<polygon fill="midnightblue" stroke="midnightblue" points="79.0687,-162.032 81.6673,-151.761 73.2306,-158.17 79.0687,-162.032"/>
</g>
<!-- Node11&#45;&gt;Node2 -->
<g id="edge36" class="edge"><title>Node11&#45;&gt;Node2</title>
<path fill="none" stroke="midnightblue" d="M223.016,-130.418C215.325,-121.489 205.302,-107.962 201,-94 196.289,-78.7093 194.723,-72.7175 201,-58 206.079,-46.0915 215.818,-35.7503 225.285,-27.8235"/>
<polygon fill="midnightblue" stroke="midnightblue" points="227.668,-30.4041 233.41,-21.5002 223.368,-24.8799 227.668,-30.4041"/>
</g>
<!-- Node11&#45;&gt;Node9 -->
<g id="edge38" class="edge"><title>Node11&#45;&gt;Node9</title>
<path fill="none" stroke="midnightblue" d="M235.807,-130.267C238.208,-121.085 241.732,-107.615 244.667,-96.3917"/>
<polygon fill="midnightblue" stroke="midnightblue" points="248.101,-97.0939 247.245,-86.5337 241.329,-95.3227 248.101,-97.0939"/>
</g>
<!-- Node12&#45;&gt;Node2 -->
<g id="edge42" class="edge"><title>Node12&#45;&gt;Node2</title>
<path fill="none" stroke="midnightblue" d="M159.817,-130.476C164.626,-113.866 175.619,-81.09 193,-58 201.765,-46.3564 213.978,-35.7897 224.852,-27.6378"/>
<polygon fill="midnightblue" stroke="midnightblue" points="227.116,-30.3211 233.194,-21.6434 223.031,-24.6365 227.116,-30.3211"/>
</g>
<!-- Node12&#45;&gt;Node9 -->
<g id="edge44" class="edge"><title>Node12&#45;&gt;Node9</title>
<path fill="none" stroke="midnightblue" d="M172.357,-130.267C187.119,-119.949 209.629,-104.216 226.618,-92.3421"/>
<polygon fill="midnightblue" stroke="midnightblue" points="228.737,-95.1312 234.929,-86.5337 224.727,-89.3937 228.737,-95.1312"/>
</g>
<!-- Node13&#45;&gt;Node2 -->
<g id="edge48" class="edge"><title>Node13&#45;&gt;Node2</title>
<path fill="none" stroke="midnightblue" d="M84.7805,-195.476C69.6297,-181.075 46.9575,-154.245 57,-130 84.0861,-64.6083 168.335,-32.3695 216.085,-18.9716"/>
<polygon fill="midnightblue" stroke="midnightblue" points="217.217,-22.2917 225.97,-16.321 215.404,-15.5305 217.217,-22.2917"/>
</g>
<!-- Node13&#45;&gt;Node12 -->
<g id="edge50" class="edge"><title>Node13&#45;&gt;Node12</title>
<path fill="none" stroke="midnightblue" d="M106.908,-195.267C115.994,-185.423 129.633,-170.648 140.385,-159"/>
<polygon fill="midnightblue" stroke="midnightblue" points="143.066,-161.256 147.277,-151.534 137.922,-156.508 143.066,-161.256"/>
</g>
<!-- Node14&#45;&gt;Node2 -->
<g id="edge54" class="edge"><title>Node14&#45;&gt;Node2</title>
<path fill="none" stroke="midnightblue" d="M98.5616,-130.406C112.404,-113.7 141.079,-80.7952 170,-58 185.296,-45.944 203.988,-34.7921 219.457,-26.3795"/>
<polygon fill="midnightblue" stroke="midnightblue" points="221.426,-29.2967 228.613,-21.5119 218.14,-23.1159 221.426,-29.2967"/>
</g>
<!-- Node14&#45;&gt;Node9 -->
<g id="edge56" class="edge"><title>Node14&#45;&gt;Node9</title>
<path fill="none" stroke="midnightblue" d="M114.301,-131.128C141.042,-120.264 184.268,-102.704 214.735,-90.3263"/>
<polygon fill="midnightblue" stroke="midnightblue" points="216.195,-93.5113 224.142,-86.5049 213.56,-87.0261 216.195,-93.5113"/>
</g>
<!-- Node15&#45;&gt;Node2 -->
<g id="edge60" class="edge"><title>Node15&#45;&gt;Node2</title>
<path fill="none" stroke="midnightblue" d="M333.311,-58.922C315.986,-48.9566 294.284,-36.4729 277.373,-26.7455"/>
<polygon fill="midnightblue" stroke="midnightblue" points="278.943,-23.6107 268.529,-21.6584 275.452,-29.6785 278.943,-23.6107"/>
</g>
</g>
</svg>
