<?xml version="1.0" encoding="UTF-8" standalone="no"?>
<!DOCTYPE svg PUBLIC "-//W3C//DTD SVG 1.1//EN"
 "http://www.w3.org/Graphics/SVG/1.1/DTD/svg11.dtd">
<!-- Generated by graphviz version 2.26.3 (20100126.1600)
 -->
<!-- Title: /home/travis/build/LibrePCB/LibrePCB/libs/librepcbprojecteditor/boardeditor/fsm Pages: 1 -->
<svg width="194pt" height="369pt"
 viewBox="0.00 0.00 194.25 369.00" xmlns="http://www.w3.org/2000/svg" xmlns:xlink="http://www.w3.org/1999/xlink">
<g id="graph1" class="graph" transform="scale(1 1) rotate(0) translate(4 365)">
<title>/home/travis/build/LibrePCB/LibrePCB/libs/librepcbprojecteditor/boardeditor/fsm</title>
<polygon fill="white" stroke="white" points="-4,5 -4,-365 191.25,-365 191.25,5 -4,5"/>
<g id="graph2" class="cluster"><title>clusterdir_51f83135e64b6697d0b4f8046fd11526</title>
<a xlink:href="dir_51f83135e64b6697d0b4f8046fd11526.html" target="_top" xlink:title="boardeditor">
<polygon fill="#ddddee" stroke="black" points="45.6948,-280 45.6948,-353 115.695,-353 115.695,-280 45.6948,-280"/>
<text text-anchor="middle" x="80.6948" y="-340" font-family="Helvetica,sans-Serif" font-size="10.00">boardeditor</text>
</a>
</g>
<!-- dir_507e9b913fb5d2ca6bf6390421c61ed0 -->
<g id="node2" class="node"><title>dir_507e9b913fb5d2ca6bf6390421c61ed0</title>
<a xlink:href="dir_507e9b913fb5d2ca6bf6390421c61ed0.html" target="_top" xlink:title="fsm">
<polygon fill="#eeeeff" stroke="black" points="107.695,-324 53.6948,-324 53.6948,-288 107.695,-288 107.695,-324"/>
<text text-anchor="middle" x="80.6948" y="-303.5" font-family="Helvetica,sans-Serif" font-size="10.00">fsm</text>
</a>
</g>
<!-- dir_c16b2c78bfcfda89e8740b01cde8ab67 -->
<g id="node3" class="node"><title>dir_c16b2c78bfcfda89e8740b01cde8ab67</title>
<a xlink:href="dir_c16b2c78bfcfda89e8740b01cde8ab67.html" target="_top" xlink:title="librepcbproject">
<polygon fill="white" stroke="red" points="92.6948,-180 12.6948,-180 12.6948,-144 92.6948,-144 92.6948,-180"/>
<text text-anchor="middle" x="52.6948" y="-159.5" font-family="Helvetica,sans-Serif" font-size="10.00">librepcbproject</text>
</a>
</g>
<!-- dir_507e9b913fb5d2ca6bf6390421c61ed0&#45;&gt;dir_c16b2c78bfcfda89e8740b01cde8ab67 -->
<g id="edge7" class="edge"><title>dir_507e9b913fb5d2ca6bf6390421c61ed0&#45;&gt;dir_c16b2c78bfcfda89e8740b01cde8ab67</title>
<path fill="none" stroke="black" d="M73.0768,-287.823C69.0606,-277.496 64.4153,-264.223 61.6948,-252 57.1533,-231.595 54.9014,-208.074 53.7859,-190.196"/>
<polygon fill="black" stroke="black" points="57.2765,-189.926 53.2398,-180.13 50.2868,-190.305 57.2765,-189.926"/>
<a xlink:href="dir_000038_000019.html" target="_top" xlink:title="12">
<text text-anchor="middle" x="60.3062" y="-190.861" font-family="Helvetica,sans-Serif" font-size="10.00">12</text>
</a>
</g>
<!-- dir_55c01538f0a6d4fce22a43840cf48722 -->
<g id="node4" class="node"><title>dir_55c01538f0a6d4fce22a43840cf48722</title>
<a xlink:href="dir_55c01538f0a6d4fce22a43840cf48722.html" target="_top" xlink:title="librepcblibrary">
<polygon fill="white" stroke="red" points="130.695,-108 54.6948,-108 54.6948,-72 130.695,-72 130.695,-108"/>
<text text-anchor="middle" x="92.6948" y="-87.5" font-family="Helvetica,sans-Serif" font-size="10.00">librepcblibrary</text>
</a>
</g>
<!-- dir_507e9b913fb5d2ca6bf6390421c61ed0&#45;&gt;dir_55c01538f0a6d4fce22a43840cf48722 -->
<g id="edge9" class="edge"><title>dir_507e9b913fb5d2ca6bf6390421c61ed0&#45;&gt;dir_55c01538f0a6d4fce22a43840cf48722</title>
<path fill="none" stroke="black" d="M107.909,-299.156C131.022,-291.746 162.751,-277.422 177.695,-252 205.602,-204.525 156.715,-147.045 122.256,-114.891"/>
<polygon fill="black" stroke="black" points="124.479,-112.182 114.725,-108.046 119.771,-117.362 124.479,-112.182"/>
<a xlink:href="dir_000038_000009.html" target="_top" xlink:title="2">
<text text-anchor="middle" x="129.049" y="-109.999" font-family="Helvetica,sans-Serif" font-size="10.00">2</text>
</a>
</g>
<!-- dir_54de9d902354a0845f7f0690122ba168 -->
<g id="node5" class="node"><title>dir_54de9d902354a0845f7f0690122ba168</title>
<a xlink:href="dir_54de9d902354a0845f7f0690122ba168.html" target="_top" xlink:title="librepcbworkspace">
<polygon fill="white" stroke="red" points="168.695,-252 70.6948,-252 70.6948,-216 168.695,-216 168.695,-252"/>
<text text-anchor="middle" x="119.695" y="-231.5" font-family="Helvetica,sans-Serif" font-size="10.00">librepcbworkspace</text>
</a>
</g>
<!-- dir_507e9b913fb5d2ca6bf6390421c61ed0&#45;&gt;dir_54de9d902354a0845f7f0690122ba168 -->
<g id="edge11" class="edge"><title>dir_507e9b913fb5d2ca6bf6390421c61ed0&#45;&gt;dir_54de9d902354a0845f7f0690122ba168</title>
<path fill="none" stroke="black" d="M90.5362,-287.831C94.8906,-279.792 100.105,-270.167 104.912,-261.292"/>
<polygon fill="black" stroke="black" points="108.036,-262.873 109.721,-252.413 101.881,-259.539 108.036,-262.873"/>
<a xlink:href="dir_000038_000043.html" target="_top" xlink:title="1">
<text text-anchor="middle" x="108.82" y="-264.886" font-family="Helvetica,sans-Serif" font-size="10.00">1</text>
</a>
</g>
<!-- dir_2093dc0e773f0ae75a86b05835aba5e8 -->
<g id="node6" class="node"><title>dir_2093dc0e773f0ae75a86b05835aba5e8</title>
<a xlink:href="dir_2093dc0e773f0ae75a86b05835aba5e8.html" target="_top" xlink:title="librepcbcommon">
<polygon fill="white" stroke="red" points="103.695,-36 15.6948,-36 15.6948,-1.77636e-14 103.695,-3.55271e-15 103.695,-36"/>
<text text-anchor="middle" x="59.6948" y="-15.5" font-family="Helvetica,sans-Serif" font-size="10.00">librepcbcommon</text>
</a>
</g>
<!-- dir_507e9b913fb5d2ca6bf6390421c61ed0&#45;&gt;dir_2093dc0e773f0ae75a86b05835aba5e8 -->
<g id="edge13" class="edge"><title>dir_507e9b913fb5d2ca6bf6390421c61ed0&#45;&gt;dir_2093dc0e773f0ae75a86b05835aba5e8</title>
<path fill="none" stroke="black" d="M65.122,-287.915C46.2914,-264.734 15.6378,-222.446 3.69485,-180 -9.93459,-131.56 18.8764,-76.4287 40.0064,-44.582"/>
<polygon fill="black" stroke="black" points="42.9558,-46.4697 45.7209,-36.242 37.1813,-42.5131 42.9558,-46.4697"/>
<a xlink:href="dir_000038_000003.html" target="_top" xlink:title="4">
<text text-anchor="middle" x="43.2663" y="-48.5398" font-family="Helvetica,sans-Serif" font-size="10.00">4</text>
</a>
</g>
<!-- dir_c16b2c78bfcfda89e8740b01cde8ab67&#45;&gt;dir_55c01538f0a6d4fce22a43840cf48722 -->
<g id="edge3" class="edge"><title>dir_c16b2c78bfcfda89e8740b01cde8ab67&#45;&gt;dir_55c01538f0a6d4fce22a43840cf48722</title>
<path fill="none" stroke="black" d="M62.7885,-143.831C67.2546,-135.792 72.6023,-126.167 77.5327,-117.292"/>
<polygon fill="black" stroke="black" points="80.6683,-118.855 82.4653,-108.413 74.5492,-115.455 80.6683,-118.855"/>
<a xlink:href="dir_000019_000009.html" target="_top" xlink:title="32">
<text text-anchor="middle" x="81.4046" y="-120.876" font-family="Helvetica,sans-Serif" font-size="10.00">32</text>
</a>
</g>
<!-- dir_c16b2c78bfcfda89e8740b01cde8ab67&#45;&gt;dir_2093dc0e773f0ae75a86b05835aba5e8 -->
<g id="edge5" class="edge"><title>dir_c16b2c78bfcfda89e8740b01cde8ab67&#45;&gt;dir_2093dc0e773f0ae75a86b05835aba5e8</title>
<path fill="none" stroke="black" d="M49.0838,-143.675C46.0064,-125.45 42.5427,-96.7186 45.6948,-72 46.7802,-63.4887 48.7911,-54.4011 50.9568,-46.1555"/>
<polygon fill="black" stroke="black" points="54.3993,-46.8414 53.725,-36.2681 47.6585,-44.9542 54.3993,-46.8414"/>
<a xlink:href="dir_000019_000003.html" target="_top" xlink:title="191">
<text text-anchor="middle" x="56.1644" y="-48.5684" font-family="Helvetica,sans-Serif" font-size="10.00">191</text>
</a>
</g>
<!-- dir_55c01538f0a6d4fce22a43840cf48722&#45;&gt;dir_2093dc0e773f0ae75a86b05835aba5e8 -->
<g id="edge15" class="edge"><title>dir_55c01538f0a6d4fce22a43840cf48722&#45;&gt;dir_2093dc0e773f0ae75a86b05835aba5e8</title>
<path fill="none" stroke="black" d="M84.3676,-71.8314C80.7218,-63.8771 76.364,-54.369 72.3321,-45.5723"/>
<polygon fill="black" stroke="black" points="75.4826,-44.0456 68.1343,-36.4133 69.1191,-46.9622 75.4826,-44.0456"/>
<a xlink:href="dir_000009_000003.html" target="_top" xlink:title="66">
<text text-anchor="middle" x="79.5613" y="-43.6304" font-family="Helvetica,sans-Serif" font-size="10.00">66</text>
</a>
</g>
<!-- dir_54de9d902354a0845f7f0690122ba168&#45;&gt;dir_c16b2c78bfcfda89e8740b01cde8ab67 -->
<g id="edge17" class="edge"><title>dir_54de9d902354a0845f7f0690122ba168&#45;&gt;dir_c16b2c78bfcfda89e8740b01cde8ab67</title>
<path fill="none" stroke="black" d="M102.788,-215.831C94.9136,-207.369 85.4029,-197.149 76.7935,-187.897"/>
<polygon fill="black" stroke="black" points="79.204,-185.35 69.8294,-180.413 74.0795,-190.118 79.204,-185.35"/>
<a xlink:href="dir_000043_000019.html" target="_top" xlink:title="1">
<text text-anchor="middle" x="83.7313" y="-183.547" font-family="Helvetica,sans-Serif" font-size="10.00">1</text>
</a>
</g>
<!-- dir_54de9d902354a0845f7f0690122ba168&#45;&gt;dir_55c01538f0a6d4fce22a43840cf48722 -->
<g id="edge19" class="edge"><title>dir_54de9d902354a0845f7f0690122ba168&#45;&gt;dir_55c01538f0a6d4fce22a43840cf48722</title>
<path fill="none" stroke="black" d="M116.275,-215.762C111.65,-191.093 103.356,-146.86 97.9398,-117.973"/>
<polygon fill="black" stroke="black" points="101.37,-117.273 96.0867,-108.09 94.4896,-118.563 101.37,-117.273"/>
<a xlink:href="dir_000043_000009.html" target="_top" xlink:title="1">
<text text-anchor="middle" x="104.823" y="-117.783" font-family="Helvetica,sans-Serif" font-size="10.00">1</text>
</a>
</g>
<!-- dir_54de9d902354a0845f7f0690122ba168&#45;&gt;dir_2093dc0e773f0ae75a86b05835aba5e8 -->
<g id="edge21" class="edge"><title>dir_54de9d902354a0845f7f0690122ba168&#45;&gt;dir_2093dc0e773f0ae75a86b05835aba5e8</title>
<path fill="none" stroke="black" d="M128.471,-215.74C142.192,-184.36 164.699,-119.045 139.695,-72 133.113,-59.617 122.286,-49.5593 110.691,-41.63"/>
<polygon fill="black" stroke="black" points="112.484,-38.6225 102.163,-36.2295 108.739,-44.5365 112.484,-38.6225"/>
<a xlink:href="dir_000043_000003.html" target="_top" xlink:title="12">
<text text-anchor="middle" x="117.04" y="-35.6468" font-family="Helvetica,sans-Serif" font-size="10.00">12</text>
</a>
</g>
</g>
</svg>
