<?xml version="1.0" encoding="UTF-8" standalone="no"?>
<!DOCTYPE svg PUBLIC "-//W3C//DTD SVG 1.1//EN"
 "http://www.w3.org/Graphics/SVG/1.1/DTD/svg11.dtd">
<!-- Generated by graphviz version 2.26.3 (20100126.1600)
 -->
<!-- Title: /home/travis/build/LibrePCB/LibrePCB/libs/librepcblibrary/pkg/package.h Pages: 1 -->
<svg width="874pt" height="252pt"
 viewBox="0.00 0.00 874.00 252.00" xmlns="http://www.w3.org/2000/svg" xmlns:xlink="http://www.w3.org/1999/xlink">
<g id="graph1" class="graph" transform="scale(1 1) rotate(0) translate(4 248)">
<title>/home/travis/build/LibrePCB/LibrePCB/libs/librepcblibrary/pkg/package.h</title>
<polygon fill="white" stroke="white" points="-4,5 -4,-248 871,-248 871,5 -4,5"/>
<!-- Node1 -->
<g id="node1" class="node"><title>Node1</title>
<polygon fill="#bfbfbf" stroke="black" points="431,-196.5 431,-243.5 577,-243.5 577,-196.5 431,-196.5"/>
<text text-anchor="start" x="439" y="-230.5" font-family="Helvetica,sans-Serif" font-size="10.00">/home/travis/build</text>
<text text-anchor="start" x="439" y="-217.5" font-family="Helvetica,sans-Serif" font-size="10.00">/LibrePCB/LibrePCB/libs</text>
<text text-anchor="middle" x="504" y="-204.5" font-family="Helvetica,sans-Serif" font-size="10.00">/librepcblibrary/pkg/package.h</text>
</g>
<!-- Node2 -->
<g id="node3" class="node"><title>Node2</title>
<a xlink:href="../../de/d98/elements_8h.html" target="_top" xlink:title="/home/travis/build\l/LibrePCB/LibrePCB/libs\l/librepcblibrary/elements.h">
<polygon fill="white" stroke="black" points="131.5,-105.5 131.5,-152.5 262.5,-152.5 262.5,-105.5 131.5,-105.5"/>
<text text-anchor="start" x="139.5" y="-139.5" font-family="Helvetica,sans-Serif" font-size="10.00">/home/travis/build</text>
<text text-anchor="start" x="139.5" y="-126.5" font-family="Helvetica,sans-Serif" font-size="10.00">/LibrePCB/LibrePCB/libs</text>
<text text-anchor="middle" x="197" y="-113.5" font-family="Helvetica,sans-Serif" font-size="10.00">/librepcblibrary/elements.h</text>
</a>
</g>
<!-- Node1&#45;&gt;Node2 -->
<g id="edge2" class="edge"><title>Node1&#45;&gt;Node2</title>
<path fill="none" stroke="midnightblue" d="M420.817,-201.67C375.977,-191.018 319.956,-176.461 271,-160 264.399,-157.78 257.553,-155.245 250.811,-152.602"/>
<polygon fill="midnightblue" stroke="midnightblue" points="420.255,-205.134 430.791,-204.019 421.86,-198.32 420.255,-205.134"/>
</g>
<!-- Node5 -->
<g id="node9" class="node"><title>Node5</title>
<a xlink:href="../../d7/d7d/library_8cpp.html" target="_top" xlink:title="/home/travis/build\l/LibrePCB/LibrePCB/libs\l/librepcblibrary/library.cpp">
<polygon fill="white" stroke="black" points="280,-105.5 280,-152.5 408,-152.5 408,-105.5 280,-105.5"/>
<text text-anchor="start" x="288" y="-139.5" font-family="Helvetica,sans-Serif" font-size="10.00">/home/travis/build</text>
<text text-anchor="start" x="288" y="-126.5" font-family="Helvetica,sans-Serif" font-size="10.00">/LibrePCB/LibrePCB/libs</text>
<text text-anchor="middle" x="344" y="-113.5" font-family="Helvetica,sans-Serif" font-size="10.00">/librepcblibrary/library.cpp</text>
</a>
</g>
<!-- Node1&#45;&gt;Node5 -->
<g id="edge8" class="edge"><title>Node1&#45;&gt;Node5</title>
<path fill="none" stroke="midnightblue" d="M453.53,-191.295C431.595,-178.82 406.215,-164.385 385.412,-152.553"/>
<polygon fill="midnightblue" stroke="midnightblue" points="451.957,-194.427 462.38,-196.328 455.417,-188.342 451.957,-194.427"/>
</g>
<!-- Node6 -->
<g id="node11" class="node"><title>Node6</title>
<a xlink:href="../../d8/dd9/package_8cpp.html" target="_top" xlink:title="/home/travis/build\l/LibrePCB/LibrePCB/libs\l/librepcblibrary/pkg/package.cpp">
<polygon fill="white" stroke="black" points="425.5,-105.5 425.5,-152.5 582.5,-152.5 582.5,-105.5 425.5,-105.5"/>
<text text-anchor="start" x="433.5" y="-139.5" font-family="Helvetica,sans-Serif" font-size="10.00">/home/travis/build</text>
<text text-anchor="start" x="433.5" y="-126.5" font-family="Helvetica,sans-Serif" font-size="10.00">/LibrePCB/LibrePCB/libs</text>
<text text-anchor="middle" x="504" y="-113.5" font-family="Helvetica,sans-Serif" font-size="10.00">/librepcblibrary/pkg/package.cpp</text>
</a>
</g>
<!-- Node1&#45;&gt;Node6 -->
<g id="edge10" class="edge"><title>Node1&#45;&gt;Node6</title>
<path fill="none" stroke="midnightblue" d="M504,-185.895C504,-174.858 504,-162.866 504,-152.749"/>
<polygon fill="midnightblue" stroke="midnightblue" points="500.5,-186.091 504,-196.091 507.5,-186.091 500.5,-186.091"/>
</g>
<!-- Node7 -->
<g id="node13" class="node"><title>Node7</title>
<a xlink:href="../../de/d33/bi__footprint_8cpp.html" target="_top" xlink:title="/home/travis/build\l/LibrePCB/LibrePCB/libs\l/librepcbproject/boards\l/items/bi_footprint.cpp">
<polygon fill="white" stroke="black" points="599.5,-99 599.5,-159 724.5,-159 724.5,-99 599.5,-99"/>
<text text-anchor="start" x="607.5" y="-146" font-family="Helvetica,sans-Serif" font-size="10.00">/home/travis/build</text>
<text text-anchor="start" x="607.5" y="-133" font-family="Helvetica,sans-Serif" font-size="10.00">/LibrePCB/LibrePCB/libs</text>
<text text-anchor="start" x="607.5" y="-120" font-family="Helvetica,sans-Serif" font-size="10.00">/librepcbproject/boards</text>
<text text-anchor="middle" x="662" y="-107" font-family="Helvetica,sans-Serif" font-size="10.00">/items/bi_footprint.cpp</text>
</a>
</g>
<!-- Node1&#45;&gt;Node7 -->
<g id="edge12" class="edge"><title>Node1&#45;&gt;Node7</title>
<path fill="none" stroke="midnightblue" d="M554.146,-191.118C571.88,-180.905 591.862,-169.396 609.765,-159.085"/>
<polygon fill="midnightblue" stroke="midnightblue" points="552.019,-188.305 545.1,-196.328 555.513,-194.37 552.019,-188.305"/>
</g>
<!-- Node8 -->
<g id="node15" class="node"><title>Node8</title>
<a xlink:href="../../d4/d20/projectlibrary_8cpp.html" target="_top" xlink:title="/home/travis/build\l/LibrePCB/LibrePCB/libs\l/librepcbproject/library\l/projectlibrary.cpp">
<polygon fill="white" stroke="black" points="741.5,-99 741.5,-159 866.5,-159 866.5,-99 741.5,-99"/>
<text text-anchor="start" x="749.5" y="-146" font-family="Helvetica,sans-Serif" font-size="10.00">/home/travis/build</text>
<text text-anchor="start" x="749.5" y="-133" font-family="Helvetica,sans-Serif" font-size="10.00">/LibrePCB/LibrePCB/libs</text>
<text text-anchor="start" x="749.5" y="-120" font-family="Helvetica,sans-Serif" font-size="10.00">/librepcbproject/library</text>
<text text-anchor="middle" x="804" y="-107" font-family="Helvetica,sans-Serif" font-size="10.00">/projectlibrary.cpp</text>
</a>
</g>
<!-- Node1&#45;&gt;Node8 -->
<g id="edge14" class="edge"><title>Node1&#45;&gt;Node8</title>
<path fill="none" stroke="midnightblue" d="M586.835,-201.588C630.761,-191.002 685.35,-176.532 733,-160 735.796,-159.03 738.635,-157.998 741.49,-156.921"/>
<polygon fill="midnightblue" stroke="midnightblue" points="585.973,-198.195 577.06,-203.922 587.599,-205.004 585.973,-198.195"/>
</g>
<!-- Node3 -->
<g id="node5" class="node"><title>Node3</title>
<a xlink:href="../../da/d6c/cmdprojectlibraryaddelement_8cpp.html" target="_top" xlink:title="/home/travis/build\l/LibrePCB/LibrePCB/libs\l/librepcbproject/library\l/cmd/cmdprojectlibraryaddelement.cpp">
<polygon fill="white" stroke="black" points="-0.5,-1 -0.5,-61 184.5,-61 184.5,-1 -0.5,-1"/>
<text text-anchor="start" x="7.5" y="-48" font-family="Helvetica,sans-Serif" font-size="10.00">/home/travis/build</text>
<text text-anchor="start" x="7.5" y="-35" font-family="Helvetica,sans-Serif" font-size="10.00">/LibrePCB/LibrePCB/libs</text>
<text text-anchor="start" x="7.5" y="-22" font-family="Helvetica,sans-Serif" font-size="10.00">/librepcbproject/library</text>
<text text-anchor="middle" x="92" y="-9" font-family="Helvetica,sans-Serif" font-size="10.00">/cmd/cmdprojectlibraryaddelement.cpp</text>
</a>
</g>
<!-- Node2&#45;&gt;Node3 -->
<g id="edge4" class="edge"><title>Node2&#45;&gt;Node3</title>
<path fill="none" stroke="midnightblue" d="M163.969,-98.1707C151.325,-86.3699 136.926,-72.9309 124.347,-61.1903"/>
<polygon fill="midnightblue" stroke="midnightblue" points="161.884,-101.012 171.582,-105.277 166.66,-95.895 161.884,-101.012"/>
</g>
<!-- Node4 -->
<g id="node7" class="node"><title>Node4</title>
<a xlink:href="../../de/dd2/unplacedcomponentsdock_8cpp.html" target="_top" xlink:title="/home/travis/build\l/LibrePCB/LibrePCB/libs\l/librepcbprojecteditor\l/boardeditor/unplacedcomponentsdock.cpp">
<polygon fill="white" stroke="black" points="201.5,-1 201.5,-61 404.5,-61 404.5,-1 201.5,-1"/>
<text text-anchor="start" x="209.5" y="-48" font-family="Helvetica,sans-Serif" font-size="10.00">/home/travis/build</text>
<text text-anchor="start" x="209.5" y="-35" font-family="Helvetica,sans-Serif" font-size="10.00">/LibrePCB/LibrePCB/libs</text>
<text text-anchor="start" x="209.5" y="-22" font-family="Helvetica,sans-Serif" font-size="10.00">/librepcbprojecteditor</text>
<text text-anchor="middle" x="303" y="-9" font-family="Helvetica,sans-Serif" font-size="10.00">/boardeditor/unplacedcomponentsdock.cpp</text>
</a>
</g>
<!-- Node2&#45;&gt;Node4 -->
<g id="edge6" class="edge"><title>Node2&#45;&gt;Node4</title>
<path fill="none" stroke="midnightblue" d="M230.346,-98.1707C243.11,-86.3699 257.646,-72.9309 270.345,-61.1903"/>
<polygon fill="midnightblue" stroke="midnightblue" points="227.626,-95.9184 222.66,-105.277 232.378,-101.058 227.626,-95.9184"/>
</g>
</g>
</svg>
