<?xml version="1.0" encoding="UTF-8" standalone="no"?>
<!DOCTYPE svg PUBLIC "-//W3C//DTD SVG 1.1//EN"
 "http://www.w3.org/Graphics/SVG/1.1/DTD/svg11.dtd">
<!-- Generated by graphviz version 2.26.3 (20100126.1600)
 -->
<!-- Title: toNative Pages: 1 -->
<svg width="400pt" height="622pt"
 viewBox="0.00 0.00 400.00 622.00" xmlns="http://www.w3.org/2000/svg" xmlns:xlink="http://www.w3.org/1999/xlink">
<g id="graph1" class="graph" transform="scale(1 1) rotate(0) translate(4 618)">
<title>toNative</title>
<polygon fill="white" stroke="white" points="-4,5 -4,-618 397,-618 397,5 -4,5"/>
<!-- Node1 -->
<g id="node1" class="node"><title>Node1</title>
<polygon fill="#bfbfbf" stroke="black" points="0.5,-308.5 0.5,-329.5 53.5,-329.5 53.5,-308.5 0.5,-308.5"/>
<text text-anchor="middle" x="27" y="-316.5" font-family="Helvetica,sans-Serif" font-size="10.00">toNative</text>
</g>
<!-- Node2 -->
<g id="node3" class="node"><title>Node2</title>
<a xlink:href="../../d1/def/class_control_panel.html#ae12cfb17fef4222f1db5a1b356cddeb4" target="_top" xlink:title="ControlPanel::ControlPanel">
<polygon fill="white" stroke="black" points="96.5,-592.5 96.5,-613.5 231.5,-613.5 231.5,-592.5 96.5,-592.5"/>
<text text-anchor="middle" x="164" y="-600.5" font-family="Helvetica,sans-Serif" font-size="10.00">ControlPanel::ControlPanel</text>
</a>
</g>
<!-- Node1&#45;&gt;Node2 -->
<g id="edge2" class="edge"><title>Node1&#45;&gt;Node2</title>
<path fill="none" stroke="midnightblue" d="M29.2425,-339.904C35.6703,-395.984 55.9173,-547.889 90,-583 93.7078,-586.82 98.0635,-589.934 102.774,-592.47"/>
<polygon fill="midnightblue" stroke="midnightblue" points="32.6968,-339.298 28.1108,-329.747 25.7398,-340.073 32.6968,-339.298"/>
</g>
<!-- Node3 -->
<g id="node5" class="node"><title>Node3</title>
<a xlink:href="../../d1/def/class_control_panel.html#a7a18efb5b56dcbff9f550db0c651e210" target="_top" xlink:title="ControlPanel::on_actionNew\l_Project_triggered">
<polygon fill="white" stroke="black" points="93.5,-540 93.5,-574 234.5,-574 234.5,-540 93.5,-540"/>
<text text-anchor="start" x="101.5" y="-561" font-family="Helvetica,sans-Serif" font-size="10.00">ControlPanel::on_actionNew</text>
<text text-anchor="middle" x="164" y="-548" font-family="Helvetica,sans-Serif" font-size="10.00">_Project_triggered</text>
</a>
</g>
<!-- Node1&#45;&gt;Node3 -->
<g id="edge4" class="edge"><title>Node1&#45;&gt;Node3</title>
<path fill="none" stroke="midnightblue" d="M30.681,-339.697C39.5357,-387.362 63.2823,-502.939 90,-531 93.1926,-534.353 96.8424,-537.274 100.772,-539.819"/>
<polygon fill="midnightblue" stroke="midnightblue" points="34.0812,-338.833 28.8446,-329.623 27.1947,-340.089 34.0812,-338.833"/>
</g>
<!-- Node4 -->
<g id="node7" class="node"><title>Node4</title>
<a xlink:href="../../d1/def/class_control_panel.html#a27d94f62f2537a17c6e2852e00560a19" target="_top" xlink:title="ControlPanel::on_actionOpen\l_Project_triggered">
<polygon fill="white" stroke="black" points="92,-488 92,-522 236,-522 236,-488 92,-488"/>
<text text-anchor="start" x="100" y="-509" font-family="Helvetica,sans-Serif" font-size="10.00">ControlPanel::on_actionOpen</text>
<text text-anchor="middle" x="164" y="-496" font-family="Helvetica,sans-Serif" font-size="10.00">_Project_triggered</text>
</a>
</g>
<!-- Node1&#45;&gt;Node4 -->
<g id="edge6" class="edge"><title>Node1&#45;&gt;Node4</title>
<path fill="none" stroke="midnightblue" d="M29.5877,-339.718C34.8781,-373.485 50.0171,-440.479 90,-479 93.5303,-482.401 97.531,-485.36 101.8,-487.934"/>
<polygon fill="midnightblue" stroke="midnightblue" points="33.0259,-339.035 28.1495,-329.629 26.0959,-340.023 33.0259,-339.035"/>
</g>
<!-- Node5 -->
<g id="node9" class="node"><title>Node5</title>
<a xlink:href="../../df/d0a/main_8cpp.html#a0ddf1224851353fc92bfbff6f499fa97" target="_top" xlink:title="main">
<polygon fill="white" stroke="black" points="145,-448.5 145,-469.5 183,-469.5 183,-448.5 145,-448.5"/>
<text text-anchor="middle" x="164" y="-456.5" font-family="Helvetica,sans-Serif" font-size="10.00">main</text>
</a>
</g>
<!-- Node1&#45;&gt;Node5 -->
<g id="edge8" class="edge"><title>Node1&#45;&gt;Node5</title>
<path fill="none" stroke="midnightblue" d="M32.2934,-339.749C40.2472,-366.679 57.8874,-413.262 90,-439 105.68,-451.568 128.609,-456.268 144.779,-458.009"/>
<polygon fill="midnightblue" stroke="midnightblue" points="35.5911,-338.543 29.5449,-329.843 28.8459,-340.414 35.5911,-338.543"/>
</g>
<!-- Node6 -->
<g id="node11" class="node"><title>Node6</title>
<a xlink:href="../../da/d7d/class_debug.html#abf99ba3cfe818f23590097b74f16b3ef" target="_top" xlink:title="Set the debug level for the log file. ">
<polygon fill="white" stroke="black" points="90,-408.5 90,-429.5 238,-429.5 238,-408.5 90,-408.5"/>
<text text-anchor="middle" x="164" y="-416.5" font-family="Helvetica,sans-Serif" font-size="10.00">Debug::setDebugLevelLogFile</text>
</a>
</g>
<!-- Node1&#45;&gt;Node6 -->
<g id="edge10" class="edge"><title>Node1&#45;&gt;Node6</title>
<path fill="none" stroke="midnightblue" d="M37.4516,-338.543C48.2379,-356.852 66.7444,-383.636 90,-399 95.7739,-402.815 102.255,-405.905 108.919,-408.407"/>
<polygon fill="midnightblue" stroke="midnightblue" points="40.3689,-336.591 32.4014,-329.608 34.2749,-340.035 40.3689,-336.591"/>
</g>
<!-- Node7 -->
<g id="node13" class="node"><title>Node7</title>
<a xlink:href="../../d9/d57/class_file_lock.html#ae51d0a675a61d6f5aae0967c8b23f7f1" target="_top" xlink:title="Get the lock status of the specified file. ">
<polygon fill="white" stroke="black" points="113.5,-368.5 113.5,-389.5 214.5,-389.5 214.5,-368.5 113.5,-368.5"/>
<text text-anchor="middle" x="164" y="-376.5" font-family="Helvetica,sans-Serif" font-size="10.00">FileLock::getStatus</text>
</a>
</g>
<!-- Node1&#45;&gt;Node7 -->
<g id="edge12" class="edge"><title>Node1&#45;&gt;Node7</title>
<path fill="none" stroke="midnightblue" d="M49.0759,-335.343C60.7633,-343.381 75.6382,-352.675 90,-359 98.4038,-362.701 107.653,-365.86 116.682,-368.5"/>
<polygon fill="midnightblue" stroke="midnightblue" points="51.0081,-332.423 40.8211,-329.511 46.969,-338.14 51.0081,-332.423"/>
</g>
<!-- Node8 -->
<g id="node15" class="node"><title>Node8</title>
<a xlink:href="../../d9/d57/class_file_lock.html#aa81aed607133209dade63a226818224d" target="_top" xlink:title="Lock the specified file (create/update the lock file) ">
<polygon fill="white" stroke="black" points="125.5,-328.5 125.5,-349.5 202.5,-349.5 202.5,-328.5 125.5,-328.5"/>
<text text-anchor="middle" x="164" y="-336.5" font-family="Helvetica,sans-Serif" font-size="10.00">FileLock::lock</text>
</a>
</g>
<!-- Node1&#45;&gt;Node8 -->
<g id="edge14" class="edge"><title>Node1&#45;&gt;Node8</title>
<path fill="none" stroke="midnightblue" d="M63.8374,-324.378C82.8803,-327.158 106.109,-330.549 125.401,-333.365"/>
<polygon fill="midnightblue" stroke="midnightblue" points="64.1409,-320.885 53.7402,-322.904 63.1297,-327.812 64.1409,-320.885"/>
</g>
<!-- Node9 -->
<g id="node17" class="node"><title>Node9</title>
<a xlink:href="../../d9/d57/class_file_lock.html#a9278be8203e1c42e2619179882ae4403" target="_top" xlink:title="Unlock the specified file (remove the lock file) ">
<polygon fill="white" stroke="black" points="120,-288.5 120,-309.5 208,-309.5 208,-288.5 120,-288.5"/>
<text text-anchor="middle" x="164" y="-296.5" font-family="Helvetica,sans-Serif" font-size="10.00">FileLock::unlock</text>
</a>
</g>
<!-- Node1&#45;&gt;Node9 -->
<g id="edge16" class="edge"><title>Node1&#45;&gt;Node9</title>
<path fill="none" stroke="midnightblue" d="M63.9626,-313.604C81.1713,-311.092 101.777,-308.084 119.803,-305.452"/>
<polygon fill="midnightblue" stroke="midnightblue" points="63.1297,-310.188 53.7402,-315.096 64.1409,-317.115 63.1297,-310.188"/>
</g>
<!-- Node11 -->
<g id="node21" class="node"><title>Node11</title>
<a xlink:href="../../d1/d7f/class_smart_file.html#aad04c6beb14eb767757a86a5f0d67893" target="_top" xlink:title="Remove the file from the file system. ">
<polygon fill="white" stroke="black" points="107.5,-248.5 107.5,-269.5 220.5,-269.5 220.5,-248.5 107.5,-248.5"/>
<text text-anchor="middle" x="164" y="-256.5" font-family="Helvetica,sans-Serif" font-size="10.00">SmartFile::removeFile</text>
</a>
</g>
<!-- Node1&#45;&gt;Node11 -->
<g id="edge20" class="edge"><title>Node1&#45;&gt;Node11</title>
<path fill="none" stroke="midnightblue" d="M49.0759,-302.657C60.7633,-294.619 75.6382,-285.325 90,-279 98.4038,-275.299 107.653,-272.14 116.682,-269.5"/>
<polygon fill="midnightblue" stroke="midnightblue" points="46.969,-299.86 40.8211,-308.489 51.0081,-305.577 46.969,-299.86"/>
</g>
<!-- Node12 -->
<g id="node23" class="node"><title>Node12</title>
<a xlink:href="../../d1/d7f/class_smart_file.html#a3d8fdc7779d16c086f29129e2fd52dd3" target="_top" xlink:title="Prepare to save the file and return the filepath to the file. ">
<polygon fill="white" stroke="black" points="95.5,-196 95.5,-230 232.5,-230 232.5,-196 95.5,-196"/>
<text text-anchor="start" x="103.5" y="-217" font-family="Helvetica,sans-Serif" font-size="10.00">SmartFile::prepareSaveAnd</text>
<text text-anchor="middle" x="164" y="-204" font-family="Helvetica,sans-Serif" font-size="10.00">ReturnFilePath</text>
</a>
</g>
<!-- Node1&#45;&gt;Node12 -->
<g id="edge22" class="edge"><title>Node1&#45;&gt;Node12</title>
<path fill="none" stroke="midnightblue" d="M38.0402,-299.292C49.0579,-281.271 67.5538,-255.052 90,-239 94.6521,-235.673 99.7695,-232.738 105.074,-230.156"/>
<polygon fill="midnightblue" stroke="midnightblue" points="34.7688,-297.95 32.711,-308.343 40.8009,-301.501 34.7688,-297.95"/>
</g>
<!-- Node13 -->
<g id="node25" class="node"><title>Node13</title>
<a xlink:href="../../d9/d30/classproject_1_1_project_library.html#a66be7fb27dfb9ffcd6333afaff0c8d77" target="_top" xlink:title="project::ProjectLibrary\l::loadElements">
<polygon fill="white" stroke="black" points="108,-144 108,-178 220,-178 220,-144 108,-144"/>
<text text-anchor="start" x="116" y="-165" font-family="Helvetica,sans-Serif" font-size="10.00">project::ProjectLibrary</text>
<text text-anchor="middle" x="164" y="-152" font-family="Helvetica,sans-Serif" font-size="10.00">::loadElements</text>
</a>
</g>
<!-- Node1&#45;&gt;Node13 -->
<g id="edge24" class="edge"><title>Node1&#45;&gt;Node13</title>
<path fill="none" stroke="midnightblue" d="M31.4767,-298.657C38.8316,-269.873 56.1583,-217.388 90,-187 95.2685,-182.269 101.45,-178.387 107.956,-175.205"/>
<polygon fill="midnightblue" stroke="midnightblue" points="28.061,-297.892 29.1325,-308.433 34.868,-299.524 28.061,-297.892"/>
</g>
<!-- Node14 -->
<g id="node27" class="node"><title>Node14</title>
<a xlink:href="../../d2/d05/classproject_1_1_project.html#a4fe4aabef56a1c4920b8c76cd3ab2d2e" target="_top" xlink:title="The destructor will close the whole project (without saving!) ">
<polygon fill="white" stroke="black" points="119.5,-92 119.5,-126 208.5,-126 208.5,-92 119.5,-92"/>
<text text-anchor="start" x="127.5" y="-113" font-family="Helvetica,sans-Serif" font-size="10.00">project::Project::</text>
<text text-anchor="middle" x="164" y="-100" font-family="Helvetica,sans-Serif" font-size="10.00">~Project</text>
</a>
</g>
<!-- Node1&#45;&gt;Node14 -->
<g id="edge26" class="edge"><title>Node1&#45;&gt;Node14</title>
<path fill="none" stroke="midnightblue" d="M28.3761,-297.884C31.9581,-260.1 44.7441,-180.619 90,-135 97.9599,-126.976 108.537,-121.422 119.197,-117.58"/>
<polygon fill="midnightblue" stroke="midnightblue" points="24.8603,-297.936 27.5342,-308.188 31.8371,-298.506 24.8603,-297.936"/>
</g>
<!-- Node15 -->
<g id="node29" class="node"><title>Node15</title>
<a xlink:href="../../db/d9c/class_project_tree_item.html#a00f56d6a4a913066ba13ef012870c6a4" target="_top" xlink:title="ProjectTreeItem::data">
<polygon fill="white" stroke="black" points="108.5,-52.5 108.5,-73.5 219.5,-73.5 219.5,-52.5 108.5,-52.5"/>
<text text-anchor="middle" x="164" y="-60.5" font-family="Helvetica,sans-Serif" font-size="10.00">ProjectTreeItem::data</text>
</a>
</g>
<!-- Node1&#45;&gt;Node15 -->
<g id="edge28" class="edge"><title>Node1&#45;&gt;Node15</title>
<path fill="none" stroke="midnightblue" d="M29.8552,-298.268C37.3822,-246.55 59.3176,-113.778 90,-83 95.1676,-77.8163 101.53,-73.9369 108.336,-71.0405"/>
<polygon fill="midnightblue" stroke="midnightblue" points="26.3756,-297.878 28.4333,-308.272 33.3059,-298.864 26.3756,-297.878"/>
</g>
<!-- Node17 -->
<g id="node33" class="node"><title>Node17</title>
<a xlink:href="../../de/d52/class_workspace_settings.html#a89db108216386abbdb034844da9485c9" target="_top" xlink:title="WorkspaceSettings::\lWorkspaceSettings">
<polygon fill="white" stroke="black" points="110,-0 110,-34 218,-34 218,-0 110,-0"/>
<text text-anchor="start" x="118" y="-21" font-family="Helvetica,sans-Serif" font-size="10.00">WorkspaceSettings::</text>
<text text-anchor="middle" x="164" y="-8" font-family="Helvetica,sans-Serif" font-size="10.00">WorkspaceSettings</text>
</a>
</g>
<!-- Node1&#45;&gt;Node17 -->
<g id="edge32" class="edge"><title>Node1&#45;&gt;Node17</title>
<path fill="none" stroke="midnightblue" d="M29.1269,-298.433C35.4393,-241.125 55.7898,-81.3299 90,-43 95.4404,-36.9045 102.396,-32.238 109.857,-28.6655"/>
<polygon fill="midnightblue" stroke="midnightblue" points="25.6377,-298.146 28.0516,-308.462 32.5978,-298.892 25.6377,-298.146"/>
</g>
<!-- Node10 -->
<g id="node19" class="node"><title>Node10</title>
<a xlink:href="../../d9/d57/class_file_lock.html#a3117dd065c23b2ca26a0fa17cf78f170" target="_top" xlink:title="The destructor (this may also unlock the locked file) ">
<polygon fill="white" stroke="black" points="282,-288.5 282,-309.5 384,-309.5 384,-288.5 282,-288.5"/>
<text text-anchor="middle" x="333" y="-296.5" font-family="Helvetica,sans-Serif" font-size="10.00">FileLock::~FileLock</text>
</a>
</g>
<!-- Node9&#45;&gt;Node10 -->
<g id="edge18" class="edge"><title>Node9&#45;&gt;Node10</title>
<path fill="none" stroke="midnightblue" d="M218.438,-299C238.74,-299 261.704,-299 281.714,-299"/>
<polygon fill="midnightblue" stroke="midnightblue" points="218.403,-295.5 208.403,-299 218.403,-302.5 218.403,-295.5"/>
</g>
<!-- Node16 -->
<g id="node31" class="node"><title>Node16</title>
<a xlink:href="../../db/d76/class_project_tree_model.html#a0d62b2fa860a10b1e59f7b93aa39aa5e" target="_top" xlink:title="ProjectTreeModel::data">
<polygon fill="white" stroke="black" points="274,-52.5 274,-73.5 392,-73.5 392,-52.5 274,-52.5"/>
<text text-anchor="middle" x="333" y="-60.5" font-family="Helvetica,sans-Serif" font-size="10.00">ProjectTreeModel::data</text>
</a>
</g>
<!-- Node15&#45;&gt;Node16 -->
<g id="edge30" class="edge"><title>Node15&#45;&gt;Node16</title>
<path fill="none" stroke="midnightblue" d="M230.129,-63C244.522,-63 259.663,-63 273.77,-63"/>
<polygon fill="midnightblue" stroke="midnightblue" points="229.805,-59.5001 219.805,-63 229.805,-66.5001 229.805,-59.5001"/>
</g>
</g>
</svg>
