<?xml version="1.0" encoding="UTF-8" standalone="no"?>
<!DOCTYPE svg PUBLIC "-//W3C//DTD SVG 1.1//EN"
 "http://www.w3.org/Graphics/SVG/1.1/DTD/svg11.dtd">
<!-- Generated by graphviz version 2.26.3 (20100126.1600)
 -->
<!-- Title: setSelected Pages: 1 -->
<svg width="590pt" height="108pt"
 viewBox="0.00 0.00 590.00 108.00" xmlns="http://www.w3.org/2000/svg" xmlns:xlink="http://www.w3.org/1999/xlink">
<g id="graph1" class="graph" transform="scale(1 1) rotate(0) translate(4 104)">
<title>setSelected</title>
<polygon fill="white" stroke="white" points="-4,5 -4,-104 587,-104 587,5 -4,5"/>
<!-- Node1 -->
<g id="node1" class="node"><title>Node1</title>
<polygon fill="#bfbfbf" stroke="black" points="0,-38.5 0,-59.5 68,-59.5 68,-38.5 0,-38.5"/>
<text text-anchor="middle" x="34" y="-46.5" font-family="Helvetica,sans-Serif" font-size="10.00">setSelected</text>
</g>
<!-- Node2 -->
<g id="node3" class="node"><title>Node2</title>
<a xlink:href="../../d5/d07/classproject_1_1_board.html#a1e81bd3e07987e2b02f760b3d6d75c21" target="_top" xlink:title="project::Board::setSelectionRect">
<polygon fill="white" stroke="black" points="246,-61.5 246,-82.5 404,-82.5 404,-61.5 246,-61.5"/>
<text text-anchor="middle" x="325" y="-69.5" font-family="Helvetica,sans-Serif" font-size="10.00">project::Board::setSelectionRect</text>
</a>
</g>
<!-- Node1&#45;&gt;Node2 -->
<g id="edge2" class="edge"><title>Node1&#45;&gt;Node2</title>
<path fill="none" stroke="midnightblue" d="M78.4074,-52.5099C122.767,-56.016 191.916,-61.4813 245.713,-65.7333"/>
<polygon fill="midnightblue" stroke="midnightblue" points="78.4818,-49.0049 68.2371,-51.706 77.9302,-55.9832 78.4818,-49.0049"/>
</g>
<!-- Node4 -->
<g id="node7" class="node"><title>Node4</title>
<a xlink:href="../../da/d96/classproject_1_1_b_i___footprint.html#ad73a1407a19f935203851d27f9fb3903" target="_top" xlink:title="project::BI_Footprint\l::setSelected">
<polygon fill="white" stroke="black" points="104.5,-10 104.5,-44 209.5,-44 209.5,-10 104.5,-10"/>
<text text-anchor="start" x="112.5" y="-31" font-family="Helvetica,sans-Serif" font-size="10.00">project::BI_Footprint</text>
<text text-anchor="middle" x="157" y="-18" font-family="Helvetica,sans-Serif" font-size="10.00">::setSelected</text>
</a>
</g>
<!-- Node1&#45;&gt;Node4 -->
<g id="edge6" class="edge"><title>Node1&#45;&gt;Node4</title>
<path fill="none" stroke="midnightblue" d="M78.2031,-41.0938C86.5805,-39.5954 95.4239,-38.0136 104.039,-36.4726"/>
<polygon fill="midnightblue" stroke="midnightblue" points="77.4899,-37.6657 68.2624,-42.8718 78.7224,-44.5563 77.4899,-37.6657"/>
</g>
<!-- Node3 -->
<g id="node5" class="node"><title>Node3</title>
<a xlink:href="../../db/dd3/classproject_1_1_b_e_s___select.html#ab12d84cb06f265f00f6130fc5e801000" target="_top" xlink:title="project::BES_Select\l::processSubStateIdleScene\lEvent">
<polygon fill="white" stroke="black" points="440.5,-52.5 440.5,-99.5 581.5,-99.5 581.5,-52.5 440.5,-52.5"/>
<text text-anchor="start" x="448.5" y="-86.5" font-family="Helvetica,sans-Serif" font-size="10.00">project::BES_Select</text>
<text text-anchor="start" x="448.5" y="-73.5" font-family="Helvetica,sans-Serif" font-size="10.00">::processSubStateIdleScene</text>
<text text-anchor="middle" x="511" y="-60.5" font-family="Helvetica,sans-Serif" font-size="10.00">Event</text>
</a>
</g>
<!-- Node2&#45;&gt;Node3 -->
<g id="edge4" class="edge"><title>Node2&#45;&gt;Node3</title>
<path fill="none" stroke="midnightblue" d="M414.385,-73.9223C423.137,-74.1105 431.93,-74.2996 440.457,-74.4829"/>
<polygon fill="midnightblue" stroke="midnightblue" points="414.223,-70.4181 404.15,-73.7022 414.073,-77.4165 414.223,-70.4181"/>
</g>
<!-- Node4&#45;&gt;Node2 -->
<g id="edge8" class="edge"><title>Node4&#45;&gt;Node2</title>
<path fill="none" stroke="midnightblue" d="M219.37,-43.7063C241.531,-49.6423 265.848,-56.1556 285.558,-61.4351"/>
<polygon fill="midnightblue" stroke="midnightblue" points="220.26,-40.3214 209.695,-41.1148 218.449,-47.0831 220.26,-40.3214"/>
</g>
<!-- Node5 -->
<g id="node10" class="node"><title>Node5</title>
<a xlink:href="../../d5/d07/classproject_1_1_board.html#a8dd1dc788ad5d6d55d3833b0a0d31fbe" target="_top" xlink:title="project::Board::clearSelection">
<polygon fill="white" stroke="black" points="252.5,-13.5 252.5,-34.5 397.5,-34.5 397.5,-13.5 252.5,-13.5"/>
<text text-anchor="middle" x="325" y="-21.5" font-family="Helvetica,sans-Serif" font-size="10.00">project::Board::clearSelection</text>
</a>
</g>
<!-- Node4&#45;&gt;Node5 -->
<g id="edge10" class="edge"><title>Node4&#45;&gt;Node5</title>
<path fill="none" stroke="midnightblue" d="M219.753,-25.8794C230.425,-25.6888 241.586,-25.4895 252.485,-25.2949"/>
<polygon fill="midnightblue" stroke="midnightblue" points="219.631,-22.3809 209.695,-26.059 219.756,-29.3798 219.631,-22.3809"/>
</g>
<!-- Node6 -->
<g id="node12" class="node"><title>Node6</title>
<a xlink:href="../../db/dd3/classproject_1_1_b_e_s___select.html#a75183dd285ebb13d41213f4dfe420907" target="_top" xlink:title="project::BES_Select\l::removeSelectedItems">
<polygon fill="white" stroke="black" points="452,-0 452,-34 570,-34 570,-0 452,-0"/>
<text text-anchor="start" x="460" y="-21" font-family="Helvetica,sans-Serif" font-size="10.00">project::BES_Select</text>
<text text-anchor="middle" x="511" y="-8" font-family="Helvetica,sans-Serif" font-size="10.00">::removeSelectedItems</text>
</a>
</g>
<!-- Node5&#45;&gt;Node6 -->
<g id="edge12" class="edge"><title>Node5&#45;&gt;Node6</title>
<path fill="none" stroke="midnightblue" d="M407.891,-20.8804C422.703,-20.323 437.86,-19.7526 451.837,-19.2266"/>
<polygon fill="midnightblue" stroke="midnightblue" points="407.573,-17.3898 397.712,-21.2635 407.836,-24.3849 407.573,-17.3898"/>
</g>
</g>
</svg>
