<?xml version="1.0" encoding="UTF-8" standalone="no"?>
<!DOCTYPE svg PUBLIC "-//W3C//DTD SVG 1.1//EN"
 "http://www.w3.org/Graphics/SVG/1.1/DTD/svg11.dtd">
<!-- Generated by graphviz version 2.26.3 (20100126.1600)
 -->
<!-- Title: canUndoChanged Pages: 1 -->
<svg width="1244pt" height="380pt"
 viewBox="0.00 0.00 1244.00 380.00" xmlns="http://www.w3.org/2000/svg" xmlns:xlink="http://www.w3.org/1999/xlink">
<g id="graph1" class="graph" transform="scale(1 1) rotate(0) translate(4 376)">
<title>canUndoChanged</title>
<polygon fill="white" stroke="white" points="-4,5 -4,-376 1241,-376 1241,5 -4,5"/>
<!-- Node1 -->
<g id="node1" class="node"><title>Node1</title>
<polygon fill="#bfbfbf" stroke="black" points="0.5,-135.5 0.5,-156.5 95.5,-156.5 95.5,-135.5 0.5,-135.5"/>
<text text-anchor="middle" x="48" y="-143.5" font-family="Helvetica,sans-Serif" font-size="10.00">canUndoChanged</text>
</g>
<!-- Node2 -->
<g id="node3" class="node"><title>Node2</title>
<a xlink:href="../../d4/d90/class_undo_stack.html#a82aa679ad2c2cc3c5a2ad82d7564b0b6" target="_top" xlink:title="End the currently active command and keep the changes. ">
<polygon fill="white" stroke="black" points="297.5,-251.5 297.5,-272.5 374.5,-272.5 374.5,-251.5 297.5,-251.5"/>
<text text-anchor="middle" x="336" y="-259.5" font-family="Helvetica,sans-Serif" font-size="10.00">endCommand</text>
</a>
</g>
<!-- Node1&#45;&gt;Node2 -->
<g id="edge2" class="edge"><title>Node1&#45;&gt;Node2</title>
<path fill="none" stroke="midnightblue" d="M68.018,-163.023C84.3169,-176.124 108.41,-193.825 132,-205 186.668,-230.897 255.312,-247.048 297.398,-255.285"/>
<polygon fill="midnightblue" stroke="midnightblue" points="70.2005,-160.286 60.2492,-156.65 65.7608,-165.698 70.2005,-160.286"/>
</g>
<!-- Node13 -->
<g id="node25" class="node"><title>Node13</title>
<a xlink:href="../../d4/d90/class_undo_stack.html#a4569aea2e8254c626ce894aac55866e9" target="_top" xlink:title="End the currently active command and revert the changes. ">
<polygon fill="white" stroke="black" points="132.5,-174.5 132.5,-195.5 215.5,-195.5 215.5,-174.5 132.5,-174.5"/>
<text text-anchor="middle" x="174" y="-182.5" font-family="Helvetica,sans-Serif" font-size="10.00">abortCommand</text>
</a>
</g>
<!-- Node1&#45;&gt;Node13 -->
<g id="edge24" class="edge"><title>Node1&#45;&gt;Node13</title>
<path fill="none" stroke="midnightblue" d="M91.6549,-159.512C107.442,-164.399 125.025,-169.841 139.875,-174.438"/>
<polygon fill="midnightblue" stroke="midnightblue" points="92.6852,-156.167 82.0974,-156.554 90.6154,-162.854 92.6852,-156.167"/>
</g>
<!-- Node14 -->
<g id="node28" class="node"><title>Node14</title>
<a xlink:href="../../d4/d90/class_undo_stack.html#a03bfacfaaba9195e4498375659f43531" target="_top" xlink:title="Clear the whole stack (delete all UndoCommand objects) ">
<polygon fill="white" stroke="black" points="317,-45.5 317,-66.5 355,-66.5 355,-45.5 317,-45.5"/>
<text text-anchor="middle" x="336" y="-53.5" font-family="Helvetica,sans-Serif" font-size="10.00">clear</text>
</a>
</g>
<!-- Node1&#45;&gt;Node14 -->
<g id="edge50" class="edge"><title>Node1&#45;&gt;Node14</title>
<path fill="none" stroke="midnightblue" d="M106.129,-150.846C140.321,-151.033 183.15,-146.441 216,-127 239.877,-112.869 229.022,-91.5498 252,-76 271.492,-62.8091 298.669,-58.2754 316.774,-56.7416"/>
<polygon fill="midnightblue" stroke="midnightblue" points="105.882,-147.341 95.8158,-150.646 105.746,-154.339 105.882,-147.341"/>
</g>
<!-- Node18 -->
<g id="node41" class="node"><title>Node18</title>
<a xlink:href="../../d4/d90/class_undo_stack.html#a0e1e7804a53f6d62efc72c9bdbec8571" target="_top" xlink:title="Undo the last command. ">
<polygon fill="white" stroke="black" points="155,-96.5 155,-117.5 193,-117.5 193,-96.5 155,-96.5"/>
<text text-anchor="middle" x="174" y="-104.5" font-family="Helvetica,sans-Serif" font-size="10.00">undo</text>
</a>
</g>
<!-- Node1&#45;&gt;Node18 -->
<g id="edge46" class="edge"><title>Node1&#45;&gt;Node18</title>
<path fill="none" stroke="midnightblue" d="M91.7058,-132.472C113.216,-125.814 138.048,-118.128 154.76,-112.955"/>
<polygon fill="midnightblue" stroke="midnightblue" points="90.6154,-129.146 82.0974,-135.446 92.6852,-135.833 90.6154,-129.146"/>
</g>
<!-- Node19 -->
<g id="node43" class="node"><title>Node19</title>
<a xlink:href="../../d4/d90/class_undo_stack.html#a93c48d6ed036e1a381be53ac67643284" target="_top" xlink:title="Redo the last undoed command. ">
<polygon fill="white" stroke="black" points="156.5,-56.5 156.5,-77.5 191.5,-77.5 191.5,-56.5 156.5,-56.5"/>
<text text-anchor="middle" x="174" y="-64.5" font-family="Helvetica,sans-Serif" font-size="10.00">redo</text>
</a>
</g>
<!-- Node1&#45;&gt;Node19 -->
<g id="edge48" class="edge"><title>Node1&#45;&gt;Node19</title>
<path fill="none" stroke="midnightblue" d="M69.4694,-129.409C86.0578,-116.968 109.85,-99.9294 132,-87 139.812,-82.44 148.827,-78.0419 156.498,-74.5368"/>
<polygon fill="midnightblue" stroke="midnightblue" points="67.3542,-126.62 61.4983,-135.45 71.5822,-132.199 67.3542,-126.62"/>
</g>
<!-- Node3 -->
<g id="node5" class="node"><title>Node3</title>
<a xlink:href="../../db/dd3/classproject_1_1_b_e_s___select.html#a75183dd285ebb13d41213f4dfe420907" target="_top" xlink:title="project::BES_Select\l::removeSelectedItems">
<polygon fill="white" stroke="black" points="481,-338 481,-372 599,-372 599,-338 481,-338"/>
<text text-anchor="start" x="489" y="-359" font-family="Helvetica,sans-Serif" font-size="10.00">project::BES_Select</text>
<text text-anchor="middle" x="540" y="-346" font-family="Helvetica,sans-Serif" font-size="10.00">::removeSelectedItems</text>
</a>
</g>
<!-- Node2&#45;&gt;Node3 -->
<g id="edge4" class="edge"><title>Node2&#45;&gt;Node3</title>
<path fill="none" stroke="midnightblue" d="M361.25,-278.151C385.005,-292.844 421.921,-314.403 456,-329 463.858,-332.366 472.298,-335.504 480.689,-338.352"/>
<polygon fill="midnightblue" stroke="midnightblue" points="362.857,-275.029 352.523,-272.695 359.147,-280.964 362.857,-275.029"/>
</g>
<!-- Node4 -->
<g id="node7" class="node"><title>Node4</title>
<a xlink:href="../../d3/d8f/classproject_1_1_edit_net_classes_dialog.html#a38d29d574ff2e50d278b577e11300366" target="_top" xlink:title="project::EditNetClassesDialog\l::~EditNetClassesDialog">
<polygon fill="white" stroke="black" points="465.5,-234 465.5,-268 614.5,-268 614.5,-234 465.5,-234"/>
<text text-anchor="start" x="473.5" y="-255" font-family="Helvetica,sans-Serif" font-size="10.00">project::EditNetClassesDialog</text>
<text text-anchor="middle" x="540" y="-242" font-family="Helvetica,sans-Serif" font-size="10.00">::~EditNetClassesDialog</text>
</a>
</g>
<!-- Node2&#45;&gt;Node4 -->
<g id="edge6" class="edge"><title>Node2&#45;&gt;Node4</title>
<path fill="none" stroke="midnightblue" d="M385.139,-259.35C409.173,-258.054 438.618,-256.467 465.356,-255.025"/>
<polygon fill="midnightblue" stroke="midnightblue" points="384.648,-255.872 374.851,-259.905 385.025,-262.861 384.648,-255.872"/>
</g>
<!-- Node5 -->
<g id="node9" class="node"><title>Node5</title>
<a xlink:href="../../dd/db6/classproject_1_1_project_properties_editor_dialog.html#ac5b9ac3ae6ade6886893179b59302ec1" target="_top" xlink:title="project::ProjectProperties\lEditorDialog::applyChanges">
<polygon fill="white" stroke="black" points="471,-182 471,-216 609,-216 609,-182 471,-182"/>
<text text-anchor="start" x="479" y="-203" font-family="Helvetica,sans-Serif" font-size="10.00">project::ProjectProperties</text>
<text text-anchor="middle" x="540" y="-190" font-family="Helvetica,sans-Serif" font-size="10.00">EditorDialog::applyChanges</text>
</a>
</g>
<!-- Node2&#45;&gt;Node5 -->
<g id="edge8" class="edge"><title>Node2&#45;&gt;Node5</title>
<path fill="none" stroke="midnightblue" d="M379.703,-248.504C410.359,-239.036 451.591,-226.303 484.56,-216.121"/>
<polygon fill="midnightblue" stroke="midnightblue" points="378.667,-245.16 370.145,-251.455 380.733,-251.849 378.667,-245.16"/>
</g>
<!-- Node8 -->
<g id="node15" class="node"><title>Node8</title>
<a xlink:href="../../d8/d8b/classproject_1_1_s_e_s___select.html#a75183dd285ebb13d41213f4dfe420907" target="_top" xlink:title="project::SES_Select\l::removeSelectedItems">
<polygon fill="white" stroke="black" points="481,-130 481,-164 599,-164 599,-130 481,-130"/>
<text text-anchor="start" x="489" y="-151" font-family="Helvetica,sans-Serif" font-size="10.00">project::SES_Select</text>
<text text-anchor="middle" x="540" y="-138" font-family="Helvetica,sans-Serif" font-size="10.00">::removeSelectedItems</text>
</a>
</g>
<!-- Node2&#45;&gt;Node8 -->
<g id="edge14" class="edge"><title>Node2&#45;&gt;Node8</title>
<path fill="none" stroke="midnightblue" d="M354.88,-244.78C377.445,-225 417.057,-192.741 456,-173 463.761,-169.066 472.231,-165.594 480.708,-162.575"/>
<polygon fill="midnightblue" stroke="midnightblue" points="352.519,-242.197 347.371,-251.457 357.17,-247.428 352.519,-242.197"/>
</g>
<!-- Node9 -->
<g id="node17" class="node"><title>Node9</title>
<a xlink:href="../../d9/de8/classproject_1_1_symbol_instance_properties_dialog.html#afd1bce071dc634026d41b91abd1498ba" target="_top" xlink:title="project::SymbolInstanceProperties\lDialog::endCmd">
<polygon fill="white" stroke="black" points="456.5,-286 456.5,-320 623.5,-320 623.5,-286 456.5,-286"/>
<text text-anchor="start" x="464.5" y="-307" font-family="Helvetica,sans-Serif" font-size="10.00">project::SymbolInstanceProperties</text>
<text text-anchor="middle" x="540" y="-294" font-family="Helvetica,sans-Serif" font-size="10.00">Dialog::endCmd</text>
</a>
</g>
<!-- Node2&#45;&gt;Node9 -->
<g id="edge16" class="edge"><title>Node2&#45;&gt;Node9</title>
<path fill="none" stroke="midnightblue" d="M384.66,-271.78C406.043,-276.077 431.778,-281.249 456.095,-286.137"/>
<polygon fill="midnightblue" stroke="midnightblue" points="385.345,-268.347 374.851,-269.808 383.965,-275.21 385.345,-268.347"/>
</g>
<!-- Node6 -->
<g id="node11" class="node"><title>Node6</title>
<a xlink:href="../../dd/db6/classproject_1_1_project_properties_editor_dialog.html#aadb9f3b844fb4cf98288cd3c60a3af91" target="_top" xlink:title="project::ProjectProperties\lEditorDialog::accept">
<polygon fill="white" stroke="black" points="680.5,-182 680.5,-216 807.5,-216 807.5,-182 680.5,-182"/>
<text text-anchor="start" x="688.5" y="-203" font-family="Helvetica,sans-Serif" font-size="10.00">project::ProjectProperties</text>
<text text-anchor="middle" x="744" y="-190" font-family="Helvetica,sans-Serif" font-size="10.00">EditorDialog::accept</text>
</a>
</g>
<!-- Node5&#45;&gt;Node6 -->
<g id="edge10" class="edge"><title>Node5&#45;&gt;Node6</title>
<path fill="none" stroke="midnightblue" d="M619.179,-199C639.379,-199 660.838,-199 680.161,-199"/>
<polygon fill="midnightblue" stroke="midnightblue" points="619.065,-195.5 609.065,-199 619.065,-202.5 619.065,-195.5"/>
</g>
<!-- Node7 -->
<g id="node13" class="node"><title>Node7</title>
<a xlink:href="../../dd/db6/classproject_1_1_project_properties_editor_dialog.html#a9e53392568d47bcb31ccbde9917efb0c" target="_top" xlink:title="project::ProjectProperties\lEditorDialog::keyPressEvent">
<polygon fill="white" stroke="black" points="876.5,-182 876.5,-216 1019.5,-216 1019.5,-182 876.5,-182"/>
<text text-anchor="start" x="884.5" y="-203" font-family="Helvetica,sans-Serif" font-size="10.00">project::ProjectProperties</text>
<text text-anchor="middle" x="948" y="-190" font-family="Helvetica,sans-Serif" font-size="10.00">EditorDialog::keyPressEvent</text>
</a>
</g>
<!-- Node6&#45;&gt;Node7 -->
<g id="edge12" class="edge"><title>Node6&#45;&gt;Node7</title>
<path fill="none" stroke="midnightblue" d="M817.818,-199C836.856,-199 857.315,-199 876.246,-199"/>
<polygon fill="midnightblue" stroke="midnightblue" points="817.708,-195.5 807.708,-199 817.708,-202.5 817.708,-195.5"/>
</g>
<!-- Node10 -->
<g id="node19" class="node"><title>Node10</title>
<a xlink:href="../../d9/de8/classproject_1_1_symbol_instance_properties_dialog.html#ac5b9ac3ae6ade6886893179b59302ec1" target="_top" xlink:title="project::SymbolInstanceProperties\lDialog::applyChanges">
<polygon fill="white" stroke="black" points="660.5,-260 660.5,-294 827.5,-294 827.5,-260 660.5,-260"/>
<text text-anchor="start" x="668.5" y="-281" font-family="Helvetica,sans-Serif" font-size="10.00">project::SymbolInstanceProperties</text>
<text text-anchor="middle" x="744" y="-268" font-family="Helvetica,sans-Serif" font-size="10.00">Dialog::applyChanges</text>
</a>
</g>
<!-- Node9&#45;&gt;Node10 -->
<g id="edge18" class="edge"><title>Node9&#45;&gt;Node10</title>
<path fill="none" stroke="midnightblue" d="M633.558,-291.076C642.456,-289.942 651.44,-288.797 660.237,-287.676"/>
<polygon fill="midnightblue" stroke="midnightblue" points="633.04,-287.614 623.563,-292.35 633.926,-294.557 633.04,-287.614"/>
</g>
<!-- Node11 -->
<g id="node21" class="node"><title>Node11</title>
<a xlink:href="../../d9/de8/classproject_1_1_symbol_instance_properties_dialog.html#aadb9f3b844fb4cf98288cd3c60a3af91" target="_top" xlink:title="project::SymbolInstanceProperties\lDialog::accept">
<polygon fill="white" stroke="black" points="864.5,-260 864.5,-294 1031.5,-294 1031.5,-260 864.5,-260"/>
<text text-anchor="start" x="872.5" y="-281" font-family="Helvetica,sans-Serif" font-size="10.00">project::SymbolInstanceProperties</text>
<text text-anchor="middle" x="948" y="-268" font-family="Helvetica,sans-Serif" font-size="10.00">Dialog::accept</text>
</a>
</g>
<!-- Node10&#45;&gt;Node11 -->
<g id="edge20" class="edge"><title>Node10&#45;&gt;Node11</title>
<path fill="none" stroke="midnightblue" d="M837.845,-277C846.649,-277 855.534,-277 864.237,-277"/>
<polygon fill="midnightblue" stroke="midnightblue" points="837.563,-273.5 827.563,-277 837.563,-280.5 837.563,-273.5"/>
</g>
<!-- Node12 -->
<g id="node23" class="node"><title>Node12</title>
<a xlink:href="../../d9/de8/classproject_1_1_symbol_instance_properties_dialog.html#a9e53392568d47bcb31ccbde9917efb0c" target="_top" xlink:title="project::SymbolInstanceProperties\lDialog::keyPressEvent">
<polygon fill="white" stroke="black" points="1068.5,-260 1068.5,-294 1235.5,-294 1235.5,-260 1068.5,-260"/>
<text text-anchor="start" x="1076.5" y="-281" font-family="Helvetica,sans-Serif" font-size="10.00">project::SymbolInstanceProperties</text>
<text text-anchor="middle" x="1152" y="-268" font-family="Helvetica,sans-Serif" font-size="10.00">Dialog::keyPressEvent</text>
</a>
</g>
<!-- Node11&#45;&gt;Node12 -->
<g id="edge22" class="edge"><title>Node11&#45;&gt;Node12</title>
<path fill="none" stroke="midnightblue" d="M1041.84,-277C1050.65,-277 1059.53,-277 1068.24,-277"/>
<polygon fill="midnightblue" stroke="midnightblue" points="1041.56,-273.5 1031.56,-277 1041.56,-280.5 1041.56,-273.5"/>
</g>
<!-- Node13&#45;&gt;Node2 -->
<g id="edge26" class="edge"><title>Node13&#45;&gt;Node2</title>
<path fill="none" stroke="midnightblue" d="M195.228,-201.693C210.355,-212.936 231.554,-227.408 252,-237 266.326,-243.721 282.876,-249.107 297.477,-253.133"/>
<polygon fill="midnightblue" stroke="midnightblue" points="197.156,-198.763 187.074,-195.508 192.926,-204.34 197.156,-198.763"/>
</g>
<!-- Node13&#45;&gt;Node3 -->
<g id="edge34" class="edge"><title>Node13&#45;&gt;Node3</title>
<path fill="none" stroke="midnightblue" d="M184.457,-204.503C197.373,-226.687 221.431,-262.368 252,-282 322.419,-327.225 419.262,-344.447 480.749,-350.996"/>
<polygon fill="midnightblue" stroke="midnightblue" points="187.424,-202.638 179.471,-195.637 181.322,-206.069 187.424,-202.638"/>
</g>
<!-- Node13&#45;&gt;Node4 -->
<g id="edge36" class="edge"><title>Node13&#45;&gt;Node4</title>
<path fill="none" stroke="midnightblue" d="M219.772,-198.208C230.306,-201 241.5,-203.773 252,-206 323.907,-221.251 406.93,-233.682 465.307,-241.584"/>
<polygon fill="midnightblue" stroke="midnightblue" points="220.486,-194.775 209.918,-195.541 218.657,-201.532 220.486,-194.775"/>
</g>
<!-- Node13&#45;&gt;Node5 -->
<g id="edge38" class="edge"><title>Node13&#45;&gt;Node5</title>
<path fill="none" stroke="midnightblue" d="M225.92,-186.986C290.15,-189.443 399.721,-193.634 470.98,-196.36"/>
<polygon fill="midnightblue" stroke="midnightblue" points="225.755,-183.477 215.629,-186.592 225.487,-190.472 225.755,-183.477"/>
</g>
<!-- Node13&#45;&gt;Node8 -->
<g id="edge40" class="edge"><title>Node13&#45;&gt;Node8</title>
<path fill="none" stroke="midnightblue" d="M225.989,-179.602C293.294,-172.614 410.301,-160.466 480.906,-153.135"/>
<polygon fill="midnightblue" stroke="midnightblue" points="225.214,-176.164 215.629,-180.678 225.937,-183.126 225.214,-176.164"/>
</g>
<!-- Node13&#45;&gt;Node14 -->
<g id="edge28" class="edge"><title>Node13&#45;&gt;Node14</title>
<path fill="none" stroke="midnightblue" d="M206.257,-168.785C209.816,-166.162 213.169,-163.231 216,-160 242.764,-129.447 220.929,-102.161 252,-76 270.233,-60.6478 298.221,-56.6508 316.813,-55.8259"/>
<polygon fill="midnightblue" stroke="midnightblue" points="204.196,-165.951 197.729,-174.344 208.018,-171.815 204.196,-165.951"/>
</g>
<!-- Node17 -->
<g id="node38" class="node"><title>Node17</title>
<a xlink:href="../../d9/de8/classproject_1_1_symbol_instance_properties_dialog.html#afc217cc9d5f5bd26ab99f2af1b932668" target="_top" xlink:title="project::SymbolInstanceProperties\lDialog::abortCmd">
<polygon fill="white" stroke="black" points="252.5,-85 252.5,-119 419.5,-119 419.5,-85 252.5,-85"/>
<text text-anchor="start" x="260.5" y="-106" font-family="Helvetica,sans-Serif" font-size="10.00">project::SymbolInstanceProperties</text>
<text text-anchor="middle" x="336" y="-93" font-family="Helvetica,sans-Serif" font-size="10.00">Dialog::abortCmd</text>
</a>
</g>
<!-- Node13&#45;&gt;Node17 -->
<g id="edge42" class="edge"><title>Node13&#45;&gt;Node17</title>
<path fill="none" stroke="midnightblue" d="M201.319,-169.313C206.263,-166.312 211.329,-163.129 216,-160 232.617,-148.869 234.434,-142.563 252,-133 261.557,-127.797 272.168,-123.122 282.542,-119.075"/>
<polygon fill="midnightblue" stroke="midnightblue" points="199.466,-166.343 192.664,-174.465 203.047,-172.358 199.466,-166.343"/>
</g>
<!-- Node15 -->
<g id="node30" class="node"><title>Node15</title>
<a xlink:href="../../d4/d90/class_undo_stack.html#a630bb7c7b154364cfccb2638ab80ff49" target="_top" xlink:title="The destructor (will also call clear()) ">
<polygon fill="white" stroke="black" points="504.5,-0.5 504.5,-21.5 575.5,-21.5 575.5,-0.5 504.5,-0.5"/>
<text text-anchor="middle" x="540" y="-8.5" font-family="Helvetica,sans-Serif" font-size="10.00">~UndoStack</text>
</a>
</g>
<!-- Node14&#45;&gt;Node15 -->
<g id="edge30" class="edge"><title>Node14&#45;&gt;Node15</title>
<path fill="none" stroke="midnightblue" d="M365.25,-49.5477C401.966,-41.4487 464.906,-27.565 504.386,-18.8561"/>
<polygon fill="midnightblue" stroke="midnightblue" points="364.203,-46.1945 355.192,-51.7665 365.711,-53.0302 364.203,-46.1945"/>
</g>
<!-- Node16 -->
<g id="node32" class="node"><title>Node16</title>
<a xlink:href="../../d3/dd6/classproject_1_1_project_editor.html#ae01fee4b95fd8ed359ca04a547055bec" target="_top" xlink:title="The destructor. ">
<polygon fill="white" stroke="black" points="486,-40 486,-74 594,-74 594,-40 486,-40"/>
<text text-anchor="start" x="494" y="-61" font-family="Helvetica,sans-Serif" font-size="10.00">project::ProjectEditor</text>
<text text-anchor="middle" x="540" y="-48" font-family="Helvetica,sans-Serif" font-size="10.00">::~ProjectEditor</text>
</a>
</g>
<!-- Node14&#45;&gt;Node16 -->
<g id="edge32" class="edge"><title>Node14&#45;&gt;Node16</title>
<path fill="none" stroke="midnightblue" d="M365.435,-56.1443C396.769,-56.2979 447.053,-56.5444 485.623,-56.7334"/>
<polygon fill="midnightblue" stroke="midnightblue" points="365.209,-52.6432 355.192,-56.0941 365.175,-59.6432 365.209,-52.6432"/>
</g>
<!-- Node17&#45;&gt;Node10 -->
<g id="edge44" class="edge"><title>Node17&#45;&gt;Node10</title>
<path fill="none" stroke="midnightblue" d="M429.685,-97.3077C501.933,-95.6444 594.369,-98.3944 624,-121 662.888,-150.668 629.439,-186.809 660,-225 671.788,-239.731 688.954,-251.403 704.701,-259.926"/>
<polygon fill="midnightblue" stroke="midnightblue" points="429.538,-93.8102 419.633,-97.57 429.721,-100.808 429.538,-93.8102"/>
</g>
</g>
</svg>
