<?xml version="1.0" encoding="UTF-8" standalone="no"?>
<!DOCTYPE svg PUBLIC "-//W3C//DTD SVG 1.1//EN"
 "http://www.w3.org/Graphics/SVG/1.1/DTD/svg11.dtd">
<!-- Generated by graphviz version 2.26.3 (20100126.1600)
 -->
<!-- Title: canUndo Pages: 1 -->
<svg width="1314pt" height="318pt"
 viewBox="0.00 0.00 1314.00 318.13" xmlns="http://www.w3.org/2000/svg" xmlns:xlink="http://www.w3.org/1999/xlink">
<g id="graph1" class="graph" transform="scale(1 1) rotate(0) translate(4 314.127)">
<title>canUndo</title>
<polygon fill="white" stroke="white" points="-4,5 -4,-314.127 1311,-314.127 1311,5 -4,5"/>
<!-- Node1 -->
<g id="node1" class="node"><title>Node1</title>
<polygon fill="#bfbfbf" stroke="black" points="0,-126.627 0,-147.627 56,-147.627 56,-126.627 0,-126.627"/>
<text text-anchor="middle" x="28" y="-134.627" font-family="Helvetica,sans-Serif" font-size="10.00">canUndo</text>
</g>
<!-- Node2 -->
<g id="node3" class="node"><title>Node2</title>
<a xlink:href="../../d4/d90/class_undo_stack.html#ac45199a5fa405b01e4a81bcd46ca47d2" target="_top" xlink:title="Get the text for the undo action. ">
<polygon fill="white" stroke="black" points="92.5,-126.627 92.5,-147.627 165.5,-147.627 165.5,-126.627 92.5,-126.627"/>
<text text-anchor="middle" x="129" y="-134.627" font-family="Helvetica,sans-Serif" font-size="10.00">getUndoText</text>
</a>
</g>
<!-- Node1&#45;&gt;Node2 -->
<g id="edge2" class="edge"><title>Node1&#45;&gt;Node2</title>
<path fill="none" stroke="midnightblue" d="M66.2428,-137.127C74.7915,-137.127 83.8389,-137.127 92.3224,-137.127"/>
<polygon fill="midnightblue" stroke="midnightblue" points="66.1342,-133.627 56.1341,-137.127 66.1341,-140.627 66.1342,-133.627"/>
</g>
<!-- Node3 -->
<g id="node5" class="node"><title>Node3</title>
<a xlink:href="../../d4/d90/class_undo_stack.html#a4569aea2e8254c626ce894aac55866e9" target="_top" xlink:title="End the currently active command and revert the changes. ">
<polygon fill="white" stroke="black" points="202.5,-159.627 202.5,-180.627 285.5,-180.627 285.5,-159.627 202.5,-159.627"/>
<text text-anchor="middle" x="244" y="-167.627" font-family="Helvetica,sans-Serif" font-size="10.00">abortCommand</text>
</a>
</g>
<!-- Node1&#45;&gt;Node3 -->
<g id="edge48" class="edge"><title>Node1&#45;&gt;Node3</title>
<path fill="none" stroke="midnightblue" d="M65.7324,-150.409C74.2798,-152.999 83.3797,-155.432 92,-157.127 128.903,-164.381 171.634,-167.587 202.373,-169.005"/>
<polygon fill="midnightblue" stroke="midnightblue" points="66.604,-147.014 56.014,-147.332 64.4912,-153.687 66.604,-147.014"/>
</g>
<!-- Node4 -->
<g id="node7" class="node"><title>Node4</title>
<a xlink:href="../../d4/d90/class_undo_stack.html#a82aa679ad2c2cc3c5a2ad82d7564b0b6" target="_top" xlink:title="End the currently active command and keep the changes. ">
<polygon fill="white" stroke="black" points="367.5,-203.627 367.5,-224.627 444.5,-224.627 444.5,-203.627 367.5,-203.627"/>
<text text-anchor="middle" x="406" y="-211.627" font-family="Helvetica,sans-Serif" font-size="10.00">endCommand</text>
</a>
</g>
<!-- Node1&#45;&gt;Node4 -->
<g id="edge46" class="edge"><title>Node1&#45;&gt;Node4</title>
<path fill="none" stroke="midnightblue" d="M50.2693,-153.363C62.1005,-161.187 77.2217,-169.971 92,-175.127 186.917,-208.241 306.587,-213.941 367.118,-214.5"/>
<polygon fill="midnightblue" stroke="midnightblue" points="52.1506,-150.409 41.9233,-147.642 48.193,-156.183 52.1506,-150.409"/>
</g>
<!-- Node18 -->
<g id="node39" class="node"><title>Node18</title>
<a xlink:href="../../d4/d90/class_undo_stack.html#a0e1e7804a53f6d62efc72c9bdbec8571" target="_top" xlink:title="Undo the last command. ">
<polygon fill="white" stroke="black" points="225,-115.627 225,-136.627 263,-136.627 263,-115.627 225,-115.627"/>
<text text-anchor="middle" x="244" y="-123.627" font-family="Helvetica,sans-Serif" font-size="10.00">undo</text>
</a>
</g>
<!-- Node1&#45;&gt;Node18 -->
<g id="edge50" class="edge"><title>Node1&#45;&gt;Node18</title>
<path fill="none" stroke="midnightblue" d="M64.8649,-123.526C73.6387,-120.873 83.0536,-118.492 92,-117.127 139.3,-109.908 195.699,-117.396 224.685,-122.403"/>
<polygon fill="midnightblue" stroke="midnightblue" points="63.7432,-120.21 55.2906,-126.598 65.8818,-126.875 63.7432,-120.21"/>
</g>
<!-- Node19 -->
<g id="node41" class="node"><title>Node19</title>
<a xlink:href="../../d4/d90/class_undo_stack.html#a93c48d6ed036e1a381be53ac67643284" target="_top" xlink:title="Redo the last undoed command. ">
<polygon fill="white" stroke="black" points="226.5,-66.6269 226.5,-87.6269 261.5,-87.6269 261.5,-66.6269 226.5,-66.6269"/>
<text text-anchor="middle" x="244" y="-74.6269" font-family="Helvetica,sans-Serif" font-size="10.00">redo</text>
</a>
</g>
<!-- Node1&#45;&gt;Node19 -->
<g id="edge52" class="edge"><title>Node1&#45;&gt;Node19</title>
<path fill="none" stroke="midnightblue" d="M59.4767,-122.479C69.7005,-118.093 81.1961,-113.546 92,-110.127 139.628,-95.0535 197.798,-84.5322 226.401,-79.8556"/>
<polygon fill="midnightblue" stroke="midnightblue" points="57.8714,-119.362 50.1282,-126.593 60.6909,-125.769 57.8714,-119.362"/>
</g>
<!-- Node2&#45;&gt;Node3 -->
<g id="edge4" class="edge"><title>Node2&#45;&gt;Node3</title>
<path fill="none" stroke="midnightblue" d="M175.603,-150.5C186.141,-153.524 197.186,-156.693 207.251,-159.582"/>
<polygon fill="midnightblue" stroke="midnightblue" points="176.28,-147.053 165.703,-147.659 174.35,-153.782 176.28,-147.053"/>
</g>
<!-- Node2&#45;&gt;Node18 -->
<g id="edge42" class="edge"><title>Node2&#45;&gt;Node18</title>
<path fill="none" stroke="midnightblue" d="M175.664,-132.663C192.932,-131.012 211.552,-129.231 224.988,-127.945"/>
<polygon fill="midnightblue" stroke="midnightblue" points="175.324,-129.18 165.703,-133.616 175.991,-136.148 175.324,-129.18"/>
</g>
<!-- Node2&#45;&gt;Node19 -->
<g id="edge44" class="edge"><title>Node2&#45;&gt;Node19</title>
<path fill="none" stroke="midnightblue" d="M158.291,-121.845C179.706,-110.672 208.062,-95.8774 226.172,-86.4283"/>
<polygon fill="midnightblue" stroke="midnightblue" points="156.542,-118.809 149.295,-126.538 159.78,-125.016 156.542,-118.809"/>
</g>
<!-- Node3&#45;&gt;Node4 -->
<g id="edge6" class="edge"><title>Node3&#45;&gt;Node4</title>
<path fill="none" stroke="midnightblue" d="M292.72,-183.359C316.568,-189.837 344.879,-197.526 367.233,-203.598"/>
<polygon fill="midnightblue" stroke="midnightblue" points="293.371,-179.909 282.803,-180.666 291.536,-186.665 293.371,-179.909"/>
</g>
<!-- Node5 -->
<g id="node9" class="node"><title>Node5</title>
<a xlink:href="../../d3/d8f/classproject_1_1_edit_net_classes_dialog.html#a38d29d574ff2e50d278b577e11300366" target="_top" xlink:title="project::EditNetClassesDialog\l::~EditNetClassesDialog">
<polygon fill="white" stroke="black" points="535.5,-172.127 535.5,-206.127 684.5,-206.127 684.5,-172.127 535.5,-172.127"/>
<text text-anchor="start" x="543.5" y="-193.127" font-family="Helvetica,sans-Serif" font-size="10.00">project::EditNetClassesDialog</text>
<text text-anchor="middle" x="610" y="-180.127" font-family="Helvetica,sans-Serif" font-size="10.00">::~EditNetClassesDialog</text>
</a>
</g>
<!-- Node3&#45;&gt;Node5 -->
<g id="edge32" class="edge"><title>Node3&#45;&gt;Node5</title>
<path fill="none" stroke="midnightblue" d="M295.661,-172.809C358.226,-176.057 464.078,-181.552 535.469,-185.258"/>
<polygon fill="midnightblue" stroke="midnightblue" points="295.797,-169.311 285.629,-172.288 295.434,-176.302 295.797,-169.311"/>
</g>
<!-- Node6 -->
<g id="node11" class="node"><title>Node6</title>
<a xlink:href="../../dd/db6/classproject_1_1_project_properties_editor_dialog.html#ac5b9ac3ae6ade6886893179b59302ec1" target="_top" xlink:title="project::ProjectProperties\lEditorDialog::applyChanges">
<polygon fill="white" stroke="black" points="541,-276.127 541,-310.127 679,-310.127 679,-276.127 541,-276.127"/>
<text text-anchor="start" x="549" y="-297.127" font-family="Helvetica,sans-Serif" font-size="10.00">project::ProjectProperties</text>
<text text-anchor="middle" x="610" y="-284.127" font-family="Helvetica,sans-Serif" font-size="10.00">EditorDialog::applyChanges</text>
</a>
</g>
<!-- Node3&#45;&gt;Node6 -->
<g id="edge34" class="edge"><title>Node3&#45;&gt;Node6</title>
<path fill="none" stroke="midnightblue" d="M261.288,-188.587C276.031,-203.196 298.517,-222.939 322,-234.127 392.152,-267.548 480.727,-282.084 540.999,-288.378"/>
<polygon fill="midnightblue" stroke="midnightblue" points="263.436,-185.778 253.937,-181.086 258.437,-190.678 263.436,-185.778"/>
</g>
<!-- Node9 -->
<g id="node17" class="node"><title>Node9</title>
<a xlink:href="../../d8/d8b/classproject_1_1_s_e_s___select.html#a75183dd285ebb13d41213f4dfe420907" target="_top" xlink:title="project::SES_Select\l::removeSelectedItems">
<polygon fill="white" stroke="black" points="551,-120.127 551,-154.127 669,-154.127 669,-120.127 551,-120.127"/>
<text text-anchor="start" x="559" y="-141.127" font-family="Helvetica,sans-Serif" font-size="10.00">project::SES_Select</text>
<text text-anchor="middle" x="610" y="-128.127" font-family="Helvetica,sans-Serif" font-size="10.00">::removeSelectedItems</text>
</a>
</g>
<!-- Node3&#45;&gt;Node9 -->
<g id="edge36" class="edge"><title>Node3&#45;&gt;Node9</title>
<path fill="none" stroke="midnightblue" d="M295.989,-165.439C363.294,-159.371 480.301,-148.821 550.906,-142.455"/>
<polygon fill="midnightblue" stroke="midnightblue" points="295.274,-161.99 285.629,-166.373 295.902,-168.961 295.274,-161.99"/>
</g>
<!-- Node14 -->
<g id="node27" class="node"><title>Node14</title>
<a xlink:href="../../d4/d90/class_undo_stack.html#a03bfacfaaba9195e4498375659f43531" target="_top" xlink:title="Clear the whole stack (delete all UndoCommand objects) ">
<polygon fill="white" stroke="black" points="387,-80.6269 387,-101.627 425,-101.627 425,-80.6269 387,-80.6269"/>
<text text-anchor="middle" x="406" y="-88.6269" font-family="Helvetica,sans-Serif" font-size="10.00">clear</text>
</a>
</g>
<!-- Node3&#45;&gt;Node14 -->
<g id="edge26" class="edge"><title>Node3&#45;&gt;Node14</title>
<path fill="none" stroke="midnightblue" d="M271.817,-154.489C276.572,-151.742 281.446,-148.881 286,-146.127 302.247,-136.303 305.04,-131.662 322,-123.127 343.468,-112.323 369.505,-102.938 386.845,-97.1736"/>
<polygon fill="midnightblue" stroke="midnightblue" points="269.874,-151.567 262.932,-159.571 273.35,-157.643 269.874,-151.567"/>
</g>
<!-- Node17 -->
<g id="node36" class="node"><title>Node17</title>
<a xlink:href="../../d9/de8/classproject_1_1_symbol_instance_properties_dialog.html#afc217cc9d5f5bd26ab99f2af1b932668" target="_top" xlink:title="project::SymbolInstanceProperties\lDialog::abortCmd">
<polygon fill="white" stroke="black" points="322.5,-5.12687 322.5,-39.1269 489.5,-39.1269 489.5,-5.12687 322.5,-5.12687"/>
<text text-anchor="start" x="330.5" y="-26.1269" font-family="Helvetica,sans-Serif" font-size="10.00">project::SymbolInstanceProperties</text>
<text text-anchor="middle" x="406" y="-13.1269" font-family="Helvetica,sans-Serif" font-size="10.00">Dialog::abortCmd</text>
</a>
</g>
<!-- Node3&#45;&gt;Node17 -->
<g id="edge38" class="edge"><title>Node3&#45;&gt;Node17</title>
<path fill="none" stroke="midnightblue" d="M276.889,-154.039C280.189,-151.657 283.309,-149.018 286,-146.127 311.192,-119.063 296.929,-98.3033 322,-71.1269 334.135,-57.9731 350.622,-47.3113 365.777,-39.3331"/>
<polygon fill="midnightblue" stroke="midnightblue" points="274.998,-151.093 268.455,-159.426 278.766,-156.992 274.998,-151.093"/>
</g>
<!-- Node4&#45;&gt;Node5 -->
<g id="edge8" class="edge"><title>Node4&#45;&gt;Node5</title>
<path fill="none" stroke="midnightblue" d="M454.816,-208.145C478.909,-205.192 508.498,-201.566 535.356,-198.274"/>
<polygon fill="midnightblue" stroke="midnightblue" points="454.351,-204.675 444.851,-209.366 455.203,-211.623 454.351,-204.675"/>
</g>
<!-- Node4&#45;&gt;Node6 -->
<g id="edge10" class="edge"><title>Node4&#45;&gt;Node6</title>
<path fill="none" stroke="midnightblue" d="M437.101,-229.052C461.088,-240.271 495.254,-255.623 526,-267.127 534.293,-270.23 543.14,-273.261 551.864,-276.094"/>
<polygon fill="midnightblue" stroke="midnightblue" points="438.339,-225.766 427.801,-224.671 435.356,-232.099 438.339,-225.766"/>
</g>
<!-- Node4&#45;&gt;Node9 -->
<g id="edge16" class="edge"><title>Node4&#45;&gt;Node9</title>
<path fill="none" stroke="midnightblue" d="M438.49,-199.257C462.431,-188.561 495.921,-174.141 526,-163.127 534.314,-160.082 543.173,-157.083 551.903,-154.264"/>
<polygon fill="midnightblue" stroke="midnightblue" points="436.857,-196.154 429.172,-203.447 439.728,-202.538 436.857,-196.154"/>
</g>
<!-- Node10 -->
<g id="node19" class="node"><title>Node10</title>
<a xlink:href="../../d9/de8/classproject_1_1_symbol_instance_properties_dialog.html#afd1bce071dc634026d41b91abd1498ba" target="_top" xlink:title="project::SymbolInstanceProperties\lDialog::endCmd">
<polygon fill="white" stroke="black" points="526.5,-224.127 526.5,-258.127 693.5,-258.127 693.5,-224.127 526.5,-224.127"/>
<text text-anchor="start" x="534.5" y="-245.127" font-family="Helvetica,sans-Serif" font-size="10.00">project::SymbolInstanceProperties</text>
<text text-anchor="middle" x="610" y="-232.127" font-family="Helvetica,sans-Serif" font-size="10.00">Dialog::endCmd</text>
</a>
</g>
<!-- Node4&#45;&gt;Node10 -->
<g id="edge18" class="edge"><title>Node4&#45;&gt;Node10</title>
<path fill="none" stroke="midnightblue" d="M454.95,-220.606C476.276,-223.428 501.888,-226.818 526.095,-230.022"/>
<polygon fill="midnightblue" stroke="midnightblue" points="455.224,-217.111 444.851,-219.269 454.305,-224.051 455.224,-217.111"/>
</g>
<!-- Node7 -->
<g id="node13" class="node"><title>Node7</title>
<a xlink:href="../../dd/db6/classproject_1_1_project_properties_editor_dialog.html#aadb9f3b844fb4cf98288cd3c60a3af91" target="_top" xlink:title="project::ProjectProperties\lEditorDialog::accept">
<polygon fill="white" stroke="black" points="750.5,-276.127 750.5,-310.127 877.5,-310.127 877.5,-276.127 750.5,-276.127"/>
<text text-anchor="start" x="758.5" y="-297.127" font-family="Helvetica,sans-Serif" font-size="10.00">project::ProjectProperties</text>
<text text-anchor="middle" x="814" y="-284.127" font-family="Helvetica,sans-Serif" font-size="10.00">EditorDialog::accept</text>
</a>
</g>
<!-- Node6&#45;&gt;Node7 -->
<g id="edge12" class="edge"><title>Node6&#45;&gt;Node7</title>
<path fill="none" stroke="midnightblue" d="M689.179,-293.127C709.379,-293.127 730.838,-293.127 750.161,-293.127"/>
<polygon fill="midnightblue" stroke="midnightblue" points="689.065,-289.627 679.065,-293.127 689.065,-296.627 689.065,-289.627"/>
</g>
<!-- Node8 -->
<g id="node15" class="node"><title>Node8</title>
<a xlink:href="../../dd/db6/classproject_1_1_project_properties_editor_dialog.html#a9e53392568d47bcb31ccbde9917efb0c" target="_top" xlink:title="project::ProjectProperties\lEditorDialog::keyPressEvent">
<polygon fill="white" stroke="black" points="946.5,-276.127 946.5,-310.127 1089.5,-310.127 1089.5,-276.127 946.5,-276.127"/>
<text text-anchor="start" x="954.5" y="-297.127" font-family="Helvetica,sans-Serif" font-size="10.00">project::ProjectProperties</text>
<text text-anchor="middle" x="1018" y="-284.127" font-family="Helvetica,sans-Serif" font-size="10.00">EditorDialog::keyPressEvent</text>
</a>
</g>
<!-- Node7&#45;&gt;Node8 -->
<g id="edge14" class="edge"><title>Node7&#45;&gt;Node8</title>
<path fill="none" stroke="midnightblue" d="M887.818,-293.127C906.856,-293.127 927.315,-293.127 946.246,-293.127"/>
<polygon fill="midnightblue" stroke="midnightblue" points="887.708,-289.627 877.708,-293.127 887.708,-296.627 887.708,-289.627"/>
</g>
<!-- Node11 -->
<g id="node21" class="node"><title>Node11</title>
<a xlink:href="../../d9/de8/classproject_1_1_symbol_instance_properties_dialog.html#ac5b9ac3ae6ade6886893179b59302ec1" target="_top" xlink:title="project::SymbolInstanceProperties\lDialog::applyChanges">
<polygon fill="white" stroke="black" points="730.5,-104.127 730.5,-138.127 897.5,-138.127 897.5,-104.127 730.5,-104.127"/>
<text text-anchor="start" x="738.5" y="-125.127" font-family="Helvetica,sans-Serif" font-size="10.00">project::SymbolInstanceProperties</text>
<text text-anchor="middle" x="814" y="-112.127" font-family="Helvetica,sans-Serif" font-size="10.00">Dialog::applyChanges</text>
</a>
</g>
<!-- Node10&#45;&gt;Node11 -->
<g id="edge20" class="edge"><title>Node10&#45;&gt;Node11</title>
<path fill="none" stroke="midnightblue" d="M683.19,-220.279C686.899,-218.664 690.524,-216.947 694,-215.127 734.091,-194.136 774.165,-159.247 796.356,-138.392"/>
<polygon fill="midnightblue" stroke="midnightblue" points="681.777,-217.076 673.836,-224.089 684.417,-223.559 681.777,-217.076"/>
</g>
<!-- Node12 -->
<g id="node23" class="node"><title>Node12</title>
<a xlink:href="../../d9/de8/classproject_1_1_symbol_instance_properties_dialog.html#aadb9f3b844fb4cf98288cd3c60a3af91" target="_top" xlink:title="project::SymbolInstanceProperties\lDialog::accept">
<polygon fill="white" stroke="black" points="934.5,-104.127 934.5,-138.127 1101.5,-138.127 1101.5,-104.127 934.5,-104.127"/>
<text text-anchor="start" x="942.5" y="-125.127" font-family="Helvetica,sans-Serif" font-size="10.00">project::SymbolInstanceProperties</text>
<text text-anchor="middle" x="1018" y="-112.127" font-family="Helvetica,sans-Serif" font-size="10.00">Dialog::accept</text>
</a>
</g>
<!-- Node11&#45;&gt;Node12 -->
<g id="edge22" class="edge"><title>Node11&#45;&gt;Node12</title>
<path fill="none" stroke="midnightblue" d="M907.845,-121.127C916.649,-121.127 925.534,-121.127 934.237,-121.127"/>
<polygon fill="midnightblue" stroke="midnightblue" points="907.563,-117.627 897.563,-121.127 907.563,-124.627 907.563,-117.627"/>
</g>
<!-- Node13 -->
<g id="node25" class="node"><title>Node13</title>
<a xlink:href="../../d9/de8/classproject_1_1_symbol_instance_properties_dialog.html#a9e53392568d47bcb31ccbde9917efb0c" target="_top" xlink:title="project::SymbolInstanceProperties\lDialog::keyPressEvent">
<polygon fill="white" stroke="black" points="1138.5,-104.127 1138.5,-138.127 1305.5,-138.127 1305.5,-104.127 1138.5,-104.127"/>
<text text-anchor="start" x="1146.5" y="-125.127" font-family="Helvetica,sans-Serif" font-size="10.00">project::SymbolInstanceProperties</text>
<text text-anchor="middle" x="1222" y="-112.127" font-family="Helvetica,sans-Serif" font-size="10.00">Dialog::keyPressEvent</text>
</a>
</g>
<!-- Node12&#45;&gt;Node13 -->
<g id="edge24" class="edge"><title>Node12&#45;&gt;Node13</title>
<path fill="none" stroke="midnightblue" d="M1111.84,-121.127C1120.65,-121.127 1129.53,-121.127 1138.24,-121.127"/>
<polygon fill="midnightblue" stroke="midnightblue" points="1111.56,-117.627 1101.56,-121.127 1111.56,-124.627 1111.56,-117.627"/>
</g>
<!-- Node15 -->
<g id="node29" class="node"><title>Node15</title>
<a xlink:href="../../d4/d90/class_undo_stack.html#a630bb7c7b154364cfccb2638ab80ff49" target="_top" xlink:title="The destructor (will also call clear()) ">
<polygon fill="white" stroke="black" points="574.5,-80.6269 574.5,-101.627 645.5,-101.627 645.5,-80.6269 574.5,-80.6269"/>
<text text-anchor="middle" x="610" y="-88.6269" font-family="Helvetica,sans-Serif" font-size="10.00">~UndoStack</text>
</a>
</g>
<!-- Node14&#45;&gt;Node15 -->
<g id="edge28" class="edge"><title>Node14&#45;&gt;Node15</title>
<path fill="none" stroke="midnightblue" d="M435.25,-91.1269C471.966,-91.1269 534.906,-91.1269 574.386,-91.1269"/>
<polygon fill="midnightblue" stroke="midnightblue" points="435.192,-87.627 425.192,-91.1269 435.192,-94.627 435.192,-87.627"/>
</g>
<!-- Node16 -->
<g id="node31" class="node"><title>Node16</title>
<a xlink:href="../../d3/dd6/classproject_1_1_project_editor.html#ae01fee4b95fd8ed359ca04a547055bec" target="_top" xlink:title="The destructor. ">
<polygon fill="white" stroke="black" points="556,-28.1269 556,-62.1269 664,-62.1269 664,-28.1269 556,-28.1269"/>
<text text-anchor="start" x="564" y="-49.1269" font-family="Helvetica,sans-Serif" font-size="10.00">project::ProjectEditor</text>
<text text-anchor="middle" x="610" y="-36.1269" font-family="Helvetica,sans-Serif" font-size="10.00">::~ProjectEditor</text>
</a>
</g>
<!-- Node14&#45;&gt;Node16 -->
<g id="edge30" class="edge"><title>Node14&#45;&gt;Node16</title>
<path fill="none" stroke="midnightblue" d="M435.025,-84.5819C466.33,-77.5231 516.885,-66.1235 555.623,-57.3884"/>
<polygon fill="midnightblue" stroke="midnightblue" points="434.177,-81.1853 425.192,-86.7993 435.717,-88.0138 434.177,-81.1853"/>
</g>
<!-- Node17&#45;&gt;Node11 -->
<g id="edge40" class="edge"><title>Node17&#45;&gt;Node11</title>
<path fill="none" stroke="midnightblue" d="M499.865,-4.64352C557.602,2.1394 632.127,3.61632 694,-19.1269 740.195,-36.1069 780.754,-79.636 800.765,-103.985"/>
<polygon fill="midnightblue" stroke="midnightblue" points="499.142,-1.20648 489.653,-5.91858 500.01,-8.15254 499.142,-1.20648"/>
</g>
</g>
</svg>
