<?xml version="1.0" encoding="UTF-8" standalone="no"?>
<!DOCTYPE svg PUBLIC "-//W3C//DTD SVG 1.1//EN"
 "http://www.w3.org/Graphics/SVG/1.1/DTD/svg11.dtd">
<!-- Generated by graphviz version 2.26.3 (20100126.1600)
 -->
<!-- Title: removeSelectedItems Pages: 1 -->
<svg width="842pt" height="424pt"
 viewBox="0.00 0.00 842.00 424.00" xmlns="http://www.w3.org/2000/svg" xmlns:xlink="http://www.w3.org/1999/xlink">
<g id="graph1" class="graph" transform="scale(1 1) rotate(0) translate(4 420)">
<title>removeSelectedItems</title>
<polygon fill="white" stroke="white" points="-4,5 -4,-420 839,-420 839,5 -4,5"/>
<!-- Node1 -->
<g id="node1" class="node"><title>Node1</title>
<polygon fill="#bfbfbf" stroke="black" points="0,-187.5 0,-208.5 112,-208.5 112,-187.5 0,-187.5"/>
<text text-anchor="middle" x="56" y="-195.5" font-family="Helvetica,sans-Serif" font-size="10.00">removeSelectedItems</text>
</g>
<!-- Node2 -->
<g id="node3" class="node"><title>Node2</title>
<a xlink:href="../../d4/dfb/classproject_1_1_board_editor.html#a6df0b9122ac9d5c134eb95a14f701214" target="_top" xlink:title="project::BoardEditor\l::getActiveBoard">
<polygon fill="white" stroke="black" points="176.5,-382 176.5,-416 279.5,-416 279.5,-382 176.5,-382"/>
<text text-anchor="start" x="184.5" y="-403" font-family="Helvetica,sans-Serif" font-size="10.00">project::BoardEditor</text>
<text text-anchor="middle" x="228" y="-390" font-family="Helvetica,sans-Serif" font-size="10.00">::getActiveBoard</text>
</a>
</g>
<!-- Node1&#45;&gt;Node2 -->
<g id="edge2" class="edge"><title>Node1&#45;&gt;Node2</title>
<path fill="none" stroke="midnightblue" d="M58.6185,-208.854C66.5419,-239.379 93.1551,-326.757 148,-373 153.603,-377.725 160.084,-381.596 166.884,-384.767"/>
<polygon fill="midnightblue" stroke="midnightblue" points="165.722,-388.074 176.3,-388.672 168.403,-381.608 165.722,-388.074"/>
</g>
<!-- Node3 -->
<g id="node5" class="node"><title>Node3</title>
<a xlink:href="../../d5/d07/classproject_1_1_board.html#a75bfc0b788d0cc0eb348c012e0e39206" target="_top" xlink:title="project::Board::getSelected\lItems">
<polygon fill="white" stroke="black" points="160.5,-330 160.5,-364 295.5,-364 295.5,-330 160.5,-330"/>
<text text-anchor="start" x="168.5" y="-351" font-family="Helvetica,sans-Serif" font-size="10.00">project::Board::getSelected</text>
<text text-anchor="middle" x="228" y="-338" font-family="Helvetica,sans-Serif" font-size="10.00">Items</text>
</a>
</g>
<!-- Node1&#45;&gt;Node3 -->
<g id="edge4" class="edge"><title>Node1&#45;&gt;Node3</title>
<path fill="none" stroke="midnightblue" d="M61.056,-208.625C72.8763,-232.342 104.637,-289.95 148,-321 150.078,-322.488 152.246,-323.894 154.481,-325.222"/>
<polygon fill="midnightblue" stroke="midnightblue" points="152.921,-328.357 163.393,-329.969 156.212,-322.179 152.921,-328.357"/>
</g>
<!-- Node7 -->
<g id="node13" class="node"><title>Node7</title>
<a xlink:href="../../d4/d90/class_undo_stack.html#acafc28cb3929a83228bf6f6d738111cd" target="_top" xlink:title="Begin building a new command that consists of multiple commands step by step (over a &quot;long&quot; time) ...">
<polygon fill="white" stroke="black" points="158,-290.5 158,-311.5 298,-311.5 298,-290.5 158,-290.5"/>
<text text-anchor="middle" x="228" y="-298.5" font-family="Helvetica,sans-Serif" font-size="10.00">UndoStack::beginCommand</text>
</a>
</g>
<!-- Node1&#45;&gt;Node7 -->
<g id="edge12" class="edge"><title>Node1&#45;&gt;Node7</title>
<path fill="none" stroke="midnightblue" d="M64.7102,-208.717C79.7719,-226.517 112.497,-262.086 148,-281 152.276,-283.278 156.82,-285.303 161.486,-287.103"/>
<polygon fill="midnightblue" stroke="midnightblue" points="160.593,-290.498 171.188,-290.488 162.899,-283.889 160.593,-290.498"/>
</g>
<!-- Node8 -->
<g id="node15" class="node"><title>Node8</title>
<a xlink:href="../../d5/d07/classproject_1_1_board.html#a8dd1dc788ad5d6d55d3833b0a0d31fbe" target="_top" xlink:title="project::Board::clearSelection">
<polygon fill="white" stroke="black" points="155.5,-250.5 155.5,-271.5 300.5,-271.5 300.5,-250.5 155.5,-250.5"/>
<text text-anchor="middle" x="228" y="-258.5" font-family="Helvetica,sans-Serif" font-size="10.00">project::Board::clearSelection</text>
</a>
</g>
<!-- Node1&#45;&gt;Node8 -->
<g id="edge14" class="edge"><title>Node1&#45;&gt;Node8</title>
<path fill="none" stroke="midnightblue" d="M75.6353,-208.529C93.9526,-218.023 122.247,-231.858 148,-241 154.864,-243.436 162.159,-245.694 169.443,-247.749"/>
<polygon fill="midnightblue" stroke="midnightblue" points="168.761,-251.19 179.327,-250.421 170.588,-244.432 168.761,-251.19"/>
</g>
<!-- Node12 -->
<g id="node25" class="node"><title>Node12</title>
<a xlink:href="../../da/dc8/classproject_1_1_b_i___base.html#a67376e778d857201eb9d295eafa6aeb6" target="_top" xlink:title="project::BI_Base::getType">
<polygon fill="white" stroke="black" points="162.5,-210.5 162.5,-231.5 293.5,-231.5 293.5,-210.5 162.5,-210.5"/>
<text text-anchor="middle" x="228" y="-218.5" font-family="Helvetica,sans-Serif" font-size="10.00">project::BI_Base::getType</text>
</a>
</g>
<!-- Node1&#45;&gt;Node12 -->
<g id="edge26" class="edge"><title>Node1&#45;&gt;Node12</title>
<path fill="none" stroke="midnightblue" d="M112.319,-205.531C125.045,-207.233 138.759,-209.067 152.141,-210.856"/>
<polygon fill="midnightblue" stroke="midnightblue" points="151.912,-214.357 162.288,-212.213 152.84,-207.418 151.912,-214.357"/>
</g>
<!-- Node13 -->
<g id="node27" class="node"><title>Node13</title>
<a xlink:href="../../da/d96/classproject_1_1_b_i___footprint.html#ad600c6e3a11c0ef28f97f5665675e6a1" target="_top" xlink:title="project::BI_Footprint\l::getComponentInstance">
<polygon fill="white" stroke="black" points="166,-158 166,-192 290,-192 290,-158 166,-158"/>
<text text-anchor="start" x="174" y="-179" font-family="Helvetica,sans-Serif" font-size="10.00">project::BI_Footprint</text>
<text text-anchor="middle" x="228" y="-166" font-family="Helvetica,sans-Serif" font-size="10.00">::getComponentInstance</text>
</a>
</g>
<!-- Node1&#45;&gt;Node13 -->
<g id="edge28" class="edge"><title>Node1&#45;&gt;Node13</title>
<path fill="none" stroke="midnightblue" d="M112.319,-190.469C126.25,-188.606 141.365,-186.585 155.932,-184.637"/>
<polygon fill="midnightblue" stroke="midnightblue" points="156.46,-188.098 165.908,-183.303 155.532,-181.159 156.46,-188.098"/>
</g>
<!-- Node14 -->
<g id="node29" class="node"><title>Node14</title>
<a xlink:href="../../d4/d90/class_undo_stack.html#a9a588d4c258dd39ab422ac23dab43ad8" target="_top" xlink:title="Append a new command to the currently active command. ">
<polygon fill="white" stroke="black" points="148.5,-118.5 148.5,-139.5 307.5,-139.5 307.5,-118.5 148.5,-118.5"/>
<text text-anchor="middle" x="228" y="-126.5" font-family="Helvetica,sans-Serif" font-size="10.00">UndoStack::appendToCommand</text>
</a>
</g>
<!-- Node1&#45;&gt;Node14 -->
<g id="edge30" class="edge"><title>Node1&#45;&gt;Node14</title>
<path fill="none" stroke="midnightblue" d="M72.703,-187.491C90.6993,-176.559 120.469,-159.589 148,-149 154.374,-146.548 161.151,-144.316 167.958,-142.306"/>
<polygon fill="midnightblue" stroke="midnightblue" points="169.224,-145.586 177.911,-139.521 167.337,-138.845 169.224,-145.586"/>
</g>
<!-- Node15 -->
<g id="node31" class="node"><title>Node15</title>
<a xlink:href="../../d4/d90/class_undo_stack.html#a82aa679ad2c2cc3c5a2ad82d7564b0b6" target="_top" xlink:title="End the currently active command and keep the changes. ">
<polygon fill="white" stroke="black" points="162,-40.5 162,-61.5 294,-61.5 294,-40.5 162,-40.5"/>
<text text-anchor="middle" x="228" y="-48.5" font-family="Helvetica,sans-Serif" font-size="10.00">UndoStack::endCommand</text>
</a>
</g>
<!-- Node1&#45;&gt;Node15 -->
<g id="edge32" class="edge"><title>Node1&#45;&gt;Node15</title>
<path fill="none" stroke="midnightblue" d="M61.0548,-187.427C72.8725,-163.832 104.628,-106.558 148,-76 154.052,-71.7362 160.858,-68.1797 167.879,-65.2178"/>
<polygon fill="midnightblue" stroke="midnightblue" points="169.439,-68.369 177.536,-61.5369 166.946,-61.828 169.439,-68.369"/>
</g>
<!-- Node16 -->
<g id="node33" class="node"><title>Node16</title>
<a xlink:href="../../d4/d90/class_undo_stack.html#a4569aea2e8254c626ce894aac55866e9" target="_top" xlink:title="End the currently active command and revert the changes. ">
<polygon fill="white" stroke="black" points="346,-79.5 346,-100.5 484,-100.5 484,-79.5 346,-79.5"/>
<text text-anchor="middle" x="415" y="-87.5" font-family="Helvetica,sans-Serif" font-size="10.00">UndoStack::abortCommand</text>
</a>
</g>
<!-- Node1&#45;&gt;Node16 -->
<g id="edge48" class="edge"><title>Node1&#45;&gt;Node16</title>
<path fill="none" stroke="midnightblue" d="M63.0698,-187.355C76.7696,-167.76 109.039,-126.396 148,-109 207.022,-82.647 280.728,-79.3218 335.737,-81.7807"/>
<polygon fill="midnightblue" stroke="midnightblue" points="335.615,-85.279 345.783,-82.3029 335.979,-78.2884 335.615,-85.279"/>
</g>
<!-- Node20 -->
<g id="node43" class="node"><title>Node20</title>
<a xlink:href="../../df/d70/class_exception.html#aa530ab8cc747843c76a435c3075ed094" target="_top" xlink:title="Get the user error message (translated) ">
<polygon fill="white" stroke="black" points="168.5,-0.5 168.5,-21.5 287.5,-21.5 287.5,-0.5 168.5,-0.5"/>
<text text-anchor="middle" x="228" y="-8.5" font-family="Helvetica,sans-Serif" font-size="10.00">Exception::getUserMsg</text>
</a>
</g>
<!-- Node1&#45;&gt;Node20 -->
<g id="edge46" class="edge"><title>Node1&#45;&gt;Node20</title>
<path fill="none" stroke="midnightblue" d="M58.6212,-187.448C66.552,-157.806 93.1825,-73.2044 148,-31 151.382,-28.3963 155.061,-26.1278 158.922,-24.1517"/>
<polygon fill="midnightblue" stroke="midnightblue" points="160.474,-27.2925 168.208,-20.0514 157.647,-20.8889 160.474,-27.2925"/>
</g>
<!-- Node4 -->
<g id="node7" class="node"><title>Node4</title>
<a xlink:href="../../d0/d7d/classproject_1_1_component_instance.html#a43009465a74e4ea29421f269c876916d" target="_top" xlink:title="project::ComponentInstance\l::getFootprint">
<polygon fill="white" stroke="black" points="345,-278 345,-312 485,-312 485,-278 345,-278"/>
<text text-anchor="start" x="353" y="-299" font-family="Helvetica,sans-Serif" font-size="10.00">project::ComponentInstance</text>
<text text-anchor="middle" x="415" y="-286" font-family="Helvetica,sans-Serif" font-size="10.00">::getFootprint</text>
</a>
</g>
<!-- Node3&#45;&gt;Node4 -->
<g id="edge6" class="edge"><title>Node3&#45;&gt;Node4</title>
<path fill="none" stroke="midnightblue" d="M289.231,-329.973C306.666,-325.125 325.808,-319.802 343.784,-314.803"/>
<polygon fill="midnightblue" stroke="midnightblue" points="344.935,-318.116 353.632,-312.065 343.059,-311.372 344.935,-318.116"/>
</g>
<!-- Node5 -->
<g id="node9" class="node"><title>Node5</title>
<a xlink:href="../../da/dc8/classproject_1_1_b_i___base.html#afe4e9ea4eba8862c8e6dd56d0b9712ce" target="_top" xlink:title="project::BI_Base::isSelected">
<polygon fill="white" stroke="black" points="344.5,-382.5 344.5,-403.5 485.5,-403.5 485.5,-382.5 344.5,-382.5"/>
<text text-anchor="middle" x="415" y="-390.5" font-family="Helvetica,sans-Serif" font-size="10.00">project::BI_Base::isSelected</text>
</a>
</g>
<!-- Node3&#45;&gt;Node5 -->
<g id="edge8" class="edge"><title>Node3&#45;&gt;Node5</title>
<path fill="none" stroke="midnightblue" d="M295.511,-363.607C317.448,-369.003 341.458,-374.91 362.164,-380.003"/>
<polygon fill="midnightblue" stroke="midnightblue" points="361.493,-383.442 372.04,-382.432 363.165,-376.645 361.493,-383.442"/>
</g>
<!-- Node6 -->
<g id="node11" class="node"><title>Node6</title>
<a xlink:href="../../da/d96/classproject_1_1_b_i___footprint.html#a9fc9c8d9cc96383e297ae50445941007" target="_top" xlink:title="project::BI_Footprint\l::getPads">
<polygon fill="white" stroke="black" points="362.5,-330 362.5,-364 467.5,-364 467.5,-330 362.5,-330"/>
<text text-anchor="start" x="370.5" y="-351" font-family="Helvetica,sans-Serif" font-size="10.00">project::BI_Footprint</text>
<text text-anchor="middle" x="415" y="-338" font-family="Helvetica,sans-Serif" font-size="10.00">::getPads</text>
</a>
</g>
<!-- Node3&#45;&gt;Node6 -->
<g id="edge10" class="edge"><title>Node3&#45;&gt;Node6</title>
<path fill="none" stroke="midnightblue" d="M295.511,-347C313.962,-347 333.88,-347 352.065,-347"/>
<polygon fill="midnightblue" stroke="midnightblue" points="352.257,-350.5 362.257,-347 352.257,-343.5 352.257,-350.5"/>
</g>
<!-- Node8&#45;&gt;Node4 -->
<g id="edge16" class="edge"><title>Node8&#45;&gt;Node4</title>
<path fill="none" stroke="midnightblue" d="M285.887,-271.525C301.344,-274.335 318.326,-277.423 334.752,-280.41"/>
<polygon fill="midnightblue" stroke="midnightblue" points="334.424,-283.907 344.889,-282.253 335.677,-277.02 334.424,-283.907"/>
</g>
<!-- Node9 -->
<g id="node18" class="node"><title>Node9</title>
<a xlink:href="../../da/d96/classproject_1_1_b_i___footprint.html#ad73a1407a19f935203851d27f9fb3903" target="_top" xlink:title="project::BI_Footprint\l::setSelected">
<polygon fill="white" stroke="black" points="362.5,-226 362.5,-260 467.5,-260 467.5,-226 362.5,-226"/>
<text text-anchor="start" x="370.5" y="-247" font-family="Helvetica,sans-Serif" font-size="10.00">project::BI_Footprint</text>
<text text-anchor="middle" x="415" y="-234" font-family="Helvetica,sans-Serif" font-size="10.00">::setSelected</text>
</a>
</g>
<!-- Node8&#45;&gt;Node9 -->
<g id="edge18" class="edge"><title>Node8&#45;&gt;Node9</title>
<path fill="none" stroke="midnightblue" d="M300.567,-254.015C317.656,-252.37 335.728,-250.63 352.338,-249.032"/>
<polygon fill="midnightblue" stroke="midnightblue" points="352.851,-252.499 362.469,-248.056 352.18,-245.531 352.851,-252.499"/>
</g>
<!-- Node10 -->
<g id="node20" class="node"><title>Node10</title>
<a xlink:href="../../da/dc8/classproject_1_1_b_i___base.html#ab98bb60eca6122e4def2f7d285046547" target="_top" xlink:title="project::BI_Base::setSelected">
<polygon fill="white" stroke="black" points="686.5,-235.5 686.5,-256.5 833.5,-256.5 833.5,-235.5 686.5,-235.5"/>
<text text-anchor="middle" x="760" y="-243.5" font-family="Helvetica,sans-Serif" font-size="10.00">project::BI_Base::setSelected</text>
</a>
</g>
<!-- Node9&#45;&gt;Node10 -->
<g id="edge20" class="edge"><title>Node9&#45;&gt;Node10</title>
<path fill="none" stroke="midnightblue" d="M467.757,-247.138C485.032,-248.31 504.324,-249.422 522,-250 573.167,-251.672 630.545,-250.789 676.142,-249.432"/>
<polygon fill="midnightblue" stroke="midnightblue" points="676.392,-252.926 686.278,-249.117 676.174,-245.93 676.392,-252.926"/>
</g>
<!-- Node11 -->
<g id="node22" class="node"><title>Node11</title>
<a xlink:href="../../d4/ddd/classproject_1_1_b_i___footprint_pad.html#ad73a1407a19f935203851d27f9fb3903" target="_top" xlink:title="project::BI_FootprintPad\l::setSelected">
<polygon fill="white" stroke="black" points="525,-207 525,-241 647,-241 647,-207 525,-207"/>
<text text-anchor="start" x="533" y="-228" font-family="Helvetica,sans-Serif" font-size="10.00">project::BI_FootprintPad</text>
<text text-anchor="middle" x="586" y="-215" font-family="Helvetica,sans-Serif" font-size="10.00">::setSelected</text>
</a>
</g>
<!-- Node9&#45;&gt;Node11 -->
<g id="edge22" class="edge"><title>Node9&#45;&gt;Node11</title>
<path fill="none" stroke="midnightblue" d="M467.701,-237.144C482.513,-235.499 498.873,-233.681 514.58,-231.936"/>
<polygon fill="midnightblue" stroke="midnightblue" points="515.233,-235.385 524.786,-230.802 514.46,-228.427 515.233,-235.385"/>
</g>
<!-- Node11&#45;&gt;Node10 -->
<g id="edge24" class="edge"><title>Node11&#45;&gt;Node10</title>
<path fill="none" stroke="midnightblue" d="M647.346,-231.756C656.714,-232.941 666.517,-234.18 676.266,-235.413"/>
<polygon fill="midnightblue" stroke="midnightblue" points="676.025,-238.91 686.385,-236.692 676.903,-231.965 676.025,-238.91"/>
</g>
<!-- Node15&#45;&gt;Node16 -->
<g id="edge34" class="edge"><title>Node15&#45;&gt;Node16</title>
<path fill="none" stroke="midnightblue" d="M278.605,-61.554C301.992,-66.4314 329.949,-72.2621 354.447,-77.3713"/>
<polygon fill="midnightblue" stroke="midnightblue" points="353.851,-80.8222 364.355,-79.4376 355.28,-73.9696 353.851,-80.8222"/>
</g>
<!-- Node18 -->
<g id="node37" class="node"><title>Node18</title>
<a xlink:href="../../d4/d90/class_undo_stack.html#a0838f37a375891734d27a88e34437d1c" target="_top" xlink:title="Check if undo is possible. ">
<polygon fill="white" stroke="black" points="705,-110.5 705,-131.5 815,-131.5 815,-110.5 705,-110.5"/>
<text text-anchor="middle" x="760" y="-118.5" font-family="Helvetica,sans-Serif" font-size="10.00">UndoStack::canUndo</text>
</a>
</g>
<!-- Node15&#45;&gt;Node18 -->
<g id="edge44" class="edge"><title>Node15&#45;&gt;Node18</title>
<path fill="none" stroke="midnightblue" d="M294.032,-43.4387C378.244,-35.8868 527.622,-29.5514 650,-62 682.442,-70.6019 715.89,-90.3899 737.254,-104.681"/>
<polygon fill="midnightblue" stroke="midnightblue" points="735.404,-107.656 745.632,-110.421 739.36,-101.881 735.404,-107.656"/>
</g>
<!-- Node17 -->
<g id="node35" class="node"><title>Node17</title>
<a xlink:href="../../d4/d90/class_undo_stack.html#ac45199a5fa405b01e4a81bcd46ca47d2" target="_top" xlink:title="Get the text for the undo action. ">
<polygon fill="white" stroke="black" points="522,-149.5 522,-170.5 650,-170.5 650,-149.5 522,-149.5"/>
<text text-anchor="middle" x="586" y="-157.5" font-family="Helvetica,sans-Serif" font-size="10.00">UndoStack::getUndoText</text>
</a>
</g>
<!-- Node16&#45;&gt;Node17 -->
<g id="edge36" class="edge"><title>Node16&#45;&gt;Node17</title>
<path fill="none" stroke="midnightblue" d="M439.575,-100.547C461.214,-109.783 493.614,-123.489 522,-135 530.768,-138.555 540.245,-142.307 549.152,-145.793"/>
<polygon fill="midnightblue" stroke="midnightblue" points="547.943,-149.078 558.532,-149.449 550.485,-142.556 547.943,-149.078"/>
</g>
<!-- Node16&#45;&gt;Node18 -->
<g id="edge40" class="edge"><title>Node16&#45;&gt;Node18</title>
<path fill="none" stroke="midnightblue" d="M484.037,-98.0709C496.659,-99.453 509.719,-100.821 522,-102 580.238,-107.589 646.604,-112.791 694.433,-116.333"/>
<polygon fill="midnightblue" stroke="midnightblue" points="694.422,-119.842 704.652,-117.086 694.936,-112.861 694.422,-119.842"/>
</g>
<!-- Node19 -->
<g id="node40" class="node"><title>Node19</title>
<a xlink:href="../../d4/d90/class_undo_stack.html#ac94ae4017f4a9133369c65c0fdb6f4c7" target="_top" xlink:title="Check if the stack is in a clean state (the state of the last setClean()) ">
<polygon fill="white" stroke="black" points="534,-71.5 534,-92.5 638,-92.5 638,-71.5 534,-71.5"/>
<text text-anchor="middle" x="586" y="-79.5" font-family="Helvetica,sans-Serif" font-size="10.00">UndoStack::isClean</text>
</a>
</g>
<!-- Node16&#45;&gt;Node19 -->
<g id="edge42" class="edge"><title>Node16&#45;&gt;Node19</title>
<path fill="none" stroke="midnightblue" d="M484.059,-86.7692C497.152,-86.1567 510.778,-85.5192 523.648,-84.9171"/>
<polygon fill="midnightblue" stroke="midnightblue" points="523.957,-88.4065 533.782,-84.4429 523.63,-81.4142 523.957,-88.4065"/>
</g>
<!-- Node17&#45;&gt;Node18 -->
<g id="edge38" class="edge"><title>Node17&#45;&gt;Node18</title>
<path fill="none" stroke="midnightblue" d="M633.087,-149.446C654.654,-144.612 680.4,-138.841 703.048,-133.765"/>
<polygon fill="midnightblue" stroke="midnightblue" points="703.883,-137.165 712.875,-131.562 702.352,-130.334 703.883,-137.165"/>
</g>
</g>
</svg>
