<?xml version="1.0" encoding="UTF-8" standalone="no"?>
<!DOCTYPE svg PUBLIC "-//W3C//DTD SVG 1.1//EN"
 "http://www.w3.org/Graphics/SVG/1.1/DTD/svg11.dtd">
<!-- Generated by graphviz version 2.26.3 (20100126.1600)
 -->
<!-- Title: getDebugTools Pages: 1 -->
<svg width="270pt" height="94pt"
 viewBox="0.00 0.00 270.00 94.00" xmlns="http://www.w3.org/2000/svg" xmlns:xlink="http://www.w3.org/1999/xlink">
<g id="graph1" class="graph" transform="scale(1 1) rotate(0) translate(4 90)">
<title>getDebugTools</title>
<polygon fill="white" stroke="white" points="-4,5 -4,-90 267,-90 267,5 -4,5"/>
<!-- Node1 -->
<g id="node1" class="node"><title>Node1</title>
<polygon fill="#bfbfbf" stroke="black" points="0.5,-32.5 0.5,-53.5 83.5,-53.5 83.5,-32.5 0.5,-32.5"/>
<text text-anchor="middle" x="42" y="-40.5" font-family="Helvetica,sans-Serif" font-size="10.00">getDebugTools</text>
</g>
<!-- Node2 -->
<g id="node3" class="node"><title>Node2</title>
<a xlink:href="../../d1/d5c/class_workspace_settings_dialog.html#a2cbd20dced2ae525d3592190ec1772a9" target="_top" xlink:title="WorkspaceSettingsDialog\l::WorkspaceSettingsDialog">
<polygon fill="white" stroke="black" points="123,-52 123,-86 259,-86 259,-52 123,-52"/>
<text text-anchor="start" x="131" y="-73" font-family="Helvetica,sans-Serif" font-size="10.00">WorkspaceSettingsDialog</text>
<text text-anchor="middle" x="191" y="-60" font-family="Helvetica,sans-Serif" font-size="10.00">::WorkspaceSettingsDialog</text>
</a>
</g>
<!-- Node1&#45;&gt;Node2 -->
<g id="edge2" class="edge"><title>Node1&#45;&gt;Node2</title>
<path fill="none" stroke="midnightblue" d="M93.5301,-51.9918C102.998,-53.6439 113.014,-55.3918 122.881,-57.1134"/>
<polygon fill="midnightblue" stroke="midnightblue" points="93.9576,-48.5136 83.5048,-50.2424 92.7543,-55.4094 93.9576,-48.5136"/>
</g>
<!-- Node3 -->
<g id="node5" class="node"><title>Node3</title>
<a xlink:href="../../d1/d5c/class_workspace_settings_dialog.html#a70ce51ebbe1016328bceb03c6869cac5" target="_top" xlink:title="WorkspaceSettingsDialog\l::~WorkspaceSettingsDialog">
<polygon fill="white" stroke="black" points="120,-0 120,-34 262,-34 262,-0 120,-0"/>
<text text-anchor="start" x="128" y="-21" font-family="Helvetica,sans-Serif" font-size="10.00">WorkspaceSettingsDialog</text>
<text text-anchor="middle" x="191" y="-8" font-family="Helvetica,sans-Serif" font-size="10.00">::~WorkspaceSettingsDialog</text>
</a>
</g>
<!-- Node1&#45;&gt;Node3 -->
<g id="edge4" class="edge"><title>Node1&#45;&gt;Node3</title>
<path fill="none" stroke="midnightblue" d="M93.5705,-34.0011C102.028,-32.5254 110.921,-30.9734 119.754,-29.4321"/>
<polygon fill="midnightblue" stroke="midnightblue" points="92.7543,-30.5906 83.5048,-35.7576 93.9576,-37.4864 92.7543,-30.5906"/>
</g>
</g>
</svg>
