<?xml version="1.0" encoding="UTF-8" standalone="no"?>
<!DOCTYPE svg PUBLIC "-//W3C//DTD SVG 1.1//EN"
 "http://www.w3.org/Graphics/SVG/1.1/DTD/svg11.dtd">
<!-- Generated by graphviz version 2.26.3 (20100126.1600)
 -->
<!-- Title: /home/travis/build/LibrePCB/LibrePCB/libs/librepcblibrary/cmp/component.h Pages: 1 -->
<svg width="546pt" height="374pt"
 viewBox="0.00 0.00 546.00 374.00" xmlns="http://www.w3.org/2000/svg" xmlns:xlink="http://www.w3.org/1999/xlink">
<g id="graph1" class="graph" transform="scale(1 1) rotate(0) translate(4 370)">
<title>/home/travis/build/LibrePCB/LibrePCB/libs/librepcblibrary/cmp/component.h</title>
<polygon fill="white" stroke="white" points="-4,5 -4,-370 543,-370 543,5 -4,5"/>
<!-- Node1 -->
<g id="node1" class="node"><title>Node1</title>
<polygon fill="#bfbfbf" stroke="black" points="-0.5,-318.5 -0.5,-365.5 160.5,-365.5 160.5,-318.5 -0.5,-318.5"/>
<text text-anchor="start" x="7.5" y="-352.5" font-family="Helvetica,sans-Serif" font-size="10.00">/home/travis/build</text>
<text text-anchor="start" x="7.5" y="-339.5" font-family="Helvetica,sans-Serif" font-size="10.00">/LibrePCB/LibrePCB/libs</text>
<text text-anchor="middle" x="80" y="-326.5" font-family="Helvetica,sans-Serif" font-size="10.00">/librepcblibrary/cmp/component.h</text>
</g>
<!-- Node2 -->
<g id="node3" class="node"><title>Node2</title>
<polygon fill="white" stroke="#bfbfbf" points="198,-0.5 198,-21.5 246,-21.5 246,-0.5 198,-0.5"/>
<text text-anchor="middle" x="222" y="-8.5" font-family="Helvetica,sans-Serif" font-size="10.00">QtCore</text>
</g>
<!-- Node1&#45;&gt;Node2 -->
<g id="edge2" class="edge"><title>Node1&#45;&gt;Node2</title>
<path fill="none" stroke="midnightblue" d="M68.8988,-318.332C58.0002,-292.891 43,-250.977 43,-213 43,-213 43,-213 43,-148 43,-75.7247 136.164,-36.4291 188.068,-20.1448"/>
<polygon fill="midnightblue" stroke="midnightblue" points="189.296,-23.4303 197.859,-17.1918 187.275,-16.7285 189.296,-23.4303"/>
</g>
<!-- Node3 -->
<g id="node5" class="node"><title>Node3</title>
<a xlink:href="../../d0/db0/libraryelement_8h.html" target="_top" xlink:title="../libraryelement.h">
<polygon fill="white" stroke="black" points="70.5,-260.5 70.5,-281.5 165.5,-281.5 165.5,-260.5 70.5,-260.5"/>
<text text-anchor="middle" x="118" y="-268.5" font-family="Helvetica,sans-Serif" font-size="10.00">../libraryelement.h</text>
</a>
</g>
<!-- Node1&#45;&gt;Node3 -->
<g id="edge4" class="edge"><title>Node1&#45;&gt;Node3</title>
<path fill="none" stroke="midnightblue" d="M92.6534,-318.358C97.4849,-309.331 102.935,-299.148 107.54,-290.544"/>
<polygon fill="midnightblue" stroke="midnightblue" points="110.669,-292.114 112.302,-281.646 104.497,-288.811 110.669,-292.114"/>
</g>
<!-- Node3&#45;&gt;Node2 -->
<g id="edge6" class="edge"><title>Node3&#45;&gt;Node2</title>
<path fill="none" stroke="midnightblue" d="M113.059,-260.247C102.654,-235.98 80.9553,-175.533 100,-130 119.141,-84.2359 165.537,-47.3748 195.28,-27.3837"/>
<polygon fill="midnightblue" stroke="midnightblue" points="197.472,-30.1319 203.927,-21.7301 193.642,-24.273 197.472,-30.1319"/>
</g>
<!-- Node4 -->
<g id="node8" class="node"><title>Node4</title>
<a xlink:href="../../de/dd7/librarybaseelement_8h.html" target="_top" xlink:title="librarybaseelement.h">
<polygon fill="white" stroke="black" points="235.5,-202.5 235.5,-223.5 342.5,-223.5 342.5,-202.5 235.5,-202.5"/>
<text text-anchor="middle" x="289" y="-210.5" font-family="Helvetica,sans-Serif" font-size="10.00">librarybaseelement.h</text>
</a>
</g>
<!-- Node3&#45;&gt;Node4 -->
<g id="edge8" class="edge"><title>Node3&#45;&gt;Node4</title>
<path fill="none" stroke="midnightblue" d="M148.967,-260.497C176.844,-251.041 217.997,-237.083 248.482,-226.743"/>
<polygon fill="midnightblue" stroke="midnightblue" points="249.629,-230.05 257.975,-223.523 247.381,-223.421 249.629,-230.05"/>
</g>
<!-- Node5 -->
<g id="node10" class="node"><title>Node5</title>
<polygon fill="white" stroke="#bfbfbf" points="108.5,-137.5 108.5,-158.5 161.5,-158.5 161.5,-137.5 108.5,-137.5"/>
<text text-anchor="middle" x="135" y="-145.5" font-family="Helvetica,sans-Serif" font-size="10.00">QObject</text>
</g>
<!-- Node4&#45;&gt;Node5 -->
<g id="edge10" class="edge"><title>Node4&#45;&gt;Node5</title>
<path fill="none" stroke="midnightblue" d="M259.81,-202.393C235.512,-193.344 200.145,-179.664 170,-166 167.977,-165.083 165.904,-164.109 163.826,-163.107"/>
<polygon fill="midnightblue" stroke="midnightblue" points="165.335,-159.948 154.823,-158.625 162.215,-166.215 165.335,-159.948"/>
</g>
<!-- Node6 -->
<g id="node12" class="node"><title>Node6</title>
<a xlink:href="../../d0/d1d/if__xmlserializableobject_8h.html" target="_top" xlink:title="librepcbcommon/fileio\l/if_xmlserializableobject.h">
<polygon fill="white" stroke="black" points="178.5,-131 178.5,-165 307.5,-165 307.5,-131 178.5,-131"/>
<text text-anchor="start" x="186.5" y="-152" font-family="Helvetica,sans-Serif" font-size="10.00">librepcbcommon/fileio</text>
<text text-anchor="middle" x="243" y="-139" font-family="Helvetica,sans-Serif" font-size="10.00">/if_xmlserializableobject.h</text>
</a>
</g>
<!-- Node4&#45;&gt;Node6 -->
<g id="edge12" class="edge"><title>Node4&#45;&gt;Node6</title>
<path fill="none" stroke="midnightblue" d="M281.404,-202.267C275.878,-194.458 268.156,-183.546 261.084,-173.554"/>
<polygon fill="midnightblue" stroke="midnightblue" points="263.742,-171.251 255.109,-165.11 258.028,-175.294 263.742,-171.251"/>
</g>
<!-- Node7 -->
<g id="node14" class="node"><title>Node7</title>
<a xlink:href="../../d4/d03/exceptions_8h.html" target="_top" xlink:title="../exceptions.h">
<polygon fill="white" stroke="black" points="181.5,-65.5 181.5,-86.5 262.5,-86.5 262.5,-65.5 181.5,-65.5"/>
<text text-anchor="middle" x="222" y="-73.5" font-family="Helvetica,sans-Serif" font-size="10.00">../exceptions.h</text>
</a>
</g>
<!-- Node4&#45;&gt;Node7 -->
<g id="edge18" class="edge"><title>Node4&#45;&gt;Node7</title>
<path fill="none" stroke="midnightblue" d="M297.723,-202.456C310.125,-186.101 329.891,-154 316,-130 309.133,-118.136 279.647,-102.291 255.506,-90.8351"/>
<polygon fill="midnightblue" stroke="midnightblue" points="256.783,-87.5692 246.24,-86.5249 253.831,-93.9161 256.783,-87.5692"/>
</g>
<!-- Node8 -->
<g id="node18" class="node"><title>Node8</title>
<a xlink:href="../../dd/dec/filepath_8h.html" target="_top" xlink:title="librepcbcommon/fileio\l/filepath.h">
<polygon fill="white" stroke="black" points="279.5,-59 279.5,-93 390.5,-93 390.5,-59 279.5,-59"/>
<text text-anchor="start" x="287.5" y="-80" font-family="Helvetica,sans-Serif" font-size="10.00">librepcbcommon/fileio</text>
<text text-anchor="middle" x="335" y="-67" font-family="Helvetica,sans-Serif" font-size="10.00">/filepath.h</text>
</a>
</g>
<!-- Node4&#45;&gt;Node8 -->
<g id="edge20" class="edge"><title>Node4&#45;&gt;Node8</title>
<path fill="none" stroke="midnightblue" d="M310.998,-202.365C324.68,-194.433 341.122,-182.179 349,-166 358.683,-146.116 353.606,-121.095 347.008,-102.485"/>
<polygon fill="midnightblue" stroke="midnightblue" points="350.262,-101.195 343.379,-93.1394 343.736,-103.728 350.262,-101.195"/>
</g>
<!-- Node9 -->
<g id="node21" class="node"><title>Node9</title>
<a xlink:href="../../df/dfc/version_8h.html" target="_top" xlink:title="librepcbcommon/version.h">
<polygon fill="white" stroke="black" points="407.5,-65.5 407.5,-86.5 538.5,-86.5 538.5,-65.5 407.5,-65.5"/>
<text text-anchor="middle" x="473" y="-73.5" font-family="Helvetica,sans-Serif" font-size="10.00">librepcbcommon/version.h</text>
</a>
</g>
<!-- Node4&#45;&gt;Node9 -->
<g id="edge24" class="edge"><title>Node4&#45;&gt;Node9</title>
<path fill="none" stroke="midnightblue" d="M307.588,-202.495C323.272,-193.401 346.119,-179.602 365,-166 397.518,-142.574 432.753,-112.172 453.842,-93.3811"/>
<polygon fill="midnightblue" stroke="midnightblue" points="456.345,-95.8376 461.453,-86.5553 451.672,-90.6264 456.345,-95.8376"/>
</g>
<!-- Node6&#45;&gt;Node7 -->
<g id="edge14" class="edge"><title>Node6&#45;&gt;Node7</title>
<path fill="none" stroke="midnightblue" d="M238.023,-130.937C235.04,-120.707 231.224,-107.625 228.065,-96.7937"/>
<polygon fill="midnightblue" stroke="midnightblue" points="231.34,-95.521 225.179,-86.901 224.62,-97.4811 231.34,-95.521"/>
</g>
<!-- Node7&#45;&gt;Node2 -->
<g id="edge16" class="edge"><title>Node7&#45;&gt;Node2</title>
<path fill="none" stroke="midnightblue" d="M222,-65.2666C222,-56.1799 222,-42.8919 222,-31.7395"/>
<polygon fill="midnightblue" stroke="midnightblue" points="225.5,-31.5337 222,-21.5337 218.5,-31.5337 225.5,-31.5337"/>
</g>
<!-- Node8&#45;&gt;Node2 -->
<g id="edge22" class="edge"><title>Node8&#45;&gt;Node2</title>
<path fill="none" stroke="midnightblue" d="M305.311,-58.922C287.986,-48.9566 266.284,-36.4729 249.373,-26.7455"/>
<polygon fill="midnightblue" stroke="midnightblue" points="250.943,-23.6107 240.529,-21.6584 247.452,-29.6785 250.943,-23.6107"/>
</g>
<!-- Node9&#45;&gt;Node2 -->
<g id="edge26" class="edge"><title>Node9&#45;&gt;Node2</title>
<path fill="none" stroke="midnightblue" d="M432.394,-65.4844C383.377,-52.7908 301.834,-31.6742 255.989,-19.8019"/>
<polygon fill="midnightblue" stroke="midnightblue" points="256.787,-16.3932 246.229,-17.2744 255.032,-23.1697 256.787,-16.3932"/>
</g>
</g>
</svg>
