<?xml version="1.0" encoding="UTF-8" standalone="no"?>
<!DOCTYPE svg PUBLIC "-//W3C//DTD SVG 1.1//EN"
 "http://www.w3.org/Graphics/SVG/1.1/DTD/svg11.dtd">
<!-- Generated by graphviz version 2.26.3 (20100126.1600)
 -->
<!-- Title: /home/travis/build/LibrePCB/LibrePCB/libs/librepcbproject/schematics/graphicsitems/sgi_netline.h Pages: 1 -->
<svg width="1582pt" height="278pt"
 viewBox="0.00 0.00 1582.00 278.00" xmlns="http://www.w3.org/2000/svg" xmlns:xlink="http://www.w3.org/1999/xlink">
<g id="graph1" class="graph" transform="scale(1 1) rotate(0) translate(4 274)">
<title>/home/travis/build/LibrePCB/LibrePCB/libs/librepcbproject/schematics/graphicsitems/sgi_netline.h</title>
<polygon fill="white" stroke="white" points="-4,5 -4,-274 1579,-274 1579,5 -4,5"/>
<!-- Node1 -->
<g id="node1" class="node"><title>Node1</title>
<polygon fill="#bfbfbf" stroke="black" points="500,-209 500,-269 638,-269 638,-209 500,-209"/>
<text text-anchor="start" x="508" y="-256" font-family="Helvetica,sans-Serif" font-size="10.00">/home/travis/build</text>
<text text-anchor="start" x="508" y="-243" font-family="Helvetica,sans-Serif" font-size="10.00">/LibrePCB/LibrePCB/libs</text>
<text text-anchor="start" x="508" y="-230" font-family="Helvetica,sans-Serif" font-size="10.00">/librepcbproject/schematics</text>
<text text-anchor="middle" x="569" y="-217" font-family="Helvetica,sans-Serif" font-size="10.00">/graphicsitems/sgi_netline.h</text>
</g>
<!-- Node2 -->
<g id="node3" class="node"><title>Node2</title>
<a xlink:href="../../de/d0d/si__netline_8h.html" target="_top" xlink:title="/home/travis/build\l/LibrePCB/LibrePCB/libs\l/librepcbproject/schematics\l/items/si_netline.h">
<polygon fill="white" stroke="black" points="698,-111 698,-171 834,-171 834,-111 698,-111"/>
<text text-anchor="start" x="706" y="-158" font-family="Helvetica,sans-Serif" font-size="10.00">/home/travis/build</text>
<text text-anchor="start" x="706" y="-145" font-family="Helvetica,sans-Serif" font-size="10.00">/LibrePCB/LibrePCB/libs</text>
<text text-anchor="start" x="706" y="-132" font-family="Helvetica,sans-Serif" font-size="10.00">/librepcbproject/schematics</text>
<text text-anchor="middle" x="766" y="-119" font-family="Helvetica,sans-Serif" font-size="10.00">/items/si_netline.h</text>
</a>
</g>
<!-- Node1&#45;&gt;Node2 -->
<g id="edge2" class="edge"><title>Node1&#45;&gt;Node2</title>
<path fill="none" stroke="midnightblue" d="M638.677,-204.338C660.549,-193.458 684.5,-181.543 705.669,-171.012"/>
<polygon fill="midnightblue" stroke="midnightblue" points="636.84,-201.343 629.445,-208.931 639.958,-207.61 636.84,-201.343"/>
</g>
<!-- Node6 -->
<g id="node11" class="node"><title>Node6</title>
<a xlink:href="../../d4/d13/sgi__netline_8cpp.html" target="_top" xlink:title="/home/travis/build\l/LibrePCB/LibrePCB/libs\l/librepcbproject/schematics\l/graphicsitems/sgi_netline.cpp">
<polygon fill="white" stroke="black" points="-0.5,-7 -0.5,-67 148.5,-67 148.5,-7 -0.5,-7"/>
<text text-anchor="start" x="7.5" y="-54" font-family="Helvetica,sans-Serif" font-size="10.00">/home/travis/build</text>
<text text-anchor="start" x="7.5" y="-41" font-family="Helvetica,sans-Serif" font-size="10.00">/LibrePCB/LibrePCB/libs</text>
<text text-anchor="start" x="7.5" y="-28" font-family="Helvetica,sans-Serif" font-size="10.00">/librepcbproject/schematics</text>
<text text-anchor="middle" x="74" y="-15" font-family="Helvetica,sans-Serif" font-size="10.00">/graphicsitems/sgi_netline.cpp</text>
</a>
</g>
<!-- Node1&#45;&gt;Node6 -->
<g id="edge24" class="edge"><title>Node1&#45;&gt;Node6</title>
<path fill="none" stroke="midnightblue" d="M490.398,-208.558C407.221,-176.102 272.308,-122.77 157,-74 151.769,-71.7876 146.368,-69.4657 140.948,-67.1089"/>
<polygon fill="midnightblue" stroke="midnightblue" points="489.192,-211.844 499.78,-212.216 491.735,-205.322 489.192,-211.844"/>
</g>
<!-- Node3 -->
<g id="node5" class="node"><title>Node3</title>
<a xlink:href="../../dd/d91/moc__si__netline_8cpp.html" target="_top" xlink:title="/home/travis/build\l/LibrePCB/LibrePCB/libs\l/librepcbproject/moc/moc\l_si_netline.cpp">
<polygon fill="white" stroke="black" points="166,-7 166,-67 292,-67 292,-7 166,-7"/>
<text text-anchor="start" x="174" y="-54" font-family="Helvetica,sans-Serif" font-size="10.00">/home/travis/build</text>
<text text-anchor="start" x="174" y="-41" font-family="Helvetica,sans-Serif" font-size="10.00">/LibrePCB/LibrePCB/libs</text>
<text text-anchor="start" x="174" y="-28" font-family="Helvetica,sans-Serif" font-size="10.00">/librepcbproject/moc/moc</text>
<text text-anchor="middle" x="229" y="-15" font-family="Helvetica,sans-Serif" font-size="10.00">_si_netline.cpp</text>
</a>
</g>
<!-- Node2&#45;&gt;Node3 -->
<g id="edge4" class="edge"><title>Node2&#45;&gt;Node3</title>
<path fill="none" stroke="midnightblue" d="M687.838,-137.624C593.991,-131.788 432.761,-116.047 301,-74 294.975,-72.0774 288.844,-69.6874 282.829,-67.0538"/>
<polygon fill="midnightblue" stroke="midnightblue" points="687.632,-141.118 697.824,-138.223 688.052,-134.13 687.632,-141.118"/>
</g>
<!-- Node4 -->
<g id="node7" class="node"><title>Node4</title>
<a xlink:href="../../d3/db9/cmdschematicnetlineadd_8cpp.html" target="_top" xlink:title="/home/travis/build\l/LibrePCB/LibrePCB/libs\l/librepcbproject/schematics\l/cmd/cmdschematicnetlineadd.cpp">
<polygon fill="white" stroke="black" points="310,-7 310,-67 478,-67 478,-7 310,-7"/>
<text text-anchor="start" x="318" y="-54" font-family="Helvetica,sans-Serif" font-size="10.00">/home/travis/build</text>
<text text-anchor="start" x="318" y="-41" font-family="Helvetica,sans-Serif" font-size="10.00">/LibrePCB/LibrePCB/libs</text>
<text text-anchor="start" x="318" y="-28" font-family="Helvetica,sans-Serif" font-size="10.00">/librepcbproject/schematics</text>
<text text-anchor="middle" x="394" y="-15" font-family="Helvetica,sans-Serif" font-size="10.00">/cmd/cmdschematicnetlineadd.cpp</text>
</a>
</g>
<!-- Node2&#45;&gt;Node4 -->
<g id="edge6" class="edge"><title>Node2&#45;&gt;Node4</title>
<path fill="none" stroke="midnightblue" d="M687.966,-125.391C631.564,-113.353 553.854,-95.2065 487,-74 480.375,-71.8984 473.549,-69.5502 466.748,-67.0839"/>
<polygon fill="midnightblue" stroke="midnightblue" points="687.38,-128.844 697.888,-127.492 688.83,-121.996 687.38,-128.844"/>
</g>
<!-- Node5 -->
<g id="node9" class="node"><title>Node5</title>
<a xlink:href="../../dd/d65/cmdschematicnetlineremove_8cpp.html" target="_top" xlink:title="/home/travis/build\l/LibrePCB/LibrePCB/libs\l/librepcbproject/schematics\l/cmd/cmdschematicnetlineremove.cpp">
<polygon fill="white" stroke="black" points="495.5,-7 495.5,-67 680.5,-67 680.5,-7 495.5,-7"/>
<text text-anchor="start" x="503.5" y="-54" font-family="Helvetica,sans-Serif" font-size="10.00">/home/travis/build</text>
<text text-anchor="start" x="503.5" y="-41" font-family="Helvetica,sans-Serif" font-size="10.00">/LibrePCB/LibrePCB/libs</text>
<text text-anchor="start" x="503.5" y="-28" font-family="Helvetica,sans-Serif" font-size="10.00">/librepcbproject/schematics</text>
<text text-anchor="middle" x="588" y="-15" font-family="Helvetica,sans-Serif" font-size="10.00">/cmd/cmdschematicnetlineremove.cpp</text>
</a>
</g>
<!-- Node2&#45;&gt;Node5 -->
<g id="edge8" class="edge"><title>Node2&#45;&gt;Node5</title>
<path fill="none" stroke="midnightblue" d="M705.762,-105.805C684.199,-93.2061 660.113,-79.1332 639.369,-67.0135"/>
<polygon fill="midnightblue" stroke="midnightblue" points="704.115,-108.896 714.515,-110.919 707.646,-102.852 704.115,-108.896"/>
</g>
<!-- Node2&#45;&gt;Node6 -->
<g id="edge10" class="edge"><title>Node2&#45;&gt;Node6</title>
<path fill="none" stroke="midnightblue" d="M687.593,-135.406C546.448,-124.834 255.159,-100.582 157,-74 149.995,-72.103 142.828,-69.6932 135.782,-67.016"/>
<polygon fill="midnightblue" stroke="midnightblue" points="687.67,-138.922 697.902,-136.174 688.19,-131.941 687.67,-138.922"/>
</g>
<!-- Node7 -->
<g id="node13" class="node"><title>Node7</title>
<a xlink:href="../../d6/d91/si__netline_8cpp.html" target="_top" xlink:title="/home/travis/build\l/LibrePCB/LibrePCB/libs\l/librepcbproject/schematics\l/items/si_netline.cpp">
<polygon fill="white" stroke="black" points="698,-7 698,-67 834,-67 834,-7 698,-7"/>
<text text-anchor="start" x="706" y="-54" font-family="Helvetica,sans-Serif" font-size="10.00">/home/travis/build</text>
<text text-anchor="start" x="706" y="-41" font-family="Helvetica,sans-Serif" font-size="10.00">/LibrePCB/LibrePCB/libs</text>
<text text-anchor="start" x="706" y="-28" font-family="Helvetica,sans-Serif" font-size="10.00">/librepcbproject/schematics</text>
<text text-anchor="middle" x="766" y="-15" font-family="Helvetica,sans-Serif" font-size="10.00">/items/si_netline.cpp</text>
</a>
</g>
<!-- Node2&#45;&gt;Node7 -->
<g id="edge12" class="edge"><title>Node2&#45;&gt;Node7</title>
<path fill="none" stroke="midnightblue" d="M766,-100.867C766,-89.6109 766,-77.5711 766,-67.0135"/>
<polygon fill="midnightblue" stroke="midnightblue" points="762.5,-100.919 766,-110.919 769.5,-100.919 762.5,-100.919"/>
</g>
<!-- Node8 -->
<g id="node15" class="node"><title>Node8</title>
<a xlink:href="../../d9/d0a/si__netpoint_8cpp.html" target="_top" xlink:title="/home/travis/build\l/LibrePCB/LibrePCB/libs\l/librepcbproject/schematics\l/items/si_netpoint.cpp">
<polygon fill="white" stroke="black" points="852,-7 852,-67 988,-67 988,-7 852,-7"/>
<text text-anchor="start" x="860" y="-54" font-family="Helvetica,sans-Serif" font-size="10.00">/home/travis/build</text>
<text text-anchor="start" x="860" y="-41" font-family="Helvetica,sans-Serif" font-size="10.00">/LibrePCB/LibrePCB/libs</text>
<text text-anchor="start" x="860" y="-28" font-family="Helvetica,sans-Serif" font-size="10.00">/librepcbproject/schematics</text>
<text text-anchor="middle" x="920" y="-15" font-family="Helvetica,sans-Serif" font-size="10.00">/items/si_netpoint.cpp</text>
</a>
</g>
<!-- Node2&#45;&gt;Node8 -->
<g id="edge14" class="edge"><title>Node2&#45;&gt;Node8</title>
<path fill="none" stroke="midnightblue" d="M818.864,-105.3C837.327,-92.8312 857.85,-78.9717 875.557,-67.0135"/>
<polygon fill="midnightblue" stroke="midnightblue" points="816.872,-102.422 810.543,-110.919 820.789,-108.223 816.872,-102.422"/>
</g>
<!-- Node9 -->
<g id="node17" class="node"><title>Node9</title>
<a xlink:href="../../dc/db2/schematic_8cpp.html" target="_top" xlink:title="/home/travis/build\l/LibrePCB/LibrePCB/libs\l/librepcbproject/schematics\l/schematic.cpp">
<polygon fill="white" stroke="black" points="1006,-7 1006,-67 1142,-67 1142,-7 1006,-7"/>
<text text-anchor="start" x="1014" y="-54" font-family="Helvetica,sans-Serif" font-size="10.00">/home/travis/build</text>
<text text-anchor="start" x="1014" y="-41" font-family="Helvetica,sans-Serif" font-size="10.00">/LibrePCB/LibrePCB/libs</text>
<text text-anchor="start" x="1014" y="-28" font-family="Helvetica,sans-Serif" font-size="10.00">/librepcbproject/schematics</text>
<text text-anchor="middle" x="1074" y="-15" font-family="Helvetica,sans-Serif" font-size="10.00">/schematic.cpp</text>
</a>
</g>
<!-- Node2&#45;&gt;Node9 -->
<g id="edge16" class="edge"><title>Node2&#45;&gt;Node9</title>
<path fill="none" stroke="midnightblue" d="M843.949,-121.842C889.234,-109.861 947.035,-93.0995 997,-74 1002.54,-71.8817 1008.23,-69.5221 1013.89,-67.0482"/>
<polygon fill="midnightblue" stroke="midnightblue" points="842.976,-118.478 834.191,-124.401 844.752,-125.249 842.976,-118.478"/>
</g>
<!-- Node10 -->
<g id="node19" class="node"><title>Node10</title>
<a xlink:href="../../d3/dbd/ses__addnetlabel_8cpp.html" target="_top" xlink:title="/home/travis/build\l/LibrePCB/LibrePCB/libs\l/librepcbprojecteditor\l/schematiceditor/fsm/ses\l_addnetlabel.cpp">
<polygon fill="white" stroke="black" points="1159.5,-0.5 1159.5,-73.5 1286.5,-73.5 1286.5,-0.5 1159.5,-0.5"/>
<text text-anchor="start" x="1167.5" y="-60.5" font-family="Helvetica,sans-Serif" font-size="10.00">/home/travis/build</text>
<text text-anchor="start" x="1167.5" y="-47.5" font-family="Helvetica,sans-Serif" font-size="10.00">/LibrePCB/LibrePCB/libs</text>
<text text-anchor="start" x="1167.5" y="-34.5" font-family="Helvetica,sans-Serif" font-size="10.00">/librepcbprojecteditor</text>
<text text-anchor="start" x="1167.5" y="-21.5" font-family="Helvetica,sans-Serif" font-size="10.00">/schematiceditor/fsm/ses</text>
<text text-anchor="middle" x="1223" y="-8.5" font-family="Helvetica,sans-Serif" font-size="10.00">_addnetlabel.cpp</text>
</a>
</g>
<!-- Node2&#45;&gt;Node10 -->
<g id="edge18" class="edge"><title>Node2&#45;&gt;Node10</title>
<path fill="none" stroke="midnightblue" d="M844.657,-134.331C923.692,-126.014 1048.19,-108.469 1151,-74 1153.8,-73.0618 1156.62,-72.0286 1159.45,-70.9222"/>
<polygon fill="midnightblue" stroke="midnightblue" points="843.882,-130.892 834.293,-135.396 844.598,-137.855 843.882,-130.892"/>
</g>
<!-- Node11 -->
<g id="node21" class="node"><title>Node11</title>
<a xlink:href="../../df/d6c/ses__drawwire_8cpp.html" target="_top" xlink:title="/home/travis/build\l/LibrePCB/LibrePCB/libs\l/librepcbprojecteditor\l/schematiceditor/fsm/ses\l_drawwire.cpp">
<polygon fill="white" stroke="black" points="1303.5,-0.5 1303.5,-73.5 1430.5,-73.5 1430.5,-0.5 1303.5,-0.5"/>
<text text-anchor="start" x="1311.5" y="-60.5" font-family="Helvetica,sans-Serif" font-size="10.00">/home/travis/build</text>
<text text-anchor="start" x="1311.5" y="-47.5" font-family="Helvetica,sans-Serif" font-size="10.00">/LibrePCB/LibrePCB/libs</text>
<text text-anchor="start" x="1311.5" y="-34.5" font-family="Helvetica,sans-Serif" font-size="10.00">/librepcbprojecteditor</text>
<text text-anchor="start" x="1311.5" y="-21.5" font-family="Helvetica,sans-Serif" font-size="10.00">/schematiceditor/fsm/ses</text>
<text text-anchor="middle" x="1367" y="-8.5" font-family="Helvetica,sans-Serif" font-size="10.00">_drawwire.cpp</text>
</a>
</g>
<!-- Node2&#45;&gt;Node11 -->
<g id="edge20" class="edge"><title>Node2&#45;&gt;Node11</title>
<path fill="none" stroke="midnightblue" d="M844.159,-134.461C970.23,-123.351 1212.67,-99.4988 1295,-74 1297.68,-73.1684 1300.39,-72.241 1303.1,-71.2377"/>
<polygon fill="midnightblue" stroke="midnightblue" points="843.834,-130.976 834.178,-135.336 844.445,-137.95 843.834,-130.976"/>
</g>
<!-- Node12 -->
<g id="node23" class="node"><title>Node12</title>
<a xlink:href="../../d5/d03/ses__select_8cpp.html" target="_top" xlink:title="/home/travis/build\l/LibrePCB/LibrePCB/libs\l/librepcbprojecteditor\l/schematiceditor/fsm/ses\l_select.cpp">
<polygon fill="white" stroke="black" points="1447.5,-0.5 1447.5,-73.5 1574.5,-73.5 1574.5,-0.5 1447.5,-0.5"/>
<text text-anchor="start" x="1455.5" y="-60.5" font-family="Helvetica,sans-Serif" font-size="10.00">/home/travis/build</text>
<text text-anchor="start" x="1455.5" y="-47.5" font-family="Helvetica,sans-Serif" font-size="10.00">/LibrePCB/LibrePCB/libs</text>
<text text-anchor="start" x="1455.5" y="-34.5" font-family="Helvetica,sans-Serif" font-size="10.00">/librepcbprojecteditor</text>
<text text-anchor="start" x="1455.5" y="-21.5" font-family="Helvetica,sans-Serif" font-size="10.00">/schematiceditor/fsm/ses</text>
<text text-anchor="middle" x="1511" y="-8.5" font-family="Helvetica,sans-Serif" font-size="10.00">_select.cpp</text>
</a>
</g>
<!-- Node2&#45;&gt;Node12 -->
<g id="edge22" class="edge"><title>Node2&#45;&gt;Node12</title>
<path fill="none" stroke="midnightblue" d="M844.251,-136.89C996.957,-128.266 1329.33,-106.366 1439,-74 1441.7,-73.2044 1444.41,-72.3073 1447.12,-71.3295"/>
<polygon fill="midnightblue" stroke="midnightblue" points="843.803,-133.41 834.014,-137.463 844.194,-140.399 843.803,-133.41"/>
</g>
</g>
</svg>
