<?xml version="1.0" encoding="UTF-8" standalone="no"?>
<!DOCTYPE svg PUBLIC "-//W3C//DTD SVG 1.1//EN"
 "http://www.w3.org/Graphics/SVG/1.1/DTD/svg11.dtd">
<!-- Generated by graphviz version 2.26.3 (20100126.1600)
 -->
<!-- Title: /home/travis/build/LibrePCB/LibrePCB/libs/librepcblibrary/cat/packagecategory.h Pages: 1 -->
<svg width="789pt" height="238pt"
 viewBox="0.00 0.00 789.00 238.00" xmlns="http://www.w3.org/2000/svg" xmlns:xlink="http://www.w3.org/1999/xlink">
<g id="graph1" class="graph" transform="scale(1 1) rotate(0) translate(4 234)">
<title>/home/travis/build/LibrePCB/LibrePCB/libs/librepcblibrary/cat/packagecategory.h</title>
<polygon fill="white" stroke="white" points="-4,5 -4,-234 786,-234 786,5 -4,5"/>
<!-- Node1 -->
<g id="node1" class="node"><title>Node1</title>
<polygon fill="#bfbfbf" stroke="black" points="302,-182.5 302,-229.5 484,-229.5 484,-182.5 302,-182.5"/>
<text text-anchor="start" x="310" y="-216.5" font-family="Helvetica,sans-Serif" font-size="10.00">/home/travis/build</text>
<text text-anchor="start" x="310" y="-203.5" font-family="Helvetica,sans-Serif" font-size="10.00">/LibrePCB/LibrePCB/libs</text>
<text text-anchor="middle" x="393" y="-190.5" font-family="Helvetica,sans-Serif" font-size="10.00">/librepcblibrary/cat/packagecategory.h</text>
</g>
<!-- Node2 -->
<g id="node3" class="node"><title>Node2</title>
<a xlink:href="../../d3/dca/categorytreeitem_8cpp.html" target="_top" xlink:title="/home/travis/build\l/LibrePCB/LibrePCB/libs\l/librepcblibrary/cat/categorytreeitem.cpp">
<polygon fill="white" stroke="black" points="-0.5,-98.5 -0.5,-145.5 190.5,-145.5 190.5,-98.5 -0.5,-98.5"/>
<text text-anchor="start" x="7.5" y="-132.5" font-family="Helvetica,sans-Serif" font-size="10.00">/home/travis/build</text>
<text text-anchor="start" x="7.5" y="-119.5" font-family="Helvetica,sans-Serif" font-size="10.00">/LibrePCB/LibrePCB/libs</text>
<text text-anchor="middle" x="95" y="-106.5" font-family="Helvetica,sans-Serif" font-size="10.00">/librepcblibrary/cat/categorytreeitem.cpp</text>
</a>
</g>
<!-- Node1&#45;&gt;Node2 -->
<g id="edge2" class="edge"><title>Node1&#45;&gt;Node2</title>
<path fill="none" stroke="midnightblue" d="M299.846,-179.742C260.969,-168.783 216.162,-156.153 178.386,-145.505"/>
<polygon fill="midnightblue" stroke="midnightblue" points="299.02,-183.145 309.594,-182.49 300.919,-176.408 299.02,-183.145"/>
</g>
<!-- Node3 -->
<g id="node5" class="node"><title>Node3</title>
<a xlink:href="../../de/d30/packagecategory_8cpp.html" target="_top" xlink:title="/home/travis/build\l/LibrePCB/LibrePCB/libs\l/librepcblibrary/cat/packagecategory.cpp">
<polygon fill="white" stroke="black" points="208,-98.5 208,-145.5 400,-145.5 400,-98.5 208,-98.5"/>
<text text-anchor="start" x="216" y="-132.5" font-family="Helvetica,sans-Serif" font-size="10.00">/home/travis/build</text>
<text text-anchor="start" x="216" y="-119.5" font-family="Helvetica,sans-Serif" font-size="10.00">/LibrePCB/LibrePCB/libs</text>
<text text-anchor="middle" x="304" y="-106.5" font-family="Helvetica,sans-Serif" font-size="10.00">/librepcblibrary/cat/packagecategory.cpp</text>
</a>
</g>
<!-- Node1&#45;&gt;Node3 -->
<g id="edge4" class="edge"><title>Node1&#45;&gt;Node3</title>
<path fill="none" stroke="midnightblue" d="M360.393,-175.225C350.038,-165.451 338.755,-154.802 329.021,-145.615"/>
<polygon fill="midnightblue" stroke="midnightblue" points="358.059,-177.835 367.734,-182.154 362.864,-172.744 358.059,-177.835"/>
</g>
<!-- Node4 -->
<g id="node7" class="node"><title>Node4</title>
<a xlink:href="../../de/d98/elements_8h.html" target="_top" xlink:title="/home/travis/build\l/LibrePCB/LibrePCB/libs\l/librepcblibrary/elements.h">
<polygon fill="white" stroke="black" points="417.5,-98.5 417.5,-145.5 548.5,-145.5 548.5,-98.5 417.5,-98.5"/>
<text text-anchor="start" x="425.5" y="-132.5" font-family="Helvetica,sans-Serif" font-size="10.00">/home/travis/build</text>
<text text-anchor="start" x="425.5" y="-119.5" font-family="Helvetica,sans-Serif" font-size="10.00">/LibrePCB/LibrePCB/libs</text>
<text text-anchor="middle" x="483" y="-106.5" font-family="Helvetica,sans-Serif" font-size="10.00">/librepcblibrary/elements.h</text>
</a>
</g>
<!-- Node1&#45;&gt;Node4 -->
<g id="edge6" class="edge"><title>Node1&#45;&gt;Node4</title>
<path fill="none" stroke="midnightblue" d="M425.973,-175.225C436.445,-165.451 447.855,-154.802 457.698,-145.615"/>
<polygon fill="midnightblue" stroke="midnightblue" points="423.472,-172.772 418.55,-182.154 428.248,-177.889 423.472,-172.772"/>
</g>
<!-- Node8 -->
<g id="node15" class="node"><title>Node8</title>
<a xlink:href="../../d7/d7d/library_8cpp.html" target="_top" xlink:title="/home/travis/build\l/LibrePCB/LibrePCB/libs\l/librepcblibrary/library.cpp">
<polygon fill="white" stroke="black" points="566,-98.5 566,-145.5 694,-145.5 694,-98.5 566,-98.5"/>
<text text-anchor="start" x="574" y="-132.5" font-family="Helvetica,sans-Serif" font-size="10.00">/home/travis/build</text>
<text text-anchor="start" x="574" y="-119.5" font-family="Helvetica,sans-Serif" font-size="10.00">/LibrePCB/LibrePCB/libs</text>
<text text-anchor="middle" x="630" y="-106.5" font-family="Helvetica,sans-Serif" font-size="10.00">/librepcblibrary/library.cpp</text>
</a>
</g>
<!-- Node1&#45;&gt;Node8 -->
<g id="edge14" class="edge"><title>Node1&#45;&gt;Node8</title>
<path fill="none" stroke="midnightblue" d="M468.861,-179.113C500.071,-168.051 535.835,-155.375 565.728,-144.78"/>
<polygon fill="midnightblue" stroke="midnightblue" points="467.589,-175.85 459.333,-182.49 469.928,-182.448 467.589,-175.85"/>
</g>
<!-- Node5 -->
<g id="node9" class="node"><title>Node5</title>
<a xlink:href="../../da/d6c/cmdprojectlibraryaddelement_8cpp.html" target="_top" xlink:title="/home/travis/build\l/LibrePCB/LibrePCB/libs\l/librepcbproject/library\l/cmd/cmdprojectlibraryaddelement.cpp">
<polygon fill="white" stroke="black" points="202.5,-1 202.5,-61 387.5,-61 387.5,-1 202.5,-1"/>
<text text-anchor="start" x="210.5" y="-48" font-family="Helvetica,sans-Serif" font-size="10.00">/home/travis/build</text>
<text text-anchor="start" x="210.5" y="-35" font-family="Helvetica,sans-Serif" font-size="10.00">/LibrePCB/LibrePCB/libs</text>
<text text-anchor="start" x="210.5" y="-22" font-family="Helvetica,sans-Serif" font-size="10.00">/librepcbproject/library</text>
<text text-anchor="middle" x="295" y="-9" font-family="Helvetica,sans-Serif" font-size="10.00">/cmd/cmdprojectlibraryaddelement.cpp</text>
</a>
</g>
<!-- Node4&#45;&gt;Node5 -->
<g id="edge8" class="edge"><title>Node4&#45;&gt;Node5</title>
<path fill="none" stroke="midnightblue" d="M425.069,-93.9588C403.542,-83.5391 379.041,-71.6795 357.153,-61.0845"/>
<polygon fill="midnightblue" stroke="midnightblue" points="423.57,-97.1218 434.096,-98.3284 426.62,-90.8211 423.57,-97.1218"/>
</g>
<!-- Node6 -->
<g id="node11" class="node"><title>Node6</title>
<a xlink:href="../../d7/d20/bes__select_8cpp.html" target="_top" xlink:title="/home/travis/build\l/LibrePCB/LibrePCB/libs\l/librepcbprojecteditor\l/boardeditor/fsm/bes_select.cpp">
<polygon fill="white" stroke="black" points="405,-1 405,-61 561,-61 561,-1 405,-1"/>
<text text-anchor="start" x="413" y="-48" font-family="Helvetica,sans-Serif" font-size="10.00">/home/travis/build</text>
<text text-anchor="start" x="413" y="-35" font-family="Helvetica,sans-Serif" font-size="10.00">/LibrePCB/LibrePCB/libs</text>
<text text-anchor="start" x="413" y="-22" font-family="Helvetica,sans-Serif" font-size="10.00">/librepcbprojecteditor</text>
<text text-anchor="middle" x="483" y="-9" font-family="Helvetica,sans-Serif" font-size="10.00">/boardeditor/fsm/bes_select.cpp</text>
</a>
</g>
<!-- Node4&#45;&gt;Node6 -->
<g id="edge10" class="edge"><title>Node4&#45;&gt;Node6</title>
<path fill="none" stroke="midnightblue" d="M483,-87.8357C483,-79.1098 483,-69.7898 483,-61.274"/>
<polygon fill="midnightblue" stroke="midnightblue" points="479.5,-88.0908 483,-98.0908 486.5,-88.0909 479.5,-88.0908"/>
</g>
<!-- Node7 -->
<g id="node13" class="node"><title>Node7</title>
<a xlink:href="../../de/dd2/unplacedcomponentsdock_8cpp.html" target="_top" xlink:title="/home/travis/build\l/LibrePCB/LibrePCB/libs\l/librepcbprojecteditor\l/boardeditor/unplacedcomponentsdock.cpp">
<polygon fill="white" stroke="black" points="578.5,-1 578.5,-61 781.5,-61 781.5,-1 578.5,-1"/>
<text text-anchor="start" x="586.5" y="-48" font-family="Helvetica,sans-Serif" font-size="10.00">/home/travis/build</text>
<text text-anchor="start" x="586.5" y="-35" font-family="Helvetica,sans-Serif" font-size="10.00">/LibrePCB/LibrePCB/libs</text>
<text text-anchor="start" x="586.5" y="-22" font-family="Helvetica,sans-Serif" font-size="10.00">/librepcbprojecteditor</text>
<text text-anchor="middle" x="680" y="-9" font-family="Helvetica,sans-Serif" font-size="10.00">/boardeditor/unplacedcomponentsdock.cpp</text>
</a>
</g>
<!-- Node4&#45;&gt;Node7 -->
<g id="edge12" class="edge"><title>Node4&#45;&gt;Node7</title>
<path fill="none" stroke="midnightblue" d="M543.148,-94.2159C565.787,-83.7584 591.629,-71.8212 614.714,-61.1575"/>
<polygon fill="midnightblue" stroke="midnightblue" points="541.599,-91.0759 533.989,-98.4469 544.535,-97.4307 541.599,-91.0759"/>
</g>
</g>
</svg>
