<?xml version="1.0" encoding="UTF-8" standalone="no"?>
<!DOCTYPE svg PUBLIC "-//W3C//DTD SVG 1.1//EN"
 "http://www.w3.org/Graphics/SVG/1.1/DTD/svg11.dtd">
<!-- Generated by graphviz version 2.26.3 (20100126.1600)
 -->
<!-- Title: getAppLocale Pages: 1 -->
<svg width="262pt" height="94pt"
 viewBox="0.00 0.00 262.00 94.00" xmlns="http://www.w3.org/2000/svg" xmlns:xlink="http://www.w3.org/1999/xlink">
<g id="graph1" class="graph" transform="scale(1 1) rotate(0) translate(4 90)">
<title>getAppLocale</title>
<polygon fill="white" stroke="white" points="-4,5 -4,-90 259,-90 259,5 -4,5"/>
<!-- Node1 -->
<g id="node1" class="node"><title>Node1</title>
<polygon fill="#bfbfbf" stroke="black" points="0,-32.5 0,-53.5 76,-53.5 76,-32.5 0,-32.5"/>
<text text-anchor="middle" x="38" y="-40.5" font-family="Helvetica,sans-Serif" font-size="10.00">getAppLocale</text>
</g>
<!-- Node2 -->
<g id="node3" class="node"><title>Node2</title>
<a xlink:href="../../d1/d5c/class_workspace_settings_dialog.html#a2cbd20dced2ae525d3592190ec1772a9" target="_top" xlink:title="WorkspaceSettingsDialog\l::WorkspaceSettingsDialog">
<polygon fill="white" stroke="black" points="115,-52 115,-86 251,-86 251,-52 115,-52"/>
<text text-anchor="start" x="123" y="-73" font-family="Helvetica,sans-Serif" font-size="10.00">WorkspaceSettingsDialog</text>
<text text-anchor="middle" x="183" y="-60" font-family="Helvetica,sans-Serif" font-size="10.00">::WorkspaceSettingsDialog</text>
</a>
</g>
<!-- Node1&#45;&gt;Node2 -->
<g id="edge2" class="edge"><title>Node1&#45;&gt;Node2</title>
<path fill="none" stroke="midnightblue" d="M86.196,-51.642C95.3958,-53.2917 105.186,-55.0471 114.872,-56.7839"/>
<polygon fill="midnightblue" stroke="midnightblue" points="86.5578,-48.1512 76.097,-49.8312 85.3223,-55.0413 86.5578,-48.1512"/>
</g>
<!-- Node3 -->
<g id="node5" class="node"><title>Node3</title>
<a xlink:href="../../d1/d5c/class_workspace_settings_dialog.html#a70ce51ebbe1016328bceb03c6869cac5" target="_top" xlink:title="WorkspaceSettingsDialog\l::~WorkspaceSettingsDialog">
<polygon fill="white" stroke="black" points="112,-0 112,-34 254,-34 254,-0 112,-0"/>
<text text-anchor="start" x="120" y="-21" font-family="Helvetica,sans-Serif" font-size="10.00">WorkspaceSettingsDialog</text>
<text text-anchor="middle" x="183" y="-8" font-family="Helvetica,sans-Serif" font-size="10.00">::~WorkspaceSettingsDialog</text>
</a>
</g>
<!-- Node1&#45;&gt;Node3 -->
<g id="edge4" class="edge"><title>Node1&#45;&gt;Node3</title>
<path fill="none" stroke="midnightblue" d="M86.2127,-34.355C94.4267,-32.8821 103.111,-31.3249 111.771,-29.7721"/>
<polygon fill="midnightblue" stroke="midnightblue" points="85.3223,-30.9587 76.097,-36.1688 86.5578,-37.8488 85.3223,-30.9587"/>
</g>
</g>
</svg>
