<?xml version="1.0" encoding="UTF-8" standalone="no"?>
<!DOCTYPE svg PUBLIC "-//W3C//DTD SVG 1.1//EN"
 "http://www.w3.org/Graphics/SVG/1.1/DTD/svg11.dtd">
<!-- Generated by graphviz version 2.26.3 (20100126.1600)
 -->
<!-- Title: /home/travis/build/LibrePCB/LibrePCB/libs/librepcbproject/schematics/items/si_base.h Pages: 1 -->
<svg width="274pt" height="374pt"
 viewBox="0.00 0.00 274.00 374.00" xmlns="http://www.w3.org/2000/svg" xmlns:xlink="http://www.w3.org/1999/xlink">
<g id="graph1" class="graph" transform="scale(1 1) rotate(0) translate(4 370)">
<title>/home/travis/build/LibrePCB/LibrePCB/libs/librepcbproject/schematics/items/si_base.h</title>
<polygon fill="white" stroke="white" points="-4,5 -4,-370 271,-370 271,5 -4,5"/>
<!-- Node1 -->
<g id="node1" class="node"><title>Node1</title>
<polygon fill="#bfbfbf" stroke="black" points="47,-305 47,-365 183,-365 183,-305 47,-305"/>
<text text-anchor="start" x="55" y="-352" font-family="Helvetica,sans-Serif" font-size="10.00">/home/travis/build</text>
<text text-anchor="start" x="55" y="-339" font-family="Helvetica,sans-Serif" font-size="10.00">/LibrePCB/LibrePCB/libs</text>
<text text-anchor="start" x="55" y="-326" font-family="Helvetica,sans-Serif" font-size="10.00">/librepcbproject/schematics</text>
<text text-anchor="middle" x="115" y="-313" font-family="Helvetica,sans-Serif" font-size="10.00">/items/si_base.h</text>
</g>
<!-- Node2 -->
<g id="node3" class="node"><title>Node2</title>
<polygon fill="white" stroke="#bfbfbf" points="71,-0.5 71,-21.5 119,-21.5 119,-0.5 71,-0.5"/>
<text text-anchor="middle" x="95" y="-8.5" font-family="Helvetica,sans-Serif" font-size="10.00">QtCore</text>
</g>
<!-- Node1&#45;&gt;Node2 -->
<g id="edge2" class="edge"><title>Node1&#45;&gt;Node2</title>
<path fill="none" stroke="midnightblue" d="M72.505,-304.734C39.7458,-277.547 0,-234.386 0,-185 0,-185 0,-185 0,-127 0,-83.5461 40.3953,-47.4386 68.5037,-27.5737"/>
<polygon fill="midnightblue" stroke="midnightblue" points="70.8306,-30.224 77.1312,-21.7061 66.894,-24.4357 70.8306,-30.224"/>
</g>
<!-- Node3 -->
<g id="node5" class="node"><title>Node3</title>
<polygon fill="white" stroke="#bfbfbf" points="188.5,-239.5 188.5,-260.5 251.5,-260.5 251.5,-239.5 188.5,-239.5"/>
<text text-anchor="middle" x="220" y="-247.5" font-family="Helvetica,sans-Serif" font-size="10.00">QtWidgets</text>
</g>
<!-- Node1&#45;&gt;Node3 -->
<g id="edge4" class="edge"><title>Node1&#45;&gt;Node3</title>
<path fill="none" stroke="midnightblue" d="M152.315,-304.793C167.788,-292.267 185.187,-278.182 198.469,-267.43"/>
<polygon fill="midnightblue" stroke="midnightblue" points="200.971,-269.907 206.542,-260.895 196.567,-264.467 200.971,-269.907"/>
</g>
<!-- Node4 -->
<g id="node7" class="node"><title>Node4</title>
<a xlink:href="../../d1/da8/all__length__units_8h.html" target="_top" xlink:title="librepcbcommon/units\l/all_length_units.h">
<polygon fill="white" stroke="black" points="59,-233 59,-267 171,-267 171,-233 59,-233"/>
<text text-anchor="start" x="67" y="-254" font-family="Helvetica,sans-Serif" font-size="10.00">librepcbcommon/units</text>
<text text-anchor="middle" x="115" y="-241" font-family="Helvetica,sans-Serif" font-size="10.00">/all_length_units.h</text>
</a>
</g>
<!-- Node1&#45;&gt;Node4 -->
<g id="edge6" class="edge"><title>Node1&#45;&gt;Node4</title>
<path fill="none" stroke="midnightblue" d="M115,-304.793C115,-295.837 115,-286.084 115,-277.322"/>
<polygon fill="midnightblue" stroke="midnightblue" points="118.5,-277.246 115,-267.246 111.5,-277.246 118.5,-277.246"/>
</g>
<!-- Node5 -->
<g id="node9" class="node"><title>Node5</title>
<a xlink:href="../../d0/d09/lengthunit_8h.html" target="_top" xlink:title="lengthunit.h">
<polygon fill="white" stroke="black" points="133.5,-116.5 133.5,-137.5 200.5,-137.5 200.5,-116.5 133.5,-116.5"/>
<text text-anchor="middle" x="167" y="-124.5" font-family="Helvetica,sans-Serif" font-size="10.00">lengthunit.h</text>
</a>
</g>
<!-- Node4&#45;&gt;Node5 -->
<g id="edge8" class="edge"><title>Node4&#45;&gt;Node5</title>
<path fill="none" stroke="midnightblue" d="M122.23,-232.897C131.711,-210.472 148.321,-171.183 158.425,-147.283"/>
<polygon fill="midnightblue" stroke="midnightblue" points="161.769,-148.361 162.439,-137.787 155.322,-145.635 161.769,-148.361"/>
</g>
<!-- Node7 -->
<g id="node15" class="node"><title>Node7</title>
<a xlink:href="../../dd/db9/length_8h.html" target="_top" xlink:title="length.h">
<polygon fill="white" stroke="black" points="65.5,-116.5 65.5,-137.5 116.5,-137.5 116.5,-116.5 65.5,-116.5"/>
<text text-anchor="middle" x="91" y="-124.5" font-family="Helvetica,sans-Serif" font-size="10.00">length.h</text>
</a>
</g>
<!-- Node4&#45;&gt;Node7 -->
<g id="edge16" class="edge"><title>Node4&#45;&gt;Node7</title>
<path fill="none" stroke="midnightblue" d="M111.663,-232.897C107.307,-210.573 99.6898,-171.535 95.0205,-147.605"/>
<polygon fill="midnightblue" stroke="midnightblue" points="98.4553,-146.932 93.1049,-137.787 91.5848,-148.273 98.4553,-146.932"/>
</g>
<!-- Node8 -->
<g id="node19" class="node"><title>Node8</title>
<a xlink:href="../../d2/d91/point_8h.html" target="_top" xlink:title="point.h">
<polygon fill="white" stroke="black" points="41,-174.5 41,-195.5 87,-195.5 87,-174.5 41,-174.5"/>
<text text-anchor="middle" x="64" y="-182.5" font-family="Helvetica,sans-Serif" font-size="10.00">point.h</text>
</a>
</g>
<!-- Node4&#45;&gt;Node8 -->
<g id="edge22" class="edge"><title>Node4&#45;&gt;Node8</title>
<path fill="none" stroke="midnightblue" d="M101.6,-232.922C94.6225,-224.029 86.0709,-213.13 78.8871,-203.974"/>
<polygon fill="midnightblue" stroke="midnightblue" points="81.4412,-201.559 72.5147,-195.852 75.934,-205.88 81.4412,-201.559"/>
</g>
<!-- Node9 -->
<g id="node23" class="node"><title>Node9</title>
<a xlink:href="../../da/dac/angle_8h.html" target="_top" xlink:title="angle.h">
<polygon fill="white" stroke="black" points="218,-116.5 218,-137.5 266,-137.5 266,-116.5 218,-116.5"/>
<text text-anchor="middle" x="242" y="-124.5" font-family="Helvetica,sans-Serif" font-size="10.00">angle.h</text>
</a>
</g>
<!-- Node4&#45;&gt;Node9 -->
<g id="edge28" class="edge"><title>Node4&#45;&gt;Node9</title>
<path fill="none" stroke="midnightblue" d="M132.659,-232.897C156.644,-209.668 199.313,-168.342 223.651,-144.771"/>
<polygon fill="midnightblue" stroke="midnightblue" points="226.113,-147.259 230.862,-137.787 221.243,-142.23 226.113,-147.259"/>
</g>
<!-- Node5&#45;&gt;Node2 -->
<g id="edge10" class="edge"><title>Node5&#45;&gt;Node2</title>
<path fill="none" stroke="midnightblue" d="M158.782,-116.434C151.644,-107.075 141.194,-92.9302 133,-80 122.751,-63.826 112.345,-44.7037 105.021,-30.6964"/>
<polygon fill="midnightblue" stroke="midnightblue" points="107.978,-28.7942 100.278,-21.5163 101.759,-32.0072 107.978,-28.7942"/>
</g>
<!-- Node6 -->
<g id="node12" class="node"><title>Node6</title>
<a xlink:href="../../d4/d03/exceptions_8h.html" target="_top" xlink:title="../exceptions.h">
<polygon fill="white" stroke="black" points="141.5,-58.5 141.5,-79.5 222.5,-79.5 222.5,-58.5 141.5,-58.5"/>
<text text-anchor="middle" x="182" y="-66.5" font-family="Helvetica,sans-Serif" font-size="10.00">../exceptions.h</text>
</a>
</g>
<!-- Node5&#45;&gt;Node6 -->
<g id="edge12" class="edge"><title>Node5&#45;&gt;Node6</title>
<path fill="none" stroke="midnightblue" d="M169.751,-116.362C171.697,-108.84 174.366,-98.5187 176.716,-89.4308"/>
<polygon fill="midnightblue" stroke="midnightblue" points="180.151,-90.1285 179.266,-79.5707 173.374,-88.3758 180.151,-90.1285"/>
</g>
<!-- Node6&#45;&gt;Node2 -->
<g id="edge14" class="edge"><title>Node6&#45;&gt;Node2</title>
<path fill="none" stroke="midnightblue" d="M166.043,-58.3619C153.043,-49.6955 134.469,-37.3126 119.573,-27.3819"/>
<polygon fill="midnightblue" stroke="midnightblue" points="121.118,-24.2055 110.856,-21.5707 117.235,-30.0299 121.118,-24.2055"/>
</g>
<!-- Node7&#45;&gt;Node2 -->
<g id="edge18" class="edge"><title>Node7&#45;&gt;Node2</title>
<path fill="none" stroke="midnightblue" d="M91.3691,-116.295C92.03,-97.1314 93.4257,-56.654 94.2813,-31.8434"/>
<polygon fill="midnightblue" stroke="midnightblue" points="97.785,-31.7939 94.6318,-21.6792 90.7891,-31.5526 97.785,-31.7939"/>
</g>
<!-- Node7&#45;&gt;Node6 -->
<g id="edge20" class="edge"><title>Node7&#45;&gt;Node6</title>
<path fill="none" stroke="midnightblue" d="M107.691,-116.362C121.416,-107.614 141.084,-95.0786 156.737,-85.1015"/>
<polygon fill="midnightblue" stroke="midnightblue" points="158.863,-87.8969 165.415,-79.5707 155.101,-81.994 158.863,-87.8969"/>
</g>
<!-- Node8&#45;&gt;Node2 -->
<g id="edge24" class="edge"><title>Node8&#45;&gt;Node2</title>
<path fill="none" stroke="midnightblue" d="M61.9314,-174.224C60.2203,-164.73 57.9261,-150.505 57,-138 56.2778,-128.249 55.3109,-125.631 57,-116 62.3861,-85.2902 76.0025,-51.7251 85.3823,-31.0127"/>
<polygon fill="midnightblue" stroke="midnightblue" points="88.6739,-32.2347 89.7136,-21.691 82.3257,-29.2851 88.6739,-32.2347"/>
</g>
<!-- Node8&#45;&gt;Node7 -->
<g id="edge26" class="edge"><title>Node8&#45;&gt;Node7</title>
<path fill="none" stroke="midnightblue" d="M68.9522,-174.362C72.5298,-166.677 77.4681,-156.069 81.7642,-146.84"/>
<polygon fill="midnightblue" stroke="midnightblue" points="85.0319,-148.114 86.0792,-137.571 78.6858,-145.159 85.0319,-148.114"/>
</g>
<!-- Node9&#45;&gt;Node2 -->
<g id="edge30" class="edge"><title>Node9&#45;&gt;Node2</title>
<path fill="none" stroke="midnightblue" d="M243.424,-116.293C244.775,-101.439 244.878,-74.5414 231,-58 217.738,-42.1929 164.962,-27.2154 129.19,-18.5789"/>
<polygon fill="midnightblue" stroke="midnightblue" points="129.684,-15.0996 119.148,-16.212 128.078,-21.9129 129.684,-15.0996"/>
</g>
<!-- Node9&#45;&gt;Node6 -->
<g id="edge32" class="edge"><title>Node9&#45;&gt;Node6</title>
<path fill="none" stroke="midnightblue" d="M230.995,-116.362C222.453,-108.104 210.42,-96.4725 200.417,-86.8029"/>
<polygon fill="midnightblue" stroke="midnightblue" points="202.558,-84.0044 192.935,-79.5707 197.692,-89.0374 202.558,-84.0044"/>
</g>
</g>
</svg>
