<?xml version="1.0" encoding="UTF-8" standalone="no"?>
<!DOCTYPE svg PUBLIC "-//W3C//DTD SVG 1.1//EN"
 "http://www.w3.org/Graphics/SVG/1.1/DTD/svg11.dtd">
<!-- Generated by graphviz version 2.26.3 (20100126.1600)
 -->
<!-- Title: /home/travis/build/LibrePCB/LibrePCB/libs/librepcblibrary/librarybaseelement.cpp Pages: 1 -->
<svg width="735pt" height="330pt"
 viewBox="0.00 0.00 735.10 330.00" xmlns="http://www.w3.org/2000/svg" xmlns:xlink="http://www.w3.org/1999/xlink">
<g id="graph1" class="graph" transform="scale(1 1) rotate(0) translate(4 326)">
<title>/home/travis/build/LibrePCB/LibrePCB/libs/librepcblibrary/librarybaseelement.cpp</title>
<polygon fill="white" stroke="white" points="-4,5 -4,-326 732.102,-326 732.102,5 -4,5"/>
<!-- Node1 -->
<g id="node1" class="node"><title>Node1</title>
<polygon fill="#bfbfbf" stroke="black" points="422.691,-274.5 422.691,-321.5 605.691,-321.5 605.691,-274.5 422.691,-274.5"/>
<text text-anchor="start" x="430.691" y="-308.5" font-family="Helvetica,sans-Serif" font-size="10.00">/home/travis/build</text>
<text text-anchor="start" x="430.691" y="-295.5" font-family="Helvetica,sans-Serif" font-size="10.00">/LibrePCB/LibrePCB/libs</text>
<text text-anchor="middle" x="514.191" y="-282.5" font-family="Helvetica,sans-Serif" font-size="10.00">/librepcblibrary/librarybaseelement.cpp</text>
</g>
<!-- Node2 -->
<g id="node3" class="node"><title>Node2</title>
<polygon fill="white" stroke="#bfbfbf" points="294.191,-0.5 294.191,-21.5 342.191,-21.5 342.191,-0.5 294.191,-0.5"/>
<text text-anchor="middle" x="318.191" y="-8.5" font-family="Helvetica,sans-Serif" font-size="10.00">QtCore</text>
</g>
<!-- Node1&#45;&gt;Node2 -->
<g id="edge2" class="edge"><title>Node1&#45;&gt;Node2</title>
<path fill="none" stroke="midnightblue" d="M575.777,-274.349C620.915,-253.363 678.885,-217.91 706.191,-166 728.537,-123.519 738.026,-93.924 706.191,-58 682.869,-31.6828 442.915,-17.169 352.451,-12.5987"/>
<polygon fill="midnightblue" stroke="midnightblue" points="352.592,-9.10153 342.431,-12.1025 352.245,-16.093 352.592,-9.10153"/>
</g>
<!-- Node3 -->
<g id="node5" class="node"><title>Node3</title>
<a xlink:href="../../de/dd7/librarybaseelement_8h.html" target="_top" xlink:title="librarybaseelement.h">
<polygon fill="white" stroke="black" points="211.691,-209.5 211.691,-230.5 318.691,-230.5 318.691,-209.5 211.691,-209.5"/>
<text text-anchor="middle" x="265.191" y="-217.5" font-family="Helvetica,sans-Serif" font-size="10.00">librarybaseelement.h</text>
</a>
</g>
<!-- Node1&#45;&gt;Node3 -->
<g id="edge4" class="edge"><title>Node1&#45;&gt;Node3</title>
<path fill="none" stroke="midnightblue" d="M439.145,-274.492C396.475,-261.125 344.55,-244.86 308.597,-233.597"/>
<polygon fill="midnightblue" stroke="midnightblue" points="309.49,-230.209 298.901,-230.56 307.397,-236.889 309.49,-230.209"/>
</g>
<!-- Node9 -->
<g id="node21" class="node"><title>Node9</title>
<a xlink:href="../../d9/d10/smartxmlfile_8h.html" target="_top" xlink:title="librepcbcommon/fileio\l/smartxmlfile.h">
<polygon fill="white" stroke="black" points="62.6911,-203 62.6911,-237 173.691,-237 173.691,-203 62.6911,-203"/>
<text text-anchor="start" x="70.6911" y="-224" font-family="Helvetica,sans-Serif" font-size="10.00">librepcbcommon/fileio</text>
<text text-anchor="middle" x="118.191" y="-211" font-family="Helvetica,sans-Serif" font-size="10.00">/smartxmlfile.h</text>
</a>
</g>
<!-- Node1&#45;&gt;Node9 -->
<g id="edge24" class="edge"><title>Node1&#45;&gt;Node9</title>
<path fill="none" stroke="midnightblue" d="M422.59,-280.779C360.6,-269.014 276.895,-252.912 203.191,-238 196.982,-236.744 190.522,-235.415 184.061,-234.072"/>
<polygon fill="midnightblue" stroke="midnightblue" points="184.447,-230.577 173.942,-231.957 183.015,-237.429 184.447,-230.577"/>
</g>
<!-- Node11 -->
<g id="node29" class="node"><title>Node11</title>
<a xlink:href="../../d8/d67/xmldomdocument_8h.html" target="_top" xlink:title="librepcbcommon/fileio\l/xmldomdocument.h">
<polygon fill="white" stroke="black" points="458.691,-131 458.691,-165 569.691,-165 569.691,-131 458.691,-131"/>
<text text-anchor="start" x="466.691" y="-152" font-family="Helvetica,sans-Serif" font-size="10.00">librepcbcommon/fileio</text>
<text text-anchor="middle" x="514.191" y="-139" font-family="Helvetica,sans-Serif" font-size="10.00">/xmldomdocument.h</text>
</a>
</g>
<!-- Node1&#45;&gt;Node11 -->
<g id="edge36" class="edge"><title>Node1&#45;&gt;Node11</title>
<path fill="none" stroke="midnightblue" d="M514.191,-274.232C514.191,-247.276 514.191,-203.405 514.191,-175.13"/>
<polygon fill="midnightblue" stroke="midnightblue" points="517.691,-175.125 514.191,-165.125 510.691,-175.125 517.691,-175.125"/>
</g>
<!-- Node13 -->
<g id="node36" class="node"><title>Node13</title>
<a xlink:href="../../d1/d68/xmldomelement_8h.html" target="_top" xlink:title="librepcbcommon/fileio\l/xmldomelement.h">
<polygon fill="white" stroke="black" points="586.691,-131 586.691,-165 697.691,-165 697.691,-131 586.691,-131"/>
<text text-anchor="start" x="594.691" y="-152" font-family="Helvetica,sans-Serif" font-size="10.00">librepcbcommon/fileio</text>
<text text-anchor="middle" x="642.191" y="-139" font-family="Helvetica,sans-Serif" font-size="10.00">/xmldomelement.h</text>
</a>
</g>
<!-- Node1&#45;&gt;Node13 -->
<g id="edge46" class="edge"><title>Node1&#45;&gt;Node13</title>
<path fill="none" stroke="midnightblue" d="M534.473,-274.232C558.084,-246.563 596.901,-201.074 620.925,-172.921"/>
<polygon fill="midnightblue" stroke="midnightblue" points="623.749,-175.004 627.578,-165.125 618.424,-170.46 623.749,-175.004"/>
</g>
<!-- Node4 -->
<g id="node7" class="node"><title>Node4</title>
<polygon fill="white" stroke="#bfbfbf" points="204.691,-137.5 204.691,-158.5 257.691,-158.5 257.691,-137.5 204.691,-137.5"/>
<text text-anchor="middle" x="231.191" y="-145.5" font-family="Helvetica,sans-Serif" font-size="10.00">QObject</text>
</g>
<!-- Node3&#45;&gt;Node4 -->
<g id="edge6" class="edge"><title>Node3&#45;&gt;Node4</title>
<path fill="none" stroke="midnightblue" d="M260.174,-209.376C255.052,-198.528 246.976,-181.426 240.648,-168.027"/>
<polygon fill="midnightblue" stroke="midnightblue" points="243.663,-166.215 236.228,-158.667 237.334,-169.204 243.663,-166.215"/>
</g>
<!-- Node5 -->
<g id="node9" class="node"><title>Node5</title>
<a xlink:href="../../d0/d1d/if__xmlserializableobject_8h.html" target="_top" xlink:title="librepcbcommon/fileio\l/if_xmlserializableobject.h">
<polygon fill="white" stroke="black" points="312.691,-131 312.691,-165 441.691,-165 441.691,-131 312.691,-131"/>
<text text-anchor="start" x="320.691" y="-152" font-family="Helvetica,sans-Serif" font-size="10.00">librepcbcommon/fileio</text>
<text text-anchor="middle" x="377.191" y="-139" font-family="Helvetica,sans-Serif" font-size="10.00">/if_xmlserializableobject.h</text>
</a>
</g>
<!-- Node3&#45;&gt;Node5 -->
<g id="edge8" class="edge"><title>Node3&#45;&gt;Node5</title>
<path fill="none" stroke="midnightblue" d="M281.717,-209.376C297.513,-199.222 321.833,-183.587 341.974,-170.639"/>
<polygon fill="midnightblue" stroke="midnightblue" points="344.081,-173.446 350.6,-165.094 340.295,-167.558 344.081,-173.446"/>
</g>
<!-- Node6 -->
<g id="node11" class="node"><title>Node6</title>
<a xlink:href="../../d4/d03/exceptions_8h.html" target="_top" xlink:title="../exceptions.h">
<polygon fill="white" stroke="black" points="334.691,-65.5 334.691,-86.5 415.691,-86.5 415.691,-65.5 334.691,-65.5"/>
<text text-anchor="middle" x="375.191" y="-73.5" font-family="Helvetica,sans-Serif" font-size="10.00">../exceptions.h</text>
</a>
</g>
<!-- Node3&#45;&gt;Node6 -->
<g id="edge14" class="edge"><title>Node3&#45;&gt;Node6</title>
<path fill="none" stroke="midnightblue" d="M267.882,-209.372C272.792,-191.534 284.548,-155.064 304.191,-130 316.137,-114.758 333.353,-101.522 347.84,-91.9691"/>
<polygon fill="midnightblue" stroke="midnightblue" points="349.87,-94.8264 356.436,-86.512 346.118,-88.9166 349.87,-94.8264"/>
</g>
<!-- Node7 -->
<g id="node15" class="node"><title>Node7</title>
<a xlink:href="../../dd/dec/filepath_8h.html" target="_top" xlink:title="librepcbcommon/fileio\l/filepath.h">
<polygon fill="white" stroke="black" points="206.691,-59 206.691,-93 317.691,-93 317.691,-59 206.691,-59"/>
<text text-anchor="start" x="214.691" y="-80" font-family="Helvetica,sans-Serif" font-size="10.00">librepcbcommon/fileio</text>
<text text-anchor="middle" x="262.191" y="-67" font-family="Helvetica,sans-Serif" font-size="10.00">/filepath.h</text>
</a>
</g>
<!-- Node3&#45;&gt;Node7 -->
<g id="edge16" class="edge"><title>Node3&#45;&gt;Node7</title>
<path fill="none" stroke="midnightblue" d="M242.635,-209.343C226.418,-200.316 205.785,-185.692 196.191,-166 189.183,-151.616 189.339,-144.459 196.191,-130 202.001,-117.74 212.109,-107.337 222.693,-99.0337"/>
<polygon fill="midnightblue" stroke="midnightblue" points="224.808,-101.823 230.816,-93.0971 220.677,-96.1717 224.808,-101.823"/>
</g>
<!-- Node8 -->
<g id="node18" class="node"><title>Node8</title>
<a xlink:href="../../df/dfc/version_8h.html" target="_top" xlink:title="librepcbcommon/version.h">
<polygon fill="white" stroke="black" points="20.6911,-65.5 20.6911,-86.5 151.691,-86.5 151.691,-65.5 20.6911,-65.5"/>
<text text-anchor="middle" x="86.1911" y="-73.5" font-family="Helvetica,sans-Serif" font-size="10.00">librepcbcommon/version.h</text>
</a>
</g>
<!-- Node3&#45;&gt;Node8 -->
<g id="edge20" class="edge"><title>Node3&#45;&gt;Node8</title>
<path fill="none" stroke="midnightblue" d="M218.052,-209.482C165.52,-197.289 86.7725,-177.41 78.1911,-166 63.0963,-145.93 70.0097,-115.764 77.3083,-95.9795"/>
<polygon fill="midnightblue" stroke="midnightblue" points="80.561,-97.2717 81.0455,-86.688 74.0666,-94.6595 80.561,-97.2717"/>
</g>
<!-- Node5&#45;&gt;Node6 -->
<g id="edge10" class="edge"><title>Node5&#45;&gt;Node6</title>
<path fill="none" stroke="midnightblue" d="M376.717,-130.937C376.436,-120.814 376.077,-107.898 375.778,-97.1329"/>
<polygon fill="midnightblue" stroke="midnightblue" points="379.27,-96.8 375.494,-86.901 372.273,-96.9944 379.27,-96.8"/>
</g>
<!-- Node6&#45;&gt;Node2 -->
<g id="edge12" class="edge"><title>Node6&#45;&gt;Node2</title>
<path fill="none" stroke="midnightblue" d="M365.779,-65.2666C357.229,-55.5173 344.439,-40.9317 334.271,-29.3365"/>
<polygon fill="midnightblue" stroke="midnightblue" points="336.653,-26.7447 327.428,-21.5337 331.39,-31.36 336.653,-26.7447"/>
</g>
<!-- Node7&#45;&gt;Node2 -->
<g id="edge18" class="edge"><title>Node7&#45;&gt;Node2</title>
<path fill="none" stroke="midnightblue" d="M276.904,-58.922C284.645,-49.937 294.15,-38.9047 302.088,-29.6912"/>
<polygon fill="midnightblue" stroke="midnightblue" points="304.966,-31.7127 308.842,-21.8521 299.663,-27.1437 304.966,-31.7127"/>
</g>
<!-- Node8&#45;&gt;Node2 -->
<g id="edge22" class="edge"><title>Node8&#45;&gt;Node2</title>
<path fill="none" stroke="midnightblue" d="M123.724,-65.4844C168.127,-53.0437 241.408,-32.5124 284.203,-20.5224"/>
<polygon fill="midnightblue" stroke="midnightblue" points="285.192,-23.8802 293.877,-17.812 283.304,-17.1397 285.192,-23.8802"/>
</g>
<!-- Node9&#45;&gt;Node2 -->
<g id="edge26" class="edge"><title>Node9&#45;&gt;Node2</title>
<path fill="none" stroke="midnightblue" d="M92.3947,-202.913C49.1369,-172.225 -29.3963,-106.463 12.1911,-58 29.7416,-37.548 207.619,-20.2935 283.83,-13.78"/>
<polygon fill="midnightblue" stroke="midnightblue" points="284.211,-17.2604 293.882,-12.933 283.623,-10.2851 284.211,-17.2604"/>
</g>
<!-- Node10 -->
<g id="node24" class="node"><title>Node10</title>
<a xlink:href="../../d3/d9d/smartfile_8h.html" target="_top" xlink:title="smartfile.h">
<polygon fill="white" stroke="black" points="87.1911,-137.5 87.1911,-158.5 149.191,-158.5 149.191,-137.5 87.1911,-137.5"/>
<text text-anchor="middle" x="118.191" y="-145.5" font-family="Helvetica,sans-Serif" font-size="10.00">smartfile.h</text>
</a>
</g>
<!-- Node9&#45;&gt;Node10 -->
<g id="edge28" class="edge"><title>Node9&#45;&gt;Node10</title>
<path fill="none" stroke="midnightblue" d="M118.191,-202.937C118.191,-192.814 118.191,-179.898 118.191,-169.133"/>
<polygon fill="midnightblue" stroke="midnightblue" points="121.691,-168.901 118.191,-158.901 114.691,-168.901 121.691,-168.901"/>
</g>
<!-- Node10&#45;&gt;Node2 -->
<g id="edge30" class="edge"><title>Node10&#45;&gt;Node2</title>
<path fill="none" stroke="midnightblue" d="M126.545,-137.416C143.418,-116.248 181.384,-69.7152 198.191,-58 224.487,-39.6709 258.932,-27.1373 284.171,-19.6528"/>
<polygon fill="midnightblue" stroke="midnightblue" points="285.373,-22.9495 294.033,-16.8448 283.456,-16.2171 285.373,-22.9495"/>
</g>
<!-- Node10&#45;&gt;Node6 -->
<g id="edge32" class="edge"><title>Node10&#45;&gt;Node6</title>
<path fill="none" stroke="midnightblue" d="M149.471,-140.891C190.408,-131.357 264.232,-113.372 326.191,-94 330.181,-92.7526 334.324,-91.3703 338.435,-89.9423"/>
<polygon fill="midnightblue" stroke="midnightblue" points="339.642,-93.2278 347.883,-86.5692 337.288,-86.6353 339.642,-93.2278"/>
</g>
<!-- Node10&#45;&gt;Node7 -->
<g id="edge34" class="edge"><title>Node10&#45;&gt;Node7</title>
<path fill="none" stroke="midnightblue" d="M139.439,-137.376C160.294,-126.949 192.707,-110.742 218.99,-97.6004"/>
<polygon fill="midnightblue" stroke="midnightblue" points="220.623,-100.697 228.002,-93.0944 217.493,-94.4361 220.623,-100.697"/>
</g>
<!-- Node11&#45;&gt;Node2 -->
<g id="edge38" class="edge"><title>Node11&#45;&gt;Node2</title>
<path fill="none" stroke="midnightblue" d="M525.057,-130.802C535.973,-111.102 548.968,-78.8609 532.191,-58 510.066,-30.4886 407.513,-18.163 352.8,-13.4655"/>
<polygon fill="midnightblue" stroke="midnightblue" points="352.786,-9.95271 342.534,-12.6255 352.215,-16.9294 352.786,-9.95271"/>
</g>
<!-- Node11&#45;&gt;Node6 -->
<g id="edge42" class="edge"><title>Node11&#45;&gt;Node6</title>
<path fill="none" stroke="midnightblue" d="M481.25,-130.937C458.069,-118.929 427.302,-102.992 404.878,-91.3773"/>
<polygon fill="midnightblue" stroke="midnightblue" points="406.314,-88.1797 395.825,-86.688 403.095,-94.3954 406.314,-88.1797"/>
</g>
<!-- Node11&#45;&gt;Node7 -->
<g id="edge44" class="edge"><title>Node11&#45;&gt;Node7</title>
<path fill="none" stroke="midnightblue" d="M458.577,-132.11C420.012,-121.092 368.496,-106.373 327.903,-94.7749"/>
<polygon fill="midnightblue" stroke="midnightblue" points="328.675,-91.3555 318.098,-91.9735 326.752,-98.0862 328.675,-91.3555"/>
</g>
<!-- Node12 -->
<g id="node32" class="node"><title>Node12</title>
<polygon fill="white" stroke="#bfbfbf" points="433.191,-65.5 433.191,-86.5 523.191,-86.5 523.191,-65.5 433.191,-65.5"/>
<text text-anchor="middle" x="478.191" y="-73.5" font-family="Helvetica,sans-Serif" font-size="10.00">QDomDocument</text>
</g>
<!-- Node11&#45;&gt;Node12 -->
<g id="edge40" class="edge"><title>Node11&#45;&gt;Node12</title>
<path fill="none" stroke="midnightblue" d="M505.66,-130.937C500.438,-120.494 493.731,-107.079 488.251,-96.1197"/>
<polygon fill="midnightblue" stroke="midnightblue" points="491.244,-94.28 483.642,-86.901 484.983,-97.4106 491.244,-94.28"/>
</g>
<!-- Node13&#45;&gt;Node2 -->
<g id="edge48" class="edge"><title>Node13&#45;&gt;Node2</title>
<path fill="none" stroke="midnightblue" d="M629.666,-130.738C613.661,-110.033 583.955,-75.8854 550.191,-58 516.245,-40.0179 408.152,-23.2343 352.312,-15.4887"/>
<polygon fill="midnightblue" stroke="midnightblue" points="352.582,-11.9931 342.2,-14.1058 351.633,-18.9286 352.582,-11.9931"/>
</g>
<!-- Node13&#45;&gt;Node6 -->
<g id="edge52" class="edge"><title>Node13&#45;&gt;Node6</title>
<path fill="none" stroke="midnightblue" d="M586.383,-132.146C583.616,-131.41 580.874,-130.69 578.191,-130 510.12,-112.48 491.529,-114.156 424.191,-94 420.089,-92.772 415.832,-91.3842 411.616,-89.9373"/>
<polygon fill="midnightblue" stroke="midnightblue" points="412.544,-86.5527 401.95,-86.5015 410.2,-93.1485 412.544,-86.5527"/>
</g>
<!-- Node13&#45;&gt;Node7 -->
<g id="edge54" class="edge"><title>Node13&#45;&gt;Node7</title>
<path fill="none" stroke="midnightblue" d="M586.451,-131.855C583.666,-131.195 580.901,-130.572 578.191,-130 470.628,-107.295 438.687,-116.786 327.829,-94.2033"/>
<polygon fill="midnightblue" stroke="midnightblue" points="328.434,-90.7543 317.931,-92.1454 327.009,-97.6078 328.434,-90.7543"/>
</g>
<!-- Node14 -->
<g id="node39" class="node"><title>Node14</title>
<polygon fill="white" stroke="#bfbfbf" points="616.691,-65.5 616.691,-86.5 697.691,-86.5 697.691,-65.5 616.691,-65.5"/>
<text text-anchor="middle" x="657.191" y="-73.5" font-family="Helvetica,sans-Serif" font-size="10.00">QDomElement</text>
</g>
<!-- Node13&#45;&gt;Node14 -->
<g id="edge50" class="edge"><title>Node13&#45;&gt;Node14</title>
<path fill="none" stroke="midnightblue" d="M645.746,-130.937C647.877,-120.707 650.602,-107.625 652.859,-96.7937"/>
<polygon fill="midnightblue" stroke="midnightblue" points="656.307,-97.4047 654.92,-86.901 649.454,-95.977 656.307,-97.4047"/>
</g>
</g>
</svg>
