<?xml version="1.0" encoding="UTF-8" standalone="no"?>
<!DOCTYPE svg PUBLIC "-//W3C//DTD SVG 1.1//EN"
 "http://www.w3.org/Graphics/SVG/1.1/DTD/svg11.dtd">
<!-- Generated by graphviz version 2.26.3 (20100126.1600)
 -->
<!-- Title: /home/travis/build/LibrePCB/LibrePCB/libs/librepcbproject/boards/board.h Pages: 1 -->
<svg width="847pt" height="402pt"
 viewBox="0.00 0.00 847.00 402.00" xmlns="http://www.w3.org/2000/svg" xmlns:xlink="http://www.w3.org/1999/xlink">
<g id="graph1" class="graph" transform="scale(1 1) rotate(0) translate(4 398)">
<title>/home/travis/build/LibrePCB/LibrePCB/libs/librepcbproject/boards/board.h</title>
<polygon fill="white" stroke="white" points="-4,5 -4,-398 844,-398 844,5 -4,5"/>
<!-- Node1 -->
<g id="node1" class="node"><title>Node1</title>
<polygon fill="#bfbfbf" stroke="black" points="351.5,-333 351.5,-393 476.5,-393 476.5,-333 351.5,-333"/>
<text text-anchor="start" x="359.5" y="-380" font-family="Helvetica,sans-Serif" font-size="10.00">/home/travis/build</text>
<text text-anchor="start" x="359.5" y="-367" font-family="Helvetica,sans-Serif" font-size="10.00">/LibrePCB/LibrePCB/libs</text>
<text text-anchor="start" x="359.5" y="-354" font-family="Helvetica,sans-Serif" font-size="10.00">/librepcbproject/boards</text>
<text text-anchor="middle" x="414" y="-341" font-family="Helvetica,sans-Serif" font-size="10.00">/board.h</text>
</g>
<!-- Node2 -->
<g id="node3" class="node"><title>Node2</title>
<polygon fill="white" stroke="#bfbfbf" points="410,-0.5 410,-21.5 458,-21.5 458,-0.5 410,-0.5"/>
<text text-anchor="middle" x="434" y="-8.5" font-family="Helvetica,sans-Serif" font-size="10.00">QtCore</text>
</g>
<!-- Node1&#45;&gt;Node2 -->
<g id="edge2" class="edge"><title>Node1&#45;&gt;Node2</title>
<path fill="none" stroke="midnightblue" d="M351.122,-352.632C235.307,-331.745 0,-280.179 0,-206 0,-206 0,-206 0,-141 0,-57.7218 296.949,-23.2666 399.591,-13.8445"/>
<polygon fill="midnightblue" stroke="midnightblue" points="400.088,-17.3141 409.736,-12.9371 399.464,-10.3419 400.088,-17.3141"/>
</g>
<!-- Node3 -->
<g id="node5" class="node"><title>Node3</title>
<polygon fill="white" stroke="#bfbfbf" points="630.5,-267.5 630.5,-288.5 693.5,-288.5 693.5,-267.5 630.5,-267.5"/>
<text text-anchor="middle" x="662" y="-275.5" font-family="Helvetica,sans-Serif" font-size="10.00">QtWidgets</text>
</g>
<!-- Node1&#45;&gt;Node3 -->
<g id="edge4" class="edge"><title>Node1&#45;&gt;Node3</title>
<path fill="none" stroke="midnightblue" d="M476.535,-343.461C516.848,-330.595 570.278,-313.036 617,-296 620.261,-294.811 623.639,-293.538 627.013,-292.238"/>
<polygon fill="midnightblue" stroke="midnightblue" points="628.373,-295.465 636.404,-288.555 625.817,-288.948 628.373,-295.465"/>
</g>
<!-- Node4 -->
<g id="node7" class="node"><title>Node4</title>
<a xlink:href="../../da/d81/if__attributeprovider_8h.html" target="_top" xlink:title="librepcbcommon/if_attributeprovider.h">
<polygon fill="white" stroke="black" points="27.5,-195.5 27.5,-216.5 206.5,-216.5 206.5,-195.5 27.5,-195.5"/>
<text text-anchor="middle" x="117" y="-203.5" font-family="Helvetica,sans-Serif" font-size="10.00">librepcbcommon/if_attributeprovider.h</text>
</a>
</g>
<!-- Node1&#45;&gt;Node4 -->
<g id="edge6" class="edge"><title>Node1&#45;&gt;Node4</title>
<path fill="none" stroke="midnightblue" d="M351.076,-347.922C311.762,-336.923 261.001,-319.767 220,-296 185.873,-276.217 152.667,-244.214 133.556,-224.178"/>
<polygon fill="midnightblue" stroke="midnightblue" points="135.885,-221.546 126.494,-216.642 130.777,-226.332 135.885,-221.546"/>
</g>
<!-- Node5 -->
<g id="node10" class="node"><title>Node5</title>
<a xlink:href="../../d0/d1d/if__xmlserializableobject_8h.html" target="_top" xlink:title="librepcbcommon/fileio\l/if_xmlserializableobject.h">
<polygon fill="white" stroke="black" points="261.5,-189 261.5,-223 390.5,-223 390.5,-189 261.5,-189"/>
<text text-anchor="start" x="269.5" y="-210" font-family="Helvetica,sans-Serif" font-size="10.00">librepcbcommon/fileio</text>
<text text-anchor="middle" x="326" y="-197" font-family="Helvetica,sans-Serif" font-size="10.00">/if_xmlserializableobject.h</text>
</a>
</g>
<!-- Node1&#45;&gt;Node5 -->
<g id="edge10" class="edge"><title>Node1&#45;&gt;Node5</title>
<path fill="none" stroke="midnightblue" d="M397.033,-332.729C380.681,-303.556 356.196,-259.873 340.666,-232.166"/>
<polygon fill="midnightblue" stroke="midnightblue" points="343.517,-230.094 335.575,-223.082 337.411,-233.516 343.517,-230.094"/>
</g>
<!-- Node6 -->
<g id="node12" class="node"><title>Node6</title>
<a xlink:href="../../d4/d03/exceptions_8h.html" target="_top" xlink:title="../exceptions.h">
<polygon fill="white" stroke="black" points="306.5,-65.5 306.5,-86.5 387.5,-86.5 387.5,-65.5 306.5,-65.5"/>
<text text-anchor="middle" x="347" y="-73.5" font-family="Helvetica,sans-Serif" font-size="10.00">../exceptions.h</text>
</a>
</g>
<!-- Node1&#45;&gt;Node6 -->
<g id="edge46" class="edge"><title>Node1&#45;&gt;Node6</title>
<path fill="none" stroke="midnightblue" d="M359.241,-332.967C321.643,-308.966 274.749,-271.511 253,-224 229.757,-173.226 288.099,-119.219 323.032,-92.6876"/>
<polygon fill="midnightblue" stroke="midnightblue" points="325.377,-95.3069 331.345,-86.5529 321.22,-89.6746 325.377,-95.3069"/>
</g>
<!-- Node7 -->
<g id="node15" class="node"><title>Node7</title>
<a xlink:href="../../d1/da8/all__length__units_8h.html" target="_top" xlink:title="librepcbcommon/units\l/all_length_units.h">
<polygon fill="white" stroke="black" points="400,-261 400,-295 512,-295 512,-261 400,-261"/>
<text text-anchor="start" x="408" y="-282" font-family="Helvetica,sans-Serif" font-size="10.00">librepcbcommon/units</text>
<text text-anchor="middle" x="456" y="-269" font-family="Helvetica,sans-Serif" font-size="10.00">/all_length_units.h</text>
</a>
</g>
<!-- Node1&#45;&gt;Node7 -->
<g id="edge16" class="edge"><title>Node1&#45;&gt;Node7</title>
<path fill="none" stroke="midnightblue" d="M428.926,-332.793C433.497,-323.542 438.488,-313.44 442.926,-304.459"/>
<polygon fill="midnightblue" stroke="midnightblue" points="446.186,-305.762 447.479,-295.246 439.911,-302.661 446.186,-305.762"/>
</g>
<!-- Node12 -->
<g id="node33" class="node"><title>Node12</title>
<a xlink:href="../../dd/dec/filepath_8h.html" target="_top" xlink:title="librepcbcommon/fileio\l/filepath.h">
<polygon fill="white" stroke="black" points="564.5,-59 564.5,-93 675.5,-93 675.5,-59 564.5,-59"/>
<text text-anchor="start" x="572.5" y="-80" font-family="Helvetica,sans-Serif" font-size="10.00">librepcbcommon/fileio</text>
<text text-anchor="middle" x="620" y="-67" font-family="Helvetica,sans-Serif" font-size="10.00">/filepath.h</text>
</a>
</g>
<!-- Node1&#45;&gt;Node12 -->
<g id="edge42" class="edge"><title>Node1&#45;&gt;Node12</title>
<path fill="none" stroke="midnightblue" d="M474.625,-332.831C491.04,-322.7 507.877,-310.285 521,-296 573.858,-238.462 602.25,-147.961 613.765,-103.089"/>
<polygon fill="midnightblue" stroke="midnightblue" points="617.203,-103.765 616.213,-93.2169 610.409,-102.08 617.203,-103.765"/>
</g>
<!-- Node13 -->
<g id="node37" class="node"><title>Node13</title>
<a xlink:href="../../da/dfb/if__ercmsgprovider_8h.html" target="_top" xlink:title="../erc/if_ercmsgprovider.h">
<polygon fill="white" stroke="black" points="711,-267.5 711,-288.5 839,-288.5 839,-267.5 711,-267.5"/>
<text text-anchor="middle" x="775" y="-275.5" font-family="Helvetica,sans-Serif" font-size="10.00">../erc/if_ercmsgprovider.h</text>
</a>
</g>
<!-- Node1&#45;&gt;Node13 -->
<g id="edge48" class="edge"><title>Node1&#45;&gt;Node13</title>
<path fill="none" stroke="midnightblue" d="M476.697,-348.665C535.076,-335.257 624.496,-314.57 702,-296 708.652,-294.406 715.64,-292.71 722.548,-291.022"/>
<polygon fill="midnightblue" stroke="midnightblue" points="723.684,-294.347 732.562,-288.564 722.016,-287.548 723.684,-294.347"/>
</g>
<!-- Node4&#45;&gt;Node2 -->
<g id="edge8" class="edge"><title>Node4&#45;&gt;Node2</title>
<path fill="none" stroke="midnightblue" d="M127.42,-195.157C153.689,-168.377 225.694,-98.3578 298,-58 330.638,-39.7827 371.583,-26.8048 399.975,-19.165"/>
<polygon fill="midnightblue" stroke="midnightblue" points="401.037,-22.505 409.828,-16.592 399.268,-15.7321 401.037,-22.505"/>
</g>
<!-- Node5&#45;&gt;Node6 -->
<g id="edge12" class="edge"><title>Node5&#45;&gt;Node6</title>
<path fill="none" stroke="midnightblue" d="M324.944,-188.939C324.339,-173.432 324.315,-149.99 328,-130 330.113,-118.539 334.277,-106.247 338.169,-96.2904"/>
<polygon fill="midnightblue" stroke="midnightblue" points="341.468,-97.4725 342.03,-86.8926 334.993,-94.8124 341.468,-97.4725"/>
</g>
<!-- Node6&#45;&gt;Node2 -->
<g id="edge14" class="edge"><title>Node6&#45;&gt;Node2</title>
<path fill="none" stroke="midnightblue" d="M361.366,-65.2666C375.049,-55.0441 395.848,-39.5043 411.688,-27.6699"/>
<polygon fill="midnightblue" stroke="midnightblue" points="413.985,-30.3229 419.901,-21.5337 409.795,-24.7151 413.985,-30.3229"/>
</g>
<!-- Node8 -->
<g id="node17" class="node"><title>Node8</title>
<a xlink:href="../../d0/d09/lengthunit_8h.html" target="_top" xlink:title="lengthunit.h">
<polygon fill="white" stroke="black" points="336.5,-130.5 336.5,-151.5 403.5,-151.5 403.5,-130.5 336.5,-130.5"/>
<text text-anchor="middle" x="370" y="-138.5" font-family="Helvetica,sans-Serif" font-size="10.00">lengthunit.h</text>
</a>
</g>
<!-- Node7&#45;&gt;Node8 -->
<g id="edge18" class="edge"><title>Node7&#45;&gt;Node8</title>
<path fill="none" stroke="midnightblue" d="M445.282,-260.926C429.171,-235.26 398.811,-186.896 381.986,-160.095"/>
<polygon fill="midnightblue" stroke="midnightblue" points="384.927,-158.195 376.646,-151.586 378.998,-161.917 384.927,-158.195"/>
</g>
<!-- Node9 -->
<g id="node21" class="node"><title>Node9</title>
<a xlink:href="../../dd/db9/length_8h.html" target="_top" xlink:title="length.h">
<polygon fill="white" stroke="black" points="420.5,-130.5 420.5,-151.5 471.5,-151.5 471.5,-130.5 420.5,-130.5"/>
<text text-anchor="middle" x="446" y="-138.5" font-family="Helvetica,sans-Serif" font-size="10.00">length.h</text>
</a>
</g>
<!-- Node7&#45;&gt;Node9 -->
<g id="edge24" class="edge"><title>Node7&#45;&gt;Node9</title>
<path fill="none" stroke="midnightblue" d="M454.754,-260.926C452.921,-235.821 449.503,-188.998 447.524,-161.881"/>
<polygon fill="midnightblue" stroke="midnightblue" points="450.992,-161.305 446.773,-151.586 444.01,-161.815 450.992,-161.305"/>
</g>
<!-- Node10 -->
<g id="node25" class="node"><title>Node10</title>
<a xlink:href="../../d2/d91/point_8h.html" target="_top" xlink:title="point.h">
<polygon fill="white" stroke="black" points="484,-195.5 484,-216.5 530,-216.5 530,-195.5 484,-195.5"/>
<text text-anchor="middle" x="507" y="-203.5" font-family="Helvetica,sans-Serif" font-size="10.00">point.h</text>
</a>
</g>
<!-- Node7&#45;&gt;Node10 -->
<g id="edge30" class="edge"><title>Node7&#45;&gt;Node10</title>
<path fill="none" stroke="midnightblue" d="M468.086,-260.937C475.71,-250.174 485.569,-236.255 493.456,-225.12"/>
<polygon fill="midnightblue" stroke="midnightblue" points="496.354,-227.084 499.278,-216.901 490.642,-223.038 496.354,-227.084"/>
</g>
<!-- Node11 -->
<g id="node29" class="node"><title>Node11</title>
<a xlink:href="../../da/dac/angle_8h.html" target="_top" xlink:title="angle.h">
<polygon fill="white" stroke="black" points="527,-130.5 527,-151.5 575,-151.5 575,-130.5 527,-130.5"/>
<text text-anchor="middle" x="551" y="-138.5" font-family="Helvetica,sans-Serif" font-size="10.00">angle.h</text>
</a>
</g>
<!-- Node7&#45;&gt;Node11 -->
<g id="edge36" class="edge"><title>Node7&#45;&gt;Node11</title>
<path fill="none" stroke="midnightblue" d="M496.258,-260.889C512.058,-252.143 528.815,-239.933 539,-224 550.893,-205.396 552.906,-179.706 552.572,-161.854"/>
<polygon fill="midnightblue" stroke="midnightblue" points="556.058,-161.479 552.11,-151.647 549.066,-161.795 556.058,-161.479"/>
</g>
<!-- Node8&#45;&gt;Node2 -->
<g id="edge20" class="edge"><title>Node8&#45;&gt;Node2</title>
<path fill="none" stroke="midnightblue" d="M376.225,-130.297C381.646,-120.851 389.615,-106.654 396,-94 406.701,-72.7921 417.899,-47.9649 425.342,-31.0271"/>
<polygon fill="midnightblue" stroke="midnightblue" points="428.663,-32.1687 429.454,-21.6034 422.247,-29.3693 428.663,-32.1687"/>
</g>
<!-- Node8&#45;&gt;Node6 -->
<g id="edge22" class="edge"><title>Node8&#45;&gt;Node6</title>
<path fill="none" stroke="midnightblue" d="M366.202,-130.267C362.92,-120.991 358.088,-107.336 354.093,-96.0453"/>
<polygon fill="midnightblue" stroke="midnightblue" points="357.363,-94.7934 350.727,-86.5337 350.764,-97.1285 357.363,-94.7934"/>
</g>
<!-- Node9&#45;&gt;Node2 -->
<g id="edge26" class="edge"><title>Node9&#45;&gt;Node2</title>
<path fill="none" stroke="midnightblue" d="M445.018,-130.362C443.04,-108.936 438.545,-60.2402 435.949,-32.1143"/>
<polygon fill="midnightblue" stroke="midnightblue" points="439.4,-31.4214 434.996,-21.7854 432.43,-32.0648 439.4,-31.4214"/>
</g>
<!-- Node9&#45;&gt;Node6 -->
<g id="edge28" class="edge"><title>Node9&#45;&gt;Node6</title>
<path fill="none" stroke="midnightblue" d="M429.652,-130.267C413.938,-119.949 389.975,-104.216 371.89,-92.3421"/>
<polygon fill="midnightblue" stroke="midnightblue" points="373.324,-89.0964 363.044,-86.5337 369.482,-94.9479 373.324,-89.0964"/>
</g>
<!-- Node10&#45;&gt;Node2 -->
<g id="edge32" class="edge"><title>Node10&#45;&gt;Node2</title>
<path fill="none" stroke="midnightblue" d="M503.367,-195.145C495.083,-170.558 473.964,-108.803 454,-58 450.495,-49.0812 446.386,-39.3173 442.806,-31.011"/>
<polygon fill="midnightblue" stroke="midnightblue" points="445.979,-29.5299 438.78,-21.7568 439.56,-32.3228 445.979,-29.5299"/>
</g>
<!-- Node10&#45;&gt;Node9 -->
<g id="edge34" class="edge"><title>Node10&#45;&gt;Node9</title>
<path fill="none" stroke="midnightblue" d="M496.927,-195.267C487.689,-185.423 473.824,-170.648 462.892,-159"/>
<polygon fill="midnightblue" stroke="midnightblue" points="465.281,-156.43 455.885,-151.534 460.176,-161.221 465.281,-156.43"/>
</g>
<!-- Node11&#45;&gt;Node2 -->
<g id="edge38" class="edge"><title>Node11&#45;&gt;Node2</title>
<path fill="none" stroke="midnightblue" d="M548.373,-130.422C543.711,-113.445 532.59,-79.814 513,-58 500.461,-44.0371 482.772,-32.9848 467.311,-25.1153"/>
<polygon fill="midnightblue" stroke="midnightblue" points="468.564,-21.8335 458.037,-20.6292 465.515,-28.1348 468.564,-21.8335"/>
</g>
<!-- Node11&#45;&gt;Node6 -->
<g id="edge40" class="edge"><title>Node11&#45;&gt;Node6</title>
<path fill="none" stroke="midnightblue" d="M526.797,-133.288C493.088,-122.548 431.468,-102.914 389.877,-89.6618"/>
<polygon fill="midnightblue" stroke="midnightblue" points="390.876,-86.3068 380.285,-86.6056 388.751,-92.9764 390.876,-86.3068"/>
</g>
<!-- Node12&#45;&gt;Node2 -->
<g id="edge44" class="edge"><title>Node12&#45;&gt;Node2</title>
<path fill="none" stroke="midnightblue" d="M571.131,-58.922C538.587,-47.5494 496.659,-32.8968 467.778,-22.8041"/>
<polygon fill="midnightblue" stroke="midnightblue" points="468.738,-19.4322 458.143,-19.4372 466.429,-26.0403 468.738,-19.4322"/>
</g>
</g>
</svg>
