<?xml version="1.0" encoding="UTF-8" standalone="no"?>
<!DOCTYPE svg PUBLIC "-//W3C//DTD SVG 1.1//EN"
 "http://www.w3.org/Graphics/SVG/1.1/DTD/svg11.dtd">
<!-- Generated by graphviz version 2.26.3 (20100126.1600)
 -->
<!-- Title: loadElements Pages: 1 -->
<svg width="524pt" height="190pt"
 viewBox="0.00 0.00 524.00 190.00" xmlns="http://www.w3.org/2000/svg" xmlns:xlink="http://www.w3.org/1999/xlink">
<g id="graph1" class="graph" transform="scale(1 1) rotate(0) translate(4 186)">
<title>loadElements</title>
<polygon fill="white" stroke="white" points="-4,5 -4,-186 521,-186 521,5 -4,5"/>
<!-- Node1 -->
<g id="node1" class="node"><title>Node1</title>
<polygon fill="#bfbfbf" stroke="black" points="0,-80.5 0,-101.5 76,-101.5 76,-80.5 0,-80.5"/>
<text text-anchor="middle" x="38" y="-88.5" font-family="Helvetica,sans-Serif" font-size="10.00">loadElements</text>
</g>
<!-- Node2 -->
<g id="node3" class="node"><title>Node2</title>
<a xlink:href="../../d4/d1c/class_file_path.html#af27e4f117ace775ab38ae937c12cd37a" target="_top" xlink:title="Get the absolute filepath with native directory separators (&quot;/&quot; resp. &quot;\&quot;) ">
<polygon fill="white" stroke="black" points="128.5,-160.5 128.5,-181.5 223.5,-181.5 223.5,-160.5 128.5,-160.5"/>
<text text-anchor="middle" x="176" y="-168.5" font-family="Helvetica,sans-Serif" font-size="10.00">FilePath::toNative</text>
</a>
</g>
<!-- Node1&#45;&gt;Node2 -->
<g id="edge2" class="edge"><title>Node1&#45;&gt;Node2</title>
<path fill="none" stroke="midnightblue" d="M48.5749,-101.799C62.1413,-115.094 86.9274,-137.559 112,-151 115.974,-153.13 120.211,-155.074 124.539,-156.839"/>
<polygon fill="midnightblue" stroke="midnightblue" points="123.505,-160.188 134.097,-160.418 125.96,-153.633 123.505,-160.188"/>
</g>
<!-- Node3 -->
<g id="node5" class="node"><title>Node3</title>
<a xlink:href="../../de/d6b/class_application.html#a71dfd4d8f6708f9d9eb0f0c507c1e9ef" target="_top" xlink:title="Application::majorVersion">
<polygon fill="white" stroke="black" points="112,-120.5 112,-141.5 240,-141.5 240,-120.5 112,-120.5"/>
<text text-anchor="middle" x="176" y="-128.5" font-family="Helvetica,sans-Serif" font-size="10.00">Application::majorVersion</text>
</a>
</g>
<!-- Node1&#45;&gt;Node3 -->
<g id="edge4" class="edge"><title>Node1&#45;&gt;Node3</title>
<path fill="none" stroke="midnightblue" d="M74.2579,-101.51C91.2376,-106.431 111.661,-112.351 129.74,-117.591"/>
<polygon fill="midnightblue" stroke="midnightblue" points="128.926,-120.999 139.505,-120.422 130.875,-114.276 128.926,-120.999"/>
</g>
<!-- Node7 -->
<g id="node13" class="node"><title>Node7</title>
<a xlink:href="../../d4/d1c/class_file_path.html#a2c6594f7da9797cf10468c08338cbefd" target="_top" xlink:title="Get the filepath to a file or directory which is relative to this filepath. ">
<polygon fill="white" stroke="black" points="124,-80.5 124,-101.5 228,-101.5 228,-80.5 124,-80.5"/>
<text text-anchor="middle" x="176" y="-88.5" font-family="Helvetica,sans-Serif" font-size="10.00">FilePath::getPathTo</text>
</a>
</g>
<!-- Node1&#45;&gt;Node7 -->
<g id="edge12" class="edge"><title>Node1&#45;&gt;Node7</title>
<path fill="none" stroke="midnightblue" d="M76.0744,-91C87.7204,-91 100.848,-91 113.666,-91"/>
<polygon fill="midnightblue" stroke="midnightblue" points="113.846,-94.5001 123.846,-91 113.846,-87.5001 113.846,-94.5001"/>
</g>
<!-- Node8 -->
<g id="node15" class="node"><title>Node8</title>
<a xlink:href="../../d4/d1c/class_file_path.html#af7ebe5b84330753a4d61b36199f3da48" target="_top" xlink:title="Check if the specified filepath is an existing file. ">
<polygon fill="white" stroke="black" points="117.5,-40.5 117.5,-61.5 234.5,-61.5 234.5,-40.5 117.5,-40.5"/>
<text text-anchor="middle" x="176" y="-48.5" font-family="Helvetica,sans-Serif" font-size="10.00">FilePath::isExistingFile</text>
</a>
</g>
<!-- Node1&#45;&gt;Node8 -->
<g id="edge14" class="edge"><title>Node1&#45;&gt;Node8</title>
<path fill="none" stroke="midnightblue" d="M74.2579,-80.4905C91.2376,-75.5688 111.661,-69.649 129.74,-64.4088"/>
<polygon fill="midnightblue" stroke="midnightblue" points="130.875,-67.7239 139.505,-61.5782 128.926,-61.0006 130.875,-67.7239"/>
</g>
<!-- Node9 -->
<g id="node17" class="node"><title>Node9</title>
<a xlink:href="../../d4/d1c/class_file_path.html#a39a0bbf3901de18041fb5c324ecf412a" target="_top" xlink:title="Get the absolute and well&#45;formatted filepath as a QString. ">
<polygon fill="white" stroke="black" points="136,-0.5 136,-21.5 216,-21.5 216,-0.5 136,-0.5"/>
<text text-anchor="middle" x="176" y="-8.5" font-family="Helvetica,sans-Serif" font-size="10.00">FilePath::toStr</text>
</a>
</g>
<!-- Node1&#45;&gt;Node9 -->
<g id="edge16" class="edge"><title>Node1&#45;&gt;Node9</title>
<path fill="none" stroke="midnightblue" d="M48.5749,-80.2008C62.1413,-66.9055 86.9274,-44.4409 112,-31 116.501,-28.5869 121.34,-26.4134 126.267,-24.4684"/>
<polygon fill="midnightblue" stroke="midnightblue" points="127.586,-27.7131 135.788,-21.0065 125.194,-21.1345 127.586,-27.7131"/>
</g>
<!-- Node4 -->
<g id="node7" class="node"><title>Node4</title>
<a xlink:href="../../de/d6b/class_application.html#a9b7423f4d6e1631b033ff1ef3f1104bc" target="_top" xlink:title="Application::application\lVersion">
<polygon fill="white" stroke="black" points="276.5,-137 276.5,-171 393.5,-171 393.5,-137 276.5,-137"/>
<text text-anchor="start" x="284.5" y="-158" font-family="Helvetica,sans-Serif" font-size="10.00">Application::application</text>
<text text-anchor="middle" x="335" y="-145" font-family="Helvetica,sans-Serif" font-size="10.00">Version</text>
</a>
</g>
<!-- Node3&#45;&gt;Node4 -->
<g id="edge6" class="edge"><title>Node3&#45;&gt;Node4</title>
<path fill="none" stroke="midnightblue" d="M240.213,-140.289C248.824,-141.534 257.683,-142.816 266.366,-144.072"/>
<polygon fill="midnightblue" stroke="midnightblue" points="266.055,-147.563 276.453,-145.531 267.057,-140.635 266.055,-147.563"/>
</g>
<!-- Node6 -->
<g id="node11" class="node"><title>Node6</title>
<a xlink:href="../../de/d34/class_version.html#a1d27f264dcf673c9b3a991023cd0420c" target="_top" xlink:title="Get the numbers in the version string. ">
<polygon fill="white" stroke="black" points="280.5,-97.5 280.5,-118.5 389.5,-118.5 389.5,-97.5 280.5,-97.5"/>
<text text-anchor="middle" x="335" y="-105.5" font-family="Helvetica,sans-Serif" font-size="10.00">Version::getNumbers</text>
</a>
</g>
<!-- Node3&#45;&gt;Node6 -->
<g id="edge10" class="edge"><title>Node3&#45;&gt;Node6</title>
<path fill="none" stroke="midnightblue" d="M240.213,-121.711C250.128,-120.277 260.373,-118.795 270.298,-117.359"/>
<polygon fill="midnightblue" stroke="midnightblue" points="271.103,-120.779 280.499,-115.884 270.101,-113.852 271.103,-120.779"/>
</g>
<!-- Node5 -->
<g id="node9" class="node"><title>Node5</title>
<a xlink:href="../../de/d34/class_version.html#a0a886a9edf5bf682f5245159661bfc94" target="_top" xlink:title="Check if the object represents a valid version number. ">
<polygon fill="white" stroke="black" points="430.5,-143.5 430.5,-164.5 515.5,-164.5 515.5,-143.5 430.5,-143.5"/>
<text text-anchor="middle" x="473" y="-151.5" font-family="Helvetica,sans-Serif" font-size="10.00">Version::isValid</text>
</a>
</g>
<!-- Node4&#45;&gt;Node5 -->
<g id="edge8" class="edge"><title>Node4&#45;&gt;Node5</title>
<path fill="none" stroke="midnightblue" d="M393.524,-154C402.395,-154 411.502,-154 420.24,-154"/>
<polygon fill="midnightblue" stroke="midnightblue" points="420.293,-157.5 430.293,-154 420.293,-150.5 420.293,-157.5"/>
</g>
</g>
</svg>
