<?xml version="1.0" encoding="UTF-8" standalone="no"?>
<!DOCTYPE svg PUBLIC "-//W3C//DTD SVG 1.1//EN"
 "http://www.w3.org/Graphics/SVG/1.1/DTD/svg11.dtd">
<!-- Generated by graphviz version 2.26.3 (20100126.1600)
 -->
<!-- Title: on_recentProjectsListView_clicked Pages: 1 -->
<svg width="600pt" height="306pt"
 viewBox="0.00 0.00 600.00 306.00" xmlns="http://www.w3.org/2000/svg" xmlns:xlink="http://www.w3.org/1999/xlink">
<g id="graph1" class="graph" transform="scale(1 1) rotate(0) translate(4 302)">
<title>on_recentProjectsListView_clicked</title>
<polygon fill="white" stroke="white" points="-4,5 -4,-302 597,-302 597,5 -4,5"/>
<!-- Node1 -->
<g id="node1" class="node"><title>Node1</title>
<polygon fill="#bfbfbf" stroke="black" points="0.5,-115 0.5,-149 133.5,-149 133.5,-115 0.5,-115"/>
<text text-anchor="start" x="8.5" y="-136" font-family="Helvetica,sans-Serif" font-size="10.00">on_recentProjectsListView</text>
<text text-anchor="middle" x="67" y="-123" font-family="Helvetica,sans-Serif" font-size="10.00">_clicked</text>
</g>
<!-- Node2 -->
<g id="node3" class="node"><title>Node2</title>
<a xlink:href="../../d1/def/class_control_panel.html#a00fbb51d24ad11e028629d3dcb376e94" target="_top" xlink:title="Open a project with the editor (or bring an already opened editor to front) ">
<polygon fill="white" stroke="black" points="170,-121.5 170,-142.5 238,-142.5 238,-121.5 170,-121.5"/>
<text text-anchor="middle" x="204" y="-129.5" font-family="Helvetica,sans-Serif" font-size="10.00">openProject</text>
</a>
</g>
<!-- Node1&#45;&gt;Node2 -->
<g id="edge2" class="edge"><title>Node1&#45;&gt;Node2</title>
<path fill="none" stroke="midnightblue" d="M133.895,-132C142.682,-132 151.505,-132 159.784,-132"/>
<polygon fill="midnightblue" stroke="midnightblue" points="159.937,-135.5 169.937,-132 159.937,-128.5 159.937,-135.5"/>
</g>
<!-- Node3 -->
<g id="node5" class="node"><title>Node3</title>
<a xlink:href="../../d1/def/class_control_panel.html#afeedb76a1e09757b558fbecd83556964" target="_top" xlink:title="projectEditorClosed">
<polygon fill="white" stroke="black" points="287,-204.5 287,-225.5 389,-225.5 389,-204.5 287,-204.5"/>
<text text-anchor="middle" x="338" y="-212.5" font-family="Helvetica,sans-Serif" font-size="10.00">projectEditorClosed</text>
</a>
</g>
<!-- Node2&#45;&gt;Node3 -->
<g id="edge4" class="edge"><title>Node2&#45;&gt;Node3</title>
<path fill="none" stroke="midnightblue" d="M220.971,-142.512C244.002,-156.778 285.357,-182.393 312.232,-199.039"/>
<polygon fill="midnightblue" stroke="midnightblue" points="310.399,-202.021 320.743,-204.311 314.085,-196.07 310.399,-202.021"/>
</g>
<!-- Node7 -->
<g id="node13" class="node"><title>Node7</title>
<a xlink:href="../../d1/def/class_control_panel.html#a01a3882004f773857225fa808894b663" target="_top" xlink:title="showControlPanel">
<polygon fill="white" stroke="black" points="290,-144.5 290,-165.5 386,-165.5 386,-144.5 290,-144.5"/>
<text text-anchor="middle" x="338" y="-152.5" font-family="Helvetica,sans-Serif" font-size="10.00">showControlPanel</text>
</a>
</g>
<!-- Node2&#45;&gt;Node7 -->
<g id="edge12" class="edge"><title>Node2&#45;&gt;Node7</title>
<path fill="none" stroke="midnightblue" d="M238.161,-137.863C250.827,-140.037 265.574,-142.569 279.784,-145.008"/>
<polygon fill="midnightblue" stroke="midnightblue" points="279.551,-148.519 289.999,-146.761 280.735,-141.62 279.551,-148.519"/>
</g>
<!-- Node8 -->
<g id="node15" class="node"><title>Node8</title>
<a xlink:href="../../d3/dd6/classproject_1_1_project_editor.html#a9f14b9293fefcadb6df3288b459fd470" target="_top" xlink:title="Open the schematic and/or the board editor window. ">
<polygon fill="white" stroke="black" points="274.5,-92 274.5,-126 401.5,-126 401.5,-92 274.5,-92"/>
<text text-anchor="start" x="282.5" y="-113" font-family="Helvetica,sans-Serif" font-size="10.00">project::ProjectEditor</text>
<text text-anchor="middle" x="338" y="-100" font-family="Helvetica,sans-Serif" font-size="10.00">::showAllRequiredEditors</text>
</a>
</g>
<!-- Node2&#45;&gt;Node8 -->
<g id="edge14" class="edge"><title>Node2&#45;&gt;Node8</title>
<path fill="none" stroke="midnightblue" d="M238.161,-126.137C246.304,-124.739 255.306,-123.194 264.474,-121.62"/>
<polygon fill="midnightblue" stroke="midnightblue" points="265.189,-125.049 274.453,-119.907 264.005,-118.15 265.189,-125.049"/>
</g>
<!-- Node13 -->
<g id="node25" class="node"><title>Node13</title>
<a xlink:href="../../df/d70/class_exception.html#aa530ab8cc747843c76a435c3075ed094" target="_top" xlink:title="Get the user error message (translated) ">
<polygon fill="white" stroke="black" points="278.5,-52.5 278.5,-73.5 397.5,-73.5 397.5,-52.5 278.5,-52.5"/>
<text text-anchor="middle" x="338" y="-60.5" font-family="Helvetica,sans-Serif" font-size="10.00">Exception::getUserMsg</text>
</a>
</g>
<!-- Node2&#45;&gt;Node13 -->
<g id="edge24" class="edge"><title>Node2&#45;&gt;Node13</title>
<path fill="none" stroke="midnightblue" d="M216.659,-121.32C230.13,-110.406 252.432,-93.6 274,-83 278.52,-80.7785 283.34,-78.7366 288.23,-76.877"/>
<polygon fill="midnightblue" stroke="midnightblue" points="289.408,-80.173 297.659,-73.5266 287.064,-73.577 289.408,-80.173"/>
</g>
<!-- Node4 -->
<g id="node7" class="node"><title>Node4</title>
<a xlink:href="../../d3/dd6/classproject_1_1_project_editor.html#ac48a585009b5ee63f88e0c2b5357d6e9" target="_top" xlink:title="project::ProjectEditor\l::getProject">
<polygon fill="white" stroke="black" points="461,-264 461,-298 569,-298 569,-264 461,-264"/>
<text text-anchor="start" x="469" y="-285" font-family="Helvetica,sans-Serif" font-size="10.00">project::ProjectEditor</text>
<text text-anchor="middle" x="515" y="-272" font-family="Helvetica,sans-Serif" font-size="10.00">::getProject</text>
</a>
</g>
<!-- Node3&#45;&gt;Node4 -->
<g id="edge6" class="edge"><title>Node3&#45;&gt;Node4</title>
<path fill="none" stroke="midnightblue" d="M363.334,-225.58C383.461,-233.877 412.384,-245.56 438,-255 443.047,-256.86 448.299,-258.743 453.583,-260.6"/>
<polygon fill="midnightblue" stroke="midnightblue" points="452.495,-263.927 463.09,-263.906 454.794,-257.316 452.495,-263.927"/>
</g>
<!-- Node5 -->
<g id="node9" class="node"><title>Node5</title>
<a xlink:href="../../d2/d05/classproject_1_1_project.html#afbdab4a0b61e83c059a2901660e2df25" target="_top" xlink:title="Get the filepath of the project file (*.lpp) ">
<polygon fill="white" stroke="black" points="446.5,-224.5 446.5,-245.5 583.5,-245.5 583.5,-224.5 446.5,-224.5"/>
<text text-anchor="middle" x="515" y="-232.5" font-family="Helvetica,sans-Serif" font-size="10.00">project::Project::getFilepath</text>
</a>
</g>
<!-- Node3&#45;&gt;Node5 -->
<g id="edge8" class="edge"><title>Node3&#45;&gt;Node5</title>
<path fill="none" stroke="midnightblue" d="M389.196,-220.785C403.853,-222.441 420.18,-224.286 436.09,-226.084"/>
<polygon fill="midnightblue" stroke="midnightblue" points="436.133,-229.611 446.462,-227.256 436.919,-222.655 436.133,-229.611"/>
</g>
<!-- Node6 -->
<g id="node11" class="node"><title>Node6</title>
<a xlink:href="../../d4/d1c/class_file_path.html#a39a0bbf3901de18041fb5c324ecf412a" target="_top" xlink:title="Get the absolute and well&#45;formatted filepath as a QString. ">
<polygon fill="white" stroke="black" points="475,-184.5 475,-205.5 555,-205.5 555,-184.5 475,-184.5"/>
<text text-anchor="middle" x="515" y="-192.5" font-family="Helvetica,sans-Serif" font-size="10.00">FilePath::toStr</text>
</a>
</g>
<!-- Node3&#45;&gt;Node6 -->
<g id="edge10" class="edge"><title>Node3&#45;&gt;Node6</title>
<path fill="none" stroke="midnightblue" d="M389.196,-209.215C412.942,-206.532 441.075,-203.353 464.708,-200.683"/>
<polygon fill="midnightblue" stroke="midnightblue" points="465.332,-204.135 474.876,-199.534 464.546,-197.179 465.332,-204.135"/>
</g>
<!-- Node9 -->
<g id="node17" class="node"><title>Node9</title>
<a xlink:href="../../d2/d05/classproject_1_1_project.html#a46ccfa0fa920843d0626be456879b382" target="_top" xlink:title="Get all boards. ">
<polygon fill="white" stroke="black" points="448.5,-144.5 448.5,-165.5 581.5,-165.5 581.5,-144.5 448.5,-144.5"/>
<text text-anchor="middle" x="515" y="-152.5" font-family="Helvetica,sans-Serif" font-size="10.00">project::Project::getBoards</text>
</a>
</g>
<!-- Node8&#45;&gt;Node9 -->
<g id="edge16" class="edge"><title>Node8&#45;&gt;Node9</title>
<path fill="none" stroke="midnightblue" d="M401.748,-125.577C413.789,-128.708 426.281,-131.955 438,-135 446.547,-137.221 455.628,-139.58 464.442,-141.87"/>
<polygon fill="midnightblue" stroke="midnightblue" points="463.68,-145.288 474.239,-144.415 465.44,-138.513 463.68,-145.288"/>
</g>
<!-- Node10 -->
<g id="node19" class="node"><title>Node10</title>
<a xlink:href="../../d3/dd6/classproject_1_1_project_editor.html#a58d9a85f9ad7a9ae10eccf08589d6f62" target="_top" xlink:title="Open the board editor window and bring it to the front. ">
<polygon fill="white" stroke="black" points="461,-92 461,-126 569,-126 569,-92 461,-92"/>
<text text-anchor="start" x="469" y="-113" font-family="Helvetica,sans-Serif" font-size="10.00">project::ProjectEditor</text>
<text text-anchor="middle" x="515" y="-100" font-family="Helvetica,sans-Serif" font-size="10.00">::showBoardEditor</text>
</a>
</g>
<!-- Node8&#45;&gt;Node10 -->
<g id="edge18" class="edge"><title>Node8&#45;&gt;Node10</title>
<path fill="none" stroke="midnightblue" d="M401.901,-109C417.741,-109 434.723,-109 450.587,-109"/>
<polygon fill="midnightblue" stroke="midnightblue" points="450.827,-112.5 460.827,-109 450.827,-105.5 450.827,-112.5"/>
</g>
<!-- Node11 -->
<g id="node21" class="node"><title>Node11</title>
<a xlink:href="../../d2/d05/classproject_1_1_project.html#a1054eea6077b28d10d37c5e4c1b602fe" target="_top" xlink:title="Get all schematics. ">
<polygon fill="white" stroke="black" points="438,-52.5 438,-73.5 592,-73.5 592,-52.5 438,-52.5"/>
<text text-anchor="middle" x="515" y="-60.5" font-family="Helvetica,sans-Serif" font-size="10.00">project::Project::getSchematics</text>
</a>
</g>
<!-- Node8&#45;&gt;Node11 -->
<g id="edge20" class="edge"><title>Node8&#45;&gt;Node11</title>
<path fill="none" stroke="midnightblue" d="M401.748,-92.4231C413.789,-89.2925 426.281,-86.0454 438,-83 446.547,-80.7789 455.628,-78.4197 464.442,-76.13"/>
<polygon fill="midnightblue" stroke="midnightblue" points="465.44,-79.487 474.239,-73.5853 463.68,-72.7119 465.44,-79.487"/>
</g>
<!-- Node12 -->
<g id="node23" class="node"><title>Node12</title>
<a xlink:href="../../d3/dd6/classproject_1_1_project_editor.html#af2239632bc976a73559dbfe5383e3c08" target="_top" xlink:title="Open the schematic editor window and bring it to the front. ">
<polygon fill="white" stroke="black" points="456,-0 456,-34 574,-34 574,-0 456,-0"/>
<text text-anchor="start" x="464" y="-21" font-family="Helvetica,sans-Serif" font-size="10.00">project::ProjectEditor</text>
<text text-anchor="middle" x="515" y="-8" font-family="Helvetica,sans-Serif" font-size="10.00">::showSchematicEditor</text>
</a>
</g>
<!-- Node8&#45;&gt;Node12 -->
<g id="edge22" class="edge"><title>Node8&#45;&gt;Node12</title>
<path fill="none" stroke="midnightblue" d="M386.762,-91.9486C392.093,-89.2878 397.288,-86.3069 402,-83 421.577,-69.2606 418.018,-56.1436 438,-43 440.77,-41.1779 443.681,-39.4712 446.682,-37.8741"/>
<polygon fill="midnightblue" stroke="midnightblue" points="448.436,-40.9136 455.912,-33.4058 445.386,-34.6132 448.436,-40.9136"/>
</g>
</g>
</svg>
