<?xml version="1.0" encoding="UTF-8" standalone="no"?>
<!DOCTYPE svg PUBLIC "-//W3C//DTD SVG 1.1//EN"
 "http://www.w3.org/Graphics/SVG/1.1/DTD/svg11.dtd">
<!-- Generated by graphviz version 2.26.3 (20100126.1600)
 -->
<!-- Title: loadSettings Pages: 1 -->
<svg width="406pt" height="150pt"
 viewBox="0.00 0.00 406.00 150.00" xmlns="http://www.w3.org/2000/svg" xmlns:xlink="http://www.w3.org/1999/xlink">
<g id="graph1" class="graph" transform="scale(1 1) rotate(0) translate(4 146)">
<title>loadSettings</title>
<polygon fill="white" stroke="white" points="-4,5 -4,-146 403,-146 403,5 -4,5"/>
<!-- Node1 -->
<g id="node1" class="node"><title>Node1</title>
<polygon fill="#bfbfbf" stroke="black" points="0.5,-60.5 0.5,-81.5 71.5,-81.5 71.5,-60.5 0.5,-60.5"/>
<text text-anchor="middle" x="36" y="-68.5" font-family="Helvetica,sans-Serif" font-size="10.00">loadSettings</text>
</g>
<!-- Node2 -->
<g id="node3" class="node"><title>Node2</title>
<a xlink:href="../../d4/d1c/class_file_path.html#aeb37554b75918a9262a0c09df1205fff" target="_top" xlink:title="Build an absolute and well&#45;formatted filepath from a relative filepath. ">
<polygon fill="white" stroke="black" points="112,-120.5 112,-141.5 226,-141.5 226,-120.5 112,-120.5"/>
<text text-anchor="middle" x="169" y="-128.5" font-family="Helvetica,sans-Serif" font-size="10.00">FilePath::fromRelative</text>
</a>
</g>
<!-- Node1&#45;&gt;Node2 -->
<g id="edge2" class="edge"><title>Node1&#45;&gt;Node2</title>
<path fill="none" stroke="midnightblue" d="M52.9879,-81.6511C67.2887,-90.3181 88.4763,-102.469 108,-111 112.979,-113.175 118.273,-115.248 123.583,-117.177"/>
<polygon fill="midnightblue" stroke="midnightblue" points="122.496,-120.505 133.091,-120.487 124.798,-113.894 122.496,-120.505"/>
</g>
<!-- Node3 -->
<g id="node5" class="node"><title>Node3</title>
<a xlink:href="../../d5/d56/class_workspace.html#af7f148ec01c9f5b993b0cac385a64abd" target="_top" xlink:title="Get the filepath to the workspace directory. ">
<polygon fill="white" stroke="black" points="116,-80.5 116,-101.5 222,-101.5 222,-80.5 116,-80.5"/>
<text text-anchor="middle" x="169" y="-88.5" font-family="Helvetica,sans-Serif" font-size="10.00">Workspace::getPath</text>
</a>
</g>
<!-- Node1&#45;&gt;Node3 -->
<g id="edge4" class="edge"><title>Node1&#45;&gt;Node3</title>
<path fill="none" stroke="midnightblue" d="M71.6416,-76.3596C82.1753,-77.9437 94.0364,-79.7273 105.762,-81.4905"/>
<polygon fill="midnightblue" stroke="midnightblue" points="105.585,-85.0032 115.994,-83.0292 106.626,-78.081 105.585,-85.0032"/>
</g>
<!-- Node4 -->
<g id="node7" class="node"><title>Node4</title>
<a xlink:href="../../db/d76/class_project_tree_model.html#a78a2f89d1c2554356cf93a072b5fe7aa" target="_top" xlink:title="ProjectTreeModel::index">
<polygon fill="white" stroke="black" points="108,-40.5 108,-61.5 230,-61.5 230,-40.5 108,-40.5"/>
<text text-anchor="middle" x="169" y="-48.5" font-family="Helvetica,sans-Serif" font-size="10.00">ProjectTreeModel::index</text>
</a>
</g>
<!-- Node1&#45;&gt;Node4 -->
<g id="edge6" class="edge"><title>Node1&#45;&gt;Node4</title>
<path fill="none" stroke="midnightblue" d="M71.6416,-65.6404C79.8351,-64.4083 88.8317,-63.0554 97.9429,-61.6853"/>
<polygon fill="midnightblue" stroke="midnightblue" points="98.4736,-65.1449 107.842,-60.1967 97.4326,-58.2227 98.4736,-65.1449"/>
</g>
<!-- Node7 -->
<g id="node13" class="node"><title>Node7</title>
<a xlink:href="../../d4/d1c/class_file_path.html#a39a0bbf3901de18041fb5c324ecf412a" target="_top" xlink:title="Get the absolute and well&#45;formatted filepath as a QString. ">
<polygon fill="white" stroke="black" points="129,-0.5 129,-21.5 209,-21.5 209,-0.5 129,-0.5"/>
<text text-anchor="middle" x="169" y="-8.5" font-family="Helvetica,sans-Serif" font-size="10.00">FilePath::toStr</text>
</a>
</g>
<!-- Node1&#45;&gt;Node7 -->
<g id="edge12" class="edge"><title>Node1&#45;&gt;Node7</title>
<path fill="none" stroke="midnightblue" d="M52.9879,-60.3489C67.2887,-51.6819 88.4763,-39.5312 108,-31 112.979,-28.8245 118.273,-26.7523 123.583,-24.823"/>
<polygon fill="midnightblue" stroke="midnightblue" points="124.798,-28.106 133.091,-21.5129 122.496,-21.4952 124.798,-28.106"/>
</g>
<!-- Node5 -->
<g id="node9" class="node"><title>Node5</title>
<a xlink:href="../../db/d76/class_project_tree_model.html#a097d5cab45248ecb3614b1d427e05369" target="_top" xlink:title="ProjectTreeModel::getItem">
<polygon fill="white" stroke="black" points="266,-60.5 266,-81.5 398,-81.5 398,-60.5 266,-60.5"/>
<text text-anchor="middle" x="332" y="-68.5" font-family="Helvetica,sans-Serif" font-size="10.00">ProjectTreeModel::getItem</text>
</a>
</g>
<!-- Node4&#45;&gt;Node5 -->
<g id="edge8" class="edge"><title>Node4&#45;&gt;Node5</title>
<path fill="none" stroke="midnightblue" d="M230.159,-58.5042C238.535,-59.5319 247.217,-60.5972 255.819,-61.6527"/>
<polygon fill="midnightblue" stroke="midnightblue" points="255.507,-65.1405 265.859,-62.8845 256.359,-58.1926 255.507,-65.1405"/>
</g>
<!-- Node6 -->
<g id="node11" class="node"><title>Node6</title>
<a xlink:href="../../db/d9c/class_project_tree_item.html#a3eaac67b81ffb70ba55a3757ffcceedb" target="_top" xlink:title="ProjectTreeItem::getChild">
<polygon fill="white" stroke="black" points="268,-20.5 268,-41.5 396,-41.5 396,-20.5 268,-20.5"/>
<text text-anchor="middle" x="332" y="-28.5" font-family="Helvetica,sans-Serif" font-size="10.00">ProjectTreeItem::getChild</text>
</a>
</g>
<!-- Node4&#45;&gt;Node6 -->
<g id="edge10" class="edge"><title>Node4&#45;&gt;Node6</title>
<path fill="none" stroke="midnightblue" d="M230.159,-43.4958C239.181,-42.3888 248.559,-41.2382 257.81,-40.1031"/>
<polygon fill="midnightblue" stroke="midnightblue" points="258.276,-43.5722 267.776,-38.8803 257.424,-36.6243 258.276,-43.5722"/>
</g>
</g>
</svg>
