<?xml version="1.0" encoding="UTF-8" standalone="no"?>
<!DOCTYPE svg PUBLIC "-//W3C//DTD SVG 1.1//EN"
 "http://www.w3.org/Graphics/SVG/1.1/DTD/svg11.dtd">
<!-- Generated by graphviz version 2.26.3 (20100126.1600)
 -->
<!-- Title: setLengthInch Pages: 1 -->
<svg width="694pt" height="116pt"
 viewBox="0.00 0.00 694.00 116.00" xmlns="http://www.w3.org/2000/svg" xmlns:xlink="http://www.w3.org/1999/xlink">
<g id="graph1" class="graph" transform="scale(1 1) rotate(0) translate(4 112)">
<title>setLengthInch</title>
<polygon fill="white" stroke="white" points="-4,5 -4,-112 691,-112 691,5 -4,5"/>
<!-- Node1 -->
<g id="node1" class="node"><title>Node1</title>
<polygon fill="#bfbfbf" stroke="black" points="0,-40.5 0,-61.5 78,-61.5 78,-40.5 0,-40.5"/>
<text text-anchor="middle" x="39" y="-48.5" font-family="Helvetica,sans-Serif" font-size="10.00">setLengthInch</text>
</g>
<!-- Node2 -->
<g id="node3" class="node"><title>Node2</title>
<a xlink:href="../../df/df0/class_length.html#a8799d9ea9315b068c08f60b63c4467db" target="_top" xlink:title="Get a Length object with a specific length and map it to a specific grid. ">
<polygon fill="white" stroke="black" points="136.5,-80.5 136.5,-101.5 191.5,-101.5 191.5,-80.5 136.5,-80.5"/>
<text text-anchor="middle" x="164" y="-88.5" font-family="Helvetica,sans-Serif" font-size="10.00">fromInch</text>
</a>
</g>
<!-- Node1&#45;&gt;Node2 -->
<g id="edge2" class="edge"><title>Node1&#45;&gt;Node2</title>
<path fill="none" stroke="midnightblue" d="M81.6142,-64.6366C99.7458,-70.4387 120.37,-77.0384 136.447,-82.1832"/>
<polygon fill="midnightblue" stroke="midnightblue" points="82.4333,-61.2239 71.8423,-61.5095 80.2998,-67.8908 82.4333,-61.2239"/>
</g>
<!-- Node6 -->
<g id="node11" class="node"><title>Node6</title>
<a xlink:href="../../d0/d69/class_point.html#a18219672e7f768b5654c2507ada7fbfb" target="_top" xlink:title="Point::fromInch">
<polygon fill="white" stroke="black" points="122.5,-40.5 122.5,-61.5 205.5,-61.5 205.5,-40.5 122.5,-40.5"/>
<text text-anchor="middle" x="164" y="-48.5" font-family="Helvetica,sans-Serif" font-size="10.00">Point::fromInch</text>
</a>
</g>
<!-- Node1&#45;&gt;Node6 -->
<g id="edge10" class="edge"><title>Node1&#45;&gt;Node6</title>
<path fill="none" stroke="midnightblue" d="M88.3318,-51C99.5868,-51 111.439,-51 122.336,-51"/>
<polygon fill="midnightblue" stroke="midnightblue" points="88.2079,-47.5001 78.2078,-51 88.2078,-54.5001 88.2079,-47.5001"/>
</g>
<!-- Node8 -->
<g id="node15" class="node"><title>Node8</title>
<a xlink:href="../../d0/d69/class_point.html#abf8c13f6d12ca5d0cd327126bb8a5905" target="_top" xlink:title="Point::setPointInch">
<polygon fill="white" stroke="black" points="114,-0.5 114,-21.5 214,-21.5 214,-0.5 114,-0.5"/>
<text text-anchor="middle" x="164" y="-8.5" font-family="Helvetica,sans-Serif" font-size="10.00">Point::setPointInch</text>
</a>
</g>
<!-- Node1&#45;&gt;Node8 -->
<g id="edge14" class="edge"><title>Node1&#45;&gt;Node8</title>
<path fill="none" stroke="midnightblue" d="M81.5853,-37.3727C97.7143,-32.2114 115.819,-26.4178 130.943,-21.5782"/>
<polygon fill="midnightblue" stroke="midnightblue" points="80.2998,-34.1092 71.8423,-40.4905 82.4333,-40.7761 80.2998,-34.1092"/>
</g>
<!-- Node3 -->
<g id="node5" class="node"><title>Node3</title>
<a xlink:href="../../dd/d55/class_length_unit.html#ad66df98a1f06d30ac6f15516ce54633f" target="_top" xlink:title="Convert a floating point number with this unit to a Length object. ">
<polygon fill="white" stroke="black" points="250.5,-80.5 250.5,-101.5 393.5,-101.5 393.5,-80.5 250.5,-80.5"/>
<text text-anchor="middle" x="322" y="-88.5" font-family="Helvetica,sans-Serif" font-size="10.00">LengthUnit::convertFromUnit</text>
</a>
</g>
<!-- Node2&#45;&gt;Node3 -->
<g id="edge4" class="edge"><title>Node2&#45;&gt;Node3</title>
<path fill="none" stroke="midnightblue" d="M201.658,-91C216.278,-91 233.528,-91 250.332,-91"/>
<polygon fill="midnightblue" stroke="midnightblue" points="201.522,-87.5001 191.521,-91 201.521,-94.5001 201.522,-87.5001"/>
</g>
<!-- Node4 -->
<g id="node7" class="node"><title>Node4</title>
<a xlink:href="../../dc/d4e/class_grid_settings_dialog.html#a1d0a287161effff06f3a2dd172475420" target="_top" xlink:title="GridSettingsDialog\l::spbxIntervalChanged">
<polygon fill="white" stroke="black" points="430.5,-74 430.5,-108 545.5,-108 545.5,-74 430.5,-74"/>
<text text-anchor="start" x="438.5" y="-95" font-family="Helvetica,sans-Serif" font-size="10.00">GridSettingsDialog</text>
<text text-anchor="middle" x="488" y="-82" font-family="Helvetica,sans-Serif" font-size="10.00">::spbxIntervalChanged</text>
</a>
</g>
<!-- Node3&#45;&gt;Node4 -->
<g id="edge6" class="edge"><title>Node3&#45;&gt;Node4</title>
<path fill="none" stroke="midnightblue" d="M403.887,-91C412.808,-91 421.745,-91 430.288,-91"/>
<polygon fill="midnightblue" stroke="midnightblue" points="403.845,-87.5001 393.845,-91 403.845,-94.5001 403.845,-87.5001"/>
</g>
<!-- Node5 -->
<g id="node9" class="node"><title>Node5</title>
<a xlink:href="../../dc/d4e/class_grid_settings_dialog.html#accb85452fe6ac5e053dcaae228cd9866" target="_top" xlink:title="GridSettingsDialog\l::GridSettingsDialog">
<polygon fill="white" stroke="black" points="582,-74 582,-108 686,-108 686,-74 582,-74"/>
<text text-anchor="start" x="590" y="-95" font-family="Helvetica,sans-Serif" font-size="10.00">GridSettingsDialog</text>
<text text-anchor="middle" x="634" y="-82" font-family="Helvetica,sans-Serif" font-size="10.00">::GridSettingsDialog</text>
</a>
</g>
<!-- Node4&#45;&gt;Node5 -->
<g id="edge8" class="edge"><title>Node4&#45;&gt;Node5</title>
<path fill="none" stroke="midnightblue" d="M555.897,-91C564.644,-91 573.49,-91 581.928,-91"/>
<polygon fill="midnightblue" stroke="midnightblue" points="555.703,-87.5001 545.703,-91 555.703,-94.5001 555.703,-87.5001"/>
</g>
<!-- Node7 -->
<g id="node13" class="node"><title>Node7</title>
<a xlink:href="../../dd/d55/class_length_unit.html#ae929a880b44a3ba54b33d2b45e407cef" target="_top" xlink:title="Convert floating point numbers with this unit to a Point object. ">
<polygon fill="white" stroke="black" points="250.5,-40.5 250.5,-61.5 393.5,-61.5 393.5,-40.5 250.5,-40.5"/>
<text text-anchor="middle" x="322" y="-48.5" font-family="Helvetica,sans-Serif" font-size="10.00">LengthUnit::convertFromUnit</text>
</a>
</g>
<!-- Node6&#45;&gt;Node7 -->
<g id="edge12" class="edge"><title>Node6&#45;&gt;Node7</title>
<path fill="none" stroke="midnightblue" d="M215.789,-51C226.799,-51 238.613,-51 250.216,-51"/>
<polygon fill="midnightblue" stroke="midnightblue" points="215.513,-47.5001 205.513,-51 215.513,-54.5001 215.513,-47.5001"/>
</g>
</g>
</svg>
