<?xml version="1.0" encoding="UTF-8" standalone="no"?>
<!DOCTYPE svg PUBLIC "-//W3C//DTD SVG 1.1//EN"
 "http://www.w3.org/Graphics/SVG/1.1/DTD/svg11.dtd">
<!-- Generated by graphviz version 2.26.3 (20100126.1600)
 -->
<!-- Title: getIndex Pages: 1 -->
<svg width="532pt" height="220pt"
 viewBox="0.00 0.00 532.00 219.71" xmlns="http://www.w3.org/2000/svg" xmlns:xlink="http://www.w3.org/1999/xlink">
<g id="graph1" class="graph" transform="scale(1 1) rotate(0) translate(4 215.709)">
<title>getIndex</title>
<polygon fill="white" stroke="white" points="-4,5 -4,-215.709 529,-215.709 529,5 -4,5"/>
<!-- Node1 -->
<g id="node1" class="node"><title>Node1</title>
<polygon fill="#bfbfbf" stroke="black" points="0,-130.5 0,-151.5 54,-151.5 54,-130.5 0,-130.5"/>
<text text-anchor="middle" x="27" y="-138.5" font-family="Helvetica,sans-Serif" font-size="10.00">getIndex</text>
</g>
<!-- Node2 -->
<g id="node3" class="node"><title>Node2</title>
<a xlink:href="../../dc/d4e/class_grid_settings_dialog.html#accb85452fe6ac5e053dcaae228cd9866" target="_top" xlink:title="GridSettingsDialog\l::GridSettingsDialog">
<polygon fill="white" stroke="black" points="371,-174 371,-208 475,-208 475,-174 371,-174"/>
<text text-anchor="start" x="379" y="-195" font-family="Helvetica,sans-Serif" font-size="10.00">GridSettingsDialog</text>
<text text-anchor="middle" x="423" y="-182" font-family="Helvetica,sans-Serif" font-size="10.00">::GridSettingsDialog</text>
</a>
</g>
<!-- Node1&#45;&gt;Node2 -->
<g id="edge2" class="edge"><title>Node1&#45;&gt;Node2</title>
<path fill="none" stroke="midnightblue" d="M43.6782,-159.033C55.3953,-170.313 72.1191,-183.835 90,-190 184.69,-222.648 303.73,-211.564 370.794,-200.988"/>
<polygon fill="midnightblue" stroke="midnightblue" points="45.9378,-156.341 36.4136,-151.7 40.9648,-161.267 45.9378,-156.341"/>
</g>
<!-- Node3 -->
<g id="node5" class="node"><title>Node3</title>
<a xlink:href="../../dc/d4e/class_grid_settings_dialog.html#a4fe43a1e03977a7e1879ba51775b0ce5" target="_top" xlink:title="GridSettingsDialog\l::buttonBoxClicked">
<polygon fill="white" stroke="black" points="138,-147 138,-181 238,-181 238,-147 138,-147"/>
<text text-anchor="start" x="146" y="-168" font-family="Helvetica,sans-Serif" font-size="10.00">GridSettingsDialog</text>
<text text-anchor="middle" x="188" y="-155" font-family="Helvetica,sans-Serif" font-size="10.00">::buttonBoxClicked</text>
</a>
</g>
<!-- Node1&#45;&gt;Node3 -->
<g id="edge4" class="edge"><title>Node1&#45;&gt;Node3</title>
<path fill="none" stroke="midnightblue" d="M64.4916,-146.356C86.2935,-149.47 114.054,-153.436 137.731,-156.819"/>
<polygon fill="midnightblue" stroke="midnightblue" points="64.706,-142.851 54.3115,-144.902 63.7159,-149.781 64.706,-142.851"/>
</g>
<!-- Node4 -->
<g id="node8" class="node"><title>Node4</title>
<a xlink:href="../../d3/d01/class_w_s_i___app_default_measurement_units.html#a03e8889c79d47c2b4e92db649482ea89" target="_top" xlink:title="WSI_AppDefaultMeasurement\lUnits::WSI_AppDefaultMeasurementUnits">
<polygon fill="white" stroke="black" points="322,-104 322,-138 524,-138 524,-104 322,-104"/>
<text text-anchor="start" x="330" y="-125" font-family="Helvetica,sans-Serif" font-size="10.00">WSI_AppDefaultMeasurement</text>
<text text-anchor="middle" x="423" y="-112" font-family="Helvetica,sans-Serif" font-size="10.00">Units::WSI_AppDefaultMeasurementUnits</text>
</a>
</g>
<!-- Node1&#45;&gt;Node4 -->
<g id="edge8" class="edge"><title>Node1&#45;&gt;Node4</title>
<path fill="none" stroke="midnightblue" d="M64.4542,-139.108C122.897,-136.157 237.784,-130.354 321.813,-126.11"/>
<polygon fill="midnightblue" stroke="midnightblue" points="64.0294,-135.625 54.2187,-139.625 64.3825,-142.616 64.0294,-135.625"/>
</g>
<!-- Node5 -->
<g id="node10" class="node"><title>Node5</title>
<a xlink:href="../../d3/d01/class_w_s_i___app_default_measurement_units.html#a5302c5f4ca4d262c46a4406f80e10bcb" target="_top" xlink:title="WSI_AppDefaultMeasurement\lUnits::updateLengthUnitComboBoxIndex">
<polygon fill="white" stroke="black" points="90.5,-54 90.5,-88 285.5,-88 285.5,-54 90.5,-54"/>
<text text-anchor="start" x="98.5" y="-75" font-family="Helvetica,sans-Serif" font-size="10.00">WSI_AppDefaultMeasurement</text>
<text text-anchor="middle" x="188" y="-62" font-family="Helvetica,sans-Serif" font-size="10.00">Units::updateLengthUnitComboBoxIndex</text>
</a>
</g>
<!-- Node1&#45;&gt;Node5 -->
<g id="edge10" class="edge"><title>Node1&#45;&gt;Node5</title>
<path fill="none" stroke="midnightblue" d="M52.5054,-124.992C63.7502,-118.313 77.2771,-110.782 90,-105 103.69,-98.7786 118.875,-92.9985 133.124,-88.0337"/>
<polygon fill="midnightblue" stroke="midnightblue" points="50.4062,-122.171 43.6643,-130.344 54.0314,-128.159 50.4062,-122.171"/>
</g>
<!-- Node3&#45;&gt;Node2 -->
<g id="edge6" class="edge"><title>Node3&#45;&gt;Node2</title>
<path fill="none" stroke="midnightblue" d="M248.518,-170.953C286.411,-175.307 334.737,-180.859 370.918,-185.016"/>
<polygon fill="midnightblue" stroke="midnightblue" points="248.459,-167.423 238.125,-169.759 247.66,-174.378 248.459,-167.423"/>
</g>
<!-- Node5&#45;&gt;Node4 -->
<g id="edge12" class="edge"><title>Node5&#45;&gt;Node4</title>
<path fill="none" stroke="midnightblue" d="M278.206,-90.1928C299.457,-94.7142 321.968,-99.5039 342.746,-103.925"/>
<polygon fill="midnightblue" stroke="midnightblue" points="278.726,-86.7251 268.216,-88.0673 277.269,-93.5718 278.726,-86.7251"/>
</g>
<!-- Node6 -->
<g id="node13" class="node"><title>Node6</title>
<a xlink:href="../../d3/d01/class_w_s_i___app_default_measurement_units.html#af81bafa457fe65224135b2349b8d0f13" target="_top" xlink:title="WSI_AppDefaultMeasurement\lUnits::restoreDefault">
<polygon fill="white" stroke="black" points="348.5,-52 348.5,-86 497.5,-86 497.5,-52 348.5,-52"/>
<text text-anchor="start" x="356.5" y="-73" font-family="Helvetica,sans-Serif" font-size="10.00">WSI_AppDefaultMeasurement</text>
<text text-anchor="middle" x="423" y="-60" font-family="Helvetica,sans-Serif" font-size="10.00">Units::restoreDefault</text>
</a>
</g>
<!-- Node5&#45;&gt;Node6 -->
<g id="edge14" class="edge"><title>Node5&#45;&gt;Node6</title>
<path fill="none" stroke="midnightblue" d="M295.981,-70.081C313.655,-69.9306 331.619,-69.7777 348.259,-69.6361"/>
<polygon fill="midnightblue" stroke="midnightblue" points="295.589,-66.5841 285.62,-70.1692 295.649,-73.5839 295.589,-66.5841"/>
</g>
<!-- Node7 -->
<g id="node15" class="node"><title>Node7</title>
<a xlink:href="../../d3/d01/class_w_s_i___app_default_measurement_units.html#a9cf620340e16aa417bb112e0294038df" target="_top" xlink:title="WSI_AppDefaultMeasurement\lUnits::revert">
<polygon fill="white" stroke="black" points="348.5,-0 348.5,-34 497.5,-34 497.5,-0 348.5,-0"/>
<text text-anchor="start" x="356.5" y="-21" font-family="Helvetica,sans-Serif" font-size="10.00">WSI_AppDefaultMeasurement</text>
<text text-anchor="middle" x="423" y="-8" font-family="Helvetica,sans-Serif" font-size="10.00">Units::revert</text>
</a>
</g>
<!-- Node5&#45;&gt;Node7 -->
<g id="edge16" class="edge"><title>Node5&#45;&gt;Node7</title>
<path fill="none" stroke="midnightblue" d="M271.919,-51.7165C297.072,-45.9367 324.466,-39.6418 348.936,-34.0191"/>
<polygon fill="midnightblue" stroke="midnightblue" points="270.995,-48.3375 262.033,-53.9882 272.563,-55.1597 270.995,-48.3375"/>
</g>
</g>
</svg>
