<?xml version="1.0" encoding="UTF-8" standalone="no"?>
<!DOCTYPE svg PUBLIC "-//W3C//DTD SVG 1.1//EN"
 "http://www.w3.org/Graphics/SVG/1.1/DTD/svg11.dtd">
<!-- Generated by graphviz version 2.26.3 (20100126.1600)
 -->
<!-- Title: /home/travis/build/LibrePCB/LibrePCB/libs/librepcbworkspace/settings/items/wsi_librarynormorder.cpp Pages: 1 -->
<svg width="170pt" height="244pt"
 viewBox="0.00 0.00 170.00 244.00" xmlns="http://www.w3.org/2000/svg" xmlns:xlink="http://www.w3.org/1999/xlink">
<g id="graph1" class="graph" transform="scale(1 1) rotate(0) translate(4 240)">
<title>/home/travis/build/LibrePCB/LibrePCB/libs/librepcbworkspace/settings/items/wsi_librarynormorder.cpp</title>
<polygon fill="white" stroke="white" points="-4,5 -4,-240 167,-240 167,5 -4,5"/>
<!-- Node1 -->
<g id="node1" class="node"><title>Node1</title>
<polygon fill="#bfbfbf" stroke="black" points="7.5,-175 7.5,-235 162.5,-235 162.5,-175 7.5,-175"/>
<text text-anchor="start" x="15.5" y="-222" font-family="Helvetica,sans-Serif" font-size="10.00">/home/travis/build</text>
<text text-anchor="start" x="15.5" y="-209" font-family="Helvetica,sans-Serif" font-size="10.00">/LibrePCB/LibrePCB/libs</text>
<text text-anchor="start" x="15.5" y="-196" font-family="Helvetica,sans-Serif" font-size="10.00">/librepcbworkspace/settings</text>
<text text-anchor="middle" x="85" y="-183" font-family="Helvetica,sans-Serif" font-size="10.00">/items/wsi_librarynormorder.cpp</text>
</g>
<!-- Node2 -->
<g id="node3" class="node"><title>Node2</title>
<polygon fill="white" stroke="#bfbfbf" points="0,-0.5 0,-21.5 48,-21.5 48,-0.5 0,-0.5"/>
<text text-anchor="middle" x="24" y="-8.5" font-family="Helvetica,sans-Serif" font-size="10.00">QtCore</text>
</g>
<!-- Node1&#45;&gt;Node2 -->
<g id="edge2" class="edge"><title>Node1&#45;&gt;Node2</title>
<path fill="none" stroke="midnightblue" d="M45.4585,-174.853C34.8223,-164.462 24.6963,-151.9 19,-138 4.57656,-102.805 11.8438,-57.4264 18.1307,-31.5351"/>
<polygon fill="midnightblue" stroke="midnightblue" points="21.5539,-32.2787 20.699,-21.7184 14.7818,-30.5069 21.5539,-32.2787"/>
</g>
<!-- Node3 -->
<g id="node5" class="node"><title>Node3</title>
<polygon fill="white" stroke="#bfbfbf" points="89.5,-0.5 89.5,-21.5 152.5,-21.5 152.5,-0.5 89.5,-0.5"/>
<text text-anchor="middle" x="121" y="-8.5" font-family="Helvetica,sans-Serif" font-size="10.00">QtWidgets</text>
</g>
<!-- Node1&#45;&gt;Node3 -->
<g id="edge4" class="edge"><title>Node1&#45;&gt;Node3</title>
<path fill="none" stroke="midnightblue" d="M124.542,-174.853C135.178,-164.462 145.304,-151.9 151,-138 165.941,-101.542 146.736,-56.0066 132.884,-30.5535"/>
<polygon fill="midnightblue" stroke="midnightblue" points="135.74,-28.4967 127.743,-21.5471 129.661,-31.9669 135.74,-28.4967"/>
</g>
<!-- Node4 -->
<g id="node7" class="node"><title>Node4</title>
<a xlink:href="../../dd/d39/wsi__librarynormorder_8h.html" target="_top" xlink:title="wsi_librarynormorder.h">
<polygon fill="white" stroke="black" points="27.5,-116.5 27.5,-137.5 142.5,-137.5 142.5,-116.5 27.5,-116.5"/>
<text text-anchor="middle" x="85" y="-124.5" font-family="Helvetica,sans-Serif" font-size="10.00">wsi_librarynormorder.h</text>
</a>
</g>
<!-- Node1&#45;&gt;Node4 -->
<g id="edge6" class="edge"><title>Node1&#45;&gt;Node4</title>
<path fill="none" stroke="midnightblue" d="M85,-174.62C85,-165.68 85,-156.103 85,-147.9"/>
<polygon fill="midnightblue" stroke="midnightblue" points="88.5001,-147.753 85,-137.753 81.5001,-147.753 88.5001,-147.753"/>
</g>
<!-- Node5 -->
<g id="node9" class="node"><title>Node5</title>
<a xlink:href="../../dd/d8c/wsi__base_8h.html" target="_top" xlink:title="wsi_base.h">
<polygon fill="white" stroke="black" points="52,-58.5 52,-79.5 118,-79.5 118,-58.5 52,-58.5"/>
<text text-anchor="middle" x="85" y="-66.5" font-family="Helvetica,sans-Serif" font-size="10.00">wsi_base.h</text>
</a>
</g>
<!-- Node4&#45;&gt;Node5 -->
<g id="edge8" class="edge"><title>Node4&#45;&gt;Node5</title>
<path fill="none" stroke="midnightblue" d="M85,-116.362C85,-108.922 85,-98.7427 85,-89.7276"/>
<polygon fill="midnightblue" stroke="midnightblue" points="88.5001,-89.5706 85,-79.5707 81.5001,-89.5707 88.5001,-89.5706"/>
</g>
<!-- Node5&#45;&gt;Node2 -->
<g id="edge10" class="edge"><title>Node5&#45;&gt;Node2</title>
<path fill="none" stroke="midnightblue" d="M73.8117,-58.3619C65.041,-50.0226 52.6509,-38.2418 42.4222,-28.5162"/>
<polygon fill="midnightblue" stroke="midnightblue" points="44.7762,-25.9248 35.1174,-21.5707 39.9527,-30.9978 44.7762,-25.9248"/>
</g>
<!-- Node5&#45;&gt;Node3 -->
<g id="edge12" class="edge"><title>Node5&#45;&gt;Node3</title>
<path fill="none" stroke="midnightblue" d="M91.603,-58.3619C96.4746,-50.5131 103.238,-39.6159 109.05,-30.2527"/>
<polygon fill="midnightblue" stroke="midnightblue" points="112.139,-31.9129 114.439,-21.5707 106.191,-28.2213 112.139,-31.9129"/>
</g>
</g>
</svg>
