<?xml version="1.0" encoding="UTF-8" standalone="no"?>
<!DOCTYPE svg PUBLIC "-//W3C//DTD SVG 1.1//EN"
 "http://www.w3.org/Graphics/SVG/1.1/DTD/svg11.dtd">
<!-- Generated by graphviz version 2.26.3 (20100126.1600)
 -->
<!-- Title: /home/travis/build/LibrePCB/LibrePCB/libs/librepcblibrary/gencmp/gencompsymbvaritem.cpp Pages: 1 -->
<svg width="976pt" height="446pt"
 viewBox="0.00 0.00 976.00 446.00" xmlns="http://www.w3.org/2000/svg" xmlns:xlink="http://www.w3.org/1999/xlink">
<g id="graph1" class="graph" transform="scale(1 1) rotate(0) translate(4 442)">
<title>/home/travis/build/LibrePCB/LibrePCB/libs/librepcblibrary/gencmp/gencompsymbvaritem.cpp</title>
<polygon fill="white" stroke="white" points="-4,5 -4,-442 973,-442 973,5 -4,5"/>
<!-- Node1 -->
<g id="node1" class="node"><title>Node1</title>
<polygon fill="#bfbfbf" stroke="black" points="106,-377 106,-437 240,-437 240,-377 106,-377"/>
<text text-anchor="start" x="114" y="-424" font-family="Helvetica,sans-Serif" font-size="10.00">/home/travis/build</text>
<text text-anchor="start" x="114" y="-411" font-family="Helvetica,sans-Serif" font-size="10.00">/LibrePCB/LibrePCB/libs</text>
<text text-anchor="start" x="114" y="-398" font-family="Helvetica,sans-Serif" font-size="10.00">/librepcblibrary/gencmp</text>
<text text-anchor="middle" x="173" y="-385" font-family="Helvetica,sans-Serif" font-size="10.00">/gencompsymbvaritem.cpp</text>
</g>
<!-- Node2 -->
<g id="node3" class="node"><title>Node2</title>
<polygon fill="white" stroke="#bfbfbf" points="386,-0.5 386,-21.5 434,-21.5 434,-0.5 386,-0.5"/>
<text text-anchor="middle" x="410" y="-8.5" font-family="Helvetica,sans-Serif" font-size="10.00">QtCore</text>
</g>
<!-- Node1&#45;&gt;Node2 -->
<g id="edge2" class="edge"><title>Node1&#45;&gt;Node2</title>
<path fill="none" stroke="midnightblue" d="M105.618,-384.573C57.0428,-363.667 0,-327.16 0,-271 0,-271 0,-271 0,-148 7.10543e-15,-78.8193 63.0285,-84.3366 127,-58 171.608,-39.6354 310.751,-22.1517 375.817,-14.7313"/>
<polygon fill="midnightblue" stroke="midnightblue" points="376.421,-18.1855 385.966,-13.5872 375.637,-11.2296 376.421,-18.1855"/>
</g>
<!-- Node3 -->
<g id="node5" class="node"><title>Node3</title>
<a xlink:href="../../db/dc6/gencompsymbvaritem_8h.html" target="_top" xlink:title="gencompsymbvaritem.h">
<polygon fill="white" stroke="black" points="27.5,-202.5 27.5,-223.5 148.5,-223.5 148.5,-202.5 27.5,-202.5"/>
<text text-anchor="middle" x="88" y="-210.5" font-family="Helvetica,sans-Serif" font-size="10.00">gencompsymbvaritem.h</text>
</a>
</g>
<!-- Node1&#45;&gt;Node3 -->
<g id="edge4" class="edge"><title>Node1&#45;&gt;Node3</title>
<path fill="none" stroke="midnightblue" d="M157.467,-376.822C144.813,-351.742 126.84,-314.959 113,-282 106.239,-265.899 99.551,-247.259 94.7963,-233.416"/>
<polygon fill="midnightblue" stroke="midnightblue" points="98.0914,-232.234 91.568,-223.885 91.4614,-234.48 98.0914,-232.234"/>
</g>
<!-- Node6 -->
<g id="node13" class="node"><title>Node6</title>
<a xlink:href="../../d4/d98/genericcomponent_8h.html" target="_top" xlink:title="genericcomponent.h">
<polygon fill="white" stroke="black" points="237,-318.5 237,-339.5 341,-339.5 341,-318.5 237,-318.5"/>
<text text-anchor="middle" x="289" y="-326.5" font-family="Helvetica,sans-Serif" font-size="10.00">genericcomponent.h</text>
</a>
</g>
<!-- Node1&#45;&gt;Node6 -->
<g id="edge14" class="edge"><title>Node1&#45;&gt;Node6</title>
<path fill="none" stroke="midnightblue" d="M217.849,-376.843C233.852,-366.082 251.266,-354.373 264.86,-345.232"/>
<polygon fill="midnightblue" stroke="midnightblue" points="266.843,-348.116 273.189,-339.632 262.937,-342.307 266.843,-348.116"/>
</g>
<!-- Node13 -->
<g id="node35" class="node"><title>Node13</title>
<a xlink:href="../../d6/d12/gencompsymbvar_8h.html" target="_top" xlink:title="gencompsymbvar.h">
<polygon fill="white" stroke="black" points="122,-260.5 122,-281.5 224,-281.5 224,-260.5 122,-260.5"/>
<text text-anchor="middle" x="173" y="-268.5" font-family="Helvetica,sans-Serif" font-size="10.00">gencompsymbvar.h</text>
</a>
</g>
<!-- Node1&#45;&gt;Node13 -->
<g id="edge60" class="edge"><title>Node1&#45;&gt;Node13</title>
<path fill="none" stroke="midnightblue" d="M173,-376.817C173,-350.976 173,-314.452 173,-291.774"/>
<polygon fill="midnightblue" stroke="midnightblue" points="176.5,-291.583 173,-281.583 169.5,-291.583 176.5,-291.583"/>
</g>
<!-- Node15 -->
<g id="node46" class="node"><title>Node15</title>
<a xlink:href="../../d1/d68/xmldomelement_8h.html" target="_top" xlink:title="librepcbcommon/fileio\l/xmldomelement.h">
<polygon fill="white" stroke="black" points="760.5,-131 760.5,-165 871.5,-165 871.5,-131 760.5,-131"/>
<text text-anchor="start" x="768.5" y="-152" font-family="Helvetica,sans-Serif" font-size="10.00">librepcbcommon/fileio</text>
<text text-anchor="middle" x="816" y="-139" font-family="Helvetica,sans-Serif" font-size="10.00">/xmldomelement.h</text>
</a>
</g>
<!-- Node1&#45;&gt;Node15 -->
<g id="edge62" class="edge"><title>Node1&#45;&gt;Node15</title>
<path fill="none" stroke="midnightblue" d="M240.053,-393.497C326.233,-374.797 479.361,-336.985 602,-282 671.312,-250.924 744.842,-200.521 785.122,-171.195"/>
<polygon fill="midnightblue" stroke="midnightblue" points="787.444,-173.833 793.437,-165.096 783.303,-168.188 787.444,-173.833"/>
</g>
<!-- Node3&#45;&gt;Node2 -->
<g id="edge6" class="edge"><title>Node3&#45;&gt;Node2</title>
<path fill="none" stroke="midnightblue" d="M89.7207,-202.278C94.897,-173.762 113.099,-95.6661 162,-58 194.996,-32.5845 315.725,-18.9991 375.707,-13.6882"/>
<polygon fill="midnightblue" stroke="midnightblue" points="376.158,-17.1625 385.822,-12.8203 375.559,-10.1881 376.158,-17.1625"/>
</g>
<!-- Node4 -->
<g id="node8" class="node"><title>Node4</title>
<a xlink:href="../../d0/d1d/if__xmlserializableobject_8h.html" target="_top" xlink:title="librepcbcommon/fileio\l/if_xmlserializableobject.h">
<polygon fill="white" stroke="black" points="305.5,-131 305.5,-165 434.5,-165 434.5,-131 305.5,-131"/>
<text text-anchor="start" x="313.5" y="-152" font-family="Helvetica,sans-Serif" font-size="10.00">librepcbcommon/fileio</text>
<text text-anchor="middle" x="370" y="-139" font-family="Helvetica,sans-Serif" font-size="10.00">/if_xmlserializableobject.h</text>
</a>
</g>
<!-- Node3&#45;&gt;Node4 -->
<g id="edge8" class="edge"><title>Node3&#45;&gt;Node4</title>
<path fill="none" stroke="midnightblue" d="M133.622,-202.484C177.244,-192.429 243.797,-177.089 295.182,-165.245"/>
<polygon fill="midnightblue" stroke="midnightblue" points="296.287,-168.582 305.245,-162.926 294.714,-161.761 296.287,-168.582"/>
</g>
<!-- Node5 -->
<g id="node10" class="node"><title>Node5</title>
<a xlink:href="../../d4/d03/exceptions_8h.html" target="_top" xlink:title="../exceptions.h">
<polygon fill="white" stroke="black" points="437.5,-65.5 437.5,-86.5 518.5,-86.5 518.5,-65.5 437.5,-65.5"/>
<text text-anchor="middle" x="478" y="-73.5" font-family="Helvetica,sans-Serif" font-size="10.00">../exceptions.h</text>
</a>
</g>
<!-- Node4&#45;&gt;Node5 -->
<g id="edge10" class="edge"><title>Node4&#45;&gt;Node5</title>
<path fill="none" stroke="midnightblue" d="M395.594,-130.937C413.123,-119.251 436.235,-103.843 453.52,-92.3198"/>
<polygon fill="midnightblue" stroke="midnightblue" points="455.589,-95.1473 461.968,-86.688 451.706,-89.3229 455.589,-95.1473"/>
</g>
<!-- Node5&#45;&gt;Node2 -->
<g id="edge12" class="edge"><title>Node5&#45;&gt;Node2</title>
<path fill="none" stroke="midnightblue" d="M466.771,-65.2666C456.374,-55.328 440.719,-40.3635 428.48,-28.6645"/>
<polygon fill="midnightblue" stroke="midnightblue" points="430.667,-25.9135 421.02,-21.5337 425.83,-30.9736 430.667,-25.9135"/>
</g>
<!-- Node6&#45;&gt;Node2 -->
<g id="edge16" class="edge"><title>Node6&#45;&gt;Node2</title>
<path fill="none" stroke="midnightblue" d="M286.556,-318.345C282.362,-299.462 273.964,-258.83 271,-224 264.529,-147.949 264.16,-114.929 315,-58 331.221,-39.836 356.06,-27.8914 376.271,-20.5901"/>
<polygon fill="midnightblue" stroke="midnightblue" points="377.416,-23.8976 385.763,-17.372 375.169,-17.2682 377.416,-23.8976"/>
</g>
<!-- Node7 -->
<g id="node16" class="node"><title>Node7</title>
<a xlink:href="../../d0/db0/libraryelement_8h.html" target="_top" xlink:title="../libraryelement.h">
<polygon fill="white" stroke="black" points="498.5,-260.5 498.5,-281.5 593.5,-281.5 593.5,-260.5 498.5,-260.5"/>
<text text-anchor="middle" x="546" y="-268.5" font-family="Helvetica,sans-Serif" font-size="10.00">../libraryelement.h</text>
</a>
</g>
<!-- Node6&#45;&gt;Node7 -->
<g id="edge18" class="edge"><title>Node6&#45;&gt;Node7</title>
<path fill="none" stroke="midnightblue" d="M335.541,-318.497C378.799,-308.734 443.325,-294.172 489.516,-283.747"/>
<polygon fill="midnightblue" stroke="midnightblue" points="490.388,-287.139 499.372,-281.523 488.847,-280.31 490.388,-287.139"/>
</g>
<!-- Node12 -->
<g id="node31" class="node"><title>Node12</title>
<a xlink:href="../../d7/dbb/gencompsignal_8h.html" target="_top" xlink:title="gencompsignal.h">
<polygon fill="white" stroke="black" points="280,-202.5 280,-223.5 370,-223.5 370,-202.5 280,-202.5"/>
<text text-anchor="middle" x="325" y="-210.5" font-family="Helvetica,sans-Serif" font-size="10.00">gencompsignal.h</text>
</a>
</g>
<!-- Node6&#45;&gt;Node12 -->
<g id="edge38" class="edge"><title>Node6&#45;&gt;Node12</title>
<path fill="none" stroke="midnightblue" d="M292.322,-318.295C298.296,-299.045 310.945,-258.289 318.635,-233.509"/>
<polygon fill="midnightblue" stroke="midnightblue" points="322.064,-234.267 321.686,-223.679 315.379,-232.192 322.064,-234.267"/>
</g>
<!-- Node6&#45;&gt;Node13 -->
<g id="edge44" class="edge"><title>Node6&#45;&gt;Node13</title>
<path fill="none" stroke="midnightblue" d="M267.993,-318.497C249.957,-309.479 223.73,-296.365 203.401,-286.201"/>
<polygon fill="midnightblue" stroke="midnightblue" points="204.752,-282.963 194.242,-281.621 201.621,-289.224 204.752,-282.963"/>
</g>
<!-- Node14 -->
<g id="node40" class="node"><title>Node14</title>
<a xlink:href="../../d1/d99/libraryelementattribute_8h.html" target="_top" xlink:title="../libraryelementattribute.h">
<polygon fill="white" stroke="black" points="388,-202.5 388,-223.5 518,-223.5 518,-202.5 388,-202.5"/>
<text text-anchor="middle" x="453" y="-210.5" font-family="Helvetica,sans-Serif" font-size="10.00">../libraryelementattribute.h</text>
</a>
</g>
<!-- Node6&#45;&gt;Node14 -->
<g id="edge52" class="edge"><title>Node6&#45;&gt;Node14</title>
<path fill="none" stroke="midnightblue" d="M304.135,-318.295C332.815,-298.009 395.26,-253.84 429.456,-229.653"/>
<polygon fill="midnightblue" stroke="midnightblue" points="431.759,-232.311 437.902,-223.679 427.716,-226.596 431.759,-232.311"/>
</g>
<!-- Node7&#45;&gt;Node2 -->
<g id="edge20" class="edge"><title>Node7&#45;&gt;Node2</title>
<path fill="none" stroke="midnightblue" d="M548.563,-260.363C555.994,-226.78 574.155,-121.481 527,-58 507.555,-31.8225 471.122,-20.1958 444.056,-15.0496"/>
<polygon fill="midnightblue" stroke="midnightblue" points="444.641,-11.5989 434.197,-13.3777 443.471,-18.5004 444.641,-11.5989"/>
</g>
<!-- Node8 -->
<g id="node19" class="node"><title>Node8</title>
<a xlink:href="../../de/dd7/librarybaseelement_8h.html" target="_top" xlink:title="librarybaseelement.h">
<polygon fill="white" stroke="black" points="573.5,-202.5 573.5,-223.5 680.5,-223.5 680.5,-202.5 573.5,-202.5"/>
<text text-anchor="middle" x="627" y="-210.5" font-family="Helvetica,sans-Serif" font-size="10.00">librarybaseelement.h</text>
</a>
</g>
<!-- Node7&#45;&gt;Node8 -->
<g id="edge22" class="edge"><title>Node7&#45;&gt;Node8</title>
<path fill="none" stroke="midnightblue" d="M560.857,-260.362C572.846,-251.777 589.927,-239.546 603.728,-229.664"/>
<polygon fill="midnightblue" stroke="midnightblue" points="606.145,-232.238 612.238,-223.571 602.069,-226.547 606.145,-232.238"/>
</g>
<!-- Node8&#45;&gt;Node4 -->
<g id="edge26" class="edge"><title>Node8&#45;&gt;Node4</title>
<path fill="none" stroke="midnightblue" d="M585.423,-202.484C547.438,-192.877 490.376,-178.445 444.521,-166.848"/>
<polygon fill="midnightblue" stroke="midnightblue" points="445.174,-163.403 434.621,-164.344 443.457,-170.189 445.174,-163.403"/>
</g>
<!-- Node8&#45;&gt;Node5 -->
<g id="edge28" class="edge"><title>Node8&#45;&gt;Node5</title>
<path fill="none" stroke="midnightblue" d="M615.308,-202.25C589.74,-178.741 528.64,-122.561 497.284,-93.7311"/>
<polygon fill="midnightblue" stroke="midnightblue" points="499.368,-90.8922 489.637,-86.7002 494.63,-96.0451 499.368,-90.8922"/>
</g>
<!-- Node9 -->
<g id="node21" class="node"><title>Node9</title>
<polygon fill="white" stroke="#bfbfbf" points="690.5,-137.5 690.5,-158.5 743.5,-158.5 743.5,-137.5 690.5,-137.5"/>
<text text-anchor="middle" x="717" y="-145.5" font-family="Helvetica,sans-Serif" font-size="10.00">QObject</text>
</g>
<!-- Node8&#45;&gt;Node9 -->
<g id="edge24" class="edge"><title>Node8&#45;&gt;Node9</title>
<path fill="none" stroke="midnightblue" d="M641.862,-202.267C656.016,-192.044 677.533,-176.504 693.919,-164.67"/>
<polygon fill="midnightblue" stroke="midnightblue" points="696.357,-167.226 702.415,-158.534 692.259,-161.551 696.357,-167.226"/>
</g>
<!-- Node10 -->
<g id="node25" class="node"><title>Node10</title>
<a xlink:href="../../dd/dec/filepath_8h.html" target="_top" xlink:title="librepcbcommon/fileio\l/filepath.h">
<polygon fill="white" stroke="black" points="721.5,-59 721.5,-93 832.5,-93 832.5,-59 721.5,-59"/>
<text text-anchor="start" x="729.5" y="-80" font-family="Helvetica,sans-Serif" font-size="10.00">librepcbcommon/fileio</text>
<text text-anchor="middle" x="777" y="-67" font-family="Helvetica,sans-Serif" font-size="10.00">/filepath.h</text>
</a>
</g>
<!-- Node8&#45;&gt;Node10 -->
<g id="edge30" class="edge"><title>Node8&#45;&gt;Node10</title>
<path fill="none" stroke="midnightblue" d="M631.952,-202.425C640.313,-185.453 658.628,-151.827 682,-130 695.561,-117.336 712.626,-106.466 728.539,-97.8686"/>
<polygon fill="midnightblue" stroke="midnightblue" points="730.49,-100.799 737.74,-93.0726 727.254,-94.5913 730.49,-100.799"/>
</g>
<!-- Node11 -->
<g id="node28" class="node"><title>Node11</title>
<a xlink:href="../../df/dfc/version_8h.html" target="_top" xlink:title="librepcbcommon/version.h">
<polygon fill="white" stroke="black" points="573.5,-65.5 573.5,-86.5 704.5,-86.5 704.5,-65.5 573.5,-65.5"/>
<text text-anchor="middle" x="639" y="-73.5" font-family="Helvetica,sans-Serif" font-size="10.00">librepcbcommon/version.h</text>
</a>
</g>
<!-- Node8&#45;&gt;Node11 -->
<g id="edge34" class="edge"><title>Node8&#45;&gt;Node11</title>
<path fill="none" stroke="midnightblue" d="M627.942,-202.25C629.931,-179.541 634.59,-126.348 637.181,-96.7682"/>
<polygon fill="midnightblue" stroke="midnightblue" points="640.677,-96.9675 638.063,-86.7002 633.703,-96.3566 640.677,-96.9675"/>
</g>
<!-- Node10&#45;&gt;Node2 -->
<g id="edge32" class="edge"><title>Node10&#45;&gt;Node2</title>
<path fill="none" stroke="midnightblue" d="M721.252,-59.8946C718.469,-59.2246 715.707,-58.5884 713,-58 616.484,-37.0214 500.707,-21.7634 444.289,-14.9536"/>
<polygon fill="midnightblue" stroke="midnightblue" points="444.486,-11.4523 434.141,-13.743 443.656,-18.403 444.486,-11.4523"/>
</g>
<!-- Node11&#45;&gt;Node2 -->
<g id="edge36" class="edge"><title>Node11&#45;&gt;Node2</title>
<path fill="none" stroke="midnightblue" d="M601.953,-65.4844C558.333,-53.1032 486.48,-32.7084 444.156,-20.6949"/>
<polygon fill="midnightblue" stroke="midnightblue" points="444.897,-17.267 434.321,-17.9034 442.985,-24.001 444.897,-17.267"/>
</g>
<!-- Node12&#45;&gt;Node2 -->
<g id="edge40" class="edge"><title>Node12&#45;&gt;Node2</title>
<path fill="none" stroke="midnightblue" d="M316.247,-202.199C309.506,-193.144 300.731,-179.553 297,-166 292.753,-150.574 291.069,-144.86 297,-130 314.726,-85.5902 357.779,-48.2623 385.331,-27.8188"/>
<polygon fill="midnightblue" stroke="midnightblue" points="387.624,-30.4803 393.68,-21.7871 383.525,-24.8062 387.624,-30.4803"/>
</g>
<!-- Node12&#45;&gt;Node4 -->
<g id="edge42" class="edge"><title>Node12&#45;&gt;Node4</title>
<path fill="none" stroke="midnightblue" d="M332.431,-202.267C337.837,-194.458 345.391,-183.546 352.309,-173.554"/>
<polygon fill="midnightblue" stroke="midnightblue" points="355.34,-175.324 358.155,-165.11 349.585,-171.34 355.34,-175.324"/>
</g>
<!-- Node13&#45;&gt;Node2 -->
<g id="edge46" class="edge"><title>Node13&#45;&gt;Node2</title>
<path fill="none" stroke="midnightblue" d="M172.17,-260.352C170.102,-225.822 168.516,-115.842 226,-58 246.796,-37.0739 328.44,-22.4363 375.692,-15.5217"/>
<polygon fill="midnightblue" stroke="midnightblue" points="376.375,-18.96 385.782,-14.086 375.389,-12.0298 376.375,-18.96"/>
</g>
<!-- Node13&#45;&gt;Node3 -->
<g id="edge50" class="edge"><title>Node13&#45;&gt;Node3</title>
<path fill="none" stroke="midnightblue" d="M157.41,-260.362C144.709,-251.696 126.562,-239.313 112.008,-229.382"/>
<polygon fill="midnightblue" stroke="midnightblue" points="113.724,-226.316 103.491,-223.571 109.779,-232.098 113.724,-226.316"/>
</g>
<!-- Node13&#45;&gt;Node4 -->
<g id="edge48" class="edge"><title>Node13&#45;&gt;Node4</title>
<path fill="none" stroke="midnightblue" d="M186.938,-260.424C205.637,-246.414 240.079,-221.232 271,-202 289.121,-190.73 309.759,-179.267 327.485,-169.819"/>
<polygon fill="midnightblue" stroke="midnightblue" points="329.255,-172.842 336.46,-165.074 325.984,-166.654 329.255,-172.842"/>
</g>
<!-- Node14&#45;&gt;Node2 -->
<g id="edge54" class="edge"><title>Node14&#45;&gt;Node2</title>
<path fill="none" stroke="midnightblue" d="M452.571,-202.364C451.738,-186.423 449.382,-155.483 443,-130 438.829,-113.347 434.04,-110.411 429,-94 422.556,-73.0187 417.196,-48.4552 413.83,-31.5226"/>
<polygon fill="midnightblue" stroke="midnightblue" points="417.248,-30.7658 411.914,-21.6117 410.375,-32.0942 417.248,-30.7658"/>
</g>
<!-- Node14&#45;&gt;Node4 -->
<g id="edge58" class="edge"><title>Node14&#45;&gt;Node4</title>
<path fill="none" stroke="midnightblue" d="M439.294,-202.267C428.618,-193.906 413.399,-181.988 399.943,-171.449"/>
<polygon fill="midnightblue" stroke="midnightblue" points="401.879,-168.52 391.848,-165.11 397.563,-174.031 401.879,-168.52"/>
</g>
<!-- Node14&#45;&gt;Node5 -->
<g id="edge56" class="edge"><title>Node14&#45;&gt;Node5</title>
<path fill="none" stroke="midnightblue" d="M459.907,-202.309C465.436,-193.101 472.779,-179.24 476,-166 481.63,-142.861 481.266,-115.382 480.05,-96.9271"/>
<polygon fill="midnightblue" stroke="midnightblue" points="483.519,-96.4089 479.228,-86.7221 476.542,-96.9709 483.519,-96.4089"/>
</g>
<!-- Node15&#45;&gt;Node2 -->
<g id="edge64" class="edge"><title>Node15&#45;&gt;Node2</title>
<path fill="none" stroke="midnightblue" d="M829.04,-130.951C842.542,-111.09 859.299,-78.4024 841,-58 814.63,-28.5984 541.799,-15.8153 444.355,-12.1638"/>
<polygon fill="midnightblue" stroke="midnightblue" points="444.279,-8.6588 434.158,-11.7913 444.024,-15.6541 444.279,-8.6588"/>
</g>
<!-- Node15&#45;&gt;Node5 -->
<g id="edge68" class="edge"><title>Node15&#45;&gt;Node5</title>
<path fill="none" stroke="midnightblue" d="M760.224,-132.015C757.449,-131.313 754.696,-130.637 752,-130 669.634,-110.525 647.998,-110.574 565,-94 553.183,-91.6403 540.476,-89.0444 528.523,-86.5763"/>
<polygon fill="midnightblue" stroke="midnightblue" points="529.198,-83.1419 518.696,-84.5412 527.778,-89.9964 529.198,-83.1419"/>
</g>
<!-- Node15&#45;&gt;Node10 -->
<g id="edge70" class="edge"><title>Node15&#45;&gt;Node10</title>
<path fill="none" stroke="midnightblue" d="M806.758,-130.937C802.162,-122.454 796.505,-112.009 791.361,-102.513"/>
<polygon fill="midnightblue" stroke="midnightblue" points="794.287,-100.567 786.447,-93.4407 788.132,-103.901 794.287,-100.567"/>
</g>
<!-- Node16 -->
<g id="node49" class="node"><title>Node16</title>
<polygon fill="white" stroke="#bfbfbf" points="887.5,-65.5 887.5,-86.5 968.5,-86.5 968.5,-65.5 887.5,-65.5"/>
<text text-anchor="middle" x="928" y="-73.5" font-family="Helvetica,sans-Serif" font-size="10.00">QDomElement</text>
</g>
<!-- Node15&#45;&gt;Node16 -->
<g id="edge66" class="edge"><title>Node15&#45;&gt;Node16</title>
<path fill="none" stroke="midnightblue" d="M842.542,-130.937C860.721,-119.251 884.688,-103.843 902.614,-92.3198"/>
<polygon fill="midnightblue" stroke="midnightblue" points="904.855,-95.0398 911.374,-86.688 901.07,-89.1515 904.855,-95.0398"/>
</g>
</g>
</svg>
