<?xml version="1.0" encoding="UTF-8" standalone="no"?>
<!DOCTYPE svg PUBLIC "-//W3C//DTD SVG 1.1//EN"
 "http://www.w3.org/Graphics/SVG/1.1/DTD/svg11.dtd">
<!-- Generated by graphviz version 2.26.3 (20100126.1600)
 -->
<!-- Title: /home/travis/build/LibrePCB/LibrePCB/libs/librepcbproject/schematics/schematic.h Pages: 1 -->
<svg width="708pt" height="402pt"
 viewBox="0.00 0.00 708.00 402.00" xmlns="http://www.w3.org/2000/svg" xmlns:xlink="http://www.w3.org/1999/xlink">
<g id="graph1" class="graph" transform="scale(1 1) rotate(0) translate(4 398)">
<title>/home/travis/build/LibrePCB/LibrePCB/libs/librepcbproject/schematics/schematic.h</title>
<polygon fill="white" stroke="white" points="-4,5 -4,-398 705,-398 705,5 -4,5"/>
<!-- Node1 -->
<g id="node1" class="node"><title>Node1</title>
<polygon fill="#bfbfbf" stroke="black" points="258,-333 258,-393 394,-393 394,-333 258,-333"/>
<text text-anchor="start" x="266" y="-380" font-family="Helvetica,sans-Serif" font-size="10.00">/home/travis/build</text>
<text text-anchor="start" x="266" y="-367" font-family="Helvetica,sans-Serif" font-size="10.00">/LibrePCB/LibrePCB/libs</text>
<text text-anchor="start" x="266" y="-354" font-family="Helvetica,sans-Serif" font-size="10.00">/librepcbproject/schematics</text>
<text text-anchor="middle" x="326" y="-341" font-family="Helvetica,sans-Serif" font-size="10.00">/schematic.h</text>
</g>
<!-- Node2 -->
<g id="node3" class="node"><title>Node2</title>
<polygon fill="white" stroke="#bfbfbf" points="417,-0.5 417,-21.5 465,-21.5 465,-0.5 417,-0.5"/>
<text text-anchor="middle" x="441" y="-8.5" font-family="Helvetica,sans-Serif" font-size="10.00">QtCore</text>
</g>
<!-- Node1&#45;&gt;Node2 -->
<g id="edge2" class="edge"><title>Node1&#45;&gt;Node2</title>
<path fill="none" stroke="midnightblue" d="M257.66,-344.881C162.066,-317.491 0,-262.694 0,-206 0,-206 0,-206 0,-141 0,-56.2957 303.116,-22.6871 406.746,-13.672"/>
<polygon fill="midnightblue" stroke="midnightblue" points="407.308,-17.1371 416.977,-12.8061 406.717,-10.1621 407.308,-17.1371"/>
</g>
<!-- Node3 -->
<g id="node5" class="node"><title>Node3</title>
<polygon fill="white" stroke="#bfbfbf" points="637.5,-267.5 637.5,-288.5 700.5,-288.5 700.5,-267.5 637.5,-267.5"/>
<text text-anchor="middle" x="669" y="-275.5" font-family="Helvetica,sans-Serif" font-size="10.00">QtWidgets</text>
</g>
<!-- Node1&#45;&gt;Node3 -->
<g id="edge4" class="edge"><title>Node1&#45;&gt;Node3</title>
<path fill="none" stroke="midnightblue" d="M394.271,-350.865C455.202,-339.277 546.511,-320.041 624,-296 627.586,-294.887 631.29,-293.616 634.96,-292.274"/>
<polygon fill="midnightblue" stroke="midnightblue" points="636.411,-295.467 644.497,-288.622 633.907,-288.93 636.411,-295.467"/>
</g>
<!-- Node4 -->
<g id="node7" class="node"><title>Node4</title>
<a xlink:href="../../da/d81/if__attributeprovider_8h.html" target="_top" xlink:title="librepcbcommon/if_attributeprovider.h">
<polygon fill="white" stroke="black" points="27.5,-195.5 27.5,-216.5 206.5,-216.5 206.5,-195.5 27.5,-195.5"/>
<text text-anchor="middle" x="117" y="-203.5" font-family="Helvetica,sans-Serif" font-size="10.00">librepcbcommon/if_attributeprovider.h</text>
</a>
</g>
<!-- Node1&#45;&gt;Node4 -->
<g id="edge6" class="edge"><title>Node1&#45;&gt;Node4</title>
<path fill="none" stroke="midnightblue" d="M274.79,-332.851C257.042,-321.827 237.276,-308.887 220,-296 188.883,-272.789 155.506,-242.521 135.444,-223.675"/>
<polygon fill="midnightblue" stroke="midnightblue" points="137.62,-220.915 127.951,-216.584 132.808,-225.999 137.62,-220.915"/>
</g>
<!-- Node5 -->
<g id="node10" class="node"><title>Node5</title>
<a xlink:href="../../d0/d1d/if__xmlserializableobject_8h.html" target="_top" xlink:title="librepcbcommon/fileio\l/if_xmlserializableobject.h">
<polygon fill="white" stroke="black" points="261.5,-189 261.5,-223 390.5,-223 390.5,-189 261.5,-189"/>
<text text-anchor="start" x="269.5" y="-210" font-family="Helvetica,sans-Serif" font-size="10.00">librepcbcommon/fileio</text>
<text text-anchor="middle" x="326" y="-197" font-family="Helvetica,sans-Serif" font-size="10.00">/if_xmlserializableobject.h</text>
</a>
</g>
<!-- Node1&#45;&gt;Node5 -->
<g id="edge10" class="edge"><title>Node1&#45;&gt;Node5</title>
<path fill="none" stroke="midnightblue" d="M326,-332.729C326,-303.938 326,-261.015 326,-233.263"/>
<polygon fill="midnightblue" stroke="midnightblue" points="329.5,-233.082 326,-223.082 322.5,-233.082 329.5,-233.082"/>
</g>
<!-- Node6 -->
<g id="node12" class="node"><title>Node6</title>
<a xlink:href="../../d4/d03/exceptions_8h.html" target="_top" xlink:title="../exceptions.h">
<polygon fill="white" stroke="black" points="313.5,-65.5 313.5,-86.5 394.5,-86.5 394.5,-65.5 313.5,-65.5"/>
<text text-anchor="middle" x="354" y="-73.5" font-family="Helvetica,sans-Serif" font-size="10.00">../exceptions.h</text>
</a>
</g>
<!-- Node1&#45;&gt;Node6 -->
<g id="edge46" class="edge"><title>Node1&#45;&gt;Node6</title>
<path fill="none" stroke="midnightblue" d="M298.515,-332.86C270.353,-298.153 233.279,-239.316 253,-188 268.543,-147.554 306.197,-112.597 330.88,-92.9338"/>
<polygon fill="midnightblue" stroke="midnightblue" points="333.251,-95.5243 339.012,-86.6326 328.964,-89.9909 333.251,-95.5243"/>
</g>
<!-- Node7 -->
<g id="node15" class="node"><title>Node7</title>
<a xlink:href="../../d1/da8/all__length__units_8h.html" target="_top" xlink:title="librepcbcommon/units\l/all_length_units.h">
<polygon fill="white" stroke="black" points="400,-261 400,-295 512,-295 512,-261 400,-261"/>
<text text-anchor="start" x="408" y="-282" font-family="Helvetica,sans-Serif" font-size="10.00">librepcbcommon/units</text>
<text text-anchor="middle" x="456" y="-269" font-family="Helvetica,sans-Serif" font-size="10.00">/all_length_units.h</text>
</a>
</g>
<!-- Node1&#45;&gt;Node7 -->
<g id="edge16" class="edge"><title>Node1&#45;&gt;Node7</title>
<path fill="none" stroke="midnightblue" d="M372.199,-332.793C388.427,-322.182 406.365,-310.453 421.468,-300.579"/>
<polygon fill="midnightblue" stroke="midnightblue" points="423.543,-303.403 429.998,-295.002 419.713,-297.545 423.543,-303.403"/>
</g>
<!-- Node12 -->
<g id="node33" class="node"><title>Node12</title>
<a xlink:href="../../dd/dec/filepath_8h.html" target="_top" xlink:title="librepcbcommon/fileio\l/filepath.h">
<polygon fill="white" stroke="black" points="571.5,-59 571.5,-93 682.5,-93 682.5,-59 571.5,-59"/>
<text text-anchor="start" x="579.5" y="-80" font-family="Helvetica,sans-Serif" font-size="10.00">librepcbcommon/fileio</text>
<text text-anchor="middle" x="627" y="-67" font-family="Helvetica,sans-Serif" font-size="10.00">/filepath.h</text>
</a>
</g>
<!-- Node1&#45;&gt;Node12 -->
<g id="edge42" class="edge"><title>Node1&#45;&gt;Node12</title>
<path fill="none" stroke="midnightblue" d="M394.013,-352.459C434.607,-343.268 485.078,-326.421 521,-296 581.932,-244.4 610.58,-149.656 621.469,-103.173"/>
<polygon fill="midnightblue" stroke="midnightblue" points="624.925,-103.756 623.696,-93.2325 618.094,-102.225 624.925,-103.756"/>
</g>
<!-- Node4&#45;&gt;Node2 -->
<g id="edge8" class="edge"><title>Node4&#45;&gt;Node2</title>
<path fill="none" stroke="midnightblue" d="M127.913,-195.188C155.404,-168.481 230.627,-98.6133 305,-58 337.806,-40.0857 378.722,-27.0566 407.061,-19.3219"/>
<polygon fill="midnightblue" stroke="midnightblue" points="408.127,-22.6603 416.895,-16.7126 406.332,-15.8945 408.127,-22.6603"/>
</g>
<!-- Node5&#45;&gt;Node6 -->
<g id="edge12" class="edge"><title>Node5&#45;&gt;Node6</title>
<path fill="none" stroke="midnightblue" d="M326.944,-188.911C328.056,-173.386 330.373,-149.931 335,-130 337.669,-118.504 341.95,-106.054 345.773,-96.0084"/>
<polygon fill="midnightblue" stroke="midnightblue" points="349.09,-97.138 349.505,-86.5513 342.579,-94.5684 349.09,-97.138"/>
</g>
<!-- Node6&#45;&gt;Node2 -->
<g id="edge14" class="edge"><title>Node6&#45;&gt;Node2</title>
<path fill="none" stroke="midnightblue" d="M368.366,-65.2666C382.049,-55.0441 402.848,-39.5043 418.688,-27.6699"/>
<polygon fill="midnightblue" stroke="midnightblue" points="420.985,-30.3229 426.901,-21.5337 416.795,-24.7151 420.985,-30.3229"/>
</g>
<!-- Node8 -->
<g id="node17" class="node"><title>Node8</title>
<a xlink:href="../../d0/d09/lengthunit_8h.html" target="_top" xlink:title="lengthunit.h">
<polygon fill="white" stroke="black" points="343.5,-130.5 343.5,-151.5 410.5,-151.5 410.5,-130.5 343.5,-130.5"/>
<text text-anchor="middle" x="377" y="-138.5" font-family="Helvetica,sans-Serif" font-size="10.00">lengthunit.h</text>
</a>
</g>
<!-- Node7&#45;&gt;Node8 -->
<g id="edge18" class="edge"><title>Node7&#45;&gt;Node8</title>
<path fill="none" stroke="midnightblue" d="M446.154,-260.926C431.419,-235.372 403.709,-187.318 388.214,-160.447"/>
<polygon fill="midnightblue" stroke="midnightblue" points="391.132,-158.501 383.105,-151.586 385.068,-161.998 391.132,-158.501"/>
</g>
<!-- Node9 -->
<g id="node21" class="node"><title>Node9</title>
<a xlink:href="../../dd/db9/length_8h.html" target="_top" xlink:title="length.h">
<polygon fill="white" stroke="black" points="427.5,-130.5 427.5,-151.5 478.5,-151.5 478.5,-130.5 427.5,-130.5"/>
<text text-anchor="middle" x="453" y="-138.5" font-family="Helvetica,sans-Serif" font-size="10.00">length.h</text>
</a>
</g>
<!-- Node7&#45;&gt;Node9 -->
<g id="edge24" class="edge"><title>Node7&#45;&gt;Node9</title>
<path fill="none" stroke="midnightblue" d="M455.626,-260.926C455.076,-235.821 454.051,-188.998 453.457,-161.881"/>
<polygon fill="midnightblue" stroke="midnightblue" points="456.95,-161.507 453.232,-151.586 449.952,-161.661 456.95,-161.507"/>
</g>
<!-- Node10 -->
<g id="node25" class="node"><title>Node10</title>
<a xlink:href="../../d2/d91/point_8h.html" target="_top" xlink:title="point.h">
<polygon fill="white" stroke="black" points="484,-195.5 484,-216.5 530,-216.5 530,-195.5 484,-195.5"/>
<text text-anchor="middle" x="507" y="-203.5" font-family="Helvetica,sans-Serif" font-size="10.00">point.h</text>
</a>
</g>
<!-- Node7&#45;&gt;Node10 -->
<g id="edge30" class="edge"><title>Node7&#45;&gt;Node10</title>
<path fill="none" stroke="midnightblue" d="M468.086,-260.937C475.71,-250.174 485.569,-236.255 493.456,-225.12"/>
<polygon fill="midnightblue" stroke="midnightblue" points="496.354,-227.084 499.278,-216.901 490.642,-223.038 496.354,-227.084"/>
</g>
<!-- Node11 -->
<g id="node29" class="node"><title>Node11</title>
<a xlink:href="../../da/dac/angle_8h.html" target="_top" xlink:title="angle.h">
<polygon fill="white" stroke="black" points="534,-130.5 534,-151.5 582,-151.5 582,-130.5 534,-130.5"/>
<text text-anchor="middle" x="558" y="-138.5" font-family="Helvetica,sans-Serif" font-size="10.00">angle.h</text>
</a>
</g>
<!-- Node7&#45;&gt;Node11 -->
<g id="edge36" class="edge"><title>Node7&#45;&gt;Node11</title>
<path fill="none" stroke="midnightblue" d="M494.778,-260.949C510.713,-252.096 527.978,-239.787 539,-224 551.895,-205.531 556.171,-179.643 557.519,-161.711"/>
<polygon fill="midnightblue" stroke="midnightblue" points="561.015,-161.877 558.032,-151.711 554.024,-161.519 561.015,-161.877"/>
</g>
<!-- Node8&#45;&gt;Node2 -->
<g id="edge20" class="edge"><title>Node8&#45;&gt;Node2</title>
<path fill="none" stroke="midnightblue" d="M383.225,-130.297C388.646,-120.851 396.615,-106.654 403,-94 413.701,-72.7921 424.899,-47.9649 432.342,-31.0271"/>
<polygon fill="midnightblue" stroke="midnightblue" points="435.663,-32.1687 436.454,-21.6034 429.247,-29.3693 435.663,-32.1687"/>
</g>
<!-- Node8&#45;&gt;Node6 -->
<g id="edge22" class="edge"><title>Node8&#45;&gt;Node6</title>
<path fill="none" stroke="midnightblue" d="M373.202,-130.267C369.92,-120.991 365.088,-107.336 361.093,-96.0453"/>
<polygon fill="midnightblue" stroke="midnightblue" points="364.363,-94.7934 357.727,-86.5337 357.764,-97.1285 364.363,-94.7934"/>
</g>
<!-- Node9&#45;&gt;Node2 -->
<g id="edge26" class="edge"><title>Node9&#45;&gt;Node2</title>
<path fill="none" stroke="midnightblue" d="M452.018,-130.362C450.04,-108.936 445.545,-60.2402 442.949,-32.1143"/>
<polygon fill="midnightblue" stroke="midnightblue" points="446.4,-31.4214 441.996,-21.7854 439.43,-32.0648 446.4,-31.4214"/>
</g>
<!-- Node9&#45;&gt;Node6 -->
<g id="edge28" class="edge"><title>Node9&#45;&gt;Node6</title>
<path fill="none" stroke="midnightblue" d="M436.652,-130.267C420.938,-119.949 396.975,-104.216 378.89,-92.3421"/>
<polygon fill="midnightblue" stroke="midnightblue" points="380.324,-89.0964 370.044,-86.5337 376.482,-94.9479 380.324,-89.0964"/>
</g>
<!-- Node10&#45;&gt;Node2 -->
<g id="edge32" class="edge"><title>Node10&#45;&gt;Node2</title>
<path fill="none" stroke="midnightblue" d="M504.453,-195.09C500.916,-180.251 494.141,-152.927 487,-130 476.883,-97.5165 473.443,-89.6653 461,-58 457.495,-49.0812 453.386,-39.3173 449.806,-31.011"/>
<polygon fill="midnightblue" stroke="midnightblue" points="452.979,-29.5299 445.78,-21.7568 446.56,-32.3228 452.979,-29.5299"/>
</g>
<!-- Node10&#45;&gt;Node9 -->
<g id="edge34" class="edge"><title>Node10&#45;&gt;Node9</title>
<path fill="none" stroke="midnightblue" d="M498.083,-195.267C489.984,-185.517 477.866,-170.932 468.233,-159.336"/>
<polygon fill="midnightblue" stroke="midnightblue" points="470.833,-156.989 461.751,-151.534 465.449,-161.462 470.833,-156.989"/>
</g>
<!-- Node11&#45;&gt;Node2 -->
<g id="edge38" class="edge"><title>Node11&#45;&gt;Node2</title>
<path fill="none" stroke="midnightblue" d="M555.373,-130.422C550.711,-113.445 539.59,-79.814 520,-58 507.461,-44.0371 489.772,-32.9848 474.311,-25.1153"/>
<polygon fill="midnightblue" stroke="midnightblue" points="475.564,-21.8335 465.037,-20.6292 472.515,-28.1348 475.564,-21.8335"/>
</g>
<!-- Node11&#45;&gt;Node6 -->
<g id="edge40" class="edge"><title>Node11&#45;&gt;Node6</title>
<path fill="none" stroke="midnightblue" d="M533.797,-133.288C500.088,-122.548 438.468,-102.914 396.877,-89.6618"/>
<polygon fill="midnightblue" stroke="midnightblue" points="397.876,-86.3068 387.285,-86.6056 395.751,-92.9764 397.876,-86.3068"/>
</g>
<!-- Node12&#45;&gt;Node2 -->
<g id="edge44" class="edge"><title>Node12&#45;&gt;Node2</title>
<path fill="none" stroke="midnightblue" d="M578.131,-58.922C545.587,-47.5494 503.659,-32.8968 474.778,-22.8041"/>
<polygon fill="midnightblue" stroke="midnightblue" points="475.738,-19.4322 465.143,-19.4372 473.429,-26.0403 475.738,-19.4322"/>
</g>
</g>
</svg>
