<?xml version="1.0" encoding="UTF-8" standalone="no"?>
<!DOCTYPE svg PUBLIC "-//W3C//DTD SVG 1.1//EN"
 "http://www.w3.org/Graphics/SVG/1.1/DTD/svg11.dtd">
<!-- Generated by graphviz version 2.26.3 (20100126.1600)
 -->
<!-- Title: getIsMirrored Pages: 1 -->
<svg width="1046pt" height="304pt"
 viewBox="0.00 0.00 1046.00 304.23" xmlns="http://www.w3.org/2000/svg" xmlns:xlink="http://www.w3.org/1999/xlink">
<g id="graph1" class="graph" transform="scale(1 1) rotate(0) translate(4 300.225)">
<title>getIsMirrored</title>
<polygon fill="white" stroke="white" points="-4,5 -4,-300.225 1043,-300.225 1043,5 -4,5"/>
<!-- Node1 -->
<g id="node1" class="node"><title>Node1</title>
<polygon fill="#bfbfbf" stroke="black" points="0,-233.5 0,-254.5 74,-254.5 74,-233.5 0,-233.5"/>
<text text-anchor="middle" x="37" y="-241.5" font-family="Helvetica,sans-Serif" font-size="10.00">getIsMirrored</text>
</g>
<!-- Node2 -->
<g id="node3" class="node"><title>Node2</title>
<a xlink:href="../../da/d96/classproject_1_1_b_i___footprint.html#a02fd73d861ef2e4aabb38c0c9ff82947" target="_top" xlink:title="project::BI_Footprint\l::init">
<polygon fill="white" stroke="black" points="932.5,-118 932.5,-152 1037.5,-152 1037.5,-118 932.5,-118"/>
<text text-anchor="start" x="940.5" y="-139" font-family="Helvetica,sans-Serif" font-size="10.00">project::BI_Footprint</text>
<text text-anchor="middle" x="985" y="-126" font-family="Helvetica,sans-Serif" font-size="10.00">::init</text>
</a>
</g>
<!-- Node1&#45;&gt;Node2 -->
<g id="edge2" class="edge"><title>Node1&#45;&gt;Node2</title>
<path fill="none" stroke="midnightblue" d="M84.3443,-255.095C139.079,-266.932 232.035,-284 313,-284 313,-284 313,-284 644,-284 756.318,-284 798.689,-321.087 896,-265 940.551,-239.322 967.666,-181.249 978.928,-152.209"/>
<polygon fill="midnightblue" stroke="midnightblue" points="84.7693,-251.605 74.2512,-252.877 83.2671,-258.442 84.7693,-251.605"/>
</g>
<!-- Node3 -->
<g id="node5" class="node"><title>Node3</title>
<a xlink:href="../../da/d96/classproject_1_1_b_i___footprint.html#ad998db94981ac7167deba7a777b9945d" target="_top" xlink:title="project::BI_Footprint\l::getIsMirrored">
<polygon fill="white" stroke="black" points="110.5,-188 110.5,-222 215.5,-222 215.5,-188 110.5,-188"/>
<text text-anchor="start" x="118.5" y="-209" font-family="Helvetica,sans-Serif" font-size="10.00">project::BI_Footprint</text>
<text text-anchor="middle" x="163" y="-196" font-family="Helvetica,sans-Serif" font-size="10.00">::getIsMirrored</text>
</a>
</g>
<!-- Node1&#45;&gt;Node3 -->
<g id="edge4" class="edge"><title>Node1&#45;&gt;Node3</title>
<path fill="none" stroke="midnightblue" d="M80.7748,-230.451C90.328,-227.494 100.534,-224.335 110.39,-221.284"/>
<polygon fill="midnightblue" stroke="midnightblue" points="79.6154,-227.146 71.0974,-233.446 81.6852,-233.833 79.6154,-227.146"/>
</g>
<!-- Node4 -->
<g id="node7" class="node"><title>Node4</title>
<a xlink:href="../../dc/d87/classproject_1_1_b_g_i___footprint.html#abbb5db1b700a86caa85ff4c0c13142f2" target="_top" xlink:title="project::BGI_Footprint\l::updateCacheAndRepaint">
<polygon fill="white" stroke="black" points="578.5,-118 578.5,-152 709.5,-152 709.5,-118 578.5,-118"/>
<text text-anchor="start" x="586.5" y="-139" font-family="Helvetica,sans-Serif" font-size="10.00">project::BGI_Footprint</text>
<text text-anchor="middle" x="644" y="-126" font-family="Helvetica,sans-Serif" font-size="10.00">::updateCacheAndRepaint</text>
</a>
</g>
<!-- Node3&#45;&gt;Node4 -->
<g id="edge6" class="edge"><title>Node3&#45;&gt;Node4</title>
<path fill="none" stroke="midnightblue" d="M225.633,-185.24C234.428,-182.894 243.4,-180.725 252,-179 365.475,-156.234 499.964,-144.35 578.268,-138.903"/>
<polygon fill="midnightblue" stroke="midnightblue" points="224.517,-181.917 215.807,-187.949 226.378,-188.665 224.517,-181.917"/>
</g>
<!-- Node9 -->
<g id="node21" class="node"><title>Node9</title>
<a xlink:href="../../d4/ddd/classproject_1_1_b_i___footprint_pad.html#ad998db94981ac7167deba7a777b9945d" target="_top" xlink:title="project::BI_FootprintPad\l::getIsMirrored">
<polygon fill="white" stroke="black" points="252,-188 252,-222 374,-222 374,-188 252,-188"/>
<text text-anchor="start" x="260" y="-209" font-family="Helvetica,sans-Serif" font-size="10.00">project::BI_FootprintPad</text>
<text text-anchor="middle" x="313" y="-196" font-family="Helvetica,sans-Serif" font-size="10.00">::getIsMirrored</text>
</a>
</g>
<!-- Node3&#45;&gt;Node9 -->
<g id="edge24" class="edge"><title>Node3&#45;&gt;Node9</title>
<path fill="none" stroke="midnightblue" d="M226.143,-205C234.664,-205 243.395,-205 251.879,-205"/>
<polygon fill="midnightblue" stroke="midnightblue" points="225.884,-201.5 215.884,-205 225.884,-208.5 225.884,-201.5"/>
</g>
<!-- Node5 -->
<g id="node9" class="node"><title>Node5</title>
<a xlink:href="../../da/d96/classproject_1_1_b_i___footprint.html#a80db668afe30ac6b6c9e5eb061b61cfc" target="_top" xlink:title="project::BI_Footprint\l::componentInstanceAttributes\lChanged">
<polygon fill="white" stroke="black" points="746,-0.5 746,-47.5 896,-47.5 896,-0.5 746,-0.5"/>
<text text-anchor="start" x="754" y="-34.5" font-family="Helvetica,sans-Serif" font-size="10.00">project::BI_Footprint</text>
<text text-anchor="start" x="754" y="-21.5" font-family="Helvetica,sans-Serif" font-size="10.00">::componentInstanceAttributes</text>
<text text-anchor="middle" x="821" y="-8.5" font-family="Helvetica,sans-Serif" font-size="10.00">Changed</text>
</a>
</g>
<!-- Node4&#45;&gt;Node5 -->
<g id="edge8" class="edge"><title>Node4&#45;&gt;Node5</title>
<path fill="none" stroke="midnightblue" d="M671.033,-111.469C690.894,-94.9108 719.01,-72.9473 746,-57 751.511,-53.7436 757.402,-50.6123 763.37,-47.6628"/>
<polygon fill="midnightblue" stroke="midnightblue" points="668.706,-108.852 663.318,-117.975 673.219,-114.203 668.706,-108.852"/>
</g>
<!-- Node6 -->
<g id="node12" class="node"><title>Node6</title>
<a xlink:href="../../da/d96/classproject_1_1_b_i___footprint.html#a271c63e12acd19bccc27bf6861938df2" target="_top" xlink:title="project::BI_Footprint\l::componentInstanceMoved">
<polygon fill="white" stroke="black" points="752.5,-118 752.5,-152 889.5,-152 889.5,-118 752.5,-118"/>
<text text-anchor="start" x="760.5" y="-139" font-family="Helvetica,sans-Serif" font-size="10.00">project::BI_Footprint</text>
<text text-anchor="middle" x="821" y="-126" font-family="Helvetica,sans-Serif" font-size="10.00">::componentInstanceMoved</text>
</a>
</g>
<!-- Node4&#45;&gt;Node6 -->
<g id="edge12" class="edge"><title>Node4&#45;&gt;Node6</title>
<path fill="none" stroke="midnightblue" d="M719.929,-135C730.747,-135 741.821,-135 752.487,-135"/>
<polygon fill="midnightblue" stroke="midnightblue" points="719.657,-131.5 709.657,-135 719.657,-138.5 719.657,-131.5"/>
</g>
<!-- Node7 -->
<g id="node15" class="node"><title>Node7</title>
<a xlink:href="../../da/d96/classproject_1_1_b_i___footprint.html#ab6c0fcabcb9d5a38a27ed7aeb34f0958" target="_top" xlink:title="project::BI_Footprint\l::componentInstanceRotated">
<polygon fill="white" stroke="black" points="749.5,-66 749.5,-100 892.5,-100 892.5,-66 749.5,-66"/>
<text text-anchor="start" x="757.5" y="-87" font-family="Helvetica,sans-Serif" font-size="10.00">project::BI_Footprint</text>
<text text-anchor="middle" x="821" y="-74" font-family="Helvetica,sans-Serif" font-size="10.00">::componentInstanceRotated</text>
</a>
</g>
<!-- Node4&#45;&gt;Node7 -->
<g id="edge16" class="edge"><title>Node4&#45;&gt;Node7</title>
<path fill="none" stroke="midnightblue" d="M711.747,-115.097C728.617,-110.141 746.555,-104.871 762.913,-100.065"/>
<polygon fill="midnightblue" stroke="midnightblue" points="710.564,-111.796 701.956,-117.973 712.538,-118.513 710.564,-111.796"/>
</g>
<!-- Node8 -->
<g id="node18" class="node"><title>Node8</title>
<a xlink:href="../../da/d96/classproject_1_1_b_i___footprint.html#ae00c60cb068f7bb3703a6c84450afeaf" target="_top" xlink:title="project::BI_Footprint\l::componentInstanceMirrored">
<polygon fill="white" stroke="black" points="749.5,-170 749.5,-204 892.5,-204 892.5,-170 749.5,-170"/>
<text text-anchor="start" x="757.5" y="-191" font-family="Helvetica,sans-Serif" font-size="10.00">project::BI_Footprint</text>
<text text-anchor="middle" x="821" y="-178" font-family="Helvetica,sans-Serif" font-size="10.00">::componentInstanceMirrored</text>
</a>
</g>
<!-- Node4&#45;&gt;Node8 -->
<g id="edge20" class="edge"><title>Node4&#45;&gt;Node8</title>
<path fill="none" stroke="midnightblue" d="M711.747,-154.903C728.617,-159.859 746.555,-165.129 762.913,-169.935"/>
<polygon fill="midnightblue" stroke="midnightblue" points="712.538,-151.487 701.956,-152.027 710.564,-158.204 712.538,-151.487"/>
</g>
<!-- Node5&#45;&gt;Node2 -->
<g id="edge10" class="edge"><title>Node5&#45;&gt;Node2</title>
<path fill="none" stroke="midnightblue" d="M888.52,-52.4968C891.079,-53.9575 893.581,-55.4598 896,-57 923.728,-74.658 951.561,-100.712 968.537,-117.77"/>
<polygon fill="midnightblue" stroke="midnightblue" points="890.108,-49.3764 879.647,-47.6956 886.777,-55.5329 890.108,-49.3764"/>
</g>
<!-- Node6&#45;&gt;Node2 -->
<g id="edge14" class="edge"><title>Node6&#45;&gt;Node2</title>
<path fill="none" stroke="midnightblue" d="M899.729,-135C910.808,-135 921.966,-135 932.394,-135"/>
<polygon fill="midnightblue" stroke="midnightblue" points="899.601,-131.5 889.601,-135 899.6,-138.5 899.601,-131.5"/>
</g>
<!-- Node7&#45;&gt;Node2 -->
<g id="edge18" class="edge"><title>Node7&#45;&gt;Node2</title>
<path fill="none" stroke="midnightblue" d="M884.408,-103.105C900.24,-108.125 917.048,-113.454 932.298,-118.29"/>
<polygon fill="midnightblue" stroke="midnightblue" points="885.29,-99.7129 874.7,-100.027 883.174,-106.386 885.29,-99.7129"/>
</g>
<!-- Node8&#45;&gt;Node2 -->
<g id="edge22" class="edge"><title>Node8&#45;&gt;Node2</title>
<path fill="none" stroke="midnightblue" d="M884.408,-166.895C900.24,-161.875 917.048,-156.546 932.298,-151.71"/>
<polygon fill="midnightblue" stroke="midnightblue" points="883.174,-163.614 874.7,-169.973 885.29,-170.287 883.174,-163.614"/>
</g>
<!-- Node10 -->
<g id="node23" class="node"><title>Node10</title>
<a xlink:href="../../d9/d13/classproject_1_1_b_g_i___footprint_pad.html#abbb5db1b700a86caa85ff4c0c13142f2" target="_top" xlink:title="project::BGI_FootprintPad\l::updateCacheAndRepaint">
<polygon fill="white" stroke="black" points="410.5,-208 410.5,-242 541.5,-242 541.5,-208 410.5,-208"/>
<text text-anchor="start" x="418.5" y="-229" font-family="Helvetica,sans-Serif" font-size="10.00">project::BGI_FootprintPad</text>
<text text-anchor="middle" x="476" y="-216" font-family="Helvetica,sans-Serif" font-size="10.00">::updateCacheAndRepaint</text>
</a>
</g>
<!-- Node9&#45;&gt;Node10 -->
<g id="edge26" class="edge"><title>Node9&#45;&gt;Node10</title>
<path fill="none" stroke="midnightblue" d="M384.265,-213.744C392.956,-214.811 401.804,-215.896 410.407,-216.952"/>
<polygon fill="midnightblue" stroke="midnightblue" points="384.511,-210.248 374.159,-212.504 383.658,-217.196 384.511,-210.248"/>
</g>
<!-- Node11 -->
<g id="node25" class="node"><title>Node11</title>
<a xlink:href="../../d4/ddd/classproject_1_1_b_i___footprint_pad.html#a212e36e19edc323ddeb73387d2f011a5" target="_top" xlink:title="project::BI_FootprintPad\l::updatePosition">
<polygon fill="white" stroke="black" points="583,-170 583,-204 705,-204 705,-170 583,-170"/>
<text text-anchor="start" x="591" y="-191" font-family="Helvetica,sans-Serif" font-size="10.00">project::BI_FootprintPad</text>
<text text-anchor="middle" x="644" y="-178" font-family="Helvetica,sans-Serif" font-size="10.00">::updatePosition</text>
</a>
</g>
<!-- Node9&#45;&gt;Node11 -->
<g id="edge38" class="edge"><title>Node9&#45;&gt;Node11</title>
<path fill="none" stroke="midnightblue" d="M384.196,-200.51C392.888,-199.987 401.646,-199.473 410,-199 468.686,-195.68 535.676,-192.285 582.896,-189.957"/>
<polygon fill="midnightblue" stroke="midnightblue" points="383.822,-197.026 374.052,-201.125 384.246,-204.013 383.822,-197.026"/>
</g>
<!-- Node10&#45;&gt;Node11 -->
<g id="edge28" class="edge"><title>Node10&#45;&gt;Node11</title>
<path fill="none" stroke="midnightblue" d="M551.828,-207.848C562.243,-205.493 572.827,-203.099 582.931,-200.813"/>
<polygon fill="midnightblue" stroke="midnightblue" points="550.897,-204.47 541.916,-210.09 552.442,-211.298 550.897,-204.47"/>
</g>
<!-- Node11&#45;&gt;Node6 -->
<g id="edge30" class="edge"><title>Node11&#45;&gt;Node6</title>
<path fill="none" stroke="midnightblue" d="M711.747,-167.097C728.617,-162.141 746.555,-156.871 762.913,-152.065"/>
<polygon fill="midnightblue" stroke="midnightblue" points="710.564,-163.796 701.956,-169.973 712.538,-170.513 710.564,-163.796"/>
</g>
<!-- Node11&#45;&gt;Node7 -->
<g id="edge32" class="edge"><title>Node11&#45;&gt;Node7</title>
<path fill="none" stroke="midnightblue" d="M705.032,-164.625C706.746,-163.47 708.408,-162.262 710,-161 732.028,-143.539 723.614,-126 746,-109 750.39,-105.666 755.239,-102.74 760.297,-100.174"/>
<polygon fill="midnightblue" stroke="midnightblue" points="702.877,-161.834 696.085,-169.965 706.465,-167.845 702.877,-161.834"/>
</g>
<!-- Node11&#45;&gt;Node8 -->
<g id="edge34" class="edge"><title>Node11&#45;&gt;Node8</title>
<path fill="none" stroke="midnightblue" d="M715.526,-187C726.68,-187 738.208,-187 749.364,-187"/>
<polygon fill="midnightblue" stroke="midnightblue" points="715.409,-183.5 705.409,-187 715.409,-190.5 715.409,-183.5"/>
</g>
<!-- Node12 -->
<g id="node30" class="node"><title>Node12</title>
<a xlink:href="../../d4/ddd/classproject_1_1_b_i___footprint_pad.html#ac81e6cd36593d731c5e2e23048ed6754" target="_top" xlink:title="project::BI_FootprintPad\l::BI_FootprintPad">
<polygon fill="white" stroke="black" points="760,-222 760,-256 882,-256 882,-222 760,-222"/>
<text text-anchor="start" x="768" y="-243" font-family="Helvetica,sans-Serif" font-size="10.00">project::BI_FootprintPad</text>
<text text-anchor="middle" x="821" y="-230" font-family="Helvetica,sans-Serif" font-size="10.00">::BI_FootprintPad</text>
</a>
</g>
<!-- Node11&#45;&gt;Node12 -->
<g id="edge36" class="edge"><title>Node11&#45;&gt;Node12</title>
<path fill="none" stroke="midnightblue" d="M711.747,-206.903C728.617,-211.859 746.555,-217.129 762.913,-221.935"/>
<polygon fill="midnightblue" stroke="midnightblue" points="712.538,-203.487 701.956,-204.027 710.564,-210.204 712.538,-203.487"/>
</g>
</g>
</svg>
