<?xml version="1.0" encoding="UTF-8" standalone="no"?>
<!DOCTYPE svg PUBLIC "-//W3C//DTD SVG 1.1//EN"
 "http://www.w3.org/Graphics/SVG/1.1/DTD/svg11.dtd">
<!-- Generated by graphviz version 2.26.3 (20100126.1600)
 -->
<!-- Title: reject Pages: 1 -->
<svg width="326pt" height="42pt"
 viewBox="0.00 0.00 326.00 42.00" xmlns="http://www.w3.org/2000/svg" xmlns:xlink="http://www.w3.org/1999/xlink">
<g id="graph1" class="graph" transform="scale(1 1) rotate(0) translate(4 38)">
<title>reject</title>
<polygon fill="white" stroke="white" points="-4,5 -4,-38 323,-38 323,5 -4,5"/>
<!-- Node1 -->
<g id="node1" class="node"><title>Node1</title>
<polygon fill="#bfbfbf" stroke="black" points="0.5,-6.5 0.5,-27.5 41.5,-27.5 41.5,-6.5 0.5,-6.5"/>
<text text-anchor="middle" x="21" y="-14.5" font-family="Helvetica,sans-Serif" font-size="10.00">reject</text>
</g>
<!-- Node2 -->
<g id="node3" class="node"><title>Node2</title>
<a xlink:href="../../de/d52/class_workspace_settings.html#ad6f862900c4957afe9c8173224cdb9a2" target="_top" xlink:title="WorkspaceSettings::\lrevertAll">
<polygon fill="white" stroke="black" points="78,-0 78,-34 186,-34 186,-0 78,-0"/>
<text text-anchor="start" x="86" y="-21" font-family="Helvetica,sans-Serif" font-size="10.00">WorkspaceSettings::</text>
<text text-anchor="middle" x="132" y="-8" font-family="Helvetica,sans-Serif" font-size="10.00">revertAll</text>
</a>
</g>
<!-- Node1&#45;&gt;Node2 -->
<g id="edge2" class="edge"><title>Node1&#45;&gt;Node2</title>
<path fill="none" stroke="midnightblue" d="M41.6181,-17C49.1691,-17 58.1687,-17 67.5176,-17"/>
<polygon fill="midnightblue" stroke="midnightblue" points="67.7474,-20.5001 77.7473,-17 67.7473,-13.5001 67.7474,-20.5001"/>
</g>
<!-- Node3 -->
<g id="node5" class="node"><title>Node3</title>
<a xlink:href="../../d4/dda/class_w_s_i___base.html#a8d85d9b6a4c935f5a27bc6a18b0f3891" target="_top" xlink:title="WSI_Base::revert">
<polygon fill="white" stroke="black" points="222.5,-6.5 222.5,-27.5 317.5,-27.5 317.5,-6.5 222.5,-6.5"/>
<text text-anchor="middle" x="270" y="-14.5" font-family="Helvetica,sans-Serif" font-size="10.00">WSI_Base::revert</text>
</a>
</g>
<!-- Node2&#45;&gt;Node3 -->
<g id="edge4" class="edge"><title>Node2&#45;&gt;Node3</title>
<path fill="none" stroke="midnightblue" d="M186.145,-17C194.72,-17 203.617,-17 212.27,-17"/>
<polygon fill="midnightblue" stroke="midnightblue" points="212.283,-20.5001 222.283,-17 212.283,-13.5001 212.283,-20.5001"/>
</g>
</g>
</svg>
