<?xml version="1.0" encoding="UTF-8" standalone="no"?>
<!DOCTYPE svg PUBLIC "-//W3C//DTD SVG 1.1//EN"
 "http://www.w3.org/Graphics/SVG/1.1/DTD/svg11.dtd">
<!-- Generated by graphviz version 2.26.3 (20100126.1600)
 -->
<!-- Title: getType Pages: 1 -->
<svg width="298pt" height="146pt"
 viewBox="0.00 0.00 298.00 146.00" xmlns="http://www.w3.org/2000/svg" xmlns:xlink="http://www.w3.org/1999/xlink">
<g id="graph1" class="graph" transform="scale(1 1) rotate(0) translate(4 142)">
<title>getType</title>
<polygon fill="white" stroke="white" points="-4,5 -4,-142 295,-142 295,5 -4,5"/>
<!-- Node1 -->
<g id="node1" class="node"><title>Node1</title>
<polygon fill="#bfbfbf" stroke="black" points="0,-58.5 0,-79.5 52,-79.5 52,-58.5 0,-58.5"/>
<text text-anchor="middle" x="26" y="-66.5" font-family="Helvetica,sans-Serif" font-size="10.00">getType</text>
</g>
<!-- Node2 -->
<g id="node3" class="node"><title>Node2</title>
<a xlink:href="../../d1/def/class_control_panel.html#ac1e15520ed755e001af244cbac783e45" target="_top" xlink:title="ControlPanel::on_project\lTreeView_clicked">
<polygon fill="white" stroke="black" points="127,-104 127,-138 251,-138 251,-104 127,-104"/>
<text text-anchor="start" x="135" y="-125" font-family="Helvetica,sans-Serif" font-size="10.00">ControlPanel::on_project</text>
<text text-anchor="middle" x="189" y="-112" font-family="Helvetica,sans-Serif" font-size="10.00">TreeView_clicked</text>
</a>
</g>
<!-- Node1&#45;&gt;Node2 -->
<g id="edge2" class="edge"><title>Node1&#45;&gt;Node2</title>
<path fill="none" stroke="midnightblue" d="M58.3775,-83.6208C67.8208,-87.5994 78.2293,-91.713 88,-95 100.442,-99.1856 113.937,-103.086 126.892,-106.526"/>
<polygon fill="midnightblue" stroke="midnightblue" points="59.5223,-80.3031 48.9533,-79.5637 56.7544,-86.7326 59.5223,-80.3031"/>
</g>
<!-- Node3 -->
<g id="node5" class="node"><title>Node3</title>
<a xlink:href="../../d1/def/class_control_panel.html#aa9b5edbaaad9ac1ff6416a5656c36d5e" target="_top" xlink:title="ControlPanel::on_project\lTreeView_doubleClicked">
<polygon fill="white" stroke="black" points="126.5,-52 126.5,-86 251.5,-86 251.5,-52 126.5,-52"/>
<text text-anchor="start" x="134.5" y="-73" font-family="Helvetica,sans-Serif" font-size="10.00">ControlPanel::on_project</text>
<text text-anchor="middle" x="189" y="-60" font-family="Helvetica,sans-Serif" font-size="10.00">TreeView_doubleClicked</text>
</a>
</g>
<!-- Node1&#45;&gt;Node3 -->
<g id="edge4" class="edge"><title>Node1&#45;&gt;Node3</title>
<path fill="none" stroke="midnightblue" d="M62.3885,-69C81.1881,-69 104.663,-69 126.275,-69"/>
<polygon fill="midnightblue" stroke="midnightblue" points="62.1888,-65.5001 52.1888,-69 62.1887,-72.5001 62.1888,-65.5001"/>
</g>
<!-- Node4 -->
<g id="node7" class="node"><title>Node4</title>
<a xlink:href="../../d1/def/class_control_panel.html#af48b18b1f3edf33ae8c178b192a0641c" target="_top" xlink:title="ControlPanel::on_project\lTreeView_customContextMenuRequested">
<polygon fill="white" stroke="black" points="88.5,-0 88.5,-34 289.5,-34 289.5,-0 88.5,-0"/>
<text text-anchor="start" x="96.5" y="-21" font-family="Helvetica,sans-Serif" font-size="10.00">ControlPanel::on_project</text>
<text text-anchor="middle" x="189" y="-8" font-family="Helvetica,sans-Serif" font-size="10.00">TreeView_customContextMenuRequested</text>
</a>
</g>
<!-- Node1&#45;&gt;Node4 -->
<g id="edge6" class="edge"><title>Node1&#45;&gt;Node4</title>
<path fill="none" stroke="midnightblue" d="M58.3775,-54.3792C67.8208,-50.4006 78.2293,-46.287 88,-43 97.4387,-39.8247 107.484,-36.8137 117.439,-34.0429"/>
<polygon fill="midnightblue" stroke="midnightblue" points="56.7544,-51.2674 48.9533,-58.4363 59.5223,-57.6969 56.7544,-51.2674"/>
</g>
</g>
</svg>
