<?xml version="1.0" encoding="UTF-8" standalone="no"?>
<!DOCTYPE svg PUBLIC "-//W3C//DTD SVG 1.1//EN"
 "http://www.w3.org/Graphics/SVG/1.1/DTD/svg11.dtd">
<!-- Generated by graphviz version 2.26.3 (20100126.1600)
 -->
<!-- Title: /home/travis/build/LibrePCB/LibrePCB/libs/librepcblibrary/moc/moc_package.cpp Pages: 1 -->
<svg width="510pt" height="446pt"
 viewBox="0.00 0.00 510.00 446.00" xmlns="http://www.w3.org/2000/svg" xmlns:xlink="http://www.w3.org/1999/xlink">
<g id="graph1" class="graph" transform="scale(1 1) rotate(0) translate(4 442)">
<title>/home/travis/build/LibrePCB/LibrePCB/libs/librepcblibrary/moc/moc_package.cpp</title>
<polygon fill="white" stroke="white" points="-4,5 -4,-442 507,-442 507,5 -4,5"/>
<!-- Node1 -->
<g id="node1" class="node"><title>Node1</title>
<polygon fill="#bfbfbf" stroke="black" points="95.5,-377 95.5,-437 220.5,-437 220.5,-377 95.5,-377"/>
<text text-anchor="start" x="103.5" y="-424" font-family="Helvetica,sans-Serif" font-size="10.00">/home/travis/build</text>
<text text-anchor="start" x="103.5" y="-411" font-family="Helvetica,sans-Serif" font-size="10.00">/LibrePCB/LibrePCB/libs</text>
<text text-anchor="start" x="103.5" y="-398" font-family="Helvetica,sans-Serif" font-size="10.00">/librepcblibrary/moc/moc</text>
<text text-anchor="middle" x="158" y="-385" font-family="Helvetica,sans-Serif" font-size="10.00">_package.cpp</text>
</g>
<!-- Node2 -->
<g id="node3" class="node"><title>Node2</title>
<a xlink:href="../../dd/d5e/package_8h.html" target="_top" xlink:title="../pkg/package.h">
<polygon fill="white" stroke="black" points="-0.5,-318.5 -0.5,-339.5 88.5,-339.5 88.5,-318.5 -0.5,-318.5"/>
<text text-anchor="middle" x="44" y="-326.5" font-family="Helvetica,sans-Serif" font-size="10.00">../pkg/package.h</text>
</a>
</g>
<!-- Node1&#45;&gt;Node2 -->
<g id="edge2" class="edge"><title>Node1&#45;&gt;Node2</title>
<path fill="none" stroke="midnightblue" d="M113.925,-376.843C98.3469,-366.185 81.4097,-354.596 68.1066,-345.494"/>
<polygon fill="midnightblue" stroke="midnightblue" points="69.7682,-342.39 59.5387,-339.632 65.8154,-348.167 69.7682,-342.39"/>
</g>
<!-- Node11 -->
<g id="node26" class="node"><title>Node11</title>
<polygon fill="white" stroke="#bfbfbf" points="105.5,-318.5 105.5,-339.5 210.5,-339.5 210.5,-318.5 105.5,-318.5"/>
<text text-anchor="middle" x="158" y="-326.5" font-family="Helvetica,sans-Serif" font-size="10.00">QtCore/qbytearray.h</text>
</g>
<!-- Node1&#45;&gt;Node11 -->
<g id="edge30" class="edge"><title>Node1&#45;&gt;Node11</title>
<path fill="none" stroke="midnightblue" d="M158,-376.62C158,-367.68 158,-358.103 158,-349.9"/>
<polygon fill="midnightblue" stroke="midnightblue" points="161.5,-349.753 158,-339.753 154.5,-349.753 161.5,-349.753"/>
</g>
<!-- Node12 -->
<g id="node28" class="node"><title>Node12</title>
<polygon fill="white" stroke="#bfbfbf" points="227.5,-318.5 227.5,-339.5 332.5,-339.5 332.5,-318.5 227.5,-318.5"/>
<text text-anchor="middle" x="280" y="-326.5" font-family="Helvetica,sans-Serif" font-size="10.00">QtCore/qmetatype.h</text>
</g>
<!-- Node1&#45;&gt;Node12 -->
<g id="edge32" class="edge"><title>Node1&#45;&gt;Node12</title>
<path fill="none" stroke="midnightblue" d="M205.168,-376.843C222,-366.082 240.314,-354.373 254.611,-345.232"/>
<polygon fill="midnightblue" stroke="midnightblue" points="256.831,-347.967 263.371,-339.632 253.06,-342.07 256.831,-347.967"/>
</g>
<!-- Node3 -->
<g id="node5" class="node"><title>Node3</title>
<polygon fill="white" stroke="#bfbfbf" points="162,-0.5 162,-21.5 210,-21.5 210,-0.5 162,-0.5"/>
<text text-anchor="middle" x="186" y="-8.5" font-family="Helvetica,sans-Serif" font-size="10.00">QtCore</text>
</g>
<!-- Node2&#45;&gt;Node3 -->
<g id="edge4" class="edge"><title>Node2&#45;&gt;Node3</title>
<path fill="none" stroke="midnightblue" d="M38.2188,-318.485C27.8125,-298.543 7,-253.586 7,-213 7,-213 7,-213 7,-148 7,-75.7247 100.164,-36.4291 152.068,-20.1448"/>
<polygon fill="midnightblue" stroke="midnightblue" points="153.296,-23.4303 161.859,-17.1918 151.275,-16.7285 153.296,-23.4303"/>
</g>
<!-- Node4 -->
<g id="node7" class="node"><title>Node4</title>
<a xlink:href="../../d0/db0/libraryelement_8h.html" target="_top" xlink:title="../libraryelement.h">
<polygon fill="white" stroke="black" points="34.5,-260.5 34.5,-281.5 129.5,-281.5 129.5,-260.5 34.5,-260.5"/>
<text text-anchor="middle" x="82" y="-268.5" font-family="Helvetica,sans-Serif" font-size="10.00">../libraryelement.h</text>
</a>
</g>
<!-- Node2&#45;&gt;Node4 -->
<g id="edge6" class="edge"><title>Node2&#45;&gt;Node4</title>
<path fill="none" stroke="midnightblue" d="M50.9698,-318.362C56.1657,-310.431 63.4006,-299.389 69.5775,-289.961"/>
<polygon fill="midnightblue" stroke="midnightblue" points="72.5217,-291.853 75.0744,-281.571 66.6665,-288.017 72.5217,-291.853"/>
</g>
<!-- Node4&#45;&gt;Node3 -->
<g id="edge8" class="edge"><title>Node4&#45;&gt;Node3</title>
<path fill="none" stroke="midnightblue" d="M77.0589,-260.247C66.6543,-235.98 44.9553,-175.533 64,-130 83.1413,-84.2359 129.537,-47.3748 159.28,-27.3837"/>
<polygon fill="midnightblue" stroke="midnightblue" points="161.472,-30.1319 167.927,-21.7301 157.642,-24.273 161.472,-30.1319"/>
</g>
<!-- Node5 -->
<g id="node10" class="node"><title>Node5</title>
<a xlink:href="../../de/dd7/librarybaseelement_8h.html" target="_top" xlink:title="librarybaseelement.h">
<polygon fill="white" stroke="black" points="199.5,-202.5 199.5,-223.5 306.5,-223.5 306.5,-202.5 199.5,-202.5"/>
<text text-anchor="middle" x="253" y="-210.5" font-family="Helvetica,sans-Serif" font-size="10.00">librarybaseelement.h</text>
</a>
</g>
<!-- Node4&#45;&gt;Node5 -->
<g id="edge10" class="edge"><title>Node4&#45;&gt;Node5</title>
<path fill="none" stroke="midnightblue" d="M112.967,-260.497C140.844,-251.041 181.997,-237.083 212.482,-226.743"/>
<polygon fill="midnightblue" stroke="midnightblue" points="213.629,-230.05 221.975,-223.523 211.381,-223.421 213.629,-230.05"/>
</g>
<!-- Node6 -->
<g id="node12" class="node"><title>Node6</title>
<polygon fill="white" stroke="#bfbfbf" points="72.5,-137.5 72.5,-158.5 125.5,-158.5 125.5,-137.5 72.5,-137.5"/>
<text text-anchor="middle" x="99" y="-145.5" font-family="Helvetica,sans-Serif" font-size="10.00">QObject</text>
</g>
<!-- Node5&#45;&gt;Node6 -->
<g id="edge12" class="edge"><title>Node5&#45;&gt;Node6</title>
<path fill="none" stroke="midnightblue" d="M223.81,-202.393C199.512,-193.344 164.145,-179.664 134,-166 131.977,-165.083 129.904,-164.109 127.826,-163.107"/>
<polygon fill="midnightblue" stroke="midnightblue" points="129.335,-159.948 118.823,-158.625 126.215,-166.215 129.335,-159.948"/>
</g>
<!-- Node7 -->
<g id="node14" class="node"><title>Node7</title>
<a xlink:href="../../d0/d1d/if__xmlserializableobject_8h.html" target="_top" xlink:title="librepcbcommon/fileio\l/if_xmlserializableobject.h">
<polygon fill="white" stroke="black" points="142.5,-131 142.5,-165 271.5,-165 271.5,-131 142.5,-131"/>
<text text-anchor="start" x="150.5" y="-152" font-family="Helvetica,sans-Serif" font-size="10.00">librepcbcommon/fileio</text>
<text text-anchor="middle" x="207" y="-139" font-family="Helvetica,sans-Serif" font-size="10.00">/if_xmlserializableobject.h</text>
</a>
</g>
<!-- Node5&#45;&gt;Node7 -->
<g id="edge14" class="edge"><title>Node5&#45;&gt;Node7</title>
<path fill="none" stroke="midnightblue" d="M245.404,-202.267C239.878,-194.458 232.156,-183.546 225.084,-173.554"/>
<polygon fill="midnightblue" stroke="midnightblue" points="227.742,-171.251 219.109,-165.11 222.028,-175.294 227.742,-171.251"/>
</g>
<!-- Node8 -->
<g id="node16" class="node"><title>Node8</title>
<a xlink:href="../../d4/d03/exceptions_8h.html" target="_top" xlink:title="../exceptions.h">
<polygon fill="white" stroke="black" points="145.5,-65.5 145.5,-86.5 226.5,-86.5 226.5,-65.5 145.5,-65.5"/>
<text text-anchor="middle" x="186" y="-73.5" font-family="Helvetica,sans-Serif" font-size="10.00">../exceptions.h</text>
</a>
</g>
<!-- Node5&#45;&gt;Node8 -->
<g id="edge20" class="edge"><title>Node5&#45;&gt;Node8</title>
<path fill="none" stroke="midnightblue" d="M261.723,-202.456C274.125,-186.101 293.891,-154 280,-130 273.133,-118.136 243.647,-102.291 219.506,-90.8351"/>
<polygon fill="midnightblue" stroke="midnightblue" points="220.783,-87.5692 210.24,-86.5249 217.831,-93.9161 220.783,-87.5692"/>
</g>
<!-- Node9 -->
<g id="node20" class="node"><title>Node9</title>
<a xlink:href="../../dd/dec/filepath_8h.html" target="_top" xlink:title="librepcbcommon/fileio\l/filepath.h">
<polygon fill="white" stroke="black" points="243.5,-59 243.5,-93 354.5,-93 354.5,-59 243.5,-59"/>
<text text-anchor="start" x="251.5" y="-80" font-family="Helvetica,sans-Serif" font-size="10.00">librepcbcommon/fileio</text>
<text text-anchor="middle" x="299" y="-67" font-family="Helvetica,sans-Serif" font-size="10.00">/filepath.h</text>
</a>
</g>
<!-- Node5&#45;&gt;Node9 -->
<g id="edge22" class="edge"><title>Node5&#45;&gt;Node9</title>
<path fill="none" stroke="midnightblue" d="M274.998,-202.365C288.68,-194.433 305.122,-182.179 313,-166 322.683,-146.116 317.606,-121.095 311.008,-102.485"/>
<polygon fill="midnightblue" stroke="midnightblue" points="314.262,-101.195 307.379,-93.1394 307.736,-103.728 314.262,-101.195"/>
</g>
<!-- Node10 -->
<g id="node23" class="node"><title>Node10</title>
<a xlink:href="../../df/dfc/version_8h.html" target="_top" xlink:title="librepcbcommon/version.h">
<polygon fill="white" stroke="black" points="371.5,-65.5 371.5,-86.5 502.5,-86.5 502.5,-65.5 371.5,-65.5"/>
<text text-anchor="middle" x="437" y="-73.5" font-family="Helvetica,sans-Serif" font-size="10.00">librepcbcommon/version.h</text>
</a>
</g>
<!-- Node5&#45;&gt;Node10 -->
<g id="edge26" class="edge"><title>Node5&#45;&gt;Node10</title>
<path fill="none" stroke="midnightblue" d="M271.588,-202.495C287.272,-193.401 310.119,-179.602 329,-166 361.518,-142.574 396.753,-112.172 417.842,-93.3811"/>
<polygon fill="midnightblue" stroke="midnightblue" points="420.345,-95.8376 425.453,-86.5553 415.672,-90.6264 420.345,-95.8376"/>
</g>
<!-- Node7&#45;&gt;Node8 -->
<g id="edge16" class="edge"><title>Node7&#45;&gt;Node8</title>
<path fill="none" stroke="midnightblue" d="M202.023,-130.937C199.04,-120.707 195.224,-107.625 192.065,-96.7937"/>
<polygon fill="midnightblue" stroke="midnightblue" points="195.34,-95.521 189.179,-86.901 188.62,-97.4811 195.34,-95.521"/>
</g>
<!-- Node8&#45;&gt;Node3 -->
<g id="edge18" class="edge"><title>Node8&#45;&gt;Node3</title>
<path fill="none" stroke="midnightblue" d="M186,-65.2666C186,-56.1799 186,-42.8919 186,-31.7395"/>
<polygon fill="midnightblue" stroke="midnightblue" points="189.5,-31.5337 186,-21.5337 182.5,-31.5337 189.5,-31.5337"/>
</g>
<!-- Node9&#45;&gt;Node3 -->
<g id="edge24" class="edge"><title>Node9&#45;&gt;Node3</title>
<path fill="none" stroke="midnightblue" d="M269.311,-58.922C251.986,-48.9566 230.284,-36.4729 213.373,-26.7455"/>
<polygon fill="midnightblue" stroke="midnightblue" points="214.943,-23.6107 204.529,-21.6584 211.452,-29.6785 214.943,-23.6107"/>
</g>
<!-- Node10&#45;&gt;Node3 -->
<g id="edge28" class="edge"><title>Node10&#45;&gt;Node3</title>
<path fill="none" stroke="midnightblue" d="M396.394,-65.4844C347.377,-52.7908 265.834,-31.6742 219.989,-19.8019"/>
<polygon fill="midnightblue" stroke="midnightblue" points="220.787,-16.3932 210.229,-17.2744 219.032,-23.1697 220.787,-16.3932"/>
</g>
</g>
</svg>
