<?xml version="1.0" encoding="UTF-8" standalone="no"?>
<!DOCTYPE svg PUBLIC "-//W3C//DTD SVG 1.1//EN"
 "http://www.w3.org/Graphics/SVG/1.1/DTD/svg11.dtd">
<!-- Generated by graphviz version 2.26.3 (20100126.1600)
 -->
<!-- Title: getSelectedItems Pages: 1 -->
<svg width="256pt" height="146pt"
 viewBox="0.00 0.00 256.00 146.00" xmlns="http://www.w3.org/2000/svg" xmlns:xlink="http://www.w3.org/1999/xlink">
<g id="graph1" class="graph" transform="scale(1 1) rotate(0) translate(4 142)">
<title>getSelectedItems</title>
<polygon fill="white" stroke="white" points="-4,5 -4,-142 253,-142 253,5 -4,5"/>
<!-- Node1 -->
<g id="node1" class="node"><title>Node1</title>
<polygon fill="#bfbfbf" stroke="black" points="0.5,-58.5 0.5,-79.5 93.5,-79.5 93.5,-58.5 0.5,-58.5"/>
<text text-anchor="middle" x="47" y="-66.5" font-family="Helvetica,sans-Serif" font-size="10.00">getSelectedItems</text>
</g>
<!-- Node2 -->
<g id="node3" class="node"><title>Node2</title>
<a xlink:href="../../db/dd3/classproject_1_1_b_e_s___select.html#a1f262c8e6a4c3d45093729fa34ec01e8" target="_top" xlink:title="project::BES_Select\l::rotateSelectedItems">
<polygon fill="white" stroke="black" points="134,-104 134,-138 244,-138 244,-104 134,-104"/>
<text text-anchor="start" x="142" y="-125" font-family="Helvetica,sans-Serif" font-size="10.00">project::BES_Select</text>
<text text-anchor="middle" x="189" y="-112" font-family="Helvetica,sans-Serif" font-size="10.00">::rotateSelectedItems</text>
</a>
</g>
<!-- Node1&#45;&gt;Node2 -->
<g id="edge2" class="edge"><title>Node1&#45;&gt;Node2</title>
<path fill="none" stroke="midnightblue" d="M85.134,-82.9646C102.762,-89.4197 123.857,-97.1449 142.418,-103.942"/>
<polygon fill="midnightblue" stroke="midnightblue" points="86.3296,-79.6751 75.7358,-79.523 83.9225,-86.2483 86.3296,-79.6751"/>
</g>
<!-- Node3 -->
<g id="node5" class="node"><title>Node3</title>
<a xlink:href="../../db/dd3/classproject_1_1_b_e_s___select.html#a4f8e8c70feead094c696afcd912fc26a" target="_top" xlink:title="project::BES_Select\l::flipSelectedItems">
<polygon fill="white" stroke="black" points="136.5,-52 136.5,-86 241.5,-86 241.5,-52 136.5,-52"/>
<text text-anchor="start" x="144.5" y="-73" font-family="Helvetica,sans-Serif" font-size="10.00">project::BES_Select</text>
<text text-anchor="middle" x="189" y="-60" font-family="Helvetica,sans-Serif" font-size="10.00">::flipSelectedItems</text>
</a>
</g>
<!-- Node1&#45;&gt;Node3 -->
<g id="edge4" class="edge"><title>Node1&#45;&gt;Node3</title>
<path fill="none" stroke="midnightblue" d="M103.952,-69C114.622,-69 125.734,-69 136.269,-69"/>
<polygon fill="midnightblue" stroke="midnightblue" points="103.89,-65.5001 93.8897,-69 103.89,-72.5001 103.89,-65.5001"/>
</g>
<!-- Node4 -->
<g id="node7" class="node"><title>Node4</title>
<a xlink:href="../../db/dd3/classproject_1_1_b_e_s___select.html#a75183dd285ebb13d41213f4dfe420907" target="_top" xlink:title="project::BES_Select\l::removeSelectedItems">
<polygon fill="white" stroke="black" points="130,-0 130,-34 248,-34 248,-0 130,-0"/>
<text text-anchor="start" x="138" y="-21" font-family="Helvetica,sans-Serif" font-size="10.00">project::BES_Select</text>
<text text-anchor="middle" x="189" y="-8" font-family="Helvetica,sans-Serif" font-size="10.00">::removeSelectedItems</text>
</a>
</g>
<!-- Node1&#45;&gt;Node4 -->
<g id="edge6" class="edge"><title>Node1&#45;&gt;Node4</title>
<path fill="none" stroke="midnightblue" d="M85.134,-55.0354C102.762,-48.5803 123.857,-40.8551 142.418,-34.0582"/>
<polygon fill="midnightblue" stroke="midnightblue" points="83.9225,-51.7517 75.7358,-58.477 86.3296,-58.3249 83.9225,-51.7517"/>
</g>
</g>
</svg>
