<?xml version="1.0" encoding="UTF-8" standalone="no"?>
<!DOCTYPE svg PUBLIC "-//W3C//DTD SVG 1.1//EN"
 "http://www.w3.org/Graphics/SVG/1.1/DTD/svg11.dtd">
<!-- Generated by graphviz version 2.26.3 (20100126.1600)
 -->
<!-- Title: /home/travis/build/LibrePCB/LibrePCB/libs/librepcbprojecteditor/moc/moc_editnetclassesdialog.cpp Pages: 1 -->
<svg width="408pt" height="244pt"
 viewBox="0.00 0.00 408.00 244.00" xmlns="http://www.w3.org/2000/svg" xmlns:xlink="http://www.w3.org/1999/xlink">
<g id="graph1" class="graph" transform="scale(1 1) rotate(0) translate(4 240)">
<title>/home/travis/build/LibrePCB/LibrePCB/libs/librepcbprojecteditor/moc/moc_editnetclassesdialog.cpp</title>
<polygon fill="white" stroke="white" points="-4,5 -4,-240 405,-240 405,5 -4,5"/>
<!-- Node1 -->
<g id="node1" class="node"><title>Node1</title>
<polygon fill="#bfbfbf" stroke="black" points="139.5,-175 139.5,-235 312.5,-235 312.5,-175 139.5,-175"/>
<text text-anchor="start" x="147.5" y="-222" font-family="Helvetica,sans-Serif" font-size="10.00">/home/travis/build</text>
<text text-anchor="start" x="147.5" y="-209" font-family="Helvetica,sans-Serif" font-size="10.00">/LibrePCB/LibrePCB/libs</text>
<text text-anchor="start" x="147.5" y="-196" font-family="Helvetica,sans-Serif" font-size="10.00">/librepcbprojecteditor</text>
<text text-anchor="middle" x="226" y="-183" font-family="Helvetica,sans-Serif" font-size="10.00">/moc/moc_editnetclassesdialog.cpp</text>
</g>
<!-- Node2 -->
<g id="node3" class="node"><title>Node2</title>
<a xlink:href="../../da/d95/editnetclassesdialog_8h.html" target="_top" xlink:title="../dialogs/editnetclassesdialog.h">
<polygon fill="white" stroke="black" points="0,-116.5 0,-137.5 156,-137.5 156,-116.5 0,-116.5"/>
<text text-anchor="middle" x="78" y="-124.5" font-family="Helvetica,sans-Serif" font-size="10.00">../dialogs/editnetclassesdialog.h</text>
</a>
</g>
<!-- Node1&#45;&gt;Node2 -->
<g id="edge2" class="edge"><title>Node1&#45;&gt;Node2</title>
<path fill="none" stroke="midnightblue" d="M168.779,-174.843C147.778,-163.775 124.873,-151.703 107.325,-142.455"/>
<polygon fill="midnightblue" stroke="midnightblue" points="108.652,-139.198 98.173,-137.632 105.388,-145.39 108.652,-139.198"/>
</g>
<!-- Node6 -->
<g id="node12" class="node"><title>Node6</title>
<polygon fill="white" stroke="#bfbfbf" points="173.5,-116.5 173.5,-137.5 278.5,-137.5 278.5,-116.5 173.5,-116.5"/>
<text text-anchor="middle" x="226" y="-124.5" font-family="Helvetica,sans-Serif" font-size="10.00">QtCore/qbytearray.h</text>
</g>
<!-- Node1&#45;&gt;Node6 -->
<g id="edge12" class="edge"><title>Node1&#45;&gt;Node6</title>
<path fill="none" stroke="midnightblue" d="M226,-174.62C226,-165.68 226,-156.103 226,-147.9"/>
<polygon fill="midnightblue" stroke="midnightblue" points="229.5,-147.753 226,-137.753 222.5,-147.753 229.5,-147.753"/>
</g>
<!-- Node7 -->
<g id="node14" class="node"><title>Node7</title>
<polygon fill="white" stroke="#bfbfbf" points="295.5,-116.5 295.5,-137.5 400.5,-137.5 400.5,-116.5 295.5,-116.5"/>
<text text-anchor="middle" x="348" y="-124.5" font-family="Helvetica,sans-Serif" font-size="10.00">QtCore/qmetatype.h</text>
</g>
<!-- Node1&#45;&gt;Node7 -->
<g id="edge14" class="edge"><title>Node1&#45;&gt;Node7</title>
<path fill="none" stroke="midnightblue" d="M273.168,-174.843C290,-164.082 308.314,-152.373 322.611,-143.232"/>
<polygon fill="midnightblue" stroke="midnightblue" points="324.831,-145.967 331.371,-137.632 321.06,-140.07 324.831,-145.967"/>
</g>
<!-- Node3 -->
<g id="node5" class="node"><title>Node3</title>
<polygon fill="white" stroke="#bfbfbf" points="85,-0.5 85,-21.5 133,-21.5 133,-0.5 85,-0.5"/>
<text text-anchor="middle" x="109" y="-8.5" font-family="Helvetica,sans-Serif" font-size="10.00">QtCore</text>
</g>
<!-- Node2&#45;&gt;Node3 -->
<g id="edge4" class="edge"><title>Node2&#45;&gt;Node3</title>
<path fill="none" stroke="midnightblue" d="M64.2655,-116.365C48.6594,-102.916 26.7281,-78.9796 38,-58 46.0924,-42.9383 61.3658,-31.8924 75.6794,-24.3081"/>
<polygon fill="midnightblue" stroke="midnightblue" points="77.4167,-27.3547 84.8618,-19.8167 74.3409,-21.0666 77.4167,-27.3547"/>
</g>
<!-- Node4 -->
<g id="node7" class="node"><title>Node4</title>
<polygon fill="white" stroke="#bfbfbf" points="46.5,-58.5 46.5,-79.5 109.5,-79.5 109.5,-58.5 46.5,-58.5"/>
<text text-anchor="middle" x="78" y="-66.5" font-family="Helvetica,sans-Serif" font-size="10.00">QtWidgets</text>
</g>
<!-- Node2&#45;&gt;Node4 -->
<g id="edge6" class="edge"><title>Node2&#45;&gt;Node4</title>
<path fill="none" stroke="midnightblue" d="M78,-116.362C78,-108.922 78,-98.7427 78,-89.7276"/>
<polygon fill="midnightblue" stroke="midnightblue" points="81.5001,-89.5706 78,-79.5707 74.5001,-89.5707 81.5001,-89.5706"/>
</g>
<!-- Node5 -->
<g id="node9" class="node"><title>Node5</title>
<a xlink:href="../../d4/d03/exceptions_8h.html" target="_top" xlink:title="librepcbcommon/exceptions.h">
<polygon fill="white" stroke="black" points="127,-58.5 127,-79.5 273,-79.5 273,-58.5 127,-58.5"/>
<text text-anchor="middle" x="200" y="-66.5" font-family="Helvetica,sans-Serif" font-size="10.00">librepcbcommon/exceptions.h</text>
</a>
</g>
<!-- Node2&#45;&gt;Node5 -->
<g id="edge8" class="edge"><title>Node2&#45;&gt;Node5</title>
<path fill="none" stroke="midnightblue" d="M100.093,-116.497C119.234,-107.397 147.146,-94.1273 168.605,-83.9253"/>
<polygon fill="midnightblue" stroke="midnightblue" points="170.13,-87.0758 177.659,-79.6212 167.125,-80.7539 170.13,-87.0758"/>
</g>
<!-- Node5&#45;&gt;Node3 -->
<g id="edge10" class="edge"><title>Node5&#45;&gt;Node3</title>
<path fill="none" stroke="midnightblue" d="M183.309,-58.3619C169.584,-49.6138 149.916,-37.0786 134.263,-27.1015"/>
<polygon fill="midnightblue" stroke="midnightblue" points="135.899,-23.994 125.585,-21.5707 132.137,-29.8969 135.899,-23.994"/>
</g>
</g>
</svg>
