<?xml version="1.0" encoding="UTF-8" standalone="no"?>
<!DOCTYPE svg PUBLIC "-//W3C//DTD SVG 1.1//EN"
 "http://www.w3.org/Graphics/SVG/1.1/DTD/svg11.dtd">
<!-- Generated by graphviz version 2.26.3 (20100126.1600)
 -->
<!-- Title: /home/travis/build/LibrePCB/LibrePCB/libs/librepcblibrary/spcmdl/spicemodel.cpp Pages: 1 -->
<svg width="509pt" height="446pt"
 viewBox="0.00 0.00 509.00 446.00" xmlns="http://www.w3.org/2000/svg" xmlns:xlink="http://www.w3.org/1999/xlink">
<g id="graph1" class="graph" transform="scale(1 1) rotate(0) translate(4 442)">
<title>/home/travis/build/LibrePCB/LibrePCB/libs/librepcblibrary/spcmdl/spicemodel.cpp</title>
<polygon fill="white" stroke="white" points="-4,5 -4,-442 506,-442 506,5 -4,5"/>
<!-- Node1 -->
<g id="node1" class="node"><title>Node1</title>
<polygon fill="#bfbfbf" stroke="black" points="-0.5,-377 -0.5,-437 124.5,-437 124.5,-377 -0.5,-377"/>
<text text-anchor="start" x="7.5" y="-424" font-family="Helvetica,sans-Serif" font-size="10.00">/home/travis/build</text>
<text text-anchor="start" x="7.5" y="-411" font-family="Helvetica,sans-Serif" font-size="10.00">/LibrePCB/LibrePCB/libs</text>
<text text-anchor="start" x="7.5" y="-398" font-family="Helvetica,sans-Serif" font-size="10.00">/librepcblibrary/spcmdl</text>
<text text-anchor="middle" x="62" y="-385" font-family="Helvetica,sans-Serif" font-size="10.00">/spicemodel.cpp</text>
</g>
<!-- Node2 -->
<g id="node3" class="node"><title>Node2</title>
<polygon fill="white" stroke="#bfbfbf" points="121,-0.5 121,-21.5 169,-21.5 169,-0.5 121,-0.5"/>
<text text-anchor="middle" x="145" y="-8.5" font-family="Helvetica,sans-Serif" font-size="10.00">QtCore</text>
</g>
<!-- Node1&#45;&gt;Node2 -->
<g id="edge2" class="edge"><title>Node1&#45;&gt;Node2</title>
<path fill="none" stroke="midnightblue" d="M50.718,-376.958C41.505,-349.712 30,-308.233 30,-271 30,-271 30,-271 30,-148 30,-93.5531 83.9437,-49.4232 117.94,-27.018"/>
<polygon fill="midnightblue" stroke="midnightblue" points="119.977,-29.8703 126.523,-21.5401 116.211,-23.9696 119.977,-29.8703"/>
</g>
<!-- Node3 -->
<g id="node5" class="node"><title>Node3</title>
<a xlink:href="../../d3/d84/spicemodel_8h.html" target="_top" xlink:title="spicemodel.h">
<polygon fill="white" stroke="black" points="58,-318.5 58,-339.5 132,-339.5 132,-318.5 58,-318.5"/>
<text text-anchor="middle" x="95" y="-326.5" font-family="Helvetica,sans-Serif" font-size="10.00">spicemodel.h</text>
</a>
</g>
<!-- Node1&#45;&gt;Node3 -->
<g id="edge4" class="edge"><title>Node1&#45;&gt;Node3</title>
<path fill="none" stroke="midnightblue" d="M74.8532,-376.62C78.7644,-367.375 82.9635,-357.45 86.5105,-349.066"/>
<polygon fill="midnightblue" stroke="midnightblue" points="89.7774,-350.327 90.4505,-339.753 83.3306,-347.599 89.7774,-350.327"/>
</g>
<!-- Node3&#45;&gt;Node2 -->
<g id="edge6" class="edge"><title>Node3&#45;&gt;Node2</title>
<path fill="none" stroke="midnightblue" d="M90.7812,-318.319C83.1875,-298.1 68,-252.7 68,-213 68,-213 68,-213 68,-148 68,-100.2 104.062,-53.6612 126.828,-29.0444"/>
<polygon fill="midnightblue" stroke="midnightblue" points="129.594,-31.2162 133.968,-21.5663 124.531,-26.3823 129.594,-31.2162"/>
</g>
<!-- Node4 -->
<g id="node8" class="node"><title>Node4</title>
<a xlink:href="../../d0/db0/libraryelement_8h.html" target="_top" xlink:title="../libraryelement.h">
<polygon fill="white" stroke="black" points="95.5,-260.5 95.5,-281.5 190.5,-281.5 190.5,-260.5 95.5,-260.5"/>
<text text-anchor="middle" x="143" y="-268.5" font-family="Helvetica,sans-Serif" font-size="10.00">../libraryelement.h</text>
</a>
</g>
<!-- Node3&#45;&gt;Node4 -->
<g id="edge8" class="edge"><title>Node3&#45;&gt;Node4</title>
<path fill="none" stroke="midnightblue" d="M103.804,-318.362C110.502,-310.268 119.884,-298.932 127.789,-289.38"/>
<polygon fill="midnightblue" stroke="midnightblue" points="130.573,-291.506 134.252,-281.571 125.18,-287.043 130.573,-291.506"/>
</g>
<!-- Node4&#45;&gt;Node2 -->
<g id="edge10" class="edge"><title>Node4&#45;&gt;Node2</title>
<path fill="none" stroke="midnightblue" d="M140.556,-260.345C136.362,-241.462 127.964,-200.83 125,-166 120.909,-117.925 127.818,-105.55 136,-58 137.489,-49.3467 139.282,-39.8277 140.875,-31.6326"/>
<polygon fill="midnightblue" stroke="midnightblue" points="144.312,-32.2942 142.811,-21.8062 137.444,-30.9411 144.312,-32.2942"/>
</g>
<!-- Node5 -->
<g id="node11" class="node"><title>Node5</title>
<a xlink:href="../../de/dd7/librarybaseelement_8h.html" target="_top" xlink:title="librarybaseelement.h">
<polygon fill="white" stroke="black" points="260.5,-202.5 260.5,-223.5 367.5,-223.5 367.5,-202.5 260.5,-202.5"/>
<text text-anchor="middle" x="314" y="-210.5" font-family="Helvetica,sans-Serif" font-size="10.00">librarybaseelement.h</text>
</a>
</g>
<!-- Node4&#45;&gt;Node5 -->
<g id="edge12" class="edge"><title>Node4&#45;&gt;Node5</title>
<path fill="none" stroke="midnightblue" d="M173.967,-260.497C201.844,-251.041 242.997,-237.083 273.482,-226.743"/>
<polygon fill="midnightblue" stroke="midnightblue" points="274.629,-230.05 282.975,-223.523 272.381,-223.421 274.629,-230.05"/>
</g>
<!-- Node6 -->
<g id="node13" class="node"><title>Node6</title>
<polygon fill="white" stroke="#bfbfbf" points="133.5,-137.5 133.5,-158.5 186.5,-158.5 186.5,-137.5 133.5,-137.5"/>
<text text-anchor="middle" x="160" y="-145.5" font-family="Helvetica,sans-Serif" font-size="10.00">QObject</text>
</g>
<!-- Node5&#45;&gt;Node6 -->
<g id="edge14" class="edge"><title>Node5&#45;&gt;Node6</title>
<path fill="none" stroke="midnightblue" d="M284.81,-202.393C260.512,-193.344 225.145,-179.664 195,-166 192.977,-165.083 190.904,-164.109 188.826,-163.107"/>
<polygon fill="midnightblue" stroke="midnightblue" points="190.335,-159.948 179.823,-158.625 187.215,-166.215 190.335,-159.948"/>
</g>
<!-- Node7 -->
<g id="node15" class="node"><title>Node7</title>
<a xlink:href="../../d0/d1d/if__xmlserializableobject_8h.html" target="_top" xlink:title="librepcbcommon/fileio\l/if_xmlserializableobject.h">
<polygon fill="white" stroke="black" points="203.5,-131 203.5,-165 332.5,-165 332.5,-131 203.5,-131"/>
<text text-anchor="start" x="211.5" y="-152" font-family="Helvetica,sans-Serif" font-size="10.00">librepcbcommon/fileio</text>
<text text-anchor="middle" x="268" y="-139" font-family="Helvetica,sans-Serif" font-size="10.00">/if_xmlserializableobject.h</text>
</a>
</g>
<!-- Node5&#45;&gt;Node7 -->
<g id="edge16" class="edge"><title>Node5&#45;&gt;Node7</title>
<path fill="none" stroke="midnightblue" d="M306.404,-202.267C300.878,-194.458 293.156,-183.546 286.084,-173.554"/>
<polygon fill="midnightblue" stroke="midnightblue" points="288.742,-171.251 280.109,-165.11 283.028,-175.294 288.742,-171.251"/>
</g>
<!-- Node8 -->
<g id="node17" class="node"><title>Node8</title>
<a xlink:href="../../d4/d03/exceptions_8h.html" target="_top" xlink:title="../exceptions.h">
<polygon fill="white" stroke="black" points="144.5,-65.5 144.5,-86.5 225.5,-86.5 225.5,-65.5 144.5,-65.5"/>
<text text-anchor="middle" x="185" y="-73.5" font-family="Helvetica,sans-Serif" font-size="10.00">../exceptions.h</text>
</a>
</g>
<!-- Node5&#45;&gt;Node8 -->
<g id="edge22" class="edge"><title>Node5&#45;&gt;Node8</title>
<path fill="none" stroke="midnightblue" d="M323.067,-202.37C336.204,-185.614 357.271,-152.641 341,-130 311.719,-89.2549 281.331,-110.652 234,-94 230.307,-92.7005 226.464,-91.327 222.628,-89.9415"/>
<polygon fill="midnightblue" stroke="midnightblue" points="223.789,-86.6395 213.195,-86.5078 221.395,-93.2173 223.789,-86.6395"/>
</g>
<!-- Node9 -->
<g id="node21" class="node"><title>Node9</title>
<a xlink:href="../../dd/dec/filepath_8h.html" target="_top" xlink:title="librepcbcommon/fileio\l/filepath.h">
<polygon fill="white" stroke="black" points="242.5,-59 242.5,-93 353.5,-93 353.5,-59 242.5,-59"/>
<text text-anchor="start" x="250.5" y="-80" font-family="Helvetica,sans-Serif" font-size="10.00">librepcbcommon/fileio</text>
<text text-anchor="middle" x="298" y="-67" font-family="Helvetica,sans-Serif" font-size="10.00">/filepath.h</text>
</a>
</g>
<!-- Node5&#45;&gt;Node9 -->
<g id="edge24" class="edge"><title>Node5&#45;&gt;Node9</title>
<path fill="none" stroke="midnightblue" d="M335.998,-202.365C349.68,-194.433 366.122,-182.179 374,-166 381.005,-151.615 381.339,-144.218 374,-130 367.428,-117.269 356.315,-106.886 344.587,-98.7493"/>
<polygon fill="midnightblue" stroke="midnightblue" points="346.297,-95.6881 335.994,-93.2201 342.509,-101.575 346.297,-95.6881"/>
</g>
<!-- Node10 -->
<g id="node24" class="node"><title>Node10</title>
<a xlink:href="../../df/dfc/version_8h.html" target="_top" xlink:title="librepcbcommon/version.h">
<polygon fill="white" stroke="black" points="370.5,-65.5 370.5,-86.5 501.5,-86.5 501.5,-65.5 370.5,-65.5"/>
<text text-anchor="middle" x="436" y="-73.5" font-family="Helvetica,sans-Serif" font-size="10.00">librepcbcommon/version.h</text>
</a>
</g>
<!-- Node5&#45;&gt;Node10 -->
<g id="edge28" class="edge"><title>Node5&#45;&gt;Node10</title>
<path fill="none" stroke="midnightblue" d="M337.955,-202.457C354.235,-194.349 375.385,-181.856 390,-166 408.953,-145.439 422.135,-115.601 429.386,-96.0033"/>
<polygon fill="midnightblue" stroke="midnightblue" points="432.697,-97.1373 432.72,-86.5424 426.095,-94.8106 432.697,-97.1373"/>
</g>
<!-- Node7&#45;&gt;Node8 -->
<g id="edge18" class="edge"><title>Node7&#45;&gt;Node8</title>
<path fill="none" stroke="midnightblue" d="M248.33,-130.937C235.309,-119.642 218.28,-104.869 205.16,-93.4878"/>
<polygon fill="midnightblue" stroke="midnightblue" points="207.414,-90.81 197.566,-86.901 202.827,-96.0977 207.414,-90.81"/>
</g>
<!-- Node8&#45;&gt;Node2 -->
<g id="edge20" class="edge"><title>Node8&#45;&gt;Node2</title>
<path fill="none" stroke="midnightblue" d="M178.395,-65.2666C172.57,-55.8013 163.94,-41.7773 156.912,-30.3571"/>
<polygon fill="midnightblue" stroke="midnightblue" points="159.704,-28.2159 151.482,-21.5337 153.742,-31.8847 159.704,-28.2159"/>
</g>
<!-- Node9&#45;&gt;Node2 -->
<g id="edge26" class="edge"><title>Node9&#45;&gt;Node2</title>
<path fill="none" stroke="midnightblue" d="M257.801,-58.922C233.165,-48.4559 201.991,-35.212 178.662,-25.3007"/>
<polygon fill="midnightblue" stroke="midnightblue" points="179.758,-21.9636 169.185,-21.2748 177.021,-28.4063 179.758,-21.9636"/>
</g>
<!-- Node10&#45;&gt;Node2 -->
<g id="edge30" class="edge"><title>Node10&#45;&gt;Node2</title>
<path fill="none" stroke="midnightblue" d="M393.391,-65.4405C383.124,-62.9501 372.18,-60.3401 362,-58 297.447,-43.1608 221.787,-27.0671 179.013,-18.0887"/>
<polygon fill="midnightblue" stroke="midnightblue" points="179.633,-14.6427 169.128,-16.0176 178.198,-21.4939 179.633,-14.6427"/>
</g>
</g>
</svg>
