<?xml version="1.0" encoding="UTF-8" standalone="no"?>
<!DOCTYPE svg PUBLIC "-//W3C//DTD SVG 1.1//EN"
 "http://www.w3.org/Graphics/SVG/1.1/DTD/svg11.dtd">
<!-- Generated by graphviz version 2.26.3 (20100126.1600)
 -->
<!-- Title: getAllUnits Pages: 1 -->
<svg width="312pt" height="94pt"
 viewBox="0.00 0.00 312.00 94.00" xmlns="http://www.w3.org/2000/svg" xmlns:xlink="http://www.w3.org/1999/xlink">
<g id="graph1" class="graph" transform="scale(1 1) rotate(0) translate(4 90)">
<title>getAllUnits</title>
<polygon fill="white" stroke="white" points="-4,5 -4,-90 309,-90 309,5 -4,5"/>
<!-- Node1 -->
<g id="node1" class="node"><title>Node1</title>
<polygon fill="#bfbfbf" stroke="black" points="0.5,-32.5 0.5,-53.5 65.5,-53.5 65.5,-32.5 0.5,-32.5"/>
<text text-anchor="middle" x="33" y="-40.5" font-family="Helvetica,sans-Serif" font-size="10.00">getAllUnits</text>
</g>
<!-- Node2 -->
<g id="node3" class="node"><title>Node2</title>
<a xlink:href="../../dc/d4e/class_grid_settings_dialog.html#accb85452fe6ac5e053dcaae228cd9866" target="_top" xlink:title="GridSettingsDialog\l::GridSettingsDialog">
<polygon fill="white" stroke="black" points="151,-52 151,-86 255,-86 255,-52 151,-52"/>
<text text-anchor="start" x="159" y="-73" font-family="Helvetica,sans-Serif" font-size="10.00">GridSettingsDialog</text>
<text text-anchor="middle" x="203" y="-60" font-family="Helvetica,sans-Serif" font-size="10.00">::GridSettingsDialog</text>
</a>
</g>
<!-- Node1&#45;&gt;Node2 -->
<g id="edge2" class="edge"><title>Node1&#45;&gt;Node2</title>
<path fill="none" stroke="midnightblue" d="M75.8388,-49.5518C98.6416,-53.0393 126.865,-57.3559 150.926,-61.0357"/>
<polygon fill="midnightblue" stroke="midnightblue" points="76.1919,-46.0652 65.7777,-48.0131 75.1336,-52.9847 76.1919,-46.0652"/>
</g>
<!-- Node3 -->
<g id="node5" class="node"><title>Node3</title>
<a xlink:href="../../d3/d01/class_w_s_i___app_default_measurement_units.html#a03e8889c79d47c2b4e92db649482ea89" target="_top" xlink:title="WSI_AppDefaultMeasurement\lUnits::WSI_AppDefaultMeasurementUnits">
<polygon fill="white" stroke="black" points="102,-0 102,-34 304,-34 304,-0 102,-0"/>
<text text-anchor="start" x="110" y="-21" font-family="Helvetica,sans-Serif" font-size="10.00">WSI_AppDefaultMeasurement</text>
<text text-anchor="middle" x="203" y="-8" font-family="Helvetica,sans-Serif" font-size="10.00">Units::WSI_AppDefaultMeasurementUnits</text>
</a>
</g>
<!-- Node1&#45;&gt;Node3 -->
<g id="edge4" class="edge"><title>Node1&#45;&gt;Node3</title>
<path fill="none" stroke="midnightblue" d="M75.6663,-36.4746C83.7916,-35.2319 92.6099,-33.8832 101.686,-32.4951"/>
<polygon fill="midnightblue" stroke="midnightblue" points="75.1336,-33.0153 65.7777,-37.9869 76.1919,-39.9348 75.1336,-33.0153"/>
</g>
</g>
</svg>
