<?xml version="1.0" encoding="UTF-8" standalone="no"?>
<!DOCTYPE svg PUBLIC "-//W3C//DTD SVG 1.1//EN"
 "http://www.w3.org/Graphics/SVG/1.1/DTD/svg11.dtd">
<!-- Generated by graphviz version 2.26.3 (20100126.1600)
 -->
<!-- Title: convertFromUnit Pages: 1 -->
<svg width="550pt" height="150pt"
 viewBox="0.00 0.00 550.00 150.00" xmlns="http://www.w3.org/2000/svg" xmlns:xlink="http://www.w3.org/1999/xlink">
<g id="graph1" class="graph" transform="scale(1 1) rotate(0) translate(4 146)">
<title>convertFromUnit</title>
<polygon fill="white" stroke="white" points="-4,5 -4,-146 547,-146 547,5 -4,5"/>
<!-- Node1 -->
<g id="node1" class="node"><title>Node1</title>
<polygon fill="#bfbfbf" stroke="black" points="0.5,-60.5 0.5,-81.5 89.5,-81.5 89.5,-60.5 0.5,-60.5"/>
<text text-anchor="middle" x="45" y="-68.5" font-family="Helvetica,sans-Serif" font-size="10.00">convertFromUnit</text>
</g>
<!-- Node2 -->
<g id="node3" class="node"><title>Node2</title>
<a xlink:href="../../df/df0/class_length.html#a796af485ddae7b24093b8b70f790c42b" target="_top" xlink:title="Get a Length object with a specific length and map it to a specific grid. ">
<polygon fill="white" stroke="black" points="127,-100.5 127,-121.5 215,-121.5 215,-100.5 127,-100.5"/>
<text text-anchor="middle" x="171" y="-108.5" font-family="Helvetica,sans-Serif" font-size="10.00">Length::fromMm</text>
</a>
</g>
<!-- Node1&#45;&gt;Node2 -->
<g id="edge2" class="edge"><title>Node1&#45;&gt;Node2</title>
<path fill="none" stroke="midnightblue" d="M78.105,-81.5095C93.3211,-86.34 111.566,-92.1321 127.843,-97.2994"/>
<polygon fill="midnightblue" stroke="midnightblue" points="127.088,-100.732 137.679,-100.422 129.206,-94.06 127.088,-100.732"/>
</g>
<!-- Node6 -->
<g id="node11" class="node"><title>Node6</title>
<a xlink:href="../../df/df0/class_length.html#a8799d9ea9315b068c08f60b63c4467db" target="_top" xlink:title="Get a Length object with a specific length and map it to a specific grid. ">
<polygon fill="white" stroke="black" points="126,-60.5 126,-81.5 216,-81.5 216,-60.5 126,-60.5"/>
<text text-anchor="middle" x="171" y="-68.5" font-family="Helvetica,sans-Serif" font-size="10.00">Length::fromInch</text>
</a>
</g>
<!-- Node1&#45;&gt;Node6 -->
<g id="edge10" class="edge"><title>Node1&#45;&gt;Node6</title>
<path fill="none" stroke="midnightblue" d="M89.7777,-71C98.2172,-71 107.134,-71 115.847,-71"/>
<polygon fill="midnightblue" stroke="midnightblue" points="115.942,-74.5001 125.942,-71 115.942,-67.5001 115.942,-74.5001"/>
</g>
<!-- Node8 -->
<g id="node17" class="node"><title>Node8</title>
<a xlink:href="../../df/df0/class_length.html#ace122f12cdca72e87820635a2ba1952e" target="_top" xlink:title="Get a Length object with a specific length and map it to a specific grid. ">
<polygon fill="white" stroke="black" points="129,-20.5 129,-41.5 213,-41.5 213,-20.5 129,-20.5"/>
<text text-anchor="middle" x="171" y="-28.5" font-family="Helvetica,sans-Serif" font-size="10.00">Length::fromMil</text>
</a>
</g>
<!-- Node1&#45;&gt;Node8 -->
<g id="edge18" class="edge"><title>Node1&#45;&gt;Node8</title>
<path fill="none" stroke="midnightblue" d="M78.105,-60.4905C93.3211,-55.66 111.566,-49.8679 127.843,-44.7006"/>
<polygon fill="midnightblue" stroke="midnightblue" points="129.206,-47.94 137.679,-41.5782 127.088,-41.2681 129.206,-47.94"/>
</g>
<!-- Node3 -->
<g id="node5" class="node"><title>Node3</title>
<a xlink:href="../../df/df0/class_length.html#ad9d64077c16d3a2631a87b69cea3426d" target="_top" xlink:title="Set the length in millimeters. ">
<polygon fill="white" stroke="black" points="253.5,-120.5 253.5,-141.5 364.5,-141.5 364.5,-120.5 253.5,-120.5"/>
<text text-anchor="middle" x="309" y="-128.5" font-family="Helvetica,sans-Serif" font-size="10.00">Length::setLengthMm</text>
</a>
</g>
<!-- Node2&#45;&gt;Node3 -->
<g id="edge4" class="edge"><title>Node2&#45;&gt;Node3</title>
<path fill="none" stroke="midnightblue" d="M215.043,-117.383C224.059,-118.69 233.732,-120.092 243.319,-121.481"/>
<polygon fill="midnightblue" stroke="midnightblue" points="242.849,-124.949 253.248,-122.92 243.853,-118.022 242.849,-124.949"/>
</g>
<!-- Node5 -->
<g id="node9" class="node"><title>Node5</title>
<a xlink:href="../../df/df0/class_length.html#a12aaddfb6cccff89e294f502574fe869" target="_top" xlink:title="Map this Length object to a specific grid interval. ">
<polygon fill="white" stroke="black" points="259,-40.5 259,-61.5 359,-61.5 359,-40.5 259,-40.5"/>
<text text-anchor="middle" x="309" y="-48.5" font-family="Helvetica,sans-Serif" font-size="10.00">Length::mapToGrid</text>
</a>
</g>
<!-- Node2&#45;&gt;Node5 -->
<g id="edge8" class="edge"><title>Node2&#45;&gt;Node5</title>
<path fill="none" stroke="midnightblue" d="M195.942,-100.388C202.519,-97.4605 209.574,-94.2053 216,-91 232.379,-82.8306 235.304,-78.5014 252,-71 256.487,-68.9839 261.243,-67.0352 266.02,-65.1968"/>
<polygon fill="midnightblue" stroke="midnightblue" points="267.606,-68.3421 275.772,-61.5921 265.179,-61.7763 267.606,-68.3421"/>
</g>
<!-- Node4 -->
<g id="node7" class="node"><title>Node4</title>
<a xlink:href="../../df/df0/class_length.html#a73dbcae99cc78c7f7e737d5211154527" target="_top" xlink:title="Set the length from a floating point number in nanometers. ">
<polygon fill="white" stroke="black" points="402.5,-80.5 402.5,-101.5 541.5,-101.5 541.5,-80.5 402.5,-80.5"/>
<text text-anchor="middle" x="472" y="-88.5" font-family="Helvetica,sans-Serif" font-size="10.00">Length::setLengthFromFloat</text>
</a>
</g>
<!-- Node3&#45;&gt;Node4 -->
<g id="edge6" class="edge"><title>Node3&#45;&gt;Node4</title>
<path fill="none" stroke="midnightblue" d="M351.826,-120.49C372.521,-115.412 397.546,-109.271 419.391,-103.91"/>
<polygon fill="midnightblue" stroke="midnightblue" points="420.299,-107.291 429.177,-101.509 418.631,-100.493 420.299,-107.291"/>
</g>
<!-- Node6&#45;&gt;Node5 -->
<g id="edge16" class="edge"><title>Node6&#45;&gt;Node5</title>
<path fill="none" stroke="midnightblue" d="M216.186,-64.4513C226.658,-62.9336 237.964,-61.295 248.961,-59.7013"/>
<polygon fill="midnightblue" stroke="midnightblue" points="249.546,-63.1531 258.941,-58.2549 248.542,-56.2255 249.546,-63.1531"/>
</g>
<!-- Node7 -->
<g id="node13" class="node"><title>Node7</title>
<a xlink:href="../../df/df0/class_length.html#a9dd3df3a096a1c19107c83692d1f198c" target="_top" xlink:title="Set the length in inches. ">
<polygon fill="white" stroke="black" points="252.5,-80.5 252.5,-101.5 365.5,-101.5 365.5,-80.5 252.5,-80.5"/>
<text text-anchor="middle" x="309" y="-88.5" font-family="Helvetica,sans-Serif" font-size="10.00">Length::setLengthInch</text>
</a>
</g>
<!-- Node6&#45;&gt;Node7 -->
<g id="edge12" class="edge"><title>Node6&#45;&gt;Node7</title>
<path fill="none" stroke="midnightblue" d="M216.186,-77.5487C224.525,-78.7572 233.392,-80.0423 242.211,-81.3205"/>
<polygon fill="midnightblue" stroke="midnightblue" points="241.718,-84.7855 252.117,-82.7561 242.722,-77.8579 241.718,-84.7855"/>
</g>
<!-- Node7&#45;&gt;Node4 -->
<g id="edge14" class="edge"><title>Node7&#45;&gt;Node4</title>
<path fill="none" stroke="midnightblue" d="M365.552,-91C374.17,-91 383.2,-91 392.203,-91"/>
<polygon fill="midnightblue" stroke="midnightblue" points="392.331,-94.5001 402.331,-91 392.331,-87.5001 392.331,-94.5001"/>
</g>
<!-- Node8&#45;&gt;Node5 -->
<g id="edge24" class="edge"><title>Node8&#45;&gt;Node5</title>
<path fill="none" stroke="midnightblue" d="M213.154,-37.1093C224.425,-38.7427 236.827,-40.5402 248.864,-42.2846"/>
<polygon fill="midnightblue" stroke="midnightblue" points="248.457,-45.7621 258.856,-43.7327 249.461,-38.8345 248.457,-45.7621"/>
</g>
<!-- Node9 -->
<g id="node19" class="node"><title>Node9</title>
<a xlink:href="../../df/df0/class_length.html#a0727878134310037f5af42f773aa744d" target="_top" xlink:title="Set the length in mils (1/1000 inch) ">
<polygon fill="white" stroke="black" points="255.5,-0.5 255.5,-21.5 362.5,-21.5 362.5,-0.5 255.5,-0.5"/>
<text text-anchor="middle" x="309" y="-8.5" font-family="Helvetica,sans-Serif" font-size="10.00">Length::setLengthMil</text>
</a>
</g>
<!-- Node8&#45;&gt;Node9 -->
<g id="edge20" class="edge"><title>Node8&#45;&gt;Node9</title>
<path fill="none" stroke="midnightblue" d="M213.154,-24.8907C223.35,-23.4131 234.472,-21.8012 245.411,-20.2158"/>
<polygon fill="midnightblue" stroke="midnightblue" points="245.979,-23.6701 255.374,-18.7719 244.975,-16.7425 245.979,-23.6701"/>
</g>
<!-- Node9&#45;&gt;Node4 -->
<g id="edge22" class="edge"><title>Node9&#45;&gt;Node4</title>
<path fill="none" stroke="midnightblue" d="M342.247,-21.5489C350.14,-24.3584 358.456,-27.5744 366,-31 394.68,-44.024 425.873,-62.2055 446.943,-75.1331"/>
<polygon fill="midnightblue" stroke="midnightblue" points="445.248,-78.2001 455.592,-80.4934 448.936,-72.2503 445.248,-78.2001"/>
</g>
</g>
</svg>
