<?xml version="1.0" encoding="UTF-8" standalone="no"?>
<!DOCTYPE svg PUBLIC "-//W3C//DTD SVG 1.1//EN"
 "http://www.w3.org/Graphics/SVG/1.1/DTD/svg11.dtd">
<!-- Generated by graphviz version 2.26.3 (20100126.1600)
 -->
<!-- Title: getHeight Pages: 1 -->
<svg width="564pt" height="101pt"
 viewBox="0.00 0.00 564.00 101.00" xmlns="http://www.w3.org/2000/svg" xmlns:xlink="http://www.w3.org/1999/xlink">
<g id="graph1" class="graph" transform="scale(1 1) rotate(0) translate(4 97)">
<title>getHeight</title>
<polygon fill="white" stroke="white" points="-4,5 -4,-97 561,-97 561,5 -4,5"/>
<!-- Node1 -->
<g id="node1" class="node"><title>Node1</title>
<polygon fill="#bfbfbf" stroke="black" points="0.5,-32.5 0.5,-53.5 59.5,-53.5 59.5,-32.5 0.5,-32.5"/>
<text text-anchor="middle" x="30" y="-40.5" font-family="Helvetica,sans-Serif" font-size="10.00">getHeight</text>
</g>
<!-- Node2 -->
<g id="node3" class="node"><title>Node2</title>
<a xlink:href="../../dc/d87/classproject_1_1_b_g_i___footprint.html#abbb5db1b700a86caa85ff4c0c13142f2" target="_top" xlink:title="project::BGI_Footprint\l::updateCacheAndRepaint">
<polygon fill="white" stroke="black" points="96.5,-52 96.5,-86 227.5,-86 227.5,-52 96.5,-52"/>
<text text-anchor="start" x="104.5" y="-73" font-family="Helvetica,sans-Serif" font-size="10.00">project::BGI_Footprint</text>
<text text-anchor="middle" x="162" y="-60" font-family="Helvetica,sans-Serif" font-size="10.00">::updateCacheAndRepaint</text>
</a>
</g>
<!-- Node1&#45;&gt;Node2 -->
<g id="edge2" class="edge"><title>Node1&#45;&gt;Node2</title>
<path fill="none" stroke="midnightblue" d="M69.5547,-50.7911C78.0179,-52.4581 87.1763,-54.262 96.3263,-56.0643"/>
<polygon fill="midnightblue" stroke="midnightblue" points="70.1113,-47.3335 59.6234,-48.8349 68.7584,-54.2016 70.1113,-47.3335"/>
</g>
<!-- Node5 -->
<g id="node9" class="node"><title>Node5</title>
<a xlink:href="../../dc/d87/classproject_1_1_b_g_i___footprint.html#aa77fc5d2da89e1f09b09f7c6724ed721" target="_top" xlink:title="project::BGI_Footprint\l::paint">
<polygon fill="white" stroke="black" points="105.5,-0 105.5,-34 218.5,-34 218.5,-0 105.5,-0"/>
<text text-anchor="start" x="113.5" y="-21" font-family="Helvetica,sans-Serif" font-size="10.00">project::BGI_Footprint</text>
<text text-anchor="middle" x="162" y="-8" font-family="Helvetica,sans-Serif" font-size="10.00">::paint</text>
</a>
</g>
<!-- Node1&#45;&gt;Node5 -->
<g id="edge8" class="edge"><title>Node1&#45;&gt;Node5</title>
<path fill="none" stroke="midnightblue" d="M69.5779,-35.2044C80.8459,-32.9849 93.3445,-30.5231 105.414,-28.1457"/>
<polygon fill="midnightblue" stroke="midnightblue" points="68.7584,-31.7984 59.6234,-37.1651 70.1113,-38.6665 68.7584,-31.7984"/>
</g>
<!-- Node3 -->
<g id="node5" class="node"><title>Node3</title>
<a xlink:href="../../da/d96/classproject_1_1_b_i___footprint.html#a80db668afe30ac6b6c9e5eb061b61cfc" target="_top" xlink:title="project::BI_Footprint\l::componentInstanceAttributes\lChanged">
<polygon fill="white" stroke="black" points="264,-45.5 264,-92.5 414,-92.5 414,-45.5 264,-45.5"/>
<text text-anchor="start" x="272" y="-79.5" font-family="Helvetica,sans-Serif" font-size="10.00">project::BI_Footprint</text>
<text text-anchor="start" x="272" y="-66.5" font-family="Helvetica,sans-Serif" font-size="10.00">::componentInstanceAttributes</text>
<text text-anchor="middle" x="339" y="-53.5" font-family="Helvetica,sans-Serif" font-size="10.00">Changed</text>
</a>
</g>
<!-- Node2&#45;&gt;Node3 -->
<g id="edge4" class="edge"><title>Node2&#45;&gt;Node3</title>
<path fill="none" stroke="midnightblue" d="M237.736,-69C246.404,-69 255.24,-69 263.9,-69"/>
<polygon fill="midnightblue" stroke="midnightblue" points="237.657,-65.5001 227.657,-69 237.657,-72.5001 237.657,-65.5001"/>
</g>
<!-- Node4 -->
<g id="node7" class="node"><title>Node4</title>
<a xlink:href="../../da/d96/classproject_1_1_b_i___footprint.html#a02fd73d861ef2e4aabb38c0c9ff82947" target="_top" xlink:title="project::BI_Footprint\l::init">
<polygon fill="white" stroke="black" points="450.5,-52 450.5,-86 555.5,-86 555.5,-52 450.5,-52"/>
<text text-anchor="start" x="458.5" y="-73" font-family="Helvetica,sans-Serif" font-size="10.00">project::BI_Footprint</text>
<text text-anchor="middle" x="503" y="-60" font-family="Helvetica,sans-Serif" font-size="10.00">::init</text>
</a>
</g>
<!-- Node3&#45;&gt;Node4 -->
<g id="edge6" class="edge"><title>Node3&#45;&gt;Node4</title>
<path fill="none" stroke="midnightblue" d="M424.534,-69C433.268,-69 441.949,-69 450.178,-69"/>
<polygon fill="midnightblue" stroke="midnightblue" points="424.28,-65.5001 414.28,-69 424.28,-72.5001 424.28,-65.5001"/>
</g>
</g>
</svg>
