<?xml version="1.0" encoding="UTF-8" standalone="no"?>
<!DOCTYPE svg PUBLIC "-//W3C//DTD SVG 1.1//EN"
 "http://www.w3.org/Graphics/SVG/1.1/DTD/svg11.dtd">
<!-- Generated by graphviz version 2.26.3 (20100126.1600)
 -->
<!-- Title: on_favoriteProjectsListView_clicked Pages: 1 -->
<svg width="604pt" height="306pt"
 viewBox="0.00 0.00 604.00 306.00" xmlns="http://www.w3.org/2000/svg" xmlns:xlink="http://www.w3.org/1999/xlink">
<g id="graph1" class="graph" transform="scale(1 1) rotate(0) translate(4 302)">
<title>on_favoriteProjectsListView_clicked</title>
<polygon fill="white" stroke="white" points="-4,5 -4,-302 601,-302 601,5 -4,5"/>
<!-- Node1 -->
<g id="node1" class="node"><title>Node1</title>
<polygon fill="#bfbfbf" stroke="black" points="0,-115 0,-149 138,-149 138,-115 0,-115"/>
<text text-anchor="start" x="8" y="-136" font-family="Helvetica,sans-Serif" font-size="10.00">on_favoriteProjectsListView</text>
<text text-anchor="middle" x="69" y="-123" font-family="Helvetica,sans-Serif" font-size="10.00">_clicked</text>
</g>
<!-- Node2 -->
<g id="node3" class="node"><title>Node2</title>
<a xlink:href="../../d1/def/class_control_panel.html#a00fbb51d24ad11e028629d3dcb376e94" target="_top" xlink:title="Open a project with the editor (or bring an already opened editor to front) ">
<polygon fill="white" stroke="black" points="174,-121.5 174,-142.5 242,-142.5 242,-121.5 174,-121.5"/>
<text text-anchor="middle" x="208" y="-129.5" font-family="Helvetica,sans-Serif" font-size="10.00">openProject</text>
</a>
</g>
<!-- Node1&#45;&gt;Node2 -->
<g id="edge2" class="edge"><title>Node1&#45;&gt;Node2</title>
<path fill="none" stroke="midnightblue" d="M138.093,-132C146.812,-132 155.54,-132 163.727,-132"/>
<polygon fill="midnightblue" stroke="midnightblue" points="163.767,-135.5 173.767,-132 163.767,-128.5 163.767,-135.5"/>
</g>
<!-- Node3 -->
<g id="node5" class="node"><title>Node3</title>
<a xlink:href="../../d1/def/class_control_panel.html#afeedb76a1e09757b558fbecd83556964" target="_top" xlink:title="projectEditorClosed">
<polygon fill="white" stroke="black" points="291,-204.5 291,-225.5 393,-225.5 393,-204.5 291,-204.5"/>
<text text-anchor="middle" x="342" y="-212.5" font-family="Helvetica,sans-Serif" font-size="10.00">projectEditorClosed</text>
</a>
</g>
<!-- Node2&#45;&gt;Node3 -->
<g id="edge4" class="edge"><title>Node2&#45;&gt;Node3</title>
<path fill="none" stroke="midnightblue" d="M224.971,-142.512C248.002,-156.778 289.357,-182.393 316.232,-199.039"/>
<polygon fill="midnightblue" stroke="midnightblue" points="314.399,-202.021 324.743,-204.311 318.085,-196.07 314.399,-202.021"/>
</g>
<!-- Node7 -->
<g id="node13" class="node"><title>Node7</title>
<a xlink:href="../../d1/def/class_control_panel.html#a01a3882004f773857225fa808894b663" target="_top" xlink:title="showControlPanel">
<polygon fill="white" stroke="black" points="294,-144.5 294,-165.5 390,-165.5 390,-144.5 294,-144.5"/>
<text text-anchor="middle" x="342" y="-152.5" font-family="Helvetica,sans-Serif" font-size="10.00">showControlPanel</text>
</a>
</g>
<!-- Node2&#45;&gt;Node7 -->
<g id="edge12" class="edge"><title>Node2&#45;&gt;Node7</title>
<path fill="none" stroke="midnightblue" d="M242.161,-137.863C254.827,-140.037 269.574,-142.569 283.784,-145.008"/>
<polygon fill="midnightblue" stroke="midnightblue" points="283.551,-148.519 293.999,-146.761 284.735,-141.62 283.551,-148.519"/>
</g>
<!-- Node8 -->
<g id="node15" class="node"><title>Node8</title>
<a xlink:href="../../d3/dd6/classproject_1_1_project_editor.html#a9f14b9293fefcadb6df3288b459fd470" target="_top" xlink:title="Open the schematic and/or the board editor window. ">
<polygon fill="white" stroke="black" points="278.5,-92 278.5,-126 405.5,-126 405.5,-92 278.5,-92"/>
<text text-anchor="start" x="286.5" y="-113" font-family="Helvetica,sans-Serif" font-size="10.00">project::ProjectEditor</text>
<text text-anchor="middle" x="342" y="-100" font-family="Helvetica,sans-Serif" font-size="10.00">::showAllRequiredEditors</text>
</a>
</g>
<!-- Node2&#45;&gt;Node8 -->
<g id="edge14" class="edge"><title>Node2&#45;&gt;Node8</title>
<path fill="none" stroke="midnightblue" d="M242.161,-126.137C250.304,-124.739 259.306,-123.194 268.474,-121.62"/>
<polygon fill="midnightblue" stroke="midnightblue" points="269.189,-125.049 278.453,-119.907 268.005,-118.15 269.189,-125.049"/>
</g>
<!-- Node13 -->
<g id="node25" class="node"><title>Node13</title>
<a xlink:href="../../df/d70/class_exception.html#aa530ab8cc747843c76a435c3075ed094" target="_top" xlink:title="Get the user error message (translated) ">
<polygon fill="white" stroke="black" points="282.5,-52.5 282.5,-73.5 401.5,-73.5 401.5,-52.5 282.5,-52.5"/>
<text text-anchor="middle" x="342" y="-60.5" font-family="Helvetica,sans-Serif" font-size="10.00">Exception::getUserMsg</text>
</a>
</g>
<!-- Node2&#45;&gt;Node13 -->
<g id="edge24" class="edge"><title>Node2&#45;&gt;Node13</title>
<path fill="none" stroke="midnightblue" d="M220.659,-121.32C234.13,-110.406 256.432,-93.6 278,-83 282.52,-80.7785 287.34,-78.7366 292.23,-76.877"/>
<polygon fill="midnightblue" stroke="midnightblue" points="293.408,-80.173 301.659,-73.5266 291.064,-73.577 293.408,-80.173"/>
</g>
<!-- Node4 -->
<g id="node7" class="node"><title>Node4</title>
<a xlink:href="../../d3/dd6/classproject_1_1_project_editor.html#ac48a585009b5ee63f88e0c2b5357d6e9" target="_top" xlink:title="project::ProjectEditor\l::getProject">
<polygon fill="white" stroke="black" points="465,-264 465,-298 573,-298 573,-264 465,-264"/>
<text text-anchor="start" x="473" y="-285" font-family="Helvetica,sans-Serif" font-size="10.00">project::ProjectEditor</text>
<text text-anchor="middle" x="519" y="-272" font-family="Helvetica,sans-Serif" font-size="10.00">::getProject</text>
</a>
</g>
<!-- Node3&#45;&gt;Node4 -->
<g id="edge6" class="edge"><title>Node3&#45;&gt;Node4</title>
<path fill="none" stroke="midnightblue" d="M367.334,-225.58C387.461,-233.877 416.384,-245.56 442,-255 447.047,-256.86 452.299,-258.743 457.583,-260.6"/>
<polygon fill="midnightblue" stroke="midnightblue" points="456.495,-263.927 467.09,-263.906 458.794,-257.316 456.495,-263.927"/>
</g>
<!-- Node5 -->
<g id="node9" class="node"><title>Node5</title>
<a xlink:href="../../d2/d05/classproject_1_1_project.html#afbdab4a0b61e83c059a2901660e2df25" target="_top" xlink:title="Get the filepath of the project file (*.lpp) ">
<polygon fill="white" stroke="black" points="450.5,-224.5 450.5,-245.5 587.5,-245.5 587.5,-224.5 450.5,-224.5"/>
<text text-anchor="middle" x="519" y="-232.5" font-family="Helvetica,sans-Serif" font-size="10.00">project::Project::getFilepath</text>
</a>
</g>
<!-- Node3&#45;&gt;Node5 -->
<g id="edge8" class="edge"><title>Node3&#45;&gt;Node5</title>
<path fill="none" stroke="midnightblue" d="M393.196,-220.785C407.853,-222.441 424.18,-224.286 440.09,-226.084"/>
<polygon fill="midnightblue" stroke="midnightblue" points="440.133,-229.611 450.462,-227.256 440.919,-222.655 440.133,-229.611"/>
</g>
<!-- Node6 -->
<g id="node11" class="node"><title>Node6</title>
<a xlink:href="../../d4/d1c/class_file_path.html#a39a0bbf3901de18041fb5c324ecf412a" target="_top" xlink:title="Get the absolute and well&#45;formatted filepath as a QString. ">
<polygon fill="white" stroke="black" points="479,-184.5 479,-205.5 559,-205.5 559,-184.5 479,-184.5"/>
<text text-anchor="middle" x="519" y="-192.5" font-family="Helvetica,sans-Serif" font-size="10.00">FilePath::toStr</text>
</a>
</g>
<!-- Node3&#45;&gt;Node6 -->
<g id="edge10" class="edge"><title>Node3&#45;&gt;Node6</title>
<path fill="none" stroke="midnightblue" d="M393.196,-209.215C416.942,-206.532 445.075,-203.353 468.708,-200.683"/>
<polygon fill="midnightblue" stroke="midnightblue" points="469.332,-204.135 478.876,-199.534 468.546,-197.179 469.332,-204.135"/>
</g>
<!-- Node9 -->
<g id="node17" class="node"><title>Node9</title>
<a xlink:href="../../d2/d05/classproject_1_1_project.html#a46ccfa0fa920843d0626be456879b382" target="_top" xlink:title="Get all boards. ">
<polygon fill="white" stroke="black" points="452.5,-144.5 452.5,-165.5 585.5,-165.5 585.5,-144.5 452.5,-144.5"/>
<text text-anchor="middle" x="519" y="-152.5" font-family="Helvetica,sans-Serif" font-size="10.00">project::Project::getBoards</text>
</a>
</g>
<!-- Node8&#45;&gt;Node9 -->
<g id="edge16" class="edge"><title>Node8&#45;&gt;Node9</title>
<path fill="none" stroke="midnightblue" d="M405.748,-125.577C417.789,-128.708 430.281,-131.955 442,-135 450.547,-137.221 459.628,-139.58 468.442,-141.87"/>
<polygon fill="midnightblue" stroke="midnightblue" points="467.68,-145.288 478.239,-144.415 469.44,-138.513 467.68,-145.288"/>
</g>
<!-- Node10 -->
<g id="node19" class="node"><title>Node10</title>
<a xlink:href="../../d3/dd6/classproject_1_1_project_editor.html#a58d9a85f9ad7a9ae10eccf08589d6f62" target="_top" xlink:title="Open the board editor window and bring it to the front. ">
<polygon fill="white" stroke="black" points="465,-92 465,-126 573,-126 573,-92 465,-92"/>
<text text-anchor="start" x="473" y="-113" font-family="Helvetica,sans-Serif" font-size="10.00">project::ProjectEditor</text>
<text text-anchor="middle" x="519" y="-100" font-family="Helvetica,sans-Serif" font-size="10.00">::showBoardEditor</text>
</a>
</g>
<!-- Node8&#45;&gt;Node10 -->
<g id="edge18" class="edge"><title>Node8&#45;&gt;Node10</title>
<path fill="none" stroke="midnightblue" d="M405.901,-109C421.741,-109 438.723,-109 454.587,-109"/>
<polygon fill="midnightblue" stroke="midnightblue" points="454.827,-112.5 464.827,-109 454.827,-105.5 454.827,-112.5"/>
</g>
<!-- Node11 -->
<g id="node21" class="node"><title>Node11</title>
<a xlink:href="../../d2/d05/classproject_1_1_project.html#a1054eea6077b28d10d37c5e4c1b602fe" target="_top" xlink:title="Get all schematics. ">
<polygon fill="white" stroke="black" points="442,-52.5 442,-73.5 596,-73.5 596,-52.5 442,-52.5"/>
<text text-anchor="middle" x="519" y="-60.5" font-family="Helvetica,sans-Serif" font-size="10.00">project::Project::getSchematics</text>
</a>
</g>
<!-- Node8&#45;&gt;Node11 -->
<g id="edge20" class="edge"><title>Node8&#45;&gt;Node11</title>
<path fill="none" stroke="midnightblue" d="M405.748,-92.4231C417.789,-89.2925 430.281,-86.0454 442,-83 450.547,-80.7789 459.628,-78.4197 468.442,-76.13"/>
<polygon fill="midnightblue" stroke="midnightblue" points="469.44,-79.487 478.239,-73.5853 467.68,-72.7119 469.44,-79.487"/>
</g>
<!-- Node12 -->
<g id="node23" class="node"><title>Node12</title>
<a xlink:href="../../d3/dd6/classproject_1_1_project_editor.html#af2239632bc976a73559dbfe5383e3c08" target="_top" xlink:title="Open the schematic editor window and bring it to the front. ">
<polygon fill="white" stroke="black" points="460,-0 460,-34 578,-34 578,-0 460,-0"/>
<text text-anchor="start" x="468" y="-21" font-family="Helvetica,sans-Serif" font-size="10.00">project::ProjectEditor</text>
<text text-anchor="middle" x="519" y="-8" font-family="Helvetica,sans-Serif" font-size="10.00">::showSchematicEditor</text>
</a>
</g>
<!-- Node8&#45;&gt;Node12 -->
<g id="edge22" class="edge"><title>Node8&#45;&gt;Node12</title>
<path fill="none" stroke="midnightblue" d="M390.762,-91.9486C396.093,-89.2878 401.288,-86.3069 406,-83 425.577,-69.2606 422.018,-56.1436 442,-43 444.77,-41.1779 447.681,-39.4712 450.682,-37.8741"/>
<polygon fill="midnightblue" stroke="midnightblue" points="452.436,-40.9136 459.912,-33.4058 449.386,-34.6132 452.436,-40.9136"/>
</g>
</g>
</svg>
