<?xml version="1.0" encoding="UTF-8" standalone="no"?>
<!DOCTYPE svg PUBLIC "-//W3C//DTD SVG 1.1//EN"
 "http://www.w3.org/Graphics/SVG/1.1/DTD/svg11.dtd">
<!-- Generated by graphviz version 2.26.3 (20100126.1600)
 -->
<!-- Title: /home/travis/build/LibrePCB/LibrePCB/libs/librepcbprojecteditor/ui/ui_projectpropertieseditordialog.h Pages: 1 -->
<svg width="2012pt" height="128pt"
 viewBox="0.00 0.00 2012.00 128.00" xmlns="http://www.w3.org/2000/svg" xmlns:xlink="http://www.w3.org/1999/xlink">
<g id="graph1" class="graph" transform="scale(1 1) rotate(0) translate(4 124)">
<title>/home/travis/build/LibrePCB/LibrePCB/libs/librepcbprojecteditor/ui/ui_projectpropertieseditordialog.h</title>
<polygon fill="white" stroke="white" points="-4,5 -4,-124 2009,-124 2009,5 -4,5"/>
<!-- Node1 -->
<g id="node1" class="node"><title>Node1</title>
<polygon fill="#bfbfbf" stroke="black" points="919.5,-59 919.5,-119 1092.5,-119 1092.5,-59 919.5,-59"/>
<text text-anchor="start" x="927.5" y="-106" font-family="Helvetica,sans-Serif" font-size="10.00">/home/travis/build</text>
<text text-anchor="start" x="927.5" y="-93" font-family="Helvetica,sans-Serif" font-size="10.00">/LibrePCB/LibrePCB/libs</text>
<text text-anchor="start" x="927.5" y="-80" font-family="Helvetica,sans-Serif" font-size="10.00">/librepcbprojecteditor</text>
<text text-anchor="middle" x="1006" y="-67" font-family="Helvetica,sans-Serif" font-size="10.00">/ui/ui_projectpropertieseditordialog.h</text>
</g>
<!-- Node2 -->
<g id="node3" class="node"><title>Node2</title>
<polygon fill="white" stroke="#bfbfbf" points="-0.5,-0.5 -0.5,-21.5 88.5,-21.5 88.5,-0.5 -0.5,-0.5"/>
<text text-anchor="middle" x="44" y="-8.5" font-family="Helvetica,sans-Serif" font-size="10.00">QtCore/QVariant</text>
</g>
<!-- Node1&#45;&gt;Node2 -->
<g id="edge2" class="edge"><title>Node1&#45;&gt;Node2</title>
<path fill="none" stroke="midnightblue" d="M919.436,-86.3968C759.088,-80.7478 405.012,-64.4019 98.7085,-22.1043"/>
<polygon fill="midnightblue" stroke="midnightblue" points="99.1346,-18.6299 88.7474,-20.7171 98.1691,-25.563 99.1346,-18.6299"/>
</g>
<!-- Node3 -->
<g id="node5" class="node"><title>Node3</title>
<polygon fill="white" stroke="#bfbfbf" points="105.5,-0.5 105.5,-21.5 206.5,-21.5 206.5,-0.5 105.5,-0.5"/>
<text text-anchor="middle" x="156" y="-8.5" font-family="Helvetica,sans-Serif" font-size="10.00">QtWidgets/QAction</text>
</g>
<!-- Node1&#45;&gt;Node3 -->
<g id="edge4" class="edge"><title>Node1&#45;&gt;Node3</title>
<path fill="none" stroke="midnightblue" d="M919.369,-84.4993C775.371,-76.3922 477.567,-56.9688 216.836,-22.1542"/>
<polygon fill="midnightblue" stroke="midnightblue" points="217.174,-18.6682 206.797,-20.8035 216.241,-25.6057 217.174,-18.6682"/>
</g>
<!-- Node4 -->
<g id="node7" class="node"><title>Node4</title>
<polygon fill="white" stroke="#bfbfbf" points="224,-0.5 224,-21.5 346,-21.5 346,-0.5 224,-0.5"/>
<text text-anchor="middle" x="285" y="-8.5" font-family="Helvetica,sans-Serif" font-size="10.00">QtWidgets/QApplication</text>
</g>
<!-- Node1&#45;&gt;Node4 -->
<g id="edge6" class="edge"><title>Node1&#45;&gt;Node4</title>
<path fill="none" stroke="midnightblue" d="M919.48,-81.5744C796.614,-70.6992 564.319,-48.9219 356.258,-22.112"/>
<polygon fill="midnightblue" stroke="midnightblue" points="356.423,-18.6041 346.056,-20.7907 355.523,-25.5462 356.423,-18.6041"/>
</g>
<!-- Node5 -->
<g id="node9" class="node"><title>Node5</title>
<polygon fill="white" stroke="#bfbfbf" points="364,-0.5 364,-21.5 492,-21.5 492,-0.5 364,-0.5"/>
<text text-anchor="middle" x="428" y="-8.5" font-family="Helvetica,sans-Serif" font-size="10.00">QtWidgets/QButtonGroup</text>
</g>
<!-- Node1&#45;&gt;Node5 -->
<g id="edge8" class="edge"><title>Node1&#45;&gt;Node5</title>
<path fill="none" stroke="midnightblue" d="M919.258,-77.9646C820.768,-65.3273 654.988,-43.7318 502.133,-22.1439"/>
<polygon fill="midnightblue" stroke="midnightblue" points="502.476,-18.6576 492.085,-20.722 501.496,-25.5886 502.476,-18.6576"/>
</g>
<!-- Node6 -->
<g id="node11" class="node"><title>Node6</title>
<polygon fill="white" stroke="#bfbfbf" points="510,-0.5 510,-21.5 644,-21.5 644,-0.5 510,-0.5"/>
<text text-anchor="middle" x="577" y="-8.5" font-family="Helvetica,sans-Serif" font-size="10.00">QtWidgets/QDateTimeEdit</text>
</g>
<!-- Node1&#45;&gt;Node6 -->
<g id="edge10" class="edge"><title>Node1&#45;&gt;Node6</title>
<path fill="none" stroke="midnightblue" d="M919.444,-73.2625C838.562,-58.5568 719.434,-36.8971 645.123,-23.3859"/>
<polygon fill="midnightblue" stroke="midnightblue" points="645.408,-19.8805 634.943,-21.5351 644.156,-26.7676 645.408,-19.8805"/>
</g>
<!-- Node7 -->
<g id="node13" class="node"><title>Node7</title>
<polygon fill="white" stroke="#bfbfbf" points="661.5,-0.5 661.5,-21.5 762.5,-21.5 762.5,-0.5 661.5,-0.5"/>
<text text-anchor="middle" x="712" y="-8.5" font-family="Helvetica,sans-Serif" font-size="10.00">QtWidgets/QDialog</text>
</g>
<!-- Node1&#45;&gt;Node7 -->
<g id="edge12" class="edge"><title>Node1&#45;&gt;Node7</title>
<path fill="none" stroke="midnightblue" d="M919.38,-66.0193C867.996,-52.3866 804.697,-35.5931 761.643,-24.1706"/>
<polygon fill="midnightblue" stroke="midnightblue" points="762.529,-20.7846 751.966,-21.6031 760.734,-27.5505 762.529,-20.7846"/>
</g>
<!-- Node8 -->
<g id="node15" class="node"><title>Node8</title>
<polygon fill="white" stroke="#bfbfbf" points="779.5,-0.5 779.5,-21.5 926.5,-21.5 926.5,-0.5 779.5,-0.5"/>
<text text-anchor="middle" x="853" y="-8.5" font-family="Helvetica,sans-Serif" font-size="10.00">QtWidgets/QDialogButtonBox</text>
</g>
<!-- Node1&#45;&gt;Node8 -->
<g id="edge14" class="edge"><title>Node1&#45;&gt;Node8</title>
<path fill="none" stroke="midnightblue" d="M946.846,-58.8432C924.934,-47.6723 901.018,-35.4797 882.813,-26.1988"/>
<polygon fill="midnightblue" stroke="midnightblue" points="884.353,-23.0555 873.855,-21.6317 881.174,-29.2918 884.353,-23.0555"/>
</g>
<!-- Node9 -->
<g id="node17" class="node"><title>Node9</title>
<polygon fill="white" stroke="#bfbfbf" points="943.5,-0.5 943.5,-21.5 1068.5,-21.5 1068.5,-0.5 943.5,-0.5"/>
<text text-anchor="middle" x="1006" y="-8.5" font-family="Helvetica,sans-Serif" font-size="10.00">QtWidgets/QFormLayout</text>
</g>
<!-- Node1&#45;&gt;Node9 -->
<g id="edge16" class="edge"><title>Node1&#45;&gt;Node9</title>
<path fill="none" stroke="midnightblue" d="M1006,-58.6198C1006,-49.6797 1006,-40.1035 1006,-31.9002"/>
<polygon fill="midnightblue" stroke="midnightblue" points="1009.5,-31.7534 1006,-21.7535 1002.5,-31.7535 1009.5,-31.7534"/>
</g>
<!-- Node10 -->
<g id="node19" class="node"><title>Node10</title>
<polygon fill="white" stroke="#bfbfbf" points="1085.5,-0.5 1085.5,-21.5 1202.5,-21.5 1202.5,-0.5 1085.5,-0.5"/>
<text text-anchor="middle" x="1144" y="-8.5" font-family="Helvetica,sans-Serif" font-size="10.00">QtWidgets/QGroupBox</text>
</g>
<!-- Node1&#45;&gt;Node10 -->
<g id="edge18" class="edge"><title>Node1&#45;&gt;Node10</title>
<path fill="none" stroke="midnightblue" d="M1059.35,-58.8432C1078.76,-47.8773 1099.9,-35.9268 1116.2,-26.7126"/>
<polygon fill="midnightblue" stroke="midnightblue" points="1118.21,-29.5993 1125.19,-21.6317 1114.76,-23.5054 1118.21,-29.5993"/>
</g>
<!-- Node11 -->
<g id="node21" class="node"><title>Node11</title>
<polygon fill="white" stroke="#bfbfbf" points="1219.5,-0.5 1219.5,-21.5 1346.5,-21.5 1346.5,-0.5 1219.5,-0.5"/>
<text text-anchor="middle" x="1283" y="-8.5" font-family="Helvetica,sans-Serif" font-size="10.00">QtWidgets/QHeaderView</text>
</g>
<!-- Node1&#45;&gt;Node11 -->
<g id="edge20" class="edge"><title>Node1&#45;&gt;Node11</title>
<path fill="none" stroke="midnightblue" d="M1092.51,-64.6412C1139.82,-51.3183 1196.6,-35.3288 1235.8,-24.2922"/>
<polygon fill="midnightblue" stroke="midnightblue" points="1236.94,-27.6072 1245.61,-21.5277 1235.04,-20.8692 1236.94,-27.6072"/>
</g>
<!-- Node12 -->
<g id="node23" class="node"><title>Node12</title>
<polygon fill="white" stroke="#bfbfbf" points="1363.5,-0.5 1363.5,-21.5 1460.5,-21.5 1460.5,-0.5 1363.5,-0.5"/>
<text text-anchor="middle" x="1412" y="-8.5" font-family="Helvetica,sans-Serif" font-size="10.00">QtWidgets/QLabel</text>
</g>
<!-- Node1&#45;&gt;Node12 -->
<g id="edge22" class="edge"><title>Node1&#45;&gt;Node12</title>
<path fill="none" stroke="midnightblue" d="M1092.78,-72.3652C1160.98,-59.2852 1258.69,-40.5347 1353.44,-22.2986"/>
<polygon fill="midnightblue" stroke="midnightblue" points="1354.33,-25.6918 1363.49,-20.3648 1353.01,-18.8179 1354.33,-25.6918"/>
</g>
<!-- Node13 -->
<g id="node25" class="node"><title>Node13</title>
<polygon fill="white" stroke="#bfbfbf" points="1477.5,-0.5 1477.5,-21.5 1586.5,-21.5 1586.5,-0.5 1477.5,-0.5"/>
<text text-anchor="middle" x="1532" y="-8.5" font-family="Helvetica,sans-Serif" font-size="10.00">QtWidgets/QLineEdit</text>
</g>
<!-- Node1&#45;&gt;Node13 -->
<g id="edge24" class="edge"><title>Node1&#45;&gt;Node13</title>
<path fill="none" stroke="midnightblue" d="M1092.73,-77.2187C1183.57,-64.7032 1330.67,-43.9438 1467.15,-22.2661"/>
<polygon fill="midnightblue" stroke="midnightblue" points="1468.06,-25.6668 1477.38,-20.637 1466.95,-18.754 1468.06,-25.6668"/>
</g>
<!-- Node14 -->
<g id="node27" class="node"><title>Node14</title>
<polygon fill="white" stroke="#bfbfbf" points="1604,-0.5 1604,-21.5 1732,-21.5 1732,-0.5 1604,-0.5"/>
<text text-anchor="middle" x="1668" y="-8.5" font-family="Helvetica,sans-Serif" font-size="10.00">QtWidgets/QTableWidget</text>
</g>
<!-- Node1&#45;&gt;Node14 -->
<g id="edge26" class="edge"><title>Node1&#45;&gt;Node14</title>
<path fill="none" stroke="midnightblue" d="M1092.95,-80.107C1205.89,-68.3307 1409.44,-46.3449 1593.77,-22.1285"/>
<polygon fill="midnightblue" stroke="midnightblue" points="1594.47,-25.5669 1603.92,-20.7896 1593.55,-18.627 1594.47,-25.5669"/>
</g>
<!-- Node15 -->
<g id="node29" class="node"><title>Node15</title>
<polygon fill="white" stroke="#bfbfbf" points="1750,-0.5 1750,-21.5 1860,-21.5 1860,-0.5 1750,-0.5"/>
<text text-anchor="middle" x="1805" y="-8.5" font-family="Helvetica,sans-Serif" font-size="10.00">QtWidgets/QTextEdit</text>
</g>
<!-- Node1&#45;&gt;Node15 -->
<g id="edge28" class="edge"><title>Node1&#45;&gt;Node15</title>
<path fill="none" stroke="midnightblue" d="M1092.52,-83.3462C1228.3,-73.9786 1499.85,-53.2498 1739.92,-22.0615"/>
<polygon fill="midnightblue" stroke="midnightblue" points="1740.42,-25.5256 1749.88,-20.7586 1739.51,-18.5847 1740.42,-25.5256"/>
</g>
<!-- Node16 -->
<g id="node31" class="node"><title>Node16</title>
<polygon fill="white" stroke="#bfbfbf" points="1877.5,-0.5 1877.5,-21.5 2004.5,-21.5 2004.5,-0.5 1877.5,-0.5"/>
<text text-anchor="middle" x="1941" y="-8.5" font-family="Helvetica,sans-Serif" font-size="10.00">QtWidgets/QVBoxLayout</text>
</g>
<!-- Node1&#45;&gt;Node16 -->
<g id="edge30" class="edge"><title>Node1&#45;&gt;Node16</title>
<path fill="none" stroke="midnightblue" d="M1092.56,-84.4091C1246.43,-75.7799 1577.83,-55.0832 1867.16,-22.15"/>
<polygon fill="midnightblue" stroke="midnightblue" points="1867.89,-25.5885 1877.43,-20.9733 1867.1,-18.634 1867.89,-25.5885"/>
</g>
</g>
</svg>
