<?xml version="1.0" encoding="UTF-8" standalone="no"?>
<!DOCTYPE svg PUBLIC "-//W3C//DTD SVG 1.1//EN"
 "http://www.w3.org/Graphics/SVG/1.1/DTD/svg11.dtd">
<!-- Generated by graphviz version 2.26.3 (20100126.1600)
 -->
<!-- Title: /home/travis/build/LibrePCB/LibrePCB/libs/librepcbprojecteditor/ui/ui_projectsettingsdialog.h Pages: 1 -->
<svg width="2286pt" height="128pt"
 viewBox="0.00 0.00 2286.00 128.00" xmlns="http://www.w3.org/2000/svg" xmlns:xlink="http://www.w3.org/1999/xlink">
<g id="graph1" class="graph" transform="scale(1 1) rotate(0) translate(4 124)">
<title>/home/travis/build/LibrePCB/LibrePCB/libs/librepcbprojecteditor/ui/ui_projectsettingsdialog.h</title>
<polygon fill="white" stroke="white" points="-4,5 -4,-124 2283,-124 2283,5 -4,5"/>
<!-- Node1 -->
<g id="node1" class="node"><title>Node1</title>
<polygon fill="#bfbfbf" stroke="black" points="1064,-59 1064,-119 1204,-119 1204,-59 1064,-59"/>
<text text-anchor="start" x="1072" y="-106" font-family="Helvetica,sans-Serif" font-size="10.00">/home/travis/build</text>
<text text-anchor="start" x="1072" y="-93" font-family="Helvetica,sans-Serif" font-size="10.00">/LibrePCB/LibrePCB/libs</text>
<text text-anchor="start" x="1072" y="-80" font-family="Helvetica,sans-Serif" font-size="10.00">/librepcbprojecteditor</text>
<text text-anchor="middle" x="1134" y="-67" font-family="Helvetica,sans-Serif" font-size="10.00">/ui/ui_projectsettingsdialog.h</text>
</g>
<!-- Node2 -->
<g id="node3" class="node"><title>Node2</title>
<polygon fill="white" stroke="#bfbfbf" points="-0.5,-0.5 -0.5,-21.5 88.5,-21.5 88.5,-0.5 -0.5,-0.5"/>
<text text-anchor="middle" x="44" y="-8.5" font-family="Helvetica,sans-Serif" font-size="10.00">QtCore/QVariant</text>
</g>
<!-- Node1&#45;&gt;Node2 -->
<g id="edge2" class="edge"><title>Node1&#45;&gt;Node2</title>
<path fill="none" stroke="midnightblue" d="M1063.87,-87.8542C897.607,-84.4086 466.462,-71.1993 98.7822,-22.0977"/>
<polygon fill="midnightblue" stroke="midnightblue" points="99.1211,-18.6118 88.7434,-20.746 98.1869,-25.5492 99.1211,-18.6118"/>
</g>
<!-- Node3 -->
<g id="node5" class="node"><title>Node3</title>
<polygon fill="white" stroke="#bfbfbf" points="105.5,-0.5 105.5,-21.5 206.5,-21.5 206.5,-0.5 105.5,-0.5"/>
<text text-anchor="middle" x="156" y="-8.5" font-family="Helvetica,sans-Serif" font-size="10.00">QtWidgets/QAction</text>
</g>
<!-- Node1&#45;&gt;Node3 -->
<g id="edge4" class="edge"><title>Node1&#45;&gt;Node3</title>
<path fill="none" stroke="midnightblue" d="M1063.98,-86.5617C911.535,-80.6753 538.083,-63.1244 216.761,-22.1235"/>
<polygon fill="midnightblue" stroke="midnightblue" points="217.156,-18.6456 206.792,-20.8417 216.264,-25.5884 217.156,-18.6456"/>
</g>
<!-- Node4 -->
<g id="node7" class="node"><title>Node4</title>
<polygon fill="white" stroke="#bfbfbf" points="224,-0.5 224,-21.5 346,-21.5 346,-0.5 224,-0.5"/>
<text text-anchor="middle" x="285" y="-8.5" font-family="Helvetica,sans-Serif" font-size="10.00">QtWidgets/QApplication</text>
</g>
<!-- Node1&#45;&gt;Node4 -->
<g id="edge6" class="edge"><title>Node1&#45;&gt;Node4</title>
<path fill="none" stroke="midnightblue" d="M1063.74,-84.6136C928.712,-75.8226 623.456,-54.1986 356.333,-22.0949"/>
<polygon fill="midnightblue" stroke="midnightblue" points="356.396,-18.577 346.048,-20.8512 355.556,-25.5264 356.396,-18.577"/>
</g>
<!-- Node5 -->
<g id="node9" class="node"><title>Node5</title>
<polygon fill="white" stroke="#bfbfbf" points="364,-0.5 364,-21.5 492,-21.5 492,-0.5 364,-0.5"/>
<text text-anchor="middle" x="428" y="-8.5" font-family="Helvetica,sans-Serif" font-size="10.00">QtWidgets/QButtonGroup</text>
</g>
<!-- Node1&#45;&gt;Node5 -->
<g id="edge8" class="edge"><title>Node1&#45;&gt;Node5</title>
<path fill="none" stroke="midnightblue" d="M1063.63,-82.574C948.481,-71.8334 712.404,-48.8698 502.068,-22.0958"/>
<polygon fill="midnightblue" stroke="midnightblue" points="502.435,-18.6144 492.072,-20.818 501.547,-25.5579 502.435,-18.6144"/>
</g>
<!-- Node6 -->
<g id="node11" class="node"><title>Node6</title>
<polygon fill="white" stroke="#bfbfbf" points="510,-0.5 510,-21.5 632,-21.5 632,-0.5 510,-0.5"/>
<text text-anchor="middle" x="571" y="-8.5" font-family="Helvetica,sans-Serif" font-size="10.00">QtWidgets/QComboBox</text>
</g>
<!-- Node1&#45;&gt;Node6 -->
<g id="edge10" class="edge"><title>Node1&#45;&gt;Node6</title>
<path fill="none" stroke="midnightblue" d="M1063.72,-79.9167C970.087,-67.7093 798.969,-45.0378 642.365,-22.1794"/>
<polygon fill="midnightblue" stroke="midnightblue" points="642.473,-18.658 632.072,-20.6736 641.46,-25.5843 642.473,-18.658"/>
</g>
<!-- Node7 -->
<g id="node13" class="node"><title>Node7</title>
<polygon fill="white" stroke="#bfbfbf" points="649.5,-0.5 649.5,-21.5 750.5,-21.5 750.5,-0.5 649.5,-0.5"/>
<text text-anchor="middle" x="700" y="-8.5" font-family="Helvetica,sans-Serif" font-size="10.00">QtWidgets/QDialog</text>
</g>
<!-- Node1&#45;&gt;Node7 -->
<g id="edge12" class="edge"><title>Node1&#45;&gt;Node7</title>
<path fill="none" stroke="midnightblue" d="M1063.82,-76.6237C990.665,-63.6857 872.391,-42.665 760.626,-22.2888"/>
<polygon fill="midnightblue" stroke="midnightblue" points="760.992,-18.7978 750.526,-20.4459 759.735,-25.6841 760.992,-18.7978"/>
</g>
<!-- Node8 -->
<g id="node15" class="node"><title>Node8</title>
<polygon fill="white" stroke="#bfbfbf" points="767.5,-0.5 767.5,-21.5 914.5,-21.5 914.5,-0.5 767.5,-0.5"/>
<text text-anchor="middle" x="841" y="-8.5" font-family="Helvetica,sans-Serif" font-size="10.00">QtWidgets/QDialogButtonBox</text>
</g>
<!-- Node1&#45;&gt;Node8 -->
<g id="edge14" class="edge"><title>Node1&#45;&gt;Node8</title>
<path fill="none" stroke="midnightblue" d="M1063.82,-70.3171C1010.24,-56.0531 937.759,-36.7584 890.219,-24.1027"/>
<polygon fill="midnightblue" stroke="midnightblue" points="891.033,-20.6975 880.469,-21.5071 889.232,-27.4619 891.033,-20.6975"/>
</g>
<!-- Node9 -->
<g id="node17" class="node"><title>Node9</title>
<polygon fill="white" stroke="#bfbfbf" points="931.5,-0.5 931.5,-21.5 1052.5,-21.5 1052.5,-0.5 931.5,-0.5"/>
<text text-anchor="middle" x="992" y="-8.5" font-family="Helvetica,sans-Serif" font-size="10.00">QtWidgets/QGridLayout</text>
</g>
<!-- Node1&#45;&gt;Node9 -->
<g id="edge16" class="edge"><title>Node1&#45;&gt;Node9</title>
<path fill="none" stroke="midnightblue" d="M1079.1,-58.8432C1058.95,-47.7748 1036.97,-35.7033 1020.14,-26.455"/>
<polygon fill="midnightblue" stroke="midnightblue" points="1021.81,-23.3786 1011.36,-21.6317 1018.43,-29.5139 1021.81,-23.3786"/>
</g>
<!-- Node10 -->
<g id="node19" class="node"><title>Node10</title>
<polygon fill="white" stroke="#bfbfbf" points="1070,-0.5 1070,-21.5 1198,-21.5 1198,-0.5 1070,-0.5"/>
<text text-anchor="middle" x="1134" y="-8.5" font-family="Helvetica,sans-Serif" font-size="10.00">QtWidgets/QHBoxLayout</text>
</g>
<!-- Node1&#45;&gt;Node10 -->
<g id="edge18" class="edge"><title>Node1&#45;&gt;Node10</title>
<path fill="none" stroke="midnightblue" d="M1134,-58.6198C1134,-49.6797 1134,-40.1035 1134,-31.9002"/>
<polygon fill="midnightblue" stroke="midnightblue" points="1137.5,-31.7534 1134,-21.7535 1130.5,-31.7535 1137.5,-31.7534"/>
</g>
<!-- Node11 -->
<g id="node21" class="node"><title>Node11</title>
<polygon fill="white" stroke="#bfbfbf" points="1215.5,-0.5 1215.5,-21.5 1342.5,-21.5 1342.5,-0.5 1215.5,-0.5"/>
<text text-anchor="middle" x="1279" y="-8.5" font-family="Helvetica,sans-Serif" font-size="10.00">QtWidgets/QHeaderView</text>
</g>
<!-- Node1&#45;&gt;Node11 -->
<g id="edge20" class="edge"><title>Node1&#45;&gt;Node11</title>
<path fill="none" stroke="midnightblue" d="M1190.06,-58.8432C1210.64,-47.7748 1233.08,-35.7033 1250.27,-26.455"/>
<polygon fill="midnightblue" stroke="midnightblue" points="1252.09,-29.4515 1259.24,-21.6317 1248.77,-23.2868 1252.09,-29.4515"/>
</g>
<!-- Node12 -->
<g id="node23" class="node"><title>Node12</title>
<polygon fill="white" stroke="#bfbfbf" points="1359.5,-0.5 1359.5,-21.5 1456.5,-21.5 1456.5,-0.5 1359.5,-0.5"/>
<text text-anchor="middle" x="1408" y="-8.5" font-family="Helvetica,sans-Serif" font-size="10.00">QtWidgets/QLabel</text>
</g>
<!-- Node1&#45;&gt;Node12 -->
<g id="edge22" class="edge"><title>Node1&#45;&gt;Node12</title>
<path fill="none" stroke="midnightblue" d="M1204.21,-69.0144C1253.48,-54.9861 1318.03,-36.6122 1361.15,-24.3374"/>
<polygon fill="midnightblue" stroke="midnightblue" points="1362.16,-27.6892 1370.82,-21.5849 1360.24,-20.9566 1362.16,-27.6892"/>
</g>
<!-- Node13 -->
<g id="node25" class="node"><title>Node13</title>
<polygon fill="white" stroke="#bfbfbf" points="1474,-0.5 1474,-21.5 1594,-21.5 1594,-0.5 1474,-0.5"/>
<text text-anchor="middle" x="1534" y="-8.5" font-family="Helvetica,sans-Serif" font-size="10.00">QtWidgets/QListWidget</text>
</g>
<!-- Node1&#45;&gt;Node13 -->
<g id="edge24" class="edge"><title>Node1&#45;&gt;Node13</title>
<path fill="none" stroke="midnightblue" d="M1204.13,-75.3242C1279.24,-60.6774 1397.41,-37.6349 1470.05,-23.47"/>
<polygon fill="midnightblue" stroke="midnightblue" points="1470.84,-26.8813 1479.99,-21.5319 1469.51,-20.0107 1470.84,-26.8813"/>
</g>
<!-- Node14 -->
<g id="node27" class="node"><title>Node14</title>
<polygon fill="white" stroke="#bfbfbf" points="1612,-0.5 1612,-21.5 1736,-21.5 1736,-0.5 1612,-0.5"/>
<text text-anchor="middle" x="1674" y="-8.5" font-family="Helvetica,sans-Serif" font-size="10.00">QtWidgets/QSpacerItem</text>
</g>
<!-- Node1&#45;&gt;Node14 -->
<g id="edge26" class="edge"><title>Node1&#45;&gt;Node14</title>
<path fill="none" stroke="midnightblue" d="M1204.36,-79.213C1294.07,-66.675 1454.25,-44.0888 1601.54,-22.2067"/>
<polygon fill="midnightblue" stroke="midnightblue" points="1602.29,-25.633 1611.67,-20.6996 1601.26,-18.7092 1602.29,-25.633"/>
</g>
<!-- Node15 -->
<g id="node29" class="node"><title>Node15</title>
<polygon fill="white" stroke="#bfbfbf" points="1753.5,-0.5 1753.5,-21.5 1874.5,-21.5 1874.5,-0.5 1753.5,-0.5"/>
<text text-anchor="middle" x="1814" y="-8.5" font-family="Helvetica,sans-Serif" font-size="10.00">QtWidgets/QTabWidget</text>
</g>
<!-- Node1&#45;&gt;Node15 -->
<g id="edge28" class="edge"><title>Node1&#45;&gt;Node15</title>
<path fill="none" stroke="midnightblue" d="M1204.24,-82.4243C1316.13,-71.7 1541.95,-49.0403 1743.27,-22.1891"/>
<polygon fill="midnightblue" stroke="midnightblue" points="1744,-25.6229 1753.44,-20.8256 1743.07,-18.6849 1744,-25.6229"/>
</g>
<!-- Node16 -->
<g id="node31" class="node"><title>Node16</title>
<polygon fill="white" stroke="#bfbfbf" points="1891.5,-0.5 1891.5,-21.5 2012.5,-21.5 2012.5,-0.5 1891.5,-0.5"/>
<text text-anchor="middle" x="1952" y="-8.5" font-family="Helvetica,sans-Serif" font-size="10.00">QtWidgets/QToolButton</text>
</g>
<!-- Node1&#45;&gt;Node16 -->
<g id="edge30" class="edge"><title>Node1&#45;&gt;Node16</title>
<path fill="none" stroke="midnightblue" d="M1204.13,-84.346C1335.18,-75.2955 1626.28,-53.5205 1881.25,-22.1566"/>
<polygon fill="midnightblue" stroke="midnightblue" points="1881.96,-25.5961 1891.45,-20.8944 1881.1,-18.6491 1881.96,-25.5961"/>
</g>
<!-- Node17 -->
<g id="node33" class="node"><title>Node17</title>
<polygon fill="white" stroke="#bfbfbf" points="2029.5,-0.5 2029.5,-21.5 2156.5,-21.5 2156.5,-0.5 2029.5,-0.5"/>
<text text-anchor="middle" x="2093" y="-8.5" font-family="Helvetica,sans-Serif" font-size="10.00">QtWidgets/QVBoxLayout</text>
</g>
<!-- Node1&#45;&gt;Node17 -->
<g id="edge32" class="edge"><title>Node1&#45;&gt;Node17</title>
<path fill="none" stroke="midnightblue" d="M1204.03,-85.5293C1352.5,-77.7759 1709.98,-57.0174 2019.37,-22.1223"/>
<polygon fill="midnightblue" stroke="midnightblue" points="2019.89,-25.5858 2029.43,-20.9805 2019.1,-18.6305 2019.89,-25.5858"/>
</g>
<!-- Node18 -->
<g id="node35" class="node"><title>Node18</title>
<polygon fill="white" stroke="#bfbfbf" points="2174,-0.5 2174,-21.5 2278,-21.5 2278,-0.5 2174,-0.5"/>
<text text-anchor="middle" x="2226" y="-8.5" font-family="Helvetica,sans-Serif" font-size="10.00">QtWidgets/QWidget</text>
</g>
<!-- Node1&#45;&gt;Node18 -->
<g id="edge34" class="edge"><title>Node1&#45;&gt;Node18</title>
<path fill="none" stroke="midnightblue" d="M1204.26,-87.1835C1369.84,-82.3096 1797.53,-66.263 2163.81,-22.029"/>
<polygon fill="midnightblue" stroke="midnightblue" points="2164.31,-25.4944 2173.82,-20.8123 2163.47,-18.5457 2164.31,-25.4944"/>
</g>
</g>
</svg>
