<?xml version="1.0" encoding="UTF-8" standalone="no"?>
<!DOCTYPE svg PUBLIC "-//W3C//DTD SVG 1.1//EN"
 "http://www.w3.org/Graphics/SVG/1.1/DTD/svg11.dtd">
<!-- Generated by graphviz version 2.26.3 (20100126.1600)
 -->
<!-- Title: getUuid Pages: 1 -->
<svg width="904pt" height="537pt"
 viewBox="0.00 0.00 904.00 537.00" xmlns="http://www.w3.org/2000/svg" xmlns:xlink="http://www.w3.org/1999/xlink">
<g id="graph1" class="graph" transform="scale(1 1) rotate(0) translate(4 533)">
<title>getUuid</title>
<polygon fill="white" stroke="white" points="-4,5 -4,-533 901,-533 901,5 -4,5"/>
<!-- Node1 -->
<g id="node1" class="node"><title>Node1</title>
<polygon fill="#bfbfbf" stroke="black" points="0,-248.5 0,-269.5 50,-269.5 50,-248.5 0,-248.5"/>
<text text-anchor="middle" x="25" y="-256.5" font-family="Helvetica,sans-Serif" font-size="10.00">getUuid</text>
</g>
<!-- Node2 -->
<g id="node3" class="node"><title>Node2</title>
<a xlink:href="../../d0/d7d/classproject_1_1_component_instance.html#a02fd73d861ef2e4aabb38c0c9ff82947" target="_top" xlink:title="project::ComponentInstance\l::init">
<polygon fill="white" stroke="black" points="106,-495 106,-529 246,-529 246,-495 106,-495"/>
<text text-anchor="start" x="114" y="-516" font-family="Helvetica,sans-Serif" font-size="10.00">project::ComponentInstance</text>
<text text-anchor="middle" x="176" y="-503" font-family="Helvetica,sans-Serif" font-size="10.00">::init</text>
</a>
</g>
<!-- Node1&#45;&gt;Node2 -->
<g id="edge2" class="edge"><title>Node1&#45;&gt;Node2</title>
<path fill="none" stroke="midnightblue" d="M27.9118,-279.567C35.4058,-329.702 56.8345,-456.284 86,-486 91.5822,-491.688 98.3247,-496.151 105.579,-499.649"/>
<polygon fill="midnightblue" stroke="midnightblue" points="31.3616,-278.968 26.4533,-269.579 24.435,-279.979 31.3616,-278.968"/>
</g>
<!-- Node3 -->
<g id="node5" class="node"><title>Node3</title>
<a xlink:href="../../d0/d7d/classproject_1_1_component_instance.html#aeb87054a7c12b9ccee59af89a9abf24f" target="_top" xlink:title="Serialize the object to a XML DOM element. ">
<polygon fill="white" stroke="black" points="104,-443 104,-477 248,-477 248,-443 104,-443"/>
<text text-anchor="start" x="112" y="-464" font-family="Helvetica,sans-Serif" font-size="10.00">project::ComponentInstance</text>
<text text-anchor="middle" x="176" y="-451" font-family="Helvetica,sans-Serif" font-size="10.00">::serializeToXmlDomElement</text>
</a>
</g>
<!-- Node1&#45;&gt;Node3 -->
<g id="edge4" class="edge"><title>Node1&#45;&gt;Node3</title>
<path fill="none" stroke="midnightblue" d="M26.2542,-279.857C29.5903,-316.4 41.757,-392.091 86,-434 91.1953,-438.921 97.2635,-442.919 103.751,-446.165"/>
<polygon fill="midnightblue" stroke="midnightblue" points="29.7412,-279.553 25.4767,-269.854 22.7622,-280.095 29.7412,-279.553"/>
</g>
<!-- Node5 -->
<g id="node9" class="node"><title>Node5</title>
<a xlink:href="../../da/d96/classproject_1_1_b_i___footprint.html#a02fd73d861ef2e4aabb38c0c9ff82947" target="_top" xlink:title="project::BI_Footprint\l::init">
<polygon fill="white" stroke="black" points="123.5,-391 123.5,-425 228.5,-425 228.5,-391 123.5,-391"/>
<text text-anchor="start" x="131.5" y="-412" font-family="Helvetica,sans-Serif" font-size="10.00">project::BI_Footprint</text>
<text text-anchor="middle" x="176" y="-399" font-family="Helvetica,sans-Serif" font-size="10.00">::init</text>
</a>
</g>
<!-- Node1&#45;&gt;Node5 -->
<g id="edge8" class="edge"><title>Node1&#45;&gt;Node5</title>
<path fill="none" stroke="midnightblue" d="M29.7421,-279.752C37.0854,-307.176 53.8412,-355.142 86,-382 96.6106,-390.862 110.097,-396.705 123.38,-400.557"/>
<polygon fill="midnightblue" stroke="midnightblue" points="33.0488,-278.548 27.2272,-269.695 26.2579,-280.246 33.0488,-278.548"/>
</g>
<!-- Node6 -->
<g id="node11" class="node"><title>Node6</title>
<a xlink:href="../../de/d67/classproject_1_1_gen_comp_instance.html#aeb87054a7c12b9ccee59af89a9abf24f" target="_top" xlink:title="Serialize the object to a XML DOM element. ">
<polygon fill="white" stroke="black" points="104,-339 104,-373 248,-373 248,-339 104,-339"/>
<text text-anchor="start" x="112" y="-360" font-family="Helvetica,sans-Serif" font-size="10.00">project::GenCompInstance</text>
<text text-anchor="middle" x="176" y="-347" font-family="Helvetica,sans-Serif" font-size="10.00">::serializeToXmlDomElement</text>
</a>
</g>
<!-- Node1&#45;&gt;Node6 -->
<g id="edge10" class="edge"><title>Node1&#45;&gt;Node6</title>
<path fill="none" stroke="midnightblue" d="M36.883,-278.243C47.7715,-294.326 65.3138,-316.708 86,-330 91.4731,-333.517 97.4331,-336.569 103.594,-339.217"/>
<polygon fill="midnightblue" stroke="midnightblue" points="39.6565,-276.088 31.2673,-269.617 33.7902,-279.907 39.6565,-276.088"/>
</g>
<!-- Node8 -->
<g id="node15" class="node"><title>Node8</title>
<a xlink:href="../../d9/d30/classproject_1_1_project_library.html#acc16ec02378a1c17f0b883ff8002e402" target="_top" xlink:title="project::ProjectLibrary\l::getComponentsOfGenComp">
<polygon fill="white" stroke="black" points="103,-287 103,-321 249,-321 249,-287 103,-287"/>
<text text-anchor="start" x="111" y="-308" font-family="Helvetica,sans-Serif" font-size="10.00">project::ProjectLibrary</text>
<text text-anchor="middle" x="176" y="-295" font-family="Helvetica,sans-Serif" font-size="10.00">::getComponentsOfGenComp</text>
</a>
</g>
<!-- Node1&#45;&gt;Node8 -->
<g id="edge14" class="edge"><title>Node1&#45;&gt;Node8</title>
<path fill="none" stroke="midnightblue" d="M60.0532,-269.446C77.5448,-274.659 99.1459,-281.096 118.944,-286.997"/>
<polygon fill="midnightblue" stroke="midnightblue" points="60.8571,-266.034 50.274,-266.532 58.8579,-272.742 60.8571,-266.034"/>
</g>
<!-- Node10 -->
<g id="node19" class="node"><title>Node10</title>
<a xlink:href="../../dc/dbb/classproject_1_1_unplaced_components_dock.html#ad000d7056be9060e68ab7f2548d12946" target="_top" xlink:title="project::UnplacedComponents\lDock::updateComponentsList">
<polygon fill="white" stroke="black" points="312.5,-260 312.5,-294 461.5,-294 461.5,-260 312.5,-260"/>
<text text-anchor="start" x="320.5" y="-281" font-family="Helvetica,sans-Serif" font-size="10.00">project::UnplacedComponents</text>
<text text-anchor="middle" x="387" y="-268" font-family="Helvetica,sans-Serif" font-size="10.00">Dock::updateComponentsList</text>
</a>
</g>
<!-- Node1&#45;&gt;Node10 -->
<g id="edge36" class="edge"><title>Node1&#45;&gt;Node10</title>
<path fill="none" stroke="midnightblue" d="M60.298,-260.755C118.337,-263.641 235.16,-269.45 312.224,-273.282"/>
<polygon fill="midnightblue" stroke="midnightblue" points="60.3292,-257.252 50.1677,-260.251 59.9815,-264.244 60.3292,-257.252"/>
</g>
<!-- Node14 -->
<g id="node27" class="node"><title>Node14</title>
<a xlink:href="../../dc/dbb/classproject_1_1_unplaced_components_dock.html#accd0a903591840efc04eae995ba9518a" target="_top" xlink:title="project::UnplacedComponents\lDock::on_btnAdd_clicked">
<polygon fill="white" stroke="black" points="523.5,-163 523.5,-197 672.5,-197 672.5,-163 523.5,-163"/>
<text text-anchor="start" x="531.5" y="-184" font-family="Helvetica,sans-Serif" font-size="10.00">project::UnplacedComponents</text>
<text text-anchor="middle" x="598" y="-171" font-family="Helvetica,sans-Serif" font-size="10.00">Dock::on_btnAdd_clicked</text>
</a>
</g>
<!-- Node1&#45;&gt;Node14 -->
<g id="edge32" class="edge"><title>Node1&#45;&gt;Node14</title>
<path fill="none" stroke="midnightblue" d="M35.5803,-239.164C45.9103,-222.1 63.3669,-198.609 86,-188 229.081,-120.934 420.306,-143.144 523.839,-162.987"/>
<polygon fill="midnightblue" stroke="midnightblue" points="32.2681,-237.905 30.3364,-248.322 38.3428,-241.383 32.2681,-237.905"/>
</g>
<!-- Node15 -->
<g id="node29" class="node"><title>Node15</title>
<a xlink:href="../../dc/dbb/classproject_1_1_unplaced_components_dock.html#af175cf3f7948ac944834cad09819b753" target="_top" xlink:title="project::UnplacedComponents\lDock::on_pushButton_clicked">
<polygon fill="white" stroke="black" points="523.5,-111 523.5,-145 672.5,-145 672.5,-111 523.5,-111"/>
<text text-anchor="start" x="531.5" y="-132" font-family="Helvetica,sans-Serif" font-size="10.00">project::UnplacedComponents</text>
<text text-anchor="middle" x="598" y="-119" font-family="Helvetica,sans-Serif" font-size="10.00">Dock::on_pushButton_clicked</text>
</a>
</g>
<!-- Node1&#45;&gt;Node15 -->
<g id="edge34" class="edge"><title>Node1&#45;&gt;Node15</title>
<path fill="none" stroke="midnightblue" d="M29.0581,-238.434C35.6823,-211.015 51.6865,-163.454 86,-142 156.78,-97.746 399.131,-110.873 523.323,-121.018"/>
<polygon fill="midnightblue" stroke="midnightblue" points="25.5741,-237.979 26.8309,-248.499 32.4088,-239.492 25.5741,-237.979"/>
</g>
<!-- Node16 -->
<g id="node35" class="node"><title>Node16</title>
<a xlink:href="../../dc/dbb/classproject_1_1_unplaced_components_dock.html#a8b27105b4d0e8500f6c177ab8bde0b65" target="_top" xlink:title="project::UnplacedComponents\lDock::setSelectedGenCompInstance">
<polygon fill="white" stroke="black" points="86.5,-197 86.5,-231 265.5,-231 265.5,-197 86.5,-197"/>
<text text-anchor="start" x="94.5" y="-218" font-family="Helvetica,sans-Serif" font-size="10.00">project::UnplacedComponents</text>
<text text-anchor="middle" x="176" y="-205" font-family="Helvetica,sans-Serif" font-size="10.00">Dock::setSelectedGenCompInstance</text>
</a>
</g>
<!-- Node1&#45;&gt;Node16 -->
<g id="edge38" class="edge"><title>Node1&#45;&gt;Node16</title>
<path fill="none" stroke="midnightblue" d="M60.0532,-248.554C77.5448,-243.341 99.1459,-236.904 118.944,-231.003"/>
<polygon fill="midnightblue" stroke="midnightblue" points="58.8579,-245.258 50.274,-251.468 60.8571,-251.966 58.8579,-245.258"/>
</g>
<!-- Node18 -->
<g id="node40" class="node"><title>Node18</title>
<a xlink:href="../../d1/d92/classproject_1_1_add_gen_comp_dialog.html#abf6af5dc67073d848d5cf561412d4b27" target="_top" xlink:title="project::AddGenCompDialog\l::setSelectedGenComp">
<polygon fill="white" stroke="black" points="105.5,-66 105.5,-100 246.5,-100 246.5,-66 105.5,-66"/>
<text text-anchor="start" x="113.5" y="-87" font-family="Helvetica,sans-Serif" font-size="10.00">project::AddGenCompDialog</text>
<text text-anchor="middle" x="176" y="-74" font-family="Helvetica,sans-Serif" font-size="10.00">::setSelectedGenComp</text>
</a>
</g>
<!-- Node1&#45;&gt;Node18 -->
<g id="edge44" class="edge"><title>Node1&#45;&gt;Node18</title>
<path fill="none" stroke="midnightblue" d="M28.2766,-238.008C34.2385,-206.718 49.7665,-147.901 86,-114 91.9131,-108.468 98.8599,-103.917 106.228,-100.176"/>
<polygon fill="midnightblue" stroke="midnightblue" points="24.7704,-237.74 26.4923,-248.194 31.6654,-238.948 24.7704,-237.74"/>
</g>
<!-- Node23 -->
<g id="node50" class="node"><title>Node23</title>
<a xlink:href="../../d4/d07/classproject_1_1_s_e_s___add_components.html#adfd98cfc3245571b0c2b05c7c1c9f3c9" target="_top" xlink:title="project::SES_AddComponents\l::startAddingComponent">
<polygon fill="white" stroke="black" points="101,-14 101,-48 251,-48 251,-14 101,-14"/>
<text text-anchor="start" x="109" y="-35" font-family="Helvetica,sans-Serif" font-size="10.00">project::SES_AddComponents</text>
<text text-anchor="middle" x="176" y="-22" font-family="Helvetica,sans-Serif" font-size="10.00">::startAddingComponent</text>
</a>
</g>
<!-- Node1&#45;&gt;Node23 -->
<g id="edge54" class="edge"><title>Node1&#45;&gt;Node23</title>
<path fill="none" stroke="midnightblue" d="M28.6782,-238.253C37.2614,-192.068 59.8793,-82.808 86,-57 90.3964,-52.6563 95.4706,-49.0292 100.925,-46.0017"/>
<polygon fill="midnightblue" stroke="midnightblue" points="25.1953,-237.844 26.8472,-248.309 32.082,-239.098 25.1953,-237.844"/>
</g>
<!-- Node4 -->
<g id="node7" class="node"><title>Node4</title>
<a xlink:href="../../d5/d07/classproject_1_1_board.html#aeb87054a7c12b9ccee59af89a9abf24f" target="_top" xlink:title="Serialize the object to a XML DOM element. ">
<polygon fill="white" stroke="black" points="327.5,-443 327.5,-477 446.5,-477 446.5,-443 327.5,-443"/>
<text text-anchor="start" x="335.5" y="-464" font-family="Helvetica,sans-Serif" font-size="10.00">project::Board::serialize</text>
<text text-anchor="middle" x="387" y="-451" font-family="Helvetica,sans-Serif" font-size="10.00">ToXmlDomElement</text>
</a>
</g>
<!-- Node3&#45;&gt;Node4 -->
<g id="edge6" class="edge"><title>Node3&#45;&gt;Node4</title>
<path fill="none" stroke="midnightblue" d="M258.13,-460C281.158,-460 305.751,-460 327.215,-460"/>
<polygon fill="midnightblue" stroke="midnightblue" points="258.024,-456.5 248.024,-460 258.024,-463.5 258.024,-456.5"/>
</g>
<!-- Node7 -->
<g id="node13" class="node"><title>Node7</title>
<a xlink:href="../../d1/d03/classproject_1_1_circuit.html#aeb87054a7c12b9ccee59af89a9abf24f" target="_top" xlink:title="Serialize the object to a XML DOM element. ">
<polygon fill="white" stroke="black" points="326,-350 326,-384 448,-384 448,-350 326,-350"/>
<text text-anchor="start" x="334" y="-371" font-family="Helvetica,sans-Serif" font-size="10.00">project::Circuit::serialize</text>
<text text-anchor="middle" x="387" y="-358" font-family="Helvetica,sans-Serif" font-size="10.00">ToXmlDomElement</text>
</a>
</g>
<!-- Node6&#45;&gt;Node7 -->
<g id="edge12" class="edge"><title>Node6&#45;&gt;Node7</title>
<path fill="none" stroke="midnightblue" d="M258.244,-360.288C280.75,-361.461 304.742,-362.712 325.842,-363.812"/>
<polygon fill="midnightblue" stroke="midnightblue" points="258.193,-356.78 248.024,-359.755 257.828,-363.771 258.193,-356.78"/>
</g>
<!-- Node9 -->
<g id="node17" class="node"><title>Node9</title>
<a xlink:href="../../dc/dbb/classproject_1_1_unplaced_components_dock.html#ae18908ab5cceaf70614eaf307a041e8a" target="_top" xlink:title="project::UnplacedComponents\lDock::on_btnAddAll_clicked">
<polygon fill="white" stroke="black" points="523.5,-319 523.5,-353 672.5,-353 672.5,-319 523.5,-319"/>
<text text-anchor="start" x="531.5" y="-340" font-family="Helvetica,sans-Serif" font-size="10.00">project::UnplacedComponents</text>
<text text-anchor="middle" x="598" y="-327" font-family="Helvetica,sans-Serif" font-size="10.00">Dock::on_btnAddAll_clicked</text>
</a>
</g>
<!-- Node8&#45;&gt;Node9 -->
<g id="edge16" class="edge"><title>Node8&#45;&gt;Node9</title>
<path fill="none" stroke="midnightblue" d="M259.157,-310.306C336.062,-316.137 449.334,-324.727 523.388,-330.342"/>
<polygon fill="midnightblue" stroke="midnightblue" points="259.261,-306.804 249.025,-309.537 258.732,-313.784 259.261,-306.804"/>
</g>
<!-- Node8&#45;&gt;Node10 -->
<g id="edge18" class="edge"><title>Node8&#45;&gt;Node10</title>
<path fill="none" stroke="midnightblue" d="M259.411,-293.327C276.938,-291.084 295.317,-288.732 312.493,-286.534"/>
<polygon fill="midnightblue" stroke="midnightblue" points="258.68,-289.891 249.205,-294.632 259.569,-296.835 258.68,-289.891"/>
</g>
<!-- Node10&#45;&gt;Node9 -->
<g id="edge30" class="edge"><title>Node10&#45;&gt;Node9</title>
<path fill="none" stroke="midnightblue" d="M457.725,-296.776C483.459,-303.972 512.3,-312.036 537.107,-318.973"/>
<polygon fill="midnightblue" stroke="midnightblue" points="458.603,-293.388 448.03,-294.065 456.718,-300.129 458.603,-293.388"/>
</g>
<!-- Node11 -->
<g id="node21" class="node"><title>Node11</title>
<a xlink:href="../../dc/dbb/classproject_1_1_unplaced_components_dock.html#a8fbd3c721cf6a7086b09b00746e8c5bd" target="_top" xlink:title="project::UnplacedComponents\lDock::UnplacedComponentsDock">
<polygon fill="white" stroke="black" points="515,-267 515,-301 681,-301 681,-267 515,-267"/>
<text text-anchor="start" x="523" y="-288" font-family="Helvetica,sans-Serif" font-size="10.00">project::UnplacedComponents</text>
<text text-anchor="middle" x="598" y="-275" font-family="Helvetica,sans-Serif" font-size="10.00">Dock::UnplacedComponentsDock</text>
</a>
</g>
<!-- Node10&#45;&gt;Node11 -->
<g id="edge20" class="edge"><title>Node10&#45;&gt;Node11</title>
<path fill="none" stroke="midnightblue" d="M471.881,-279.816C486.027,-280.285 500.687,-280.772 514.79,-281.239"/>
<polygon fill="midnightblue" stroke="midnightblue" points="471.798,-276.311 461.688,-279.478 471.566,-283.308 471.798,-276.311"/>
</g>
<!-- Node12 -->
<g id="node23" class="node"><title>Node12</title>
<a xlink:href="../../dc/dbb/classproject_1_1_unplaced_components_dock.html#a5c8f1dac9d4bbb3d9985ca4d9d3c99bb" target="_top" xlink:title="project::UnplacedComponents\lDock::setBoard">
<polygon fill="white" stroke="black" points="523.5,-215 523.5,-249 672.5,-249 672.5,-215 523.5,-215"/>
<text text-anchor="start" x="531.5" y="-236" font-family="Helvetica,sans-Serif" font-size="10.00">project::UnplacedComponents</text>
<text text-anchor="middle" x="598" y="-223" font-family="Helvetica,sans-Serif" font-size="10.00">Dock::setBoard</text>
</a>
</g>
<!-- Node10&#45;&gt;Node12 -->
<g id="edge22" class="edge"><title>Node10&#45;&gt;Node12</title>
<path fill="none" stroke="midnightblue" d="M471.666,-258.943C488.786,-255.292 506.669,-251.478 523.413,-247.907"/>
<polygon fill="midnightblue" stroke="midnightblue" points="470.738,-255.562 461.688,-261.071 472.198,-262.409 470.738,-255.562"/>
</g>
<!-- Node10&#45;&gt;Node14 -->
<g id="edge26" class="edge"><title>Node10&#45;&gt;Node14</title>
<path fill="none" stroke="midnightblue" d="M464.974,-255.338C467.394,-253.976 469.744,-252.532 472,-251 493.19,-236.613 486.698,-220.221 508,-206 513.005,-202.659 518.443,-199.74 524.085,-197.192"/>
<polygon fill="midnightblue" stroke="midnightblue" points="463.286,-252.269 455.95,-259.914 466.452,-258.513 463.286,-252.269"/>
</g>
<!-- Node10&#45;&gt;Node15 -->
<g id="edge28" class="edge"><title>Node10&#45;&gt;Node15</title>
<path fill="none" stroke="midnightblue" d="M468.511,-254.049C469.713,-253.075 470.877,-252.059 472,-251 505.453,-219.45 474.301,-185.288 508,-154 512.529,-149.795 517.697,-146.265 523.213,-143.303"/>
<polygon fill="midnightblue" stroke="midnightblue" points="466.309,-251.317 460.096,-259.899 470.305,-257.065 466.309,-251.317"/>
</g>
<!-- Node13 -->
<g id="node25" class="node"><title>Node13</title>
<a xlink:href="../../dc/dbb/classproject_1_1_unplaced_components_dock.html#a538074349f49cbac4a031289b9a96e49" target="_top" xlink:title="project::UnplacedComponents\lDock::~UnplacedComponentsDock">
<polygon fill="white" stroke="black" points="724,-215 724,-249 896,-249 896,-215 724,-215"/>
<text text-anchor="start" x="732" y="-236" font-family="Helvetica,sans-Serif" font-size="10.00">project::UnplacedComponents</text>
<text text-anchor="middle" x="810" y="-223" font-family="Helvetica,sans-Serif" font-size="10.00">Dock::~UnplacedComponentsDock</text>
</a>
</g>
<!-- Node12&#45;&gt;Node13 -->
<g id="edge24" class="edge"><title>Node12&#45;&gt;Node13</title>
<path fill="none" stroke="midnightblue" d="M682.964,-232C696.471,-232 710.452,-232 723.983,-232"/>
<polygon fill="midnightblue" stroke="midnightblue" points="682.743,-228.5 672.743,-232 682.743,-235.5 682.743,-228.5"/>
</g>
<!-- Node16&#45;&gt;Node10 -->
<g id="edge42" class="edge"><title>Node16&#45;&gt;Node10</title>
<path fill="none" stroke="midnightblue" d="M242.807,-233.947C270.791,-242.302 302.991,-251.917 329.855,-259.938"/>
<polygon fill="midnightblue" stroke="midnightblue" points="243.683,-230.556 233.1,-231.049 241.68,-237.263 243.683,-230.556"/>
</g>
<!-- Node17 -->
<g id="node37" class="node"><title>Node17</title>
<a xlink:href="../../dc/dbb/classproject_1_1_unplaced_components_dock.html#a16ecdddbb51afe3714d940236b9c6d48" target="_top" xlink:title="project::UnplacedComponents\lDock::on_lstUnplacedComponents\l_currentItemChanged">
<polygon fill="white" stroke="black" points="302.5,-194.5 302.5,-241.5 471.5,-241.5 471.5,-194.5 302.5,-194.5"/>
<text text-anchor="start" x="310.5" y="-228.5" font-family="Helvetica,sans-Serif" font-size="10.00">project::UnplacedComponents</text>
<text text-anchor="start" x="310.5" y="-215.5" font-family="Helvetica,sans-Serif" font-size="10.00">Dock::on_lstUnplacedComponents</text>
<text text-anchor="middle" x="387" y="-202.5" font-family="Helvetica,sans-Serif" font-size="10.00">_currentItemChanged</text>
</a>
</g>
<!-- Node16&#45;&gt;Node17 -->
<g id="edge40" class="edge"><title>Node16&#45;&gt;Node17</title>
<path fill="none" stroke="midnightblue" d="M276.062,-215.897C284.846,-216.063 293.68,-216.231 302.32,-216.395"/>
<polygon fill="midnightblue" stroke="midnightblue" points="275.854,-212.392 265.789,-215.702 275.721,-219.391 275.854,-212.392"/>
</g>
<!-- Node19 -->
<g id="node42" class="node"><title>Node19</title>
<a xlink:href="../../d1/d92/classproject_1_1_add_gen_comp_dialog.html#a5951d1d20ef2d9675b3b1690d6799fa7" target="_top" xlink:title="project::AddGenCompDialog\l::on_listGenericComponents\l_currentItemChanged">
<polygon fill="white" stroke="black" points="316.5,-0.5 316.5,-47.5 457.5,-47.5 457.5,-0.5 316.5,-0.5"/>
<text text-anchor="start" x="324.5" y="-34.5" font-family="Helvetica,sans-Serif" font-size="10.00">project::AddGenCompDialog</text>
<text text-anchor="start" x="324.5" y="-21.5" font-family="Helvetica,sans-Serif" font-size="10.00">::on_listGenericComponents</text>
<text text-anchor="middle" x="387" y="-8.5" font-family="Helvetica,sans-Serif" font-size="10.00">_currentItemChanged</text>
</a>
</g>
<!-- Node18&#45;&gt;Node19 -->
<g id="edge46" class="edge"><title>Node18&#45;&gt;Node19</title>
<path fill="none" stroke="midnightblue" d="M246.817,-63.1981C269.245,-56.9266 294.027,-49.9972 316.438,-43.7307"/>
<polygon fill="midnightblue" stroke="midnightblue" points="245.718,-59.8711 237.03,-65.9348 247.603,-66.6125 245.718,-59.8711"/>
</g>
<!-- Node20 -->
<g id="node44" class="node"><title>Node20</title>
<a xlink:href="../../d1/d92/classproject_1_1_add_gen_comp_dialog.html#ae968bf4d25607bdad3eb848014d999da" target="_top" xlink:title="project::AddGenCompDialog\l::setSelectedCategory">
<polygon fill="white" stroke="black" points="316.5,-66 316.5,-100 457.5,-100 457.5,-66 316.5,-66"/>
<text text-anchor="start" x="324.5" y="-87" font-family="Helvetica,sans-Serif" font-size="10.00">project::AddGenCompDialog</text>
<text text-anchor="middle" x="387" y="-74" font-family="Helvetica,sans-Serif" font-size="10.00">::setSelectedCategory</text>
</a>
</g>
<!-- Node18&#45;&gt;Node20 -->
<g id="edge48" class="edge"><title>Node18&#45;&gt;Node20</title>
<path fill="none" stroke="midnightblue" d="M256.671,-83C276.259,-83 297.058,-83 316.154,-83"/>
<polygon fill="midnightblue" stroke="midnightblue" points="256.553,-79.5001 246.553,-83 256.553,-86.5001 256.553,-79.5001"/>
</g>
<!-- Node21 -->
<g id="node46" class="node"><title>Node21</title>
<a xlink:href="../../d1/d92/classproject_1_1_add_gen_comp_dialog.html#ab30df3fcf42614694068294b48161b00" target="_top" xlink:title="project::AddGenCompDialog\l::treeCategories_currentItemChanged">
<polygon fill="white" stroke="black" points="508,-59 508,-93 688,-93 688,-59 508,-59"/>
<text text-anchor="start" x="516" y="-80" font-family="Helvetica,sans-Serif" font-size="10.00">project::AddGenCompDialog</text>
<text text-anchor="middle" x="598" y="-67" font-family="Helvetica,sans-Serif" font-size="10.00">::treeCategories_currentItemChanged</text>
</a>
</g>
<!-- Node20&#45;&gt;Node21 -->
<g id="edge50" class="edge"><title>Node20&#45;&gt;Node21</title>
<path fill="none" stroke="midnightblue" d="M467.858,-80.3175C480.87,-79.8858 494.411,-79.4366 507.629,-78.9981"/>
<polygon fill="midnightblue" stroke="midnightblue" points="467.432,-76.8296 457.553,-80.6594 467.664,-83.8258 467.432,-76.8296"/>
</g>
<!-- Node22 -->
<g id="node48" class="node"><title>Node22</title>
<a xlink:href="../../d1/d92/classproject_1_1_add_gen_comp_dialog.html#a158bc6ffa6ab14d062e57c57929a197f" target="_top" xlink:title="project::AddGenCompDialog\l::AddGenCompDialog">
<polygon fill="white" stroke="black" points="739.5,-59 739.5,-93 880.5,-93 880.5,-59 739.5,-59"/>
<text text-anchor="start" x="747.5" y="-80" font-family="Helvetica,sans-Serif" font-size="10.00">project::AddGenCompDialog</text>
<text text-anchor="middle" x="810" y="-67" font-family="Helvetica,sans-Serif" font-size="10.00">::AddGenCompDialog</text>
</a>
</g>
<!-- Node21&#45;&gt;Node22 -->
<g id="edge52" class="edge"><title>Node21&#45;&gt;Node22</title>
<path fill="none" stroke="midnightblue" d="M698.302,-76C712.207,-76 726.242,-76 739.448,-76"/>
<polygon fill="midnightblue" stroke="midnightblue" points="698.215,-72.5001 688.214,-76 698.214,-79.5001 698.215,-72.5001"/>
</g>
</g>
</svg>
