<?xml version="1.0" encoding="UTF-8" standalone="no"?>
<!DOCTYPE svg PUBLIC "-//W3C//DTD SVG 1.1//EN"
 "http://www.w3.org/Graphics/SVG/1.1/DTD/svg11.dtd">
<!-- Generated by graphviz version 2.26.3 (20100126.1600)
 -->
<!-- Title: readFromFile Pages: 1 -->
<svg width="380pt" height="122pt"
 viewBox="0.00 0.00 380.00 122.00" xmlns="http://www.w3.org/2000/svg" xmlns:xlink="http://www.w3.org/1999/xlink">
<g id="graph1" class="graph" transform="scale(1 1) rotate(0) translate(4 118)">
<title>readFromFile</title>
<polygon fill="white" stroke="white" points="-4,5 -4,-118 377,-118 377,5 -4,5"/>
<!-- Node1 -->
<g id="node1" class="node"><title>Node1</title>
<polygon fill="#bfbfbf" stroke="black" points="0,-40.5 0,-61.5 74,-61.5 74,-40.5 0,-40.5"/>
<text text-anchor="middle" x="37" y="-48.5" font-family="Helvetica,sans-Serif" font-size="10.00">readFromFile</text>
</g>
<!-- Node2 -->
<g id="node3" class="node"><title>Node2</title>
<a xlink:href="../../da/db0/class_smart_xml_file.html#a6685c26dd2c2668f47d5fae96c4c319f" target="_top" xlink:title="Open and parse the XML file and build the whole DOM tree. ">
<polygon fill="white" stroke="black" points="110.5,-80 110.5,-114 249.5,-114 249.5,-80 110.5,-80"/>
<text text-anchor="start" x="118.5" y="-101" font-family="Helvetica,sans-Serif" font-size="10.00">SmartXmlFile::parseFileAnd</text>
<text text-anchor="middle" x="180" y="-88" font-family="Helvetica,sans-Serif" font-size="10.00">BuildDomTree</text>
</a>
</g>
<!-- Node1&#45;&gt;Node2 -->
<g id="edge2" class="edge"><title>Node1&#45;&gt;Node2</title>
<path fill="none" stroke="midnightblue" d="M69.8071,-61.5533C83.9377,-66.0988 100.954,-71.5725 117.34,-76.8438"/>
<polygon fill="midnightblue" stroke="midnightblue" points="116.298,-80.185 126.889,-79.9155 118.442,-73.5213 116.298,-80.185"/>
</g>
<!-- Node3 -->
<g id="node5" class="node"><title>Node3</title>
<a xlink:href="../../dd/d8a/classlibrary_1_1_library_base_element.html#ad6c2bb438fe200b1224b2d8e05d3eca0" target="_top" xlink:title="parseDomTree">
<polygon fill="white" stroke="black" points="139.5,-40.5 139.5,-61.5 220.5,-61.5 220.5,-40.5 139.5,-40.5"/>
<text text-anchor="middle" x="180" y="-48.5" font-family="Helvetica,sans-Serif" font-size="10.00">parseDomTree</text>
</a>
</g>
<!-- Node1&#45;&gt;Node3 -->
<g id="edge4" class="edge"><title>Node1&#45;&gt;Node3</title>
<path fill="none" stroke="midnightblue" d="M74.1983,-51C91.0175,-51 111.155,-51 129.327,-51"/>
<polygon fill="midnightblue" stroke="midnightblue" points="129.472,-54.5001 139.472,-51 129.472,-47.5001 129.472,-54.5001"/>
</g>
<!-- Node4 -->
<g id="node7" class="node"><title>Node4</title>
<a xlink:href="../../dd/d8a/classlibrary_1_1_library_base_element.html#a524ed0dd8a5522b754411728dfe5c752" target="_top" xlink:title="Check the validity of all attributes of the object. ">
<polygon fill="white" stroke="black" points="121.5,-0.5 121.5,-21.5 238.5,-21.5 238.5,-0.5 121.5,-0.5"/>
<text text-anchor="middle" x="180" y="-8.5" font-family="Helvetica,sans-Serif" font-size="10.00">checkAttributesValidity</text>
</a>
</g>
<!-- Node1&#45;&gt;Node4 -->
<g id="edge6" class="edge"><title>Node1&#45;&gt;Node4</title>
<path fill="none" stroke="midnightblue" d="M74.1983,-40.5949C91.9568,-35.6275 113.415,-29.6251 132.352,-24.328"/>
<polygon fill="midnightblue" stroke="midnightblue" points="133.305,-27.696 141.993,-21.6315 131.419,-20.9547 133.305,-27.696"/>
</g>
<!-- Node5 -->
<g id="node9" class="node"><title>Node5</title>
<a xlink:href="../../de/d34/class_version.html#a0a886a9edf5bf682f5245159661bfc94" target="_top" xlink:title="Check if the object represents a valid version number. ">
<polygon fill="white" stroke="black" points="286.5,-0.5 286.5,-21.5 371.5,-21.5 371.5,-0.5 286.5,-0.5"/>
<text text-anchor="middle" x="329" y="-8.5" font-family="Helvetica,sans-Serif" font-size="10.00">Version::isValid</text>
</a>
</g>
<!-- Node4&#45;&gt;Node5 -->
<g id="edge8" class="edge"><title>Node4&#45;&gt;Node5</title>
<path fill="none" stroke="midnightblue" d="M238.889,-11C251.094,-11 263.885,-11 275.87,-11"/>
<polygon fill="midnightblue" stroke="midnightblue" points="276.159,-14.5001 286.159,-11 276.159,-7.5001 276.159,-14.5001"/>
</g>
</g>
</svg>
