<?xml version="1.0" encoding="UTF-8" standalone="no"?>
<!DOCTYPE svg PUBLIC "-//W3C//DTD SVG 1.1//EN"
 "http://www.w3.org/Graphics/SVG/1.1/DTD/svg11.dtd">
<!-- Generated by graphviz version 2.26.3 (20100126.1600)
 -->
<!-- Title: getVersion Pages: 1 -->
<svg width="630pt" height="122pt"
 viewBox="0.00 0.00 630.00 122.00" xmlns="http://www.w3.org/2000/svg" xmlns:xlink="http://www.w3.org/1999/xlink">
<g id="graph1" class="graph" transform="scale(1 1) rotate(0) translate(4 118)">
<title>getVersion</title>
<polygon fill="white" stroke="white" points="-4,5 -4,-118 627,-118 627,5 -4,5"/>
<!-- Node1 -->
<g id="node1" class="node"><title>Node1</title>
<polygon fill="#bfbfbf" stroke="black" points="0.5,-52.5 0.5,-73.5 63.5,-73.5 63.5,-52.5 0.5,-52.5"/>
<text text-anchor="middle" x="32" y="-60.5" font-family="Helvetica,sans-Serif" font-size="10.00">getVersion</text>
</g>
<!-- Node2 -->
<g id="node3" class="node"><title>Node2</title>
<a xlink:href="../../de/d02/classlibrary_1_1_library.html#aec23f71851cecc7466fbd5e10bd48fae" target="_top" xlink:title="library::Library::addPackagesToDb">
<polygon fill="white" stroke="black" points="106.5,-92.5 106.5,-113.5 273.5,-113.5 273.5,-92.5 106.5,-92.5"/>
<text text-anchor="middle" x="190" y="-100.5" font-family="Helvetica,sans-Serif" font-size="10.00">library::Library::addPackagesToDb</text>
</a>
</g>
<!-- Node1&#45;&gt;Node2 -->
<g id="edge2" class="edge"><title>Node1&#45;&gt;Node2</title>
<path fill="none" stroke="midnightblue" d="M73.3549,-75.6463C82.1217,-78.1913 91.3424,-80.7676 100,-83 112.864,-86.3172 126.848,-89.5857 139.872,-92.4885"/>
<polygon fill="midnightblue" stroke="midnightblue" points="74.2853,-72.2717 63.7039,-72.806 72.309,-78.9869 74.2853,-72.2717"/>
</g>
<!-- Node5 -->
<g id="node9" class="node"><title>Node5</title>
<a xlink:href="../../de/d02/classlibrary_1_1_library.html#a1dea3b622e340b2b8685735b15878ed1" target="_top" xlink:title="library::Library::addComponentsToDb">
<polygon fill="white" stroke="black" points="100.5,-52.5 100.5,-73.5 279.5,-73.5 279.5,-52.5 100.5,-52.5"/>
<text text-anchor="middle" x="190" y="-60.5" font-family="Helvetica,sans-Serif" font-size="10.00">library::Library::addComponentsToDb</text>
</a>
</g>
<!-- Node1&#45;&gt;Node5 -->
<g id="edge8" class="edge"><title>Node1&#45;&gt;Node5</title>
<path fill="none" stroke="midnightblue" d="M73.6766,-63C81.9678,-63 90.9711,-63 100.174,-63"/>
<polygon fill="midnightblue" stroke="midnightblue" points="73.594,-59.5001 63.5939,-63 73.5939,-66.5001 73.594,-59.5001"/>
</g>
<!-- Node6 -->
<g id="node12" class="node"><title>Node6</title>
<a xlink:href="../../d4/d07/classproject_1_1_s_e_s___add_components.html#adfd98cfc3245571b0c2b05c7c1c9f3c9" target="_top" xlink:title="project::SES_AddComponents\l::startAddingComponent">
<polygon fill="white" stroke="black" points="115,-0 115,-34 265,-34 265,-0 115,-0"/>
<text text-anchor="start" x="123" y="-21" font-family="Helvetica,sans-Serif" font-size="10.00">project::SES_AddComponents</text>
<text text-anchor="middle" x="190" y="-8" font-family="Helvetica,sans-Serif" font-size="10.00">::startAddingComponent</text>
</a>
</g>
<!-- Node1&#45;&gt;Node6 -->
<g id="edge12" class="edge"><title>Node1&#45;&gt;Node6</title>
<path fill="none" stroke="midnightblue" d="M73.4688,-50.7687C82.2278,-48.195 91.4165,-45.5021 100,-43 109.993,-40.087 120.615,-37.0055 130.926,-34.0219"/>
<polygon fill="midnightblue" stroke="midnightblue" points="72.4234,-47.4279 63.8175,-53.6075 74.3987,-54.1434 72.4234,-47.4279"/>
</g>
<!-- Node3 -->
<g id="node5" class="node"><title>Node3</title>
<a xlink:href="../../de/d02/classlibrary_1_1_library.html#abf6f5a1b41bdc95e7b0602fbab2219a7" target="_top" xlink:title="Rescan the whole library directory and update the SQLite database. ">
<polygon fill="white" stroke="black" points="316.5,-72.5 316.5,-93.5 429.5,-93.5 429.5,-72.5 316.5,-72.5"/>
<text text-anchor="middle" x="373" y="-80.5" font-family="Helvetica,sans-Serif" font-size="10.00">library::Library::rescan</text>
</a>
</g>
<!-- Node2&#45;&gt;Node3 -->
<g id="edge4" class="edge"><title>Node2&#45;&gt;Node3</title>
<path fill="none" stroke="midnightblue" d="M283.883,-92.7396C294.94,-91.5312 305.95,-90.3279 316.267,-89.2003"/>
<polygon fill="midnightblue" stroke="midnightblue" points="283.295,-89.2829 273.734,-93.8487 284.055,-96.2415 283.295,-89.2829"/>
</g>
<!-- Node4 -->
<g id="node7" class="node"><title>Node4</title>
<a xlink:href="../../d1/def/class_control_panel.html#a65617210fcf4b06dcce361e933bbb994" target="_top" xlink:title="ControlPanel::on_actionRescan\lLibrary_triggered">
<polygon fill="white" stroke="black" points="466.5,-66 466.5,-100 621.5,-100 621.5,-66 466.5,-66"/>
<text text-anchor="start" x="474.5" y="-87" font-family="Helvetica,sans-Serif" font-size="10.00">ControlPanel::on_actionRescan</text>
<text text-anchor="middle" x="544" y="-74" font-family="Helvetica,sans-Serif" font-size="10.00">Library_triggered</text>
</a>
</g>
<!-- Node3&#45;&gt;Node4 -->
<g id="edge6" class="edge"><title>Node3&#45;&gt;Node4</title>
<path fill="none" stroke="midnightblue" d="M439.945,-83C448.591,-83 457.502,-83 466.302,-83"/>
<polygon fill="midnightblue" stroke="midnightblue" points="439.941,-79.5001 429.941,-83 439.94,-86.5001 439.941,-79.5001"/>
</g>
<!-- Node5&#45;&gt;Node3 -->
<g id="edge10" class="edge"><title>Node5&#45;&gt;Node3</title>
<path fill="none" stroke="midnightblue" d="M289.575,-73.8825C298.722,-74.8822 307.762,-75.8701 316.323,-76.8057"/>
<polygon fill="midnightblue" stroke="midnightblue" points="289.945,-70.4022 279.624,-72.7949 289.184,-77.3607 289.945,-70.4022"/>
</g>
</g>
</svg>
