<?xml version="1.0" encoding="UTF-8" standalone="no"?>
<!DOCTYPE svg PUBLIC "-//W3C//DTD SVG 1.1//EN"
 "http://www.w3.org/Graphics/SVG/1.1/DTD/svg11.dtd">
<!-- Generated by graphviz version 2.26.3 (20100126.1600)
 -->
<!-- Title: /home/travis/build/LibrePCB/LibrePCB/libs/librepcbproject/boards/items/bi_base.cpp Pages: 1 -->
<svg width="327pt" height="432pt"
 viewBox="0.00 0.00 327.00 432.00" xmlns="http://www.w3.org/2000/svg" xmlns:xlink="http://www.w3.org/1999/xlink">
<g id="graph1" class="graph" transform="scale(1 1) rotate(0) translate(4 428)">
<title>/home/travis/build/LibrePCB/LibrePCB/libs/librepcbproject/boards/items/bi_base.cpp</title>
<polygon fill="white" stroke="white" points="-4,5 -4,-428 324,-428 324,5 -4,5"/>
<!-- Node1 -->
<g id="node1" class="node"><title>Node1</title>
<polygon fill="#bfbfbf" stroke="black" points="-0.5,-363 -0.5,-423 124.5,-423 124.5,-363 -0.5,-363"/>
<text text-anchor="start" x="7.5" y="-410" font-family="Helvetica,sans-Serif" font-size="10.00">/home/travis/build</text>
<text text-anchor="start" x="7.5" y="-397" font-family="Helvetica,sans-Serif" font-size="10.00">/LibrePCB/LibrePCB/libs</text>
<text text-anchor="start" x="7.5" y="-384" font-family="Helvetica,sans-Serif" font-size="10.00">/librepcbproject/boards</text>
<text text-anchor="middle" x="62" y="-371" font-family="Helvetica,sans-Serif" font-size="10.00">/items/bi_base.cpp</text>
</g>
<!-- Node2 -->
<g id="node3" class="node"><title>Node2</title>
<polygon fill="white" stroke="#bfbfbf" points="105,-0.5 105,-21.5 153,-21.5 153,-0.5 105,-0.5"/>
<text text-anchor="middle" x="129" y="-8.5" font-family="Helvetica,sans-Serif" font-size="10.00">QtCore</text>
</g>
<!-- Node1&#45;&gt;Node2 -->
<g id="edge2" class="edge"><title>Node1&#45;&gt;Node2</title>
<path fill="none" stroke="midnightblue" d="M45.9567,-362.976C32.3412,-334.668 15,-290.637 15,-250 15,-250 15,-250 15,-127 15,-80.0264 63.1415,-45.1175 96.8558,-26.4297"/>
<polygon fill="midnightblue" stroke="midnightblue" points="98.7523,-29.385 105.93,-21.5923 95.4594,-23.2078 98.7523,-29.385"/>
</g>
<!-- Node3 -->
<g id="node5" class="node"><title>Node3</title>
<a xlink:href="../../de/df6/bi__base_8h.html" target="_top" xlink:title="bi_base.h">
<polygon fill="white" stroke="black" points="79.5,-304.5 79.5,-325.5 138.5,-325.5 138.5,-304.5 79.5,-304.5"/>
<text text-anchor="middle" x="109" y="-312.5" font-family="Helvetica,sans-Serif" font-size="10.00">bi_base.h</text>
</a>
</g>
<!-- Node1&#45;&gt;Node3 -->
<g id="edge4" class="edge"><title>Node1&#45;&gt;Node3</title>
<path fill="none" stroke="midnightblue" d="M80.306,-362.62C85.9991,-353.172 92.1202,-343.013 97.2406,-334.516"/>
<polygon fill="midnightblue" stroke="midnightblue" points="100.357,-336.125 102.52,-325.753 94.3614,-332.512 100.357,-336.125"/>
</g>
<!-- Node3&#45;&gt;Node2 -->
<g id="edge6" class="edge"><title>Node3&#45;&gt;Node2</title>
<path fill="none" stroke="midnightblue" d="M100.737,-304.207C85.1597,-282.749 53,-232.674 53,-185 53,-185 53,-185 53,-127 53,-86.5104 85.7975,-49.1585 108.302,-28.2949"/>
<polygon fill="midnightblue" stroke="midnightblue" points="110.64,-30.8993 115.762,-21.6247 105.974,-25.681 110.64,-30.8993"/>
</g>
<!-- Node4 -->
<g id="node8" class="node"><title>Node4</title>
<polygon fill="white" stroke="#bfbfbf" points="219.5,-239.5 219.5,-260.5 282.5,-260.5 282.5,-239.5 219.5,-239.5"/>
<text text-anchor="middle" x="251" y="-247.5" font-family="Helvetica,sans-Serif" font-size="10.00">QtWidgets</text>
</g>
<!-- Node3&#45;&gt;Node4 -->
<g id="edge8" class="edge"><title>Node3&#45;&gt;Node4</title>
<path fill="none" stroke="midnightblue" d="M132.131,-304.412C155.648,-293.647 192.282,-276.878 218.666,-264.801"/>
<polygon fill="midnightblue" stroke="midnightblue" points="220.243,-267.928 227.879,-260.584 217.33,-261.563 220.243,-267.928"/>
</g>
<!-- Node5 -->
<g id="node10" class="node"><title>Node5</title>
<a xlink:href="../../d1/da8/all__length__units_8h.html" target="_top" xlink:title="librepcbcommon/units\l/all_length_units.h">
<polygon fill="white" stroke="black" points="90,-233 90,-267 202,-267 202,-233 90,-233"/>
<text text-anchor="start" x="98" y="-254" font-family="Helvetica,sans-Serif" font-size="10.00">librepcbcommon/units</text>
<text text-anchor="middle" x="146" y="-241" font-family="Helvetica,sans-Serif" font-size="10.00">/all_length_units.h</text>
</a>
</g>
<!-- Node3&#45;&gt;Node5 -->
<g id="edge10" class="edge"><title>Node3&#45;&gt;Node5</title>
<path fill="none" stroke="midnightblue" d="M115.11,-304.267C119.51,-296.537 125.641,-285.766 131.282,-275.857"/>
<polygon fill="midnightblue" stroke="midnightblue" points="134.355,-277.532 136.261,-267.11 128.272,-274.069 134.355,-277.532"/>
</g>
<!-- Node6 -->
<g id="node12" class="node"><title>Node6</title>
<a xlink:href="../../d0/d09/lengthunit_8h.html" target="_top" xlink:title="lengthunit.h">
<polygon fill="white" stroke="black" points="252.5,-116.5 252.5,-137.5 319.5,-137.5 319.5,-116.5 252.5,-116.5"/>
<text text-anchor="middle" x="286" y="-124.5" font-family="Helvetica,sans-Serif" font-size="10.00">lengthunit.h</text>
</a>
</g>
<!-- Node5&#45;&gt;Node6 -->
<g id="edge12" class="edge"><title>Node5&#45;&gt;Node6</title>
<path fill="none" stroke="midnightblue" d="M165.466,-232.897C192.021,-209.567 239.351,-167.984 266.12,-144.466"/>
<polygon fill="midnightblue" stroke="midnightblue" points="268.519,-147.017 273.722,-137.787 263.899,-141.758 268.519,-147.017"/>
</g>
<!-- Node8 -->
<g id="node18" class="node"><title>Node8</title>
<a xlink:href="../../dd/db9/length_8h.html" target="_top" xlink:title="length.h">
<polygon fill="white" stroke="black" points="118.5,-116.5 118.5,-137.5 169.5,-137.5 169.5,-116.5 118.5,-116.5"/>
<text text-anchor="middle" x="144" y="-124.5" font-family="Helvetica,sans-Serif" font-size="10.00">length.h</text>
</a>
</g>
<!-- Node5&#45;&gt;Node8 -->
<g id="edge20" class="edge"><title>Node5&#45;&gt;Node8</title>
<path fill="none" stroke="midnightblue" d="M145.722,-232.897C145.361,-210.673 144.73,-171.886 144.34,-147.929"/>
<polygon fill="midnightblue" stroke="midnightblue" points="147.838,-147.729 144.175,-137.787 140.839,-147.843 147.838,-147.729"/>
</g>
<!-- Node9 -->
<g id="node22" class="node"><title>Node9</title>
<a xlink:href="../../d2/d91/point_8h.html" target="_top" xlink:title="point.h">
<polygon fill="white" stroke="black" points="81,-174.5 81,-195.5 127,-195.5 127,-174.5 81,-174.5"/>
<text text-anchor="middle" x="104" y="-182.5" font-family="Helvetica,sans-Serif" font-size="10.00">point.h</text>
</a>
</g>
<!-- Node5&#45;&gt;Node9 -->
<g id="edge26" class="edge"><title>Node5&#45;&gt;Node9</title>
<path fill="none" stroke="midnightblue" d="M134.965,-232.922C129.278,-224.12 122.321,-213.354 116.443,-204.258"/>
<polygon fill="midnightblue" stroke="midnightblue" points="119.379,-202.352 111.012,-195.852 113.5,-206.151 119.379,-202.352"/>
</g>
<!-- Node10 -->
<g id="node26" class="node"><title>Node10</title>
<a xlink:href="../../da/dac/angle_8h.html" target="_top" xlink:title="angle.h">
<polygon fill="white" stroke="black" points="187,-116.5 187,-137.5 235,-137.5 235,-116.5 187,-116.5"/>
<text text-anchor="middle" x="211" y="-124.5" font-family="Helvetica,sans-Serif" font-size="10.00">angle.h</text>
</a>
</g>
<!-- Node5&#45;&gt;Node10 -->
<g id="edge32" class="edge"><title>Node5&#45;&gt;Node10</title>
<path fill="none" stroke="midnightblue" d="M155.038,-232.897C166.995,-210.271 188.024,-170.477 200.619,-146.643"/>
<polygon fill="midnightblue" stroke="midnightblue" points="203.721,-148.264 205.299,-137.787 197.532,-144.994 203.721,-148.264"/>
</g>
<!-- Node6&#45;&gt;Node2 -->
<g id="edge14" class="edge"><title>Node6&#45;&gt;Node2</title>
<path fill="none" stroke="midnightblue" d="M289.164,-116.407C292.862,-101.686 296.955,-74.9473 284,-58 269.28,-38.7441 204.097,-24.109 163.09,-16.6034"/>
<polygon fill="midnightblue" stroke="midnightblue" points="163.689,-13.1551 153.231,-14.8503 162.464,-20.047 163.689,-13.1551"/>
</g>
<!-- Node7 -->
<g id="node15" class="node"><title>Node7</title>
<a xlink:href="../../d4/d03/exceptions_8h.html" target="_top" xlink:title="../exceptions.h">
<polygon fill="white" stroke="black" points="194.5,-58.5 194.5,-79.5 275.5,-79.5 275.5,-58.5 194.5,-58.5"/>
<text text-anchor="middle" x="235" y="-66.5" font-family="Helvetica,sans-Serif" font-size="10.00">../exceptions.h</text>
</a>
</g>
<!-- Node6&#45;&gt;Node7 -->
<g id="edge16" class="edge"><title>Node6&#45;&gt;Node7</title>
<path fill="none" stroke="midnightblue" d="M276.646,-116.362C269.457,-108.186 259.359,-96.7025 250.907,-87.0907"/>
<polygon fill="midnightblue" stroke="midnightblue" points="253.527,-84.7692 244.295,-79.5707 248.27,-89.3916 253.527,-84.7692"/>
</g>
<!-- Node7&#45;&gt;Node2 -->
<g id="edge18" class="edge"><title>Node7&#45;&gt;Node2</title>
<path fill="none" stroke="midnightblue" d="M215.558,-58.3619C199.196,-49.4094 175.587,-36.4908 157.157,-26.4064"/>
<polygon fill="midnightblue" stroke="midnightblue" points="158.771,-23.3004 148.319,-21.5707 155.411,-29.4412 158.771,-23.3004"/>
</g>
<!-- Node8&#45;&gt;Node2 -->
<g id="edge22" class="edge"><title>Node8&#45;&gt;Node2</title>
<path fill="none" stroke="midnightblue" d="M142.616,-116.295C140.138,-97.1314 134.904,-56.654 131.695,-31.8434"/>
<polygon fill="midnightblue" stroke="midnightblue" points="135.135,-31.1478 130.381,-21.6792 128.192,-32.0455 135.135,-31.1478"/>
</g>
<!-- Node8&#45;&gt;Node7 -->
<g id="edge24" class="edge"><title>Node8&#45;&gt;Node7</title>
<path fill="none" stroke="midnightblue" d="M160.691,-116.362C174.416,-107.614 194.084,-95.0786 209.737,-85.1015"/>
<polygon fill="midnightblue" stroke="midnightblue" points="211.863,-87.8969 218.415,-79.5707 208.101,-81.994 211.863,-87.8969"/>
</g>
<!-- Node9&#45;&gt;Node2 -->
<g id="edge28" class="edge"><title>Node9&#45;&gt;Node2</title>
<path fill="none" stroke="midnightblue" d="M104.629,-174.21C105.493,-160.601 107.26,-136.5 110,-116 113.932,-86.5829 120.384,-52.8629 124.662,-31.7464"/>
<polygon fill="midnightblue" stroke="midnightblue" points="128.145,-32.1804 126.73,-21.6805 121.289,-30.7712 128.145,-32.1804"/>
</g>
<!-- Node9&#45;&gt;Node8 -->
<g id="edge30" class="edge"><title>Node9&#45;&gt;Node8</title>
<path fill="none" stroke="midnightblue" d="M111.337,-174.362C116.806,-166.431 124.422,-155.389 130.924,-145.961"/>
<polygon fill="midnightblue" stroke="midnightblue" points="133.914,-147.79 136.71,-137.571 128.151,-143.816 133.914,-147.79"/>
</g>
<!-- Node10&#45;&gt;Node2 -->
<g id="edge34" class="edge"><title>Node10&#45;&gt;Node2</title>
<path fill="none" stroke="midnightblue" d="M203.433,-116.295C189.52,-96.6135 159.715,-54.4504 142.337,-29.8668"/>
<polygon fill="midnightblue" stroke="midnightblue" points="145.18,-27.8247 136.549,-21.6792 139.463,-31.8653 145.18,-27.8247"/>
</g>
<!-- Node10&#45;&gt;Node7 -->
<g id="edge36" class="edge"><title>Node10&#45;&gt;Node7</title>
<path fill="none" stroke="midnightblue" d="M215.402,-116.362C218.582,-108.677 222.972,-98.0686 226.79,-88.8399"/>
<polygon fill="midnightblue" stroke="midnightblue" points="230.036,-90.1491 230.626,-79.5707 223.568,-87.4726 230.036,-90.1491"/>
</g>
</g>
</svg>
