<?xml version="1.0" encoding="UTF-8" standalone="no"?>
<!DOCTYPE svg PUBLIC "-//W3C//DTD SVG 1.1//EN"
 "http://www.w3.org/Graphics/SVG/1.1/DTD/svg11.dtd">
<!-- Generated by graphviz version 2.26.3 (20100126.1600)
 -->
<!-- Title: /home/travis/build/LibrePCB/LibrePCB/libs/librepcbproject/schematics/schematiclayerprovider.cpp Pages: 1 -->
<svg width="556pt" height="244pt"
 viewBox="0.00 0.00 555.89 244.00" xmlns="http://www.w3.org/2000/svg" xmlns:xlink="http://www.w3.org/1999/xlink">
<g id="graph1" class="graph" transform="scale(1 1) rotate(0) translate(4 240)">
<title>/home/travis/build/LibrePCB/LibrePCB/libs/librepcbproject/schematics/schematiclayerprovider.cpp</title>
<polygon fill="white" stroke="white" points="-4,5 -4,-240 552.89,-240 552.89,5 -4,5"/>
<!-- Node1 -->
<g id="node1" class="node"><title>Node1</title>
<polygon fill="#bfbfbf" stroke="black" points="24.3904,-175 24.3904,-235 163.39,-235 163.39,-175 24.3904,-175"/>
<text text-anchor="start" x="32.3904" y="-222" font-family="Helvetica,sans-Serif" font-size="10.00">/home/travis/build</text>
<text text-anchor="start" x="32.3904" y="-209" font-family="Helvetica,sans-Serif" font-size="10.00">/LibrePCB/LibrePCB/libs</text>
<text text-anchor="start" x="32.3904" y="-196" font-family="Helvetica,sans-Serif" font-size="10.00">/librepcbproject/schematics</text>
<text text-anchor="middle" x="93.8904" y="-183" font-family="Helvetica,sans-Serif" font-size="10.00">/schematiclayerprovider.cpp</text>
</g>
<!-- Node2 -->
<g id="node3" class="node"><title>Node2</title>
<polygon fill="white" stroke="#bfbfbf" points="121.89,-0.5 121.89,-21.5 169.89,-21.5 169.89,-0.5 121.89,-0.5"/>
<text text-anchor="middle" x="145.89" y="-8.5" font-family="Helvetica,sans-Serif" font-size="10.00">QtCore</text>
</g>
<!-- Node1&#45;&gt;Node2 -->
<g id="edge2" class="edge"><title>Node1&#45;&gt;Node2</title>
<path fill="none" stroke="midnightblue" d="M35.9226,-174.824C22.679,-164.976 10.3256,-152.707 2.89045,-138 -1.52096,-129.274 0.15147,-125.386 2.89045,-116 11.4556,-86.6478 16.7055,-77.9342 39.8904,-58 60.805,-40.0179 89.6964,-27.8209 112.035,-20.3676"/>
<polygon fill="midnightblue" stroke="midnightblue" points="113.312,-23.6343 121.785,-17.2732 111.195,-16.9622 113.312,-23.6343"/>
</g>
<!-- Node3 -->
<g id="node5" class="node"><title>Node3</title>
<a xlink:href="../../d7/da2/schematiclayer_8h.html" target="_top" xlink:title="librepcbcommon/schematiclayer.h">
<polygon fill="white" stroke="black" points="11.3904,-116.5 11.3904,-137.5 176.39,-137.5 176.39,-116.5 11.3904,-116.5"/>
<text text-anchor="middle" x="93.8904" y="-124.5" font-family="Helvetica,sans-Serif" font-size="10.00">librepcbcommon/schematiclayer.h</text>
</a>
</g>
<!-- Node1&#45;&gt;Node3 -->
<g id="edge4" class="edge"><title>Node1&#45;&gt;Node3</title>
<path fill="none" stroke="midnightblue" d="M93.8904,-174.62C93.8904,-165.68 93.8904,-156.103 93.8904,-147.9"/>
<polygon fill="midnightblue" stroke="midnightblue" points="97.3905,-147.753 93.8904,-137.753 90.3905,-147.753 97.3905,-147.753"/>
</g>
<!-- Node5 -->
<g id="node10" class="node"><title>Node5</title>
<a xlink:href="../../d2/dbf/schematiclayerprovider_8h.html" target="_top" xlink:title="schematiclayerprovider.h">
<polygon fill="white" stroke="black" points="204.39,-116.5 204.39,-137.5 329.39,-137.5 329.39,-116.5 204.39,-116.5"/>
<text text-anchor="middle" x="266.89" y="-124.5" font-family="Helvetica,sans-Serif" font-size="10.00">schematiclayerprovider.h</text>
</a>
</g>
<!-- Node1&#45;&gt;Node5 -->
<g id="edge10" class="edge"><title>Node1&#45;&gt;Node5</title>
<path fill="none" stroke="midnightblue" d="M160.777,-174.843C185.894,-163.519 213.341,-151.144 234.026,-141.817"/>
<polygon fill="midnightblue" stroke="midnightblue" points="235.632,-144.933 243.31,-137.632 232.755,-138.551 235.632,-144.933"/>
</g>
<!-- Node3&#45;&gt;Node2 -->
<g id="edge6" class="edge"><title>Node3&#45;&gt;Node2</title>
<path fill="none" stroke="midnightblue" d="M77.7273,-116.395C59.3643,-102.976 33.5683,-79.0719 46.8904,-58 61.0856,-35.5473 89.2437,-23.6054 111.912,-17.3879"/>
<polygon fill="midnightblue" stroke="midnightblue" points="113.009,-20.7221 121.872,-14.9169 111.323,-13.9281 113.009,-20.7221"/>
</g>
<!-- Node4 -->
<g id="node8" class="node"><title>Node4</title>
<polygon fill="white" stroke="#bfbfbf" points="55.3904,-58.5 55.3904,-79.5 118.39,-79.5 118.39,-58.5 55.3904,-58.5"/>
<text text-anchor="middle" x="86.8904" y="-66.5" font-family="Helvetica,sans-Serif" font-size="10.00">QtWidgets</text>
</g>
<!-- Node3&#45;&gt;Node4 -->
<g id="edge8" class="edge"><title>Node3&#45;&gt;Node4</title>
<path fill="none" stroke="midnightblue" d="M92.6065,-116.362C91.7086,-108.922 90.4801,-98.7427 89.3921,-89.7276"/>
<polygon fill="midnightblue" stroke="midnightblue" points="92.8393,-89.0792 88.1662,-79.5707 85.8897,-89.918 92.8393,-89.0792"/>
</g>
<!-- Node5&#45;&gt;Node2 -->
<g id="edge12" class="edge"><title>Node5&#45;&gt;Node2</title>
<path fill="none" stroke="midnightblue" d="M224.192,-116.491C203.586,-109.374 180.095,-97.9114 164.89,-80 153.485,-66.5642 148.885,-46.8343 147.051,-31.9098"/>
<polygon fill="midnightblue" stroke="midnightblue" points="150.507,-31.2619 146.121,-21.6176 143.536,-31.8921 150.507,-31.2619"/>
</g>
<!-- Node6 -->
<g id="node13" class="node"><title>Node6</title>
<a xlink:href="../../d4/d45/if__schematiclayerprovider_8h.html" target="_top" xlink:title="librepcbcommon/if_schematiclayerprovider.h">
<polygon fill="white" stroke="black" points="173.89,-58.5 173.89,-79.5 383.89,-79.5 383.89,-58.5 173.89,-58.5"/>
<text text-anchor="middle" x="278.89" y="-66.5" font-family="Helvetica,sans-Serif" font-size="10.00">librepcbcommon/if_schematiclayerprovider.h</text>
</a>
</g>
<!-- Node5&#45;&gt;Node6 -->
<g id="edge14" class="edge"><title>Node5&#45;&gt;Node6</title>
<path fill="none" stroke="midnightblue" d="M269.091,-116.362C270.648,-108.84 272.783,-98.5187 274.663,-89.4308"/>
<polygon fill="midnightblue" stroke="midnightblue" points="278.105,-90.0724 276.703,-79.5707 271.25,-88.6541 278.105,-90.0724"/>
</g>
<!-- Node7 -->
<g id="node16" class="node"><title>Node7</title>
<a xlink:href="../../d4/d03/exceptions_8h.html" target="_top" xlink:title="librepcbcommon/exceptions.h">
<polygon fill="white" stroke="black" points="401.89,-58.5 401.89,-79.5 547.89,-79.5 547.89,-58.5 401.89,-58.5"/>
<text text-anchor="middle" x="474.89" y="-66.5" font-family="Helvetica,sans-Serif" font-size="10.00">librepcbcommon/exceptions.h</text>
</a>
</g>
<!-- Node5&#45;&gt;Node7 -->
<g id="edge18" class="edge"><title>Node5&#45;&gt;Node7</title>
<path fill="none" stroke="midnightblue" d="M304.558,-116.497C338.908,-106.918 389.827,-92.7196 427.044,-82.3418"/>
<polygon fill="midnightblue" stroke="midnightblue" points="428.46,-85.5805 437.153,-79.5231 426.58,-78.8377 428.46,-85.5805"/>
</g>
<!-- Node6&#45;&gt;Node2 -->
<g id="edge16" class="edge"><title>Node6&#45;&gt;Node2</title>
<path fill="none" stroke="midnightblue" d="M254.805,-58.4966C233.752,-49.3154 202.963,-35.8889 179.488,-25.6516"/>
<polygon fill="midnightblue" stroke="midnightblue" points="180.811,-22.4104 170.246,-21.6212 178.013,-28.8268 180.811,-22.4104"/>
</g>
<!-- Node7&#45;&gt;Node2 -->
<g id="edge20" class="edge"><title>Node7&#45;&gt;Node2</title>
<path fill="none" stroke="midnightblue" d="M415.311,-58.4966C346.596,-46.3828 235.961,-26.8787 180.267,-17.0602"/>
<polygon fill="midnightblue" stroke="midnightblue" points="180.665,-13.5765 170.209,-15.2871 179.449,-20.4702 180.665,-13.5765"/>
</g>
</g>
</svg>
