<?xml version="1.0" encoding="UTF-8" standalone="no"?>
<!DOCTYPE svg PUBLIC "-//W3C//DTD SVG 1.1//EN"
 "http://www.w3.org/Graphics/SVG/1.1/DTD/svg11.dtd">
<!-- Generated by graphviz version 2.26.3 (20100126.1600)
 -->
<!-- Title: schematicOrGenCompAttributesChanged Pages: 1 -->
<svg width="866pt" height="946pt"
 viewBox="0.00 0.00 866.00 946.00" xmlns="http://www.w3.org/2000/svg" xmlns:xlink="http://www.w3.org/1999/xlink">
<g id="graph1" class="graph" transform="scale(1 1) rotate(0) translate(4 942)">
<title>schematicOrGenCompAttributesChanged</title>
<polygon fill="white" stroke="white" points="-4,5 -4,-942 863,-942 863,5 -4,5"/>
<!-- Node1 -->
<g id="node1" class="node"><title>Node1</title>
<polygon fill="#bfbfbf" stroke="black" points="0,-394 0,-428 158,-428 158,-394 0,-394"/>
<text text-anchor="start" x="8" y="-415" font-family="Helvetica,sans-Serif" font-size="10.00">schematicOrGenCompAttributes</text>
<text text-anchor="middle" x="79" y="-402" font-family="Helvetica,sans-Serif" font-size="10.00">Changed</text>
</g>
<!-- Node2 -->
<g id="node3" class="node"><title>Node2</title>
<a xlink:href="../../dd/d00/classproject_1_1_s_g_i___symbol.html#abbb5db1b700a86caa85ff4c0c13142f2" target="_top" xlink:title="project::SGI_Symbol\l::updateCacheAndRepaint">
<polygon fill="white" stroke="black" points="194.5,-394 194.5,-428 325.5,-428 325.5,-394 194.5,-394"/>
<text text-anchor="start" x="202.5" y="-415" font-family="Helvetica,sans-Serif" font-size="10.00">project::SGI_Symbol</text>
<text text-anchor="middle" x="260" y="-402" font-family="Helvetica,sans-Serif" font-size="10.00">::updateCacheAndRepaint</text>
</a>
</g>
<!-- Node1&#45;&gt;Node2 -->
<g id="edge2" class="edge"><title>Node1&#45;&gt;Node2</title>
<path fill="none" stroke="midnightblue" d="M158.126,-411C166.809,-411 175.634,-411 184.275,-411"/>
<polygon fill="midnightblue" stroke="midnightblue" points="184.313,-414.5 194.313,-411 184.313,-407.5 184.313,-414.5"/>
</g>
<!-- Node3 -->
<g id="node5" class="node"><title>Node3</title>
<a xlink:href="../../d9/db9/classlibrary_1_1_symbol.html#aa8dd7ebe32db86a2f2124e341482d48c" target="_top" xlink:title="library::Symbol::getPolygons">
<polygon fill="white" stroke="black" points="370,-916.5 370,-937.5 512,-937.5 512,-916.5 370,-916.5"/>
<text text-anchor="middle" x="441" y="-924.5" font-family="Helvetica,sans-Serif" font-size="10.00">library::Symbol::getPolygons</text>
</a>
</g>
<!-- Node2&#45;&gt;Node3 -->
<g id="edge4" class="edge"><title>Node2&#45;&gt;Node3</title>
<path fill="none" stroke="midnightblue" d="M261.278,-428.178C267.437,-506.55 296.496,-829.474 362,-902 365.321,-905.677 369.177,-908.816 373.366,-911.497"/>
<polygon fill="midnightblue" stroke="midnightblue" points="371.906,-914.687 382.364,-916.381 375.245,-908.534 371.906,-914.687"/>
</g>
<!-- Node4 -->
<g id="node7" class="node"><title>Node4</title>
<a xlink:href="../../d1/d7f/classlibrary_1_1_symbol_polygon.html#a0c155e27c8e6d8f1cd3a8443b7bad250" target="_top" xlink:title="library::SymbolPolygon\l::toQPainterPathPx">
<polygon fill="white" stroke="black" points="382.5,-694 382.5,-728 499.5,-728 499.5,-694 382.5,-694"/>
<text text-anchor="start" x="390.5" y="-715" font-family="Helvetica,sans-Serif" font-size="10.00">library::SymbolPolygon</text>
<text text-anchor="middle" x="441" y="-702" font-family="Helvetica,sans-Serif" font-size="10.00">::toQPainterPathPx</text>
</a>
</g>
<!-- Node2&#45;&gt;Node4 -->
<g id="edge6" class="edge"><title>Node2&#45;&gt;Node4</title>
<path fill="none" stroke="midnightblue" d="M264.886,-428.074C276.843,-467.928 310.414,-569.079 362,-640 375.116,-658.033 393.468,-674.871 409.182,-687.62"/>
<polygon fill="midnightblue" stroke="midnightblue" points="407.104,-690.439 417.118,-693.899 411.447,-684.949 407.104,-690.439"/>
</g>
<!-- Node5 -->
<g id="node9" class="node"><title>Node5</title>
<a xlink:href="../../d0/d69/class_point.html#a3fb0d1120536f2a889eac1e5e88b9ac5" target="_top" xlink:title="Get the point as a QPointF object in pixels (for QGraphics* objects) ">
<polygon fill="white" stroke="black" points="583.5,-838.5 583.5,-859.5 684.5,-859.5 684.5,-838.5 583.5,-838.5"/>
<text text-anchor="middle" x="634" y="-846.5" font-family="Helvetica,sans-Serif" font-size="10.00">Point::toPxQPointF</text>
</a>
</g>
<!-- Node2&#45;&gt;Node5 -->
<g id="edge58" class="edge"><title>Node2&#45;&gt;Node5</title>
<path fill="none" stroke="midnightblue" d="M260.694,-428.172C263.696,-480.816 279.517,-642.118 362,-737 416.431,-799.613 511.316,-827.862 573.391,-840.146"/>
<polygon fill="midnightblue" stroke="midnightblue" points="572.963,-843.627 583.441,-842.052 574.268,-836.75 572.963,-843.627"/>
</g>
<!-- Node6 -->
<g id="node11" class="node"><title>Node6</title>
<a xlink:href="../../df/df0/class_length.html#abf9a817a583f3939aea7bffdeeb7b235" target="_top" xlink:title="Get the length in pixels (for QGraphics* objects) ">
<polygon fill="white" stroke="black" points="767,-857.5 767,-878.5 839,-878.5 839,-857.5 767,-857.5"/>
<text text-anchor="middle" x="803" y="-865.5" font-family="Helvetica,sans-Serif" font-size="10.00">Length::toPx</text>
</a>
</g>
<!-- Node2&#45;&gt;Node6 -->
<g id="edge26" class="edge"><title>Node2&#45;&gt;Node6</title>
<path fill="none" stroke="midnightblue" d="M262.472,-428.3C272.391,-495.547 311.23,-738.611 362,-795 463.123,-907.315 665.598,-890.994 756.705,-876.753"/>
<polygon fill="midnightblue" stroke="midnightblue" points="757.421,-880.183 766.73,-875.123 756.298,-873.273 757.421,-880.183"/>
</g>
<!-- Node11 -->
<g id="node21" class="node"><title>Node11</title>
<a xlink:href="../../d2/d39/class_angle.html#a74e05120ac11f78df41f0a0304990f9f" target="_top" xlink:title="Map this Angle object to [&#45;180..+180[ degrees. ">
<polygon fill="white" stroke="black" points="748.5,-595.5 748.5,-616.5 857.5,-616.5 857.5,-595.5 748.5,-595.5"/>
<text text-anchor="middle" x="803" y="-603.5" font-family="Helvetica,sans-Serif" font-size="10.00">Angle::mapTo180deg</text>
</a>
</g>
<!-- Node2&#45;&gt;Node11 -->
<g id="edge50" class="edge"><title>Node2&#45;&gt;Node11</title>
<path fill="none" stroke="midnightblue" d="M262.858,-428.117C270.547,-468.006 295.758,-566.798 362,-607 422.032,-643.433 449.805,-608.948 520,-607 536.019,-606.555 539.981,-605.445 556,-605 625.307,-603.076 642.668,-604.619 712,-605 720.403,-605.046 729.243,-605.116 737.975,-605.198"/>
<polygon fill="midnightblue" stroke="midnightblue" points="738.109,-608.7 748.143,-605.3 738.178,-601.7 738.109,-608.7"/>
</g>
<!-- Node13 -->
<g id="node25" class="node"><title>Node13</title>
<a xlink:href="../../d1/d7f/classlibrary_1_1_symbol_polygon.html#a69af915a70be9a59f27a36ef42fe7606" target="_top" xlink:title="library::SymbolPolygon\l::getWidth">
<polygon fill="white" stroke="black" points="382.5,-564 382.5,-598 499.5,-598 499.5,-564 382.5,-564"/>
<text text-anchor="start" x="390.5" y="-585" font-family="Helvetica,sans-Serif" font-size="10.00">library::SymbolPolygon</text>
<text text-anchor="middle" x="441" y="-572" font-family="Helvetica,sans-Serif" font-size="10.00">::getWidth</text>
</a>
</g>
<!-- Node2&#45;&gt;Node13 -->
<g id="edge24" class="edge"><title>Node2&#45;&gt;Node13</title>
<path fill="none" stroke="midnightblue" d="M267.732,-428.358C282.026,-458.503 315.426,-520.596 362,-555 365.462,-557.558 369.19,-559.872 373.073,-561.966"/>
<polygon fill="midnightblue" stroke="midnightblue" points="371.841,-565.257 382.368,-566.459 374.888,-558.955 371.841,-565.257"/>
</g>
<!-- Node14 -->
<g id="node28" class="node"><title>Node14</title>
<a xlink:href="../../d1/d7f/classlibrary_1_1_symbol_polygon.html#afb5593c9c44f491b400edfa695fea7dc" target="_top" xlink:title="library::SymbolPolygon\l::isGrabArea">
<polygon fill="white" stroke="black" points="382.5,-512 382.5,-546 499.5,-546 499.5,-512 382.5,-512"/>
<text text-anchor="start" x="390.5" y="-533" font-family="Helvetica,sans-Serif" font-size="10.00">library::SymbolPolygon</text>
<text text-anchor="middle" x="441" y="-520" font-family="Helvetica,sans-Serif" font-size="10.00">::isGrabArea</text>
</a>
</g>
<!-- Node2&#45;&gt;Node14 -->
<g id="edge28" class="edge"><title>Node2&#45;&gt;Node14</title>
<path fill="none" stroke="midnightblue" d="M274.929,-428.282C293.463,-448.756 326.938,-482.648 362,-503 365.582,-505.079 369.354,-507.019 373.227,-508.825"/>
<polygon fill="midnightblue" stroke="midnightblue" points="371.841,-512.038 382.409,-512.796 374.62,-505.614 371.841,-512.038"/>
</g>
<!-- Node15 -->
<g id="node30" class="node"><title>Node15</title>
<a xlink:href="../../d9/db9/classlibrary_1_1_symbol.html#af3e51c69f130dab1acd01d41105c4ea3" target="_top" xlink:title="library::Symbol::getTexts">
<polygon fill="white" stroke="black" points="378,-472.5 378,-493.5 504,-493.5 504,-472.5 378,-472.5"/>
<text text-anchor="middle" x="441" y="-480.5" font-family="Helvetica,sans-Serif" font-size="10.00">library::Symbol::getTexts</text>
</a>
</g>
<!-- Node2&#45;&gt;Node15 -->
<g id="edge30" class="edge"><title>Node2&#45;&gt;Node15</title>
<path fill="none" stroke="midnightblue" d="M289.107,-428.049C309.092,-439.196 336.512,-453.415 362,-463 368.406,-465.409 375.212,-467.622 382.038,-469.627"/>
<polygon fill="midnightblue" stroke="midnightblue" points="381.436,-473.092 392.009,-472.413 383.32,-466.351 381.436,-473.092"/>
</g>
<!-- Node16 -->
<g id="node32" class="node"><title>Node16</title>
<a xlink:href="../../db/df7/classlibrary_1_1_symbol_text.html#ab42d5f674bbe33d8d5a601bedfd7921e" target="_top" xlink:title="library::SymbolText\l::getText">
<polygon fill="white" stroke="black" points="390.5,-420 390.5,-454 491.5,-454 491.5,-420 390.5,-420"/>
<text text-anchor="start" x="398.5" y="-441" font-family="Helvetica,sans-Serif" font-size="10.00">library::SymbolText</text>
<text text-anchor="middle" x="441" y="-428" font-family="Helvetica,sans-Serif" font-size="10.00">::getText</text>
</a>
</g>
<!-- Node2&#45;&gt;Node16 -->
<g id="edge32" class="edge"><title>Node2&#45;&gt;Node16</title>
<path fill="none" stroke="midnightblue" d="M325.601,-420.423C343.446,-422.987 362.691,-425.751 380.254,-428.274"/>
<polygon fill="midnightblue" stroke="midnightblue" points="379.981,-431.771 390.377,-429.728 380.976,-424.842 379.981,-431.771"/>
</g>
<!-- Node17 -->
<g id="node34" class="node"><title>Node17</title>
<a xlink:href="../../d9/d41/class_i_f___attribute_provider.html#a64e9824168a64622ace994d0ce6dd8ba" target="_top" xlink:title="Replace all variables in a text with their attribute values. ">
<polygon fill="white" stroke="black" points="362.5,-368 362.5,-402 519.5,-402 519.5,-368 362.5,-368"/>
<text text-anchor="start" x="370.5" y="-389" font-family="Helvetica,sans-Serif" font-size="10.00">IF_AttributeProvider</text>
<text text-anchor="middle" x="441" y="-376" font-family="Helvetica,sans-Serif" font-size="10.00">::replaceVariablesWithAttributes</text>
</a>
</g>
<!-- Node2&#45;&gt;Node17 -->
<g id="edge34" class="edge"><title>Node2&#45;&gt;Node17</title>
<path fill="none" stroke="midnightblue" d="M325.601,-401.577C334.275,-400.331 343.279,-399.037 352.261,-397.747"/>
<polygon fill="midnightblue" stroke="midnightblue" points="352.972,-401.181 362.373,-396.295 351.977,-394.252 352.972,-401.181"/>
</g>
<!-- Node18 -->
<g id="node36" class="node"><title>Node18</title>
<a xlink:href="../../db/df7/classlibrary_1_1_symbol_text.html#a0956fb9eaa66799447596d95c6f1e46d" target="_top" xlink:title="library::SymbolText\l::getHeight">
<polygon fill="white" stroke="black" points="390.5,-316 390.5,-350 491.5,-350 491.5,-316 390.5,-316"/>
<text text-anchor="start" x="398.5" y="-337" font-family="Helvetica,sans-Serif" font-size="10.00">library::SymbolText</text>
<text text-anchor="middle" x="441" y="-324" font-family="Helvetica,sans-Serif" font-size="10.00">::getHeight</text>
</a>
</g>
<!-- Node2&#45;&gt;Node18 -->
<g id="edge36" class="edge"><title>Node2&#45;&gt;Node18</title>
<path fill="none" stroke="midnightblue" d="M290.665,-393.805C310.619,-383.009 337.413,-369.242 362,-359 368.09,-356.463 374.522,-354.004 380.98,-351.675"/>
<polygon fill="midnightblue" stroke="midnightblue" points="382.147,-354.975 390.425,-348.363 379.83,-348.37 382.147,-354.975"/>
</g>
<!-- Node19 -->
<g id="node38" class="node"><title>Node19</title>
<a xlink:href="../../db/df7/classlibrary_1_1_symbol_text.html#a8c33abf636eed65eeeccb22558ba0880" target="_top" xlink:title="library::SymbolText\l::getAlign">
<polygon fill="white" stroke="black" points="390.5,-264 390.5,-298 491.5,-298 491.5,-264 390.5,-264"/>
<text text-anchor="start" x="398.5" y="-285" font-family="Helvetica,sans-Serif" font-size="10.00">library::SymbolText</text>
<text text-anchor="middle" x="441" y="-272" font-family="Helvetica,sans-Serif" font-size="10.00">::getAlign</text>
</a>
</g>
<!-- Node2&#45;&gt;Node19 -->
<g id="edge38" class="edge"><title>Node2&#45;&gt;Node19</title>
<path fill="none" stroke="midnightblue" d="M272.585,-393.767C290.168,-370.851 324.206,-330.512 362,-307 367.848,-303.362 374.26,-300.176 380.823,-297.402"/>
<polygon fill="midnightblue" stroke="midnightblue" points="382.454,-300.522 390.497,-293.625 379.909,-294.001 382.454,-300.522"/>
</g>
<!-- Node20 -->
<g id="node40" class="node"><title>Node20</title>
<a xlink:href="../../df/de9/class_alignment.html#a4fbb4767912b1fed45bc601018994247" target="_top" xlink:title="Alignment::toQtAlign">
<polygon fill="white" stroke="black" points="387.5,-224.5 387.5,-245.5 494.5,-245.5 494.5,-224.5 387.5,-224.5"/>
<text text-anchor="middle" x="441" y="-232.5" font-family="Helvetica,sans-Serif" font-size="10.00">Alignment::toQtAlign</text>
</a>
</g>
<!-- Node2&#45;&gt;Node20 -->
<g id="edge40" class="edge"><title>Node2&#45;&gt;Node20</title>
<path fill="none" stroke="midnightblue" d="M266.256,-393.898C279.006,-361.522 311.165,-291.279 362,-255 366.795,-251.578 372.121,-248.74 377.677,-246.386"/>
<polygon fill="midnightblue" stroke="midnightblue" points="379.029,-249.618 387.193,-242.866 376.6,-243.053 379.029,-249.618"/>
</g>
<!-- Node23 -->
<g id="node46" class="node"><title>Node23</title>
<a xlink:href="../../db/df7/classlibrary_1_1_symbol_text.html#a01f0e165edb023b0c50cdbfd70f36021" target="_top" xlink:title="library::SymbolText\l::getRotation">
<polygon fill="white" stroke="black" points="390.5,-172 390.5,-206 491.5,-206 491.5,-172 390.5,-172"/>
<text text-anchor="start" x="398.5" y="-193" font-family="Helvetica,sans-Serif" font-size="10.00">library::SymbolText</text>
<text text-anchor="middle" x="441" y="-180" font-family="Helvetica,sans-Serif" font-size="10.00">::getRotation</text>
</a>
</g>
<!-- Node2&#45;&gt;Node23 -->
<g id="edge46" class="edge"><title>Node2&#45;&gt;Node23</title>
<path fill="none" stroke="midnightblue" d="M264.191,-393.815C274.316,-355.908 303.688,-264.561 362,-215 367.597,-210.243 374.09,-206.349 380.901,-203.165"/>
<polygon fill="midnightblue" stroke="midnightblue" points="382.44,-206.315 390.332,-199.246 379.754,-199.851 382.44,-206.315"/>
</g>
<!-- Node24 -->
<g id="node48" class="node"><title>Node24</title>
<a xlink:href="../../de/d50/classproject_1_1_s_i___symbol.html#a01f0e165edb023b0c50cdbfd70f36021" target="_top" xlink:title="getRotation">
<polygon fill="white" stroke="black" points="407.5,-132.5 407.5,-153.5 474.5,-153.5 474.5,-132.5 407.5,-132.5"/>
<text text-anchor="middle" x="441" y="-140.5" font-family="Helvetica,sans-Serif" font-size="10.00">getRotation</text>
</a>
</g>
<!-- Node2&#45;&gt;Node24 -->
<g id="edge48" class="edge"><title>Node2&#45;&gt;Node24</title>
<path fill="none" stroke="midnightblue" d="M261.819,-393.833C267.542,-348.72 289.363,-225.976 362,-163 371.869,-154.444 384.894,-149.458 397.515,-146.58"/>
<polygon fill="midnightblue" stroke="midnightblue" points="398.307,-149.992 407.483,-144.695 397.006,-143.114 398.307,-149.992"/>
</g>
<!-- Node25 -->
<g id="node51" class="node"><title>Node25</title>
<a xlink:href="../../d2/d39/class_angle.html#a7f29e0cf68871bab5b01569d78de4504" target="_top" xlink:title="90 degrees ">
<polygon fill="white" stroke="black" points="404,-92.5 404,-113.5 478,-113.5 478,-92.5 404,-92.5"/>
<text text-anchor="middle" x="441" y="-100.5" font-family="Helvetica,sans-Serif" font-size="10.00">Angle::deg90</text>
</a>
</g>
<!-- Node2&#45;&gt;Node25 -->
<g id="edge52" class="edge"><title>Node2&#45;&gt;Node25</title>
<path fill="none" stroke="midnightblue" d="M260.723,-393.714C263.779,-343.767 279.68,-198.042 362,-123 370.734,-115.038 382.179,-110.143 393.636,-107.161"/>
<polygon fill="midnightblue" stroke="midnightblue" points="394.603,-110.533 403.64,-105.003 393.127,-103.69 394.603,-110.533"/>
</g>
<!-- Node27 -->
<g id="node55" class="node"><title>Node27</title>
<a xlink:href="../../db/df7/classlibrary_1_1_symbol_text.html#ae23dd3ab799e9f70a4037eea91f69a82" target="_top" xlink:title="library::SymbolText\l::getPosition">
<polygon fill="white" stroke="black" points="390.5,-40 390.5,-74 491.5,-74 491.5,-40 390.5,-40"/>
<text text-anchor="start" x="398.5" y="-61" font-family="Helvetica,sans-Serif" font-size="10.00">library::SymbolText</text>
<text text-anchor="middle" x="441" y="-48" font-family="Helvetica,sans-Serif" font-size="10.00">::getPosition</text>
</a>
</g>
<!-- Node2&#45;&gt;Node27 -->
<g id="edge56" class="edge"><title>Node2&#45;&gt;Node27</title>
<path fill="none" stroke="midnightblue" d="M263.221,-393.694C274.886,-332.729 316.626,-129.127 362,-83 367.291,-77.6216 373.713,-73.3556 380.584,-69.972"/>
<polygon fill="midnightblue" stroke="midnightblue" points="382.343,-73.0266 390.167,-65.8832 379.596,-66.5881 382.343,-73.0266"/>
</g>
<!-- Node28 -->
<g id="node58" class="node"><title>Node28</title>
<a xlink:href="../../df/de9/class_alignment.html#a5e73aa1977269073f3ce5f2af38443a0" target="_top" xlink:title="Alignment::mirrored">
<polygon fill="white" stroke="black" points="390.5,-0.5 390.5,-21.5 491.5,-21.5 491.5,-0.5 390.5,-0.5"/>
<text text-anchor="middle" x="441" y="-8.5" font-family="Helvetica,sans-Serif" font-size="10.00">Alignment::mirrored</text>
</a>
</g>
<!-- Node2&#45;&gt;Node28 -->
<g id="edge60" class="edge"><title>Node2&#45;&gt;Node28</title>
<path fill="none" stroke="midnightblue" d="M262.309,-393.699C271.621,-326.476 308.491,-83.75 362,-31 367.264,-25.8103 373.671,-21.9059 380.534,-18.9784"/>
<polygon fill="midnightblue" stroke="midnightblue" points="381.868,-22.2186 390.111,-15.5627 379.516,-15.6254 381.868,-22.2186"/>
</g>
<!-- Node4&#45;&gt;Node5 -->
<g id="edge8" class="edge"><title>Node4&#45;&gt;Node5</title>
<path fill="none" stroke="midnightblue" d="M458.868,-728.057C475.078,-743.667 499.502,-767.532 520,-789 536.517,-806.299 535.541,-816.611 556,-829 561.415,-832.279 567.354,-835.024 573.464,-837.321"/>
<polygon fill="midnightblue" stroke="midnightblue" points="572.559,-840.709 583.153,-840.574 574.787,-834.073 572.559,-840.709"/>
</g>
<!-- Node7 -->
<g id="node13" class="node"><title>Node7</title>
<a xlink:href="../../d9/d94/classlibrary_1_1_symbol_polygon_segment.html#a894842161e505b56d67b0cf5b0f50087" target="_top" xlink:title="library::SymbolPolygonSegment\l::getAngle">
<polygon fill="white" stroke="black" points="556,-746 556,-780 712,-780 712,-746 556,-746"/>
<text text-anchor="start" x="564" y="-767" font-family="Helvetica,sans-Serif" font-size="10.00">library::SymbolPolygonSegment</text>
<text text-anchor="middle" x="634" y="-754" font-family="Helvetica,sans-Serif" font-size="10.00">::getAngle</text>
</a>
</g>
<!-- Node4&#45;&gt;Node7 -->
<g id="edge12" class="edge"><title>Node4&#45;&gt;Node7</title>
<path fill="none" stroke="midnightblue" d="M499.692,-726.814C519.04,-732.026 540.795,-737.888 561.072,-743.351"/>
<polygon fill="midnightblue" stroke="midnightblue" points="560.323,-746.774 570.89,-745.996 562.145,-740.015 560.323,-746.774"/>
</g>
<!-- Node8 -->
<g id="node15" class="node"><title>Node8</title>
<a xlink:href="../../d9/d94/classlibrary_1_1_symbol_polygon_segment.html#af89771a9eb5882eaee9f298f663f89dc" target="_top" xlink:title="library::SymbolPolygonSegment\l::getEndPos">
<polygon fill="white" stroke="black" points="556,-694 556,-728 712,-728 712,-694 556,-694"/>
<text text-anchor="start" x="564" y="-715" font-family="Helvetica,sans-Serif" font-size="10.00">library::SymbolPolygonSegment</text>
<text text-anchor="middle" x="634" y="-702" font-family="Helvetica,sans-Serif" font-size="10.00">::getEndPos</text>
</a>
</g>
<!-- Node4&#45;&gt;Node8 -->
<g id="edge14" class="edge"><title>Node4&#45;&gt;Node8</title>
<path fill="none" stroke="midnightblue" d="M499.692,-711C514.157,-711 529.968,-711 545.501,-711"/>
<polygon fill="midnightblue" stroke="midnightblue" points="545.651,-714.5 555.651,-711 545.651,-707.5 545.651,-714.5"/>
</g>
<!-- Node9 -->
<g id="node17" class="node"><title>Node9</title>
<a xlink:href="../../d2/d39/class_angle.html#a70d223e0c1188606f971188d6f23b66f" target="_top" xlink:title="Get the angle in radians. ">
<polygon fill="white" stroke="black" points="597,-654.5 597,-675.5 671,-675.5 671,-654.5 597,-654.5"/>
<text text-anchor="middle" x="634" y="-662.5" font-family="Helvetica,sans-Serif" font-size="10.00">Angle::toRad</text>
</a>
</g>
<!-- Node4&#45;&gt;Node9 -->
<g id="edge16" class="edge"><title>Node4&#45;&gt;Node9</title>
<path fill="none" stroke="midnightblue" d="M499.692,-697.011C527.719,-690.331 560.799,-682.447 587.116,-676.174"/>
<polygon fill="midnightblue" stroke="midnightblue" points="587.931,-679.578 596.847,-673.855 586.308,-672.769 587.931,-679.578"/>
</g>
<!-- Node10 -->
<g id="node19" class="node"><title>Node10</title>
<a xlink:href="../../d2/d39/class_angle.html#ae76e6384199e1c899025c103affd862f" target="_top" xlink:title="Get an Angle object which is mapped to [&#45;180..+180[ degrees. ">
<polygon fill="white" stroke="black" points="571.5,-614.5 571.5,-635.5 696.5,-635.5 696.5,-614.5 571.5,-614.5"/>
<text text-anchor="middle" x="634" y="-622.5" font-family="Helvetica,sans-Serif" font-size="10.00">Angle::mappedTo180deg</text>
</a>
</g>
<!-- Node4&#45;&gt;Node10 -->
<g id="edge18" class="edge"><title>Node4&#45;&gt;Node10</title>
<path fill="none" stroke="midnightblue" d="M466.023,-693.985C488.667,-679.245 523.371,-658.26 556,-645 561.864,-642.617 568.095,-640.451 574.378,-638.5"/>
<polygon fill="midnightblue" stroke="midnightblue" points="575.635,-641.779 584.25,-635.611 573.669,-635.061 575.635,-641.779"/>
</g>
<!-- Node12 -->
<g id="node23" class="node"><title>Node12</title>
<a xlink:href="../../d2/d39/class_angle.html#ad2926beabd4d66cc5bc1ac4c622540ea" target="_top" xlink:title="Get the Angle in degrees. ">
<polygon fill="white" stroke="black" points="597,-798.5 597,-819.5 671,-819.5 671,-798.5 597,-798.5"/>
<text text-anchor="middle" x="634" y="-806.5" font-family="Helvetica,sans-Serif" font-size="10.00">Angle::toDeg</text>
</a>
</g>
<!-- Node4&#45;&gt;Node12 -->
<g id="edge22" class="edge"><title>Node4&#45;&gt;Node12</title>
<path fill="none" stroke="midnightblue" d="M461.31,-728.005C483.331,-745.637 520.151,-772.84 556,-789 565.755,-793.397 576.649,-796.953 587.129,-799.777"/>
<polygon fill="midnightblue" stroke="midnightblue" points="586.448,-803.215 597,-802.264 588.158,-796.427 586.448,-803.215"/>
</g>
<!-- Node5&#45;&gt;Node6 -->
<g id="edge10" class="edge"><title>Node5&#45;&gt;Node6</title>
<path fill="none" stroke="midnightblue" d="M684.706,-854.701C707.536,-857.267 734.306,-860.277 756.601,-862.784"/>
<polygon fill="midnightblue" stroke="midnightblue" points="756.495,-866.294 766.823,-863.933 757.277,-859.337 756.495,-866.294"/>
</g>
<!-- Node10&#45;&gt;Node11 -->
<g id="edge20" class="edge"><title>Node10&#45;&gt;Node11</title>
<path fill="none" stroke="midnightblue" d="M696.929,-617.925C710.39,-616.412 724.634,-614.81 738.165,-613.289"/>
<polygon fill="midnightblue" stroke="midnightblue" points="738.803,-616.74 748.349,-612.144 738.021,-609.783 738.803,-616.74"/>
</g>
<!-- Node21 -->
<g id="node42" class="node"><title>Node21</title>
<a xlink:href="../../d7/d39/class_h_align.html#a5947e6026a6c38886e5598e032fa7317" target="_top" xlink:title="HAlign::toQtAlignFlag">
<polygon fill="white" stroke="black" points="578.5,-244.5 578.5,-265.5 689.5,-265.5 689.5,-244.5 578.5,-244.5"/>
<text text-anchor="middle" x="634" y="-252.5" font-family="Helvetica,sans-Serif" font-size="10.00">HAlign::toQtAlignFlag</text>
</a>
</g>
<!-- Node20&#45;&gt;Node21 -->
<g id="edge42" class="edge"><title>Node20&#45;&gt;Node21</title>
<path fill="none" stroke="midnightblue" d="M494.505,-240.545C517.346,-242.912 544.227,-245.697 568.264,-248.188"/>
<polygon fill="midnightblue" stroke="midnightblue" points="568.064,-251.686 578.372,-249.235 568.786,-244.723 568.064,-251.686"/>
</g>
<!-- Node22 -->
<g id="node44" class="node"><title>Node22</title>
<a xlink:href="../../d9/dbc/class_v_align.html#a5947e6026a6c38886e5598e032fa7317" target="_top" xlink:title="VAlign::toQtAlignFlag">
<polygon fill="white" stroke="black" points="579,-204.5 579,-225.5 689,-225.5 689,-204.5 579,-204.5"/>
<text text-anchor="middle" x="634" y="-212.5" font-family="Helvetica,sans-Serif" font-size="10.00">VAlign::toQtAlignFlag</text>
</a>
</g>
<!-- Node20&#45;&gt;Node22 -->
<g id="edge44" class="edge"><title>Node20&#45;&gt;Node22</title>
<path fill="none" stroke="midnightblue" d="M494.505,-229.455C517.444,-227.078 544.457,-224.279 568.572,-221.78"/>
<polygon fill="midnightblue" stroke="midnightblue" points="569.124,-225.242 578.71,-220.73 568.402,-218.279 569.124,-225.242"/>
</g>
<!-- Node26 -->
<g id="node53" class="node"><title>Node26</title>
<a xlink:href="../../d2/d39/class_angle.html#ae0cfbf0d84fd0eab0f9dfc1b365b8667" target="_top" xlink:title="Default Constructor. ">
<polygon fill="white" stroke="black" points="598,-92.5 598,-113.5 670,-113.5 670,-92.5 598,-92.5"/>
<text text-anchor="middle" x="634" y="-100.5" font-family="Helvetica,sans-Serif" font-size="10.00">Angle::Angle</text>
</a>
</g>
<!-- Node25&#45;&gt;Node26 -->
<g id="edge54" class="edge"><title>Node25&#45;&gt;Node26</title>
<path fill="none" stroke="midnightblue" d="M478.212,-103C509.482,-103 554.312,-103 587.86,-103"/>
<polygon fill="midnightblue" stroke="midnightblue" points="587.882,-106.5 597.882,-103 587.882,-99.5001 587.882,-106.5"/>
</g>
<!-- Node29 -->
<g id="node60" class="node"><title>Node29</title>
<a xlink:href="../../df/de9/class_alignment.html#ac2a03de30f0ea7f185b8ae3625c8b076" target="_top" xlink:title="Alignment::Alignment">
<polygon fill="white" stroke="black" points="579,-0.5 579,-21.5 689,-21.5 689,-0.5 579,-0.5"/>
<text text-anchor="middle" x="634" y="-8.5" font-family="Helvetica,sans-Serif" font-size="10.00">Alignment::Alignment</text>
</a>
</g>
<!-- Node28&#45;&gt;Node29 -->
<g id="edge62" class="edge"><title>Node28&#45;&gt;Node29</title>
<path fill="none" stroke="midnightblue" d="M491.708,-11C515.267,-11 543.566,-11 568.7,-11"/>
<polygon fill="midnightblue" stroke="midnightblue" points="568.888,-14.5001 578.888,-11 568.888,-7.5001 568.888,-14.5001"/>
</g>
</g>
</svg>
