<?xml version="1.0" encoding="UTF-8" standalone="no"?>
<!DOCTYPE svg PUBLIC "-//W3C//DTD SVG 1.1//EN"
 "http://www.w3.org/Graphics/SVG/1.1/DTD/svg11.dtd">
<!-- Generated by graphviz version 2.26.3 (20100126.1600)
 -->
<!-- Title: init Pages: 1 -->
<svg width="932pt" height="946pt"
 viewBox="0.00 0.00 932.00 946.00" xmlns="http://www.w3.org/2000/svg" xmlns:xlink="http://www.w3.org/1999/xlink">
<g id="graph1" class="graph" transform="scale(1 1) rotate(0) translate(4 942)">
<title>init</title>
<polygon fill="white" stroke="white" points="-4,5 -4,-942 929,-942 929,5 -4,5"/>
<!-- Node1 -->
<g id="node1" class="node"><title>Node1</title>
<polygon fill="#bfbfbf" stroke="black" points="0.5,-426.5 0.5,-447.5 29.5,-447.5 29.5,-426.5 0.5,-426.5"/>
<text text-anchor="middle" x="15" y="-434.5" font-family="Helvetica,sans-Serif" font-size="10.00">init</text>
</g>
<!-- Node2 -->
<g id="node3" class="node"><title>Node2</title>
<a xlink:href="../../d0/dfd/classlibrary_1_1_symbol_pin.html#ada9b237a8629c03e16491a72730b456b" target="_top" xlink:title="library::SymbolPin\l::getUuid">
<polygon fill="white" stroke="black" points="97,-446 97,-480 193,-480 193,-446 97,-446"/>
<text text-anchor="start" x="105" y="-467" font-family="Helvetica,sans-Serif" font-size="10.00">library::SymbolPin</text>
<text text-anchor="middle" x="145" y="-454" font-family="Helvetica,sans-Serif" font-size="10.00">::getUuid</text>
</a>
</g>
<!-- Node1&#45;&gt;Node2 -->
<g id="edge2" class="edge"><title>Node1&#45;&gt;Node2</title>
<path fill="none" stroke="midnightblue" d="M29.6599,-439.932C43.7044,-442.741 65.8279,-447.166 86.959,-451.392"/>
<polygon fill="midnightblue" stroke="midnightblue" points="86.3956,-454.848 96.8879,-453.378 87.7685,-447.984 86.3956,-454.848"/>
</g>
<!-- Node3 -->
<g id="node5" class="node"><title>Node3</title>
<a xlink:href="../../de/d50/classproject_1_1_s_i___symbol.html#a803d371853cd2d72f4df8a45349d0cb7" target="_top" xlink:title="schematicOrGenCompAttributes\lChanged">
<polygon fill="white" stroke="black" points="66,-394 66,-428 224,-428 224,-394 66,-394"/>
<text text-anchor="start" x="74" y="-415" font-family="Helvetica,sans-Serif" font-size="10.00">schematicOrGenCompAttributes</text>
<text text-anchor="middle" x="145" y="-402" font-family="Helvetica,sans-Serif" font-size="10.00">Changed</text>
</a>
</g>
<!-- Node1&#45;&gt;Node3 -->
<g id="edge4" class="edge"><title>Node1&#45;&gt;Node3</title>
<path fill="none" stroke="midnightblue" d="M29.6599,-434.068C36.7552,-432.649 45.9124,-430.818 55.962,-428.808"/>
<polygon fill="midnightblue" stroke="midnightblue" points="56.7129,-432.227 65.8323,-426.834 55.3401,-425.363 56.7129,-432.227"/>
</g>
<!-- Node4 -->
<g id="node7" class="node"><title>Node4</title>
<a xlink:href="../../dd/d00/classproject_1_1_s_g_i___symbol.html#abbb5db1b700a86caa85ff4c0c13142f2" target="_top" xlink:title="project::SGI_Symbol\l::updateCacheAndRepaint">
<polygon fill="white" stroke="black" points="260.5,-394 260.5,-428 391.5,-428 391.5,-394 260.5,-394"/>
<text text-anchor="start" x="268.5" y="-415" font-family="Helvetica,sans-Serif" font-size="10.00">project::SGI_Symbol</text>
<text text-anchor="middle" x="326" y="-402" font-family="Helvetica,sans-Serif" font-size="10.00">::updateCacheAndRepaint</text>
</a>
</g>
<!-- Node3&#45;&gt;Node4 -->
<g id="edge6" class="edge"><title>Node3&#45;&gt;Node4</title>
<path fill="none" stroke="midnightblue" d="M224.126,-411C232.809,-411 241.634,-411 250.275,-411"/>
<polygon fill="midnightblue" stroke="midnightblue" points="250.313,-414.5 260.313,-411 250.313,-407.5 250.313,-414.5"/>
</g>
<!-- Node5 -->
<g id="node9" class="node"><title>Node5</title>
<a xlink:href="../../d9/db9/classlibrary_1_1_symbol.html#aa8dd7ebe32db86a2f2124e341482d48c" target="_top" xlink:title="library::Symbol::getPolygons">
<polygon fill="white" stroke="black" points="436,-916.5 436,-937.5 578,-937.5 578,-916.5 436,-916.5"/>
<text text-anchor="middle" x="507" y="-924.5" font-family="Helvetica,sans-Serif" font-size="10.00">library::Symbol::getPolygons</text>
</a>
</g>
<!-- Node4&#45;&gt;Node5 -->
<g id="edge8" class="edge"><title>Node4&#45;&gt;Node5</title>
<path fill="none" stroke="midnightblue" d="M327.278,-428.178C333.437,-506.55 362.496,-829.474 428,-902 431.321,-905.677 435.177,-908.816 439.366,-911.497"/>
<polygon fill="midnightblue" stroke="midnightblue" points="437.906,-914.687 448.364,-916.381 441.245,-908.534 437.906,-914.687"/>
</g>
<!-- Node6 -->
<g id="node11" class="node"><title>Node6</title>
<a xlink:href="../../d1/d7f/classlibrary_1_1_symbol_polygon.html#a0c155e27c8e6d8f1cd3a8443b7bad250" target="_top" xlink:title="library::SymbolPolygon\l::toQPainterPathPx">
<polygon fill="white" stroke="black" points="448.5,-694 448.5,-728 565.5,-728 565.5,-694 448.5,-694"/>
<text text-anchor="start" x="456.5" y="-715" font-family="Helvetica,sans-Serif" font-size="10.00">library::SymbolPolygon</text>
<text text-anchor="middle" x="507" y="-702" font-family="Helvetica,sans-Serif" font-size="10.00">::toQPainterPathPx</text>
</a>
</g>
<!-- Node4&#45;&gt;Node6 -->
<g id="edge10" class="edge"><title>Node4&#45;&gt;Node6</title>
<path fill="none" stroke="midnightblue" d="M330.886,-428.074C342.843,-467.928 376.414,-569.079 428,-640 441.116,-658.033 459.468,-674.871 475.182,-687.62"/>
<polygon fill="midnightblue" stroke="midnightblue" points="473.104,-690.439 483.118,-693.899 477.447,-684.949 473.104,-690.439"/>
</g>
<!-- Node7 -->
<g id="node13" class="node"><title>Node7</title>
<a xlink:href="../../d0/d69/class_point.html#a3fb0d1120536f2a889eac1e5e88b9ac5" target="_top" xlink:title="Get the point as a QPointF object in pixels (for QGraphics* objects) ">
<polygon fill="white" stroke="black" points="649.5,-838.5 649.5,-859.5 750.5,-859.5 750.5,-838.5 649.5,-838.5"/>
<text text-anchor="middle" x="700" y="-846.5" font-family="Helvetica,sans-Serif" font-size="10.00">Point::toPxQPointF</text>
</a>
</g>
<!-- Node4&#45;&gt;Node7 -->
<g id="edge62" class="edge"><title>Node4&#45;&gt;Node7</title>
<path fill="none" stroke="midnightblue" d="M326.694,-428.172C329.696,-480.816 345.517,-642.118 428,-737 482.431,-799.613 577.316,-827.862 639.391,-840.146"/>
<polygon fill="midnightblue" stroke="midnightblue" points="638.963,-843.627 649.441,-842.052 640.268,-836.75 638.963,-843.627"/>
</g>
<!-- Node8 -->
<g id="node15" class="node"><title>Node8</title>
<a xlink:href="../../df/df0/class_length.html#abf9a817a583f3939aea7bffdeeb7b235" target="_top" xlink:title="Get the length in pixels (for QGraphics* objects) ">
<polygon fill="white" stroke="black" points="833,-857.5 833,-878.5 905,-878.5 905,-857.5 833,-857.5"/>
<text text-anchor="middle" x="869" y="-865.5" font-family="Helvetica,sans-Serif" font-size="10.00">Length::toPx</text>
</a>
</g>
<!-- Node4&#45;&gt;Node8 -->
<g id="edge30" class="edge"><title>Node4&#45;&gt;Node8</title>
<path fill="none" stroke="midnightblue" d="M328.472,-428.3C338.391,-495.547 377.23,-738.611 428,-795 529.123,-907.315 731.598,-890.994 822.705,-876.753"/>
<polygon fill="midnightblue" stroke="midnightblue" points="823.421,-880.183 832.73,-875.123 822.298,-873.273 823.421,-880.183"/>
</g>
<!-- Node13 -->
<g id="node25" class="node"><title>Node13</title>
<a xlink:href="../../d2/d39/class_angle.html#a74e05120ac11f78df41f0a0304990f9f" target="_top" xlink:title="Map this Angle object to [&#45;180..+180[ degrees. ">
<polygon fill="white" stroke="black" points="814.5,-595.5 814.5,-616.5 923.5,-616.5 923.5,-595.5 814.5,-595.5"/>
<text text-anchor="middle" x="869" y="-603.5" font-family="Helvetica,sans-Serif" font-size="10.00">Angle::mapTo180deg</text>
</a>
</g>
<!-- Node4&#45;&gt;Node13 -->
<g id="edge54" class="edge"><title>Node4&#45;&gt;Node13</title>
<path fill="none" stroke="midnightblue" d="M328.858,-428.117C336.547,-468.006 361.758,-566.798 428,-607 488.032,-643.433 515.805,-608.948 586,-607 602.019,-606.555 605.981,-605.445 622,-605 691.307,-603.076 708.668,-604.619 778,-605 786.403,-605.046 795.243,-605.116 803.975,-605.198"/>
<polygon fill="midnightblue" stroke="midnightblue" points="804.109,-608.7 814.143,-605.3 804.178,-601.7 804.109,-608.7"/>
</g>
<!-- Node15 -->
<g id="node29" class="node"><title>Node15</title>
<a xlink:href="../../d1/d7f/classlibrary_1_1_symbol_polygon.html#a69af915a70be9a59f27a36ef42fe7606" target="_top" xlink:title="library::SymbolPolygon\l::getWidth">
<polygon fill="white" stroke="black" points="448.5,-564 448.5,-598 565.5,-598 565.5,-564 448.5,-564"/>
<text text-anchor="start" x="456.5" y="-585" font-family="Helvetica,sans-Serif" font-size="10.00">library::SymbolPolygon</text>
<text text-anchor="middle" x="507" y="-572" font-family="Helvetica,sans-Serif" font-size="10.00">::getWidth</text>
</a>
</g>
<!-- Node4&#45;&gt;Node15 -->
<g id="edge28" class="edge"><title>Node4&#45;&gt;Node15</title>
<path fill="none" stroke="midnightblue" d="M333.732,-428.358C348.026,-458.503 381.426,-520.596 428,-555 431.462,-557.558 435.19,-559.872 439.073,-561.966"/>
<polygon fill="midnightblue" stroke="midnightblue" points="437.841,-565.257 448.368,-566.459 440.888,-558.955 437.841,-565.257"/>
</g>
<!-- Node16 -->
<g id="node32" class="node"><title>Node16</title>
<a xlink:href="../../d1/d7f/classlibrary_1_1_symbol_polygon.html#afb5593c9c44f491b400edfa695fea7dc" target="_top" xlink:title="library::SymbolPolygon\l::isGrabArea">
<polygon fill="white" stroke="black" points="448.5,-512 448.5,-546 565.5,-546 565.5,-512 448.5,-512"/>
<text text-anchor="start" x="456.5" y="-533" font-family="Helvetica,sans-Serif" font-size="10.00">library::SymbolPolygon</text>
<text text-anchor="middle" x="507" y="-520" font-family="Helvetica,sans-Serif" font-size="10.00">::isGrabArea</text>
</a>
</g>
<!-- Node4&#45;&gt;Node16 -->
<g id="edge32" class="edge"><title>Node4&#45;&gt;Node16</title>
<path fill="none" stroke="midnightblue" d="M340.929,-428.282C359.463,-448.756 392.938,-482.648 428,-503 431.582,-505.079 435.354,-507.019 439.227,-508.825"/>
<polygon fill="midnightblue" stroke="midnightblue" points="437.841,-512.038 448.409,-512.796 440.62,-505.614 437.841,-512.038"/>
</g>
<!-- Node17 -->
<g id="node34" class="node"><title>Node17</title>
<a xlink:href="../../d9/db9/classlibrary_1_1_symbol.html#af3e51c69f130dab1acd01d41105c4ea3" target="_top" xlink:title="library::Symbol::getTexts">
<polygon fill="white" stroke="black" points="444,-472.5 444,-493.5 570,-493.5 570,-472.5 444,-472.5"/>
<text text-anchor="middle" x="507" y="-480.5" font-family="Helvetica,sans-Serif" font-size="10.00">library::Symbol::getTexts</text>
</a>
</g>
<!-- Node4&#45;&gt;Node17 -->
<g id="edge34" class="edge"><title>Node4&#45;&gt;Node17</title>
<path fill="none" stroke="midnightblue" d="M355.107,-428.049C375.092,-439.196 402.512,-453.415 428,-463 434.406,-465.409 441.212,-467.622 448.038,-469.627"/>
<polygon fill="midnightblue" stroke="midnightblue" points="447.436,-473.092 458.009,-472.413 449.32,-466.351 447.436,-473.092"/>
</g>
<!-- Node18 -->
<g id="node36" class="node"><title>Node18</title>
<a xlink:href="../../db/df7/classlibrary_1_1_symbol_text.html#ab42d5f674bbe33d8d5a601bedfd7921e" target="_top" xlink:title="library::SymbolText\l::getText">
<polygon fill="white" stroke="black" points="456.5,-420 456.5,-454 557.5,-454 557.5,-420 456.5,-420"/>
<text text-anchor="start" x="464.5" y="-441" font-family="Helvetica,sans-Serif" font-size="10.00">library::SymbolText</text>
<text text-anchor="middle" x="507" y="-428" font-family="Helvetica,sans-Serif" font-size="10.00">::getText</text>
</a>
</g>
<!-- Node4&#45;&gt;Node18 -->
<g id="edge36" class="edge"><title>Node4&#45;&gt;Node18</title>
<path fill="none" stroke="midnightblue" d="M391.601,-420.423C409.446,-422.987 428.691,-425.751 446.254,-428.274"/>
<polygon fill="midnightblue" stroke="midnightblue" points="445.981,-431.771 456.377,-429.728 446.976,-424.842 445.981,-431.771"/>
</g>
<!-- Node19 -->
<g id="node38" class="node"><title>Node19</title>
<a xlink:href="../../d9/d41/class_i_f___attribute_provider.html#a64e9824168a64622ace994d0ce6dd8ba" target="_top" xlink:title="Replace all variables in a text with their attribute values. ">
<polygon fill="white" stroke="black" points="428.5,-368 428.5,-402 585.5,-402 585.5,-368 428.5,-368"/>
<text text-anchor="start" x="436.5" y="-389" font-family="Helvetica,sans-Serif" font-size="10.00">IF_AttributeProvider</text>
<text text-anchor="middle" x="507" y="-376" font-family="Helvetica,sans-Serif" font-size="10.00">::replaceVariablesWithAttributes</text>
</a>
</g>
<!-- Node4&#45;&gt;Node19 -->
<g id="edge38" class="edge"><title>Node4&#45;&gt;Node19</title>
<path fill="none" stroke="midnightblue" d="M391.601,-401.577C400.275,-400.331 409.279,-399.037 418.261,-397.747"/>
<polygon fill="midnightblue" stroke="midnightblue" points="418.972,-401.181 428.373,-396.295 417.977,-394.252 418.972,-401.181"/>
</g>
<!-- Node20 -->
<g id="node40" class="node"><title>Node20</title>
<a xlink:href="../../db/df7/classlibrary_1_1_symbol_text.html#a0956fb9eaa66799447596d95c6f1e46d" target="_top" xlink:title="library::SymbolText\l::getHeight">
<polygon fill="white" stroke="black" points="456.5,-316 456.5,-350 557.5,-350 557.5,-316 456.5,-316"/>
<text text-anchor="start" x="464.5" y="-337" font-family="Helvetica,sans-Serif" font-size="10.00">library::SymbolText</text>
<text text-anchor="middle" x="507" y="-324" font-family="Helvetica,sans-Serif" font-size="10.00">::getHeight</text>
</a>
</g>
<!-- Node4&#45;&gt;Node20 -->
<g id="edge40" class="edge"><title>Node4&#45;&gt;Node20</title>
<path fill="none" stroke="midnightblue" d="M356.665,-393.805C376.619,-383.009 403.413,-369.242 428,-359 434.09,-356.463 440.522,-354.004 446.98,-351.675"/>
<polygon fill="midnightblue" stroke="midnightblue" points="448.147,-354.975 456.425,-348.363 445.83,-348.37 448.147,-354.975"/>
</g>
<!-- Node21 -->
<g id="node42" class="node"><title>Node21</title>
<a xlink:href="../../db/df7/classlibrary_1_1_symbol_text.html#a8c33abf636eed65eeeccb22558ba0880" target="_top" xlink:title="library::SymbolText\l::getAlign">
<polygon fill="white" stroke="black" points="456.5,-264 456.5,-298 557.5,-298 557.5,-264 456.5,-264"/>
<text text-anchor="start" x="464.5" y="-285" font-family="Helvetica,sans-Serif" font-size="10.00">library::SymbolText</text>
<text text-anchor="middle" x="507" y="-272" font-family="Helvetica,sans-Serif" font-size="10.00">::getAlign</text>
</a>
</g>
<!-- Node4&#45;&gt;Node21 -->
<g id="edge42" class="edge"><title>Node4&#45;&gt;Node21</title>
<path fill="none" stroke="midnightblue" d="M338.585,-393.767C356.168,-370.851 390.206,-330.512 428,-307 433.848,-303.362 440.26,-300.176 446.823,-297.402"/>
<polygon fill="midnightblue" stroke="midnightblue" points="448.454,-300.522 456.497,-293.625 445.909,-294.001 448.454,-300.522"/>
</g>
<!-- Node22 -->
<g id="node44" class="node"><title>Node22</title>
<a xlink:href="../../df/de9/class_alignment.html#a4fbb4767912b1fed45bc601018994247" target="_top" xlink:title="Alignment::toQtAlign">
<polygon fill="white" stroke="black" points="453.5,-224.5 453.5,-245.5 560.5,-245.5 560.5,-224.5 453.5,-224.5"/>
<text text-anchor="middle" x="507" y="-232.5" font-family="Helvetica,sans-Serif" font-size="10.00">Alignment::toQtAlign</text>
</a>
</g>
<!-- Node4&#45;&gt;Node22 -->
<g id="edge44" class="edge"><title>Node4&#45;&gt;Node22</title>
<path fill="none" stroke="midnightblue" d="M332.256,-393.898C345.006,-361.522 377.165,-291.279 428,-255 432.795,-251.578 438.121,-248.74 443.677,-246.386"/>
<polygon fill="midnightblue" stroke="midnightblue" points="445.029,-249.618 453.193,-242.866 442.6,-243.053 445.029,-249.618"/>
</g>
<!-- Node25 -->
<g id="node50" class="node"><title>Node25</title>
<a xlink:href="../../db/df7/classlibrary_1_1_symbol_text.html#a01f0e165edb023b0c50cdbfd70f36021" target="_top" xlink:title="library::SymbolText\l::getRotation">
<polygon fill="white" stroke="black" points="456.5,-172 456.5,-206 557.5,-206 557.5,-172 456.5,-172"/>
<text text-anchor="start" x="464.5" y="-193" font-family="Helvetica,sans-Serif" font-size="10.00">library::SymbolText</text>
<text text-anchor="middle" x="507" y="-180" font-family="Helvetica,sans-Serif" font-size="10.00">::getRotation</text>
</a>
</g>
<!-- Node4&#45;&gt;Node25 -->
<g id="edge50" class="edge"><title>Node4&#45;&gt;Node25</title>
<path fill="none" stroke="midnightblue" d="M330.191,-393.815C340.316,-355.908 369.688,-264.561 428,-215 433.597,-210.243 440.09,-206.349 446.901,-203.165"/>
<polygon fill="midnightblue" stroke="midnightblue" points="448.44,-206.315 456.332,-199.246 445.754,-199.851 448.44,-206.315"/>
</g>
<!-- Node26 -->
<g id="node52" class="node"><title>Node26</title>
<a xlink:href="../../de/d50/classproject_1_1_s_i___symbol.html#a01f0e165edb023b0c50cdbfd70f36021" target="_top" xlink:title="getRotation">
<polygon fill="white" stroke="black" points="473.5,-132.5 473.5,-153.5 540.5,-153.5 540.5,-132.5 473.5,-132.5"/>
<text text-anchor="middle" x="507" y="-140.5" font-family="Helvetica,sans-Serif" font-size="10.00">getRotation</text>
</a>
</g>
<!-- Node4&#45;&gt;Node26 -->
<g id="edge52" class="edge"><title>Node4&#45;&gt;Node26</title>
<path fill="none" stroke="midnightblue" d="M327.819,-393.833C333.542,-348.72 355.363,-225.976 428,-163 437.869,-154.444 450.894,-149.458 463.515,-146.58"/>
<polygon fill="midnightblue" stroke="midnightblue" points="464.307,-149.992 473.483,-144.695 463.006,-143.114 464.307,-149.992"/>
</g>
<!-- Node27 -->
<g id="node55" class="node"><title>Node27</title>
<a xlink:href="../../d2/d39/class_angle.html#a7f29e0cf68871bab5b01569d78de4504" target="_top" xlink:title="90 degrees ">
<polygon fill="white" stroke="black" points="470,-92.5 470,-113.5 544,-113.5 544,-92.5 470,-92.5"/>
<text text-anchor="middle" x="507" y="-100.5" font-family="Helvetica,sans-Serif" font-size="10.00">Angle::deg90</text>
</a>
</g>
<!-- Node4&#45;&gt;Node27 -->
<g id="edge56" class="edge"><title>Node4&#45;&gt;Node27</title>
<path fill="none" stroke="midnightblue" d="M326.723,-393.714C329.779,-343.767 345.68,-198.042 428,-123 436.734,-115.038 448.179,-110.143 459.636,-107.161"/>
<polygon fill="midnightblue" stroke="midnightblue" points="460.603,-110.533 469.64,-105.003 459.127,-103.69 460.603,-110.533"/>
</g>
<!-- Node29 -->
<g id="node59" class="node"><title>Node29</title>
<a xlink:href="../../db/df7/classlibrary_1_1_symbol_text.html#ae23dd3ab799e9f70a4037eea91f69a82" target="_top" xlink:title="library::SymbolText\l::getPosition">
<polygon fill="white" stroke="black" points="456.5,-40 456.5,-74 557.5,-74 557.5,-40 456.5,-40"/>
<text text-anchor="start" x="464.5" y="-61" font-family="Helvetica,sans-Serif" font-size="10.00">library::SymbolText</text>
<text text-anchor="middle" x="507" y="-48" font-family="Helvetica,sans-Serif" font-size="10.00">::getPosition</text>
</a>
</g>
<!-- Node4&#45;&gt;Node29 -->
<g id="edge60" class="edge"><title>Node4&#45;&gt;Node29</title>
<path fill="none" stroke="midnightblue" d="M329.221,-393.694C340.886,-332.729 382.626,-129.127 428,-83 433.291,-77.6216 439.713,-73.3556 446.584,-69.972"/>
<polygon fill="midnightblue" stroke="midnightblue" points="448.343,-73.0266 456.167,-65.8832 445.596,-66.5881 448.343,-73.0266"/>
</g>
<!-- Node30 -->
<g id="node62" class="node"><title>Node30</title>
<a xlink:href="../../df/de9/class_alignment.html#a5e73aa1977269073f3ce5f2af38443a0" target="_top" xlink:title="Alignment::mirrored">
<polygon fill="white" stroke="black" points="456.5,-0.5 456.5,-21.5 557.5,-21.5 557.5,-0.5 456.5,-0.5"/>
<text text-anchor="middle" x="507" y="-8.5" font-family="Helvetica,sans-Serif" font-size="10.00">Alignment::mirrored</text>
</a>
</g>
<!-- Node4&#45;&gt;Node30 -->
<g id="edge64" class="edge"><title>Node4&#45;&gt;Node30</title>
<path fill="none" stroke="midnightblue" d="M328.309,-393.699C337.621,-326.476 374.491,-83.75 428,-31 433.264,-25.8103 439.671,-21.9059 446.534,-18.9784"/>
<polygon fill="midnightblue" stroke="midnightblue" points="447.868,-22.2186 456.111,-15.5627 445.516,-15.6254 447.868,-22.2186"/>
</g>
<!-- Node6&#45;&gt;Node7 -->
<g id="edge12" class="edge"><title>Node6&#45;&gt;Node7</title>
<path fill="none" stroke="midnightblue" d="M524.868,-728.057C541.078,-743.667 565.502,-767.532 586,-789 602.517,-806.299 601.541,-816.611 622,-829 627.415,-832.279 633.354,-835.024 639.464,-837.321"/>
<polygon fill="midnightblue" stroke="midnightblue" points="638.559,-840.709 649.153,-840.574 640.787,-834.073 638.559,-840.709"/>
</g>
<!-- Node9 -->
<g id="node17" class="node"><title>Node9</title>
<a xlink:href="../../d9/d94/classlibrary_1_1_symbol_polygon_segment.html#a894842161e505b56d67b0cf5b0f50087" target="_top" xlink:title="library::SymbolPolygonSegment\l::getAngle">
<polygon fill="white" stroke="black" points="622,-746 622,-780 778,-780 778,-746 622,-746"/>
<text text-anchor="start" x="630" y="-767" font-family="Helvetica,sans-Serif" font-size="10.00">library::SymbolPolygonSegment</text>
<text text-anchor="middle" x="700" y="-754" font-family="Helvetica,sans-Serif" font-size="10.00">::getAngle</text>
</a>
</g>
<!-- Node6&#45;&gt;Node9 -->
<g id="edge16" class="edge"><title>Node6&#45;&gt;Node9</title>
<path fill="none" stroke="midnightblue" d="M565.692,-726.814C585.04,-732.026 606.795,-737.888 627.072,-743.351"/>
<polygon fill="midnightblue" stroke="midnightblue" points="626.323,-746.774 636.89,-745.996 628.145,-740.015 626.323,-746.774"/>
</g>
<!-- Node10 -->
<g id="node19" class="node"><title>Node10</title>
<a xlink:href="../../d9/d94/classlibrary_1_1_symbol_polygon_segment.html#af89771a9eb5882eaee9f298f663f89dc" target="_top" xlink:title="library::SymbolPolygonSegment\l::getEndPos">
<polygon fill="white" stroke="black" points="622,-694 622,-728 778,-728 778,-694 622,-694"/>
<text text-anchor="start" x="630" y="-715" font-family="Helvetica,sans-Serif" font-size="10.00">library::SymbolPolygonSegment</text>
<text text-anchor="middle" x="700" y="-702" font-family="Helvetica,sans-Serif" font-size="10.00">::getEndPos</text>
</a>
</g>
<!-- Node6&#45;&gt;Node10 -->
<g id="edge18" class="edge"><title>Node6&#45;&gt;Node10</title>
<path fill="none" stroke="midnightblue" d="M565.692,-711C580.157,-711 595.968,-711 611.501,-711"/>
<polygon fill="midnightblue" stroke="midnightblue" points="611.651,-714.5 621.651,-711 611.651,-707.5 611.651,-714.5"/>
</g>
<!-- Node11 -->
<g id="node21" class="node"><title>Node11</title>
<a xlink:href="../../d2/d39/class_angle.html#a70d223e0c1188606f971188d6f23b66f" target="_top" xlink:title="Get the angle in radians. ">
<polygon fill="white" stroke="black" points="663,-654.5 663,-675.5 737,-675.5 737,-654.5 663,-654.5"/>
<text text-anchor="middle" x="700" y="-662.5" font-family="Helvetica,sans-Serif" font-size="10.00">Angle::toRad</text>
</a>
</g>
<!-- Node6&#45;&gt;Node11 -->
<g id="edge20" class="edge"><title>Node6&#45;&gt;Node11</title>
<path fill="none" stroke="midnightblue" d="M565.692,-697.011C593.719,-690.331 626.799,-682.447 653.116,-676.174"/>
<polygon fill="midnightblue" stroke="midnightblue" points="653.931,-679.578 662.847,-673.855 652.308,-672.769 653.931,-679.578"/>
</g>
<!-- Node12 -->
<g id="node23" class="node"><title>Node12</title>
<a xlink:href="../../d2/d39/class_angle.html#ae76e6384199e1c899025c103affd862f" target="_top" xlink:title="Get an Angle object which is mapped to [&#45;180..+180[ degrees. ">
<polygon fill="white" stroke="black" points="637.5,-614.5 637.5,-635.5 762.5,-635.5 762.5,-614.5 637.5,-614.5"/>
<text text-anchor="middle" x="700" y="-622.5" font-family="Helvetica,sans-Serif" font-size="10.00">Angle::mappedTo180deg</text>
</a>
</g>
<!-- Node6&#45;&gt;Node12 -->
<g id="edge22" class="edge"><title>Node6&#45;&gt;Node12</title>
<path fill="none" stroke="midnightblue" d="M532.023,-693.985C554.667,-679.245 589.371,-658.26 622,-645 627.864,-642.617 634.095,-640.451 640.378,-638.5"/>
<polygon fill="midnightblue" stroke="midnightblue" points="641.635,-641.779 650.25,-635.611 639.669,-635.061 641.635,-641.779"/>
</g>
<!-- Node14 -->
<g id="node27" class="node"><title>Node14</title>
<a xlink:href="../../d2/d39/class_angle.html#ad2926beabd4d66cc5bc1ac4c622540ea" target="_top" xlink:title="Get the Angle in degrees. ">
<polygon fill="white" stroke="black" points="663,-798.5 663,-819.5 737,-819.5 737,-798.5 663,-798.5"/>
<text text-anchor="middle" x="700" y="-806.5" font-family="Helvetica,sans-Serif" font-size="10.00">Angle::toDeg</text>
</a>
</g>
<!-- Node6&#45;&gt;Node14 -->
<g id="edge26" class="edge"><title>Node6&#45;&gt;Node14</title>
<path fill="none" stroke="midnightblue" d="M527.31,-728.005C549.331,-745.637 586.151,-772.84 622,-789 631.755,-793.397 642.649,-796.953 653.129,-799.777"/>
<polygon fill="midnightblue" stroke="midnightblue" points="652.448,-803.215 663,-802.264 654.158,-796.427 652.448,-803.215"/>
</g>
<!-- Node7&#45;&gt;Node8 -->
<g id="edge14" class="edge"><title>Node7&#45;&gt;Node8</title>
<path fill="none" stroke="midnightblue" d="M750.706,-854.701C773.536,-857.267 800.306,-860.277 822.601,-862.784"/>
<polygon fill="midnightblue" stroke="midnightblue" points="822.495,-866.294 832.823,-863.933 823.277,-859.337 822.495,-866.294"/>
</g>
<!-- Node12&#45;&gt;Node13 -->
<g id="edge24" class="edge"><title>Node12&#45;&gt;Node13</title>
<path fill="none" stroke="midnightblue" d="M762.929,-617.925C776.39,-616.412 790.634,-614.81 804.165,-613.289"/>
<polygon fill="midnightblue" stroke="midnightblue" points="804.803,-616.74 814.349,-612.144 804.021,-609.783 804.803,-616.74"/>
</g>
<!-- Node23 -->
<g id="node46" class="node"><title>Node23</title>
<a xlink:href="../../d7/d39/class_h_align.html#a5947e6026a6c38886e5598e032fa7317" target="_top" xlink:title="HAlign::toQtAlignFlag">
<polygon fill="white" stroke="black" points="644.5,-244.5 644.5,-265.5 755.5,-265.5 755.5,-244.5 644.5,-244.5"/>
<text text-anchor="middle" x="700" y="-252.5" font-family="Helvetica,sans-Serif" font-size="10.00">HAlign::toQtAlignFlag</text>
</a>
</g>
<!-- Node22&#45;&gt;Node23 -->
<g id="edge46" class="edge"><title>Node22&#45;&gt;Node23</title>
<path fill="none" stroke="midnightblue" d="M560.505,-240.545C583.346,-242.912 610.227,-245.697 634.264,-248.188"/>
<polygon fill="midnightblue" stroke="midnightblue" points="634.064,-251.686 644.372,-249.235 634.786,-244.723 634.064,-251.686"/>
</g>
<!-- Node24 -->
<g id="node48" class="node"><title>Node24</title>
<a xlink:href="../../d9/dbc/class_v_align.html#a5947e6026a6c38886e5598e032fa7317" target="_top" xlink:title="VAlign::toQtAlignFlag">
<polygon fill="white" stroke="black" points="645,-204.5 645,-225.5 755,-225.5 755,-204.5 645,-204.5"/>
<text text-anchor="middle" x="700" y="-212.5" font-family="Helvetica,sans-Serif" font-size="10.00">VAlign::toQtAlignFlag</text>
</a>
</g>
<!-- Node22&#45;&gt;Node24 -->
<g id="edge48" class="edge"><title>Node22&#45;&gt;Node24</title>
<path fill="none" stroke="midnightblue" d="M560.505,-229.455C583.444,-227.078 610.457,-224.279 634.572,-221.78"/>
<polygon fill="midnightblue" stroke="midnightblue" points="635.124,-225.242 644.71,-220.73 634.402,-218.279 635.124,-225.242"/>
</g>
<!-- Node28 -->
<g id="node57" class="node"><title>Node28</title>
<a xlink:href="../../d2/d39/class_angle.html#ae0cfbf0d84fd0eab0f9dfc1b365b8667" target="_top" xlink:title="Default Constructor. ">
<polygon fill="white" stroke="black" points="664,-92.5 664,-113.5 736,-113.5 736,-92.5 664,-92.5"/>
<text text-anchor="middle" x="700" y="-100.5" font-family="Helvetica,sans-Serif" font-size="10.00">Angle::Angle</text>
</a>
</g>
<!-- Node27&#45;&gt;Node28 -->
<g id="edge58" class="edge"><title>Node27&#45;&gt;Node28</title>
<path fill="none" stroke="midnightblue" d="M544.212,-103C575.482,-103 620.312,-103 653.86,-103"/>
<polygon fill="midnightblue" stroke="midnightblue" points="653.882,-106.5 663.882,-103 653.882,-99.5001 653.882,-106.5"/>
</g>
<!-- Node31 -->
<g id="node64" class="node"><title>Node31</title>
<a xlink:href="../../df/de9/class_alignment.html#ac2a03de30f0ea7f185b8ae3625c8b076" target="_top" xlink:title="Alignment::Alignment">
<polygon fill="white" stroke="black" points="645,-0.5 645,-21.5 755,-21.5 755,-0.5 645,-0.5"/>
<text text-anchor="middle" x="700" y="-8.5" font-family="Helvetica,sans-Serif" font-size="10.00">Alignment::Alignment</text>
</a>
</g>
<!-- Node30&#45;&gt;Node31 -->
<g id="edge66" class="edge"><title>Node30&#45;&gt;Node31</title>
<path fill="none" stroke="midnightblue" d="M557.708,-11C581.267,-11 609.566,-11 634.7,-11"/>
<polygon fill="midnightblue" stroke="midnightblue" points="634.888,-14.5001 644.888,-11 634.888,-7.5001 634.888,-14.5001"/>
</g>
</g>
</svg>
