<?xml version="1.0" encoding="UTF-8" standalone="no"?>
<!DOCTYPE svg PUBLIC "-//W3C//DTD SVG 1.1//EN"
 "http://www.w3.org/Graphics/SVG/1.1/DTD/svg11.dtd">
<!-- Generated by graphviz version 2.26.3 (20100126.1600)
 -->
<!-- Title: mapToScene Pages: 1 -->
<svg width="628pt" height="230pt"
 viewBox="0.00 0.00 628.00 230.00" xmlns="http://www.w3.org/2000/svg" xmlns:xlink="http://www.w3.org/1999/xlink">
<g id="graph1" class="graph" transform="scale(1 1) rotate(0) translate(4 226)">
<title>mapToScene</title>
<polygon fill="white" stroke="white" points="-4,5 -4,-226 625,-226 625,5 -4,5"/>
<!-- Node1 -->
<g id="node1" class="node"><title>Node1</title>
<polygon fill="#bfbfbf" stroke="black" points="0,-100.5 0,-121.5 74,-121.5 74,-100.5 0,-100.5"/>
<text text-anchor="middle" x="37" y="-108.5" font-family="Helvetica,sans-Serif" font-size="10.00">mapToScene</text>
</g>
<!-- Node2 -->
<g id="node3" class="node"><title>Node2</title>
<a xlink:href="../../d0/d69/class_point.html#a5234cfe8b9f31ba928745912067f90b4" target="_top" xlink:title="Get the point rotated by a specific angle with respect to a specific center. ">
<polygon fill="white" stroke="black" points="110.5,-100.5 110.5,-121.5 185.5,-121.5 185.5,-100.5 110.5,-100.5"/>
<text text-anchor="middle" x="148" y="-108.5" font-family="Helvetica,sans-Serif" font-size="10.00">Point::rotated</text>
</a>
</g>
<!-- Node1&#45;&gt;Node2 -->
<g id="edge2" class="edge"><title>Node1&#45;&gt;Node2</title>
<path fill="none" stroke="midnightblue" d="M74.2702,-111C82.5995,-111 91.5451,-111 100.233,-111"/>
<polygon fill="midnightblue" stroke="midnightblue" points="100.261,-114.5 110.261,-111 100.261,-107.5 100.261,-114.5"/>
</g>
<!-- Node3 -->
<g id="node5" class="node"><title>Node3</title>
<a xlink:href="../../d0/d69/class_point.html#af8998fd1f88de65f9467a5d2012710a4" target="_top" xlink:title="Rotate the point by a specific angle with respect to a specific center. ">
<polygon fill="white" stroke="black" points="222,-100.5 222,-121.5 292,-121.5 292,-100.5 222,-100.5"/>
<text text-anchor="middle" x="257" y="-108.5" font-family="Helvetica,sans-Serif" font-size="10.00">Point::rotate</text>
</a>
</g>
<!-- Node2&#45;&gt;Node3 -->
<g id="edge4" class="edge"><title>Node2&#45;&gt;Node3</title>
<path fill="none" stroke="midnightblue" d="M185.512,-111C194.01,-111 203.12,-111 211.896,-111"/>
<polygon fill="midnightblue" stroke="midnightblue" points="211.987,-114.5 221.987,-111 211.987,-107.5 211.987,-114.5"/>
</g>
<!-- Node4 -->
<g id="node7" class="node"><title>Node4</title>
<a xlink:href="../../d2/d39/class_angle.html#afba236b33bef9614cb43142b02c79187" target="_top" xlink:title="Get an Angle object which is mapped to [0..360[ degrees. ">
<polygon fill="white" stroke="black" points="328.5,-200.5 328.5,-221.5 463.5,-221.5 463.5,-200.5 328.5,-200.5"/>
<text text-anchor="middle" x="396" y="-208.5" font-family="Helvetica,sans-Serif" font-size="10.00">Angle::mappedTo0_360deg</text>
</a>
</g>
<!-- Node3&#45;&gt;Node4 -->
<g id="edge6" class="edge"><title>Node3&#45;&gt;Node4</title>
<path fill="none" stroke="midnightblue" d="M263.481,-121.522C274.571,-138.647 298.837,-172.492 328,-191 331.296,-193.091 334.818,-194.972 338.462,-196.661"/>
<polygon fill="midnightblue" stroke="midnightblue" points="337.126,-199.896 347.704,-200.478 339.798,-193.426 337.126,-199.896"/>
</g>
<!-- Node6 -->
<g id="node11" class="node"><title>Node6</title>
<a xlink:href="../../d2/d39/class_angle.html#a7f29e0cf68871bab5b01569d78de4504" target="_top" xlink:title="90 degrees ">
<polygon fill="white" stroke="black" points="359,-160.5 359,-181.5 433,-181.5 433,-160.5 359,-160.5"/>
<text text-anchor="middle" x="396" y="-168.5" font-family="Helvetica,sans-Serif" font-size="10.00">Angle::deg90</text>
</a>
</g>
<!-- Node3&#45;&gt;Node6 -->
<g id="edge10" class="edge"><title>Node3&#45;&gt;Node6</title>
<path fill="none" stroke="midnightblue" d="M273.382,-121.648C287.434,-130.43 308.45,-142.744 328,-151 334.703,-153.83 341.936,-156.42 349.098,-158.729"/>
<polygon fill="midnightblue" stroke="midnightblue" points="348.177,-162.108 358.764,-161.701 350.234,-155.417 348.177,-162.108"/>
</g>
<!-- Node8 -->
<g id="node15" class="node"><title>Node8</title>
<a xlink:href="../../d2/d39/class_angle.html#a1cb5c1054de209f807098188714339d8" target="_top" xlink:title="180 degrees ">
<polygon fill="white" stroke="black" points="356.5,-120.5 356.5,-141.5 435.5,-141.5 435.5,-120.5 356.5,-120.5"/>
<text text-anchor="middle" x="396" y="-128.5" font-family="Helvetica,sans-Serif" font-size="10.00">Angle::deg180</text>
</a>
</g>
<!-- Node3&#45;&gt;Node8 -->
<g id="edge14" class="edge"><title>Node3&#45;&gt;Node8</title>
<path fill="none" stroke="midnightblue" d="M292.076,-116.047C308.345,-118.388 327.982,-121.213 345.786,-123.775"/>
<polygon fill="midnightblue" stroke="midnightblue" points="345.62,-127.287 356.017,-125.247 346.617,-120.358 345.62,-127.287"/>
</g>
<!-- Node9 -->
<g id="node18" class="node"><title>Node9</title>
<a xlink:href="../../d2/d39/class_angle.html#a7600a8b34a9d1abb484a7d459cc45bba" target="_top" xlink:title="270 degrees ">
<polygon fill="white" stroke="black" points="356.5,-80.5 356.5,-101.5 435.5,-101.5 435.5,-80.5 356.5,-80.5"/>
<text text-anchor="middle" x="396" y="-88.5" font-family="Helvetica,sans-Serif" font-size="10.00">Angle::deg270</text>
</a>
</g>
<!-- Node3&#45;&gt;Node9 -->
<g id="edge18" class="edge"><title>Node3&#45;&gt;Node9</title>
<path fill="none" stroke="midnightblue" d="M292.076,-105.953C308.345,-103.612 327.982,-100.787 345.786,-98.2251"/>
<polygon fill="midnightblue" stroke="midnightblue" points="346.617,-101.642 356.017,-96.753 345.62,-94.7129 346.617,-101.642"/>
</g>
<!-- Node10 -->
<g id="node21" class="node"><title>Node10</title>
<a xlink:href="../../d2/d39/class_angle.html#a0bb104c9f39ddaeb30f14b4320e34f2a" target="_top" xlink:title="0 degrees ">
<polygon fill="white" stroke="black" points="362,-40.5 362,-61.5 430,-61.5 430,-40.5 362,-40.5"/>
<text text-anchor="middle" x="396" y="-48.5" font-family="Helvetica,sans-Serif" font-size="10.00">Angle::deg0</text>
</a>
</g>
<!-- Node3&#45;&gt;Node10 -->
<g id="edge22" class="edge"><title>Node3&#45;&gt;Node10</title>
<path fill="none" stroke="midnightblue" d="M273.382,-100.352C287.434,-91.5695 308.45,-79.2555 328,-71 335.656,-67.7669 344.006,-64.8477 352.15,-62.3018"/>
<polygon fill="midnightblue" stroke="midnightblue" points="353.34,-65.5992 361.922,-59.3854 351.338,-58.8915 353.34,-65.5992"/>
</g>
<!-- Node11 -->
<g id="node24" class="node"><title>Node11</title>
<a xlink:href="../../df/df0/class_length.html#ae8a552dd96c343a0a609cebf7731cd26" target="_top" xlink:title="Get the length in nanometers. ">
<polygon fill="white" stroke="black" points="358,-0.5 358,-21.5 434,-21.5 434,-0.5 358,-0.5"/>
<text text-anchor="middle" x="396" y="-8.5" font-family="Helvetica,sans-Serif" font-size="10.00">Length::toNm</text>
</a>
</g>
<!-- Node3&#45;&gt;Node11 -->
<g id="edge26" class="edge"><title>Node3&#45;&gt;Node11</title>
<path fill="none" stroke="midnightblue" d="M263.481,-100.478C274.571,-83.3528 298.837,-49.5076 328,-31 334.143,-27.1015 341.076,-23.9369 348.106,-21.3752"/>
<polygon fill="midnightblue" stroke="midnightblue" points="349.269,-24.6771 357.687,-18.2434 347.095,-18.0235 349.269,-24.6771"/>
</g>
<!-- Node5 -->
<g id="node9" class="node"><title>Node5</title>
<a xlink:href="../../d2/d39/class_angle.html#aa6a6fad8c7af06e21bec6a5fc2b521cc" target="_top" xlink:title="Map this Angle object to [0..360[ degrees. ">
<polygon fill="white" stroke="black" points="500.5,-200.5 500.5,-221.5 619.5,-221.5 619.5,-200.5 500.5,-200.5"/>
<text text-anchor="middle" x="560" y="-208.5" font-family="Helvetica,sans-Serif" font-size="10.00">Angle::mapTo0_360deg</text>
</a>
</g>
<!-- Node4&#45;&gt;Node5 -->
<g id="edge8" class="edge"><title>Node4&#45;&gt;Node5</title>
<path fill="none" stroke="midnightblue" d="M463.652,-211C472.404,-211 481.38,-211 490.166,-211"/>
<polygon fill="midnightblue" stroke="midnightblue" points="490.368,-214.5 500.368,-211 490.368,-207.5 490.368,-214.5"/>
</g>
<!-- Node7 -->
<g id="node13" class="node"><title>Node7</title>
<a xlink:href="../../d2/d39/class_angle.html#ae0cfbf0d84fd0eab0f9dfc1b365b8667" target="_top" xlink:title="Default Constructor. ">
<polygon fill="white" stroke="black" points="524,-100.5 524,-121.5 596,-121.5 596,-100.5 524,-100.5"/>
<text text-anchor="middle" x="560" y="-108.5" font-family="Helvetica,sans-Serif" font-size="10.00">Angle::Angle</text>
</a>
</g>
<!-- Node6&#45;&gt;Node7 -->
<g id="edge12" class="edge"><title>Node6&#45;&gt;Node7</title>
<path fill="none" stroke="midnightblue" d="M433.291,-160.825C443.332,-157.87 454.14,-154.492 464,-151 485.351,-143.437 508.831,-133.681 527.225,-125.697"/>
<polygon fill="midnightblue" stroke="midnightblue" points="528.852,-128.805 536.608,-121.587 526.043,-122.393 528.852,-128.805"/>
</g>
<!-- Node8&#45;&gt;Node7 -->
<g id="edge16" class="edge"><title>Node8&#45;&gt;Node7</title>
<path fill="none" stroke="midnightblue" d="M435.7,-126.159C459.174,-123.296 489.017,-119.656 513.578,-116.661"/>
<polygon fill="midnightblue" stroke="midnightblue" points="514.243,-120.106 523.746,-115.421 513.396,-113.158 514.243,-120.106"/>
</g>
<!-- Node9&#45;&gt;Node7 -->
<g id="edge20" class="edge"><title>Node9&#45;&gt;Node7</title>
<path fill="none" stroke="midnightblue" d="M435.7,-95.8414C459.174,-98.7041 489.017,-102.344 513.578,-105.339"/>
<polygon fill="midnightblue" stroke="midnightblue" points="513.396,-108.842 523.746,-106.579 514.243,-101.894 513.396,-108.842"/>
</g>
<!-- Node10&#45;&gt;Node7 -->
<g id="edge24" class="edge"><title>Node10&#45;&gt;Node7</title>
<path fill="none" stroke="midnightblue" d="M430.129,-60.2509C441.032,-63.4155 453.097,-67.1379 464,-71 485.351,-78.5629 508.831,-88.3194 527.225,-96.3033"/>
<polygon fill="midnightblue" stroke="midnightblue" points="526.043,-99.6069 536.608,-100.413 528.852,-93.195 526.043,-99.6069"/>
</g>
</g>
</svg>
