<?xml version="1.0" encoding="UTF-8" standalone="no"?>
<!DOCTYPE svg PUBLIC "-//W3C//DTD SVG 1.1//EN"
 "http://www.w3.org/Graphics/SVG/1.1/DTD/svg11.dtd">
<!-- Generated by graphviz version 2.26.3 (20100126.1600)
 -->
<!-- Title: /home/travis/build/LibrePCB/LibrePCB/libs/librepcbcommon/graphics/if_graphicsvieweventhandler.h Pages: 1 -->
<svg width="158pt" height="128pt"
 viewBox="0.00 0.00 158.00 128.00" xmlns="http://www.w3.org/2000/svg" xmlns:xlink="http://www.w3.org/1999/xlink">
<g id="graph1" class="graph" transform="scale(1 1) rotate(0) translate(4 124)">
<title>/home/travis/build/LibrePCB/LibrePCB/libs/librepcbcommon/graphics/if_graphicsvieweventhandler.h</title>
<polygon fill="white" stroke="white" points="-4,5 -4,-124 155,-124 155,5 -4,5"/>
<!-- Node1 -->
<g id="node1" class="node"><title>Node1</title>
<polygon fill="#bfbfbf" stroke="black" points="-0.5,-59 -0.5,-119 150.5,-119 150.5,-59 -0.5,-59"/>
<text text-anchor="start" x="7.5" y="-106" font-family="Helvetica,sans-Serif" font-size="10.00">/home/travis/build</text>
<text text-anchor="start" x="7.5" y="-93" font-family="Helvetica,sans-Serif" font-size="10.00">/LibrePCB/LibrePCB/libs</text>
<text text-anchor="start" x="7.5" y="-80" font-family="Helvetica,sans-Serif" font-size="10.00">/librepcbcommon/graphics</text>
<text text-anchor="middle" x="75" y="-67" font-family="Helvetica,sans-Serif" font-size="10.00">/if_graphicsvieweventhandler.h</text>
</g>
<!-- Node2 -->
<g id="node3" class="node"><title>Node2</title>
<polygon fill="white" stroke="#bfbfbf" points="51,-0.5 51,-21.5 99,-21.5 99,-0.5 51,-0.5"/>
<text text-anchor="middle" x="75" y="-8.5" font-family="Helvetica,sans-Serif" font-size="10.00">QtCore</text>
</g>
<!-- Node1&#45;&gt;Node2 -->
<g id="edge2" class="edge"><title>Node1&#45;&gt;Node2</title>
<path fill="none" stroke="midnightblue" d="M75,-58.6198C75,-49.6797 75,-40.1035 75,-31.9002"/>
<polygon fill="midnightblue" stroke="midnightblue" points="78.5001,-31.7534 75,-21.7535 71.5001,-31.7535 78.5001,-31.7534"/>
</g>
</g>
</svg>
