<?xml version="1.0" encoding="UTF-8" standalone="no"?>
<!DOCTYPE svg PUBLIC "-//W3C//DTD SVG 1.1//EN"
 "http://www.w3.org/Graphics/SVG/1.1/DTD/svg11.dtd">
<!-- Generated by graphviz version 2.26.3 (20100126.1600)
 -->
<!-- Title: /home/travis/build/LibrePCB/LibrePCB/libs/librepcbworkspace/moc/moc_workspacesettingsdialog.cpp Pages: 1 -->
<svg width="430pt" height="186pt"
 viewBox="0.00 0.00 430.00 186.00" xmlns="http://www.w3.org/2000/svg" xmlns:xlink="http://www.w3.org/1999/xlink">
<g id="graph1" class="graph" transform="scale(1 1) rotate(0) translate(4 182)">
<title>/home/travis/build/LibrePCB/LibrePCB/libs/librepcbworkspace/moc/moc_workspacesettingsdialog.cpp</title>
<polygon fill="white" stroke="white" points="-4,5 -4,-182 427,-182 427,5 -4,5"/>
<!-- Node1 -->
<g id="node1" class="node"><title>Node1</title>
<polygon fill="#bfbfbf" stroke="black" points="163,-117 163,-177 333,-177 333,-117 163,-117"/>
<text text-anchor="start" x="171" y="-164" font-family="Helvetica,sans-Serif" font-size="10.00">/home/travis/build</text>
<text text-anchor="start" x="171" y="-151" font-family="Helvetica,sans-Serif" font-size="10.00">/LibrePCB/LibrePCB/libs</text>
<text text-anchor="start" x="171" y="-138" font-family="Helvetica,sans-Serif" font-size="10.00">/librepcbworkspace/moc</text>
<text text-anchor="middle" x="248" y="-125" font-family="Helvetica,sans-Serif" font-size="10.00">/moc_workspacesettingsdialog.cpp</text>
</g>
<!-- Node2 -->
<g id="node3" class="node"><title>Node2</title>
<a xlink:href="../../db/dec/workspacesettingsdialog_8h.html" target="_top" xlink:title="../settings/workspacesettingsdialog.h">
<polygon fill="white" stroke="black" points="-0.5,-58.5 -0.5,-79.5 178.5,-79.5 178.5,-58.5 -0.5,-58.5"/>
<text text-anchor="middle" x="89" y="-66.5" font-family="Helvetica,sans-Serif" font-size="10.00">../settings/workspacesettingsdialog.h</text>
</a>
</g>
<!-- Node1&#45;&gt;Node2 -->
<g id="edge2" class="edge"><title>Node1&#45;&gt;Node2</title>
<path fill="none" stroke="midnightblue" d="M186.526,-116.843C163.651,-105.621 138.673,-93.3678 119.722,-84.0713"/>
<polygon fill="midnightblue" stroke="midnightblue" points="121.192,-80.8938 110.672,-79.6317 118.109,-87.1783 121.192,-80.8938"/>
</g>
<!-- Node5 -->
<g id="node9" class="node"><title>Node5</title>
<polygon fill="white" stroke="#bfbfbf" points="195.5,-58.5 195.5,-79.5 300.5,-79.5 300.5,-58.5 195.5,-58.5"/>
<text text-anchor="middle" x="248" y="-66.5" font-family="Helvetica,sans-Serif" font-size="10.00">QtCore/qbytearray.h</text>
</g>
<!-- Node1&#45;&gt;Node5 -->
<g id="edge8" class="edge"><title>Node1&#45;&gt;Node5</title>
<path fill="none" stroke="midnightblue" d="M248,-116.62C248,-107.68 248,-98.1035 248,-89.9002"/>
<polygon fill="midnightblue" stroke="midnightblue" points="251.5,-89.7534 248,-79.7535 244.5,-89.7535 251.5,-89.7534"/>
</g>
<!-- Node6 -->
<g id="node11" class="node"><title>Node6</title>
<polygon fill="white" stroke="#bfbfbf" points="317.5,-58.5 317.5,-79.5 422.5,-79.5 422.5,-58.5 317.5,-58.5"/>
<text text-anchor="middle" x="370" y="-66.5" font-family="Helvetica,sans-Serif" font-size="10.00">QtCore/qmetatype.h</text>
</g>
<!-- Node1&#45;&gt;Node6 -->
<g id="edge10" class="edge"><title>Node1&#45;&gt;Node6</title>
<path fill="none" stroke="midnightblue" d="M295.168,-116.843C312,-106.082 330.314,-94.3732 344.611,-85.2321"/>
<polygon fill="midnightblue" stroke="midnightblue" points="346.831,-87.9672 353.371,-79.6317 343.06,-82.0696 346.831,-87.9672"/>
</g>
<!-- Node3 -->
<g id="node5" class="node"><title>Node3</title>
<polygon fill="white" stroke="#bfbfbf" points="29,-0.5 29,-21.5 77,-21.5 77,-0.5 29,-0.5"/>
<text text-anchor="middle" x="53" y="-8.5" font-family="Helvetica,sans-Serif" font-size="10.00">QtCore</text>
</g>
<!-- Node2&#45;&gt;Node3 -->
<g id="edge4" class="edge"><title>Node2&#45;&gt;Node3</title>
<path fill="none" stroke="midnightblue" d="M82.397,-58.3619C77.5254,-50.5131 70.7616,-39.6159 64.95,-30.2527"/>
<polygon fill="midnightblue" stroke="midnightblue" points="67.8085,-28.2213 59.5611,-21.5707 61.861,-31.9129 67.8085,-28.2213"/>
</g>
<!-- Node4 -->
<g id="node7" class="node"><title>Node4</title>
<polygon fill="white" stroke="#bfbfbf" points="94.5,-0.5 94.5,-21.5 157.5,-21.5 157.5,-0.5 94.5,-0.5"/>
<text text-anchor="middle" x="126" y="-8.5" font-family="Helvetica,sans-Serif" font-size="10.00">QtWidgets</text>
</g>
<!-- Node2&#45;&gt;Node4 -->
<g id="edge6" class="edge"><title>Node2&#45;&gt;Node4</title>
<path fill="none" stroke="midnightblue" d="M95.7864,-58.3619C100.793,-50.5131 107.745,-39.6159 113.718,-30.2527"/>
<polygon fill="midnightblue" stroke="midnightblue" points="116.829,-31.8837 119.257,-21.5707 110.928,-28.1189 116.829,-31.8837"/>
</g>
</g>
</svg>
