<?xml version="1.0" encoding="UTF-8" standalone="no"?>
<!DOCTYPE svg PUBLIC "-//W3C//DTD SVG 1.1//EN"
 "http://www.w3.org/Graphics/SVG/1.1/DTD/svg11.dtd">
<!-- Generated by graphviz version 2.26.3 (20100126.1600)
 -->
<!-- Title: Model3D Pages: 1 -->
<svg width="536pt" height="146pt"
 viewBox="0.00 0.00 536.00 146.00" xmlns="http://www.w3.org/2000/svg" xmlns:xlink="http://www.w3.org/1999/xlink">
<g id="graph1" class="graph" transform="scale(1 1) rotate(0) translate(4 142)">
<title>Model3D</title>
<polygon fill="white" stroke="white" points="-4,5 -4,-142 533,-142 533,5 -4,5"/>
<!-- Node1 -->
<g id="node1" class="node"><title>Node1</title>
<polygon fill="#bfbfbf" stroke="black" points="0,-58.5 0,-79.5 56,-79.5 56,-58.5 0,-58.5"/>
<text text-anchor="middle" x="28" y="-66.5" font-family="Helvetica,sans-Serif" font-size="10.00">Model3D</text>
</g>
<!-- Node2 -->
<g id="node3" class="node"><title>Node2</title>
<a xlink:href="../../dd/d8a/classlibrary_1_1_library_base_element.html#ab6b2b9128217f98c13508797ed0a6080" target="_top" xlink:title="library::LibraryBaseElement\l::readFromFile">
<polygon fill="white" stroke="black" points="92.5,-52 92.5,-86 229.5,-86 229.5,-52 92.5,-52"/>
<text text-anchor="start" x="100.5" y="-73" font-family="Helvetica,sans-Serif" font-size="10.00">library::LibraryBaseElement</text>
<text text-anchor="middle" x="161" y="-60" font-family="Helvetica,sans-Serif" font-size="10.00">::readFromFile</text>
</a>
</g>
<!-- Node1&#45;&gt;Node2 -->
<g id="edge2" class="edge"><title>Node1&#45;&gt;Node2</title>
<path fill="none" stroke="midnightblue" d="M56.2059,-69C64.0455,-69 72.9623,-69 82.2075,-69"/>
<polygon fill="midnightblue" stroke="midnightblue" points="82.333,-72.5001 92.3329,-69 82.3329,-65.5001 82.333,-72.5001"/>
</g>
<!-- Node3 -->
<g id="node5" class="node"><title>Node3</title>
<a xlink:href="../../da/db0/class_smart_xml_file.html#a6685c26dd2c2668f47d5fae96c4c319f" target="_top" xlink:title="Open and parse the XML file and build the whole DOM tree. ">
<polygon fill="white" stroke="black" points="266.5,-104 266.5,-138 405.5,-138 405.5,-104 266.5,-104"/>
<text text-anchor="start" x="274.5" y="-125" font-family="Helvetica,sans-Serif" font-size="10.00">SmartXmlFile::parseFileAnd</text>
<text text-anchor="middle" x="336" y="-112" font-family="Helvetica,sans-Serif" font-size="10.00">BuildDomTree</text>
</a>
</g>
<!-- Node2&#45;&gt;Node3 -->
<g id="edge4" class="edge"><title>Node2&#45;&gt;Node3</title>
<path fill="none" stroke="midnightblue" d="M218.302,-86.0267C234.467,-90.8303 252.2,-96.0995 268.886,-101.058"/>
<polygon fill="midnightblue" stroke="midnightblue" points="267.987,-104.442 278.57,-103.935 269.981,-97.7316 267.987,-104.442"/>
</g>
<!-- Node4 -->
<g id="node7" class="node"><title>Node4</title>
<a xlink:href="../../dd/d8a/classlibrary_1_1_library_base_element.html#ad6c2bb438fe200b1224b2d8e05d3eca0" target="_top" xlink:title="library::LibraryBaseElement\l::parseDomTree">
<polygon fill="white" stroke="black" points="267.5,-52 267.5,-86 404.5,-86 404.5,-52 267.5,-52"/>
<text text-anchor="start" x="275.5" y="-73" font-family="Helvetica,sans-Serif" font-size="10.00">library::LibraryBaseElement</text>
<text text-anchor="middle" x="336" y="-60" font-family="Helvetica,sans-Serif" font-size="10.00">::parseDomTree</text>
</a>
</g>
<!-- Node2&#45;&gt;Node4 -->
<g id="edge6" class="edge"><title>Node2&#45;&gt;Node4</title>
<path fill="none" stroke="midnightblue" d="M229.662,-69C238.637,-69 247.89,-69 257.017,-69"/>
<polygon fill="midnightblue" stroke="midnightblue" points="257.248,-72.5001 267.248,-69 257.248,-65.5001 257.248,-72.5001"/>
</g>
<!-- Node5 -->
<g id="node9" class="node"><title>Node5</title>
<a xlink:href="../../dd/d8a/classlibrary_1_1_library_base_element.html#a524ed0dd8a5522b754411728dfe5c752" target="_top" xlink:title="Check the validity of all attributes of the object. ">
<polygon fill="white" stroke="black" points="267.5,-0 267.5,-34 404.5,-34 404.5,-0 267.5,-0"/>
<text text-anchor="start" x="275.5" y="-21" font-family="Helvetica,sans-Serif" font-size="10.00">library::LibraryBaseElement</text>
<text text-anchor="middle" x="336" y="-8" font-family="Helvetica,sans-Serif" font-size="10.00">::checkAttributesValidity</text>
</a>
</g>
<!-- Node2&#45;&gt;Node5 -->
<g id="edge8" class="edge"><title>Node2&#45;&gt;Node5</title>
<path fill="none" stroke="midnightblue" d="M218.302,-51.9733C234.467,-47.1697 252.2,-41.9005 268.886,-36.9424"/>
<polygon fill="midnightblue" stroke="midnightblue" points="269.981,-40.2684 278.57,-34.065 267.987,-33.5584 269.981,-40.2684"/>
</g>
<!-- Node6 -->
<g id="node11" class="node"><title>Node6</title>
<a xlink:href="../../de/d34/class_version.html#a0a886a9edf5bf682f5245159661bfc94" target="_top" xlink:title="Check if the object represents a valid version number. ">
<polygon fill="white" stroke="black" points="442.5,-6.5 442.5,-27.5 527.5,-27.5 527.5,-6.5 442.5,-6.5"/>
<text text-anchor="middle" x="485" y="-14.5" font-family="Helvetica,sans-Serif" font-size="10.00">Version::isValid</text>
</a>
</g>
<!-- Node5&#45;&gt;Node6 -->
<g id="edge10" class="edge"><title>Node5&#45;&gt;Node6</title>
<path fill="none" stroke="midnightblue" d="M404.83,-17C414.037,-17 423.361,-17 432.234,-17"/>
<polygon fill="midnightblue" stroke="midnightblue" points="432.409,-20.5001 442.409,-17 432.409,-13.5001 432.409,-20.5001"/>
</g>
</g>
</svg>
