<?xml version="1.0" encoding="UTF-8" standalone="no"?>
<!DOCTYPE svg PUBLIC "-//W3C//DTD SVG 1.1//EN"
 "http://www.w3.org/Graphics/SVG/1.1/DTD/svg11.dtd">
<!-- Generated by graphviz version 2.26.3 (20100126.1600)
 -->
<!-- Title: /home/travis/build/LibrePCB/LibrePCB/libs/librepcbproject/boards/graphicsitems Pages: 1 -->
<svg width="197pt" height="225pt"
 viewBox="0.00 0.00 197.33 225.00" xmlns="http://www.w3.org/2000/svg" xmlns:xlink="http://www.w3.org/1999/xlink">
<g id="graph1" class="graph" transform="scale(1 1) rotate(0) translate(4 221)">
<title>/home/travis/build/LibrePCB/LibrePCB/libs/librepcbproject/boards/graphicsitems</title>
<polygon fill="white" stroke="white" points="-4,5 -4,-221 194.326,-221 194.326,5 -4,5"/>
<g id="graph2" class="cluster"><title>clusterdir_bfc0836b8dfba2d01c57a335b4e27ed3</title>
<a xlink:href="dir_bfc0836b8dfba2d01c57a335b4e27ed3.html" target="_top" xlink:title="boards">
<polygon fill="#ddddee" stroke="black" points="8,-136 8,-209 100,-209 100,-136 8,-136"/>
<text text-anchor="middle" x="54" y="-196" font-family="Helvetica,sans-Serif" font-size="10.00">boards</text>
</a>
</g>
<!-- dir_e4b5788b4743299939946b625dbdd9d2 -->
<g id="node2" class="node"><title>dir_e4b5788b4743299939946b625dbdd9d2</title>
<a xlink:href="dir_e4b5788b4743299939946b625dbdd9d2.html" target="_top" xlink:title="graphicsitems">
<polygon fill="#eeeeff" stroke="black" points="92,-180 16,-180 16,-144 92,-144 92,-180"/>
<text text-anchor="middle" x="54" y="-159.5" font-family="Helvetica,sans-Serif" font-size="10.00">graphicsitems</text>
</a>
</g>
<!-- dir_0110be00bf7253264d9d26b59fd0735d -->
<g id="node3" class="node"><title>dir_0110be00bf7253264d9d26b59fd0735d</title>
<a xlink:href="dir_0110be00bf7253264d9d26b59fd0735d.html" target="_top" xlink:title="items">
<polygon fill="none" stroke="black" points="164,-180 110,-180 110,-144 164,-144 164,-180"/>
<text text-anchor="middle" x="137" y="-159.5" font-family="Helvetica,sans-Serif" font-size="10.00">items</text>
</a>
</g>
<!-- dir_e4b5788b4743299939946b625dbdd9d2&#45;&gt;dir_0110be00bf7253264d9d26b59fd0735d -->
<g id="edge13" class="edge"><title>dir_e4b5788b4743299939946b625dbdd9d2&#45;&gt;dir_0110be00bf7253264d9d26b59fd0735d</title>
<path fill="none" stroke="black" d="M92.2578,-162C94.7156,-162 97.1733,-162 99.6311,-162"/>
<polygon fill="black" stroke="black" points="99.7353,-165.5 109.735,-162 99.7352,-158.5 99.7353,-165.5"/>
<a xlink:href="dir_000022_000023.html" target="_top" xlink:title="3">
<text text-anchor="middle" x="96.1406" y="-165.839" font-family="Helvetica,sans-Serif" font-size="10.00">3</text>
</a>
</g>
<!-- dir_efc38cef2ea58e90050d02dbad2a4ede -->
<g id="node4" class="node"><title>dir_efc38cef2ea58e90050d02dbad2a4ede</title>
<a xlink:href="dir_efc38cef2ea58e90050d02dbad2a4ede.html" target="_top" xlink:title="settings">
<polygon fill="white" stroke="red" points="81,-108 27,-108 27,-72 81,-72 81,-108"/>
<text text-anchor="middle" x="54" y="-87.5" font-family="Helvetica,sans-Serif" font-size="10.00">settings</text>
</a>
</g>
<!-- dir_e4b5788b4743299939946b625dbdd9d2&#45;&gt;dir_efc38cef2ea58e90050d02dbad2a4ede -->
<g id="edge15" class="edge"><title>dir_e4b5788b4743299939946b625dbdd9d2&#45;&gt;dir_efc38cef2ea58e90050d02dbad2a4ede</title>
<path fill="none" stroke="black" d="M54,-143.831C54,-136.131 54,-126.974 54,-118.417"/>
<polygon fill="black" stroke="black" points="57.5001,-118.413 54,-108.413 50.5001,-118.413 57.5001,-118.413"/>
<a xlink:href="dir_000022_000034.html" target="_top" xlink:title="1">
<text text-anchor="middle" x="60.3393" y="-119.508" font-family="Helvetica,sans-Serif" font-size="10.00">1</text>
</a>
</g>
<!-- dir_55c01538f0a6d4fce22a43840cf48722 -->
<g id="node5" class="node"><title>dir_55c01538f0a6d4fce22a43840cf48722</title>
<a xlink:href="dir_55c01538f0a6d4fce22a43840cf48722.html" target="_top" xlink:title="librepcblibrary">
<polygon fill="white" stroke="red" points="175,-108 99,-108 99,-72 175,-72 175,-108"/>
<text text-anchor="middle" x="137" y="-87.5" font-family="Helvetica,sans-Serif" font-size="10.00">librepcblibrary</text>
</a>
</g>
<!-- dir_e4b5788b4743299939946b625dbdd9d2&#45;&gt;dir_55c01538f0a6d4fce22a43840cf48722 -->
<g id="edge17" class="edge"><title>dir_e4b5788b4743299939946b625dbdd9d2&#45;&gt;dir_55c01538f0a6d4fce22a43840cf48722</title>
<path fill="none" stroke="black" d="M74.9444,-143.831C85.0691,-135.048 97.3777,-124.371 108.355,-114.849"/>
<polygon fill="black" stroke="black" points="110.802,-117.359 116.062,-108.163 106.215,-112.072 110.802,-117.359"/>
<a xlink:href="dir_000022_000009.html" target="_top" xlink:title="2">
<text text-anchor="middle" x="109.947" y="-119.36" font-family="Helvetica,sans-Serif" font-size="10.00">2</text>
</a>
</g>
<!-- dir_2093dc0e773f0ae75a86b05835aba5e8 -->
<g id="node6" class="node"><title>dir_2093dc0e773f0ae75a86b05835aba5e8</title>
<a xlink:href="dir_2093dc0e773f0ae75a86b05835aba5e8.html" target="_top" xlink:title="librepcbcommon">
<polygon fill="white" stroke="red" points="139,-36 51,-36 51,-1.77636e-14 139,-3.55271e-15 139,-36"/>
<text text-anchor="middle" x="95" y="-15.5" font-family="Helvetica,sans-Serif" font-size="10.00">librepcbcommon</text>
</a>
</g>
<!-- dir_e4b5788b4743299939946b625dbdd9d2&#45;&gt;dir_2093dc0e773f0ae75a86b05835aba5e8 -->
<g id="edge19" class="edge"><title>dir_e4b5788b4743299939946b625dbdd9d2&#45;&gt;dir_2093dc0e773f0ae75a86b05835aba5e8</title>
<path fill="none" stroke="black" d="M37.6418,-143.947C22.9601,-125.437 5.49813,-96.0373 18,-72 24.3639,-59.7642 34.9112,-49.7239 46.1885,-41.7624"/>
<polygon fill="black" stroke="black" points="48.4367,-44.4745 54.8973,-36.0774 44.6103,-38.6129 48.4367,-44.4745"/>
<a xlink:href="dir_000022_000003.html" target="_top" xlink:title="3">
<text text-anchor="middle" x="46.9787" y="-46.3169" font-family="Helvetica,sans-Serif" font-size="10.00">3</text>
</a>
</g>
<!-- dir_0110be00bf7253264d9d26b59fd0735d&#45;&gt;dir_e4b5788b4743299939946b625dbdd9d2 -->
<g id="edge5" class="edge"><title>dir_0110be00bf7253264d9d26b59fd0735d&#45;&gt;dir_e4b5788b4743299939946b625dbdd9d2</title>
<path fill="none" stroke="black" d="M109.735,-162C107.277,-162 104.82,-162 102.362,-162"/>
<polygon fill="black" stroke="black" points="102.258,-158.5 92.2578,-162 102.258,-165.5 102.258,-158.5"/>
<a xlink:href="dir_000023_000022.html" target="_top" xlink:title="2">
<text text-anchor="middle" x="105.852" y="-153.161" font-family="Helvetica,sans-Serif" font-size="10.00">2</text>
</a>
</g>
<!-- dir_0110be00bf7253264d9d26b59fd0735d&#45;&gt;dir_efc38cef2ea58e90050d02dbad2a4ede -->
<g id="edge3" class="edge"><title>dir_0110be00bf7253264d9d26b59fd0735d&#45;&gt;dir_efc38cef2ea58e90050d02dbad2a4ede</title>
<path fill="none" stroke="black" d="M116.056,-143.831C105.931,-135.048 93.6223,-124.371 82.6452,-114.849"/>
<polygon fill="black" stroke="black" points="84.7851,-112.072 74.9377,-108.163 80.1981,-117.359 84.7851,-112.072"/>
<a xlink:href="dir_000023_000034.html" target="_top" xlink:title="1">
<text text-anchor="middle" x="89.3609" y="-109.782" font-family="Helvetica,sans-Serif" font-size="10.00">1</text>
</a>
</g>
<!-- dir_0110be00bf7253264d9d26b59fd0735d&#45;&gt;dir_55c01538f0a6d4fce22a43840cf48722 -->
<g id="edge7" class="edge"><title>dir_0110be00bf7253264d9d26b59fd0735d&#45;&gt;dir_55c01538f0a6d4fce22a43840cf48722</title>
<path fill="none" stroke="black" d="M137,-143.831C137,-136.131 137,-126.974 137,-118.417"/>
<polygon fill="black" stroke="black" points="140.5,-118.413 137,-108.413 133.5,-118.413 140.5,-118.413"/>
<a xlink:href="dir_000023_000009.html" target="_top" xlink:title="5">
<text text-anchor="middle" x="143.339" y="-119.508" font-family="Helvetica,sans-Serif" font-size="10.00">5</text>
</a>
</g>
<!-- dir_0110be00bf7253264d9d26b59fd0735d&#45;&gt;dir_2093dc0e773f0ae75a86b05835aba5e8 -->
<g id="edge9" class="edge"><title>dir_0110be00bf7253264d9d26b59fd0735d&#45;&gt;dir_2093dc0e773f0ae75a86b05835aba5e8</title>
<path fill="none" stroke="black" d="M158.767,-143.816C168.472,-134.282 178.86,-121.735 184,-108 189.608,-93.015 191.849,-85.9426 184,-72 175.924,-57.6535 162.326,-46.6796 148.159,-38.4946"/>
<polygon fill="black" stroke="black" points="149.777,-35.3905 139.309,-33.7535 146.471,-41.5609 149.777,-35.3905"/>
<a xlink:href="dir_000023_000003.html" target="_top" xlink:title="6">
<text text-anchor="middle" x="154.286" y="-32.0851" font-family="Helvetica,sans-Serif" font-size="10.00">6</text>
</a>
</g>
<!-- dir_efc38cef2ea58e90050d02dbad2a4ede&#45;&gt;dir_2093dc0e773f0ae75a86b05835aba5e8 -->
<g id="edge11" class="edge"><title>dir_efc38cef2ea58e90050d02dbad2a4ede&#45;&gt;dir_2093dc0e773f0ae75a86b05835aba5e8</title>
<path fill="none" stroke="black" d="M64.346,-71.8314C68.9237,-63.7925 74.4052,-54.1666 79.4588,-45.2918"/>
<polygon fill="black" stroke="black" points="82.6077,-46.8351 84.5147,-36.4133 76.5248,-43.3712 82.6077,-46.8351"/>
<a xlink:href="dir_000034_000003.html" target="_top" xlink:title="6">
<text text-anchor="middle" x="83.2963" y="-48.8637" font-family="Helvetica,sans-Serif" font-size="10.00">6</text>
</a>
</g>
<!-- dir_55c01538f0a6d4fce22a43840cf48722&#45;&gt;dir_2093dc0e773f0ae75a86b05835aba5e8 -->
<g id="edge21" class="edge"><title>dir_55c01538f0a6d4fce22a43840cf48722&#45;&gt;dir_2093dc0e773f0ae75a86b05835aba5e8</title>
<path fill="none" stroke="black" d="M126.402,-71.8314C121.712,-63.7925 116.097,-54.1666 110.92,-45.2918"/>
<polygon fill="black" stroke="black" points="113.803,-43.2875 105.741,-36.4133 107.757,-46.8146 113.803,-43.2875"/>
<a xlink:href="dir_000009_000003.html" target="_top" xlink:title="66">
<text text-anchor="middle" x="118.067" y="-42.4618" font-family="Helvetica,sans-Serif" font-size="10.00">66</text>
</a>
</g>
</g>
</svg>
