<?xml version="1.0" encoding="UTF-8" standalone="no"?>
<!DOCTYPE svg PUBLIC "-//W3C//DTD SVG 1.1//EN"
 "http://www.w3.org/Graphics/SVG/1.1/DTD/svg11.dtd">
<!-- Generated by graphviz version 2.26.3 (20100126.1600)
 -->
<!-- Title: paint Pages: 1 -->
<svg width="562pt" height="1096pt"
 viewBox="0.00 0.00 562.00 1096.00" xmlns="http://www.w3.org/2000/svg" xmlns:xlink="http://www.w3.org/1999/xlink">
<g id="graph1" class="graph" transform="scale(1 1) rotate(0) translate(4 1092)">
<title>paint</title>
<polygon fill="white" stroke="white" points="-4,5 -4,-1092 559,-1092 559,5 -4,5"/>
<!-- Node1 -->
<g id="node1" class="node"><title>Node1</title>
<polygon fill="#bfbfbf" stroke="black" points="0,-560.5 0,-581.5 38,-581.5 38,-560.5 0,-560.5"/>
<text text-anchor="middle" x="19" y="-568.5" font-family="Helvetica,sans-Serif" font-size="10.00">paint</text>
</g>
<!-- Node2 -->
<g id="node3" class="node"><title>Node2</title>
<a xlink:href="../../d9/db9/classlibrary_1_1_symbol.html#aa8dd7ebe32db86a2f2124e341482d48c" target="_top" xlink:title="library::Symbol::getPolygons">
<polygon fill="white" stroke="black" points="74,-1066.5 74,-1087.5 216,-1087.5 216,-1066.5 74,-1066.5"/>
<text text-anchor="middle" x="145" y="-1074.5" font-family="Helvetica,sans-Serif" font-size="10.00">library::Symbol::getPolygons</text>
</a>
</g>
<!-- Node1&#45;&gt;Node2 -->
<g id="edge2" class="edge"><title>Node1&#45;&gt;Node2</title>
<path fill="none" stroke="midnightblue" d="M19.4973,-581.583C22.7658,-649.227 42.0361,-1019.39 74,-1057 75.0108,-1058.19 76.0862,-1059.31 77.2179,-1060.37"/>
<polygon fill="midnightblue" stroke="midnightblue" points="75.2984,-1063.3 85.4134,-1066.45 79.472,-1057.68 75.2984,-1063.3"/>
</g>
<!-- Node3 -->
<g id="node5" class="node"><title>Node3</title>
<a xlink:href="../../d5/d3f/class_i_f___schematic_layer_provider.html#a5a425a8094b81c6a554e241947a2e53c" target="_top" xlink:title="Get the schematic layer with a specific ID. ">
<polygon fill="white" stroke="black" points="76.5,-1014 76.5,-1048 213.5,-1048 213.5,-1014 76.5,-1014"/>
<text text-anchor="start" x="84.5" y="-1035" font-family="Helvetica,sans-Serif" font-size="10.00">IF_SchematicLayerProvider</text>
<text text-anchor="middle" x="145" y="-1022" font-family="Helvetica,sans-Serif" font-size="10.00">::getSchematicLayer</text>
</a>
</g>
<!-- Node1&#45;&gt;Node3 -->
<g id="edge4" class="edge"><title>Node1&#45;&gt;Node3</title>
<path fill="none" stroke="midnightblue" d="M19.689,-581.627C23.8784,-644.927 46.663,-970.7 74,-1005 74.5906,-1005.74 75.2044,-1006.46 75.8395,-1007.16"/>
<polygon fill="midnightblue" stroke="midnightblue" points="73.5915,-1009.85 83.3813,-1013.9 78.2544,-1004.62 73.5915,-1009.85"/>
</g>
<!-- Node4 -->
<g id="node7" class="node"><title>Node4</title>
<a xlink:href="../../d1/d7f/classlibrary_1_1_symbol_polygon.html#a3e5bed84d61dd74a10b6ace249c85efe" target="_top" xlink:title="library::SymbolPolygon\l::getLayerId">
<polygon fill="white" stroke="black" points="86.5,-962 86.5,-996 203.5,-996 203.5,-962 86.5,-962"/>
<text text-anchor="start" x="94.5" y="-983" font-family="Helvetica,sans-Serif" font-size="10.00">library::SymbolPolygon</text>
<text text-anchor="middle" x="145" y="-970" font-family="Helvetica,sans-Serif" font-size="10.00">::getLayerId</text>
</a>
</g>
<!-- Node1&#45;&gt;Node4 -->
<g id="edge6" class="edge"><title>Node1&#45;&gt;Node4</title>
<path fill="none" stroke="midnightblue" d="M19.1033,-581.581C19.8489,-637.015 25.8884,-893.672 74,-953 75.3022,-954.606 76.713,-956.112 78.214,-957.526"/>
<polygon fill="midnightblue" stroke="midnightblue" points="76.3347,-960.497 86.3861,-963.847 80.6174,-954.96 76.3347,-960.497"/>
</g>
<!-- Node5 -->
<g id="node9" class="node"><title>Node5</title>
<a xlink:href="../../dc/d5a/class_schematic_layer.html#aab73dfcfb2d157cdf8df0db760f6cb53" target="_top" xlink:title="SchematicLayer::getColor">
<polygon fill="white" stroke="black" points="80,-922.5 80,-943.5 210,-943.5 210,-922.5 80,-922.5"/>
<text text-anchor="middle" x="145" y="-930.5" font-family="Helvetica,sans-Serif" font-size="10.00">SchematicLayer::getColor</text>
</a>
</g>
<!-- Node1&#45;&gt;Node5 -->
<g id="edge8" class="edge"><title>Node1&#45;&gt;Node5</title>
<path fill="none" stroke="midnightblue" d="M19.2178,-581.552C20.5033,-633.56 28.6919,-862.151 74,-913 75.1714,-914.315 76.4218,-915.546 77.7393,-916.699"/>
<polygon fill="midnightblue" stroke="midnightblue" points="75.7474,-919.577 85.9366,-922.48 79.7821,-913.856 75.7474,-919.577"/>
</g>
<!-- Node6 -->
<g id="node11" class="node"><title>Node6</title>
<a xlink:href="../../d1/d7f/classlibrary_1_1_symbol_polygon.html#a69af915a70be9a59f27a36ef42fe7606" target="_top" xlink:title="library::SymbolPolygon\l::getWidth">
<polygon fill="white" stroke="black" points="86.5,-870 86.5,-904 203.5,-904 203.5,-870 86.5,-870"/>
<text text-anchor="start" x="94.5" y="-891" font-family="Helvetica,sans-Serif" font-size="10.00">library::SymbolPolygon</text>
<text text-anchor="middle" x="145" y="-878" font-family="Helvetica,sans-Serif" font-size="10.00">::getWidth</text>
</a>
</g>
<!-- Node1&#45;&gt;Node6 -->
<g id="edge10" class="edge"><title>Node1&#45;&gt;Node6</title>
<path fill="none" stroke="midnightblue" d="M19.7561,-581.8C23.215,-628.431 38.894,-812.13 74,-856 76.3662,-858.957 79.0707,-861.638 82.0106,-864.069"/>
<polygon fill="midnightblue" stroke="midnightblue" points="80.0916,-866.999 90.2715,-869.935 84.1446,-861.292 80.0916,-866.999"/>
</g>
<!-- Node7 -->
<g id="node13" class="node"><title>Node7</title>
<a xlink:href="../../df/df0/class_length.html#abf9a817a583f3939aea7bffdeeb7b235" target="_top" xlink:title="Get the length in pixels (for QGraphics* objects) ">
<polygon fill="white" stroke="black" points="463,-809.5 463,-830.5 535,-830.5 535,-809.5 463,-809.5"/>
<text text-anchor="middle" x="499" y="-817.5" font-family="Helvetica,sans-Serif" font-size="10.00">Length::toPx</text>
</a>
</g>
<!-- Node1&#45;&gt;Node7 -->
<g id="edge12" class="edge"><title>Node1&#45;&gt;Node7</title>
<path fill="none" stroke="midnightblue" d="M19.6041,-581.505C22.3559,-625.211 35.2864,-791.824 74,-823 131.031,-868.926 355.092,-841.836 452.906,-827.343"/>
<polygon fill="midnightblue" stroke="midnightblue" points="453.435,-830.803 462.803,-825.855 452.394,-823.881 453.435,-830.803"/>
</g>
<!-- Node8 -->
<g id="node15" class="node"><title>Node8</title>
<a xlink:href="../../d1/d7f/classlibrary_1_1_symbol_polygon.html#a063b16509d6e11ebd444f0d4253ff43e" target="_top" xlink:title="library::SymbolPolygon\l::isFilled">
<polygon fill="white" stroke="black" points="86.5,-780 86.5,-814 203.5,-814 203.5,-780 86.5,-780"/>
<text text-anchor="start" x="94.5" y="-801" font-family="Helvetica,sans-Serif" font-size="10.00">library::SymbolPolygon</text>
<text text-anchor="middle" x="145" y="-788" font-family="Helvetica,sans-Serif" font-size="10.00">::isFilled</text>
</a>
</g>
<!-- Node1&#45;&gt;Node8 -->
<g id="edge14" class="edge"><title>Node1&#45;&gt;Node8</title>
<path fill="none" stroke="midnightblue" d="M20.598,-581.509C26.4184,-618.537 47.537,-742.254 74,-771 75.2225,-772.328 76.5184,-773.588 77.8765,-774.784"/>
<polygon fill="midnightblue" stroke="midnightblue" points="76.1268,-777.843 86.2538,-780.956 80.279,-772.207 76.1268,-777.843"/>
</g>
<!-- Node9 -->
<g id="node17" class="node"><title>Node9</title>
<a xlink:href="../../d1/d7f/classlibrary_1_1_symbol_polygon.html#afb5593c9c44f491b400edfa695fea7dc" target="_top" xlink:title="library::SymbolPolygon\l::isGrabArea">
<polygon fill="white" stroke="black" points="86.5,-728 86.5,-762 203.5,-762 203.5,-728 86.5,-728"/>
<text text-anchor="start" x="94.5" y="-749" font-family="Helvetica,sans-Serif" font-size="10.00">library::SymbolPolygon</text>
<text text-anchor="middle" x="145" y="-736" font-family="Helvetica,sans-Serif" font-size="10.00">::isGrabArea</text>
</a>
</g>
<!-- Node1&#45;&gt;Node9 -->
<g id="edge16" class="edge"><title>Node1&#45;&gt;Node9</title>
<path fill="none" stroke="midnightblue" d="M20.297,-581.832C23.9622,-607.924 36.6774,-674.979 74,-714 76.9808,-717.116 80.3286,-719.939 83.9048,-722.491"/>
<polygon fill="midnightblue" stroke="midnightblue" points="82.2721,-725.599 92.5984,-727.97 86.0042,-719.677 82.2721,-725.599"/>
</g>
<!-- Node10 -->
<g id="node19" class="node"><title>Node10</title>
<a xlink:href="../../d1/d7f/classlibrary_1_1_symbol_polygon.html#a0c155e27c8e6d8f1cd3a8443b7bad250" target="_top" xlink:title="library::SymbolPolygon\l::toQPainterPathPx">
<polygon fill="white" stroke="black" points="86.5,-638 86.5,-672 203.5,-672 203.5,-638 86.5,-638"/>
<text text-anchor="start" x="94.5" y="-659" font-family="Helvetica,sans-Serif" font-size="10.00">library::SymbolPolygon</text>
<text text-anchor="middle" x="145" y="-646" font-family="Helvetica,sans-Serif" font-size="10.00">::toQPainterPathPx</text>
</a>
</g>
<!-- Node1&#45;&gt;Node10 -->
<g id="edge18" class="edge"><title>Node1&#45;&gt;Node10</title>
<path fill="none" stroke="midnightblue" d="M27.8283,-581.51C38.007,-593.113 55.7001,-611.766 74,-624 79.1366,-627.434 84.7159,-630.634 90.4137,-633.573"/>
<polygon fill="midnightblue" stroke="midnightblue" points="88.8968,-636.727 99.4182,-637.973 91.9701,-630.437 88.8968,-636.727"/>
</g>
<!-- Node11 -->
<g id="node21" class="node"><title>Node11</title>
<a xlink:href="../../d0/d69/class_point.html#a3fb0d1120536f2a889eac1e5e88b9ac5" target="_top" xlink:title="Get the point as a QPointF object in pixels (for QGraphics* objects) ">
<polygon fill="white" stroke="black" points="279.5,-788.5 279.5,-809.5 380.5,-809.5 380.5,-788.5 279.5,-788.5"/>
<text text-anchor="middle" x="330" y="-796.5" font-family="Helvetica,sans-Serif" font-size="10.00">Point::toPxQPointF</text>
</a>
</g>
<!-- Node1&#45;&gt;Node11 -->
<g id="edge48" class="edge"><title>Node1&#45;&gt;Node11</title>
<path fill="none" stroke="midnightblue" d="M21.2241,-581.598C26.4073,-603.604 41.408,-654.411 74,-681 124.623,-722.299 163.83,-679.674 216,-719 240.833,-737.719 227.069,-760.411 252,-779 257.222,-782.894 263.127,-786.032 269.293,-788.562"/>
<polygon fill="midnightblue" stroke="midnightblue" points="268.543,-792.01 279.138,-792.057 270.885,-785.413 268.543,-792.01"/>
</g>
<!-- Node17 -->
<g id="node34" class="node"><title>Node17</title>
<a xlink:href="../../d2/d39/class_angle.html#ad2926beabd4d66cc5bc1ac4c622540ea" target="_top" xlink:title="Get the Angle in degrees. ">
<polygon fill="white" stroke="black" points="293,-564.5 293,-585.5 367,-585.5 367,-564.5 293,-564.5"/>
<text text-anchor="middle" x="330" y="-572.5" font-family="Helvetica,sans-Serif" font-size="10.00">Angle::toDeg</text>
</a>
</g>
<!-- Node1&#45;&gt;Node17 -->
<g id="edge62" class="edge"><title>Node1&#45;&gt;Node17</title>
<path fill="none" stroke="midnightblue" d="M38.1445,-579.83C48.5148,-584.13 61.6923,-588.832 74,-591 146.156,-603.712 231.307,-593.475 282.944,-584.537"/>
<polygon fill="midnightblue" stroke="midnightblue" points="283.583,-587.978 292.811,-582.774 282.351,-581.087 283.583,-587.978"/>
</g>
<!-- Node18 -->
<g id="node36" class="node"><title>Node18</title>
<a xlink:href="../../d9/db9/classlibrary_1_1_symbol.html#ad066e5ebc05b8304981ceac6bf90a2c5" target="_top" xlink:title="library::Symbol::getEllipses">
<polygon fill="white" stroke="black" points="77,-560.5 77,-581.5 213,-581.5 213,-560.5 77,-560.5"/>
<text text-anchor="middle" x="145" y="-568.5" font-family="Helvetica,sans-Serif" font-size="10.00">library::Symbol::getEllipses</text>
</a>
</g>
<!-- Node1&#45;&gt;Node18 -->
<g id="edge36" class="edge"><title>Node1&#45;&gt;Node18</title>
<path fill="none" stroke="midnightblue" d="M38.1367,-571C46.171,-571 56.0947,-571 66.6292,-571"/>
<polygon fill="midnightblue" stroke="midnightblue" points="66.8746,-574.5 76.8746,-571 66.8745,-567.5 66.8746,-574.5"/>
</g>
<!-- Node19 -->
<g id="node38" class="node"><title>Node19</title>
<a xlink:href="../../d3/d06/classlibrary_1_1_symbol_ellipse.html#a3e5bed84d61dd74a10b6ace249c85efe" target="_top" xlink:title="library::SymbolEllipse\l::getLayerId">
<polygon fill="white" stroke="black" points="89.5,-508 89.5,-542 200.5,-542 200.5,-508 89.5,-508"/>
<text text-anchor="start" x="97.5" y="-529" font-family="Helvetica,sans-Serif" font-size="10.00">library::SymbolEllipse</text>
<text text-anchor="middle" x="145" y="-516" font-family="Helvetica,sans-Serif" font-size="10.00">::getLayerId</text>
</a>
</g>
<!-- Node1&#45;&gt;Node19 -->
<g id="edge38" class="edge"><title>Node1&#45;&gt;Node19</title>
<path fill="none" stroke="midnightblue" d="M38.1367,-564.014C51.7377,-559.048 70.7534,-552.106 88.9801,-545.452"/>
<polygon fill="midnightblue" stroke="midnightblue" points="90.2134,-548.727 98.4067,-542.01 87.8128,-542.152 90.2134,-548.727"/>
</g>
<!-- Node20 -->
<g id="node40" class="node"><title>Node20</title>
<a xlink:href="../../d3/d06/classlibrary_1_1_symbol_ellipse.html#aa30becedcca7c51ed0ffbefdfe4f21b2" target="_top" xlink:title="library::SymbolEllipse\l::getLineWidth">
<polygon fill="white" stroke="black" points="89.5,-456 89.5,-490 200.5,-490 200.5,-456 89.5,-456"/>
<text text-anchor="start" x="97.5" y="-477" font-family="Helvetica,sans-Serif" font-size="10.00">library::SymbolEllipse</text>
<text text-anchor="middle" x="145" y="-464" font-family="Helvetica,sans-Serif" font-size="10.00">::getLineWidth</text>
</a>
</g>
<!-- Node1&#45;&gt;Node20 -->
<g id="edge40" class="edge"><title>Node1&#45;&gt;Node20</title>
<path fill="none" stroke="midnightblue" d="M24.4929,-560.429C33.073,-544.884 51.0746,-515.883 74,-499 76.0347,-497.502 78.1649,-496.082 80.3647,-494.736"/>
<polygon fill="midnightblue" stroke="midnightblue" points="82.062,-497.797 89.1397,-489.913 78.6903,-491.663 82.062,-497.797"/>
</g>
<!-- Node21 -->
<g id="node42" class="node"><title>Node21</title>
<a xlink:href="../../d3/d06/classlibrary_1_1_symbol_ellipse.html#a063b16509d6e11ebd444f0d4253ff43e" target="_top" xlink:title="library::SymbolEllipse\l::isFilled">
<polygon fill="white" stroke="black" points="89.5,-404 89.5,-438 200.5,-438 200.5,-404 89.5,-404"/>
<text text-anchor="start" x="97.5" y="-425" font-family="Helvetica,sans-Serif" font-size="10.00">library::SymbolEllipse</text>
<text text-anchor="middle" x="145" y="-412" font-family="Helvetica,sans-Serif" font-size="10.00">::isFilled</text>
</a>
</g>
<!-- Node1&#45;&gt;Node21 -->
<g id="edge42" class="edge"><title>Node1&#45;&gt;Node21</title>
<path fill="none" stroke="midnightblue" d="M20.8068,-560.415C25.3836,-536.763 39.6068,-479.181 74,-447 76.1118,-445.024 78.3859,-443.196 80.7788,-441.504"/>
<polygon fill="midnightblue" stroke="midnightblue" points="82.6203,-444.481 89.309,-436.264 78.9562,-438.516 82.6203,-444.481"/>
</g>
<!-- Node22 -->
<g id="node44" class="node"><title>Node22</title>
<a xlink:href="../../d3/d06/classlibrary_1_1_symbol_ellipse.html#afb5593c9c44f491b400edfa695fea7dc" target="_top" xlink:title="library::SymbolEllipse\l::isGrabArea">
<polygon fill="white" stroke="black" points="89.5,-352 89.5,-386 200.5,-386 200.5,-352 89.5,-352"/>
<text text-anchor="start" x="97.5" y="-373" font-family="Helvetica,sans-Serif" font-size="10.00">library::SymbolEllipse</text>
<text text-anchor="middle" x="145" y="-360" font-family="Helvetica,sans-Serif" font-size="10.00">::isGrabArea</text>
</a>
</g>
<!-- Node1&#45;&gt;Node22 -->
<g id="edge44" class="edge"><title>Node1&#45;&gt;Node22</title>
<path fill="none" stroke="midnightblue" d="M21.0473,-560.345C27.8126,-526.124 50.369,-419.797 74,-395 76.0376,-392.862 78.2655,-390.899 80.6345,-389.096"/>
<polygon fill="midnightblue" stroke="midnightblue" points="82.6752,-391.945 89.1611,-383.567 78.8665,-386.071 82.6752,-391.945"/>
</g>
<!-- Node23 -->
<g id="node46" class="node"><title>Node23</title>
<a xlink:href="../../d3/d06/classlibrary_1_1_symbol_ellipse.html#a566b4b0cdb76d02a8b4cc69df41d780d" target="_top" xlink:title="library::SymbolEllipse\l::getCenter">
<polygon fill="white" stroke="black" points="89.5,-300 89.5,-334 200.5,-334 200.5,-300 89.5,-300"/>
<text text-anchor="start" x="97.5" y="-321" font-family="Helvetica,sans-Serif" font-size="10.00">library::SymbolEllipse</text>
<text text-anchor="middle" x="145" y="-308" font-family="Helvetica,sans-Serif" font-size="10.00">::getCenter</text>
</a>
</g>
<!-- Node1&#45;&gt;Node23 -->
<g id="edge46" class="edge"><title>Node1&#45;&gt;Node23</title>
<path fill="none" stroke="midnightblue" d="M20.2215,-560.451C25.0842,-520.13 44.2572,-376.353 74,-343 76.0067,-340.75 78.2249,-338.694 80.6004,-336.816"/>
<polygon fill="midnightblue" stroke="midnightblue" points="82.8181,-339.544 89.2048,-331.091 78.9404,-333.716 82.8181,-339.544"/>
</g>
<!-- Node24 -->
<g id="node49" class="node"><title>Node24</title>
<a xlink:href="../../d3/d06/classlibrary_1_1_symbol_ellipse.html#aa72fc430fe3e7b7ce145fa2e72169b00" target="_top" xlink:title="library::SymbolEllipse\l::getRadiusX">
<polygon fill="white" stroke="black" points="89.5,-248 89.5,-282 200.5,-282 200.5,-248 89.5,-248"/>
<text text-anchor="start" x="97.5" y="-269" font-family="Helvetica,sans-Serif" font-size="10.00">library::SymbolEllipse</text>
<text text-anchor="middle" x="145" y="-256" font-family="Helvetica,sans-Serif" font-size="10.00">::getRadiusX</text>
</a>
</g>
<!-- Node1&#45;&gt;Node24 -->
<g id="edge50" class="edge"><title>Node1&#45;&gt;Node24</title>
<path fill="none" stroke="midnightblue" d="M19.7178,-560.335C23.017,-514.294 38.1262,-333.003 74,-291 75.9981,-288.661 78.2255,-286.532 80.6234,-284.594"/>
<polygon fill="midnightblue" stroke="midnightblue" points="83.0095,-287.207 89.3478,-278.717 79.0986,-281.401 83.0095,-287.207"/>
</g>
<!-- Node25 -->
<g id="node51" class="node"><title>Node25</title>
<a xlink:href="../../d3/d06/classlibrary_1_1_symbol_ellipse.html#a24917dabaf5342a7c8d60416bc304a2e" target="_top" xlink:title="library::SymbolEllipse\l::getRadiusY">
<polygon fill="white" stroke="black" points="89.5,-196 89.5,-230 200.5,-230 200.5,-196 89.5,-196"/>
<text text-anchor="start" x="97.5" y="-217" font-family="Helvetica,sans-Serif" font-size="10.00">library::SymbolEllipse</text>
<text text-anchor="middle" x="145" y="-204" font-family="Helvetica,sans-Serif" font-size="10.00">::getRadiusY</text>
</a>
</g>
<!-- Node1&#45;&gt;Node25 -->
<g id="edge52" class="edge"><title>Node1&#45;&gt;Node25</title>
<path fill="none" stroke="midnightblue" d="M19.3534,-560.485C21.2625,-509.661 31.8759,-289.835 74,-239 75.963,-236.631 78.1618,-234.478 80.5365,-232.521"/>
<polygon fill="midnightblue" stroke="midnightblue" points="82.9238,-235.129 89.2025,-226.595 78.9723,-229.351 82.9238,-235.129"/>
</g>
<!-- Node26 -->
<g id="node53" class="node"><title>Node26</title>
<a xlink:href="../../d9/db9/classlibrary_1_1_symbol.html#af3e51c69f130dab1acd01d41105c4ea3" target="_top" xlink:title="library::Symbol::getTexts">
<polygon fill="white" stroke="black" points="82,-156.5 82,-177.5 208,-177.5 208,-156.5 82,-156.5"/>
<text text-anchor="middle" x="145" y="-164.5" font-family="Helvetica,sans-Serif" font-size="10.00">library::Symbol::getTexts</text>
</a>
</g>
<!-- Node1&#45;&gt;Node26 -->
<g id="edge54" class="edge"><title>Node1&#45;&gt;Node26</title>
<path fill="none" stroke="midnightblue" d="M19.8277,-560.442C24.527,-501.633 48.5432,-216.069 74,-187 75.0282,-185.826 76.1195,-184.718 77.2654,-183.673"/>
<polygon fill="midnightblue" stroke="midnightblue" points="79.5121,-186.367 85.534,-177.65 75.3904,-180.709 79.5121,-186.367"/>
</g>
<!-- Node27 -->
<g id="node55" class="node"><title>Node27</title>
<a xlink:href="../../db/df7/classlibrary_1_1_symbol_text.html#a3e5bed84d61dd74a10b6ace249c85efe" target="_top" xlink:title="library::SymbolText\l::getLayerId">
<polygon fill="white" stroke="black" points="94.5,-104 94.5,-138 195.5,-138 195.5,-104 94.5,-104"/>
<text text-anchor="start" x="102.5" y="-125" font-family="Helvetica,sans-Serif" font-size="10.00">library::SymbolText</text>
<text text-anchor="middle" x="145" y="-112" font-family="Helvetica,sans-Serif" font-size="10.00">::getLayerId</text>
</a>
</g>
<!-- Node1&#45;&gt;Node27 -->
<g id="edge56" class="edge"><title>Node1&#45;&gt;Node27</title>
<path fill="none" stroke="midnightblue" d="M19.7334,-560.212C24.0905,-497.394 47.2914,-180.41 74,-147 77.2466,-142.939 81.1883,-139.512 85.5322,-136.62"/>
<polygon fill="midnightblue" stroke="midnightblue" points="87.2998,-139.642 94.3046,-131.693 83.8718,-133.538 87.2998,-139.642"/>
</g>
<!-- Node28 -->
<g id="node57" class="node"><title>Node28</title>
<a xlink:href="../../db/df7/classlibrary_1_1_symbol_text.html#ae23dd3ab799e9f70a4037eea91f69a82" target="_top" xlink:title="library::SymbolText\l::getPosition">
<polygon fill="white" stroke="black" points="94.5,-52 94.5,-86 195.5,-86 195.5,-52 94.5,-52"/>
<text text-anchor="start" x="102.5" y="-73" font-family="Helvetica,sans-Serif" font-size="10.00">library::SymbolText</text>
<text text-anchor="middle" x="145" y="-60" font-family="Helvetica,sans-Serif" font-size="10.00">::getPosition</text>
</a>
</g>
<!-- Node1&#45;&gt;Node28 -->
<g id="edge58" class="edge"><title>Node1&#45;&gt;Node28</title>
<path fill="none" stroke="midnightblue" d="M19.5721,-560.233C23.2296,-493.039 44.1362,-132.897 74,-95 77.2182,-90.9162 81.1402,-87.4736 85.4713,-84.5717"/>
<polygon fill="midnightblue" stroke="midnightblue" points="87.2377,-87.5938 94.2267,-79.631 83.7976,-81.4974 87.2377,-87.5938"/>
</g>
<!-- Node29 -->
<g id="node59" class="node"><title>Node29</title>
<a xlink:href="../../db/df7/classlibrary_1_1_symbol_text.html#a01f0e165edb023b0c50cdbfd70f36021" target="_top" xlink:title="library::SymbolText\l::getRotation">
<polygon fill="white" stroke="black" points="94.5,-0 94.5,-34 195.5,-34 195.5,-0 94.5,-0"/>
<text text-anchor="start" x="102.5" y="-21" font-family="Helvetica,sans-Serif" font-size="10.00">library::SymbolText</text>
<text text-anchor="middle" x="145" y="-8" font-family="Helvetica,sans-Serif" font-size="10.00">::getRotation</text>
</a>
</g>
<!-- Node1&#45;&gt;Node29 -->
<g id="edge60" class="edge"><title>Node1&#45;&gt;Node29</title>
<path fill="none" stroke="midnightblue" d="M19.4337,-560.465C22.4316,-489.727 40.9388,-85.4428 74,-43 77.1952,-38.8981 81.1013,-35.4432 85.422,-32.5331"/>
<polygon fill="midnightblue" stroke="midnightblue" points="87.1875,-35.5556 94.1637,-27.5816 83.7375,-29.4647 87.1875,-35.5556"/>
</g>
<!-- Node10&#45;&gt;Node11 -->
<g id="edge20" class="edge"><title>Node10&#45;&gt;Node11</title>
<path fill="none" stroke="midnightblue" d="M197.391,-672.041C204.232,-675.859 210.695,-680.465 216,-686 246.67,-717.997 218.861,-749.568 252,-779 257.127,-783.553 263.152,-787.096 269.543,-789.848"/>
<polygon fill="midnightblue" stroke="midnightblue" points="268.514,-793.198 279.107,-793.34 270.915,-786.623 268.514,-793.198"/>
</g>
<!-- Node12 -->
<g id="node24" class="node"><title>Node12</title>
<a xlink:href="../../d9/d94/classlibrary_1_1_symbol_polygon_segment.html#a894842161e505b56d67b0cf5b0f50087" target="_top" xlink:title="library::SymbolPolygonSegment\l::getAngle">
<polygon fill="white" stroke="black" points="252,-736 252,-770 408,-770 408,-736 252,-736"/>
<text text-anchor="start" x="260" y="-757" font-family="Helvetica,sans-Serif" font-size="10.00">library::SymbolPolygonSegment</text>
<text text-anchor="middle" x="330" y="-744" font-family="Helvetica,sans-Serif" font-size="10.00">::getAngle</text>
</a>
</g>
<!-- Node10&#45;&gt;Node12 -->
<g id="edge24" class="edge"><title>Node10&#45;&gt;Node12</title>
<path fill="none" stroke="midnightblue" d="M192.057,-672.049C200.393,-676.027 208.723,-680.684 216,-686 235.581,-700.305 231.796,-713.589 252,-727 254.263,-728.502 256.621,-729.925 259.047,-731.272"/>
<polygon fill="midnightblue" stroke="midnightblue" points="257.575,-734.449 268.081,-735.82 260.723,-728.197 257.575,-734.449"/>
</g>
<!-- Node13 -->
<g id="node26" class="node"><title>Node13</title>
<a xlink:href="../../d9/d94/classlibrary_1_1_symbol_polygon_segment.html#af89771a9eb5882eaee9f298f663f89dc" target="_top" xlink:title="library::SymbolPolygonSegment\l::getEndPos">
<polygon fill="white" stroke="black" points="252,-684 252,-718 408,-718 408,-684 252,-684"/>
<text text-anchor="start" x="260" y="-705" font-family="Helvetica,sans-Serif" font-size="10.00">library::SymbolPolygonSegment</text>
<text text-anchor="middle" x="330" y="-692" font-family="Helvetica,sans-Serif" font-size="10.00">::getEndPos</text>
</a>
</g>
<!-- Node10&#45;&gt;Node13 -->
<g id="edge26" class="edge"><title>Node10&#45;&gt;Node13</title>
<path fill="none" stroke="midnightblue" d="M203.535,-669.555C218.789,-673.347 235.473,-677.496 251.575,-681.5"/>
<polygon fill="midnightblue" stroke="midnightblue" points="250.958,-684.953 261.507,-683.969 252.647,-678.16 250.958,-684.953"/>
</g>
<!-- Node14 -->
<g id="node28" class="node"><title>Node14</title>
<a xlink:href="../../d2/d39/class_angle.html#a70d223e0c1188606f971188d6f23b66f" target="_top" xlink:title="Get the angle in radians. ">
<polygon fill="white" stroke="black" points="293,-644.5 293,-665.5 367,-665.5 367,-644.5 293,-644.5"/>
<text text-anchor="middle" x="330" y="-652.5" font-family="Helvetica,sans-Serif" font-size="10.00">Angle::toRad</text>
</a>
</g>
<!-- Node10&#45;&gt;Node14 -->
<g id="edge28" class="edge"><title>Node10&#45;&gt;Node14</title>
<path fill="none" stroke="midnightblue" d="M203.535,-655C228.986,-655 258.42,-655 282.485,-655"/>
<polygon fill="midnightblue" stroke="midnightblue" points="282.785,-658.5 292.785,-655 282.785,-651.5 282.785,-658.5"/>
</g>
<!-- Node15 -->
<g id="node30" class="node"><title>Node15</title>
<a xlink:href="../../d2/d39/class_angle.html#ae76e6384199e1c899025c103affd862f" target="_top" xlink:title="Get an Angle object which is mapped to [&#45;180..+180[ degrees. ">
<polygon fill="white" stroke="black" points="267.5,-604.5 267.5,-625.5 392.5,-625.5 392.5,-604.5 267.5,-604.5"/>
<text text-anchor="middle" x="330" y="-612.5" font-family="Helvetica,sans-Serif" font-size="10.00">Angle::mappedTo180deg</text>
</a>
</g>
<!-- Node10&#45;&gt;Node15 -->
<g id="edge30" class="edge"><title>Node10&#45;&gt;Node15</title>
<path fill="none" stroke="midnightblue" d="M203.535,-642.344C225.102,-637.681 249.53,-632.399 271.126,-627.729"/>
<polygon fill="midnightblue" stroke="midnightblue" points="272.117,-631.096 281.151,-625.562 270.638,-624.254 272.117,-631.096"/>
</g>
<!-- Node10&#45;&gt;Node17 -->
<g id="edge34" class="edge"><title>Node10&#45;&gt;Node17</title>
<path fill="none" stroke="midnightblue" d="M189.101,-637.926C198.222,-633.797 207.603,-629.089 216,-624 233.57,-613.351 233.632,-604.205 252,-595 261.566,-590.206 272.384,-586.491 282.851,-583.638"/>
<polygon fill="midnightblue" stroke="midnightblue" points="283.878,-586.989 292.726,-581.16 282.175,-580.199 283.878,-586.989"/>
</g>
<!-- Node11&#45;&gt;Node7 -->
<g id="edge22" class="edge"><title>Node11&#45;&gt;Node7</title>
<path fill="none" stroke="midnightblue" d="M380.706,-805.301C403.536,-808.138 430.306,-811.464 452.601,-814.234"/>
<polygon fill="midnightblue" stroke="midnightblue" points="452.468,-817.745 462.823,-815.505 453.331,-810.798 452.468,-817.745"/>
</g>
<!-- Node16 -->
<g id="node32" class="node"><title>Node16</title>
<a xlink:href="../../d2/d39/class_angle.html#a74e05120ac11f78df41f0a0304990f9f" target="_top" xlink:title="Map this Angle object to [&#45;180..+180[ degrees. ">
<polygon fill="white" stroke="black" points="444.5,-604.5 444.5,-625.5 553.5,-625.5 553.5,-604.5 444.5,-604.5"/>
<text text-anchor="middle" x="499" y="-612.5" font-family="Helvetica,sans-Serif" font-size="10.00">Angle::mapTo180deg</text>
</a>
</g>
<!-- Node15&#45;&gt;Node16 -->
<g id="edge32" class="edge"><title>Node15&#45;&gt;Node16</title>
<path fill="none" stroke="midnightblue" d="M392.929,-615C406.39,-615 420.634,-615 434.165,-615"/>
<polygon fill="midnightblue" stroke="midnightblue" points="434.349,-618.5 444.349,-615 434.349,-611.5 434.349,-618.5"/>
</g>
</g>
</svg>
