<?xml version="1.0" encoding="UTF-8" standalone="no"?>
<!DOCTYPE svg PUBLIC "-//W3C//DTD SVG 1.1//EN"
 "http://www.w3.org/Graphics/SVG/1.1/DTD/svg11.dtd">
<!-- Generated by graphviz version 2.26.3 (20100126.1600)
 -->
<!-- Title: ~ProjectEditor Pages: 1 -->
<svg width="760pt" height="213pt"
 viewBox="0.00 0.00 760.00 213.00" xmlns="http://www.w3.org/2000/svg" xmlns:xlink="http://www.w3.org/1999/xlink">
<g id="graph1" class="graph" transform="scale(1 1) rotate(0) translate(4 209)">
<title>~ProjectEditor</title>
<polygon fill="white" stroke="white" points="-4,5 -4,-209 757,-209 757,5 -4,5"/>
<!-- Node1 -->
<g id="node1" class="node"><title>Node1</title>
<polygon fill="#bfbfbf" stroke="black" points="0.5,-102.5 0.5,-123.5 79.5,-123.5 79.5,-102.5 0.5,-102.5"/>
<text text-anchor="middle" x="40" y="-110.5" font-family="Helvetica,sans-Serif" font-size="10.00">~ProjectEditor</text>
</g>
<!-- Node2 -->
<g id="node3" class="node"><title>Node2</title>
<a xlink:href="../../dd/d24/classproject_1_1_schematic_editor.html#a4d7d2f41d1a418c7de0a99641752bd9a" target="_top" xlink:title="project::SchematicEditor\l::abortAllCommands">
<polygon fill="white" stroke="black" points="130,-171 130,-205 254,-205 254,-171 130,-171"/>
<text text-anchor="start" x="138" y="-192" font-family="Helvetica,sans-Serif" font-size="10.00">project::SchematicEditor</text>
<text text-anchor="middle" x="192" y="-179" font-family="Helvetica,sans-Serif" font-size="10.00">::abortAllCommands</text>
</a>
</g>
<!-- Node1&#45;&gt;Node2 -->
<g id="edge2" class="edge"><title>Node1&#45;&gt;Node2</title>
<path fill="none" stroke="midnightblue" d="M54.2329,-123.683C69.0579,-134.44 93.2533,-150.98 116,-162 119.741,-163.813 123.642,-165.556 127.614,-167.221"/>
<polygon fill="midnightblue" stroke="midnightblue" points="126.386,-170.499 136.971,-170.961 128.984,-163.999 126.386,-170.499"/>
</g>
<!-- Node3 -->
<g id="node5" class="node"><title>Node3</title>
<a xlink:href="../../d4/dfb/classproject_1_1_board_editor.html#a4d7d2f41d1a418c7de0a99641752bd9a" target="_top" xlink:title="project::BoardEditor\l::abortAllCommands">
<polygon fill="white" stroke="black" points="139,-119 139,-153 245,-153 245,-119 139,-119"/>
<text text-anchor="start" x="147" y="-140" font-family="Helvetica,sans-Serif" font-size="10.00">project::BoardEditor</text>
<text text-anchor="middle" x="192" y="-127" font-family="Helvetica,sans-Serif" font-size="10.00">::abortAllCommands</text>
</a>
</g>
<!-- Node1&#45;&gt;Node3 -->
<g id="edge4" class="edge"><title>Node1&#45;&gt;Node3</title>
<path fill="none" stroke="midnightblue" d="M79.5394,-118.983C94.5453,-121.254 112.036,-123.9 128.691,-126.42"/>
<polygon fill="midnightblue" stroke="midnightblue" points="128.512,-129.933 138.923,-127.969 129.559,-123.012 128.512,-129.933"/>
</g>
<!-- Node4 -->
<g id="node7" class="node"><title>Node4</title>
<a xlink:href="../../d4/d90/class_undo_stack.html#ab672ee441d03b6d0d82f86fa6b238f56" target="_top" xlink:title="Check if a command is active at the moment (see mCommandActive) ">
<polygon fill="white" stroke="black" points="116,-79.5 116,-100.5 268,-100.5 268,-79.5 116,-79.5"/>
<text text-anchor="middle" x="192" y="-87.5" font-family="Helvetica,sans-Serif" font-size="10.00">UndoStack::isCommandActive</text>
</a>
</g>
<!-- Node1&#45;&gt;Node4 -->
<g id="edge6" class="edge"><title>Node1&#45;&gt;Node4</title>
<path fill="none" stroke="midnightblue" d="M79.5394,-107.017C89.6764,-105.483 100.948,-103.778 112.329,-102.056"/>
<polygon fill="midnightblue" stroke="midnightblue" points="112.969,-105.499 122.333,-100.542 111.922,-98.5773 112.969,-105.499"/>
</g>
<!-- Node5 -->
<g id="node9" class="node"><title>Node5</title>
<a xlink:href="../../d4/d90/class_undo_stack.html#a03bfacfaaba9195e4498375659f43531" target="_top" xlink:title="Clear the whole stack (delete all UndoCommand objects) ">
<polygon fill="white" stroke="black" points="146,-39.5 146,-60.5 238,-60.5 238,-39.5 146,-39.5"/>
<text text-anchor="middle" x="192" y="-47.5" font-family="Helvetica,sans-Serif" font-size="10.00">UndoStack::clear</text>
</a>
</g>
<!-- Node1&#45;&gt;Node5 -->
<g id="edge8" class="edge"><title>Node1&#45;&gt;Node5</title>
<path fill="none" stroke="midnightblue" d="M55.99,-102.334C70.9626,-92.7458 94.2319,-78.8489 116,-70 122.369,-67.4109 129.175,-65.0662 136,-62.97"/>
<polygon fill="midnightblue" stroke="midnightblue" points="137.336,-66.2267 145.963,-60.077 135.384,-59.5044 137.336,-66.2267"/>
</g>
<!-- Node6 -->
<g id="node11" class="node"><title>Node6</title>
<a xlink:href="../../d4/d90/class_undo_stack.html#a4569aea2e8254c626ce894aac55866e9" target="_top" xlink:title="End the currently active command and revert the changes. ">
<polygon fill="white" stroke="black" points="304,-39.5 304,-60.5 442,-60.5 442,-39.5 304,-39.5"/>
<text text-anchor="middle" x="373" y="-47.5" font-family="Helvetica,sans-Serif" font-size="10.00">UndoStack::abortCommand</text>
</a>
</g>
<!-- Node5&#45;&gt;Node6 -->
<g id="edge10" class="edge"><title>Node5&#45;&gt;Node6</title>
<path fill="none" stroke="midnightblue" d="M238.142,-50C255.011,-50 274.611,-50 293.555,-50"/>
<polygon fill="midnightblue" stroke="midnightblue" points="293.686,-53.5001 303.686,-50 293.686,-46.5001 293.686,-53.5001"/>
</g>
<!-- Node7 -->
<g id="node13" class="node"><title>Node7</title>
<a xlink:href="../../d4/d90/class_undo_stack.html#ac45199a5fa405b01e4a81bcd46ca47d2" target="_top" xlink:title="Get the text for the undo action. ">
<polygon fill="white" stroke="black" points="478,-78.5 478,-99.5 606,-99.5 606,-78.5 478,-78.5"/>
<text text-anchor="middle" x="542" y="-86.5" font-family="Helvetica,sans-Serif" font-size="10.00">UndoStack::getUndoText</text>
</a>
</g>
<!-- Node6&#45;&gt;Node7 -->
<g id="edge12" class="edge"><title>Node6&#45;&gt;Node7</title>
<path fill="none" stroke="midnightblue" d="M418.734,-60.554C439.588,-65.3664 464.463,-71.1068 486.388,-76.1665"/>
<polygon fill="midnightblue" stroke="midnightblue" points="485.699,-79.5993 496.23,-78.4376 487.273,-72.7786 485.699,-79.5993"/>
</g>
<!-- Node8 -->
<g id="node15" class="node"><title>Node8</title>
<a xlink:href="../../d4/d90/class_undo_stack.html#a0838f37a375891734d27a88e34437d1c" target="_top" xlink:title="Check if undo is possible. ">
<polygon fill="white" stroke="black" points="642,-58.5 642,-79.5 752,-79.5 752,-58.5 642,-58.5"/>
<text text-anchor="middle" x="697" y="-66.5" font-family="Helvetica,sans-Serif" font-size="10.00">UndoStack::canUndo</text>
</a>
</g>
<!-- Node6&#45;&gt;Node8 -->
<g id="edge16" class="edge"><title>Node6&#45;&gt;Node8</title>
<path fill="none" stroke="midnightblue" d="M442.109,-54.0527C498.271,-57.3461 576.93,-61.9589 631.966,-65.1863"/>
<polygon fill="midnightblue" stroke="midnightblue" points="631.769,-68.6806 641.957,-65.7722 632.179,-61.6927 631.769,-68.6806"/>
</g>
<!-- Node9 -->
<g id="node18" class="node"><title>Node9</title>
<a xlink:href="../../d4/d90/class_undo_stack.html#ac94ae4017f4a9133369c65c0fdb6f4c7" target="_top" xlink:title="Check if the stack is in a clean state (the state of the last setClean()) ">
<polygon fill="white" stroke="black" points="490,-0.5 490,-21.5 594,-21.5 594,-0.5 490,-0.5"/>
<text text-anchor="middle" x="542" y="-8.5" font-family="Helvetica,sans-Serif" font-size="10.00">UndoStack::isClean</text>
</a>
</g>
<!-- Node6&#45;&gt;Node9 -->
<g id="edge18" class="edge"><title>Node6&#45;&gt;Node9</title>
<path fill="none" stroke="midnightblue" d="M418.734,-39.446C439.588,-34.6336 464.463,-28.8932 486.388,-23.8335"/>
<polygon fill="midnightblue" stroke="midnightblue" points="487.273,-27.2214 496.23,-21.5624 485.699,-20.4007 487.273,-27.2214"/>
</g>
<!-- Node7&#45;&gt;Node8 -->
<g id="edge14" class="edge"><title>Node7&#45;&gt;Node8</title>
<path fill="none" stroke="midnightblue" d="M606.387,-80.692C614.784,-79.6085 623.393,-78.4977 631.803,-77.4126"/>
<polygon fill="midnightblue" stroke="midnightblue" points="632.465,-80.8562 641.935,-76.1051 631.569,-73.9137 632.465,-80.8562"/>
</g>
</g>
</svg>
