<?xml version="1.0" encoding="UTF-8" standalone="no"?>
<!DOCTYPE svg PUBLIC "-//W3C//DTD SVG 1.1//EN"
 "http://www.w3.org/Graphics/SVG/1.1/DTD/svg11.dtd">
<!-- Generated by graphviz version 2.26.3 (20100126.1600)
 -->
<!-- Title: showSchematicEditor Pages: 1 -->
<svg width="690pt" height="302pt"
 viewBox="0.00 0.00 690.00 302.00" xmlns="http://www.w3.org/2000/svg" xmlns:xlink="http://www.w3.org/1999/xlink">
<g id="graph1" class="graph" transform="scale(1 1) rotate(0) translate(4 298)">
<title>showSchematicEditor</title>
<polygon fill="white" stroke="white" points="-4,5 -4,-298 687,-298 687,5 -4,5"/>
<!-- Node1 -->
<g id="node1" class="node"><title>Node1</title>
<polygon fill="#bfbfbf" stroke="black" points="0,-208.5 0,-229.5 112,-229.5 112,-208.5 0,-208.5"/>
<text text-anchor="middle" x="56" y="-216.5" font-family="Helvetica,sans-Serif" font-size="10.00">showSchematicEditor</text>
</g>
<!-- Node2 -->
<g id="node3" class="node"><title>Node2</title>
<a xlink:href="../../d4/dfb/classproject_1_1_board_editor.html#a2622890007f7f744656c64f1e2326ed4" target="_top" xlink:title="project::BoardEditor\l::BoardEditor">
<polygon fill="white" stroke="black" points="157.5,-225 157.5,-259 260.5,-259 260.5,-225 157.5,-225"/>
<text text-anchor="start" x="165.5" y="-246" font-family="Helvetica,sans-Serif" font-size="10.00">project::BoardEditor</text>
<text text-anchor="middle" x="209" y="-233" font-family="Helvetica,sans-Serif" font-size="10.00">::BoardEditor</text>
</a>
</g>
<!-- Node1&#45;&gt;Node2 -->
<g id="edge2" class="edge"><title>Node1&#45;&gt;Node2</title>
<path fill="none" stroke="midnightblue" d="M122.331,-228.971C134.097,-230.74 146.191,-232.558 157.471,-234.254"/>
<polygon fill="midnightblue" stroke="midnightblue" points="122.512,-225.459 112.103,-227.434 121.471,-232.382 122.512,-225.459"/>
</g>
<!-- Node3 -->
<g id="node5" class="node"><title>Node3</title>
<a xlink:href="../../d3/dd6/classproject_1_1_project_editor.html#a9f14b9293fefcadb6df3288b459fd470" target="_top" xlink:title="Open the schematic and/or the board editor window. ">
<polygon fill="white" stroke="black" points="148.5,-185.5 148.5,-206.5 269.5,-206.5 269.5,-185.5 148.5,-185.5"/>
<text text-anchor="middle" x="209" y="-193.5" font-family="Helvetica,sans-Serif" font-size="10.00">showAllRequiredEditors</text>
</a>
</g>
<!-- Node1&#45;&gt;Node3 -->
<g id="edge4" class="edge"><title>Node1&#45;&gt;Node3</title>
<path fill="none" stroke="midnightblue" d="M122.171,-209.053C130.841,-207.749 139.692,-206.419 148.266,-205.13"/>
<polygon fill="midnightblue" stroke="midnightblue" points="121.471,-205.618 112.103,-210.566 122.512,-212.541 121.471,-205.618"/>
</g>
<!-- Node4 -->
<g id="node7" class="node"><title>Node4</title>
<a xlink:href="../../d1/def/class_control_panel.html#aed7117cdf440630b400bb7226a9801e9" target="_top" xlink:title="Create a new project and open it with the editor. ">
<polygon fill="white" stroke="black" points="306.5,-234.5 306.5,-255.5 443.5,-255.5 443.5,-234.5 306.5,-234.5"/>
<text text-anchor="middle" x="375" y="-242.5" font-family="Helvetica,sans-Serif" font-size="10.00">ControlPanel::createProject</text>
</a>
</g>
<!-- Node3&#45;&gt;Node4 -->
<g id="edge6" class="edge"><title>Node3&#45;&gt;Node4</title>
<path fill="none" stroke="midnightblue" d="M254.48,-209.425C281.147,-217.296 314.359,-227.1 339.162,-234.421"/>
<polygon fill="midnightblue" stroke="midnightblue" points="255.193,-205.986 244.611,-206.512 253.211,-212.7 255.193,-205.986"/>
</g>
<!-- Node6 -->
<g id="node11" class="node"><title>Node6</title>
<a xlink:href="../../d1/def/class_control_panel.html#a00fbb51d24ad11e028629d3dcb376e94" target="_top" xlink:title="Open a project with the editor (or bring an already opened editor to front) ">
<polygon fill="white" stroke="black" points="309.5,-136.5 309.5,-157.5 440.5,-157.5 440.5,-136.5 309.5,-136.5"/>
<text text-anchor="middle" x="375" y="-144.5" font-family="Helvetica,sans-Serif" font-size="10.00">ControlPanel::openProject</text>
</a>
</g>
<!-- Node3&#45;&gt;Node6 -->
<g id="edge10" class="edge"><title>Node3&#45;&gt;Node6</title>
<path fill="none" stroke="midnightblue" d="M254.48,-182.575C281.147,-174.704 314.359,-164.9 339.162,-157.579"/>
<polygon fill="midnightblue" stroke="midnightblue" points="253.211,-179.3 244.611,-185.488 255.193,-186.014 253.211,-179.3"/>
</g>
<!-- Node5 -->
<g id="node9" class="node"><title>Node5</title>
<a xlink:href="../../d1/def/class_control_panel.html#a7a18efb5b56dcbff9f550db0c651e210" target="_top" xlink:title="ControlPanel::on_actionNew\l_Project_triggered">
<polygon fill="white" stroke="black" points="510.5,-260 510.5,-294 651.5,-294 651.5,-260 510.5,-260"/>
<text text-anchor="start" x="518.5" y="-281" font-family="Helvetica,sans-Serif" font-size="10.00">ControlPanel::on_actionNew</text>
<text text-anchor="middle" x="581" y="-268" font-family="Helvetica,sans-Serif" font-size="10.00">_Project_triggered</text>
</a>
</g>
<!-- Node4&#45;&gt;Node5 -->
<g id="edge8" class="edge"><title>Node4&#45;&gt;Node5</title>
<path fill="none" stroke="midnightblue" d="M452.802,-257.086C471.715,-260.024 491.836,-263.149 510.394,-266.032"/>
<polygon fill="midnightblue" stroke="midnightblue" points="453.156,-253.599 442.737,-255.522 452.082,-260.516 453.156,-253.599"/>
</g>
<!-- Node7 -->
<g id="node13" class="node"><title>Node7</title>
<a xlink:href="../../d1/def/class_control_panel.html#a27d94f62f2537a17c6e2852e00560a19" target="_top" xlink:title="ControlPanel::on_actionOpen\l_Project_triggered">
<polygon fill="white" stroke="black" points="509,-208 509,-242 653,-242 653,-208 509,-208"/>
<text text-anchor="start" x="517" y="-229" font-family="Helvetica,sans-Serif" font-size="10.00">ControlPanel::on_actionOpen</text>
<text text-anchor="middle" x="581" y="-216" font-family="Helvetica,sans-Serif" font-size="10.00">_Project_triggered</text>
</a>
</g>
<!-- Node6&#45;&gt;Node7 -->
<g id="edge12" class="edge"><title>Node6&#45;&gt;Node7</title>
<path fill="none" stroke="midnightblue" d="M402.339,-162.506C423.13,-173.809 452.717,-188.858 480,-199 489.25,-202.438 499.138,-205.591 508.975,-208.424"/>
<polygon fill="midnightblue" stroke="midnightblue" points="403.892,-159.366 393.444,-157.607 400.515,-165.497 403.892,-159.366"/>
</g>
<!-- Node8 -->
<g id="node15" class="node"><title>Node8</title>
<a xlink:href="../../d1/def/class_control_panel.html#aa9b5edbaaad9ac1ff6416a5656c36d5e" target="_top" xlink:title="ControlPanel::on_project\lTreeView_doubleClicked">
<polygon fill="white" stroke="black" points="518.5,-156 518.5,-190 643.5,-190 643.5,-156 518.5,-156"/>
<text text-anchor="start" x="526.5" y="-177" font-family="Helvetica,sans-Serif" font-size="10.00">ControlPanel::on_project</text>
<text text-anchor="middle" x="581" y="-164" font-family="Helvetica,sans-Serif" font-size="10.00">TreeView_doubleClicked</text>
</a>
</g>
<!-- Node6&#45;&gt;Node8 -->
<g id="edge14" class="edge"><title>Node6&#45;&gt;Node8</title>
<path fill="none" stroke="midnightblue" d="M450.806,-156.568C473.014,-159.371 497.039,-162.403 518.333,-165.091"/>
<polygon fill="midnightblue" stroke="midnightblue" points="451.106,-153.078 440.746,-155.298 450.229,-160.023 451.106,-153.078"/>
</g>
<!-- Node9 -->
<g id="node17" class="node"><title>Node9</title>
<a xlink:href="../../d1/def/class_control_panel.html#af48b18b1f3edf33ae8c178b192a0641c" target="_top" xlink:title="ControlPanel::on_project\lTreeView_customContextMenuRequested">
<polygon fill="white" stroke="black" points="480.5,-104 480.5,-138 681.5,-138 681.5,-104 480.5,-104"/>
<text text-anchor="start" x="488.5" y="-125" font-family="Helvetica,sans-Serif" font-size="10.00">ControlPanel::on_project</text>
<text text-anchor="middle" x="581" y="-112" font-family="Helvetica,sans-Serif" font-size="10.00">TreeView_customContextMenuRequested</text>
</a>
</g>
<!-- Node6&#45;&gt;Node9 -->
<g id="edge16" class="edge"><title>Node6&#45;&gt;Node9</title>
<path fill="none" stroke="midnightblue" d="M450.951,-137.414C460.492,-136.21 470.365,-134.964 480.212,-133.721"/>
<polygon fill="midnightblue" stroke="midnightblue" points="450.229,-133.977 440.746,-138.702 451.106,-140.922 450.229,-133.977"/>
</g>
<!-- Node10 -->
<g id="node19" class="node"><title>Node10</title>
<a xlink:href="../../d1/def/class_control_panel.html#a57d50dbdf1e82756a9e680c3f908c2a7" target="_top" xlink:title="ControlPanel::on_recentProjects\lListView_clicked">
<polygon fill="white" stroke="black" points="502,-52 502,-86 660,-86 660,-52 502,-52"/>
<text text-anchor="start" x="510" y="-73" font-family="Helvetica,sans-Serif" font-size="10.00">ControlPanel::on_recentProjects</text>
<text text-anchor="middle" x="581" y="-60" font-family="Helvetica,sans-Serif" font-size="10.00">ListView_clicked</text>
</a>
</g>
<!-- Node6&#45;&gt;Node10 -->
<g id="edge18" class="edge"><title>Node6&#45;&gt;Node10</title>
<path fill="none" stroke="midnightblue" d="M402.339,-131.494C423.13,-120.191 452.717,-105.142 480,-95 488.74,-91.751 498.052,-88.757 507.35,-86.0468"/>
<polygon fill="midnightblue" stroke="midnightblue" points="400.515,-128.503 393.444,-136.393 403.892,-134.634 400.515,-128.503"/>
</g>
<!-- Node11 -->
<g id="node21" class="node"><title>Node11</title>
<a xlink:href="../../d1/def/class_control_panel.html#a65af77641a3437339023cdcef2d2465e" target="_top" xlink:title="ControlPanel::on_favorite\lProjectsListView_clicked">
<polygon fill="white" stroke="black" points="517.5,-0 517.5,-34 644.5,-34 644.5,-0 517.5,-0"/>
<text text-anchor="start" x="525.5" y="-21" font-family="Helvetica,sans-Serif" font-size="10.00">ControlPanel::on_favorite</text>
<text text-anchor="middle" x="581" y="-8" font-family="Helvetica,sans-Serif" font-size="10.00">ProjectsListView_clicked</text>
</a>
</g>
<!-- Node6&#45;&gt;Node11 -->
<g id="edge20" class="edge"><title>Node6&#45;&gt;Node11</title>
<path fill="none" stroke="midnightblue" d="M388.81,-128.166C407.053,-104.662 441.418,-64.9006 480,-43 491.416,-36.5198 504.467,-31.6247 517.31,-27.9366"/>
<polygon fill="midnightblue" stroke="midnightblue" points="385.89,-126.224 382.633,-136.306 391.466,-130.456 385.89,-126.224"/>
</g>
</g>
</svg>
