<?xml version="1.0" encoding="UTF-8" standalone="no"?>
<!DOCTYPE svg PUBLIC "-//W3C//DTD SVG 1.1//EN"
 "http://www.w3.org/Graphics/SVG/1.1/DTD/svg11.dtd">
<!-- Generated by graphviz version 2.26.3 (20100126.1600)
 -->
<!-- Title: main Pages: 1 -->
<svg width="412pt" height="422pt"
 viewBox="0.00 0.00 412.00 422.00" xmlns="http://www.w3.org/2000/svg" xmlns:xlink="http://www.w3.org/1999/xlink">
<g id="graph1" class="graph" transform="scale(1 1) rotate(0) translate(4 418)">
<title>main</title>
<polygon fill="white" stroke="white" points="-4,5 -4,-418 409,-418 409,5 -4,5"/>
<!-- Node1 -->
<g id="node1" class="node"><title>Node1</title>
<polygon fill="#bfbfbf" stroke="black" points="0,-188.5 0,-209.5 38,-209.5 38,-188.5 0,-188.5"/>
<text text-anchor="middle" x="19" y="-196.5" font-family="Helvetica,sans-Serif" font-size="10.00">main</text>
</g>
<!-- Node2 -->
<g id="node3" class="node"><title>Node2</title>
<a xlink:href="../../de/d6b/class_application.html#a14e7aaa499e664c2927f331233dfcb3b" target="_top" xlink:title="Application::setApplication\lVersion">
<polygon fill="white" stroke="black" points="95,-380 95,-414 227,-414 227,-380 95,-380"/>
<text text-anchor="start" x="103" y="-401" font-family="Helvetica,sans-Serif" font-size="10.00">Application::setApplication</text>
<text text-anchor="middle" x="161" y="-388" font-family="Helvetica,sans-Serif" font-size="10.00">Version</text>
</a>
</g>
<!-- Node1&#45;&gt;Node2 -->
<g id="edge2" class="edge"><title>Node1&#45;&gt;Node2</title>
<path fill="none" stroke="midnightblue" d="M21.1167,-209.949C27.9183,-244.073 50.1666,-347.617 74,-371 77.5411,-374.474 81.5263,-377.487 85.7928,-380.1"/>
<polygon fill="midnightblue" stroke="midnightblue" points="84.4182,-383.332 94.8935,-384.92 87.6945,-377.146 84.4182,-383.332"/>
</g>
<!-- Node3 -->
<g id="node5" class="node"><title>Node3</title>
<a xlink:href="../../da/d7d/class_debug.html#abea73dba0914ca6e7e9ec62ef5ba5701" target="_top" xlink:title="Get a pointer to the instance of the singleton Debug object. ">
<polygon fill="white" stroke="black" points="117,-340.5 117,-361.5 205,-361.5 205,-340.5 117,-340.5"/>
<text text-anchor="middle" x="161" y="-348.5" font-family="Helvetica,sans-Serif" font-size="10.00">Debug::instance</text>
</a>
</g>
<!-- Node1&#45;&gt;Node3 -->
<g id="edge4" class="edge"><title>Node1&#45;&gt;Node3</title>
<path fill="none" stroke="midnightblue" d="M20.1935,-209.825C23.5877,-235.169 35.6754,-298.655 74,-331 83.253,-338.809 94.9609,-343.715 106.764,-346.761"/>
<polygon fill="midnightblue" stroke="midnightblue" points="106.134,-350.206 116.648,-348.907 107.618,-343.365 106.134,-350.206"/>
</g>
<!-- Node4 -->
<g id="node7" class="node"><title>Node4</title>
<a xlink:href="../../d5/d56/class_workspace.html#a9adccb6364b66204a18e2e99d578f7e8" target="_top" xlink:title="Get the most recently used workspace path. ">
<polygon fill="white" stroke="black" points="88,-288 88,-322 234,-322 234,-288 88,-288"/>
<text text-anchor="start" x="96" y="-309" font-family="Helvetica,sans-Serif" font-size="10.00">Workspace::getMostRecently</text>
<text text-anchor="middle" x="161" y="-296" font-family="Helvetica,sans-Serif" font-size="10.00">UsedWorkspacePath</text>
</a>
</g>
<!-- Node1&#45;&gt;Node4 -->
<g id="edge6" class="edge"><title>Node1&#45;&gt;Node4</title>
<path fill="none" stroke="midnightblue" d="M23.4037,-209.534C31.1073,-226.676 48.6587,-260.544 74,-279 75.8637,-280.357 77.7983,-281.644 79.7898,-282.865"/>
<polygon fill="midnightblue" stroke="midnightblue" points="78.3862,-286.086 88.8414,-287.8 81.7371,-279.94 78.3862,-286.086"/>
</g>
<!-- Node5 -->
<g id="node9" class="node"><title>Node5</title>
<a xlink:href="../../d5/d56/class_workspace.html#a93f23122af172d1dfca4d3da38cfc6cf" target="_top" xlink:title="Check whether a filepath points to a valid workspace directory or not. ">
<polygon fill="white" stroke="black" points="75.5,-248.5 75.5,-269.5 246.5,-269.5 246.5,-248.5 75.5,-248.5"/>
<text text-anchor="middle" x="161" y="-256.5" font-family="Helvetica,sans-Serif" font-size="10.00">Workspace::isValidWorkspacePath</text>
</a>
</g>
<!-- Node1&#45;&gt;Node5 -->
<g id="edge8" class="edge"><title>Node1&#45;&gt;Node5</title>
<path fill="none" stroke="midnightblue" d="M30.7699,-209.758C41.3404,-218.855 57.6678,-231.561 74,-239 79.3309,-241.428 84.9842,-243.575 90.7484,-245.471"/>
<polygon fill="midnightblue" stroke="midnightblue" points="89.9313,-248.881 100.517,-248.43 91.961,-242.181 89.9313,-248.881"/>
</g>
<!-- Node6 -->
<g id="node11" class="node"><title>Node6</title>
<a xlink:href="../../d5/d56/class_workspace.html#ae842d27bc98601110dc686fba8daa42f" target="_top" xlink:title="Let the user choose a workspace path (with a directory chooser dialog) ">
<polygon fill="white" stroke="black" points="74.5,-208.5 74.5,-229.5 247.5,-229.5 247.5,-208.5 74.5,-208.5"/>
<text text-anchor="middle" x="161" y="-216.5" font-family="Helvetica,sans-Serif" font-size="10.00">Workspace::chooseWorkspacePath</text>
</a>
</g>
<!-- Node1&#45;&gt;Node6 -->
<g id="edge10" class="edge"><title>Node1&#45;&gt;Node6</title>
<path fill="none" stroke="midnightblue" d="M38.1508,-201.697C48.4842,-203.153 62.0395,-205.062 76.3643,-207.079"/>
<polygon fill="midnightblue" stroke="midnightblue" points="75.9838,-210.56 86.3743,-208.489 76.9602,-203.629 75.9838,-210.56"/>
</g>
<!-- Node7 -->
<g id="node13" class="node"><title>Node7</title>
<a xlink:href="../../d4/d1c/class_file_path.html#a0a886a9edf5bf682f5245159661bfc94" target="_top" xlink:title="Check whether this object contains a valid filepath or not. ">
<polygon fill="white" stroke="black" points="300,-188.5 300,-209.5 388,-209.5 388,-188.5 300,-188.5"/>
<text text-anchor="middle" x="344" y="-196.5" font-family="Helvetica,sans-Serif" font-size="10.00">FilePath::isValid</text>
</a>
</g>
<!-- Node1&#45;&gt;Node7 -->
<g id="edge14" class="edge"><title>Node1&#45;&gt;Node7</title>
<path fill="none" stroke="midnightblue" d="M38.3569,-199C87.0389,-199 215.945,-199 289.869,-199"/>
<polygon fill="midnightblue" stroke="midnightblue" points="289.921,-202.5 299.921,-199 289.921,-195.5 289.921,-202.5"/>
</g>
<!-- Node8 -->
<g id="node16" class="node"><title>Node8</title>
<a xlink:href="../../d5/d56/class_workspace.html#a3483171fd8daae11722a672a68d0df8a" target="_top" xlink:title="Set the most recently used workspace path. ">
<polygon fill="white" stroke="black" points="88,-118 88,-152 234,-152 234,-118 88,-118"/>
<text text-anchor="start" x="96" y="-139" font-family="Helvetica,sans-Serif" font-size="10.00">Workspace::setMostRecently</text>
<text text-anchor="middle" x="161" y="-126" font-family="Helvetica,sans-Serif" font-size="10.00">UsedWorkspacePath</text>
</a>
</g>
<!-- Node1&#45;&gt;Node8 -->
<g id="edge16" class="edge"><title>Node1&#45;&gt;Node8</title>
<path fill="none" stroke="midnightblue" d="M34.8991,-188.309C45.6403,-181.378 60.307,-172.469 74,-166 81.7949,-162.317 90.153,-158.814 98.4941,-155.578"/>
<polygon fill="midnightblue" stroke="midnightblue" points="99.751,-158.844 107.873,-152.041 97.2814,-152.294 99.751,-158.844"/>
</g>
<!-- Node9 -->
<g id="node18" class="node"><title>Node9</title>
<a xlink:href="../../df/d0a/main_8cpp.html#aa13cd499941c29c4408c925ffc25c407" target="_top" xlink:title="appExec">
<polygon fill="white" stroke="black" points="133.5,-78.5 133.5,-99.5 188.5,-99.5 188.5,-78.5 133.5,-78.5"/>
<text text-anchor="middle" x="161" y="-86.5" font-family="Helvetica,sans-Serif" font-size="10.00">appExec</text>
</a>
</g>
<!-- Node1&#45;&gt;Node9 -->
<g id="edge18" class="edge"><title>Node1&#45;&gt;Node9</title>
<path fill="none" stroke="midnightblue" d="M22.3475,-188.493C28.9712,-169.478 45.618,-129.438 74,-109 88.1339,-98.8219 106.625,-93.7257 122.923,-91.2111"/>
<polygon fill="midnightblue" stroke="midnightblue" points="123.768,-94.6322 133.249,-89.904 122.889,-87.6876 123.768,-94.6322"/>
</g>
<!-- Node10 -->
<g id="node20" class="node"><title>Node10</title>
<a xlink:href="../../df/d70/class_exception.html#aa530ab8cc747843c76a435c3075ed094" target="_top" xlink:title="Get the user error message (translated) ">
<polygon fill="white" stroke="black" points="284.5,-59.5 284.5,-80.5 403.5,-80.5 403.5,-59.5 284.5,-59.5"/>
<text text-anchor="middle" x="344" y="-67.5" font-family="Helvetica,sans-Serif" font-size="10.00">Exception::getUserMsg</text>
</a>
</g>
<!-- Node1&#45;&gt;Node10 -->
<g id="edge24" class="edge"><title>Node1&#45;&gt;Node10</title>
<path fill="none" stroke="midnightblue" d="M19.764,-188.125C22.2459,-162.123 32.5324,-96.4822 74,-69 143.113,-23.1963 245.617,-41.1649 302.376,-56.647"/>
<polygon fill="midnightblue" stroke="midnightblue" points="301.512,-60.04 312.087,-59.3944 303.418,-53.3044 301.512,-60.04"/>
</g>
<!-- Node11 -->
<g id="node22" class="node"><title>Node11</title>
<a xlink:href="../../d4/d1c/class_file_path.html#af27e4f117ace775ab38ae937c12cd37a" target="_top" xlink:title="Get the absolute filepath with native directory separators (&quot;/&quot; resp. &quot;\&quot;) ">
<polygon fill="white" stroke="black" points="113.5,-0.5 113.5,-21.5 208.5,-21.5 208.5,-0.5 113.5,-0.5"/>
<text text-anchor="middle" x="161" y="-8.5" font-family="Helvetica,sans-Serif" font-size="10.00">FilePath::toNative</text>
</a>
</g>
<!-- Node1&#45;&gt;Node11 -->
<g id="edge22" class="edge"><title>Node1&#45;&gt;Node11</title>
<path fill="none" stroke="midnightblue" d="M21.2871,-188.148C28.4129,-155.302 51.1097,-57.8694 74,-36 82.2612,-28.1072 92.8471,-22.6811 103.771,-18.9573"/>
<polygon fill="midnightblue" stroke="midnightblue" points="104.813,-22.299 113.408,-16.1037 102.825,-15.5871 104.813,-22.299"/>
</g>
<!-- Node6&#45;&gt;Node7 -->
<g id="edge12" class="edge"><title>Node6&#45;&gt;Node7</title>
<path fill="none" stroke="midnightblue" d="M247.677,-209.527C261.964,-207.966 276.409,-206.387 289.613,-204.944"/>
<polygon fill="midnightblue" stroke="midnightblue" points="290.348,-208.385 299.909,-203.819 289.587,-201.426 290.348,-208.385"/>
</g>
<!-- Node9&#45;&gt;Node10 -->
<g id="edge20" class="edge"><title>Node9&#45;&gt;Node10</title>
<path fill="none" stroke="midnightblue" d="M188.794,-86.1143C211.521,-83.7546 244.659,-80.314 274.485,-77.2174"/>
<polygon fill="midnightblue" stroke="midnightblue" points="274.868,-80.6966 284.453,-76.1825 274.145,-73.734 274.868,-80.6966"/>
</g>
</g>
</svg>
