<?xml version="1.0" encoding="UTF-8" standalone="no"?>
<!DOCTYPE svg PUBLIC "-//W3C//DTD SVG 1.1//EN"
 "http://www.w3.org/Graphics/SVG/1.1/DTD/svg11.dtd">
<!-- Generated by graphviz version 2.26.3 (20100126.1600)
 -->
<!-- Title: redo Pages: 1 -->
<svg width="542pt" height="82pt"
 viewBox="0.00 0.00 542.00 82.00" xmlns="http://www.w3.org/2000/svg" xmlns:xlink="http://www.w3.org/1999/xlink">
<g id="graph1" class="graph" transform="scale(1 1) rotate(0) translate(4 78)">
<title>redo</title>
<polygon fill="white" stroke="white" points="-4,5 -4,-78 539,-78 539,5 -4,5"/>
<!-- Node1 -->
<g id="node1" class="node"><title>Node1</title>
<polygon fill="#bfbfbf" stroke="black" points="0.5,-23.5 0.5,-44.5 35.5,-44.5 35.5,-23.5 0.5,-23.5"/>
<text text-anchor="middle" x="18" y="-31.5" font-family="Helvetica,sans-Serif" font-size="10.00">redo</text>
</g>
<!-- Node2 -->
<g id="node3" class="node"><title>Node2</title>
<a xlink:href="../../d7/d77/classproject_1_1_gen_comp_attribute_instance.html#a2d7b493d122f056fa94fd71541c399ac" target="_top" xlink:title="project::GenCompAttribute\lInstance::setTypeValueUnit">
<polygon fill="white" stroke="black" points="72,-40 72,-74 210,-74 210,-40 72,-40"/>
<text text-anchor="start" x="80" y="-61" font-family="Helvetica,sans-Serif" font-size="10.00">project::GenCompAttribute</text>
<text text-anchor="middle" x="141" y="-48" font-family="Helvetica,sans-Serif" font-size="10.00">Instance::setTypeValueUnit</text>
</a>
</g>
<!-- Node1&#45;&gt;Node2 -->
<g id="edge2" class="edge"><title>Node1&#45;&gt;Node2</title>
<path fill="none" stroke="midnightblue" d="M35.6229,-37.2953C42.9963,-38.6741 52.1254,-40.3812 61.9025,-42.2094"/>
<polygon fill="midnightblue" stroke="midnightblue" points="61.3815,-45.6726 71.8545,-44.0704 62.6682,-38.7918 61.3815,-45.6726"/>
</g>
<!-- Node3 -->
<g id="node5" class="node"><title>Node3</title>
<a xlink:href="../../d3/d26/class_undo_command.html#a93c48d6ed036e1a381be53ac67643284" target="_top" xlink:title="Redo/execute the command (and all child commands in normal order) ">
<polygon fill="white" stroke="black" points="86,-0.5 86,-21.5 196,-21.5 196,-0.5 86,-0.5"/>
<text text-anchor="middle" x="141" y="-8.5" font-family="Helvetica,sans-Serif" font-size="10.00">UndoCommand::redo</text>
</a>
</g>
<!-- Node1&#45;&gt;Node3 -->
<g id="edge4" class="edge"><title>Node1&#45;&gt;Node3</title>
<path fill="none" stroke="midnightblue" d="M35.6229,-30.7047C46.3633,-28.6963 60.8291,-25.9913 75.5963,-23.23"/>
<polygon fill="midnightblue" stroke="midnightblue" points="76.6395,-26.5956 85.8258,-21.3171 75.3528,-19.7149 76.6395,-26.5956"/>
</g>
<!-- Node4 -->
<g id="node7" class="node"><title>Node4</title>
<a xlink:href="../../d3/d26/class_undo_command.html#ae57d776a4010cbabb44c03d9ac6514eb" target="_top" xlink:title="This method shows whether that command is executed (redo() called one time more than undo()) ...">
<polygon fill="white" stroke="black" points="394,-19.5 394,-40.5 534,-40.5 534,-19.5 394,-19.5"/>
<text text-anchor="middle" x="464" y="-27.5" font-family="Helvetica,sans-Serif" font-size="10.00">UndoCommand::isExecuted</text>
</a>
</g>
<!-- Node3&#45;&gt;Node4 -->
<g id="edge6" class="edge"><title>Node3&#45;&gt;Node4</title>
<path fill="none" stroke="midnightblue" d="M186.214,-21.5426C204.646,-25.334 226.232,-29.1341 246,-31 291.331,-35.2788 342.2,-35.3152 383.391,-34.1516"/>
<polygon fill="midnightblue" stroke="midnightblue" points="383.76,-37.6419 393.646,-33.8317 383.542,-30.6453 383.76,-37.6419"/>
</g>
<!-- Node5 -->
<g id="node9" class="node"><title>Node5</title>
<a xlink:href="../../d3/d26/class_undo_command.html#a0e1e7804a53f6d62efc72c9bdbec8571" target="_top" xlink:title="Undo the command (and all child commands in reverse order) ">
<polygon fill="white" stroke="black" points="246,-0.5 246,-21.5 358,-21.5 358,-0.5 246,-0.5"/>
<text text-anchor="middle" x="302" y="-8.5" font-family="Helvetica,sans-Serif" font-size="10.00">UndoCommand::undo</text>
</a>
</g>
<!-- Node3&#45;&gt;Node5 -->
<g id="edge8" class="edge"><title>Node3&#45;&gt;Node5</title>
<path fill="none" stroke="midnightblue" d="M196.407,-4.55034C209.039,-4.23856 222.587,-4.16952 235.625,-4.34322"/>
<polygon fill="midnightblue" stroke="midnightblue" points="235.881,-7.84848 245.944,-4.53456 236.011,-0.84968 235.881,-7.84848"/>
</g>
<!-- Node5&#45;&gt;Node3 -->
<g id="edge12" class="edge"><title>Node5&#45;&gt;Node3</title>
<path fill="none" stroke="midnightblue" d="M245.944,-17.4654C233.281,-17.7689 219.727,-17.8297 206.707,-17.6477"/>
<polygon fill="midnightblue" stroke="midnightblue" points="206.473,-14.1426 196.407,-17.4497 206.338,-21.1413 206.473,-14.1426"/>
</g>
<!-- Node5&#45;&gt;Node4 -->
<g id="edge10" class="edge"><title>Node5&#45;&gt;Node4</title>
<path fill="none" stroke="midnightblue" d="M358.205,-17.592C366.481,-18.5626 375.14,-19.5781 383.786,-20.5922"/>
<polygon fill="midnightblue" stroke="midnightblue" points="383.567,-24.0904 393.907,-21.7792 384.383,-17.1381 383.567,-24.0904"/>
</g>
</g>
</svg>
