<?xml version="1.0" encoding="UTF-8" standalone="no"?>
<!DOCTYPE svg PUBLIC "-//W3C//DTD SVG 1.1//EN"
 "http://www.w3.org/Graphics/SVG/1.1/DTD/svg11.dtd">
<!-- Generated by graphviz version 2.26.3 (20100126.1600)
 -->
<!-- Title: paint Pages: 1 -->
<svg width="524pt" height="1372pt"
 viewBox="0.00 0.00 524.00 1372.00" xmlns="http://www.w3.org/2000/svg" xmlns:xlink="http://www.w3.org/1999/xlink">
<g id="graph1" class="graph" transform="scale(1 1) rotate(0) translate(4 1368)">
<title>paint</title>
<polygon fill="white" stroke="white" points="-4,5 -4,-1368 521,-1368 521,5 -4,5"/>
<!-- Node1 -->
<g id="node1" class="node"><title>Node1</title>
<polygon fill="#bfbfbf" stroke="black" points="0,-722.5 0,-743.5 38,-743.5 38,-722.5 0,-722.5"/>
<text text-anchor="middle" x="19" y="-730.5" font-family="Helvetica,sans-Serif" font-size="10.00">paint</text>
</g>
<!-- Node2 -->
<g id="node3" class="node"><title>Node2</title>
<a xlink:href="../../d4/dbe/classproject_1_1_s_i___base.html#afe4e9ea4eba8862c8e6dd56d0b9712ce" target="_top" xlink:title="project::SI_Base::isSelected">
<polygon fill="white" stroke="black" points="74.5,-1342.5 74.5,-1363.5 215.5,-1363.5 215.5,-1342.5 74.5,-1342.5"/>
<text text-anchor="middle" x="145" y="-1350.5" font-family="Helvetica,sans-Serif" font-size="10.00">project::SI_Base::isSelected</text>
</a>
</g>
<!-- Node1&#45;&gt;Node2 -->
<g id="edge2" class="edge"><title>Node1&#45;&gt;Node2</title>
<path fill="none" stroke="midnightblue" d="M19.2689,-743.988C21.2634,-821.63 34.785,-1285.85 74,-1333 74.8752,-1334.05 75.8011,-1335.05 76.7719,-1336"/>
<polygon fill="midnightblue" stroke="midnightblue" points="74.9388,-1339.01 84.9986,-1342.33 79.2075,-1333.46 74.9388,-1339.01"/>
</g>
<!-- Node3 -->
<g id="node5" class="node"><title>Node3</title>
<a xlink:href="../../d9/db9/classlibrary_1_1_symbol.html#aa8dd7ebe32db86a2f2124e341482d48c" target="_top" xlink:title="library::Symbol::getPolygons">
<polygon fill="white" stroke="black" points="74,-1302.5 74,-1323.5 216,-1323.5 216,-1302.5 74,-1302.5"/>
<text text-anchor="middle" x="145" y="-1310.5" font-family="Helvetica,sans-Serif" font-size="10.00">library::Symbol::getPolygons</text>
</a>
</g>
<!-- Node1&#45;&gt;Node3 -->
<g id="edge4" class="edge"><title>Node1&#45;&gt;Node3</title>
<path fill="none" stroke="midnightblue" d="M19.3359,-743.726C21.7413,-817.583 37.3125,-1249.18 74,-1293 74.8786,-1294.05 75.8076,-1295.05 76.7813,-1295.99"/>
<polygon fill="midnightblue" stroke="midnightblue" points="74.9583,-1299 85.025,-1302.31 79.2155,-1293.45 74.9583,-1299"/>
</g>
<!-- Node4 -->
<g id="node7" class="node"><title>Node4</title>
<a xlink:href="../../dd/d00/classproject_1_1_s_g_i___symbol.html#a3e27ff4e11646f72326f18984d5dd8ca" target="_top" xlink:title="getSchematicLayer">
<polygon fill="white" stroke="black" points="94.5,-1262.5 94.5,-1283.5 195.5,-1283.5 195.5,-1262.5 94.5,-1262.5"/>
<text text-anchor="middle" x="145" y="-1270.5" font-family="Helvetica,sans-Serif" font-size="10.00">getSchematicLayer</text>
</a>
</g>
<!-- Node1&#45;&gt;Node4 -->
<g id="edge6" class="edge"><title>Node1&#45;&gt;Node4</title>
<path fill="none" stroke="midnightblue" d="M19.4264,-743.859C22.3118,-814.978 39.9014,-1212.58 74,-1253 77.187,-1256.78 81.0267,-1259.87 85.2499,-1262.4"/>
<polygon fill="midnightblue" stroke="midnightblue" points="83.8476,-1265.61 94.371,-1266.84 86.9103,-1259.32 83.8476,-1265.61"/>
</g>
<!-- Node5 -->
<g id="node9" class="node"><title>Node5</title>
<a xlink:href="../../d1/d7f/classlibrary_1_1_symbol_polygon.html#a3e5bed84d61dd74a10b6ace249c85efe" target="_top" xlink:title="library::SymbolPolygon\l::getLayerId">
<polygon fill="white" stroke="black" points="86.5,-1210 86.5,-1244 203.5,-1244 203.5,-1210 86.5,-1210"/>
<text text-anchor="start" x="94.5" y="-1231" font-family="Helvetica,sans-Serif" font-size="10.00">library::SymbolPolygon</text>
<text text-anchor="middle" x="145" y="-1218" font-family="Helvetica,sans-Serif" font-size="10.00">::getLayerId</text>
</a>
</g>
<!-- Node1&#45;&gt;Node5 -->
<g id="edge8" class="edge"><title>Node1&#45;&gt;Node5</title>
<path fill="none" stroke="midnightblue" d="M19.5842,-743.587C23.3157,-809.654 44.5951,-1163.76 74,-1201 75.2812,-1202.62 76.6736,-1204.14 78.1585,-1205.57"/>
<polygon fill="midnightblue" stroke="midnightblue" points="76.2426,-1208.52 86.2687,-1211.94 80.5666,-1203.01 76.2426,-1208.52"/>
</g>
<!-- Node6 -->
<g id="node11" class="node"><title>Node6</title>
<a xlink:href="../../dc/d5a/class_schematic_layer.html#afb49c937aaabbe05a0e5368f8bf9d497" target="_top" xlink:title="SchematicLayer::isVisible">
<polygon fill="white" stroke="black" points="80,-1170.5 80,-1191.5 210,-1191.5 210,-1170.5 80,-1170.5"/>
<text text-anchor="middle" x="145" y="-1178.5" font-family="Helvetica,sans-Serif" font-size="10.00">SchematicLayer::isVisible</text>
</a>
</g>
<!-- Node1&#45;&gt;Node6 -->
<g id="edge10" class="edge"><title>Node1&#45;&gt;Node6</title>
<path fill="none" stroke="midnightblue" d="M19.6624,-743.511C23.6967,-806.115 45.7329,-1128.25 74,-1161 75.0197,-1162.18 76.1033,-1163.3 77.2423,-1164.35"/>
<polygon fill="midnightblue" stroke="midnightblue" points="75.3455,-1167.3 85.4752,-1170.4 79.4926,-1161.66 75.3455,-1167.3"/>
</g>
<!-- Node7 -->
<g id="node13" class="node"><title>Node7</title>
<a xlink:href="../../dc/d5a/class_schematic_layer.html#aab73dfcfb2d157cdf8df0db760f6cb53" target="_top" xlink:title="SchematicLayer::getColor">
<polygon fill="white" stroke="black" points="80,-1130.5 80,-1151.5 210,-1151.5 210,-1130.5 80,-1130.5"/>
<text text-anchor="middle" x="145" y="-1138.5" font-family="Helvetica,sans-Serif" font-size="10.00">SchematicLayer::getColor</text>
</a>
</g>
<!-- Node1&#45;&gt;Node7 -->
<g id="edge12" class="edge"><title>Node1&#45;&gt;Node7</title>
<path fill="none" stroke="midnightblue" d="M19.82,-743.667C24.4776,-803.087 48.3046,-1091.62 74,-1121 75.0274,-1122.17 76.1179,-1123.28 77.2631,-1124.33"/>
<polygon fill="midnightblue" stroke="midnightblue" points="75.3859,-1127.29 85.5281,-1130.36 79.5101,-1121.64 75.3859,-1127.29"/>
</g>
<!-- Node8 -->
<g id="node15" class="node"><title>Node8</title>
<a xlink:href="../../d1/d7f/classlibrary_1_1_symbol_polygon.html#a69af915a70be9a59f27a36ef42fe7606" target="_top" xlink:title="library::SymbolPolygon\l::getWidth">
<polygon fill="white" stroke="black" points="86.5,-1078 86.5,-1112 203.5,-1112 203.5,-1078 86.5,-1078"/>
<text text-anchor="start" x="94.5" y="-1099" font-family="Helvetica,sans-Serif" font-size="10.00">library::SymbolPolygon</text>
<text text-anchor="middle" x="145" y="-1086" font-family="Helvetica,sans-Serif" font-size="10.00">::getWidth</text>
</a>
</g>
<!-- Node1&#45;&gt;Node8 -->
<g id="edge14" class="edge"><title>Node1&#45;&gt;Node8</title>
<path fill="none" stroke="midnightblue" d="M19.4371,-743.769C21.7059,-794.827 33.6321,-1012.19 74,-1064 76.2165,-1066.84 78.7475,-1069.43 81.5029,-1071.79"/>
<polygon fill="midnightblue" stroke="midnightblue" points="79.6445,-1074.77 89.7872,-1077.83 83.7679,-1069.11 79.6445,-1074.77"/>
</g>
<!-- Node9 -->
<g id="node17" class="node"><title>Node9</title>
<a xlink:href="../../df/df0/class_length.html#abf9a817a583f3939aea7bffdeeb7b235" target="_top" xlink:title="Get the length in pixels (for QGraphics* objects) ">
<polygon fill="white" stroke="black" points="444,-1014.5 444,-1035.5 516,-1035.5 516,-1014.5 444,-1014.5"/>
<text text-anchor="middle" x="480" y="-1022.5" font-family="Helvetica,sans-Serif" font-size="10.00">Length::toPx</text>
</a>
</g>
<!-- Node1&#45;&gt;Node9 -->
<g id="edge16" class="edge"><title>Node1&#45;&gt;Node9</title>
<path fill="none" stroke="midnightblue" d="M19.2316,-743.709C20.5324,-792.527 28.6105,-993.221 74,-1031 127.334,-1075.39 338.745,-1047.96 433.561,-1032.92"/>
<polygon fill="midnightblue" stroke="midnightblue" points="434.402,-1036.33 443.719,-1031.28 433.29,-1029.42 434.402,-1036.33"/>
</g>
<!-- Node10 -->
<g id="node19" class="node"><title>Node10</title>
<a xlink:href="../../d1/d7f/classlibrary_1_1_symbol_polygon.html#a063b16509d6e11ebd444f0d4253ff43e" target="_top" xlink:title="library::SymbolPolygon\l::isFilled">
<polygon fill="white" stroke="black" points="86.5,-988 86.5,-1022 203.5,-1022 203.5,-988 86.5,-988"/>
<text text-anchor="start" x="94.5" y="-1009" font-family="Helvetica,sans-Serif" font-size="10.00">library::SymbolPolygon</text>
<text text-anchor="middle" x="145" y="-996" font-family="Helvetica,sans-Serif" font-size="10.00">::isFilled</text>
</a>
</g>
<!-- Node1&#45;&gt;Node10 -->
<g id="edge18" class="edge"><title>Node1&#45;&gt;Node10</title>
<path fill="none" stroke="midnightblue" d="M20.0445,-743.787C24.3742,-786.435 42.1907,-942.722 74,-979 75.3306,-980.518 76.7575,-981.947 78.2643,-983.292"/>
<polygon fill="midnightblue" stroke="midnightblue" points="76.2794,-986.178 86.3883,-989.35 80.4638,-980.566 76.2794,-986.178"/>
</g>
<!-- Node11 -->
<g id="node21" class="node"><title>Node11</title>
<a xlink:href="../../d1/d7f/classlibrary_1_1_symbol_polygon.html#afb5593c9c44f491b400edfa695fea7dc" target="_top" xlink:title="library::SymbolPolygon\l::isGrabArea">
<polygon fill="white" stroke="black" points="86.5,-936 86.5,-970 203.5,-970 203.5,-936 86.5,-936"/>
<text text-anchor="start" x="94.5" y="-957" font-family="Helvetica,sans-Serif" font-size="10.00">library::SymbolPolygon</text>
<text text-anchor="middle" x="145" y="-944" font-family="Helvetica,sans-Serif" font-size="10.00">::isGrabArea</text>
</a>
</g>
<!-- Node1&#45;&gt;Node11 -->
<g id="edge20" class="edge"><title>Node1&#45;&gt;Node11</title>
<path fill="none" stroke="midnightblue" d="M20.8687,-743.618C27.3334,-779.32 49.6881,-894.345 74,-922 76.6711,-925.038 79.6946,-927.791 82.9509,-930.282"/>
<polygon fill="midnightblue" stroke="midnightblue" points="81.1945,-933.318 91.4564,-935.953 85.0776,-927.494 81.1945,-933.318"/>
</g>
<!-- Node12 -->
<g id="node23" class="node"><title>Node12</title>
<a xlink:href="../../d1/d7f/classlibrary_1_1_symbol_polygon.html#a0c155e27c8e6d8f1cd3a8443b7bad250" target="_top" xlink:title="library::SymbolPolygon\l::toQPainterPathPx">
<polygon fill="white" stroke="black" points="86.5,-846 86.5,-880 203.5,-880 203.5,-846 86.5,-846"/>
<text text-anchor="start" x="94.5" y="-867" font-family="Helvetica,sans-Serif" font-size="10.00">library::SymbolPolygon</text>
<text text-anchor="middle" x="145" y="-854" font-family="Helvetica,sans-Serif" font-size="10.00">::toQPainterPathPx</text>
</a>
</g>
<!-- Node1&#45;&gt;Node12 -->
<g id="edge22" class="edge"><title>Node1&#45;&gt;Node12</title>
<path fill="none" stroke="midnightblue" d="M22.3557,-743.708C29.0942,-763.617 46.0635,-806.61 74,-832 77.5459,-835.223 81.4799,-838.149 85.6252,-840.798"/>
<polygon fill="midnightblue" stroke="midnightblue" points="83.9651,-843.881 94.3744,-845.855 87.468,-837.821 83.9651,-843.881"/>
</g>
<!-- Node13 -->
<g id="node25" class="node"><title>Node13</title>
<a xlink:href="../../d0/d69/class_point.html#a3fb0d1120536f2a889eac1e5e88b9ac5" target="_top" xlink:title="Get the point as a QPointF object in pixels (for QGraphics* objects) ">
<polygon fill="white" stroke="black" points="279.5,-970.5 279.5,-991.5 380.5,-991.5 380.5,-970.5 279.5,-970.5"/>
<text text-anchor="middle" x="330" y="-978.5" font-family="Helvetica,sans-Serif" font-size="10.00">Point::toPxQPointF</text>
</a>
</g>
<!-- Node1&#45;&gt;Node13 -->
<g id="edge48" class="edge"><title>Node1&#45;&gt;Node13</title>
<path fill="none" stroke="midnightblue" d="M19.4783,-743.52C21.3375,-771.548 30.3698,-848.626 74,-889 121.951,-933.373 158.955,-895.155 216,-927 235.216,-937.728 232.728,-950.373 252,-961 257.543,-964.057 263.566,-966.658 269.725,-968.869"/>
<polygon fill="midnightblue" stroke="midnightblue" points="268.874,-972.272 279.466,-972.031 271.036,-965.614 268.874,-972.272"/>
</g>
<!-- Node17 -->
<g id="node34" class="node"><title>Node17</title>
<a xlink:href="../../d2/d39/class_angle.html#ad2926beabd4d66cc5bc1ac4c622540ea" target="_top" xlink:title="Get the Angle in degrees. ">
<polygon fill="white" stroke="black" points="293,-786.5 293,-807.5 367,-807.5 367,-786.5 293,-786.5"/>
<text text-anchor="middle" x="330" y="-794.5" font-family="Helvetica,sans-Serif" font-size="10.00">Angle::toDeg</text>
</a>
</g>
<!-- Node1&#45;&gt;Node17 -->
<g id="edge60" class="edge"><title>Node1&#45;&gt;Node17</title>
<path fill="none" stroke="midnightblue" d="M24.1008,-743.727C32.1808,-759.298 49.5519,-787.549 74,-799 141.117,-830.436 229.416,-820.07 282.825,-809.022"/>
<polygon fill="midnightblue" stroke="midnightblue" points="283.666,-812.421 292.702,-806.888 282.188,-805.579 283.666,-812.421"/>
</g>
<!-- Node18 -->
<g id="node36" class="node"><title>Node18</title>
<a xlink:href="../../d9/db9/classlibrary_1_1_symbol.html#ad066e5ebc05b8304981ceac6bf90a2c5" target="_top" xlink:title="library::Symbol::getEllipses">
<polygon fill="white" stroke="black" points="77,-768.5 77,-789.5 213,-789.5 213,-768.5 77,-768.5"/>
<text text-anchor="middle" x="145" y="-776.5" font-family="Helvetica,sans-Serif" font-size="10.00">library::Symbol::getEllipses</text>
</a>
</g>
<!-- Node1&#45;&gt;Node18 -->
<g id="edge36" class="edge"><title>Node1&#45;&gt;Node18</title>
<path fill="none" stroke="midnightblue" d="M38.0053,-742.948C48.4467,-748.166 61.7341,-754.41 74,-759 80.0606,-761.268 86.495,-763.42 92.9193,-765.413"/>
<polygon fill="midnightblue" stroke="midnightblue" points="92.3681,-768.901 102.951,-768.409 94.3709,-762.194 92.3681,-768.901"/>
</g>
<!-- Node19 -->
<g id="node38" class="node"><title>Node19</title>
<a xlink:href="../../d3/d06/classlibrary_1_1_symbol_ellipse.html#a3e5bed84d61dd74a10b6ace249c85efe" target="_top" xlink:title="library::SymbolEllipse\l::getLayerId">
<polygon fill="white" stroke="black" points="89.5,-716 89.5,-750 200.5,-750 200.5,-716 89.5,-716"/>
<text text-anchor="start" x="97.5" y="-737" font-family="Helvetica,sans-Serif" font-size="10.00">library::SymbolEllipse</text>
<text text-anchor="middle" x="145" y="-724" font-family="Helvetica,sans-Serif" font-size="10.00">::getLayerId</text>
</a>
</g>
<!-- Node1&#45;&gt;Node19 -->
<g id="edge38" class="edge"><title>Node1&#45;&gt;Node19</title>
<path fill="none" stroke="midnightblue" d="M38.1367,-733C49.2679,-733 64.0259,-733 79.0099,-733"/>
<polygon fill="midnightblue" stroke="midnightblue" points="79.3779,-736.5 89.3778,-733 79.3778,-729.5 79.3779,-736.5"/>
</g>
<!-- Node20 -->
<g id="node40" class="node"><title>Node20</title>
<a xlink:href="../../d3/d06/classlibrary_1_1_symbol_ellipse.html#aa30becedcca7c51ed0ffbefdfe4f21b2" target="_top" xlink:title="library::SymbolEllipse\l::getLineWidth">
<polygon fill="white" stroke="black" points="89.5,-664 89.5,-698 200.5,-698 200.5,-664 89.5,-664"/>
<text text-anchor="start" x="97.5" y="-685" font-family="Helvetica,sans-Serif" font-size="10.00">library::SymbolEllipse</text>
<text text-anchor="middle" x="145" y="-672" font-family="Helvetica,sans-Serif" font-size="10.00">::getLineWidth</text>
</a>
</g>
<!-- Node1&#45;&gt;Node20 -->
<g id="edge40" class="edge"><title>Node1&#45;&gt;Node20</title>
<path fill="none" stroke="midnightblue" d="M38.1523,-723.423C48.6369,-718.314 61.9185,-712.056 74,-707 78.2005,-705.242 82.5662,-703.484 86.9752,-701.756"/>
<polygon fill="midnightblue" stroke="midnightblue" points="88.5706,-704.893 96.6492,-698.038 86.0592,-698.359 88.5706,-704.893"/>
</g>
<!-- Node21 -->
<g id="node42" class="node"><title>Node21</title>
<a xlink:href="../../d3/d06/classlibrary_1_1_symbol_ellipse.html#a063b16509d6e11ebd444f0d4253ff43e" target="_top" xlink:title="library::SymbolEllipse\l::isFilled">
<polygon fill="white" stroke="black" points="89.5,-612 89.5,-646 200.5,-646 200.5,-612 89.5,-612"/>
<text text-anchor="start" x="97.5" y="-633" font-family="Helvetica,sans-Serif" font-size="10.00">library::SymbolEllipse</text>
<text text-anchor="middle" x="145" y="-620" font-family="Helvetica,sans-Serif" font-size="10.00">::isFilled</text>
</a>
</g>
<!-- Node1&#45;&gt;Node21 -->
<g id="edge42" class="edge"><title>Node1&#45;&gt;Node21</title>
<path fill="none" stroke="midnightblue" d="M23.8617,-722.361C31.9743,-705.726 49.7998,-673.544 74,-655 76.0514,-653.428 78.2071,-651.944 80.4391,-650.544"/>
<polygon fill="midnightblue" stroke="midnightblue" points="82.3477,-653.487 89.3661,-645.55 78.9301,-647.378 82.3477,-653.487"/>
</g>
<!-- Node22 -->
<g id="node44" class="node"><title>Node22</title>
<a xlink:href="../../d3/d06/classlibrary_1_1_symbol_ellipse.html#afb5593c9c44f491b400edfa695fea7dc" target="_top" xlink:title="library::SymbolEllipse\l::isGrabArea">
<polygon fill="white" stroke="black" points="89.5,-560 89.5,-594 200.5,-594 200.5,-560 89.5,-560"/>
<text text-anchor="start" x="97.5" y="-581" font-family="Helvetica,sans-Serif" font-size="10.00">library::SymbolEllipse</text>
<text text-anchor="middle" x="145" y="-568" font-family="Helvetica,sans-Serif" font-size="10.00">::isGrabArea</text>
</a>
</g>
<!-- Node1&#45;&gt;Node22 -->
<g id="edge44" class="edge"><title>Node1&#45;&gt;Node22</title>
<path fill="none" stroke="midnightblue" d="M20.5849,-722.28C24.7643,-697.735 38.3233,-636.963 74,-603 76.0947,-601.006 78.3546,-599.163 80.7359,-597.459"/>
<polygon fill="midnightblue" stroke="midnightblue" points="82.5826,-600.432 89.236,-592.187 78.893,-594.483 82.5826,-600.432"/>
</g>
<!-- Node23 -->
<g id="node46" class="node"><title>Node23</title>
<a xlink:href="../../d3/d06/classlibrary_1_1_symbol_ellipse.html#a566b4b0cdb76d02a8b4cc69df41d780d" target="_top" xlink:title="library::SymbolEllipse\l::getCenter">
<polygon fill="white" stroke="black" points="89.5,-508 89.5,-542 200.5,-542 200.5,-508 89.5,-508"/>
<text text-anchor="start" x="97.5" y="-529" font-family="Helvetica,sans-Serif" font-size="10.00">library::SymbolEllipse</text>
<text text-anchor="middle" x="145" y="-516" font-family="Helvetica,sans-Serif" font-size="10.00">::getCenter</text>
</a>
</g>
<!-- Node1&#45;&gt;Node23 -->
<g id="edge46" class="edge"><title>Node1&#45;&gt;Node23</title>
<path fill="none" stroke="midnightblue" d="M20.906,-722.476C27.4041,-687.636 49.6413,-576.803 74,-551 76.0698,-548.808 78.3396,-546.799 80.7571,-544.96"/>
<polygon fill="midnightblue" stroke="midnightblue" points="82.9675,-547.699 89.4686,-539.333 79.1695,-541.818 82.9675,-547.699"/>
</g>
<!-- Node24 -->
<g id="node49" class="node"><title>Node24</title>
<a xlink:href="../../d3/d06/classlibrary_1_1_symbol_ellipse.html#aa72fc430fe3e7b7ce145fa2e72169b00" target="_top" xlink:title="library::SymbolEllipse\l::getRadiusX">
<polygon fill="white" stroke="black" points="89.5,-456 89.5,-490 200.5,-490 200.5,-456 89.5,-456"/>
<text text-anchor="start" x="97.5" y="-477" font-family="Helvetica,sans-Serif" font-size="10.00">library::SymbolEllipse</text>
<text text-anchor="middle" x="145" y="-464" font-family="Helvetica,sans-Serif" font-size="10.00">::getRadiusX</text>
</a>
</g>
<!-- Node1&#45;&gt;Node24 -->
<g id="edge50" class="edge"><title>Node1&#45;&gt;Node24</title>
<path fill="none" stroke="midnightblue" d="M20.1504,-722.457C24.8165,-681.476 43.548,-533.351 74,-499 76.0001,-496.744 78.2129,-494.683 80.584,-492.801"/>
<polygon fill="midnightblue" stroke="midnightblue" points="82.8024,-495.529 89.1772,-487.066 78.9165,-489.706 82.8024,-495.529"/>
</g>
<!-- Node25 -->
<g id="node51" class="node"><title>Node25</title>
<a xlink:href="../../d3/d06/classlibrary_1_1_symbol_ellipse.html#a24917dabaf5342a7c8d60416bc304a2e" target="_top" xlink:title="library::SymbolEllipse\l::getRadiusY">
<polygon fill="white" stroke="black" points="89.5,-404 89.5,-438 200.5,-438 200.5,-404 89.5,-404"/>
<text text-anchor="start" x="97.5" y="-425" font-family="Helvetica,sans-Serif" font-size="10.00">library::SymbolEllipse</text>
<text text-anchor="middle" x="145" y="-412" font-family="Helvetica,sans-Serif" font-size="10.00">::getRadiusY</text>
</a>
</g>
<!-- Node1&#45;&gt;Node25 -->
<g id="edge52" class="edge"><title>Node1&#45;&gt;Node25</title>
<path fill="none" stroke="midnightblue" d="M19.6641,-722.423C22.7826,-675.92 37.389,-490.038 74,-447 75.9935,-444.657 78.217,-442.524 80.6118,-440.584"/>
<polygon fill="midnightblue" stroke="midnightblue" points="82.9982,-443.196 89.3285,-434.7 79.0818,-437.394 82.9982,-443.196"/>
</g>
<!-- Node26 -->
<g id="node53" class="node"><title>Node26</title>
<a xlink:href="../../d9/db9/classlibrary_1_1_symbol.html#af3e51c69f130dab1acd01d41105c4ea3" target="_top" xlink:title="library::Symbol::getTexts">
<polygon fill="white" stroke="black" points="82,-364.5 82,-385.5 208,-385.5 208,-364.5 82,-364.5"/>
<text text-anchor="middle" x="145" y="-372.5" font-family="Helvetica,sans-Serif" font-size="10.00">library::Symbol::getTexts</text>
</a>
</g>
<!-- Node1&#45;&gt;Node26 -->
<g id="edge54" class="edge"><title>Node1&#45;&gt;Node26</title>
<path fill="none" stroke="midnightblue" d="M19.2457,-722.227C20.6496,-670.169 29.2608,-445.117 74,-395 75.1726,-393.686 76.4241,-392.456 77.7426,-391.304"/>
<polygon fill="midnightblue" stroke="midnightblue" points="79.7849,-394.147 85.9441,-385.526 75.7533,-388.424 79.7849,-394.147"/>
</g>
<!-- Node27 -->
<g id="node55" class="node"><title>Node27</title>
<a xlink:href="../../db/df7/classlibrary_1_1_symbol_text.html#a3e5bed84d61dd74a10b6ace249c85efe" target="_top" xlink:title="library::SymbolText\l::getLayerId">
<polygon fill="white" stroke="black" points="94.5,-312 94.5,-346 195.5,-346 195.5,-312 94.5,-312"/>
<text text-anchor="start" x="102.5" y="-333" font-family="Helvetica,sans-Serif" font-size="10.00">library::SymbolText</text>
<text text-anchor="middle" x="145" y="-320" font-family="Helvetica,sans-Serif" font-size="10.00">::getLayerId</text>
</a>
</g>
<!-- Node1&#45;&gt;Node27 -->
<g id="edge56" class="edge"><title>Node1&#45;&gt;Node27</title>
<path fill="none" stroke="midnightblue" d="M19.125,-722.166C19.9755,-666.558 26.4427,-413.555 74,-355 77.278,-350.964 81.2413,-347.554 85.5994,-344.674"/>
<polygon fill="midnightblue" stroke="midnightblue" points="87.3681,-347.695 94.3906,-339.762 83.9536,-341.585 87.3681,-347.695"/>
</g>
<!-- Node28 -->
<g id="node57" class="node"><title>Node28</title>
<a xlink:href="../../db/df7/classlibrary_1_1_symbol_text.html#a894842161e505b56d67b0cf5b0f50087" target="_top" xlink:title="library::SymbolText\l::getAngle">
<polygon fill="white" stroke="black" points="94.5,-260 94.5,-294 195.5,-294 195.5,-260 94.5,-260"/>
<text text-anchor="start" x="102.5" y="-281" font-family="Helvetica,sans-Serif" font-size="10.00">library::SymbolText</text>
<text text-anchor="middle" x="145" y="-268" font-family="Helvetica,sans-Serif" font-size="10.00">::getAngle</text>
</a>
</g>
<!-- Node1&#45;&gt;Node28 -->
<g id="edge58" class="edge"><title>Node1&#45;&gt;Node28</title>
<path fill="none" stroke="midnightblue" d="M19.6955,-722.471C23.923,-659.752 46.8912,-336.973 74,-303 77.243,-298.936 81.1822,-295.507 85.5245,-292.614"/>
<polygon fill="midnightblue" stroke="midnightblue" points="87.2919,-295.636 94.2947,-287.685 83.8623,-289.533 87.2919,-295.636"/>
</g>
<!-- Node29 -->
<g id="node60" class="node"><title>Node29</title>
<a xlink:href="../../db/df7/classlibrary_1_1_symbol_text.html#a0956fb9eaa66799447596d95c6f1e46d" target="_top" xlink:title="library::SymbolText\l::getHeight">
<polygon fill="white" stroke="black" points="94.5,-208 94.5,-242 195.5,-242 195.5,-208 94.5,-208"/>
<text text-anchor="start" x="102.5" y="-229" font-family="Helvetica,sans-Serif" font-size="10.00">library::SymbolText</text>
<text text-anchor="middle" x="145" y="-216" font-family="Helvetica,sans-Serif" font-size="10.00">::getHeight</text>
</a>
</g>
<!-- Node1&#45;&gt;Node29 -->
<g id="edge62" class="edge"><title>Node1&#45;&gt;Node29</title>
<path fill="none" stroke="midnightblue" d="M19.5631,-722.098C23.1651,-654.059 43.7919,-289.39 74,-251 77.2153,-246.914 81.1353,-243.47 85.4651,-240.567"/>
<polygon fill="midnightblue" stroke="midnightblue" points="87.2314,-243.589 94.2188,-235.625 83.79,-237.493 87.2314,-243.589"/>
</g>
<!-- Node30 -->
<g id="node62" class="node"><title>Node30</title>
<a xlink:href="../../de/d50/classproject_1_1_s_i___symbol.html#a7c547c92d2781e3129fd5cf0c4a89668" target="_top" xlink:title="project::SI_Symbol\l::getGenCompInstance">
<polygon fill="white" stroke="black" points="86,-156 86,-190 204,-190 204,-156 86,-156"/>
<text text-anchor="start" x="94" y="-177" font-family="Helvetica,sans-Serif" font-size="10.00">project::SI_Symbol</text>
<text text-anchor="middle" x="145" y="-164" font-family="Helvetica,sans-Serif" font-size="10.00">::getGenCompInstance</text>
</a>
</g>
<!-- Node1&#45;&gt;Node30 -->
<g id="edge64" class="edge"><title>Node1&#45;&gt;Node30</title>
<path fill="none" stroke="midnightblue" d="M19.4257,-722.345C22.3706,-650.806 40.592,-241.939 74,-199 75.2393,-197.407 76.5859,-195.912 78.0224,-194.508"/>
<polygon fill="midnightblue" stroke="midnightblue" points="80.2529,-197.206 85.8733,-188.225 75.8789,-191.74 80.2529,-197.206"/>
</g>
<!-- Node31 -->
<g id="node64" class="node"><title>Node31</title>
<a xlink:href="../../de/d67/classproject_1_1_gen_comp_instance.html#a385c6fda0e3528a8bb626a0eb1bebc45" target="_top" xlink:title="project::GenCompInstance\l::getPlacedSymbolsCount">
<polygon fill="white" stroke="black" points="78,-104 78,-138 212,-138 212,-104 78,-104"/>
<text text-anchor="start" x="86" y="-125" font-family="Helvetica,sans-Serif" font-size="10.00">project::GenCompInstance</text>
<text text-anchor="middle" x="145" y="-112" font-family="Helvetica,sans-Serif" font-size="10.00">::getPlacedSymbolsCount</text>
</a>
</g>
<!-- Node1&#45;&gt;Node31 -->
<g id="edge66" class="edge"><title>Node1&#45;&gt;Node31</title>
<path fill="none" stroke="midnightblue" d="M19.3248,-722.298C21.7075,-646.673 37.4289,-194.446 74,-147 74.5785,-146.249 75.1808,-145.521 75.8052,-144.813"/>
<polygon fill="midnightblue" stroke="midnightblue" points="78.2341,-147.334 83.2553,-138.005 73.5121,-142.167 78.2341,-147.334"/>
</g>
<!-- Node32 -->
<g id="node66" class="node"><title>Node32</title>
<a xlink:href="../../de/d67/classproject_1_1_gen_comp_instance.html#a262b68ad3d75814c875b941e2088d88e" target="_top" xlink:title="project::GenCompInstance\l::getSymbolVariant">
<polygon fill="white" stroke="black" points="78,-52 78,-86 212,-86 212,-52 78,-52"/>
<text text-anchor="start" x="86" y="-73" font-family="Helvetica,sans-Serif" font-size="10.00">project::GenCompInstance</text>
<text text-anchor="middle" x="145" y="-60" font-family="Helvetica,sans-Serif" font-size="10.00">::getSymbolVariant</text>
</a>
</g>
<!-- Node1&#45;&gt;Node32 -->
<g id="edge68" class="edge"><title>Node1&#45;&gt;Node32</title>
<path fill="none" stroke="midnightblue" d="M19.2367,-722.382C21.0878,-643.238 34.2382,-146.993 74,-95 74.4785,-94.3744 74.9735,-93.7638 75.4841,-93.1679"/>
<polygon fill="midnightblue" stroke="midnightblue" points="78.0005,-95.6066 82.9119,-86.2188 73.2182,-90.4948 78.0005,-95.6066"/>
</g>
<!-- Node33 -->
<g id="node68" class="node"><title>Node33</title>
<a xlink:href="../../d7/dff/classlibrary_1_1_gen_comp_symb_var.html#a95be340ed5134b5b4fc05ab47e4c9c34" target="_top" xlink:title="library::GenCompSymbVar\l::getItems">
<polygon fill="white" stroke="black" points="78,-0 78,-34 212,-34 212,-0 78,-0"/>
<text text-anchor="start" x="86" y="-21" font-family="Helvetica,sans-Serif" font-size="10.00">library::GenCompSymbVar</text>
<text text-anchor="middle" x="145" y="-8" font-family="Helvetica,sans-Serif" font-size="10.00">::getItems</text>
</a>
</g>
<!-- Node1&#45;&gt;Node33 -->
<g id="edge70" class="edge"><title>Node1&#45;&gt;Node33</title>
<path fill="none" stroke="midnightblue" d="M19.1649,-722.322C20.5343,-639.363 31.0656,-99.518 74,-43 74.4764,-42.3728 74.9695,-41.7608 75.4783,-41.1635"/>
<polygon fill="midnightblue" stroke="midnightblue" points="77.9975,-43.599 82.8871,-34.2 73.2034,-38.4983 77.9975,-43.599"/>
</g>
<!-- Node12&#45;&gt;Node13 -->
<g id="edge24" class="edge"><title>Node12&#45;&gt;Node13</title>
<path fill="none" stroke="midnightblue" d="M195.693,-880.071C203.014,-883.922 210.066,-888.53 216,-894 240.856,-916.911 225.386,-940.158 252,-961 257.324,-965.17 263.422,-968.478 269.81,-971.101"/>
<polygon fill="midnightblue" stroke="midnightblue" points="268.726,-974.43 279.321,-974.474 271.066,-967.833 268.726,-974.43"/>
</g>
<!-- Node14 -->
<g id="node28" class="node"><title>Node14</title>
<a xlink:href="../../d9/d94/classlibrary_1_1_symbol_polygon_segment.html#a894842161e505b56d67b0cf5b0f50087" target="_top" xlink:title="library::SymbolPolygonSegment\l::getAngle">
<polygon fill="white" stroke="black" points="252,-918 252,-952 408,-952 408,-918 252,-918"/>
<text text-anchor="start" x="260" y="-939" font-family="Helvetica,sans-Serif" font-size="10.00">library::SymbolPolygonSegment</text>
<text text-anchor="middle" x="330" y="-926" font-family="Helvetica,sans-Serif" font-size="10.00">::getAngle</text>
</a>
</g>
<!-- Node12&#45;&gt;Node14 -->
<g id="edge28" class="edge"><title>Node12&#45;&gt;Node14</title>
<path fill="none" stroke="midnightblue" d="M184.328,-880.098C211.963,-892.079 245.174,-906.4 252,-909 257.002,-910.905 262.213,-912.81 267.463,-914.674"/>
<polygon fill="midnightblue" stroke="midnightblue" points="266.326,-917.984 276.92,-917.976 268.633,-911.375 266.326,-917.984"/>
</g>
<!-- Node15 -->
<g id="node30" class="node"><title>Node15</title>
<a xlink:href="../../d9/d94/classlibrary_1_1_symbol_polygon_segment.html#af89771a9eb5882eaee9f298f663f89dc" target="_top" xlink:title="library::SymbolPolygonSegment\l::getEndPos">
<polygon fill="white" stroke="black" points="252,-866 252,-900 408,-900 408,-866 252,-866"/>
<text text-anchor="start" x="260" y="-887" font-family="Helvetica,sans-Serif" font-size="10.00">library::SymbolPolygonSegment</text>
<text text-anchor="middle" x="330" y="-874" font-family="Helvetica,sans-Serif" font-size="10.00">::getEndPos</text>
</a>
</g>
<!-- Node12&#45;&gt;Node15 -->
<g id="edge30" class="edge"><title>Node12&#45;&gt;Node15</title>
<path fill="none" stroke="midnightblue" d="M203.535,-869.328C215.647,-870.637 228.661,-872.044 241.569,-873.44"/>
<polygon fill="midnightblue" stroke="midnightblue" points="241.56,-876.959 251.879,-874.554 242.313,-870 241.56,-876.959"/>
</g>
<!-- Node16 -->
<g id="node32" class="node"><title>Node16</title>
<a xlink:href="../../d2/d39/class_angle.html#a70d223e0c1188606f971188d6f23b66f" target="_top" xlink:title="Get the angle in radians. ">
<polygon fill="white" stroke="black" points="293,-826.5 293,-847.5 367,-847.5 367,-826.5 293,-826.5"/>
<text text-anchor="middle" x="330" y="-834.5" font-family="Helvetica,sans-Serif" font-size="10.00">Angle::toRad</text>
</a>
</g>
<!-- Node12&#45;&gt;Node16 -->
<g id="edge32" class="edge"><title>Node12&#45;&gt;Node16</title>
<path fill="none" stroke="midnightblue" d="M203.535,-854.773C229.1,-851.181 258.684,-847.023 282.808,-843.632"/>
<polygon fill="midnightblue" stroke="midnightblue" points="283.369,-847.088 292.785,-842.23 282.395,-840.156 283.369,-847.088"/>
</g>
<!-- Node12&#45;&gt;Node17 -->
<g id="edge34" class="edge"><title>Node12&#45;&gt;Node17</title>
<path fill="none" stroke="midnightblue" d="M183.991,-845.889C211.656,-833.808 245.062,-819.365 252,-817 261.927,-813.616 272.735,-810.498 283.054,-807.78"/>
<polygon fill="midnightblue" stroke="midnightblue" points="283.932,-811.169 292.754,-805.302 282.199,-804.387 283.932,-811.169"/>
</g>
<!-- Node13&#45;&gt;Node9 -->
<g id="edge26" class="edge"><title>Node13&#45;&gt;Node9</title>
<path fill="none" stroke="midnightblue" d="M365.929,-991.539C386.448,-997.558 412.38,-1005.16 434.332,-1011.6"/>
<polygon fill="midnightblue" stroke="midnightblue" points="433.524,-1015.01 444.105,-1014.47 435.494,-1008.3 433.524,-1015.01"/>
</g>
</g>
</svg>
