<?xml version="1.0" encoding="UTF-8" standalone="no"?>
<!DOCTYPE svg PUBLIC "-//W3C//DTD SVG 1.1//EN"
 "http://www.w3.org/Graphics/SVG/1.1/DTD/svg11.dtd">
<!-- Generated by graphviz version 2.26.3 (20100126.1600)
 -->
<!-- Title: /home/travis/build/LibrePCB/LibrePCB/libs/librepcbproject/erc/ercmsglist.cpp Pages: 1 -->
<svg width="1414pt" height="330pt"
 viewBox="0.00 0.00 1414.00 330.00" xmlns="http://www.w3.org/2000/svg" xmlns:xlink="http://www.w3.org/1999/xlink">
<g id="graph1" class="graph" transform="scale(1 1) rotate(0) translate(4 326)">
<title>/home/travis/build/LibrePCB/LibrePCB/libs/librepcbproject/erc/ercmsglist.cpp</title>
<polygon fill="white" stroke="white" points="-4,5 -4,-326 1411,-326 1411,5 -4,5"/>
<!-- Node1 -->
<g id="node1" class="node"><title>Node1</title>
<polygon fill="#bfbfbf" stroke="black" points="1052,-274.5 1052,-321.5 1218,-321.5 1218,-274.5 1052,-274.5"/>
<text text-anchor="start" x="1060" y="-308.5" font-family="Helvetica,sans-Serif" font-size="10.00">/home/travis/build</text>
<text text-anchor="start" x="1060" y="-295.5" font-family="Helvetica,sans-Serif" font-size="10.00">/LibrePCB/LibrePCB/libs</text>
<text text-anchor="middle" x="1135" y="-282.5" font-family="Helvetica,sans-Serif" font-size="10.00">/librepcbproject/erc/ercmsglist.cpp</text>
</g>
<!-- Node2 -->
<g id="node3" class="node"><title>Node2</title>
<polygon fill="white" stroke="#bfbfbf" points="778,-0.5 778,-21.5 826,-21.5 826,-0.5 778,-0.5"/>
<text text-anchor="middle" x="802" y="-8.5" font-family="Helvetica,sans-Serif" font-size="10.00">QtCore</text>
</g>
<!-- Node1&#45;&gt;Node2 -->
<g id="edge2" class="edge"><title>Node1&#45;&gt;Node2</title>
<path fill="none" stroke="midnightblue" d="M1173.05,-274.388C1240.71,-229.617 1368.92,-130.392 1303,-58 1271.59,-23.5009 943.698,-13.8503 836.038,-11.601"/>
<polygon fill="midnightblue" stroke="midnightblue" points="836.103,-8.10172 826.035,-11.4003 835.962,-15.1003 836.103,-8.10172"/>
</g>
<!-- Node3 -->
<g id="node5" class="node"><title>Node3</title>
<a xlink:href="../../db/d85/ercmsglist_8h.html" target="_top" xlink:title="ercmsglist.h">
<polygon fill="white" stroke="black" points="825,-209.5 825,-230.5 895,-230.5 895,-209.5 825,-209.5"/>
<text text-anchor="middle" x="860" y="-217.5" font-family="Helvetica,sans-Serif" font-size="10.00">ercmsglist.h</text>
</a>
</g>
<!-- Node1&#45;&gt;Node3 -->
<g id="edge4" class="edge"><title>Node1&#45;&gt;Node3</title>
<path fill="none" stroke="midnightblue" d="M1051.94,-278.173C1008.72,-267.321 955.188,-253.042 908,-238 904.197,-236.788 900.254,-235.448 896.336,-234.062"/>
<polygon fill="midnightblue" stroke="midnightblue" points="897.338,-230.702 886.744,-230.571 894.943,-237.28 897.338,-230.702"/>
</g>
<!-- Node7 -->
<g id="node17" class="node"><title>Node7</title>
<a xlink:href="../../df/d2c/ercmsg_8h.html" target="_top" xlink:title="ercmsg.h">
<polygon fill="white" stroke="black" points="1349.5,-209.5 1349.5,-230.5 1406.5,-230.5 1406.5,-209.5 1349.5,-209.5"/>
<text text-anchor="middle" x="1378" y="-217.5" font-family="Helvetica,sans-Serif" font-size="10.00">ercmsg.h</text>
</a>
</g>
<!-- Node1&#45;&gt;Node7 -->
<g id="edge20" class="edge"><title>Node1&#45;&gt;Node7</title>
<path fill="none" stroke="midnightblue" d="M1218.33,-275.448C1254.77,-264.992 1297.82,-251.828 1336,-238 1339.06,-236.892 1342.21,-235.678 1345.36,-234.419"/>
<polygon fill="midnightblue" stroke="midnightblue" points="1346.74,-237.633 1354.64,-230.573 1344.07,-231.166 1346.74,-237.633"/>
</g>
<!-- Node8 -->
<g id="node20" class="node"><title>Node8</title>
<a xlink:href="../../da/dfb/if__ercmsgprovider_8h.html" target="_top" xlink:title="if_ercmsgprovider.h">
<polygon fill="white" stroke="black" points="1045,-209.5 1045,-230.5 1147,-230.5 1147,-209.5 1045,-209.5"/>
<text text-anchor="middle" x="1096" y="-217.5" font-family="Helvetica,sans-Serif" font-size="10.00">if_ercmsgprovider.h</text>
</a>
</g>
<!-- Node1&#45;&gt;Node8 -->
<g id="edge24" class="edge"><title>Node1&#45;&gt;Node8</title>
<path fill="none" stroke="midnightblue" d="M1123.09,-274.174C1117.59,-263.173 1111.13,-250.265 1105.9,-239.809"/>
<polygon fill="midnightblue" stroke="midnightblue" points="1108.94,-238.056 1101.34,-230.677 1102.68,-241.186 1108.94,-238.056"/>
</g>
<!-- Node9 -->
<g id="node22" class="node"><title>Node9</title>
<a xlink:href="../../dc/d8d/project_8h.html" target="_top" xlink:title="../project.h">
<polygon fill="white" stroke="black" points="478.5,-209.5 478.5,-230.5 541.5,-230.5 541.5,-209.5 478.5,-209.5"/>
<text text-anchor="middle" x="510" y="-217.5" font-family="Helvetica,sans-Serif" font-size="10.00">../project.h</text>
</a>
</g>
<!-- Node1&#45;&gt;Node9 -->
<g id="edge26" class="edge"><title>Node1&#45;&gt;Node9</title>
<path fill="none" stroke="midnightblue" d="M1051.68,-287.602C916.387,-270.717 653.793,-237.945 551.864,-225.225"/>
<polygon fill="midnightblue" stroke="midnightblue" points="552.015,-221.716 541.659,-223.951 551.149,-228.663 552.015,-221.716"/>
</g>
<!-- Node14 -->
<g id="node41" class="node"><title>Node14</title>
<a xlink:href="../../d9/d10/smartxmlfile_8h.html" target="_top" xlink:title="librepcbcommon/fileio\l/smartxmlfile.h">
<polygon fill="white" stroke="black" points="916.5,-203 916.5,-237 1027.5,-237 1027.5,-203 916.5,-203"/>
<text text-anchor="start" x="924.5" y="-224" font-family="Helvetica,sans-Serif" font-size="10.00">librepcbcommon/fileio</text>
<text text-anchor="middle" x="972" y="-211" font-family="Helvetica,sans-Serif" font-size="10.00">/smartxmlfile.h</text>
</a>
</g>
<!-- Node1&#45;&gt;Node14 -->
<g id="edge54" class="edge"><title>Node1&#45;&gt;Node14</title>
<path fill="none" stroke="midnightblue" d="M1085.65,-274.386C1063.78,-263.918 1038.22,-251.689 1016.89,-241.481"/>
<polygon fill="midnightblue" stroke="midnightblue" points="1018.26,-238.254 1007.72,-237.095 1015.23,-244.569 1018.26,-238.254"/>
</g>
<!-- Node16 -->
<g id="node49" class="node"><title>Node16</title>
<a xlink:href="../../d8/d67/xmldomdocument_8h.html" target="_top" xlink:title="librepcbcommon/fileio\l/xmldomdocument.h">
<polygon fill="white" stroke="black" points="1043.5,-131 1043.5,-165 1154.5,-165 1154.5,-131 1043.5,-131"/>
<text text-anchor="start" x="1051.5" y="-152" font-family="Helvetica,sans-Serif" font-size="10.00">librepcbcommon/fileio</text>
<text text-anchor="middle" x="1099" y="-139" font-family="Helvetica,sans-Serif" font-size="10.00">/xmldomdocument.h</text>
</a>
</g>
<!-- Node1&#45;&gt;Node16 -->
<g id="edge66" class="edge"><title>Node1&#45;&gt;Node16</title>
<path fill="none" stroke="midnightblue" d="M1148.02,-274.345C1157.16,-254.427 1166.11,-225.509 1156,-202 1150.99,-190.358 1142.1,-180.05 1132.82,-171.643"/>
<polygon fill="midnightblue" stroke="midnightblue" points="1134.89,-168.816 1124.99,-165.04 1130.38,-174.165 1134.89,-168.816"/>
</g>
<!-- Node18 -->
<g id="node56" class="node"><title>Node18</title>
<a xlink:href="../../d1/d68/xmldomelement_8h.html" target="_top" xlink:title="librepcbcommon/fileio\l/xmldomelement.h">
<polygon fill="white" stroke="black" points="1171.5,-131 1171.5,-165 1282.5,-165 1282.5,-131 1171.5,-131"/>
<text text-anchor="start" x="1179.5" y="-152" font-family="Helvetica,sans-Serif" font-size="10.00">librepcbcommon/fileio</text>
<text text-anchor="middle" x="1227" y="-139" font-family="Helvetica,sans-Serif" font-size="10.00">/xmldomelement.h</text>
</a>
</g>
<!-- Node1&#45;&gt;Node18 -->
<g id="edge76" class="edge"><title>Node1&#45;&gt;Node18</title>
<path fill="none" stroke="midnightblue" d="M1149.61,-274.361C1156.42,-263.32 1164.64,-249.994 1172,-238 1185.22,-216.471 1200.16,-192.01 1211.13,-174.029"/>
<polygon fill="midnightblue" stroke="midnightblue" points="1214.26,-175.626 1216.48,-165.266 1208.28,-171.981 1214.26,-175.626"/>
</g>
<!-- Node3&#45;&gt;Node2 -->
<g id="edge6" class="edge"><title>Node3&#45;&gt;Node2</title>
<path fill="none" stroke="midnightblue" d="M824.874,-218.923C754.349,-215.943 599.474,-205.006 567,-166 503.48,-89.7032 688.72,-36.8971 767.943,-18.3399"/>
<polygon fill="midnightblue" stroke="midnightblue" points="768.975,-21.6941 777.94,-16.0484 767.411,-14.8711 768.975,-21.6941"/>
</g>
<!-- Node4 -->
<g id="node8" class="node"><title>Node4</title>
<a xlink:href="../../d0/d1d/if__xmlserializableobject_8h.html" target="_top" xlink:title="librepcbcommon/fileio\l/if_xmlserializableobject.h">
<polygon fill="white" stroke="black" points="703.5,-131 703.5,-165 832.5,-165 832.5,-131 703.5,-131"/>
<text text-anchor="start" x="711.5" y="-152" font-family="Helvetica,sans-Serif" font-size="10.00">librepcbcommon/fileio</text>
<text text-anchor="middle" x="768" y="-139" font-family="Helvetica,sans-Serif" font-size="10.00">/if_xmlserializableobject.h</text>
</a>
</g>
<!-- Node3&#45;&gt;Node4 -->
<g id="edge8" class="edge"><title>Node3&#45;&gt;Node4</title>
<path fill="none" stroke="midnightblue" d="M846.425,-209.376C833.741,-199.45 814.365,-184.286 798.046,-171.514"/>
<polygon fill="midnightblue" stroke="midnightblue" points="799.875,-168.501 789.843,-165.094 795.561,-174.014 799.875,-168.501"/>
</g>
<!-- Node5 -->
<g id="node10" class="node"><title>Node5</title>
<a xlink:href="../../d4/d03/exceptions_8h.html" target="_top" xlink:title="../exceptions.h">
<polygon fill="white" stroke="black" points="727.5,-65.5 727.5,-86.5 808.5,-86.5 808.5,-65.5 727.5,-65.5"/>
<text text-anchor="middle" x="768" y="-73.5" font-family="Helvetica,sans-Serif" font-size="10.00">../exceptions.h</text>
</a>
</g>
<!-- Node3&#45;&gt;Node5 -->
<g id="edge14" class="edge"><title>Node3&#45;&gt;Node5</title>
<path fill="none" stroke="midnightblue" d="M860.121,-209.386C859.838,-191.567 857.14,-155.126 841,-130 830.699,-113.963 813.845,-101.03 798.925,-91.8448"/>
<polygon fill="midnightblue" stroke="midnightblue" points="800.363,-88.6315 789.962,-86.6162 796.836,-94.6781 800.363,-88.6315"/>
</g>
<!-- Node6 -->
<g id="node14" class="node"><title>Node6</title>
<a xlink:href="../../dd/dec/filepath_8h.html" target="_top" xlink:title="librepcbcommon/fileio\l/filepath.h">
<polygon fill="white" stroke="black" points="863.5,-59 863.5,-93 974.5,-93 974.5,-59 863.5,-59"/>
<text text-anchor="start" x="871.5" y="-80" font-family="Helvetica,sans-Serif" font-size="10.00">librepcbcommon/fileio</text>
<text text-anchor="middle" x="919" y="-67" font-family="Helvetica,sans-Serif" font-size="10.00">/filepath.h</text>
</a>
</g>
<!-- Node3&#45;&gt;Node6 -->
<g id="edge16" class="edge"><title>Node3&#45;&gt;Node6</title>
<path fill="none" stroke="midnightblue" d="M885.993,-209.439C912.48,-198.084 950.805,-179.805 959,-166 971.469,-144.995 957.565,-119.406 942.84,-100.891"/>
<polygon fill="midnightblue" stroke="midnightblue" points="945.454,-98.5615 936.331,-93.1735 940.103,-103.074 945.454,-98.5615"/>
</g>
<!-- Node4&#45;&gt;Node5 -->
<g id="edge10" class="edge"><title>Node4&#45;&gt;Node5</title>
<path fill="none" stroke="midnightblue" d="M768,-130.937C768,-120.814 768,-107.898 768,-97.1329"/>
<polygon fill="midnightblue" stroke="midnightblue" points="771.5,-96.901 768,-86.901 764.5,-96.9011 771.5,-96.901"/>
</g>
<!-- Node5&#45;&gt;Node2 -->
<g id="edge12" class="edge"><title>Node5&#45;&gt;Node2</title>
<path fill="none" stroke="midnightblue" d="M773.614,-65.2666C778.516,-55.8959 785.755,-42.0573 791.695,-30.7004"/>
<polygon fill="midnightblue" stroke="midnightblue" points="794.956,-32.017 796.49,-21.5337 788.754,-28.7724 794.956,-32.017"/>
</g>
<!-- Node6&#45;&gt;Node2 -->
<g id="edge18" class="edge"><title>Node6&#45;&gt;Node2</title>
<path fill="none" stroke="midnightblue" d="M888.26,-58.922C870.322,-48.9566 847.851,-36.4729 830.342,-26.7455"/>
<polygon fill="midnightblue" stroke="midnightblue" points="831.626,-23.4553 821.185,-21.6584 828.227,-29.5744 831.626,-23.4553"/>
</g>
<!-- Node7&#45;&gt;Node2 -->
<g id="edge22" class="edge"><title>Node7&#45;&gt;Node2</title>
<path fill="none" stroke="midnightblue" d="M1378.99,-209.168C1381.02,-179.588 1382.13,-97.0461 1336,-58 1297.85,-25.7072 947.706,-14.5154 836.046,-11.7504"/>
<polygon fill="midnightblue" stroke="midnightblue" points="836.084,-8.25042 826.003,-11.5087 835.916,-15.2484 836.084,-8.25042"/>
</g>
<!-- Node9&#45;&gt;Node2 -->
<g id="edge28" class="edge"><title>Node9&#45;&gt;Node2</title>
<path fill="none" stroke="midnightblue" d="M510.9,-209.316C513.961,-180.113 526.656,-98.4476 575,-58 603.853,-33.8599 711.625,-19.9124 767.663,-14.1447"/>
<polygon fill="midnightblue" stroke="midnightblue" points="768.215,-17.607 777.818,-13.1309 767.52,-10.6417 768.215,-17.607"/>
</g>
<!-- Node9&#45;&gt;Node4 -->
<g id="edge30" class="edge"><title>Node9&#45;&gt;Node4</title>
<path fill="none" stroke="midnightblue" d="M541.636,-211.171C580.191,-200.412 646.488,-181.91 697.401,-167.702"/>
<polygon fill="midnightblue" stroke="midnightblue" points="698.35,-171.071 707.041,-165.012 696.469,-164.329 698.35,-171.071"/>
</g>
<!-- Node9&#45;&gt;Node5 -->
<g id="edge44" class="edge"><title>Node9&#45;&gt;Node5</title>
<path fill="none" stroke="midnightblue" d="M513.768,-209.291C521.008,-190.314 538.696,-150.826 567,-130 590.738,-112.534 665.836,-95.4011 717.203,-85.2686"/>
<polygon fill="midnightblue" stroke="midnightblue" points="717.989,-88.6814 727.137,-83.3374 716.653,-81.81 717.989,-88.6814"/>
</g>
<!-- Node10 -->
<g id="node26" class="node"><title>Node10</title>
<a xlink:href="../../da/d81/if__attributeprovider_8h.html" target="_top" xlink:title="librepcbcommon/if_attributeprovider.h">
<polygon fill="white" stroke="black" points="-0.5,-65.5 -0.5,-86.5 178.5,-86.5 178.5,-65.5 -0.5,-65.5"/>
<text text-anchor="middle" x="89" y="-73.5" font-family="Helvetica,sans-Serif" font-size="10.00">librepcbcommon/if_attributeprovider.h</text>
</a>
</g>
<!-- Node9&#45;&gt;Node10 -->
<g id="edge32" class="edge"><title>Node9&#45;&gt;Node10</title>
<path fill="none" stroke="midnightblue" d="M478.296,-217.359C426.348,-212.241 320.531,-198.478 237,-166 188.947,-147.317 138.877,-113.292 111.045,-92.8545"/>
<polygon fill="midnightblue" stroke="midnightblue" points="112.932,-89.8961 102.82,-86.733 108.752,-95.5114 112.932,-89.8961"/>
</g>
<!-- Node11 -->
<g id="node29" class="node"><title>Node11</title>
<a xlink:href="../../d4/d45/if__schematiclayerprovider_8h.html" target="_top" xlink:title="librepcbcommon/if_schematiclayerprovider.h">
<polygon fill="white" stroke="black" points="196,-65.5 196,-86.5 406,-86.5 406,-65.5 196,-65.5"/>
<text text-anchor="middle" x="301" y="-73.5" font-family="Helvetica,sans-Serif" font-size="10.00">librepcbcommon/if_schematiclayerprovider.h</text>
</a>
</g>
<!-- Node9&#45;&gt;Node11 -->
<g id="edge36" class="edge"><title>Node9&#45;&gt;Node11</title>
<path fill="none" stroke="midnightblue" d="M478.189,-218.325C414.699,-214.248 275.87,-201.4 247,-166 227.923,-142.607 256.146,-111.803 278.443,-92.975"/>
<polygon fill="midnightblue" stroke="midnightblue" points="280.725,-95.631 286.291,-86.616 276.318,-90.1923 280.725,-95.631"/>
</g>
<!-- Node12 -->
<g id="node32" class="node"><title>Node12</title>
<a xlink:href="../../d4/dba/if__boardlayerprovider_8h.html" target="_top" xlink:title="librepcbcommon/if_boardlayerprovider.h">
<polygon fill="white" stroke="black" points="255.5,-137.5 255.5,-158.5 444.5,-158.5 444.5,-137.5 255.5,-137.5"/>
<text text-anchor="middle" x="350" y="-145.5" font-family="Helvetica,sans-Serif" font-size="10.00">librepcbcommon/if_boardlayerprovider.h</text>
</a>
</g>
<!-- Node9&#45;&gt;Node12 -->
<g id="edge40" class="edge"><title>Node9&#45;&gt;Node12</title>
<path fill="none" stroke="midnightblue" d="M486.391,-209.376C459.017,-197.057 413.718,-176.673 382.9,-162.805"/>
<polygon fill="midnightblue" stroke="midnightblue" points="384,-159.462 373.445,-158.55 381.128,-165.846 384,-159.462"/>
</g>
<!-- Node13 -->
<g id="node36" class="node"><title>Node13</title>
<a xlink:href="../../d5/db9/filelock_8h.html" target="_top" xlink:title="librepcbcommon/fileio\l/filelock.h">
<polygon fill="white" stroke="black" points="575.5,-131 575.5,-165 686.5,-165 686.5,-131 575.5,-131"/>
<text text-anchor="start" x="583.5" y="-152" font-family="Helvetica,sans-Serif" font-size="10.00">librepcbcommon/fileio</text>
<text text-anchor="middle" x="631" y="-139" font-family="Helvetica,sans-Serif" font-size="10.00">/filelock.h</text>
</a>
</g>
<!-- Node9&#45;&gt;Node13 -->
<g id="edge46" class="edge"><title>Node9&#45;&gt;Node13</title>
<path fill="none" stroke="midnightblue" d="M527.854,-209.376C545.072,-199.131 571.666,-183.306 593.537,-170.292"/>
<polygon fill="midnightblue" stroke="midnightblue" points="595.468,-173.216 602.272,-165.094 591.889,-167.2 595.468,-173.216"/>
</g>
<!-- Node10&#45;&gt;Node2 -->
<g id="edge34" class="edge"><title>Node10&#45;&gt;Node2</title>
<path fill="none" stroke="midnightblue" d="M140.463,-65.4948C155.421,-62.7276 171.818,-59.9688 187,-58 407.354,-29.4243 674.546,-16.2939 767.873,-12.3446"/>
<polygon fill="midnightblue" stroke="midnightblue" points="768.03,-15.8411 777.876,-11.9285 767.739,-8.8472 768.03,-15.8411"/>
</g>
<!-- Node11&#45;&gt;Node2 -->
<g id="edge38" class="edge"><title>Node11&#45;&gt;Node2</title>
<path fill="none" stroke="midnightblue" d="M368.292,-65.489C385.162,-62.9455 403.232,-60.2992 420,-58 548.19,-40.4223 701.015,-22.5452 767.862,-14.8788"/>
<polygon fill="midnightblue" stroke="midnightblue" points="768.298,-18.3518 777.835,-13.7377 767.502,-11.3972 768.298,-18.3518"/>
</g>
<!-- Node12&#45;&gt;Node2 -->
<g id="edge42" class="edge"><title>Node12&#45;&gt;Node2</title>
<path fill="none" stroke="midnightblue" d="M362.961,-137.257C376.089,-126.369 396.973,-109.034 415,-94 434.141,-78.0363 435.205,-68.0814 458,-58 513.038,-33.6585 691.506,-18.695 767.368,-13.2891"/>
<polygon fill="midnightblue" stroke="midnightblue" points="768.058,-16.7496 777.79,-12.5609 767.57,-9.76658 768.058,-16.7496"/>
</g>
<!-- Node13&#45;&gt;Node2 -->
<g id="edge48" class="edge"><title>Node13&#45;&gt;Node2</title>
<path fill="none" stroke="midnightblue" d="M645.323,-130.654C661.785,-111.399 690.252,-80.1248 719,-58 734.907,-45.758 754.358,-34.572 770.43,-26.1866"/>
<polygon fill="midnightblue" stroke="midnightblue" points="772.133,-29.2473 779.451,-21.5861 768.953,-23.0114 772.133,-29.2473"/>
</g>
<!-- Node13&#45;&gt;Node5 -->
<g id="edge52" class="edge"><title>Node13&#45;&gt;Node5</title>
<path fill="none" stroke="midnightblue" d="M663.467,-130.937C686.315,-118.929 716.639,-102.992 738.74,-91.3773"/>
<polygon fill="midnightblue" stroke="midnightblue" points="740.439,-94.4384 747.663,-86.688 737.183,-88.242 740.439,-94.4384"/>
</g>
<!-- Node13&#45;&gt;Node6 -->
<g id="edge50" class="edge"><title>Node13&#45;&gt;Node6</title>
<path fill="none" stroke="midnightblue" d="M686.814,-132.169C689.579,-131.426 692.32,-130.7 695,-130 748.077,-116.144 808.564,-101.638 853.293,-91.1537"/>
<polygon fill="midnightblue" stroke="midnightblue" points="854.221,-94.5312 863.162,-88.846 852.627,-87.7151 854.221,-94.5312"/>
</g>
<!-- Node14&#45;&gt;Node2 -->
<g id="edge56" class="edge"><title>Node14&#45;&gt;Node2</title>
<path fill="none" stroke="midnightblue" d="M979.928,-202.715C993.37,-170.531 1016.11,-100.812 983,-58 965.18,-34.9611 883.422,-21.1289 836.109,-14.9156"/>
<polygon fill="midnightblue" stroke="midnightblue" points="836.368,-11.4205 826.007,-13.6359 835.488,-18.365 836.368,-11.4205"/>
</g>
<!-- Node15 -->
<g id="node44" class="node"><title>Node15</title>
<a xlink:href="../../d3/d9d/smartfile_8h.html" target="_top" xlink:title="smartfile.h">
<polygon fill="white" stroke="black" points="888,-137.5 888,-158.5 950,-158.5 950,-137.5 888,-137.5"/>
<text text-anchor="middle" x="919" y="-145.5" font-family="Helvetica,sans-Serif" font-size="10.00">smartfile.h</text>
</a>
</g>
<!-- Node14&#45;&gt;Node15 -->
<g id="edge58" class="edge"><title>Node14&#45;&gt;Node15</title>
<path fill="none" stroke="midnightblue" d="M959.44,-202.937C951.517,-192.174 941.271,-178.255 933.075,-167.12"/>
<polygon fill="midnightblue" stroke="midnightblue" points="935.771,-164.88 927.024,-158.901 930.134,-169.029 935.771,-164.88"/>
</g>
<!-- Node15&#45;&gt;Node2 -->
<g id="edge60" class="edge"><title>Node15&#45;&gt;Node2</title>
<path fill="none" stroke="midnightblue" d="M903.906,-137.333C890.174,-127.174 869.843,-110.954 855,-94 837.611,-74.1379 821.917,-48.0409 812.2,-30.4558"/>
<polygon fill="midnightblue" stroke="midnightblue" points="815.277,-28.7887 807.444,-21.6557 809.119,-32.1171 815.277,-28.7887"/>
</g>
<!-- Node15&#45;&gt;Node5 -->
<g id="edge62" class="edge"><title>Node15&#45;&gt;Node5</title>
<path fill="none" stroke="midnightblue" d="M896.719,-137.376C871.07,-125.146 828.747,-104.965 799.679,-91.105"/>
<polygon fill="midnightblue" stroke="midnightblue" points="800.905,-87.8122 790.372,-86.6674 797.892,-94.1307 800.905,-87.8122"/>
</g>
<!-- Node15&#45;&gt;Node6 -->
<g id="edge64" class="edge"><title>Node15&#45;&gt;Node6</title>
<path fill="none" stroke="midnightblue" d="M919,-137.376C919,-128.451 919,-115.293 919,-103.446"/>
<polygon fill="midnightblue" stroke="midnightblue" points="922.5,-103.094 919,-93.0944 915.5,-103.094 922.5,-103.094"/>
</g>
<!-- Node16&#45;&gt;Node2 -->
<g id="edge68" class="edge"><title>Node16&#45;&gt;Node2</title>
<path fill="none" stroke="midnightblue" d="M1085.15,-130.649C1066.13,-107.249 1032.41,-67.4162 1016,-58 985.675,-40.5964 888.549,-23.9513 836.2,-15.9499"/>
<polygon fill="midnightblue" stroke="midnightblue" points="836.464,-12.4503 826.054,-14.4219 835.421,-19.3723 836.464,-12.4503"/>
</g>
<!-- Node16&#45;&gt;Node5 -->
<g id="edge72" class="edge"><title>Node16&#45;&gt;Node5</title>
<path fill="none" stroke="midnightblue" d="M1043.22,-135.868C980.524,-122.229 879.583,-100.272 818.936,-87.0798"/>
<polygon fill="midnightblue" stroke="midnightblue" points="819.346,-83.5872 808.831,-84.8816 817.858,-90.4272 819.346,-83.5872"/>
</g>
<!-- Node16&#45;&gt;Node6 -->
<g id="edge74" class="edge"><title>Node16&#45;&gt;Node6</title>
<path fill="none" stroke="midnightblue" d="M1056.34,-130.937C1030.77,-120.707 998.064,-107.626 970.985,-96.7942"/>
<polygon fill="midnightblue" stroke="midnightblue" points="972.247,-93.5294 961.663,-93.0651 969.648,-100.029 972.247,-93.5294"/>
</g>
<!-- Node17 -->
<g id="node52" class="node"><title>Node17</title>
<polygon fill="white" stroke="#bfbfbf" points="1068,-65.5 1068,-86.5 1158,-86.5 1158,-65.5 1068,-65.5"/>
<text text-anchor="middle" x="1113" y="-73.5" font-family="Helvetica,sans-Serif" font-size="10.00">QDomDocument</text>
</g>
<!-- Node16&#45;&gt;Node17 -->
<g id="edge70" class="edge"><title>Node16&#45;&gt;Node17</title>
<path fill="none" stroke="midnightblue" d="M1102.32,-130.937C1104.31,-120.707 1106.85,-107.625 1108.96,-96.7937"/>
<polygon fill="midnightblue" stroke="midnightblue" points="1112.41,-97.3853 1110.88,-86.901 1105.54,-96.0491 1112.41,-97.3853"/>
</g>
<!-- Node18&#45;&gt;Node2 -->
<g id="edge78" class="edge"><title>Node18&#45;&gt;Node2</title>
<path fill="none" stroke="midnightblue" d="M1220.72,-130.79C1212.1,-109.805 1194.44,-75.0319 1167,-58 1112.06,-23.9034 915.814,-14.3426 836.063,-11.834"/>
<polygon fill="midnightblue" stroke="midnightblue" points="836.148,-8.33509 826.049,-11.5372 835.94,-15.332 836.148,-8.33509"/>
</g>
<!-- Node18&#45;&gt;Node5 -->
<g id="edge82" class="edge"><title>Node18&#45;&gt;Node5</title>
<path fill="none" stroke="midnightblue" d="M1171.28,-131.769C1168.49,-131.132 1165.72,-130.537 1163,-130 1027.8,-103.26 991.056,-115.983 855,-94 843.104,-92.078 830.367,-89.6527 818.409,-87.2103"/>
<polygon fill="midnightblue" stroke="midnightblue" points="819.087,-83.7765 808.583,-85.1654 817.66,-90.6296 819.087,-83.7765"/>
</g>
<!-- Node18&#45;&gt;Node6 -->
<g id="edge84" class="edge"><title>Node18&#45;&gt;Node6</title>
<path fill="none" stroke="midnightblue" d="M1171.2,-132.107C1168.43,-131.381 1165.69,-130.675 1163,-130 1102.96,-114.927 1034.06,-99.8825 984.82,-89.5164"/>
<polygon fill="midnightblue" stroke="midnightblue" points="985.438,-86.0699 974.932,-87.4421 984.001,-92.9208 985.438,-86.0699"/>
</g>
<!-- Node19 -->
<g id="node59" class="node"><title>Node19</title>
<polygon fill="white" stroke="#bfbfbf" points="1213.5,-65.5 1213.5,-86.5 1294.5,-86.5 1294.5,-65.5 1213.5,-65.5"/>
<text text-anchor="middle" x="1254" y="-73.5" font-family="Helvetica,sans-Serif" font-size="10.00">QDomElement</text>
</g>
<!-- Node18&#45;&gt;Node19 -->
<g id="edge80" class="edge"><title>Node18&#45;&gt;Node19</title>
<path fill="none" stroke="midnightblue" d="M1233.4,-130.937C1237.27,-120.601 1242.24,-107.352 1246.33,-96.4559"/>
<polygon fill="midnightblue" stroke="midnightblue" points="1249.68,-97.4933 1249.91,-86.901 1243.12,-95.0354 1249.68,-97.4933"/>
</g>
</g>
</svg>
