<?xml version="1.0" encoding="UTF-8" standalone="no"?>
<!DOCTYPE svg PUBLIC "-//W3C//DTD SVG 1.1//EN"
 "http://www.w3.org/Graphics/SVG/1.1/DTD/svg11.dtd">
<!-- Generated by graphviz version 2.26.3 (20100126.1600)
 -->
<!-- Title: /home/travis/build/LibrePCB/LibrePCB/libs/librepcbcommon/undocommand.cpp Pages: 1 -->
<svg width="184pt" height="230pt"
 viewBox="0.00 0.00 184.00 230.00" xmlns="http://www.w3.org/2000/svg" xmlns:xlink="http://www.w3.org/1999/xlink">
<g id="graph1" class="graph" transform="scale(1 1) rotate(0) translate(4 226)">
<title>/home/travis/build/LibrePCB/LibrePCB/libs/librepcbcommon/undocommand.cpp</title>
<polygon fill="white" stroke="white" points="-4,5 -4,-226 181,-226 181,5 -4,5"/>
<!-- Node1 -->
<g id="node1" class="node"><title>Node1</title>
<polygon fill="#bfbfbf" stroke="black" points="0,-174.5 0,-221.5 176,-221.5 176,-174.5 0,-174.5"/>
<text text-anchor="start" x="8" y="-208.5" font-family="Helvetica,sans-Serif" font-size="10.00">/home/travis/build</text>
<text text-anchor="start" x="8" y="-195.5" font-family="Helvetica,sans-Serif" font-size="10.00">/LibrePCB/LibrePCB/libs</text>
<text text-anchor="middle" x="88" y="-182.5" font-family="Helvetica,sans-Serif" font-size="10.00">/librepcbcommon/undocommand.cpp</text>
</g>
<!-- Node2 -->
<g id="node3" class="node"><title>Node2</title>
<polygon fill="white" stroke="#bfbfbf" points="47,-0.5 47,-21.5 95,-21.5 95,-0.5 47,-0.5"/>
<text text-anchor="middle" x="71" y="-8.5" font-family="Helvetica,sans-Serif" font-size="10.00">QtCore</text>
</g>
<!-- Node1&#45;&gt;Node2 -->
<g id="edge2" class="edge"><title>Node1&#45;&gt;Node2</title>
<path fill="none" stroke="midnightblue" d="M59.8253,-174.247C50.0092,-164.195 40.165,-151.649 35,-138 20.9033,-100.748 42.5392,-55.5427 57.8876,-30.352"/>
<polygon fill="midnightblue" stroke="midnightblue" points="60.9552,-32.0506 63.3745,-21.7357 55.0508,-28.2906 60.9552,-32.0506"/>
</g>
<!-- Node3 -->
<g id="node5" class="node"><title>Node3</title>
<a xlink:href="../../dc/da0/undocommand_8h.html" target="_top" xlink:title="undocommand.h">
<polygon fill="white" stroke="black" points="43.5,-116.5 43.5,-137.5 132.5,-137.5 132.5,-116.5 43.5,-116.5"/>
<text text-anchor="middle" x="88" y="-124.5" font-family="Helvetica,sans-Serif" font-size="10.00">undocommand.h</text>
</a>
</g>
<!-- Node1&#45;&gt;Node3 -->
<g id="edge4" class="edge"><title>Node1&#45;&gt;Node3</title>
<path fill="none" stroke="midnightblue" d="M88,-174.358C88,-165.719 88,-156.022 88,-147.662"/>
<polygon fill="midnightblue" stroke="midnightblue" points="91.5001,-147.646 88,-137.646 84.5001,-147.646 91.5001,-147.646"/>
</g>
<!-- Node4 -->
<g id="node8" class="node"><title>Node4</title>
<a xlink:href="../../d4/d03/exceptions_8h.html" target="_top" xlink:title="exceptions.h">
<polygon fill="white" stroke="black" points="99,-58.5 99,-79.5 171,-79.5 171,-58.5 99,-58.5"/>
<text text-anchor="middle" x="135" y="-66.5" font-family="Helvetica,sans-Serif" font-size="10.00">exceptions.h</text>
</a>
</g>
<!-- Node1&#45;&gt;Node4 -->
<g id="edge12" class="edge"><title>Node1&#45;&gt;Node4</title>
<path fill="none" stroke="midnightblue" d="M116.175,-174.247C125.991,-164.195 135.835,-151.649 141,-138 146.901,-122.407 144.649,-103.463 141.346,-89.3728"/>
<polygon fill="midnightblue" stroke="midnightblue" points="144.715,-88.4236 138.732,-79.6799 137.956,-90.2463 144.715,-88.4236"/>
</g>
<!-- Node3&#45;&gt;Node2 -->
<g id="edge6" class="edge"><title>Node3&#45;&gt;Node2</title>
<path fill="none" stroke="midnightblue" d="M86.4312,-116.295C83.6227,-97.1314 77.6907,-56.654 74.0546,-31.8434"/>
<polygon fill="midnightblue" stroke="midnightblue" points="77.4782,-31.066 72.5651,-21.6792 70.5522,-32.0811 77.4782,-31.066"/>
</g>
<!-- Node3&#45;&gt;Node4 -->
<g id="edge8" class="edge"><title>Node3&#45;&gt;Node4</title>
<path fill="none" stroke="midnightblue" d="M96.6205,-116.362C103.18,-108.268 112.366,-96.9318 120.106,-87.3796"/>
<polygon fill="midnightblue" stroke="midnightblue" points="122.858,-89.5436 126.434,-79.5707 117.419,-85.1364 122.858,-89.5436"/>
</g>
<!-- Node4&#45;&gt;Node2 -->
<g id="edge10" class="edge"><title>Node4&#45;&gt;Node2</title>
<path fill="none" stroke="midnightblue" d="M123.261,-58.3619C114.059,-50.0226 101.06,-38.2418 90.3283,-28.5162"/>
<polygon fill="midnightblue" stroke="midnightblue" points="92.4244,-25.6924 82.6642,-21.5707 87.7237,-30.8793 92.4244,-25.6924"/>
</g>
</g>
</svg>
