<?xml version="1.0" encoding="UTF-8" standalone="no"?>
<!DOCTYPE svg PUBLIC "-//W3C//DTD SVG 1.1//EN"
 "http://www.w3.org/Graphics/SVG/1.1/DTD/svg11.dtd">
<!-- Generated by graphviz version 2.26.3 (20100126.1600)
 -->
<!-- Title: /home/travis/build/LibrePCB/LibrePCB/libs/librepcbworkspace/workspace.h Pages: 1 -->
<svg width="213pt" height="244pt"
 viewBox="0.00 0.00 213.00 244.00" xmlns="http://www.w3.org/2000/svg" xmlns:xlink="http://www.w3.org/1999/xlink">
<g id="graph1" class="graph" transform="scale(1 1) rotate(0) translate(4 240)">
<title>/home/travis/build/LibrePCB/LibrePCB/libs/librepcbworkspace/workspace.h</title>
<polygon fill="white" stroke="white" points="-4,5 -4,-240 210,-240 210,5 -4,5"/>
<!-- Node1 -->
<g id="node1" class="node"><title>Node1</title>
<polygon fill="#bfbfbf" stroke="black" points="-0.5,-188.5 -0.5,-235.5 158.5,-235.5 158.5,-188.5 -0.5,-188.5"/>
<text text-anchor="start" x="7.5" y="-222.5" font-family="Helvetica,sans-Serif" font-size="10.00">/home/travis/build</text>
<text text-anchor="start" x="7.5" y="-209.5" font-family="Helvetica,sans-Serif" font-size="10.00">/LibrePCB/LibrePCB/libs</text>
<text text-anchor="middle" x="79" y="-196.5" font-family="Helvetica,sans-Serif" font-size="10.00">/librepcbworkspace/workspace.h</text>
</g>
<!-- Node2 -->
<g id="node3" class="node"><title>Node2</title>
<polygon fill="white" stroke="#bfbfbf" points="27,-0.5 27,-21.5 75,-21.5 75,-0.5 27,-0.5"/>
<text text-anchor="middle" x="51" y="-8.5" font-family="Helvetica,sans-Serif" font-size="10.00">QtCore</text>
</g>
<!-- Node1&#45;&gt;Node2 -->
<g id="edge2" class="edge"><title>Node1&#45;&gt;Node2</title>
<path fill="none" stroke="midnightblue" d="M44.0885,-188.46C32.5902,-178.675 21.1756,-166.255 15,-152 -2.96819,-110.525 21.7601,-58.1563 38.2833,-30.3761"/>
<polygon fill="midnightblue" stroke="midnightblue" points="41.4087,-31.9771 43.7022,-21.6335 35.4589,-28.2893 41.4087,-31.9771"/>
</g>
<!-- Node3 -->
<g id="node5" class="node"><title>Node3</title>
<a xlink:href="../../d5/db9/filelock_8h.html" target="_top" xlink:title="librepcbcommon/fileio\l/filelock.h">
<polygon fill="white" stroke="black" points="23.5,-117 23.5,-151 134.5,-151 134.5,-117 23.5,-117"/>
<text text-anchor="start" x="31.5" y="-138" font-family="Helvetica,sans-Serif" font-size="10.00">librepcbcommon/fileio</text>
<text text-anchor="middle" x="79" y="-125" font-family="Helvetica,sans-Serif" font-size="10.00">/filelock.h</text>
</a>
</g>
<!-- Node1&#45;&gt;Node3 -->
<g id="edge4" class="edge"><title>Node1&#45;&gt;Node3</title>
<path fill="none" stroke="midnightblue" d="M79,-188.174C79,-179.638 79,-169.952 79,-161.156"/>
<polygon fill="midnightblue" stroke="midnightblue" points="82.5001,-161.003 79,-151.003 75.5001,-161.003 82.5001,-161.003"/>
</g>
<!-- Node5 -->
<g id="node11" class="node"><title>Node5</title>
<a xlink:href="../../d4/d03/exceptions_8h.html" target="_top" xlink:title="../exceptions.h">
<polygon fill="white" stroke="black" points="124.5,-58.5 124.5,-79.5 205.5,-79.5 205.5,-58.5 124.5,-58.5"/>
<text text-anchor="middle" x="165" y="-66.5" font-family="Helvetica,sans-Serif" font-size="10.00">../exceptions.h</text>
</a>
</g>
<!-- Node1&#45;&gt;Node5 -->
<g id="edge16" class="edge"><title>Node1&#45;&gt;Node5</title>
<path fill="none" stroke="midnightblue" d="M110.974,-188.331C122.56,-178.29 134.8,-165.73 143,-152 154.529,-132.696 160.11,-107.326 162.749,-89.7401"/>
<polygon fill="midnightblue" stroke="midnightblue" points="166.238,-90.0544 164.066,-79.6847 159.297,-89.1456 166.238,-90.0544"/>
</g>
<!-- Node3&#45;&gt;Node2 -->
<g id="edge6" class="edge"><title>Node3&#45;&gt;Node2</title>
<path fill="none" stroke="midnightblue" d="M63.3439,-116.949C55.2659,-106.973 46.2365,-93.6783 42,-80 37.0442,-63.9993 40.097,-45.0897 43.9369,-31.1161"/>
<polygon fill="midnightblue" stroke="midnightblue" points="47.2929,-32.1104 46.9071,-21.5226 40.6061,-30.04 47.2929,-32.1104"/>
</g>
<!-- Node4 -->
<g id="node8" class="node"><title>Node4</title>
<a xlink:href="../../dd/dec/filepath_8h.html" target="_top" xlink:title="filepath.h">
<polygon fill="white" stroke="black" points="51,-58.5 51,-79.5 107,-79.5 107,-58.5 51,-58.5"/>
<text text-anchor="middle" x="79" y="-66.5" font-family="Helvetica,sans-Serif" font-size="10.00">filepath.h</text>
</a>
</g>
<!-- Node3&#45;&gt;Node4 -->
<g id="edge8" class="edge"><title>Node3&#45;&gt;Node4</title>
<path fill="none" stroke="midnightblue" d="M79,-116.922C79,-108.67 79,-98.6922 79,-89.9818"/>
<polygon fill="midnightblue" stroke="midnightblue" points="82.5001,-89.8521 79,-79.8521 75.5001,-89.8521 82.5001,-89.8521"/>
</g>
<!-- Node3&#45;&gt;Node5 -->
<g id="edge12" class="edge"><title>Node3&#45;&gt;Node5</title>
<path fill="none" stroke="midnightblue" d="M101.595,-116.922C114.292,-107.326 130.078,-95.3942 142.723,-85.8374"/>
<polygon fill="midnightblue" stroke="midnightblue" points="145.031,-88.4802 150.898,-79.6584 140.81,-82.8959 145.031,-88.4802"/>
</g>
<!-- Node4&#45;&gt;Node2 -->
<g id="edge10" class="edge"><title>Node4&#45;&gt;Node2</title>
<path fill="none" stroke="midnightblue" d="M73.8644,-58.3619C70.1542,-50.6766 65.0331,-40.0686 60.5779,-30.8399"/>
<polygon fill="midnightblue" stroke="midnightblue" points="63.6026,-29.0545 56.1031,-21.5707 57.2987,-32.0978 63.6026,-29.0545"/>
</g>
<!-- Node5&#45;&gt;Node2 -->
<g id="edge14" class="edge"><title>Node5&#45;&gt;Node2</title>
<path fill="none" stroke="midnightblue" d="M144.355,-58.4966C126.63,-49.4786 100.855,-36.3649 80.877,-26.2006"/>
<polygon fill="midnightblue" stroke="midnightblue" points="82.3761,-23.0364 71.8762,-21.6212 79.2019,-29.2753 82.3761,-23.0364"/>
</g>
</g>
</svg>
