<?xml version="1.0" encoding="UTF-8" standalone="no"?>
<!DOCTYPE svg PUBLIC "-//W3C//DTD SVG 1.1//EN"
 "http://www.w3.org/Graphics/SVG/1.1/DTD/svg11.dtd">
<!-- Generated by graphviz version 2.26.3 (20100126.1600)
 -->
<!-- Title: getDefaultSymbolVariant Pages: 1 -->
<svg width="466pt" height="42pt"
 viewBox="0.00 0.00 466.00 42.00" xmlns="http://www.w3.org/2000/svg" xmlns:xlink="http://www.w3.org/1999/xlink">
<g id="graph1" class="graph" transform="scale(1 1) rotate(0) translate(4 38)">
<title>getDefaultSymbolVariant</title>
<polygon fill="white" stroke="white" points="-4,5 -4,-38 463,-38 463,5 -4,5"/>
<!-- Node1 -->
<g id="node1" class="node"><title>Node1</title>
<polygon fill="#bfbfbf" stroke="black" points="0.5,-6.5 0.5,-27.5 125.5,-27.5 125.5,-6.5 0.5,-6.5"/>
<text text-anchor="middle" x="63" y="-14.5" font-family="Helvetica,sans-Serif" font-size="10.00">getDefaultSymbolVariant</text>
</g>
<!-- Node2 -->
<g id="node3" class="node"><title>Node2</title>
<a xlink:href="../../d7/d7c/classlibrary_1_1_generic_component.html#a707cf56368ef6282708cf47ab360e6e4" target="_top" xlink:title="getSymbolVariantByUuid">
<polygon fill="white" stroke="black" points="162,-6.5 162,-27.5 288,-27.5 288,-6.5 162,-6.5"/>
<text text-anchor="middle" x="225" y="-14.5" font-family="Helvetica,sans-Serif" font-size="10.00">getSymbolVariantByUuid</text>
</a>
</g>
<!-- Node1&#45;&gt;Node2 -->
<g id="edge2" class="edge"><title>Node1&#45;&gt;Node2</title>
<path fill="none" stroke="midnightblue" d="M125.633,-17C134.209,-17 143.074,-17 151.817,-17"/>
<polygon fill="midnightblue" stroke="midnightblue" points="151.999,-20.5001 161.999,-17 151.999,-13.5001 151.999,-20.5001"/>
</g>
<!-- Node3 -->
<g id="node5" class="node"><title>Node3</title>
<a xlink:href="../../d7/dff/classlibrary_1_1_gen_comp_symb_var.html#ada9b237a8629c03e16491a72730b456b" target="_top" xlink:title="library::GenCompSymbVar\l::getUuid">
<polygon fill="white" stroke="black" points="324,-0 324,-34 458,-34 458,-0 324,-0"/>
<text text-anchor="start" x="332" y="-21" font-family="Helvetica,sans-Serif" font-size="10.00">library::GenCompSymbVar</text>
<text text-anchor="middle" x="391" y="-8" font-family="Helvetica,sans-Serif" font-size="10.00">::getUuid</text>
</a>
</g>
<!-- Node2&#45;&gt;Node3 -->
<g id="edge4" class="edge"><title>Node2&#45;&gt;Node3</title>
<path fill="none" stroke="midnightblue" d="M288.231,-17C296.504,-17 305.055,-17 313.528,-17"/>
<polygon fill="midnightblue" stroke="midnightblue" points="313.802,-20.5001 323.802,-17 313.802,-13.5001 313.802,-20.5001"/>
</g>
</g>
</svg>
