<?xml version="1.0" encoding="UTF-8" standalone="no"?>
<!DOCTYPE svg PUBLIC "-//W3C//DTD SVG 1.1//EN"
 "http://www.w3.org/Graphics/SVG/1.1/DTD/svg11.dtd">
<!-- Generated by graphviz version 2.26.3 (20100126.1600)
 -->
<!-- Title: getDefaultSymbolVariantUuid Pages: 1 -->
<svg width="882pt" height="115pt"
 viewBox="0.00 0.00 882.00 115.00" xmlns="http://www.w3.org/2000/svg" xmlns:xlink="http://www.w3.org/1999/xlink">
<g id="graph1" class="graph" transform="scale(1 1) rotate(0) translate(4 111)">
<title>getDefaultSymbolVariantUuid</title>
<polygon fill="white" stroke="white" points="-4,5 -4,-111 879,-111 879,5 -4,5"/>
<!-- Node1 -->
<g id="node1" class="node"><title>Node1</title>
<polygon fill="#bfbfbf" stroke="black" points="0,-42.5 0,-63.5 146,-63.5 146,-42.5 0,-42.5"/>
<text text-anchor="middle" x="73" y="-50.5" font-family="Helvetica,sans-Serif" font-size="10.00">getDefaultSymbolVariantUuid</text>
</g>
<!-- Node2 -->
<g id="node3" class="node"><title>Node2</title>
<a xlink:href="../../d1/d92/classproject_1_1_add_gen_comp_dialog.html#abf6af5dc67073d848d5cf561412d4b27" target="_top" xlink:title="project::AddGenCompDialog\l::setSelectedGenComp">
<polygon fill="white" stroke="black" points="182.5,-36 182.5,-70 323.5,-70 323.5,-36 182.5,-36"/>
<text text-anchor="start" x="190.5" y="-57" font-family="Helvetica,sans-Serif" font-size="10.00">project::AddGenCompDialog</text>
<text text-anchor="middle" x="253" y="-44" font-family="Helvetica,sans-Serif" font-size="10.00">::setSelectedGenComp</text>
</a>
</g>
<!-- Node1&#45;&gt;Node2 -->
<g id="edge2" class="edge"><title>Node1&#45;&gt;Node2</title>
<path fill="none" stroke="midnightblue" d="M156.392,-53C165.112,-53 173.916,-53 182.473,-53"/>
<polygon fill="midnightblue" stroke="midnightblue" points="156.213,-49.5001 146.213,-53 156.213,-56.5001 156.213,-49.5001"/>
</g>
<!-- Node3 -->
<g id="node5" class="node"><title>Node3</title>
<a xlink:href="../../d1/d92/classproject_1_1_add_gen_comp_dialog.html#a5951d1d20ef2d9675b3b1690d6799fa7" target="_top" xlink:title="project::AddGenCompDialog\l::on_listGenericComponents\l_currentItemChanged">
<polygon fill="white" stroke="black" points="360.5,-59.5 360.5,-106.5 501.5,-106.5 501.5,-59.5 360.5,-59.5"/>
<text text-anchor="start" x="368.5" y="-93.5" font-family="Helvetica,sans-Serif" font-size="10.00">project::AddGenCompDialog</text>
<text text-anchor="start" x="368.5" y="-80.5" font-family="Helvetica,sans-Serif" font-size="10.00">::on_listGenericComponents</text>
<text text-anchor="middle" x="431" y="-67.5" font-family="Helvetica,sans-Serif" font-size="10.00">_currentItemChanged</text>
</a>
</g>
<!-- Node2&#45;&gt;Node3 -->
<g id="edge4" class="edge"><title>Node2&#45;&gt;Node3</title>
<path fill="none" stroke="midnightblue" d="M333.646,-66.5921C342.599,-68.101 351.666,-69.6291 360.479,-71.1145"/>
<polygon fill="midnightblue" stroke="midnightblue" points="334.049,-63.1106 323.606,-64.8999 332.885,-70.0132 334.049,-63.1106"/>
</g>
<!-- Node4 -->
<g id="node7" class="node"><title>Node4</title>
<a xlink:href="../../d1/d92/classproject_1_1_add_gen_comp_dialog.html#ae968bf4d25607bdad3eb848014d999da" target="_top" xlink:title="project::AddGenCompDialog\l::setSelectedCategory">
<polygon fill="white" stroke="black" points="360.5,-7 360.5,-41 501.5,-41 501.5,-7 360.5,-7"/>
<text text-anchor="start" x="368.5" y="-28" font-family="Helvetica,sans-Serif" font-size="10.00">project::AddGenCompDialog</text>
<text text-anchor="middle" x="431" y="-15" font-family="Helvetica,sans-Serif" font-size="10.00">::setSelectedCategory</text>
</a>
</g>
<!-- Node2&#45;&gt;Node4 -->
<g id="edge6" class="edge"><title>Node2&#45;&gt;Node4</title>
<path fill="none" stroke="midnightblue" d="M333.646,-39.861C342.599,-38.4024 351.666,-36.9252 360.479,-35.4893"/>
<polygon fill="midnightblue" stroke="midnightblue" points="332.913,-36.4342 323.606,-41.4968 334.039,-43.3431 332.913,-36.4342"/>
</g>
<!-- Node5 -->
<g id="node9" class="node"><title>Node5</title>
<a xlink:href="../../d1/d92/classproject_1_1_add_gen_comp_dialog.html#aa523372c74c9d1d342035a3dc5b49d25" target="_top" xlink:title="project::AddGenCompDialog\l::on_treeCategories_currentItem\lChanged">
<polygon fill="white" stroke="black" points="538.5,-0.5 538.5,-47.5 695.5,-47.5 695.5,-0.5 538.5,-0.5"/>
<text text-anchor="start" x="546.5" y="-34.5" font-family="Helvetica,sans-Serif" font-size="10.00">project::AddGenCompDialog</text>
<text text-anchor="start" x="546.5" y="-21.5" font-family="Helvetica,sans-Serif" font-size="10.00">::on_treeCategories_currentItem</text>
<text text-anchor="middle" x="617" y="-8.5" font-family="Helvetica,sans-Serif" font-size="10.00">Changed</text>
</a>
</g>
<!-- Node4&#45;&gt;Node5 -->
<g id="edge8" class="edge"><title>Node4&#45;&gt;Node5</title>
<path fill="none" stroke="midnightblue" d="M511.836,-24C520.644,-24 529.599,-24 538.38,-24"/>
<polygon fill="midnightblue" stroke="midnightblue" points="511.584,-20.5001 501.584,-24 511.584,-27.5001 511.584,-20.5001"/>
</g>
<!-- Node6 -->
<g id="node11" class="node"><title>Node6</title>
<a xlink:href="../../d1/d92/classproject_1_1_add_gen_comp_dialog.html#a158bc6ffa6ab14d062e57c57929a197f" target="_top" xlink:title="project::AddGenCompDialog\l::AddGenCompDialog">
<polygon fill="white" stroke="black" points="732.5,-7 732.5,-41 873.5,-41 873.5,-7 732.5,-7"/>
<text text-anchor="start" x="740.5" y="-28" font-family="Helvetica,sans-Serif" font-size="10.00">project::AddGenCompDialog</text>
<text text-anchor="middle" x="803" y="-15" font-family="Helvetica,sans-Serif" font-size="10.00">::AddGenCompDialog</text>
</a>
</g>
<!-- Node5&#45;&gt;Node6 -->
<g id="edge10" class="edge"><title>Node5&#45;&gt;Node6</title>
<path fill="none" stroke="midnightblue" d="M705.673,-24C714.621,-24 723.622,-24 732.345,-24"/>
<polygon fill="midnightblue" stroke="midnightblue" points="705.611,-20.5001 695.611,-24 705.611,-27.5001 705.611,-20.5001"/>
</g>
</g>
</svg>
