<?xml version="1.0" encoding="UTF-8" standalone="no"?>
<!DOCTYPE svg PUBLIC "-//W3C//DTD SVG 1.1//EN"
 "http://www.w3.org/Graphics/SVG/1.1/DTD/svg11.dtd">
<!-- Generated by graphviz version 2.26.3 (20100126.1600)
 -->
<!-- Title: spbxIntervalChanged Pages: 1 -->
<svg width="792pt" height="210pt"
 viewBox="0.00 0.00 792.00 210.00" xmlns="http://www.w3.org/2000/svg" xmlns:xlink="http://www.w3.org/1999/xlink">
<g id="graph1" class="graph" transform="scale(1 1) rotate(0) translate(4 206)">
<title>spbxIntervalChanged</title>
<polygon fill="white" stroke="white" points="-4,5 -4,-206 789,-206 789,5 -4,5"/>
<!-- Node1 -->
<g id="node1" class="node"><title>Node1</title>
<polygon fill="#bfbfbf" stroke="black" points="0.5,-120.5 0.5,-141.5 109.5,-141.5 109.5,-120.5 0.5,-120.5"/>
<text text-anchor="middle" x="55" y="-128.5" font-family="Helvetica,sans-Serif" font-size="10.00">spbxIntervalChanged</text>
</g>
<!-- Node2 -->
<g id="node3" class="node"><title>Node2</title>
<a xlink:href="../../d8/dbf/class_grid_properties.html#a88a3c16a970389cb760e0d6c42f88e5d" target="_top" xlink:title="GridProperties::setInterval">
<polygon fill="white" stroke="black" points="152.5,-180.5 152.5,-201.5 283.5,-201.5 283.5,-180.5 152.5,-180.5"/>
<text text-anchor="middle" x="218" y="-188.5" font-family="Helvetica,sans-Serif" font-size="10.00">GridProperties::setInterval</text>
</a>
</g>
<!-- Node1&#45;&gt;Node2 -->
<g id="edge2" class="edge"><title>Node1&#45;&gt;Node2</title>
<path fill="none" stroke="midnightblue" d="M76.7098,-141.596C94.9266,-150.23 121.78,-162.363 146,-171 152.486,-173.313 159.377,-175.526 166.228,-177.582"/>
<polygon fill="midnightblue" stroke="midnightblue" points="165.603,-181.046 176.182,-180.475 167.556,-174.324 165.603,-181.046"/>
</g>
<!-- Node3 -->
<g id="node5" class="node"><title>Node3</title>
<a xlink:href="../../d8/dbf/class_grid_properties.html#ae797bce934ee26330c308e2f366599d5" target="_top" xlink:title="GridProperties::getUnit">
<polygon fill="white" stroke="black" points="160,-140.5 160,-161.5 276,-161.5 276,-140.5 160,-140.5"/>
<text text-anchor="middle" x="218" y="-148.5" font-family="Helvetica,sans-Serif" font-size="10.00">GridProperties::getUnit</text>
</a>
</g>
<!-- Node1&#45;&gt;Node3 -->
<g id="edge4" class="edge"><title>Node1&#45;&gt;Node3</title>
<path fill="none" stroke="midnightblue" d="M109.73,-137.715C122.554,-139.289 136.373,-140.984 149.707,-142.62"/>
<polygon fill="midnightblue" stroke="midnightblue" points="149.432,-146.113 159.784,-143.857 150.285,-139.165 149.432,-146.113"/>
</g>
<!-- Node4 -->
<g id="node7" class="node"><title>Node4</title>
<a xlink:href="../../dd/d55/class_length_unit.html#ad66df98a1f06d30ac6f15516ce54633f" target="_top" xlink:title="Convert a floating point number with this unit to a Length object. ">
<polygon fill="white" stroke="black" points="146.5,-100.5 146.5,-121.5 289.5,-121.5 289.5,-100.5 146.5,-100.5"/>
<text text-anchor="middle" x="218" y="-108.5" font-family="Helvetica,sans-Serif" font-size="10.00">LengthUnit::convertFromUnit</text>
</a>
</g>
<!-- Node1&#45;&gt;Node4 -->
<g id="edge6" class="edge"><title>Node1&#45;&gt;Node4</title>
<path fill="none" stroke="midnightblue" d="M109.73,-124.285C118.264,-123.238 127.239,-122.136 136.218,-121.035"/>
<polygon fill="midnightblue" stroke="midnightblue" points="136.835,-124.485 146.334,-119.793 135.983,-117.537 136.835,-124.485"/>
</g>
<!-- Node13 -->
<g id="node29" class="node"><title>Node13</title>
<a xlink:href="../../dc/d4e/class_grid_settings_dialog.html#af3cf0113554071b6e59c4dda5fc62260" target="_top" xlink:title="updateInternalRepresentation">
<polygon fill="white" stroke="black" points="146,-40.5 146,-61.5 290,-61.5 290,-40.5 146,-40.5"/>
<text text-anchor="middle" x="218" y="-48.5" font-family="Helvetica,sans-Serif" font-size="10.00">updateInternalRepresentation</text>
</a>
</g>
<!-- Node1&#45;&gt;Node13 -->
<g id="edge32" class="edge"><title>Node1&#45;&gt;Node13</title>
<path fill="none" stroke="midnightblue" d="M76.6451,-120.377C105.099,-106.412 155.246,-81.7995 187.526,-65.9566"/>
<polygon fill="midnightblue" stroke="midnightblue" points="189.09,-69.0879 196.525,-61.5399 186.006,-62.8039 189.09,-69.0879"/>
</g>
<!-- Node5 -->
<g id="node9" class="node"><title>Node5</title>
<a xlink:href="../../df/df0/class_length.html#a796af485ddae7b24093b8b70f790c42b" target="_top" xlink:title="Get a Length object with a specific length and map it to a specific grid. ">
<polygon fill="white" stroke="black" points="348,-160.5 348,-181.5 436,-181.5 436,-160.5 348,-160.5"/>
<text text-anchor="middle" x="392" y="-168.5" font-family="Helvetica,sans-Serif" font-size="10.00">Length::fromMm</text>
</a>
</g>
<!-- Node4&#45;&gt;Node5 -->
<g id="edge8" class="edge"><title>Node4&#45;&gt;Node5</title>
<path fill="none" stroke="midnightblue" d="M262.342,-121.542C271.617,-124.238 281.237,-127.408 290,-131 306.936,-137.942 309.146,-143.861 326,-151 331.168,-153.189 336.656,-155.247 342.174,-157.148"/>
<polygon fill="midnightblue" stroke="midnightblue" points="341.483,-160.605 352.075,-160.396 343.664,-153.954 341.483,-160.605"/>
</g>
<!-- Node9 -->
<g id="node17" class="node"><title>Node9</title>
<a xlink:href="../../df/df0/class_length.html#a8799d9ea9315b068c08f60b63c4467db" target="_top" xlink:title="Get a Length object with a specific length and map it to a specific grid. ">
<polygon fill="white" stroke="black" points="347,-120.5 347,-141.5 437,-141.5 437,-120.5 347,-120.5"/>
<text text-anchor="middle" x="392" y="-128.5" font-family="Helvetica,sans-Serif" font-size="10.00">Length::fromInch</text>
</a>
</g>
<!-- Node4&#45;&gt;Node9 -->
<g id="edge16" class="edge"><title>Node4&#45;&gt;Node9</title>
<path fill="none" stroke="midnightblue" d="M289.526,-119.221C305.291,-121.033 321.756,-122.926 336.76,-124.651"/>
<polygon fill="midnightblue" stroke="midnightblue" points="336.554,-128.15 346.888,-125.815 337.353,-121.196 336.554,-128.15"/>
</g>
<!-- Node11 -->
<g id="node23" class="node"><title>Node11</title>
<a xlink:href="../../df/df0/class_length.html#ace122f12cdca72e87820635a2ba1952e" target="_top" xlink:title="Get a Length object with a specific length and map it to a specific grid. ">
<polygon fill="white" stroke="black" points="350,-80.5 350,-101.5 434,-101.5 434,-80.5 350,-80.5"/>
<text text-anchor="middle" x="392" y="-88.5" font-family="Helvetica,sans-Serif" font-size="10.00">Length::fromMil</text>
</a>
</g>
<!-- Node4&#45;&gt;Node11 -->
<g id="edge24" class="edge"><title>Node4&#45;&gt;Node11</title>
<path fill="none" stroke="midnightblue" d="M289.526,-102.779C306.288,-100.852 323.842,-98.8343 339.59,-97.0242"/>
<polygon fill="midnightblue" stroke="midnightblue" points="340.116,-100.487 349.651,-95.8677 339.317,-93.5326 340.116,-100.487"/>
</g>
<!-- Node6 -->
<g id="node11" class="node"><title>Node6</title>
<a xlink:href="../../df/df0/class_length.html#ad9d64077c16d3a2631a87b69cea3426d" target="_top" xlink:title="Set the length in millimeters. ">
<polygon fill="white" stroke="black" points="495.5,-180.5 495.5,-201.5 606.5,-201.5 606.5,-180.5 495.5,-180.5"/>
<text text-anchor="middle" x="551" y="-188.5" font-family="Helvetica,sans-Serif" font-size="10.00">Length::setLengthMm</text>
</a>
</g>
<!-- Node5&#45;&gt;Node6 -->
<g id="edge10" class="edge"><title>Node5&#45;&gt;Node6</title>
<path fill="none" stroke="midnightblue" d="M436.29,-176.571C451.433,-178.476 468.712,-180.649 485.183,-182.721"/>
<polygon fill="midnightblue" stroke="midnightblue" points="484.949,-186.219 495.308,-183.995 485.823,-179.274 484.949,-186.219"/>
</g>
<!-- Node8 -->
<g id="node15" class="node"><title>Node8</title>
<a xlink:href="../../df/df0/class_length.html#a12aaddfb6cccff89e294f502574fe869" target="_top" xlink:title="Map this Length object to a specific grid interval. ">
<polygon fill="white" stroke="black" points="501,-140.5 501,-161.5 601,-161.5 601,-140.5 501,-140.5"/>
<text text-anchor="middle" x="551" y="-148.5" font-family="Helvetica,sans-Serif" font-size="10.00">Length::mapToGrid</text>
</a>
</g>
<!-- Node5&#45;&gt;Node8 -->
<g id="edge14" class="edge"><title>Node5&#45;&gt;Node8</title>
<path fill="none" stroke="midnightblue" d="M436.29,-165.429C453.114,-163.313 472.573,-160.865 490.633,-158.593"/>
<polygon fill="midnightblue" stroke="midnightblue" points="491.299,-162.037 500.784,-157.317 490.425,-155.092 491.299,-162.037"/>
</g>
<!-- Node7 -->
<g id="node13" class="node"><title>Node7</title>
<a xlink:href="../../df/df0/class_length.html#a73dbcae99cc78c7f7e737d5211154527" target="_top" xlink:title="Set the length from a floating point number in nanometers. ">
<polygon fill="white" stroke="black" points="644.5,-100.5 644.5,-121.5 783.5,-121.5 783.5,-100.5 644.5,-100.5"/>
<text text-anchor="middle" x="714" y="-108.5" font-family="Helvetica,sans-Serif" font-size="10.00">Length::setLengthFromFloat</text>
</a>
</g>
<!-- Node6&#45;&gt;Node7 -->
<g id="edge12" class="edge"><title>Node6&#45;&gt;Node7</title>
<path fill="none" stroke="midnightblue" d="M584.247,-180.451C592.14,-177.642 600.456,-174.426 608,-171 636.68,-157.976 667.873,-139.794 688.943,-126.867"/>
<polygon fill="midnightblue" stroke="midnightblue" points="690.936,-129.75 697.592,-121.507 687.248,-123.8 690.936,-129.75"/>
</g>
<!-- Node9&#45;&gt;Node8 -->
<g id="edge22" class="edge"><title>Node9&#45;&gt;Node8</title>
<path fill="none" stroke="midnightblue" d="M437.138,-136.678C453.715,-138.763 472.761,-141.159 490.473,-143.387"/>
<polygon fill="midnightblue" stroke="midnightblue" points="490.36,-146.9 500.719,-144.675 491.234,-139.955 490.36,-146.9"/>
</g>
<!-- Node10 -->
<g id="node19" class="node"><title>Node10</title>
<a xlink:href="../../df/df0/class_length.html#a9dd3df3a096a1c19107c83692d1f198c" target="_top" xlink:title="Set the length in inches. ">
<polygon fill="white" stroke="black" points="494.5,-100.5 494.5,-121.5 607.5,-121.5 607.5,-100.5 494.5,-100.5"/>
<text text-anchor="middle" x="551" y="-108.5" font-family="Helvetica,sans-Serif" font-size="10.00">Length::setLengthInch</text>
</a>
</g>
<!-- Node9&#45;&gt;Node10 -->
<g id="edge18" class="edge"><title>Node9&#45;&gt;Node10</title>
<path fill="none" stroke="midnightblue" d="M437.138,-125.322C451.749,-123.484 468.277,-121.405 484.119,-119.413"/>
<polygon fill="midnightblue" stroke="midnightblue" points="484.919,-122.84 494.404,-118.119 484.045,-115.894 484.919,-122.84"/>
</g>
<!-- Node10&#45;&gt;Node7 -->
<g id="edge20" class="edge"><title>Node10&#45;&gt;Node7</title>
<path fill="none" stroke="midnightblue" d="M607.552,-111C616.17,-111 625.2,-111 634.203,-111"/>
<polygon fill="midnightblue" stroke="midnightblue" points="634.331,-114.5 644.331,-111 634.331,-107.5 634.331,-114.5"/>
</g>
<!-- Node11&#45;&gt;Node8 -->
<g id="edge30" class="edge"><title>Node11&#45;&gt;Node8</title>
<path fill="none" stroke="midnightblue" d="M431.925,-101.604C440.643,-104.331 449.732,-107.498 458,-111 474.854,-118.139 477.304,-123.499 494,-131 498.487,-133.016 503.243,-134.965 508.02,-136.803"/>
<polygon fill="midnightblue" stroke="midnightblue" points="507.179,-140.224 517.772,-140.408 509.606,-133.658 507.179,-140.224"/>
</g>
<!-- Node12 -->
<g id="node25" class="node"><title>Node12</title>
<a xlink:href="../../df/df0/class_length.html#a0727878134310037f5af42f773aa744d" target="_top" xlink:title="Set the length in mils (1/1000 inch) ">
<polygon fill="white" stroke="black" points="497.5,-60.5 497.5,-81.5 604.5,-81.5 604.5,-60.5 497.5,-60.5"/>
<text text-anchor="middle" x="551" y="-68.5" font-family="Helvetica,sans-Serif" font-size="10.00">Length::setLengthMil</text>
</a>
</g>
<!-- Node11&#45;&gt;Node12 -->
<g id="edge26" class="edge"><title>Node11&#45;&gt;Node12</title>
<path fill="none" stroke="midnightblue" d="M434.192,-85.6929C450.419,-83.6517 469.329,-81.2731 487.146,-79.0319"/>
<polygon fill="midnightblue" stroke="midnightblue" points="487.997,-82.4525 497.482,-77.7318 487.124,-75.5073 487.997,-82.4525"/>
</g>
<!-- Node12&#45;&gt;Node7 -->
<g id="edge28" class="edge"><title>Node12&#45;&gt;Node7</title>
<path fill="none" stroke="midnightblue" d="M593.826,-81.5095C614.521,-86.588 639.546,-92.7292 661.391,-98.0898"/>
<polygon fill="midnightblue" stroke="midnightblue" points="660.631,-101.507 671.177,-100.491 662.299,-94.7088 660.631,-101.507"/>
</g>
<!-- Node14 -->
<g id="node31" class="node"><title>Node14</title>
<a xlink:href="../../d8/dbf/class_grid_properties.html#a4cc9437a41e81f8f0f873ce9fbd67900" target="_top" xlink:title="GridProperties::getInterval">
<polygon fill="white" stroke="black" points="326.5,-0.5 326.5,-21.5 457.5,-21.5 457.5,-0.5 326.5,-0.5"/>
<text text-anchor="middle" x="392" y="-8.5" font-family="Helvetica,sans-Serif" font-size="10.00">GridProperties::getInterval</text>
</a>
</g>
<!-- Node13&#45;&gt;Node14 -->
<g id="edge34" class="edge"><title>Node13&#45;&gt;Node14</title>
<path fill="none" stroke="midnightblue" d="M263.716,-40.4905C286.007,-35.3663 313.004,-29.1601 336.47,-23.7655"/>
<polygon fill="midnightblue" stroke="midnightblue" points="337.325,-27.1602 346.287,-21.5087 335.757,-20.3382 337.325,-27.1602"/>
</g>
<!-- Node15 -->
<g id="node33" class="node"><title>Node15</title>
<a xlink:href="../../df/df0/class_length.html#ae8a552dd96c343a0a609cebf7731cd26" target="_top" xlink:title="Get the length in nanometers. ">
<polygon fill="white" stroke="black" points="354,-40.5 354,-61.5 430,-61.5 430,-40.5 354,-40.5"/>
<text text-anchor="middle" x="392" y="-48.5" font-family="Helvetica,sans-Serif" font-size="10.00">Length::toNm</text>
</a>
</g>
<!-- Node13&#45;&gt;Node15 -->
<g id="edge36" class="edge"><title>Node13&#45;&gt;Node15</title>
<path fill="none" stroke="midnightblue" d="M290.028,-51C308.146,-51 327.156,-51 343.788,-51"/>
<polygon fill="midnightblue" stroke="midnightblue" points="343.807,-54.5001 353.807,-51 343.807,-47.5001 343.807,-54.5001"/>
</g>
</g>
</svg>
