<?xml version="1.0" encoding="UTF-8" standalone="no"?>
<!DOCTYPE svg PUBLIC "-//W3C//DTD SVG 1.1//EN"
 "http://www.w3.org/Graphics/SVG/1.1/DTD/svg11.dtd">
<!-- Generated by graphviz version 2.26.3 (20100126.1600)
 -->
<!-- Title: cbxUnitsChanged Pages: 1 -->
<svg width="452pt" height="268pt"
 viewBox="0.00 0.00 452.00 268.00" xmlns="http://www.w3.org/2000/svg" xmlns:xlink="http://www.w3.org/1999/xlink">
<g id="graph1" class="graph" transform="scale(1 1) rotate(0) translate(4 264)">
<title>cbxUnitsChanged</title>
<polygon fill="white" stroke="white" points="-4,5 -4,-264 449,-264 449,5 -4,5"/>
<!-- Node1 -->
<g id="node1" class="node"><title>Node1</title>
<polygon fill="#bfbfbf" stroke="black" points="0.5,-118.5 0.5,-139.5 95.5,-139.5 95.5,-118.5 0.5,-118.5"/>
<text text-anchor="middle" x="48" y="-126.5" font-family="Helvetica,sans-Serif" font-size="10.00">cbxUnitsChanged</text>
</g>
<!-- Node2 -->
<g id="node3" class="node"><title>Node2</title>
<a xlink:href="../../d8/dbf/class_grid_properties.html#a3f4cb28da6f44d17052e411235916de5" target="_top" xlink:title="GridProperties::setUnit">
<polygon fill="white" stroke="black" points="146,-238.5 146,-259.5 262,-259.5 262,-238.5 146,-238.5"/>
<text text-anchor="middle" x="204" y="-246.5" font-family="Helvetica,sans-Serif" font-size="10.00">GridProperties::setUnit</text>
</a>
</g>
<!-- Node1&#45;&gt;Node2 -->
<g id="edge2" class="edge"><title>Node1&#45;&gt;Node2</title>
<path fill="none" stroke="midnightblue" d="M53.8846,-139.569C65.8408,-160.047 95.0045,-205.206 132,-229 135.13,-231.013 138.463,-232.826 141.914,-234.459"/>
<polygon fill="midnightblue" stroke="midnightblue" points="140.689,-237.741 151.265,-238.373 143.392,-231.283 140.689,-237.741"/>
</g>
<!-- Node3 -->
<g id="node5" class="node"><title>Node3</title>
<a xlink:href="../../dd/d55/class_length_unit.html#a5c1584c0e0cb57cd63c45cfb5bff3fe4" target="_top" xlink:title="Get the length unit of a specific index (to use with getIndex()) ">
<polygon fill="white" stroke="black" points="147.5,-198.5 147.5,-219.5 260.5,-219.5 260.5,-198.5 147.5,-198.5"/>
<text text-anchor="middle" x="204" y="-206.5" font-family="Helvetica,sans-Serif" font-size="10.00">LengthUnit::fromIndex</text>
</a>
</g>
<!-- Node1&#45;&gt;Node3 -->
<g id="edge4" class="edge"><title>Node1&#45;&gt;Node3</title>
<path fill="none" stroke="midnightblue" d="M59.9415,-139.617C75.4977,-152.934 104.023,-175.637 132,-189 136.708,-191.249 141.714,-193.285 146.808,-195.119"/>
<polygon fill="midnightblue" stroke="midnightblue" points="146.064,-198.56 156.657,-198.401 148.277,-191.919 146.064,-198.56"/>
</g>
<!-- Node4 -->
<g id="node7" class="node"><title>Node4</title>
<a xlink:href="../../d8/dbf/class_grid_properties.html#ae797bce934ee26330c308e2f366599d5" target="_top" xlink:title="GridProperties::getUnit">
<polygon fill="white" stroke="black" points="146,-158.5 146,-179.5 262,-179.5 262,-158.5 146,-158.5"/>
<text text-anchor="middle" x="204" y="-166.5" font-family="Helvetica,sans-Serif" font-size="10.00">GridProperties::getUnit</text>
</a>
</g>
<!-- Node1&#45;&gt;Node4 -->
<g id="edge6" class="edge"><title>Node1&#45;&gt;Node4</title>
<path fill="none" stroke="midnightblue" d="M88.9872,-139.51C108.615,-144.542 132.313,-150.619 153.085,-155.945"/>
<polygon fill="midnightblue" stroke="midnightblue" points="152.46,-159.398 163.016,-158.491 154.199,-152.617 152.46,-159.398"/>
</g>
<!-- Node5 -->
<g id="node9" class="node"><title>Node5</title>
<a xlink:href="../../dd/d55/class_length_unit.html#a453173c885803b8610cd343eef5e2072" target="_top" xlink:title="Convert a Length to this length unit. ">
<polygon fill="white" stroke="black" points="138.5,-118.5 138.5,-139.5 269.5,-139.5 269.5,-118.5 138.5,-118.5"/>
<text text-anchor="middle" x="204" y="-126.5" font-family="Helvetica,sans-Serif" font-size="10.00">LengthUnit::convertToUnit</text>
</a>
</g>
<!-- Node1&#45;&gt;Node5 -->
<g id="edge8" class="edge"><title>Node1&#45;&gt;Node5</title>
<path fill="none" stroke="midnightblue" d="M95.6528,-129C105.943,-129 117.068,-129 128.136,-129"/>
<polygon fill="midnightblue" stroke="midnightblue" points="128.259,-132.5 138.259,-129 128.259,-125.5 128.259,-132.5"/>
</g>
<!-- Node6 -->
<g id="node11" class="node"><title>Node6</title>
<a xlink:href="../../d8/dbf/class_grid_properties.html#a4cc9437a41e81f8f0f873ce9fbd67900" target="_top" xlink:title="GridProperties::getInterval">
<polygon fill="white" stroke="black" points="312.5,-79.5 312.5,-100.5 443.5,-100.5 443.5,-79.5 312.5,-79.5"/>
<text text-anchor="middle" x="378" y="-87.5" font-family="Helvetica,sans-Serif" font-size="10.00">GridProperties::getInterval</text>
</a>
</g>
<!-- Node1&#45;&gt;Node6 -->
<g id="edge10" class="edge"><title>Node1&#45;&gt;Node6</title>
<path fill="none" stroke="midnightblue" d="M86.641,-118.46C100.811,-114.951 117.042,-111.344 132,-109 188.695,-100.117 253.422,-95.328 302.247,-92.7807"/>
<polygon fill="midnightblue" stroke="midnightblue" points="302.604,-96.2673 312.416,-92.2705 302.253,-89.2761 302.604,-96.2673"/>
</g>
<!-- Node7 -->
<g id="node13" class="node"><title>Node7</title>
<a xlink:href="../../dc/d4e/class_grid_settings_dialog.html#af3cf0113554071b6e59c4dda5fc62260" target="_top" xlink:title="updateInternalRepresentation">
<polygon fill="white" stroke="black" points="132,-40.5 132,-61.5 276,-61.5 276,-40.5 132,-40.5"/>
<text text-anchor="middle" x="204" y="-48.5" font-family="Helvetica,sans-Serif" font-size="10.00">updateInternalRepresentation</text>
</a>
</g>
<!-- Node1&#45;&gt;Node7 -->
<g id="edge12" class="edge"><title>Node1&#45;&gt;Node7</title>
<path fill="none" stroke="midnightblue" d="M62.5778,-118.347C78.878,-106.789 106.363,-88.338 132,-76 140.493,-71.9126 149.835,-68.1642 158.895,-64.8826"/>
<polygon fill="midnightblue" stroke="midnightblue" points="160.272,-68.109 168.562,-61.511 157.967,-61.4994 160.272,-68.109"/>
</g>
<!-- Node9 -->
<g id="node18" class="node"><title>Node9</title>
<a xlink:href="../../df/d70/class_exception.html#aa530ab8cc747843c76a435c3075ed094" target="_top" xlink:title="Get the user error message (translated) ">
<polygon fill="white" stroke="black" points="144.5,-0.5 144.5,-21.5 263.5,-21.5 263.5,-0.5 144.5,-0.5"/>
<text text-anchor="middle" x="204" y="-8.5" font-family="Helvetica,sans-Serif" font-size="10.00">Exception::getUserMsg</text>
</a>
</g>
<!-- Node1&#45;&gt;Node9 -->
<g id="edge18" class="edge"><title>Node1&#45;&gt;Node9</title>
<path fill="none" stroke="midnightblue" d="M54.1278,-118.333C66.296,-98.1258 95.5088,-54.2129 132,-31 135.198,-28.9654 138.605,-27.1348 142.13,-25.488"/>
<polygon fill="midnightblue" stroke="midnightblue" points="143.77,-28.5972 151.676,-21.5444 141.098,-22.1274 143.77,-28.5972"/>
</g>
<!-- Node7&#45;&gt;Node6 -->
<g id="edge14" class="edge"><title>Node7&#45;&gt;Node6</title>
<path fill="none" stroke="midnightblue" d="M251.087,-61.554C272.654,-66.388 298.4,-72.1586 321.048,-77.2349"/>
<polygon fill="midnightblue" stroke="midnightblue" points="320.352,-80.6657 330.875,-79.4376 321.883,-73.8351 320.352,-80.6657"/>
</g>
<!-- Node8 -->
<g id="node16" class="node"><title>Node8</title>
<a xlink:href="../../df/df0/class_length.html#ae8a552dd96c343a0a609cebf7731cd26" target="_top" xlink:title="Get the length in nanometers. ">
<polygon fill="white" stroke="black" points="340,-39.5 340,-60.5 416,-60.5 416,-39.5 340,-39.5"/>
<text text-anchor="middle" x="378" y="-47.5" font-family="Helvetica,sans-Serif" font-size="10.00">Length::toNm</text>
</a>
</g>
<!-- Node7&#45;&gt;Node8 -->
<g id="edge16" class="edge"><title>Node7&#45;&gt;Node8</title>
<path fill="none" stroke="midnightblue" d="M276.028,-50.586C294.146,-50.4819 313.156,-50.3727 329.788,-50.2771"/>
<polygon fill="midnightblue" stroke="midnightblue" points="329.828,-53.777 339.807,-50.2195 329.787,-46.7771 329.828,-53.777"/>
</g>
</g>
</svg>
