<?xml version="1.0" encoding="UTF-8" standalone="no"?>
<!DOCTYPE svg PUBLIC "-//W3C//DTD SVG 1.1//EN"
 "http://www.w3.org/Graphics/SVG/1.1/DTD/svg11.dtd">
<!-- Generated by graphviz version 2.26.3 (20100126.1600)
 -->
<!-- Title: /home/travis/build/LibrePCB/LibrePCB/libs/librepcbprojecteditor/schematiceditor/fsm/ses_drawwire.h Pages: 1 -->
<svg width="440pt" height="192pt"
 viewBox="0.00 0.00 440.00 192.00" xmlns="http://www.w3.org/2000/svg" xmlns:xlink="http://www.w3.org/1999/xlink">
<g id="graph1" class="graph" transform="scale(1 1) rotate(0) translate(4 188)">
<title>/home/travis/build/LibrePCB/LibrePCB/libs/librepcbprojecteditor/schematiceditor/fsm/ses_drawwire.h</title>
<polygon fill="white" stroke="white" points="-4,5 -4,-188 437,-188 437,5 -4,5"/>
<!-- Node1 -->
<g id="node1" class="node"><title>Node1</title>
<polygon fill="#bfbfbf" stroke="black" points="161.5,-110.5 161.5,-183.5 288.5,-183.5 288.5,-110.5 161.5,-110.5"/>
<text text-anchor="start" x="169.5" y="-170.5" font-family="Helvetica,sans-Serif" font-size="10.00">/home/travis/build</text>
<text text-anchor="start" x="169.5" y="-157.5" font-family="Helvetica,sans-Serif" font-size="10.00">/LibrePCB/LibrePCB/libs</text>
<text text-anchor="start" x="169.5" y="-144.5" font-family="Helvetica,sans-Serif" font-size="10.00">/librepcbprojecteditor</text>
<text text-anchor="start" x="169.5" y="-131.5" font-family="Helvetica,sans-Serif" font-size="10.00">/schematiceditor/fsm/ses</text>
<text text-anchor="middle" x="225" y="-118.5" font-family="Helvetica,sans-Serif" font-size="10.00">_drawwire.h</text>
</g>
<!-- Node2 -->
<g id="node3" class="node"><title>Node2</title>
<a xlink:href="../../db/d50/moc__ses__drawwire_8cpp.html" target="_top" xlink:title="/home/travis/build\l/LibrePCB/LibrePCB/libs\l/librepcbprojecteditor\l/moc/moc_ses_drawwire.cpp">
<polygon fill="white" stroke="black" points="0,-7 0,-67 144,-67 144,-7 0,-7"/>
<text text-anchor="start" x="8" y="-54" font-family="Helvetica,sans-Serif" font-size="10.00">/home/travis/build</text>
<text text-anchor="start" x="8" y="-41" font-family="Helvetica,sans-Serif" font-size="10.00">/LibrePCB/LibrePCB/libs</text>
<text text-anchor="start" x="8" y="-28" font-family="Helvetica,sans-Serif" font-size="10.00">/librepcbprojecteditor</text>
<text text-anchor="middle" x="72" y="-15" font-family="Helvetica,sans-Serif" font-size="10.00">/moc/moc_ses_drawwire.cpp</text>
</a>
</g>
<!-- Node1&#45;&gt;Node2 -->
<g id="edge2" class="edge"><title>Node1&#45;&gt;Node2</title>
<path fill="none" stroke="midnightblue" d="M165.707,-104.371C148.47,-91.9786 130.004,-78.7026 114.061,-67.2399"/>
<polygon fill="midnightblue" stroke="midnightblue" points="163.891,-107.376 174.053,-110.372 167.977,-101.692 163.891,-107.376"/>
</g>
<!-- Node3 -->
<g id="node5" class="node"><title>Node3</title>
<a xlink:href="../../df/d6c/ses__drawwire_8cpp.html" target="_top" xlink:title="/home/travis/build\l/LibrePCB/LibrePCB/libs\l/librepcbprojecteditor\l/schematiceditor/fsm/ses\l_drawwire.cpp">
<polygon fill="white" stroke="black" points="161.5,-0.5 161.5,-73.5 288.5,-73.5 288.5,-0.5 161.5,-0.5"/>
<text text-anchor="start" x="169.5" y="-60.5" font-family="Helvetica,sans-Serif" font-size="10.00">/home/travis/build</text>
<text text-anchor="start" x="169.5" y="-47.5" font-family="Helvetica,sans-Serif" font-size="10.00">/LibrePCB/LibrePCB/libs</text>
<text text-anchor="start" x="169.5" y="-34.5" font-family="Helvetica,sans-Serif" font-size="10.00">/librepcbprojecteditor</text>
<text text-anchor="start" x="169.5" y="-21.5" font-family="Helvetica,sans-Serif" font-size="10.00">/schematiceditor/fsm/ses</text>
<text text-anchor="middle" x="225" y="-8.5" font-family="Helvetica,sans-Serif" font-size="10.00">_drawwire.cpp</text>
</a>
</g>
<!-- Node1&#45;&gt;Node3 -->
<g id="edge4" class="edge"><title>Node1&#45;&gt;Node3</title>
<path fill="none" stroke="midnightblue" d="M225,-100.214C225,-91.4006 225,-82.2996 225,-73.8435"/>
<polygon fill="midnightblue" stroke="midnightblue" points="221.5,-100.372 225,-110.372 228.5,-100.372 221.5,-100.372"/>
</g>
<!-- Node4 -->
<g id="node7" class="node"><title>Node4</title>
<a xlink:href="../../d1/daa/ses__fsm_8cpp.html" target="_top" xlink:title="/home/travis/build\l/LibrePCB/LibrePCB/libs\l/librepcbprojecteditor\l/schematiceditor/fsm/ses\l_fsm.cpp">
<polygon fill="white" stroke="black" points="305.5,-0.5 305.5,-73.5 432.5,-73.5 432.5,-0.5 305.5,-0.5"/>
<text text-anchor="start" x="313.5" y="-60.5" font-family="Helvetica,sans-Serif" font-size="10.00">/home/travis/build</text>
<text text-anchor="start" x="313.5" y="-47.5" font-family="Helvetica,sans-Serif" font-size="10.00">/LibrePCB/LibrePCB/libs</text>
<text text-anchor="start" x="313.5" y="-34.5" font-family="Helvetica,sans-Serif" font-size="10.00">/librepcbprojecteditor</text>
<text text-anchor="start" x="313.5" y="-21.5" font-family="Helvetica,sans-Serif" font-size="10.00">/schematiceditor/fsm/ses</text>
<text text-anchor="middle" x="369" y="-8.5" font-family="Helvetica,sans-Serif" font-size="10.00">_fsm.cpp</text>
</a>
</g>
<!-- Node1&#45;&gt;Node4 -->
<g id="edge6" class="edge"><title>Node1&#45;&gt;Node4</title>
<path fill="none" stroke="midnightblue" d="M281.011,-104.214C294.139,-94.1854 308.014,-83.5864 320.768,-73.8435"/>
<polygon fill="midnightblue" stroke="midnightblue" points="278.772,-101.52 272.95,-110.372 283.021,-107.083 278.772,-101.52"/>
</g>
</g>
</svg>
