<?xml version="1.0" encoding="UTF-8" standalone="no"?>
<!DOCTYPE svg PUBLIC "-//W3C//DTD SVG 1.1//EN"
 "http://www.w3.org/Graphics/SVG/1.1/DTD/svg11.dtd">
<!-- Generated by graphviz version 2.26.3 (20100126.1600)
 -->
<!-- Title: /home/travis/build/LibrePCB/LibrePCB/libs/librepcbprojecteditor/schematiceditor/fsm/ses_fsm.cpp Pages: 1 -->
<svg width="1388pt" height="516pt"
 viewBox="0.00 0.00 1388.00 516.00" xmlns="http://www.w3.org/2000/svg" xmlns:xlink="http://www.w3.org/1999/xlink">
<g id="graph1" class="graph" transform="scale(1 1) rotate(0) translate(4 512)">
<title>/home/travis/build/LibrePCB/LibrePCB/libs/librepcbprojecteditor/schematiceditor/fsm/ses_fsm.cpp</title>
<polygon fill="white" stroke="white" points="-4,5 -4,-512 1385,-512 1385,5 -4,5"/>
<!-- Node1 -->
<g id="node1" class="node"><title>Node1</title>
<polygon fill="#bfbfbf" stroke="black" points="623.5,-434.5 623.5,-507.5 750.5,-507.5 750.5,-434.5 623.5,-434.5"/>
<text text-anchor="start" x="631.5" y="-494.5" font-family="Helvetica,sans-Serif" font-size="10.00">/home/travis/build</text>
<text text-anchor="start" x="631.5" y="-481.5" font-family="Helvetica,sans-Serif" font-size="10.00">/LibrePCB/LibrePCB/libs</text>
<text text-anchor="start" x="631.5" y="-468.5" font-family="Helvetica,sans-Serif" font-size="10.00">/librepcbprojecteditor</text>
<text text-anchor="start" x="631.5" y="-455.5" font-family="Helvetica,sans-Serif" font-size="10.00">/schematiceditor/fsm/ses</text>
<text text-anchor="middle" x="687" y="-442.5" font-family="Helvetica,sans-Serif" font-size="10.00">_fsm.cpp</text>
</g>
<!-- Node2 -->
<g id="node3" class="node"><title>Node2</title>
<polygon fill="white" stroke="#bfbfbf" points="476,-0.5 476,-21.5 524,-21.5 524,-0.5 476,-0.5"/>
<text text-anchor="middle" x="500" y="-8.5" font-family="Helvetica,sans-Serif" font-size="10.00">QtCore</text>
</g>
<!-- Node1&#45;&gt;Node2 -->
<g id="edge2" class="edge"><title>Node1&#45;&gt;Node2</title>
<path fill="none" stroke="midnightblue" d="M623.288,-467.017C469.924,-456.977 89.2905,-429.198 41,-398 11.0369,-378.643 0,-364.672 0,-329 0,-329 0,-329 0,-141 0,-97.9347 13.6584,-81.1064 50,-58 84.8959,-35.8128 366.861,-18.3255 465.822,-12.8184"/>
<polygon fill="midnightblue" stroke="midnightblue" points="466.097,-16.3087 475.89,-12.2645 465.713,-9.31923 466.097,-16.3087"/>
</g>
<!-- Node3 -->
<g id="node5" class="node"><title>Node3</title>
<polygon fill="white" stroke="#bfbfbf" points="1152.5,-188.5 1152.5,-209.5 1215.5,-209.5 1215.5,-188.5 1152.5,-188.5"/>
<text text-anchor="middle" x="1184" y="-196.5" font-family="Helvetica,sans-Serif" font-size="10.00">QtWidgets</text>
</g>
<!-- Node1&#45;&gt;Node3 -->
<g id="edge4" class="edge"><title>Node1&#45;&gt;Node3</title>
<path fill="none" stroke="midnightblue" d="M750.898,-465.863C876.299,-455.149 1144.93,-428.838 1173,-398 1218.23,-348.31 1201.17,-259.495 1190.3,-219.507"/>
<polygon fill="midnightblue" stroke="midnightblue" points="1193.63,-218.455 1187.51,-209.808 1186.91,-220.385 1193.63,-218.455"/>
</g>
<!-- Node4 -->
<g id="node7" class="node"><title>Node4</title>
<polygon fill="white" stroke="#bfbfbf" points="1322,-376.5 1322,-397.5 1380,-397.5 1380,-376.5 1322,-376.5"/>
<text text-anchor="middle" x="1351" y="-384.5" font-family="Helvetica,sans-Serif" font-size="10.00">QtEvents</text>
</g>
<!-- Node1&#45;&gt;Node4 -->
<g id="edge6" class="edge"><title>Node1&#45;&gt;Node4</title>
<path fill="none" stroke="midnightblue" d="M750.632,-467.076C862.61,-459.41 1102.11,-439.607 1311.7,-398.011"/>
<polygon fill="midnightblue" stroke="midnightblue" points="1312.54,-401.412 1321.66,-396.014 1311.17,-394.549 1312.54,-401.412"/>
</g>
<!-- Node5 -->
<g id="node9" class="node"><title>Node5</title>
<a xlink:href="../../da/d00/ses__fsm_8h.html" target="_top" xlink:title="ses_fsm.h">
<polygon fill="white" stroke="black" points="66,-376.5 66,-397.5 128,-397.5 128,-376.5 66,-376.5"/>
<text text-anchor="middle" x="97" y="-384.5" font-family="Helvetica,sans-Serif" font-size="10.00">ses_fsm.h</text>
</a>
</g>
<!-- Node1&#45;&gt;Node5 -->
<g id="edge8" class="edge"><title>Node1&#45;&gt;Node5</title>
<path fill="none" stroke="midnightblue" d="M623.432,-465.406C522.392,-455.891 318.926,-434.186 138.292,-398.063"/>
<polygon fill="midnightblue" stroke="midnightblue" points="138.84,-394.604 128.345,-396.055 137.455,-401.465 138.84,-394.604"/>
</g>
<!-- Node7 -->
<g id="node15" class="node"><title>Node7</title>
<a xlink:href="../../da/d97/schematiceditorevent_8h.html" target="_top" xlink:title="schematiceditorevent.h">
<polygon fill="white" stroke="black" points="262,-253.5 262,-274.5 380,-274.5 380,-253.5 262,-253.5"/>
<text text-anchor="middle" x="321" y="-261.5" font-family="Helvetica,sans-Serif" font-size="10.00">schematiceditorevent.h</text>
</a>
</g>
<!-- Node1&#45;&gt;Node7 -->
<g id="edge66" class="edge"><title>Node1&#45;&gt;Node7</title>
<path fill="none" stroke="midnightblue" d="M623.362,-468.339C470.842,-461.311 94.2835,-439.853 57,-398 -5.16145,-328.22 154.137,-289.967 251.681,-273.657"/>
<polygon fill="midnightblue" stroke="midnightblue" points="252.487,-277.072 261.793,-272.007 251.36,-270.163 252.487,-277.072"/>
</g>
<!-- Node8 -->
<g id="node18" class="node"><title>Node8</title>
<a xlink:href="../../d2/db7/schematiceditor_8h.html" target="_top" xlink:title="../schematiceditor.h">
<polygon fill="white" stroke="black" points="828.5,-253.5 828.5,-274.5 931.5,-274.5 931.5,-253.5 828.5,-253.5"/>
<text text-anchor="middle" x="880" y="-261.5" font-family="Helvetica,sans-Serif" font-size="10.00">../schematiceditor.h</text>
</a>
</g>
<!-- Node1&#45;&gt;Node8 -->
<g id="edge68" class="edge"><title>Node1&#45;&gt;Node8</title>
<path fill="none" stroke="midnightblue" d="M750.621,-463.283C824.331,-452.881 939.019,-431.684 965,-398 995.867,-357.981 938.844,-306.504 904.046,-280.543"/>
<polygon fill="midnightblue" stroke="midnightblue" points="905.893,-277.559 895.745,-274.515 901.78,-283.223 905.893,-277.559"/>
</g>
<!-- Node10 -->
<g id="node25" class="node"><title>Node10</title>
<polygon fill="white" stroke="#bfbfbf" points="986.5,-253.5 986.5,-274.5 1093.5,-274.5 1093.5,-253.5 986.5,-253.5"/>
<text text-anchor="middle" x="1040" y="-261.5" font-family="Helvetica,sans-Serif" font-size="10.00">ui_schematiceditor.h</text>
</g>
<!-- Node1&#45;&gt;Node10 -->
<g id="edge70" class="edge"><title>Node1&#45;&gt;Node10</title>
<path fill="none" stroke="midnightblue" d="M750.83,-462.057C826.988,-450.249 948.389,-427.462 983,-398 1017.65,-368.503 1031.76,-314.237 1037.07,-284.617"/>
<polygon fill="midnightblue" stroke="midnightblue" points="1040.56,-285.007 1038.71,-274.575 1033.65,-283.883 1040.56,-285.007"/>
</g>
<!-- Node18 -->
<g id="node54" class="node"><title>Node18</title>
<a xlink:href="../../dc/dfc/ses__select_8h.html" target="_top" xlink:title="ses_select.h">
<polygon fill="white" stroke="black" points="146,-376.5 146,-397.5 218,-397.5 218,-376.5 146,-376.5"/>
<text text-anchor="middle" x="182" y="-384.5" font-family="Helvetica,sans-Serif" font-size="10.00">ses_select.h</text>
</a>
</g>
<!-- Node1&#45;&gt;Node18 -->
<g id="edge72" class="edge"><title>Node1&#45;&gt;Node18</title>
<path fill="none" stroke="midnightblue" d="M623.458,-462.604C536.436,-450.731 375.158,-427.391 228.385,-398.167"/>
<polygon fill="midnightblue" stroke="midnightblue" points="228.785,-394.677 218.292,-396.143 227.409,-401.541 228.785,-394.677"/>
</g>
<!-- Node19 -->
<g id="node58" class="node"><title>Node19</title>
<a xlink:href="../../d4/df5/ses__move_8h.html" target="_top" xlink:title="ses_move.h">
<polygon fill="white" stroke="black" points="236,-376.5 236,-397.5 306,-397.5 306,-376.5 236,-376.5"/>
<text text-anchor="middle" x="271" y="-384.5" font-family="Helvetica,sans-Serif" font-size="10.00">ses_move.h</text>
</a>
</g>
<!-- Node1&#45;&gt;Node19 -->
<g id="edge78" class="edge"><title>Node1&#45;&gt;Node19</title>
<path fill="none" stroke="midnightblue" d="M623.274,-459.522C551.128,-446.296 429.869,-423.371 315.965,-398.14"/>
<polygon fill="midnightblue" stroke="midnightblue" points="316.548,-394.684 306.026,-395.928 315.027,-401.517 316.548,-394.684"/>
</g>
<!-- Node20 -->
<g id="node62" class="node"><title>Node20</title>
<a xlink:href="../../df/d74/ses__drawtext_8h.html" target="_top" xlink:title="ses_drawtext.h">
<polygon fill="white" stroke="black" points="323.5,-376.5 323.5,-397.5 406.5,-397.5 406.5,-376.5 323.5,-376.5"/>
<text text-anchor="middle" x="365" y="-384.5" font-family="Helvetica,sans-Serif" font-size="10.00">ses_drawtext.h</text>
</a>
</g>
<!-- Node1&#45;&gt;Node20 -->
<g id="edge84" class="edge"><title>Node1&#45;&gt;Node20</title>
<path fill="none" stroke="midnightblue" d="M623.383,-454.404C562.349,-438.482 471.406,-414.758 415.279,-400.116"/>
<polygon fill="midnightblue" stroke="midnightblue" points="416.119,-396.718 405.56,-397.581 414.352,-403.492 416.119,-396.718"/>
</g>
<!-- Node21 -->
<g id="node66" class="node"><title>Node21</title>
<a xlink:href="../../d9/d9f/ses__drawrect_8h.html" target="_top" xlink:title="ses_drawrect.h">
<polygon fill="white" stroke="black" points="423.5,-376.5 423.5,-397.5 506.5,-397.5 506.5,-376.5 423.5,-376.5"/>
<text text-anchor="middle" x="465" y="-384.5" font-family="Helvetica,sans-Serif" font-size="10.00">ses_drawrect.h</text>
</a>
</g>
<!-- Node1&#45;&gt;Node21 -->
<g id="edge90" class="edge"><title>Node1&#45;&gt;Node21</title>
<path fill="none" stroke="midnightblue" d="M623.384,-446.929C584.369,-432.167 535.74,-413.767 502.732,-401.277"/>
<polygon fill="midnightblue" stroke="midnightblue" points="503.61,-397.867 493.018,-397.601 501.132,-404.414 503.61,-397.867"/>
</g>
<!-- Node22 -->
<g id="node70" class="node"><title>Node22</title>
<a xlink:href="../../da/d23/ses__drawpolygon_8h.html" target="_top" xlink:title="ses_drawpolygon.h">
<polygon fill="white" stroke="black" points="523.5,-376.5 523.5,-397.5 624.5,-397.5 624.5,-376.5 523.5,-376.5"/>
<text text-anchor="middle" x="574" y="-384.5" font-family="Helvetica,sans-Serif" font-size="10.00">ses_drawpolygon.h</text>
</a>
</g>
<!-- Node1&#45;&gt;Node22 -->
<g id="edge96" class="edge"><title>Node1&#45;&gt;Node22</title>
<path fill="none" stroke="midnightblue" d="M637.765,-434.401C623.452,-423.761 608.507,-412.651 596.685,-403.864"/>
<polygon fill="midnightblue" stroke="midnightblue" points="598.43,-400.8 588.317,-397.643 594.254,-406.417 598.43,-400.8"/>
</g>
<!-- Node23 -->
<g id="node74" class="node"><title>Node23</title>
<a xlink:href="../../d6/def/ses__drawcircle_8h.html" target="_top" xlink:title="ses_drawcircle.h">
<polygon fill="white" stroke="black" points="642,-376.5 642,-397.5 732,-397.5 732,-376.5 642,-376.5"/>
<text text-anchor="middle" x="687" y="-384.5" font-family="Helvetica,sans-Serif" font-size="10.00">ses_drawcircle.h</text>
</a>
</g>
<!-- Node1&#45;&gt;Node23 -->
<g id="edge102" class="edge"><title>Node1&#45;&gt;Node23</title>
<path fill="none" stroke="midnightblue" d="M687,-434.401C687,-425.386 687,-416.033 687,-408.042"/>
<polygon fill="midnightblue" stroke="midnightblue" points="690.5,-407.828 687,-397.828 683.5,-407.828 690.5,-407.828"/>
</g>
<!-- Node24 -->
<g id="node78" class="node"><title>Node24</title>
<a xlink:href="../../d3/d7e/ses__drawellipse_8h.html" target="_top" xlink:title="ses_drawellipse.h">
<polygon fill="white" stroke="black" points="749.5,-376.5 749.5,-397.5 844.5,-397.5 844.5,-376.5 749.5,-376.5"/>
<text text-anchor="middle" x="797" y="-384.5" font-family="Helvetica,sans-Serif" font-size="10.00">ses_drawellipse.h</text>
</a>
</g>
<!-- Node1&#45;&gt;Node24 -->
<g id="edge108" class="edge"><title>Node1&#45;&gt;Node24</title>
<path fill="none" stroke="midnightblue" d="M734.928,-434.401C748.768,-423.831 763.217,-412.798 774.688,-404.038"/>
<polygon fill="midnightblue" stroke="midnightblue" points="776.997,-406.679 782.82,-397.828 772.748,-401.116 776.997,-406.679"/>
</g>
<!-- Node25 -->
<g id="node82" class="node"><title>Node25</title>
<a xlink:href="../../df/d36/ses__drawwire_8h.html" target="_top" xlink:title="ses_drawwire.h">
<polygon fill="white" stroke="black" points="1219.5,-376.5 1219.5,-397.5 1304.5,-397.5 1304.5,-376.5 1219.5,-376.5"/>
<text text-anchor="middle" x="1262" y="-384.5" font-family="Helvetica,sans-Serif" font-size="10.00">ses_drawwire.h</text>
</a>
</g>
<!-- Node1&#45;&gt;Node25 -->
<g id="edge114" class="edge"><title>Node1&#45;&gt;Node25</title>
<path fill="none" stroke="midnightblue" d="M750.688,-463.172C848.739,-450.866 1042.47,-425.541 1206,-398 1207.07,-397.819 1208.16,-397.633 1209.25,-397.443"/>
<polygon fill="midnightblue" stroke="midnightblue" points="1210.02,-400.863 1219.24,-395.647 1208.78,-393.973 1210.02,-400.863"/>
</g>
<!-- Node26 -->
<g id="node87" class="node"><title>Node26</title>
<a xlink:href="../../d7/d6f/ses__addnetlabel_8h.html" target="_top" xlink:title="ses_addnetlabel.h">
<polygon fill="white" stroke="black" points="861.5,-376.5 861.5,-397.5 956.5,-397.5 956.5,-376.5 861.5,-376.5"/>
<text text-anchor="middle" x="909" y="-384.5" font-family="Helvetica,sans-Serif" font-size="10.00">ses_addnetlabel.h</text>
</a>
</g>
<!-- Node1&#45;&gt;Node26 -->
<g id="edge122" class="edge"><title>Node1&#45;&gt;Node26</title>
<path fill="none" stroke="midnightblue" d="M750.616,-446.929C789.631,-432.167 838.26,-413.767 871.268,-401.277"/>
<polygon fill="midnightblue" stroke="midnightblue" points="872.868,-404.414 880.982,-397.601 870.39,-397.867 872.868,-404.414"/>
</g>
<!-- Node27 -->
<g id="node91" class="node"><title>Node27</title>
<a xlink:href="../../d4/d25/ses__addcomponents_8h.html" target="_top" xlink:title="ses_addcomponents.h">
<polygon fill="white" stroke="black" points="1049.5,-376.5 1049.5,-397.5 1164.5,-397.5 1164.5,-376.5 1049.5,-376.5"/>
<text text-anchor="middle" x="1107" y="-384.5" font-family="Helvetica,sans-Serif" font-size="10.00">ses_addcomponents.h</text>
</a>
</g>
<!-- Node1&#45;&gt;Node27 -->
<g id="edge128" class="edge"><title>Node1&#45;&gt;Node27</title>
<path fill="none" stroke="midnightblue" d="M750.789,-458.242C830.343,-442.331 965.474,-415.305 1044.45,-399.511"/>
<polygon fill="midnightblue" stroke="midnightblue" points="1045.14,-402.941 1054.26,-397.547 1043.77,-396.077 1045.14,-402.941"/>
</g>
<!-- Node5&#45;&gt;Node2 -->
<g id="edge10" class="edge"><title>Node5&#45;&gt;Node2</title>
<path fill="none" stroke="midnightblue" d="M88.9504,-376.472C74.1239,-355.998 44,-308.877 44,-264 44,-264 44,-264 44,-141 44,-98.8246 54.9413,-81.4447 90,-58 121.003,-37.2673 372.822,-19.1672 465.731,-13.1335"/>
<polygon fill="midnightblue" stroke="midnightblue" points="465.989,-16.6243 475.744,-12.4902 465.54,-9.63869 465.989,-16.6243"/>
</g>
<!-- Node6 -->
<g id="node12" class="node"><title>Node6</title>
<a xlink:href="../../d4/d0e/ses__base_8h.html" target="_top" xlink:title="ses_base.h">
<polygon fill="white" stroke="black" points="522.5,-318.5 522.5,-339.5 589.5,-339.5 589.5,-318.5 522.5,-318.5"/>
<text text-anchor="middle" x="556" y="-326.5" font-family="Helvetica,sans-Serif" font-size="10.00">ses_base.h</text>
</a>
</g>
<!-- Node5&#45;&gt;Node6 -->
<g id="edge12" class="edge"><title>Node5&#45;&gt;Node6</title>
<path fill="none" stroke="midnightblue" d="M128.333,-377.884C131.249,-377.187 134.171,-376.544 137,-376 272.417,-349.952 435.435,-336.789 512.096,-331.653"/>
<polygon fill="midnightblue" stroke="midnightblue" points="512.58,-335.128 522.329,-330.981 512.121,-328.144 512.58,-335.128"/>
</g>
<!-- Node6&#45;&gt;Node2 -->
<g id="edge14" class="edge"><title>Node6&#45;&gt;Node2</title>
<path fill="none" stroke="midnightblue" d="M526.836,-318.356C508.312,-310.487 484.756,-298.308 468,-282 441.611,-256.316 436.425,-245.598 427,-210 414.644,-163.334 417.42,-126.627 454,-58 459.921,-46.8917 469.274,-36.6341 478.004,-28.5548"/>
<polygon fill="midnightblue" stroke="midnightblue" points="480.516,-31.0079 485.731,-21.7855 475.903,-25.7427 480.516,-31.0079"/>
</g>
<!-- Node6&#45;&gt;Node7 -->
<g id="edge16" class="edge"><title>Node6&#45;&gt;Node7</title>
<path fill="none" stroke="midnightblue" d="M522.33,-319.687C482.129,-308.568 414.611,-289.893 368.964,-277.267"/>
<polygon fill="midnightblue" stroke="midnightblue" points="369.859,-273.883 359.288,-274.59 367.993,-280.63 369.859,-273.883"/>
</g>
<!-- Node6&#45;&gt;Node8 -->
<g id="edge20" class="edge"><title>Node6&#45;&gt;Node8</title>
<path fill="none" stroke="midnightblue" d="M589.757,-322.228C643.715,-311.403 750.213,-290.038 818.114,-276.415"/>
<polygon fill="midnightblue" stroke="midnightblue" points="819.138,-279.78 828.254,-274.381 817.761,-272.917 819.138,-279.78"/>
</g>
<!-- Node6&#45;&gt;Node10 -->
<g id="edge30" class="edge"><title>Node6&#45;&gt;Node10</title>
<path fill="none" stroke="midnightblue" d="M589.731,-325.517C656.674,-318.463 810.997,-301.489 940,-282 951.787,-280.219 964.32,-278.124 976.382,-276.005"/>
<polygon fill="midnightblue" stroke="midnightblue" points="977.146,-279.424 986.378,-274.226 975.92,-272.533 977.146,-279.424"/>
</g>
<!-- Node11 -->
<g id="node27" class="node"><title>Node11</title>
<a xlink:href="../../d1/da8/all__length__units_8h.html" target="_top" xlink:title="librepcbcommon/units\l/all_length_units.h">
<polygon fill="white" stroke="black" points="477,-247 477,-281 589,-281 589,-247 477,-247"/>
<text text-anchor="start" x="485" y="-268" font-family="Helvetica,sans-Serif" font-size="10.00">librepcbcommon/units</text>
<text text-anchor="middle" x="533" y="-255" font-family="Helvetica,sans-Serif" font-size="10.00">/all_length_units.h</text>
</a>
</g>
<!-- Node6&#45;&gt;Node11 -->
<g id="edge32" class="edge"><title>Node6&#45;&gt;Node11</title>
<path fill="none" stroke="midnightblue" d="M552.202,-318.267C549.551,-310.773 545.888,-300.423 542.472,-290.769"/>
<polygon fill="midnightblue" stroke="midnightblue" points="545.69,-289.37 539.054,-281.11 539.091,-291.705 545.69,-289.37"/>
</g>
<!-- Node17 -->
<g id="node47" class="node"><title>Node17</title>
<a xlink:href="../../df/dfc/graphicsview_8h.html" target="_top" xlink:title="librepcbcommon/graphics\l/graphicsview.h">
<polygon fill="white" stroke="black" points="645,-247 645,-281 773,-281 773,-247 645,-247"/>
<text text-anchor="start" x="653" y="-268" font-family="Helvetica,sans-Serif" font-size="10.00">librepcbcommon/graphics</text>
<text text-anchor="middle" x="709" y="-255" font-family="Helvetica,sans-Serif" font-size="10.00">/graphicsview.h</text>
</a>
</g>
<!-- Node6&#45;&gt;Node17 -->
<g id="edge60" class="edge"><title>Node6&#45;&gt;Node17</title>
<path fill="none" stroke="midnightblue" d="M580.923,-318.412C602.114,-309.409 633.19,-296.207 659.424,-285.062"/>
<polygon fill="midnightblue" stroke="midnightblue" points="661.007,-288.192 668.842,-281.06 658.27,-281.749 661.007,-288.192"/>
</g>
<!-- Node7&#45;&gt;Node2 -->
<g id="edge18" class="edge"><title>Node7&#45;&gt;Node2</title>
<path fill="none" stroke="midnightblue" d="M318.066,-253.055C309.788,-219.519 289.846,-116.897 338,-58 354.14,-38.2597 423.283,-23.6275 465.852,-16.2883"/>
<polygon fill="midnightblue" stroke="midnightblue" points="466.511,-19.7269 475.795,-14.6229 465.354,-12.823 466.511,-19.7269"/>
</g>
<!-- Node8&#45;&gt;Node2 -->
<g id="edge22" class="edge"><title>Node8&#45;&gt;Node2</title>
<path fill="none" stroke="midnightblue" d="M877.982,-253.295C870.847,-218.652 843.411,-108.898 774,-58 736.394,-30.4237 599.436,-17.6988 534.546,-13.1171"/>
<polygon fill="midnightblue" stroke="midnightblue" points="534.624,-9.61429 524.409,-12.4264 534.148,-16.5981 534.624,-9.61429"/>
</g>
<!-- Node8&#45;&gt;Node3 -->
<g id="edge24" class="edge"><title>Node8&#45;&gt;Node3</title>
<path fill="none" stroke="midnightblue" d="M929.181,-253.484C988.347,-240.834 1086.64,-219.817 1142.27,-207.923"/>
<polygon fill="midnightblue" stroke="midnightblue" points="1143.09,-211.326 1152.14,-205.812 1141.63,-204.48 1143.09,-211.326"/>
</g>
<!-- Node9 -->
<g id="node22" class="node"><title>Node9</title>
<a xlink:href="../../df/df9/if__graphicsvieweventhandler_8h.html" target="_top" xlink:title="librepcbcommon/graphics\l/if_graphicsvieweventhandler.h">
<polygon fill="white" stroke="black" points="825.5,-59 825.5,-93 976.5,-93 976.5,-59 825.5,-59"/>
<text text-anchor="start" x="833.5" y="-80" font-family="Helvetica,sans-Serif" font-size="10.00">librepcbcommon/graphics</text>
<text text-anchor="middle" x="901" y="-67" font-family="Helvetica,sans-Serif" font-size="10.00">/if_graphicsvieweventhandler.h</text>
</a>
</g>
<!-- Node8&#45;&gt;Node9 -->
<g id="edge26" class="edge"><title>Node8&#45;&gt;Node9</title>
<path fill="none" stroke="midnightblue" d="M881.189,-253.354C884.39,-224.7 893.262,-145.271 897.972,-103.107"/>
<polygon fill="midnightblue" stroke="midnightblue" points="901.469,-103.328 899.101,-93.001 894.512,-102.551 901.469,-103.328"/>
</g>
<!-- Node9&#45;&gt;Node2 -->
<g id="edge28" class="edge"><title>Node9&#45;&gt;Node2</title>
<path fill="none" stroke="midnightblue" d="M825.305,-60.4229C820.808,-59.5806 816.347,-58.7665 812,-58 711.446,-40.2693 591.914,-23.4414 534.349,-15.6016"/>
<polygon fill="midnightblue" stroke="midnightblue" points="534.72,-12.1199 524.34,-14.2441 533.779,-19.0564 534.72,-12.1199"/>
</g>
<!-- Node12 -->
<g id="node29" class="node"><title>Node12</title>
<a xlink:href="../../d0/d09/lengthunit_8h.html" target="_top" xlink:title="lengthunit.h">
<polygon fill="white" stroke="black" points="589.5,-130.5 589.5,-151.5 656.5,-151.5 656.5,-130.5 589.5,-130.5"/>
<text text-anchor="middle" x="623" y="-138.5" font-family="Helvetica,sans-Serif" font-size="10.00">lengthunit.h</text>
</a>
</g>
<!-- Node11&#45;&gt;Node12 -->
<g id="edge34" class="edge"><title>Node11&#45;&gt;Node12</title>
<path fill="none" stroke="midnightblue" d="M545.514,-246.897C562.217,-224.07 591.706,-183.768 609.089,-160.011"/>
<polygon fill="midnightblue" stroke="midnightblue" points="612.026,-161.925 615.107,-151.787 606.377,-157.791 612.026,-161.925"/>
</g>
<!-- Node14 -->
<g id="node35" class="node"><title>Node14</title>
<a xlink:href="../../dd/db9/length_8h.html" target="_top" xlink:title="length.h">
<polygon fill="white" stroke="black" points="455.5,-130.5 455.5,-151.5 506.5,-151.5 506.5,-130.5 455.5,-130.5"/>
<text text-anchor="middle" x="481" y="-138.5" font-family="Helvetica,sans-Serif" font-size="10.00">length.h</text>
</a>
</g>
<!-- Node11&#45;&gt;Node14 -->
<g id="edge42" class="edge"><title>Node11&#45;&gt;Node14</title>
<path fill="none" stroke="midnightblue" d="M525.77,-246.897C516.289,-224.472 499.679,-185.183 489.575,-161.283"/>
<polygon fill="midnightblue" stroke="midnightblue" points="492.678,-159.635 485.561,-151.787 486.231,-162.361 492.678,-159.635"/>
</g>
<!-- Node15 -->
<g id="node39" class="node"><title>Node15</title>
<a xlink:href="../../d2/d91/point_8h.html" target="_top" xlink:title="point.h">
<polygon fill="white" stroke="black" points="436,-188.5 436,-209.5 482,-209.5 482,-188.5 436,-188.5"/>
<text text-anchor="middle" x="459" y="-196.5" font-family="Helvetica,sans-Serif" font-size="10.00">point.h</text>
</a>
</g>
<!-- Node11&#45;&gt;Node15 -->
<g id="edge48" class="edge"><title>Node11&#45;&gt;Node15</title>
<path fill="none" stroke="midnightblue" d="M513.557,-246.922C502.911,-237.57 489.739,-226.001 479.005,-216.572"/>
<polygon fill="midnightblue" stroke="midnightblue" points="481.178,-213.822 471.355,-209.852 476.558,-219.081 481.178,-213.822"/>
</g>
<!-- Node16 -->
<g id="node43" class="node"><title>Node16</title>
<a xlink:href="../../da/dac/angle_8h.html" target="_top" xlink:title="angle.h">
<polygon fill="white" stroke="black" points="524,-130.5 524,-151.5 572,-151.5 572,-130.5 524,-130.5"/>
<text text-anchor="middle" x="548" y="-138.5" font-family="Helvetica,sans-Serif" font-size="10.00">angle.h</text>
</a>
</g>
<!-- Node11&#45;&gt;Node16 -->
<g id="edge54" class="edge"><title>Node11&#45;&gt;Node16</title>
<path fill="none" stroke="midnightblue" d="M535.086,-246.897C537.796,-224.673 542.526,-185.886 545.448,-161.929"/>
<polygon fill="midnightblue" stroke="midnightblue" points="548.948,-162.138 546.684,-151.787 542,-161.29 548.948,-162.138"/>
</g>
<!-- Node12&#45;&gt;Node2 -->
<g id="edge36" class="edge"><title>Node12&#45;&gt;Node2</title>
<path fill="none" stroke="midnightblue" d="M622.633,-130.267C621.503,-113.073 616.973,-79.1435 599,-58 582.299,-38.3522 555.532,-26.3347 534.039,-19.3753"/>
<polygon fill="midnightblue" stroke="midnightblue" points="534.87,-15.9704 524.286,-16.4392 532.852,-22.6732 534.87,-15.9704"/>
</g>
<!-- Node13 -->
<g id="node32" class="node"><title>Node13</title>
<a xlink:href="../../d4/d03/exceptions_8h.html" target="_top" xlink:title="../exceptions.h">
<polygon fill="white" stroke="black" points="493.5,-65.5 493.5,-86.5 574.5,-86.5 574.5,-65.5 493.5,-65.5"/>
<text text-anchor="middle" x="534" y="-73.5" font-family="Helvetica,sans-Serif" font-size="10.00">../exceptions.h</text>
</a>
</g>
<!-- Node12&#45;&gt;Node13 -->
<g id="edge38" class="edge"><title>Node12&#45;&gt;Node13</title>
<path fill="none" stroke="midnightblue" d="M608.303,-130.267C594.306,-120.044 573.029,-104.504 556.825,-92.6699"/>
<polygon fill="midnightblue" stroke="midnightblue" points="558.563,-89.6052 548.423,-86.5337 554.434,-95.2581 558.563,-89.6052"/>
</g>
<!-- Node13&#45;&gt;Node2 -->
<g id="edge40" class="edge"><title>Node13&#45;&gt;Node2</title>
<path fill="none" stroke="midnightblue" d="M528.386,-65.2666C523.484,-55.8959 516.245,-42.0573 510.305,-30.7004"/>
<polygon fill="midnightblue" stroke="midnightblue" points="513.246,-28.7724 505.51,-21.5337 507.044,-32.017 513.246,-28.7724"/>
</g>
<!-- Node14&#45;&gt;Node2 -->
<g id="edge44" class="edge"><title>Node14&#45;&gt;Node2</title>
<path fill="none" stroke="midnightblue" d="M480.635,-130.419C480.283,-114.548 480.363,-83.6968 485,-58 486.626,-48.9915 489.508,-39.3131 492.315,-31.0942"/>
<polygon fill="midnightblue" stroke="midnightblue" points="495.63,-32.2189 495.729,-21.6246 489.045,-29.8446 495.63,-32.2189"/>
</g>
<!-- Node14&#45;&gt;Node13 -->
<g id="edge46" class="edge"><title>Node14&#45;&gt;Node13</title>
<path fill="none" stroke="midnightblue" d="M489.752,-130.267C497.701,-120.517 509.594,-105.932 519.049,-94.3365"/>
<polygon fill="midnightblue" stroke="midnightblue" points="521.804,-96.4957 525.411,-86.5337 516.379,-92.0721 521.804,-96.4957"/>
</g>
<!-- Node15&#45;&gt;Node2 -->
<g id="edge50" class="edge"><title>Node15&#45;&gt;Node2</title>
<path fill="none" stroke="midnightblue" d="M454.608,-188.204C449.646,-174.59 442.778,-150.483 447,-130 454.671,-92.7872 475.099,-53.1672 488.237,-30.3256"/>
<polygon fill="midnightblue" stroke="midnightblue" points="491.305,-32.0127 493.362,-21.6196 485.273,-28.4612 491.305,-32.0127"/>
</g>
<!-- Node15&#45;&gt;Node14 -->
<g id="edge52" class="edge"><title>Node15&#45;&gt;Node14</title>
<path fill="none" stroke="midnightblue" d="M463.035,-188.362C465.919,-180.758 469.888,-170.294 473.363,-161.135"/>
<polygon fill="midnightblue" stroke="midnightblue" points="476.716,-162.162 476.99,-151.571 470.171,-159.679 476.716,-162.162"/>
</g>
<!-- Node16&#45;&gt;Node2 -->
<g id="edge56" class="edge"><title>Node16&#45;&gt;Node2</title>
<path fill="none" stroke="midnightblue" d="M558.676,-130.368C573.597,-114.167 597.334,-82.5892 583,-58 572.375,-39.7728 551.768,-28.047 533.746,-20.866"/>
<polygon fill="midnightblue" stroke="midnightblue" points="534.673,-17.4786 524.079,-17.3317 532.269,-24.0529 534.673,-17.4786"/>
</g>
<!-- Node16&#45;&gt;Node13 -->
<g id="edge58" class="edge"><title>Node16&#45;&gt;Node13</title>
<path fill="none" stroke="midnightblue" d="M545.688,-130.267C543.711,-121.085 540.809,-107.615 538.392,-96.3917"/>
<polygon fill="midnightblue" stroke="midnightblue" points="541.796,-95.5726 536.269,-86.5337 534.953,-97.0465 541.796,-95.5726"/>
</g>
<!-- Node17&#45;&gt;Node2 -->
<g id="edge62" class="edge"><title>Node17&#45;&gt;Node2</title>
<path fill="none" stroke="midnightblue" d="M714.161,-246.925C724.699,-208.265 744.015,-113.128 698,-58 677.339,-33.2477 585.494,-19.8995 534.469,-14.276"/>
<polygon fill="midnightblue" stroke="midnightblue" points="534.554,-10.7655 524.241,-13.1919 533.816,-17.7265 534.554,-10.7655"/>
</g>
<!-- Node17&#45;&gt;Node3 -->
<g id="edge64" class="edge"><title>Node17&#45;&gt;Node3</title>
<path fill="none" stroke="midnightblue" d="M773.217,-253.224C788.533,-250.755 804.835,-248.208 820,-246 936.413,-229.05 1074.23,-212.103 1142.04,-203.971"/>
<polygon fill="midnightblue" stroke="midnightblue" points="1142.79,-207.406 1152.3,-202.743 1141.96,-200.455 1142.79,-207.406"/>
</g>
<!-- Node18&#45;&gt;Node2 -->
<g id="edge74" class="edge"><title>Node18&#45;&gt;Node2</title>
<path fill="none" stroke="midnightblue" d="M164.122,-376.226C135.358,-357.373 82,-315.464 82,-264 82,-264 82,-264 82,-141 82,-96.991 98.7413,-81.4218 136,-58 190.485,-23.7494 385.618,-14.2874 465.516,-11.8196"/>
<polygon fill="midnightblue" stroke="midnightblue" points="466.104,-15.3041 475.999,-11.516 465.902,-8.30706 466.104,-15.3041"/>
</g>
<!-- Node18&#45;&gt;Node6 -->
<g id="edge76" class="edge"><title>Node18&#45;&gt;Node6</title>
<path fill="none" stroke="midnightblue" d="M218.282,-377.808C221.224,-377.161 224.157,-376.549 227,-376 328.424,-356.408 448.896,-341.232 512.169,-333.878"/>
<polygon fill="midnightblue" stroke="midnightblue" points="512.658,-337.345 522.191,-332.723 511.856,-330.391 512.658,-337.345"/>
</g>
<!-- Node19&#45;&gt;Node2 -->
<g id="edge80" class="edge"><title>Node19&#45;&gt;Node2</title>
<path fill="none" stroke="midnightblue" d="M237.488,-376.464C193.002,-360.141 120,-324.185 120,-264 120,-264 120,-264 120,-141 120,-88.516 157.17,-81.6962 204,-58 249.282,-35.0873 397.414,-19.804 465.368,-13.8265"/>
<polygon fill="midnightblue" stroke="midnightblue" points="465.896,-17.2941 475.558,-12.9473 465.294,-10.32 465.896,-17.2941"/>
</g>
<!-- Node19&#45;&gt;Node6 -->
<g id="edge82" class="edge"><title>Node19&#45;&gt;Node6</title>
<path fill="none" stroke="midnightblue" d="M306.025,-378.068C309.056,-377.348 312.079,-376.649 315,-376 383.619,-360.743 463.833,-345.64 512.232,-336.823"/>
<polygon fill="midnightblue" stroke="midnightblue" points="513.141,-340.216 522.356,-334.986 511.891,-333.328 513.141,-340.216"/>
</g>
<!-- Node20&#45;&gt;Node2 -->
<g id="edge86" class="edge"><title>Node20&#45;&gt;Node2</title>
<path fill="none" stroke="midnightblue" d="M323.225,-376.393C273.179,-360.88 196,-326.779 196,-264 196,-264 196,-264 196,-141 196,-97.2318 212.724,-82.4892 249,-58 283.923,-34.4238 405.372,-19.9463 465.596,-14.054"/>
<polygon fill="midnightblue" stroke="midnightblue" points="466.127,-17.5193 475.749,-13.0854 465.462,-10.551 466.127,-17.5193"/>
</g>
<!-- Node20&#45;&gt;Node6 -->
<g id="edge88" class="edge"><title>Node20&#45;&gt;Node6</title>
<path fill="none" stroke="midnightblue" d="M399.589,-376.497C431.29,-366.87 478.36,-352.577 512.579,-342.185"/>
<polygon fill="midnightblue" stroke="midnightblue" points="513.758,-345.485 522.31,-339.231 511.724,-338.787 513.758,-345.485"/>
</g>
<!-- Node21&#45;&gt;Node2 -->
<g id="edge92" class="edge"><title>Node21&#45;&gt;Node2</title>
<path fill="none" stroke="midnightblue" d="M430.417,-376.446C365.976,-355.737 234,-307.958 234,-264 234,-264 234,-264 234,-141 234,-89.4559 270.351,-83.7539 315,-58 362.885,-30.3794 426.918,-18.7984 465.721,-14.0816"/>
<polygon fill="midnightblue" stroke="midnightblue" points="466.418,-17.5252 475.962,-12.9256 465.633,-10.5694 466.418,-17.5252"/>
</g>
<!-- Node21&#45;&gt;Node6 -->
<g id="edge94" class="edge"><title>Node21&#45;&gt;Node6</title>
<path fill="none" stroke="midnightblue" d="M481.691,-376.362C495.416,-367.614 515.084,-355.079 530.737,-345.101"/>
<polygon fill="midnightblue" stroke="midnightblue" points="532.863,-347.897 539.415,-339.571 529.101,-341.994 532.863,-347.897"/>
</g>
<!-- Node22&#45;&gt;Node2 -->
<g id="edge98" class="edge"><title>Node22&#45;&gt;Node2</title>
<path fill="none" stroke="midnightblue" d="M552.024,-376.481C521.129,-360.519 465.357,-327.189 436,-282 418.088,-254.427 423.085,-242.625 419,-210 410.567,-142.642 396.496,-114.583 434,-58 442.567,-45.074 455.995,-34.5648 468.509,-26.7879"/>
<polygon fill="midnightblue" stroke="midnightblue" points="470.504,-29.6761 477.376,-21.6126 466.976,-23.6304 470.504,-29.6761"/>
</g>
<!-- Node22&#45;&gt;Node6 -->
<g id="edge100" class="edge"><title>Node22&#45;&gt;Node6</title>
<path fill="none" stroke="midnightblue" d="M570.699,-376.362C568.339,-368.758 565.091,-358.294 562.249,-349.135"/>
<polygon fill="midnightblue" stroke="midnightblue" points="565.587,-348.084 559.281,-339.571 558.902,-350.159 565.587,-348.084"/>
</g>
<!-- Node23&#45;&gt;Node2 -->
<g id="edge104" class="edge"><title>Node23&#45;&gt;Node2</title>
<path fill="none" stroke="midnightblue" d="M679.734,-376.277C667.792,-357.935 644.495,-318.933 636,-282 620.584,-214.976 683.627,-196.203 665,-130 654.843,-93.8995 649.771,-82.0553 621,-58 595.816,-36.9436 560.116,-24.6326 534.021,-17.932"/>
<polygon fill="midnightblue" stroke="midnightblue" points="534.727,-14.5018 524.184,-15.5529 533.081,-21.3057 534.727,-14.5018"/>
</g>
<!-- Node23&#45;&gt;Node6 -->
<g id="edge106" class="edge"><title>Node23&#45;&gt;Node6</title>
<path fill="none" stroke="midnightblue" d="M663.277,-376.497C642.632,-367.356 612.484,-354.008 589.401,-343.788"/>
<polygon fill="midnightblue" stroke="midnightblue" points="590.55,-340.469 579.989,-339.621 587.716,-346.87 590.55,-340.469"/>
</g>
<!-- Node24&#45;&gt;Node2 -->
<g id="edge110" class="edge"><title>Node24&#45;&gt;Node2</title>
<path fill="none" stroke="midnightblue" d="M798.379,-376.371C803.71,-330.205 818.127,-145.499 721,-58 693.826,-33.5197 588.972,-19.7648 534.029,-14.0996"/>
<polygon fill="midnightblue" stroke="midnightblue" points="534.36,-10.6154 524.062,-13.1044 533.664,-17.5807 534.36,-10.6154"/>
</g>
<!-- Node24&#45;&gt;Node6 -->
<g id="edge112" class="edge"><title>Node24&#45;&gt;Node6</title>
<path fill="none" stroke="midnightblue" d="M753.357,-376.497C709.69,-365.988 642.912,-349.917 599.35,-339.433"/>
<polygon fill="midnightblue" stroke="midnightblue" points="600.155,-336.027 589.614,-337.09 598.517,-342.832 600.155,-336.027"/>
</g>
<!-- Node25&#45;&gt;Node2 -->
<g id="edge116" class="edge"><title>Node25&#45;&gt;Node2</title>
<path fill="none" stroke="midnightblue" d="M1262.86,-376.478C1264.52,-355.234 1268,-305.69 1268,-264 1268,-264 1268,-264 1268,-141 1268,-43.939 1160.36,-80.7278 1066,-58 964.054,-33.4458 640.802,-17.2489 534.357,-12.4718"/>
<polygon fill="midnightblue" stroke="midnightblue" points="534.32,-8.96685 524.175,-12.0202 534.01,-15.96 534.32,-8.96685"/>
</g>
<!-- Node25&#45;&gt;Node3 -->
<g id="edge118" class="edge"><title>Node25&#45;&gt;Node3</title>
<path fill="none" stroke="midnightblue" d="M1258,-376.298C1249.1,-352.627 1226.79,-294.114 1206,-246 1202.14,-237.063 1197.62,-227.296 1193.68,-218.993"/>
<polygon fill="midnightblue" stroke="midnightblue" points="1196.73,-217.253 1189.25,-209.744 1190.41,-220.275 1196.73,-217.253"/>
</g>
<!-- Node25&#45;&gt;Node6 -->
<g id="edge120" class="edge"><title>Node25&#45;&gt;Node6</title>
<path fill="none" stroke="midnightblue" d="M1219.49,-381.334C1204.78,-379.483 1188.18,-377.516 1173,-376 958.512,-354.588 701.214,-337.868 599.978,-331.638"/>
<polygon fill="midnightblue" stroke="midnightblue" points="600.02,-328.135 589.825,-331.017 599.592,-335.121 600.02,-328.135"/>
</g>
<!-- Node26&#45;&gt;Node2 -->
<g id="edge124" class="edge"><title>Node26&#45;&gt;Node2</title>
<path fill="none" stroke="midnightblue" d="M913.871,-376.187C936.617,-324.937 1029.43,-106.939 985,-58 954.765,-24.6936 639.977,-14.2879 534.344,-11.7205"/>
<polygon fill="midnightblue" stroke="midnightblue" points="534.3,-8.21862 524.22,-11.4831 534.136,-15.2167 534.3,-8.21862"/>
</g>
<!-- Node26&#45;&gt;Node6 -->
<g id="edge126" class="edge"><title>Node26&#45;&gt;Node6</title>
<path fill="none" stroke="midnightblue" d="M861.364,-377.518C858.536,-376.994 855.732,-376.484 853,-376 763.291,-360.097 657.866,-344.034 599.844,-335.42"/>
<polygon fill="midnightblue" stroke="midnightblue" points="600.324,-331.953 589.919,-333.95 599.299,-338.877 600.324,-331.953"/>
</g>
<!-- Node27&#45;&gt;Node2 -->
<g id="edge130" class="edge"><title>Node27&#45;&gt;Node2</title>
<path fill="none" stroke="midnightblue" d="M1109.07,-376.188C1112.96,-354.832 1121,-305.695 1121,-264 1121,-264 1121,-264 1121,-141 1121,-77.2443 1063.78,-80.1607 1004,-58 917.341,-25.8756 632.851,-14.8114 534.116,-11.8864"/>
<polygon fill="midnightblue" stroke="midnightblue" points="534.178,-8.38685 524.081,-11.5985 533.977,-15.384 534.178,-8.38685"/>
</g>
<!-- Node27&#45;&gt;Node6 -->
<g id="edge132" class="edge"><title>Node27&#45;&gt;Node6</title>
<path fill="none" stroke="midnightblue" d="M1049.33,-380.93C938.7,-369.284 698.865,-344.038 599.983,-333.63"/>
<polygon fill="midnightblue" stroke="midnightblue" points="600.06,-330.119 589.749,-332.552 599.327,-337.08 600.06,-330.119"/>
</g>
</g>
</svg>
