<?xml version="1.0" encoding="UTF-8" standalone="no"?>
<!DOCTYPE svg PUBLIC "-//W3C//DTD SVG 1.1//EN"
 "http://www.w3.org/Graphics/SVG/1.1/DTD/svg11.dtd">
<!-- Generated by graphviz version 2.26.3 (20100126.1600)
 -->
<!-- Title: /home/travis/build/LibrePCB/LibrePCB/libs/librepcbproject/schematics/items/si_netpoint.h Pages: 1 -->
<svg width="2030pt" height="180pt"
 viewBox="0.00 0.00 2030.00 180.00" xmlns="http://www.w3.org/2000/svg" xmlns:xlink="http://www.w3.org/1999/xlink">
<g id="graph1" class="graph" transform="scale(1 1) rotate(0) translate(4 176)">
<title>/home/travis/build/LibrePCB/LibrePCB/libs/librepcbproject/schematics/items/si_netpoint.h</title>
<polygon fill="white" stroke="white" points="-4,5 -4,-176 2027,-176 2027,5 -4,5"/>
<!-- Node1 -->
<g id="node1" class="node"><title>Node1</title>
<polygon fill="#bfbfbf" stroke="black" points="1054,-111 1054,-171 1190,-171 1190,-111 1054,-111"/>
<text text-anchor="start" x="1062" y="-158" font-family="Helvetica,sans-Serif" font-size="10.00">/home/travis/build</text>
<text text-anchor="start" x="1062" y="-145" font-family="Helvetica,sans-Serif" font-size="10.00">/LibrePCB/LibrePCB/libs</text>
<text text-anchor="start" x="1062" y="-132" font-family="Helvetica,sans-Serif" font-size="10.00">/librepcbproject/schematics</text>
<text text-anchor="middle" x="1122" y="-119" font-family="Helvetica,sans-Serif" font-size="10.00">/items/si_netpoint.h</text>
</g>
<!-- Node2 -->
<g id="node3" class="node"><title>Node2</title>
<a xlink:href="../../d2/d5d/cmdschematicnetpointadd_8cpp.html" target="_top" xlink:title="/home/travis/build\l/LibrePCB/LibrePCB/libs\l/librepcbproject/schematics\l/cmd/cmdschematicnetpointadd.cpp">
<polygon fill="white" stroke="black" points="0,-7 0,-67 174,-67 174,-7 0,-7"/>
<text text-anchor="start" x="8" y="-54" font-family="Helvetica,sans-Serif" font-size="10.00">/home/travis/build</text>
<text text-anchor="start" x="8" y="-41" font-family="Helvetica,sans-Serif" font-size="10.00">/LibrePCB/LibrePCB/libs</text>
<text text-anchor="start" x="8" y="-28" font-family="Helvetica,sans-Serif" font-size="10.00">/librepcbproject/schematics</text>
<text text-anchor="middle" x="87" y="-15" font-family="Helvetica,sans-Serif" font-size="10.00">/cmd/cmdschematicnetpointadd.cpp</text>
</a>
</g>
<!-- Node1&#45;&gt;Node2 -->
<g id="edge2" class="edge"><title>Node1&#45;&gt;Node2</title>
<path fill="none" stroke="midnightblue" d="M1043.69,-138.397C848.865,-131.442 346.27,-110.434 183,-74 174.807,-72.1716 166.386,-69.7675 158.097,-67.0606"/>
<polygon fill="midnightblue" stroke="midnightblue" points="1043.74,-141.901 1053.85,-138.757 1043.98,-134.905 1043.74,-141.901"/>
</g>
<!-- Node3 -->
<g id="node5" class="node"><title>Node3</title>
<a xlink:href="../../d1/d44/cmdschematicnetpointdetach_8cpp.html" target="_top" xlink:title="/home/travis/build\l/LibrePCB/LibrePCB/libs\l/librepcbproject/schematics\l/cmd/cmdschematicnetpointdetach.cpp">
<polygon fill="white" stroke="black" points="192,-7 192,-67 380,-67 380,-7 192,-7"/>
<text text-anchor="start" x="200" y="-54" font-family="Helvetica,sans-Serif" font-size="10.00">/home/travis/build</text>
<text text-anchor="start" x="200" y="-41" font-family="Helvetica,sans-Serif" font-size="10.00">/LibrePCB/LibrePCB/libs</text>
<text text-anchor="start" x="200" y="-28" font-family="Helvetica,sans-Serif" font-size="10.00">/librepcbproject/schematics</text>
<text text-anchor="middle" x="286" y="-15" font-family="Helvetica,sans-Serif" font-size="10.00">/cmd/cmdschematicnetpointdetach.cpp</text>
</a>
</g>
<!-- Node1&#45;&gt;Node3 -->
<g id="edge4" class="edge"><title>Node1&#45;&gt;Node3</title>
<path fill="none" stroke="midnightblue" d="M1043.45,-136.347C880.807,-126.299 512.074,-101.265 389,-74 380.467,-72.1096 371.674,-69.7039 362.992,-67.0291"/>
<polygon fill="midnightblue" stroke="midnightblue" points="1043.67,-139.867 1053.86,-136.987 1044.1,-132.88 1043.67,-139.867"/>
</g>
<!-- Node4 -->
<g id="node7" class="node"><title>Node4</title>
<a xlink:href="../../d7/dbc/cmdschematicnetpointedit_8cpp.html" target="_top" xlink:title="/home/travis/build\l/LibrePCB/LibrePCB/libs\l/librepcbproject/schematics\l/cmd/cmdschematicnetpointedit.cpp">
<polygon fill="white" stroke="black" points="398,-7 398,-67 572,-67 572,-7 398,-7"/>
<text text-anchor="start" x="406" y="-54" font-family="Helvetica,sans-Serif" font-size="10.00">/home/travis/build</text>
<text text-anchor="start" x="406" y="-41" font-family="Helvetica,sans-Serif" font-size="10.00">/LibrePCB/LibrePCB/libs</text>
<text text-anchor="start" x="406" y="-28" font-family="Helvetica,sans-Serif" font-size="10.00">/librepcbproject/schematics</text>
<text text-anchor="middle" x="485" y="-15" font-family="Helvetica,sans-Serif" font-size="10.00">/cmd/cmdschematicnetpointedit.cpp</text>
</a>
</g>
<!-- Node1&#45;&gt;Node4 -->
<g id="edge6" class="edge"><title>Node1&#45;&gt;Node4</title>
<path fill="none" stroke="midnightblue" d="M1043.99,-137.33C937.846,-130.988 742.637,-114.506 581,-74 573.29,-72.0679 565.36,-69.6894 557.518,-67.0783"/>
<polygon fill="midnightblue" stroke="midnightblue" points="1043.79,-140.825 1053.98,-137.913 1044.2,-133.837 1043.79,-140.825"/>
</g>
<!-- Node5 -->
<g id="node9" class="node"><title>Node5</title>
<a xlink:href="../../de/d37/cmdschematicnetpointremove_8cpp.html" target="_top" xlink:title="/home/travis/build\l/LibrePCB/LibrePCB/libs\l/librepcbproject/schematics\l/cmd/cmdschematicnetpointremove.cpp">
<polygon fill="white" stroke="black" points="589.5,-7 589.5,-67 780.5,-67 780.5,-7 589.5,-7"/>
<text text-anchor="start" x="597.5" y="-54" font-family="Helvetica,sans-Serif" font-size="10.00">/home/travis/build</text>
<text text-anchor="start" x="597.5" y="-41" font-family="Helvetica,sans-Serif" font-size="10.00">/LibrePCB/LibrePCB/libs</text>
<text text-anchor="start" x="597.5" y="-28" font-family="Helvetica,sans-Serif" font-size="10.00">/librepcbproject/schematics</text>
<text text-anchor="middle" x="685" y="-15" font-family="Helvetica,sans-Serif" font-size="10.00">/cmd/cmdschematicnetpointremove.cpp</text>
</a>
</g>
<!-- Node1&#45;&gt;Node5 -->
<g id="edge8" class="edge"><title>Node1&#45;&gt;Node5</title>
<path fill="none" stroke="midnightblue" d="M1043.52,-128.481C975.566,-116.866 874.95,-97.8039 789,-74 781.428,-71.9029 773.613,-69.5284 765.829,-67.0193"/>
<polygon fill="midnightblue" stroke="midnightblue" points="1043.28,-131.99 1053.72,-130.211 1044.45,-125.088 1043.28,-131.99"/>
</g>
<!-- Node6 -->
<g id="node11" class="node"><title>Node6</title>
<a xlink:href="../../d4/d13/sgi__netline_8cpp.html" target="_top" xlink:title="/home/travis/build\l/LibrePCB/LibrePCB/libs\l/librepcbproject/schematics\l/graphicsitems/sgi_netline.cpp">
<polygon fill="white" stroke="black" points="797.5,-7 797.5,-67 946.5,-67 946.5,-7 797.5,-7"/>
<text text-anchor="start" x="805.5" y="-54" font-family="Helvetica,sans-Serif" font-size="10.00">/home/travis/build</text>
<text text-anchor="start" x="805.5" y="-41" font-family="Helvetica,sans-Serif" font-size="10.00">/LibrePCB/LibrePCB/libs</text>
<text text-anchor="start" x="805.5" y="-28" font-family="Helvetica,sans-Serif" font-size="10.00">/librepcbproject/schematics</text>
<text text-anchor="middle" x="872" y="-15" font-family="Helvetica,sans-Serif" font-size="10.00">/graphicsitems/sgi_netline.cpp</text>
</a>
</g>
<!-- Node1&#45;&gt;Node6 -->
<g id="edge10" class="edge"><title>Node1&#45;&gt;Node6</title>
<path fill="none" stroke="midnightblue" d="M1044.49,-110.609C1016.23,-99.3421 984.077,-86.3087 955,-74 949.77,-71.786 944.369,-69.4629 938.949,-67.1053"/>
<polygon fill="midnightblue" stroke="midnightblue" points="1043.33,-113.915 1053.91,-114.359 1045.92,-107.41 1043.33,-113.915"/>
</g>
<!-- Node7 -->
<g id="node13" class="node"><title>Node7</title>
<a xlink:href="../../d2/d8a/sgi__netpoint_8cpp.html" target="_top" xlink:title="/home/travis/build\l/LibrePCB/LibrePCB/libs\l/librepcbproject/schematics\l/graphicsitems/sgi_netpoint.cpp">
<polygon fill="white" stroke="black" points="963.5,-7 963.5,-67 1118.5,-67 1118.5,-7 963.5,-7"/>
<text text-anchor="start" x="971.5" y="-54" font-family="Helvetica,sans-Serif" font-size="10.00">/home/travis/build</text>
<text text-anchor="start" x="971.5" y="-41" font-family="Helvetica,sans-Serif" font-size="10.00">/LibrePCB/LibrePCB/libs</text>
<text text-anchor="start" x="971.5" y="-28" font-family="Helvetica,sans-Serif" font-size="10.00">/librepcbproject/schematics</text>
<text text-anchor="middle" x="1041" y="-15" font-family="Helvetica,sans-Serif" font-size="10.00">/graphicsitems/sgi_netpoint.cpp</text>
</a>
</g>
<!-- Node1&#45;&gt;Node7 -->
<g id="edge12" class="edge"><title>Node1&#45;&gt;Node7</title>
<path fill="none" stroke="midnightblue" d="M1092.35,-102.925C1083.13,-91.0907 1073.1,-78.2175 1064.38,-67.0135"/>
<polygon fill="midnightblue" stroke="midnightblue" points="1089.67,-105.18 1098.57,-110.919 1095.19,-100.879 1089.67,-105.18"/>
</g>
<!-- Node8 -->
<g id="node15" class="node"><title>Node8</title>
<a xlink:href="../../d6/d91/si__netline_8cpp.html" target="_top" xlink:title="/home/travis/build\l/LibrePCB/LibrePCB/libs\l/librepcbproject/schematics\l/items/si_netline.cpp">
<polygon fill="white" stroke="black" points="1136,-7 1136,-67 1272,-67 1272,-7 1136,-7"/>
<text text-anchor="start" x="1144" y="-54" font-family="Helvetica,sans-Serif" font-size="10.00">/home/travis/build</text>
<text text-anchor="start" x="1144" y="-41" font-family="Helvetica,sans-Serif" font-size="10.00">/LibrePCB/LibrePCB/libs</text>
<text text-anchor="start" x="1144" y="-28" font-family="Helvetica,sans-Serif" font-size="10.00">/librepcbproject/schematics</text>
<text text-anchor="middle" x="1204" y="-15" font-family="Helvetica,sans-Serif" font-size="10.00">/items/si_netline.cpp</text>
</a>
</g>
<!-- Node1&#45;&gt;Node8 -->
<g id="edge14" class="edge"><title>Node1&#45;&gt;Node8</title>
<path fill="none" stroke="midnightblue" d="M1152.02,-102.925C1161.35,-91.0907 1171.5,-78.2175 1180.34,-67.0135"/>
<polygon fill="midnightblue" stroke="midnightblue" points="1149.16,-100.899 1145.72,-110.919 1154.66,-105.233 1149.16,-100.899"/>
</g>
<!-- Node9 -->
<g id="node17" class="node"><title>Node9</title>
<a xlink:href="../../d9/d0a/si__netpoint_8cpp.html" target="_top" xlink:title="/home/travis/build\l/LibrePCB/LibrePCB/libs\l/librepcbproject/schematics\l/items/si_netpoint.cpp">
<polygon fill="white" stroke="black" points="1290,-7 1290,-67 1426,-67 1426,-7 1290,-7"/>
<text text-anchor="start" x="1298" y="-54" font-family="Helvetica,sans-Serif" font-size="10.00">/home/travis/build</text>
<text text-anchor="start" x="1298" y="-41" font-family="Helvetica,sans-Serif" font-size="10.00">/LibrePCB/LibrePCB/libs</text>
<text text-anchor="start" x="1298" y="-28" font-family="Helvetica,sans-Serif" font-size="10.00">/librepcbproject/schematics</text>
<text text-anchor="middle" x="1358" y="-15" font-family="Helvetica,sans-Serif" font-size="10.00">/items/si_netpoint.cpp</text>
</a>
</g>
<!-- Node1&#45;&gt;Node9 -->
<g id="edge16" class="edge"><title>Node1&#45;&gt;Node9</title>
<path fill="none" stroke="midnightblue" d="M1199.46,-109.259C1225.49,-98.3529 1254.61,-85.8922 1281,-74 1285.87,-71.8064 1290.89,-69.4981 1295.92,-67.1507"/>
<polygon fill="midnightblue" stroke="midnightblue" points="1197.89,-106.118 1190.02,-113.202 1200.59,-112.577 1197.89,-106.118"/>
</g>
<!-- Node10 -->
<g id="node19" class="node"><title>Node10</title>
<a xlink:href="../../d5/d35/si__symbolpin_8cpp.html" target="_top" xlink:title="/home/travis/build\l/LibrePCB/LibrePCB/libs\l/librepcbproject/schematics\l/items/si_symbolpin.cpp">
<polygon fill="white" stroke="black" points="1444,-7 1444,-67 1580,-67 1580,-7 1444,-7"/>
<text text-anchor="start" x="1452" y="-54" font-family="Helvetica,sans-Serif" font-size="10.00">/home/travis/build</text>
<text text-anchor="start" x="1452" y="-41" font-family="Helvetica,sans-Serif" font-size="10.00">/LibrePCB/LibrePCB/libs</text>
<text text-anchor="start" x="1452" y="-28" font-family="Helvetica,sans-Serif" font-size="10.00">/librepcbproject/schematics</text>
<text text-anchor="middle" x="1512" y="-15" font-family="Helvetica,sans-Serif" font-size="10.00">/items/si_symbolpin.cpp</text>
</a>
</g>
<!-- Node1&#45;&gt;Node10 -->
<g id="edge18" class="edge"><title>Node1&#45;&gt;Node10</title>
<path fill="none" stroke="midnightblue" d="M1200.16,-129.561C1264.33,-118.919 1357.01,-100.662 1435,-74 1440.89,-71.985 1446.93,-69.6352 1452.89,-67.1148"/>
<polygon fill="midnightblue" stroke="midnightblue" points="1199.41,-126.136 1190.11,-131.204 1200.54,-133.044 1199.41,-126.136"/>
</g>
<!-- Node11 -->
<g id="node21" class="node"><title>Node11</title>
<a xlink:href="../../dc/db2/schematic_8cpp.html" target="_top" xlink:title="/home/travis/build\l/LibrePCB/LibrePCB/libs\l/librepcbproject/schematics\l/schematic.cpp">
<polygon fill="white" stroke="black" points="1598,-7 1598,-67 1734,-67 1734,-7 1598,-7"/>
<text text-anchor="start" x="1606" y="-54" font-family="Helvetica,sans-Serif" font-size="10.00">/home/travis/build</text>
<text text-anchor="start" x="1606" y="-41" font-family="Helvetica,sans-Serif" font-size="10.00">/LibrePCB/LibrePCB/libs</text>
<text text-anchor="start" x="1606" y="-28" font-family="Helvetica,sans-Serif" font-size="10.00">/librepcbproject/schematics</text>
<text text-anchor="middle" x="1666" y="-15" font-family="Helvetica,sans-Serif" font-size="10.00">/schematic.cpp</text>
</a>
</g>
<!-- Node1&#45;&gt;Node11 -->
<g id="edge20" class="edge"><title>Node1&#45;&gt;Node11</title>
<path fill="none" stroke="midnightblue" d="M1200.31,-137.064C1294.38,-130.683 1456.12,-114.41 1589,-74 1595.39,-72.0582 1601.91,-69.6558 1608.31,-67.0147"/>
<polygon fill="midnightblue" stroke="midnightblue" points="1200.05,-133.574 1190.3,-137.723 1200.51,-140.559 1200.05,-133.574"/>
</g>
<!-- Node12 -->
<g id="node23" class="node"><title>Node12</title>
<a xlink:href="../../df/d6c/ses__drawwire_8cpp.html" target="_top" xlink:title="/home/travis/build\l/LibrePCB/LibrePCB/libs\l/librepcbprojecteditor\l/schematiceditor/fsm/ses\l_drawwire.cpp">
<polygon fill="white" stroke="black" points="1751.5,-0.5 1751.5,-73.5 1878.5,-73.5 1878.5,-0.5 1751.5,-0.5"/>
<text text-anchor="start" x="1759.5" y="-60.5" font-family="Helvetica,sans-Serif" font-size="10.00">/home/travis/build</text>
<text text-anchor="start" x="1759.5" y="-47.5" font-family="Helvetica,sans-Serif" font-size="10.00">/LibrePCB/LibrePCB/libs</text>
<text text-anchor="start" x="1759.5" y="-34.5" font-family="Helvetica,sans-Serif" font-size="10.00">/librepcbprojecteditor</text>
<text text-anchor="start" x="1759.5" y="-21.5" font-family="Helvetica,sans-Serif" font-size="10.00">/schematiceditor/fsm/ses</text>
<text text-anchor="middle" x="1815" y="-8.5" font-family="Helvetica,sans-Serif" font-size="10.00">_drawwire.cpp</text>
</a>
</g>
<!-- Node1&#45;&gt;Node12 -->
<g id="edge22" class="edge"><title>Node1&#45;&gt;Node12</title>
<path fill="none" stroke="midnightblue" d="M1200.3,-136.135C1343.78,-126.629 1643.27,-103.879 1743,-74 1745.69,-73.1933 1748.4,-72.2869 1751.11,-71.3011"/>
<polygon fill="midnightblue" stroke="midnightblue" points="1199.99,-132.648 1190.24,-136.797 1200.45,-139.633 1199.99,-132.648"/>
</g>
<!-- Node13 -->
<g id="node25" class="node"><title>Node13</title>
<a xlink:href="../../d5/d03/ses__select_8cpp.html" target="_top" xlink:title="/home/travis/build\l/LibrePCB/LibrePCB/libs\l/librepcbprojecteditor\l/schematiceditor/fsm/ses\l_select.cpp">
<polygon fill="white" stroke="black" points="1895.5,-0.5 1895.5,-73.5 2022.5,-73.5 2022.5,-0.5 1895.5,-0.5"/>
<text text-anchor="start" x="1903.5" y="-60.5" font-family="Helvetica,sans-Serif" font-size="10.00">/home/travis/build</text>
<text text-anchor="start" x="1903.5" y="-47.5" font-family="Helvetica,sans-Serif" font-size="10.00">/LibrePCB/LibrePCB/libs</text>
<text text-anchor="start" x="1903.5" y="-34.5" font-family="Helvetica,sans-Serif" font-size="10.00">/librepcbprojecteditor</text>
<text text-anchor="start" x="1903.5" y="-21.5" font-family="Helvetica,sans-Serif" font-size="10.00">/schematiceditor/fsm/ses</text>
<text text-anchor="middle" x="1959" y="-8.5" font-family="Helvetica,sans-Serif" font-size="10.00">_select.cpp</text>
</a>
</g>
<!-- Node1&#45;&gt;Node13 -->
<g id="edge24" class="edge"><title>Node1&#45;&gt;Node13</title>
<path fill="none" stroke="midnightblue" d="M1200.09,-137.979C1368.24,-130.856 1759.59,-110.779 1887,-74 1889.7,-73.2204 1892.42,-72.3369 1895.13,-71.3703"/>
<polygon fill="midnightblue" stroke="midnightblue" points="1199.92,-134.484 1190.07,-138.4 1200.21,-141.477 1199.92,-134.484"/>
</g>
</g>
</svg>
