<?xml version="1.0" encoding="UTF-8" standalone="no"?>
<!DOCTYPE svg PUBLIC "-//W3C//DTD SVG 1.1//EN"
 "http://www.w3.org/Graphics/SVG/1.1/DTD/svg11.dtd">
<!-- Generated by graphviz version 2.26.3 (20100126.1600)
 -->
<!-- Title: serializeToXmlDomElement Pages: 1 -->
<svg width="834pt" height="614pt"
 viewBox="0.00 0.00 834.00 613.54" xmlns="http://www.w3.org/2000/svg" xmlns:xlink="http://www.w3.org/1999/xlink">
<g id="graph1" class="graph" transform="scale(1 1) rotate(0) translate(4 609.544)">
<title>serializeToXmlDomElement</title>
<polygon fill="white" stroke="white" points="-4,5 -4,-609.544 831,-609.544 831,5 -4,5"/>
<!-- Node1 -->
<g id="node1" class="node"><title>Node1</title>
<polygon fill="#bfbfbf" stroke="black" points="0,-280.044 0,-301.044 138,-301.044 138,-280.044 0,-280.044"/>
<text text-anchor="middle" x="69" y="-288.044" font-family="Helvetica,sans-Serif" font-size="10.00">serializeToXmlDomElement</text>
</g>
<!-- Node2 -->
<g id="node3" class="node"><title>Node2</title>
<a xlink:href="../../d8/dff/classlibrary_1_1_library_element.html#aeb87054a7c12b9ccee59af89a9abf24f" target="_top" xlink:title="Serialize the object to a XML DOM element. ">
<polygon fill="white" stroke="black" points="178,-402.544 178,-436.544 322,-436.544 322,-402.544 178,-402.544"/>
<text text-anchor="start" x="186" y="-423.544" font-family="Helvetica,sans-Serif" font-size="10.00">library::LibraryElement</text>
<text text-anchor="middle" x="250" y="-410.544" font-family="Helvetica,sans-Serif" font-size="10.00">::serializeToXmlDomElement</text>
</a>
</g>
<!-- Node1&#45;&gt;Node2 -->
<g id="edge2" class="edge"><title>Node1&#45;&gt;Node2</title>
<path fill="none" stroke="midnightblue" d="M78.9198,-301.109C96.6657,-319.579 135.594,-358.183 174,-383.544 181.957,-388.799 190.801,-393.716 199.561,-398.125"/>
<polygon fill="midnightblue" stroke="midnightblue" points="198.095,-401.304 208.619,-402.529 201.156,-395.008 198.095,-401.304"/>
</g>
<!-- Node6 -->
<g id="node11" class="node"><title>Node6</title>
<a xlink:href="../../d1/d1f/class_xml_dom_element.html#af2ee1b74300d31ca889b32ddd96d51ac" target="_top" xlink:title="Append a child to the end of the child list of this element. ">
<polygon fill="white" stroke="black" points="552.5,-280.044 552.5,-301.044 703.5,-301.044 703.5,-280.044 552.5,-280.044"/>
<text text-anchor="middle" x="628" y="-288.044" font-family="Helvetica,sans-Serif" font-size="10.00">XmlDomElement::appendChild</text>
</a>
</g>
<!-- Node1&#45;&gt;Node6 -->
<g id="edge20" class="edge"><title>Node1&#45;&gt;Node6</title>
<path fill="none" stroke="midnightblue" d="M138.105,-290.544C240.223,-290.544 431.279,-290.544 542.215,-290.544"/>
<polygon fill="midnightblue" stroke="midnightblue" points="542.365,-294.045 552.365,-290.544 542.365,-287.045 542.365,-294.045"/>
</g>
<!-- Node7 -->
<g id="node13" class="node"><title>Node7</title>
<a xlink:href="../../d1/d1f/class_xml_dom_element.html#a22b3ed6c99338244f5855c446f66d702" target="_top" xlink:title="Create a new text child and append it to the list of childs. ">
<polygon fill="white" stroke="black" points="554,-571.544 554,-605.544 702,-605.544 702,-571.544 554,-571.544"/>
<text text-anchor="start" x="562" y="-592.544" font-family="Helvetica,sans-Serif" font-size="10.00">XmlDomElement::appendText</text>
<text text-anchor="middle" x="628" y="-579.544" font-family="Helvetica,sans-Serif" font-size="10.00">Child</text>
</a>
</g>
<!-- Node1&#45;&gt;Node7 -->
<g id="edge34" class="edge"><title>Node1&#45;&gt;Node7</title>
<path fill="none" stroke="midnightblue" d="M74.3439,-301.42C87.983,-328.369 126.391,-399.394 174,-445.544 245.003,-514.373 268.357,-532.767 362,-564.544 420.575,-584.422 490.335,-590.1 543.717,-590.98"/>
<polygon fill="midnightblue" stroke="midnightblue" points="543.788,-594.481 553.826,-591.093 543.866,-587.481 543.788,-594.481"/>
</g>
<!-- Node9 -->
<g id="node20" class="node"><title>Node9</title>
<a xlink:href="../../d5/d40/classlibrary_1_1_library_element_attribute.html#aeb87054a7c12b9ccee59af89a9abf24f" target="_top" xlink:title="Serialize the object to a XML DOM element. ">
<polygon fill="white" stroke="black" points="174.5,-340.544 174.5,-374.544 325.5,-374.544 325.5,-340.544 174.5,-340.544"/>
<text text-anchor="start" x="182.5" y="-361.544" font-family="Helvetica,sans-Serif" font-size="10.00">library::LibraryElementAttribute</text>
<text text-anchor="middle" x="250" y="-348.544" font-family="Helvetica,sans-Serif" font-size="10.00">::serializeToXmlDomElement</text>
</a>
</g>
<!-- Node1&#45;&gt;Node9 -->
<g id="edge22" class="edge"><title>Node1&#45;&gt;Node9</title>
<path fill="none" stroke="midnightblue" d="M97.68,-301.161C123.516,-310.724 162.229,-325.055 194.16,-336.874"/>
<polygon fill="midnightblue" stroke="midnightblue" points="193.237,-340.265 203.83,-340.454 195.667,-333.7 193.237,-340.265"/>
</g>
<!-- Node15 -->
<g id="node33" class="node"><title>Node15</title>
<a xlink:href="../../d1/d1f/class_xml_dom_element.html#a7dbc10bec6de11bf7a444b8bf048f296" target="_top" xlink:title="Set or add an attribute to this element. ">
<polygon fill="white" stroke="black" points="554.5,-71.0444 554.5,-92.0444 701.5,-92.0444 701.5,-71.0444 554.5,-71.0444"/>
<text text-anchor="middle" x="628" y="-79.0444" font-family="Helvetica,sans-Serif" font-size="10.00">XmlDomElement::setAttribute</text>
</a>
</g>
<!-- Node1&#45;&gt;Node15 -->
<g id="edge36" class="edge"><title>Node1&#45;&gt;Node15</title>
<path fill="none" stroke="midnightblue" d="M71.0627,-279.768C78.3238,-244.844 106.029,-133.795 174,-77.5444 292.447,20.4781 366.366,9.77937 516,-25.5444 548.398,-33.1926 582.11,-51.7269 603.972,-65.388"/>
<polygon fill="midnightblue" stroke="midnightblue" points="602.269,-68.4535 612.578,-70.8984 606.044,-62.5584 602.269,-68.4535"/>
</g>
<!-- Node16 -->
<g id="node35" class="node"><title>Node16</title>
<a xlink:href="../../d4/d5f/classlibrary_1_1_gen_comp_signal.html#aeb87054a7c12b9ccee59af89a9abf24f" target="_top" xlink:title="Serialize the object to a XML DOM element. ">
<polygon fill="white" stroke="black" points="178,-86.5444 178,-120.544 322,-120.544 322,-86.5444 178,-86.5444"/>
<text text-anchor="start" x="186" y="-107.544" font-family="Helvetica,sans-Serif" font-size="10.00">library::GenCompSignal</text>
<text text-anchor="middle" x="250" y="-94.5444" font-family="Helvetica,sans-Serif" font-size="10.00">::serializeToXmlDomElement</text>
</a>
</g>
<!-- Node1&#45;&gt;Node16 -->
<g id="edge38" class="edge"><title>Node1&#45;&gt;Node16</title>
<path fill="none" stroke="midnightblue" d="M79.2499,-279.955C107.411,-250.86 186.511,-169.138 226.388,-127.939"/>
<polygon fill="midnightblue" stroke="midnightblue" points="228.917,-130.359 233.357,-120.739 223.887,-125.49 228.917,-130.359"/>
</g>
<!-- Node19 -->
<g id="node41" class="node"><title>Node19</title>
<a xlink:href="../../d7/dff/classlibrary_1_1_gen_comp_symb_var.html#aeb87054a7c12b9ccee59af89a9abf24f" target="_top" xlink:title="Serialize the object to a XML DOM element. ">
<polygon fill="white" stroke="black" points="178,-206.544 178,-240.544 322,-240.544 322,-206.544 178,-206.544"/>
<text text-anchor="start" x="186" y="-227.544" font-family="Helvetica,sans-Serif" font-size="10.00">library::GenCompSymbVar</text>
<text text-anchor="middle" x="250" y="-214.544" font-family="Helvetica,sans-Serif" font-size="10.00">::serializeToXmlDomElement</text>
</a>
</g>
<!-- Node1&#45;&gt;Node19 -->
<g id="edge44" class="edge"><title>Node1&#45;&gt;Node19</title>
<path fill="none" stroke="midnightblue" d="M97.68,-279.928C123.516,-270.364 162.229,-256.034 194.16,-244.214"/>
<polygon fill="midnightblue" stroke="midnightblue" points="195.667,-247.389 203.83,-240.635 193.237,-240.824 195.667,-247.389"/>
</g>
<!-- Node3 -->
<g id="node5" class="node"><title>Node3</title>
<a xlink:href="../../dd/d8a/classlibrary_1_1_library_base_element.html#aeb87054a7c12b9ccee59af89a9abf24f" target="_top" xlink:title="Serialize the object to a XML DOM element. ">
<polygon fill="white" stroke="black" points="367,-488.544 367,-522.544 511,-522.544 511,-488.544 367,-488.544"/>
<text text-anchor="start" x="375" y="-509.544" font-family="Helvetica,sans-Serif" font-size="10.00">library::LibraryBaseElement</text>
<text text-anchor="middle" x="439" y="-496.544" font-family="Helvetica,sans-Serif" font-size="10.00">::serializeToXmlDomElement</text>
</a>
</g>
<!-- Node2&#45;&gt;Node3 -->
<g id="edge4" class="edge"><title>Node2&#45;&gt;Node3</title>
<path fill="none" stroke="midnightblue" d="M278.817,-436.699C301.058,-449.514 332.852,-466.92 362,-479.544 366.305,-481.409 370.791,-483.228 375.337,-484.981"/>
<polygon fill="midnightblue" stroke="midnightblue" points="374.125,-488.265 384.718,-488.483 376.573,-481.707 374.125,-488.265"/>
</g>
<!-- Node2&#45;&gt;Node6 -->
<g id="edge16" class="edge"><title>Node2&#45;&gt;Node6</title>
<path fill="none" stroke="midnightblue" d="M322.213,-422.946C377.526,-422.874 454.524,-416.857 516,-389.544 557.189,-371.245 594.038,-332.211 613.48,-308.998"/>
<polygon fill="midnightblue" stroke="midnightblue" points="616.211,-311.186 619.831,-301.229 610.792,-306.756 616.211,-311.186"/>
</g>
<!-- Node2&#45;&gt;Node7 -->
<g id="edge18" class="edge"><title>Node2&#45;&gt;Node7</title>
<path fill="none" stroke="midnightblue" d="M261.949,-436.626C280.394,-461.62 318.279,-507.759 362,-531.544 392.928,-548.37 478.057,-564.931 543.763,-575.829"/>
<polygon fill="midnightblue" stroke="midnightblue" points="543.283,-579.297 553.718,-577.462 544.416,-572.389 543.283,-579.297"/>
</g>
<!-- Node4 -->
<g id="node7" class="node"><title>Node4</title>
<a xlink:href="../../dd/d8a/classlibrary_1_1_library_base_element.html#a524ed0dd8a5522b754411728dfe5c752" target="_top" xlink:title="Check the validity of all attributes of the object. ">
<polygon fill="white" stroke="black" points="559.5,-519.544 559.5,-553.544 696.5,-553.544 696.5,-519.544 559.5,-519.544"/>
<text text-anchor="start" x="567.5" y="-540.544" font-family="Helvetica,sans-Serif" font-size="10.00">library::LibraryBaseElement</text>
<text text-anchor="middle" x="628" y="-527.544" font-family="Helvetica,sans-Serif" font-size="10.00">::checkAttributesValidity</text>
</a>
</g>
<!-- Node3&#45;&gt;Node4 -->
<g id="edge6" class="edge"><title>Node3&#45;&gt;Node4</title>
<path fill="none" stroke="midnightblue" d="M511.262,-517.397C523.678,-519.433 536.638,-521.559 549.215,-523.622"/>
<polygon fill="midnightblue" stroke="midnightblue" points="548.768,-527.095 559.202,-525.26 549.901,-520.188 548.768,-527.095"/>
</g>
<!-- Node3&#45;&gt;Node6 -->
<g id="edge10" class="edge"><title>Node3&#45;&gt;Node6</title>
<path fill="none" stroke="midnightblue" d="M504.569,-488.387C508.709,-485.837 512.58,-482.908 516,-479.544 549.978,-446.131 528.017,-419.725 552,-378.544 567.628,-351.711 591.916,-325.351 608.814,-308.585"/>
<polygon fill="midnightblue" stroke="midnightblue" points="611.715,-310.645 616.445,-301.164 606.835,-305.626 611.715,-310.645"/>
</g>
<!-- Node3&#45;&gt;Node7 -->
<g id="edge12" class="edge"><title>Node3&#45;&gt;Node7</title>
<path fill="none" stroke="midnightblue" d="M486.666,-522.63C496.57,-526.759 506.789,-531.463 516,-536.544 533.281,-546.078 534.472,-553.473 552,-562.544 555.454,-564.332 559.058,-566.039 562.737,-567.661"/>
<polygon fill="midnightblue" stroke="midnightblue" points="561.421,-570.904 571.998,-571.517 564.112,-564.442 561.421,-570.904"/>
</g>
<!-- Node8 -->
<g id="node15" class="node"><title>Node8</title>
<a xlink:href="../../de/d34/class_version.html#a39a0bbf3901de18041fb5c324ecf412a" target="_top" xlink:title="Get the version as a string in the format &quot;1.2.3&quot;. ">
<polygon fill="white" stroke="black" points="589.5,-480.044 589.5,-501.044 666.5,-501.044 666.5,-480.044 589.5,-480.044"/>
<text text-anchor="middle" x="628" y="-488.044" font-family="Helvetica,sans-Serif" font-size="10.00">Version::toStr</text>
</a>
</g>
<!-- Node3&#45;&gt;Node8 -->
<g id="edge14" class="edge"><title>Node3&#45;&gt;Node8</title>
<path fill="none" stroke="midnightblue" d="M511.262,-499.809C533.995,-498.005 558.548,-496.057 579.243,-494.414"/>
<polygon fill="midnightblue" stroke="midnightblue" points="579.683,-497.89 589.375,-493.61 579.129,-490.912 579.683,-497.89"/>
</g>
<!-- Node5 -->
<g id="node9" class="node"><title>Node5</title>
<a xlink:href="../../de/d34/class_version.html#a0a886a9edf5bf682f5245159661bfc94" target="_top" xlink:title="Check if the object represents a valid version number. ">
<polygon fill="white" stroke="black" points="740.5,-526.044 740.5,-547.044 825.5,-547.044 825.5,-526.044 740.5,-526.044"/>
<text text-anchor="middle" x="783" y="-534.044" font-family="Helvetica,sans-Serif" font-size="10.00">Version::isValid</text>
</a>
</g>
<!-- Node4&#45;&gt;Node5 -->
<g id="edge8" class="edge"><title>Node4&#45;&gt;Node5</title>
<path fill="none" stroke="midnightblue" d="M696.888,-536.544C708.039,-536.544 719.432,-536.544 730.126,-536.544"/>
<polygon fill="midnightblue" stroke="midnightblue" points="730.134,-540.045 740.134,-536.544 730.134,-533.045 730.134,-540.045"/>
</g>
<!-- Node10 -->
<g id="node22" class="node"><title>Node10</title>
<a xlink:href="../../d5/d40/classlibrary_1_1_library_element_attribute.html#a524ed0dd8a5522b754411728dfe5c752" target="_top" xlink:title="Check the validity of all attributes of the object. ">
<polygon fill="white" stroke="black" points="363.5,-436.544 363.5,-470.544 514.5,-470.544 514.5,-436.544 363.5,-436.544"/>
<text text-anchor="start" x="371.5" y="-457.544" font-family="Helvetica,sans-Serif" font-size="10.00">library::LibraryElementAttribute</text>
<text text-anchor="middle" x="439" y="-444.544" font-family="Helvetica,sans-Serif" font-size="10.00">::checkAttributesValidity</text>
</a>
</g>
<!-- Node9&#45;&gt;Node10 -->
<g id="edge24" class="edge"><title>Node9&#45;&gt;Node10</title>
<path fill="none" stroke="midnightblue" d="M286.888,-374.603C299.367,-380.484 313.343,-387.191 326,-393.544 350.318,-405.752 377.237,-420.015 398.7,-431.571"/>
<polygon fill="midnightblue" stroke="midnightblue" points="397.078,-434.673 407.541,-436.344 400.404,-428.514 397.078,-434.673"/>
</g>
<!-- Node13 -->
<g id="node28" class="node"><title>Node13</title>
<a xlink:href="../../d8/d57/class_attribute_type.html#ab0c96f485564e41206ce9a4ce42ba389" target="_top" xlink:title="AttributeType::getName">
<polygon fill="white" stroke="black" points="378.5,-359.044 378.5,-380.044 499.5,-380.044 499.5,-359.044 378.5,-359.044"/>
<text text-anchor="middle" x="439" y="-367.044" font-family="Helvetica,sans-Serif" font-size="10.00">AttributeType::getName</text>
</a>
</g>
<!-- Node9&#45;&gt;Node13 -->
<g id="edge30" class="edge"><title>Node9&#45;&gt;Node13</title>
<path fill="none" stroke="midnightblue" d="M325.513,-362.339C339.661,-363.237 354.401,-364.173 368.394,-365.062"/>
<polygon fill="midnightblue" stroke="midnightblue" points="368.229,-368.558 378.431,-365.699 368.673,-361.572 368.229,-368.558"/>
</g>
<!-- Node14 -->
<g id="node30" class="node"><title>Node14</title>
<a xlink:href="../../d7/d08/class_attribute_unit.html#ab0c96f485564e41206ce9a4ce42ba389" target="_top" xlink:title="AttributeUnit::getName">
<polygon fill="white" stroke="black" points="380.5,-319.044 380.5,-340.044 497.5,-340.044 497.5,-319.044 380.5,-319.044"/>
<text text-anchor="middle" x="439" y="-327.044" font-family="Helvetica,sans-Serif" font-size="10.00">AttributeUnit::getName</text>
</a>
</g>
<!-- Node9&#45;&gt;Node14 -->
<g id="edge32" class="edge"><title>Node9&#45;&gt;Node14</title>
<path fill="none" stroke="midnightblue" d="M325.513,-346.357C340.383,-344.154 355.908,-341.854 370.53,-339.688"/>
<polygon fill="midnightblue" stroke="midnightblue" points="371.111,-343.14 380.491,-338.213 370.086,-336.216 371.111,-343.14"/>
</g>
<!-- Node11 -->
<g id="node24" class="node"><title>Node11</title>
<a xlink:href="../../d8/d57/class_attribute_type.html#ad7c946f08bc594d69ad934bc75d2160b" target="_top" xlink:title="AttributeType::getAvailable\lUnits">
<polygon fill="white" stroke="black" points="561,-387.544 561,-421.544 695,-421.544 695,-387.544 561,-387.544"/>
<text text-anchor="start" x="569" y="-408.544" font-family="Helvetica,sans-Serif" font-size="10.00">AttributeType::getAvailable</text>
<text text-anchor="middle" x="628" y="-395.544" font-family="Helvetica,sans-Serif" font-size="10.00">Units</text>
</a>
</g>
<!-- Node10&#45;&gt;Node11 -->
<g id="edge26" class="edge"><title>Node10&#45;&gt;Node11</title>
<path fill="none" stroke="midnightblue" d="M504.573,-436.544C520.024,-432.538 536.617,-428.236 552.467,-424.127"/>
<polygon fill="midnightblue" stroke="midnightblue" points="553.422,-427.495 562.223,-421.598 551.665,-420.719 553.422,-427.495"/>
</g>
<!-- Node12 -->
<g id="node26" class="node"><title>Node12</title>
<a xlink:href="../../d8/d57/class_attribute_type.html#a6b17d4da262831ddc8c11cbaa191560b" target="_top" xlink:title="AttributeType::isValueValid">
<polygon fill="white" stroke="black" points="560.5,-440.044 560.5,-461.044 695.5,-461.044 695.5,-440.044 560.5,-440.044"/>
<text text-anchor="middle" x="628" y="-448.044" font-family="Helvetica,sans-Serif" font-size="10.00">AttributeType::isValueValid</text>
</a>
</g>
<!-- Node10&#45;&gt;Node12 -->
<g id="edge28" class="edge"><title>Node10&#45;&gt;Node12</title>
<path fill="none" stroke="midnightblue" d="M514.513,-452.346C526.203,-452.16 538.297,-451.968 550.04,-451.782"/>
<polygon fill="midnightblue" stroke="midnightblue" points="550.307,-455.278 560.25,-451.62 550.196,-448.279 550.307,-455.278"/>
</g>
<!-- Node17 -->
<g id="node37" class="node"><title>Node17</title>
<a xlink:href="../../d4/d5f/classlibrary_1_1_gen_comp_signal.html#a524ed0dd8a5522b754411728dfe5c752" target="_top" xlink:title="Check the validity of all attributes of the object. ">
<polygon fill="white" stroke="black" points="377.5,-86.5444 377.5,-120.544 500.5,-120.544 500.5,-86.5444 377.5,-86.5444"/>
<text text-anchor="start" x="385.5" y="-107.544" font-family="Helvetica,sans-Serif" font-size="10.00">library::GenCompSignal</text>
<text text-anchor="middle" x="439" y="-94.5444" font-family="Helvetica,sans-Serif" font-size="10.00">::checkAttributesValidity</text>
</a>
</g>
<!-- Node16&#45;&gt;Node17 -->
<g id="edge40" class="edge"><title>Node16&#45;&gt;Node17</title>
<path fill="none" stroke="midnightblue" d="M322.262,-103.544C336.994,-103.544 352.492,-103.544 367.208,-103.544"/>
<polygon fill="midnightblue" stroke="midnightblue" points="367.252,-107.045 377.252,-103.544 367.252,-100.045 367.252,-107.045"/>
</g>
<!-- Node18 -->
<g id="node39" class="node"><title>Node18</title>
<a xlink:href="../../d4/d5f/classlibrary_1_1_gen_comp_signal.html#aedd25a99ede60695fe5d9c62ac14c685" target="_top" xlink:title="library::GenCompSignal\l::signalRoleToString">
<polygon fill="white" stroke="black" points="379,-34.5444 379,-68.5444 499,-68.5444 499,-34.5444 379,-34.5444"/>
<text text-anchor="start" x="387" y="-55.5444" font-family="Helvetica,sans-Serif" font-size="10.00">library::GenCompSignal</text>
<text text-anchor="middle" x="439" y="-42.5444" font-family="Helvetica,sans-Serif" font-size="10.00">::signalRoleToString</text>
</a>
</g>
<!-- Node16&#45;&gt;Node18 -->
<g id="edge42" class="edge"><title>Node16&#45;&gt;Node18</title>
<path fill="none" stroke="midnightblue" d="M311.886,-86.5177C330.221,-81.4731 350.423,-75.9147 369.222,-70.7426"/>
<polygon fill="midnightblue" stroke="midnightblue" points="370.194,-74.1054 378.907,-68.0779 368.337,-67.3562 370.194,-74.1054"/>
</g>
<!-- Node19&#45;&gt;Node6 -->
<g id="edge48" class="edge"><title>Node19&#45;&gt;Node6</title>
<path fill="none" stroke="midnightblue" d="M322.084,-211.202C376.477,-204.564 452.35,-201.07 516,-219.544 551.95,-229.979 587.415,-255.801 608.508,-273.254"/>
<polygon fill="midnightblue" stroke="midnightblue" points="606.484,-276.126 616.372,-279.93 611.014,-270.79 606.484,-276.126"/>
</g>
<!-- Node20 -->
<g id="node43" class="node"><title>Node20</title>
<a xlink:href="../../d7/dff/classlibrary_1_1_gen_comp_symb_var.html#a524ed0dd8a5522b754411728dfe5c752" target="_top" xlink:title="Check the validity of all attributes of the object. ">
<polygon fill="white" stroke="black" points="372,-228.544 372,-262.544 506,-262.544 506,-228.544 372,-228.544"/>
<text text-anchor="start" x="380" y="-249.544" font-family="Helvetica,sans-Serif" font-size="10.00">library::GenCompSymbVar</text>
<text text-anchor="middle" x="439" y="-236.544" font-family="Helvetica,sans-Serif" font-size="10.00">::checkAttributesValidity</text>
</a>
</g>
<!-- Node19&#45;&gt;Node20 -->
<g id="edge46" class="edge"><title>Node19&#45;&gt;Node20</title>
<path fill="none" stroke="midnightblue" d="M322.262,-231.956C335.089,-233.449 348.497,-235.01 361.463,-236.519"/>
<polygon fill="midnightblue" stroke="midnightblue" points="361.411,-240.036 371.748,-237.716 362.22,-233.083 361.411,-240.036"/>
</g>
<!-- Node21 -->
<g id="node46" class="node"><title>Node21</title>
<a xlink:href="../../d5/d1e/classlibrary_1_1_gen_comp_symb_var_item.html#aeb87054a7c12b9ccee59af89a9abf24f" target="_top" xlink:title="Serialize the object to a XML DOM element. ">
<polygon fill="white" stroke="black" points="362.5,-138.544 362.5,-172.544 515.5,-172.544 515.5,-138.544 362.5,-138.544"/>
<text text-anchor="start" x="370.5" y="-159.544" font-family="Helvetica,sans-Serif" font-size="10.00">library::GenCompSymbVarItem</text>
<text text-anchor="middle" x="439" y="-146.544" font-family="Helvetica,sans-Serif" font-size="10.00">::serializeToXmlDomElement</text>
</a>
</g>
<!-- Node19&#45;&gt;Node21 -->
<g id="edge50" class="edge"><title>Node19&#45;&gt;Node21</title>
<path fill="none" stroke="midnightblue" d="M297.693,-206.385C323.307,-197.169 355.06,-185.745 381.974,-176.062"/>
<polygon fill="midnightblue" stroke="midnightblue" points="383.426,-179.259 391.65,-172.58 381.056,-172.672 383.426,-179.259"/>
</g>
<!-- Node21&#45;&gt;Node6 -->
<g id="edge52" class="edge"><title>Node21&#45;&gt;Node6</title>
<path fill="none" stroke="midnightblue" d="M489.202,-172.648C498.416,-176.644 507.727,-181.293 516,-186.544 554.509,-210.987 591.798,-249.493 612.145,-272.157"/>
<polygon fill="midnightblue" stroke="midnightblue" points="609.599,-274.562 618.845,-279.735 614.843,-269.925 609.599,-274.562"/>
</g>
<!-- Node21&#45;&gt;Node15 -->
<g id="edge54" class="edge"><title>Node21&#45;&gt;Node15</title>
<path fill="none" stroke="midnightblue" d="M491.388,-138.477C499.662,-135.603 508.093,-132.568 516,-129.544 543.023,-119.21 573.138,-106.218 595.329,-96.358"/>
<polygon fill="midnightblue" stroke="midnightblue" points="596.921,-99.4799 604.624,-92.205 594.066,-93.0888 596.921,-99.4799"/>
</g>
</g>
</svg>
