<?xml version="1.0" encoding="UTF-8" standalone="no"?>
<!DOCTYPE svg PUBLIC "-//W3C//DTD SVG 1.1//EN"
 "http://www.w3.org/Graphics/SVG/1.1/DTD/svg11.dtd">
<!-- Generated by graphviz version 2.26.3 (20100126.1600)
 -->
<!-- Title: getPosition Pages: 1 -->
<svg width="216pt" height="94pt"
 viewBox="0.00 0.00 216.00 94.00" xmlns="http://www.w3.org/2000/svg" xmlns:xlink="http://www.w3.org/1999/xlink">
<g id="graph1" class="graph" transform="scale(1 1) rotate(0) translate(4 90)">
<title>getPosition</title>
<polygon fill="white" stroke="white" points="-4,5 -4,-90 213,-90 213,5 -4,5"/>
<!-- Node1 -->
<g id="node1" class="node"><title>Node1</title>
<polygon fill="#bfbfbf" stroke="black" points="0.5,-32.5 0.5,-53.5 65.5,-53.5 65.5,-32.5 0.5,-32.5"/>
<text text-anchor="middle" x="33" y="-40.5" font-family="Helvetica,sans-Serif" font-size="10.00">getPosition</text>
</g>
<!-- Node2 -->
<g id="node3" class="node"><title>Node2</title>
<a xlink:href="../../da/d96/classproject_1_1_b_i___footprint.html#a02fd73d861ef2e4aabb38c0c9ff82947" target="_top" xlink:title="project::BI_Footprint\l::init">
<polygon fill="white" stroke="black" points="102.5,-52 102.5,-86 207.5,-86 207.5,-52 102.5,-52"/>
<text text-anchor="start" x="110.5" y="-73" font-family="Helvetica,sans-Serif" font-size="10.00">project::BI_Footprint</text>
<text text-anchor="middle" x="155" y="-60" font-family="Helvetica,sans-Serif" font-size="10.00">::init</text>
</a>
</g>
<!-- Node1&#45;&gt;Node2 -->
<g id="edge2" class="edge"><title>Node1&#45;&gt;Node2</title>
<path fill="none" stroke="midnightblue" d="M75.5693,-52.0721C84.2368,-53.9193 93.4522,-55.8833 102.42,-57.7945"/>
<polygon fill="midnightblue" stroke="midnightblue" points="76.2037,-48.6288 65.6938,-49.9675 74.7446,-55.4751 76.2037,-48.6288"/>
</g>
<!-- Node3 -->
<g id="node5" class="node"><title>Node3</title>
<a xlink:href="../../da/d96/classproject_1_1_b_i___footprint.html#a5286d941e95a9eb4ca9aff66c02b25fe" target="_top" xlink:title="project::BI_Footprint\l::getPosition">
<polygon fill="white" stroke="black" points="102.5,-0 102.5,-34 207.5,-34 207.5,-0 102.5,-0"/>
<text text-anchor="start" x="110.5" y="-21" font-family="Helvetica,sans-Serif" font-size="10.00">project::BI_Footprint</text>
<text text-anchor="middle" x="155" y="-8" font-family="Helvetica,sans-Serif" font-size="10.00">::getPosition</text>
</a>
</g>
<!-- Node1&#45;&gt;Node3 -->
<g id="edge4" class="edge"><title>Node1&#45;&gt;Node3</title>
<path fill="none" stroke="midnightblue" d="M75.5693,-33.9279C84.2368,-32.0807 93.4522,-30.1167 102.42,-28.2055"/>
<polygon fill="midnightblue" stroke="midnightblue" points="74.7446,-30.5249 65.6938,-36.0325 76.2037,-37.3712 74.7446,-30.5249"/>
</g>
</g>
</svg>
