<?xml version="1.0" encoding="UTF-8" standalone="no"?>
<!DOCTYPE svg PUBLIC "-//W3C//DTD SVG 1.1//EN"
 "http://www.w3.org/Graphics/SVG/1.1/DTD/svg11.dtd">
<!-- Generated by graphviz version 2.26.3 (20100126.1600)
 -->
<!-- Title: getStartPoint Pages: 1 -->
<svg width="546pt" height="215pt"
 viewBox="0.00 0.00 546.00 215.00" xmlns="http://www.w3.org/2000/svg" xmlns:xlink="http://www.w3.org/1999/xlink">
<g id="graph1" class="graph" transform="scale(1 1) rotate(0) translate(4 211)">
<title>getStartPoint</title>
<polygon fill="white" stroke="white" points="-4,5 -4,-211 543,-211 543,5 -4,5"/>
<!-- Node1 -->
<g id="node1" class="node"><title>Node1</title>
<polygon fill="#bfbfbf" stroke="black" points="0,-84.5 0,-105.5 74,-105.5 74,-84.5 0,-84.5"/>
<text text-anchor="middle" x="37" y="-92.5" font-family="Helvetica,sans-Serif" font-size="10.00">getStartPoint</text>
</g>
<!-- Node2 -->
<g id="node3" class="node"><title>Node2</title>
<a xlink:href="../../df/dd1/classproject_1_1_s_g_i___net_line.html#abbb5db1b700a86caa85ff4c0c13142f2" target="_top" xlink:title="project::SGI_NetLine\l::updateCacheAndRepaint">
<polygon fill="white" stroke="black" points="110.5,-156 110.5,-190 241.5,-190 241.5,-156 110.5,-156"/>
<text text-anchor="start" x="118.5" y="-177" font-family="Helvetica,sans-Serif" font-size="10.00">project::SGI_NetLine</text>
<text text-anchor="middle" x="176" y="-164" font-family="Helvetica,sans-Serif" font-size="10.00">::updateCacheAndRepaint</text>
</a>
</g>
<!-- Node1&#45;&gt;Node2 -->
<g id="edge2" class="edge"><title>Node1&#45;&gt;Node2</title>
<path fill="none" stroke="midnightblue" d="M57.88,-111.959C72.013,-122.902 91.4251,-136.922 110,-147 115.845,-150.171 122.161,-153.162 128.489,-155.906"/>
<polygon fill="midnightblue" stroke="midnightblue" points="59.8378,-109.045 49.817,-105.605 55.5054,-114.544 59.8378,-109.045"/>
</g>
<!-- Node6 -->
<g id="node11" class="node"><title>Node6</title>
<a xlink:href="../../dd/d2d/classproject_1_1_schematic.html#a3102ea04118cf756a10705c6d3b607ab" target="_top" xlink:title="project::Schematic\l::getSelectedItems">
<polygon fill="white" stroke="black" points="126.5,-104 126.5,-138 225.5,-138 225.5,-104 126.5,-104"/>
<text text-anchor="start" x="134.5" y="-125" font-family="Helvetica,sans-Serif" font-size="10.00">project::Schematic</text>
<text text-anchor="middle" x="176" y="-112" font-family="Helvetica,sans-Serif" font-size="10.00">::getSelectedItems</text>
</a>
</g>
<!-- Node1&#45;&gt;Node6 -->
<g id="edge10" class="edge"><title>Node1&#45;&gt;Node6</title>
<path fill="none" stroke="midnightblue" d="M84.3247,-103.852C97.8716,-106.386 112.674,-109.155 126.356,-111.714"/>
<polygon fill="midnightblue" stroke="midnightblue" points="84.7225,-100.366 74.2494,-101.968 83.4354,-107.247 84.7225,-100.366"/>
</g>
<!-- Node9 -->
<g id="node17" class="node"><title>Node9</title>
<a xlink:href="../../df/d64/classproject_1_1_s_e_s___draw_wire.html#ac0d67255f68a55c37b5a1e2a661ab69c" target="_top" xlink:title="project::SES_DrawWire\l::startPositioning">
<polygon fill="white" stroke="black" points="115.5,-52 115.5,-86 236.5,-86 236.5,-52 115.5,-52"/>
<text text-anchor="start" x="123.5" y="-73" font-family="Helvetica,sans-Serif" font-size="10.00">project::SES_DrawWire</text>
<text text-anchor="middle" x="176" y="-60" font-family="Helvetica,sans-Serif" font-size="10.00">::startPositioning</text>
</a>
</g>
<!-- Node1&#45;&gt;Node9 -->
<g id="edge16" class="edge"><title>Node1&#45;&gt;Node9</title>
<path fill="none" stroke="midnightblue" d="M84.3387,-86.1453C94.2937,-84.2832 104.926,-82.2944 115.293,-80.3552"/>
<polygon fill="midnightblue" stroke="midnightblue" points="83.4354,-82.7534 74.2494,-88.0325 84.7225,-89.6341 83.4354,-82.7534"/>
</g>
<!-- Node10 -->
<g id="node19" class="node"><title>Node10</title>
<a xlink:href="../../df/d64/classproject_1_1_s_e_s___draw_wire.html#a72ccca96a5dabd93710518c9d18b93a1" target="_top" xlink:title="project::SES_DrawWire\l::addNextNetPoint">
<polygon fill="white" stroke="black" points="115.5,-0 115.5,-34 236.5,-34 236.5,-0 115.5,-0"/>
<text text-anchor="start" x="123.5" y="-21" font-family="Helvetica,sans-Serif" font-size="10.00">project::SES_DrawWire</text>
<text text-anchor="middle" x="176" y="-8" font-family="Helvetica,sans-Serif" font-size="10.00">::addNextNetPoint</text>
</a>
</g>
<!-- Node1&#45;&gt;Node10 -->
<g id="edge18" class="edge"><title>Node1&#45;&gt;Node10</title>
<path fill="none" stroke="midnightblue" d="M57.88,-78.0414C72.013,-67.0982 91.4251,-53.078 110,-43 115.845,-39.8285 122.161,-36.8382 128.489,-34.0936"/>
<polygon fill="midnightblue" stroke="midnightblue" points="55.5054,-75.4564 49.817,-84.3947 59.8378,-80.9546 55.5054,-75.4564"/>
</g>
<!-- Node3 -->
<g id="node5" class="node"><title>Node3</title>
<a xlink:href="../../d3/d7c/classproject_1_1_s_i___net_line.html#a47af38f5c88a1613e220affee2fd2203" target="_top" xlink:title="updateLine">
<polygon fill="white" stroke="black" points="305,-162.5 305,-183.5 369,-183.5 369,-162.5 305,-162.5"/>
<text text-anchor="middle" x="337" y="-170.5" font-family="Helvetica,sans-Serif" font-size="10.00">updateLine</text>
</a>
</g>
<!-- Node2&#45;&gt;Node3 -->
<g id="edge4" class="edge"><title>Node2&#45;&gt;Node3</title>
<path fill="none" stroke="midnightblue" d="M251.95,-173C270.6,-173 289.577,-173 304.859,-173"/>
<polygon fill="midnightblue" stroke="midnightblue" points="251.949,-169.5 241.949,-173 251.949,-176.5 251.949,-169.5"/>
</g>
<!-- Node4 -->
<g id="node7" class="node"><title>Node4</title>
<a xlink:href="../../d3/d7c/classproject_1_1_s_i___net_line.html#a02fd73d861ef2e4aabb38c0c9ff82947" target="_top" xlink:title="init">
<polygon fill="white" stroke="black" points="470.5,-185.5 470.5,-206.5 499.5,-206.5 499.5,-185.5 470.5,-185.5"/>
<text text-anchor="middle" x="485" y="-193.5" font-family="Helvetica,sans-Serif" font-size="10.00">init</text>
</a>
</g>
<!-- Node3&#45;&gt;Node4 -->
<g id="edge6" class="edge"><title>Node3&#45;&gt;Node4</title>
<path fill="none" stroke="midnightblue" d="M379.124,-179.546C409.779,-184.31 449.456,-190.476 470.461,-193.741"/>
<polygon fill="midnightblue" stroke="midnightblue" points="379.533,-176.068 369.114,-177.991 378.458,-182.985 379.533,-176.068"/>
</g>
<!-- Node5 -->
<g id="node9" class="node"><title>Node5</title>
<a xlink:href="../../d3/d43/classproject_1_1_s_i___net_point.html#adc3ecff9d47a4b35383fb20ac506ea32" target="_top" xlink:title="project::SI_NetPoint\l::updateLines">
<polygon fill="white" stroke="black" points="432.5,-133 432.5,-167 537.5,-167 537.5,-133 432.5,-133"/>
<text text-anchor="start" x="440.5" y="-154" font-family="Helvetica,sans-Serif" font-size="10.00">project::SI_NetPoint</text>
<text text-anchor="middle" x="485" y="-141" font-family="Helvetica,sans-Serif" font-size="10.00">::updateLines</text>
</a>
</g>
<!-- Node3&#45;&gt;Node5 -->
<g id="edge8" class="edge"><title>Node3&#45;&gt;Node5</title>
<path fill="none" stroke="midnightblue" d="M379.046,-166.466C395.609,-163.892 414.816,-160.907 432.292,-158.191"/>
<polygon fill="midnightblue" stroke="midnightblue" points="378.458,-163.015 369.114,-168.009 379.533,-169.932 378.458,-163.015"/>
</g>
<!-- Node7 -->
<g id="node13" class="node"><title>Node7</title>
<a xlink:href="../../d8/d8b/classproject_1_1_s_e_s___select.html#a1f262c8e6a4c3d45093729fa34ec01e8" target="_top" xlink:title="project::SES_Select\l::rotateSelectedItems">
<polygon fill="white" stroke="black" points="282,-107 282,-141 392,-141 392,-107 282,-107"/>
<text text-anchor="start" x="290" y="-128" font-family="Helvetica,sans-Serif" font-size="10.00">project::SES_Select</text>
<text text-anchor="middle" x="337" y="-115" font-family="Helvetica,sans-Serif" font-size="10.00">::rotateSelectedItems</text>
</a>
</g>
<!-- Node6&#45;&gt;Node7 -->
<g id="edge12" class="edge"><title>Node6&#45;&gt;Node7</title>
<path fill="none" stroke="midnightblue" d="M235.872,-122.116C250.963,-122.397 267.091,-122.697 281.933,-122.974"/>
<polygon fill="midnightblue" stroke="midnightblue" points="235.683,-118.612 225.619,-121.925 235.552,-125.61 235.683,-118.612"/>
</g>
<!-- Node8 -->
<g id="node15" class="node"><title>Node8</title>
<a xlink:href="../../d8/d8b/classproject_1_1_s_e_s___select.html#a75183dd285ebb13d41213f4dfe420907" target="_top" xlink:title="project::SES_Select\l::removeSelectedItems">
<polygon fill="white" stroke="black" points="278,-55 278,-89 396,-89 396,-55 278,-55"/>
<text text-anchor="start" x="286" y="-76" font-family="Helvetica,sans-Serif" font-size="10.00">project::SES_Select</text>
<text text-anchor="middle" x="337" y="-63" font-family="Helvetica,sans-Serif" font-size="10.00">::removeSelectedItems</text>
</a>
</g>
<!-- Node6&#45;&gt;Node8 -->
<g id="edge14" class="edge"><title>Node6&#45;&gt;Node8</title>
<path fill="none" stroke="midnightblue" d="M235.282,-102.958C250.254,-98.401 266.28,-93.5235 281.08,-89.0191"/>
<polygon fill="midnightblue" stroke="midnightblue" points="234.167,-99.6385 225.619,-105.899 236.205,-106.335 234.167,-99.6385"/>
</g>
</g>
</svg>
