<?xml version="1.0" encoding="UTF-8" standalone="no"?>
<!DOCTYPE svg PUBLIC "-//W3C//DTD SVG 1.1//EN"
 "http://www.w3.org/Graphics/SVG/1.1/DTD/svg11.dtd">
<!-- Generated by graphviz version 2.26.3 (20100126.1600)
 -->
<!-- Title: data Pages: 1 -->
<svg width="214pt" height="82pt"
 viewBox="0.00 0.00 214.00 82.00" xmlns="http://www.w3.org/2000/svg" xmlns:xlink="http://www.w3.org/1999/xlink">
<g id="graph1" class="graph" transform="scale(1 1) rotate(0) translate(4 78)">
<title>data</title>
<polygon fill="white" stroke="white" points="-4,5 -4,-78 211,-78 211,5 -4,5"/>
<!-- Node1 -->
<g id="node1" class="node"><title>Node1</title>
<polygon fill="#bfbfbf" stroke="black" points="0.5,-29.5 0.5,-50.5 35.5,-50.5 35.5,-29.5 0.5,-29.5"/>
<text text-anchor="middle" x="18" y="-37.5" font-family="Helvetica,sans-Serif" font-size="10.00">data</text>
</g>
<!-- Node2 -->
<g id="node3" class="node"><title>Node2</title>
<a xlink:href="../../dd/df7/classlibrary_1_1_category_tree_item.html#a708287c31e500ae096c594af9d5fbb6d" target="_top" xlink:title="CategoryTreeItem">
<polygon fill="white" stroke="black" points="91.5,-52.5 91.5,-73.5 186.5,-73.5 186.5,-52.5 91.5,-52.5"/>
<text text-anchor="middle" x="139" y="-60.5" font-family="Helvetica,sans-Serif" font-size="10.00">CategoryTreeItem</text>
</a>
</g>
<!-- Node1&#45;&gt;Node2 -->
<g id="edge2" class="edge"><title>Node1&#45;&gt;Node2</title>
<path fill="none" stroke="midnightblue" d="M45.6805,-45.2616C59.1975,-47.8309 75.8488,-50.9961 91.3262,-53.938"/>
<polygon fill="midnightblue" stroke="midnightblue" points="46.0722,-41.7734 35.5944,-43.3444 44.7649,-48.6503 46.0722,-41.7734"/>
</g>
<!-- Node3 -->
<g id="node5" class="node"><title>Node3</title>
<a xlink:href="../../d2/d71/classlibrary_1_1_category_tree_model.html#a0d62b2fa860a10b1e59f7b93aa39aa5e" target="_top" xlink:title="library::CategoryTreeModel\l::data">
<polygon fill="white" stroke="black" points="72,-0 72,-34 206,-34 206,-0 72,-0"/>
<text text-anchor="start" x="80" y="-21" font-family="Helvetica,sans-Serif" font-size="10.00">library::CategoryTreeModel</text>
<text text-anchor="middle" x="139" y="-8" font-family="Helvetica,sans-Serif" font-size="10.00">::data</text>
</a>
</g>
<!-- Node1&#45;&gt;Node3 -->
<g id="edge4" class="edge"><title>Node1&#45;&gt;Node3</title>
<path fill="none" stroke="midnightblue" d="M45.6427,-34.7456C53.5612,-33.2404 62.5576,-31.5304 71.7646,-29.7803"/>
<polygon fill="midnightblue" stroke="midnightblue" points="44.7649,-31.3497 35.5944,-36.6556 46.0722,-38.2266 44.7649,-31.3497"/>
</g>
</g>
</svg>
