<?xml version="1.0" encoding="UTF-8" standalone="no"?>
<!DOCTYPE svg PUBLIC "-//W3C//DTD SVG 1.1//EN"
 "http://www.w3.org/Graphics/SVG/1.1/DTD/svg11.dtd">
<!-- Generated by graphviz version 2.26.3 (20100126.1600)
 -->
<!-- Title: getDebugMsg Pages: 1 -->
<svg width="228pt" height="94pt"
 viewBox="0.00 0.00 228.00 94.00" xmlns="http://www.w3.org/2000/svg" xmlns:xlink="http://www.w3.org/1999/xlink">
<g id="graph1" class="graph" transform="scale(1 1) rotate(0) translate(4 90)">
<title>getDebugMsg</title>
<polygon fill="white" stroke="white" points="-4,5 -4,-90 225,-90 225,5 -4,5"/>
<!-- Node1 -->
<g id="node1" class="node"><title>Node1</title>
<polygon fill="#bfbfbf" stroke="black" points="0.5,-32.5 0.5,-53.5 77.5,-53.5 77.5,-32.5 0.5,-32.5"/>
<text text-anchor="middle" x="39" y="-40.5" font-family="Helvetica,sans-Serif" font-size="10.00">getDebugMsg</text>
</g>
<!-- Node2 -->
<g id="node3" class="node"><title>Node2</title>
<a xlink:href="../../db/dd3/classproject_1_1_b_e_s___select.html#a93d0acf58f5327a1a8b6619b511791b4" target="_top" xlink:title="project::BES_Select\l::~BES_Select">
<polygon fill="white" stroke="black" points="114.5,-52 114.5,-86 219.5,-86 219.5,-52 114.5,-52"/>
<text text-anchor="start" x="122.5" y="-73" font-family="Helvetica,sans-Serif" font-size="10.00">project::BES_Select</text>
<text text-anchor="middle" x="167" y="-60" font-family="Helvetica,sans-Serif" font-size="10.00">::~BES_Select</text>
</a>
</g>
<!-- Node1&#45;&gt;Node2 -->
<g id="edge2" class="edge"><title>Node1&#45;&gt;Node2</title>
<path fill="none" stroke="midnightblue" d="M87.7018,-52.8925C96.3685,-54.653 105.433,-56.4942 114.207,-58.2765"/>
<polygon fill="midnightblue" stroke="midnightblue" points="88.2482,-49.4321 77.7516,-50.8714 86.8547,-56.292 88.2482,-49.4321"/>
</g>
<!-- Node3 -->
<g id="node5" class="node"><title>Node3</title>
<a xlink:href="../../d8/d8b/classproject_1_1_s_e_s___select.html#a6470fb42c2c92305bbce028b617217f1" target="_top" xlink:title="project::SES_Select\l::~SES_Select">
<polygon fill="white" stroke="black" points="114.5,-0 114.5,-34 219.5,-34 219.5,-0 114.5,-0"/>
<text text-anchor="start" x="122.5" y="-21" font-family="Helvetica,sans-Serif" font-size="10.00">project::SES_Select</text>
<text text-anchor="middle" x="167" y="-8" font-family="Helvetica,sans-Serif" font-size="10.00">::~SES_Select</text>
</a>
</g>
<!-- Node1&#45;&gt;Node3 -->
<g id="edge4" class="edge"><title>Node1&#45;&gt;Node3</title>
<path fill="none" stroke="midnightblue" d="M87.7018,-33.1075C96.3685,-31.347 105.433,-29.5058 114.207,-27.7235"/>
<polygon fill="midnightblue" stroke="midnightblue" points="86.8547,-29.708 77.7516,-35.1286 88.2482,-36.5679 86.8547,-29.708"/>
</g>
</g>
</svg>
