<?xml version="1.0" encoding="UTF-8" standalone="no"?>
<!DOCTYPE svg PUBLIC "-//W3C//DTD SVG 1.1//EN"
 "http://www.w3.org/Graphics/SVG/1.1/DTD/svg11.dtd">
<!-- Generated by graphviz version 2.26.3 (20100126.1600)
 -->
<!-- Title: getPads Pages: 1 -->
<svg width="434pt" height="212pt"
 viewBox="0.00 0.00 434.00 212.00" xmlns="http://www.w3.org/2000/svg" xmlns:xlink="http://www.w3.org/1999/xlink">
<g id="graph1" class="graph" transform="scale(1 1) rotate(0) translate(4 208)">
<title>getPads</title>
<polygon fill="white" stroke="white" points="-4,5 -4,-208 431,-208 431,5 -4,5"/>
<!-- Node1 -->
<g id="node1" class="node"><title>Node1</title>
<polygon fill="#bfbfbf" stroke="black" points="0.5,-68.5 0.5,-89.5 53.5,-89.5 53.5,-68.5 0.5,-68.5"/>
<text text-anchor="middle" x="27" y="-76.5" font-family="Helvetica,sans-Serif" font-size="10.00">getPads</text>
</g>
<!-- Node2 -->
<g id="node3" class="node"><title>Node2</title>
<a xlink:href="../../d5/d07/classproject_1_1_board.html#a75bfc0b788d0cc0eb348c012e0e39206" target="_top" xlink:title="project::Board::getSelected\lItems">
<polygon fill="white" stroke="black" points="101.5,-116 101.5,-150 236.5,-150 236.5,-116 101.5,-116"/>
<text text-anchor="start" x="109.5" y="-137" font-family="Helvetica,sans-Serif" font-size="10.00">project::Board::getSelected</text>
<text text-anchor="middle" x="169" y="-124" font-family="Helvetica,sans-Serif" font-size="10.00">Items</text>
</a>
</g>
<!-- Node1&#45;&gt;Node2 -->
<g id="edge2" class="edge"><title>Node1&#45;&gt;Node2</title>
<path fill="none" stroke="midnightblue" d="M61.0898,-93.4386C70.4248,-97.2912 80.5699,-101.386 90,-105 99.5112,-108.645 109.728,-112.391 119.553,-115.909"/>
<polygon fill="midnightblue" stroke="midnightblue" points="62.2963,-90.1498 51.719,-89.5416 59.6084,-96.6132 62.2963,-90.1498"/>
</g>
<!-- Node6 -->
<g id="node11" class="node"><title>Node6</title>
<a xlink:href="../../d5/d07/classproject_1_1_board.html#ae5be3f46f5e311d7c5c3b950ce60e3b1" target="_top" xlink:title="project::Board::getItems\lAtScenePos">
<polygon fill="white" stroke="black" points="108,-62 108,-96 230,-96 230,-62 108,-62"/>
<text text-anchor="start" x="116" y="-83" font-family="Helvetica,sans-Serif" font-size="10.00">project::Board::getItems</text>
<text text-anchor="middle" x="169" y="-70" font-family="Helvetica,sans-Serif" font-size="10.00">AtScenePos</text>
</a>
</g>
<!-- Node1&#45;&gt;Node6 -->
<g id="edge10" class="edge"><title>Node1&#45;&gt;Node6</title>
<path fill="none" stroke="midnightblue" d="M63.9808,-79C77.4233,-79 92.9964,-79 107.966,-79"/>
<polygon fill="midnightblue" stroke="midnightblue" points="63.7091,-75.5001 53.7091,-79 63.7091,-82.5001 63.7091,-75.5001"/>
</g>
<!-- Node7 -->
<g id="node13" class="node"><title>Node7</title>
<a xlink:href="../../d5/d07/classproject_1_1_board.html#a1e81bd3e07987e2b02f760b3d6d75c21" target="_top" xlink:title="project::Board::setSelectionRect">
<polygon fill="white" stroke="black" points="90,-19.5 90,-40.5 248,-40.5 248,-19.5 90,-19.5"/>
<text text-anchor="middle" x="169" y="-27.5" font-family="Helvetica,sans-Serif" font-size="10.00">project::Board::setSelectionRect</text>
</a>
</g>
<!-- Node1&#45;&gt;Node7 -->
<g id="edge12" class="edge"><title>Node1&#45;&gt;Node7</title>
<path fill="none" stroke="midnightblue" d="M60.4707,-64.4001C69.9377,-60.4861 80.3044,-56.4009 90,-53 102.806,-48.5083 116.986,-44.1829 129.758,-40.519"/>
<polygon fill="midnightblue" stroke="midnightblue" points="58.8599,-61.2804 50.9966,-68.3811 61.5717,-67.7339 58.8599,-61.2804"/>
</g>
<!-- Node3 -->
<g id="node5" class="node"><title>Node3</title>
<a xlink:href="../../db/dd3/classproject_1_1_b_e_s___select.html#a1f262c8e6a4c3d45093729fa34ec01e8" target="_top" xlink:title="project::BES_Select\l::rotateSelectedItems">
<polygon fill="white" stroke="black" points="300,-170 300,-204 410,-204 410,-170 300,-170"/>
<text text-anchor="start" x="308" y="-191" font-family="Helvetica,sans-Serif" font-size="10.00">project::BES_Select</text>
<text text-anchor="middle" x="355" y="-178" font-family="Helvetica,sans-Serif" font-size="10.00">::rotateSelectedItems</text>
</a>
</g>
<!-- Node2&#45;&gt;Node3 -->
<g id="edge4" class="edge"><title>Node2&#45;&gt;Node3</title>
<path fill="none" stroke="midnightblue" d="M237.241,-152.812C257.856,-158.797 280.221,-165.29 299.867,-170.994"/>
<polygon fill="midnightblue" stroke="midnightblue" points="238.176,-149.439 227.596,-150.012 236.224,-156.161 238.176,-149.439"/>
</g>
<!-- Node4 -->
<g id="node7" class="node"><title>Node4</title>
<a xlink:href="../../db/dd3/classproject_1_1_b_e_s___select.html#a4f8e8c70feead094c696afcd912fc26a" target="_top" xlink:title="project::BES_Select\l::flipSelectedItems">
<polygon fill="white" stroke="black" points="302.5,-118 302.5,-152 407.5,-152 407.5,-118 302.5,-118"/>
<text text-anchor="start" x="310.5" y="-139" font-family="Helvetica,sans-Serif" font-size="10.00">project::BES_Select</text>
<text text-anchor="middle" x="355" y="-126" font-family="Helvetica,sans-Serif" font-size="10.00">::flipSelectedItems</text>
</a>
</g>
<!-- Node2&#45;&gt;Node4 -->
<g id="edge6" class="edge"><title>Node2&#45;&gt;Node4</title>
<path fill="none" stroke="midnightblue" d="M246.929,-133.838C265.572,-134.038 285.045,-134.248 302.244,-134.433"/>
<polygon fill="midnightblue" stroke="midnightblue" points="246.714,-130.336 236.676,-133.728 246.638,-137.335 246.714,-130.336"/>
</g>
<!-- Node5 -->
<g id="node9" class="node"><title>Node5</title>
<a xlink:href="../../db/dd3/classproject_1_1_b_e_s___select.html#a75183dd285ebb13d41213f4dfe420907" target="_top" xlink:title="project::BES_Select\l::removeSelectedItems">
<polygon fill="white" stroke="black" points="296,-66 296,-100 414,-100 414,-66 296,-66"/>
<text text-anchor="start" x="304" y="-87" font-family="Helvetica,sans-Serif" font-size="10.00">project::BES_Select</text>
<text text-anchor="middle" x="355" y="-74" font-family="Helvetica,sans-Serif" font-size="10.00">::removeSelectedItems</text>
</a>
</g>
<!-- Node2&#45;&gt;Node5 -->
<g id="edge8" class="edge"><title>Node2&#45;&gt;Node5</title>
<path fill="none" stroke="midnightblue" d="M242.249,-113.309C260.033,-108.529 278.828,-103.476 295.866,-98.8963"/>
<polygon fill="midnightblue" stroke="midnightblue" points="241.239,-109.957 232.49,-115.933 243.056,-116.717 241.239,-109.957"/>
</g>
<!-- Node8 -->
<g id="node15" class="node"><title>Node8</title>
<a xlink:href="../../db/dd3/classproject_1_1_b_e_s___select.html#ab12d84cb06f265f00f6130fc5e801000" target="_top" xlink:title="project::BES_Select\l::processSubStateIdleScene\lEvent">
<polygon fill="white" stroke="black" points="284.5,-0.5 284.5,-47.5 425.5,-47.5 425.5,-0.5 284.5,-0.5"/>
<text text-anchor="start" x="292.5" y="-34.5" font-family="Helvetica,sans-Serif" font-size="10.00">project::BES_Select</text>
<text text-anchor="start" x="292.5" y="-21.5" font-family="Helvetica,sans-Serif" font-size="10.00">::processSubStateIdleScene</text>
<text text-anchor="middle" x="355" y="-8.5" font-family="Helvetica,sans-Serif" font-size="10.00">Event</text>
</a>
</g>
<!-- Node7&#45;&gt;Node8 -->
<g id="edge14" class="edge"><title>Node7&#45;&gt;Node8</title>
<path fill="none" stroke="midnightblue" d="M258.385,-27.1166C267.137,-26.8343 275.93,-26.5506 284.457,-26.2756"/>
<polygon fill="midnightblue" stroke="midnightblue" points="258.032,-23.6261 248.15,-27.4468 258.258,-30.6224 258.032,-23.6261"/>
</g>
</g>
</svg>
