<?xml version="1.0" encoding="UTF-8" standalone="no"?>
<!DOCTYPE svg PUBLIC "-//W3C//DTD SVG 1.1//EN"
 "http://www.w3.org/Graphics/SVG/1.1/DTD/svg11.dtd">
<!-- Generated by graphviz version 2.26.3 (20100126.1600)
 -->
<!-- Title: getRotation Pages: 1 -->
<svg width="658pt" height="214pt"
 viewBox="0.00 0.00 658.00 214.00" xmlns="http://www.w3.org/2000/svg" xmlns:xlink="http://www.w3.org/1999/xlink">
<g id="graph1" class="graph" transform="scale(1 1) rotate(0) translate(4 210)">
<title>getRotation</title>
<polygon fill="white" stroke="white" points="-4,5 -4,-210 655,-210 655,5 -4,5"/>
<!-- Node1 -->
<g id="node1" class="node"><title>Node1</title>
<polygon fill="#bfbfbf" stroke="black" points="0.5,-73.5 0.5,-94.5 67.5,-94.5 67.5,-73.5 0.5,-73.5"/>
<text text-anchor="middle" x="34" y="-81.5" font-family="Helvetica,sans-Serif" font-size="10.00">getRotation</text>
</g>
<!-- Node2 -->
<g id="node3" class="node"><title>Node2</title>
<a xlink:href="../../dc/d87/classproject_1_1_b_g_i___footprint.html#abbb5db1b700a86caa85ff4c0c13142f2" target="_top" xlink:title="project::BGI_Footprint\l::updateCacheAndRepaint">
<polygon fill="white" stroke="black" points="272.5,-112 272.5,-146 403.5,-146 403.5,-112 272.5,-112"/>
<text text-anchor="start" x="280.5" y="-133" font-family="Helvetica,sans-Serif" font-size="10.00">project::BGI_Footprint</text>
<text text-anchor="middle" x="338" y="-120" font-family="Helvetica,sans-Serif" font-size="10.00">::updateCacheAndRepaint</text>
</a>
</g>
<!-- Node1&#45;&gt;Node2 -->
<g id="edge2" class="edge"><title>Node1&#45;&gt;Node2</title>
<path fill="none" stroke="midnightblue" d="M67.0987,-98.4165C78.5786,-102.843 91.6661,-107.264 104,-110 160.006,-122.426 225.162,-126.931 272.477,-128.47"/>
<polygon fill="midnightblue" stroke="midnightblue" points="68.068,-95.0345 57.4834,-94.5676 65.4665,-101.533 68.068,-95.0345"/>
</g>
<!-- Node8 -->
<g id="node18" class="node"><title>Node8</title>
<a xlink:href="../../d9/d13/classproject_1_1_b_g_i___footprint_pad.html#abbb5db1b700a86caa85ff4c0c13142f2" target="_top" xlink:title="project::BGI_FootprintPad\l::updateCacheAndRepaint">
<polygon fill="white" stroke="black" points="104.5,-67 104.5,-101 235.5,-101 235.5,-67 104.5,-67"/>
<text text-anchor="start" x="112.5" y="-88" font-family="Helvetica,sans-Serif" font-size="10.00">project::BGI_FootprintPad</text>
<text text-anchor="middle" x="170" y="-75" font-family="Helvetica,sans-Serif" font-size="10.00">::updateCacheAndRepaint</text>
</a>
</g>
<!-- Node1&#45;&gt;Node8 -->
<g id="edge20" class="edge"><title>Node1&#45;&gt;Node8</title>
<path fill="none" stroke="midnightblue" d="M77.6819,-84C86.2067,-84 95.3188,-84 104.375,-84"/>
<polygon fill="midnightblue" stroke="midnightblue" points="77.618,-80.5001 67.618,-84 77.618,-87.5001 77.618,-80.5001"/>
</g>
<!-- Node9 -->
<g id="node20" class="node"><title>Node9</title>
<a xlink:href="../../d4/ddd/classproject_1_1_b_i___footprint_pad.html#a212e36e19edc323ddeb73387d2f011a5" target="_top" xlink:title="project::BI_FootprintPad\l::updatePosition">
<polygon fill="white" stroke="black" points="277,-53 277,-87 399,-87 399,-53 277,-53"/>
<text text-anchor="start" x="285" y="-74" font-family="Helvetica,sans-Serif" font-size="10.00">project::BI_FootprintPad</text>
<text text-anchor="middle" x="338" y="-61" font-family="Helvetica,sans-Serif" font-size="10.00">::updatePosition</text>
</a>
</g>
<!-- Node1&#45;&gt;Node9 -->
<g id="edge32" class="edge"><title>Node1&#45;&gt;Node9</title>
<path fill="none" stroke="midnightblue" d="M65.5406,-69.5724C77.3469,-64.9022 91.0411,-60.3289 104,-58 162.054,-47.5668 229.414,-52.8023 276.914,-59.3039"/>
<polygon fill="midnightblue" stroke="midnightblue" points="64.0252,-66.4117 56.1249,-73.4711 66.7032,-72.8792 64.0252,-66.4117"/>
</g>
<!-- Node3 -->
<g id="node5" class="node"><title>Node3</title>
<a xlink:href="../../da/d96/classproject_1_1_b_i___footprint.html#a80db668afe30ac6b6c9e5eb061b61cfc" target="_top" xlink:title="componentInstanceAttributes\lChanged">
<polygon fill="white" stroke="black" points="440,-172 440,-206 584,-206 584,-172 440,-172"/>
<text text-anchor="start" x="448" y="-193" font-family="Helvetica,sans-Serif" font-size="10.00">componentInstanceAttributes</text>
<text text-anchor="middle" x="512" y="-180" font-family="Helvetica,sans-Serif" font-size="10.00">Changed</text>
</a>
</g>
<!-- Node2&#45;&gt;Node3 -->
<g id="edge4" class="edge"><title>Node2&#45;&gt;Node3</title>
<path fill="none" stroke="midnightblue" d="M396.982,-149.339C418.277,-156.682 442.079,-164.889 462.48,-171.924"/>
<polygon fill="midnightblue" stroke="midnightblue" points="397.991,-145.984 387.396,-146.033 395.709,-152.602 397.991,-145.984"/>
</g>
<!-- Node5 -->
<g id="node9" class="node"><title>Node5</title>
<a xlink:href="../../da/d96/classproject_1_1_b_i___footprint.html#a271c63e12acd19bccc27bf6861938df2" target="_top" xlink:title="componentInstanceMoved">
<polygon fill="white" stroke="black" points="446.5,-132.5 446.5,-153.5 577.5,-153.5 577.5,-132.5 446.5,-132.5"/>
<text text-anchor="middle" x="512" y="-140.5" font-family="Helvetica,sans-Serif" font-size="10.00">componentInstanceMoved</text>
</a>
</g>
<!-- Node2&#45;&gt;Node5 -->
<g id="edge8" class="edge"><title>Node2&#45;&gt;Node5</title>
<path fill="none" stroke="midnightblue" d="M414.035,-135.118C424.825,-135.986 435.844,-136.873 446.414,-137.723"/>
<polygon fill="midnightblue" stroke="midnightblue" points="414.03,-131.606 403.782,-134.293 413.469,-138.584 414.03,-131.606"/>
</g>
<!-- Node6 -->
<g id="node12" class="node"><title>Node6</title>
<a xlink:href="../../da/d96/classproject_1_1_b_i___footprint.html#ab6c0fcabcb9d5a38a27ed7aeb34f0958" target="_top" xlink:title="componentInstanceRotated">
<polygon fill="white" stroke="black" points="443.5,-92.5 443.5,-113.5 580.5,-113.5 580.5,-92.5 443.5,-92.5"/>
<text text-anchor="middle" x="512" y="-100.5" font-family="Helvetica,sans-Serif" font-size="10.00">componentInstanceRotated</text>
</a>
</g>
<!-- Node2&#45;&gt;Node6 -->
<g id="edge12" class="edge"><title>Node2&#45;&gt;Node6</title>
<path fill="none" stroke="midnightblue" d="M413.867,-117.664C423.631,-116.205 433.585,-114.717 443.227,-113.276"/>
<polygon fill="midnightblue" stroke="midnightblue" points="413.155,-114.231 403.782,-119.171 414.189,-121.154 413.155,-114.231"/>
</g>
<!-- Node7 -->
<g id="node15" class="node"><title>Node7</title>
<a xlink:href="../../da/d96/classproject_1_1_b_i___footprint.html#ae00c60cb068f7bb3703a6c84450afeaf" target="_top" xlink:title="componentInstanceMirrored">
<polygon fill="white" stroke="black" points="443.5,-52.5 443.5,-73.5 580.5,-73.5 580.5,-52.5 443.5,-52.5"/>
<text text-anchor="middle" x="512" y="-60.5" font-family="Helvetica,sans-Serif" font-size="10.00">componentInstanceMirrored</text>
</a>
</g>
<!-- Node2&#45;&gt;Node7 -->
<g id="edge16" class="edge"><title>Node2&#45;&gt;Node7</title>
<path fill="none" stroke="midnightblue" d="M381.92,-107.42C399.7,-99.1535 420.581,-90.0293 440,-83 449.515,-79.5558 459.916,-76.3537 469.779,-73.5659"/>
<polygon fill="midnightblue" stroke="midnightblue" points="379.947,-104.48 372.39,-111.906 382.929,-110.814 379.947,-104.48"/>
</g>
<!-- Node4 -->
<g id="node7" class="node"><title>Node4</title>
<a xlink:href="../../da/d96/classproject_1_1_b_i___footprint.html#a02fd73d861ef2e4aabb38c0c9ff82947" target="_top" xlink:title="init">
<polygon fill="white" stroke="black" points="620.5,-112.5 620.5,-133.5 649.5,-133.5 649.5,-112.5 620.5,-112.5"/>
<text text-anchor="middle" x="635" y="-120.5" font-family="Helvetica,sans-Serif" font-size="10.00">init</text>
</a>
</g>
<!-- Node3&#45;&gt;Node4 -->
<g id="edge6" class="edge"><title>Node3&#45;&gt;Node4</title>
<path fill="none" stroke="midnightblue" d="M574.684,-167.766C577.879,-166.25 581.003,-164.66 584,-163 598.765,-154.822 613.737,-142.494 623.604,-133.688"/>
<polygon fill="midnightblue" stroke="midnightblue" points="573.249,-164.574 565.541,-171.842 576.1,-170.967 573.249,-164.574"/>
</g>
<!-- Node5&#45;&gt;Node4 -->
<g id="edge10" class="edge"><title>Node5&#45;&gt;Node4</title>
<path fill="none" stroke="midnightblue" d="M586.68,-130.857C599.523,-128.769 611.561,-126.811 620.409,-125.372"/>
<polygon fill="midnightblue" stroke="midnightblue" points="586.05,-127.413 576.742,-132.473 587.174,-134.322 586.05,-127.413"/>
</g>
<!-- Node6&#45;&gt;Node4 -->
<g id="edge14" class="edge"><title>Node6&#45;&gt;Node4</title>
<path fill="none" stroke="midnightblue" d="M586.68,-115.143C599.523,-117.231 611.561,-119.189 620.409,-120.628"/>
<polygon fill="midnightblue" stroke="midnightblue" points="587.174,-111.678 576.742,-113.527 586.05,-118.587 587.174,-111.678"/>
</g>
<!-- Node7&#45;&gt;Node4 -->
<g id="edge18" class="edge"><title>Node7&#45;&gt;Node4</title>
<path fill="none" stroke="midnightblue" d="M569.763,-76.8288C574.674,-78.6663 579.485,-80.7175 584,-83 599.265,-90.716 614.382,-103.371 624.146,-112.379"/>
<polygon fill="midnightblue" stroke="midnightblue" points="570.84,-73.4983 560.246,-73.5542 568.563,-80.1174 570.84,-73.4983"/>
</g>
<!-- Node8&#45;&gt;Node9 -->
<g id="edge22" class="edge"><title>Node8&#45;&gt;Node9</title>
<path fill="none" stroke="midnightblue" d="M246.15,-77.6541C256.461,-76.7949 266.931,-75.9224 276.931,-75.089"/>
<polygon fill="midnightblue" stroke="midnightblue" points="245.591,-74.1886 235.916,-78.507 246.172,-81.1644 245.591,-74.1886"/>
</g>
<!-- Node9&#45;&gt;Node5 -->
<g id="edge24" class="edge"><title>Node9&#45;&gt;Node5</title>
<path fill="none" stroke="midnightblue" d="M381.953,-91.6431C389.341,-95.3764 396.909,-99.2599 404,-103 420.189,-111.539 423.064,-116.058 440,-123 448.763,-126.592 458.383,-129.762 467.658,-132.458"/>
<polygon fill="midnightblue" stroke="midnightblue" points="383.248,-88.3767 372.741,-87.0167 380.106,-94.6323 383.248,-88.3767"/>
</g>
<!-- Node9&#45;&gt;Node6 -->
<g id="edge26" class="edge"><title>Node9&#45;&gt;Node6</title>
<path fill="none" stroke="midnightblue" d="M409.511,-83.5625C425.165,-86.5314 441.511,-89.6314 456.431,-92.4611"/>
<polygon fill="midnightblue" stroke="midnightblue" points="409.823,-80.0593 399.346,-81.6346 408.519,-86.9367 409.823,-80.0593"/>
</g>
<!-- Node9&#45;&gt;Node7 -->
<g id="edge28" class="edge"><title>Node9&#45;&gt;Node7</title>
<path fill="none" stroke="midnightblue" d="M409.464,-67.125C420.613,-66.6765 432.114,-66.2138 443.202,-65.7677"/>
<polygon fill="midnightblue" stroke="midnightblue" points="409.197,-63.6328 399.346,-67.5321 409.479,-70.6272 409.197,-63.6328"/>
</g>
<!-- Node10 -->
<g id="node25" class="node"><title>Node10</title>
<a xlink:href="../../d4/ddd/classproject_1_1_b_i___footprint_pad.html#ac81e6cd36593d731c5e2e23048ed6754" target="_top" xlink:title="project::BI_FootprintPad\l::BI_FootprintPad">
<polygon fill="white" stroke="black" points="451,-0 451,-34 573,-34 573,-0 451,-0"/>
<text text-anchor="start" x="459" y="-21" font-family="Helvetica,sans-Serif" font-size="10.00">project::BI_FootprintPad</text>
<text text-anchor="middle" x="512" y="-8" font-family="Helvetica,sans-Serif" font-size="10.00">::BI_FootprintPad</text>
</a>
</g>
<!-- Node9&#45;&gt;Node10 -->
<g id="edge30" class="edge"><title>Node9&#45;&gt;Node10</title>
<path fill="none" stroke="midnightblue" d="M403.97,-49.9056C421.148,-44.6732 439.49,-39.0863 456.092,-34.0293"/>
<polygon fill="midnightblue" stroke="midnightblue" points="402.559,-46.6767 394.012,-52.9387 404.598,-53.373 402.559,-46.6767"/>
</g>
</g>
</svg>
