<?xml version="1.0" encoding="UTF-8" standalone="no"?>
<!DOCTYPE svg PUBLIC "-//W3C//DTD SVG 1.1//EN"
 "http://www.w3.org/Graphics/SVG/1.1/DTD/svg11.dtd">
<!-- Generated by graphviz version 2.26.3 (20100126.1600)
 -->
<!-- Title: mapToScene Pages: 1 -->
<svg width="480pt" height="162pt"
 viewBox="0.00 0.00 480.00 162.00" xmlns="http://www.w3.org/2000/svg" xmlns:xlink="http://www.w3.org/1999/xlink">
<g id="graph1" class="graph" transform="scale(1 1) rotate(0) translate(4 158)">
<title>mapToScene</title>
<polygon fill="white" stroke="white" points="-4,5 -4,-158 477,-158 477,5 -4,5"/>
<!-- Node1 -->
<g id="node1" class="node"><title>Node1</title>
<polygon fill="#bfbfbf" stroke="black" points="0,-72.5 0,-93.5 74,-93.5 74,-72.5 0,-72.5"/>
<text text-anchor="middle" x="37" y="-80.5" font-family="Helvetica,sans-Serif" font-size="10.00">mapToScene</text>
</g>
<!-- Node2 -->
<g id="node3" class="node"><title>Node2</title>
<a xlink:href="../../d4/ddd/classproject_1_1_b_i___footprint_pad.html#a212e36e19edc323ddeb73387d2f011a5" target="_top" xlink:title="project::BI_FootprintPad\l::updatePosition">
<polygon fill="white" stroke="black" points="110,-66 110,-100 232,-100 232,-66 110,-66"/>
<text text-anchor="start" x="118" y="-87" font-family="Helvetica,sans-Serif" font-size="10.00">project::BI_FootprintPad</text>
<text text-anchor="middle" x="171" y="-74" font-family="Helvetica,sans-Serif" font-size="10.00">::updatePosition</text>
</a>
</g>
<!-- Node1&#45;&gt;Node2 -->
<g id="edge2" class="edge"><title>Node1&#45;&gt;Node2</title>
<path fill="none" stroke="midnightblue" d="M84.5052,-83C92.757,-83 101.441,-83 109.993,-83"/>
<polygon fill="midnightblue" stroke="midnightblue" points="84.3265,-79.5001 74.3265,-83 84.3264,-86.5001 84.3265,-79.5001"/>
</g>
<!-- Node3 -->
<g id="node5" class="node"><title>Node3</title>
<a xlink:href="../../da/d96/classproject_1_1_b_i___footprint.html#a271c63e12acd19bccc27bf6861938df2" target="_top" xlink:title="componentInstanceMoved">
<polygon fill="white" stroke="black" points="271.5,-132.5 271.5,-153.5 402.5,-153.5 402.5,-132.5 271.5,-132.5"/>
<text text-anchor="middle" x="337" y="-140.5" font-family="Helvetica,sans-Serif" font-size="10.00">componentInstanceMoved</text>
</a>
</g>
<!-- Node2&#45;&gt;Node3 -->
<g id="edge4" class="edge"><title>Node2&#45;&gt;Node3</title>
<path fill="none" stroke="midnightblue" d="M219.162,-104.074C234.623,-110.511 251.911,-117.37 268,-123 277.536,-126.337 287.945,-129.564 297.72,-132.418"/>
<polygon fill="midnightblue" stroke="midnightblue" points="220.374,-100.787 209.8,-100.135 217.66,-107.239 220.374,-100.787"/>
</g>
<!-- Node5 -->
<g id="node9" class="node"><title>Node5</title>
<a xlink:href="../../da/d96/classproject_1_1_b_i___footprint.html#ab6c0fcabcb9d5a38a27ed7aeb34f0958" target="_top" xlink:title="componentInstanceRotated">
<polygon fill="white" stroke="black" points="268.5,-92.5 268.5,-113.5 405.5,-113.5 405.5,-92.5 268.5,-92.5"/>
<text text-anchor="middle" x="337" y="-100.5" font-family="Helvetica,sans-Serif" font-size="10.00">componentInstanceRotated</text>
</a>
</g>
<!-- Node2&#45;&gt;Node5 -->
<g id="edge8" class="edge"><title>Node2&#45;&gt;Node5</title>
<path fill="none" stroke="midnightblue" d="M242.362,-91.5978C250.985,-92.6367 259.778,-93.6962 268.361,-94.7302"/>
<polygon fill="midnightblue" stroke="midnightblue" points="242.688,-88.1118 232.341,-90.3904 241.85,-95.0616 242.688,-88.1118"/>
</g>
<!-- Node6 -->
<g id="node12" class="node"><title>Node6</title>
<a xlink:href="../../da/d96/classproject_1_1_b_i___footprint.html#ae00c60cb068f7bb3703a6c84450afeaf" target="_top" xlink:title="componentInstanceMirrored">
<polygon fill="white" stroke="black" points="268.5,-52.5 268.5,-73.5 405.5,-73.5 405.5,-52.5 268.5,-52.5"/>
<text text-anchor="middle" x="337" y="-60.5" font-family="Helvetica,sans-Serif" font-size="10.00">componentInstanceMirrored</text>
</a>
</g>
<!-- Node2&#45;&gt;Node6 -->
<g id="edge12" class="edge"><title>Node2&#45;&gt;Node6</title>
<path fill="none" stroke="midnightblue" d="M242.362,-74.4022C250.985,-73.3633 259.778,-72.3038 268.361,-71.2698"/>
<polygon fill="midnightblue" stroke="midnightblue" points="241.85,-70.9384 232.341,-75.6096 242.688,-77.8882 241.85,-70.9384"/>
</g>
<!-- Node7 -->
<g id="node15" class="node"><title>Node7</title>
<a xlink:href="../../d4/ddd/classproject_1_1_b_i___footprint_pad.html#ac81e6cd36593d731c5e2e23048ed6754" target="_top" xlink:title="project::BI_FootprintPad\l::BI_FootprintPad">
<polygon fill="white" stroke="black" points="276,-0 276,-34 398,-34 398,-0 276,-0"/>
<text text-anchor="start" x="284" y="-21" font-family="Helvetica,sans-Serif" font-size="10.00">project::BI_FootprintPad</text>
<text text-anchor="middle" x="337" y="-8" font-family="Helvetica,sans-Serif" font-size="10.00">::BI_FootprintPad</text>
</a>
</g>
<!-- Node2&#45;&gt;Node7 -->
<g id="edge16" class="edge"><title>Node2&#45;&gt;Node7</title>
<path fill="none" stroke="midnightblue" d="M221.109,-61.9926C236.147,-55.781 252.71,-49.0318 268,-43 275.502,-40.0405 283.491,-36.963 291.272,-34.0048"/>
<polygon fill="midnightblue" stroke="midnightblue" points="219.374,-58.9228 211.475,-65.9839 222.053,-65.3897 219.374,-58.9228"/>
</g>
<!-- Node4 -->
<g id="node7" class="node"><title>Node4</title>
<a xlink:href="../../da/d96/classproject_1_1_b_i___footprint.html#a02fd73d861ef2e4aabb38c0c9ff82947" target="_top" xlink:title="init">
<polygon fill="white" stroke="black" points="442.5,-92.5 442.5,-113.5 471.5,-113.5 471.5,-92.5 442.5,-92.5"/>
<text text-anchor="middle" x="457" y="-100.5" font-family="Helvetica,sans-Serif" font-size="10.00">init</text>
</a>
</g>
<!-- Node3&#45;&gt;Node4 -->
<g id="edge6" class="edge"><title>Node3&#45;&gt;Node4</title>
<path fill="none" stroke="midnightblue" d="M385.769,-129.469C392.594,-127.4 399.495,-125.213 406,-123 418.425,-118.773 432.275,-113.291 442.402,-109.136"/>
<polygon fill="midnightblue" stroke="midnightblue" points="384.468,-126.205 375.878,-132.407 386.461,-132.915 384.468,-126.205"/>
</g>
<!-- Node5&#45;&gt;Node4 -->
<g id="edge10" class="edge"><title>Node5&#45;&gt;Node4</title>
<path fill="none" stroke="midnightblue" d="M415.964,-103C425.953,-103 435.161,-103 442.312,-103"/>
<polygon fill="midnightblue" stroke="midnightblue" points="415.761,-99.5001 405.761,-103 415.761,-106.5 415.761,-99.5001"/>
</g>
<!-- Node6&#45;&gt;Node4 -->
<g id="edge14" class="edge"><title>Node6&#45;&gt;Node4</title>
<path fill="none" stroke="midnightblue" d="M385.769,-76.5306C392.594,-78.6 399.495,-80.7869 406,-83 418.425,-87.2272 432.275,-92.7087 442.402,-96.8639"/>
<polygon fill="midnightblue" stroke="midnightblue" points="386.461,-73.0851 375.878,-73.5933 384.468,-79.7955 386.461,-73.0851"/>
</g>
</g>
</svg>
