<?xml version="1.0" encoding="UTF-8" standalone="no"?>
<!DOCTYPE svg PUBLIC "-//W3C//DTD SVG 1.1//EN"
 "http://www.w3.org/Graphics/SVG/1.1/DTD/svg11.dtd">
<!-- Generated by graphviz version 2.26.3 (20100126.1600)
 -->
<!-- Title: /home/travis/build/LibrePCB/LibrePCB/libs/librepcbproject/boards/graphicsitems/bgi_footprintpad.h Pages: 1 -->
<svg width="926pt" height="266pt"
 viewBox="0.00 0.00 926.00 266.00" xmlns="http://www.w3.org/2000/svg" xmlns:xlink="http://www.w3.org/1999/xlink">
<g id="graph1" class="graph" transform="scale(1 1) rotate(0) translate(4 262)">
<title>/home/travis/build/LibrePCB/LibrePCB/libs/librepcbproject/boards/graphicsitems/bgi_footprintpad.h</title>
<polygon fill="white" stroke="white" points="-4,5 -4,-262 923,-262 923,5 -4,5"/>
<!-- Node1 -->
<g id="node1" class="node"><title>Node1</title>
<polygon fill="#bfbfbf" stroke="black" points="212.5,-197 212.5,-257 373.5,-257 373.5,-197 212.5,-197"/>
<text text-anchor="start" x="220.5" y="-244" font-family="Helvetica,sans-Serif" font-size="10.00">/home/travis/build</text>
<text text-anchor="start" x="220.5" y="-231" font-family="Helvetica,sans-Serif" font-size="10.00">/LibrePCB/LibrePCB/libs</text>
<text text-anchor="start" x="220.5" y="-218" font-family="Helvetica,sans-Serif" font-size="10.00">/librepcbproject/boards</text>
<text text-anchor="middle" x="293" y="-205" font-family="Helvetica,sans-Serif" font-size="10.00">/graphicsitems/bgi_footprintpad.h</text>
</g>
<!-- Node2 -->
<g id="node3" class="node"><title>Node2</title>
<a xlink:href="../../d7/d4c/bi__footprintpad_8h.html" target="_top" xlink:title="/home/travis/build\l/LibrePCB/LibrePCB/libs\l/librepcbproject/boards\l/items/bi_footprintpad.h">
<polygon fill="white" stroke="black" points="329.5,-99 329.5,-159 454.5,-159 454.5,-99 329.5,-99"/>
<text text-anchor="start" x="337.5" y="-146" font-family="Helvetica,sans-Serif" font-size="10.00">/home/travis/build</text>
<text text-anchor="start" x="337.5" y="-133" font-family="Helvetica,sans-Serif" font-size="10.00">/LibrePCB/LibrePCB/libs</text>
<text text-anchor="start" x="337.5" y="-120" font-family="Helvetica,sans-Serif" font-size="10.00">/librepcbproject/boards</text>
<text text-anchor="middle" x="392" y="-107" font-family="Helvetica,sans-Serif" font-size="10.00">/items/bi_footprintpad.h</text>
</a>
</g>
<!-- Node1&#45;&gt;Node2 -->
<g id="edge2" class="edge"><title>Node1&#45;&gt;Node2</title>
<path fill="none" stroke="midnightblue" d="M330.744,-189.637C340.884,-179.6 351.722,-168.871 361.419,-159.272"/>
<polygon fill="midnightblue" stroke="midnightblue" points="328.156,-187.275 323.511,-196.797 333.08,-192.249 328.156,-187.275"/>
</g>
<!-- Node4 -->
<g id="node7" class="node"><title>Node4</title>
<a xlink:href="../../dd/d3c/bgi__footprintpad_8cpp.html" target="_top" xlink:title="/home/travis/build\l/LibrePCB/LibrePCB/libs\l/librepcbproject/boards\l/graphicsitems/bgi_footprintpad.cpp">
<polygon fill="white" stroke="black" points="-0.5,-1 -0.5,-61 170.5,-61 170.5,-1 -0.5,-1"/>
<text text-anchor="start" x="7.5" y="-48" font-family="Helvetica,sans-Serif" font-size="10.00">/home/travis/build</text>
<text text-anchor="start" x="7.5" y="-35" font-family="Helvetica,sans-Serif" font-size="10.00">/LibrePCB/LibrePCB/libs</text>
<text text-anchor="start" x="7.5" y="-22" font-family="Helvetica,sans-Serif" font-size="10.00">/librepcbproject/boards</text>
<text text-anchor="middle" x="85" y="-9" font-family="Helvetica,sans-Serif" font-size="10.00">/graphicsitems/bgi_footprintpad.cpp</text>
</a>
</g>
<!-- Node1&#45;&gt;Node4 -->
<g id="edge16" class="edge"><title>Node1&#45;&gt;Node4</title>
<path fill="none" stroke="midnightblue" d="M253.328,-189.617C213.762,-152.333 153.74,-95.7744 117.081,-61.2298"/>
<polygon fill="midnightblue" stroke="midnightblue" points="251.278,-192.494 260.956,-196.805 256.078,-187.399 251.278,-192.494"/>
</g>
<!-- Node3 -->
<g id="node5" class="node"><title>Node3</title>
<a xlink:href="../../df/d6e/board_8cpp.html" target="_top" xlink:title="/home/travis/build\l/LibrePCB/LibrePCB/libs\l/librepcbproject/boards\l/board.cpp">
<polygon fill="white" stroke="black" points="187.5,-1 187.5,-61 312.5,-61 312.5,-1 187.5,-1"/>
<text text-anchor="start" x="195.5" y="-48" font-family="Helvetica,sans-Serif" font-size="10.00">/home/travis/build</text>
<text text-anchor="start" x="195.5" y="-35" font-family="Helvetica,sans-Serif" font-size="10.00">/LibrePCB/LibrePCB/libs</text>
<text text-anchor="start" x="195.5" y="-22" font-family="Helvetica,sans-Serif" font-size="10.00">/librepcbproject/boards</text>
<text text-anchor="middle" x="250" y="-9" font-family="Helvetica,sans-Serif" font-size="10.00">/board.cpp</text>
</a>
</g>
<!-- Node2&#45;&gt;Node3 -->
<g id="edge4" class="edge"><title>Node2&#45;&gt;Node3</title>
<path fill="none" stroke="midnightblue" d="M339.972,-93.0934C324.831,-82.6441 308.448,-71.3374 293.863,-61.2718"/>
<polygon fill="midnightblue" stroke="midnightblue" points="338.018,-95.9976 348.237,-98.7971 341.994,-90.2364 338.018,-95.9976"/>
</g>
<!-- Node2&#45;&gt;Node4 -->
<g id="edge6" class="edge"><title>Node2&#45;&gt;Node4</title>
<path fill="none" stroke="midnightblue" d="M319.785,-106.556C278.508,-93.6596 225.799,-77.0763 179,-62 176.219,-61.1042 173.394,-60.1907 170.541,-59.2658"/>
<polygon fill="midnightblue" stroke="midnightblue" points="318.894,-109.944 329.483,-109.584 320.98,-103.263 318.894,-109.944"/>
</g>
<!-- Node5 -->
<g id="node9" class="node"><title>Node5</title>
<a xlink:href="../../de/d33/bi__footprint_8cpp.html" target="_top" xlink:title="/home/travis/build\l/LibrePCB/LibrePCB/libs\l/librepcbproject/boards\l/items/bi_footprint.cpp">
<polygon fill="white" stroke="black" points="329.5,-1 329.5,-61 454.5,-61 454.5,-1 329.5,-1"/>
<text text-anchor="start" x="337.5" y="-48" font-family="Helvetica,sans-Serif" font-size="10.00">/home/travis/build</text>
<text text-anchor="start" x="337.5" y="-35" font-family="Helvetica,sans-Serif" font-size="10.00">/LibrePCB/LibrePCB/libs</text>
<text text-anchor="start" x="337.5" y="-22" font-family="Helvetica,sans-Serif" font-size="10.00">/librepcbproject/boards</text>
<text text-anchor="middle" x="392" y="-9" font-family="Helvetica,sans-Serif" font-size="10.00">/items/bi_footprint.cpp</text>
</a>
</g>
<!-- Node2&#45;&gt;Node5 -->
<g id="edge8" class="edge"><title>Node2&#45;&gt;Node5</title>
<path fill="none" stroke="midnightblue" d="M392,-88.6956C392,-79.5273 392,-69.9394 392,-61.2718"/>
<polygon fill="midnightblue" stroke="midnightblue" points="388.5,-88.7971 392,-98.7971 395.5,-88.7972 388.5,-88.7971"/>
</g>
<!-- Node6 -->
<g id="node11" class="node"><title>Node6</title>
<a xlink:href="../../d7/d56/bi__footprintpad_8cpp.html" target="_top" xlink:title="/home/travis/build\l/LibrePCB/LibrePCB/libs\l/librepcbproject/boards\l/items/bi_footprintpad.cpp">
<polygon fill="white" stroke="black" points="471.5,-1 471.5,-61 600.5,-61 600.5,-1 471.5,-1"/>
<text text-anchor="start" x="479.5" y="-48" font-family="Helvetica,sans-Serif" font-size="10.00">/home/travis/build</text>
<text text-anchor="start" x="479.5" y="-35" font-family="Helvetica,sans-Serif" font-size="10.00">/LibrePCB/LibrePCB/libs</text>
<text text-anchor="start" x="479.5" y="-22" font-family="Helvetica,sans-Serif" font-size="10.00">/librepcbproject/boards</text>
<text text-anchor="middle" x="536" y="-9" font-family="Helvetica,sans-Serif" font-size="10.00">/items/bi_footprintpad.cpp</text>
</a>
</g>
<!-- Node2&#45;&gt;Node6 -->
<g id="edge10" class="edge"><title>Node2&#45;&gt;Node6</title>
<path fill="none" stroke="midnightblue" d="M444.761,-93.0934C460.115,-82.6441 476.729,-71.3374 491.519,-61.2718"/>
<polygon fill="midnightblue" stroke="midnightblue" points="442.678,-90.2773 436.38,-98.7971 446.616,-96.0643 442.678,-90.2773"/>
</g>
<!-- Node7 -->
<g id="node13" class="node"><title>Node7</title>
<a xlink:href="../../d0/d3c/moc__bi__footprintpad_8cpp.html" target="_top" xlink:title="/home/travis/build\l/LibrePCB/LibrePCB/libs\l/librepcbproject/moc/moc\l_bi_footprintpad.cpp">
<polygon fill="white" stroke="black" points="618,-1 618,-61 744,-61 744,-1 618,-1"/>
<text text-anchor="start" x="626" y="-48" font-family="Helvetica,sans-Serif" font-size="10.00">/home/travis/build</text>
<text text-anchor="start" x="626" y="-35" font-family="Helvetica,sans-Serif" font-size="10.00">/LibrePCB/LibrePCB/libs</text>
<text text-anchor="start" x="626" y="-22" font-family="Helvetica,sans-Serif" font-size="10.00">/librepcbproject/moc/moc</text>
<text text-anchor="middle" x="681" y="-9" font-family="Helvetica,sans-Serif" font-size="10.00">_bi_footprintpad.cpp</text>
</a>
</g>
<!-- Node2&#45;&gt;Node7 -->
<g id="edge12" class="edge"><title>Node2&#45;&gt;Node7</title>
<path fill="none" stroke="midnightblue" d="M464.495,-108.729C506.977,-96.3271 561.462,-79.5155 609,-62 611.937,-60.9178 614.928,-59.7798 617.938,-58.6049"/>
<polygon fill="midnightblue" stroke="midnightblue" points="463.423,-105.396 454.795,-111.545 465.374,-112.118 463.423,-105.396"/>
</g>
<!-- Node8 -->
<g id="node15" class="node"><title>Node8</title>
<a xlink:href="../../d7/d20/bes__select_8cpp.html" target="_top" xlink:title="/home/travis/build\l/LibrePCB/LibrePCB/libs\l/librepcbprojecteditor\l/boardeditor/fsm/bes_select.cpp">
<polygon fill="white" stroke="black" points="762,-1 762,-61 918,-61 918,-1 762,-1"/>
<text text-anchor="start" x="770" y="-48" font-family="Helvetica,sans-Serif" font-size="10.00">/home/travis/build</text>
<text text-anchor="start" x="770" y="-35" font-family="Helvetica,sans-Serif" font-size="10.00">/LibrePCB/LibrePCB/libs</text>
<text text-anchor="start" x="770" y="-22" font-family="Helvetica,sans-Serif" font-size="10.00">/librepcbprojecteditor</text>
<text text-anchor="middle" x="840" y="-9" font-family="Helvetica,sans-Serif" font-size="10.00">/boardeditor/fsm/bes_select.cpp</text>
</a>
</g>
<!-- Node2&#45;&gt;Node8 -->
<g id="edge14" class="edge"><title>Node2&#45;&gt;Node8</title>
<path fill="none" stroke="midnightblue" d="M464.708,-118.978C538.156,-108.045 654.529,-88.5015 753,-62 755.942,-61.2083 758.926,-60.3633 761.931,-59.4773"/>
<polygon fill="midnightblue" stroke="midnightblue" points="464.017,-115.542 454.635,-120.463 465.039,-122.467 464.017,-115.542"/>
</g>
</g>
</svg>
