<?xml version="1.0" encoding="UTF-8" standalone="no"?>
<!DOCTYPE svg PUBLIC "-//W3C//DTD SVG 1.1//EN"
 "http://www.w3.org/Graphics/SVG/1.1/DTD/svg11.dtd">
<!-- Generated by graphviz version 2.26.3 (20100126.1600)
 -->
<!-- Title: paint Pages: 1 -->
<svg width="414pt" height="346pt"
 viewBox="0.00 0.00 414.00 346.00" xmlns="http://www.w3.org/2000/svg" xmlns:xlink="http://www.w3.org/1999/xlink">
<g id="graph1" class="graph" transform="scale(1 1) rotate(0) translate(4 342)">
<title>paint</title>
<polygon fill="white" stroke="white" points="-4,5 -4,-342 411,-342 411,5 -4,5"/>
<!-- Node1 -->
<g id="node1" class="node"><title>Node1</title>
<polygon fill="#bfbfbf" stroke="black" points="0,-164.5 0,-185.5 38,-185.5 38,-164.5 0,-164.5"/>
<text text-anchor="middle" x="19" y="-172.5" font-family="Helvetica,sans-Serif" font-size="10.00">paint</text>
</g>
<!-- Node2 -->
<g id="node3" class="node"><title>Node2</title>
<a xlink:href="../../d2/d4e/classlibrary_1_1_footprint_pad.html#a47a795a41aee9a66cbd32ed0f0298e42" target="_top" xlink:title="library::FootprintPad\l::getType">
<polygon fill="white" stroke="black" points="93,-304 93,-338 197,-338 197,-304 93,-304"/>
<text text-anchor="start" x="101" y="-325" font-family="Helvetica,sans-Serif" font-size="10.00">library::FootprintPad</text>
<text text-anchor="middle" x="145" y="-312" font-family="Helvetica,sans-Serif" font-size="10.00">::getType</text>
</a>
</g>
<!-- Node1&#45;&gt;Node2 -->
<g id="edge2" class="edge"><title>Node1&#45;&gt;Node2</title>
<path fill="none" stroke="midnightblue" d="M20.9846,-185.594C25.8511,-208.704 40.5079,-264.046 74,-295 77.0909,-297.857 80.5213,-300.406 84.1576,-302.679"/>
<polygon fill="midnightblue" stroke="midnightblue" points="82.5018,-305.763 92.9533,-307.499 85.8658,-299.624 82.5018,-305.763"/>
</g>
<!-- Node3 -->
<g id="node5" class="node"><title>Node3</title>
<a xlink:href="../../d9/d13/classproject_1_1_b_g_i___footprint_pad.html#a10ad07d22b03e558503b70098ea58b75" target="_top" xlink:title="getBoardLayer">
<polygon fill="white" stroke="black" points="105,-264.5 105,-285.5 185,-285.5 185,-264.5 105,-264.5"/>
<text text-anchor="middle" x="145" y="-272.5" font-family="Helvetica,sans-Serif" font-size="10.00">getBoardLayer</text>
</a>
</g>
<!-- Node1&#45;&gt;Node3 -->
<g id="edge4" class="edge"><title>Node1&#45;&gt;Node3</title>
<path fill="none" stroke="midnightblue" d="M23.3711,-185.579C31.0279,-202.786 48.5134,-236.745 74,-255 80.3687,-259.562 87.7477,-263.085 95.2906,-265.806"/>
<polygon fill="midnightblue" stroke="midnightblue" points="94.2787,-269.157 104.869,-268.841 96.3934,-262.484 94.2787,-269.157"/>
</g>
<!-- Node5 -->
<g id="node10" class="node"><title>Node5</title>
<a xlink:href="../../df/d85/class_board_layer.html#afb49c937aaabbe05a0e5368f8bf9d497" target="_top" xlink:title="BoardLayer::isVisible">
<polygon fill="white" stroke="black" points="90.5,-224.5 90.5,-245.5 199.5,-245.5 199.5,-224.5 90.5,-224.5"/>
<text text-anchor="middle" x="145" y="-232.5" font-family="Helvetica,sans-Serif" font-size="10.00">BoardLayer::isVisible</text>
</a>
</g>
<!-- Node1&#45;&gt;Node5 -->
<g id="edge10" class="edge"><title>Node1&#45;&gt;Node5</title>
<path fill="none" stroke="midnightblue" d="M30.8618,-185.563C41.4912,-194.534 57.8534,-207.167 74,-215 78.6339,-217.248 83.5642,-219.283 88.5834,-221.117"/>
<polygon fill="midnightblue" stroke="midnightblue" points="87.6964,-224.512 98.2907,-224.399 89.9383,-217.881 87.6964,-224.512"/>
</g>
<!-- Node6 -->
<g id="node12" class="node"><title>Node6</title>
<a xlink:href="../../df/d85/class_board_layer.html#aab73dfcfb2d157cdf8df0db760f6cb53" target="_top" xlink:title="BoardLayer::getColor">
<polygon fill="white" stroke="black" points="90.5,-184.5 90.5,-205.5 199.5,-205.5 199.5,-184.5 90.5,-184.5"/>
<text text-anchor="middle" x="145" y="-192.5" font-family="Helvetica,sans-Serif" font-size="10.00">BoardLayer::getColor</text>
</a>
</g>
<!-- Node1&#45;&gt;Node6 -->
<g id="edge12" class="edge"><title>Node1&#45;&gt;Node6</title>
<path fill="none" stroke="midnightblue" d="M38.1367,-178.038C49.6008,-179.857 64.9119,-182.288 80.3549,-184.739"/>
<polygon fill="midnightblue" stroke="midnightblue" points="80.0581,-188.235 90.4831,-186.347 81.1555,-181.322 80.0581,-188.235"/>
</g>
<!-- Node7 -->
<g id="node14" class="node"><title>Node7</title>
<a xlink:href="../../da/dc8/classproject_1_1_b_i___base.html#afe4e9ea4eba8862c8e6dd56d0b9712ce" target="_top" xlink:title="project::BI_Base::isSelected">
<polygon fill="white" stroke="black" points="74.5,-144.5 74.5,-165.5 215.5,-165.5 215.5,-144.5 74.5,-144.5"/>
<text text-anchor="middle" x="145" y="-152.5" font-family="Helvetica,sans-Serif" font-size="10.00">project::BI_Base::isSelected</text>
</a>
</g>
<!-- Node1&#45;&gt;Node7 -->
<g id="edge14" class="edge"><title>Node1&#45;&gt;Node7</title>
<path fill="none" stroke="midnightblue" d="M38.1367,-171.962C46.7094,-170.602 57.4332,-168.899 68.7548,-167.102"/>
<polygon fill="midnightblue" stroke="midnightblue" points="69.4912,-170.529 78.8188,-165.505 68.3937,-163.616 69.4912,-170.529"/>
</g>
<!-- Node8 -->
<g id="node16" class="node"><title>Node8</title>
<a xlink:href="../../d2/d4e/classlibrary_1_1_footprint_pad.html#a69af915a70be9a59f27a36ef42fe7606" target="_top" xlink:title="library::FootprintPad\l::getWidth">
<polygon fill="white" stroke="black" points="93,-92 93,-126 197,-126 197,-92 93,-92"/>
<text text-anchor="start" x="101" y="-113" font-family="Helvetica,sans-Serif" font-size="10.00">library::FootprintPad</text>
<text text-anchor="middle" x="145" y="-100" font-family="Helvetica,sans-Serif" font-size="10.00">::getWidth</text>
</a>
</g>
<!-- Node1&#45;&gt;Node8 -->
<g id="edge16" class="edge"><title>Node1&#45;&gt;Node8</title>
<path fill="none" stroke="midnightblue" d="M31.4423,-164.392C42.1761,-155.634 58.3729,-143.334 74,-135 77.1056,-133.344 80.3396,-131.749 83.6409,-130.222"/>
<polygon fill="midnightblue" stroke="midnightblue" points="85.3117,-133.311 93.0724,-126.099 82.5077,-126.897 85.3117,-133.311"/>
</g>
<!-- Node9 -->
<g id="node18" class="node"><title>Node9</title>
<a xlink:href="../../df/df0/class_length.html#abf9a817a583f3939aea7bffdeeb7b235" target="_top" xlink:title="Get the length in pixels (for QGraphics* objects) ">
<polygon fill="white" stroke="black" points="109,-52.5 109,-73.5 181,-73.5 181,-52.5 109,-52.5"/>
<text text-anchor="middle" x="145" y="-60.5" font-family="Helvetica,sans-Serif" font-size="10.00">Length::toPx</text>
</a>
</g>
<!-- Node1&#45;&gt;Node9 -->
<g id="edge18" class="edge"><title>Node1&#45;&gt;Node9</title>
<path fill="none" stroke="midnightblue" d="M22.3779,-164.397C29.0512,-145.182 45.7755,-104.603 74,-83 81.2408,-77.458 89.9464,-73.4516 98.7417,-70.5554"/>
<polygon fill="midnightblue" stroke="midnightblue" points="99.9794,-73.8421 108.637,-67.7345 98.0603,-67.1103 99.9794,-73.8421"/>
</g>
<!-- Node10 -->
<g id="node20" class="node"><title>Node10</title>
<a xlink:href="../../d2/d4e/classlibrary_1_1_footprint_pad.html#a0956fb9eaa66799447596d95c6f1e46d" target="_top" xlink:title="library::FootprintPad\l::getHeight">
<polygon fill="white" stroke="black" points="93,-0 93,-34 197,-34 197,-0 93,-0"/>
<text text-anchor="start" x="101" y="-21" font-family="Helvetica,sans-Serif" font-size="10.00">library::FootprintPad</text>
<text text-anchor="middle" x="145" y="-8" font-family="Helvetica,sans-Serif" font-size="10.00">::getHeight</text>
</a>
</g>
<!-- Node1&#45;&gt;Node10 -->
<g id="edge20" class="edge"><title>Node1&#45;&gt;Node10</title>
<path fill="none" stroke="midnightblue" d="M20.4733,-164.487C24.4721,-139.815 37.7717,-77.6766 74,-43 77.0405,-40.0897 80.4331,-37.5006 84.0419,-35.1979"/>
<polygon fill="midnightblue" stroke="midnightblue" points="85.7554,-38.2498 92.7909,-30.3281 82.351,-32.1334 85.7554,-38.2498"/>
</g>
<!-- Node4 -->
<g id="node7" class="node"><title>Node4</title>
<a xlink:href="../../df/d85/class_board_layer.html#afda6b17aa57ed134aad9e8407629e697" target="_top" xlink:title="BoardLayer::getMirroredLayerId">
<polygon fill="white" stroke="black" points="252.5,-264.5 252.5,-285.5 405.5,-285.5 405.5,-264.5 252.5,-264.5"/>
<text text-anchor="middle" x="329" y="-272.5" font-family="Helvetica,sans-Serif" font-size="10.00">BoardLayer::getMirroredLayerId</text>
</a>
</g>
<!-- Node3&#45;&gt;Node4 -->
<g id="edge6" class="edge"><title>Node3&#45;&gt;Node4</title>
<path fill="none" stroke="midnightblue" d="M185.38,-275C202.212,-275 222.454,-275 242.359,-275"/>
<polygon fill="midnightblue" stroke="midnightblue" points="242.402,-278.5 252.402,-275 242.402,-271.5 242.402,-278.5"/>
</g>
<!-- Node4&#45;&gt;Node4 -->
<g id="edge8" class="edge"><title>Node4&#45;&gt;Node4</title>
<path fill="none" stroke="midnightblue" d="M299.764,-285.708C287.27,-294.653 297.016,-304 329,-304 349.99,-304 361.402,-299.975 363.236,-294.679"/>
<polygon fill="midnightblue" stroke="midnightblue" points="366.162,-292.738 358.236,-285.708 360.048,-296.147 366.162,-292.738"/>
</g>
</g>
</svg>
