<?xml version="1.0" encoding="UTF-8" standalone="no"?>
<!DOCTYPE svg PUBLIC "-//W3C//DTD SVG 1.1//EN"
 "http://www.w3.org/Graphics/SVG/1.1/DTD/svg11.dtd">
<!-- Generated by graphviz version 2.26.3 (20100126.1600)
 -->
<!-- Title: /home/travis/build/LibrePCB/LibrePCB/libs/librepcbproject/schematics/items/si_netline.h Pages: 1 -->
<svg width="872pt" height="590pt"
 viewBox="0.00 0.00 872.00 590.00" xmlns="http://www.w3.org/2000/svg" xmlns:xlink="http://www.w3.org/1999/xlink">
<g id="graph1" class="graph" transform="scale(1 1) rotate(0) translate(4 586)">
<title>/home/travis/build/LibrePCB/LibrePCB/libs/librepcbproject/schematics/items/si_netline.h</title>
<polygon fill="white" stroke="white" points="-4,5 -4,-586 869,-586 869,5 -4,5"/>
<!-- Node1 -->
<g id="node1" class="node"><title>Node1</title>
<polygon fill="#bfbfbf" stroke="black" points="171,-521 171,-581 307,-581 307,-521 171,-521"/>
<text text-anchor="start" x="179" y="-568" font-family="Helvetica,sans-Serif" font-size="10.00">/home/travis/build</text>
<text text-anchor="start" x="179" y="-555" font-family="Helvetica,sans-Serif" font-size="10.00">/LibrePCB/LibrePCB/libs</text>
<text text-anchor="start" x="179" y="-542" font-family="Helvetica,sans-Serif" font-size="10.00">/librepcbproject/schematics</text>
<text text-anchor="middle" x="239" y="-529" font-family="Helvetica,sans-Serif" font-size="10.00">/items/si_netline.h</text>
</g>
<!-- Node2 -->
<g id="node3" class="node"><title>Node2</title>
<polygon fill="white" stroke="#bfbfbf" points="218,-0.5 218,-21.5 266,-21.5 266,-0.5 218,-0.5"/>
<text text-anchor="middle" x="242" y="-8.5" font-family="Helvetica,sans-Serif" font-size="10.00">QtCore</text>
</g>
<!-- Node1&#45;&gt;Node2 -->
<g id="edge2" class="edge"><title>Node1&#45;&gt;Node2</title>
<path fill="none" stroke="midnightblue" d="M170.832,-538.492C100.19,-521.132 0,-482.198 0,-401 0,-401 0,-401 0,-141 0,-98.3866 13.873,-83.5196 48,-58 73.0159,-39.2935 159.001,-23.6264 207.683,-15.9942"/>
<polygon fill="midnightblue" stroke="midnightblue" points="208.405,-19.4244 217.758,-14.446 207.342,-12.5056 208.405,-19.4244"/>
</g>
<!-- Node3 -->
<g id="node5" class="node"><title>Node3</title>
<a xlink:href="../../d6/d1f/si__base_8h.html" target="_top" xlink:title="si_base.h">
<polygon fill="white" stroke="black" points="173.5,-325.5 173.5,-346.5 232.5,-346.5 232.5,-325.5 173.5,-325.5"/>
<text text-anchor="middle" x="203" y="-333.5" font-family="Helvetica,sans-Serif" font-size="10.00">si_base.h</text>
</a>
</g>
<!-- Node1&#45;&gt;Node3 -->
<g id="edge4" class="edge"><title>Node1&#45;&gt;Node3</title>
<path fill="none" stroke="midnightblue" d="M228.755,-520.944C225.191,-509.497 221.47,-496.257 219,-484 209.939,-439.045 205.752,-385.304 204.036,-356.556"/>
<polygon fill="midnightblue" stroke="midnightblue" points="207.527,-356.298 203.477,-346.507 200.538,-356.686 207.527,-356.298"/>
</g>
<!-- Node11 -->
<g id="node30" class="node"><title>Node11</title>
<a xlink:href="../../d0/d1d/if__xmlserializableobject_8h.html" target="_top" xlink:title="librepcbcommon/fileio\l/if_xmlserializableobject.h">
<polygon fill="white" stroke="black" points="707.5,-247 707.5,-281 836.5,-281 836.5,-247 707.5,-247"/>
<text text-anchor="start" x="715.5" y="-268" font-family="Helvetica,sans-Serif" font-size="10.00">librepcbcommon/fileio</text>
<text text-anchor="middle" x="772" y="-255" font-family="Helvetica,sans-Serif" font-size="10.00">/if_xmlserializableobject.h</text>
</a>
</g>
<!-- Node1&#45;&gt;Node11 -->
<g id="edge38" class="edge"><title>Node1&#45;&gt;Node11</title>
<path fill="none" stroke="midnightblue" d="M294.782,-520.963C402.515,-462.954 636.897,-336.748 731.346,-285.891"/>
<polygon fill="midnightblue" stroke="midnightblue" points="733.161,-288.889 740.306,-281.066 729.842,-282.725 733.161,-288.889"/>
</g>
<!-- Node12 -->
<g id="node33" class="node"><title>Node12</title>
<a xlink:href="../../dc/dd1/sgi__netline_8h.html" target="_top" xlink:title="../graphicsitems/sgi\l_netline.h">
<polygon fill="white" stroke="black" points="228,-449 228,-483 330,-483 330,-449 228,-449"/>
<text text-anchor="start" x="236" y="-470" font-family="Helvetica,sans-Serif" font-size="10.00">../graphicsitems/sgi</text>
<text text-anchor="middle" x="279" y="-457" font-family="Helvetica,sans-Serif" font-size="10.00">_netline.h</text>
</a>
</g>
<!-- Node1&#45;&gt;Node12 -->
<g id="edge42" class="edge"><title>Node1&#45;&gt;Node12</title>
<path fill="none" stroke="midnightblue" d="M253.215,-520.793C257.569,-511.542 262.322,-501.44 266.549,-492.459"/>
<polygon fill="midnightblue" stroke="midnightblue" points="269.793,-493.784 270.884,-483.246 263.459,-490.804 269.793,-493.784"/>
</g>
<!-- Node3&#45;&gt;Node2 -->
<g id="edge6" class="edge"><title>Node3&#45;&gt;Node2</title>
<path fill="none" stroke="midnightblue" d="M181.456,-325.356C145.223,-305.758 76,-260.297 76,-199 76,-199 76,-199 76,-141 76,-74.5308 159.519,-36.9503 208.074,-20.7186"/>
<polygon fill="midnightblue" stroke="midnightblue" points="209.411,-23.9655 217.862,-17.5762 207.271,-17.3006 209.411,-23.9655"/>
</g>
<!-- Node4 -->
<g id="node8" class="node"><title>Node4</title>
<polygon fill="white" stroke="#bfbfbf" points="279.5,-253.5 279.5,-274.5 342.5,-274.5 342.5,-253.5 279.5,-253.5"/>
<text text-anchor="middle" x="311" y="-261.5" font-family="Helvetica,sans-Serif" font-size="10.00">QtWidgets</text>
</g>
<!-- Node3&#45;&gt;Node4 -->
<g id="edge8" class="edge"><title>Node3&#45;&gt;Node4</title>
<path fill="none" stroke="midnightblue" d="M218.936,-325.376C236.723,-313.518 265.72,-294.186 286.418,-280.388"/>
<polygon fill="midnightblue" stroke="midnightblue" points="288.62,-283.127 294.999,-274.667 284.737,-277.302 288.62,-283.127"/>
</g>
<!-- Node5 -->
<g id="node10" class="node"><title>Node5</title>
<a xlink:href="../../d1/da8/all__length__units_8h.html" target="_top" xlink:title="librepcbcommon/units\l/all_length_units.h">
<polygon fill="white" stroke="black" points="150,-247 150,-281 262,-281 262,-247 150,-247"/>
<text text-anchor="start" x="158" y="-268" font-family="Helvetica,sans-Serif" font-size="10.00">librepcbcommon/units</text>
<text text-anchor="middle" x="206" y="-255" font-family="Helvetica,sans-Serif" font-size="10.00">/all_length_units.h</text>
</a>
</g>
<!-- Node3&#45;&gt;Node5 -->
<g id="edge10" class="edge"><title>Node3&#45;&gt;Node5</title>
<path fill="none" stroke="midnightblue" d="M203.443,-325.376C203.815,-316.451 204.363,-303.293 204.856,-291.446"/>
<polygon fill="midnightblue" stroke="midnightblue" points="208.368,-291.231 205.288,-281.094 201.374,-290.94 208.368,-291.231"/>
</g>
<!-- Node6 -->
<g id="node12" class="node"><title>Node6</title>
<a xlink:href="../../d0/d09/lengthunit_8h.html" target="_top" xlink:title="lengthunit.h">
<polygon fill="white" stroke="black" points="141.5,-130.5 141.5,-151.5 208.5,-151.5 208.5,-130.5 141.5,-130.5"/>
<text text-anchor="middle" x="175" y="-138.5" font-family="Helvetica,sans-Serif" font-size="10.00">lengthunit.h</text>
</a>
</g>
<!-- Node5&#45;&gt;Node6 -->
<g id="edge12" class="edge"><title>Node5&#45;&gt;Node6</title>
<path fill="none" stroke="midnightblue" d="M201.723,-246.789C197.888,-231.381 192.097,-208.175 187,-188 184.82,-179.371 182.394,-169.856 180.298,-161.657"/>
<polygon fill="midnightblue" stroke="midnightblue" points="183.651,-160.643 177.78,-151.823 176.87,-162.379 183.651,-160.643"/>
</g>
<!-- Node8 -->
<g id="node18" class="node"><title>Node8</title>
<a xlink:href="../../dd/db9/length_8h.html" target="_top" xlink:title="length.h">
<polygon fill="white" stroke="black" points="225.5,-130.5 225.5,-151.5 276.5,-151.5 276.5,-130.5 225.5,-130.5"/>
<text text-anchor="middle" x="251" y="-138.5" font-family="Helvetica,sans-Serif" font-size="10.00">length.h</text>
</a>
</g>
<!-- Node5&#45;&gt;Node8 -->
<g id="edge20" class="edge"><title>Node5&#45;&gt;Node8</title>
<path fill="none" stroke="midnightblue" d="M212.257,-246.897C220.461,-224.472 234.835,-185.183 243.58,-161.283"/>
<polygon fill="midnightblue" stroke="midnightblue" points="246.904,-162.381 247.053,-151.787 240.331,-159.976 246.904,-162.381"/>
</g>
<!-- Node9 -->
<g id="node22" class="node"><title>Node9</title>
<a xlink:href="../../d2/d91/point_8h.html" target="_top" xlink:title="point.h">
<polygon fill="white" stroke="black" points="132,-188.5 132,-209.5 178,-209.5 178,-188.5 132,-188.5"/>
<text text-anchor="middle" x="155" y="-196.5" font-family="Helvetica,sans-Serif" font-size="10.00">point.h</text>
</a>
</g>
<!-- Node5&#45;&gt;Node9 -->
<g id="edge26" class="edge"><title>Node5&#45;&gt;Node9</title>
<path fill="none" stroke="midnightblue" d="M192.6,-246.922C185.622,-238.029 177.071,-227.13 169.887,-217.974"/>
<polygon fill="midnightblue" stroke="midnightblue" points="172.441,-215.559 163.515,-209.852 166.934,-219.88 172.441,-215.559"/>
</g>
<!-- Node10 -->
<g id="node26" class="node"><title>Node10</title>
<a xlink:href="../../da/dac/angle_8h.html" target="_top" xlink:title="angle.h">
<polygon fill="white" stroke="black" points="294,-130.5 294,-151.5 342,-151.5 342,-130.5 294,-130.5"/>
<text text-anchor="middle" x="318" y="-138.5" font-family="Helvetica,sans-Serif" font-size="10.00">angle.h</text>
</a>
</g>
<!-- Node5&#45;&gt;Node10 -->
<g id="edge32" class="edge"><title>Node5&#45;&gt;Node10</title>
<path fill="none" stroke="midnightblue" d="M221.573,-246.897C242.542,-223.869 279.705,-183.057 301.257,-159.387"/>
<polygon fill="midnightblue" stroke="midnightblue" points="304.032,-161.538 308.177,-151.787 298.857,-156.825 304.032,-161.538"/>
</g>
<!-- Node6&#45;&gt;Node2 -->
<g id="edge14" class="edge"><title>Node6&#45;&gt;Node2</title>
<path fill="none" stroke="midnightblue" d="M180.483,-130.362C191.672,-108.65 217.294,-58.9367 231.692,-31.0003"/>
<polygon fill="midnightblue" stroke="midnightblue" points="234.971,-32.2778 236.441,-21.7854 228.749,-29.0709 234.971,-32.2778"/>
</g>
<!-- Node7 -->
<g id="node15" class="node"><title>Node7</title>
<a xlink:href="../../d4/d03/exceptions_8h.html" target="_top" xlink:title="../exceptions.h">
<polygon fill="white" stroke="black" points="269.5,-65.5 269.5,-86.5 350.5,-86.5 350.5,-65.5 269.5,-65.5"/>
<text text-anchor="middle" x="310" y="-73.5" font-family="Helvetica,sans-Serif" font-size="10.00">../exceptions.h</text>
</a>
</g>
<!-- Node6&#45;&gt;Node7 -->
<g id="edge16" class="edge"><title>Node6&#45;&gt;Node7</title>
<path fill="none" stroke="midnightblue" d="M196.991,-130.412C219.251,-119.694 253.871,-103.025 278.929,-90.9601"/>
<polygon fill="midnightblue" stroke="midnightblue" points="280.527,-94.0752 288.019,-86.5835 277.49,-87.7682 280.527,-94.0752"/>
</g>
<!-- Node7&#45;&gt;Node2 -->
<g id="edge18" class="edge"><title>Node7&#45;&gt;Node2</title>
<path fill="none" stroke="midnightblue" d="M298.771,-65.2666C288.374,-55.328 272.719,-40.3635 260.48,-28.6645"/>
<polygon fill="midnightblue" stroke="midnightblue" points="262.667,-25.9135 253.02,-21.5337 257.83,-30.9736 262.667,-25.9135"/>
</g>
<!-- Node8&#45;&gt;Node2 -->
<g id="edge22" class="edge"><title>Node8&#45;&gt;Node2</title>
<path fill="none" stroke="midnightblue" d="M244.017,-130.327C238.442,-121.13 231.074,-107.275 228,-94 223.105,-72.862 228.598,-48.3236 234.075,-31.4397"/>
<polygon fill="midnightblue" stroke="midnightblue" points="237.533,-32.1573 237.563,-21.5625 230.933,-29.8265 237.533,-32.1573"/>
</g>
<!-- Node8&#45;&gt;Node7 -->
<g id="edge24" class="edge"><title>Node8&#45;&gt;Node7</title>
<path fill="none" stroke="midnightblue" d="M260.743,-130.267C269.678,-120.423 283.089,-105.648 293.662,-93.9996"/>
<polygon fill="midnightblue" stroke="midnightblue" points="296.309,-96.2907 300.439,-86.5337 291.126,-91.5859 296.309,-96.2907"/>
</g>
<!-- Node9&#45;&gt;Node2 -->
<g id="edge28" class="edge"><title>Node9&#45;&gt;Node2</title>
<path fill="none" stroke="midnightblue" d="M146.992,-188.127C137.939,-174.433 125.394,-150.244 133,-130 149.628,-85.7461 191.692,-48.1302 218.436,-27.6281"/>
<polygon fill="midnightblue" stroke="midnightblue" points="220.61,-30.3732 226.529,-21.5863 216.422,-24.7638 220.61,-30.3732"/>
</g>
<!-- Node9&#45;&gt;Node8 -->
<g id="edge30" class="edge"><title>Node9&#45;&gt;Node8</title>
<path fill="none" stroke="midnightblue" d="M172.608,-188.362C187.223,-179.532 208.224,-166.844 224.811,-156.822"/>
<polygon fill="midnightblue" stroke="midnightblue" points="226.754,-159.738 233.504,-151.571 223.135,-153.746 226.754,-159.738"/>
</g>
<!-- Node10&#45;&gt;Node2 -->
<g id="edge34" class="edge"><title>Node10&#45;&gt;Node2</title>
<path fill="none" stroke="midnightblue" d="M299.579,-130.383C286.828,-122.083 270.501,-109.388 261,-94 249.222,-74.9246 244.731,-49.3215 243.026,-31.6192"/>
<polygon fill="midnightblue" stroke="midnightblue" points="246.507,-31.2231 242.272,-21.5112 239.526,-31.7438 246.507,-31.2231"/>
</g>
<!-- Node10&#45;&gt;Node7 -->
<g id="edge36" class="edge"><title>Node10&#45;&gt;Node7</title>
<path fill="none" stroke="midnightblue" d="M316.679,-130.267C315.561,-121.18 313.925,-107.892 312.553,-96.7395"/>
<polygon fill="midnightblue" stroke="midnightblue" points="315.992,-96.0312 311.296,-86.5337 309.044,-96.8864 315.992,-96.0312"/>
</g>
<!-- Node11&#45;&gt;Node7 -->
<g id="edge40" class="edge"><title>Node11&#45;&gt;Node7</title>
<path fill="none" stroke="midnightblue" d="M741.447,-246.957C711.71,-230.72 664.988,-206.132 623,-188 528.892,-147.36 414.704,-109.2 353.598,-89.6413"/>
<polygon fill="midnightblue" stroke="midnightblue" points="354.489,-86.252 343.898,-86.5504 352.364,-92.9216 354.489,-86.252"/>
</g>
<!-- Node12&#45;&gt;Node2 -->
<g id="edge44" class="edge"><title>Node12&#45;&gt;Node2</title>
<path fill="none" stroke="midnightblue" d="M227.89,-461.056C157.147,-451.078 38,-421.571 38,-336 38,-336 38,-336 38,-141 38,-97.4694 55.4914,-84.5343 90,-58 124.676,-31.3368 174.616,-19.676 207.666,-14.6598"/>
<polygon fill="midnightblue" stroke="midnightblue" points="208.341,-18.0997 217.762,-13.254 207.375,-11.1666 208.341,-18.0997"/>
</g>
<!-- Node12&#45;&gt;Node4 -->
<g id="edge46" class="edge"><title>Node12&#45;&gt;Node4</title>
<path fill="none" stroke="midnightblue" d="M281.728,-448.778C287.586,-411.801 301.348,-324.929 307.691,-284.886"/>
<polygon fill="midnightblue" stroke="midnightblue" points="311.163,-285.339 309.271,-274.914 304.249,-284.243 311.163,-285.339"/>
</g>
<!-- Node13 -->
<g id="node37" class="node"><title>Node13</title>
<a xlink:href="../../d4/d91/sgi__base_8h.html" target="_top" xlink:title="sgi_base.h">
<polygon fill="white" stroke="black" points="371,-390.5 371,-411.5 435,-411.5 435,-390.5 371,-390.5"/>
<text text-anchor="middle" x="403" y="-398.5" font-family="Helvetica,sans-Serif" font-size="10.00">sgi_base.h</text>
</a>
</g>
<!-- Node12&#45;&gt;Node13 -->
<g id="edge48" class="edge"><title>Node12&#45;&gt;Node13</title>
<path fill="none" stroke="midnightblue" d="M311.58,-448.922C330.854,-438.818 355.068,-426.126 373.733,-416.342"/>
<polygon fill="midnightblue" stroke="midnightblue" points="375.435,-419.401 382.667,-411.658 372.185,-413.201 375.435,-419.401"/>
</g>
<!-- Node13&#45;&gt;Node2 -->
<g id="edge50" class="edge"><title>Node13&#45;&gt;Node2</title>
<path fill="none" stroke="midnightblue" d="M435.051,-398.458C539.595,-389.298 864,-353.652 864,-264 864,-264 864,-264 864,-141 864,-55.7199 773.057,-81.2244 691,-58 612.835,-35.8772 366.859,-18.765 276.088,-13.0542"/>
<polygon fill="midnightblue" stroke="midnightblue" points="276.254,-9.55791 266.056,-12.4299 275.819,-16.5444 276.254,-9.55791"/>
</g>
<!-- Node13&#45;&gt;Node4 -->
<g id="edge52" class="edge"><title>Node13&#45;&gt;Node4</title>
<path fill="none" stroke="midnightblue" d="M376.874,-390.483C360.925,-382.729 341.462,-370.631 330,-354 315.834,-333.445 311.884,-304.435 310.956,-284.96"/>
<polygon fill="midnightblue" stroke="midnightblue" points="314.449,-284.642 310.704,-274.731 307.451,-284.814 314.449,-284.642"/>
</g>
<!-- Node14 -->
<g id="node41" class="node"><title>Node14</title>
<a xlink:href="../../de/dd6/graphicsitem_8h.html" target="_top" xlink:title="librepcbcommon/graphics\l/graphicsitem.h">
<polygon fill="white" stroke="black" points="339,-319 339,-353 467,-353 467,-319 339,-319"/>
<text text-anchor="start" x="347" y="-340" font-family="Helvetica,sans-Serif" font-size="10.00">librepcbcommon/graphics</text>
<text text-anchor="middle" x="403" y="-327" font-family="Helvetica,sans-Serif" font-size="10.00">/graphicsitem.h</text>
</a>
</g>
<!-- Node13&#45;&gt;Node14 -->
<g id="edge54" class="edge"><title>Node13&#45;&gt;Node14</title>
<path fill="none" stroke="midnightblue" d="M403,-390.267C403,-382.931 403,-372.857 403,-363.38"/>
<polygon fill="midnightblue" stroke="midnightblue" points="406.5,-363.11 403,-353.11 399.5,-363.11 406.5,-363.11"/>
</g>
<!-- Node15 -->
<g id="node45" class="node"><title>Node15</title>
<a xlink:href="../../d1/d8d/schematic_8h.html" target="_top" xlink:title="../schematic.h">
<polygon fill="white" stroke="black" points="484.5,-325.5 484.5,-346.5 563.5,-346.5 563.5,-325.5 484.5,-325.5"/>
<text text-anchor="middle" x="524" y="-333.5" font-family="Helvetica,sans-Serif" font-size="10.00">../schematic.h</text>
</a>
</g>
<!-- Node13&#45;&gt;Node15 -->
<g id="edge60" class="edge"><title>Node13&#45;&gt;Node15</title>
<path fill="none" stroke="midnightblue" d="M422.71,-390.412C442.398,-379.836 472.874,-363.465 495.256,-351.441"/>
<polygon fill="midnightblue" stroke="midnightblue" points="497.145,-354.399 504.298,-346.584 493.833,-348.233 497.145,-354.399"/>
</g>
<!-- Node14&#45;&gt;Node2 -->
<g id="edge56" class="edge"><title>Node14&#45;&gt;Node2</title>
<path fill="none" stroke="midnightblue" d="M405.621,-318.728C411.802,-271.33 422.346,-137.483 359,-58 338.886,-32.7622 303.135,-21.0052 276.429,-15.5723"/>
<polygon fill="midnightblue" stroke="midnightblue" points="276.796,-12.0814 266.33,-13.7263 275.537,-18.9674 276.796,-12.0814"/>
</g>
<!-- Node14&#45;&gt;Node4 -->
<g id="edge58" class="edge"><title>Node14&#45;&gt;Node4</title>
<path fill="none" stroke="midnightblue" d="M381.197,-318.937C366.539,-307.465 347.299,-292.408 332.669,-280.958"/>
<polygon fill="midnightblue" stroke="midnightblue" points="334.689,-278.095 324.657,-274.688 330.375,-283.607 334.689,-278.095"/>
</g>
<!-- Node15&#45;&gt;Node2 -->
<g id="edge62" class="edge"><title>Node15&#45;&gt;Node2</title>
<path fill="none" stroke="midnightblue" d="M546.698,-325.5C564.733,-316.203 589.573,-301.146 606,-282 673.111,-203.779 734.746,-134.788 666,-58 640.109,-29.0804 372.282,-16.007 276.13,-12.2205"/>
<polygon fill="midnightblue" stroke="midnightblue" points="276.189,-8.72031 266.062,-11.8335 275.92,-15.7151 276.189,-8.72031"/>
</g>
<!-- Node15&#45;&gt;Node4 -->
<g id="edge64" class="edge"><title>Node15&#45;&gt;Node4</title>
<path fill="none" stroke="midnightblue" d="M496.406,-325.424C489.745,-322.934 482.634,-320.328 476,-318 434.246,-303.346 386.117,-287.74 352.656,-277.093"/>
<polygon fill="midnightblue" stroke="midnightblue" points="353.357,-273.644 342.766,-273.955 351.239,-280.316 353.357,-273.644"/>
</g>
<!-- Node15&#45;&gt;Node5 -->
<g id="edge72" class="edge"><title>Node15&#45;&gt;Node5</title>
<path fill="none" stroke="midnightblue" d="M498.63,-325.488C491.407,-322.769 483.47,-320.038 476,-318 389.806,-294.488 363.054,-301.811 272.181,-282.137"/>
<polygon fill="midnightblue" stroke="midnightblue" points="272.807,-278.691 262.286,-279.944 271.292,-285.525 272.807,-278.691"/>
</g>
<!-- Node15&#45;&gt;Node7 -->
<g id="edge78" class="edge"><title>Node15&#45;&gt;Node7</title>
<path fill="none" stroke="midnightblue" d="M515.346,-325.486C482.748,-285.88 367.098,-145.371 325.253,-94.5314"/>
<polygon fill="midnightblue" stroke="midnightblue" points="327.819,-92.1419 318.762,-86.6452 322.414,-96.5905 327.819,-92.1419"/>
</g>
<!-- Node15&#45;&gt;Node11 -->
<g id="edge70" class="edge"><title>Node15&#45;&gt;Node11</title>
<path fill="none" stroke="midnightblue" d="M560.327,-325.453C597.757,-314.587 657.009,-297.384 703.316,-283.941"/>
<polygon fill="midnightblue" stroke="midnightblue" points="704.36,-287.282 712.988,-281.133 702.409,-280.56 704.36,-287.282"/>
</g>
<!-- Node16 -->
<g id="node49" class="node"><title>Node16</title>
<a xlink:href="../../da/d81/if__attributeprovider_8h.html" target="_top" xlink:title="librepcbcommon/if_attributeprovider.h">
<polygon fill="white" stroke="black" points="435.5,-188.5 435.5,-209.5 614.5,-209.5 614.5,-188.5 435.5,-188.5"/>
<text text-anchor="middle" x="525" y="-196.5" font-family="Helvetica,sans-Serif" font-size="10.00">librepcbcommon/if_attributeprovider.h</text>
</a>
</g>
<!-- Node15&#45;&gt;Node16 -->
<g id="edge66" class="edge"><title>Node15&#45;&gt;Node16</title>
<path fill="none" stroke="midnightblue" d="M524.078,-325.25C524.244,-302.541 524.632,-249.348 524.848,-219.768"/>
<polygon fill="midnightblue" stroke="midnightblue" points="528.349,-219.726 524.922,-209.7 521.349,-219.674 528.349,-219.726"/>
</g>
<!-- Node17 -->
<g id="node54" class="node"><title>Node17</title>
<a xlink:href="../../dd/dec/filepath_8h.html" target="_top" xlink:title="librepcbcommon/fileio\l/filepath.h">
<polygon fill="white" stroke="black" points="546.5,-59 546.5,-93 657.5,-93 657.5,-59 546.5,-59"/>
<text text-anchor="start" x="554.5" y="-80" font-family="Helvetica,sans-Serif" font-size="10.00">librepcbcommon/fileio</text>
<text text-anchor="middle" x="602" y="-67" font-family="Helvetica,sans-Serif" font-size="10.00">/filepath.h</text>
</a>
</g>
<!-- Node15&#45;&gt;Node17 -->
<g id="edge74" class="edge"><title>Node15&#45;&gt;Node17</title>
<path fill="none" stroke="midnightblue" d="M536.547,-325.468C559.071,-305.639 605.632,-260.217 623,-210 635.408,-174.125 623.862,-130.297 613.61,-102.757"/>
<polygon fill="midnightblue" stroke="midnightblue" points="616.847,-101.425 609.938,-93.393 610.33,-103.981 616.847,-101.425"/>
</g>
<!-- Node16&#45;&gt;Node2 -->
<g id="edge68" class="edge"><title>Node16&#45;&gt;Node2</title>
<path fill="none" stroke="midnightblue" d="M517.97,-188.418C500.098,-162.329 450.195,-94.4134 392,-58 355.938,-35.4355 308.178,-22.9243 276.337,-16.5896"/>
<polygon fill="midnightblue" stroke="midnightblue" points="276.664,-13.0896 266.188,-14.6724 275.365,-19.968 276.664,-13.0896"/>
</g>
<!-- Node17&#45;&gt;Node2 -->
<g id="edge76" class="edge"><title>Node17&#45;&gt;Node2</title>
<path fill="none" stroke="midnightblue" d="M546.145,-65.9151C470.721,-52.2968 338.595,-28.4407 276.321,-17.1968"/>
<polygon fill="midnightblue" stroke="midnightblue" points="276.702,-13.7091 266.239,-15.3765 275.458,-20.5977 276.702,-13.7091"/>
</g>
</g>
</svg>
