<?xml version="1.0" encoding="UTF-8" standalone="no"?>
<!DOCTYPE svg PUBLIC "-//W3C//DTD SVG 1.1//EN"
 "http://www.w3.org/Graphics/SVG/1.1/DTD/svg11.dtd">
<!-- Generated by graphviz version 2.26.3 (20100126.1600)
 -->
<!-- Title: checkAttributesValidity Pages: 1 -->
<svg width="458pt" height="42pt"
 viewBox="0.00 0.00 458.00 42.00" xmlns="http://www.w3.org/2000/svg" xmlns:xlink="http://www.w3.org/1999/xlink">
<g id="graph1" class="graph" transform="scale(1 1) rotate(0) translate(4 38)">
<title>checkAttributesValidity</title>
<polygon fill="white" stroke="white" points="-4,5 -4,-38 455,-38 455,5 -4,5"/>
<!-- Node1 -->
<g id="node1" class="node"><title>Node1</title>
<polygon fill="#bfbfbf" stroke="black" points="0.5,-6.5 0.5,-27.5 117.5,-27.5 117.5,-6.5 0.5,-6.5"/>
<text text-anchor="middle" x="59" y="-14.5" font-family="Helvetica,sans-Serif" font-size="10.00">checkAttributesValidity</text>
</g>
<!-- Node2 -->
<g id="node3" class="node"><title>Node2</title>
<a xlink:href="../../d3/d21/classproject_1_1_net_class.html#aeb87054a7c12b9ccee59af89a9abf24f" target="_top" xlink:title="Serialize the object to a XML DOM element. ">
<polygon fill="white" stroke="black" points="154,-6.5 154,-27.5 292,-27.5 292,-6.5 154,-6.5"/>
<text text-anchor="middle" x="223" y="-14.5" font-family="Helvetica,sans-Serif" font-size="10.00">serializeToXmlDomElement</text>
</a>
</g>
<!-- Node1&#45;&gt;Node2 -->
<g id="edge2" class="edge"><title>Node1&#45;&gt;Node2</title>
<path fill="none" stroke="midnightblue" d="M128.013,-17C136.53,-17 145.24,-17 153.76,-17"/>
<polygon fill="midnightblue" stroke="midnightblue" points="127.745,-13.5001 117.745,-17 127.745,-20.5001 127.745,-13.5001"/>
</g>
<!-- Node3 -->
<g id="node5" class="node"><title>Node3</title>
<a xlink:href="../../d1/d03/classproject_1_1_circuit.html#aeb87054a7c12b9ccee59af89a9abf24f" target="_top" xlink:title="Serialize the object to a XML DOM element. ">
<polygon fill="white" stroke="black" points="328,-0 328,-34 450,-34 450,-0 328,-0"/>
<text text-anchor="start" x="336" y="-21" font-family="Helvetica,sans-Serif" font-size="10.00">project::Circuit::serialize</text>
<text text-anchor="middle" x="389" y="-8" font-family="Helvetica,sans-Serif" font-size="10.00">ToXmlDomElement</text>
</a>
</g>
<!-- Node2&#45;&gt;Node3 -->
<g id="edge4" class="edge"><title>Node2&#45;&gt;Node3</title>
<path fill="none" stroke="midnightblue" d="M302.677,-17C311.109,-17 319.587,-17 327.762,-17"/>
<polygon fill="midnightblue" stroke="midnightblue" points="302.437,-13.5001 292.437,-17 302.437,-20.5001 302.437,-13.5001"/>
</g>
</g>
</svg>
