<?xml version="1.0" encoding="UTF-8" standalone="no"?>
<!DOCTYPE svg PUBLIC "-//W3C//DTD SVG 1.1//EN"
 "http://www.w3.org/Graphics/SVG/1.1/DTD/svg11.dtd">
<!-- Generated by graphviz version 2.26.3 (20100126.1600)
 -->
<!-- Title: /home/travis/build/LibrePCB/LibrePCB/libs/librepcbproject/library/projectlibrary.h Pages: 1 -->
<svg width="1744pt" height="180pt"
 viewBox="0.00 0.00 1744.00 180.00" xmlns="http://www.w3.org/2000/svg" xmlns:xlink="http://www.w3.org/1999/xlink">
<g id="graph1" class="graph" transform="scale(1 1) rotate(0) translate(4 176)">
<title>/home/travis/build/LibrePCB/LibrePCB/libs/librepcbproject/library/projectlibrary.h</title>
<polygon fill="white" stroke="white" points="-4,5 -4,-176 1741,-176 1741,5 -4,5"/>
<!-- Node1 -->
<g id="node1" class="node"><title>Node1</title>
<polygon fill="#bfbfbf" stroke="black" points="770.5,-111 770.5,-171 895.5,-171 895.5,-111 770.5,-111"/>
<text text-anchor="start" x="778.5" y="-158" font-family="Helvetica,sans-Serif" font-size="10.00">/home/travis/build</text>
<text text-anchor="start" x="778.5" y="-145" font-family="Helvetica,sans-Serif" font-size="10.00">/LibrePCB/LibrePCB/libs</text>
<text text-anchor="start" x="778.5" y="-132" font-family="Helvetica,sans-Serif" font-size="10.00">/librepcbproject/library</text>
<text text-anchor="middle" x="833" y="-119" font-family="Helvetica,sans-Serif" font-size="10.00">/projectlibrary.h</text>
</g>
<!-- Node2 -->
<g id="node3" class="node"><title>Node2</title>
<a xlink:href="../../d6/d55/componentinstance_8cpp.html" target="_top" xlink:title="/home/travis/build\l/LibrePCB/LibrePCB/libs\l/librepcbproject/boards\l/componentinstance.cpp">
<polygon fill="white" stroke="black" points="-0.5,-7 -0.5,-67 124.5,-67 124.5,-7 -0.5,-7"/>
<text text-anchor="start" x="7.5" y="-54" font-family="Helvetica,sans-Serif" font-size="10.00">/home/travis/build</text>
<text text-anchor="start" x="7.5" y="-41" font-family="Helvetica,sans-Serif" font-size="10.00">/LibrePCB/LibrePCB/libs</text>
<text text-anchor="start" x="7.5" y="-28" font-family="Helvetica,sans-Serif" font-size="10.00">/librepcbproject/boards</text>
<text text-anchor="middle" x="62" y="-15" font-family="Helvetica,sans-Serif" font-size="10.00">/componentinstance.cpp</text>
</a>
</g>
<!-- Node1&#45;&gt;Node2 -->
<g id="edge2" class="edge"><title>Node1&#45;&gt;Node2</title>
<path fill="none" stroke="midnightblue" d="M760.079,-137.564C605.398,-129.699 249.074,-108.374 133,-74 126.736,-72.145 120.379,-69.7239 114.174,-67.0073"/>
<polygon fill="midnightblue" stroke="midnightblue" points="760.253,-141.077 770.417,-138.085 760.606,-134.086 760.253,-141.077"/>
</g>
<!-- Node3 -->
<g id="node5" class="node"><title>Node3</title>
<a xlink:href="../../de/d33/bi__footprint_8cpp.html" target="_top" xlink:title="/home/travis/build\l/LibrePCB/LibrePCB/libs\l/librepcbproject/boards\l/items/bi_footprint.cpp">
<polygon fill="white" stroke="black" points="141.5,-7 141.5,-67 266.5,-67 266.5,-7 141.5,-7"/>
<text text-anchor="start" x="149.5" y="-54" font-family="Helvetica,sans-Serif" font-size="10.00">/home/travis/build</text>
<text text-anchor="start" x="149.5" y="-41" font-family="Helvetica,sans-Serif" font-size="10.00">/LibrePCB/LibrePCB/libs</text>
<text text-anchor="start" x="149.5" y="-28" font-family="Helvetica,sans-Serif" font-size="10.00">/librepcbproject/boards</text>
<text text-anchor="middle" x="204" y="-15" font-family="Helvetica,sans-Serif" font-size="10.00">/items/bi_footprint.cpp</text>
</a>
</g>
<!-- Node1&#45;&gt;Node3 -->
<g id="edge4" class="edge"><title>Node1&#45;&gt;Node3</title>
<path fill="none" stroke="midnightblue" d="M760.222,-135.533C630.35,-125.235 363.941,-101.508 275,-74 268.892,-72.1108 262.686,-69.7058 256.615,-67.0315"/>
<polygon fill="midnightblue" stroke="midnightblue" points="760.223,-139.044 770.467,-136.34 760.772,-132.065 760.223,-139.044"/>
</g>
<!-- Node4 -->
<g id="node7" class="node"><title>Node4</title>
<a xlink:href="../../de/de8/gencompinstance_8cpp.html" target="_top" xlink:title="/home/travis/build\l/LibrePCB/LibrePCB/libs\l/librepcbproject/circuit\l/gencompinstance.cpp">
<polygon fill="white" stroke="black" points="283.5,-7 283.5,-67 408.5,-67 408.5,-7 283.5,-7"/>
<text text-anchor="start" x="291.5" y="-54" font-family="Helvetica,sans-Serif" font-size="10.00">/home/travis/build</text>
<text text-anchor="start" x="291.5" y="-41" font-family="Helvetica,sans-Serif" font-size="10.00">/LibrePCB/LibrePCB/libs</text>
<text text-anchor="start" x="291.5" y="-28" font-family="Helvetica,sans-Serif" font-size="10.00">/librepcbproject/circuit</text>
<text text-anchor="middle" x="346" y="-15" font-family="Helvetica,sans-Serif" font-size="10.00">/gencompinstance.cpp</text>
</a>
</g>
<!-- Node1&#45;&gt;Node4 -->
<g id="edge6" class="edge"><title>Node1&#45;&gt;Node4</title>
<path fill="none" stroke="midnightblue" d="M760.203,-136.359C675.82,-129.373 533.437,-112.592 417,-74 411.195,-72.0759 405.288,-69.7202 399.485,-67.138"/>
<polygon fill="midnightblue" stroke="midnightblue" points="759.952,-139.85 770.2,-137.163 760.513,-132.872 759.952,-139.85"/>
</g>
<!-- Node5 -->
<g id="node9" class="node"><title>Node5</title>
<a xlink:href="../../da/d6c/cmdprojectlibraryaddelement_8cpp.html" target="_top" xlink:title="/home/travis/build\l/LibrePCB/LibrePCB/libs\l/librepcbproject/library\l/cmd/cmdprojectlibraryaddelement.cpp">
<polygon fill="white" stroke="black" points="425.5,-7 425.5,-67 610.5,-67 610.5,-7 425.5,-7"/>
<text text-anchor="start" x="433.5" y="-54" font-family="Helvetica,sans-Serif" font-size="10.00">/home/travis/build</text>
<text text-anchor="start" x="433.5" y="-41" font-family="Helvetica,sans-Serif" font-size="10.00">/LibrePCB/LibrePCB/libs</text>
<text text-anchor="start" x="433.5" y="-28" font-family="Helvetica,sans-Serif" font-size="10.00">/librepcbproject/library</text>
<text text-anchor="middle" x="518" y="-15" font-family="Helvetica,sans-Serif" font-size="10.00">/cmd/cmdprojectlibraryaddelement.cpp</text>
</a>
</g>
<!-- Node1&#45;&gt;Node5 -->
<g id="edge8" class="edge"><title>Node1&#45;&gt;Node5</title>
<path fill="none" stroke="midnightblue" d="M760.7,-119.304C719.097,-106.585 665.927,-89.9314 619,-74 612.457,-71.7788 605.696,-69.4267 598.916,-67.0281"/>
<polygon fill="midnightblue" stroke="midnightblue" points="759.887,-122.715 770.473,-122.284 761.929,-116.019 759.887,-122.715"/>
</g>
<!-- Node6 -->
<g id="node11" class="node"><title>Node6</title>
<a xlink:href="../../d4/d20/projectlibrary_8cpp.html" target="_top" xlink:title="/home/travis/build\l/LibrePCB/LibrePCB/libs\l/librepcbproject/library\l/projectlibrary.cpp">
<polygon fill="white" stroke="black" points="627.5,-7 627.5,-67 752.5,-67 752.5,-7 627.5,-7"/>
<text text-anchor="start" x="635.5" y="-54" font-family="Helvetica,sans-Serif" font-size="10.00">/home/travis/build</text>
<text text-anchor="start" x="635.5" y="-41" font-family="Helvetica,sans-Serif" font-size="10.00">/LibrePCB/LibrePCB/libs</text>
<text text-anchor="start" x="635.5" y="-28" font-family="Helvetica,sans-Serif" font-size="10.00">/librepcbproject/library</text>
<text text-anchor="middle" x="690" y="-15" font-family="Helvetica,sans-Serif" font-size="10.00">/projectlibrary.cpp</text>
</a>
</g>
<!-- Node1&#45;&gt;Node6 -->
<g id="edge10" class="edge"><title>Node1&#45;&gt;Node6</title>
<path fill="none" stroke="midnightblue" d="M783.448,-104.962C766.425,-92.5816 747.563,-78.8639 731.269,-67.0135"/>
<polygon fill="midnightblue" stroke="midnightblue" points="781.492,-107.868 791.638,-110.919 785.61,-102.207 781.492,-107.868"/>
</g>
<!-- Node7 -->
<g id="node13" class="node"><title>Node7</title>
<a xlink:href="../../db/d0a/moc__projectlibrary_8cpp.html" target="_top" xlink:title="/home/travis/build\l/LibrePCB/LibrePCB/libs\l/librepcbproject/moc/moc\l_projectlibrary.cpp">
<polygon fill="white" stroke="black" points="770,-7 770,-67 896,-67 896,-7 770,-7"/>
<text text-anchor="start" x="778" y="-54" font-family="Helvetica,sans-Serif" font-size="10.00">/home/travis/build</text>
<text text-anchor="start" x="778" y="-41" font-family="Helvetica,sans-Serif" font-size="10.00">/LibrePCB/LibrePCB/libs</text>
<text text-anchor="start" x="778" y="-28" font-family="Helvetica,sans-Serif" font-size="10.00">/librepcbproject/moc/moc</text>
<text text-anchor="middle" x="833" y="-15" font-family="Helvetica,sans-Serif" font-size="10.00">_projectlibrary.cpp</text>
</a>
</g>
<!-- Node1&#45;&gt;Node7 -->
<g id="edge12" class="edge"><title>Node1&#45;&gt;Node7</title>
<path fill="none" stroke="midnightblue" d="M833,-100.867C833,-89.6109 833,-77.5711 833,-67.0135"/>
<polygon fill="midnightblue" stroke="midnightblue" points="829.5,-100.919 833,-110.919 836.5,-100.919 829.5,-100.919"/>
</g>
<!-- Node8 -->
<g id="node15" class="node"><title>Node8</title>
<a xlink:href="../../df/d18/project_8cpp.html" target="_top" xlink:title="/home/travis/build\l/LibrePCB/LibrePCB/libs\l/librepcbproject/project.cpp">
<polygon fill="white" stroke="black" points="914,-13.5 914,-60.5 1048,-60.5 1048,-13.5 914,-13.5"/>
<text text-anchor="start" x="922" y="-47.5" font-family="Helvetica,sans-Serif" font-size="10.00">/home/travis/build</text>
<text text-anchor="start" x="922" y="-34.5" font-family="Helvetica,sans-Serif" font-size="10.00">/LibrePCB/LibrePCB/libs</text>
<text text-anchor="middle" x="981" y="-21.5" font-family="Helvetica,sans-Serif" font-size="10.00">/librepcbproject/project.cpp</text>
</a>
</g>
<!-- Node1&#45;&gt;Node8 -->
<g id="edge14" class="edge"><title>Node1&#45;&gt;Node8</title>
<path fill="none" stroke="midnightblue" d="M884.249,-104.987C905.085,-90.3454 928.588,-73.8301 947.211,-60.7436"/>
<polygon fill="midnightblue" stroke="midnightblue" points="881.977,-102.306 875.808,-110.919 886.002,-108.033 881.977,-102.306"/>
</g>
<!-- Node9 -->
<g id="node17" class="node"><title>Node9</title>
<a xlink:href="../../d0/da6/si__symbol_8cpp.html" target="_top" xlink:title="/home/travis/build\l/LibrePCB/LibrePCB/libs\l/librepcbproject/schematics\l/items/si_symbol.cpp">
<polygon fill="white" stroke="black" points="1066,-7 1066,-67 1202,-67 1202,-7 1066,-7"/>
<text text-anchor="start" x="1074" y="-54" font-family="Helvetica,sans-Serif" font-size="10.00">/home/travis/build</text>
<text text-anchor="start" x="1074" y="-41" font-family="Helvetica,sans-Serif" font-size="10.00">/LibrePCB/LibrePCB/libs</text>
<text text-anchor="start" x="1074" y="-28" font-family="Helvetica,sans-Serif" font-size="10.00">/librepcbproject/schematics</text>
<text text-anchor="middle" x="1134" y="-15" font-family="Helvetica,sans-Serif" font-size="10.00">/items/si_symbol.cpp</text>
</a>
</g>
<!-- Node1&#45;&gt;Node9 -->
<g id="edge16" class="edge"><title>Node1&#45;&gt;Node9</title>
<path fill="none" stroke="midnightblue" d="M905.507,-122.43C949.841,-110.31 1007.38,-93.2061 1057,-74 1062.39,-71.9122 1067.93,-69.6018 1073.44,-67.185"/>
<polygon fill="midnightblue" stroke="midnightblue" points="904.419,-119.098 895.683,-125.093 906.251,-125.854 904.419,-119.098"/>
</g>
<!-- Node10 -->
<g id="node19" class="node"><title>Node10</title>
<a xlink:href="../../de/dd2/unplacedcomponentsdock_8cpp.html" target="_top" xlink:title="/home/travis/build\l/LibrePCB/LibrePCB/libs\l/librepcbprojecteditor\l/boardeditor/unplacedcomponentsdock.cpp">
<polygon fill="white" stroke="black" points="1219.5,-7 1219.5,-67 1422.5,-67 1422.5,-7 1219.5,-7"/>
<text text-anchor="start" x="1227.5" y="-54" font-family="Helvetica,sans-Serif" font-size="10.00">/home/travis/build</text>
<text text-anchor="start" x="1227.5" y="-41" font-family="Helvetica,sans-Serif" font-size="10.00">/LibrePCB/LibrePCB/libs</text>
<text text-anchor="start" x="1227.5" y="-28" font-family="Helvetica,sans-Serif" font-size="10.00">/librepcbprojecteditor</text>
<text text-anchor="middle" x="1321" y="-15" font-family="Helvetica,sans-Serif" font-size="10.00">/boardeditor/unplacedcomponentsdock.cpp</text>
</a>
</g>
<!-- Node1&#45;&gt;Node10 -->
<g id="edge18" class="edge"><title>Node1&#45;&gt;Node10</title>
<path fill="none" stroke="midnightblue" d="M905.844,-131.38C982.472,-120.496 1106.25,-100.743 1211,-74 1219.1,-71.9317 1227.47,-69.5616 1235.8,-67.042"/>
<polygon fill="midnightblue" stroke="midnightblue" points="905.229,-127.932 895.814,-132.792 906.205,-134.864 905.229,-127.932"/>
</g>
<!-- Node11 -->
<g id="node21" class="node"><title>Node11</title>
<a xlink:href="../../da/d64/addgencompdialog_8cpp.html" target="_top" xlink:title="/home/travis/build\l/LibrePCB/LibrePCB/libs\l/librepcbprojecteditor\l/dialogs/addgencompdialog.cpp">
<polygon fill="white" stroke="black" points="1439.5,-7 1439.5,-67 1592.5,-67 1592.5,-7 1439.5,-7"/>
<text text-anchor="start" x="1447.5" y="-54" font-family="Helvetica,sans-Serif" font-size="10.00">/home/travis/build</text>
<text text-anchor="start" x="1447.5" y="-41" font-family="Helvetica,sans-Serif" font-size="10.00">/LibrePCB/LibrePCB/libs</text>
<text text-anchor="start" x="1447.5" y="-28" font-family="Helvetica,sans-Serif" font-size="10.00">/librepcbprojecteditor</text>
<text text-anchor="middle" x="1516" y="-15" font-family="Helvetica,sans-Serif" font-size="10.00">/dialogs/addgencompdialog.cpp</text>
</a>
</g>
<!-- Node1&#45;&gt;Node11 -->
<g id="edge20" class="edge"><title>Node1&#45;&gt;Node11</title>
<path fill="none" stroke="midnightblue" d="M905.774,-135.579C1042.67,-124.931 1333.52,-100.043 1431,-74 1438,-72.1306 1445.16,-69.7752 1452.22,-67.1624"/>
<polygon fill="midnightblue" stroke="midnightblue" points="905.491,-132.091 895.791,-136.352 906.031,-139.07 905.491,-132.091"/>
</g>
<!-- Node12 -->
<g id="node23" class="node"><title>Node12</title>
<a xlink:href="../../d8/df2/ses__addcomponents_8cpp.html" target="_top" xlink:title="/home/travis/build\l/LibrePCB/LibrePCB/libs\l/librepcbprojecteditor\l/schematiceditor/fsm/ses\l_addcomponents.cpp">
<polygon fill="white" stroke="black" points="1609.5,-0.5 1609.5,-73.5 1736.5,-73.5 1736.5,-0.5 1609.5,-0.5"/>
<text text-anchor="start" x="1617.5" y="-60.5" font-family="Helvetica,sans-Serif" font-size="10.00">/home/travis/build</text>
<text text-anchor="start" x="1617.5" y="-47.5" font-family="Helvetica,sans-Serif" font-size="10.00">/LibrePCB/LibrePCB/libs</text>
<text text-anchor="start" x="1617.5" y="-34.5" font-family="Helvetica,sans-Serif" font-size="10.00">/librepcbprojecteditor</text>
<text text-anchor="start" x="1617.5" y="-21.5" font-family="Helvetica,sans-Serif" font-size="10.00">/schematiceditor/fsm/ses</text>
<text text-anchor="middle" x="1673" y="-8.5" font-family="Helvetica,sans-Serif" font-size="10.00">_addcomponents.cpp</text>
</a>
</g>
<!-- Node1&#45;&gt;Node12 -->
<g id="edge22" class="edge"><title>Node1&#45;&gt;Node12</title>
<path fill="none" stroke="midnightblue" d="M905.816,-138.231C1071.37,-131.356 1471.66,-111.313 1601,-74 1603.7,-73.2209 1606.42,-72.3377 1609.14,-71.3714"/>
<polygon fill="midnightblue" stroke="midnightblue" points="905.579,-134.737 895.731,-138.645 905.866,-141.731 905.579,-134.737"/>
</g>
</g>
</svg>
