<?xml version="1.0" encoding="UTF-8" standalone="no"?>
<!DOCTYPE svg PUBLIC "-//W3C//DTD SVG 1.1//EN"
 "http://www.w3.org/Graphics/SVG/1.1/DTD/svg11.dtd">
<!-- Generated by graphviz version 2.26.3 (20100126.1600)
 -->
<!-- Title: /home/travis/build/LibrePCB/LibrePCB/libs/librepcbproject/schematics/items/si_netlabel.h Pages: 1 -->
<svg width="1632pt" height="180pt"
 viewBox="0.00 0.00 1632.00 180.00" xmlns="http://www.w3.org/2000/svg" xmlns:xlink="http://www.w3.org/1999/xlink">
<g id="graph1" class="graph" transform="scale(1 1) rotate(0) translate(4 176)">
<title>/home/travis/build/LibrePCB/LibrePCB/libs/librepcbproject/schematics/items/si_netlabel.h</title>
<polygon fill="white" stroke="white" points="-4,5 -4,-176 1629,-176 1629,5 -4,5"/>
<!-- Node1 -->
<g id="node1" class="node"><title>Node1</title>
<polygon fill="#bfbfbf" stroke="black" points="788,-111 788,-171 924,-171 924,-111 788,-111"/>
<text text-anchor="start" x="796" y="-158" font-family="Helvetica,sans-Serif" font-size="10.00">/home/travis/build</text>
<text text-anchor="start" x="796" y="-145" font-family="Helvetica,sans-Serif" font-size="10.00">/LibrePCB/LibrePCB/libs</text>
<text text-anchor="start" x="796" y="-132" font-family="Helvetica,sans-Serif" font-size="10.00">/librepcbproject/schematics</text>
<text text-anchor="middle" x="856" y="-119" font-family="Helvetica,sans-Serif" font-size="10.00">/items/si_netlabel.h</text>
</g>
<!-- Node2 -->
<g id="node3" class="node"><title>Node2</title>
<a xlink:href="../../df/d3c/netsignal_8cpp.html" target="_top" xlink:title="/home/travis/build\l/LibrePCB/LibrePCB/libs\l/librepcbproject/circuit\l/netsignal.cpp">
<polygon fill="white" stroke="black" points="-0.5,-7 -0.5,-67 124.5,-67 124.5,-7 -0.5,-7"/>
<text text-anchor="start" x="7.5" y="-54" font-family="Helvetica,sans-Serif" font-size="10.00">/home/travis/build</text>
<text text-anchor="start" x="7.5" y="-41" font-family="Helvetica,sans-Serif" font-size="10.00">/LibrePCB/LibrePCB/libs</text>
<text text-anchor="start" x="7.5" y="-28" font-family="Helvetica,sans-Serif" font-size="10.00">/librepcbproject/circuit</text>
<text text-anchor="middle" x="62" y="-15" font-family="Helvetica,sans-Serif" font-size="10.00">/netsignal.cpp</text>
</a>
</g>
<!-- Node1&#45;&gt;Node2 -->
<g id="edge2" class="edge"><title>Node1&#45;&gt;Node2</title>
<path fill="none" stroke="midnightblue" d="M777.592,-137.559C616.227,-129.855 252.139,-109.087 133,-74 126.733,-72.1544 120.374,-69.7394 114.168,-67.0262"/>
<polygon fill="midnightblue" stroke="midnightblue" points="777.769,-141.072 787.923,-138.048 778.1,-134.079 777.769,-141.072"/>
</g>
<!-- Node3 -->
<g id="node5" class="node"><title>Node3</title>
<a xlink:href="../../d3/d22/moc__si__netlabel_8cpp.html" target="_top" xlink:title="/home/travis/build\l/LibrePCB/LibrePCB/libs\l/librepcbproject/moc/moc\l_si_netlabel.cpp">
<polygon fill="white" stroke="black" points="142,-7 142,-67 268,-67 268,-7 142,-7"/>
<text text-anchor="start" x="150" y="-54" font-family="Helvetica,sans-Serif" font-size="10.00">/home/travis/build</text>
<text text-anchor="start" x="150" y="-41" font-family="Helvetica,sans-Serif" font-size="10.00">/LibrePCB/LibrePCB/libs</text>
<text text-anchor="start" x="150" y="-28" font-family="Helvetica,sans-Serif" font-size="10.00">/librepcbproject/moc/moc</text>
<text text-anchor="middle" x="205" y="-15" font-family="Helvetica,sans-Serif" font-size="10.00">_si_netlabel.cpp</text>
</a>
</g>
<!-- Node1&#45;&gt;Node3 -->
<g id="edge4" class="edge"><title>Node1&#45;&gt;Node3</title>
<path fill="none" stroke="midnightblue" d="M777.53,-135.418C641.749,-125.178 368.709,-101.862 277,-74 270.814,-72.1207 264.527,-69.7222 258.374,-67.0516"/>
<polygon fill="midnightblue" stroke="midnightblue" points="777.623,-138.935 787.857,-136.192 778.146,-131.954 777.623,-138.935"/>
</g>
<!-- Node4 -->
<g id="node7" class="node"><title>Node4</title>
<a xlink:href="../../d0/d3d/cmdschematicnetlabeladd_8cpp.html" target="_top" xlink:title="/home/travis/build\l/LibrePCB/LibrePCB/libs\l/librepcbproject/schematics\l/cmd/cmdschematicnetlabeladd.cpp">
<polygon fill="white" stroke="black" points="285.5,-7 285.5,-67 458.5,-67 458.5,-7 285.5,-7"/>
<text text-anchor="start" x="293.5" y="-54" font-family="Helvetica,sans-Serif" font-size="10.00">/home/travis/build</text>
<text text-anchor="start" x="293.5" y="-41" font-family="Helvetica,sans-Serif" font-size="10.00">/LibrePCB/LibrePCB/libs</text>
<text text-anchor="start" x="293.5" y="-28" font-family="Helvetica,sans-Serif" font-size="10.00">/librepcbproject/schematics</text>
<text text-anchor="middle" x="372" y="-15" font-family="Helvetica,sans-Serif" font-size="10.00">/cmd/cmdschematicnetlabeladd.cpp</text>
</a>
</g>
<!-- Node1&#45;&gt;Node4 -->
<g id="edge6" class="edge"><title>Node1&#45;&gt;Node4</title>
<path fill="none" stroke="midnightblue" d="M777.582,-132.195C698.287,-122.199 572.687,-103.362 467,-74 459.752,-71.9864 452.292,-69.6216 444.891,-67.0778"/>
<polygon fill="midnightblue" stroke="midnightblue" points="777.62,-135.726 787.976,-133.488 778.485,-128.78 777.62,-135.726"/>
</g>
<!-- Node5 -->
<g id="node9" class="node"><title>Node5</title>
<a xlink:href="../../d7/dfb/cmdschematicnetlabeledit_8cpp.html" target="_top" xlink:title="/home/travis/build\l/LibrePCB/LibrePCB/libs\l/librepcbproject/schematics\l/cmd/cmdschematicnetlabeledit.cpp">
<polygon fill="white" stroke="black" points="475.5,-7 475.5,-67 648.5,-67 648.5,-7 475.5,-7"/>
<text text-anchor="start" x="483.5" y="-54" font-family="Helvetica,sans-Serif" font-size="10.00">/home/travis/build</text>
<text text-anchor="start" x="483.5" y="-41" font-family="Helvetica,sans-Serif" font-size="10.00">/LibrePCB/LibrePCB/libs</text>
<text text-anchor="start" x="483.5" y="-28" font-family="Helvetica,sans-Serif" font-size="10.00">/librepcbproject/schematics</text>
<text text-anchor="middle" x="562" y="-15" font-family="Helvetica,sans-Serif" font-size="10.00">/cmd/cmdschematicnetlabeledit.cpp</text>
</a>
</g>
<!-- Node1&#45;&gt;Node5 -->
<g id="edge8" class="edge"><title>Node1&#45;&gt;Node5</title>
<path fill="none" stroke="midnightblue" d="M777.893,-115.638C741.078,-103.445 696.636,-88.382 657,-74 650.844,-71.7662 644.483,-69.4052 638.104,-67.0004"/>
<polygon fill="midnightblue" stroke="midnightblue" points="776.978,-119.022 787.571,-118.835 779.174,-112.375 776.978,-119.022"/>
</g>
<!-- Node6 -->
<g id="node11" class="node"><title>Node6</title>
<a xlink:href="../../df/de9/cmdschematicnetlabelremove_8cpp.html" target="_top" xlink:title="/home/travis/build\l/LibrePCB/LibrePCB/libs\l/librepcbproject/schematics\l/cmd/cmdschematicnetlabelremove.cpp">
<polygon fill="white" stroke="black" points="666,-7 666,-67 856,-67 856,-7 666,-7"/>
<text text-anchor="start" x="674" y="-54" font-family="Helvetica,sans-Serif" font-size="10.00">/home/travis/build</text>
<text text-anchor="start" x="674" y="-41" font-family="Helvetica,sans-Serif" font-size="10.00">/LibrePCB/LibrePCB/libs</text>
<text text-anchor="start" x="674" y="-28" font-family="Helvetica,sans-Serif" font-size="10.00">/librepcbproject/schematics</text>
<text text-anchor="middle" x="761" y="-15" font-family="Helvetica,sans-Serif" font-size="10.00">/cmd/cmdschematicnetlabelremove.cpp</text>
</a>
</g>
<!-- Node1&#45;&gt;Node6 -->
<g id="edge10" class="edge"><title>Node1&#45;&gt;Node6</title>
<path fill="none" stroke="midnightblue" d="M821.532,-103.266C810.636,-91.3384 798.749,-78.3253 788.416,-67.0135"/>
<polygon fill="midnightblue" stroke="midnightblue" points="819.193,-105.896 828.522,-110.919 824.362,-101.175 819.193,-105.896"/>
</g>
<!-- Node7 -->
<g id="node13" class="node"><title>Node7</title>
<a xlink:href="../../d4/d9c/sgi__netlabel_8cpp.html" target="_top" xlink:title="/home/travis/build\l/LibrePCB/LibrePCB/libs\l/librepcbproject/schematics\l/graphicsitems/sgi_netlabel.cpp">
<polygon fill="white" stroke="black" points="874,-7 874,-67 1028,-67 1028,-7 874,-7"/>
<text text-anchor="start" x="882" y="-54" font-family="Helvetica,sans-Serif" font-size="10.00">/home/travis/build</text>
<text text-anchor="start" x="882" y="-41" font-family="Helvetica,sans-Serif" font-size="10.00">/LibrePCB/LibrePCB/libs</text>
<text text-anchor="start" x="882" y="-28" font-family="Helvetica,sans-Serif" font-size="10.00">/librepcbproject/schematics</text>
<text text-anchor="middle" x="951" y="-15" font-family="Helvetica,sans-Serif" font-size="10.00">/graphicsitems/sgi_netlabel.cpp</text>
</a>
</g>
<!-- Node1&#45;&gt;Node7 -->
<g id="edge12" class="edge"><title>Node1&#45;&gt;Node7</title>
<path fill="none" stroke="midnightblue" d="M890.468,-103.266C901.364,-91.3384 913.251,-78.3253 923.584,-67.0135"/>
<polygon fill="midnightblue" stroke="midnightblue" points="887.638,-101.175 883.478,-110.919 892.807,-105.896 887.638,-101.175"/>
</g>
<!-- Node8 -->
<g id="node15" class="node"><title>Node8</title>
<a xlink:href="../../d6/dad/si__netlabel_8cpp.html" target="_top" xlink:title="/home/travis/build\l/LibrePCB/LibrePCB/libs\l/librepcbproject/schematics\l/items/si_netlabel.cpp">
<polygon fill="white" stroke="black" points="1046,-7 1046,-67 1182,-67 1182,-7 1046,-7"/>
<text text-anchor="start" x="1054" y="-54" font-family="Helvetica,sans-Serif" font-size="10.00">/home/travis/build</text>
<text text-anchor="start" x="1054" y="-41" font-family="Helvetica,sans-Serif" font-size="10.00">/LibrePCB/LibrePCB/libs</text>
<text text-anchor="start" x="1054" y="-28" font-family="Helvetica,sans-Serif" font-size="10.00">/librepcbproject/schematics</text>
<text text-anchor="middle" x="1114" y="-15" font-family="Helvetica,sans-Serif" font-size="10.00">/items/si_netlabel.cpp</text>
</a>
</g>
<!-- Node1&#45;&gt;Node8 -->
<g id="edge14" class="edge"><title>Node1&#45;&gt;Node8</title>
<path fill="none" stroke="midnightblue" d="M933.87,-113.979C966.061,-102.344 1003.59,-88.1722 1037,-74 1042.19,-71.7989 1047.53,-69.436 1052.87,-67.0078"/>
<polygon fill="midnightblue" stroke="midnightblue" points="932.288,-110.829 924.062,-117.506 934.656,-117.416 932.288,-110.829"/>
</g>
<!-- Node9 -->
<g id="node17" class="node"><title>Node9</title>
<a xlink:href="../../dc/db2/schematic_8cpp.html" target="_top" xlink:title="/home/travis/build\l/LibrePCB/LibrePCB/libs\l/librepcbproject/schematics\l/schematic.cpp">
<polygon fill="white" stroke="black" points="1200,-7 1200,-67 1336,-67 1336,-7 1200,-7"/>
<text text-anchor="start" x="1208" y="-54" font-family="Helvetica,sans-Serif" font-size="10.00">/home/travis/build</text>
<text text-anchor="start" x="1208" y="-41" font-family="Helvetica,sans-Serif" font-size="10.00">/LibrePCB/LibrePCB/libs</text>
<text text-anchor="start" x="1208" y="-28" font-family="Helvetica,sans-Serif" font-size="10.00">/librepcbproject/schematics</text>
<text text-anchor="middle" x="1268" y="-15" font-family="Helvetica,sans-Serif" font-size="10.00">/schematic.cpp</text>
</a>
</g>
<!-- Node1&#45;&gt;Node9 -->
<g id="edge16" class="edge"><title>Node1&#45;&gt;Node9</title>
<path fill="none" stroke="midnightblue" d="M933.932,-131.065C1002.76,-120.968 1105.22,-102.682 1191,-74 1197.05,-71.9777 1203.24,-69.5909 1209.35,-67.019"/>
<polygon fill="midnightblue" stroke="midnightblue" points="933.424,-127.602 924.027,-132.496 934.425,-134.53 933.424,-127.602"/>
</g>
<!-- Node10 -->
<g id="node19" class="node"><title>Node10</title>
<a xlink:href="../../d3/dbd/ses__addnetlabel_8cpp.html" target="_top" xlink:title="/home/travis/build\l/LibrePCB/LibrePCB/libs\l/librepcbprojecteditor\l/schematiceditor/fsm/ses\l_addnetlabel.cpp">
<polygon fill="white" stroke="black" points="1353.5,-0.5 1353.5,-73.5 1480.5,-73.5 1480.5,-0.5 1353.5,-0.5"/>
<text text-anchor="start" x="1361.5" y="-60.5" font-family="Helvetica,sans-Serif" font-size="10.00">/home/travis/build</text>
<text text-anchor="start" x="1361.5" y="-47.5" font-family="Helvetica,sans-Serif" font-size="10.00">/LibrePCB/LibrePCB/libs</text>
<text text-anchor="start" x="1361.5" y="-34.5" font-family="Helvetica,sans-Serif" font-size="10.00">/librepcbprojecteditor</text>
<text text-anchor="start" x="1361.5" y="-21.5" font-family="Helvetica,sans-Serif" font-size="10.00">/schematiceditor/fsm/ses</text>
<text text-anchor="middle" x="1417" y="-8.5" font-family="Helvetica,sans-Serif" font-size="10.00">_addnetlabel.cpp</text>
</a>
</g>
<!-- Node1&#45;&gt;Node10 -->
<g id="edge18" class="edge"><title>Node1&#45;&gt;Node10</title>
<path fill="none" stroke="midnightblue" d="M934.137,-138.401C1032.18,-133.315 1204.5,-118.298 1345,-74 1347.81,-73.1125 1350.65,-72.1217 1353.49,-71.0504"/>
<polygon fill="midnightblue" stroke="midnightblue" points="933.826,-134.912 924.012,-138.904 934.173,-141.903 933.826,-134.912"/>
</g>
<!-- Node11 -->
<g id="node21" class="node"><title>Node11</title>
<a xlink:href="../../d5/d03/ses__select_8cpp.html" target="_top" xlink:title="/home/travis/build\l/LibrePCB/LibrePCB/libs\l/librepcbprojecteditor\l/schematiceditor/fsm/ses\l_select.cpp">
<polygon fill="white" stroke="black" points="1497.5,-0.5 1497.5,-73.5 1624.5,-73.5 1624.5,-0.5 1497.5,-0.5"/>
<text text-anchor="start" x="1505.5" y="-60.5" font-family="Helvetica,sans-Serif" font-size="10.00">/home/travis/build</text>
<text text-anchor="start" x="1505.5" y="-47.5" font-family="Helvetica,sans-Serif" font-size="10.00">/LibrePCB/LibrePCB/libs</text>
<text text-anchor="start" x="1505.5" y="-34.5" font-family="Helvetica,sans-Serif" font-size="10.00">/librepcbprojecteditor</text>
<text text-anchor="start" x="1505.5" y="-21.5" font-family="Helvetica,sans-Serif" font-size="10.00">/schematiceditor/fsm/ses</text>
<text text-anchor="middle" x="1561" y="-8.5" font-family="Helvetica,sans-Serif" font-size="10.00">_select.cpp</text>
</a>
</g>
<!-- Node1&#45;&gt;Node11 -->
<g id="edge20" class="edge"><title>Node1&#45;&gt;Node11</title>
<path fill="none" stroke="midnightblue" d="M934.418,-136.312C1080.11,-127.006 1387.01,-104.443 1489,-74 1491.69,-73.196 1494.41,-72.2919 1497.12,-71.3081"/>
<polygon fill="midnightblue" stroke="midnightblue" points="933.97,-132.833 924.211,-136.959 934.413,-139.819 933.97,-132.833"/>
</g>
</g>
</svg>
