<?xml version="1.0" encoding="UTF-8" standalone="no"?>
<!DOCTYPE svg PUBLIC "-//W3C//DTD SVG 1.1//EN"
 "http://www.w3.org/Graphics/SVG/1.1/DTD/svg11.dtd">
<!-- Generated by graphviz version 2.26.3 (20100126.1600)
 -->
<!-- Title: /home/travis/build/LibrePCB/LibrePCB/libs/librepcbprojecteditor/moc/moc_ercmsgdock.cpp Pages: 1 -->
<svg width="370pt" height="186pt"
 viewBox="0.00 0.00 370.00 186.00" xmlns="http://www.w3.org/2000/svg" xmlns:xlink="http://www.w3.org/1999/xlink">
<g id="graph1" class="graph" transform="scale(1 1) rotate(0) translate(4 182)">
<title>/home/travis/build/LibrePCB/LibrePCB/libs/librepcbprojecteditor/moc/moc_ercmsgdock.cpp</title>
<polygon fill="white" stroke="white" points="-4,5 -4,-182 367,-182 367,5 -4,5"/>
<!-- Node1 -->
<g id="node1" class="node"><title>Node1</title>
<polygon fill="#bfbfbf" stroke="black" points="119.5,-117 119.5,-177 256.5,-177 256.5,-117 119.5,-117"/>
<text text-anchor="start" x="127.5" y="-164" font-family="Helvetica,sans-Serif" font-size="10.00">/home/travis/build</text>
<text text-anchor="start" x="127.5" y="-151" font-family="Helvetica,sans-Serif" font-size="10.00">/LibrePCB/LibrePCB/libs</text>
<text text-anchor="start" x="127.5" y="-138" font-family="Helvetica,sans-Serif" font-size="10.00">/librepcbprojecteditor</text>
<text text-anchor="middle" x="188" y="-125" font-family="Helvetica,sans-Serif" font-size="10.00">/moc/moc_ercmsgdock.cpp</text>
</g>
<!-- Node2 -->
<g id="node3" class="node"><title>Node2</title>
<a xlink:href="../../d2/d6c/ercmsgdock_8h.html" target="_top" xlink:title="../docks/ercmsgdock.h">
<polygon fill="white" stroke="black" points="2,-58.5 2,-79.5 118,-79.5 118,-58.5 2,-58.5"/>
<text text-anchor="middle" x="60" y="-66.5" font-family="Helvetica,sans-Serif" font-size="10.00">../docks/ercmsgdock.h</text>
</a>
</g>
<!-- Node1&#45;&gt;Node2 -->
<g id="edge2" class="edge"><title>Node1&#45;&gt;Node2</title>
<path fill="none" stroke="midnightblue" d="M138.512,-116.843C120.685,-105.98 101.272,-94.15 86.2099,-84.9716"/>
<polygon fill="midnightblue" stroke="midnightblue" points="87.8077,-81.8467 77.447,-79.6317 84.1651,-87.8243 87.8077,-81.8467"/>
</g>
<!-- Node5 -->
<g id="node9" class="node"><title>Node5</title>
<polygon fill="white" stroke="#bfbfbf" points="135.5,-58.5 135.5,-79.5 240.5,-79.5 240.5,-58.5 135.5,-58.5"/>
<text text-anchor="middle" x="188" y="-66.5" font-family="Helvetica,sans-Serif" font-size="10.00">QtCore/qbytearray.h</text>
</g>
<!-- Node1&#45;&gt;Node5 -->
<g id="edge8" class="edge"><title>Node1&#45;&gt;Node5</title>
<path fill="none" stroke="midnightblue" d="M188,-116.62C188,-107.68 188,-98.1035 188,-89.9002"/>
<polygon fill="midnightblue" stroke="midnightblue" points="191.5,-89.7534 188,-79.7535 184.5,-89.7535 191.5,-89.7534"/>
</g>
<!-- Node6 -->
<g id="node11" class="node"><title>Node6</title>
<polygon fill="white" stroke="#bfbfbf" points="257.5,-58.5 257.5,-79.5 362.5,-79.5 362.5,-58.5 257.5,-58.5"/>
<text text-anchor="middle" x="310" y="-66.5" font-family="Helvetica,sans-Serif" font-size="10.00">QtCore/qmetatype.h</text>
</g>
<!-- Node1&#45;&gt;Node6 -->
<g id="edge10" class="edge"><title>Node1&#45;&gt;Node6</title>
<path fill="none" stroke="midnightblue" d="M235.168,-116.843C252,-106.082 270.314,-94.3732 284.611,-85.2321"/>
<polygon fill="midnightblue" stroke="midnightblue" points="286.831,-87.9672 293.371,-79.6317 283.06,-82.0696 286.831,-87.9672"/>
</g>
<!-- Node3 -->
<g id="node5" class="node"><title>Node3</title>
<polygon fill="white" stroke="#bfbfbf" points="0,-0.5 0,-21.5 48,-21.5 48,-0.5 0,-0.5"/>
<text text-anchor="middle" x="24" y="-8.5" font-family="Helvetica,sans-Serif" font-size="10.00">QtCore</text>
</g>
<!-- Node2&#45;&gt;Node3 -->
<g id="edge4" class="edge"><title>Node2&#45;&gt;Node3</title>
<path fill="none" stroke="midnightblue" d="M53.397,-58.3619C48.5254,-50.5131 41.7616,-39.6159 35.95,-30.2527"/>
<polygon fill="midnightblue" stroke="midnightblue" points="38.8085,-28.2213 30.5611,-21.5707 32.861,-31.9129 38.8085,-28.2213"/>
</g>
<!-- Node4 -->
<g id="node7" class="node"><title>Node4</title>
<polygon fill="white" stroke="#bfbfbf" points="65.5,-0.5 65.5,-21.5 128.5,-21.5 128.5,-0.5 65.5,-0.5"/>
<text text-anchor="middle" x="97" y="-8.5" font-family="Helvetica,sans-Serif" font-size="10.00">QtWidgets</text>
</g>
<!-- Node2&#45;&gt;Node4 -->
<g id="edge6" class="edge"><title>Node2&#45;&gt;Node4</title>
<path fill="none" stroke="midnightblue" d="M66.7864,-58.3619C71.7934,-50.5131 78.745,-39.6159 84.7181,-30.2527"/>
<polygon fill="midnightblue" stroke="midnightblue" points="87.8292,-31.8837 90.2567,-21.5707 81.9277,-28.1189 87.8292,-31.8837"/>
</g>
</g>
</svg>
