<?xml version="1.0" encoding="UTF-8" standalone="no"?>
<!DOCTYPE svg PUBLIC "-//W3C//DTD SVG 1.1//EN"
 "http://www.w3.org/Graphics/SVG/1.1/DTD/svg11.dtd">
<!-- Generated by graphviz version 2.26.3 (20100126.1600)
 -->
<!-- Title: /home/travis/build/LibrePCB/LibrePCB/libs/librepcblibrary/moc/moc_spicemodel.cpp Pages: 1 -->
<svg width="525pt" height="446pt"
 viewBox="0.00 0.00 525.00 446.00" xmlns="http://www.w3.org/2000/svg" xmlns:xlink="http://www.w3.org/1999/xlink">
<g id="graph1" class="graph" transform="scale(1 1) rotate(0) translate(4 442)">
<title>/home/travis/build/LibrePCB/LibrePCB/libs/librepcblibrary/moc/moc_spicemodel.cpp</title>
<polygon fill="white" stroke="white" points="-4,5 -4,-442 522,-442 522,5 -4,5"/>
<!-- Node1 -->
<g id="node1" class="node"><title>Node1</title>
<polygon fill="#bfbfbf" stroke="black" points="125.5,-377 125.5,-437 250.5,-437 250.5,-377 125.5,-377"/>
<text text-anchor="start" x="133.5" y="-424" font-family="Helvetica,sans-Serif" font-size="10.00">/home/travis/build</text>
<text text-anchor="start" x="133.5" y="-411" font-family="Helvetica,sans-Serif" font-size="10.00">/LibrePCB/LibrePCB/libs</text>
<text text-anchor="start" x="133.5" y="-398" font-family="Helvetica,sans-Serif" font-size="10.00">/librepcblibrary/moc/moc</text>
<text text-anchor="middle" x="188" y="-385" font-family="Helvetica,sans-Serif" font-size="10.00">_spicemodel.cpp</text>
</g>
<!-- Node2 -->
<g id="node3" class="node"><title>Node2</title>
<a xlink:href="../../d3/d84/spicemodel_8h.html" target="_top" xlink:title="../spcmdl/spicemodel.h">
<polygon fill="white" stroke="black" points="0,-318.5 0,-339.5 118,-339.5 118,-318.5 0,-318.5"/>
<text text-anchor="middle" x="59" y="-326.5" font-family="Helvetica,sans-Serif" font-size="10.00">../spcmdl/spicemodel.h</text>
</a>
</g>
<!-- Node1&#45;&gt;Node2 -->
<g id="edge2" class="edge"><title>Node1&#45;&gt;Node2</title>
<path fill="none" stroke="midnightblue" d="M138.125,-376.843C120.159,-365.98 100.594,-354.15 85.4146,-344.972"/>
<polygon fill="midnightblue" stroke="midnightblue" points="86.9516,-341.811 76.5833,-339.632 83.3296,-347.801 86.9516,-341.811"/>
</g>
<!-- Node11 -->
<g id="node26" class="node"><title>Node11</title>
<polygon fill="white" stroke="#bfbfbf" points="135.5,-318.5 135.5,-339.5 240.5,-339.5 240.5,-318.5 135.5,-318.5"/>
<text text-anchor="middle" x="188" y="-326.5" font-family="Helvetica,sans-Serif" font-size="10.00">QtCore/qbytearray.h</text>
</g>
<!-- Node1&#45;&gt;Node11 -->
<g id="edge30" class="edge"><title>Node1&#45;&gt;Node11</title>
<path fill="none" stroke="midnightblue" d="M188,-376.62C188,-367.68 188,-358.103 188,-349.9"/>
<polygon fill="midnightblue" stroke="midnightblue" points="191.5,-349.753 188,-339.753 184.5,-349.753 191.5,-349.753"/>
</g>
<!-- Node12 -->
<g id="node28" class="node"><title>Node12</title>
<polygon fill="white" stroke="#bfbfbf" points="257.5,-318.5 257.5,-339.5 362.5,-339.5 362.5,-318.5 257.5,-318.5"/>
<text text-anchor="middle" x="310" y="-326.5" font-family="Helvetica,sans-Serif" font-size="10.00">QtCore/qmetatype.h</text>
</g>
<!-- Node1&#45;&gt;Node12 -->
<g id="edge32" class="edge"><title>Node1&#45;&gt;Node12</title>
<path fill="none" stroke="midnightblue" d="M235.168,-376.843C252,-366.082 270.314,-354.373 284.611,-345.232"/>
<polygon fill="midnightblue" stroke="midnightblue" points="286.831,-347.967 293.371,-339.632 283.06,-342.07 286.831,-347.967"/>
</g>
<!-- Node3 -->
<g id="node5" class="node"><title>Node3</title>
<polygon fill="white" stroke="#bfbfbf" points="177,-0.5 177,-21.5 225,-21.5 225,-0.5 177,-0.5"/>
<text text-anchor="middle" x="201" y="-8.5" font-family="Helvetica,sans-Serif" font-size="10.00">QtCore</text>
</g>
<!-- Node2&#45;&gt;Node3 -->
<g id="edge4" class="edge"><title>Node2&#45;&gt;Node3</title>
<path fill="none" stroke="midnightblue" d="M53.2188,-318.485C42.8125,-298.543 22,-253.586 22,-213 22,-213 22,-213 22,-148 22,-75.7247 115.164,-36.4291 167.068,-20.1448"/>
<polygon fill="midnightblue" stroke="midnightblue" points="168.296,-23.4303 176.859,-17.1918 166.275,-16.7285 168.296,-23.4303"/>
</g>
<!-- Node4 -->
<g id="node7" class="node"><title>Node4</title>
<a xlink:href="../../d0/db0/libraryelement_8h.html" target="_top" xlink:title="../libraryelement.h">
<polygon fill="white" stroke="black" points="49.5,-260.5 49.5,-281.5 144.5,-281.5 144.5,-260.5 49.5,-260.5"/>
<text text-anchor="middle" x="97" y="-268.5" font-family="Helvetica,sans-Serif" font-size="10.00">../libraryelement.h</text>
</a>
</g>
<!-- Node2&#45;&gt;Node4 -->
<g id="edge6" class="edge"><title>Node2&#45;&gt;Node4</title>
<path fill="none" stroke="midnightblue" d="M65.9698,-318.362C71.1657,-310.431 78.4006,-299.389 84.5775,-289.961"/>
<polygon fill="midnightblue" stroke="midnightblue" points="87.5217,-291.853 90.0744,-281.571 81.6665,-288.017 87.5217,-291.853"/>
</g>
<!-- Node4&#45;&gt;Node3 -->
<g id="edge8" class="edge"><title>Node4&#45;&gt;Node3</title>
<path fill="none" stroke="midnightblue" d="M92.0589,-260.247C81.6543,-235.98 59.9553,-175.533 79,-130 98.1413,-84.2359 144.537,-47.3748 174.28,-27.3837"/>
<polygon fill="midnightblue" stroke="midnightblue" points="176.472,-30.1319 182.927,-21.7301 172.642,-24.273 176.472,-30.1319"/>
</g>
<!-- Node5 -->
<g id="node10" class="node"><title>Node5</title>
<a xlink:href="../../de/dd7/librarybaseelement_8h.html" target="_top" xlink:title="librarybaseelement.h">
<polygon fill="white" stroke="black" points="214.5,-202.5 214.5,-223.5 321.5,-223.5 321.5,-202.5 214.5,-202.5"/>
<text text-anchor="middle" x="268" y="-210.5" font-family="Helvetica,sans-Serif" font-size="10.00">librarybaseelement.h</text>
</a>
</g>
<!-- Node4&#45;&gt;Node5 -->
<g id="edge10" class="edge"><title>Node4&#45;&gt;Node5</title>
<path fill="none" stroke="midnightblue" d="M127.967,-260.497C155.844,-251.041 196.997,-237.083 227.482,-226.743"/>
<polygon fill="midnightblue" stroke="midnightblue" points="228.629,-230.05 236.975,-223.523 226.381,-223.421 228.629,-230.05"/>
</g>
<!-- Node6 -->
<g id="node12" class="node"><title>Node6</title>
<polygon fill="white" stroke="#bfbfbf" points="87.5,-137.5 87.5,-158.5 140.5,-158.5 140.5,-137.5 87.5,-137.5"/>
<text text-anchor="middle" x="114" y="-145.5" font-family="Helvetica,sans-Serif" font-size="10.00">QObject</text>
</g>
<!-- Node5&#45;&gt;Node6 -->
<g id="edge12" class="edge"><title>Node5&#45;&gt;Node6</title>
<path fill="none" stroke="midnightblue" d="M238.81,-202.393C214.512,-193.344 179.145,-179.664 149,-166 146.977,-165.083 144.904,-164.109 142.826,-163.107"/>
<polygon fill="midnightblue" stroke="midnightblue" points="144.335,-159.948 133.823,-158.625 141.215,-166.215 144.335,-159.948"/>
</g>
<!-- Node7 -->
<g id="node14" class="node"><title>Node7</title>
<a xlink:href="../../d0/d1d/if__xmlserializableobject_8h.html" target="_top" xlink:title="librepcbcommon/fileio\l/if_xmlserializableobject.h">
<polygon fill="white" stroke="black" points="157.5,-131 157.5,-165 286.5,-165 286.5,-131 157.5,-131"/>
<text text-anchor="start" x="165.5" y="-152" font-family="Helvetica,sans-Serif" font-size="10.00">librepcbcommon/fileio</text>
<text text-anchor="middle" x="222" y="-139" font-family="Helvetica,sans-Serif" font-size="10.00">/if_xmlserializableobject.h</text>
</a>
</g>
<!-- Node5&#45;&gt;Node7 -->
<g id="edge14" class="edge"><title>Node5&#45;&gt;Node7</title>
<path fill="none" stroke="midnightblue" d="M260.404,-202.267C254.878,-194.458 247.156,-183.546 240.084,-173.554"/>
<polygon fill="midnightblue" stroke="midnightblue" points="242.742,-171.251 234.109,-165.11 237.028,-175.294 242.742,-171.251"/>
</g>
<!-- Node8 -->
<g id="node16" class="node"><title>Node8</title>
<a xlink:href="../../d4/d03/exceptions_8h.html" target="_top" xlink:title="../exceptions.h">
<polygon fill="white" stroke="black" points="160.5,-65.5 160.5,-86.5 241.5,-86.5 241.5,-65.5 160.5,-65.5"/>
<text text-anchor="middle" x="201" y="-73.5" font-family="Helvetica,sans-Serif" font-size="10.00">../exceptions.h</text>
</a>
</g>
<!-- Node5&#45;&gt;Node8 -->
<g id="edge20" class="edge"><title>Node5&#45;&gt;Node8</title>
<path fill="none" stroke="midnightblue" d="M276.723,-202.456C289.125,-186.101 308.891,-154 295,-130 288.133,-118.136 258.647,-102.291 234.506,-90.8351"/>
<polygon fill="midnightblue" stroke="midnightblue" points="235.783,-87.5692 225.24,-86.5249 232.831,-93.9161 235.783,-87.5692"/>
</g>
<!-- Node9 -->
<g id="node20" class="node"><title>Node9</title>
<a xlink:href="../../dd/dec/filepath_8h.html" target="_top" xlink:title="librepcbcommon/fileio\l/filepath.h">
<polygon fill="white" stroke="black" points="258.5,-59 258.5,-93 369.5,-93 369.5,-59 258.5,-59"/>
<text text-anchor="start" x="266.5" y="-80" font-family="Helvetica,sans-Serif" font-size="10.00">librepcbcommon/fileio</text>
<text text-anchor="middle" x="314" y="-67" font-family="Helvetica,sans-Serif" font-size="10.00">/filepath.h</text>
</a>
</g>
<!-- Node5&#45;&gt;Node9 -->
<g id="edge22" class="edge"><title>Node5&#45;&gt;Node9</title>
<path fill="none" stroke="midnightblue" d="M289.998,-202.365C303.68,-194.433 320.122,-182.179 328,-166 337.683,-146.116 332.606,-121.095 326.008,-102.485"/>
<polygon fill="midnightblue" stroke="midnightblue" points="329.262,-101.195 322.379,-93.1394 322.736,-103.728 329.262,-101.195"/>
</g>
<!-- Node10 -->
<g id="node23" class="node"><title>Node10</title>
<a xlink:href="../../df/dfc/version_8h.html" target="_top" xlink:title="librepcbcommon/version.h">
<polygon fill="white" stroke="black" points="386.5,-65.5 386.5,-86.5 517.5,-86.5 517.5,-65.5 386.5,-65.5"/>
<text text-anchor="middle" x="452" y="-73.5" font-family="Helvetica,sans-Serif" font-size="10.00">librepcbcommon/version.h</text>
</a>
</g>
<!-- Node5&#45;&gt;Node10 -->
<g id="edge26" class="edge"><title>Node5&#45;&gt;Node10</title>
<path fill="none" stroke="midnightblue" d="M286.588,-202.495C302.272,-193.401 325.119,-179.602 344,-166 376.518,-142.574 411.753,-112.172 432.842,-93.3811"/>
<polygon fill="midnightblue" stroke="midnightblue" points="435.345,-95.8376 440.453,-86.5553 430.672,-90.6264 435.345,-95.8376"/>
</g>
<!-- Node7&#45;&gt;Node8 -->
<g id="edge16" class="edge"><title>Node7&#45;&gt;Node8</title>
<path fill="none" stroke="midnightblue" d="M217.023,-130.937C214.04,-120.707 210.224,-107.625 207.065,-96.7937"/>
<polygon fill="midnightblue" stroke="midnightblue" points="210.34,-95.521 204.179,-86.901 203.62,-97.4811 210.34,-95.521"/>
</g>
<!-- Node8&#45;&gt;Node3 -->
<g id="edge18" class="edge"><title>Node8&#45;&gt;Node3</title>
<path fill="none" stroke="midnightblue" d="M201,-65.2666C201,-56.1799 201,-42.8919 201,-31.7395"/>
<polygon fill="midnightblue" stroke="midnightblue" points="204.5,-31.5337 201,-21.5337 197.5,-31.5337 204.5,-31.5337"/>
</g>
<!-- Node9&#45;&gt;Node3 -->
<g id="edge24" class="edge"><title>Node9&#45;&gt;Node3</title>
<path fill="none" stroke="midnightblue" d="M284.311,-58.922C266.986,-48.9566 245.284,-36.4729 228.373,-26.7455"/>
<polygon fill="midnightblue" stroke="midnightblue" points="229.943,-23.6107 219.529,-21.6584 226.452,-29.6785 229.943,-23.6107"/>
</g>
<!-- Node10&#45;&gt;Node3 -->
<g id="edge28" class="edge"><title>Node10&#45;&gt;Node3</title>
<path fill="none" stroke="midnightblue" d="M411.394,-65.4844C362.377,-52.7908 280.834,-31.6742 234.989,-19.8019"/>
<polygon fill="midnightblue" stroke="midnightblue" points="235.787,-16.3932 225.229,-17.2744 234.032,-23.1697 235.787,-16.3932"/>
</g>
</g>
</svg>
