<?xml version="1.0" encoding="UTF-8" standalone="no"?>
<!DOCTYPE svg PUBLIC "-//W3C//DTD SVG 1.1//EN"
 "http://www.w3.org/Graphics/SVG/1.1/DTD/svg11.dtd">
<!-- Generated by graphviz version 2.26.3 (20100126.1600)
 -->
<!-- Title: isVisible Pages: 1 -->
<svg width="220pt" height="250pt"
 viewBox="0.00 0.00 220.00 250.00" xmlns="http://www.w3.org/2000/svg" xmlns:xlink="http://www.w3.org/1999/xlink">
<g id="graph1" class="graph" transform="scale(1 1) rotate(0) translate(4 246)">
<title>isVisible</title>
<polygon fill="white" stroke="white" points="-4,5 -4,-246 217,-246 217,5 -4,5"/>
<!-- Node1 -->
<g id="node1" class="node"><title>Node1</title>
<polygon fill="#bfbfbf" stroke="black" points="0.5,-110.5 0.5,-131.5 53.5,-131.5 53.5,-110.5 0.5,-110.5"/>
<text text-anchor="middle" x="27" y="-118.5" font-family="Helvetica,sans-Serif" font-size="10.00">isVisible</text>
</g>
<!-- Node2 -->
<g id="node3" class="node"><title>Node2</title>
<a xlink:href="../../d1/d60/classproject_1_1_s_g_i___net_label.html#ac7e6c577486dbb0f61b2bf88f01d8ff0" target="_top" xlink:title="project::SGI_NetLabel\l::paint">
<polygon fill="white" stroke="black" points="94.5,-208 94.5,-242 207.5,-242 207.5,-208 94.5,-208"/>
<text text-anchor="start" x="102.5" y="-229" font-family="Helvetica,sans-Serif" font-size="10.00">project::SGI_NetLabel</text>
<text text-anchor="middle" x="151" y="-216" font-family="Helvetica,sans-Serif" font-size="10.00">::paint</text>
</a>
</g>
<!-- Node1&#45;&gt;Node2 -->
<g id="edge2" class="edge"><title>Node1&#45;&gt;Node2</title>
<path fill="none" stroke="midnightblue" d="M38.7594,-140.446C50.0618,-157.763 68.5569,-182.795 90,-199 94.4085,-202.332 99.3084,-205.328 104.36,-207.998"/>
<polygon fill="midnightblue" stroke="midnightblue" points="41.5486,-138.308 33.2472,-131.725 35.6314,-142.048 41.5486,-138.308"/>
</g>
<!-- Node3 -->
<g id="node5" class="node"><title>Node3</title>
<a xlink:href="../../df/dd1/classproject_1_1_s_g_i___net_line.html#ac7e6c577486dbb0f61b2bf88f01d8ff0" target="_top" xlink:title="project::SGI_NetLine\l::paint">
<polygon fill="white" stroke="black" points="97,-156 97,-190 205,-190 205,-156 97,-156"/>
<text text-anchor="start" x="105" y="-177" font-family="Helvetica,sans-Serif" font-size="10.00">project::SGI_NetLine</text>
<text text-anchor="middle" x="151" y="-164" font-family="Helvetica,sans-Serif" font-size="10.00">::paint</text>
</a>
</g>
<!-- Node1&#45;&gt;Node3 -->
<g id="edge4" class="edge"><title>Node1&#45;&gt;Node3</title>
<path fill="none" stroke="midnightblue" d="M61.5898,-135.505C76.7149,-141.848 94.565,-149.334 110.323,-155.942"/>
<polygon fill="midnightblue" stroke="midnightblue" points="62.6688,-132.163 52.0933,-131.523 59.9616,-138.618 62.6688,-132.163"/>
</g>
<!-- Node4 -->
<g id="node7" class="node"><title>Node4</title>
<a xlink:href="../../da/db5/classproject_1_1_s_g_i___net_point.html#ac7e6c577486dbb0f61b2bf88f01d8ff0" target="_top" xlink:title="project::SGI_NetPoint\l::paint">
<polygon fill="white" stroke="black" points="94.5,-104 94.5,-138 207.5,-138 207.5,-104 94.5,-104"/>
<text text-anchor="start" x="102.5" y="-125" font-family="Helvetica,sans-Serif" font-size="10.00">project::SGI_NetPoint</text>
<text text-anchor="middle" x="151" y="-112" font-family="Helvetica,sans-Serif" font-size="10.00">::paint</text>
</a>
</g>
<!-- Node1&#45;&gt;Node4 -->
<g id="edge6" class="edge"><title>Node1&#45;&gt;Node4</title>
<path fill="none" stroke="midnightblue" d="M63.6304,-121C73.2839,-121 83.929,-121 94.3694,-121"/>
<polygon fill="midnightblue" stroke="midnightblue" points="63.6011,-117.5 53.6011,-121 63.6011,-124.5 63.6011,-117.5"/>
</g>
<!-- Node5 -->
<g id="node9" class="node"><title>Node5</title>
<a xlink:href="../../dd/d00/classproject_1_1_s_g_i___symbol.html#aa77fc5d2da89e1f09b09f7c6724ed721" target="_top" xlink:title="project::SGI_Symbol\l::paint">
<polygon fill="white" stroke="black" points="97.5,-52 97.5,-86 204.5,-86 204.5,-52 97.5,-52"/>
<text text-anchor="start" x="105.5" y="-73" font-family="Helvetica,sans-Serif" font-size="10.00">project::SGI_Symbol</text>
<text text-anchor="middle" x="151" y="-60" font-family="Helvetica,sans-Serif" font-size="10.00">::paint</text>
</a>
</g>
<!-- Node1&#45;&gt;Node5 -->
<g id="edge8" class="edge"><title>Node1&#45;&gt;Node5</title>
<path fill="none" stroke="midnightblue" d="M61.5898,-106.495C76.7149,-100.152 94.565,-92.6663 110.323,-86.0582"/>
<polygon fill="midnightblue" stroke="midnightblue" points="59.9616,-103.382 52.0933,-110.477 62.6688,-109.837 59.9616,-103.382"/>
</g>
<!-- Node6 -->
<g id="node11" class="node"><title>Node6</title>
<a xlink:href="../../da/d6f/classproject_1_1_s_g_i___symbol_pin.html#aa77fc5d2da89e1f09b09f7c6724ed721" target="_top" xlink:title="project::SGI_SymbolPin\l::paint">
<polygon fill="white" stroke="black" points="90,-0 90,-34 212,-34 212,-0 90,-0"/>
<text text-anchor="start" x="98" y="-21" font-family="Helvetica,sans-Serif" font-size="10.00">project::SGI_SymbolPin</text>
<text text-anchor="middle" x="151" y="-8" font-family="Helvetica,sans-Serif" font-size="10.00">::paint</text>
</a>
</g>
<!-- Node1&#45;&gt;Node6 -->
<g id="edge10" class="edge"><title>Node1&#45;&gt;Node6</title>
<path fill="none" stroke="midnightblue" d="M38.7594,-101.554C50.0618,-84.2374 68.5569,-59.2048 90,-43 94.4085,-39.6684 99.3084,-36.6721 104.36,-34.0025"/>
<polygon fill="midnightblue" stroke="midnightblue" points="35.6314,-99.9517 33.2472,-110.275 41.5486,-103.692 35.6314,-99.9517"/>
</g>
</g>
</svg>
