<?xml version="1.0" encoding="UTF-8" standalone="no"?>
<!DOCTYPE svg PUBLIC "-//W3C//DTD SVG 1.1//EN"
 "http://www.w3.org/Graphics/SVG/1.1/DTD/svg11.dtd">
<!-- Generated by graphviz version 2.26.3 (20100126.1600)
 -->
<!-- Title: mappedToGrid Pages: 1 -->
<svg width="190pt" height="48pt"
 viewBox="0.00 0.00 190.00 48.00" xmlns="http://www.w3.org/2000/svg" xmlns:xlink="http://www.w3.org/1999/xlink">
<g id="graph1" class="graph" transform="scale(1 1) rotate(0) translate(4 44)">
<title>mappedToGrid</title>
<polygon fill="white" stroke="white" points="-4,5 -4,-44 187,-44 187,5 -4,5"/>
<!-- Node1 -->
<g id="node1" class="node"><title>Node1</title>
<polygon fill="#bfbfbf" stroke="black" points="0,-0.5 0,-21.5 80,-21.5 80,-0.5 0,-0.5"/>
<text text-anchor="middle" x="40" y="-8.5" font-family="Helvetica,sans-Serif" font-size="10.00">mappedToGrid</text>
</g>
<!-- Node2 -->
<g id="node3" class="node"><title>Node2</title>
<a xlink:href="../../d0/d69/class_point.html#aaf8d7a6826dcd72e03dc632960106b90" target="_top" xlink:title="Map this Point object to a specific grid interval. ">
<polygon fill="white" stroke="black" points="116.5,-0.5 116.5,-21.5 181.5,-21.5 181.5,-0.5 116.5,-0.5"/>
<text text-anchor="middle" x="149" y="-8.5" font-family="Helvetica,sans-Serif" font-size="10.00">mapToGrid</text>
</a>
</g>
<!-- Node1&#45;&gt;Node2 -->
<g id="edge2" class="edge"><title>Node1&#45;&gt;Node2</title>
<path fill="none" stroke="midnightblue" d="M80.2779,-11C88.7283,-11 97.6693,-11 106.208,-11"/>
<polygon fill="midnightblue" stroke="midnightblue" points="106.363,-14.5001 116.363,-11 106.363,-7.5001 106.363,-14.5001"/>
</g>
<!-- Node2&#45;&gt;Node2 -->
<g id="edge4" class="edge"><title>Node2&#45;&gt;Node2</title>
<path fill="none" stroke="midnightblue" d="M131.84,-21.7079C124.507,-30.6531 130.227,-40 149,-40 160.733,-40 167.368,-36.3489 168.903,-31.4266"/>
<polygon fill="midnightblue" stroke="midnightblue" points="172.245,-30.3811 166.16,-21.7079 165.508,-32.2826 172.245,-30.3811"/>
</g>
</g>
</svg>
