<?xml version="1.0" encoding="UTF-8" standalone="no"?>
<!DOCTYPE svg PUBLIC "-//W3C//DTD SVG 1.1//EN"
 "http://www.w3.org/Graphics/SVG/1.1/DTD/svg11.dtd">
<!-- Generated by graphviz version 2.26.3 (20100126.1600)
 -->
<!-- Title: mappedToGrid Pages: 1 -->
<svg width="482pt" height="42pt"
 viewBox="0.00 0.00 482.00 42.00" xmlns="http://www.w3.org/2000/svg" xmlns:xlink="http://www.w3.org/1999/xlink">
<g id="graph1" class="graph" transform="scale(1 1) rotate(0) translate(4 38)">
<title>mappedToGrid</title>
<polygon fill="white" stroke="white" points="-4,5 -4,-38 479,-38 479,5 -4,5"/>
<!-- Node1 -->
<g id="node1" class="node"><title>Node1</title>
<polygon fill="#bfbfbf" stroke="black" points="0,-6.5 0,-27.5 80,-27.5 80,-6.5 0,-6.5"/>
<text text-anchor="middle" x="40" y="-14.5" font-family="Helvetica,sans-Serif" font-size="10.00">mappedToGrid</text>
</g>
<!-- Node2 -->
<g id="node3" class="node"><title>Node2</title>
<a xlink:href="../../dc/dbb/classproject_1_1_unplaced_components_dock.html#a5c8f1dac9d4bbb3d9985ca4d9d3c99bb" target="_top" xlink:title="project::UnplacedComponents\lDock::setBoard">
<polygon fill="white" stroke="black" points="116.5,-0 116.5,-34 265.5,-34 265.5,-0 116.5,-0"/>
<text text-anchor="start" x="124.5" y="-21" font-family="Helvetica,sans-Serif" font-size="10.00">project::UnplacedComponents</text>
<text text-anchor="middle" x="191" y="-8" font-family="Helvetica,sans-Serif" font-size="10.00">Dock::setBoard</text>
</a>
</g>
<!-- Node1&#45;&gt;Node2 -->
<g id="edge2" class="edge"><title>Node1&#45;&gt;Node2</title>
<path fill="none" stroke="midnightblue" d="M90.0703,-17C98.4911,-17 107.39,-17 116.274,-17"/>
<polygon fill="midnightblue" stroke="midnightblue" points="90.0688,-13.5001 80.0688,-17 90.0688,-20.5001 90.0688,-13.5001"/>
</g>
<!-- Node3 -->
<g id="node5" class="node"><title>Node3</title>
<a xlink:href="../../dc/dbb/classproject_1_1_unplaced_components_dock.html#a538074349f49cbac4a031289b9a96e49" target="_top" xlink:title="project::UnplacedComponents\lDock::~UnplacedComponentsDock">
<polygon fill="white" stroke="black" points="302,-0 302,-34 474,-34 474,-0 302,-0"/>
<text text-anchor="start" x="310" y="-21" font-family="Helvetica,sans-Serif" font-size="10.00">project::UnplacedComponents</text>
<text text-anchor="middle" x="388" y="-8" font-family="Helvetica,sans-Serif" font-size="10.00">Dock::~UnplacedComponentsDock</text>
</a>
</g>
<!-- Node2&#45;&gt;Node3 -->
<g id="edge4" class="edge"><title>Node2&#45;&gt;Node3</title>
<path fill="none" stroke="midnightblue" d="M275.775,-17C284.377,-17 293.121,-17 301.738,-17"/>
<polygon fill="midnightblue" stroke="midnightblue" points="275.758,-13.5001 265.758,-17 275.758,-20.5001 275.758,-13.5001"/>
</g>
</g>
</svg>
