<?xml version="1.0" encoding="UTF-8" standalone="no"?>
<!DOCTYPE svg PUBLIC "-//W3C//DTD SVG 1.1//EN"
 "http://www.w3.org/Graphics/SVG/1.1/DTD/svg11.dtd">
<!-- Generated by graphviz version 2.26.3 (20100126.1600)
 -->
<!-- Title: /home/travis/build/LibrePCB/LibrePCB/libs/librepcbprojecteditor/projecteditor.h Pages: 1 -->
<svg width="671pt" height="258pt"
 viewBox="0.00 0.00 670.81 258.00" xmlns="http://www.w3.org/2000/svg" xmlns:xlink="http://www.w3.org/1999/xlink">
<g id="graph1" class="graph" transform="scale(1 1) rotate(0) translate(4 254)">
<title>/home/travis/build/LibrePCB/LibrePCB/libs/librepcbprojecteditor/projecteditor.h</title>
<polygon fill="white" stroke="white" points="-4,5 -4,-254 667.812,-254 667.812,5 -4,5"/>
<!-- Node1 -->
<g id="node1" class="node"><title>Node1</title>
<polygon fill="#bfbfbf" stroke="black" points="160.312,-189 160.312,-249 285.312,-249 285.312,-189 160.312,-189"/>
<text text-anchor="start" x="168.312" y="-236" font-family="Helvetica,sans-Serif" font-size="10.00">/home/travis/build</text>
<text text-anchor="start" x="168.312" y="-223" font-family="Helvetica,sans-Serif" font-size="10.00">/LibrePCB/LibrePCB/libs</text>
<text text-anchor="start" x="168.312" y="-210" font-family="Helvetica,sans-Serif" font-size="10.00">/librepcbprojecteditor</text>
<text text-anchor="middle" x="222.812" y="-197" font-family="Helvetica,sans-Serif" font-size="10.00">/projecteditor.h</text>
</g>
<!-- Node2 -->
<g id="node3" class="node"><title>Node2</title>
<polygon fill="white" stroke="#bfbfbf" points="403.812,-0.5 403.812,-21.5 451.812,-21.5 451.812,-0.5 403.812,-0.5"/>
<text text-anchor="middle" x="427.812" y="-8.5" font-family="Helvetica,sans-Serif" font-size="10.00">QtCore</text>
</g>
<!-- Node1&#45;&gt;Node2 -->
<g id="edge2" class="edge"><title>Node1&#45;&gt;Node2</title>
<path fill="none" stroke="midnightblue" d="M160.304,-206.712C107.071,-194.827 36.6096,-175.233 19.8117,-152 -4.66628,-118.144 -7.98793,-89.1859 19.8117,-58 44.5672,-30.2291 300.135,-16.5007 393.717,-12.3761"/>
<polygon fill="midnightblue" stroke="midnightblue" points="393.953,-15.8693 403.793,-11.9418 393.652,-8.87582 393.953,-15.8693"/>
</g>
<!-- Node3 -->
<g id="node5" class="node"><title>Node3</title>
<a xlink:href="../../d0/d1d/if__xmlserializableobject_8h.html" target="_top" xlink:title="librepcbcommon/fileio\l/if_xmlserializableobject.h">
<polygon fill="white" stroke="black" points="28.3117,-117 28.3117,-151 157.312,-151 157.312,-117 28.3117,-117"/>
<text text-anchor="start" x="36.3117" y="-138" font-family="Helvetica,sans-Serif" font-size="10.00">librepcbcommon/fileio</text>
<text text-anchor="middle" x="92.8117" y="-125" font-family="Helvetica,sans-Serif" font-size="10.00">/if_xmlserializableobject.h</text>
</a>
</g>
<!-- Node1&#45;&gt;Node3 -->
<g id="edge4" class="edge"><title>Node1&#45;&gt;Node3</title>
<path fill="none" stroke="midnightblue" d="M176.613,-188.793C160.385,-178.182 142.446,-166.453 127.344,-156.579"/>
<polygon fill="midnightblue" stroke="midnightblue" points="129.099,-153.545 118.814,-151.002 125.268,-159.403 129.099,-153.545"/>
</g>
<!-- Node4 -->
<g id="node7" class="node"><title>Node4</title>
<a xlink:href="../../d4/d03/exceptions_8h.html" target="_top" xlink:title="../exceptions.h">
<polygon fill="white" stroke="black" points="28.3117,-58.5 28.3117,-79.5 109.312,-79.5 109.312,-58.5 28.3117,-58.5"/>
<text text-anchor="middle" x="68.8117" y="-66.5" font-family="Helvetica,sans-Serif" font-size="10.00">../exceptions.h</text>
</a>
</g>
<!-- Node1&#45;&gt;Node4 -->
<g id="edge22" class="edge"><title>Node1&#45;&gt;Node4</title>
<path fill="none" stroke="midnightblue" d="M211.897,-188.727C202.543,-166.298 187.179,-136.238 165.812,-116 150.795,-101.776 130.663,-91.0736 112.632,-83.5028"/>
<polygon fill="midnightblue" stroke="midnightblue" points="113.462,-80.0661 102.877,-79.6165 110.872,-86.569 113.462,-80.0661"/>
</g>
<!-- Node5 -->
<g id="node10" class="node"><title>Node5</title>
<a xlink:href="../../da/d81/if__attributeprovider_8h.html" target="_top" xlink:title="librepcbcommon/if_attributeprovider.h">
<polygon fill="white" stroke="black" points="126.312,-58.5 126.312,-79.5 305.312,-79.5 305.312,-58.5 126.312,-58.5"/>
<text text-anchor="middle" x="215.812" y="-66.5" font-family="Helvetica,sans-Serif" font-size="10.00">librepcbcommon/if_attributeprovider.h</text>
</a>
</g>
<!-- Node1&#45;&gt;Node5 -->
<g id="edge10" class="edge"><title>Node1&#45;&gt;Node5</title>
<path fill="none" stroke="midnightblue" d="M221.395,-188.645C220.024,-159.264 217.982,-115.511 216.785,-89.8564"/>
<polygon fill="midnightblue" stroke="midnightblue" points="220.276,-89.5872 216.314,-79.7613 213.284,-89.9136 220.276,-89.5872"/>
</g>
<!-- Node6 -->
<g id="node13" class="node"><title>Node6</title>
<a xlink:href="../../d4/d45/if__schematiclayerprovider_8h.html" target="_top" xlink:title="librepcbcommon/if_schematiclayerprovider.h">
<polygon fill="white" stroke="black" points="322.812,-58.5 322.812,-79.5 532.812,-79.5 532.812,-58.5 322.812,-58.5"/>
<text text-anchor="middle" x="427.812" y="-66.5" font-family="Helvetica,sans-Serif" font-size="10.00">librepcbcommon/if_schematiclayerprovider.h</text>
</a>
</g>
<!-- Node1&#45;&gt;Node6 -->
<g id="edge14" class="edge"><title>Node1&#45;&gt;Node6</title>
<path fill="none" stroke="midnightblue" d="M240.607,-188.738C255.311,-166.016 278.065,-135.571 304.812,-116 325.474,-100.881 351.6,-89.9946 374.454,-82.5317"/>
<polygon fill="midnightblue" stroke="midnightblue" points="375.522,-85.8648 384.022,-79.5405 373.433,-79.1836 375.522,-85.8648"/>
</g>
<!-- Node7 -->
<g id="node16" class="node"><title>Node7</title>
<a xlink:href="../../d4/dba/if__boardlayerprovider_8h.html" target="_top" xlink:title="librepcbcommon/if_boardlayerprovider.h">
<polygon fill="white" stroke="black" points="313.312,-123.5 313.312,-144.5 502.312,-144.5 502.312,-123.5 313.312,-123.5"/>
<text text-anchor="middle" x="407.812" y="-131.5" font-family="Helvetica,sans-Serif" font-size="10.00">librepcbcommon/if_boardlayerprovider.h</text>
</a>
</g>
<!-- Node1&#45;&gt;Node7 -->
<g id="edge18" class="edge"><title>Node1&#45;&gt;Node7</title>
<path fill="none" stroke="midnightblue" d="M285.444,-190.223C315.612,-176.362 350.528,-160.319 375.323,-148.927"/>
<polygon fill="midnightblue" stroke="midnightblue" points="377.002,-152.008 384.627,-144.652 374.079,-145.647 377.002,-152.008"/>
</g>
<!-- Node8 -->
<g id="node20" class="node"><title>Node8</title>
<a xlink:href="../../d5/db9/filelock_8h.html" target="_top" xlink:title="librepcbcommon/fileio\l/filelock.h">
<polygon fill="white" stroke="black" points="552.312,-117 552.312,-151 663.312,-151 663.312,-117 552.312,-117"/>
<text text-anchor="start" x="560.312" y="-138" font-family="Helvetica,sans-Serif" font-size="10.00">librepcbcommon/fileio</text>
<text text-anchor="middle" x="607.812" y="-125" font-family="Helvetica,sans-Serif" font-size="10.00">/filelock.h</text>
</a>
</g>
<!-- Node1&#45;&gt;Node8 -->
<g id="edge24" class="edge"><title>Node1&#45;&gt;Node8</title>
<path fill="none" stroke="midnightblue" d="M285.525,-205.154C356.141,-189.564 470.372,-164.344 542.168,-148.493"/>
<polygon fill="midnightblue" stroke="midnightblue" points="542.998,-151.894 552.008,-146.32 541.488,-145.059 542.998,-151.894"/>
</g>
<!-- Node3&#45;&gt;Node4 -->
<g id="edge6" class="edge"><title>Node3&#45;&gt;Node4</title>
<path fill="none" stroke="midnightblue" d="M86.506,-116.922C83.3916,-108.487 79.6109,-98.2479 76.3452,-89.403"/>
<polygon fill="midnightblue" stroke="midnightblue" points="79.5658,-88.0207 72.8187,-79.8521 72.9991,-90.4454 79.5658,-88.0207"/>
</g>
<!-- Node4&#45;&gt;Node2 -->
<g id="edge8" class="edge"><title>Node4&#45;&gt;Node2</title>
<path fill="none" stroke="midnightblue" d="M109.408,-59.6555C112.248,-59.0731 115.07,-58.515 117.812,-58 217.533,-39.2712 336.385,-22.8986 393.641,-15.3802"/>
<polygon fill="midnightblue" stroke="midnightblue" points="394.134,-18.8457 403.597,-14.0809 393.228,-11.9046 394.134,-18.8457"/>
</g>
<!-- Node5&#45;&gt;Node2 -->
<g id="edge12" class="edge"><title>Node5&#45;&gt;Node2</title>
<path fill="none" stroke="midnightblue" d="M254.203,-58.4966C293.904,-47.6352 355.32,-30.8326 393.463,-20.3973"/>
<polygon fill="midnightblue" stroke="midnightblue" points="394.845,-23.6479 403.567,-17.633 392.998,-16.896 394.845,-23.6479"/>
</g>
<!-- Node6&#45;&gt;Node2 -->
<g id="edge16" class="edge"><title>Node6&#45;&gt;Node2</title>
<path fill="none" stroke="midnightblue" d="M427.812,-58.3619C427.812,-50.9219 427.812,-40.7427 427.812,-31.7276"/>
<polygon fill="midnightblue" stroke="midnightblue" points="431.312,-31.5706 427.812,-21.5707 424.312,-31.5707 431.312,-31.5706"/>
</g>
<!-- Node7&#45;&gt;Node2 -->
<g id="edge20" class="edge"><title>Node7&#45;&gt;Node2</title>
<path fill="none" stroke="midnightblue" d="M474.488,-123.446C499.95,-115.811 526.514,-102.658 541.812,-80 564.427,-46.5045 503.09,-26.5923 461.848,-17.3229"/>
<polygon fill="midnightblue" stroke="midnightblue" points="462.369,-13.8554 451.859,-15.1938 460.909,-20.7016 462.369,-13.8554"/>
</g>
<!-- Node8&#45;&gt;Node2 -->
<g id="edge26" class="edge"><title>Node8&#45;&gt;Node2</title>
<path fill="none" stroke="midnightblue" d="M630.335,-116.814C648.592,-100.804 668.994,-76.6648 653.812,-58 630.005,-28.7326 518.968,-17.0927 461.89,-12.9825"/>
<polygon fill="midnightblue" stroke="midnightblue" points="462.109,-9.48939 451.893,-12.3001 461.632,-16.4731 462.109,-9.48939"/>
</g>
<!-- Node8&#45;&gt;Node4 -->
<g id="edge32" class="edge"><title>Node8&#45;&gt;Node4</title>
<path fill="none" stroke="midnightblue" d="M552.3,-122.789C538.765,-120.308 524.3,-117.865 510.812,-116 340.291,-92.4194 292.828,-106.713 119.352,-80.0857"/>
<polygon fill="midnightblue" stroke="midnightblue" points="119.796,-76.6128 109.376,-78.5312 118.718,-83.5293 119.796,-76.6128"/>
</g>
<!-- Node9 -->
<g id="node23" class="node"><title>Node9</title>
<a xlink:href="../../dd/dec/filepath_8h.html" target="_top" xlink:title="filepath.h">
<polygon fill="white" stroke="black" points="588.812,-58.5 588.812,-79.5 644.812,-79.5 644.812,-58.5 588.812,-58.5"/>
<text text-anchor="middle" x="616.812" y="-66.5" font-family="Helvetica,sans-Serif" font-size="10.00">filepath.h</text>
</a>
</g>
<!-- Node8&#45;&gt;Node9 -->
<g id="edge28" class="edge"><title>Node8&#45;&gt;Node9</title>
<path fill="none" stroke="midnightblue" d="M610.176,-116.922C611.319,-108.67 612.7,-98.6922 613.907,-89.9818"/>
<polygon fill="midnightblue" stroke="midnightblue" points="617.404,-90.2377 615.309,-79.8521 610.471,-89.2775 617.404,-90.2377"/>
</g>
<!-- Node9&#45;&gt;Node2 -->
<g id="edge30" class="edge"><title>Node9&#45;&gt;Node2</title>
<path fill="none" stroke="midnightblue" d="M588.517,-60.3168C554.63,-49.9179 497.92,-32.5148 461.721,-21.4061"/>
<polygon fill="midnightblue" stroke="midnightblue" points="462.678,-18.0386 452.091,-18.4508 460.624,-24.7306 462.678,-18.0386"/>
</g>
</g>
</svg>
