<?xml version="1.0" encoding="UTF-8" standalone="no"?>
<!DOCTYPE svg PUBLIC "-//W3C//DTD SVG 1.1//EN"
 "http://www.w3.org/Graphics/SVG/1.1/DTD/svg11.dtd">
<!-- Generated by graphviz version 2.26.3 (20100126.1600)
 -->
<!-- Title: /home/travis/build/LibrePCB/LibrePCB/libs/librepcbcommon/undostack.h Pages: 1 -->
<svg width="154pt" height="172pt"
 viewBox="0.00 0.00 154.00 172.00" xmlns="http://www.w3.org/2000/svg" xmlns:xlink="http://www.w3.org/1999/xlink">
<g id="graph1" class="graph" transform="scale(1 1) rotate(0) translate(4 168)">
<title>/home/travis/build/LibrePCB/LibrePCB/libs/librepcbcommon/undostack.h</title>
<polygon fill="white" stroke="white" points="-4,5 -4,-168 151,-168 151,5 -4,5"/>
<!-- Node1 -->
<g id="node1" class="node"><title>Node1</title>
<polygon fill="#bfbfbf" stroke="black" points="-0.5,-116.5 -0.5,-163.5 146.5,-163.5 146.5,-116.5 -0.5,-116.5"/>
<text text-anchor="start" x="7.5" y="-150.5" font-family="Helvetica,sans-Serif" font-size="10.00">/home/travis/build</text>
<text text-anchor="start" x="7.5" y="-137.5" font-family="Helvetica,sans-Serif" font-size="10.00">/LibrePCB/LibrePCB/libs</text>
<text text-anchor="middle" x="73" y="-124.5" font-family="Helvetica,sans-Serif" font-size="10.00">/librepcbcommon/undostack.h</text>
</g>
<!-- Node2 -->
<g id="node3" class="node"><title>Node2</title>
<polygon fill="white" stroke="#bfbfbf" points="49,-0.5 49,-21.5 97,-21.5 97,-0.5 49,-0.5"/>
<text text-anchor="middle" x="73" y="-8.5" font-family="Helvetica,sans-Serif" font-size="10.00">QtCore</text>
</g>
<!-- Node1&#45;&gt;Node2 -->
<g id="edge2" class="edge"><title>Node1&#45;&gt;Node2</title>
<path fill="none" stroke="midnightblue" d="M65.5547,-116.358C61.311,-99.9988 57.3243,-77.7104 60,-58 61.2036,-49.1337 63.6291,-39.5776 66.0625,-31.4123"/>
<polygon fill="midnightblue" stroke="midnightblue" points="69.4703,-32.245 69.1638,-21.6546 62.7991,-30.1247 69.4703,-32.245"/>
</g>
<!-- Node3 -->
<g id="node5" class="node"><title>Node3</title>
<a xlink:href="../../d4/d03/exceptions_8h.html" target="_top" xlink:title="exceptions.h">
<polygon fill="white" stroke="black" points="69,-58.5 69,-79.5 141,-79.5 141,-58.5 69,-58.5"/>
<text text-anchor="middle" x="105" y="-66.5" font-family="Helvetica,sans-Serif" font-size="10.00">exceptions.h</text>
</a>
</g>
<!-- Node1&#45;&gt;Node3 -->
<g id="edge4" class="edge"><title>Node1&#45;&gt;Node3</title>
<path fill="none" stroke="midnightblue" d="M83.6555,-116.358C87.6804,-107.428 92.2151,-97.3666 96.0662,-88.8218"/>
<polygon fill="midnightblue" stroke="midnightblue" points="99.2835,-90.2012 100.202,-79.6462 92.9018,-87.3249 99.2835,-90.2012"/>
</g>
<!-- Node3&#45;&gt;Node2 -->
<g id="edge6" class="edge"><title>Node3&#45;&gt;Node2</title>
<path fill="none" stroke="midnightblue" d="M99.1307,-58.3619C94.8454,-50.5949 88.9131,-39.8426 83.7839,-30.5458"/>
<polygon fill="midnightblue" stroke="midnightblue" points="86.7274,-28.6357 78.8321,-21.5707 80.5984,-32.0172 86.7274,-28.6357"/>
</g>
</g>
</svg>
