<?xml version="1.0" encoding="UTF-8" standalone="no"?>
<!DOCTYPE svg PUBLIC "-//W3C//DTD SVG 1.1//EN"
 "http://www.w3.org/Graphics/SVG/1.1/DTD/svg11.dtd">
<!-- Generated by graphviz version 2.26.3 (20100126.1600)
 -->
<!-- Title: CmdComponentInstanceRemove Pages: 1 -->
<svg width="190pt" height="446pt"
 viewBox="0.00 0.00 190.00 446.00" xmlns="http://www.w3.org/2000/svg" xmlns:xlink="http://www.w3.org/1999/xlink">
<g id="graph1" class="graph" transform="scale(1 1) rotate(0) translate(4 442)">
<title>CmdComponentInstanceRemove</title>
<polygon fill="white" stroke="white" points="-4,5 -4,-442 187,-442 187,5 -4,5"/>
<!-- Node1 -->
<g id="node1" class="node"><title>Node1</title>
<polygon fill="#bfbfbf" stroke="black" points="-0.5,-0.5 -0.5,-115.5 182.5,-115.5 182.5,-0.5 -0.5,-0.5"/>
<text text-anchor="middle" x="91" y="-102.5" font-family="Helvetica,sans-Serif" font-size="10.00">CmdComponentInstanceRemove</text>
<polyline fill="none" stroke="black" points="-0.5,-94.5 182.5,-94.5 "/>
<text text-anchor="start" x="7.5" y="-81.5" font-family="Helvetica,sans-Serif" font-size="10.00">&#45; mBoard</text>
<text text-anchor="start" x="7.5" y="-68.5" font-family="Helvetica,sans-Serif" font-size="10.00">&#45; mComponent</text>
<polyline fill="none" stroke="black" points="-0.5,-60.5 182.5,-60.5 "/>
<text text-anchor="start" x="7.5" y="-47.5" font-family="Helvetica,sans-Serif" font-size="10.00">+ CmdComponentInstanceRemove()</text>
<text text-anchor="start" x="7.5" y="-34.5" font-family="Helvetica,sans-Serif" font-size="10.00">+ ~CmdComponentInstanceRemove()</text>
<text text-anchor="start" x="7.5" y="-21.5" font-family="Helvetica,sans-Serif" font-size="10.00">+ redo()</text>
<text text-anchor="start" x="7.5" y="-8.5" font-family="Helvetica,sans-Serif" font-size="10.00">+ undo()</text>
</g>
<!-- Node2 -->
<g id="node2" class="node"><title>Node2</title>
<a xlink:href="../../d3/d26/class_undo_command.html" target="_top" xlink:title="The UndoCommand class represents a command which you can undo/redo. ">
<polygon fill="white" stroke="black" points="38,-153 38,-437 144,-437 144,-153 38,-153"/>
<text text-anchor="middle" x="91" y="-424" font-family="Helvetica,sans-Serif" font-size="10.00">UndoCommand</text>
<polyline fill="none" stroke="black" points="38,-416 144,-416 "/>
<text text-anchor="start" x="46" y="-403" font-family="Helvetica,sans-Serif" font-size="10.00"># mRedoCount</text>
<text text-anchor="start" x="46" y="-390" font-family="Helvetica,sans-Serif" font-size="10.00"># mUndoCount</text>
<text text-anchor="start" x="46" y="-377" font-family="Helvetica,sans-Serif" font-size="10.00">&#45; mParent</text>
<text text-anchor="start" x="46" y="-364" font-family="Helvetica,sans-Serif" font-size="10.00">&#45; mText</text>
<text text-anchor="start" x="46" y="-351" font-family="Helvetica,sans-Serif" font-size="10.00">&#45; mChilds</text>
<polyline fill="none" stroke="black" points="38,-343 144,-343 "/>
<text text-anchor="start" x="46" y="-330" font-family="Helvetica,sans-Serif" font-size="10.00">+ UndoCommand()</text>
<text text-anchor="start" x="46" y="-317" font-family="Helvetica,sans-Serif" font-size="10.00">+ ~UndoCommand()</text>
<text text-anchor="start" x="46" y="-304" font-family="Helvetica,sans-Serif" font-size="10.00">+ getId()</text>
<text text-anchor="start" x="46" y="-291" font-family="Helvetica,sans-Serif" font-size="10.00">+ getText()</text>
<text text-anchor="start" x="46" y="-278" font-family="Helvetica,sans-Serif" font-size="10.00">+ getChildCount()</text>
<text text-anchor="start" x="46" y="-265" font-family="Helvetica,sans-Serif" font-size="10.00">+ isExecuted()</text>
<text text-anchor="start" x="46" y="-252" font-family="Helvetica,sans-Serif" font-size="10.00">+ undo()</text>
<text text-anchor="start" x="46" y="-239" font-family="Helvetica,sans-Serif" font-size="10.00">+ redo()</text>
<text text-anchor="start" x="46" y="-226" font-family="Helvetica,sans-Serif" font-size="10.00">+ mergeWith()</text>
<text text-anchor="start" x="46" y="-213" font-family="Helvetica,sans-Serif" font-size="10.00">+ appendChild()</text>
<text text-anchor="start" x="46" y="-200" font-family="Helvetica,sans-Serif" font-size="10.00">+ removeChild()</text>
<text text-anchor="start" x="46" y="-187" font-family="Helvetica,sans-Serif" font-size="10.00">&#45; UndoCommand()</text>
<text text-anchor="start" x="46" y="-174" font-family="Helvetica,sans-Serif" font-size="10.00">&#45; UndoCommand()</text>
<text text-anchor="start" x="46" y="-161" font-family="Helvetica,sans-Serif" font-size="10.00">&#45; operator=()</text>
</a>
</g>
<!-- Node2&#45;&gt;Node1 -->
<g id="edge2" class="edge"><title>Node2&#45;&gt;Node1</title>
<path fill="none" stroke="midnightblue" d="M91,-142.446C91,-133.105 91,-124.073 91,-115.61"/>
<polygon fill="none" stroke="midnightblue" points="87.5001,-142.69 91,-152.69 94.5001,-142.69 87.5001,-142.69"/>
</g>
</g>
</svg>
