<?xml version="1.0" encoding="UTF-8" standalone="no"?>
<!DOCTYPE svg PUBLIC "-//W3C//DTD SVG 1.1//EN"
 "http://www.w3.org/Graphics/SVG/1.1/DTD/svg11.dtd">
<!-- Generated by graphviz version 2.26.3 (20100126.1600)
 -->
<!-- Title: addSymbol Pages: 1 -->
<svg width="254pt" height="198pt"
 viewBox="0.00 0.00 254.00 198.00" xmlns="http://www.w3.org/2000/svg" xmlns:xlink="http://www.w3.org/1999/xlink">
<g id="graph1" class="graph" transform="scale(1 1) rotate(0) translate(4 194)">
<title>addSymbol</title>
<polygon fill="white" stroke="white" points="-4,5 -4,-194 251,-194 251,5 -4,5"/>
<!-- Node1 -->
<g id="node1" class="node"><title>Node1</title>
<polygon fill="#bfbfbf" stroke="black" points="0.5,-84.5 0.5,-105.5 65.5,-105.5 65.5,-84.5 0.5,-84.5"/>
<text text-anchor="middle" x="33" y="-92.5" font-family="Helvetica,sans-Serif" font-size="10.00">addSymbol</text>
</g>
<!-- Node2 -->
<g id="node3" class="node"><title>Node2</title>
<a xlink:href="../../d9/d81/classproject_1_1_cmd_symbol_instance_add.html#a91ca7652063093da57fc1bd0141dcc95" target="_top" xlink:title="Redo/execute the command (and all child commands in normal order) ">
<polygon fill="white" stroke="black" points="102.5,-156 102.5,-190 245.5,-190 245.5,-156 102.5,-156"/>
<text text-anchor="start" x="110.5" y="-177" font-family="Helvetica,sans-Serif" font-size="10.00">project::CmdSymbolInstance</text>
<text text-anchor="middle" x="174" y="-164" font-family="Helvetica,sans-Serif" font-size="10.00">Add::redo</text>
</a>
</g>
<!-- Node1&#45;&gt;Node2 -->
<g id="edge2" class="edge"><title>Node1&#45;&gt;Node2</title>
<path fill="none" stroke="midnightblue" d="M52.8757,-112.523C66.104,-123.523 84.2538,-137.393 102,-147 107.961,-150.227 114.404,-153.2 120.901,-155.892"/>
<polygon fill="midnightblue" stroke="midnightblue" points="54.8331,-109.593 44.9471,-105.783 50.2992,-114.927 54.8331,-109.593"/>
</g>
<!-- Node3 -->
<g id="node5" class="node"><title>Node3</title>
<a xlink:href="../../d9/d81/classproject_1_1_cmd_symbol_instance_add.html#a19e8778088bfe76b16745470981bb913" target="_top" xlink:title="Undo the command (and all child commands in reverse order) ">
<polygon fill="white" stroke="black" points="102.5,-104 102.5,-138 245.5,-138 245.5,-104 102.5,-104"/>
<text text-anchor="start" x="110.5" y="-125" font-family="Helvetica,sans-Serif" font-size="10.00">project::CmdSymbolInstance</text>
<text text-anchor="middle" x="174" y="-112" font-family="Helvetica,sans-Serif" font-size="10.00">Add::undo</text>
</a>
</g>
<!-- Node1&#45;&gt;Node3 -->
<g id="edge4" class="edge"><title>Node1&#45;&gt;Node3</title>
<path fill="none" stroke="midnightblue" d="M75.6978,-102.873C84.1863,-104.439 93.3152,-106.122 102.467,-107.81"/>
<polygon fill="midnightblue" stroke="midnightblue" points="76.1716,-99.4018 65.7026,-101.03 74.9021,-106.286 76.1716,-99.4018"/>
</g>
<!-- Node4 -->
<g id="node7" class="node"><title>Node4</title>
<a xlink:href="../../d6/d55/classproject_1_1_cmd_symbol_instance_remove.html#a91ca7652063093da57fc1bd0141dcc95" target="_top" xlink:title="Redo/execute the command (and all child commands in normal order) ">
<polygon fill="white" stroke="black" points="102.5,-52 102.5,-86 245.5,-86 245.5,-52 102.5,-52"/>
<text text-anchor="start" x="110.5" y="-73" font-family="Helvetica,sans-Serif" font-size="10.00">project::CmdSymbolInstance</text>
<text text-anchor="middle" x="174" y="-60" font-family="Helvetica,sans-Serif" font-size="10.00">Remove::redo</text>
</a>
</g>
<!-- Node1&#45;&gt;Node4 -->
<g id="edge6" class="edge"><title>Node1&#45;&gt;Node4</title>
<path fill="none" stroke="midnightblue" d="M75.6978,-87.1267C84.1863,-85.5614 93.3152,-83.878 102.467,-82.1904"/>
<polygon fill="midnightblue" stroke="midnightblue" points="74.9021,-83.7143 65.7026,-88.9697 76.1716,-90.5982 74.9021,-83.7143"/>
</g>
<!-- Node5 -->
<g id="node9" class="node"><title>Node5</title>
<a xlink:href="../../d6/d55/classproject_1_1_cmd_symbol_instance_remove.html#a19e8778088bfe76b16745470981bb913" target="_top" xlink:title="Undo the command (and all child commands in reverse order) ">
<polygon fill="white" stroke="black" points="102.5,-0 102.5,-34 245.5,-34 245.5,-0 102.5,-0"/>
<text text-anchor="start" x="110.5" y="-21" font-family="Helvetica,sans-Serif" font-size="10.00">project::CmdSymbolInstance</text>
<text text-anchor="middle" x="174" y="-8" font-family="Helvetica,sans-Serif" font-size="10.00">Remove::undo</text>
</a>
</g>
<!-- Node1&#45;&gt;Node5 -->
<g id="edge8" class="edge"><title>Node1&#45;&gt;Node5</title>
<path fill="none" stroke="midnightblue" d="M52.8757,-77.4769C66.104,-66.4772 84.2538,-52.6069 102,-43 107.961,-39.7733 114.404,-36.8003 120.901,-34.108"/>
<polygon fill="midnightblue" stroke="midnightblue" points="50.2992,-75.0734 44.9471,-84.2171 54.8331,-80.4067 50.2992,-75.0734"/>
</g>
</g>
</svg>
