<?xml version="1.0" encoding="UTF-8" standalone="no"?>
<!DOCTYPE svg PUBLIC "-//W3C//DTD SVG 1.1//EN"
 "http://www.w3.org/Graphics/SVG/1.1/DTD/svg11.dtd">
<!-- Generated by graphviz version 2.26.3 (20100126.1600)
 -->
<!-- Title: toStr Pages: 1 -->
<svg width="634pt" height="302pt"
 viewBox="0.00 0.00 634.00 302.00" xmlns="http://www.w3.org/2000/svg" xmlns:xlink="http://www.w3.org/1999/xlink">
<g id="graph1" class="graph" transform="scale(1 1) rotate(0) translate(4 298)">
<title>toStr</title>
<polygon fill="white" stroke="white" points="-4,5 -4,-298 631,-298 631,5 -4,5"/>
<!-- Node1 -->
<g id="node1" class="node"><title>Node1</title>
<polygon fill="#bfbfbf" stroke="black" points="0,-202.5 0,-223.5 38,-223.5 38,-202.5 0,-202.5"/>
<text text-anchor="middle" x="19" y="-210.5" font-family="Helvetica,sans-Serif" font-size="10.00">toStr</text>
</g>
<!-- Node2 -->
<g id="node3" class="node"><title>Node2</title>
<a xlink:href="../../de/d02/classlibrary_1_1_library.html#aec23f71851cecc7466fbd5e10bd48fae" target="_top" xlink:title="library::Library::addPackagesToDb">
<polygon fill="white" stroke="black" points="80.5,-265.5 80.5,-286.5 247.5,-286.5 247.5,-265.5 80.5,-265.5"/>
<text text-anchor="middle" x="164" y="-273.5" font-family="Helvetica,sans-Serif" font-size="10.00">library::Library::addPackagesToDb</text>
</a>
</g>
<!-- Node1&#45;&gt;Node2 -->
<g id="edge2" class="edge"><title>Node1&#45;&gt;Node2</title>
<path fill="none" stroke="midnightblue" d="M37.4723,-230.848C47.5374,-239.646 60.6422,-249.693 74,-256 82.1054,-259.827 90.9714,-262.937 99.8773,-265.46"/>
<polygon fill="midnightblue" stroke="midnightblue" points="39.5458,-228.003 29.7936,-223.862 34.8351,-233.181 39.5458,-228.003"/>
</g>
<!-- Node5 -->
<g id="node9" class="node"><title>Node5</title>
<a xlink:href="../../de/d02/classlibrary_1_1_library.html#a1dea3b622e340b2b8685735b15878ed1" target="_top" xlink:title="library::Library::addComponentsToDb">
<polygon fill="white" stroke="black" points="74.5,-225.5 74.5,-246.5 253.5,-246.5 253.5,-225.5 74.5,-225.5"/>
<text text-anchor="middle" x="164" y="-233.5" font-family="Helvetica,sans-Serif" font-size="10.00">library::Library::addComponentsToDb</text>
</a>
</g>
<!-- Node1&#45;&gt;Node5 -->
<g id="edge8" class="edge"><title>Node1&#45;&gt;Node5</title>
<path fill="none" stroke="midnightblue" d="M48.4075,-217.665C62.6584,-219.925 80.396,-222.739 97.6638,-225.478"/>
<polygon fill="midnightblue" stroke="midnightblue" points="48.6798,-214.164 38.2549,-216.054 47.5831,-221.078 48.6798,-214.164"/>
</g>
<!-- Node6 -->
<g id="node12" class="node"><title>Node6</title>
<a xlink:href="../../dd/d8a/classlibrary_1_1_library_base_element.html#aeb87054a7c12b9ccee59af89a9abf24f" target="_top" xlink:title="Serialize the object to a XML DOM element. ">
<polygon fill="white" stroke="black" points="92,-173 92,-207 236,-207 236,-173 92,-173"/>
<text text-anchor="start" x="100" y="-194" font-family="Helvetica,sans-Serif" font-size="10.00">library::LibraryBaseElement</text>
<text text-anchor="middle" x="164" y="-181" font-family="Helvetica,sans-Serif" font-size="10.00">::serializeToXmlDomElement</text>
</a>
</g>
<!-- Node1&#45;&gt;Node6 -->
<g id="edge12" class="edge"><title>Node1&#45;&gt;Node6</title>
<path fill="none" stroke="midnightblue" d="M48.1845,-208.371C60.8597,-206.36 76.3237,-203.907 91.7713,-201.457"/>
<polygon fill="midnightblue" stroke="midnightblue" points="47.5831,-204.922 38.2549,-209.946 48.6798,-211.836 47.5831,-204.922"/>
</g>
<!-- Node15 -->
<g id="node30" class="node"><title>Node15</title>
<a xlink:href="../../d4/d07/classproject_1_1_s_e_s___add_components.html#adfd98cfc3245571b0c2b05c7c1c9f3c9" target="_top" xlink:title="project::SES_AddComponents\l::startAddingComponent">
<polygon fill="white" stroke="black" points="89,-121 89,-155 239,-155 239,-121 89,-121"/>
<text text-anchor="start" x="97" y="-142" font-family="Helvetica,sans-Serif" font-size="10.00">project::SES_AddComponents</text>
<text text-anchor="middle" x="164" y="-129" font-family="Helvetica,sans-Serif" font-size="10.00">::startAddingComponent</text>
</a>
</g>
<!-- Node1&#45;&gt;Node15 -->
<g id="edge30" class="edge"><title>Node1&#45;&gt;Node15</title>
<path fill="none" stroke="midnightblue" d="M35.1169,-195.079C45.343,-184.679 59.3693,-172.079 74,-164 80.1222,-160.62 86.727,-157.641 93.4794,-155.025"/>
<polygon fill="midnightblue" stroke="midnightblue" points="32.4299,-192.826 28.0907,-202.491 37.5103,-197.641 32.4299,-192.826"/>
</g>
<!-- Node3 -->
<g id="node5" class="node"><title>Node3</title>
<a xlink:href="../../de/d02/classlibrary_1_1_library.html#abf6f5a1b41bdc95e7b0602fbab2219a7" target="_top" xlink:title="Rescan the whole library directory and update the SQLite database. ">
<polygon fill="white" stroke="black" points="305.5,-265.5 305.5,-286.5 418.5,-286.5 418.5,-265.5 305.5,-265.5"/>
<text text-anchor="middle" x="362" y="-273.5" font-family="Helvetica,sans-Serif" font-size="10.00">library::Library::rescan</text>
</a>
</g>
<!-- Node2&#45;&gt;Node3 -->
<g id="edge4" class="edge"><title>Node2&#45;&gt;Node3</title>
<path fill="none" stroke="midnightblue" d="M257.752,-276C273.988,-276 290.413,-276 305.274,-276"/>
<polygon fill="midnightblue" stroke="midnightblue" points="257.683,-272.5 247.683,-276 257.683,-279.5 257.683,-272.5"/>
</g>
<!-- Node4 -->
<g id="node7" class="node"><title>Node4</title>
<a xlink:href="../../d1/def/class_control_panel.html#a65617210fcf4b06dcce361e933bbb994" target="_top" xlink:title="ControlPanel::on_actionRescan\lLibrary_triggered">
<polygon fill="white" stroke="black" points="470.5,-260 470.5,-294 625.5,-294 625.5,-260 470.5,-260"/>
<text text-anchor="start" x="478.5" y="-281" font-family="Helvetica,sans-Serif" font-size="10.00">ControlPanel::on_actionRescan</text>
<text text-anchor="middle" x="548" y="-268" font-family="Helvetica,sans-Serif" font-size="10.00">Library_triggered</text>
</a>
</g>
<!-- Node3&#45;&gt;Node4 -->
<g id="edge6" class="edge"><title>Node3&#45;&gt;Node4</title>
<path fill="none" stroke="midnightblue" d="M428.728,-276.359C442.254,-276.431 456.588,-276.509 470.45,-276.583"/>
<polygon fill="midnightblue" stroke="midnightblue" points="428.582,-272.858 418.564,-276.304 428.545,-279.858 428.582,-272.858"/>
</g>
<!-- Node5&#45;&gt;Node3 -->
<g id="edge10" class="edge"><title>Node5&#45;&gt;Node3</title>
<path fill="none" stroke="midnightblue" d="M226.123,-248.55C253.073,-253.995 284.278,-260.299 309.982,-265.491"/>
<polygon fill="midnightblue" stroke="midnightblue" points="226.517,-245.059 216.022,-246.51 225.131,-251.92 226.517,-245.059"/>
</g>
<!-- Node7 -->
<g id="node14" class="node"><title>Node7</title>
<a xlink:href="../../d3/d60/classlibrary_1_1_library_category.html#aeb87054a7c12b9ccee59af89a9abf24f" target="_top" xlink:title="Serialize the object to a XML DOM element. ">
<polygon fill="white" stroke="black" points="290,-212 290,-246 434,-246 434,-212 290,-212"/>
<text text-anchor="start" x="298" y="-233" font-family="Helvetica,sans-Serif" font-size="10.00">library::LibraryCategory</text>
<text text-anchor="middle" x="362" y="-220" font-family="Helvetica,sans-Serif" font-size="10.00">::serializeToXmlDomElement</text>
</a>
</g>
<!-- Node6&#45;&gt;Node7 -->
<g id="edge14" class="edge"><title>Node6&#45;&gt;Node7</title>
<path fill="none" stroke="midnightblue" d="M245.982,-206.148C260.477,-209.003 275.474,-211.957 289.679,-214.755"/>
<polygon fill="midnightblue" stroke="midnightblue" points="246.531,-202.689 236.043,-204.19 245.178,-209.557 246.531,-202.689"/>
</g>
<!-- Node8 -->
<g id="node16" class="node"><title>Node8</title>
<a xlink:href="../../dd/d8a/classlibrary_1_1_library_base_element.html#a34aae6df4e44ac910795cdd62c3c69ff" target="_top" xlink:title="library::LibraryBaseElement\l::save">
<polygon fill="white" stroke="black" points="293.5,-160 293.5,-194 430.5,-194 430.5,-160 293.5,-160"/>
<text text-anchor="start" x="301.5" y="-181" font-family="Helvetica,sans-Serif" font-size="10.00">library::LibraryBaseElement</text>
<text text-anchor="middle" x="362" y="-168" font-family="Helvetica,sans-Serif" font-size="10.00">::save</text>
</a>
</g>
<!-- Node6&#45;&gt;Node8 -->
<g id="edge16" class="edge"><title>Node6&#45;&gt;Node8</title>
<path fill="none" stroke="midnightblue" d="M246.233,-184.601C261.893,-183.573 278.129,-182.507 293.312,-181.51"/>
<polygon fill="midnightblue" stroke="midnightblue" points="245.792,-181.122 236.043,-185.27 246.251,-188.107 245.792,-181.122"/>
</g>
<!-- Node9 -->
<g id="node18" class="node"><title>Node9</title>
<a xlink:href="../../d8/dff/classlibrary_1_1_library_element.html#aeb87054a7c12b9ccee59af89a9abf24f" target="_top" xlink:title="Serialize the object to a XML DOM element. ">
<polygon fill="white" stroke="black" points="290,-105 290,-139 434,-139 434,-105 290,-105"/>
<text text-anchor="start" x="298" y="-126" font-family="Helvetica,sans-Serif" font-size="10.00">library::LibraryElement</text>
<text text-anchor="middle" x="362" y="-113" font-family="Helvetica,sans-Serif" font-size="10.00">::serializeToXmlDomElement</text>
</a>
</g>
<!-- Node6&#45;&gt;Node9 -->
<g id="edge18" class="edge"><title>Node6&#45;&gt;Node9</title>
<path fill="none" stroke="midnightblue" d="M235.554,-169.964C241.815,-168.019 248.035,-166.017 254,-164 266.578,-159.747 294.899,-148.713 319.384,-139.022"/>
<polygon fill="midnightblue" stroke="midnightblue" points="234.256,-166.7 225.713,-172.967 236.299,-173.395 234.256,-166.7"/>
</g>
<!-- Node10 -->
<g id="node20" class="node"><title>Node10</title>
<a xlink:href="../../d3/dad/classlibrary_1_1_component.html#aeb87054a7c12b9ccee59af89a9abf24f" target="_top" xlink:title="Serialize the object to a XML DOM element. ">
<polygon fill="white" stroke="black" points="476,-208 476,-242 620,-242 620,-208 476,-208"/>
<text text-anchor="start" x="484" y="-229" font-family="Helvetica,sans-Serif" font-size="10.00">library::Component</text>
<text text-anchor="middle" x="548" y="-216" font-family="Helvetica,sans-Serif" font-size="10.00">::serializeToXmlDomElement</text>
</a>
</g>
<!-- Node9&#45;&gt;Node10 -->
<g id="edge20" class="edge"><title>Node9&#45;&gt;Node10</title>
<path fill="none" stroke="midnightblue" d="M423.232,-143.824C427.006,-146.025 430.634,-148.414 434,-151 455.146,-167.246 448.367,-183.408 470,-199 474.632,-202.339 479.721,-205.268 485.01,-207.836"/>
<polygon fill="midnightblue" stroke="midnightblue" points="424.686,-140.633 414.214,-139.026 421.398,-146.813 424.686,-140.633"/>
</g>
<!-- Node11 -->
<g id="node22" class="node"><title>Node11</title>
<a xlink:href="../../d8/dea/classlibrary_1_1_footprint.html#aeb87054a7c12b9ccee59af89a9abf24f" target="_top" xlink:title="Serialize the object to a XML DOM element. ">
<polygon fill="white" stroke="black" points="476,-156 476,-190 620,-190 620,-156 476,-156"/>
<text text-anchor="start" x="484" y="-177" font-family="Helvetica,sans-Serif" font-size="10.00">library::Footprint</text>
<text text-anchor="middle" x="548" y="-164" font-family="Helvetica,sans-Serif" font-size="10.00">::serializeToXmlDomElement</text>
</a>
</g>
<!-- Node9&#45;&gt;Node11 -->
<g id="edge22" class="edge"><title>Node9&#45;&gt;Node11</title>
<path fill="none" stroke="midnightblue" d="M434.118,-141.774C451.199,-146.458 469.271,-151.413 485.865,-155.963"/>
<polygon fill="midnightblue" stroke="midnightblue" points="434.763,-138.322 424.194,-139.053 432.912,-145.073 434.763,-138.322"/>
</g>
<!-- Node12 -->
<g id="node24" class="node"><title>Node12</title>
<a xlink:href="../../d7/d7c/classlibrary_1_1_generic_component.html#aeb87054a7c12b9ccee59af89a9abf24f" target="_top" xlink:title="Serialize the object to a XML DOM element. ">
<polygon fill="white" stroke="black" points="476,-104 476,-138 620,-138 620,-104 476,-104"/>
<text text-anchor="start" x="484" y="-125" font-family="Helvetica,sans-Serif" font-size="10.00">library::GenericComponent</text>
<text text-anchor="middle" x="548" y="-112" font-family="Helvetica,sans-Serif" font-size="10.00">::serializeToXmlDomElement</text>
</a>
</g>
<!-- Node9&#45;&gt;Node12 -->
<g id="edge24" class="edge"><title>Node9&#45;&gt;Node12</title>
<path fill="none" stroke="midnightblue" d="M444.214,-121.558C454.76,-121.501 465.493,-121.444 475.862,-121.388"/>
<polygon fill="midnightblue" stroke="midnightblue" points="444.16,-118.058 434.179,-121.612 444.197,-125.058 444.16,-118.058"/>
</g>
<!-- Node13 -->
<g id="node26" class="node"><title>Node13</title>
<a xlink:href="../../d1/dcf/classlibrary_1_1_package.html#aeb87054a7c12b9ccee59af89a9abf24f" target="_top" xlink:title="Serialize the object to a XML DOM element. ">
<polygon fill="white" stroke="black" points="483.5,-52 483.5,-86 612.5,-86 612.5,-52 483.5,-52"/>
<text text-anchor="start" x="491.5" y="-73" font-family="Helvetica,sans-Serif" font-size="10.00">library::Package::serialize</text>
<text text-anchor="middle" x="548" y="-60" font-family="Helvetica,sans-Serif" font-size="10.00">ToXmlDomElement</text>
</a>
</g>
<!-- Node9&#45;&gt;Node13 -->
<g id="edge26" class="edge"><title>Node9&#45;&gt;Node13</title>
<path fill="none" stroke="midnightblue" d="M431.748,-102.125C450.333,-96.8299 470.241,-91.1572 488.237,-86.0293"/>
<polygon fill="midnightblue" stroke="midnightblue" points="430.533,-98.8323 421.875,-104.939 432.452,-105.564 430.533,-98.8323"/>
</g>
<!-- Node14 -->
<g id="node28" class="node"><title>Node14</title>
<a xlink:href="../../d9/db9/classlibrary_1_1_symbol.html#aeb87054a7c12b9ccee59af89a9abf24f" target="_top" xlink:title="Serialize the object to a XML DOM element. ">
<polygon fill="white" stroke="black" points="486,-0 486,-34 610,-34 610,-0 486,-0"/>
<text text-anchor="start" x="494" y="-21" font-family="Helvetica,sans-Serif" font-size="10.00">library::Symbol::serialize</text>
<text text-anchor="middle" x="548" y="-8" font-family="Helvetica,sans-Serif" font-size="10.00">ToXmlDomElement</text>
</a>
</g>
<!-- Node9&#45;&gt;Node14 -->
<g id="edge28" class="edge"><title>Node9&#45;&gt;Node14</title>
<path fill="none" stroke="midnightblue" d="M389.291,-98.3261C410.236,-81.1105 440.479,-58.2431 470,-43 476.342,-39.7255 483.181,-36.7383 490.083,-34.051"/>
<polygon fill="midnightblue" stroke="midnightblue" points="386.904,-95.7597 381.465,-104.852 391.387,-101.136 386.904,-95.7597"/>
</g>
</g>
</svg>
