<?xml version="1.0" encoding="UTF-8" standalone="no"?>
<!DOCTYPE svg PUBLIC "-//W3C//DTD SVG 1.1//EN"
 "http://www.w3.org/Graphics/SVG/1.1/DTD/svg11.dtd">
<!-- Generated by graphviz version 2.26.3 (20100126.1600)
 -->
<!-- Title: on_pushButton_clicked Pages: 1 -->
<svg width="816pt" height="864pt"
 viewBox="0.00 0.00 816.00 864.00" xmlns="http://www.w3.org/2000/svg" xmlns:xlink="http://www.w3.org/1999/xlink">
<g id="graph1" class="graph" transform="scale(1 1) rotate(0) translate(4 860)">
<title>on_pushButton_clicked</title>
<polygon fill="white" stroke="white" points="-4,5 -4,-860 813,-860 813,5 -4,5"/>
<!-- Node1 -->
<g id="node1" class="node"><title>Node1</title>
<polygon fill="#bfbfbf" stroke="black" points="0,-311.5 0,-332.5 118,-332.5 118,-311.5 0,-311.5"/>
<text text-anchor="middle" x="59" y="-319.5" font-family="Helvetica,sans-Serif" font-size="10.00">on_pushButton_clicked</text>
</g>
<!-- Node2 -->
<g id="node3" class="node"><title>Node2</title>
<a xlink:href="../../de/d67/classproject_1_1_gen_comp_instance.html#abcd40fa7fd6f8d3d8e6f9630daa8b861" target="_top" xlink:title="project::GenCompInstance\l::getGenComp">
<polygon fill="white" stroke="black" points="316,-822 316,-856 450,-856 450,-822 316,-822"/>
<text text-anchor="start" x="324" y="-843" font-family="Helvetica,sans-Serif" font-size="10.00">project::GenCompInstance</text>
<text text-anchor="middle" x="383" y="-830" font-family="Helvetica,sans-Serif" font-size="10.00">::getGenComp</text>
</a>
</g>
<!-- Node1&#45;&gt;Node2 -->
<g id="edge2" class="edge"><title>Node1&#45;&gt;Node2</title>
<path fill="none" stroke="midnightblue" d="M60.0143,-332.714C64.5376,-376.348 85.7461,-543.862 154,-660 202.885,-743.18 226.149,-761.92 308,-813 310.605,-814.626 313.325,-816.165 316.119,-817.622"/>
<polygon fill="midnightblue" stroke="midnightblue" points="314.72,-820.832 325.251,-821.992 317.742,-814.518 314.72,-820.832"/>
</g>
<!-- Node3 -->
<g id="node5" class="node"><title>Node3</title>
<a xlink:href="../../dd/d8a/classlibrary_1_1_library_base_element.html#ada9b237a8629c03e16491a72730b456b" target="_top" xlink:title="library::LibraryBaseElement\l::getUuid">
<polygon fill="white" stroke="black" points="494.5,-369 494.5,-403 631.5,-403 631.5,-369 494.5,-369"/>
<text text-anchor="start" x="502.5" y="-390" font-family="Helvetica,sans-Serif" font-size="10.00">library::LibraryBaseElement</text>
<text text-anchor="middle" x="563" y="-377" font-family="Helvetica,sans-Serif" font-size="10.00">::getUuid</text>
</a>
</g>
<!-- Node1&#45;&gt;Node3 -->
<g id="edge4" class="edge"><title>Node1&#45;&gt;Node3</title>
<path fill="none" stroke="midnightblue" d="M69.2118,-311.195C116.341,-262.648 316.553,-70.9178 458,-161 476.093,-172.523 529.529,-302.153 552.409,-359.259"/>
<polygon fill="midnightblue" stroke="midnightblue" points="549.227,-360.73 556.185,-368.72 555.728,-358.135 549.227,-360.73"/>
</g>
<!-- Node4 -->
<g id="node7" class="node"><title>Node4</title>
<a xlink:href="../../d2/d05/classproject_1_1_project.html#a8fac03aa9a740943b9193a49a31bd6ae" target="_top" xlink:title="Get the Circuit object. ">
<polygon fill="white" stroke="black" points="317.5,-782.5 317.5,-803.5 448.5,-803.5 448.5,-782.5 317.5,-782.5"/>
<text text-anchor="middle" x="383" y="-790.5" font-family="Helvetica,sans-Serif" font-size="10.00">project::Project::getCircuit</text>
</a>
</g>
<!-- Node1&#45;&gt;Node4 -->
<g id="edge6" class="edge"><title>Node1&#45;&gt;Node4</title>
<path fill="none" stroke="midnightblue" d="M61.9762,-332.741C77.5804,-387.094 155.114,-634.235 308,-762 316.111,-768.778 325.909,-774.246 335.709,-778.589"/>
<polygon fill="midnightblue" stroke="midnightblue" points="334.47,-781.864 345.051,-782.415 337.123,-775.386 334.47,-781.864"/>
</g>
<!-- Node5 -->
<g id="node9" class="node"><title>Node5</title>
<a xlink:href="../../d1/d03/classproject_1_1_circuit.html#ad673a69fd562292f22830e78ce977427" target="_top" xlink:title="project::Circuit::getGen\lCompInstanceByUuid">
<polygon fill="white" stroke="black" points="154,-80 154,-114 272,-114 272,-80 154,-80"/>
<text text-anchor="start" x="162" y="-101" font-family="Helvetica,sans-Serif" font-size="10.00">project::Circuit::getGen</text>
<text text-anchor="middle" x="213" y="-88" font-family="Helvetica,sans-Serif" font-size="10.00">CompInstanceByUuid</text>
</a>
</g>
<!-- Node1&#45;&gt;Node5 -->
<g id="edge8" class="edge"><title>Node1&#45;&gt;Node5</title>
<path fill="none" stroke="midnightblue" d="M61.6618,-311.384C70.0735,-279.74 98.8477,-184.742 154,-128 156.949,-124.966 160.259,-122.167 163.766,-119.597"/>
<polygon fill="midnightblue" stroke="midnightblue" points="165.812,-122.44 172.234,-114.013 161.958,-116.596 165.812,-122.44"/>
</g>
<!-- Node6 -->
<g id="node11" class="node"><title>Node6</title>
<a xlink:href="../../dc/dbb/classproject_1_1_unplaced_components_dock.html#a41c3c33dc2c3c5545110b742d536cc76" target="_top" xlink:title="addComponent">
<polygon fill="white" stroke="black" points="171.5,-40.5 171.5,-61.5 254.5,-61.5 254.5,-40.5 171.5,-40.5"/>
<text text-anchor="middle" x="213" y="-48.5" font-family="Helvetica,sans-Serif" font-size="10.00">addComponent</text>
</a>
</g>
<!-- Node1&#45;&gt;Node6 -->
<g id="edge10" class="edge"><title>Node1&#45;&gt;Node6</title>
<path fill="none" stroke="midnightblue" d="M59.8532,-311.453C63.4983,-273.354 81.0988,-141.393 154,-71 156.527,-68.5595 159.363,-66.4164 162.389,-64.5344"/>
<polygon fill="midnightblue" stroke="midnightblue" points="164.061,-67.6101 171.319,-59.892 160.832,-61.3993 164.061,-67.6101"/>
</g>
<!-- Node14 -->
<g id="node29" class="node"><title>Node14</title>
<a xlink:href="../../dc/dbb/classproject_1_1_unplaced_components_dock.html#ad000d7056be9060e68ab7f2548d12946" target="_top" xlink:title="updateComponentsList">
<polygon fill="white" stroke="black" points="154.5,-491.5 154.5,-512.5 271.5,-512.5 271.5,-491.5 154.5,-491.5"/>
<text text-anchor="middle" x="213" y="-499.5" font-family="Helvetica,sans-Serif" font-size="10.00">updateComponentsList</text>
</a>
</g>
<!-- Node1&#45;&gt;Node14 -->
<g id="edge30" class="edge"><title>Node1&#45;&gt;Node14</title>
<path fill="none" stroke="midnightblue" d="M68.1722,-332.721C93.5765,-362.414 165.085,-445.996 197.126,-483.446"/>
<polygon fill="midnightblue" stroke="midnightblue" points="194.521,-485.785 203.681,-491.108 199.84,-481.234 194.521,-485.785"/>
</g>
<!-- Node7 -->
<g id="node13" class="node"><title>Node7</title>
<a xlink:href="../../df/df0/class_length.html#a796af485ddae7b24093b8b70f790c42b" target="_top" xlink:title="Get a Length object with a specific length and map it to a specific grid. ">
<polygon fill="white" stroke="black" points="339,-40.5 339,-61.5 427,-61.5 427,-40.5 339,-40.5"/>
<text text-anchor="middle" x="383" y="-48.5" font-family="Helvetica,sans-Serif" font-size="10.00">Length::fromMm</text>
</a>
</g>
<!-- Node6&#45;&gt;Node7 -->
<g id="edge12" class="edge"><title>Node6&#45;&gt;Node7</title>
<path fill="none" stroke="midnightblue" d="M254.587,-51C276.949,-51 304.792,-51 328.83,-51"/>
<polygon fill="midnightblue" stroke="midnightblue" points="328.872,-54.5001 338.872,-51 328.872,-47.5001 328.872,-54.5001"/>
</g>
<!-- Node11 -->
<g id="node21" class="node"><title>Node11</title>
<a xlink:href="../../d0/d69/class_point.html#adb9043980e8c2b8b1f2289cd48a3e168" target="_top" xlink:title="Point::fromMm">
<polygon fill="white" stroke="black" points="342.5,-80.5 342.5,-101.5 423.5,-101.5 423.5,-80.5 342.5,-80.5"/>
<text text-anchor="middle" x="383" y="-88.5" font-family="Helvetica,sans-Serif" font-size="10.00">Point::fromMm</text>
</a>
</g>
<!-- Node6&#45;&gt;Node11 -->
<g id="edge20" class="edge"><title>Node6&#45;&gt;Node11</title>
<path fill="none" stroke="midnightblue" d="M254.587,-60.7851C278.086,-66.3143 307.636,-73.2674 332.464,-79.1092"/>
<polygon fill="midnightblue" stroke="midnightblue" points="331.893,-82.5704 342.429,-81.454 333.497,-75.7565 331.893,-82.5704"/>
</g>
<!-- Node13 -->
<g id="node27" class="node"><title>Node13</title>
<a xlink:href="../../df/d70/class_exception.html#aa530ab8cc747843c76a435c3075ed094" target="_top" xlink:title="Get the user error message (translated) ">
<polygon fill="white" stroke="black" points="323.5,-0.5 323.5,-21.5 442.5,-21.5 442.5,-0.5 323.5,-0.5"/>
<text text-anchor="middle" x="383" y="-8.5" font-family="Helvetica,sans-Serif" font-size="10.00">Exception::getUserMsg</text>
</a>
</g>
<!-- Node6&#45;&gt;Node13 -->
<g id="edge28" class="edge"><title>Node6&#45;&gt;Node13</title>
<path fill="none" stroke="midnightblue" d="M254.587,-41.2149C276.777,-35.9936 304.364,-29.5026 328.274,-23.8766"/>
<polygon fill="midnightblue" stroke="midnightblue" points="329.338,-27.2221 338.27,-21.5246 327.734,-20.4082 329.338,-27.2221"/>
</g>
<!-- Node8 -->
<g id="node15" class="node"><title>Node8</title>
<a xlink:href="../../df/df0/class_length.html#ad9d64077c16d3a2631a87b69cea3426d" target="_top" xlink:title="Set the length in millimeters. ">
<polygon fill="white" stroke="black" points="507.5,-56.5 507.5,-77.5 618.5,-77.5 618.5,-56.5 507.5,-56.5"/>
<text text-anchor="middle" x="563" y="-64.5" font-family="Helvetica,sans-Serif" font-size="10.00">Length::setLengthMm</text>
</a>
</g>
<!-- Node7&#45;&gt;Node8 -->
<g id="edge14" class="edge"><title>Node7&#45;&gt;Node8</title>
<path fill="none" stroke="midnightblue" d="M427.033,-54.914C448.157,-56.7918 473.9,-59.08 497.28,-61.1583"/>
<polygon fill="midnightblue" stroke="midnightblue" points="497.211,-64.6658 507.482,-62.0651 497.831,-57.6933 497.211,-64.6658"/>
</g>
<!-- Node10 -->
<g id="node19" class="node"><title>Node10</title>
<a xlink:href="../../df/df0/class_length.html#a12aaddfb6cccff89e294f502574fe869" target="_top" xlink:title="Map this Length object to a specific grid interval. ">
<polygon fill="white" stroke="black" points="513,-16.5 513,-37.5 613,-37.5 613,-16.5 513,-16.5"/>
<text text-anchor="middle" x="563" y="-24.5" font-family="Helvetica,sans-Serif" font-size="10.00">Length::mapToGrid</text>
</a>
</g>
<!-- Node7&#45;&gt;Node10 -->
<g id="edge18" class="edge"><title>Node7&#45;&gt;Node10</title>
<path fill="none" stroke="midnightblue" d="M427.033,-45.1289C449.811,-42.0919 477.958,-38.339 502.722,-35.037"/>
<polygon fill="midnightblue" stroke="midnightblue" points="503.293,-38.4919 512.743,-33.7009 502.368,-31.5533 503.293,-38.4919"/>
</g>
<!-- Node9 -->
<g id="node17" class="node"><title>Node9</title>
<a xlink:href="../../df/df0/class_length.html#a73dbcae99cc78c7f7e737d5211154527" target="_top" xlink:title="Set the length from a floating point number in nanometers. ">
<polygon fill="white" stroke="black" points="668.5,-56.5 668.5,-77.5 807.5,-77.5 807.5,-56.5 668.5,-56.5"/>
<text text-anchor="middle" x="738" y="-64.5" font-family="Helvetica,sans-Serif" font-size="10.00">Length::setLengthFromFloat</text>
</a>
</g>
<!-- Node8&#45;&gt;Node9 -->
<g id="edge16" class="edge"><title>Node8&#45;&gt;Node9</title>
<path fill="none" stroke="midnightblue" d="M618.852,-67C631.367,-67 644.88,-67 658.156,-67"/>
<polygon fill="midnightblue" stroke="midnightblue" points="658.241,-70.5001 668.241,-67 658.241,-63.5001 658.241,-70.5001"/>
</g>
<!-- Node11&#45;&gt;Node8 -->
<g id="edge22" class="edge"><title>Node11&#45;&gt;Node8</title>
<path fill="none" stroke="midnightblue" d="M423.845,-85.554C445.542,-82.6611 472.738,-79.035 497.317,-75.7577"/>
<polygon fill="midnightblue" stroke="midnightblue" points="497.857,-79.2168 507.306,-74.4258 496.932,-72.2782 497.857,-79.2168"/>
</g>
<!-- Node12 -->
<g id="node24" class="node"><title>Node12</title>
<a xlink:href="../../d0/d69/class_point.html#aaf8d7a6826dcd72e03dc632960106b90" target="_top" xlink:title="Map this Point object to a specific grid interval. ">
<polygon fill="white" stroke="black" points="516.5,-96.5 516.5,-117.5 609.5,-117.5 609.5,-96.5 516.5,-96.5"/>
<text text-anchor="middle" x="563" y="-104.5" font-family="Helvetica,sans-Serif" font-size="10.00">Point::mapToGrid</text>
</a>
</g>
<!-- Node11&#45;&gt;Node12 -->
<g id="edge24" class="edge"><title>Node11&#45;&gt;Node12</title>
<path fill="none" stroke="midnightblue" d="M423.845,-94.6306C448.218,-96.7972 479.53,-99.5804 506.278,-101.958"/>
<polygon fill="midnightblue" stroke="midnightblue" points="506.011,-105.448 516.281,-102.847 506.631,-98.4755 506.011,-105.448"/>
</g>
<!-- Node12&#45;&gt;Node12 -->
<g id="edge26" class="edge"><title>Node12&#45;&gt;Node12</title>
<path fill="none" stroke="midnightblue" d="M535.353,-117.708C523.538,-126.653 532.754,-136 563,-136 582.849,-136 593.641,-131.975 595.376,-126.679"/>
<polygon fill="midnightblue" stroke="midnightblue" points="598.406,-124.922 590.647,-117.708 592.214,-128.186 598.406,-124.922"/>
</g>
<!-- Node14&#45;&gt;Node2 -->
<g id="edge48" class="edge"><title>Node14&#45;&gt;Node2</title>
<path fill="none" stroke="midnightblue" d="M214.903,-512.565C223.942,-561.683 263.934,-767.261 308,-813 308.914,-813.949 309.865,-814.863 310.848,-815.744"/>
<polygon fill="midnightblue" stroke="midnightblue" points="308.863,-818.631 318.952,-821.867 313.082,-813.046 308.863,-818.631"/>
</g>
<!-- Node14&#45;&gt;Node3 -->
<g id="edge60" class="edge"><title>Node14&#45;&gt;Node3</title>
<path fill="none" stroke="midnightblue" d="M233.693,-491.346C252.651,-481.898 281.684,-468.208 308,-459 372.914,-436.287 392,-440.331 458,-421 473.203,-416.547 489.503,-411.332 504.617,-406.308"/>
<polygon fill="midnightblue" stroke="midnightblue" points="505.986,-409.541 514.355,-403.044 503.761,-402.904 505.986,-409.541"/>
</g>
<!-- Node14&#45;&gt;Node4 -->
<g id="edge40" class="edge"><title>Node14&#45;&gt;Node4</title>
<path fill="none" stroke="midnightblue" d="M216.925,-512.593C226.481,-538.426 251.665,-606.742 272,-664 288.37,-710.093 273.215,-733.613 308,-768 311.965,-771.92 316.561,-775.225 321.487,-778.013"/>
<polygon fill="midnightblue" stroke="midnightblue" points="320.124,-781.242 330.645,-782.491 323.199,-774.954 320.124,-781.242"/>
</g>
<!-- Node15 -->
<g id="node31" class="node"><title>Node15</title>
<a xlink:href="../../dc/dbb/classproject_1_1_unplaced_components_dock.html#a8b27105b4d0e8500f6c177ab8bde0b65" target="_top" xlink:title="setSelectedGenCompInstance">
<polygon fill="white" stroke="black" points="308,-468.5 308,-489.5 458,-489.5 458,-468.5 308,-468.5"/>
<text text-anchor="middle" x="383" y="-476.5" font-family="Helvetica,sans-Serif" font-size="10.00">setSelectedGenCompInstance</text>
</a>
</g>
<!-- Node14&#45;&gt;Node15 -->
<g id="edge32" class="edge"><title>Node14&#45;&gt;Node15</title>
<path fill="none" stroke="midnightblue" d="M271.504,-494.085C280.018,-492.933 288.925,-491.728 297.835,-490.522"/>
<polygon fill="midnightblue" stroke="midnightblue" points="298.434,-493.973 307.875,-489.164 297.496,-487.036 298.434,-493.973"/>
</g>
<!-- Node16 -->
<g id="node33" class="node"><title>Node16</title>
<a xlink:href="../../dd/d8a/classlibrary_1_1_library_base_element.html#a01f0309d43de518f4e94c724d22f4502" target="_top" xlink:title="library::LibraryBaseElement\l::getName">
<polygon fill="white" stroke="black" points="494.5,-515 494.5,-549 631.5,-549 631.5,-515 494.5,-515"/>
<text text-anchor="start" x="502.5" y="-536" font-family="Helvetica,sans-Serif" font-size="10.00">library::LibraryBaseElement</text>
<text text-anchor="middle" x="563" y="-523" font-family="Helvetica,sans-Serif" font-size="10.00">::getName</text>
</a>
</g>
<!-- Node14&#45;&gt;Node16 -->
<g id="edge66" class="edge"><title>Node14&#45;&gt;Node16</title>
<path fill="none" stroke="midnightblue" d="M216.937,-512.577C233.597,-557.217 297.917,-728.222 308,-735 363.328,-772.192 401.051,-769.66 458,-735 521.699,-696.232 548.46,-604.983 558.188,-559.2"/>
<polygon fill="midnightblue" stroke="midnightblue" points="561.676,-559.608 560.209,-549.116 554.812,-558.233 561.676,-559.608"/>
</g>
<!-- Node18 -->
<g id="node39" class="node"><title>Node18</title>
<a xlink:href="../../d1/d03/classproject_1_1_circuit.html#af9d9d6ca29e9ad4c4591eeae0197ff08" target="_top" xlink:title="project::Circuit::getGen\lCompInstances">
<polygon fill="white" stroke="black" points="324,-378 324,-412 442,-412 442,-378 324,-378"/>
<text text-anchor="start" x="332" y="-399" font-family="Helvetica,sans-Serif" font-size="10.00">project::Circuit::getGen</text>
<text text-anchor="middle" x="383" y="-386" font-family="Helvetica,sans-Serif" font-size="10.00">CompInstances</text>
</a>
</g>
<!-- Node14&#45;&gt;Node18 -->
<g id="edge42" class="edge"><title>Node14&#45;&gt;Node18</title>
<path fill="none" stroke="midnightblue" d="M224.207,-491.258C241.221,-475.381 275.08,-445.437 308,-426 313.869,-422.535 320.198,-419.272 326.604,-416.26"/>
<polygon fill="midnightblue" stroke="midnightblue" points="328.317,-419.327 335.999,-412.03 325.443,-412.944 328.317,-419.327"/>
</g>
<!-- Node19 -->
<g id="node41" class="node"><title>Node19</title>
<a xlink:href="../../d5/d07/classproject_1_1_board.html#a392a41a5ac250cc2a623dbb2df12dfac" target="_top" xlink:title="project::Board::getComponent\lInstances">
<polygon fill="white" stroke="black" points="309.5,-326 309.5,-360 456.5,-360 456.5,-326 309.5,-326"/>
<text text-anchor="start" x="317.5" y="-347" font-family="Helvetica,sans-Serif" font-size="10.00">project::Board::getComponent</text>
<text text-anchor="middle" x="383" y="-334" font-family="Helvetica,sans-Serif" font-size="10.00">Instances</text>
</a>
</g>
<!-- Node14&#45;&gt;Node19 -->
<g id="edge44" class="edge"><title>Node14&#45;&gt;Node19</title>
<path fill="none" stroke="midnightblue" d="M217.77,-491.325C229.486,-466.291 262.098,-403.328 308,-369 309.838,-367.625 311.755,-366.319 313.732,-365.079"/>
<polygon fill="midnightblue" stroke="midnightblue" points="315.706,-367.985 322.73,-360.053 312.293,-361.874 315.706,-367.985"/>
</g>
<!-- Node20 -->
<g id="node43" class="node"><title>Node20</title>
<a xlink:href="../../de/d67/classproject_1_1_gen_comp_instance.html#ada9b237a8629c03e16491a72730b456b" target="_top" xlink:title="project::GenCompInstance\l::getUuid">
<polygon fill="white" stroke="black" points="316,-274 316,-308 450,-308 450,-274 316,-274"/>
<text text-anchor="start" x="324" y="-295" font-family="Helvetica,sans-Serif" font-size="10.00">project::GenCompInstance</text>
<text text-anchor="middle" x="383" y="-282" font-family="Helvetica,sans-Serif" font-size="10.00">::getUuid</text>
</a>
</g>
<!-- Node14&#45;&gt;Node20 -->
<g id="edge46" class="edge"><title>Node14&#45;&gt;Node20</title>
<path fill="none" stroke="midnightblue" d="M215.442,-491.491C223.24,-460.238 250.478,-366.949 308,-317 309.323,-315.851 310.701,-314.752 312.123,-313.7"/>
<polygon fill="midnightblue" stroke="midnightblue" points="314.18,-316.539 320.7,-308.188 310.395,-310.65 314.18,-316.539"/>
</g>
<!-- Node21 -->
<g id="node46" class="node"><title>Node21</title>
<a xlink:href="../../d7/d7c/classlibrary_1_1_generic_component.html#a9f78a2a936ffbbb66f8865343e93aed7" target="_top" xlink:title="library::GenericComponent\l::isSchematicOnly">
<polygon fill="white" stroke="black" points="316.5,-222 316.5,-256 449.5,-256 449.5,-222 316.5,-222"/>
<text text-anchor="start" x="324.5" y="-243" font-family="Helvetica,sans-Serif" font-size="10.00">library::GenericComponent</text>
<text text-anchor="middle" x="383" y="-230" font-family="Helvetica,sans-Serif" font-size="10.00">::isSchematicOnly</text>
</a>
</g>
<!-- Node14&#45;&gt;Node21 -->
<g id="edge50" class="edge"><title>Node14&#45;&gt;Node21</title>
<path fill="none" stroke="midnightblue" d="M214.158,-491.289C218.714,-454.373 238.705,-331.077 308,-265 309.122,-263.93 310.29,-262.904 311.498,-261.92"/>
<polygon fill="midnightblue" stroke="midnightblue" points="313.776,-264.6 319.987,-256.017 309.779,-258.853 313.776,-264.6"/>
</g>
<!-- Node22 -->
<g id="node48" class="node"><title>Node22</title>
<a xlink:href="../../d2/d05/classproject_1_1_project.html#a1ce83ab861173e235c7a651243d02937" target="_top" xlink:title="Get the ProjectLibrary object which contains all library elements used in this project. ">
<polygon fill="white" stroke="black" points="317.5,-704.5 317.5,-725.5 448.5,-725.5 448.5,-704.5 317.5,-704.5"/>
<text text-anchor="middle" x="383" y="-712.5" font-family="Helvetica,sans-Serif" font-size="10.00">project::Project::getLibrary</text>
</a>
</g>
<!-- Node14&#45;&gt;Node22 -->
<g id="edge52" class="edge"><title>Node14&#45;&gt;Node22</title>
<path fill="none" stroke="midnightblue" d="M215.03,-512.694C221.808,-545.382 246.786,-644.787 308,-695 310.051,-696.683 312.231,-698.225 314.506,-699.638"/>
<polygon fill="midnightblue" stroke="midnightblue" points="313.214,-702.913 323.693,-704.475 316.475,-696.719 313.214,-702.913"/>
</g>
<!-- Node23 -->
<g id="node50" class="node"><title>Node23</title>
<a xlink:href="../../d9/d30/classproject_1_1_project_library.html#acc16ec02378a1c17f0b883ff8002e402" target="_top" xlink:title="project::ProjectLibrary\l::getComponentsOfGenComp">
<polygon fill="white" stroke="black" points="310,-170 310,-204 456,-204 456,-170 310,-170"/>
<text text-anchor="start" x="318" y="-191" font-family="Helvetica,sans-Serif" font-size="10.00">project::ProjectLibrary</text>
<text text-anchor="middle" x="383" y="-178" font-family="Helvetica,sans-Serif" font-size="10.00">::getComponentsOfGenComp</text>
</a>
</g>
<!-- Node14&#45;&gt;Node23 -->
<g id="edge54" class="edge"><title>Node14&#45;&gt;Node23</title>
<path fill="none" stroke="midnightblue" d="M213.273,-491.375C214.919,-449.727 226.504,-295.82 308,-213 308.924,-212.061 309.884,-211.155 310.876,-210.283"/>
<polygon fill="midnightblue" stroke="midnightblue" points="313.1,-212.99 319.032,-204.211 308.92,-207.375 313.1,-212.99"/>
</g>
<!-- Node25 -->
<g id="node56" class="node"><title>Node25</title>
<a xlink:href="../../de/d67/classproject_1_1_gen_comp_instance.html#ab0c96f485564e41206ce9a4ce42ba389" target="_top" xlink:title="project::GenCompInstance\l::getName">
<polygon fill="white" stroke="black" points="316,-652 316,-686 450,-686 450,-652 316,-652"/>
<text text-anchor="start" x="324" y="-673" font-family="Helvetica,sans-Serif" font-size="10.00">project::GenCompInstance</text>
<text text-anchor="middle" x="383" y="-660" font-family="Helvetica,sans-Serif" font-size="10.00">::getName</text>
</a>
</g>
<!-- Node14&#45;&gt;Node25 -->
<g id="edge62" class="edge"><title>Node14&#45;&gt;Node25</title>
<path fill="none" stroke="midnightblue" d="M217.259,-512.544C228.286,-538.547 260.276,-606.281 308,-643 309.775,-644.366 311.627,-645.663 313.538,-646.894"/>
<polygon fill="midnightblue" stroke="midnightblue" points="311.835,-649.952 322.252,-651.885 315.314,-643.878 311.835,-649.952"/>
</g>
<!-- Node26 -->
<g id="node58" class="node"><title>Node26</title>
<a xlink:href="../../de/d67/classproject_1_1_gen_comp_instance.html#a1dbc1371a264fd73efc4b08a38f115da" target="_top" xlink:title="project::GenCompInstance\l::getValue">
<polygon fill="white" stroke="black" points="316,-600 316,-634 450,-634 450,-600 316,-600"/>
<text text-anchor="start" x="324" y="-621" font-family="Helvetica,sans-Serif" font-size="10.00">project::GenCompInstance</text>
<text text-anchor="middle" x="383" y="-608" font-family="Helvetica,sans-Serif" font-size="10.00">::getValue</text>
</a>
</g>
<!-- Node14&#45;&gt;Node26 -->
<g id="edge64" class="edge"><title>Node14&#45;&gt;Node26</title>
<path fill="none" stroke="midnightblue" d="M221.602,-512.56C237.08,-530.932 271.435,-568.92 308,-591 310.629,-592.587 313.368,-594.095 316.178,-595.526"/>
<polygon fill="midnightblue" stroke="midnightblue" points="314.81,-598.75 325.349,-599.832 317.785,-592.413 314.81,-598.75"/>
</g>
<!-- Node27 -->
<g id="node61" class="node"><title>Node27</title>
<a xlink:href="../../d2/d05/classproject_1_1_project.html#a6054e079a2e370148fce27b138686ba3" target="_top" xlink:title="Get the ProjectSettings object which contains all project settings. ">
<polygon fill="white" stroke="black" points="314,-560.5 314,-581.5 452,-581.5 452,-560.5 314,-560.5"/>
<text text-anchor="middle" x="383" y="-568.5" font-family="Helvetica,sans-Serif" font-size="10.00">project::Project::getSettings</text>
</a>
</g>
<!-- Node14&#45;&gt;Node27 -->
<g id="edge68" class="edge"><title>Node14&#45;&gt;Node27</title>
<path fill="none" stroke="midnightblue" d="M230.675,-512.589C249.361,-523.427 279.954,-540.173 308,-551 314.25,-553.413 320.902,-555.643 327.563,-557.67"/>
<polygon fill="midnightblue" stroke="midnightblue" points="326.704,-561.065 337.284,-560.493 328.656,-554.343 326.704,-561.065"/>
</g>
<!-- Node28 -->
<g id="node63" class="node"><title>Node28</title>
<a xlink:href="../../d7/d04/classproject_1_1_project_settings.html#a4e1f38901d0cab44a6bdae922a877b22" target="_top" xlink:title="project::ProjectSettings\l::getLocaleOrder">
<polygon fill="white" stroke="black" points="323.5,-508 323.5,-542 442.5,-542 442.5,-508 323.5,-508"/>
<text text-anchor="start" x="331.5" y="-529" font-family="Helvetica,sans-Serif" font-size="10.00">project::ProjectSettings</text>
<text text-anchor="middle" x="383" y="-516" font-family="Helvetica,sans-Serif" font-size="10.00">::getLocaleOrder</text>
</a>
</g>
<!-- Node14&#45;&gt;Node28 -->
<g id="edge70" class="edge"><title>Node14&#45;&gt;Node28</title>
<path fill="none" stroke="midnightblue" d="M271.504,-509.915C284.952,-511.735 299.383,-513.687 313.254,-515.564"/>
<polygon fill="midnightblue" stroke="midnightblue" points="312.853,-519.041 323.232,-516.914 313.792,-512.105 312.853,-519.041"/>
</g>
<!-- Node15&#45;&gt;Node3 -->
<g id="edge38" class="edge"><title>Node15&#45;&gt;Node3</title>
<path fill="none" stroke="midnightblue" d="M420.737,-468.478C432.891,-464.55 446.249,-459.651 458,-454 484.203,-441.4 511.715,-423.382 532.002,-409.058"/>
<polygon fill="midnightblue" stroke="midnightblue" points="534.132,-411.838 540.228,-403.172 530.059,-406.145 534.132,-411.838"/>
</g>
<!-- Node15&#45;&gt;Node16 -->
<g id="edge34" class="edge"><title>Node15&#45;&gt;Node16</title>
<path fill="none" stroke="midnightblue" d="M423.961,-489.575C435.036,-492.529 447,-495.806 458,-499 471.866,-503.026 486.695,-507.55 500.709,-511.928"/>
<polygon fill="midnightblue" stroke="midnightblue" points="499.67,-515.27 510.26,-514.927 501.768,-508.592 499.67,-515.27"/>
</g>
<!-- Node17 -->
<g id="node35" class="node"><title>Node17</title>
<a xlink:href="../../dd/d8a/classlibrary_1_1_library_base_element.html#a3de489fd5ff14ef1709e7ba41628ab3e" target="_top" xlink:title="Get the string of a specific locale from a QMap. ">
<polygon fill="white" stroke="black" points="669.5,-515 669.5,-549 806.5,-549 806.5,-515 669.5,-515"/>
<text text-anchor="start" x="677.5" y="-536" font-family="Helvetica,sans-Serif" font-size="10.00">library::LibraryBaseElement</text>
<text text-anchor="middle" x="738" y="-523" font-family="Helvetica,sans-Serif" font-size="10.00">::localeStringFromList</text>
</a>
</g>
<!-- Node16&#45;&gt;Node17 -->
<g id="edge36" class="edge"><title>Node16&#45;&gt;Node17</title>
<path fill="none" stroke="midnightblue" d="M631.662,-532C640.637,-532 649.89,-532 659.017,-532"/>
<polygon fill="midnightblue" stroke="midnightblue" points="659.248,-535.5 669.248,-532 659.248,-528.5 659.248,-535.5"/>
</g>
<!-- Node23&#45;&gt;Node3 -->
<g id="edge58" class="edge"><title>Node23&#45;&gt;Node3</title>
<path fill="none" stroke="midnightblue" d="M444.296,-204.093C449.172,-206.671 453.819,-209.623 458,-213 483.599,-233.68 527.959,-316.732 549.914,-359.799"/>
<polygon fill="midnightblue" stroke="midnightblue" points="546.853,-361.501 554.494,-368.841 553.097,-358.338 546.853,-361.501"/>
</g>
<!-- Node24 -->
<g id="node52" class="node"><title>Node24</title>
<a xlink:href="../../d3/dad/classlibrary_1_1_component.html#a88f1a973e2036997bc17ce0782c36587" target="_top" xlink:title="library::Component\l::getGenCompUuid">
<polygon fill="white" stroke="black" points="512.5,-170 512.5,-204 613.5,-204 613.5,-170 512.5,-170"/>
<text text-anchor="start" x="520.5" y="-191" font-family="Helvetica,sans-Serif" font-size="10.00">library::Component</text>
<text text-anchor="middle" x="563" y="-178" font-family="Helvetica,sans-Serif" font-size="10.00">::getGenCompUuid</text>
</a>
</g>
<!-- Node23&#45;&gt;Node24 -->
<g id="edge56" class="edge"><title>Node23&#45;&gt;Node24</title>
<path fill="none" stroke="midnightblue" d="M456.213,-187C471.555,-187 487.572,-187 502.393,-187"/>
<polygon fill="midnightblue" stroke="midnightblue" points="502.441,-190.5 512.441,-187 502.441,-183.5 502.441,-190.5"/>
</g>
</g>
</svg>
