<?xml version="1.0" encoding="UTF-8" standalone="no"?>
<!DOCTYPE svg PUBLIC "-//W3C//DTD SVG 1.1//EN"
 "http://www.w3.org/Graphics/SVG/1.1/DTD/svg11.dtd">
<!-- Generated by graphviz version 2.26.3 (20100126.1600)
 -->
<!-- Title: /home/travis/build/LibrePCB/LibrePCB/libs/librepcbproject/erc/ercmsglist.h Pages: 1 -->
<svg width="638pt" height="154pt"
 viewBox="0.00 0.00 638.00 154.00" xmlns="http://www.w3.org/2000/svg" xmlns:xlink="http://www.w3.org/1999/xlink">
<g id="graph1" class="graph" transform="scale(1 1) rotate(0) translate(4 150)">
<title>/home/travis/build/LibrePCB/LibrePCB/libs/librepcbproject/erc/ercmsglist.h</title>
<polygon fill="white" stroke="white" points="-4,5 -4,-150 635,-150 635,5 -4,5"/>
<!-- Node1 -->
<g id="node1" class="node"><title>Node1</title>
<polygon fill="#bfbfbf" stroke="black" points="259.5,-98.5 259.5,-145.5 414.5,-145.5 414.5,-98.5 259.5,-98.5"/>
<text text-anchor="start" x="267.5" y="-132.5" font-family="Helvetica,sans-Serif" font-size="10.00">/home/travis/build</text>
<text text-anchor="start" x="267.5" y="-119.5" font-family="Helvetica,sans-Serif" font-size="10.00">/LibrePCB/LibrePCB/libs</text>
<text text-anchor="middle" x="337" y="-106.5" font-family="Helvetica,sans-Serif" font-size="10.00">/librepcbproject/erc/ercmsglist.h</text>
</g>
<!-- Node2 -->
<g id="node3" class="node"><title>Node2</title>
<a xlink:href="../../d7/d59/ercmsg_8cpp.html" target="_top" xlink:title="/home/travis/build\l/LibrePCB/LibrePCB/libs\l/librepcbproject/erc/ercmsg.cpp">
<polygon fill="white" stroke="black" points="-0.5,-7.5 -0.5,-54.5 152.5,-54.5 152.5,-7.5 -0.5,-7.5"/>
<text text-anchor="start" x="7.5" y="-41.5" font-family="Helvetica,sans-Serif" font-size="10.00">/home/travis/build</text>
<text text-anchor="start" x="7.5" y="-28.5" font-family="Helvetica,sans-Serif" font-size="10.00">/LibrePCB/LibrePCB/libs</text>
<text text-anchor="middle" x="76" y="-15.5" font-family="Helvetica,sans-Serif" font-size="10.00">/librepcbproject/erc/ercmsg.cpp</text>
</a>
</g>
<!-- Node1&#45;&gt;Node2 -->
<g id="edge2" class="edge"><title>Node1&#45;&gt;Node2</title>
<path fill="none" stroke="midnightblue" d="M257.031,-95.1364C226.883,-84.9042 192.317,-73.0473 161,-62 154.186,-59.5963 147.076,-57.0555 139.997,-54.5045"/>
<polygon fill="midnightblue" stroke="midnightblue" points="256.06,-98.5029 266.655,-98.3984 258.308,-91.8734 256.06,-98.5029"/>
</g>
<!-- Node3 -->
<g id="node5" class="node"><title>Node3</title>
<a xlink:href="../../d0/d69/ercmsglist_8cpp.html" target="_top" xlink:title="/home/travis/build\l/LibrePCB/LibrePCB/libs\l/librepcbproject/erc/ercmsglist.cpp">
<polygon fill="white" stroke="black" points="170,-7.5 170,-54.5 336,-54.5 336,-7.5 170,-7.5"/>
<text text-anchor="start" x="178" y="-41.5" font-family="Helvetica,sans-Serif" font-size="10.00">/home/travis/build</text>
<text text-anchor="start" x="178" y="-28.5" font-family="Helvetica,sans-Serif" font-size="10.00">/LibrePCB/LibrePCB/libs</text>
<text text-anchor="middle" x="253" y="-15.5" font-family="Helvetica,sans-Serif" font-size="10.00">/librepcbproject/erc/ercmsglist.cpp</text>
</a>
</g>
<!-- Node1&#45;&gt;Node3 -->
<g id="edge4" class="edge"><title>Node1&#45;&gt;Node3</title>
<path fill="none" stroke="midnightblue" d="M308.019,-90.6044C297.169,-78.8493 285.031,-65.7004 274.923,-54.7495"/>
<polygon fill="midnightblue" stroke="midnightblue" points="305.575,-93.1168 314.93,-98.0908 310.719,-88.3688 305.575,-93.1168"/>
</g>
<!-- Node4 -->
<g id="node7" class="node"><title>Node4</title>
<a xlink:href="../../df/d18/project_8cpp.html" target="_top" xlink:title="/home/travis/build\l/LibrePCB/LibrePCB/libs\l/librepcbproject/project.cpp">
<polygon fill="white" stroke="black" points="354,-7.5 354,-54.5 488,-54.5 488,-7.5 354,-7.5"/>
<text text-anchor="start" x="362" y="-41.5" font-family="Helvetica,sans-Serif" font-size="10.00">/home/travis/build</text>
<text text-anchor="start" x="362" y="-28.5" font-family="Helvetica,sans-Serif" font-size="10.00">/LibrePCB/LibrePCB/libs</text>
<text text-anchor="middle" x="421" y="-15.5" font-family="Helvetica,sans-Serif" font-size="10.00">/librepcbproject/project.cpp</text>
</a>
</g>
<!-- Node1&#45;&gt;Node4 -->
<g id="edge6" class="edge"><title>Node1&#45;&gt;Node4</title>
<path fill="none" stroke="midnightblue" d="M365.981,-90.6044C376.831,-78.8493 388.969,-65.7004 399.077,-54.7495"/>
<polygon fill="midnightblue" stroke="midnightblue" points="363.281,-88.3688 359.07,-98.0908 368.425,-93.1168 363.281,-88.3688"/>
</g>
<!-- Node5 -->
<g id="node9" class="node"><title>Node5</title>
<a xlink:href="../../d5/da3/ercmsgdock_8cpp.html" target="_top" xlink:title="/home/travis/build\l/LibrePCB/LibrePCB/libs\l/librepcbprojecteditor\l/docks/ercmsgdock.cpp">
<polygon fill="white" stroke="black" points="505.5,-1 505.5,-61 630.5,-61 630.5,-1 505.5,-1"/>
<text text-anchor="start" x="513.5" y="-48" font-family="Helvetica,sans-Serif" font-size="10.00">/home/travis/build</text>
<text text-anchor="start" x="513.5" y="-35" font-family="Helvetica,sans-Serif" font-size="10.00">/LibrePCB/LibrePCB/libs</text>
<text text-anchor="start" x="513.5" y="-22" font-family="Helvetica,sans-Serif" font-size="10.00">/librepcbprojecteditor</text>
<text text-anchor="middle" x="568" y="-9" font-family="Helvetica,sans-Serif" font-size="10.00">/docks/ercmsgdock.cpp</text>
</a>
</g>
<!-- Node1&#45;&gt;Node5 -->
<g id="edge8" class="edge"><title>Node1&#45;&gt;Node5</title>
<path fill="none" stroke="midnightblue" d="M411.693,-94.922C438.693,-84.8887 469.333,-73.2184 497,-62 499.742,-60.8881 502.537,-59.7384 505.356,-58.5655"/>
<polygon fill="midnightblue" stroke="midnightblue" points="410.467,-91.6436 402.305,-98.3992 412.898,-98.2078 410.467,-91.6436"/>
</g>
</g>
</svg>
