<?xml version="1.0" encoding="UTF-8" standalone="no"?>
<!DOCTYPE svg PUBLIC "-//W3C//DTD SVG 1.1//EN"
 "http://www.w3.org/Graphics/SVG/1.1/DTD/svg11.dtd">
<!-- Generated by graphviz version 2.26.3 (20100126.1600)
 -->
<!-- Title: /home/travis/build/LibrePCB/LibrePCB/libs/librepcbproject/schematics/schematiclayerprovider.h Pages: 1 -->
<svg width="298pt" height="168pt"
 viewBox="0.00 0.00 298.00 168.00" xmlns="http://www.w3.org/2000/svg" xmlns:xlink="http://www.w3.org/1999/xlink">
<g id="graph1" class="graph" transform="scale(1 1) rotate(0) translate(4 164)">
<title>/home/travis/build/LibrePCB/LibrePCB/libs/librepcbproject/schematics/schematiclayerprovider.h</title>
<polygon fill="white" stroke="white" points="-4,5 -4,-164 295,-164 295,5 -4,5"/>
<!-- Node1 -->
<g id="node1" class="node"><title>Node1</title>
<polygon fill="#bfbfbf" stroke="black" points="76,-99 76,-159 212,-159 212,-99 76,-99"/>
<text text-anchor="start" x="84" y="-146" font-family="Helvetica,sans-Serif" font-size="10.00">/home/travis/build</text>
<text text-anchor="start" x="84" y="-133" font-family="Helvetica,sans-Serif" font-size="10.00">/LibrePCB/LibrePCB/libs</text>
<text text-anchor="start" x="84" y="-120" font-family="Helvetica,sans-Serif" font-size="10.00">/librepcbproject/schematics</text>
<text text-anchor="middle" x="144" y="-107" font-family="Helvetica,sans-Serif" font-size="10.00">/schematiclayerprovider.h</text>
</g>
<!-- Node2 -->
<g id="node3" class="node"><title>Node2</title>
<a xlink:href="../../df/d18/project_8cpp.html" target="_top" xlink:title="/home/travis/build\l/LibrePCB/LibrePCB/libs\l/librepcbproject/project.cpp">
<polygon fill="white" stroke="black" points="0,-7.5 0,-54.5 134,-54.5 134,-7.5 0,-7.5"/>
<text text-anchor="start" x="8" y="-41.5" font-family="Helvetica,sans-Serif" font-size="10.00">/home/travis/build</text>
<text text-anchor="start" x="8" y="-28.5" font-family="Helvetica,sans-Serif" font-size="10.00">/LibrePCB/LibrePCB/libs</text>
<text text-anchor="middle" x="67" y="-15.5" font-family="Helvetica,sans-Serif" font-size="10.00">/librepcbproject/project.cpp</text>
</a>
</g>
<!-- Node1&#45;&gt;Node2 -->
<g id="edge2" class="edge"><title>Node1&#45;&gt;Node2</title>
<path fill="none" stroke="midnightblue" d="M113.831,-90.603C104.323,-78.5021 94.1032,-65.495 85.6442,-54.7289"/>
<polygon fill="midnightblue" stroke="midnightblue" points="111.339,-93.0963 120.269,-98.7971 116.843,-88.7715 111.339,-93.0963"/>
</g>
<!-- Node3 -->
<g id="node5" class="node"><title>Node3</title>
<a xlink:href="../../da/dd5/schematiclayerprovider_8cpp.html" target="_top" xlink:title="/home/travis/build\l/LibrePCB/LibrePCB/libs\l/librepcbproject/schematics\l/schematiclayerprovider.cpp">
<polygon fill="white" stroke="black" points="151.5,-1 151.5,-61 290.5,-61 290.5,-1 151.5,-1"/>
<text text-anchor="start" x="159.5" y="-48" font-family="Helvetica,sans-Serif" font-size="10.00">/home/travis/build</text>
<text text-anchor="start" x="159.5" y="-35" font-family="Helvetica,sans-Serif" font-size="10.00">/LibrePCB/LibrePCB/libs</text>
<text text-anchor="start" x="159.5" y="-22" font-family="Helvetica,sans-Serif" font-size="10.00">/librepcbproject/schematics</text>
<text text-anchor="middle" x="221" y="-9" font-family="Helvetica,sans-Serif" font-size="10.00">/schematiclayerprovider.cpp</text>
</a>
</g>
<!-- Node1&#45;&gt;Node3 -->
<g id="edge4" class="edge"><title>Node1&#45;&gt;Node3</title>
<path fill="none" stroke="midnightblue" d="M174.047,-90.7581C181.733,-80.9758 189.892,-70.5918 197.215,-61.2718"/>
<polygon fill="midnightblue" stroke="midnightblue" points="171.157,-88.7715 167.731,-98.7971 176.661,-93.0963 171.157,-88.7715"/>
</g>
</g>
</svg>
