<?xml version="1.0" encoding="UTF-8" standalone="no"?>
<!DOCTYPE svg PUBLIC "-//W3C//DTD SVG 1.1//EN"
 "http://www.w3.org/Graphics/SVG/1.1/DTD/svg11.dtd">
<!-- Generated by graphviz version 2.26.3 (20100126.1600)
 -->
<!-- Title: setSelectedSymbVar Pages: 1 -->
<svg width="482pt" height="560pt"
 viewBox="0.00 0.00 482.00 560.00" xmlns="http://www.w3.org/2000/svg" xmlns:xlink="http://www.w3.org/1999/xlink">
<g id="graph1" class="graph" transform="scale(1 1) rotate(0) translate(4 556)">
<title>setSelectedSymbVar</title>
<polygon fill="white" stroke="white" points="-4,5 -4,-556 479,-556 479,5 -4,5"/>
<!-- Node1 -->
<g id="node1" class="node"><title>Node1</title>
<polygon fill="#bfbfbf" stroke="black" points="0.5,-253.5 0.5,-274.5 109.5,-274.5 109.5,-253.5 0.5,-253.5"/>
<text text-anchor="middle" x="55" y="-261.5" font-family="Helvetica,sans-Serif" font-size="10.00">setSelectedSymbVar</text>
</g>
<!-- Node2 -->
<g id="node3" class="node"><title>Node2</title>
<a xlink:href="../../d2/d05/classproject_1_1_project.html#a6054e079a2e370148fce27b138686ba3" target="_top" xlink:title="Get the ProjectSettings object which contains all project settings. ">
<polygon fill="white" stroke="black" points="154,-530.5 154,-551.5 292,-551.5 292,-530.5 154,-530.5"/>
<text text-anchor="middle" x="223" y="-538.5" font-family="Helvetica,sans-Serif" font-size="10.00">project::Project::getSettings</text>
</a>
</g>
<!-- Node1&#45;&gt;Node2 -->
<g id="edge2" class="edge"><title>Node1&#45;&gt;Node2</title>
<path fill="none" stroke="midnightblue" d="M55.3937,-274.696C57.4367,-313.927 69.9618,-451.248 146,-521 147.695,-522.555 149.496,-523.993 151.381,-525.321"/>
<polygon fill="midnightblue" stroke="midnightblue" points="149.731,-528.411 160.123,-530.475 153.286,-522.381 149.731,-528.411"/>
</g>
<!-- Node3 -->
<g id="node5" class="node"><title>Node3</title>
<a xlink:href="../../d7/d04/classproject_1_1_project_settings.html#a4e1f38901d0cab44a6bdae922a877b22" target="_top" xlink:title="project::ProjectSettings\l::getLocaleOrder">
<polygon fill="white" stroke="black" points="163.5,-478 163.5,-512 282.5,-512 282.5,-478 163.5,-478"/>
<text text-anchor="start" x="171.5" y="-499" font-family="Helvetica,sans-Serif" font-size="10.00">project::ProjectSettings</text>
<text text-anchor="middle" x="223" y="-486" font-family="Helvetica,sans-Serif" font-size="10.00">::getLocaleOrder</text>
</a>
</g>
<!-- Node1&#45;&gt;Node3 -->
<g id="edge4" class="edge"><title>Node1&#45;&gt;Node3</title>
<path fill="none" stroke="midnightblue" d="M56.6525,-274.678C62.4145,-308.31 84.7137,-413.115 146,-469 148.634,-471.402 151.498,-473.583 154.522,-475.564"/>
<polygon fill="midnightblue" stroke="midnightblue" points="152.983,-478.715 163.404,-480.63 156.452,-472.635 152.983,-478.715"/>
</g>
<!-- Node4 -->
<g id="node7" class="node"><title>Node4</title>
<a xlink:href="../../d7/dff/classlibrary_1_1_gen_comp_symb_var.html#ada9b237a8629c03e16491a72730b456b" target="_top" xlink:title="library::GenCompSymbVar\l::getUuid">
<polygon fill="white" stroke="black" points="156,-426 156,-460 290,-460 290,-426 156,-426"/>
<text text-anchor="start" x="164" y="-447" font-family="Helvetica,sans-Serif" font-size="10.00">library::GenCompSymbVar</text>
<text text-anchor="middle" x="223" y="-434" font-family="Helvetica,sans-Serif" font-size="10.00">::getUuid</text>
</a>
</g>
<!-- Node1&#45;&gt;Node4 -->
<g id="edge6" class="edge"><title>Node1&#45;&gt;Node4</title>
<path fill="none" stroke="midnightblue" d="M58.3925,-274.649C67.7367,-302.293 96.4927,-376.971 146,-417 147.563,-418.264 149.191,-419.468 150.872,-420.615"/>
<polygon fill="midnightblue" stroke="midnightblue" points="149.28,-423.741 159.656,-425.882 152.88,-417.738 149.28,-423.741"/>
</g>
<!-- Node5 -->
<g id="node9" class="node"><title>Node5</title>
<a xlink:href="../../d7/dff/classlibrary_1_1_gen_comp_symb_var.html#a07748d2329ba6f3667d423c7662dffe1" target="_top" xlink:title="library::GenCompSymbVar\l::getNorm">
<polygon fill="white" stroke="black" points="156,-374 156,-408 290,-408 290,-374 156,-374"/>
<text text-anchor="start" x="164" y="-395" font-family="Helvetica,sans-Serif" font-size="10.00">library::GenCompSymbVar</text>
<text text-anchor="middle" x="223" y="-382" font-family="Helvetica,sans-Serif" font-size="10.00">::getNorm</text>
</a>
</g>
<!-- Node1&#45;&gt;Node5 -->
<g id="edge8" class="edge"><title>Node1&#45;&gt;Node5</title>
<path fill="none" stroke="midnightblue" d="M61.9052,-274.794C75.5432,-295.279 107.936,-339.978 146,-365 148.297,-366.51 150.691,-367.941 153.153,-369.296"/>
<polygon fill="midnightblue" stroke="midnightblue" points="151.807,-372.536 162.317,-373.876 154.936,-366.274 151.807,-372.536"/>
</g>
<!-- Node6 -->
<g id="node11" class="node"><title>Node6</title>
<a xlink:href="../../d7/dff/classlibrary_1_1_gen_comp_symb_var.html#a0e5b7dc7eca3c6468aa85375bf2c3dde" target="_top" xlink:title="library::GenCompSymbVar\l::getDescription">
<polygon fill="white" stroke="black" points="156,-322 156,-356 290,-356 290,-322 156,-322"/>
<text text-anchor="start" x="164" y="-343" font-family="Helvetica,sans-Serif" font-size="10.00">library::GenCompSymbVar</text>
<text text-anchor="middle" x="223" y="-330" font-family="Helvetica,sans-Serif" font-size="10.00">::getDescription</text>
</a>
</g>
<!-- Node1&#45;&gt;Node6 -->
<g id="edge10" class="edge"><title>Node1&#45;&gt;Node6</title>
<path fill="none" stroke="midnightblue" d="M72.684,-274.678C90.7039,-285.281 119.668,-301.562 146,-313 150.303,-314.869 154.787,-316.691 159.333,-318.447"/>
<polygon fill="midnightblue" stroke="midnightblue" points="158.119,-321.73 168.712,-321.952 160.57,-315.173 158.119,-321.73"/>
</g>
<!-- Node8 -->
<g id="node15" class="node"><title>Node8</title>
<a xlink:href="../../d7/dff/classlibrary_1_1_gen_comp_symb_var.html#a95be340ed5134b5b4fc05ab47e4c9c34" target="_top" xlink:title="library::GenCompSymbVar\l::getItems">
<polygon fill="white" stroke="black" points="156,-270 156,-304 290,-304 290,-270 156,-270"/>
<text text-anchor="start" x="164" y="-291" font-family="Helvetica,sans-Serif" font-size="10.00">library::GenCompSymbVar</text>
<text text-anchor="middle" x="223" y="-278" font-family="Helvetica,sans-Serif" font-size="10.00">::getItems</text>
</a>
</g>
<!-- Node1&#45;&gt;Node8 -->
<g id="edge14" class="edge"><title>Node1&#45;&gt;Node8</title>
<path fill="none" stroke="midnightblue" d="M109.545,-271.467C121.072,-273.046 133.447,-274.74 145.634,-276.408"/>
<polygon fill="midnightblue" stroke="midnightblue" points="145.422,-279.912 155.804,-277.801 146.371,-272.976 145.422,-279.912"/>
</g>
<!-- Node9 -->
<g id="node17" class="node"><title>Node9</title>
<a xlink:href="../../d5/d56/class_workspace.html#a0aaab7f8db4623adc7227460a859db51" target="_top" xlink:title="Get the workspace library. ">
<polygon fill="white" stroke="black" points="165.5,-230.5 165.5,-251.5 280.5,-251.5 280.5,-230.5 165.5,-230.5"/>
<text text-anchor="middle" x="223" y="-238.5" font-family="Helvetica,sans-Serif" font-size="10.00">Workspace::getLibrary</text>
</a>
</g>
<!-- Node1&#45;&gt;Node9 -->
<g id="edge16" class="edge"><title>Node1&#45;&gt;Node9</title>
<path fill="none" stroke="midnightblue" d="M109.545,-256.533C124.024,-254.55 139.84,-252.385 154.943,-250.317"/>
<polygon fill="midnightblue" stroke="midnightblue" points="155.826,-253.729 165.259,-248.905 154.877,-246.794 155.826,-253.729"/>
</g>
<!-- Node10 -->
<g id="node19" class="node"><title>Node10</title>
<a xlink:href="../../de/d02/classlibrary_1_1_library.html#ab9d3322f7c9a51af677857c032f30bd7" target="_top" xlink:title="library::Library::getSymbols">
<polygon fill="white" stroke="black" points="155,-190.5 155,-211.5 291,-211.5 291,-190.5 155,-190.5"/>
<text text-anchor="middle" x="223" y="-198.5" font-family="Helvetica,sans-Serif" font-size="10.00">library::Library::getSymbols</text>
</a>
</g>
<!-- Node1&#45;&gt;Node10 -->
<g id="edge18" class="edge"><title>Node1&#45;&gt;Node10</title>
<path fill="none" stroke="midnightblue" d="M74.7789,-253.328C92.9095,-243.869 120.702,-230.171 146,-221 152.695,-218.573 159.817,-216.312 166.922,-214.249"/>
<polygon fill="midnightblue" stroke="midnightblue" points="167.867,-217.619 176.559,-211.562 165.987,-210.877 167.867,-217.619"/>
</g>
<!-- Node11 -->
<g id="node21" class="node"><title>Node11</title>
<a xlink:href="../../d5/d1e/classlibrary_1_1_gen_comp_symb_var_item.html#ae244026d0acdc7d950b6752f4ad00e4e" target="_top" xlink:title="library::GenCompSymbVarItem\l::getSymbolUuid">
<polygon fill="white" stroke="black" points="146.5,-138 146.5,-172 299.5,-172 299.5,-138 146.5,-138"/>
<text text-anchor="start" x="154.5" y="-159" font-family="Helvetica,sans-Serif" font-size="10.00">library::GenCompSymbVarItem</text>
<text text-anchor="middle" x="223" y="-146" font-family="Helvetica,sans-Serif" font-size="10.00">::getSymbolUuid</text>
</a>
</g>
<!-- Node1&#45;&gt;Node11 -->
<g id="edge20" class="edge"><title>Node1&#45;&gt;Node11</title>
<path fill="none" stroke="midnightblue" d="M64.0051,-253.306C79.2232,-235.859 111.735,-201.194 146,-181 148.796,-179.352 151.711,-177.791 154.701,-176.313"/>
<polygon fill="midnightblue" stroke="midnightblue" points="156.213,-179.471 163.853,-172.131 153.303,-173.104 156.213,-179.471"/>
</g>
<!-- Node12 -->
<g id="node23" class="node"><title>Node12</title>
<a xlink:href="../../d5/d1e/classlibrary_1_1_gen_comp_symb_var_item.html#ada9b237a8629c03e16491a72730b456b" target="_top" xlink:title="library::GenCompSymbVarItem\l::getUuid">
<polygon fill="white" stroke="black" points="146.5,-86 146.5,-120 299.5,-120 299.5,-86 146.5,-86"/>
<text text-anchor="start" x="154.5" y="-107" font-family="Helvetica,sans-Serif" font-size="10.00">library::GenCompSymbVarItem</text>
<text text-anchor="middle" x="223" y="-94" font-family="Helvetica,sans-Serif" font-size="10.00">::getUuid</text>
</a>
</g>
<!-- Node1&#45;&gt;Node12 -->
<g id="edge22" class="edge"><title>Node1&#45;&gt;Node12</title>
<path fill="none" stroke="midnightblue" d="M59.3793,-253.136C70.1905,-227.663 100.605,-163.629 146,-129 147.777,-127.644 149.63,-126.357 151.541,-125.134"/>
<polygon fill="midnightblue" stroke="midnightblue" points="153.287,-128.167 160.247,-120.179 149.825,-122.083 153.287,-128.167"/>
</g>
<!-- Node13 -->
<g id="node25" class="node"><title>Node13</title>
<a xlink:href="../../dc/dcc/class_graphics_scene.html#ad4900f3543f03cac6482cdbe7368291f" target="_top" xlink:title="GraphicsScene::addItem">
<polygon fill="white" stroke="black" points="160.5,-46.5 160.5,-67.5 285.5,-67.5 285.5,-46.5 160.5,-46.5"/>
<text text-anchor="middle" x="223" y="-54.5" font-family="Helvetica,sans-Serif" font-size="10.00">GraphicsScene::addItem</text>
</a>
</g>
<!-- Node1&#45;&gt;Node13 -->
<g id="edge24" class="edge"><title>Node1&#45;&gt;Node13</title>
<path fill="none" stroke="midnightblue" d="M56.9826,-253.17C63.4565,-221.002 87.052,-125.258 146,-77 148.057,-75.3158 150.241,-73.7718 152.519,-72.3564"/>
<polygon fill="midnightblue" stroke="midnightblue" points="154.501,-75.2685 161.717,-67.5106 151.238,-69.0755 154.501,-75.2685"/>
</g>
<!-- Node14 -->
<g id="node27" class="node"><title>Node14</title>
<a xlink:href="../../dd/dd5/class_graphics_view.html#a0b0ff363db364ea5ce364fe2e27ef1aa" target="_top" xlink:title="GraphicsView::zoomAll">
<polygon fill="white" stroke="black" points="163.5,-6.5 163.5,-27.5 282.5,-27.5 282.5,-6.5 163.5,-6.5"/>
<text text-anchor="middle" x="223" y="-14.5" font-family="Helvetica,sans-Serif" font-size="10.00">GraphicsView::zoomAll</text>
</a>
</g>
<!-- Node1&#45;&gt;Node14 -->
<g id="edge26" class="edge"><title>Node1&#45;&gt;Node14</title>
<path fill="none" stroke="midnightblue" d="M55.9554,-253.293C59.7851,-216.986 77.3216,-97.458 146,-37 148.54,-34.7641 151.299,-32.773 154.212,-31.0003"/>
<polygon fill="midnightblue" stroke="midnightblue" points="156.049,-33.9915 163.347,-26.311 152.852,-27.764 156.049,-33.9915"/>
</g>
<!-- Node7 -->
<g id="node13" class="node"><title>Node7</title>
<a xlink:href="../../dd/d8a/classlibrary_1_1_library_base_element.html#a3de489fd5ff14ef1709e7ba41628ab3e" target="_top" xlink:title="Get the string of a specific locale from a QMap. ">
<polygon fill="white" stroke="black" points="336.5,-322 336.5,-356 473.5,-356 473.5,-322 336.5,-322"/>
<text text-anchor="start" x="344.5" y="-343" font-family="Helvetica,sans-Serif" font-size="10.00">library::LibraryBaseElement</text>
<text text-anchor="middle" x="405" y="-330" font-family="Helvetica,sans-Serif" font-size="10.00">::localeStringFromList</text>
</a>
</g>
<!-- Node6&#45;&gt;Node7 -->
<g id="edge12" class="edge"><title>Node6&#45;&gt;Node7</title>
<path fill="none" stroke="midnightblue" d="M290.253,-339C301.844,-339 313.988,-339 325.858,-339"/>
<polygon fill="midnightblue" stroke="midnightblue" points="326.198,-342.5 336.198,-339 326.198,-335.5 326.198,-342.5"/>
</g>
<!-- Node15 -->
<g id="node29" class="node"><title>Node15</title>
<a xlink:href="../../dd/dd5/class_graphics_view.html#a79f98dafea5083f10c64488e0cabba04" target="_top" xlink:title="GraphicsView::getVisible\lSceneRect">
<polygon fill="white" stroke="black" points="342,-0 342,-34 468,-34 468,-0 342,-0"/>
<text text-anchor="start" x="350" y="-21" font-family="Helvetica,sans-Serif" font-size="10.00">GraphicsView::getVisible</text>
<text text-anchor="middle" x="405" y="-8" font-family="Helvetica,sans-Serif" font-size="10.00">SceneRect</text>
</a>
</g>
<!-- Node14&#45;&gt;Node15 -->
<g id="edge28" class="edge"><title>Node14&#45;&gt;Node15</title>
<path fill="none" stroke="midnightblue" d="M282.594,-17C298.304,-17 315.439,-17 331.778,-17"/>
<polygon fill="midnightblue" stroke="midnightblue" points="331.828,-20.5001 341.828,-17 331.828,-13.5001 331.828,-20.5001"/>
</g>
</g>
</svg>
