<?xml version="1.0" encoding="UTF-8" standalone="no"?>
<!DOCTYPE svg PUBLIC "-//W3C//DTD SVG 1.1//EN"
 "http://www.w3.org/Graphics/SVG/1.1/DTD/svg11.dtd">
<!-- Generated by graphviz version 2.26.3 (20100126.1600)
 -->
<!-- Title: setSelectedCategory Pages: 1 -->
<svg width="1024pt" height="852pt"
 viewBox="0.00 0.00 1024.00 852.00" xmlns="http://www.w3.org/2000/svg" xmlns:xlink="http://www.w3.org/1999/xlink">
<g id="graph1" class="graph" transform="scale(1 1) rotate(0) translate(4 848)">
<title>setSelectedCategory</title>
<polygon fill="white" stroke="white" points="-4,5 -4,-848 1021,-848 1021,5 -4,5"/>
<!-- Node1 -->
<g id="node1" class="node"><title>Node1</title>
<polygon fill="#bfbfbf" stroke="black" points="0,-195.5 0,-216.5 108,-216.5 108,-195.5 0,-195.5"/>
<text text-anchor="middle" x="54" y="-203.5" font-family="Helvetica,sans-Serif" font-size="10.00">setSelectedCategory</text>
</g>
<!-- Node2 -->
<g id="node3" class="node"><title>Node2</title>
<a xlink:href="../../d1/d92/classproject_1_1_add_gen_comp_dialog.html#abf6af5dc67073d848d5cf561412d4b27" target="_top" xlink:title="setSelectedGenComp">
<polygon fill="white" stroke="black" points="156.5,-455.5 156.5,-476.5 269.5,-476.5 269.5,-455.5 156.5,-455.5"/>
<text text-anchor="middle" x="213" y="-463.5" font-family="Helvetica,sans-Serif" font-size="10.00">setSelectedGenComp</text>
</a>
</g>
<!-- Node1&#45;&gt;Node2 -->
<g id="edge2" class="edge"><title>Node1&#45;&gt;Node2</title>
<path fill="none" stroke="midnightblue" d="M60.4299,-216.514C84.5,-255.874 169.514,-394.891 201.083,-446.513"/>
<polygon fill="midnightblue" stroke="midnightblue" points="198.287,-448.65 206.49,-455.355 204.259,-444.998 198.287,-448.65"/>
</g>
<!-- Node4 -->
<g id="node7" class="node"><title>Node4</title>
<a xlink:href="../../d2/d05/classproject_1_1_project.html#a6054e079a2e370148fce27b138686ba3" target="_top" xlink:title="Get the ProjectSettings object which contains all project settings. ">
<polygon fill="white" stroke="black" points="517,-822.5 517,-843.5 655,-843.5 655,-822.5 517,-822.5"/>
<text text-anchor="middle" x="586" y="-830.5" font-family="Helvetica,sans-Serif" font-size="10.00">project::Project::getSettings</text>
</a>
</g>
<!-- Node1&#45;&gt;Node4 -->
<g id="edge78" class="edge"><title>Node1&#45;&gt;Node4</title>
<path fill="none" stroke="midnightblue" d="M55.5401,-216.508C63.7464,-271.6 103.477,-527.158 144,-595 240.31,-756.236 325.975,-759.488 506,-813 514.088,-815.404 522.692,-817.761 531.146,-819.966"/>
<polygon fill="midnightblue" stroke="midnightblue" points="530.406,-823.389 540.961,-822.477 532.141,-816.608 530.406,-823.389"/>
</g>
<!-- Node5 -->
<g id="node9" class="node"><title>Node5</title>
<a xlink:href="../../d7/d04/classproject_1_1_project_settings.html#a4e1f38901d0cab44a6bdae922a877b22" target="_top" xlink:title="project::ProjectSettings\l::getLocaleOrder">
<polygon fill="white" stroke="black" points="526.5,-770 526.5,-804 645.5,-804 645.5,-770 526.5,-770"/>
<text text-anchor="start" x="534.5" y="-791" font-family="Helvetica,sans-Serif" font-size="10.00">project::ProjectSettings</text>
<text text-anchor="middle" x="586" y="-778" font-family="Helvetica,sans-Serif" font-size="10.00">::getLocaleOrder</text>
</a>
</g>
<!-- Node1&#45;&gt;Node5 -->
<g id="edge80" class="edge"><title>Node1&#45;&gt;Node5</title>
<path fill="none" stroke="midnightblue" d="M55.9759,-216.721C63.3428,-255.081 91.5189,-388.416 144,-486 202.553,-594.874 215.925,-633.267 318,-703 378.105,-744.061 459.247,-765.798 516.451,-776.785"/>
<polygon fill="midnightblue" stroke="midnightblue" points="516.015,-780.264 526.486,-778.65 517.293,-773.382 516.015,-780.264"/>
</g>
<!-- Node11 -->
<g id="node21" class="node"><title>Node11</title>
<a xlink:href="../../d5/d56/class_workspace.html#a0aaab7f8db4623adc7227460a859db51" target="_top" xlink:title="Get the workspace library. ">
<polygon fill="white" stroke="black" points="528.5,-138.5 528.5,-159.5 643.5,-159.5 643.5,-138.5 528.5,-138.5"/>
<text text-anchor="middle" x="586" y="-146.5" font-family="Helvetica,sans-Serif" font-size="10.00">Workspace::getLibrary</text>
</a>
</g>
<!-- Node1&#45;&gt;Node11 -->
<g id="edge82" class="edge"><title>Node1&#45;&gt;Node11</title>
<path fill="none" stroke="midnightblue" d="M108.419,-202.099C154.647,-198.633 222.74,-193.17 282,-187 363.433,-178.521 456.848,-166.5 518.393,-158.262"/>
<polygon fill="midnightblue" stroke="midnightblue" points="518.923,-161.722 528.368,-156.922 517.991,-154.784 518.923,-161.722"/>
</g>
<!-- Node27 -->
<g id="node56" class="node"><title>Node27</title>
<a xlink:href="../../dd/d8a/classlibrary_1_1_library_base_element.html#a01f0309d43de518f4e94c724d22f4502" target="_top" xlink:title="library::LibraryBaseElement\l::getName">
<polygon fill="white" stroke="black" points="325.5,-232 325.5,-266 462.5,-266 462.5,-232 325.5,-232"/>
<text text-anchor="start" x="333.5" y="-253" font-family="Helvetica,sans-Serif" font-size="10.00">library::LibraryBaseElement</text>
<text text-anchor="middle" x="394" y="-240" font-family="Helvetica,sans-Serif" font-size="10.00">::getName</text>
</a>
</g>
<!-- Node1&#45;&gt;Node27 -->
<g id="edge88" class="edge"><title>Node1&#45;&gt;Node27</title>
<path fill="none" stroke="midnightblue" d="M108.205,-214.781C119.993,-216.592 132.405,-218.426 144,-220 201.316,-227.779 266.205,-235.268 315.509,-240.686"/>
<polygon fill="midnightblue" stroke="midnightblue" points="315.148,-244.167 325.47,-241.776 315.91,-237.209 315.148,-244.167"/>
</g>
<!-- Node33 -->
<g id="node75" class="node"><title>Node33</title>
<a xlink:href="../../de/d02/classlibrary_1_1_library.html#a1a2a776b3860f2889bf1a4800c9ea396" target="_top" xlink:title="library::Library::getGeneric\lComponentsByCategory">
<polygon fill="white" stroke="black" points="147.5,-144 147.5,-178 278.5,-178 278.5,-144 147.5,-144"/>
<text text-anchor="start" x="155.5" y="-165" font-family="Helvetica,sans-Serif" font-size="10.00">library::Library::getGeneric</text>
<text text-anchor="middle" x="213" y="-152" font-family="Helvetica,sans-Serif" font-size="10.00">ComponentsByCategory</text>
</a>
</g>
<!-- Node1&#45;&gt;Node33 -->
<g id="edge84" class="edge"><title>Node1&#45;&gt;Node33</title>
<path fill="none" stroke="midnightblue" d="M91.2784,-195.449C106.69,-191.088 125.084,-185.882 142.847,-180.855"/>
<polygon fill="midnightblue" stroke="midnightblue" points="143.959,-184.178 152.628,-178.087 142.052,-177.442 143.959,-184.178"/>
</g>
<!-- Node34 -->
<g id="node77" class="node"><title>Node34</title>
<a xlink:href="../../de/d02/classlibrary_1_1_library.html#acb98813856285edc2af1aa57be55e8d3" target="_top" xlink:title="library::Library::getGeneric\lComponents">
<polygon fill="white" stroke="black" points="147.5,-92 147.5,-126 278.5,-126 278.5,-92 147.5,-92"/>
<text text-anchor="start" x="155.5" y="-113" font-family="Helvetica,sans-Serif" font-size="10.00">library::Library::getGeneric</text>
<text text-anchor="middle" x="213" y="-100" font-family="Helvetica,sans-Serif" font-size="10.00">Components</text>
</a>
</g>
<!-- Node1&#45;&gt;Node34 -->
<g id="edge86" class="edge"><title>Node1&#45;&gt;Node34</title>
<path fill="none" stroke="midnightblue" d="M65.11,-195.349C81.3388,-180.252 112.982,-152.52 144,-135 146.842,-133.395 149.803,-131.851 152.83,-130.373"/>
<polygon fill="midnightblue" stroke="midnightblue" points="154.43,-133.49 162.06,-126.139 151.512,-127.127 154.43,-133.49"/>
</g>
<!-- Node35 -->
<g id="node80" class="node"><title>Node35</title>
<a xlink:href="../../dd/d8a/classlibrary_1_1_library_base_element.html#a7d1a61339da05cc25ae2d8dc84c2aad4" target="_top" xlink:title="library::LibraryBaseElement\l::getXmlFilepath">
<polygon fill="white" stroke="black" points="144.5,-40 144.5,-74 281.5,-74 281.5,-40 144.5,-40"/>
<text text-anchor="start" x="152.5" y="-61" font-family="Helvetica,sans-Serif" font-size="10.00">library::LibraryBaseElement</text>
<text text-anchor="middle" x="213" y="-48" font-family="Helvetica,sans-Serif" font-size="10.00">::getXmlFilepath</text>
</a>
</g>
<!-- Node1&#45;&gt;Node35 -->
<g id="edge90" class="edge"><title>Node1&#45;&gt;Node35</title>
<path fill="none" stroke="midnightblue" d="M59.1629,-195.16C70.9457,-171.51 102.073,-114.855 144,-83 145.781,-81.6471 147.639,-80.3578 149.558,-79.1297"/>
<polygon fill="midnightblue" stroke="midnightblue" points="151.35,-82.1364 158.289,-74.1297 147.872,-76.0619 151.35,-82.1364"/>
</g>
<!-- Node36 -->
<g id="node82" class="node"><title>Node36</title>
<a xlink:href="../../d4/d1c/class_file_path.html#a39a0bbf3901de18041fb5c324ecf412a" target="_top" xlink:title="Get the absolute and well&#45;formatted filepath as a QString. ">
<polygon fill="white" stroke="black" points="173,-0.5 173,-21.5 253,-21.5 253,-0.5 173,-0.5"/>
<text text-anchor="middle" x="213" y="-8.5" font-family="Helvetica,sans-Serif" font-size="10.00">FilePath::toStr</text>
</a>
</g>
<!-- Node1&#45;&gt;Node36 -->
<g id="edge92" class="edge"><title>Node1&#45;&gt;Node36</title>
<path fill="none" stroke="midnightblue" d="M56.309,-195.498C63.5354,-165.151 88.6191,-76.6106 144,-31 149.626,-26.3665 156.279,-22.8062 163.197,-20.0707"/>
<polygon fill="midnightblue" stroke="midnightblue" points="164.384,-23.3638 172.723,-16.8282 162.129,-16.7372 164.384,-23.3638"/>
</g>
<!-- Node3 -->
<g id="node5" class="node"><title>Node3</title>
<a xlink:href="../../d1/d92/classproject_1_1_add_gen_comp_dialog.html#adfcb4e9c07721bf39ddcb34d2e39e61c" target="_top" xlink:title="setSelectedSymbVar">
<polygon fill="white" stroke="black" points="339.5,-478.5 339.5,-499.5 448.5,-499.5 448.5,-478.5 339.5,-478.5"/>
<text text-anchor="middle" x="394" y="-486.5" font-family="Helvetica,sans-Serif" font-size="10.00">setSelectedSymbVar</text>
</a>
</g>
<!-- Node2&#45;&gt;Node3 -->
<g id="edge4" class="edge"><title>Node2&#45;&gt;Node3</title>
<path fill="none" stroke="midnightblue" d="M269.773,-473.214C288.666,-475.615 309.848,-478.307 329.295,-480.778"/>
<polygon fill="midnightblue" stroke="midnightblue" points="328.924,-484.259 339.285,-482.047 329.806,-477.315 328.924,-484.259"/>
</g>
<!-- Node2&#45;&gt;Node4 -->
<g id="edge52" class="edge"><title>Node2&#45;&gt;Node4</title>
<path fill="none" stroke="midnightblue" d="M215.256,-476.738C223.29,-512.724 253.532,-630.849 318,-703 382.502,-775.188 416.359,-776.447 506,-813 511.916,-815.412 518.2,-817.591 524.544,-819.545"/>
<polygon fill="midnightblue" stroke="midnightblue" points="523.941,-823.014 534.52,-822.431 525.886,-816.29 523.941,-823.014"/>
</g>
<!-- Node2&#45;&gt;Node5 -->
<g id="edge54" class="edge"><title>Node2&#45;&gt;Node5</title>
<path fill="none" stroke="midnightblue" d="M235.995,-476.538C257.032,-485.908 289.174,-499.549 318,-509 384.169,-530.695 422.726,-495.871 470,-547 535.477,-617.816 443.014,-687.959 506,-761 509.284,-764.809 513.133,-768.063 517.334,-770.844"/>
<polygon fill="midnightblue" stroke="midnightblue" points="515.95,-774.08 526.386,-775.911 519.37,-767.972 515.95,-774.08"/>
</g>
<!-- Node6 -->
<g id="node11" class="node"><title>Node6</title>
<a xlink:href="../../d7/dff/classlibrary_1_1_gen_comp_symb_var.html#ada9b237a8629c03e16491a72730b456b" target="_top" xlink:title="library::GenCompSymbVar\l::getUuid">
<polygon fill="white" stroke="black" points="519,-178 519,-212 653,-212 653,-178 519,-178"/>
<text text-anchor="start" x="527" y="-199" font-family="Helvetica,sans-Serif" font-size="10.00">library::GenCompSymbVar</text>
<text text-anchor="middle" x="586" y="-186" font-family="Helvetica,sans-Serif" font-size="10.00">::getUuid</text>
</a>
</g>
<!-- Node2&#45;&gt;Node6 -->
<g id="edge74" class="edge"><title>Node2&#45;&gt;Node6</title>
<path fill="none" stroke="midnightblue" d="M232.651,-455.438C253.397,-444.621 287.286,-427.893 318,-417 383.63,-393.725 421.279,-428.752 470,-379 520.391,-327.542 457.421,-274.172 506,-221 507.404,-219.464 508.899,-218.018 510.471,-216.657"/>
<polygon fill="midnightblue" stroke="midnightblue" points="512.868,-219.243 518.908,-210.538 508.758,-213.576 512.868,-219.243"/>
</g>
<!-- Node26 -->
<g id="node54" class="node"><title>Node26</title>
<a xlink:href="../../dd/d8a/classlibrary_1_1_library_base_element.html#ada9b237a8629c03e16491a72730b456b" target="_top" xlink:title="library::LibraryBaseElement\l::getUuid">
<polygon fill="white" stroke="black" points="325.5,-660 325.5,-694 462.5,-694 462.5,-660 325.5,-660"/>
<text text-anchor="start" x="333.5" y="-681" font-family="Helvetica,sans-Serif" font-size="10.00">library::LibraryBaseElement</text>
<text text-anchor="middle" x="394" y="-668" font-family="Helvetica,sans-Serif" font-size="10.00">::getUuid</text>
</a>
</g>
<!-- Node2&#45;&gt;Node26 -->
<g id="edge56" class="edge"><title>Node2&#45;&gt;Node26</title>
<path fill="none" stroke="midnightblue" d="M216.031,-476.53C225.578,-507.841 258.006,-601.273 318,-651 319.53,-652.268 321.125,-653.476 322.773,-654.625"/>
<polygon fill="midnightblue" stroke="midnightblue" points="321.046,-657.671 331.402,-659.905 324.699,-651.7 321.046,-657.671"/>
</g>
<!-- Node2&#45;&gt;Node27 -->
<g id="edge58" class="edge"><title>Node2&#45;&gt;Node27</title>
<path fill="none" stroke="midnightblue" d="M215.927,-455.131C225.181,-422.812 256.876,-326.368 318,-275 319.521,-273.722 321.109,-272.505 322.75,-271.347"/>
<polygon fill="midnightblue" stroke="midnightblue" points="324.683,-274.267 331.352,-266.035 321.005,-268.311 324.683,-274.267"/>
</g>
<!-- Node28 -->
<g id="node59" class="node"><title>Node28</title>
<a xlink:href="../../dd/d8a/classlibrary_1_1_library_base_element.html#a0e5b7dc7eca3c6468aa85375bf2c3dde" target="_top" xlink:title="library::LibraryBaseElement\l::getDescription">
<polygon fill="white" stroke="black" points="325.5,-284 325.5,-318 462.5,-318 462.5,-284 325.5,-284"/>
<text text-anchor="start" x="333.5" y="-305" font-family="Helvetica,sans-Serif" font-size="10.00">library::LibraryBaseElement</text>
<text text-anchor="middle" x="394" y="-292" font-family="Helvetica,sans-Serif" font-size="10.00">::getDescription</text>
</a>
</g>
<!-- Node2&#45;&gt;Node28 -->
<g id="edge62" class="edge"><title>Node2&#45;&gt;Node28</title>
<path fill="none" stroke="midnightblue" d="M218.244,-455.224C231.387,-429.313 268.274,-363.008 318,-327 319.881,-325.638 321.84,-324.343 323.857,-323.112"/>
<polygon fill="midnightblue" stroke="midnightblue" points="325.916,-325.975 333.023,-318.117 322.567,-319.829 325.916,-325.975"/>
</g>
<!-- Node29 -->
<g id="node62" class="node"><title>Node29</title>
<a xlink:href="../../d7/d7c/classlibrary_1_1_generic_component.html#abc945674e34471b63d0db571ba1d88b1" target="_top" xlink:title="library::GenericComponent\l::getSymbolVariants">
<polygon fill="white" stroke="black" points="327.5,-608 327.5,-642 460.5,-642 460.5,-608 327.5,-608"/>
<text text-anchor="start" x="335.5" y="-629" font-family="Helvetica,sans-Serif" font-size="10.00">library::GenericComponent</text>
<text text-anchor="middle" x="394" y="-616" font-family="Helvetica,sans-Serif" font-size="10.00">::getSymbolVariants</text>
</a>
</g>
<!-- Node2&#45;&gt;Node29 -->
<g id="edge66" class="edge"><title>Node2&#45;&gt;Node29</title>
<path fill="none" stroke="midnightblue" d="M218.571,-476.673C232.164,-501.705 269.499,-564.662 318,-599 320.091,-600.481 322.274,-601.883 324.524,-603.21"/>
<polygon fill="midnightblue" stroke="midnightblue" points="323.013,-606.37 333.487,-607.965 326.293,-600.186 323.013,-606.37"/>
</g>
<!-- Node30 -->
<g id="node64" class="node"><title>Node30</title>
<a xlink:href="../../d7/dff/classlibrary_1_1_gen_comp_symb_var.html#a01f0309d43de518f4e94c724d22f4502" target="_top" xlink:title="library::GenCompSymbVar\l::getName">
<polygon fill="white" stroke="black" points="327,-336 327,-370 461,-370 461,-336 327,-336"/>
<text text-anchor="start" x="335" y="-357" font-family="Helvetica,sans-Serif" font-size="10.00">library::GenCompSymbVar</text>
<text text-anchor="middle" x="394" y="-344" font-family="Helvetica,sans-Serif" font-size="10.00">::getName</text>
</a>
</g>
<!-- Node2&#45;&gt;Node30 -->
<g id="edge68" class="edge"><title>Node2&#45;&gt;Node30</title>
<path fill="none" stroke="midnightblue" d="M224.507,-455.253C243.044,-438.363 281.177,-405.336 318,-384 323.964,-380.544 330.389,-377.287 336.886,-374.278"/>
<polygon fill="midnightblue" stroke="midnightblue" points="338.691,-377.306 346.412,-370.051 335.852,-370.908 338.691,-377.306"/>
</g>
<!-- Node31 -->
<g id="node67" class="node"><title>Node31</title>
<a xlink:href="../../d7/dff/classlibrary_1_1_gen_comp_symb_var.html#a8e3b6104c3fd62f36ce94537b91d4be7" target="_top" xlink:title="library::GenCompSymbVar\l::isDefault">
<polygon fill="white" stroke="black" points="327,-556 327,-590 461,-590 461,-556 327,-556"/>
<text text-anchor="start" x="335" y="-577" font-family="Helvetica,sans-Serif" font-size="10.00">library::GenCompSymbVar</text>
<text text-anchor="middle" x="394" y="-564" font-family="Helvetica,sans-Serif" font-size="10.00">::isDefault</text>
</a>
</g>
<!-- Node2&#45;&gt;Node31 -->
<g id="edge72" class="edge"><title>Node2&#45;&gt;Node31</title>
<path fill="none" stroke="midnightblue" d="M225.587,-476.656C244.647,-492.422 282.391,-522.226 318,-542 324.252,-545.472 330.974,-548.774 337.741,-551.839"/>
<polygon fill="midnightblue" stroke="midnightblue" points="336.392,-555.069 346.957,-555.866 339.195,-548.655 336.392,-555.069"/>
</g>
<!-- Node32 -->
<g id="node70" class="node"><title>Node32</title>
<a xlink:href="../../d7/d7c/classlibrary_1_1_generic_component.html#ae3f730c7ba15a0ece18176677c262367" target="_top" xlink:title="library::GenericComponent\l::getDefaultSymbolVariantUuid">
<polygon fill="white" stroke="black" points="318,-426 318,-460 470,-460 470,-426 318,-426"/>
<text text-anchor="start" x="326" y="-447" font-family="Helvetica,sans-Serif" font-size="10.00">library::GenericComponent</text>
<text text-anchor="middle" x="394" y="-434" font-family="Helvetica,sans-Serif" font-size="10.00">::getDefaultSymbolVariantUuid</text>
</a>
</g>
<!-- Node2&#45;&gt;Node32 -->
<g id="edge76" class="edge"><title>Node2&#45;&gt;Node32</title>
<path fill="none" stroke="midnightblue" d="M269.773,-458.786C281.798,-457.258 294.751,-455.612 307.593,-453.98"/>
<polygon fill="midnightblue" stroke="midnightblue" points="308.37,-457.409 317.849,-452.677 307.488,-450.465 308.37,-457.409"/>
</g>
<!-- Node3&#45;&gt;Node4 -->
<g id="edge6" class="edge"><title>Node3&#45;&gt;Node4</title>
<path fill="none" stroke="midnightblue" d="M415.862,-499.527C433.543,-509.264 457.484,-525.478 470,-547 529.973,-650.13 426.427,-724.114 506,-813 507.044,-814.167 508.146,-815.27 509.297,-816.314"/>
<polygon fill="midnightblue" stroke="midnightblue" points="507.416,-819.274 517.549,-822.366 511.555,-813.63 507.416,-819.274"/>
</g>
<!-- Node3&#45;&gt;Node5 -->
<g id="edge8" class="edge"><title>Node3&#45;&gt;Node5</title>
<path fill="none" stroke="midnightblue" d="M448.858,-498.78C456.909,-502.385 464.37,-507.301 470,-514 541.372,-598.931 434.477,-676.196 506,-761 509.242,-764.844 513.06,-768.125 517.24,-770.924"/>
<polygon fill="midnightblue" stroke="midnightblue" points="515.831,-774.148 526.259,-776.019 519.274,-768.053 515.831,-774.148"/>
</g>
<!-- Node3&#45;&gt;Node6 -->
<g id="edge10" class="edge"><title>Node3&#45;&gt;Node6</title>
<path fill="none" stroke="midnightblue" d="M448.696,-482.971C456.766,-479.879 464.276,-475.412 470,-469 544.176,-385.916 434.218,-306.16 506,-221 507.491,-219.231 509.104,-217.581 510.818,-216.043"/>
<polygon fill="midnightblue" stroke="midnightblue" points="513.005,-218.778 518.917,-209.986 508.812,-213.172 513.005,-218.778"/>
</g>
<!-- Node7 -->
<g id="node13" class="node"><title>Node7</title>
<a xlink:href="../../d7/dff/classlibrary_1_1_gen_comp_symb_var.html#a07748d2329ba6f3667d423c7662dffe1" target="_top" xlink:title="library::GenCompSymbVar\l::getNorm">
<polygon fill="white" stroke="black" points="519,-426 519,-460 653,-460 653,-426 519,-426"/>
<text text-anchor="start" x="527" y="-447" font-family="Helvetica,sans-Serif" font-size="10.00">library::GenCompSymbVar</text>
<text text-anchor="middle" x="586" y="-434" font-family="Helvetica,sans-Serif" font-size="10.00">::getNorm</text>
</a>
</g>
<!-- Node3&#45;&gt;Node7 -->
<g id="edge12" class="edge"><title>Node3&#45;&gt;Node7</title>
<path fill="none" stroke="midnightblue" d="M438.049,-478.447C459.067,-473.411 484.839,-467.236 508.951,-461.46"/>
<polygon fill="midnightblue" stroke="midnightblue" points="509.896,-464.832 518.806,-459.099 508.265,-458.025 509.896,-464.832"/>
</g>
<!-- Node8 -->
<g id="node15" class="node"><title>Node8</title>
<a xlink:href="../../d7/dff/classlibrary_1_1_gen_comp_symb_var.html#a0e5b7dc7eca3c6468aa85375bf2c3dde" target="_top" xlink:title="library::GenCompSymbVar\l::getDescription">
<polygon fill="white" stroke="black" points="519,-230 519,-264 653,-264 653,-230 519,-230"/>
<text text-anchor="start" x="527" y="-251" font-family="Helvetica,sans-Serif" font-size="10.00">library::GenCompSymbVar</text>
<text text-anchor="middle" x="586" y="-238" font-family="Helvetica,sans-Serif" font-size="10.00">::getDescription</text>
</a>
</g>
<!-- Node3&#45;&gt;Node8 -->
<g id="edge14" class="edge"><title>Node3&#45;&gt;Node8</title>
<path fill="none" stroke="midnightblue" d="M448.878,-482.639C456.826,-479.575 464.249,-475.203 470,-469 530.213,-404.048 447.659,-339.638 506,-273 507.371,-271.434 508.837,-269.962 510.383,-268.578"/>
<polygon fill="midnightblue" stroke="midnightblue" points="512.79,-271.15 518.717,-262.368 508.607,-265.537 512.79,-271.15"/>
</g>
<!-- Node10 -->
<g id="node19" class="node"><title>Node10</title>
<a xlink:href="../../d7/dff/classlibrary_1_1_gen_comp_symb_var.html#a95be340ed5134b5b4fc05ab47e4c9c34" target="_top" xlink:title="library::GenCompSymbVar\l::getItems">
<polygon fill="white" stroke="black" points="519,-374 519,-408 653,-408 653,-374 519,-374"/>
<text text-anchor="start" x="527" y="-395" font-family="Helvetica,sans-Serif" font-size="10.00">library::GenCompSymbVar</text>
<text text-anchor="middle" x="586" y="-382" font-family="Helvetica,sans-Serif" font-size="10.00">::getItems</text>
</a>
</g>
<!-- Node3&#45;&gt;Node10 -->
<g id="edge18" class="edge"><title>Node3&#45;&gt;Node10</title>
<path fill="none" stroke="midnightblue" d="M448.83,-479.624C456.331,-476.931 463.631,-473.463 470,-469 493.019,-452.868 483.449,-433.781 506,-417 507.856,-415.619 509.789,-414.309 511.782,-413.067"/>
<polygon fill="midnightblue" stroke="midnightblue" points="513.8,-415.95 520.854,-408.044 510.41,-409.826 513.8,-415.95"/>
</g>
<!-- Node3&#45;&gt;Node11 -->
<g id="edge20" class="edge"><title>Node3&#45;&gt;Node11</title>
<path fill="none" stroke="midnightblue" d="M448.832,-483.091C456.886,-479.985 464.355,-475.482 470,-469 558.19,-367.726 417.187,-269.727 506,-169 509.728,-164.772 514.202,-161.371 519.104,-158.643"/>
<polygon fill="midnightblue" stroke="midnightblue" points="520.683,-161.77 528.321,-154.427 517.772,-155.404 520.683,-161.77"/>
</g>
<!-- Node12 -->
<g id="node23" class="node"><title>Node12</title>
<a xlink:href="../../de/d02/classlibrary_1_1_library.html#ab9d3322f7c9a51af677857c032f30bd7" target="_top" xlink:title="library::Library::getSymbols">
<polygon fill="white" stroke="black" points="518,-334.5 518,-355.5 654,-355.5 654,-334.5 518,-334.5"/>
<text text-anchor="middle" x="586" y="-342.5" font-family="Helvetica,sans-Serif" font-size="10.00">library::Library::getSymbols</text>
</a>
</g>
<!-- Node3&#45;&gt;Node12 -->
<g id="edge22" class="edge"><title>Node3&#45;&gt;Node12</title>
<path fill="none" stroke="midnightblue" d="M448.874,-481.567C456.632,-478.62 463.996,-474.565 470,-469 505.874,-435.751 469.921,-398.027 506,-365 507.544,-363.586 509.173,-362.269 510.872,-361.041"/>
<polygon fill="midnightblue" stroke="midnightblue" points="513.116,-363.776 519.882,-355.622 509.508,-357.777 513.116,-363.776"/>
</g>
<!-- Node13 -->
<g id="node25" class="node"><title>Node13</title>
<a xlink:href="../../d5/d1e/classlibrary_1_1_gen_comp_symb_var_item.html#ae244026d0acdc7d950b6752f4ad00e4e" target="_top" xlink:title="library::GenCompSymbVarItem\l::getSymbolUuid">
<polygon fill="white" stroke="black" points="509.5,-282 509.5,-316 662.5,-316 662.5,-282 509.5,-282"/>
<text text-anchor="start" x="517.5" y="-303" font-family="Helvetica,sans-Serif" font-size="10.00">library::GenCompSymbVarItem</text>
<text text-anchor="middle" x="586" y="-290" font-family="Helvetica,sans-Serif" font-size="10.00">::getSymbolUuid</text>
</a>
</g>
<!-- Node3&#45;&gt;Node13 -->
<g id="edge24" class="edge"><title>Node3&#45;&gt;Node13</title>
<path fill="none" stroke="midnightblue" d="M448.545,-482.32C456.533,-479.295 464.056,-475.018 470,-469 516.359,-422.065 460.995,-373.235 506,-325 506.897,-324.039 507.829,-323.113 508.794,-322.222"/>
<polygon fill="midnightblue" stroke="midnightblue" points="511.009,-324.933 516.76,-316.035 506.716,-319.404 511.009,-324.933"/>
</g>
<!-- Node14 -->
<g id="node27" class="node"><title>Node14</title>
<a xlink:href="../../d5/d1e/classlibrary_1_1_gen_comp_symb_var_item.html#ada9b237a8629c03e16491a72730b456b" target="_top" xlink:title="library::GenCompSymbVarItem\l::getUuid">
<polygon fill="white" stroke="black" points="509.5,-678 509.5,-712 662.5,-712 662.5,-678 509.5,-678"/>
<text text-anchor="start" x="517.5" y="-699" font-family="Helvetica,sans-Serif" font-size="10.00">library::GenCompSymbVarItem</text>
<text text-anchor="middle" x="586" y="-686" font-family="Helvetica,sans-Serif" font-size="10.00">::getUuid</text>
</a>
</g>
<!-- Node3&#45;&gt;Node14 -->
<g id="edge26" class="edge"><title>Node3&#45;&gt;Node14</title>
<path fill="none" stroke="midnightblue" d="M448.775,-499.361C456.735,-502.9 464.189,-507.644 470,-514 517.719,-566.198 458.188,-616.888 506,-669 506.765,-669.834 507.557,-670.641 508.374,-671.423"/>
<polygon fill="midnightblue" stroke="midnightblue" points="506.332,-674.271 516.328,-677.782 510.703,-668.804 506.332,-674.271"/>
</g>
<!-- Node15 -->
<g id="node29" class="node"><title>Node15</title>
<a xlink:href="../../d0/d69/class_point.html#a3da9ee2bc3910d0f0c43c30798906fdd" target="_top" xlink:title="Point::fromPx">
<polygon fill="white" stroke="black" points="547.5,-638.5 547.5,-659.5 624.5,-659.5 624.5,-638.5 547.5,-638.5"/>
<text text-anchor="middle" x="586" y="-646.5" font-family="Helvetica,sans-Serif" font-size="10.00">Point::fromPx</text>
</a>
</g>
<!-- Node3&#45;&gt;Node15 -->
<g id="edge28" class="edge"><title>Node3&#45;&gt;Node15</title>
<path fill="none" stroke="midnightblue" d="M447.983,-499.577C456.135,-503.089 463.857,-507.768 470,-514 507.596,-552.142 467.04,-592.251 506,-629 514.538,-637.054 525.813,-642 537.195,-645.004"/>
<polygon fill="midnightblue" stroke="midnightblue" points="536.644,-648.465 547.159,-647.172 538.132,-641.625 536.644,-648.465"/>
</g>
<!-- Node19 -->
<g id="node38" class="node"><title>Node19</title>
<a xlink:href="../../dd/dd5/class_graphics_view.html#a8fdde458ce65c4d4a40545c222303ae9" target="_top" xlink:title="GraphicsView::getGridProperties">
<polygon fill="white" stroke="black" points="506.5,-598.5 506.5,-619.5 665.5,-619.5 665.5,-598.5 506.5,-598.5"/>
<text text-anchor="middle" x="586" y="-606.5" font-family="Helvetica,sans-Serif" font-size="10.00">GraphicsView::getGridProperties</text>
</a>
</g>
<!-- Node3&#45;&gt;Node19 -->
<g id="edge38" class="edge"><title>Node3&#45;&gt;Node19</title>
<path fill="none" stroke="midnightblue" d="M445.278,-499.563C454.213,-503.083 462.902,-507.768 470,-514 497.785,-538.395 477.346,-565.632 506,-589 508.039,-590.663 510.197,-592.189 512.447,-593.592"/>
<polygon fill="midnightblue" stroke="midnightblue" points="511.048,-596.811 521.522,-598.405 514.328,-590.627 511.048,-596.811"/>
</g>
<!-- Node20 -->
<g id="node40" class="node"><title>Node20</title>
<a xlink:href="../../d8/dbf/class_grid_properties.html#a4cc9437a41e81f8f0f873ce9fbd67900" target="_top" xlink:title="GridProperties::getInterval">
<polygon fill="white" stroke="black" points="520.5,-558.5 520.5,-579.5 651.5,-579.5 651.5,-558.5 520.5,-558.5"/>
<text text-anchor="middle" x="586" y="-566.5" font-family="Helvetica,sans-Serif" font-size="10.00">GridProperties::getInterval</text>
</a>
</g>
<!-- Node3&#45;&gt;Node20 -->
<g id="edge40" class="edge"><title>Node3&#45;&gt;Node20</title>
<path fill="none" stroke="midnightblue" d="M437.307,-499.506C448.407,-503.186 460.02,-507.956 470,-514 489.088,-525.56 486.504,-538.142 506,-549 509.977,-551.215 514.2,-553.188 518.547,-554.946"/>
<polygon fill="midnightblue" stroke="midnightblue" points="517.619,-558.332 528.213,-558.458 520.01,-551.753 517.619,-558.332"/>
</g>
<!-- Node21 -->
<g id="node42" class="node"><title>Node21</title>
<a xlink:href="../../d0/d69/class_point.html#a3fb0d1120536f2a889eac1e5e88b9ac5" target="_top" xlink:title="Get the point as a QPointF object in pixels (for QGraphics* objects) ">
<polygon fill="white" stroke="black" points="535.5,-518.5 535.5,-539.5 636.5,-539.5 636.5,-518.5 535.5,-518.5"/>
<text text-anchor="middle" x="586" y="-526.5" font-family="Helvetica,sans-Serif" font-size="10.00">Point::toPxQPointF</text>
</a>
</g>
<!-- Node3&#45;&gt;Node21 -->
<g id="edge42" class="edge"><title>Node3&#45;&gt;Node21</title>
<path fill="none" stroke="midnightblue" d="M444.446,-499.51C469.371,-504.702 499.63,-511.006 525.764,-516.451"/>
<polygon fill="midnightblue" stroke="midnightblue" points="525.055,-519.878 535.558,-518.491 526.482,-513.025 525.055,-519.878"/>
</g>
<!-- Node23 -->
<g id="node46" class="node"><title>Node23</title>
<a xlink:href="../../dc/dcc/class_graphics_scene.html#ad4900f3543f03cac6482cdbe7368291f" target="_top" xlink:title="GraphicsScene::addItem">
<polygon fill="white" stroke="black" points="523.5,-478.5 523.5,-499.5 648.5,-499.5 648.5,-478.5 523.5,-478.5"/>
<text text-anchor="middle" x="586" y="-486.5" font-family="Helvetica,sans-Serif" font-size="10.00">GraphicsScene::addItem</text>
</a>
</g>
<!-- Node3&#45;&gt;Node23 -->
<g id="edge46" class="edge"><title>Node3&#45;&gt;Node23</title>
<path fill="none" stroke="midnightblue" d="M448.506,-489C468.605,-489 491.708,-489 513.169,-489"/>
<polygon fill="midnightblue" stroke="midnightblue" points="513.223,-492.5 523.223,-489 513.223,-485.5 513.223,-492.5"/>
</g>
<!-- Node24 -->
<g id="node48" class="node"><title>Node24</title>
<a xlink:href="../../dd/dd5/class_graphics_view.html#a0b0ff363db364ea5ce364fe2e27ef1aa" target="_top" xlink:title="GraphicsView::zoomAll">
<polygon fill="white" stroke="black" points="526.5,-730.5 526.5,-751.5 645.5,-751.5 645.5,-730.5 526.5,-730.5"/>
<text text-anchor="middle" x="586" y="-738.5" font-family="Helvetica,sans-Serif" font-size="10.00">GraphicsView::zoomAll</text>
</a>
</g>
<!-- Node3&#45;&gt;Node24 -->
<g id="edge48" class="edge"><title>Node3&#45;&gt;Node24</title>
<path fill="none" stroke="midnightblue" d="M448.702,-498.913C456.771,-502.502 464.279,-507.379 470,-514 531.052,-584.658 442.416,-652.611 506,-721 509.212,-724.455 512.923,-727.352 516.951,-729.777"/>
<polygon fill="midnightblue" stroke="midnightblue" points="515.691,-733.059 526.205,-734.367 518.801,-726.788 515.691,-733.059"/>
</g>
<!-- Node9 -->
<g id="node17" class="node"><title>Node9</title>
<a xlink:href="../../dd/d8a/classlibrary_1_1_library_base_element.html#a3de489fd5ff14ef1709e7ba41628ab3e" target="_top" xlink:title="Get the string of a specific locale from a QMap. ">
<polygon fill="white" stroke="black" points="702.5,-74 702.5,-108 839.5,-108 839.5,-74 702.5,-74"/>
<text text-anchor="start" x="710.5" y="-95" font-family="Helvetica,sans-Serif" font-size="10.00">library::LibraryBaseElement</text>
<text text-anchor="middle" x="771" y="-82" font-family="Helvetica,sans-Serif" font-size="10.00">::localeStringFromList</text>
</a>
</g>
<!-- Node8&#45;&gt;Node9 -->
<g id="edge16" class="edge"><title>Node8&#45;&gt;Node9</title>
<path fill="none" stroke="midnightblue" d="M650.064,-229.97C655.663,-227.369 661.068,-224.395 666,-221 705.894,-193.542 738.407,-146.616 756.202,-117.287"/>
<polygon fill="midnightblue" stroke="midnightblue" points="759.364,-118.817 761.453,-108.43 753.342,-115.247 759.364,-118.817"/>
</g>
<!-- Node16 -->
<g id="node31" class="node"><title>Node16</title>
<a xlink:href="../../df/df0/class_length.html#a5aef66a62c626dea314f1a1e1716534b" target="_top" xlink:title="Set the length in pixels (from QGraphics* objects) ">
<polygon fill="white" stroke="black" points="717.5,-661.5 717.5,-682.5 824.5,-682.5 824.5,-661.5 717.5,-661.5"/>
<text text-anchor="middle" x="771" y="-669.5" font-family="Helvetica,sans-Serif" font-size="10.00">Length::setLengthPx</text>
</a>
</g>
<!-- Node15&#45;&gt;Node16 -->
<g id="edge30" class="edge"><title>Node15&#45;&gt;Node16</title>
<path fill="none" stroke="midnightblue" d="M624.782,-653.822C648.552,-656.777 679.563,-660.632 706.907,-664.032"/>
<polygon fill="midnightblue" stroke="midnightblue" points="706.829,-667.549 717.185,-665.309 707.693,-660.602 706.829,-667.549"/>
</g>
<!-- Node18 -->
<g id="node35" class="node"><title>Node18</title>
<a xlink:href="../../d0/d69/class_point.html#aaf8d7a6826dcd72e03dc632960106b90" target="_top" xlink:title="Map this Point object to a specific grid interval. ">
<polygon fill="white" stroke="black" points="724.5,-603.5 724.5,-624.5 817.5,-624.5 817.5,-603.5 724.5,-603.5"/>
<text text-anchor="middle" x="771" y="-611.5" font-family="Helvetica,sans-Serif" font-size="10.00">Point::mapToGrid</text>
</a>
</g>
<!-- Node15&#45;&gt;Node18 -->
<g id="edge34" class="edge"><title>Node15&#45;&gt;Node18</title>
<path fill="none" stroke="midnightblue" d="M624.782,-641.663C650.751,-636.75 685.365,-630.201 714.396,-624.709"/>
<polygon fill="midnightblue" stroke="midnightblue" points="715.233,-628.113 724.408,-622.815 713.932,-621.235 715.233,-628.113"/>
</g>
<!-- Node17 -->
<g id="node33" class="node"><title>Node17</title>
<a xlink:href="../../df/df0/class_length.html#a73dbcae99cc78c7f7e737d5211154527" target="_top" xlink:title="Set the length from a floating point number in nanometers. ">
<polygon fill="white" stroke="black" points="876.5,-661.5 876.5,-682.5 1015.5,-682.5 1015.5,-661.5 876.5,-661.5"/>
<text text-anchor="middle" x="946" y="-669.5" font-family="Helvetica,sans-Serif" font-size="10.00">Length::setLengthFromFloat</text>
</a>
</g>
<!-- Node16&#45;&gt;Node17 -->
<g id="edge32" class="edge"><title>Node16&#45;&gt;Node17</title>
<path fill="none" stroke="midnightblue" d="M824.934,-672C838.025,-672 852.299,-672 866.303,-672"/>
<polygon fill="midnightblue" stroke="midnightblue" points="866.433,-675.5 876.433,-672 866.433,-668.5 866.433,-675.5"/>
</g>
<!-- Node18&#45;&gt;Node18 -->
<g id="edge36" class="edge"><title>Node18&#45;&gt;Node18</title>
<path fill="none" stroke="midnightblue" d="M743.353,-624.708C731.538,-633.653 740.754,-643 771,-643 790.849,-643 801.641,-638.975 803.376,-633.679"/>
<polygon fill="midnightblue" stroke="midnightblue" points="806.406,-631.922 798.647,-624.708 800.214,-635.186 806.406,-631.922"/>
</g>
<!-- Node22 -->
<g id="node44" class="node"><title>Node22</title>
<a xlink:href="../../df/df0/class_length.html#abf9a817a583f3939aea7bffdeeb7b235" target="_top" xlink:title="Get the length in pixels (for QGraphics* objects) ">
<polygon fill="white" stroke="black" points="735,-518.5 735,-539.5 807,-539.5 807,-518.5 735,-518.5"/>
<text text-anchor="middle" x="771" y="-526.5" font-family="Helvetica,sans-Serif" font-size="10.00">Length::toPx</text>
</a>
</g>
<!-- Node21&#45;&gt;Node22 -->
<g id="edge44" class="edge"><title>Node21&#45;&gt;Node22</title>
<path fill="none" stroke="midnightblue" d="M636.552,-529C664.036,-529 697.788,-529 724.598,-529"/>
<polygon fill="midnightblue" stroke="midnightblue" points="724.877,-532.5 734.877,-529 724.877,-525.5 724.877,-532.5"/>
</g>
<!-- Node25 -->
<g id="node50" class="node"><title>Node25</title>
<a xlink:href="../../dd/dd5/class_graphics_view.html#a79f98dafea5083f10c64488e0cabba04" target="_top" xlink:title="GraphicsView::getVisible\lSceneRect">
<polygon fill="white" stroke="black" points="708,-724 708,-758 834,-758 834,-724 708,-724"/>
<text text-anchor="start" x="716" y="-745" font-family="Helvetica,sans-Serif" font-size="10.00">GraphicsView::getVisible</text>
<text text-anchor="middle" x="771" y="-732" font-family="Helvetica,sans-Serif" font-size="10.00">SceneRect</text>
</a>
</g>
<!-- Node24&#45;&gt;Node25 -->
<g id="edge50" class="edge"><title>Node24&#45;&gt;Node25</title>
<path fill="none" stroke="midnightblue" d="M645.553,-741C662.154,-741 680.382,-741 697.675,-741"/>
<polygon fill="midnightblue" stroke="midnightblue" points="697.73,-744.5 707.73,-741 697.73,-737.5 697.73,-744.5"/>
</g>
<!-- Node27&#45;&gt;Node9 -->
<g id="edge60" class="edge"><title>Node27&#45;&gt;Node9</title>
<path fill="none" stroke="midnightblue" d="M397.929,-231.951C407.995,-192.726 438.79,-96.5019 506,-58 575.213,-18.351 671.086,-46.8997 726.524,-69.8884"/>
<polygon fill="midnightblue" stroke="midnightblue" points="725.155,-73.1094 735.727,-73.8081 727.898,-66.6693 725.155,-73.1094"/>
</g>
<!-- Node28&#45;&gt;Node9 -->
<g id="edge64" class="edge"><title>Node28&#45;&gt;Node9</title>
<path fill="none" stroke="midnightblue" d="M459.977,-283.824C463.664,-281.278 467.058,-278.355 470,-275 523.497,-213.982 443.705,-148.003 506,-96 561.014,-50.0746 647.169,-58.177 706.214,-71.5677"/>
<polygon fill="midnightblue" stroke="midnightblue" points="705.639,-75.0286 716.177,-73.9353 707.258,-68.2182 705.639,-75.0286"/>
</g>
<!-- Node30&#45;&gt;Node9 -->
<g id="edge70" class="edge"><title>Node30&#45;&gt;Node9</title>
<path fill="none" stroke="midnightblue" d="M460.049,-335.887C463.719,-333.326 467.089,-330.383 470,-327 528.337,-259.2 441.582,-191.051 506,-129 531.949,-104.004 623.666,-95.347 691.97,-92.4061"/>
<polygon fill="midnightblue" stroke="midnightblue" points="692.439,-95.8904 702.292,-91.997 692.162,-88.8959 692.439,-95.8904"/>
</g>
</g>
</svg>
