<?xml version="1.0" encoding="UTF-8" standalone="no"?>
<!DOCTYPE svg PUBLIC "-//W3C//DTD SVG 1.1//EN"
 "http://www.w3.org/Graphics/SVG/1.1/DTD/svg11.dtd">
<!-- Generated by graphviz version 2.26.3 (20100126.1600)
 -->
<!-- Title: redo Pages: 1 -->
<svg width="1100pt" height="477pt"
 viewBox="0.00 0.00 1100.00 477.00" xmlns="http://www.w3.org/2000/svg" xmlns:xlink="http://www.w3.org/1999/xlink">
<g id="graph1" class="graph" transform="scale(1 1) rotate(0) translate(4 473)">
<title>redo</title>
<polygon fill="white" stroke="white" points="-4,5 -4,-473 1097,-473 1097,5 -4,5"/>
<!-- Node1 -->
<g id="node1" class="node"><title>Node1</title>
<polygon fill="#bfbfbf" stroke="black" points="0.5,-143.5 0.5,-164.5 35.5,-164.5 35.5,-143.5 0.5,-143.5"/>
<text text-anchor="middle" x="18" y="-151.5" font-family="Helvetica,sans-Serif" font-size="10.00">redo</text>
</g>
<!-- Node2 -->
<g id="node3" class="node"><title>Node2</title>
<a xlink:href="../../de/d50/classproject_1_1_s_i___symbol.html#ae4d151fe3fae75cb19c5add958a470a8" target="_top" xlink:title="project::SI_Symbol\l::setPosition">
<polygon fill="white" stroke="black" points="77,-137 77,-171 177,-171 177,-137 77,-137"/>
<text text-anchor="start" x="85" y="-158" font-family="Helvetica,sans-Serif" font-size="10.00">project::SI_Symbol</text>
<text text-anchor="middle" x="127" y="-145" font-family="Helvetica,sans-Serif" font-size="10.00">::setPosition</text>
</a>
</g>
<!-- Node1&#45;&gt;Node2 -->
<g id="edge2" class="edge"><title>Node1&#45;&gt;Node2</title>
<path fill="none" stroke="midnightblue" d="M35.5127,-154C44.1701,-154 55.1851,-154 66.5494,-154"/>
<polygon fill="midnightblue" stroke="midnightblue" points="66.5757,-157.5 76.5756,-154 66.5756,-150.5 66.5757,-157.5"/>
</g>
<!-- Node26 -->
<g id="node58" class="node"><title>Node26</title>
<a xlink:href="../../de/d50/classproject_1_1_s_i___symbol.html#ac2fecbff745326981395b663b0494597" target="_top" xlink:title="project::SI_Symbol\l::setAngle">
<polygon fill="white" stroke="black" points="77,-189 77,-223 177,-223 177,-189 77,-189"/>
<text text-anchor="start" x="85" y="-210" font-family="Helvetica,sans-Serif" font-size="10.00">project::SI_Symbol</text>
<text text-anchor="middle" x="127" y="-197" font-family="Helvetica,sans-Serif" font-size="10.00">::setAngle</text>
</a>
</g>
<!-- Node1&#45;&gt;Node26 -->
<g id="edge64" class="edge"><title>Node1&#45;&gt;Node26</title>
<path fill="none" stroke="midnightblue" d="M35.9846,-162.699C46.4795,-167.765 59.9795,-174.265 72,-180 75.1457,-181.501 78.3943,-183.047 81.6671,-184.601"/>
<polygon fill="midnightblue" stroke="midnightblue" points="80.3536,-187.852 90.8888,-188.974 83.3529,-181.527 80.3536,-187.852"/>
</g>
<!-- Node27 -->
<g id="node61" class="node"><title>Node27</title>
<a xlink:href="../../d3/d26/class_undo_command.html#a93c48d6ed036e1a381be53ac67643284" target="_top" xlink:title="Redo/execute the command (and all child commands in normal order) ">
<polygon fill="white" stroke="black" points="72,-46.5 72,-67.5 182,-67.5 182,-46.5 72,-46.5"/>
<text text-anchor="middle" x="127" y="-54.5" font-family="Helvetica,sans-Serif" font-size="10.00">UndoCommand::redo</text>
</a>
</g>
<!-- Node1&#45;&gt;Node27 -->
<g id="edge68" class="edge"><title>Node1&#45;&gt;Node27</title>
<path fill="none" stroke="midnightblue" d="M30.0814,-143.249C48.8405,-126.555 85.1468,-94.2455 107.606,-74.2588"/>
<polygon fill="midnightblue" stroke="midnightblue" points="110.052,-76.7672 115.196,-67.5046 105.399,-71.5379 110.052,-76.7672"/>
</g>
<!-- Node3 -->
<g id="node5" class="node"><title>Node3</title>
<a xlink:href="../../d6/d12/classproject_1_1_s_i___symbol_pin.html#a212e36e19edc323ddeb73387d2f011a5" target="_top" xlink:title="project::SI_SymbolPin\l::updatePosition">
<polygon fill="white" stroke="black" points="218,-189 218,-223 332,-223 332,-189 218,-189"/>
<text text-anchor="start" x="226" y="-210" font-family="Helvetica,sans-Serif" font-size="10.00">project::SI_SymbolPin</text>
<text text-anchor="middle" x="275" y="-197" font-family="Helvetica,sans-Serif" font-size="10.00">::updatePosition</text>
</a>
</g>
<!-- Node2&#45;&gt;Node3 -->
<g id="edge4" class="edge"><title>Node2&#45;&gt;Node3</title>
<path fill="none" stroke="midnightblue" d="M175.461,-171.027C188.621,-175.651 203.01,-180.706 216.655,-185.5"/>
<polygon fill="midnightblue" stroke="midnightblue" points="215.836,-188.922 226.43,-188.935 218.156,-182.318 215.836,-188.922"/>
</g>
<!-- Node4 -->
<g id="node7" class="node"><title>Node4</title>
<a xlink:href="../../de/d50/classproject_1_1_s_i___symbol.html#a56e275d18632ae7d863b45e405563e26" target="_top" xlink:title="project::SI_Symbol\l::mapToScene">
<polygon fill="white" stroke="black" points="388,-234 388,-268 488,-268 488,-234 388,-234"/>
<text text-anchor="start" x="396" y="-255" font-family="Helvetica,sans-Serif" font-size="10.00">project::SI_Symbol</text>
<text text-anchor="middle" x="438" y="-242" font-family="Helvetica,sans-Serif" font-size="10.00">::mapToScene</text>
</a>
</g>
<!-- Node3&#45;&gt;Node4 -->
<g id="edge6" class="edge"><title>Node3&#45;&gt;Node4</title>
<path fill="none" stroke="midnightblue" d="M332.009,-221.739C346.921,-225.855 363.038,-230.305 378.095,-234.462"/>
<polygon fill="midnightblue" stroke="midnightblue" points="377.242,-237.857 387.813,-237.145 379.105,-231.11 377.242,-237.857"/>
</g>
<!-- Node15 -->
<g id="node32" class="node"><title>Node15</title>
<a xlink:href="../../d0/dfd/classlibrary_1_1_symbol_pin.html#ae23dd3ab799e9f70a4037eea91f69a82" target="_top" xlink:title="library::SymbolPin\l::getPosition">
<polygon fill="white" stroke="black" points="390,-378 390,-412 486,-412 486,-378 390,-378"/>
<text text-anchor="start" x="398" y="-399" font-family="Helvetica,sans-Serif" font-size="10.00">library::SymbolPin</text>
<text text-anchor="middle" x="438" y="-386" font-family="Helvetica,sans-Serif" font-size="10.00">::getPosition</text>
</a>
</g>
<!-- Node3&#45;&gt;Node15 -->
<g id="edge34" class="edge"><title>Node3&#45;&gt;Node15</title>
<path fill="none" stroke="midnightblue" d="M280.33,-223.106C291.402,-255.95 319.943,-328.195 368,-369 371.914,-372.324 376.293,-375.241 380.899,-377.799"/>
<polygon fill="midnightblue" stroke="midnightblue" points="379.458,-380.991 389.974,-382.286 382.561,-374.716 379.458,-380.991"/>
</g>
<!-- Node16 -->
<g id="node34" class="node"><title>Node16</title>
<a xlink:href="../../de/d50/classproject_1_1_s_i___symbol.html#a894842161e505b56d67b0cf5b0f50087" target="_top" xlink:title="project::SI_Symbol\l::getAngle">
<polygon fill="white" stroke="black" points="551,-286 551,-320 651,-320 651,-286 551,-286"/>
<text text-anchor="start" x="559" y="-307" font-family="Helvetica,sans-Serif" font-size="10.00">project::SI_Symbol</text>
<text text-anchor="middle" x="601" y="-294" font-family="Helvetica,sans-Serif" font-size="10.00">::getAngle</text>
</a>
</g>
<!-- Node3&#45;&gt;Node16 -->
<g id="edge36" class="edge"><title>Node3&#45;&gt;Node16</title>
<path fill="none" stroke="midnightblue" d="M332.303,-198.236C381.853,-194.304 453.84,-195.464 508,-225 531.101,-237.598 524.005,-254.896 544,-272 547.609,-275.087 551.574,-277.998 555.682,-280.707"/>
<polygon fill="midnightblue" stroke="midnightblue" points="553.892,-283.715 564.243,-285.976 557.561,-277.754 553.892,-283.715"/>
</g>
<!-- Node17 -->
<g id="node36" class="node"><title>Node17</title>
<a xlink:href="../../d0/dfd/classlibrary_1_1_symbol_pin.html#a894842161e505b56d67b0cf5b0f50087" target="_top" xlink:title="library::SymbolPin\l::getAngle">
<polygon fill="white" stroke="black" points="553,-40 553,-74 649,-74 649,-40 553,-40"/>
<text text-anchor="start" x="561" y="-61" font-family="Helvetica,sans-Serif" font-size="10.00">library::SymbolPin</text>
<text text-anchor="middle" x="601" y="-48" font-family="Helvetica,sans-Serif" font-size="10.00">::getAngle</text>
</a>
</g>
<!-- Node3&#45;&gt;Node17 -->
<g id="edge38" class="edge"><title>Node3&#45;&gt;Node17</title>
<path fill="none" stroke="midnightblue" d="M292.799,-188.998C310.54,-172.922 339.221,-149.207 368,-135 425.813,-106.461 447.124,-118.234 508,-97 517.115,-93.8205 535.532,-86.0044 553.589,-78.1163"/>
<polygon fill="midnightblue" stroke="midnightblue" points="555.198,-81.2327 562.948,-74.009 552.384,-74.8228 555.198,-81.2327"/>
</g>
<!-- Node18 -->
<g id="node38" class="node"><title>Node18</title>
<a xlink:href="../../d0/d69/class_point.html#a3fb0d1120536f2a889eac1e5e88b9ac5" target="_top" xlink:title="Get the point as a QPointF object in pixels (for QGraphics* objects) ">
<polygon fill="white" stroke="black" points="387.5,-66.5 387.5,-87.5 488.5,-87.5 488.5,-66.5 387.5,-66.5"/>
<text text-anchor="middle" x="438" y="-74.5" font-family="Helvetica,sans-Serif" font-size="10.00">Point::toPxQPointF</text>
</a>
</g>
<!-- Node3&#45;&gt;Node18 -->
<g id="edge40" class="edge"><title>Node3&#45;&gt;Node18</title>
<path fill="none" stroke="midnightblue" d="M286.207,-188.849C301.935,-166.026 332.627,-125.792 368,-102 374.11,-97.8903 380.974,-94.3706 387.953,-91.382"/>
<polygon fill="midnightblue" stroke="midnightblue" points="389.457,-94.5512 397.48,-87.6305 386.893,-88.038 389.457,-94.5512"/>
</g>
<!-- Node20 -->
<g id="node42" class="node"><title>Node20</title>
<a xlink:href="../../d2/d39/class_angle.html#ad2926beabd4d66cc5bc1ac4c622540ea" target="_top" xlink:title="Get the Angle in degrees. ">
<polygon fill="white" stroke="black" points="401,-338.5 401,-359.5 475,-359.5 475,-338.5 401,-338.5"/>
<text text-anchor="middle" x="438" y="-346.5" font-family="Helvetica,sans-Serif" font-size="10.00">Angle::toDeg</text>
</a>
</g>
<!-- Node3&#45;&gt;Node20 -->
<g id="edge44" class="edge"><title>Node3&#45;&gt;Node20</title>
<path fill="none" stroke="midnightblue" d="M283.289,-223.107C297.101,-249.793 327.369,-301.152 368,-329 374.893,-333.724 382.895,-337.342 390.973,-340.111"/>
<polygon fill="midnightblue" stroke="midnightblue" points="390.209,-343.536 400.794,-343.083 392.237,-336.836 390.209,-343.536"/>
</g>
<!-- Node21 -->
<g id="node44" class="node"><title>Node21</title>
<a xlink:href="../../da/d6f/classproject_1_1_s_g_i___symbol_pin.html#abbb5db1b700a86caa85ff4c0c13142f2" target="_top" xlink:title="project::SGI_SymbolPin\l::updateCacheAndRepaint">
<polygon fill="white" stroke="black" points="372.5,-144 372.5,-178 503.5,-178 503.5,-144 372.5,-144"/>
<text text-anchor="start" x="380.5" y="-165" font-family="Helvetica,sans-Serif" font-size="10.00">project::SGI_SymbolPin</text>
<text text-anchor="middle" x="438" y="-152" font-family="Helvetica,sans-Serif" font-size="10.00">::updateCacheAndRepaint</text>
</a>
</g>
<!-- Node3&#45;&gt;Node21 -->
<g id="edge46" class="edge"><title>Node3&#45;&gt;Node21</title>
<path fill="none" stroke="midnightblue" d="M332.009,-190.261C343.198,-187.172 355.066,-183.896 366.655,-180.696"/>
<polygon fill="midnightblue" stroke="midnightblue" points="367.596,-184.068 376.304,-178.033 365.733,-177.32 367.596,-184.068"/>
</g>
<!-- Node25 -->
<g id="node56" class="node"><title>Node25</title>
<a xlink:href="../../d3/d43/classproject_1_1_s_i___net_point.html#aed08011e6158136fd130624f64f14307" target="_top" xlink:title="project::SI_NetPoint\l::setPosition">
<polygon fill="white" stroke="black" points="385.5,-286 385.5,-320 490.5,-320 490.5,-286 385.5,-286"/>
<text text-anchor="start" x="393.5" y="-307" font-family="Helvetica,sans-Serif" font-size="10.00">project::SI_NetPoint</text>
<text text-anchor="middle" x="438" y="-294" font-family="Helvetica,sans-Serif" font-size="10.00">::setPosition</text>
</a>
</g>
<!-- Node3&#45;&gt;Node25 -->
<g id="edge62" class="edge"><title>Node3&#45;&gt;Node25</title>
<path fill="none" stroke="midnightblue" d="M293.782,-223.034C311.785,-238.683 340.249,-261.701 368,-277 371.044,-278.678 374.218,-280.29 377.462,-281.831"/>
<polygon fill="midnightblue" stroke="midnightblue" points="376.18,-285.092 386.738,-285.983 379.04,-278.703 376.18,-285.092"/>
</g>
<!-- Node5 -->
<g id="node9" class="node"><title>Node5</title>
<a xlink:href="../../d0/d69/class_point.html#a5234cfe8b9f31ba928745912067f90b4" target="_top" xlink:title="Get the point rotated by a specific angle with respect to a specific center. ">
<polygon fill="white" stroke="black" points="563.5,-338.5 563.5,-359.5 638.5,-359.5 638.5,-338.5 563.5,-338.5"/>
<text text-anchor="middle" x="601" y="-346.5" font-family="Helvetica,sans-Serif" font-size="10.00">Point::rotated</text>
</a>
</g>
<!-- Node4&#45;&gt;Node5 -->
<g id="edge8" class="edge"><title>Node4&#45;&gt;Node5</title>
<path fill="none" stroke="midnightblue" d="M488.192,-265.323C495.222,-268.53 502.062,-272.387 508,-277 530.198,-294.244 521.646,-311.958 544,-329 547.147,-331.399 550.605,-333.526 554.213,-335.408"/>
<polygon fill="midnightblue" stroke="midnightblue" points="552.852,-338.633 563.402,-339.598 555.756,-332.264 552.852,-338.633"/>
</g>
<!-- Node6 -->
<g id="node11" class="node"><title>Node6</title>
<a xlink:href="../../d0/d69/class_point.html#af8998fd1f88de65f9467a5d2012710a4" target="_top" xlink:title="Rotate the point by a specific angle with respect to a specific center. ">
<polygon fill="white" stroke="black" points="694,-338.5 694,-359.5 764,-359.5 764,-338.5 694,-338.5"/>
<text text-anchor="middle" x="729" y="-346.5" font-family="Helvetica,sans-Serif" font-size="10.00">Point::rotate</text>
</a>
</g>
<!-- Node5&#45;&gt;Node6 -->
<g id="edge10" class="edge"><title>Node5&#45;&gt;Node6</title>
<path fill="none" stroke="midnightblue" d="M638.712,-349C652.716,-349 668.753,-349 683.388,-349"/>
<polygon fill="midnightblue" stroke="midnightblue" points="683.748,-352.5 693.748,-349 683.748,-345.5 683.748,-352.5"/>
</g>
<!-- Node7 -->
<g id="node13" class="node"><title>Node7</title>
<a xlink:href="../../d2/d39/class_angle.html#afba236b33bef9614cb43142b02c79187" target="_top" xlink:title="Get an Angle object which is mapped to [0..360[ degrees. ">
<polygon fill="white" stroke="black" points="800.5,-447.5 800.5,-468.5 935.5,-468.5 935.5,-447.5 800.5,-447.5"/>
<text text-anchor="middle" x="868" y="-455.5" font-family="Helvetica,sans-Serif" font-size="10.00">Angle::mappedTo0_360deg</text>
</a>
</g>
<!-- Node6&#45;&gt;Node7 -->
<g id="edge12" class="edge"><title>Node6&#45;&gt;Node7</title>
<path fill="none" stroke="midnightblue" d="M734.509,-359.519C744.818,-378.174 768.83,-417.052 800,-438 802.949,-439.982 806.098,-441.771 809.364,-443.386"/>
<polygon fill="midnightblue" stroke="midnightblue" points="808.244,-446.716 818.811,-447.491 811.034,-440.296 808.244,-446.716"/>
</g>
<!-- Node9 -->
<g id="node17" class="node"><title>Node9</title>
<a xlink:href="../../d2/d39/class_angle.html#a7f29e0cf68871bab5b01569d78de4504" target="_top" xlink:title="90 degrees ">
<polygon fill="white" stroke="black" points="831,-247.5 831,-268.5 905,-268.5 905,-247.5 831,-247.5"/>
<text text-anchor="middle" x="868" y="-255.5" font-family="Helvetica,sans-Serif" font-size="10.00">Angle::deg90</text>
</a>
</g>
<!-- Node6&#45;&gt;Node9 -->
<g id="edge16" class="edge"><title>Node6&#45;&gt;Node9</title>
<path fill="none" stroke="midnightblue" d="M736.725,-338.436C748.61,-322.93 772.868,-294.106 800,-278 806.475,-274.156 813.739,-271.008 821.045,-268.441"/>
<polygon fill="midnightblue" stroke="midnightblue" points="822.493,-271.654 830.965,-265.292 820.375,-264.982 822.493,-271.654"/>
</g>
<!-- Node11 -->
<g id="node21" class="node"><title>Node11</title>
<a xlink:href="../../d2/d39/class_angle.html#a1cb5c1054de209f807098188714339d8" target="_top" xlink:title="180 degrees ">
<polygon fill="white" stroke="black" points="828.5,-287.5 828.5,-308.5 907.5,-308.5 907.5,-287.5 828.5,-287.5"/>
<text text-anchor="middle" x="868" y="-295.5" font-family="Helvetica,sans-Serif" font-size="10.00">Angle::deg180</text>
</a>
</g>
<!-- Node6&#45;&gt;Node11 -->
<g id="edge20" class="edge"><title>Node6&#45;&gt;Node11</title>
<path fill="none" stroke="midnightblue" d="M751.093,-338.498C764.96,-332.121 783.315,-324.069 800,-318 806.071,-315.792 812.512,-313.648 818.916,-311.635"/>
<polygon fill="midnightblue" stroke="midnightblue" points="820.348,-314.858 828.89,-308.59 818.304,-308.163 820.348,-314.858"/>
</g>
<!-- Node12 -->
<g id="node24" class="node"><title>Node12</title>
<a xlink:href="../../d2/d39/class_angle.html#a7600a8b34a9d1abb484a7d459cc45bba" target="_top" xlink:title="270 degrees ">
<polygon fill="white" stroke="black" points="828.5,-407.5 828.5,-428.5 907.5,-428.5 907.5,-407.5 828.5,-407.5"/>
<text text-anchor="middle" x="868" y="-415.5" font-family="Helvetica,sans-Serif" font-size="10.00">Angle::deg270</text>
</a>
</g>
<!-- Node6&#45;&gt;Node12 -->
<g id="edge24" class="edge"><title>Node6&#45;&gt;Node12</title>
<path fill="none" stroke="midnightblue" d="M741.579,-359.541C755.207,-370.499 777.966,-387.49 800,-398 805.831,-400.781 812.13,-403.263 818.461,-405.451"/>
<polygon fill="midnightblue" stroke="midnightblue" points="817.779,-408.909 828.371,-408.648 819.929,-402.247 817.779,-408.909"/>
</g>
<!-- Node13 -->
<g id="node27" class="node"><title>Node13</title>
<a xlink:href="../../d2/d39/class_angle.html#a0bb104c9f39ddaeb30f14b4320e34f2a" target="_top" xlink:title="0 degrees ">
<polygon fill="white" stroke="black" points="834,-327.5 834,-348.5 902,-348.5 902,-327.5 834,-327.5"/>
<text text-anchor="middle" x="868" y="-335.5" font-family="Helvetica,sans-Serif" font-size="10.00">Angle::deg0</text>
</a>
</g>
<!-- Node6&#45;&gt;Node13 -->
<g id="edge28" class="edge"><title>Node6&#45;&gt;Node13</title>
<path fill="none" stroke="midnightblue" d="M764.076,-346.224C782.21,-344.789 804.527,-343.023 823.826,-341.496"/>
<polygon fill="midnightblue" stroke="midnightblue" points="824.204,-344.977 833.897,-340.699 823.652,-337.999 824.204,-344.977"/>
</g>
<!-- Node14 -->
<g id="node30" class="node"><title>Node14</title>
<a xlink:href="../../df/df0/class_length.html#ae8a552dd96c343a0a609cebf7731cd26" target="_top" xlink:title="Get the length in nanometers. ">
<polygon fill="white" stroke="black" points="830,-367.5 830,-388.5 906,-388.5 906,-367.5 830,-367.5"/>
<text text-anchor="middle" x="868" y="-375.5" font-family="Helvetica,sans-Serif" font-size="10.00">Length::toNm</text>
</a>
</g>
<!-- Node6&#45;&gt;Node14 -->
<g id="edge32" class="edge"><title>Node6&#45;&gt;Node14</title>
<path fill="none" stroke="midnightblue" d="M764.076,-356.318C780.905,-359.829 801.336,-364.092 819.615,-367.905"/>
<polygon fill="midnightblue" stroke="midnightblue" points="819.007,-371.354 829.511,-369.97 820.437,-364.501 819.007,-371.354"/>
</g>
<!-- Node8 -->
<g id="node15" class="node"><title>Node8</title>
<a xlink:href="../../d2/d39/class_angle.html#aa6a6fad8c7af06e21bec6a5fc2b521cc" target="_top" xlink:title="Map this Angle object to [0..360[ degrees. ">
<polygon fill="white" stroke="black" points="972.5,-447.5 972.5,-468.5 1091.5,-468.5 1091.5,-447.5 972.5,-447.5"/>
<text text-anchor="middle" x="1032" y="-455.5" font-family="Helvetica,sans-Serif" font-size="10.00">Angle::mapTo0_360deg</text>
</a>
</g>
<!-- Node7&#45;&gt;Node8 -->
<g id="edge14" class="edge"><title>Node7&#45;&gt;Node8</title>
<path fill="none" stroke="midnightblue" d="M935.652,-458C944.404,-458 953.38,-458 962.166,-458"/>
<polygon fill="midnightblue" stroke="midnightblue" points="962.368,-461.5 972.368,-458 962.368,-454.5 962.368,-461.5"/>
</g>
<!-- Node10 -->
<g id="node19" class="node"><title>Node10</title>
<a xlink:href="../../d2/d39/class_angle.html#ae0cfbf0d84fd0eab0f9dfc1b365b8667" target="_top" xlink:title="Default Constructor. ">
<polygon fill="white" stroke="black" points="996,-307.5 996,-328.5 1068,-328.5 1068,-307.5 996,-307.5"/>
<text text-anchor="middle" x="1032" y="-315.5" font-family="Helvetica,sans-Serif" font-size="10.00">Angle::Angle</text>
</a>
</g>
<!-- Node9&#45;&gt;Node10 -->
<g id="edge18" class="edge"><title>Node9&#45;&gt;Node10</title>
<path fill="none" stroke="midnightblue" d="M905.291,-268.175C915.332,-271.13 926.14,-274.508 936,-278 957.351,-285.563 980.831,-295.319 999.225,-303.303"/>
<polygon fill="midnightblue" stroke="midnightblue" points="998.043,-306.607 1008.61,-307.413 1000.85,-300.195 998.043,-306.607"/>
</g>
<!-- Node11&#45;&gt;Node10 -->
<g id="edge22" class="edge"><title>Node11&#45;&gt;Node10</title>
<path fill="none" stroke="midnightblue" d="M907.7,-302.841C931.174,-305.704 961.017,-309.344 985.578,-312.339"/>
<polygon fill="midnightblue" stroke="midnightblue" points="985.396,-315.842 995.746,-313.579 986.243,-308.894 985.396,-315.842"/>
</g>
<!-- Node12&#45;&gt;Node10 -->
<g id="edge26" class="edge"><title>Node12&#45;&gt;Node10</title>
<path fill="none" stroke="midnightblue" d="M907.558,-409.321C917.171,-406.42 927.207,-402.694 936,-398 966.704,-381.608 996.626,-354.343 1014.69,-336.27"/>
<polygon fill="midnightblue" stroke="midnightblue" points="1017.62,-338.28 1022.11,-328.685 1012.62,-333.383 1017.62,-338.28"/>
</g>
<!-- Node13&#45;&gt;Node10 -->
<g id="edge30" class="edge"><title>Node13&#45;&gt;Node10</title>
<path fill="none" stroke="midnightblue" d="M902.38,-333.807C926.592,-330.855 959.281,-326.868 985.774,-323.637"/>
<polygon fill="midnightblue" stroke="midnightblue" points="986.459,-327.08 995.962,-322.395 985.612,-320.131 986.459,-327.08"/>
</g>
<!-- Node19 -->
<g id="node40" class="node"><title>Node19</title>
<a xlink:href="../../df/df0/class_length.html#abf9a817a583f3939aea7bffdeeb7b235" target="_top" xlink:title="Get the length in pixels (for QGraphics* objects) ">
<polygon fill="white" stroke="black" points="565,-0.5 565,-21.5 637,-21.5 637,-0.5 565,-0.5"/>
<text text-anchor="middle" x="601" y="-8.5" font-family="Helvetica,sans-Serif" font-size="10.00">Length::toPx</text>
</a>
</g>
<!-- Node18&#45;&gt;Node19 -->
<g id="edge42" class="edge"><title>Node18&#45;&gt;Node19</title>
<path fill="none" stroke="midnightblue" d="M483.668,-66.4393C491.957,-63.83 500.382,-60.6978 508,-57 525.755,-48.3817 526.507,-40.1397 544,-31 547.977,-28.9223 552.216,-26.9805 556.519,-25.1872"/>
<polygon fill="midnightblue" stroke="midnightblue" points="557.92,-28.3978 565.964,-21.5034 555.376,-21.8763 557.92,-28.3978"/>
</g>
<!-- Node21&#45;&gt;Node9 -->
<g id="edge54" class="edge"><title>Node21&#45;&gt;Node9</title>
<path fill="none" stroke="midnightblue" d="M483.896,-178.14C492.338,-182.334 500.76,-187.291 508,-193 528.385,-209.076 521.005,-226.95 544,-239 632.829,-285.546 754.748,-276.555 820.812,-266.752"/>
<polygon fill="midnightblue" stroke="midnightblue" points="821.578,-270.175 830.922,-265.18 820.503,-263.258 821.578,-270.175"/>
</g>
<!-- Node21&#45;&gt;Node16 -->
<g id="edge52" class="edge"><title>Node21&#45;&gt;Node16</title>
<path fill="none" stroke="midnightblue" d="M489.037,-178.194C495.95,-182.002 502.533,-186.565 508,-192 535.652,-219.488 517.487,-243.412 544,-272 546.723,-274.936 549.789,-277.654 553.049,-280.159"/>
<polygon fill="midnightblue" stroke="midnightblue" points="551.249,-283.168 561.473,-285.946 555.213,-277.398 551.249,-283.168"/>
</g>
<!-- Node21&#45;&gt;Node17 -->
<g id="edge48" class="edge"><title>Node21&#45;&gt;Node17</title>
<path fill="none" stroke="midnightblue" d="M485.418,-143.906C493.359,-139.974 501.212,-135.345 508,-130 528.673,-113.722 523.418,-99.3923 544,-83 545.531,-81.7803 547.129,-80.6036 548.777,-79.4699"/>
<polygon fill="midnightblue" stroke="midnightblue" points="550.691,-82.4012 557.348,-74.1591 547.004,-76.4508 550.691,-82.4012"/>
</g>
<!-- Node21&#45;&gt;Node19 -->
<g id="edge58" class="edge"><title>Node21&#45;&gt;Node19</title>
<path fill="none" stroke="midnightblue" d="M460.294,-143.879C475.015,-131.836 494.084,-114.756 508,-97 528.611,-70.7013 518.54,-52.639 544,-31 547.465,-28.0551 551.391,-25.5341 555.523,-23.3778"/>
<polygon fill="midnightblue" stroke="midnightblue" points="557.107,-26.5034 564.798,-19.2169 554.242,-20.1166 557.107,-26.5034"/>
</g>
<!-- Node22 -->
<g id="node47" class="node"><title>Node22</title>
<a xlink:href="../../d6/d12/classproject_1_1_s_i___symbol_pin.html#ac719981a1c0cd287330632a443776bec" target="_top" xlink:title="project::SI_SymbolPin\l::getSymbol">
<polygon fill="white" stroke="black" points="544,-196 544,-230 658,-230 658,-196 544,-196"/>
<text text-anchor="start" x="552" y="-217" font-family="Helvetica,sans-Serif" font-size="10.00">project::SI_SymbolPin</text>
<text text-anchor="middle" x="601" y="-204" font-family="Helvetica,sans-Serif" font-size="10.00">::getSymbol</text>
</a>
</g>
<!-- Node21&#45;&gt;Node22 -->
<g id="edge50" class="edge"><title>Node21&#45;&gt;Node22</title>
<path fill="none" stroke="midnightblue" d="M491.372,-178.027C506.148,-182.74 522.33,-187.903 537.616,-192.779"/>
<polygon fill="midnightblue" stroke="midnightblue" points="536.917,-196.23 547.508,-195.935 539.045,-189.561 536.917,-196.23"/>
</g>
<!-- Node23 -->
<g id="node51" class="node"><title>Node23</title>
<a xlink:href="../../d0/dfd/classlibrary_1_1_symbol_pin.html#a2e17cfc864c3d153e0f25bfd79277cd1" target="_top" xlink:title="library::SymbolPin\l::getLength">
<polygon fill="white" stroke="black" points="553,-144 553,-178 649,-178 649,-144 553,-144"/>
<text text-anchor="start" x="561" y="-165" font-family="Helvetica,sans-Serif" font-size="10.00">library::SymbolPin</text>
<text text-anchor="middle" x="601" y="-152" font-family="Helvetica,sans-Serif" font-size="10.00">::getLength</text>
</a>
</g>
<!-- Node21&#45;&gt;Node23 -->
<g id="edge56" class="edge"><title>Node21&#45;&gt;Node23</title>
<path fill="none" stroke="midnightblue" d="M503.828,-161C516.668,-161 530.046,-161 542.624,-161"/>
<polygon fill="midnightblue" stroke="midnightblue" points="542.971,-164.5 552.971,-161 542.971,-157.5 542.971,-164.5"/>
</g>
<!-- Node24 -->
<g id="node54" class="node"><title>Node24</title>
<a xlink:href="../../d6/d12/classproject_1_1_s_i___symbol_pin.html#a82d223627d0c08ce323661100eb289bd" target="_top" xlink:title="project::SI_SymbolPin\l::getDisplayText">
<polygon fill="white" stroke="black" points="544,-92 544,-126 658,-126 658,-92 544,-92"/>
<text text-anchor="start" x="552" y="-113" font-family="Helvetica,sans-Serif" font-size="10.00">project::SI_SymbolPin</text>
<text text-anchor="middle" x="601" y="-100" font-family="Helvetica,sans-Serif" font-size="10.00">::getDisplayText</text>
</a>
</g>
<!-- Node21&#45;&gt;Node24 -->
<g id="edge60" class="edge"><title>Node21&#45;&gt;Node24</title>
<path fill="none" stroke="midnightblue" d="M491.372,-143.973C506.148,-139.26 522.33,-134.097 537.616,-129.221"/>
<polygon fill="midnightblue" stroke="midnightblue" points="539.045,-132.439 547.508,-126.065 536.917,-125.77 539.045,-132.439"/>
</g>
<!-- Node26&#45;&gt;Node3 -->
<g id="edge66" class="edge"><title>Node26&#45;&gt;Node3</title>
<path fill="none" stroke="midnightblue" d="M177.106,-206C186.918,-206 197.357,-206 207.625,-206"/>
<polygon fill="midnightblue" stroke="midnightblue" points="207.806,-209.5 217.806,-206 207.806,-202.5 207.806,-209.5"/>
</g>
<!-- Node28 -->
<g id="node63" class="node"><title>Node28</title>
<a xlink:href="../../d3/d26/class_undo_command.html#ae57d776a4010cbabb44c03d9ac6514eb" target="_top" xlink:title="This method shows whether that command is executed (redo() called one time more than undo()) ...">
<polygon fill="white" stroke="black" points="368,-26.5 368,-47.5 508,-47.5 508,-26.5 368,-26.5"/>
<text text-anchor="middle" x="438" y="-34.5" font-family="Helvetica,sans-Serif" font-size="10.00">UndoCommand::isExecuted</text>
</a>
</g>
<!-- Node27&#45;&gt;Node28 -->
<g id="edge70" class="edge"><title>Node27&#45;&gt;Node28</title>
<path fill="none" stroke="midnightblue" d="M182.38,-59.7846C223.705,-61.1872 281.504,-61.7221 332,-57 348.522,-55.4549 366.306,-52.5833 382.499,-49.4886"/>
<polygon fill="midnightblue" stroke="midnightblue" points="383.218,-52.9143 392.35,-47.5427 381.862,-46.047 383.218,-52.9143"/>
</g>
<!-- Node29 -->
<g id="node65" class="node"><title>Node29</title>
<a xlink:href="../../d3/d26/class_undo_command.html#a0e1e7804a53f6d62efc72c9bdbec8571" target="_top" xlink:title="Undo the command (and all child commands in reverse order) ">
<polygon fill="white" stroke="black" points="219,-26.5 219,-47.5 331,-47.5 331,-26.5 219,-26.5"/>
<text text-anchor="middle" x="275" y="-34.5" font-family="Helvetica,sans-Serif" font-size="10.00">UndoCommand::undo</text>
</a>
</g>
<!-- Node27&#45;&gt;Node29 -->
<g id="edge72" class="edge"><title>Node27&#45;&gt;Node29</title>
<path fill="none" stroke="midnightblue" d="M161.699,-46.4904C175.779,-43.8508 192.533,-41.288 208.781,-39.2317"/>
<polygon fill="midnightblue" stroke="midnightblue" points="209.296,-42.6951 218.804,-38.0207 208.457,-35.7456 209.296,-42.6951"/>
</g>
<!-- Node29&#45;&gt;Node27 -->
<g id="edge76" class="edge"><title>Node29&#45;&gt;Node27</title>
<path fill="none" stroke="midnightblue" d="M240.032,-47.5599C225.726,-50.2345 208.693,-52.8273 192.245,-54.8909"/>
<polygon fill="midnightblue" stroke="midnightblue" points="191.623,-51.4403 182.11,-56.1033 192.455,-58.3907 191.623,-51.4403"/>
</g>
<!-- Node29&#45;&gt;Node28 -->
<g id="edge74" class="edge"><title>Node29&#45;&gt;Node28</title>
<path fill="none" stroke="midnightblue" d="M331.095,-37C339.727,-37 348.78,-37 357.812,-37"/>
<polygon fill="midnightblue" stroke="midnightblue" points="357.977,-40.5001 367.977,-37 357.977,-33.5001 357.977,-40.5001"/>
</g>
</g>
</svg>
