<?xml version="1.0" encoding="UTF-8" standalone="no"?>
<!DOCTYPE svg PUBLIC "-//W3C//DTD SVG 1.1//EN"
 "http://www.w3.org/Graphics/SVG/1.1/DTD/svg11.dtd">
<!-- Generated by graphviz version 2.26.3 (20100126.1600)
 -->
<!-- Title: ~CmdSymbolInstanceEdit Pages: 1 -->
<svg width="1178pt" height="432pt"
 viewBox="0.00 0.00 1178.00 432.00" xmlns="http://www.w3.org/2000/svg" xmlns:xlink="http://www.w3.org/1999/xlink">
<g id="graph1" class="graph" transform="scale(1 1) rotate(0) translate(4 428)">
<title>~CmdSymbolInstanceEdit</title>
<polygon fill="white" stroke="white" points="-4,5 -4,-428 1175,-428 1175,5 -4,5"/>
<!-- Node1 -->
<g id="node1" class="node"><title>Node1</title>
<polygon fill="#bfbfbf" stroke="black" points="0.5,-167.5 0.5,-188.5 131.5,-188.5 131.5,-167.5 0.5,-167.5"/>
<text text-anchor="middle" x="66" y="-175.5" font-family="Helvetica,sans-Serif" font-size="10.00">~CmdSymbolInstanceEdit</text>
</g>
<!-- Node2 -->
<g id="node3" class="node"><title>Node2</title>
<a xlink:href="../../de/d50/classproject_1_1_s_i___symbol.html#ae4d151fe3fae75cb19c5add958a470a8" target="_top" xlink:title="project::SI_Symbol\l::setPosition">
<polygon fill="white" stroke="black" points="168,-187 168,-221 268,-221 268,-187 168,-187"/>
<text text-anchor="start" x="176" y="-208" font-family="Helvetica,sans-Serif" font-size="10.00">project::SI_Symbol</text>
<text text-anchor="middle" x="218" y="-195" font-family="Helvetica,sans-Serif" font-size="10.00">::setPosition</text>
</a>
</g>
<!-- Node1&#45;&gt;Node2 -->
<g id="edge2" class="edge"><title>Node1&#45;&gt;Node2</title>
<path fill="none" stroke="midnightblue" d="M127.386,-188.5C137.293,-190.195 147.543,-191.948 157.431,-193.639"/>
<polygon fill="midnightblue" stroke="midnightblue" points="157.126,-197.138 167.573,-195.374 158.306,-190.238 157.126,-197.138"/>
</g>
<!-- Node27 -->
<g id="node60" class="node"><title>Node27</title>
<a xlink:href="../../de/d50/classproject_1_1_s_i___symbol.html#a92a6c99e0892b13f98c8ec4b5e4823f5" target="_top" xlink:title="project::SI_Symbol\l::setRotation">
<polygon fill="white" stroke="black" points="168,-135 168,-169 268,-169 268,-135 168,-135"/>
<text text-anchor="start" x="176" y="-156" font-family="Helvetica,sans-Serif" font-size="10.00">project::SI_Symbol</text>
<text text-anchor="middle" x="218" y="-143" font-family="Helvetica,sans-Serif" font-size="10.00">::setRotation</text>
</a>
</g>
<!-- Node1&#45;&gt;Node27 -->
<g id="edge66" class="edge"><title>Node1&#45;&gt;Node27</title>
<path fill="none" stroke="midnightblue" d="M127.386,-167.5C137.293,-165.805 147.543,-164.052 157.431,-162.361"/>
<polygon fill="midnightblue" stroke="midnightblue" points="158.306,-165.762 167.573,-160.626 157.126,-158.862 158.306,-165.762"/>
</g>
<!-- Node3 -->
<g id="node5" class="node"><title>Node3</title>
<a xlink:href="../../d6/d12/classproject_1_1_s_i___symbol_pin.html#a212e36e19edc323ddeb73387d2f011a5" target="_top" xlink:title="project::SI_SymbolPin\l::updatePosition">
<polygon fill="white" stroke="black" points="304,-161 304,-195 418,-195 418,-161 304,-161"/>
<text text-anchor="start" x="312" y="-182" font-family="Helvetica,sans-Serif" font-size="10.00">project::SI_SymbolPin</text>
<text text-anchor="middle" x="361" y="-169" font-family="Helvetica,sans-Serif" font-size="10.00">::updatePosition</text>
</a>
</g>
<!-- Node2&#45;&gt;Node3 -->
<g id="edge4" class="edge"><title>Node2&#45;&gt;Node3</title>
<path fill="none" stroke="midnightblue" d="M268.014,-194.906C276.35,-193.391 285.116,-191.797 293.797,-190.219"/>
<polygon fill="midnightblue" stroke="midnightblue" points="294.705,-193.611 303.918,-188.379 293.453,-186.724 294.705,-193.611"/>
</g>
<!-- Node4 -->
<g id="node7" class="node"><title>Node4</title>
<a xlink:href="../../de/d50/classproject_1_1_s_i___symbol.html#a56e275d18632ae7d863b45e405563e26" target="_top" xlink:title="project::SI_Symbol\l::mapToScene">
<polygon fill="white" stroke="black" points="470,-374 470,-408 570,-408 570,-374 470,-374"/>
<text text-anchor="start" x="478" y="-395" font-family="Helvetica,sans-Serif" font-size="10.00">project::SI_Symbol</text>
<text text-anchor="middle" x="520" y="-382" font-family="Helvetica,sans-Serif" font-size="10.00">::mapToScene</text>
</a>
</g>
<!-- Node3&#45;&gt;Node4 -->
<g id="edge6" class="edge"><title>Node3&#45;&gt;Node4</title>
<path fill="none" stroke="midnightblue" d="M366.943,-195.054C379.077,-227.965 409.374,-301.203 454,-349 460.741,-356.221 468.98,-362.729 477.321,-368.346"/>
<polygon fill="midnightblue" stroke="midnightblue" points="475.676,-371.449 485.991,-373.87 479.438,-365.545 475.676,-371.449"/>
</g>
<!-- Node15 -->
<g id="node32" class="node"><title>Node15</title>
<a xlink:href="../../d0/dfd/classlibrary_1_1_symbol_pin.html#ae23dd3ab799e9f70a4037eea91f69a82" target="_top" xlink:title="library::SymbolPin\l::getPosition">
<polygon fill="white" stroke="black" points="472,-92 472,-126 568,-126 568,-92 472,-92"/>
<text text-anchor="start" x="480" y="-113" font-family="Helvetica,sans-Serif" font-size="10.00">library::SymbolPin</text>
<text text-anchor="middle" x="520" y="-100" font-family="Helvetica,sans-Serif" font-size="10.00">::getPosition</text>
</a>
</g>
<!-- Node3&#45;&gt;Node15 -->
<g id="edge34" class="edge"><title>Node3&#45;&gt;Node15</title>
<path fill="none" stroke="midnightblue" d="M396.555,-160.974C413.795,-152.87 434.865,-143.185 454,-135 457.885,-133.338 461.915,-131.655 465.98,-129.985"/>
<polygon fill="midnightblue" stroke="midnightblue" points="467.528,-133.134 475.479,-126.132 464.897,-126.648 467.528,-133.134"/>
</g>
<!-- Node16 -->
<g id="node34" class="node"><title>Node16</title>
<a xlink:href="../../de/d50/classproject_1_1_s_i___symbol.html#a01f0e165edb023b0c50cdbfd70f36021" target="_top" xlink:title="project::SI_Symbol\l::getRotation">
<polygon fill="white" stroke="black" points="629,-334 629,-368 729,-368 729,-334 629,-334"/>
<text text-anchor="start" x="637" y="-355" font-family="Helvetica,sans-Serif" font-size="10.00">project::SI_Symbol</text>
<text text-anchor="middle" x="679" y="-342" font-family="Helvetica,sans-Serif" font-size="10.00">::getRotation</text>
</a>
</g>
<!-- Node3&#45;&gt;Node16 -->
<g id="edge36" class="edge"><title>Node3&#45;&gt;Node16</title>
<path fill="none" stroke="midnightblue" d="M375.916,-195.251C393.117,-214.257 423.025,-244.682 454,-264 505.921,-296.381 571.867,-320.139 618.916,-334.57"/>
<polygon fill="midnightblue" stroke="midnightblue" points="618.072,-337.971 628.657,-337.507 620.093,-331.269 618.072,-337.971"/>
</g>
<!-- Node17 -->
<g id="node36" class="node"><title>Node17</title>
<a xlink:href="../../d0/dfd/classlibrary_1_1_symbol_pin.html#a01f0e165edb023b0c50cdbfd70f36021" target="_top" xlink:title="library::SymbolPin\l::getRotation">
<polygon fill="white" stroke="black" points="631,-282 631,-316 727,-316 727,-282 631,-282"/>
<text text-anchor="start" x="639" y="-303" font-family="Helvetica,sans-Serif" font-size="10.00">library::SymbolPin</text>
<text text-anchor="middle" x="679" y="-290" font-family="Helvetica,sans-Serif" font-size="10.00">::getRotation</text>
</a>
</g>
<!-- Node3&#45;&gt;Node17 -->
<g id="edge38" class="edge"><title>Node3&#45;&gt;Node17</title>
<path fill="none" stroke="midnightblue" d="M390.098,-195.022C408.119,-205.135 431.955,-217.749 454,-227 509.317,-250.213 574.873,-270.404 620.911,-283.449"/>
<polygon fill="midnightblue" stroke="midnightblue" points="620.144,-286.869 630.717,-286.204 622.036,-280.13 620.144,-286.869"/>
</g>
<!-- Node18 -->
<g id="node38" class="node"><title>Node18</title>
<a xlink:href="../../d0/d69/class_point.html#a3fb0d1120536f2a889eac1e5e88b9ac5" target="_top" xlink:title="Get the point as a QPointF object in pixels (for QGraphics* objects) ">
<polygon fill="white" stroke="black" points="469.5,-144.5 469.5,-165.5 570.5,-165.5 570.5,-144.5 469.5,-144.5"/>
<text text-anchor="middle" x="520" y="-152.5" font-family="Helvetica,sans-Serif" font-size="10.00">Point::toPxQPointF</text>
</a>
</g>
<!-- Node3&#45;&gt;Node18 -->
<g id="edge40" class="edge"><title>Node3&#45;&gt;Node18</title>
<path fill="none" stroke="midnightblue" d="M418.403,-169.696C431.658,-167.779 445.804,-165.733 459.198,-163.795"/>
<polygon fill="midnightblue" stroke="midnightblue" points="459.872,-167.234 469.268,-162.339 458.87,-160.306 459.872,-167.234"/>
</g>
<!-- Node20 -->
<g id="node42" class="node"><title>Node20</title>
<a xlink:href="../../d2/d39/class_angle.html#ad2926beabd4d66cc5bc1ac4c622540ea" target="_top" xlink:title="Get the Angle in degrees. ">
<polygon fill="white" stroke="black" points="483,-52.5 483,-73.5 557,-73.5 557,-52.5 483,-52.5"/>
<text text-anchor="middle" x="520" y="-60.5" font-family="Helvetica,sans-Serif" font-size="10.00">Angle::toDeg</text>
</a>
</g>
<!-- Node3&#45;&gt;Node20 -->
<g id="edge44" class="edge"><title>Node3&#45;&gt;Node20</title>
<path fill="none" stroke="midnightblue" d="M373.504,-160.676C389.742,-139.393 420.056,-103.585 454,-83 459.915,-79.4127 466.523,-76.4259 473.208,-73.9513"/>
<polygon fill="midnightblue" stroke="midnightblue" points="474.614,-77.1719 482.988,-70.6818 472.394,-70.5331 474.614,-77.1719"/>
</g>
<!-- Node21 -->
<g id="node44" class="node"><title>Node21</title>
<a xlink:href="../../da/d6f/classproject_1_1_s_g_i___symbol_pin.html#abbb5db1b700a86caa85ff4c0c13142f2" target="_top" xlink:title="project::SGI_SymbolPin\l::updateCacheAndRepaint">
<polygon fill="white" stroke="black" points="454.5,-184 454.5,-218 585.5,-218 585.5,-184 454.5,-184"/>
<text text-anchor="start" x="462.5" y="-205" font-family="Helvetica,sans-Serif" font-size="10.00">project::SGI_SymbolPin</text>
<text text-anchor="middle" x="520" y="-192" font-family="Helvetica,sans-Serif" font-size="10.00">::updateCacheAndRepaint</text>
</a>
</g>
<!-- Node3&#45;&gt;Node21 -->
<g id="edge46" class="edge"><title>Node3&#45;&gt;Node21</title>
<path fill="none" stroke="midnightblue" d="M418.403,-186.304C426.778,-187.515 435.509,-188.778 444.181,-190.033"/>
<polygon fill="midnightblue" stroke="midnightblue" points="443.912,-193.53 454.31,-191.498 444.914,-186.602 443.912,-193.53"/>
</g>
<!-- Node26 -->
<g id="node58" class="node"><title>Node26</title>
<a xlink:href="../../d3/d43/classproject_1_1_s_i___net_point.html#aed08011e6158136fd130624f64f14307" target="_top" xlink:title="project::SI_NetPoint\l::setPosition">
<polygon fill="white" stroke="black" points="467.5,-0 467.5,-34 572.5,-34 572.5,-0 467.5,-0"/>
<text text-anchor="start" x="475.5" y="-21" font-family="Helvetica,sans-Serif" font-size="10.00">project::SI_NetPoint</text>
<text text-anchor="middle" x="520" y="-8" font-family="Helvetica,sans-Serif" font-size="10.00">::setPosition</text>
</a>
</g>
<!-- Node3&#45;&gt;Node26 -->
<g id="edge64" class="edge"><title>Node3&#45;&gt;Node26</title>
<path fill="none" stroke="midnightblue" d="M368.761,-160.626C382.24,-132.275 412.554,-75.9318 454,-43 455.591,-41.7359 457.251,-40.5267 458.965,-39.3706"/>
<polygon fill="midnightblue" stroke="midnightblue" points="461.12,-42.1598 467.907,-34.0244 457.528,-36.1516 461.12,-42.1598"/>
</g>
<!-- Node5 -->
<g id="node9" class="node"><title>Node5</title>
<a xlink:href="../../d0/d69/class_point.html#a5234cfe8b9f31ba928745912067f90b4" target="_top" xlink:title="Get the point rotated by a specific angle with respect to a specific center. ">
<polygon fill="white" stroke="black" points="641.5,-386.5 641.5,-407.5 716.5,-407.5 716.5,-386.5 641.5,-386.5"/>
<text text-anchor="middle" x="679" y="-394.5" font-family="Helvetica,sans-Serif" font-size="10.00">Point::rotated</text>
</a>
</g>
<!-- Node4&#45;&gt;Node5 -->
<g id="edge8" class="edge"><title>Node4&#45;&gt;Node5</title>
<path fill="none" stroke="midnightblue" d="M570.309,-392.898C589.82,-393.635 612.056,-394.474 631.31,-395.2"/>
<polygon fill="midnightblue" stroke="midnightblue" points="631.245,-398.7 641.37,-395.58 631.509,-391.705 631.245,-398.7"/>
</g>
<!-- Node6 -->
<g id="node11" class="node"><title>Node6</title>
<a xlink:href="../../d0/d69/class_point.html#af8998fd1f88de65f9467a5d2012710a4" target="_top" xlink:title="Rotate the point by a specific angle with respect to a specific center. ">
<polygon fill="white" stroke="black" points="772,-322.5 772,-343.5 842,-343.5 842,-322.5 772,-322.5"/>
<text text-anchor="middle" x="807" y="-330.5" font-family="Helvetica,sans-Serif" font-size="10.00">Point::rotate</text>
</a>
</g>
<!-- Node5&#45;&gt;Node6 -->
<g id="edge10" class="edge"><title>Node5&#45;&gt;Node6</title>
<path fill="none" stroke="midnightblue" d="M712.947,-386.45C720.656,-383.682 728.715,-380.484 736,-377 752.475,-369.12 769.923,-358.345 783.4,-349.43"/>
<polygon fill="midnightblue" stroke="midnightblue" points="785.696,-352.103 792.035,-343.614 781.785,-346.297 785.696,-352.103"/>
</g>
<!-- Node7 -->
<g id="node13" class="node"><title>Node7</title>
<a xlink:href="../../d2/d39/class_angle.html#afba236b33bef9614cb43142b02c79187" target="_top" xlink:title="Get an Angle object which is mapped to [0..360[ degrees. ">
<polygon fill="white" stroke="black" points="878.5,-402.5 878.5,-423.5 1013.5,-423.5 1013.5,-402.5 878.5,-402.5"/>
<text text-anchor="middle" x="946" y="-410.5" font-family="Helvetica,sans-Serif" font-size="10.00">Angle::mappedTo0_360deg</text>
</a>
</g>
<!-- Node6&#45;&gt;Node7 -->
<g id="edge12" class="edge"><title>Node6&#45;&gt;Node7</title>
<path fill="none" stroke="midnightblue" d="M817.022,-343.891C829.91,-357.28 853.559,-379.842 878,-393 882.009,-395.158 886.28,-397.11 890.653,-398.871"/>
<polygon fill="midnightblue" stroke="midnightblue" points="889.734,-402.262 900.327,-402.425 892.147,-395.691 889.734,-402.262"/>
</g>
<!-- Node9 -->
<g id="node17" class="node"><title>Node9</title>
<a xlink:href="../../d2/d39/class_angle.html#a7f29e0cf68871bab5b01569d78de4504" target="_top" xlink:title="90 degrees ">
<polygon fill="white" stroke="black" points="909,-202.5 909,-223.5 983,-223.5 983,-202.5 909,-202.5"/>
<text text-anchor="middle" x="946" y="-210.5" font-family="Helvetica,sans-Serif" font-size="10.00">Angle::deg90</text>
</a>
</g>
<!-- Node6&#45;&gt;Node9 -->
<g id="edge16" class="edge"><title>Node6&#45;&gt;Node9</title>
<path fill="none" stroke="midnightblue" d="M811.559,-322.466C820.939,-302.049 844.375,-256.991 878,-233 884.198,-228.578 891.373,-225.125 898.689,-222.431"/>
<polygon fill="midnightblue" stroke="midnightblue" points="900.234,-225.61 908.676,-219.208 898.085,-218.948 900.234,-225.61"/>
</g>
<!-- Node11 -->
<g id="node21" class="node"><title>Node11</title>
<a xlink:href="../../d2/d39/class_angle.html#a1cb5c1054de209f807098188714339d8" target="_top" xlink:title="180 degrees ">
<polygon fill="white" stroke="black" points="906.5,-242.5 906.5,-263.5 985.5,-263.5 985.5,-242.5 906.5,-242.5"/>
<text text-anchor="middle" x="946" y="-250.5" font-family="Helvetica,sans-Serif" font-size="10.00">Angle::deg180</text>
</a>
</g>
<!-- Node6&#45;&gt;Node11 -->
<g id="edge20" class="edge"><title>Node6&#45;&gt;Node11</title>
<path fill="none" stroke="midnightblue" d="M817.022,-322.109C829.91,-308.72 853.559,-286.158 878,-273 883.897,-269.826 890.36,-267.097 896.881,-264.768"/>
<polygon fill="midnightblue" stroke="midnightblue" points="898.01,-268.081 906.419,-261.637 895.826,-261.431 898.01,-268.081"/>
</g>
<!-- Node12 -->
<g id="node24" class="node"><title>Node12</title>
<a xlink:href="../../d2/d39/class_angle.html#a7600a8b34a9d1abb484a7d459cc45bba" target="_top" xlink:title="270 degrees ">
<polygon fill="white" stroke="black" points="906.5,-362.5 906.5,-383.5 985.5,-383.5 985.5,-362.5 906.5,-362.5"/>
<text text-anchor="middle" x="946" y="-370.5" font-family="Helvetica,sans-Serif" font-size="10.00">Angle::deg270</text>
</a>
</g>
<!-- Node6&#45;&gt;Node12 -->
<g id="edge24" class="edge"><title>Node6&#45;&gt;Node12</title>
<path fill="none" stroke="midnightblue" d="M842.076,-343.094C859.528,-348.116 880.855,-354.253 899.637,-359.658"/>
<polygon fill="midnightblue" stroke="midnightblue" points="898.901,-363.088 909.479,-362.49 900.837,-356.361 898.901,-363.088"/>
</g>
<!-- Node13 -->
<g id="node27" class="node"><title>Node13</title>
<a xlink:href="../../d2/d39/class_angle.html#a0bb104c9f39ddaeb30f14b4320e34f2a" target="_top" xlink:title="0 degrees ">
<polygon fill="white" stroke="black" points="912,-282.5 912,-303.5 980,-303.5 980,-282.5 912,-282.5"/>
<text text-anchor="middle" x="946" y="-290.5" font-family="Helvetica,sans-Serif" font-size="10.00">Angle::deg0</text>
</a>
</g>
<!-- Node6&#45;&gt;Node13 -->
<g id="edge28" class="edge"><title>Node6&#45;&gt;Node13</title>
<path fill="none" stroke="midnightblue" d="M842.076,-322.906C860.293,-317.664 882.732,-311.207 902.092,-305.635"/>
<polygon fill="midnightblue" stroke="midnightblue" points="903.255,-308.943 911.897,-302.814 901.319,-302.216 903.255,-308.943"/>
</g>
<!-- Node14 -->
<g id="node30" class="node"><title>Node14</title>
<a xlink:href="../../df/df0/class_length.html#ae8a552dd96c343a0a609cebf7731cd26" target="_top" xlink:title="Get the length in nanometers. ">
<polygon fill="white" stroke="black" points="908,-322.5 908,-343.5 984,-343.5 984,-322.5 908,-322.5"/>
<text text-anchor="middle" x="946" y="-330.5" font-family="Helvetica,sans-Serif" font-size="10.00">Length::toNm</text>
</a>
</g>
<!-- Node6&#45;&gt;Node14 -->
<g id="edge32" class="edge"><title>Node6&#45;&gt;Node14</title>
<path fill="none" stroke="midnightblue" d="M842.076,-333C858.827,-333 879.147,-333 897.361,-333"/>
<polygon fill="midnightblue" stroke="midnightblue" points="897.511,-336.5 907.511,-333 897.511,-329.5 897.511,-336.5"/>
</g>
<!-- Node8 -->
<g id="node15" class="node"><title>Node8</title>
<a xlink:href="../../d2/d39/class_angle.html#aa6a6fad8c7af06e21bec6a5fc2b521cc" target="_top" xlink:title="Map this Angle object to [0..360[ degrees. ">
<polygon fill="white" stroke="black" points="1050.5,-402.5 1050.5,-423.5 1169.5,-423.5 1169.5,-402.5 1050.5,-402.5"/>
<text text-anchor="middle" x="1110" y="-410.5" font-family="Helvetica,sans-Serif" font-size="10.00">Angle::mapTo0_360deg</text>
</a>
</g>
<!-- Node7&#45;&gt;Node8 -->
<g id="edge14" class="edge"><title>Node7&#45;&gt;Node8</title>
<path fill="none" stroke="midnightblue" d="M1013.65,-413C1022.4,-413 1031.38,-413 1040.17,-413"/>
<polygon fill="midnightblue" stroke="midnightblue" points="1040.37,-416.5 1050.37,-413 1040.37,-409.5 1040.37,-416.5"/>
</g>
<!-- Node10 -->
<g id="node19" class="node"><title>Node10</title>
<a xlink:href="../../d2/d39/class_angle.html#ae0cfbf0d84fd0eab0f9dfc1b365b8667" target="_top" xlink:title="Default Constructor. ">
<polygon fill="white" stroke="black" points="1074,-262.5 1074,-283.5 1146,-283.5 1146,-262.5 1074,-262.5"/>
<text text-anchor="middle" x="1110" y="-270.5" font-family="Helvetica,sans-Serif" font-size="10.00">Angle::Angle</text>
</a>
</g>
<!-- Node9&#45;&gt;Node10 -->
<g id="edge18" class="edge"><title>Node9&#45;&gt;Node10</title>
<path fill="none" stroke="midnightblue" d="M983.291,-223.175C993.332,-226.13 1004.14,-229.508 1014,-233 1035.35,-240.563 1058.83,-250.319 1077.22,-258.303"/>
<polygon fill="midnightblue" stroke="midnightblue" points="1076.04,-261.607 1086.61,-262.413 1078.85,-255.195 1076.04,-261.607"/>
</g>
<!-- Node11&#45;&gt;Node10 -->
<g id="edge22" class="edge"><title>Node11&#45;&gt;Node10</title>
<path fill="none" stroke="midnightblue" d="M985.7,-257.841C1009.17,-260.704 1039.02,-264.344 1063.58,-267.339"/>
<polygon fill="midnightblue" stroke="midnightblue" points="1063.4,-270.842 1073.75,-268.579 1064.24,-263.894 1063.4,-270.842"/>
</g>
<!-- Node12&#45;&gt;Node10 -->
<g id="edge26" class="edge"><title>Node12&#45;&gt;Node10</title>
<path fill="none" stroke="midnightblue" d="M985.558,-364.321C995.171,-361.42 1005.21,-357.694 1014,-353 1044.7,-336.608 1074.63,-309.343 1092.69,-291.27"/>
<polygon fill="midnightblue" stroke="midnightblue" points="1095.62,-293.28 1100.11,-283.685 1090.62,-288.383 1095.62,-293.28"/>
</g>
<!-- Node13&#45;&gt;Node10 -->
<g id="edge30" class="edge"><title>Node13&#45;&gt;Node10</title>
<path fill="none" stroke="midnightblue" d="M980.38,-288.807C1004.59,-285.855 1037.28,-281.868 1063.77,-278.637"/>
<polygon fill="midnightblue" stroke="midnightblue" points="1064.46,-282.08 1073.96,-277.395 1063.61,-275.131 1064.46,-282.08"/>
</g>
<!-- Node19 -->
<g id="node40" class="node"><title>Node19</title>
<a xlink:href="../../df/df0/class_length.html#abf9a817a583f3939aea7bffdeeb7b235" target="_top" xlink:title="Get the length in pixels (for QGraphics* objects) ">
<polygon fill="white" stroke="black" points="643,-8.5 643,-29.5 715,-29.5 715,-8.5 643,-8.5"/>
<text text-anchor="middle" x="679" y="-16.5" font-family="Helvetica,sans-Serif" font-size="10.00">Length::toPx</text>
</a>
</g>
<!-- Node18&#45;&gt;Node19 -->
<g id="edge42" class="edge"><title>Node18&#45;&gt;Node19</title>
<path fill="none" stroke="midnightblue" d="M570.616,-145.099C576.246,-142.482 581.545,-139.176 586,-135 619.244,-103.835 589.437,-70.8762 622,-39 625.336,-35.7342 629.236,-32.9995 633.401,-30.7098"/>
<polygon fill="midnightblue" stroke="midnightblue" points="635.208,-33.7317 642.832,-26.375 632.284,-27.3714 635.208,-33.7317"/>
</g>
<!-- Node21&#45;&gt;Node9 -->
<g id="edge56" class="edge"><title>Node21&#45;&gt;Node9</title>
<path fill="none" stroke="midnightblue" d="M563.99,-183.984C581.724,-177.977 602.554,-171.979 622,-169 722.99,-153.53 842.124,-181.561 903.973,-199.572"/>
<polygon fill="midnightblue" stroke="midnightblue" points="903.174,-202.986 913.757,-202.478 905.167,-196.276 903.174,-202.986"/>
</g>
<!-- Node21&#45;&gt;Node16 -->
<g id="edge52" class="edge"><title>Node21&#45;&gt;Node16</title>
<path fill="none" stroke="midnightblue" d="M530.557,-218.344C547.189,-244.455 581.772,-294.088 622,-325 623.585,-326.218 625.236,-327.395 626.935,-328.53"/>
<polygon fill="midnightblue" stroke="midnightblue" points="625.386,-331.684 635.755,-333.863 629.008,-325.694 625.386,-331.684"/>
</g>
<!-- Node21&#45;&gt;Node17 -->
<g id="edge48" class="edge"><title>Node21&#45;&gt;Node17</title>
<path fill="none" stroke="midnightblue" d="M541.889,-218.265C562.022,-233.698 593.053,-256.376 622,-273 624.52,-274.447 627.135,-275.876 629.798,-277.273"/>
<polygon fill="midnightblue" stroke="midnightblue" points="628.459,-280.518 638.965,-281.89 631.608,-274.266 628.459,-280.518"/>
</g>
<!-- Node21&#45;&gt;Node19 -->
<g id="edge60" class="edge"><title>Node21&#45;&gt;Node19</title>
<path fill="none" stroke="midnightblue" d="M575.612,-183.946C579.439,-181.367 582.971,-178.404 586,-175 627.564,-128.288 579.56,-84.9175 622,-39 625.339,-35.3875 629.368,-32.4273 633.722,-30.0018"/>
<polygon fill="midnightblue" stroke="midnightblue" points="635.376,-33.0938 642.999,-25.7361 632.451,-26.7339 635.376,-33.0938"/>
</g>
<!-- Node22 -->
<g id="node47" class="node"><title>Node22</title>
<a xlink:href="../../d6/d12/classproject_1_1_s_i___symbol_pin.html#ac719981a1c0cd287330632a443776bec" target="_top" xlink:title="project::SI_SymbolPin\l::getSymbol">
<polygon fill="white" stroke="black" points="622,-88 622,-122 736,-122 736,-88 622,-88"/>
<text text-anchor="start" x="630" y="-109" font-family="Helvetica,sans-Serif" font-size="10.00">project::SI_SymbolPin</text>
<text text-anchor="middle" x="679" y="-96" font-family="Helvetica,sans-Serif" font-size="10.00">::getSymbol</text>
</a>
</g>
<!-- Node21&#45;&gt;Node22 -->
<g id="edge50" class="edge"><title>Node21&#45;&gt;Node22</title>
<path fill="none" stroke="midnightblue" d="M570.593,-183.846C575.977,-181.215 581.224,-178.27 586,-175 605.465,-161.674 603.39,-150.495 622,-136 625.852,-133 630.033,-130.127 634.323,-127.424"/>
<polygon fill="midnightblue" stroke="midnightblue" points="636.409,-130.255 643.207,-122.129 632.825,-124.242 636.409,-130.255"/>
</g>
<!-- Node23 -->
<g id="node50" class="node"><title>Node23</title>
<a xlink:href="../../d2/d39/class_angle.html#a74e05120ac11f78df41f0a0304990f9f" target="_top" xlink:title="Map this Angle object to [&#45;180..+180[ degrees. ">
<polygon fill="white" stroke="black" points="624.5,-48.5 624.5,-69.5 733.5,-69.5 733.5,-48.5 624.5,-48.5"/>
<text text-anchor="middle" x="679" y="-56.5" font-family="Helvetica,sans-Serif" font-size="10.00">Angle::mapTo180deg</text>
</a>
</g>
<!-- Node21&#45;&gt;Node23 -->
<g id="edge54" class="edge"><title>Node21&#45;&gt;Node23</title>
<path fill="none" stroke="midnightblue" d="M574.93,-183.807C578.957,-181.255 582.718,-178.336 586,-175 617.955,-142.514 589.437,-110.876 622,-79 623.461,-77.5694 625.031,-76.2408 626.683,-75.0068"/>
<polygon fill="midnightblue" stroke="midnightblue" points="628.824,-77.7999 635.524,-69.5923 625.168,-71.8306 628.824,-77.7999"/>
</g>
<!-- Node24 -->
<g id="node53" class="node"><title>Node24</title>
<a xlink:href="../../d0/dfd/classlibrary_1_1_symbol_pin.html#a2e17cfc864c3d153e0f25bfd79277cd1" target="_top" xlink:title="library::SymbolPin\l::getLength">
<polygon fill="white" stroke="black" points="631,-230 631,-264 727,-264 727,-230 631,-230"/>
<text text-anchor="start" x="639" y="-251" font-family="Helvetica,sans-Serif" font-size="10.00">library::SymbolPin</text>
<text text-anchor="middle" x="679" y="-238" font-family="Helvetica,sans-Serif" font-size="10.00">::getLength</text>
</a>
</g>
<!-- Node21&#45;&gt;Node24 -->
<g id="edge58" class="edge"><title>Node21&#45;&gt;Node24</title>
<path fill="none" stroke="midnightblue" d="M579.206,-218.129C592.918,-222.096 607.494,-226.313 621.147,-230.263"/>
<polygon fill="midnightblue" stroke="midnightblue" points="620.322,-233.667 630.9,-233.084 622.267,-226.943 620.322,-233.667"/>
</g>
<!-- Node25 -->
<g id="node56" class="node"><title>Node25</title>
<a xlink:href="../../d6/d12/classproject_1_1_s_i___symbol_pin.html#a82d223627d0c08ce323661100eb289bd" target="_top" xlink:title="project::SI_SymbolPin\l::getDisplayText">
<polygon fill="white" stroke="black" points="622,-178 622,-212 736,-212 736,-178 622,-178"/>
<text text-anchor="start" x="630" y="-199" font-family="Helvetica,sans-Serif" font-size="10.00">project::SI_SymbolPin</text>
<text text-anchor="middle" x="679" y="-186" font-family="Helvetica,sans-Serif" font-size="10.00">::getDisplayText</text>
</a>
</g>
<!-- Node21&#45;&gt;Node25 -->
<g id="edge62" class="edge"><title>Node21&#45;&gt;Node25</title>
<path fill="none" stroke="midnightblue" d="M585.589,-198.525C594.259,-198.198 603.156,-197.862 611.851,-197.534"/>
<polygon fill="midnightblue" stroke="midnightblue" points="612.079,-201.028 621.94,-197.153 611.815,-194.033 612.079,-201.028"/>
</g>
<!-- Node27&#45;&gt;Node3 -->
<g id="edge68" class="edge"><title>Node27&#45;&gt;Node3</title>
<path fill="none" stroke="midnightblue" d="M268.014,-161.094C276.35,-162.609 285.116,-164.203 293.797,-165.781"/>
<polygon fill="midnightblue" stroke="midnightblue" points="293.453,-169.276 303.918,-167.621 294.705,-162.389 293.453,-169.276"/>
</g>
</g>
</svg>
