<?xml version="1.0" encoding="UTF-8" standalone="no"?>
<!DOCTYPE svg PUBLIC "-//W3C//DTD SVG 1.1//EN"
 "http://www.w3.org/Graphics/SVG/1.1/DTD/svg11.dtd">
<!-- Generated by graphviz version 2.26.3 (20100126.1600)
 -->
<!-- Title: /home/travis/build/LibrePCB/LibrePCB/libs/librepcblibrary/gencmp/gencompsignal.h Pages: 1 -->
<svg width="3724pt" height="376pt"
 viewBox="0.00 0.00 3724.00 376.00" xmlns="http://www.w3.org/2000/svg" xmlns:xlink="http://www.w3.org/1999/xlink">
<g id="graph1" class="graph" transform="scale(1 1) rotate(0) translate(4 372)">
<title>/home/travis/build/LibrePCB/LibrePCB/libs/librepcblibrary/gencmp/gencompsignal.h</title>
<polygon fill="white" stroke="white" points="-4,5 -4,-372 3721,-372 3721,5 -4,5"/>
<!-- Node1 -->
<g id="node1" class="node"><title>Node1</title>
<polygon fill="#bfbfbf" stroke="black" points="1245.5,-307 1245.5,-367 1370.5,-367 1370.5,-307 1245.5,-307"/>
<text text-anchor="start" x="1253.5" y="-354" font-family="Helvetica,sans-Serif" font-size="10.00">/home/travis/build</text>
<text text-anchor="start" x="1253.5" y="-341" font-family="Helvetica,sans-Serif" font-size="10.00">/LibrePCB/LibrePCB/libs</text>
<text text-anchor="start" x="1253.5" y="-328" font-family="Helvetica,sans-Serif" font-size="10.00">/librepcblibrary/gencmp</text>
<text text-anchor="middle" x="1308" y="-315" font-family="Helvetica,sans-Serif" font-size="10.00">/gencompsignal.h</text>
</g>
<!-- Node2 -->
<g id="node3" class="node"><title>Node2</title>
<a xlink:href="../../d4/d98/genericcomponent_8h.html" target="_top" xlink:title="/home/travis/build\l/LibrePCB/LibrePCB/libs\l/librepcblibrary/gencmp\l/genericcomponent.h">
<polygon fill="white" stroke="black" points="1691.5,-209 1691.5,-269 1816.5,-269 1816.5,-209 1691.5,-209"/>
<text text-anchor="start" x="1699.5" y="-256" font-family="Helvetica,sans-Serif" font-size="10.00">/home/travis/build</text>
<text text-anchor="start" x="1699.5" y="-243" font-family="Helvetica,sans-Serif" font-size="10.00">/LibrePCB/LibrePCB/libs</text>
<text text-anchor="start" x="1699.5" y="-230" font-family="Helvetica,sans-Serif" font-size="10.00">/librepcblibrary/gencmp</text>
<text text-anchor="middle" x="1754" y="-217" font-family="Helvetica,sans-Serif" font-size="10.00">/genericcomponent.h</text>
</a>
</g>
<!-- Node1&#45;&gt;Node2 -->
<g id="edge2" class="edge"><title>Node1&#45;&gt;Node2</title>
<path fill="none" stroke="midnightblue" d="M1380.95,-320.972C1467.33,-301.99 1609.76,-270.694 1691.37,-252.763"/>
<polygon fill="midnightblue" stroke="midnightblue" points="1379.97,-317.602 1370.95,-323.167 1381.47,-324.439 1379.97,-317.602"/>
</g>
<!-- Node5 -->
<g id="node9" class="node"><title>Node5</title>
<a xlink:href="../../dd/df2/gencompsignal_8cpp.html" target="_top" xlink:title="/home/travis/build\l/LibrePCB/LibrePCB/libs\l/librepcblibrary/gencmp\l/gencompsignal.cpp">
<polygon fill="white" stroke="black" points="-0.5,-105 -0.5,-165 124.5,-165 124.5,-105 -0.5,-105"/>
<text text-anchor="start" x="7.5" y="-152" font-family="Helvetica,sans-Serif" font-size="10.00">/home/travis/build</text>
<text text-anchor="start" x="7.5" y="-139" font-family="Helvetica,sans-Serif" font-size="10.00">/LibrePCB/LibrePCB/libs</text>
<text text-anchor="start" x="7.5" y="-126" font-family="Helvetica,sans-Serif" font-size="10.00">/librepcblibrary/gencmp</text>
<text text-anchor="middle" x="62" y="-113" font-family="Helvetica,sans-Serif" font-size="10.00">/gencompsignal.cpp</text>
</a>
</g>
<!-- Node1&#45;&gt;Node5 -->
<g id="edge50" class="edge"><title>Node1&#45;&gt;Node5</title>
<path fill="none" stroke="midnightblue" d="M1235.18,-335.32C1047.83,-329.19 535.605,-300.947 133,-172 127.043,-170.092 120.987,-167.712 115.05,-165.084"/>
<polygon fill="midnightblue" stroke="midnightblue" points="1235.08,-338.819 1245.19,-335.636 1235.3,-331.822 1235.08,-338.819"/>
</g>
<!-- Node3 -->
<g id="node5" class="node"><title>Node3</title>
<a xlink:href="../../de/d98/elements_8h.html" target="_top" xlink:title="/home/travis/build\l/LibrePCB/LibrePCB/libs\l/librepcblibrary/elements.h">
<polygon fill="white" stroke="black" points="141.5,-111.5 141.5,-158.5 272.5,-158.5 272.5,-111.5 141.5,-111.5"/>
<text text-anchor="start" x="149.5" y="-145.5" font-family="Helvetica,sans-Serif" font-size="10.00">/home/travis/build</text>
<text text-anchor="start" x="149.5" y="-132.5" font-family="Helvetica,sans-Serif" font-size="10.00">/LibrePCB/LibrePCB/libs</text>
<text text-anchor="middle" x="207" y="-119.5" font-family="Helvetica,sans-Serif" font-size="10.00">/librepcblibrary/elements.h</text>
</a>
</g>
<!-- Node2&#45;&gt;Node3 -->
<g id="edge4" class="edge"><title>Node2&#45;&gt;Node3</title>
<path fill="none" stroke="midnightblue" d="M1680.92,-236.52C1392.97,-226.642 349.292,-189.769 281,-172 269.323,-168.962 257.342,-163.934 246.514,-158.549"/>
<polygon fill="midnightblue" stroke="midnightblue" points="1681.13,-240.03 1691.24,-236.874 1681.37,-233.034 1681.13,-240.03"/>
</g>
<!-- Node2&#45;&gt;Node5 -->
<g id="edge8" class="edge"><title>Node2&#45;&gt;Node5</title>
<path fill="none" stroke="midnightblue" d="M1680.86,-236.41C1369.79,-225.342 170.881,-182.112 133,-172 126.42,-170.243 119.757,-167.804 113.285,-165.007"/>
<polygon fill="midnightblue" stroke="midnightblue" points="1680.99,-239.917 1691.11,-236.775 1681.24,-232.922 1680.99,-239.917"/>
</g>
<!-- Node6 -->
<g id="node11" class="node"><title>Node6</title>
<a xlink:href="../../df/d80/gencompsymbvar_8cpp.html" target="_top" xlink:title="/home/travis/build\l/LibrePCB/LibrePCB/libs\l/librepcblibrary/gencmp\l/gencompsymbvar.cpp">
<polygon fill="white" stroke="black" points="289.5,-105 289.5,-165 414.5,-165 414.5,-105 289.5,-105"/>
<text text-anchor="start" x="297.5" y="-152" font-family="Helvetica,sans-Serif" font-size="10.00">/home/travis/build</text>
<text text-anchor="start" x="297.5" y="-139" font-family="Helvetica,sans-Serif" font-size="10.00">/LibrePCB/LibrePCB/libs</text>
<text text-anchor="start" x="297.5" y="-126" font-family="Helvetica,sans-Serif" font-size="10.00">/librepcblibrary/gencmp</text>
<text text-anchor="middle" x="352" y="-113" font-family="Helvetica,sans-Serif" font-size="10.00">/gencompsymbvar.cpp</text>
</a>
</g>
<!-- Node2&#45;&gt;Node6 -->
<g id="edge10" class="edge"><title>Node2&#45;&gt;Node6</title>
<path fill="none" stroke="midnightblue" d="M1681.31,-236.202C1412.08,-225.728 484.033,-188.586 423,-172 416.562,-170.25 410.042,-167.856 403.697,-165.12"/>
<polygon fill="midnightblue" stroke="midnightblue" points="1681.24,-239.702 1691.36,-236.593 1681.51,-232.707 1681.24,-239.702"/>
</g>
<!-- Node7 -->
<g id="node13" class="node"><title>Node7</title>
<a xlink:href="../../dd/d8b/gencompsymbvaritem_8cpp.html" target="_top" xlink:title="/home/travis/build\l/LibrePCB/LibrePCB/libs\l/librepcblibrary/gencmp\l/gencompsymbvaritem.cpp">
<polygon fill="white" stroke="black" points="432,-105 432,-165 566,-165 566,-105 432,-105"/>
<text text-anchor="start" x="440" y="-152" font-family="Helvetica,sans-Serif" font-size="10.00">/home/travis/build</text>
<text text-anchor="start" x="440" y="-139" font-family="Helvetica,sans-Serif" font-size="10.00">/LibrePCB/LibrePCB/libs</text>
<text text-anchor="start" x="440" y="-126" font-family="Helvetica,sans-Serif" font-size="10.00">/librepcblibrary/gencmp</text>
<text text-anchor="middle" x="499" y="-113" font-family="Helvetica,sans-Serif" font-size="10.00">/gencompsymbvaritem.cpp</text>
</a>
</g>
<!-- Node2&#45;&gt;Node7 -->
<g id="edge12" class="edge"><title>Node2&#45;&gt;Node7</title>
<path fill="none" stroke="midnightblue" d="M1681.29,-236.537C1441.01,-228.168 681.654,-199.792 575,-172 568.184,-170.224 561.252,-167.813 554.487,-165.068"/>
<polygon fill="midnightblue" stroke="midnightblue" points="1681.2,-240.036 1691.32,-236.886 1681.45,-233.041 1681.2,-240.036"/>
</g>
<!-- Node8 -->
<g id="node15" class="node"><title>Node8</title>
<a xlink:href="../../d3/d7f/genericcomponent_8cpp.html" target="_top" xlink:title="/home/travis/build\l/LibrePCB/LibrePCB/libs\l/librepcblibrary/gencmp\l/genericcomponent.cpp">
<polygon fill="white" stroke="black" points="583.5,-105 583.5,-165 708.5,-165 708.5,-105 583.5,-105"/>
<text text-anchor="start" x="591.5" y="-152" font-family="Helvetica,sans-Serif" font-size="10.00">/home/travis/build</text>
<text text-anchor="start" x="591.5" y="-139" font-family="Helvetica,sans-Serif" font-size="10.00">/LibrePCB/LibrePCB/libs</text>
<text text-anchor="start" x="591.5" y="-126" font-family="Helvetica,sans-Serif" font-size="10.00">/librepcblibrary/gencmp</text>
<text text-anchor="middle" x="646" y="-113" font-family="Helvetica,sans-Serif" font-size="10.00">/genericcomponent.cpp</text>
</a>
</g>
<!-- Node2&#45;&gt;Node8 -->
<g id="edge14" class="edge"><title>Node2&#45;&gt;Node8</title>
<path fill="none" stroke="midnightblue" d="M1681.34,-238.199C1476.73,-235.326 898.87,-222.817 717,-172 710.574,-170.205 704.062,-167.782 697.722,-165.03"/>
<polygon fill="midnightblue" stroke="midnightblue" points="1681.33,-241.699 1691.38,-238.336 1681.42,-234.699 1681.33,-241.699"/>
</g>
<!-- Node9 -->
<g id="node17" class="node"><title>Node9</title>
<a xlink:href="../../d7/d7d/library_8cpp.html" target="_top" xlink:title="/home/travis/build\l/LibrePCB/LibrePCB/libs\l/librepcblibrary/library.cpp">
<polygon fill="white" stroke="black" points="726,-111.5 726,-158.5 854,-158.5 854,-111.5 726,-111.5"/>
<text text-anchor="start" x="734" y="-145.5" font-family="Helvetica,sans-Serif" font-size="10.00">/home/travis/build</text>
<text text-anchor="start" x="734" y="-132.5" font-family="Helvetica,sans-Serif" font-size="10.00">/LibrePCB/LibrePCB/libs</text>
<text text-anchor="middle" x="790" y="-119.5" font-family="Helvetica,sans-Serif" font-size="10.00">/librepcblibrary/library.cpp</text>
</a>
</g>
<!-- Node2&#45;&gt;Node9 -->
<g id="edge16" class="edge"><title>Node2&#45;&gt;Node9</title>
<path fill="none" stroke="midnightblue" d="M1681.23,-237.198C1497.1,-232.051 1016.43,-214.807 863,-172 851.641,-168.831 839.974,-163.827 829.392,-158.512"/>
<polygon fill="midnightblue" stroke="midnightblue" points="1681.26,-240.7 1691.35,-237.477 1681.45,-233.702 1681.26,-240.7"/>
</g>
<!-- Node10 -->
<g id="node19" class="node"><title>Node10</title>
<a xlink:href="../../d9/ded/symbolpinpreviewgraphicsitem_8cpp.html" target="_top" xlink:title="/home/travis/build\l/LibrePCB/LibrePCB/libs\l/librepcblibrary/sym/symbolpinpreviewgraphicsitem.cpp">
<polygon fill="white" stroke="black" points="871.5,-111.5 871.5,-158.5 1128.5,-158.5 1128.5,-111.5 871.5,-111.5"/>
<text text-anchor="start" x="879.5" y="-145.5" font-family="Helvetica,sans-Serif" font-size="10.00">/home/travis/build</text>
<text text-anchor="start" x="879.5" y="-132.5" font-family="Helvetica,sans-Serif" font-size="10.00">/LibrePCB/LibrePCB/libs</text>
<text text-anchor="middle" x="1000" y="-119.5" font-family="Helvetica,sans-Serif" font-size="10.00">/librepcblibrary/sym/symbolpinpreviewgraphicsitem.cpp</text>
</a>
</g>
<!-- Node2&#45;&gt;Node10 -->
<g id="edge18" class="edge"><title>Node2&#45;&gt;Node10</title>
<path fill="none" stroke="midnightblue" d="M1681.17,-234.774C1565.21,-227.222 1331.78,-208.648 1137,-172 1117.99,-168.424 1097.76,-163.562 1078.84,-158.539"/>
<polygon fill="midnightblue" stroke="midnightblue" points="1681.14,-238.28 1691.35,-235.428 1681.59,-231.294 1681.14,-238.28"/>
</g>
<!-- Node11 -->
<g id="node21" class="node"><title>Node11</title>
<a xlink:href="../../d0/d05/symbolpreviewgraphicsitem_8cpp.html" target="_top" xlink:title="/home/travis/build\l/LibrePCB/LibrePCB/libs\l/librepcblibrary/sym/symbolpreviewgraphicsitem.cpp">
<polygon fill="white" stroke="black" points="1146,-111.5 1146,-158.5 1390,-158.5 1390,-111.5 1146,-111.5"/>
<text text-anchor="start" x="1154" y="-145.5" font-family="Helvetica,sans-Serif" font-size="10.00">/home/travis/build</text>
<text text-anchor="start" x="1154" y="-132.5" font-family="Helvetica,sans-Serif" font-size="10.00">/LibrePCB/LibrePCB/libs</text>
<text text-anchor="middle" x="1268" y="-119.5" font-family="Helvetica,sans-Serif" font-size="10.00">/librepcblibrary/sym/symbolpreviewgraphicsitem.cpp</text>
</a>
</g>
<!-- Node2&#45;&gt;Node11 -->
<g id="edge20" class="edge"><title>Node2&#45;&gt;Node11</title>
<path fill="none" stroke="midnightblue" d="M1681.56,-227.267C1609.54,-215.146 1496.09,-194.826 1399,-172 1382.09,-168.025 1364.09,-163.282 1347.02,-158.541"/>
<polygon fill="midnightblue" stroke="midnightblue" points="1681,-230.722 1691.44,-228.922 1682.16,-223.818 1681,-230.722"/>
</g>
<!-- Node12 -->
<g id="node23" class="node"><title>Node12</title>
<a xlink:href="../../df/d6e/board_8cpp.html" target="_top" xlink:title="/home/travis/build\l/LibrePCB/LibrePCB/libs\l/librepcbproject/boards\l/board.cpp">
<polygon fill="white" stroke="black" points="1407.5,-105 1407.5,-165 1532.5,-165 1532.5,-105 1407.5,-105"/>
<text text-anchor="start" x="1415.5" y="-152" font-family="Helvetica,sans-Serif" font-size="10.00">/home/travis/build</text>
<text text-anchor="start" x="1415.5" y="-139" font-family="Helvetica,sans-Serif" font-size="10.00">/LibrePCB/LibrePCB/libs</text>
<text text-anchor="start" x="1415.5" y="-126" font-family="Helvetica,sans-Serif" font-size="10.00">/librepcbproject/boards</text>
<text text-anchor="middle" x="1470" y="-113" font-family="Helvetica,sans-Serif" font-size="10.00">/board.cpp</text>
</a>
</g>
<!-- Node2&#45;&gt;Node12 -->
<g id="edge22" class="edge"><title>Node2&#45;&gt;Node12</title>
<path fill="none" stroke="midnightblue" d="M1681.65,-219.669C1639.89,-207.67 1586.76,-190.947 1541,-172 1535.86,-169.873 1530.6,-167.507 1525.37,-165.029"/>
<polygon fill="midnightblue" stroke="midnightblue" points="1680.88,-223.091 1691.46,-222.463 1682.8,-216.358 1680.88,-223.091"/>
</g>
<!-- Node13 -->
<g id="node25" class="node"><title>Node13</title>
<a xlink:href="../../d6/d55/componentinstance_8cpp.html" target="_top" xlink:title="/home/travis/build\l/LibrePCB/LibrePCB/libs\l/librepcbproject/boards\l/componentinstance.cpp">
<polygon fill="white" stroke="black" points="1549.5,-105 1549.5,-165 1674.5,-165 1674.5,-105 1549.5,-105"/>
<text text-anchor="start" x="1557.5" y="-152" font-family="Helvetica,sans-Serif" font-size="10.00">/home/travis/build</text>
<text text-anchor="start" x="1557.5" y="-139" font-family="Helvetica,sans-Serif" font-size="10.00">/LibrePCB/LibrePCB/libs</text>
<text text-anchor="start" x="1557.5" y="-126" font-family="Helvetica,sans-Serif" font-size="10.00">/librepcbproject/boards</text>
<text text-anchor="middle" x="1612" y="-113" font-family="Helvetica,sans-Serif" font-size="10.00">/componentinstance.cpp</text>
</a>
</g>
<!-- Node2&#45;&gt;Node13 -->
<g id="edge24" class="edge"><title>Node2&#45;&gt;Node13</title>
<path fill="none" stroke="midnightblue" d="M1704.79,-202.962C1687.89,-190.582 1669.16,-176.864 1652.98,-165.014"/>
<polygon fill="midnightblue" stroke="midnightblue" points="1702.79,-205.834 1712.93,-208.919 1706.93,-200.186 1702.79,-205.834"/>
</g>
<!-- Node14 -->
<g id="node27" class="node"><title>Node14</title>
<a xlink:href="../../d4/d6f/circuit_8cpp.html" target="_top" xlink:title="/home/travis/build\l/LibrePCB/LibrePCB/libs\l/librepcbproject/circuit\l/circuit.cpp">
<polygon fill="white" stroke="black" points="1691.5,-105 1691.5,-165 1816.5,-165 1816.5,-105 1691.5,-105"/>
<text text-anchor="start" x="1699.5" y="-152" font-family="Helvetica,sans-Serif" font-size="10.00">/home/travis/build</text>
<text text-anchor="start" x="1699.5" y="-139" font-family="Helvetica,sans-Serif" font-size="10.00">/LibrePCB/LibrePCB/libs</text>
<text text-anchor="start" x="1699.5" y="-126" font-family="Helvetica,sans-Serif" font-size="10.00">/librepcbproject/circuit</text>
<text text-anchor="middle" x="1754" y="-113" font-family="Helvetica,sans-Serif" font-size="10.00">/circuit.cpp</text>
</a>
</g>
<!-- Node2&#45;&gt;Node14 -->
<g id="edge26" class="edge"><title>Node2&#45;&gt;Node14</title>
<path fill="none" stroke="midnightblue" d="M1754,-198.867C1754,-187.611 1754,-175.571 1754,-165.014"/>
<polygon fill="midnightblue" stroke="midnightblue" points="1750.5,-198.919 1754,-208.919 1757.5,-198.919 1750.5,-198.919"/>
</g>
<!-- Node15 -->
<g id="node29" class="node"><title>Node15</title>
<a xlink:href="../../de/de8/gencompinstance_8cpp.html" target="_top" xlink:title="/home/travis/build\l/LibrePCB/LibrePCB/libs\l/librepcbproject/circuit\l/gencompinstance.cpp">
<polygon fill="white" stroke="black" points="1833.5,-105 1833.5,-165 1958.5,-165 1958.5,-105 1833.5,-105"/>
<text text-anchor="start" x="1841.5" y="-152" font-family="Helvetica,sans-Serif" font-size="10.00">/home/travis/build</text>
<text text-anchor="start" x="1841.5" y="-139" font-family="Helvetica,sans-Serif" font-size="10.00">/LibrePCB/LibrePCB/libs</text>
<text text-anchor="start" x="1841.5" y="-126" font-family="Helvetica,sans-Serif" font-size="10.00">/librepcbproject/circuit</text>
<text text-anchor="middle" x="1896" y="-113" font-family="Helvetica,sans-Serif" font-size="10.00">/gencompinstance.cpp</text>
</a>
</g>
<!-- Node2&#45;&gt;Node15 -->
<g id="edge28" class="edge"><title>Node2&#45;&gt;Node15</title>
<path fill="none" stroke="midnightblue" d="M1803.21,-202.962C1820.11,-190.582 1838.84,-176.864 1855.02,-165.014"/>
<polygon fill="midnightblue" stroke="midnightblue" points="1801.07,-200.186 1795.07,-208.919 1805.21,-205.834 1801.07,-200.186"/>
</g>
<!-- Node16 -->
<g id="node31" class="node"><title>Node16</title>
<a xlink:href="../../d2/d38/gencompsignalinstance_8cpp.html" target="_top" xlink:title="/home/travis/build\l/LibrePCB/LibrePCB/libs\l/librepcbproject/circuit\l/gencompsignalinstance.cpp">
<polygon fill="white" stroke="black" points="1976,-105 1976,-165 2116,-165 2116,-105 1976,-105"/>
<text text-anchor="start" x="1984" y="-152" font-family="Helvetica,sans-Serif" font-size="10.00">/home/travis/build</text>
<text text-anchor="start" x="1984" y="-139" font-family="Helvetica,sans-Serif" font-size="10.00">/LibrePCB/LibrePCB/libs</text>
<text text-anchor="start" x="1984" y="-126" font-family="Helvetica,sans-Serif" font-size="10.00">/librepcbproject/circuit</text>
<text text-anchor="middle" x="2046" y="-113" font-family="Helvetica,sans-Serif" font-size="10.00">/gencompsignalinstance.cpp</text>
</a>
</g>
<!-- Node2&#45;&gt;Node16 -->
<g id="edge30" class="edge"><title>Node2&#45;&gt;Node16</title>
<path fill="none" stroke="midnightblue" d="M1826.51,-218.803C1868.1,-206.573 1921.02,-189.908 1967,-172 1972.5,-169.856 1978.16,-167.507 1983.81,-165.065"/>
<polygon fill="midnightblue" stroke="midnightblue" points="1825.36,-215.494 1816.74,-221.657 1827.32,-222.213 1825.36,-215.494"/>
</g>
<!-- Node17 -->
<g id="node33" class="node"><title>Node17</title>
<a xlink:href="../../d4/d20/projectlibrary_8cpp.html" target="_top" xlink:title="/home/travis/build\l/LibrePCB/LibrePCB/libs\l/librepcbproject/library\l/projectlibrary.cpp">
<polygon fill="white" stroke="black" points="2133.5,-105 2133.5,-165 2258.5,-165 2258.5,-105 2133.5,-105"/>
<text text-anchor="start" x="2141.5" y="-152" font-family="Helvetica,sans-Serif" font-size="10.00">/home/travis/build</text>
<text text-anchor="start" x="2141.5" y="-139" font-family="Helvetica,sans-Serif" font-size="10.00">/LibrePCB/LibrePCB/libs</text>
<text text-anchor="start" x="2141.5" y="-126" font-family="Helvetica,sans-Serif" font-size="10.00">/librepcbproject/library</text>
<text text-anchor="middle" x="2196" y="-113" font-family="Helvetica,sans-Serif" font-size="10.00">/projectlibrary.cpp</text>
</a>
</g>
<!-- Node2&#45;&gt;Node17 -->
<g id="edge32" class="edge"><title>Node2&#45;&gt;Node17</title>
<path fill="none" stroke="midnightblue" d="M1826.78,-232.409C1902.79,-224.023 2024.69,-206.308 2125,-172 2130.79,-170.021 2136.68,-167.629 2142.48,-165.025"/>
<polygon fill="midnightblue" stroke="midnightblue" points="1826.39,-228.93 1816.83,-233.483 1827.14,-235.89 1826.39,-228.93"/>
</g>
<!-- Node18 -->
<g id="node35" class="node"><title>Node18</title>
<a xlink:href="../../de/dd8/sgi__symbol_8cpp.html" target="_top" xlink:title="/home/travis/build\l/LibrePCB/LibrePCB/libs\l/librepcbproject/schematics\l/graphicsitems/sgi_symbol.cpp">
<polygon fill="white" stroke="black" points="2276,-105 2276,-165 2428,-165 2428,-105 2276,-105"/>
<text text-anchor="start" x="2284" y="-152" font-family="Helvetica,sans-Serif" font-size="10.00">/home/travis/build</text>
<text text-anchor="start" x="2284" y="-139" font-family="Helvetica,sans-Serif" font-size="10.00">/LibrePCB/LibrePCB/libs</text>
<text text-anchor="start" x="2284" y="-126" font-family="Helvetica,sans-Serif" font-size="10.00">/librepcbproject/schematics</text>
<text text-anchor="middle" x="2352" y="-113" font-family="Helvetica,sans-Serif" font-size="10.00">/graphicsitems/sgi_symbol.cpp</text>
</a>
</g>
<!-- Node2&#45;&gt;Node18 -->
<g id="edge34" class="edge"><title>Node2&#45;&gt;Node18</title>
<path fill="none" stroke="midnightblue" d="M1826.77,-235.913C1927.37,-230.207 2113.86,-214.419 2267,-172 2273.98,-170.067 2281.13,-167.67 2288.18,-165.032"/>
<polygon fill="midnightblue" stroke="midnightblue" points="1826.5,-232.422 1816.71,-236.466 1826.89,-239.412 1826.5,-232.422"/>
</g>
<!-- Node19 -->
<g id="node37" class="node"><title>Node19</title>
<a xlink:href="../../d9/d24/sgi__symbolpin_8cpp.html" target="_top" xlink:title="/home/travis/build\l/LibrePCB/LibrePCB/libs\l/librepcbproject/schematics\l/graphicsitems/sgi_symbolpin.cpp">
<polygon fill="white" stroke="black" points="2446,-105 2446,-165 2610,-165 2610,-105 2446,-105"/>
<text text-anchor="start" x="2454" y="-152" font-family="Helvetica,sans-Serif" font-size="10.00">/home/travis/build</text>
<text text-anchor="start" x="2454" y="-139" font-family="Helvetica,sans-Serif" font-size="10.00">/LibrePCB/LibrePCB/libs</text>
<text text-anchor="start" x="2454" y="-126" font-family="Helvetica,sans-Serif" font-size="10.00">/librepcbproject/schematics</text>
<text text-anchor="middle" x="2528" y="-113" font-family="Helvetica,sans-Serif" font-size="10.00">/graphicsitems/sgi_symbolpin.cpp</text>
</a>
</g>
<!-- Node2&#45;&gt;Node19 -->
<g id="edge36" class="edge"><title>Node2&#45;&gt;Node19</title>
<path fill="none" stroke="midnightblue" d="M1826.89,-234.514C1978.41,-224.754 2322.79,-200.188 2437,-172 2444.62,-170.12 2452.43,-167.721 2460.13,-165.05"/>
<polygon fill="midnightblue" stroke="midnightblue" points="1826.51,-231.031 1816.75,-235.163 1826.96,-238.017 1826.51,-231.031"/>
</g>
<!-- Node20 -->
<g id="node39" class="node"><title>Node20</title>
<a xlink:href="../../d0/da6/si__symbol_8cpp.html" target="_top" xlink:title="/home/travis/build\l/LibrePCB/LibrePCB/libs\l/librepcbproject/schematics\l/items/si_symbol.cpp">
<polygon fill="white" stroke="black" points="2628,-105 2628,-165 2764,-165 2764,-105 2628,-105"/>
<text text-anchor="start" x="2636" y="-152" font-family="Helvetica,sans-Serif" font-size="10.00">/home/travis/build</text>
<text text-anchor="start" x="2636" y="-139" font-family="Helvetica,sans-Serif" font-size="10.00">/LibrePCB/LibrePCB/libs</text>
<text text-anchor="start" x="2636" y="-126" font-family="Helvetica,sans-Serif" font-size="10.00">/librepcbproject/schematics</text>
<text text-anchor="middle" x="2696" y="-113" font-family="Helvetica,sans-Serif" font-size="10.00">/items/si_symbol.cpp</text>
</a>
</g>
<!-- Node2&#45;&gt;Node20 -->
<g id="edge38" class="edge"><title>Node2&#45;&gt;Node20</title>
<path fill="none" stroke="midnightblue" d="M1826.8,-236.813C2007.05,-230.847 2470.25,-211.99 2619,-172 2625.73,-170.19 2632.59,-167.798 2639.29,-165.098"/>
<polygon fill="midnightblue" stroke="midnightblue" points="1826.51,-233.321 1816.63,-237.146 1826.74,-240.317 1826.51,-233.321"/>
</g>
<!-- Node21 -->
<g id="node41" class="node"><title>Node21</title>
<a xlink:href="../../d5/d35/si__symbolpin_8cpp.html" target="_top" xlink:title="/home/travis/build\l/LibrePCB/LibrePCB/libs\l/librepcbproject/schematics\l/items/si_symbolpin.cpp">
<polygon fill="white" stroke="black" points="2782,-105 2782,-165 2918,-165 2918,-105 2782,-105"/>
<text text-anchor="start" x="2790" y="-152" font-family="Helvetica,sans-Serif" font-size="10.00">/home/travis/build</text>
<text text-anchor="start" x="2790" y="-139" font-family="Helvetica,sans-Serif" font-size="10.00">/LibrePCB/LibrePCB/libs</text>
<text text-anchor="start" x="2790" y="-126" font-family="Helvetica,sans-Serif" font-size="10.00">/librepcbproject/schematics</text>
<text text-anchor="middle" x="2850" y="-113" font-family="Helvetica,sans-Serif" font-size="10.00">/items/si_symbolpin.cpp</text>
</a>
</g>
<!-- Node2&#45;&gt;Node21 -->
<g id="edge40" class="edge"><title>Node2&#45;&gt;Node21</title>
<path fill="none" stroke="midnightblue" d="M1827.05,-237.798C2029.4,-233.899 2594.02,-218.999 2773,-172 2779.89,-170.192 2786.9,-167.761 2793.74,-165.004"/>
<polygon fill="midnightblue" stroke="midnightblue" points="1826.76,-234.303 1816.83,-237.992 1826.89,-241.302 1826.76,-234.303"/>
</g>
<!-- Node22 -->
<g id="node43" class="node"><title>Node22</title>
<a xlink:href="../../de/dd2/unplacedcomponentsdock_8cpp.html" target="_top" xlink:title="/home/travis/build\l/LibrePCB/LibrePCB/libs\l/librepcbprojecteditor\l/boardeditor/unplacedcomponentsdock.cpp">
<polygon fill="white" stroke="black" points="2935.5,-105 2935.5,-165 3138.5,-165 3138.5,-105 2935.5,-105"/>
<text text-anchor="start" x="2943.5" y="-152" font-family="Helvetica,sans-Serif" font-size="10.00">/home/travis/build</text>
<text text-anchor="start" x="2943.5" y="-139" font-family="Helvetica,sans-Serif" font-size="10.00">/LibrePCB/LibrePCB/libs</text>
<text text-anchor="start" x="2943.5" y="-126" font-family="Helvetica,sans-Serif" font-size="10.00">/librepcbprojecteditor</text>
<text text-anchor="middle" x="3037" y="-113" font-family="Helvetica,sans-Serif" font-size="10.00">/boardeditor/unplacedcomponentsdock.cpp</text>
</a>
</g>
<!-- Node2&#45;&gt;Node22 -->
<g id="edge42" class="edge"><title>Node2&#45;&gt;Node22</title>
<path fill="none" stroke="midnightblue" d="M1826.81,-237.386C2048.76,-232.065 2714.57,-213.023 2927,-172 2936.4,-170.185 2946.09,-167.77 2955.66,-165.04"/>
<polygon fill="midnightblue" stroke="midnightblue" points="1826.5,-233.892 1816.58,-237.629 1826.66,-240.89 1826.5,-233.892"/>
</g>
<!-- Node23 -->
<g id="node45" class="node"><title>Node23</title>
<a xlink:href="../../da/d64/addgencompdialog_8cpp.html" target="_top" xlink:title="/home/travis/build\l/LibrePCB/LibrePCB/libs\l/librepcbprojecteditor\l/dialogs/addgencompdialog.cpp">
<polygon fill="white" stroke="black" points="3155.5,-105 3155.5,-165 3308.5,-165 3308.5,-105 3155.5,-105"/>
<text text-anchor="start" x="3163.5" y="-152" font-family="Helvetica,sans-Serif" font-size="10.00">/home/travis/build</text>
<text text-anchor="start" x="3163.5" y="-139" font-family="Helvetica,sans-Serif" font-size="10.00">/LibrePCB/LibrePCB/libs</text>
<text text-anchor="start" x="3163.5" y="-126" font-family="Helvetica,sans-Serif" font-size="10.00">/librepcbprojecteditor</text>
<text text-anchor="middle" x="3232" y="-113" font-family="Helvetica,sans-Serif" font-size="10.00">/dialogs/addgencompdialog.cpp</text>
</a>
</g>
<!-- Node2&#45;&gt;Node23 -->
<g id="edge44" class="edge"><title>Node2&#45;&gt;Node23</title>
<path fill="none" stroke="midnightblue" d="M1826.84,-237.037C2094.98,-229.601 3018.24,-202.055 3147,-172 3154.52,-170.244 3162.21,-167.846 3169.74,-165.108"/>
<polygon fill="midnightblue" stroke="midnightblue" points="1826.72,-233.539 1816.82,-237.314 1826.92,-240.537 1826.72,-233.539"/>
</g>
<!-- Node24 -->
<g id="node47" class="node"><title>Node24</title>
<a xlink:href="../../d8/df2/ses__addcomponents_8cpp.html" target="_top" xlink:title="/home/travis/build\l/LibrePCB/LibrePCB/libs\l/librepcbprojecteditor\l/schematiceditor/fsm/ses\l_addcomponents.cpp">
<polygon fill="white" stroke="black" points="3325.5,-98.5 3325.5,-171.5 3452.5,-171.5 3452.5,-98.5 3325.5,-98.5"/>
<text text-anchor="start" x="3333.5" y="-158.5" font-family="Helvetica,sans-Serif" font-size="10.00">/home/travis/build</text>
<text text-anchor="start" x="3333.5" y="-145.5" font-family="Helvetica,sans-Serif" font-size="10.00">/LibrePCB/LibrePCB/libs</text>
<text text-anchor="start" x="3333.5" y="-132.5" font-family="Helvetica,sans-Serif" font-size="10.00">/librepcbprojecteditor</text>
<text text-anchor="start" x="3333.5" y="-119.5" font-family="Helvetica,sans-Serif" font-size="10.00">/schematiceditor/fsm/ses</text>
<text text-anchor="middle" x="3389" y="-106.5" font-family="Helvetica,sans-Serif" font-size="10.00">_addcomponents.cpp</text>
</a>
</g>
<!-- Node2&#45;&gt;Node24 -->
<g id="edge46" class="edge"><title>Node2&#45;&gt;Node24</title>
<path fill="none" stroke="midnightblue" d="M1826.9,-237.713C2115.87,-232.362 3172.17,-210.338 3317,-172 3319.72,-171.281 3322.45,-170.448 3325.18,-169.524"/>
<polygon fill="midnightblue" stroke="midnightblue" points="1826.48,-234.22 1816.54,-237.904 1826.6,-241.219 1826.48,-234.22"/>
</g>
<!-- Node25 -->
<g id="node49" class="node"><title>Node25</title>
<a xlink:href="../../da/d89/symbolinstancepropertiesdialog_8cpp.html" target="_top" xlink:title="/home/travis/build\l/LibrePCB/LibrePCB/libs\l/librepcbprojecteditor\l/schematiceditor/symbolinstancepropertiesdialog.cpp">
<polygon fill="white" stroke="black" points="3469.5,-105 3469.5,-165 3716.5,-165 3716.5,-105 3469.5,-105"/>
<text text-anchor="start" x="3477.5" y="-152" font-family="Helvetica,sans-Serif" font-size="10.00">/home/travis/build</text>
<text text-anchor="start" x="3477.5" y="-139" font-family="Helvetica,sans-Serif" font-size="10.00">/LibrePCB/LibrePCB/libs</text>
<text text-anchor="start" x="3477.5" y="-126" font-family="Helvetica,sans-Serif" font-size="10.00">/librepcbprojecteditor</text>
<text text-anchor="middle" x="3593" y="-113" font-family="Helvetica,sans-Serif" font-size="10.00">/schematiceditor/symbolinstancepropertiesdialog.cpp</text>
</a>
</g>
<!-- Node2&#45;&gt;Node25 -->
<g id="edge48" class="edge"><title>Node2&#45;&gt;Node25</title>
<path fill="none" stroke="midnightblue" d="M1827.01,-238.406C2110.57,-235.75 3138.87,-222.75 3461,-172 3472.28,-170.222 3483.98,-167.81 3495.53,-165.064"/>
<polygon fill="midnightblue" stroke="midnightblue" points="1826.81,-234.908 1816.85,-238.5 1826.88,-241.908 1826.81,-234.908"/>
</g>
<!-- Node4 -->
<g id="node7" class="node"><title>Node4</title>
<a xlink:href="../../da/d6c/cmdprojectlibraryaddelement_8cpp.html" target="_top" xlink:title="/home/travis/build\l/LibrePCB/LibrePCB/libs\l/librepcbproject/library\l/cmd/cmdprojectlibraryaddelement.cpp">
<polygon fill="white" stroke="black" points="114.5,-1 114.5,-61 299.5,-61 299.5,-1 114.5,-1"/>
<text text-anchor="start" x="122.5" y="-48" font-family="Helvetica,sans-Serif" font-size="10.00">/home/travis/build</text>
<text text-anchor="start" x="122.5" y="-35" font-family="Helvetica,sans-Serif" font-size="10.00">/LibrePCB/LibrePCB/libs</text>
<text text-anchor="start" x="122.5" y="-22" font-family="Helvetica,sans-Serif" font-size="10.00">/librepcbproject/library</text>
<text text-anchor="middle" x="207" y="-9" font-family="Helvetica,sans-Serif" font-size="10.00">/cmd/cmdprojectlibraryaddelement.cpp</text>
</a>
</g>
<!-- Node3&#45;&gt;Node4 -->
<g id="edge6" class="edge"><title>Node3&#45;&gt;Node4</title>
<path fill="none" stroke="midnightblue" d="M207,-101.088C207,-88.2422 207,-73.7143 207,-61.2295"/>
<polygon fill="midnightblue" stroke="midnightblue" points="203.5,-101.401 207,-111.401 210.5,-101.401 203.5,-101.401"/>
</g>
</g>
</svg>
