<?xml version="1.0" encoding="UTF-8" standalone="no"?>
<!DOCTYPE svg PUBLIC "-//W3C//DTD SVG 1.1//EN"
 "http://www.w3.org/Graphics/SVG/1.1/DTD/svg11.dtd">
<!-- Generated by graphviz version 2.26.3 (20100126.1600)
 -->
<!-- Title: shape Pages: 1 -->
<svg width="550pt" height="153pt"
 viewBox="0.00 0.00 550.00 153.00" xmlns="http://www.w3.org/2000/svg" xmlns:xlink="http://www.w3.org/1999/xlink">
<g id="graph1" class="graph" transform="scale(1 1) rotate(0) translate(4 149)">
<title>shape</title>
<polygon fill="white" stroke="white" points="-4,5 -4,-149 547,-149 547,5 -4,5"/>
<!-- Node1 -->
<g id="node1" class="node"><title>Node1</title>
<polygon fill="#bfbfbf" stroke="black" points="0.5,-65.5 0.5,-86.5 43.5,-86.5 43.5,-65.5 0.5,-65.5"/>
<text text-anchor="middle" x="22" y="-73.5" font-family="Helvetica,sans-Serif" font-size="10.00">shape</text>
</g>
<!-- Node2 -->
<g id="node3" class="node"><title>Node2</title>
<a xlink:href="../../d3/d7c/classproject_1_1_s_i___net_line.html#af90fb11b274fda88ef94e9f685a6ab35" target="_top" xlink:title="project::SI_NetLine\l::getGrabAreaScenePx">
<polygon fill="white" stroke="black" points="80.5,-59 80.5,-93 197.5,-93 197.5,-59 80.5,-59"/>
<text text-anchor="start" x="88.5" y="-80" font-family="Helvetica,sans-Serif" font-size="10.00">project::SI_NetLine</text>
<text text-anchor="middle" x="139" y="-67" font-family="Helvetica,sans-Serif" font-size="10.00">::getGrabAreaScenePx</text>
</a>
</g>
<!-- Node1&#45;&gt;Node2 -->
<g id="edge2" class="edge"><title>Node1&#45;&gt;Node2</title>
<path fill="none" stroke="midnightblue" d="M53.9346,-76C62.1393,-76 71.2291,-76 80.3246,-76"/>
<polygon fill="midnightblue" stroke="midnightblue" points="53.7326,-72.5001 43.7326,-76 53.7326,-79.5001 53.7326,-72.5001"/>
</g>
<!-- Node3 -->
<g id="node5" class="node"><title>Node3</title>
<a xlink:href="../../dd/d2d/classproject_1_1_schematic.html#ac6709a9f69bbe2647444abaccbc8403e" target="_top" xlink:title="project::Schematic\l::getItemsAtScenePos">
<polygon fill="white" stroke="black" points="241,-111 241,-145 357,-145 357,-111 241,-111"/>
<text text-anchor="start" x="249" y="-132" font-family="Helvetica,sans-Serif" font-size="10.00">project::Schematic</text>
<text text-anchor="middle" x="299" y="-119" font-family="Helvetica,sans-Serif" font-size="10.00">::getItemsAtScenePos</text>
</a>
</g>
<!-- Node2&#45;&gt;Node3 -->
<g id="edge4" class="edge"><title>Node2&#45;&gt;Node3</title>
<path fill="none" stroke="midnightblue" d="M201.096,-96.1812C216.096,-101.056 231.981,-106.219 246.492,-110.935"/>
<polygon fill="midnightblue" stroke="midnightblue" points="201.982,-92.7891 191.39,-93.0267 199.819,-99.4463 201.982,-92.7891"/>
</g>
<!-- Node4 -->
<g id="node7" class="node"><title>Node4</title>
<a xlink:href="../../dd/d2d/classproject_1_1_schematic.html#a7ffa29df38b08b1c0696f9e51f977508" target="_top" xlink:title="project::Schematic\l::getNetLinesAtScenePos">
<polygon fill="white" stroke="black" points="234,-59 234,-93 364,-93 364,-59 234,-59"/>
<text text-anchor="start" x="242" y="-80" font-family="Helvetica,sans-Serif" font-size="10.00">project::Schematic</text>
<text text-anchor="middle" x="299" y="-67" font-family="Helvetica,sans-Serif" font-size="10.00">::getNetLinesAtScenePos</text>
</a>
</g>
<!-- Node2&#45;&gt;Node4 -->
<g id="edge6" class="edge"><title>Node2&#45;&gt;Node4</title>
<path fill="none" stroke="midnightblue" d="M207.736,-76C216.402,-76 225.248,-76 233.857,-76"/>
<polygon fill="midnightblue" stroke="midnightblue" points="207.67,-72.5001 197.67,-76 207.67,-79.5001 207.67,-72.5001"/>
</g>
<!-- Node5 -->
<g id="node9" class="node"><title>Node5</title>
<a xlink:href="../../dd/d2d/classproject_1_1_schematic.html#a1e81bd3e07987e2b02f760b3d6d75c21" target="_top" xlink:title="project::Schematic\l::setSelectionRect">
<polygon fill="white" stroke="black" points="250,-7 250,-41 348,-41 348,-7 250,-7"/>
<text text-anchor="start" x="258" y="-28" font-family="Helvetica,sans-Serif" font-size="10.00">project::Schematic</text>
<text text-anchor="middle" x="299" y="-15" font-family="Helvetica,sans-Serif" font-size="10.00">::setSelectionRect</text>
</a>
</g>
<!-- Node2&#45;&gt;Node5 -->
<g id="edge8" class="edge"><title>Node2&#45;&gt;Node5</title>
<path fill="none" stroke="midnightblue" d="M201.251,-55.7685C217.337,-50.5406 234.431,-44.985 249.751,-40.0061"/>
<polygon fill="midnightblue" stroke="midnightblue" points="199.819,-52.5537 191.39,-58.9733 201.982,-59.2109 199.819,-52.5537"/>
</g>
<!-- Node6 -->
<g id="node11" class="node"><title>Node6</title>
<a xlink:href="../../d8/d8b/classproject_1_1_s_e_s___select.html#ae7b1d9775f8e164e825c0cdecf27eff5" target="_top" xlink:title="project::SES_Select\l::processSubStateIdleScene\lEvent">
<polygon fill="white" stroke="black" points="400.5,-0.5 400.5,-47.5 541.5,-47.5 541.5,-0.5 400.5,-0.5"/>
<text text-anchor="start" x="408.5" y="-34.5" font-family="Helvetica,sans-Serif" font-size="10.00">project::SES_Select</text>
<text text-anchor="start" x="408.5" y="-21.5" font-family="Helvetica,sans-Serif" font-size="10.00">::processSubStateIdleScene</text>
<text text-anchor="middle" x="471" y="-8.5" font-family="Helvetica,sans-Serif" font-size="10.00">Event</text>
</a>
</g>
<!-- Node5&#45;&gt;Node6 -->
<g id="edge10" class="edge"><title>Node5&#45;&gt;Node6</title>
<path fill="none" stroke="midnightblue" d="M358.388,-24C371.874,-24 386.329,-24 400.235,-24"/>
<polygon fill="midnightblue" stroke="midnightblue" points="358.288,-20.5001 348.288,-24 358.288,-27.5001 358.288,-20.5001"/>
</g>
</g>
</svg>
