<?xml version="1.0" encoding="UTF-8" standalone="no"?>
<!DOCTYPE svg PUBLIC "-//W3C//DTD SVG 1.1//EN"
 "http://www.w3.org/Graphics/SVG/1.1/DTD/svg11.dtd">
<!-- Generated by graphviz version 2.26.3 (20100126.1600)
 -->
<!-- Title: SGI_Base Pages: 1 -->
<svg width="780pt" height="560pt"
 viewBox="0.00 0.00 780.00 560.00" xmlns="http://www.w3.org/2000/svg" xmlns:xlink="http://www.w3.org/1999/xlink">
<g id="graph1" class="graph" transform="scale(1 1) rotate(0) translate(4 556)">
<title>SGI_Base</title>
<polygon fill="white" stroke="white" points="-4,5 -4,-556 777,-556 777,5 -4,5"/>
<!-- Node1 -->
<g id="node1" class="node"><title>Node1</title>
<polygon fill="#bfbfbf" stroke="black" points="344.5,-335 344.5,-437 427.5,-437 427.5,-335 344.5,-335"/>
<text text-anchor="middle" x="386" y="-424" font-family="Helvetica,sans-Serif" font-size="10.00">SGI_Base</text>
<polyline fill="none" stroke="black" points="344.5,-416 427.5,-416 "/>
<text text-anchor="middle" x="386" y="-403" font-family="Helvetica,sans-Serif" font-size="10.00"> </text>
<polyline fill="none" stroke="black" points="344.5,-395 427.5,-395 "/>
<text text-anchor="start" x="352.5" y="-382" font-family="Helvetica,sans-Serif" font-size="10.00">+ SGI_Base()</text>
<text text-anchor="start" x="352.5" y="-369" font-family="Helvetica,sans-Serif" font-size="10.00">+ ~SGI_Base()</text>
<text text-anchor="start" x="352.5" y="-356" font-family="Helvetica,sans-Serif" font-size="10.00">&#45; SGI_Base()</text>
<text text-anchor="start" x="352.5" y="-343" font-family="Helvetica,sans-Serif" font-size="10.00">&#45; operator=()</text>
</g>
<!-- Node3 -->
<g id="node5" class="node"><title>Node3</title>
<a xlink:href="../../d1/d60/classproject_1_1_s_g_i___net_label.html" target="_top" xlink:title="The SGI_NetLabel class. ">
<polygon fill="white" stroke="black" points="0,-26.5 0,-271.5 140,-271.5 140,-26.5 0,-26.5"/>
<text text-anchor="middle" x="70" y="-258.5" font-family="Helvetica,sans-Serif" font-size="10.00">SGI_NetLabel</text>
<polyline fill="none" stroke="black" points="0,-250.5 140,-250.5 "/>
<text text-anchor="start" x="8" y="-237.5" font-family="Helvetica,sans-Serif" font-size="10.00">&#45; mNetLabel</text>
<text text-anchor="start" x="8" y="-224.5" font-family="Helvetica,sans-Serif" font-size="10.00">&#45; mStaticText</text>
<text text-anchor="start" x="8" y="-211.5" font-family="Helvetica,sans-Serif" font-size="10.00">&#45; mFont</text>
<text text-anchor="start" x="8" y="-198.5" font-family="Helvetica,sans-Serif" font-size="10.00">&#45; mRotate180</text>
<text text-anchor="start" x="8" y="-185.5" font-family="Helvetica,sans-Serif" font-size="10.00">&#45; mTextOrigin</text>
<text text-anchor="start" x="8" y="-172.5" font-family="Helvetica,sans-Serif" font-size="10.00">&#45; mBoundingRect</text>
<text text-anchor="start" x="8" y="-159.5" font-family="Helvetica,sans-Serif" font-size="10.00">&#45; sOriginCrossLines</text>
<polyline fill="none" stroke="black" points="0,-151.5 140,-151.5 "/>
<text text-anchor="start" x="8" y="-138.5" font-family="Helvetica,sans-Serif" font-size="10.00">+ SGI_NetLabel()</text>
<text text-anchor="start" x="8" y="-125.5" font-family="Helvetica,sans-Serif" font-size="10.00">+ ~SGI_NetLabel()</text>
<text text-anchor="start" x="8" y="-112.5" font-family="Helvetica,sans-Serif" font-size="10.00">+ updateCacheAndRepaint()</text>
<text text-anchor="start" x="8" y="-99.5" font-family="Helvetica,sans-Serif" font-size="10.00">+ boundingRect()</text>
<text text-anchor="start" x="8" y="-86.5" font-family="Helvetica,sans-Serif" font-size="10.00">+ paint()</text>
<text text-anchor="start" x="8" y="-73.5" font-family="Helvetica,sans-Serif" font-size="10.00">&#45; SGI_NetLabel()</text>
<text text-anchor="start" x="8" y="-60.5" font-family="Helvetica,sans-Serif" font-size="10.00">&#45; SGI_NetLabel()</text>
<text text-anchor="start" x="8" y="-47.5" font-family="Helvetica,sans-Serif" font-size="10.00">&#45; operator=()</text>
<text text-anchor="start" x="8" y="-34.5" font-family="Helvetica,sans-Serif" font-size="10.00">&#45; getSchematicLayer()</text>
</a>
</g>
<!-- Node1&#45;&gt;Node3 -->
<g id="edge4" class="edge"><title>Node1&#45;&gt;Node3</title>
<path fill="none" stroke="midnightblue" d="M334.058,-377.832C281.971,-367.303 202.081,-344.5 149,-298 140.191,-290.283 132.205,-281.339 125.002,-271.742"/>
<polygon fill="none" stroke="midnightblue" points="333.605,-381.31 344.088,-379.778 334.938,-374.438 333.605,-381.31"/>
</g>
<!-- Node4 -->
<g id="node7" class="node"><title>Node4</title>
<a xlink:href="../../df/dd1/classproject_1_1_s_g_i___net_line.html" target="_top" xlink:title="The SGI_NetLine class. ">
<polygon fill="white" stroke="black" points="158,-33 158,-265 298,-265 298,-33 158,-33"/>
<text text-anchor="middle" x="228" y="-252" font-family="Helvetica,sans-Serif" font-size="10.00">SGI_NetLine</text>
<polyline fill="none" stroke="black" points="158,-244 298,-244 "/>
<text text-anchor="start" x="166" y="-231" font-family="Helvetica,sans-Serif" font-size="10.00">&#45; mNetLine</text>
<text text-anchor="start" x="166" y="-218" font-family="Helvetica,sans-Serif" font-size="10.00">&#45; mLayer</text>
<text text-anchor="start" x="166" y="-205" font-family="Helvetica,sans-Serif" font-size="10.00">&#45; mLineF</text>
<text text-anchor="start" x="166" y="-192" font-family="Helvetica,sans-Serif" font-size="10.00">&#45; mBoundingRect</text>
<text text-anchor="start" x="166" y="-179" font-family="Helvetica,sans-Serif" font-size="10.00">&#45; mShape</text>
<polyline fill="none" stroke="black" points="158,-171 298,-171 "/>
<text text-anchor="start" x="166" y="-158" font-family="Helvetica,sans-Serif" font-size="10.00">+ SGI_NetLine()</text>
<text text-anchor="start" x="166" y="-145" font-family="Helvetica,sans-Serif" font-size="10.00">+ ~SGI_NetLine()</text>
<text text-anchor="start" x="166" y="-132" font-family="Helvetica,sans-Serif" font-size="10.00">+ updateCacheAndRepaint()</text>
<text text-anchor="start" x="166" y="-119" font-family="Helvetica,sans-Serif" font-size="10.00">+ boundingRect()</text>
<text text-anchor="start" x="166" y="-106" font-family="Helvetica,sans-Serif" font-size="10.00">+ shape()</text>
<text text-anchor="start" x="166" y="-93" font-family="Helvetica,sans-Serif" font-size="10.00">+ paint()</text>
<text text-anchor="start" x="166" y="-80" font-family="Helvetica,sans-Serif" font-size="10.00">&#45; SGI_NetLine()</text>
<text text-anchor="start" x="166" y="-67" font-family="Helvetica,sans-Serif" font-size="10.00">&#45; SGI_NetLine()</text>
<text text-anchor="start" x="166" y="-54" font-family="Helvetica,sans-Serif" font-size="10.00">&#45; operator=()</text>
<text text-anchor="start" x="166" y="-41" font-family="Helvetica,sans-Serif" font-size="10.00">&#45; getSchematicLayer()</text>
</a>
</g>
<!-- Node1&#45;&gt;Node4 -->
<g id="edge6" class="edge"><title>Node1&#45;&gt;Node4</title>
<path fill="none" stroke="midnightblue" d="M337.461,-336.157C326.834,-324.125 316.063,-310.98 307,-298 299.792,-287.677 292.777,-276.619 286.093,-265.362"/>
<polygon fill="none" stroke="midnightblue" points="335.12,-338.788 344.405,-343.891 340.328,-334.112 335.12,-338.788"/>
</g>
<!-- Node5 -->
<g id="node9" class="node"><title>Node5</title>
<a xlink:href="../../da/db5/classproject_1_1_s_g_i___net_point.html" target="_top" xlink:title="The SGI_NetPoint class. ">
<polygon fill="white" stroke="black" points="316,-46 316,-252 456,-252 456,-46 316,-46"/>
<text text-anchor="middle" x="386" y="-239" font-family="Helvetica,sans-Serif" font-size="10.00">SGI_NetPoint</text>
<polyline fill="none" stroke="black" points="316,-231 456,-231 "/>
<text text-anchor="start" x="324" y="-218" font-family="Helvetica,sans-Serif" font-size="10.00">&#45; mNetPoint</text>
<text text-anchor="start" x="324" y="-205" font-family="Helvetica,sans-Serif" font-size="10.00">&#45; mLayer</text>
<text text-anchor="start" x="324" y="-192" font-family="Helvetica,sans-Serif" font-size="10.00">&#45; mPointVisible</text>
<text text-anchor="start" x="324" y="-179" font-family="Helvetica,sans-Serif" font-size="10.00">&#45; sBoundingRect</text>
<polyline fill="none" stroke="black" points="316,-171 456,-171 "/>
<text text-anchor="start" x="324" y="-158" font-family="Helvetica,sans-Serif" font-size="10.00">+ SGI_NetPoint()</text>
<text text-anchor="start" x="324" y="-145" font-family="Helvetica,sans-Serif" font-size="10.00">+ ~SGI_NetPoint()</text>
<text text-anchor="start" x="324" y="-132" font-family="Helvetica,sans-Serif" font-size="10.00">+ updateCacheAndRepaint()</text>
<text text-anchor="start" x="324" y="-119" font-family="Helvetica,sans-Serif" font-size="10.00">+ boundingRect()</text>
<text text-anchor="start" x="324" y="-106" font-family="Helvetica,sans-Serif" font-size="10.00">+ paint()</text>
<text text-anchor="start" x="324" y="-93" font-family="Helvetica,sans-Serif" font-size="10.00">&#45; SGI_NetPoint()</text>
<text text-anchor="start" x="324" y="-80" font-family="Helvetica,sans-Serif" font-size="10.00">&#45; SGI_NetPoint()</text>
<text text-anchor="start" x="324" y="-67" font-family="Helvetica,sans-Serif" font-size="10.00">&#45; operator=()</text>
<text text-anchor="start" x="324" y="-54" font-family="Helvetica,sans-Serif" font-size="10.00">&#45; getSchematicLayer()</text>
</a>
</g>
<!-- Node1&#45;&gt;Node5 -->
<g id="edge8" class="edge"><title>Node1&#45;&gt;Node5</title>
<path fill="none" stroke="midnightblue" d="M386,-324.634C386,-302.507 386,-276.885 386,-252.169"/>
<polygon fill="none" stroke="midnightblue" points="382.5,-324.866 386,-334.866 389.5,-324.866 382.5,-324.866"/>
</g>
<!-- Node6 -->
<g id="node11" class="node"><title>Node6</title>
<a xlink:href="../../dd/d00/classproject_1_1_s_g_i___symbol.html" target="_top" xlink:title="The SGI_Symbol class. ">
<polygon fill="white" stroke="black" points="474,-26.5 474,-271.5 614,-271.5 614,-26.5 474,-26.5"/>
<text text-anchor="middle" x="544" y="-258.5" font-family="Helvetica,sans-Serif" font-size="10.00">SGI_Symbol</text>
<polyline fill="none" stroke="black" points="474,-250.5 614,-250.5 "/>
<text text-anchor="start" x="482" y="-237.5" font-family="Helvetica,sans-Serif" font-size="10.00">&#45; mSymbol</text>
<text text-anchor="start" x="482" y="-224.5" font-family="Helvetica,sans-Serif" font-size="10.00">&#45; mLibSymbol</text>
<text text-anchor="start" x="482" y="-211.5" font-family="Helvetica,sans-Serif" font-size="10.00">&#45; mFont</text>
<text text-anchor="start" x="482" y="-198.5" font-family="Helvetica,sans-Serif" font-size="10.00">&#45; mBoundingRect</text>
<text text-anchor="start" x="482" y="-185.5" font-family="Helvetica,sans-Serif" font-size="10.00">&#45; mShape</text>
<text text-anchor="start" x="482" y="-172.5" font-family="Helvetica,sans-Serif" font-size="10.00">&#45; mCachedTextProperties</text>
<polyline fill="none" stroke="black" points="474,-164.5 614,-164.5 "/>
<text text-anchor="start" x="482" y="-151.5" font-family="Helvetica,sans-Serif" font-size="10.00">+ SGI_Symbol()</text>
<text text-anchor="start" x="482" y="-138.5" font-family="Helvetica,sans-Serif" font-size="10.00">+ ~SGI_Symbol()</text>
<text text-anchor="start" x="482" y="-125.5" font-family="Helvetica,sans-Serif" font-size="10.00">+ updateCacheAndRepaint()</text>
<text text-anchor="start" x="482" y="-112.5" font-family="Helvetica,sans-Serif" font-size="10.00">+ boundingRect()</text>
<text text-anchor="start" x="482" y="-99.5" font-family="Helvetica,sans-Serif" font-size="10.00">+ shape()</text>
<text text-anchor="start" x="482" y="-86.5" font-family="Helvetica,sans-Serif" font-size="10.00">+ paint()</text>
<text text-anchor="start" x="482" y="-73.5" font-family="Helvetica,sans-Serif" font-size="10.00">&#45; SGI_Symbol()</text>
<text text-anchor="start" x="482" y="-60.5" font-family="Helvetica,sans-Serif" font-size="10.00">&#45; SGI_Symbol()</text>
<text text-anchor="start" x="482" y="-47.5" font-family="Helvetica,sans-Serif" font-size="10.00">&#45; operator=()</text>
<text text-anchor="start" x="482" y="-34.5" font-family="Helvetica,sans-Serif" font-size="10.00">&#45; getSchematicLayer()</text>
</a>
</g>
<!-- Node1&#45;&gt;Node6 -->
<g id="edge10" class="edge"><title>Node1&#45;&gt;Node6</title>
<path fill="none" stroke="midnightblue" d="M434.539,-336.157C445.166,-324.125 455.937,-310.98 465,-298 470.867,-289.598 476.606,-280.708 482.143,-271.621"/>
<polygon fill="none" stroke="midnightblue" points="431.672,-334.112 427.595,-343.891 436.88,-338.788 431.672,-334.112"/>
</g>
<!-- Node7 -->
<g id="node13" class="node"><title>Node7</title>
<a xlink:href="../../da/d6f/classproject_1_1_s_g_i___symbol_pin.html" target="_top" xlink:title="The SGI_SymbolPin class. ">
<polygon fill="white" stroke="black" points="632,-0.5 632,-297.5 772,-297.5 772,-0.5 632,-0.5"/>
<text text-anchor="middle" x="702" y="-284.5" font-family="Helvetica,sans-Serif" font-size="10.00">SGI_SymbolPin</text>
<polyline fill="none" stroke="black" points="632,-276.5 772,-276.5 "/>
<text text-anchor="start" x="640" y="-263.5" font-family="Helvetica,sans-Serif" font-size="10.00">&#45; mPin</text>
<text text-anchor="start" x="640" y="-250.5" font-family="Helvetica,sans-Serif" font-size="10.00">&#45; mLibPin</text>
<text text-anchor="start" x="640" y="-237.5" font-family="Helvetica,sans-Serif" font-size="10.00">&#45; mFont</text>
<text text-anchor="start" x="640" y="-224.5" font-family="Helvetica,sans-Serif" font-size="10.00">&#45; mRadiusPx</text>
<text text-anchor="start" x="640" y="-211.5" font-family="Helvetica,sans-Serif" font-size="10.00">&#45; mStaticText</text>
<text text-anchor="start" x="640" y="-198.5" font-family="Helvetica,sans-Serif" font-size="10.00">&#45; mRotate180</text>
<text text-anchor="start" x="640" y="-185.5" font-family="Helvetica,sans-Serif" font-size="10.00">&#45; mBoundingRect</text>
<text text-anchor="start" x="640" y="-172.5" font-family="Helvetica,sans-Serif" font-size="10.00">&#45; mTextOrigin</text>
<text text-anchor="start" x="640" y="-159.5" font-family="Helvetica,sans-Serif" font-size="10.00">&#45; mTextBoundingRect</text>
<text text-anchor="start" x="640" y="-146.5" font-family="Helvetica,sans-Serif" font-size="10.00">&#45; mShape</text>
<polyline fill="none" stroke="black" points="632,-138.5 772,-138.5 "/>
<text text-anchor="start" x="640" y="-125.5" font-family="Helvetica,sans-Serif" font-size="10.00">+ SGI_SymbolPin()</text>
<text text-anchor="start" x="640" y="-112.5" font-family="Helvetica,sans-Serif" font-size="10.00">+ ~SGI_SymbolPin()</text>
<text text-anchor="start" x="640" y="-99.5" font-family="Helvetica,sans-Serif" font-size="10.00">+ updateCacheAndRepaint()</text>
<text text-anchor="start" x="640" y="-86.5" font-family="Helvetica,sans-Serif" font-size="10.00">+ boundingRect()</text>
<text text-anchor="start" x="640" y="-73.5" font-family="Helvetica,sans-Serif" font-size="10.00">+ shape()</text>
<text text-anchor="start" x="640" y="-60.5" font-family="Helvetica,sans-Serif" font-size="10.00">+ paint()</text>
<text text-anchor="start" x="640" y="-47.5" font-family="Helvetica,sans-Serif" font-size="10.00">&#45; SGI_SymbolPin()</text>
<text text-anchor="start" x="640" y="-34.5" font-family="Helvetica,sans-Serif" font-size="10.00">&#45; SGI_SymbolPin()</text>
<text text-anchor="start" x="640" y="-21.5" font-family="Helvetica,sans-Serif" font-size="10.00">&#45; operator=()</text>
<text text-anchor="start" x="640" y="-8.5" font-family="Helvetica,sans-Serif" font-size="10.00">&#45; getSchematicLayer()</text>
</a>
</g>
<!-- Node1&#45;&gt;Node7 -->
<g id="edge12" class="edge"><title>Node1&#45;&gt;Node7</title>
<path fill="none" stroke="midnightblue" d="M437.942,-377.832C490.029,-367.303 569.919,-344.5 623,-298 626.083,-295.299 629.066,-292.448 631.949,-289.471"/>
<polygon fill="none" stroke="midnightblue" points="437.062,-374.438 427.912,-379.778 438.395,-381.31 437.062,-374.438"/>
</g>
<!-- Node2 -->
<g id="node2" class="node"><title>Node2</title>
<a xlink:href="../../d9/d37/class_graphics_item.html" target="_top" xlink:title="The GraphicsItem class. ">
<polygon fill="white" stroke="black" points="338,-475 338,-551 434,-551 434,-475 338,-475"/>
<text text-anchor="middle" x="386" y="-538" font-family="Helvetica,sans-Serif" font-size="10.00">GraphicsItem</text>
<polyline fill="none" stroke="black" points="338,-530 434,-530 "/>
<text text-anchor="middle" x="386" y="-517" font-family="Helvetica,sans-Serif" font-size="10.00"> </text>
<polyline fill="none" stroke="black" points="338,-509 434,-509 "/>
<text text-anchor="start" x="346" y="-496" font-family="Helvetica,sans-Serif" font-size="10.00">+ GraphicsItem()</text>
<text text-anchor="start" x="346" y="-483" font-family="Helvetica,sans-Serif" font-size="10.00">+ ~GraphicsItem()</text>
</a>
</g>
<!-- Node2&#45;&gt;Node1 -->
<g id="edge2" class="edge"><title>Node2&#45;&gt;Node1</title>
<path fill="none" stroke="midnightblue" d="M386,-464.621C386,-455.662 386,-446.276 386,-437.235"/>
<polygon fill="none" stroke="midnightblue" points="382.5,-464.896 386,-474.896 389.5,-464.896 382.5,-464.896"/>
</g>
</g>
</svg>
