<?xml version="1.0" encoding="UTF-8" standalone="no"?>
<!DOCTYPE svg PUBLIC "-//W3C//DTD SVG 1.1//EN"
 "http://www.w3.org/Graphics/SVG/1.1/DTD/svg11.dtd">
<!-- Generated by graphviz version 2.26.3 (20100126.1600)
 -->
<!-- Title: getGenComp Pages: 1 -->
<svg width="680pt" height="401pt"
 viewBox="0.00 0.00 680.00 401.00" xmlns="http://www.w3.org/2000/svg" xmlns:xlink="http://www.w3.org/1999/xlink">
<g id="graph1" class="graph" transform="scale(1 1) rotate(0) translate(4 397)">
<title>getGenComp</title>
<polygon fill="white" stroke="white" points="-4,5 -4,-397 677,-397 677,5 -4,5"/>
<!-- Node1 -->
<g id="node1" class="node"><title>Node1</title>
<polygon fill="#bfbfbf" stroke="black" points="0,-244.5 0,-265.5 74,-265.5 74,-244.5 0,-244.5"/>
<text text-anchor="middle" x="37" y="-252.5" font-family="Helvetica,sans-Serif" font-size="10.00">getGenComp</text>
</g>
<!-- Node2 -->
<g id="node3" class="node"><title>Node2</title>
<a xlink:href="../../d5/d07/classproject_1_1_board.html#a56ae9f28c406912ae4a5a893087a72ca" target="_top" xlink:title="project::Board::updateErc\lMessages">
<polygon fill="white" stroke="black" points="122,-342 122,-376 250,-376 250,-342 122,-342"/>
<text text-anchor="start" x="130" y="-363" font-family="Helvetica,sans-Serif" font-size="10.00">project::Board::updateErc</text>
<text text-anchor="middle" x="186" y="-350" font-family="Helvetica,sans-Serif" font-size="10.00">Messages</text>
</a>
</g>
<!-- Node1&#45;&gt;Node2 -->
<g id="edge2" class="edge"><title>Node1&#45;&gt;Node2</title>
<path fill="none" stroke="midnightblue" d="M50.4172,-273.983C63.7194,-291.535 85.5973,-317.218 110,-333 115.152,-336.332 120.779,-339.287 126.564,-341.895"/>
<polygon fill="midnightblue" stroke="midnightblue" points="53.0226,-271.619 44.2749,-265.641 47.3858,-275.769 53.0226,-271.619"/>
</g>
<!-- Node5 -->
<g id="node9" class="node"><title>Node5</title>
<a xlink:href="../../d6/d12/classproject_1_1_s_i___symbol_pin.html#a2e791a2f0f926f88b6d3a8b6d73a03f0" target="_top" xlink:title="project::SI_SymbolPin\l::SI_SymbolPin">
<polygon fill="white" stroke="black" points="129,-290 129,-324 243,-324 243,-290 129,-290"/>
<text text-anchor="start" x="137" y="-311" font-family="Helvetica,sans-Serif" font-size="10.00">project::SI_SymbolPin</text>
<text text-anchor="middle" x="186" y="-298" font-family="Helvetica,sans-Serif" font-size="10.00">::SI_SymbolPin</text>
</a>
</g>
<!-- Node1&#45;&gt;Node5 -->
<g id="edge8" class="edge"><title>Node1&#45;&gt;Node5</title>
<path fill="none" stroke="midnightblue" d="M76.1734,-269.054C87.1122,-272.951 99.0111,-277.164 110,-281 118.295,-283.896 127.109,-286.941 135.686,-289.887"/>
<polygon fill="midnightblue" stroke="midnightblue" points="77.0458,-265.649 66.4512,-265.584 74.6929,-272.242 77.0458,-265.649"/>
</g>
<!-- Node6 -->
<g id="node11" class="node"><title>Node6</title>
<a xlink:href="../../db/dd3/classproject_1_1_b_e_s___select.html#a4a1156d123edf8ab83919f7bd13b4afa" target="_top" xlink:title="project::BES_Select\l::proccessIdleSceneRightClick">
<polygon fill="white" stroke="black" points="110,-238 110,-272 262,-272 262,-238 110,-238"/>
<text text-anchor="start" x="118" y="-259" font-family="Helvetica,sans-Serif" font-size="10.00">project::BES_Select</text>
<text text-anchor="middle" x="186" y="-246" font-family="Helvetica,sans-Serif" font-size="10.00">::proccessIdleSceneRightClick</text>
</a>
</g>
<!-- Node1&#45;&gt;Node6 -->
<g id="edge10" class="edge"><title>Node1&#45;&gt;Node6</title>
<path fill="none" stroke="midnightblue" d="M84.2286,-255C92.3756,-255 101.027,-255 109.711,-255"/>
<polygon fill="midnightblue" stroke="midnightblue" points="84.2147,-251.5 74.2146,-255 84.2146,-258.5 84.2147,-251.5"/>
</g>
<!-- Node7 -->
<g id="node13" class="node"><title>Node7</title>
<a xlink:href="../../dc/dbb/classproject_1_1_unplaced_components_dock.html#af175cf3f7948ac944834cad09819b753" target="_top" xlink:title="project::UnplacedComponents\lDock::on_pushButton_clicked">
<polygon fill="white" stroke="black" points="306.5,-208 306.5,-242 455.5,-242 455.5,-208 306.5,-208"/>
<text text-anchor="start" x="314.5" y="-229" font-family="Helvetica,sans-Serif" font-size="10.00">project::UnplacedComponents</text>
<text text-anchor="middle" x="381" y="-216" font-family="Helvetica,sans-Serif" font-size="10.00">Dock::on_pushButton_clicked</text>
</a>
</g>
<!-- Node1&#45;&gt;Node7 -->
<g id="edge12" class="edge"><title>Node1&#45;&gt;Node7</title>
<path fill="none" stroke="midnightblue" d="M69.8838,-240.709C82.2226,-236.039 96.5233,-231.431 110,-229 175.639,-217.16 251.676,-217.206 306.47,-219.604"/>
<polygon fill="midnightblue" stroke="midnightblue" points="68.4793,-237.501 60.4621,-244.427 71.0488,-244.012 68.4793,-237.501"/>
</g>
<!-- Node8 -->
<g id="node15" class="node"><title>Node8</title>
<a xlink:href="../../dc/dbb/classproject_1_1_unplaced_components_dock.html#ad000d7056be9060e68ab7f2548d12946" target="_top" xlink:title="project::UnplacedComponents\lDock::updateComponentsList">
<polygon fill="white" stroke="black" points="111.5,-119 111.5,-153 260.5,-153 260.5,-119 111.5,-119"/>
<text text-anchor="start" x="119.5" y="-140" font-family="Helvetica,sans-Serif" font-size="10.00">project::UnplacedComponents</text>
<text text-anchor="middle" x="186" y="-127" font-family="Helvetica,sans-Serif" font-size="10.00">Dock::updateComponentsList</text>
</a>
</g>
<!-- Node1&#45;&gt;Node8 -->
<g id="edge14" class="edge"><title>Node1&#45;&gt;Node8</title>
<path fill="none" stroke="midnightblue" d="M58.0546,-237.878C72.6098,-226.067 92.4388,-210.028 110,-196 128.257,-181.416 149.094,-164.981 164.327,-153.004"/>
<polygon fill="midnightblue" stroke="midnightblue" points="55.7074,-235.275 50.1511,-244.296 60.1203,-240.709 55.7074,-235.275"/>
</g>
<!-- Node3 -->
<g id="node5" class="node"><title>Node3</title>
<a xlink:href="../../d5/d07/classproject_1_1_board.html#a95b66fc6a5db1ecdd9d52fbe963818e0" target="_top" xlink:title="project::Board::addToProject">
<polygon fill="white" stroke="black" points="310.5,-371.5 310.5,-392.5 451.5,-392.5 451.5,-371.5 310.5,-371.5"/>
<text text-anchor="middle" x="381" y="-379.5" font-family="Helvetica,sans-Serif" font-size="10.00">project::Board::addToProject</text>
</a>
</g>
<!-- Node2&#45;&gt;Node3 -->
<g id="edge4" class="edge"><title>Node2&#45;&gt;Node3</title>
<path fill="none" stroke="midnightblue" d="M260.238,-367.756C276.711,-369.699 294.125,-371.753 310.447,-373.678"/>
<polygon fill="midnightblue" stroke="midnightblue" points="260.462,-364.258 250.12,-366.563 259.642,-371.21 260.462,-364.258"/>
</g>
<!-- Node4 -->
<g id="node7" class="node"><title>Node4</title>
<a xlink:href="../../d5/d07/classproject_1_1_board.html#ad8078122fac80d0623a2604e7ca69777" target="_top" xlink:title="project::Board::removeFrom\lProject">
<polygon fill="white" stroke="black" points="312,-319 312,-353 450,-353 450,-319 312,-319"/>
<text text-anchor="start" x="320" y="-340" font-family="Helvetica,sans-Serif" font-size="10.00">project::Board::removeFrom</text>
<text text-anchor="middle" x="381" y="-327" font-family="Helvetica,sans-Serif" font-size="10.00">Project</text>
</a>
</g>
<!-- Node2&#45;&gt;Node4 -->
<g id="edge6" class="edge"><title>Node2&#45;&gt;Node4</title>
<path fill="none" stroke="midnightblue" d="M260.474,-350.216C277.335,-348.227 295.171,-346.123 311.803,-344.162"/>
<polygon fill="midnightblue" stroke="midnightblue" points="259.642,-346.79 250.12,-351.437 260.462,-353.742 259.642,-346.79"/>
</g>
<!-- Node8&#45;&gt;Node7 -->
<g id="edge24" class="edge"><title>Node8&#45;&gt;Node7</title>
<path fill="none" stroke="midnightblue" d="M221.589,-158.55C243.131,-171.55 271.48,-187.537 298,-199 305.346,-202.175 313.208,-205.15 321.057,-207.872"/>
<polygon fill="midnightblue" stroke="midnightblue" points="223.158,-155.407 212.799,-153.183 219.51,-161.381 223.158,-155.407"/>
</g>
<!-- Node9 -->
<g id="node17" class="node"><title>Node9</title>
<a xlink:href="../../dc/dbb/classproject_1_1_unplaced_components_dock.html#abda2283f458f0fc17a0ccd8f61df7528" target="_top" xlink:title="project::UnplacedComponents\lDock::UnplacedComponentsDock">
<polygon fill="white" stroke="black" points="298,-156 298,-190 464,-190 464,-156 298,-156"/>
<text text-anchor="start" x="306" y="-177" font-family="Helvetica,sans-Serif" font-size="10.00">project::UnplacedComponents</text>
<text text-anchor="middle" x="381" y="-164" font-family="Helvetica,sans-Serif" font-size="10.00">Dock::UnplacedComponentsDock</text>
</a>
</g>
<!-- Node8&#45;&gt;Node9 -->
<g id="edge16" class="edge"><title>Node8&#45;&gt;Node9</title>
<path fill="none" stroke="midnightblue" d="M270.619,-152.056C279.602,-153.76 288.734,-155.493 297.702,-157.195"/>
<polygon fill="midnightblue" stroke="midnightblue" points="271.033,-148.572 260.556,-150.146 269.728,-155.449 271.033,-148.572"/>
</g>
<!-- Node10 -->
<g id="node19" class="node"><title>Node10</title>
<a xlink:href="../../dc/dbb/classproject_1_1_unplaced_components_dock.html#a5c8f1dac9d4bbb3d9985ca4d9d3c99bb" target="_top" xlink:title="project::UnplacedComponents\lDock::setBoard">
<polygon fill="white" stroke="black" points="306.5,-104 306.5,-138 455.5,-138 455.5,-104 306.5,-104"/>
<text text-anchor="start" x="314.5" y="-125" font-family="Helvetica,sans-Serif" font-size="10.00">project::UnplacedComponents</text>
<text text-anchor="middle" x="381" y="-112" font-family="Helvetica,sans-Serif" font-size="10.00">Dock::setBoard</text>
</a>
</g>
<!-- Node8&#45;&gt;Node10 -->
<g id="edge18" class="edge"><title>Node8&#45;&gt;Node10</title>
<path fill="none" stroke="midnightblue" d="M270.529,-129.498C282.495,-128.577 294.727,-127.636 306.486,-126.732"/>
<polygon fill="midnightblue" stroke="midnightblue" points="270.258,-126.008 260.556,-130.265 270.795,-132.988 270.258,-126.008"/>
</g>
<!-- Node12 -->
<g id="node23" class="node"><title>Node12</title>
<a xlink:href="../../dc/dbb/classproject_1_1_unplaced_components_dock.html#accd0a903591840efc04eae995ba9518a" target="_top" xlink:title="project::UnplacedComponents\lDock::on_btnAdd_clicked">
<polygon fill="white" stroke="black" points="306.5,-52 306.5,-86 455.5,-86 455.5,-52 306.5,-52"/>
<text text-anchor="start" x="314.5" y="-73" font-family="Helvetica,sans-Serif" font-size="10.00">project::UnplacedComponents</text>
<text text-anchor="middle" x="381" y="-60" font-family="Helvetica,sans-Serif" font-size="10.00">Dock::on_btnAdd_clicked</text>
</a>
</g>
<!-- Node8&#45;&gt;Node12 -->
<g id="edge22" class="edge"><title>Node8&#45;&gt;Node12</title>
<path fill="none" stroke="midnightblue" d="M240.626,-115.415C258.813,-108.72 279.219,-101.375 298,-95 306.722,-92.0392 316,-89.0132 325.074,-86.1212"/>
<polygon fill="midnightblue" stroke="midnightblue" points="239.224,-112.202 231.058,-118.953 241.652,-118.768 239.224,-112.202"/>
</g>
<!-- Node13 -->
<g id="node26" class="node"><title>Node13</title>
<a xlink:href="../../dc/dbb/classproject_1_1_unplaced_components_dock.html#ae18908ab5cceaf70614eaf307a041e8a" target="_top" xlink:title="project::UnplacedComponents\lDock::on_btnAddAll_clicked">
<polygon fill="white" stroke="black" points="306.5,-0 306.5,-34 455.5,-34 455.5,-0 306.5,-0"/>
<text text-anchor="start" x="314.5" y="-21" font-family="Helvetica,sans-Serif" font-size="10.00">project::UnplacedComponents</text>
<text text-anchor="middle" x="381" y="-8" font-family="Helvetica,sans-Serif" font-size="10.00">Dock::on_btnAddAll_clicked</text>
</a>
</g>
<!-- Node8&#45;&gt;Node13 -->
<g id="edge26" class="edge"><title>Node8&#45;&gt;Node13</title>
<path fill="none" stroke="midnightblue" d="M209.602,-111.637C230.968,-90.818 264.189,-61.3955 298,-43 304.101,-39.6804 310.69,-36.7143 317.394,-34.0818"/>
<polygon fill="midnightblue" stroke="midnightblue" points="206.929,-109.358 202.287,-118.881 211.855,-114.331 206.929,-109.358"/>
</g>
<!-- Node11 -->
<g id="node21" class="node"><title>Node11</title>
<a xlink:href="../../dc/dbb/classproject_1_1_unplaced_components_dock.html#a538074349f49cbac4a031289b9a96e49" target="_top" xlink:title="project::UnplacedComponents\lDock::~UnplacedComponentsDock">
<polygon fill="white" stroke="black" points="500,-104 500,-138 672,-138 672,-104 500,-104"/>
<text text-anchor="start" x="508" y="-125" font-family="Helvetica,sans-Serif" font-size="10.00">project::UnplacedComponents</text>
<text text-anchor="middle" x="586" y="-112" font-family="Helvetica,sans-Serif" font-size="10.00">Dock::~UnplacedComponentsDock</text>
</a>
</g>
<!-- Node10&#45;&gt;Node11 -->
<g id="edge20" class="edge"><title>Node10&#45;&gt;Node11</title>
<path fill="none" stroke="midnightblue" d="M465.847,-121C477.124,-121 488.695,-121 499.992,-121"/>
<polygon fill="midnightblue" stroke="midnightblue" points="465.59,-117.5 455.59,-121 465.59,-124.5 465.59,-117.5"/>
</g>
</g>
</svg>
