<?xml version="1.0" encoding="UTF-8" standalone="no"?>
<!DOCTYPE svg PUBLIC "-//W3C//DTD SVG 1.1//EN"
 "http://www.w3.org/Graphics/SVG/1.1/DTD/svg11.dtd">
<!-- Generated by graphviz version 2.26.3 (20100126.1600)
 -->
<!-- Title: SEE_Base Pages: 1 -->
<svg width="510pt" height="304pt"
 viewBox="0.00 0.00 510.00 304.00" xmlns="http://www.w3.org/2000/svg" xmlns:xlink="http://www.w3.org/1999/xlink">
<g id="graph1" class="graph" transform="scale(1 1) rotate(0) translate(4 300)">
<title>SEE_Base</title>
<polygon fill="white" stroke="white" points="-4,5 -4,-300 507,-300 507,5 -4,5"/>
<!-- Node1 -->
<g id="node1" class="node"><title>Node1</title>
<polygon fill="#bfbfbf" stroke="black" points="193,-167 193,-295 279,-295 279,-167 193,-167"/>
<text text-anchor="middle" x="236" y="-282" font-family="Helvetica,sans-Serif" font-size="10.00">SEE_Base</text>
<polyline fill="none" stroke="black" points="193,-274 279,-274 "/>
<text text-anchor="start" x="201" y="-261" font-family="Helvetica,sans-Serif" font-size="10.00"># mType</text>
<text text-anchor="start" x="201" y="-248" font-family="Helvetica,sans-Serif" font-size="10.00"># mAccepted</text>
<polyline fill="none" stroke="black" points="193,-240 279,-240 "/>
<text text-anchor="start" x="201" y="-227" font-family="Helvetica,sans-Serif" font-size="10.00">+ SEE_Base()</text>
<text text-anchor="start" x="201" y="-214" font-family="Helvetica,sans-Serif" font-size="10.00">+ ~SEE_Base()</text>
<text text-anchor="start" x="201" y="-201" font-family="Helvetica,sans-Serif" font-size="10.00">+ getType()</text>
<text text-anchor="start" x="201" y="-188" font-family="Helvetica,sans-Serif" font-size="10.00">+ isAccepted()</text>
<text text-anchor="start" x="201" y="-175" font-family="Helvetica,sans-Serif" font-size="10.00">+ setAccepted()</text>
</g>
<!-- Node2 -->
<g id="node3" class="node"><title>Node2</title>
<a xlink:href="../../d5/db7/classproject_1_1_s_e_e___redirected_q_event.html" target="_top" xlink:title="The SEE_RedirectedQEvent class. ">
<polygon fill="white" stroke="black" points="-0.5,-7.5 -0.5,-122.5 142.5,-122.5 142.5,-7.5 -0.5,-7.5"/>
<text text-anchor="middle" x="71" y="-109.5" font-family="Helvetica,sans-Serif" font-size="10.00">SEE_RedirectedQEvent</text>
<polyline fill="none" stroke="black" points="-0.5,-101.5 142.5,-101.5 "/>
<text text-anchor="start" x="7.5" y="-88.5" font-family="Helvetica,sans-Serif" font-size="10.00">&#45; mQEvent</text>
<polyline fill="none" stroke="black" points="-0.5,-80.5 142.5,-80.5 "/>
<text text-anchor="start" x="7.5" y="-67.5" font-family="Helvetica,sans-Serif" font-size="10.00">+ SEE_RedirectedQEvent()</text>
<text text-anchor="start" x="7.5" y="-54.5" font-family="Helvetica,sans-Serif" font-size="10.00">+ ~SEE_RedirectedQEvent()</text>
<text text-anchor="start" x="7.5" y="-41.5" font-family="Helvetica,sans-Serif" font-size="10.00">+ getQEvent()</text>
<text text-anchor="start" x="7.5" y="-28.5" font-family="Helvetica,sans-Serif" font-size="10.00">+ setAccepted()</text>
<text text-anchor="start" x="7.5" y="-15.5" font-family="Helvetica,sans-Serif" font-size="10.00">+ getQEventFromSEE()</text>
</a>
</g>
<!-- Node1&#45;&gt;Node2 -->
<g id="edge2" class="edge"><title>Node1&#45;&gt;Node2</title>
<path fill="none" stroke="midnightblue" d="M185.584,-180.279C167.497,-162.081 146.972,-141.432 128.34,-122.687"/>
<polygon fill="none" stroke="midnightblue" points="183.116,-182.76 192.648,-187.385 188.081,-177.826 183.116,-182.76"/>
</g>
<!-- Node3 -->
<g id="node5" class="node"><title>Node3</title>
<a xlink:href="../../dd/d40/classproject_1_1_s_e_e___start_add_component.html" target="_top" xlink:title="The SEE_StartAddComponent class. ">
<polygon fill="white" stroke="black" points="160,-1 160,-129 312,-129 312,-1 160,-1"/>
<text text-anchor="middle" x="236" y="-116" font-family="Helvetica,sans-Serif" font-size="10.00">SEE_StartAddComponent</text>
<polyline fill="none" stroke="black" points="160,-108 312,-108 "/>
<text text-anchor="start" x="168" y="-95" font-family="Helvetica,sans-Serif" font-size="10.00">&#45; mGenCompUuid</text>
<text text-anchor="start" x="168" y="-82" font-family="Helvetica,sans-Serif" font-size="10.00">&#45; mSymbVarUuid</text>
<polyline fill="none" stroke="black" points="160,-74 312,-74 "/>
<text text-anchor="start" x="168" y="-61" font-family="Helvetica,sans-Serif" font-size="10.00">+ SEE_StartAddComponent()</text>
<text text-anchor="start" x="168" y="-48" font-family="Helvetica,sans-Serif" font-size="10.00">+ SEE_StartAddComponent()</text>
<text text-anchor="start" x="168" y="-35" font-family="Helvetica,sans-Serif" font-size="10.00">+ ~SEE_StartAddComponent()</text>
<text text-anchor="start" x="168" y="-22" font-family="Helvetica,sans-Serif" font-size="10.00">+ getGenCompUuid()</text>
<text text-anchor="start" x="168" y="-9" font-family="Helvetica,sans-Serif" font-size="10.00">+ getSymbVarUuid()</text>
</a>
</g>
<!-- Node1&#45;&gt;Node3 -->
<g id="edge4" class="edge"><title>Node1&#45;&gt;Node3</title>
<path fill="none" stroke="midnightblue" d="M236,-156.533C236,-147.347 236,-138.02 236,-129.009"/>
<polygon fill="none" stroke="midnightblue" points="232.5,-156.82 236,-166.82 239.5,-156.82 232.5,-156.82"/>
</g>
<!-- Node4 -->
<g id="node7" class="node"><title>Node4</title>
<a xlink:href="../../d7/d58/classproject_1_1_s_e_e___switch_to_schematic_page.html" target="_top" xlink:title="The SEE_SwitchToSchematicPage class. ">
<polygon fill="white" stroke="black" points="329.5,-20.5 329.5,-109.5 502.5,-109.5 502.5,-20.5 329.5,-20.5"/>
<text text-anchor="middle" x="416" y="-96.5" font-family="Helvetica,sans-Serif" font-size="10.00">SEE_SwitchToSchematicPage</text>
<polyline fill="none" stroke="black" points="329.5,-88.5 502.5,-88.5 "/>
<text text-anchor="start" x="337.5" y="-75.5" font-family="Helvetica,sans-Serif" font-size="10.00">&#45; mSchematicIndex</text>
<polyline fill="none" stroke="black" points="329.5,-67.5 502.5,-67.5 "/>
<text text-anchor="start" x="337.5" y="-54.5" font-family="Helvetica,sans-Serif" font-size="10.00">+ SEE_SwitchToSchematicPage()</text>
<text text-anchor="start" x="337.5" y="-41.5" font-family="Helvetica,sans-Serif" font-size="10.00">+ ~SEE_SwitchToSchematicPage()</text>
<text text-anchor="start" x="337.5" y="-28.5" font-family="Helvetica,sans-Serif" font-size="10.00">+ getSchematicIndex()</text>
</a>
</g>
<!-- Node1&#45;&gt;Node4 -->
<g id="edge6" class="edge"><title>Node1&#45;&gt;Node4</title>
<path fill="none" stroke="midnightblue" d="M286.791,-184.159C312.098,-160.821 342.546,-132.741 367.527,-109.703"/>
<polygon fill="none" stroke="midnightblue" points="284.093,-181.887 279.114,-191.239 288.838,-187.032 284.093,-181.887"/>
</g>
</g>
</svg>
